<svg xmlns="http://www.w3.org/2000/svg" width="256" height="256" viewBox="0 0 256 256" version="1.1">
	<path d="M 97.279 32.186 C 96.688 32.909, 95.879 38.356, 95.481 44.290 C 94.572 57.813, 93.622 59.320, 86.110 59.151 C 83.221 59.086, 79.259 59.700, 77.307 60.516 C 72.572 62.495, 69.660 62.387, 67.643 60.158 C 66.125 58.480, 66.111 57.937, 67.488 54.033 C 68.320 51.676, 69 46.456, 69 42.431 C 69 36.003, 68.730 34.924, 66.777 33.557 C 63.916 31.553, 62.721 31.596, 59.996 33.803 C 58.177 35.275, 57.720 36.786, 57.501 42.053 C 57.200 49.284, 54.606 57.812, 52.134 59.693 C 51.235 60.377, 49.317 60.951, 47.872 60.968 C 43.896 61.016, 38.435 63.631, 36.092 66.610 C 33.298 70.163, 33.055 80.423, 35.741 81.454 C 36.878 81.890, 38.062 81.406, 39.152 80.061 C 40.070 78.928, 41.311 78, 41.910 78 C 42.510 78, 43 77.640, 43 77.201 C 43 76.212, 48.942 74, 51.598 74 C 52.675 74, 54.476 74.645, 55.601 75.433 C 57.782 76.961, 57.856 78.329, 56.411 90.500 C 54.155 109.512, 54.392 117.963, 57.478 128.500 C 58.927 133.450, 60.467 139.417, 60.900 141.760 C 61.332 144.102, 61.869 146.156, 62.093 146.324 C 62.317 146.491, 63.837 147.642, 65.472 148.883 L 68.444 151.137 99.290 150.512 C 121.163 150.069, 131.644 150.224, 135.323 151.048 C 141.651 152.464, 148.024 151.067, 151.615 147.476 C 154.580 144.511, 154.624 142.659, 151.793 140.022 C 148.270 136.740, 143.281 135.897, 133.392 136.913 C 126.563 137.615, 122.841 137.487, 117.348 136.361 C 111.001 135.059, 109.531 135.067, 104.278 136.428 C 99.964 137.546, 94.646 137.872, 84.663 137.631 C 77.131 137.450, 70.688 137.022, 70.347 136.681 C 69.705 136.039, 67.438 118.850, 66.353 106.397 C 65.766 99.668, 66.695 93.087, 70.114 79.757 C 71.422 74.653, 74.980 72.967, 84.990 72.706 C 95.881 72.423, 96.033 72.620, 96.492 87.600 C 97.213 111.139, 97.349 112.288, 99.816 115.748 C 101.090 117.534, 103.262 119.279, 104.643 119.625 C 106.024 119.972, 113.207 119.581, 120.605 118.757 C 139.020 116.706, 140.789 114.844, 141.726 96.527 C 142.247 86.353, 144.101 76.789, 145.994 74.508 C 146.566 73.818, 149.269 72.957, 151.999 72.595 C 154.962 72.201, 158.027 71.020, 159.604 69.664 C 161.826 67.753, 162.134 66.885, 161.543 64.197 C 160.591 59.861, 157.575 58, 151.500 58 C 144.384 58, 142.360 56.287, 141.791 49.782 C 141.171 42.685, 137.238 34.605, 134.195 34.173 C 132.927 33.994, 131.293 34.342, 130.563 34.947 C 128.885 36.340, 128.021 47.413, 129.242 51.881 C 130.534 56.606, 128.940 57.795, 120.330 58.526 C 114.846 58.991, 112.447 58.765, 110.127 57.566 C 107.247 56.076, 107.102 55.708, 107.259 50.249 C 107.468 42.958, 106.240 34.850, 104.694 33.316 C 102.738 31.376, 98.471 30.725, 97.279 32.186 M 112.636 73.601 C 108.964 76.097, 108.607 77.102, 108.987 83.884 C 109.091 85.745, 108.385 90.319, 107.417 94.049 C 105.739 100.521, 105.739 100.952, 107.419 103.517 C 109.126 106.122, 109.424 106.193, 117.187 105.840 C 124.405 105.512, 125.420 105.213, 127.499 102.796 C 129.435 100.546, 129.910 98.541, 130.461 90.308 C 130.821 84.913, 131.328 79.366, 131.587 77.981 C 132.442 73.405, 129.936 71.522, 122.717 71.315 C 117.326 71.161, 115.678 71.535, 112.636 73.601" stroke="none" fill="black" fill-rule="evenodd"/>
</svg>