<svg xmlns="http://www.w3.org/2000/svg" width="256" height="256" viewBox="0 0 256 256" version="1.1">
	<path d="M 84 44.075 C 78.364 45.815, 75.891 45.995, 65.394 45.429 C 52.029 44.708, 49 45.444, 49 49.413 C 49 50.701, 49.617 52.267, 50.371 52.893 C 52.489 54.651, 60.697 56.806, 69.286 57.860 C 73.569 58.385, 77.745 59.373, 78.567 60.056 C 79.768 61.052, 79.977 63.256, 79.630 71.264 C 79.091 83.683, 78.643 84.230, 68.315 85.075 C 61.416 85.640, 60.418 85.992, 58.337 88.601 C 56.825 90.497, 56.244 92.191, 56.658 93.496 C 57.847 97.247, 60.069 98.100, 67.057 97.490 C 72.832 96.985, 73.838 97.163, 75.483 98.981 C 77.269 100.955, 77.278 101.278, 75.675 106.361 C 74.754 109.284, 73.962 112.986, 73.916 114.588 C 73.870 116.190, 73.077 121.086, 72.153 125.469 C 70.125 135.097, 69.327 135.671, 56.730 136.562 C 47.072 137.246, 44.691 138.543, 45.196 142.851 C 45.409 144.674, 46.695 146.134, 49.500 147.741 C 53.306 149.921, 54.154 150.002, 67 149.402 C 78.221 148.877, 81.505 149.065, 86.452 150.515 C 91.119 151.883, 94.034 152.099, 99.952 151.515 C 104.103 151.105, 115.600 150.837, 125.500 150.919 C 140.996 151.048, 143.986 150.821, 146.997 149.284 C 150.954 147.265, 151.714 145.139, 149.977 140.945 C 148.456 137.273, 143.882 136.260, 136.392 137.937 C 133.435 138.598, 130.113 138.853, 129.010 138.503 C 126.775 137.794, 125.498 134.135, 126.298 130.732 C 126.587 129.504, 127.102 127.375, 127.442 126 C 128.393 122.164, 129.191 97.029, 128.511 92.350 C 127.429 84.908, 123.217 81.975, 113.205 81.691 C 108.477 81.556, 105.496 82.016, 103.096 83.250 C 98.671 85.525, 95.730 85.464, 93.547 83.052 C 91.949 81.286, 91.881 80.105, 92.821 70.459 C 93.517 63.313, 94.382 59.235, 95.452 58.053 C 96.666 56.712, 99.252 56.153, 106.273 55.712 C 111.348 55.394, 116.850 54.665, 118.500 54.093 C 120.150 53.520, 125.023 52.629, 129.330 52.113 C 137.673 51.112, 138.986 50.586, 137.313 48.913 C 135.508 47.108, 116.456 43.318, 108.285 43.138 C 104.003 43.044, 98.250 42.765, 95.500 42.517 C 92.192 42.220, 88.301 42.747, 84 44.075 M 93.798 96.282 C 90.038 97.771, 89.248 100.328, 85.474 123.198 C 83.135 137.377, 84.322 138.674, 98.815 137.770 C 109.131 137.126, 113.683 134.893, 114.456 130.094 C 115.482 123.732, 115.313 103.584, 114.212 100.875 C 113.308 98.651, 112.044 98.001, 105.950 96.625 C 97.876 94.801, 97.561 94.793, 93.798 96.282" stroke="none" fill="black" fill-rule="evenodd"/>
</svg>