<svg xmlns="http://www.w3.org/2000/svg" width="256" height="256" viewBox="0 0 256 256" version="1.1">
	<path d="M 62.651 30.250 C 61.245 31.535, 59.285 35.395, 58.081 39.253 C 56.921 42.966, 54.476 48.366, 52.648 51.253 C 50.819 54.139, 47.632 59.603, 45.564 63.395 C 43.497 67.188, 39.599 73.098, 36.903 76.529 C 34.206 79.960, 32 83.207, 32 83.744 C 32 84.281, 30.853 86.411, 29.452 88.476 C 26.306 93.112, 25.331 97.489, 26.998 99.498 C 29.253 102.215, 31.791 101.082, 37.081 95 C 40.539 91.024, 43.051 89, 44.528 89 C 49.090 89, 49.488 90.886, 49.674 113.403 C 49.911 142.053, 50.649 151.391, 53.049 156.096 C 56.470 162.801, 59.875 163.169, 62.885 157.158 C 64.562 153.808, 64.674 151.311, 64.210 127.500 C 63.932 113.200, 63.668 91.600, 63.624 79.500 C 63.549 58.738, 63.675 57.174, 65.859 51.711 C 67.132 48.527, 69.934 43.887, 72.086 41.400 C 76.632 36.148, 76.939 33.848, 73.545 30.455 C 70.424 27.333, 65.934 27.248, 62.651 30.250 M 115.619 33.290 C 113.875 35.034, 113.180 37.169, 112.707 42.235 C 111.683 53.203, 110.878 53.772, 93 56.176 C 81.635 57.705, 79 59.638, 79 66.446 C 79 68.731, 78.553 71.047, 78.006 71.594 C 76.704 72.896, 76.619 75.469, 77.482 87.500 C 78.392 100.208, 79.376 104.066, 82.442 106.946 C 84.714 109.080, 85.258 109.172, 89.396 108.130 C 91.865 107.509, 97.186 107, 101.220 107 C 108.936 107, 111.976 108.218, 114.082 112.152 C 115.646 115.075, 116.107 135.128, 114.814 144.030 C 113.866 150.564, 113.945 151.994, 115.414 154.833 C 117.946 159.730, 120.658 162, 123.977 162 C 128.717 162, 130.468 158.407, 129.476 150.714 C 129.035 147.296, 128.792 138.791, 128.936 131.814 C 129.102 123.732, 128.749 117.769, 127.961 115.381 C 126.810 111.893, 126.890 111.491, 129.128 109.567 C 131.328 107.674, 132.332 107.555, 141.016 108.165 C 146.232 108.531, 152.481 109.163, 154.902 109.568 C 161.615 110.691, 162.014 109.639, 161.929 91.059 C 161.829 69.130, 160.922 60.471, 158.473 58.055 C 156 55.615, 153.245 55.185, 139.439 55.082 C 129.585 55.009, 128.126 54.766, 126.082 52.862 C 123.921 50.849, 123.827 50.240, 124.474 42.475 C 125.128 34.616, 125.052 34.150, 122.858 32.613 C 119.762 30.444, 118.331 30.578, 115.619 33.290 M 97.537 69.372 C 95.271 71.638, 93.017 77.538, 93.006 81.236 C 93.003 82.190, 93.550 85.027, 94.222 87.539 C 95.279 91.492, 96.121 92.492, 100.472 94.964 C 105.176 97.636, 107.657 98.393, 110.801 98.115 C 112.742 97.943, 114.832 92.097, 115.587 84.723 C 116.936 71.564, 114.278 67, 105.266 67 C 100.962 67, 99.443 67.466, 97.537 69.372 M 132.137 68.335 C 131.528 69.069, 130.348 73.231, 129.515 77.585 C 126.179 95.020, 128.213 97.863, 141.925 94.923 C 146.540 93.933, 147.032 93.546, 147.969 90.173 C 148.530 88.153, 148.972 85.150, 148.952 83.500 C 148.886 78.096, 146.450 69.802, 144.514 68.387 C 142.081 66.607, 133.600 66.572, 132.137 68.335" stroke="none" fill="black" fill-rule="evenodd"/>
</svg>