<svg xmlns="http://www.w3.org/2000/svg" width="256" height="256" viewBox="0 0 256 256" version="1.1">
	<path d="M 128.500 79.126 C 120.826 80.844, 118.690 80.972, 114 80.001 C 104.036 77.938, 81.191 77.544, 72.904 79.293 C 68.832 80.152, 62.125 81.143, 58 81.495 C 46.226 82.499, 42.152 83.806, 40.433 87.129 C 39.121 89.666, 39.121 90.333, 40.431 92.866 C 42.748 97.347, 46.047 97.518, 65.500 94.167 C 68.800 93.599, 77.051 92.566, 83.836 91.871 C 94.853 90.744, 97.330 90.802, 107.008 92.412 C 112.968 93.403, 118.228 93.977, 118.697 93.687 C 119.166 93.397, 124.039 92.674, 129.525 92.079 C 146.818 90.206, 152.894 88.811, 154.510 86.345 C 155.872 84.266, 155.714 83.942, 151.861 80.890 C 146.654 76.766, 140.968 76.337, 128.500 79.126" stroke="none" fill="black" fill-rule="evenodd"/>
</svg>