<svg xmlns="http://www.w3.org/2000/svg" width="256" height="256" viewBox="0 0 256 256" version="1.1">
	<path d="M 92.655 28.829 C 90.192 31.551, 90.613 33.921, 94.585 39.687 C 100.754 48.645, 97.736 51.175, 83.423 49.046 C 77.441 48.156, 74.182 48.104, 71.804 48.859 C 69.987 49.437, 64.364 49.861, 59.309 49.801 C 52.256 49.718, 49.522 50.083, 47.559 51.370 C 43.864 53.790, 44.159 57.499, 48.250 60.078 C 50.971 61.793, 52.640 62.049, 58.500 61.651 C 62.350 61.390, 69.020 61.661, 73.321 62.254 C 80.409 63.231, 81.887 63.117, 89.079 61.039 C 96.473 58.902, 97.770 58.816, 108.051 59.786 C 114.956 60.437, 120.006 61.429, 121.543 62.436 C 125.002 64.703, 124.738 68.294, 120.900 71.174 C 119.196 72.453, 115.403 75.975, 112.472 79 C 95.257 96.767, 85.692 105.616, 81.006 108.109 C 75.210 111.192, 74.221 112.108, 74.676 113.970 C 75.416 116.998, 71.331 121.709, 66.335 123.590 C 58.277 126.624, 47.204 132.969, 44.632 136.025 C 41.223 140.077, 39.704 155.680, 42.494 157.995 C 44.682 159.811, 46.791 157.716, 48.131 152.394 C 49.355 147.531, 56.684 139.844, 62.271 137.561 C 66.395 135.877, 75.775 136.972, 77.506 139.339 C 78.174 140.253, 79.092 141, 79.546 141 C 80 141, 81.300 141.855, 82.436 142.899 C 84.613 144.902, 92.795 148, 95.909 148 C 96.921 148, 99.718 148.726, 102.124 149.612 C 108.161 151.837, 123.194 153.095, 130.500 151.988 C 148.810 149.213, 151.117 148.696, 153.475 146.841 C 161.096 140.847, 151.360 135.245, 138.500 138.225 C 133.395 139.407, 129.665 139.412, 113.500 138.254 C 91.171 136.655, 84.698 134.956, 84.175 130.559 C 83.829 127.644, 88.487 117, 90.109 117 C 90.638 117, 91.897 115.088, 92.906 112.750 C 95.227 107.374, 97.481 105.436, 102.453 104.543 C 107.858 103.572, 113.366 100.616, 115.317 97.640 C 116.209 96.278, 119.679 93.056, 123.028 90.479 C 127.528 87.016, 129.722 84.451, 131.437 80.647 C 132.714 77.816, 135.447 73.925, 137.512 72 C 149.490 60.830, 150.234 58.843, 144.471 53.408 C 140.108 49.293, 135.584 48.362, 127.333 49.883 C 122.016 50.863, 120.530 50.808, 118.087 49.545 C 114.458 47.669, 111 43.370, 111 40.736 C 111 39.634, 108.365 36.115, 105.111 32.871 C 98.791 26.570, 95.628 25.544, 92.655 28.829" stroke="none" fill="black" fill-rule="evenodd"/>
</svg>