<svg xmlns="http://www.w3.org/2000/svg" width="256" height="256" viewBox="0 0 256 256" version="1.1">
	<path d="M 69.557 30.223 C 68.701 31.445, 68 33.301, 68 34.347 C 68 38.105, 52.931 69.544, 47.494 77.131 C 40.765 86.518, 39.077 92.506, 42.261 95.690 C 44.864 98.292, 48.374 96.520, 53.010 90.264 C 55.360 87.094, 58.766 82.925, 60.580 81 C 62.393 79.075, 64.624 75.250, 65.538 72.500 C 69.571 60.357, 73.420 57, 83.310 57 C 89.488 57, 98.775 58.794, 100.864 60.391 C 102.603 61.721, 101.885 68.105, 98.995 77 C 95.601 87.450, 94.594 88.997, 84.524 99.227 C 79.257 104.578, 74.047 110.878, 72.946 113.227 C 67.992 123.798, 59.999 132.193, 53.565 133.585 C 48.555 134.670, 45 137.745, 45 140.997 C 45 145.552, 47.280 147, 54.449 147 C 57.918 147, 62.344 146.336, 64.285 145.525 C 67.748 144.078, 72 139.754, 72 137.680 C 72 137.102, 72.975 135.591, 74.167 134.323 C 75.358 133.054, 76.395 131.178, 76.470 130.153 C 76.644 127.795, 88.280 112.878, 94.380 107.195 C 96.921 104.827, 99 102.465, 99 101.945 C 99 100.040, 103.856 100.971, 104.500 103 C 104.849 104.100, 105.482 105, 105.907 105 C 106.331 105, 107.502 106.693, 108.508 108.762 C 109.520 110.842, 111.687 113.190, 113.353 114.012 C 115.012 114.831, 116.697 116.175, 117.099 117 C 117.501 117.825, 118.942 120.992, 120.302 124.038 C 123.935 132.180, 136.974 144.825, 146.680 149.622 L 154.138 153.306 156.295 151.150 C 158.448 148.996, 158.449 148.989, 156.522 145.410 C 154.059 140.838, 148.041 134.818, 142.057 130.940 C 139.483 129.272, 136.527 126.465, 135.488 124.703 C 134.450 122.942, 132.743 120.600, 131.696 119.500 C 130.648 118.400, 129.111 116.487, 128.280 115.250 C 127.450 114.013, 126.147 113, 125.385 113 C 124.623 113, 124 112.520, 124 111.933 C 124 111.347, 122.947 109.434, 121.660 107.683 C 120.373 105.932, 118.749 103.052, 118.052 101.283 C 117.355 99.514, 116.023 97.825, 115.092 97.529 C 109.972 95.904, 110.022 81.241, 115.181 71.337 C 116.854 68.127, 118.812 63.250, 119.533 60.500 C 120.739 55.902, 120.680 55.233, 118.796 52.177 C 117.669 50.350, 115.676 48.447, 114.367 47.950 C 113.059 47.452, 106.888 47.142, 100.654 47.261 C 89.786 47.468, 89.149 47.364, 85.160 44.724 C 81.248 42.135, 81 41.688, 81 37.208 C 81 30.935, 78.929 28, 74.500 28 C 72.134 28, 70.644 28.670, 69.557 30.223" stroke="none" fill="black" fill-rule="evenodd"/>
</svg>