<svg xmlns="http://www.w3.org/2000/svg" width="256" height="256" viewBox="0 0 256 256" version="1.1">
	<path d="M 87.223 29.557 C 83.559 32.122, 84.256 36.551, 89.006 40.893 C 93.988 45.447, 95.779 50.513, 92.943 52.030 C 91.888 52.595, 87.082 52.998, 82.262 52.927 C 74.205 52.807, 62.898 54.498, 53.852 57.175 C 51.577 57.849, 49.779 59.190, 49.073 60.740 C 47.118 65.030, 48.884 65.784, 62.306 66.388 C 75.264 66.972, 85.129 67.772, 88.640 68.524 C 91.508 69.139, 91.965 70.678, 92.652 82.034 C 93.113 89.643, 92.944 91.924, 91.870 92.617 C 91.116 93.103, 87.125 93.561, 83 93.635 C 78.875 93.710, 71.346 94.167, 66.270 94.651 C 55.812 95.649, 53.461 97.004, 54.565 101.401 C 55.814 106.380, 58.232 107.043, 75.291 107.087 C 93.104 107.133, 93.422 107.271, 92.962 114.755 C 92.802 117.365, 92.734 123.517, 92.811 128.427 C 92.888 133.337, 92.509 137.887, 91.969 138.537 C 90.855 139.880, 57.856 139.882, 49.870 138.539 C 45.874 137.868, 44.948 138.052, 43.120 139.880 C 40.898 142.102, 40.287 147.324, 41.942 149.941 C 43.068 151.720, 52.735 152.879, 67.035 152.949 C 75.052 152.988, 78.908 152.529, 83.173 151.030 C 88.459 149.173, 89.188 149.147, 96.029 150.573 C 100.017 151.405, 106.705 151.989, 110.890 151.872 C 115.076 151.755, 123.692 152.007, 130.039 152.432 C 139.701 153.078, 142.215 152.937, 145.502 151.564 C 151.391 149.103, 153 147.229, 153 142.829 C 153 139.397, 152.609 138.781, 149.482 137.290 C 146.465 135.851, 145.220 135.781, 140.732 136.799 C 125.406 140.276, 124.149 140.396, 117.232 139.048 C 113.529 138.327, 109.760 137.356, 108.855 136.890 C 106.253 135.549, 105 130.396, 105 121.039 C 105 109.096, 106.205 107.899, 119.500 106.631 C 121.700 106.421, 126.571 105.691, 130.324 105.009 C 135.978 103.981, 137.340 103.348, 138.267 101.313 C 139.156 99.363, 139.089 98.663, 137.943 97.919 C 134.875 95.927, 125.797 93.883, 116.546 93.102 C 111.234 92.654, 106.453 91.853, 105.921 91.321 C 104.282 89.682, 104.287 74.568, 105.927 72.590 C 109.280 68.545, 113.025 67.678, 129.199 67.202 L 144.898 66.739 145.516 63.928 C 146.385 59.969, 144.565 57.175, 140.738 56.595 C 133.097 55.436, 125.056 54.835, 118.915 54.964 C 111.536 55.119, 110.072 54.187, 110.207 49.428 C 110.332 45.032, 108.576 42.292, 100.801 34.750 C 93.508 27.675, 91.180 26.785, 87.223 29.557" stroke="none" fill="black" fill-rule="evenodd"/>
</svg>