<svg xmlns="http://www.w3.org/2000/svg" width="256" height="256" viewBox="0 0 256 256" version="1.1">
	<path d="M 65.190 31.562 C 62.614 32.645, 61.814 33.839, 60.419 38.682 C 58.396 45.701, 53.742 55.223, 50 60 C 48.492 61.925, 45.892 66.200, 44.223 69.500 C 42.555 72.800, 39.754 76.850, 38.001 78.500 C 34.188 82.089, 28.395 90.569, 26.976 94.640 C 26.227 96.788, 26.319 98.624, 27.322 101.534 C 28.475 104.881, 29.175 105.548, 31.802 105.810 C 35.223 106.151, 35.275 106.104, 42.479 96.207 C 47.165 89.769, 49.433 88.033, 51.049 89.649 C 51.552 90.152, 52.760 94.600, 53.732 99.532 C 55.100 106.472, 55.331 110.535, 54.751 117.500 C 54.339 122.450, 54.236 127.900, 54.520 129.610 C 54.805 131.321, 55.424 137.894, 55.896 144.218 C 56.368 150.541, 57.373 157.006, 58.130 158.584 C 59.981 162.446, 64.408 164.022, 66.766 161.659 C 68.321 160.099, 68.477 157.631, 68.281 137.710 C 68.160 125.494, 67.532 109.650, 66.884 102.500 C 66.236 95.350, 65.700 83.109, 65.692 75.299 L 65.679 61.098 70.839 51.121 C 74.101 44.817, 76 39.887, 76 37.727 C 76 32.094, 70.876 29.171, 65.190 31.562 M 122.500 43.999 C 113.150 45.033, 102.463 45.907, 98.750 45.940 C 93.296 45.988, 91.600 46.400, 89.919 48.081 C 87.951 50.049, 87.930 50.266, 89.540 52.044 C 91.926 54.680, 96.582 56.015, 106.182 56.812 C 113.888 57.453, 114.505 57.672, 115.172 60 C 116.642 65.141, 119.024 83.774, 118.414 85.365 C 117.473 87.816, 113.592 88.402, 105.274 87.347 C 99.335 86.594, 96.539 86.732, 91.376 88.031 C 83.712 89.960, 81.478 91.785, 82.380 95.380 C 83.213 98.698, 86.951 99.630, 102.405 100.372 C 118.757 101.157, 118.689 101.086, 119.325 117.852 C 119.589 124.808, 120.110 131.858, 120.482 133.518 C 121.026 135.943, 120.648 137.088, 118.558 139.343 C 116.299 141.781, 115.533 142.041, 112.728 141.325 C 107.403 139.964, 93.825 140.396, 90.523 142.031 C 87.026 143.762, 85.040 148.254, 86.645 150.803 C 88.154 153.199, 91.819 153.616, 103.395 152.706 C 108.953 152.269, 115.075 151.926, 117 151.943 C 152.705 152.265, 159.464 151.673, 160.269 148.151 C 160.756 146.024, 158.796 142.030, 156.042 139.538 C 154.188 137.860, 152.538 137.601, 144.512 137.730 C 132.835 137.917, 132.616 137.707, 132.394 126.132 C 132.303 121.384, 131.899 114.987, 131.496 111.916 C 130.796 106.577, 130.889 106.232, 133.616 104.087 C 135.971 102.235, 137.220 101.956, 140.766 102.488 C 146.960 103.416, 160.837 102.020, 162.563 100.294 C 164.777 98.080, 164.272 94.181, 161.401 91.310 L 158.802 88.711 144.984 89.258 C 131.473 89.793, 131.117 89.753, 128.980 87.479 C 126.975 85.345, 126.900 84.836, 128.068 81.326 C 128.768 79.222, 129.601 73.465, 129.920 68.534 C 130.596 58.078, 130.804 57.872, 142.433 56.146 C 150.153 55, 154.377 52.514, 154.744 48.901 C 155.437 42.065, 148.933 41.076, 122.500 43.999" stroke="none" fill="black" fill-rule="evenodd"/>
</svg>