<svg xmlns="http://www.w3.org/2000/svg" width="256" height="256" viewBox="0 0 256 256" version="1.1">
	<path d="M 87.855 28.724 C 86.560 30.222, 82.829 33.935, 79.563 36.974 C 76.298 40.013, 70.673 45.472, 67.063 49.104 C 63.454 52.736, 57.994 57.121, 54.930 58.848 C 51.867 60.575, 48.324 63.090, 47.058 64.438 C 43.836 67.868, 44.891 71.639, 49.625 73.617 C 52.798 74.943, 53.696 74.930, 58.012 73.496 C 60.671 72.613, 63.406 71.215, 64.091 70.391 C 66.573 67.400, 68.838 66.848, 71.490 68.585 C 72.870 69.490, 74 70.784, 74 71.460 C 74 72.137, 74.947 73.547, 76.105 74.595 C 77.972 76.284, 80.093 76.527, 94.855 76.741 C 104.010 76.874, 112.400 77.008, 113.500 77.039 C 114.600 77.071, 116.494 75.837, 117.709 74.298 C 125.175 64.841, 129.192 64.609, 138.500 73.095 C 141.266 75.617, 143.451 76.412, 146.798 76.115 C 148.983 75.921, 153 70.851, 153 68.288 C 153 62.840, 148.153 59.208, 137.112 56.383 C 132.549 55.215, 130.565 53.970, 126.500 49.723 C 123.750 46.850, 118.215 42.250, 114.201 39.500 C 110.187 36.750, 104.589 32.587, 101.761 30.250 C 95.456 25.038, 91.424 24.596, 87.855 28.724 M 90.400 45.854 C 84.436 50.217, 82.744 52.581, 82.616 56.727 L 82.500 60.500 90.500 60.660 C 94.900 60.749, 101.650 61.294, 105.500 61.872 C 111.169 62.723, 112.762 62.661, 113.880 61.546 C 116.195 59.235, 114.408 55.709, 107.614 49.185 C 99.952 41.827, 96.750 41.207, 90.400 45.854 M 67.759 85.404 C 61.351 86.885, 58.619 89.332, 59.480 92.818 C 59.844 94.293, 60.584 95.950, 61.125 96.500 C 61.722 97.106, 70.736 97.500, 84.022 97.500 C 104.684 97.500, 106.051 97.615, 107.963 99.523 L 109.991 101.547 107.860 105.523 C 106.688 107.710, 104.890 110.088, 103.865 110.807 C 102.839 111.525, 102 112.898, 102 113.857 C 102 118.443, 94.985 119.522, 90.327 115.652 C 85.236 111.424, 77.027 111.212, 74.864 115.253 C 71.689 121.187, 74.861 127.160, 81.898 128.500 C 85.287 129.144, 92.496 135.722, 99.487 144.547 C 102.316 148.118, 107.457 151.988, 109.382 151.996 C 109.867 151.998, 111.786 150.386, 113.647 148.413 L 117.030 144.826 114.831 140.913 C 113.621 138.761, 112.326 137, 111.953 137 C 111.255 137, 111.384 134.737, 112.516 127.097 C 113.136 122.912, 116.157 116.986, 119.243 113.900 C 120.024 113.119, 120.967 111.266, 121.340 109.783 C 122.283 106.022, 127.823 101.131, 132 100.370 C 136.767 99.502, 141 97.241, 141 95.563 C 141 91.451, 130.477 86.620, 119 85.463 C 107.390 84.293, 72.740 84.253, 67.759 85.404" stroke="none" fill="black" fill-rule="evenodd"/>
</svg>