<svg xmlns="http://www.w3.org/2000/svg" width="256" height="256" viewBox="0 0 256 256" version="1.1">
	<path d="M 77.500 37.167 C 75.300 37.698, 71.408 37.868, 68.850 37.545 C 62.004 36.680, 45.973 38.714, 43.745 40.731 C 42.202 42.127, 42.012 43.292, 42.567 47.948 C 42.930 51.001, 43.610 53.910, 44.076 54.412 C 44.575 54.949, 46.506 54.228, 48.766 52.662 C 53.630 49.291, 57.913 49.214, 60.945 52.441 C 63.106 54.741, 63.202 55.421, 62.615 64.191 C 62.272 69.311, 61.318 77.100, 60.496 81.500 C 59.674 85.900, 58.135 94.225, 57.076 100 C 55.486 108.663, 54.346 111.899, 50.557 118.500 C 48.031 122.900, 45.097 128.814, 44.036 131.642 C 42.976 134.470, 40.968 139.150, 39.573 142.041 C 36.154 149.129, 36.846 152, 41.972 152 C 44.730 152, 46.464 151.269, 48.501 149.250 C 59.545 138.301, 65.375 123.574, 70.569 93.500 C 70.854 91.850, 71.493 88.925, 71.988 87 C 72.484 85.075, 73.352 78.424, 73.917 72.220 C 74.836 62.142, 75.273 60.464, 78.020 56.471 C 82.643 49.752, 85.606 48.595, 97.715 48.784 C 108.902 48.959, 114.400 50.535, 115.459 53.872 C 115.818 55.002, 115.437 58.756, 114.613 62.214 C 113.789 65.671, 112.820 70.075, 112.459 72 C 112.099 73.925, 109.788 78.975, 107.323 83.222 C 104.859 87.469, 102.996 91.741, 103.184 92.715 C 103.371 93.688, 104.766 95.080, 106.284 95.807 C 108.622 96.928, 109.894 96.882, 114.633 95.504 C 119.675 94.039, 120.678 94.027, 124.861 95.390 C 127.413 96.221, 131.649 97.435, 134.276 98.087 C 136.902 98.740, 139.342 99.744, 139.696 100.318 C 141.703 103.564, 139.053 116.584, 135.049 123.151 C 133.926 124.993, 133.006 128.101, 133.004 130.059 C 132.999 134.888, 131.292 136.874, 125.350 138.967 C 113.336 143.198, 112.094 144.838, 116.864 150.170 C 119.630 153.260, 120.267 153.492, 125.715 153.396 C 140.634 153.131, 143.571 149.409, 150.093 122.500 C 153.597 108.046, 154.218 103.590, 153.756 96.244 C 153.151 86.634, 151.391 84.482, 145.003 85.545 C 134.217 87.339, 124.911 85.537, 123.301 81.342 C 122.973 80.487, 123.645 77.024, 124.793 73.644 C 127.672 65.177, 129.590 51.553, 129.140 42.773 C 128.847 37.059, 121.223 35.425, 107.416 38.115 C 102.231 39.126, 100.616 39.057, 96.488 37.651 C 91.196 35.847, 83.750 35.658, 77.500 37.167" stroke="none" fill="black" fill-rule="evenodd"/>
</svg>