<svg xmlns="http://www.w3.org/2000/svg" width="256" height="256" viewBox="0 0 256 256" version="1.1">
	<path d="M 90.039 33.189 C 88.514 34.826, 87.986 36.779, 87.943 40.939 C 87.831 51.801, 87.040 73.653, 86.385 84 C 85.820 92.909, 85.823 103.482, 86.396 125.500 L 86.500 129.500 81 129.777 C 77.975 129.930, 74.825 130.335, 74 130.678 C 73.175 131.021, 72.050 131.437, 71.500 131.603 C 69.004 132.354, 56.786 134.019, 49.756 134.566 C 44.378 134.985, 41.323 135.736, 39.756 137.024 C 37.629 138.773, 37.588 139.039, 39.037 141.689 L 40.575 144.500 58.537 144.818 C 69.458 145.011, 79.048 144.673, 83 143.955 C 86.575 143.306, 91.525 142.820, 94 142.875 C 103.420 143.085, 136.699 144.083, 141.037 144.285 C 149.313 144.670, 156.430 139.791, 154.786 134.859 C 154.561 134.184, 151.535 132.426, 148.061 130.951 C 142.497 128.589, 141.254 128.396, 137.622 129.333 C 132.970 130.532, 121.708 130.596, 108.772 129.494 L 100.044 128.752 99.562 125.626 C 97.212 110.405, 97.068 88.419, 99.283 83.361 C 99.922 81.902, 101.697 80.892, 104.860 80.185 C 107.412 79.616, 111.981 78.274, 115.013 77.204 C 119.595 75.587, 122.340 75.339, 131.276 75.736 C 140.096 76.127, 142.473 75.920, 144.513 74.583 C 147.243 72.795, 147.949 68.021, 145.750 66.223 C 145.063 65.661, 138.785 65.043, 131.799 64.851 C 123.394 64.619, 118.676 64.077, 117.849 63.250 C 116.110 61.510, 108.893 61.686, 106.256 63.533 C 104.244 64.943, 103.897 64.897, 101.966 62.966 C 100.185 61.185, 99.906 59.851, 100.130 54.183 C 100.849 36.008, 96.276 26.494, 90.039 33.189" stroke="none" fill="black" fill-rule="evenodd"/>
</svg>