<svg xmlns="http://www.w3.org/2000/svg" width="256" height="256" viewBox="0 0 256 256" version="1.1">
	<path d="M 92.881 27.007 C 90.122 28.619, 89.132 32.964, 87.982 48.500 C 86.955 62.381, 86.610 64.060, 83.362 71 C 81.432 75.125, 79.427 79.175, 78.906 80 C 78.386 80.825, 77.242 83.075, 76.366 85 C 75.489 86.925, 73.980 89.625, 73.014 91 C 70.831 94.105, 63.475 107.293, 61.299 112 C 55.888 123.708, 53.941 126.918, 48.921 132.404 C 42.811 139.079, 39.361 146.937, 41.107 150.199 C 42.639 153.062, 44.714 152.359, 51.283 146.750 C 60.769 138.650, 63.776 135.296, 64.497 132.012 C 64.862 130.350, 66.618 126.855, 68.398 124.245 C 70.179 121.635, 73.180 116.461, 75.068 112.747 C 76.955 109.033, 79.400 104.257, 80.500 102.134 C 83.265 96.796, 89.834 89, 91.567 89 C 92.862 89, 93.440 87.788, 93.118 85.750 C 93.053 85.338, 93.477 85, 94.059 85 C 94.641 85, 94.856 84.577, 94.537 84.060 C 94.217 83.542, 94.947 82.196, 96.158 81.068 C 98.143 79.218, 98.526 79.166, 100.045 80.541 C 101.120 81.514, 101.602 83.163, 101.377 85.096 C 101.042 87.979, 103.687 94.655, 106.490 98 C 107.181 98.825, 108.306 101.300, 108.988 103.500 C 109.671 105.700, 112.109 109.975, 114.406 113 C 116.703 116.025, 119.689 120.687, 121.041 123.359 C 124.300 129.800, 138.491 144.417, 142.899 145.876 C 147.373 147.355, 151.516 147.302, 152.742 145.750 C 153.285 145.063, 153.546 143.150, 153.322 141.500 C 152.920 138.537, 150.629 136.064, 143.598 131 C 141.688 129.625, 139.188 126.846, 138.041 124.825 C 135.936 121.115, 127.109 113, 125.179 113 C 124.252 113, 123.260 110.974, 122.547 107.626 C 122.415 107.007, 121.788 105.233, 121.154 103.685 C 120.519 102.137, 120 100.251, 120 99.494 C 120 98.737, 119.550 97.840, 119 97.500 C 118.450 97.160, 118 95.872, 118 94.637 C 118 91.244, 113.130 82.176, 110.933 81.479 C 109.315 80.965, 109.097 80.247, 109.601 77.093 C 110.044 74.324, 109.640 72.215, 108.082 69.160 C 106.914 66.872, 105.604 65, 105.170 65 C 104.298 65, 101.315 47.186, 100.489 37.046 C 99.741 27.863, 97.186 24.491, 92.881 27.007" stroke="none" fill="black" fill-rule="evenodd"/>
</svg>