<svg xmlns="http://www.w3.org/2000/svg" width="256" height="256" viewBox="0 0 256 256" version="1.1">
	<path d="M 62.409 33.972 C 61.259 34.437, 59.759 36.321, 59.076 38.159 C 56.952 43.873, 55.203 47.200, 49.435 56.500 C 46.365 61.450, 42.598 67.778, 41.064 70.562 C 39.530 73.346, 36.750 77.637, 34.887 80.098 C 33.024 82.560, 30.186 87.356, 28.580 90.757 C 25.848 96.543, 25.745 97.197, 26.973 100.918 C 29.141 107.486, 33.548 107.547, 36.477 101.051 C 40.586 91.939, 48.068 89.149, 49.374 96.241 C 49.704 98.033, 50.224 111.650, 50.529 126.500 C 50.834 141.350, 51.547 154.955, 52.114 156.733 C 54.046 162.796, 60.863 165.216, 63.625 160.820 C 64.784 158.975, 64.979 107.639, 63.872 95.500 C 63.371 90, 62.348 83.735, 61.600 81.577 C 60.674 78.907, 60.520 76.673, 61.119 74.584 C 61.604 72.895, 62 69.583, 62 67.224 C 62 64.866, 62.710 61.263, 63.578 59.218 C 66.458 52.432, 71 39.637, 71 38.309 C 71 36.612, 67.366 32.981, 65.750 33.063 C 65.063 33.098, 63.559 33.507, 62.409 33.972 M 110.649 45.005 C 108.024 48.125, 107.515 50.518, 106.488 64.543 C 106.115 69.631, 106.359 74.407, 107.152 77.543 C 107.842 80.269, 108.502 89.025, 108.619 97 C 108.736 104.975, 109.129 116.450, 109.493 122.500 L 110.154 133.500 107.173 135.250 C 103.293 137.527, 99.880 137.468, 97.315 135.079 C 95.372 133.269, 95.232 131.858, 94.908 110.829 C 94.402 78.013, 94.428 74.755, 95.228 71.912 C 96.357 67.903, 94.174 65.748, 89.055 65.819 C 83.415 65.897, 80.867 68.370, 78.587 75.979 C 77.111 80.909, 77.001 82.546, 77.969 85.234 C 78.615 87.030, 79.563 94.800, 80.075 102.500 C 81.631 125.894, 81.837 128.278, 82.855 134.586 C 84.235 143.145, 86.378 147.826, 89.184 148.412 C 95.147 149.657, 104.672 150.199, 117.500 150.021 C 129.321 149.858, 132.667 150.168, 139 152.012 C 153.197 156.145, 152.925 156.282, 154.229 144.361 C 155.580 132.021, 155.778 69.191, 154.475 66.565 C 152.387 62.358, 145.071 63.851, 143.115 68.884 C 142.556 70.323, 141.820 77.350, 141.479 84.500 C 141.139 91.650, 140.659 98.216, 140.413 99.091 C 140.167 99.966, 140.797 105.141, 141.813 110.591 C 143.995 122.306, 143.684 131.442, 140.979 135.027 C 139.309 137.241, 138.436 137.486, 132.650 137.367 C 129.095 137.293, 125.694 136.929, 125.093 136.557 C 124.491 136.185, 124 133.072, 124 129.622 C 124 126.180, 123.291 120.976, 122.425 118.060 C 121.125 113.680, 120.953 109.336, 121.440 93.128 C 122.583 55.077, 122.231 47.939, 119.044 44.547 C 115.912 41.213, 113.740 41.332, 110.649 45.005" stroke="none" fill="black" fill-rule="evenodd"/>
</svg>