<svg xmlns="http://www.w3.org/2000/svg" width="256" height="256" viewBox="0 0 256 256" version="1.1">
	<path d="M 92.500 34.028 C 84.250 34.484, 75.700 35.328, 73.500 35.904 C 71.300 36.481, 67.238 36.963, 64.473 36.976 C 55.626 37.018, 52.434 41.525, 57.596 46.686 L 60.191 49.282 71.846 48.412 C 78.256 47.934, 88.450 47.639, 94.500 47.756 C 106.036 47.981, 129.549 45.656, 134.250 43.827 C 139.350 41.843, 137.688 39.392, 129 36.082 C 122.185 33.486, 112.346 32.932, 92.500 34.028 M 137 74.228 C 135.429 74.920, 123.347 75.466, 104.500 75.697 C 88 75.899, 71.350 76.193, 67.500 76.350 C 63.650 76.507, 57.217 76.717, 53.205 76.817 C 46.928 76.975, 45.566 77.343, 43.455 79.455 C 40.648 82.261, 40.299 85.568, 42.548 88.053 C 43.904 89.552, 45.669 89.699, 56.814 89.247 C 72.578 88.608, 73.035 88.898, 71.105 98.325 C 70.409 101.721, 69.006 105.400, 67.987 106.500 C 66.967 107.600, 65.648 109.625, 65.056 111 C 64.122 113.168, 60.606 119.166, 58.255 122.604 C 57.840 123.211, 56.375 124.280, 55 124.979 C 45.132 129.996, 44.616 139.115, 54.115 140.634 C 57.008 141.097, 58.458 142.088, 60.310 144.869 C 64.479 151.131, 75.289 153.477, 82.500 149.685 C 83.600 149.107, 91.250 148.305, 99.500 147.904 C 107.750 147.502, 115.850 146.686, 117.500 146.090 C 120.803 144.897, 133.762 146.645, 139.695 149.084 C 142.351 150.175, 143.318 150.168, 145.428 149.038 C 149.180 147.030, 149.570 144.354, 146.893 138.986 C 145.358 135.909, 143.508 133.842, 141.525 132.992 C 139.861 132.278, 136.963 130.188, 135.083 128.347 C 133.204 126.506, 131.349 125, 130.961 125 C 130.573 125, 129.964 123.088, 129.607 120.750 C 128.635 114.379, 125.102 106.297, 122.562 104.633 C 117.440 101.277, 111.998 108.342, 115.343 114.004 C 117.735 118.052, 118.551 125.990, 116.812 128.297 C 114.527 131.329, 103.773 133.263, 87 133.657 C 78.475 133.858, 70.891 133.624, 70.147 133.138 C 69.108 132.460, 69.050 131.775, 69.897 130.193 C 70.504 129.059, 71 127.365, 71 126.429 C 71 125.492, 73.123 121.525, 75.718 117.613 C 78.414 113.547, 81.734 106.645, 83.468 101.502 C 87.184 90.472, 88.086 89.896, 103.500 88.702 C 116.264 87.713, 118.199 87.702, 131.168 88.555 C 142.477 89.298, 151.165 87.430, 153.085 83.842 C 154.430 81.328, 153.608 75.003, 151.785 73.846 C 149.936 72.673, 139.944 72.931, 137 74.228" stroke="none" fill="black" fill-rule="evenodd"/>
</svg>