<svg xmlns="http://www.w3.org/2000/svg" width="256" height="256" viewBox="0 0 256 256" version="1.1">
	<path d="M 74.405 30.105 C 72.768 31.914, 72.498 33.817, 72.484 43.651 C 72.466 56.836, 72.129 57.397, 64.767 56.507 C 59.454 55.866, 47.930 57.571, 45.621 59.341 C 43.149 61.236, 42.611 65.468, 44.590 67.447 C 46.038 68.895, 47.991 69.147, 56.412 68.975 C 69.739 68.703, 69.773 68.708, 70.458 70.868 C 70.784 71.896, 70.338 76.509, 69.466 81.118 C 68.593 85.728, 67.454 91.841, 66.934 94.701 C 65.766 101.122, 64.528 104.449, 61.975 108.035 C 60.889 109.561, 60 111.795, 60 113 C 60 115.967, 51.798 130.875, 45.350 139.630 C 39.723 147.271, 38.417 150.540, 39.411 154.500 C 40.373 158.334, 44.535 157.852, 48.391 153.459 C 50.101 151.512, 54.930 146.390, 59.122 142.077 C 65.658 135.353, 66.925 133.470, 68.013 128.868 C 68.711 125.915, 70.569 120.756, 72.141 117.403 C 73.713 114.050, 75 110.459, 75 109.424 C 75 108.389, 76.071 104.608, 77.380 101.021 C 78.689 97.435, 80.209 91.350, 80.758 87.500 C 82.254 76.997, 82.646 75.966, 86.471 72.463 C 89.576 69.618, 90.863 69.166, 97.249 68.674 C 101.237 68.366, 106.464 68.382, 108.864 68.709 C 115.133 69.563, 115.808 71.768, 115.845 91.500 C 115.871 105.534, 116.255 109.271, 118.965 121.912 C 120.664 129.839, 123.010 138.025, 124.178 140.103 C 125.440 142.348, 129.034 145.765, 133.032 148.522 C 138.947 152.601, 140.411 153.167, 145.131 153.205 C 152.445 153.264, 157.743 150.942, 158.574 147.316 C 158.929 145.767, 159.824 142.633, 160.563 140.352 C 162.442 134.553, 161.420 129.110, 158.224 127.895 C 154.494 126.477, 152.575 127.559, 150.127 132.460 C 147.565 137.590, 145.724 138.425, 139.008 137.501 L 134.132 136.830 130.585 121.946 C 127.397 108.568, 127.035 105.615, 127.009 92.780 C 126.978 77.285, 126.278 62.470, 125.452 59.858 C 124.547 56.991, 119.926 56.023, 103.256 55.207 C 92.647 54.687, 86.582 53.982, 85.774 53.174 C 85.093 52.493, 84.631 50.038, 84.748 47.718 C 85.172 39.319, 83.945 32.854, 81.457 30.366 C 78.539 27.448, 76.865 27.386, 74.405 30.105" stroke="none" fill="black" fill-rule="evenodd"/>
</svg>