<svg xmlns="http://www.w3.org/2000/svg" width="256" height="256" viewBox="0 0 256 256" version="1.1">
	<path d="M 82 33.344 C 77.325 33.808, 67.782 34.124, 60.794 34.045 C 51.027 33.936, 47.390 34.264, 45.073 35.462 C 40.745 37.700, 39.602 40.288, 41.765 42.953 C 43.756 45.406, 45.326 45.617, 68 46.471 C 90.484 47.318, 92.849 48.523, 87.500 56.405 C 86.125 58.431, 85 60.362, 85 60.697 C 85 61.373, 80.224 67.962, 75.261 74.135 C 73.479 76.351, 71.187 80.040, 70.169 82.332 C 68.497 86.094, 59.564 95.055, 55.167 97.382 C 54.250 97.867, 52.076 99.605, 50.337 101.244 C 47.047 104.343, 46.640 108.063, 49.305 110.668 C 52.030 113.333, 59.726 112.578, 63.944 109.232 C 69.915 104.497, 77 97.762, 77 96.823 C 77 95.691, 80.759 90.448, 83.795 87.345 C 86.018 85.074, 88.702 84.055, 87.550 85.919 C 87.237 86.425, 87.628 87.485, 88.419 88.276 C 89.209 89.066, 90.164 91.357, 90.541 93.367 C 90.918 95.377, 91.626 97.269, 92.113 97.570 C 93.410 98.371, 93.116 104.929, 91.593 109.195 C 90.488 112.290, 90.495 112.976, 91.637 113.414 C 92.704 113.824, 93 117.208, 93 129.026 C 93 148.016, 93.956 152.277, 98.724 154.539 C 103.753 156.926, 106.068 155.543, 108.362 148.783 C 109.607 145.114, 109.989 142.228, 109.515 140.070 C 107.204 129.545, 106.435 116.424, 107.963 113.569 C 108.714 112.166, 108.996 109.191, 108.689 105.917 C 108.296 101.731, 107.630 100.116, 105.643 98.530 C 104.245 97.413, 103.218 95.825, 103.362 95 C 104.104 90.725, 105.353 89.038, 108.562 87.980 C 111.544 86.995, 112.655 87.138, 116.509 89.004 C 118.973 90.197, 121.764 92.484, 122.710 94.087 C 123.657 95.689, 125.217 97, 126.177 97 C 127.138 97, 130.038 99.055, 132.622 101.566 C 138.156 106.945, 148.062 112.285, 150.698 111.311 C 155.189 109.653, 154.975 106.934, 149.946 101.710 C 147.716 99.395, 144.229 95.782, 142.196 93.683 C 140.163 91.584, 137.270 89.617, 135.767 89.312 C 133.158 88.782, 121 77.051, 121 75.063 C 121 73.088, 114.188 69.925, 111.328 70.573 C 104.977 72.010, 103.626 71.656, 101.939 68.120 C 100.063 64.186, 100.435 60.984, 103.101 58.122 C 104.146 57.001, 105 55.251, 105 54.233 C 105 48.884, 113.027 45.066, 127.690 43.441 C 131.505 43.018, 134.083 42.227, 134.409 41.378 C 134.753 40.479, 134.213 40, 132.855 40 C 131.709 40, 129.136 39.141, 127.136 38.090 C 118.225 33.411, 114.797 32.643, 102.500 32.570 C 95.900 32.532, 86.675 32.880, 82 33.344 M 137.015 41.750 C 137.028 43.246, 137.172 43.282, 138 42 C 138.646 41, 138.974 40.917, 138.985 41.750 C 138.993 42.466, 140.269 43, 141.969 43 C 144.197 43, 144.794 42.626, 144.362 41.500 C 143.496 39.243, 136.995 39.464, 137.015 41.750" stroke="none" fill="black" fill-rule="evenodd"/>
</svg>