<svg xmlns="http://www.w3.org/2000/svg" width="256" height="256" viewBox="0 0 256 256" version="1.1">
	<path d="M 82 34.218 C 78.425 34.692, 68.355 35.273, 59.622 35.509 C 42.363 35.975, 39 36.931, 39 41.368 C 39 46.833, 42.324 47.599, 71.489 48.855 L 86.477 49.500 86.561 62.500 C 86.607 69.650, 87.191 80, 87.859 85.500 C 88.527 91, 89.012 99.325, 88.936 104 C 88.860 108.675, 89.072 113.175, 89.407 114 C 89.741 114.825, 90.149 122.983, 90.313 132.129 C 90.655 151.180, 91.385 153.419, 97.634 154.591 C 100.743 155.174, 101.558 154.922, 103.139 152.888 C 104.159 151.575, 105.495 148.886, 106.107 146.912 C 107.031 143.932, 106.919 142.747, 105.445 139.912 C 104.469 138.036, 103.560 134.025, 103.425 131 C 102.665 114.016, 101.172 98.912, 100.129 97.656 C 98.675 95.903, 100.188 91.988, 102.998 90.233 C 106.011 88.352, 116.829 90.675, 120.051 93.896 C 121.484 95.328, 124.983 97.589, 127.828 98.921 C 130.672 100.252, 133.744 102.165, 134.654 103.171 C 137.358 106.158, 141.670 105.539, 143.556 101.892 C 144.440 100.183, 144.895 97.821, 144.567 96.642 C 143.898 94.233, 125.819 82, 122.928 82 C 121.939 82, 119.863 80.233, 118.315 78.073 C 114.299 72.471, 110.952 70.735, 105.686 71.524 C 102.317 72.030, 101.081 71.803, 99.980 70.476 C 98.326 68.483, 97.672 54.482, 99.108 51.799 C 101.026 48.214, 113.469 45.979, 134.177 45.498 C 150.280 45.125, 152 44.735, 152 41.456 C 152 37.394, 147.944 35.590, 139.652 35.966 C 128.890 36.454, 123.521 36.155, 120.357 34.891 C 116.851 33.491, 90.917 33.036, 82 34.218" stroke="none" fill="black" fill-rule="evenodd"/>
</svg>