<svg xmlns="http://www.w3.org/2000/svg" width="256" height="256" viewBox="0 0 256 256" version="1.1">
	<path d="M 135.587 45.215 C 133.551 46.999, 132.648 49.252, 131.465 55.500 C 130.631 59.900, 129.085 68, 128.030 73.500 C 125.401 87.200, 120.937 99.100, 116.055 105.429 C 113.825 108.320, 112 110.928, 112 111.225 C 112 111.522, 110.313 113.527, 108.250 115.680 C 95.103 129.407, 86.527 140.264, 85.436 144.564 C 83.874 150.715, 86.021 155.356, 90.638 155.805 C 93.410 156.074, 94.309 155.435, 98.367 150.305 C 104.815 142.154, 112.134 131.293, 112.400 129.479 C 112.820 126.621, 116.405 124.999, 120.109 125.993 C 121.974 126.493, 125.452 127.115, 127.838 127.375 C 133.295 127.971, 135.491 129.951, 137.543 136.129 C 139.448 141.866, 147.915 151.674, 151.858 152.711 C 157.453 154.182, 159.958 152.641, 159.985 147.710 C 160.001 144.749, 156.508 137, 155.157 137 C 154.318 137, 150 128.945, 150 127.380 C 150 125.405, 144.892 121.139, 141.792 120.526 C 135.105 119.203, 133.319 118.009, 132.139 114.070 C 130.458 108.460, 130.575 107.777, 135.910 92 C 142.298 73.110, 143.823 66.402, 144.194 55.567 L 144.500 46.634 141.347 44.781 C 138.225 42.947, 138.169 42.951, 135.587 45.215 M 48.299 48.503 C 45.887 50.192, 43.768 55.644, 44.153 59.168 C 44.294 60.451, 44.031 63.242, 43.570 65.370 C 42.784 69, 42.958 69.447, 46.366 72.569 C 48.365 74.400, 50.014 76.033, 50.031 76.199 C 50.048 76.365, 50.688 81.761, 51.453 88.190 C 52.281 95.154, 52.548 102.057, 52.113 105.264 C 51.218 111.860, 51.551 113, 54.375 113 C 55.590 113, 58.253 114.575, 60.294 116.500 C 64.623 120.583, 64.862 120.621, 69.948 118.026 C 72.076 116.941, 75.770 115.763, 78.158 115.408 C 82.874 114.707, 85 112.850, 85 109.431 C 85 106.406, 82.530 104.649, 78.715 104.960 C 67.204 105.900, 66.060 104.547, 65.471 89.287 C 65.009 77.306, 64.513 72.784, 62.880 65.693 C 62.271 63.049, 61.694 58.904, 61.598 56.482 C 61.285 48.608, 54.209 44.363, 48.299 48.503 M 88.762 54.073 C 87.807 54.630, 86.537 55.997, 85.941 57.111 C 84.982 58.902, 86.009 60.284, 94.824 69.068 C 103.675 77.888, 105.186 79, 108.323 79 C 110.947 79, 112.387 78.323, 113.927 76.365 C 115.067 74.916, 116 73.239, 116 72.639 C 116 72.039, 113.452 69.287, 110.338 66.524 C 107.223 63.761, 102.702 59.587, 100.291 57.250 C 95.791 52.887, 92.401 51.953, 88.762 54.073 M 37.783 111.319 C 36.691 112.545, 35.221 115.225, 34.517 117.274 C 33.336 120.709, 33.383 121, 35.118 121 C 36.153 121, 37 121.450, 37 122 C 37 123.410, 44.173 123.187, 46.087 121.718 C 46.959 121.048, 47.974 118.605, 48.342 116.288 C 48.898 112.792, 48.697 111.908, 47.160 111.086 C 43.136 108.932, 39.836 109.014, 37.783 111.319" stroke="none" fill="black" fill-rule="evenodd"/>
</svg>