<svg xmlns="http://www.w3.org/2000/svg" width="256" height="256" viewBox="0 0 256 256" version="1.1">
	<path d="M 95.732 27.632 C 92.388 29.385, 91.782 31.491, 92.549 38.690 C 93.079 43.658, 92.868 44.942, 91.175 47.031 C 89.380 49.247, 88.532 49.473, 82.894 49.234 C 79.214 49.078, 74.705 49.602, 72.005 50.498 C 69.471 51.340, 63.275 52.409, 58.237 52.874 C 47.458 53.869, 44.832 55.280, 43.119 60.997 C 41.037 67.946, 41.785 105, 44.008 105 C 44.420 105, 45.317 106.350, 46 108 C 47.704 112.113, 51.494 112.391, 58.649 108.927 C 62.348 107.137, 63.638 107.023, 70.524 107.878 C 77.162 108.702, 79.101 108.565, 84.306 106.902 C 89.089 105.374, 90.534 105.234, 91.181 106.234 C 93.071 109.155, 93.799 115.275, 93.769 128 C 93.724 146.666, 94.485 151.331, 98.173 155.020 C 103.939 160.785, 109.052 157.926, 109.184 148.863 C 109.227 145.913, 108.716 141.025, 108.047 138 C 107.379 134.975, 106.604 128.647, 106.324 123.937 C 105.843 115.847, 105.956 115.206, 108.367 112.341 C 110.797 109.453, 111.487 109.247, 122.898 108.011 C 133.655 106.846, 135.230 106.881, 138.340 108.357 C 140.244 109.261, 143.325 110, 145.186 110 C 147.915 110, 148.926 109.395, 150.415 106.874 C 151.959 104.260, 152.345 100.854, 152.769 86.072 C 153.417 63.454, 152.672 56.017, 149.404 52.491 C 147.101 50.006, 146.576 49.885, 140.726 50.497 C 134.386 51.159, 114.733 48.322, 108.750 45.880 C 106.163 44.824, 106 44.386, 106 38.514 C 106 29.187, 101.621 24.547, 95.732 27.632 M 110 62.559 C 106.852 64.276, 106.266 66.921, 106.118 80.059 C 106.033 87.677, 106.389 91.150, 107.397 92.529 C 108.893 94.574, 110.556 94.710, 128.301 94.235 L 137.102 94 138.605 90.402 C 139.729 87.714, 139.995 84.269, 139.659 76.784 C 139.103 64.392, 138.562 63.741, 127.500 62.143 C 117.558 60.706, 113.208 60.810, 110 62.559 M 69.500 63.704 C 66.750 64.547, 62.738 65.746, 60.583 66.368 C 56.045 67.680, 55.908 68.070, 55.820 80 C 55.743 90.285, 56.884 93.500, 61.366 95.637 C 64.517 97.140, 65.142 97.140, 69.567 95.632 C 75.914 93.469, 79.642 93.573, 82.727 96 C 84.126 97.100, 86.019 98, 86.935 98 C 87.851 98, 89.079 98.479, 89.665 99.065 C 93.663 103.063, 96.145 69.779, 92.188 65.217 C 89.701 62.349, 76.741 61.485, 69.500 63.704" stroke="none" fill="black" fill-rule="evenodd"/>
</svg>