<svg xmlns="http://www.w3.org/2000/svg" width="256" height="256" viewBox="0 0 256 256" version="1.1">
	<path d="M 70.530 28.183 C 58.931 29.109, 55 30.587, 55 34.023 C 55 35.110, 55.900 36.900, 57 38 C 58.805 39.805, 60.339 40.001, 72.750 40.007 C 90.561 40.016, 100.030 40.914, 100.698 42.655 C 101.704 45.277, 100.047 48.522, 96.793 50.302 C 94.532 51.539, 92.721 53.807, 91.016 57.535 C 88.912 62.136, 88.571 64.222, 88.784 71.191 C 88.922 75.714, 89.512 81.186, 90.094 83.351 C 91.092 87.054, 90.693 102.472, 89.419 109.500 C 88.450 114.843, 86.832 117.919, 84.642 118.579 C 77.552 120.716, 74.625 128.986, 79.579 132.884 C 84.283 136.583, 97.463 133.670, 99.864 128.399 C 100.492 127.022, 100.964 122.656, 100.913 118.697 C 100.863 114.739, 101.409 110.150, 102.127 108.500 C 103.033 106.417, 103.442 100.088, 103.466 87.787 C 103.495 72.625, 103.740 69.835, 105.165 68.408 C 107.190 66.381, 111.765 67.210, 112.736 69.780 C 113.093 70.726, 114.851 73.942, 116.643 76.927 C 118.673 80.311, 120.182 84.454, 120.649 87.927 C 121.548 94.620, 121.429 94.004, 122.339 96.662 C 123.089 98.854, 128.405 103.523, 135.275 108.026 C 137.352 109.387, 139.322 111.625, 139.653 113 C 139.984 114.375, 141.389 117.630, 142.777 120.233 C 144.819 124.065, 145.939 125.086, 148.660 125.596 C 153.175 126.443, 155 124.751, 155 119.715 C 155 114.676, 151.222 108.598, 143.376 101.016 C 138.707 96.503, 137.624 94.819, 137.264 91.516 C 136.881 88.004, 137.279 86.998, 140.440 83.500 C 146.324 76.988, 148.801 65.142, 144.803 62.639 C 142.383 61.124, 137.579 62.995, 137.203 65.599 C 137.039 66.731, 135.602 69.085, 134.009 70.829 C 129.829 75.406, 127.568 75.014, 124.587 69.199 C 123.657 67.383, 122.259 65.653, 121.480 65.354 C 120.702 65.055, 118.887 62.716, 117.447 60.156 C 114.970 55.754, 114.895 55.218, 116.058 50.316 C 117.089 45.970, 117.990 44.628, 121.640 42.007 C 124.033 40.288, 126.243 37.878, 126.551 36.652 C 127.365 33.408, 125.405 29.104, 122.633 28.051 C 119.647 26.915, 85.312 27.002, 70.530 28.183 M 63 60.138 C 58.875 60.674, 53.149 60.895, 50.276 60.631 C 45.427 60.184, 44.870 60.366, 42.526 63.152 C 39.855 66.326, 39.323 69.866, 41.035 73.066 C 42.176 75.198, 45.524 75.556, 50.429 74.070 C 52.118 73.558, 55.127 72.719, 57.115 72.205 C 65.528 70.029, 68.683 76.941, 63.250 85.647 C 59.145 92.225, 48.747 105.890, 43.959 111 C 37.615 117.771, 36.687 119.520, 37.407 123.358 C 37.755 125.210, 38.889 127.495, 39.929 128.435 C 41.639 129.984, 42.087 130.003, 44.659 128.644 C 48.243 126.750, 64.087 110.489, 70.328 102.301 C 75.264 95.824, 76.569 92.886, 80.576 79.232 C 83.155 70.440, 82.867 64.438, 79.713 61.284 C 77.782 59.353, 72.064 58.961, 63 60.138 M 134.821 138.946 C 132.797 139.340, 126.722 139.531, 121.321 139.371 C 115.919 139.210, 109.700 139.486, 107.500 139.983 C 100.764 141.504, 52.259 142.182, 46.213 140.839 C 41.393 139.769, 40.686 139.846, 38.213 141.717 C 35.214 143.985, 35.129 146.133, 37.888 149.964 C 41.446 154.906, 64.423 156.903, 95 154.929 C 105.725 154.237, 121.602 153.540, 130.282 153.381 C 144.443 153.121, 146.473 152.862, 150.032 150.862 C 154.320 148.452, 154.874 146.693, 152.439 143.217 C 149.172 138.552, 143.682 137.221, 134.821 138.946" stroke="none" fill="black" fill-rule="evenodd"/>
</svg>