<svg xmlns="http://www.w3.org/2000/svg" width="256" height="256" viewBox="0 0 256 256" version="1.1">
	<path d="M 77.136 34.864 C 75.598 36.402, 75.146 38.996, 74.556 49.678 C 74.162 56.800, 74.143 64.244, 74.513 66.220 C 75.439 71.155, 72.597 74.133, 67.716 73.341 C 65.020 72.904, 62.734 73.633, 56.577 76.895 C 52.316 79.153, 48.209 81, 47.450 81 C 45.546 81, 44.107 84.102, 44.942 86.403 C 45.553 88.084, 46.570 88.281, 53.692 88.093 C 58.124 87.975, 63.908 87.230, 66.545 86.436 C 70.798 85.157, 71.609 85.169, 73.708 86.544 C 75.957 88.018, 76.045 88.479, 75.471 95.798 C 75.139 100.034, 74.189 105.402, 73.360 107.726 C 72.531 110.051, 72.101 112.355, 72.405 112.846 C 72.708 113.337, 73.236 116.160, 73.577 119.120 C 74.359 125.910, 80.769 137, 83.910 137 C 84.510 137, 85 137.433, 85 137.961 C 85 138.490, 86.797 140.702, 88.994 142.877 C 94.161 147.993, 98.999 149.031, 115.075 148.473 C 137.885 147.682, 144 146.228, 144 141.597 C 144 140.303, 143.325 138.685, 142.500 138 C 141.675 137.315, 141 136.135, 141 135.378 C 141 134.287, 138.551 133.994, 129.250 133.973 C 107.720 133.924, 99.999 133.129, 94.363 130.380 C 89.870 128.190, 89.088 127.350, 88.133 123.688 C 86.530 117.546, 85.924 89.969, 87.355 88.358 C 87.985 87.649, 89.053 86.408, 89.729 85.599 C 90.405 84.790, 93.105 83.865, 95.729 83.542 C 98.353 83.219, 103.457 82.065, 107.071 80.978 C 110.685 79.890, 114.528 79, 115.611 79 C 116.694 79, 120.037 78.363, 123.040 77.584 C 126.043 76.806, 132.198 75.967, 136.718 75.720 C 146.352 75.195, 150.008 73.405, 149.985 69.227 C 149.945 62.092, 144.144 60.718, 132.784 65.154 C 128.179 66.952, 112.923 66.925, 109.726 65.113 C 107.487 63.844, 106.619 63.778, 105.226 64.773 C 102.250 66.897, 98.649 68.208, 94.349 68.732 C 88.654 69.426, 88.148 68.100, 88.069 52.260 C 88.033 45.043, 87.587 38.043, 87.078 36.705 C 85.541 32.663, 80.306 31.694, 77.136 34.864" stroke="none" fill="black" fill-rule="evenodd"/>
</svg>