<svg xmlns="http://www.w3.org/2000/svg" width="256" height="256" viewBox="0 0 256 256" version="1.1">
	<path d="M 111 27.594 C 106.875 28.336, 93.375 29.438, 81 30.042 C 68.625 30.646, 57.493 31.341, 56.263 31.586 C 53.332 32.170, 50.646 36.311, 51.485 38.952 C 52.641 42.595, 55.670 43.231, 72.721 43.414 C 90.243 43.603, 91.131 43.865, 90.227 48.595 C 89.438 52.721, 86.800 53.272, 66.546 53.543 C 55.773 53.687, 46.284 54.273, 44.702 54.892 C 42.948 55.578, 41.332 57.354, 40.374 59.647 C 38.988 62.965, 39 63.711, 40.505 67.653 C 41.418 70.044, 42.779 72, 43.530 72 C 44.280 72, 47.010 70.875, 49.596 69.500 C 53.258 67.553, 55.758 67.003, 60.899 67.015 C 67.959 67.032, 69.081 67.421, 70.723 70.424 C 72.020 72.797, 70.607 77.374, 67.643 80.400 C 62.596 85.555, 59.693 87, 54.388 87 C 48.288 87, 46 87.696, 46 89.550 C 46 92.274, 49.979 93.858, 55.414 93.297 C 60.330 92.789, 60.770 92.938, 63.310 95.956 C 66.773 100.073, 66.981 105.177, 63.750 106.775 C 62.513 107.387, 58.183 108.044, 54.130 108.234 C 47.860 108.527, 46.479 108.926, 44.880 110.900 C 42.750 113.530, 42.408 118.008, 44.200 119.800 C 46.912 122.512, 58.851 120.274, 61.217 116.610 C 62.221 115.056, 75.473 115.318, 77.416 116.930 C 79.651 118.785, 78.105 121.260, 69.655 129.350 C 61.569 137.091, 56.221 140.536, 50.733 141.540 C 48.662 141.919, 45.630 143.477, 43.997 145.003 C 41.291 147.531, 41.123 148.055, 42.113 150.895 C 43.271 154.216, 46.323 155.637, 50.268 154.691 C 67.497 150.561, 71.249 148.584, 80.475 138.769 C 87.354 131.450, 87.973 131.030, 90.306 132.093 C 93.330 133.471, 93.992 136.285, 94.022 147.875 C 94.051 159.022, 95.844 161.640, 103.089 161.115 C 105.807 160.918, 107 156.292, 107 145.953 L 107 136 109.614 136 C 111.051 136, 113.864 136.878, 115.864 137.950 C 127.784 144.344, 141.458 150, 144.994 150 C 151.178 150, 154.006 148.510, 153.962 145.275 C 153.934 143.202, 152.885 141.741, 149.821 139.500 C 142.259 133.972, 140.109 132.869, 136.795 132.821 C 133.120 132.767, 129.004 130.607, 128.993 128.727 C 128.987 127.560, 123.158 123, 121.673 123 C 121.286 123, 118.389 121.329, 115.235 119.286 C 112.081 117.244, 109.373 115.505, 109.219 115.422 C 108.904 115.253, 108.018 111.561, 107.557 108.500 C 107.391 107.400, 107.160 106.500, 107.044 106.500 C 106.604 106.500, 106.051 101.306, 105.980 96.500 C 105.940 93.750, 105.236 88.894, 104.416 85.710 C 102.759 79.278, 103.308 73.911, 105.849 71.684 C 108.717 69.170, 111.913 68.713, 114.549 70.440 C 117.462 72.349, 117.768 76.227, 115.445 81.782 C 113.543 86.333, 114.270 101.475, 116.663 107.134 C 118.444 111.347, 120.745 112.726, 127 113.331 C 129.475 113.570, 134.295 114.584, 137.710 115.584 C 143.790 117.365, 144.020 117.362, 148.710 115.424 C 152.849 113.715, 153.542 113.015, 153.809 110.279 C 154.255 105.714, 149.919 103.579, 140.109 103.534 C 131.923 103.496, 130.193 102.350, 131.353 97.730 C 132.026 95.047, 131.706 95.106, 140 96.130 C 143.579 96.572, 146.970 95.887, 148.429 94.429 C 150.659 92.198, 150.385 87.385, 147.887 84.887 C 146.043 83.043, 144.915 82.832, 139.033 83.230 C 132.834 83.650, 129 82.664, 129 80.648 C 129 80.301, 127.650 78.727, 126 77.150 C 122.357 73.669, 122.250 72.053, 125.460 69.037 C 128.631 66.059, 134.359 66.646, 139.364 70.464 C 143.874 73.904, 148.454 73.642, 151.325 69.779 C 153.010 67.512, 153.158 66.642, 152.212 64.565 C 150.668 61.177, 142.401 57.174, 135.316 56.385 C 132.117 56.028, 127.955 55.109, 126.068 54.343 C 123.683 53.375, 120.478 53.125, 115.568 53.524 C 106.815 54.235, 103.640 52.893, 103.192 48.294 C 102.798 44.261, 104.079 43.568, 115.639 41.563 C 125.147 39.913, 133.641 37.390, 134.529 35.952 C 135.863 33.794, 133.574 29.823, 129.921 27.960 C 125.566 25.738, 121.726 25.664, 111 27.594 M 80.248 72.250 C 77.217 75.498, 76.627 79.134, 78.321 84.134 C 79.134 86.535, 80.113 91.200, 80.495 94.500 C 81.074 99.502, 84.663 112, 85.520 112 C 86.735 112, 90.589 109.120, 90.920 107.964 C 91.151 107.159, 91.376 99.235, 91.420 90.355 C 91.492 75.816, 91.311 74.001, 89.595 72.105 C 87.107 69.355, 82.889 69.421, 80.248 72.250 M 83.148 115.134 C 82.037 116.914, 82.038 117.407, 83.158 118.108 C 84.415 118.894, 87.919 115.726, 87.978 113.750 C 88.027 112.096, 84.396 113.136, 83.148 115.134" stroke="none" fill="black" fill-rule="evenodd"/>
</svg>