<svg xmlns="http://www.w3.org/2000/svg" width="256" height="256" viewBox="0 0 256 256" version="1.1">
	<path d="M 86 43.269 C 83.525 43.720, 74.931 44.406, 66.903 44.794 C 51.410 45.543, 49 46.312, 49 50.507 C 49 54.080, 53.018 55.880, 63.700 57.092 C 70.812 57.900, 75.694 57.907, 81.500 57.117 C 85.900 56.519, 100.006 55.857, 112.846 55.646 C 136.040 55.266, 136.207 55.248, 138.636 52.818 C 141.081 50.374, 141.081 50.372, 139.131 47.894 C 137.491 45.808, 135.779 45.226, 128.341 44.224 C 117.343 42.743, 92.025 42.172, 86 43.269 M 106.681 84.653 C 105.934 85.399, 86.327 87.225, 77 87.417 C 65.065 87.663, 62 88.848, 62 93.217 C 62 95.048, 62.845 96.508, 64.552 97.626 C 68.857 100.447, 119.929 99.861, 127.750 96.901 C 129.383 96.283, 130 95.240, 130 93.096 C 130 89.407, 127.972 87.323, 123.205 86.112 C 119.565 85.187, 107.235 84.098, 106.681 84.653 M 71.500 130.081 C 69.850 130.642, 63.840 131.206, 58.144 131.335 C 49.263 131.536, 47.589 131.841, 46.390 133.482 C 44.676 135.826, 45.428 138.696, 48.622 142 C 51.013 144.473, 51.293 144.509, 74.270 145.319 C 87.046 145.769, 105.150 146.328, 114.500 146.561 C 123.850 146.793, 132.850 147.036, 134.500 147.100 C 140.831 147.345, 142.287 146.905, 145.099 143.894 C 148.515 140.238, 148.892 135.649, 146.056 132.250 C 143.784 129.526, 138.682 129.259, 133.218 131.578 C 127.287 134.095, 98.331 134.295, 90.838 131.870 C 83.633 129.539, 75.352 128.773, 71.500 130.081" stroke="none" fill="black" fill-rule="evenodd"/>
</svg>