<svg xmlns="http://www.w3.org/2000/svg" width="256" height="256" viewBox="0 0 256 256" version="1.1">
	<path d="M 64.510 29.290 C 62.288 31.512, 60.562 34.775, 59.190 39.347 C 57.198 45.987, 55.248 49.430, 42.142 69.447 C 38.560 74.918, 34.587 81.556, 33.312 84.197 C 32.038 86.839, 30.609 89, 30.137 89 C 29.664 89, 28.216 91.002, 26.917 93.450 L 24.557 97.899 26.953 100.450 C 31.553 105.346, 34.406 103.471, 40.319 91.665 C 42.722 86.868, 44.881 83.920, 46.546 83.161 C 49.995 81.590, 49.916 81.555, 51.503 85.354 C 52.567 87.899, 53.046 96.869, 53.489 122.544 C 53.896 146.124, 54.445 157.156, 55.300 158.940 C 56.313 161.053, 57.222 161.500, 60.513 161.500 C 64.169 161.500, 64.592 161.216, 65.604 158.083 C 66.370 155.713, 66.590 140.081, 66.320 107.083 C 66.106 80.912, 65.961 58.166, 65.997 56.536 C 66.090 52.455, 70.796 43.507, 74.737 39.921 C 78.604 36.402, 79.010 32.554, 75.927 28.635 C 72.949 24.849, 68.708 25.092, 64.510 29.290 M 115.315 32.016 C 112.510 33.135, 111.421 35.309, 110.563 41.500 C 108.595 55.712, 107.165 57.064, 93.078 58.041 C 79.152 59.007, 73.952 62.827, 77.754 69.301 C 79.399 72.101, 80.123 72.480, 83.567 72.339 C 85.730 72.251, 89.830 71.606, 92.677 70.907 C 99.538 69.221, 101.423 70.555, 100.740 76.614 C 100.074 82.526, 91.538 98.832, 87.214 102.451 C 80.831 107.794, 79.098 109.959, 78.454 113.395 C 76.926 121.539, 82.732 123.524, 89 117 C 95.855 109.865, 99.795 112.324, 100.476 124.161 C 101.718 145.754, 102.333 150.631, 104.209 153.750 C 105.284 155.537, 106.724 157, 107.410 157 C 108.096 157, 110.792 155.586, 113.401 153.858 C 118.140 150.719, 118.152 150.717, 126.822 151.573 C 137.215 152.600, 151.621 152.273, 154.084 150.955 C 156.122 149.865, 158.665 141.914, 159.520 133.962 C 159.843 130.958, 159.697 121.827, 159.196 113.670 C 158.385 100.465, 158.048 98.603, 156.113 96.670 C 153.788 94.346, 155.987 94.521, 123.991 94.119 C 112.792 93.979, 111.386 92.975, 113.105 86.349 C 115.481 77.193, 117.777 75, 124.988 75 C 126.962 75, 130.281 74.132, 132.363 73.070 C 135.837 71.299, 136.532 71.257, 140.824 72.559 C 147.244 74.508, 158.922 74.443, 161.777 72.443 C 164.367 70.630, 164.717 66.469, 162.543 63.364 C 160.465 60.398, 154.261 59.079, 140.488 58.673 C 131.524 58.410, 127.506 57.860, 124.652 56.505 C 120.908 54.728, 120.837 54.594, 121.284 50.095 C 121.535 47.568, 122.580 43.369, 123.607 40.765 C 125.447 36.097, 125.445 36.002, 123.487 34.119 C 120.928 31.659, 118.061 30.922, 115.315 32.016 M 122.500 104.936 C 119.750 105.344, 116.773 106, 115.885 106.394 C 113.305 107.538, 112.064 111.350, 112.968 115.358 C 113.415 117.340, 113.826 121.989, 113.882 125.689 C 114.018 134.791, 115.369 138.496, 119.115 140.048 C 121.752 141.140, 123.433 140.942, 132.132 138.512 C 137.626 136.978, 143.016 134.997, 144.110 134.111 C 146.510 132.167, 147.944 126.495, 147.976 118.815 C 148.007 111.459, 146.837 108.564, 143.072 106.686 C 139.301 104.804, 129.184 103.944, 122.500 104.936" stroke="none" fill="black" fill-rule="evenodd"/>
</svg>