<svg xmlns="http://www.w3.org/2000/svg" width="256" height="256" viewBox="0 0 256 256" version="1.1">
	<path d="M 63.644 32.066 C 62.004 33.355, 60.424 36.172, 59.439 39.563 C 58.570 42.551, 55.215 49.023, 51.982 53.946 C 48.750 58.868, 45.339 64.382, 44.402 66.198 C 43.465 68.014, 40.291 72.758, 37.349 76.740 C 34.407 80.723, 32 84.253, 32 84.586 C 32 84.919, 31.175 86.386, 30.166 87.846 C 29.157 89.306, 27.609 92.354, 26.726 94.620 C 25.128 98.719, 25.134 98.755, 27.865 101.370 C 30.872 104.251, 32.525 104.673, 33.272 102.750 C 33.539 102.063, 35.875 98.688, 38.463 95.250 C 42.240 90.235, 43.714 89, 45.924 89 C 50.753 89, 51.196 91.630, 51.522 122.181 C 51.751 143.564, 52.171 151.071, 53.371 155.181 C 56.042 164.328, 61.414 165.104, 64.259 156.754 C 65.185 154.036, 65.415 151.651, 64.889 150.228 C 63.635 146.839, 63.679 130.157, 64.957 124.580 C 65.577 121.875, 65.764 118.275, 65.373 116.580 C 64.981 114.886, 64.521 106.975, 64.349 99 C 64.178 91.025, 63.774 79.608, 63.452 73.628 L 62.866 62.756 66.443 56.961 C 68.411 53.773, 70.456 48.866, 70.989 46.056 C 71.522 43.246, 72.418 40.088, 72.979 39.039 C 74.355 36.468, 74.268 32.668, 72.800 31.200 C 70.957 29.357, 66.559 29.772, 63.644 32.066 M 115.922 32.078 C 114.351 33.649, 113.924 35.144, 114.172 38.201 C 114.474 41.930, 114.228 42.392, 111.016 44.123 C 108.376 45.545, 105.439 46, 98.900 46 C 91.626 46, 89.847 46.333, 87.580 48.116 C 84.180 50.790, 84.440 54.514, 88.223 57.326 C 90.566 59.068, 92.256 59.319, 100.319 59.127 C 110.170 58.891, 114.901 60.100, 115.129 62.911 C 115.946 72.985, 115.573 73.570, 107.835 74.355 C 104.351 74.708, 98.874 75.414, 95.664 75.924 C 91.216 76.630, 88.860 76.509, 85.756 75.414 C 82.208 74.162, 81.399 74.164, 79.470 75.428 C 76.702 77.241, 75.751 81.608, 77.699 83.556 C 78.493 84.350, 80.699 85, 82.602 85 C 84.504 85, 88.832 86.167, 92.220 87.593 C 97.451 89.794, 99.671 90.152, 106.940 89.967 C 111.648 89.847, 116.063 89.805, 116.750 89.874 C 118.734 90.074, 118.201 93.393, 115.961 94.792 C 114.840 95.492, 114.194 96.505, 114.526 97.042 C 115.652 98.865, 114.034 101.497, 110.946 102.864 C 108.684 103.865, 105.673 104.043, 99.580 103.535 C 91.815 102.888, 91.120 102.993, 88.568 105.188 C 86.452 107.008, 85.988 108.085, 86.488 110.015 C 87.634 114.437, 91.581 116.354, 100.799 116.967 C 107.513 117.412, 109.458 117.906, 110.589 119.453 C 112.260 121.738, 112.392 124.400, 110.965 127.066 C 110.395 128.130, 110.323 129, 110.804 129 C 111.285 129, 112.171 130.080, 112.773 131.400 C 114.705 135.641, 112.677 136.684, 101 137.456 C 82.862 138.656, 79.074 139.287, 77.775 141.329 C 76.816 142.837, 76.810 149.177, 77.765 150.573 C 78.169 151.163, 79.368 151.967, 80.429 152.360 C 81.490 152.753, 99.236 153.052, 119.864 153.024 C 153.197 152.980, 157.573 152.791, 159.186 151.332 C 161.545 149.196, 161.523 143.868, 159.142 140.927 C 157.111 138.419, 149.795 137.151, 136.776 137.051 C 130.222 137.001, 130.009 136.918, 128.367 133.750 C 123.356 124.080, 125.435 119.695, 135.616 118.468 C 146.800 117.119, 150.981 113.673, 147.633 108.563 C 146.483 106.807, 144.260 105.814, 138.733 104.584 C 130.424 102.735, 127 100.794, 127 97.930 C 127 96.853, 126.455 95.099, 125.788 94.032 C 125.121 92.964, 124.923 91.743, 125.348 91.319 C 126.462 90.205, 138.993 90.651, 142.315 91.922 C 146.220 93.417, 156.524 93.302, 157.714 91.750 C 159.138 89.894, 159.151 82.723, 157.734 81 C 154.923 77.583, 152.710 76.862, 142.523 76.047 C 128.600 74.932, 125.939 72.781, 129.230 65.297 C 130.892 61.517, 131.766 61.034, 137 61.010 C 142.341 60.985, 149.203 59.237, 150.235 57.639 C 150.639 57.012, 150.976 55.049, 150.985 53.276 C 151.005 49.074, 147.615 47.257, 138.111 46.374 C 134.084 45.999, 129.768 44.929, 128.034 43.874 C 125.401 42.274, 125 41.452, 125 37.670 C 125 30.714, 120.226 27.774, 115.922 32.078" stroke="none" fill="black" fill-rule="evenodd"/>
</svg>