<svg xmlns="http://www.w3.org/2000/svg" width="256" height="256" viewBox="0 0 256 256" version="1.1">
	<path d="M 86.866 31.901 C 85.015 34.047, 82.696 36.966, 81.713 38.388 C 80.731 39.810, 76.840 43.436, 73.068 46.446 C 69.296 49.456, 63.800 54.444, 60.855 57.530 C 57.910 60.616, 53.250 64.283, 50.500 65.678 C 42.598 69.687, 40 72.630, 40 77.572 C 40 79.881, 40.586 83.165, 41.303 84.869 L 42.605 87.967 49.222 82.474 C 57.449 75.646, 59.972 75.053, 66.333 78.451 C 69.878 80.344, 73.739 81.299, 80.814 82.033 C 92.531 83.248, 93.739 84.114, 91.503 89.700 C 89.178 95.511, 86.666 96.548, 78.739 94.973 C 73.585 93.948, 71.638 93.942, 68.906 94.944 C 67.033 95.630, 61.979 96.572, 57.675 97.036 C 49.069 97.964, 46.934 99.061, 47.546 102.241 C 48.270 105.997, 48.915 106.161, 63.088 106.193 C 72.634 106.215, 84.640 109.114, 89.327 112.528 C 92.797 115.056, 93.510 118.409, 93.504 132.181 C 93.500 142.594, 93.427 142.938, 90.609 145.883 C 87.939 148.673, 87.813 149.135, 88.966 151.919 C 90.493 155.603, 91.888 156.821, 95.908 157.974 C 98.535 158.727, 99.485 158.463, 102.120 156.246 C 107.167 151.999, 109.254 145.841, 108.585 137.170 C 108.274 133.139, 107.696 129.317, 107.301 128.678 C 105.930 126.459, 105.982 119.936, 107.392 117.225 C 108.172 115.726, 110.004 113.384, 111.464 112.020 C 113.998 109.653, 114.718 109.535, 127.309 109.435 C 141.527 109.322, 145 108.329, 145 104.374 C 145 101.439, 141.497 99.390, 134.976 98.513 C 131.964 98.108, 128.954 97.335, 128.286 96.796 C 127.618 96.256, 124.243 95.424, 120.786 94.946 C 103.919 92.614, 102.362 90.452, 114.716 86.517 C 120.921 84.541, 124.211 82.856, 126.671 80.395 C 130.788 76.279, 134.728 75.957, 139.317 79.362 C 145.958 84.289, 153.899 85.409, 156.443 81.777 C 158.578 78.730, 158.347 75.961, 155.712 73 C 152.545 69.442, 149.086 67.400, 143.330 65.691 C 136.602 63.693, 130.282 60.385, 129.108 58.247 C 128.580 57.286, 125.528 53.951, 122.324 50.835 C 98.491 27.653, 98.936 28, 93.051 28 C 91.017 28, 89.296 29.085, 86.866 31.901 M 92.500 46.157 C 87.617 48.682, 83.534 52.355, 80.448 57 C 79.169 58.925, 76.745 62.023, 75.061 63.886 C 71.941 67.336, 70.993 71.036, 73.250 70.956 C 73.938 70.932, 76.750 70.314, 79.500 69.584 C 82.250 68.853, 85.625 68.368, 87 68.505 C 109.034 70.706, 118.319 71.102, 119.079 69.872 C 119.528 69.146, 119.532 68.316, 119.089 68.026 C 118.646 67.737, 117.386 65.475, 116.288 63 C 115.190 60.525, 112.426 56.258, 110.146 53.518 C 107.866 50.778, 106 48.202, 106 47.794 C 106 46.715, 100.409 43.992, 98.300 44.044 C 97.310 44.069, 94.700 45.019, 92.500 46.157 M 120 119.717 C 118.625 121.248, 116.771 123.819, 115.880 125.432 C 114.367 128.171, 114.380 128.492, 116.077 130.313 C 117.076 131.385, 118.760 132.766, 119.821 133.381 C 122.039 134.669, 130.653 140.658, 136.500 144.978 C 141.717 148.833, 146.648 149.057, 148 145.500 C 149.527 141.484, 148.053 137.214, 143.757 133.208 C 141.570 131.169, 137.161 126.907, 133.959 123.739 C 126.832 116.686, 123.568 115.745, 120 119.717 M 63.725 122.460 C 60.426 124.181, 58 126.470, 58 127.861 C 58 128.413, 57.082 129.157, 55.960 129.513 C 54.838 129.869, 52.115 132.444, 49.909 135.235 C 46.636 139.375, 45.953 140.971, 46.199 143.905 C 46.479 147.245, 46.755 147.521, 50.105 147.802 C 54.528 148.172, 60.477 144.912, 62.493 141.013 C 63.458 139.148, 65.762 137.517, 69.684 135.925 C 75.983 133.369, 79.973 129.611, 79.264 126.903 C 79.016 125.953, 77.937 124.237, 76.867 123.088 C 74.528 120.577, 67.938 120.262, 63.725 122.460" stroke="none" fill="black" fill-rule="evenodd"/>
</svg>