<svg xmlns="http://www.w3.org/2000/svg" width="256" height="256" viewBox="0 0 256 256" version="1.1">
	<path d="M 59.455 35.455 C 58.105 36.805, 57 38.893, 57 40.096 C 57 41.300, 55.198 45.137, 52.996 48.624 C 50.794 52.110, 47.117 58.684, 44.825 63.232 C 42.478 67.888, 38.390 73.902, 35.465 77 C 30.087 82.696, 26 91.316, 26 96.965 C 26 99.780, 30.211 104.430, 32.170 103.777 C 32.627 103.624, 35.364 100.355, 38.251 96.511 C 41.138 92.668, 44.259 89.378, 45.187 89.200 C 46.151 89.016, 47.619 90.015, 48.613 91.532 C 50.213 93.974, 50.256 95.438, 49.154 109.843 C 48.323 120.705, 48.255 127.950, 48.933 133.500 C 49.471 137.900, 50.113 144.425, 50.359 148 C 50.859 155.242, 52.010 158.934, 54.383 160.903 C 57.726 163.677, 63.029 159.783, 63.126 154.482 C 63.337 142.927, 61.824 89.378, 61.190 85.967 C 60.734 83.510, 60.558 77.225, 60.799 72 C 61.142 64.586, 61.761 61.465, 63.619 57.783 C 64.929 55.189, 66 51.902, 66 50.478 C 66 49.055, 66.913 45.885, 68.030 43.435 C 70.240 38.583, 69.689 35.974, 66.043 34.023 C 63.220 32.512, 62.169 32.740, 59.455 35.455 M 146.780 39.040 C 144.523 40.386, 143.123 46.029, 143.166 53.611 C 143.185 56.972, 142.507 62.822, 141.660 66.611 C 140.813 70.400, 139.175 78.631, 138.020 84.902 C 136.427 93.556, 135.328 97.010, 133.461 99.229 C 132.107 100.837, 130.999 102.681, 130.999 103.327 C 130.998 103.972, 129.873 105.807, 128.499 107.406 C 127.124 109.004, 126 111.078, 126 112.016 C 126 113.946, 121.672 120.677, 118.862 123.117 C 117.838 124.007, 117 125.369, 117 126.145 C 117 128.095, 111.559 132.683, 105.763 135.620 C 102.594 137.226, 100.591 139.010, 99.961 140.786 C 99.432 142.279, 98.549 144.281, 98 145.236 C 96.279 148.225, 96.836 154.522, 99.073 157.365 C 102.384 161.575, 106.086 160.938, 110.680 155.369 C 112.781 152.822, 117.088 147.946, 120.250 144.534 C 123.412 141.122, 126 137.996, 126 137.587 C 126 136.177, 134.416 129, 136.069 129 C 138.447 129, 146.737 138.220, 148.904 143.275 C 150.547 147.109, 156.928 154.024, 158.785 153.985 C 164.077 153.871, 165.920 141.384, 161.500 135.589 C 160.125 133.786, 159 131.354, 159 130.184 C 159 128.666, 157.208 126.911, 152.750 124.064 C 149.313 121.869, 145.938 119.589, 145.250 118.997 C 143.369 117.378, 143.745 110.655, 146.075 104.225 C 151.924 88.083, 154.452 74.999, 155.487 55.500 C 156.125 43.488, 154.862 38.633, 151 38.257 C 149.625 38.123, 147.726 38.475, 146.780 39.040 M 88.299 44.503 C 84.631 47.072, 83.888 51.413, 84.955 64.036 C 85.487 70.341, 86.341 76.901, 86.852 78.613 C 88.666 84.687, 88.567 96.877, 86.565 114 C 86.163 117.438, 87.516 119.698, 91.080 121.541 C 94.821 123.476, 97.109 122.800, 102.111 118.281 C 105.164 115.522, 106.591 114.880, 108.750 115.293 C 111.863 115.888, 116.717 113.467, 117.527 110.916 C 118.200 108.793, 116.685 104.813, 114.518 103.015 C 113.589 102.244, 110.585 101.562, 107.843 101.500 C 102.471 101.378, 101.039 100.222, 101.027 96 C 101.001 86.660, 99.757 64.496, 98.983 59.562 C 97.951 52.989, 93.528 43, 91.649 43 C 90.987 43, 89.479 43.676, 88.299 44.503 M 111.750 55.572 C 109.471 56.808, 109 57.736, 109 60.985 C 109 63.141, 109.528 66.165, 110.174 67.703 C 112.814 73.996, 122.790 80.022, 128.285 78.643 C 131.805 77.760, 133.643 72.966, 131.990 68.975 C 130.679 65.811, 117.760 53.971, 115.693 54.040 C 115.037 54.062, 113.263 54.751, 111.750 55.572" stroke="none" fill="black" fill-rule="evenodd"/>
</svg>