<svg xmlns="http://www.w3.org/2000/svg" width="256" height="256" viewBox="0 0 256 256" version="1.1">
	<path d="M 90.403 30.507 C 89.067 32.546, 88.951 33.766, 89.781 37.035 C 91.555 44.025, 90.850 44.287, 65.500 46.044 C 43.079 47.599, 41.542 47.992, 40.422 52.456 C 39.151 57.517, 40.954 58.500, 51.508 58.500 C 62.978 58.500, 64.242 59.360, 62.908 66.256 C 62.457 68.590, 62.068 72.907, 62.044 75.849 C 61.975 84.278, 59.750 87.785, 52.340 91.145 C 44.911 94.514, 42.379 97.623, 43.730 101.718 C 44.235 103.248, 45.813 105.068, 47.236 105.763 C 49.488 106.861, 50.912 106.644, 58.163 104.099 C 67.893 100.683, 72.524 99.990, 79.774 100.864 L 85.047 101.500 81.024 106.359 C 78.811 109.031, 77 111.619, 77 112.109 C 77 112.599, 76.330 113, 75.511 113 C 74.693 113, 72.065 115.691, 69.671 118.980 C 64.115 126.616, 62.055 128.134, 53.500 130.891 C 43.481 134.120, 40.366 137.578, 41.657 144.035 C 42.668 149.088, 45.133 149.577, 53.860 146.453 C 58.062 144.949, 62.707 142.602, 64.182 141.237 C 65.657 139.873, 68.440 137.798, 70.366 136.628 C 72.292 135.458, 76.162 131.463, 78.967 127.750 C 83.176 122.179, 84.567 121, 86.927 121 C 88.712 121, 90.053 121.657, 90.497 122.750 C 92.668 128.092, 93.223 131.518, 93.502 141.307 C 93.778 150.999, 94.079 152.521, 96.419 156.057 C 99.413 160.581, 101.637 160.992, 105.209 157.682 C 107.334 155.713, 107.819 154.117, 108.434 147.061 C 108.917 141.523, 108.799 138.399, 108.079 137.679 C 107.486 137.086, 107 135.205, 107 133.500 C 107 131.795, 106.494 129.894, 105.875 129.275 C 105.173 128.573, 105.010 126.762, 105.441 124.463 C 106.094 120.981, 106.303 120.811, 109.191 121.388 C 110.874 121.725, 112.896 122, 113.685 122 C 114.474 122, 117.455 124.191, 120.310 126.868 C 140.548 145.851, 148.835 149.759, 153.560 142.549 C 156.545 137.993, 156.204 136.145, 151.978 133.989 C 149.827 132.891, 147.590 131.103, 147.008 130.015 C 146.426 128.927, 142.923 126.058, 139.224 123.640 C 135.526 121.223, 131.364 118.105, 129.976 116.712 C 128.588 115.319, 124.906 113.015, 121.794 111.592 C 116.367 109.109, 113.664 105.794, 115.651 104.055 C 117.798 102.176, 128.904 98.529, 132.500 98.523 C 134.700 98.519, 138.300 99.389, 140.500 100.457 C 145.561 102.913, 151.591 102.877, 154 100.376 C 156.897 97.369, 154.965 94.321, 148.264 91.325 C 145.094 89.907, 140.370 87.798, 137.766 86.637 C 135.163 85.476, 132.829 83.997, 132.581 83.351 C 132.333 82.704, 132.392 77.203, 132.713 71.128 L 133.295 60.080 138.898 59.028 C 150.495 56.849, 154.884 52.414, 149.576 48.238 C 147.300 46.448, 144.849 46.171, 125.471 45.510 C 104.715 44.803, 103.844 44.692, 102.450 42.564 C 101.653 41.347, 101.077 38.404, 101.170 36.023 C 101.304 32.598, 100.863 31.308, 99.059 29.847 C 95.842 27.241, 92.370 27.506, 90.403 30.507 M 77.337 59.728 C 72.008 60.212, 71.292 62.138, 75.044 65.890 C 78.758 69.605, 78.754 71.587, 75.018 77.100 C 73.378 79.520, 72.028 82.268, 72.018 83.207 C 72.008 84.146, 73.634 86.171, 75.632 87.707 C 77.630 89.243, 80.751 91.759, 82.569 93.298 C 85.445 95.734, 86.137 95.931, 87.907 94.826 C 89.026 94.127, 90.386 92.418, 90.930 91.028 C 93.426 84.649, 93.590 81.535, 91.852 73.547 C 90.889 69.121, 90.078 64.938, 90.050 64.250 C 89.964 62.101, 86.104 58.992, 83.750 59.175 C 82.513 59.271, 79.626 59.520, 77.337 59.728 M 109.585 60.103 C 105.629 61.205, 105.033 62.471, 105.015 69.816 C 105.007 73.289, 104.524 77.021, 103.942 78.108 C 102.094 81.561, 102.563 90.007, 104.723 92.167 C 106.611 94.056, 106.706 94.055, 111.263 92.102 C 117.086 89.605, 118.946 86.225, 118.811 78.384 C 118.742 74.327, 119.388 70.971, 120.895 67.575 C 122.675 63.561, 122.840 62.416, 121.789 61.386 C 120.137 59.767, 113.352 59.053, 109.585 60.103" stroke="none" fill="black" fill-rule="evenodd"/>
</svg>