<svg xmlns="http://www.w3.org/2000/svg" width="256" height="256" viewBox="0 0 256 256" version="1.1">
	<path d="M 54.500 33.195 C 51.652 34.810, 51.366 35.390, 47.930 46.500 C 46.229 52, 43.524 59.965, 41.919 64.199 C 40.313 68.434, 39 72.345, 39 72.891 C 39 73.437, 36.750 76.455, 34 79.597 C 31.250 82.740, 29 85.659, 29 86.084 C 29 86.509, 28.267 87.590, 27.371 88.487 C 26.474 89.383, 25.516 92.115, 25.241 94.558 C 24.741 98.989, 24.748 99, 27.923 99 C 29.674 99, 32.762 97.875, 34.785 96.500 C 39.228 93.481, 39.105 93.488, 42.097 96.087 L 44.500 98.175 44.174 120.337 C 43.915 137.982, 44.165 143.696, 45.400 148.369 C 47.354 155.756, 48.534 157.181, 52.383 156.801 C 56.836 156.362, 60.421 150.800, 59.342 146.005 C 58.908 144.077, 58.541 133.275, 58.526 122 C 58.506 106.444, 58.064 99.229, 56.691 92.085 C 55.683 86.843, 55.150 81.081, 55.487 79.085 C 55.821 77.113, 56.314 72.125, 56.584 68 C 57.077 60.451, 59.599 50.609, 62.457 45.083 C 64.830 40.494, 64.432 36.485, 61.365 34.073 C 58.378 31.723, 57.332 31.589, 54.500 33.195 M 80.055 37.205 C 78.710 37.920, 76.685 40.078, 75.555 42.002 C 73.639 45.263, 73.485 47.292, 73.276 72 C 73.153 86.575, 72.557 102.550, 71.952 107.500 C 71.348 112.450, 70.515 120.100, 70.103 124.500 C 69.690 128.900, 68.883 133.400, 68.308 134.500 C 67.733 135.600, 66.949 138.236, 66.566 140.359 C 66.182 142.481, 64.841 145.181, 63.586 146.359 C 61.399 148.410, 61.372 148.622, 62.934 151.411 C 65.429 155.867, 67.108 156.517, 71.154 154.597 C 75.034 152.756, 79.199 145.268, 80.944 137 C 82.769 128.346, 85.069 111.040, 85.422 103.303 C 85.618 99.011, 85.828 94.938, 85.889 94.250 C 85.950 93.563, 86.675 93, 87.500 93 C 88.861 93, 89.638 95.867, 88.991 98.500 C 88.856 99.050, 88.728 100.063, 88.706 100.750 C 88.684 101.438, 88.367 102, 88 102 C 87.633 102, 87.333 102.675, 87.333 103.500 C 87.333 104.325, 87.610 105, 87.948 105 C 88.902 105, 90.852 113.075, 90.896 117.205 C 90.918 119.243, 91.625 122.561, 92.468 124.577 C 93.311 126.594, 94 129.130, 94 130.212 C 94 131.294, 95.013 133.003, 96.250 134.009 C 98.267 135.650, 98.674 135.683, 100.183 134.326 C 101.346 133.279, 101.627 132.166, 101.093 130.722 C 100.667 129.571, 100.838 126.876, 101.473 124.725 C 102.292 121.952, 102.338 119.227, 101.632 115.331 C 100.867 111.109, 100.929 109.662, 101.904 109.059 C 102.601 108.629, 103.132 107.989, 103.085 107.638 C 102.832 105.746, 103.108 105, 104.059 105 C 104.641 105, 104.840 105.450, 104.500 106 C 104.160 106.550, 104.346 107, 104.912 107 C 106.490 107, 107.714 113.059, 106.967 117.165 C 106.571 119.337, 106.826 122.362, 107.592 124.589 C 108.512 127.265, 108.586 128.905, 107.850 130.279 C 106.231 133.305, 107.591 141.216, 110.080 143.250 C 112.214 144.994, 112.214 145, 110.156 145 C 107.878 145, 106.558 149.239, 107.168 154.592 C 107.451 157.072, 107.988 157.547, 110.815 157.818 C 115.640 158.281, 117 156.645, 117 150.378 C 117 146.015, 116.684 145, 115.326 145 C 113.871 145, 113.920 144.705, 115.701 142.750 C 116.828 141.512, 118.285 139.464, 118.938 138.198 C 119.987 136.166, 120.621 135.971, 124.351 136.530 C 130.554 137.460, 132.855 135.221, 133.632 127.500 C 133.964 124.200, 134.192 121.050, 134.138 120.500 C 133.805 117.078, 132.980 96.702, 133.016 92.779 C 133.071 86.782, 130.619 84.006, 125.250 83.986 C 119.125 83.964, 117 83.043, 117 80.409 C 117 77.722, 121.276 75, 125.496 75 C 128.709 75, 133.001 70.877, 132.996 67.795 C 132.992 64.894, 129.717 59.454, 127.147 58.079 C 125.768 57.341, 123.521 57.364, 119.567 58.158 C 114.882 59.099, 113.101 59.014, 108.864 57.645 C 104.024 56.082, 103.583 56.096, 99.640 57.942 C 94.912 60.155, 91 63.311, 91 64.910 C 91 67.632, 88.199 65.608, 87.158 62.134 C 85.281 55.870, 85.670 52.262, 88.415 50.464 C 90.482 49.109, 91.744 49.048, 97.165 50.035 C 100.649 50.670, 110.475 51.090, 119 50.968 C 127.525 50.846, 135.028 50.803, 135.672 50.873 C 138.059 51.131, 139.228 58.183, 138.985 70.859 C 138.851 77.812, 138.880 85.525, 139.049 88 C 139.392 93.021, 139.438 99.218, 139.161 103 C 138.147 116.844, 142.454 140.948, 146.968 146.686 C 148.085 148.107, 149 150.021, 149 150.939 C 149 152.767, 154.483 158.355, 157.214 159.310 C 159.022 159.943, 163 155.472, 163 152.807 C 163 152.046, 163.900 149.658, 165 147.500 C 168.788 140.071, 167.255 135.954, 159.972 133.992 C 157.806 133.409, 155.633 132.160, 155.143 131.216 C 153.500 128.049, 152.807 111.726, 152.937 79.229 C 153.069 46.103, 152.502 39.837, 149.216 38.156 C 148.272 37.673, 137.600 37.226, 125.500 37.162 C 113.400 37.098, 98.775 36.789, 93 36.475 C 85.363 36.060, 81.833 36.259, 80.055 37.205 M 87.398 69.250 C 86.319 72.546, 86.155 81.237, 87.136 83.169 C 87.681 84.242, 87.558 84.981, 86.793 85.236 C 86.048 85.484, 86.228 85.874, 87.272 86.274 C 88.209 86.634, 89.609 86.248, 90.462 85.395 C 91.352 84.505, 93.749 83.880, 96.241 83.887 C 98.584 83.894, 101.737 83.662, 103.249 83.371 C 105.654 82.908, 105.916 82.507, 105.339 80.171 C 104.580 77.096, 101.798 74.383, 97.500 72.529 C 95.850 71.817, 93.506 70.282, 92.292 69.118 C 89.473 66.414, 88.316 66.445, 87.398 69.250 M 86.638 90.500 C 86.955 91.325, 87.343 92, 87.500 92 C 87.657 92, 88.045 91.325, 88.362 90.500 C 88.709 89.595, 88.367 89, 87.500 89 C 86.633 89, 86.291 89.595, 86.638 90.500 M 103.750 96.749 C 102.787 96.968, 102 97.564, 102 98.073 C 102 99.281, 105.710 99.278, 106.457 98.069 C 107.206 96.858, 105.956 96.248, 103.750 96.749 M 119.286 109.619 C 119.626 109.960, 119.251 110.892, 118.452 111.690 C 117.194 112.949, 117.190 113.333, 118.429 114.571 C 120.935 117.078, 122.843 115.969, 121.991 112.500 C 121.856 111.950, 121.728 110.938, 121.706 110.250 C 121.684 109.563, 120.992 109, 120.167 109 C 119.342 109, 118.945 109.279, 119.286 109.619 M 117.642 124.624 C 116.692 126.617, 116.046 128.319, 116.207 128.407 C 116.368 128.494, 117.259 129.145, 118.186 129.852 C 119.406 130.783, 120.407 130.853, 121.806 130.104 C 123.528 129.182, 123.622 128.626, 122.664 125.034 C 121.331 120.041, 119.884 119.923, 117.642 124.624" stroke="none" fill="black" fill-rule="evenodd"/>
</svg>