<svg xmlns="http://www.w3.org/2000/svg" width="256" height="256" viewBox="0 0 256 256" version="1.1">
	<path d="M 67.013 32.642 C 65.096 34.255, 63.938 36.408, 63.458 39.248 C 63.067 41.565, 59.946 48.870, 56.523 55.480 C 53.100 62.091, 49.534 69.536, 48.600 72.025 C 47.471 75.029, 43.878 79.735, 37.908 86.025 C 32.962 91.236, 28.584 96.054, 28.178 96.732 C 27.773 97.409, 27.679 100.285, 27.971 103.122 C 28.407 107.371, 28.913 108.432, 30.844 109.143 C 32.878 109.891, 34.083 109.142, 39.924 103.503 C 43.629 99.926, 47.401 97, 48.307 97 C 49.213 97, 50.752 98.218, 51.727 99.707 C 53.207 101.966, 53.524 104.902, 53.642 117.457 C 53.809 135.079, 55.338 154.333, 56.883 158.277 C 58.117 161.426, 61.677 163.194, 64.165 161.892 C 67.020 160.398, 67.976 152.194, 67.494 133.320 C 67.243 123.519, 66.731 111.675, 66.356 107 C 65.981 102.325, 65.687 97.600, 65.704 96.500 C 65.721 95.400, 65.779 91.800, 65.833 88.500 C 65.887 85.200, 65.877 81.150, 65.810 79.500 C 65.619 74.805, 67.860 62.170, 69.419 59.157 C 70.194 57.657, 71.158 54.677, 71.560 52.533 C 71.962 50.389, 73.599 45.749, 75.198 42.223 C 77.865 36.342, 77.982 35.622, 76.614 33.533 C 74.389 30.138, 70.427 29.770, 67.013 32.642 M 111.256 33.438 C 108.156 36.046, 107.676 37.337, 106.516 46.162 C 105.700 52.376, 102.161 56, 96.911 56 C 91.731 56, 88.335 57.722, 85.970 61.548 C 83.881 64.928, 83.967 67.557, 86.894 90 C 87.360 93.575, 87.519 96.885, 87.246 97.356 C 86.234 99.105, 85.988 128.715, 86.937 134.500 C 87.479 137.800, 88.122 143.103, 88.368 146.284 C 88.830 152.276, 91.049 157, 93.401 157 C 94.146 157, 96.480 156.279, 98.588 155.399 C 100.908 154.429, 107.960 153.411, 116.460 152.819 C 134.184 151.584, 134.383 151.581, 141.060 152.481 C 146.059 153.155, 146.895 152.992, 149.340 150.865 C 151.691 148.821, 152.218 147.280, 153.234 139.500 C 153.879 134.550, 154.299 127.800, 154.166 124.500 C 153.587 110.101, 153.854 86.012, 154.655 80.500 C 156.073 70.736, 155.229 62.539, 152.504 59.599 C 150.280 57.199, 149.714 57.097, 139.340 57.233 C 127.957 57.381, 122.170 55.913, 120.191 52.376 C 118.992 50.235, 120.231 44.894, 122.753 41.326 C 125.837 36.963, 123.477 32.645, 117.337 31.417 C 115.042 30.958, 113.655 31.419, 111.256 33.438 M 107.722 70.579 C 103.994 71.208, 100.647 72.020, 100.284 72.383 C 98.797 73.870, 98.821 84.636, 100.320 88.223 C 102.197 92.716, 103.412 92.999, 122.313 93.346 C 132.413 93.532, 136.628 93.249, 137.992 92.293 C 140.344 90.646, 141.419 82.572, 140.296 75 C 139.351 68.634, 137.531 67.705, 131.557 70.540 C 128.561 71.962, 127.259 72.037, 122.770 71.050 C 114.992 69.339, 115.057 69.341, 107.722 70.579 M 114.500 105.746 C 103.050 106.451, 99.944 107.155, 98.487 109.379 C 97.355 111.107, 97.256 112.382, 98.047 115.054 C 98.609 116.949, 99.106 122.220, 99.153 126.766 C 99.277 138.818, 100.107 139.625, 113.247 140.455 C 122.330 141.030, 124.295 140.841, 130.464 138.802 C 139.524 135.807, 141.451 133.137, 142.352 122.325 C 143.065 113.777, 142.060 108.546, 139.288 106.376 C 137.603 105.057, 129.181 104.843, 114.500 105.746" stroke="none" fill="black" fill-rule="evenodd"/>
</svg>