<svg xmlns="http://www.w3.org/2000/svg" width="256" height="256" viewBox="0 0 256 256" version="1.1">
	<path d="M 63.365 27.919 C 59.936 30.010, 57.981 34.469, 56.137 44.405 C 54.528 53.072, 52.105 57.266, 38.883 74.275 C 33.596 81.077, 27.957 90.852, 26.561 95.635 C 26.094 97.236, 26.716 98.425, 29.046 100.385 C 30.755 101.823, 32.765 103, 33.514 103 C 34.262 103, 36.776 99.963, 39.101 96.250 C 44.292 87.962, 49.400 83.257, 51.403 84.919 C 54.209 87.248, 54.785 94.586, 54.419 123.294 C 54.105 147.907, 54.283 152.667, 55.646 156.074 C 58.713 163.740, 64.143 163.813, 65.922 156.211 C 67.189 150.798, 67.575 92.782, 66.479 72.438 C 65.854 60.837, 66.014 58.507, 67.910 51.595 C 69.084 47.315, 70.755 42.441, 71.622 40.763 C 73.918 36.325, 73.634 31.304, 70.926 28.421 C 68.186 25.504, 67.410 25.453, 63.365 27.919 M 143 42.107 C 136.455 44.604, 134.672 44.886, 129 44.319 C 125.425 43.962, 116.650 43.614, 109.500 43.544 C 102.350 43.474, 94.025 43.071, 91 42.647 C 86.338 41.994, 85.005 42.188, 82.250 43.923 C 77.734 46.768, 77.954 49.822, 83.003 54.384 C 85.204 56.373, 87.567 58, 88.253 58 C 88.939 58, 97.375 58.275, 107 58.611 C 116.625 58.946, 127.480 59.169, 131.123 59.105 C 135.564 59.027, 138.112 59.431, 138.859 60.330 C 140.161 61.899, 140.609 84.216, 139.536 94 C 139.139 97.613, 139.301 103.937, 139.900 108.239 C 140.765 114.455, 140.684 117.372, 139.488 123.055 C 138.670 126.947, 138 131.710, 138 133.640 C 138 136.773, 137.579 137.328, 134.066 138.824 C 130.916 140.166, 130.009 141.156, 129.512 143.794 C 128.623 148.521, 129.666 150.996, 134.358 155.296 C 138.901 159.459, 141.816 159.693, 146.489 156.267 C 149.123 154.336, 149.715 152.482, 150.537 143.587 C 150.837 140.336, 151.341 137.257, 151.657 136.746 C 151.973 136.234, 152.433 122.695, 152.679 106.658 C 153.094 79.642, 153.220 74.753, 153.792 63.362 C 153.936 60.503, 155.081 57.652, 157.500 54.136 C 161.727 47.991, 162.201 42.955, 158.777 40.557 C 155.686 38.391, 151.720 38.781, 143 42.107 M 82.655 73.829 C 80.581 76.121, 80.549 79.228, 82.560 83.117 C 83.734 85.387, 84.059 88.657, 83.870 96.317 C 83.704 103.059, 84.045 107.282, 84.880 108.815 C 85.573 110.088, 86.325 112.092, 86.552 113.269 C 86.778 114.446, 87.789 116.234, 88.798 117.243 C 90.577 119.022, 90.710 119.016, 93.192 117.064 C 95.939 114.903, 97.167 114.783, 109.603 115.472 C 121.490 116.130, 124.283 115.080, 127.423 108.778 C 130.997 101.606, 130.869 96.182, 127 90.841 C 124.779 87.776, 124 85.588, 124 82.421 C 124 76.027, 122.702 75.287, 110.277 74.601 C 104.349 74.274, 96.998 73.555, 93.940 73.003 C 86.215 71.609, 84.553 71.731, 82.655 73.829 M 99.580 87.563 C 98.267 88.875, 97.996 90.118, 98.518 92.414 C 98.905 94.111, 99.166 96.719, 99.098 98.208 C 98.954 101.361, 101.315 103, 106 103 C 111.978 103, 113.088 101.646, 112.381 95.212 C 111.632 88.388, 110.763 87.293, 105.422 86.446 C 102.254 85.944, 100.950 86.193, 99.580 87.563" stroke="none" fill="black" fill-rule="evenodd"/>
</svg>