<svg xmlns="http://www.w3.org/2000/svg" width="256" height="256" viewBox="0 0 256 256" version="1.1">
	<path d="M 67 30.709 C 63.982 31.819, 61.949 34.432, 60.618 38.914 C 59.869 41.436, 55.013 49.800, 49.828 57.500 C 37.240 76.193, 27 94.049, 27 97.305 C 27 99.070, 27.888 100.536, 29.663 101.699 C 32.287 103.418, 32.357 103.402, 34.413 100.613 C 37.743 96.096, 44.767 89, 45.909 89 C 46.483 89, 47.752 90.221, 48.727 91.713 C 50.251 94.044, 50.504 96.893, 50.529 111.963 C 50.565 133.069, 52.412 150.844, 55.184 156.750 C 56.834 160.265, 57.663 161, 59.982 161 C 62.452 161, 64.071 159.477, 64.414 156.833 C 64.461 156.467, 64.777 155.890, 65.115 155.552 C 65.453 155.213, 65.590 146.288, 65.418 135.718 C 65.130 117.972, 64.879 111.451, 63.463 85 C 62.301 63.281, 62.289 63.381, 67.485 52.977 C 70.089 47.765, 72.858 42.775, 73.640 41.888 C 74.421 41.001, 75.464 38.870, 75.956 37.152 C 76.736 34.433, 76.521 33.768, 74.291 32.014 C 71.737 30.005, 69.839 29.665, 67 30.709 M 104.452 36.646 C 103.104 38.101, 102 39.926, 102 40.701 C 102 43.502, 98.052 50.610, 93.639 55.754 C 91.160 58.644, 88.847 61.907, 88.499 63.004 C 88.150 64.102, 87.465 65, 86.975 65 C 85.832 65, 81 73.208, 81 75.149 C 81 77.987, 84.916 81, 88.605 81 C 93.324 81, 95.388 79.749, 98.072 75.263 C 102.932 67.140, 105.271 65.799, 110.458 68.163 C 114.187 69.862, 115.493 75.589, 113.979 83.610 C 112.465 91.636, 112.475 111.859, 113.997 119 C 114.920 123.329, 114.882 126.629, 113.822 134.500 C 113.082 140, 112.736 146.408, 113.054 148.740 C 114.112 156.500, 121.338 161.186, 124.591 156.221 C 125.986 154.092, 126.121 151.933, 125.517 141.452 C 125.127 134.701, 125.104 128.248, 125.465 127.111 C 126.367 124.270, 131.118 123.308, 145.286 123.097 C 151.769 123.001, 158.143 122.516, 159.451 122.019 C 162.297 120.937, 163.633 117.467, 161.973 115.467 C 158.570 111.367, 146.154 108, 134.439 108 C 128.039 108, 126.434 107.154, 125.906 103.500 C 124.944 96.848, 128.900 95.067, 144.199 95.264 C 153.341 95.382, 155.197 95.132, 156.949 93.546 C 159.661 91.092, 159.536 89.398, 156.497 87.406 C 153.775 85.622, 141.608 83.005, 136 82.997 C 134.075 82.995, 131.037 82.101, 129.250 81.011 C 125.208 78.547, 124.800 74.109, 128.292 70.617 C 130.442 68.467, 131.427 68.317, 144.124 68.202 C 160.290 68.055, 163 67.305, 163 62.977 C 163 58.817, 159.011 55.239, 153.655 54.594 C 151.370 54.318, 142.341 53.852, 133.590 53.557 C 116.323 52.975, 113.585 52.178, 112.381 47.381 C 112.023 45.954, 112.204 43.243, 112.783 41.356 C 113.700 38.368, 113.564 37.672, 111.729 35.962 C 108.918 33.343, 107.379 33.488, 104.452 36.646" stroke="none" fill="black" fill-rule="evenodd"/>
</svg>