<svg xmlns="http://www.w3.org/2000/svg" width="256" height="256" viewBox="0 0 256 256" version="1.1">
	<path d="M 60.519 32.574 C 59.207 33.989, 57.668 37.321, 57.098 39.977 C 56.529 42.634, 54.716 46.803, 53.069 49.242 C 51.423 51.681, 47.660 58.812, 44.707 65.088 C 41.754 71.365, 38.582 77.121, 37.658 77.881 C 35.685 79.504, 27.739 91.276, 25.922 95.269 C 24.771 97.798, 24.909 98.295, 27.518 101.019 C 29.089 102.658, 30.852 103.988, 31.437 103.972 C 32.022 103.957, 33.600 102.495, 34.944 100.722 C 36.288 98.950, 39.139 95.951, 41.278 94.058 C 44.354 91.337, 45.517 90.834, 46.834 91.656 C 50.308 93.823, 50.995 99.354, 51.081 125.825 C 51.157 149.131, 51.339 151.783, 53.048 154.563 C 54.084 156.247, 56.120 158.262, 57.573 159.039 C 60.009 160.343, 60.362 160.271, 62.105 158.118 C 63.717 156.127, 63.986 154.144, 63.927 144.642 C 63.889 138.514, 64.332 132.254, 64.911 130.731 C 66.264 127.176, 66.571 118.720, 65.413 116.902 C 64.922 116.131, 64.473 111.450, 64.416 106.500 C 64.350 100.880, 63.718 95.998, 62.730 93.500 C 61.515 90.425, 61.225 86.666, 61.475 77.240 C 61.765 66.339, 62.089 64.429, 64.400 60.008 C 66.251 56.468, 67 53.504, 67 49.715 C 67 44.945, 67.363 44.040, 70.500 41 C 74.599 37.027, 74.851 35.149, 71.686 32.174 C 68.443 29.128, 63.550 29.303, 60.519 32.574 M 110.223 32.557 C 107.625 34.376, 107.356 37.854, 109.494 41.988 C 111.697 46.248, 111.040 50.005, 107.742 52.011 C 105.396 53.438, 103.057 53.636, 93.223 53.245 C 74.952 52.518, 70.228 54.677, 75.363 61.409 L 78.102 65 86.969 65 C 96.902 65, 98.613 65.409, 100.070 68.131 C 100.903 69.687, 100.375 70.787, 97.125 74.263 C 94.948 76.594, 91.666 80.750, 89.833 83.500 C 87.678 86.733, 85.036 89.207, 82.356 90.500 C 76.829 93.167, 71.024 98.936, 71.011 101.775 C 70.997 104.677, 74.856 106.335, 81.180 106.146 L 85.860 106.006 87.427 111.398 C 88.290 114.364, 88.934 117.850, 88.860 119.145 C 88.477 125.807, 91.448 150.636, 92.821 152.250 C 95.151 154.989, 100.167 154.443, 104.528 150.977 C 106.620 149.315, 109.495 147.698, 110.916 147.384 C 115.948 146.274, 117.005 145.853, 118.494 144.363 C 120.573 142.284, 120.378 139.339, 117.932 135.904 C 116.174 133.436, 115.189 133, 111.366 133 C 102.314 133, 101.014 130.180, 101.006 110.514 C 101 98.459, 101.189 97.155, 103.639 92.312 C 106.390 86.875, 111.255 83.393, 114.409 84.604 C 116.002 85.215, 119.094 91.229, 120.306 96.073 C 120.660 97.488, 122.135 100.394, 123.585 102.530 C 126.431 106.724, 128.970 113.985, 128.993 118 C 129.017 122.130, 132.638 126.989, 143.335 137.247 C 153.813 147.295, 156.936 148.857, 158.965 145.066 C 161.650 140.048, 158.769 133.810, 148.706 122.856 C 141.569 115.087, 139.092 108.726, 142.250 106.275 C 143.459 105.336, 148.689 102.586, 154.147 100.017 C 156.492 98.914, 156.697 98.430, 155.939 95.789 C 154.035 89.149, 149.425 87.737, 141.974 91.513 C 133.299 95.909, 130.606 94.963, 123.765 85.115 C 120.818 80.873, 120.757 80.565, 121.896 75.632 C 122.543 72.828, 124.198 69.359, 125.573 67.924 C 127.891 65.505, 128.454 65.373, 133.287 66.119 C 136.154 66.561, 140.075 67.117, 142 67.353 C 143.925 67.589, 147.300 68.065, 149.500 68.411 C 152.260 68.846, 154.062 68.598, 155.314 67.613 C 157.897 65.581, 157.782 60.461, 155.089 57.595 C 152.202 54.522, 143.001 52.674, 135.059 53.573 C 123.504 54.880, 121 52.926, 121 42.603 C 121 36.313, 120.692 35.060, 118.686 33.174 C 115.953 30.607, 113.284 30.413, 110.223 32.557" stroke="none" fill="black" fill-rule="evenodd"/>
</svg>