<svg xmlns="http://www.w3.org/2000/svg" width="256" height="256" viewBox="0 0 256 256" version="1.1">
	<path d="M 63.669 29.986 C 61.399 31.979, 59.847 34.557, 59.003 37.736 C 57.752 42.450, 52.980 52.101, 50.466 55 C 49.751 55.825, 47.364 60.117, 45.162 64.538 C 42.961 68.960, 39.177 75.035, 36.753 78.038 C 31.699 84.304, 28.310 89.930, 26.470 95.108 C 25.347 98.271, 25.399 98.897, 26.889 100.173 C 30.925 103.629, 32.083 103.305, 38.128 97.030 C 44.247 90.679, 45.891 89.959, 48.128 92.653 C 49.739 94.594, 50.116 108.445, 48.871 120 C 48.427 124.125, 48.458 129.075, 48.941 131 C 49.424 132.925, 50.093 138.100, 50.427 142.500 C 51.409 155.435, 52.925 160.922, 55.923 162.387 C 59.474 164.123, 61.755 163.375, 63.561 159.883 C 64.868 157.354, 64.963 154.535, 64.201 140.709 C 63.710 131.794, 63.307 121.800, 63.306 118.500 C 63.300 105.189, 62.046 86.310, 60.967 83.271 C 59.732 79.798, 61.184 70.896, 65.006 58.500 C 66.023 55.200, 67.114 50.915, 67.430 48.979 C 67.754 46.996, 69.701 43.405, 71.886 40.761 C 76.693 34.944, 77.723 31.456, 75.394 28.882 C 72.763 25.976, 67.693 26.453, 63.669 29.986 M 104.818 31.478 C 102.813 32.840, 99.538 36.645, 97.541 39.932 C 95.544 43.219, 91.921 47.660, 89.489 49.801 C 87.057 51.941, 84.577 54.982, 83.978 56.557 C 81.963 61.857, 84.780 67.354, 90.112 68.525 C 94.214 69.426, 95.361 72.063, 93.848 77.114 C 92.950 80.110, 91.575 81.874, 88.747 83.660 C 85.867 85.478, 84.955 86.667, 85.187 88.302 C 85.481 90.364, 86.013 90.500, 93.784 90.500 C 102.872 90.500, 104.269 91.307, 103.075 95.868 C 102.594 97.704, 100.891 99.256, 97.443 101 C 92.967 103.264, 92.297 104.067, 90.353 109.500 C 89.172 112.800, 87.624 116.926, 86.914 118.670 C 85.293 122.646, 86.858 125, 91.122 125 C 92.705 125, 94 125.450, 94 126 C 94 126.550, 94.609 127, 95.354 127 C 97.644 127, 102 131.770, 102 134.278 C 102 136.991, 98.672 140.426, 95 141.503 C 93.625 141.907, 91.825 142.784, 91 143.454 C 90.175 144.123, 88.020 145.256, 86.212 145.972 C 82.135 147.587, 80.528 150.250, 81.988 152.977 C 84.386 157.459, 91.144 158.237, 99.892 155.040 C 106.404 152.659, 108.630 150.752, 111.154 145.390 C 112.218 143.130, 114.215 140.768, 115.591 140.140 C 120.464 137.920, 122.909 138.727, 128.336 144.347 C 134.059 150.274, 135.939 151.470, 142.804 153.553 C 152.097 156.373, 159 154.594, 159 149.378 C 159 145.012, 157.166 143.152, 149.230 139.466 C 144.978 137.491, 140.375 135.261, 139 134.509 C 135.270 132.471, 135.253 128.331, 138.953 123.224 C 140.629 120.910, 142 118.644, 142 118.189 C 142 117.733, 143.575 115.520, 145.500 113.271 C 147.425 111.022, 149 108.097, 149 106.771 C 149 101.782, 141.674 98.152, 131.385 98.044 C 129.031 98.019, 126.249 97.229, 124.885 96.199 C 123.573 95.209, 119.237 92.489, 115.250 90.155 C 111.263 87.821, 108 85.336, 108 84.633 C 108 83.931, 109.338 81.589, 110.973 79.428 C 112.607 77.268, 114.230 74.054, 114.577 72.286 C 115.337 68.421, 117.136 66.750, 120.536 66.750 C 125.587 66.750, 128.744 72.794, 129.546 84 C 129.814 87.752, 130.488 89.040, 133.600 91.750 C 135.653 93.537, 138.271 95.042, 139.417 95.093 C 144.381 95.315, 148.774 95.755, 152.547 96.408 C 155.841 96.977, 157.097 96.712, 159.297 94.981 C 160.784 93.812, 162 91.967, 162 90.882 C 162 87.750, 157.757 84.303, 152.910 83.497 C 142.068 81.694, 136.550 74.292, 142.155 69.070 C 143.985 67.365, 145.174 67.153, 150.048 67.663 C 153.204 67.993, 157.410 67.958, 159.393 67.586 C 162.568 66.990, 163 66.556, 163 63.958 C 163 61.020, 156.975 53, 154.767 53 C 154.217 53, 151.099 50.530, 147.839 47.511 C 138.267 38.649, 136.404 38.432, 135.423 46.061 C 134.605 52.424, 132.329 54.014, 124.139 53.940 C 115.914 53.867, 108.257 52.657, 106.802 51.202 C 105.180 49.580, 107.984 45.832, 114.504 40.910 C 117.527 38.627, 120 36.118, 120 35.334 C 120 34.550, 118.895 32.805, 117.545 31.455 C 114.326 28.235, 109.577 28.244, 104.818 31.478 M 111.750 110.261 C 107.484 113.851, 108.114 116.293, 113.750 118.015 C 120.091 119.954, 121.334 119.978, 124.933 118.235 C 128.620 116.450, 128.788 114.763, 125.621 111.347 C 122.189 107.645, 115.482 107.120, 111.750 110.261" stroke="none" fill="black" fill-rule="evenodd"/>
</svg>