<svg xmlns="http://www.w3.org/2000/svg" width="256" height="256" viewBox="0 0 256 256" version="1.1">
	<path d="M 65.731 30.746 C 64.029 31.816, 62.234 34.416, 61.074 37.493 C 58.240 45.009, 51.825 57.108, 47.679 62.756 C 45.656 65.512, 44 68.023, 44 68.334 C 44 69.326, 38.117 77.658, 36.425 79.062 C 34.347 80.787, 28.808 89.503, 27.058 93.802 C 24.355 100.444, 29.750 108.540, 34.770 105.373 C 35.573 104.867, 37.585 101.988, 39.242 98.976 C 43.180 91.816, 45.830 89, 48.627 89 C 52.378 89, 52.980 93.982, 53.094 126 C 53.152 142.225, 53.503 156.587, 53.875 157.915 C 54.637 160.639, 60.898 164.360, 63.221 163.469 C 64.051 163.150, 65.159 161.902, 65.685 160.695 C 66.848 158.024, 66.658 110.133, 65.419 94 C 64.377 80.416, 64.404 78.093, 65.731 67.300 C 66.529 60.807, 67.286 58.448, 69.369 55.973 C 70.816 54.253, 72 52.431, 72 51.923 C 72 50.401, 74.234 50.876, 76.436 52.866 C 80.026 56.112, 87.325 58.247, 93.162 57.758 C 98.817 57.284, 106.679 58.403, 111.262 60.335 C 113.862 61.430, 115.819 64.514, 114.655 65.679 C 114.364 65.969, 110.836 66.602, 106.813 67.085 C 80.422 70.255, 80.485 70.190, 82.967 91.780 C 84.039 101.102, 85.367 104.482, 89.018 107.182 C 91.368 108.920, 91.869 108.943, 96.518 107.533 C 99.258 106.702, 103.422 106.017, 105.771 106.011 C 109.327 106.002, 110.228 106.406, 111.147 108.423 C 112.834 112.125, 111.434 117.430, 108.333 119.089 C 104.997 120.875, 102.442 120.439, 98.464 117.405 C 94.468 114.357, 92.249 114.359, 90.859 117.410 C 89.991 119.316, 90.100 120.304, 91.380 122.133 C 92.271 123.404, 93 125.073, 93 125.840 C 93 126.608, 94.350 128.774, 96 130.653 C 99.333 134.449, 99.417 134.773, 98.015 138.461 C 96.560 142.287, 93.910 144.679, 90.261 145.460 C 85.520 146.476, 83.911 149.720, 86.848 152.344 C 89.054 154.315, 90.627 154.532, 96.222 153.639 C 100.916 152.890, 105 149.532, 105 146.422 C 105 144.683, 108.931 141.999, 111.473 142.003 C 112.588 142.005, 116.636 143.586, 120.470 145.517 C 124.303 147.448, 129.028 149.513, 130.970 150.105 C 150.080 155.941, 154.738 156.353, 158.545 152.545 C 161.255 149.835, 161.532 148.262, 159.920 144.725 C 158.871 142.421, 152.984 140.543, 137.040 137.425 C 132.313 136.501, 126.163 133.174, 124.933 130.875 C 124.015 129.160, 124.396 117.096, 125.549 111.369 C 126.134 108.466, 131.735 106, 137.745 106 C 142.966 106, 152.073 103.309, 156.362 100.498 C 158.599 99.033, 160.655 95.584, 160.265 93.951 C 160.193 93.649, 159.590 88.568, 158.925 82.660 C 157.428 69.356, 157.663 69.526, 137.603 67.188 C 131.052 66.424, 128.645 64.382, 130.606 61.250 C 131.498 59.825, 133.912 59.353, 143.601 58.707 C 159.464 57.650, 162.249 56.114, 160.553 49.355 C 159.508 45.193, 155.035 44.068, 141.955 44.681 C 131.214 45.184, 130.360 45.084, 128.250 43.070 C 126.782 41.668, 126 39.745, 126 37.532 C 126 33.791, 123.864 31, 121 31 C 118.144 31, 116 33.788, 116 37.500 C 116 41.177, 114.062 43.724, 110.680 44.492 C 109.481 44.764, 100.769 45.134, 91.320 45.314 C 71.754 45.686, 71.992 45.798, 74.268 37.289 C 76.188 30.110, 71.931 26.848, 65.731 30.746 M 101.500 80.386 C 97.268 82.230, 95.814 84.359, 96.182 88.178 C 96.423 90.682, 97.204 91.822, 99.397 92.868 C 102.469 94.334, 112.342 94.982, 113.534 93.796 C 113.923 93.409, 114.638 90.969, 115.122 88.374 C 116.367 81.710, 114.501 78.986, 108.727 79.039 C 106.402 79.061, 103.150 79.667, 101.500 80.386 M 132.848 80.687 C 128.845 81.331, 126.785 88.607, 129.405 92.846 C 130.550 94.699, 139.131 94.217, 142.596 92.105 C 145.095 90.581, 145.655 89.613, 145.505 87.085 C 145.331 84.167, 142.821 81.124, 140.500 81.018 C 139.950 80.993, 138.600 80.812, 137.500 80.616 C 136.400 80.420, 134.306 80.452, 132.848 80.687" stroke="none" fill="black" fill-rule="evenodd"/>
</svg>