<svg xmlns="http://www.w3.org/2000/svg" width="256" height="256" viewBox="0 0 256 256" version="1.1">
	<path d="M 63.957 30.464 C 62.200 31.419, 60.879 33.544, 59.684 37.333 C 58.733 40.350, 55.133 47.696, 51.684 53.659 C 48.234 59.622, 44.588 66.750, 43.580 69.500 C 42.572 72.250, 40.080 76.300, 38.042 78.500 C 31.540 85.519, 25 95.119, 25 97.645 C 25 98.990, 26.122 101.213, 27.493 102.584 C 29.531 104.622, 30.351 104.882, 31.983 104.009 C 33.081 103.421, 34.619 101.717, 35.400 100.220 C 37.941 95.357, 42.581 91.678, 45.310 92.363 C 49.015 93.293, 49.793 98.390, 49.809 121.833 C 49.828 149.699, 51.293 158.466, 56.304 160.713 C 59.253 162.034, 60.757 161.370, 62.517 157.967 C 64.154 154.802, 64.199 154.178, 64.176 135 C 64.167 127.575, 64.189 120.600, 64.224 119.500 C 64.260 118.400, 63.690 113.900, 62.958 109.500 C 62.225 105.100, 61.660 99.475, 61.701 97 C 61.810 90.413, 61.875 85.144, 61.918 79.500 C 61.967 72.970, 62.661 64.486, 63.381 61.619 C 64.176 58.451, 69.901 55.522, 73.598 56.391 C 87.079 59.559, 91.735 60.257, 100.167 60.370 C 108.884 60.487, 110.083 60.735, 112.378 62.888 C 114.374 64.761, 114.711 65.672, 113.938 67.115 C 112.170 70.419, 110.226 71.068, 96.666 72.875 C 93.458 73.303, 90.427 74.293, 89.932 75.076 C 85.545 82.007, 95.715 89.474, 108.731 88.880 C 119.459 88.390, 132.325 88.925, 133.301 89.901 C 134.579 91.179, 131.753 93.983, 127.079 96.076 C 123.221 97.803, 122.239 97.795, 114.439 95.961 C 109.572 94.817, 98.216 95.095, 89.752 96.567 C 87.299 96.993, 84.650 96.677, 82.089 95.652 C 78.255 94.118, 78.141 94.136, 76.587 96.508 C 75.714 97.840, 75 99.459, 75 100.105 C 75 102.092, 79.289 109.994, 80.427 110.105 C 93.447 111.379, 103.847 111.500, 116.500 110.523 C 125.672 109.815, 126.704 109.917, 128.959 111.754 L 131.418 113.757 130.298 125.099 C 129.634 131.823, 128.710 136.597, 128.029 136.824 C 126.314 137.395, 121.771 141.801, 119.803 144.800 C 117.687 148.026, 118.375 151.621, 121.707 154.750 C 123.519 156.451, 125.298 157, 129.004 157 C 137.713 157, 141 153.997, 141 146.041 C 141 143.915, 141.634 138.865, 142.408 134.817 C 143.182 130.770, 143.598 125.140, 143.332 122.305 C 142.677 115.325, 143.819 113.616, 150.110 112.164 C 156.544 110.679, 158 109.541, 158 106 C 158 102.649, 156.741 101.527, 151.366 100.090 C 147.512 99.060, 138.990 92.355, 139.008 90.366 C 139.019 89.140, 143.950 87, 146.765 87 C 153.642 87, 155.026 81.826, 149.600 76.400 C 146.444 73.244, 145.742 73, 139.823 73 C 131.904 73, 129 71.282, 129 66.598 C 129 61.032, 131.444 59.770, 141.163 60.320 C 145.748 60.580, 150.867 61.101, 152.538 61.478 C 158.847 62.904, 162.935 55.362, 158.591 50.310 C 156.188 47.516, 156.102 47.499, 143.054 47.323 C 132.193 47.176, 129.380 46.819, 126.717 45.252 C 123.898 43.592, 123.488 42.810, 123.401 38.929 C 123.251 32.233, 123.183 32.041, 120.541 30.837 C 118.564 29.936, 117.571 30.051, 115.476 31.424 C 113.137 32.957, 112.902 33.662, 113.185 38.316 C 113.491 43.358, 113.404 43.548, 110 45.248 C 107.119 46.688, 103.750 46.997, 90.941 46.998 C 73.369 47, 71.302 46.380, 72.326 41.413 C 74.312 31.782, 74.313 31.702, 72.446 30.337 C 70.137 28.649, 67.213 28.692, 63.957 30.464 M 92.612 118.876 C 91.678 119.908, 90.665 122.289, 90.360 124.168 C 89.870 127.189, 90.325 128.134, 94.296 132.338 C 97.588 135.823, 99.787 137.254, 102.543 137.701 C 107.304 138.473, 109.013 136.441, 108.968 130.059 C 108.933 125.042, 107.781 123.028, 102.882 119.413 C 98.964 116.522, 94.933 116.312, 92.612 118.876" stroke="none" fill="black" fill-rule="evenodd"/>
</svg>