<svg xmlns="http://www.w3.org/2000/svg" width="256" height="256" viewBox="0 0 256 256" version="1.1">
	<path d="M 64.011 29.750 C 61.767 31.792, 60.562 34.264, 59.325 39.356 C 57.743 45.873, 52.418 55.322, 40.931 72 C 39.226 74.475, 36.314 78.975, 34.459 82 C 32.603 85.025, 30.664 87.992, 30.149 88.594 C 28.561 90.450, 26 95.825, 26 97.304 C 26 98.941, 30.447 104, 31.886 104 C 32.974 104, 38.029 97.251, 40.615 92.347 C 42.720 88.355, 45.940 86.751, 48.334 88.502 C 51.153 90.563, 51.999 95.631, 52.009 110.493 C 52.023 133.552, 53.629 151.182, 56.195 156.464 C 61.124 166.610, 67.995 161.157, 66.532 148.260 C 66.235 145.642, 65.763 133.150, 65.483 120.500 C 65.204 107.850, 64.842 92.325, 64.680 86 C 64.147 65.277, 65.075 59.590, 70.894 47.922 C 76.495 36.691, 77.228 32.228, 74 29 C 71.228 26.228, 67.579 26.501, 64.011 29.750 M 92.357 38.007 C 88.102 39.693, 86.999 42.786, 87.018 52.973 C 87.028 58.213, 87.725 67.225, 88.567 73 C 89.409 78.775, 89.981 88.225, 89.839 94 C 89.621 102.813, 89.960 105.651, 91.944 111.663 C 93.538 116.494, 94.990 119.141, 96.404 119.791 C 101.936 122.335, 110.403 123.302, 126.813 123.262 L 144.161 123.220 146.974 120.525 C 150.916 116.748, 151.818 112.014, 152.409 92 C 152.693 82.375, 153.167 73.150, 153.463 71.500 C 154.831 63.868, 154.900 61.860, 154.131 52.191 C 153.540 44.771, 152.847 41.418, 151.657 40.228 C 150.226 38.797, 146.747 38.540, 125.752 38.315 C 112.413 38.172, 99.925 37.853, 98 37.606 C 96.075 37.360, 93.536 37.540, 92.357 38.007 M 108.500 52.863 C 103.195 55.276, 102.204 56.653, 100.826 63.513 C 99.716 69.037, 99.769 69.394, 101.942 71.154 C 103.863 72.710, 106.032 73, 115.745 73 C 122.083 73, 128.987 73.515, 131.089 74.145 C 136.142 75.659, 139.726 73.541, 140.185 68.769 C 140.801 62.374, 139.227 54.603, 136.942 52.752 C 133.774 50.187, 114.215 50.264, 108.500 52.863 M 109 86.084 C 103.984 87.542, 102 90.334, 102 95.936 C 102 101.712, 104.042 103.937, 112.207 107.061 C 117.257 108.993, 119.005 109.162, 127.409 108.532 C 133.650 108.064, 137.307 107.335, 138.081 106.403 C 139.541 104.643, 139.390 92.949, 137.863 89.599 C 137.250 88.254, 135.793 86.926, 134.625 86.648 C 129.867 85.517, 112.284 85.129, 109 86.084 M 101.906 137.427 C 101.672 137.662, 97.434 138.077, 92.490 138.350 C 82.074 138.924, 80 139.534, 80 142.025 C 80 145.757, 81.472 147.299, 87.899 150.295 L 94.500 153.373 118.500 153.309 C 158.644 153.201, 157.749 153.251, 160 151 C 161.100 149.900, 162 147.875, 162 146.500 C 162 142.086, 158.773 140, 151.943 140 C 148.611 140, 143.864 139.491, 141.392 138.869 C 138.055 138.028, 134.274 138.026, 126.700 138.861 C 118.304 139.786, 115.439 139.728, 110.500 138.528 C 104.016 136.954, 102.566 136.768, 101.906 137.427" stroke="none" fill="black" fill-rule="evenodd"/>
</svg>