<svg xmlns="http://www.w3.org/2000/svg" width="256" height="256" viewBox="0 0 256 256" version="1.1">
	<path d="M 64.217 29.561 C 61.507 31.459, 59.490 35.268, 58.605 40.161 C 58.241 42.174, 55.515 47.470, 52.547 51.929 C 49.579 56.389, 46.359 62.167, 45.391 64.769 C 43.495 69.866, 39.185 76.772, 36.518 78.985 C 35.611 79.738, 32.604 84.187, 29.838 88.871 C 24.930 97.179, 24.838 97.480, 26.071 101.217 C 27.516 105.594, 30.946 107.197, 33.470 104.672 C 34.312 103.831, 35 102.721, 35 102.206 C 35 100.353, 43.391 91, 45.054 91 C 48.839 91, 49.491 93.699, 49.742 110.403 C 49.875 119.256, 50.437 129.511, 50.992 133.192 C 51.546 136.872, 52 142.895, 52 146.576 C 52 158.331, 54.620 163.207, 60.017 161.495 C 64.199 160.167, 64.815 155.882, 64.447 130.676 C 64.258 117.708, 63.617 105.293, 63.024 103.088 C 62.286 100.348, 62.252 97.167, 62.916 93.044 C 63.450 89.726, 63.736 86.221, 63.550 85.255 C 62.765 81.162, 62.684 64.219, 63.434 61 C 64.756 55.328, 70.822 44.131, 74.217 41.098 C 77.213 38.420, 77.300 38.137, 76.046 35.110 C 74.575 31.560, 70.591 28, 68.088 28 C 67.184 28, 65.442 28.702, 64.217 29.561 M 101.707 33.071 C 98.629 35.110, 95.053 36.427, 91.071 36.990 C 84.098 37.976, 83 38.499, 83 40.837 C 83 44.010, 85.994 46.975, 89.817 47.587 C 94.246 48.295, 96.476 49.772, 97.370 52.591 C 98.100 54.890, 96.208 55.698, 84.716 57.998 C 79.402 59.062, 75 61.896, 75 64.254 C 75 68.800, 80.294 70.988, 91.399 71.032 C 99.974 71.065, 104.320 72.659, 101.720 74.817 C 101.004 75.412, 98.862 76.166, 96.959 76.493 C 90.055 77.680, 86.282 79.030, 84.564 80.929 C 82.948 82.715, 82.928 83.244, 84.309 87.683 C 88.962 102.635, 91.064 105.954, 95.941 106.051 C 99.912 106.130, 106.974 107.003, 112.823 108.139 C 117.650 109.076, 117.976 109.301, 116.323 110.554 C 114.083 112.252, 109.122 112.359, 101.702 110.869 C 96.942 109.913, 95.540 109.991, 92.635 111.369 C 90.744 112.266, 88.773 113, 88.254 113 C 86.608 113, 84 116.574, 84 118.829 C 84 120.023, 84.395 121, 84.879 121 C 86.118 121, 87.738 125.683, 88.381 131.123 C 89.582 141.288, 91.869 142.925, 106 143.727 C 111.225 144.024, 116.051 144.702, 116.724 145.234 C 117.396 145.766, 118.245 147.843, 118.608 149.850 C 120.286 159.113, 122.961 162.313, 128.127 161.239 C 129.735 160.905, 130.966 156.448, 130.989 150.872 C 130.995 149.427, 131.651 147.705, 132.446 147.045 C 134.522 145.322, 144.645 143.077, 150.527 143.036 C 158.805 142.977, 162.732 138.472, 158.830 133.511 C 156.975 131.152, 156.406 131.025, 149.556 131.429 C 140.290 131.975, 133.001 130.235, 131.882 127.210 C 130.907 124.575, 130.007 124.782, 143.140 124.626 C 152.169 124.519, 154.106 124.205, 155.937 122.552 C 157.308 121.314, 157.986 119.677, 157.797 118.060 C 157.346 114.196, 153.034 112.668, 142.291 112.566 C 132.128 112.470, 128.841 111.090, 132.441 108.433 C 133.509 107.645, 135.984 106.997, 137.941 106.994 C 144.716 106.984, 148.663 105.257, 149.968 101.735 C 150.627 99.956, 151.803 97.022, 152.583 95.216 C 155.035 89.533, 154.411 85.631, 150.250 80.628 C 148.188 78.149, 145.653 75.819, 144.618 75.451 C 141.662 74.400, 144.345 73.369, 150.706 73.111 C 156.954 72.859, 162.640 70.874, 164.533 68.286 C 166.448 65.667, 164.406 62.475, 159.122 59.821 C 150.207 55.344, 149 54.195, 148.996 50.182 C 148.992 45.787, 145.878 40.274, 142.750 39.121 C 141.512 38.665, 135.828 37.772, 130.117 37.135 C 121.162 36.137, 119.176 35.567, 115.670 32.989 C 110.527 29.206, 107.515 29.224, 101.707 33.071 M 113.655 50.829 C 109.732 55.163, 112.352 56.795, 124.275 57.445 C 133.357 57.940, 134.013 57.844, 135.070 55.869 C 136.751 52.728, 134.437 51.055, 126.911 49.967 C 117.684 48.633, 115.514 48.774, 113.655 50.829 M 112.074 74.589 C 113.099 75.825, 114.373 76.052, 117.459 75.550 C 119.681 75.189, 122.063 74.842, 122.750 74.780 C 123.438 74.718, 124 74.350, 124 73.962 C 124 73.575, 121.014 73.193, 117.365 73.114 C 111.356 72.984, 110.857 73.123, 112.074 74.589 M 127 73.971 C 127 76.674, 138.864 76.909, 139.759 74.224 C 140.053 73.341, 138.332 73, 133.583 73 C 129.963 73, 127 73.437, 127 73.971 M 100.192 90.269 C 98.633 92.147, 100.370 94.362, 103.688 94.727 C 109.376 95.353, 136.971 95.362, 137.596 94.738 C 137.950 94.383, 137.965 92.996, 137.628 91.654 L 137.016 89.215 119.143 89.093 C 105.588 89, 101.009 89.284, 100.192 90.269 M 105.036 123.956 C 102.596 125.500, 104.945 130.023, 109.378 132.320 C 112.237 133.801, 113.682 134.058, 114.878 133.300 C 116.662 132.168, 117.182 126.288, 115.677 124.250 C 114.608 122.800, 107.188 122.596, 105.036 123.956" stroke="none" fill="black" fill-rule="evenodd"/>
</svg>