<svg xmlns="http://www.w3.org/2000/svg" width="256" height="256" viewBox="0 0 256 256" version="1.1">
	<path d="M 64.030 28.279 C 60.713 29.958, 57.425 35.034, 55.581 41.325 C 54.747 44.171, 52.585 48.750, 50.777 51.500 C 47.324 56.753, 44.902 61.965, 42.973 68.292 C 42.338 70.377, 39.444 74.652, 36.544 77.792 C 30.722 84.095, 25 93.955, 25 97.686 C 25 100.372, 29.077 105, 31.442 105 C 32.285 105, 34.064 103.313, 35.394 101.250 C 38.364 96.647, 43.558 91, 44.821 91 C 47.701 91, 48.194 94.262, 47.955 111.722 C 47.810 122.263, 48.176 131.693, 48.855 134.886 C 49.485 137.849, 50.007 143.924, 50.015 148.386 C 50.032 157.743, 51.327 161.048, 55.402 162.134 C 61.921 163.873, 64.699 158.717, 63.450 147.199 C 62.991 142.965, 62.539 132.975, 62.446 125 C 62.354 117.025, 61.757 108.620, 61.120 106.323 C 60.483 104.025, 59.964 97.950, 59.966 92.823 C 59.968 87.695, 59.924 81.925, 59.869 80 C 59.423 64.668, 63.445 50.309, 71.182 39.600 C 74.618 34.844, 74.842 30.703, 71.777 28.557 C 69.104 26.684, 67.309 26.620, 64.030 28.279 M 94.705 30.780 C 93.561 31.025, 90.947 35.214, 87.497 42.332 C 84.521 48.474, 81.108 54.697, 79.914 56.160 C 78.192 58.271, 77.882 59.559, 78.416 62.402 C 78.998 65.507, 79.786 66.313, 84.349 68.472 C 90.389 71.329, 92.783 75.160, 93.697 83.427 C 94.279 88.694, 97.578 95.957, 99.434 96.058 C 100.020 96.089, 98.250 97.195, 95.500 98.514 C 90.354 100.983, 88.963 100.956, 83.049 98.278 C 80.033 96.912, 79.278 96.895, 77.056 98.142 C 73.871 99.930, 73.359 102.373, 75.487 105.621 C 77.051 108.007, 77.476 108.108, 83.320 107.485 C 89.122 106.867, 89.638 106.985, 91.750 109.421 C 92.987 110.848, 94 112.381, 94 112.827 C 94 114.136, 89.855 117.318, 84.835 119.862 C 80.150 122.237, 79.040 124.014, 79.014 129.183 C 78.995 132.879, 82.184 133.787, 85.640 131.069 C 88.747 128.625, 95.760 128.211, 96.608 130.422 C 97.756 133.413, 97.689 135.594, 96.368 138.200 C 95.616 139.686, 95 141.774, 95 142.842 C 95 144.125, 94.069 145.017, 92.256 145.472 C 86.991 146.793, 86.232 149.079, 89.709 153.142 C 91.589 155.339, 94.628 154.466, 99.162 150.427 C 101.175 148.633, 103.726 146.682, 104.830 146.091 C 105.934 145.500, 107.127 143.700, 107.480 142.091 C 107.834 140.481, 108.986 138.169, 110.041 136.953 C 111.095 135.737, 111.778 134.450, 111.557 134.093 C 111.337 133.736, 111.959 132.380, 112.940 131.079 C 114.298 129.279, 115.320 128.863, 117.215 129.339 C 119.595 129.936, 119.700 130.284, 119.597 137.196 L 119.490 144.427 115.495 145.358 C 110.728 146.468, 109.840 147.555, 111.223 150.590 C 112.876 154.218, 117.034 155.431, 122.952 154.012 C 127.901 152.824, 128.035 152.855, 132.735 156.277 C 139.358 161.100, 141.118 161.473, 144.593 158.791 C 146.192 157.557, 148.076 155.861, 148.780 155.023 C 151.013 152.365, 155.057 143.590, 154.599 142.397 C 154.356 141.765, 154.726 140.155, 155.419 138.818 C 156.857 136.046, 158.339 121.048, 157.414 118.635 C 156.904 117.306, 155.086 117.052, 146.650 117.129 C 141.067 117.180, 134.902 116.914, 132.948 116.537 C 130.994 116.160, 124.057 115.773, 117.531 115.676 C 110.444 115.571, 105.527 115.086, 105.323 114.471 C 104.944 113.333, 112.079 110.985, 116 110.957 C 126.610 110.883, 143.589 111.940, 148.797 112.999 C 153.542 113.963, 155.703 114.001, 157.567 113.152 C 160.376 111.871, 162.344 107.660, 161.450 104.841 C 160.071 100.498, 157.439 99.984, 134.397 99.558 C 122.354 99.335, 111.263 99.119, 109.750 99.076 C 108.237 99.034, 107 98.577, 107 98.060 C 107 97.506, 114.517 97.129, 125.272 97.143 C 138.286 97.159, 144.400 96.785, 146.522 95.844 C 151.158 93.788, 152.306 92.270, 151.535 89.212 C 151.160 87.720, 150.503 83.478, 150.076 79.783 C 149.649 76.089, 148.829 72.489, 148.254 71.783 C 147.679 71.078, 146.971 68.700, 146.682 66.500 C 146.297 63.572, 145.274 61.763, 142.866 59.750 C 141.056 58.237, 138.996 57, 138.288 57 C 137.579 57, 137 56.576, 137 56.057 C 137 55.539, 135.988 55.312, 134.750 55.553 C 131.887 56.112, 122.730 54.937, 123.550 54.117 C 123.889 53.778, 127.842 53.201, 132.333 52.836 C 152.525 51.196, 154.422 50.860, 156.882 48.487 C 159.820 45.654, 159.228 41.995, 155.510 40.005 C 153.415 38.884, 151.161 38.853, 142.733 39.828 C 137.105 40.479, 127.805 41.009, 122.066 41.006 C 110.169 40.999, 104.690 39.143, 101.883 34.168 C 100.222 31.223, 97.856 30.107, 94.705 30.780 M 101.174 53.038 C 98.983 53.936, 98.947 54.090, 100.553 55.696 C 102.554 57.697, 108.780 57.975, 109.929 56.115 C 110.366 55.408, 111.011 54.868, 111.362 54.915 C 114.118 55.283, 116.255 54.865, 115.450 54.114 C 113.978 52.741, 103.775 51.972, 101.174 53.038 M 111.250 81.706 C 110.013 81.944, 109 82.569, 109 83.094 C 109 85.006, 114.555 86.140, 120.806 85.505 C 130.988 84.470, 133 83.865, 133 81.840 C 133 80.862, 130.817 80.947, 121.250 82.297 C 119.463 82.549, 118 82.360, 118 81.878 C 118 80.987, 115.334 80.919, 111.250 81.706 M 133.782 129.750 C 133.598 130.162, 133.468 131.850, 133.494 133.500 C 133.520 135.150, 133.135 136.788, 132.639 137.140 C 132.142 137.493, 132.041 139.405, 132.413 141.390 C 133.055 144.809, 133.298 145, 137.020 145 C 140.342 145, 141.180 144.553, 142.446 142.105 C 143.269 140.513, 144.231 137.406, 144.584 135.200 C 145.126 131.808, 144.910 131.022, 143.178 130.095 C 140.858 128.854, 134.292 128.612, 133.782 129.750" stroke="none" fill="black" fill-rule="evenodd"/>
</svg>