<svg xmlns="http://www.w3.org/2000/svg" width="256" height="256" viewBox="0 0 256 256" version="1.1">
	<path d="M 62.686 31.415 C 61.253 32.743, 59.797 35.105, 59.451 36.665 C 58.061 42.918, 56.587 46.686, 54.039 50.500 C 50.610 55.633, 45.935 64.261, 43.473 70 C 42.411 72.475, 40.043 76.075, 38.211 78 C 33.791 82.644, 26.335 92.990, 25.137 96.139 C 24.393 98.098, 24.626 99.361, 26.188 101.828 C 28.616 105.662, 31.286 105.882, 33.703 102.447 C 37.246 97.412, 42.251 91.485, 43.633 90.689 C 44.407 90.243, 45.917 90.156, 46.989 90.497 C 50.159 91.503, 51.034 96.981, 49.926 108.886 C 48.607 123.062, 48.588 128.533, 49.835 134.500 C 50.410 137.250, 50.908 142.338, 50.940 145.807 C 51.028 155.094, 52.720 160.892, 55.549 161.602 C 59.671 162.636, 61.676 161.227, 63.046 156.336 C 64.020 152.858, 64.082 150.230, 63.301 145.614 C 62.732 142.251, 62.458 137.250, 62.691 134.500 C 62.925 131.750, 63.202 114.425, 63.308 96 C 63.478 66.323, 63.703 62.051, 65.275 58.568 C 66.251 56.406, 67.716 52.356, 68.531 49.568 C 69.345 46.781, 70.906 43.150, 71.999 41.500 C 74.712 37.406, 74.613 32.543, 71.777 30.557 C 68.624 28.348, 65.697 28.624, 62.686 31.415 M 131.500 32.127 C 86.590 40.122, 88.270 39.722, 85.888 43 C 84.279 45.213, 84.057 47.909, 83.950 66.500 C 83.878 79.142, 84.262 88.890, 84.915 90.993 C 85.512 92.915, 86 97.940, 86 102.160 C 86 109.007, 85.623 110.545, 82.500 116.431 C 80.575 120.060, 78.997 123.585, 78.994 124.264 C 78.990 124.944, 78.365 126.694, 77.603 128.153 C 73.841 135.365, 72.370 145.655, 74.639 148.895 C 77.368 152.791, 81.080 151.093, 83.807 144.703 C 84.463 143.165, 85 141.203, 85 140.345 C 85 139.486, 86.010 136.582, 87.244 133.892 C 88.850 130.392, 90.059 129.004, 91.494 129.015 C 93.155 129.028, 93.242 129.197, 92 130 C 90.910 130.704, 90.858 130.974, 91.809 130.985 C 92.529 130.993, 92.840 131.450, 92.500 132 C 92.160 132.550, 92.299 133, 92.809 133 C 93.859 133, 96.578 142.338, 97.400 148.765 C 98.297 155.781, 101.009 159.333, 104.726 158.362 C 107.545 157.624, 108.883 151.977, 107.687 145.865 C 107.017 142.437, 107.137 140.487, 108.148 138.377 C 109.917 134.686, 112.230 134.316, 116.139 137.099 L 119.290 139.343 123.625 137.043 C 126.009 135.778, 127.717 134.351, 127.421 133.872 C 127.124 133.392, 127.659 133, 128.608 133 C 129.557 133, 130.081 133.252, 129.773 133.561 C 129.464 133.869, 130.289 135.198, 131.606 136.515 C 134.336 139.245, 134.857 144.457, 132.491 145.365 C 130.405 146.165, 131.025 148.169, 134 150.243 C 136.899 152.265, 140.830 152.490, 144.449 150.841 C 146.554 149.882, 147.324 149.983, 148.918 151.426 C 149.978 152.385, 152.679 153.415, 154.920 153.716 C 158.990 154.262, 159 154.255, 161.144 149.407 C 163.172 144.823, 163.253 143.601, 162.593 127.526 C 161.524 101.498, 160.272 97.876, 152.188 97.435 C 150.040 97.318, 147.410 96.755, 146.344 96.184 C 144.706 95.308, 136.598 95.196, 135 96.028 C 134.725 96.171, 131.125 96.427, 127 96.597 C 122.875 96.767, 117.138 97.139, 114.250 97.423 C 111.170 97.727, 109 97.539, 109 96.970 C 109 96.437, 107.030 96, 104.622 96 C 99.744 96, 97.047 94.036, 99.327 92.144 C 100.253 91.375, 103.957 91.230, 111.089 91.683 C 116.815 92.046, 128.700 92.351, 137.500 92.359 C 157.103 92.379, 159.343 91.661, 159.809 85.203 C 159.980 82.848, 159.441 78.576, 158.613 75.710 C 157.762 72.766, 157.341 68.761, 157.646 66.500 C 158.104 63.103, 157.794 62.135, 155.592 60.075 C 153.301 57.933, 151.576 57.534, 140.750 56.646 C 126.972 55.516, 122.491 55.449, 109.222 56.173 C 102.569 56.536, 99.457 56.318, 98.222 55.401 C 94.368 52.539, 100.816 50.420, 120.500 48.081 C 123.800 47.689, 128.300 46.867, 130.500 46.253 C 132.700 45.639, 137.200 44.614, 140.500 43.974 C 148.068 42.508, 151 40.689, 151 37.462 C 151 35.724, 150.017 34.371, 147.750 32.989 C 144.271 30.868, 139.879 30.635, 131.500 32.127 M 112.569 69.768 C 112.420 69.915, 109.274 70.114, 105.579 70.209 C 97.238 70.423, 95.150 71.682, 96.548 75.653 L 97.551 78.500 119.164 78.500 L 140.777 78.500 142.828 76 C 144.868 73.512, 144.869 73.490, 142.907 71.500 C 141.122 69.688, 139.613 69.500, 126.889 69.500 C 119.163 69.500, 112.719 69.621, 112.569 69.768 M 141.223 110.557 C 140 111.413, 139 112.610, 139 113.218 C 139 115.140, 145.362 120.093, 147.442 119.790 C 149.934 119.427, 153.130 113.969, 151.250 113.287 C 150.563 113.037, 150 111.971, 150 110.917 C 150 109.418, 149.286 109, 146.723 109 C 144.920 109, 142.445 109.701, 141.223 110.557 M 108.414 111.364 C 108.069 112.264, 107.159 113, 106.393 113 C 104.504 113, 104.642 114.337, 106.808 117.011 C 108.280 118.829, 109.207 119.113, 111.808 118.542 C 113.563 118.157, 115 117.464, 115 117.002 C 115 116.541, 115.273 115.452, 115.607 114.582 C 116.020 113.505, 115.646 113, 114.436 113 C 113.458 113, 111.844 112.264, 110.850 111.364 C 109.176 109.849, 108.995 109.849, 108.414 111.364 M 127.500 110.810 C 126.400 111.047, 124.727 111.781, 123.781 112.442 C 122.224 113.532, 122.206 113.849, 123.588 115.822 C 125.479 118.523, 130.052 118.705, 132.345 116.171 C 133.255 115.165, 134 113.888, 134 113.332 C 134 111.899, 129.876 110.298, 127.500 110.810 M 142.750 135.470 C 139.480 139.966, 141.232 145, 146.067 145 C 149.714 145, 150.442 143.430, 149.550 137.488 C 148.987 133.728, 148.522 133.005, 146.689 133.031 C 145.485 133.049, 143.713 134.146, 142.750 135.470 M 117.710 146.313 C 117.433 147.036, 117.437 148.836, 117.720 150.313 C 118.157 152.604, 118.736 153, 121.648 153 C 123.988 153, 125.266 152.449, 125.708 151.250 C 126.064 150.287, 126.758 149.228, 127.251 148.895 C 127.744 148.563, 127.407 147.550, 126.502 146.645 C 124.540 144.682, 118.424 144.452, 117.710 146.313" stroke="none" fill="black" fill-rule="evenodd"/>
</svg>