<svg xmlns="http://www.w3.org/2000/svg" width="256" height="256" viewBox="0 0 256 256" version="1.1">
	<path d="M 51.234 33.789 C 49.988 34.748, 48.482 37.326, 47.889 39.516 C 47.295 41.707, 46.234 44.850, 45.530 46.500 C 44.827 48.150, 43.707 51.525, 43.042 54 C 41.197 60.861, 37.013 69.031, 32.924 73.754 C 30.344 76.734, 28.756 79.939, 27.621 84.459 C 25.298 93.707, 25.470 95.848, 28.637 97.052 C 30.923 97.921, 31.879 97.583, 35.829 94.505 C 43.277 88.703, 43.471 89.309, 43.609 118.783 C 43.748 148.580, 44.369 154.511, 47.672 157.572 C 50.466 160.161, 53.441 159.783, 55.545 156.571 C 56.604 154.955, 56.969 150.633, 56.990 139.455 C 57.006 131.230, 57.054 121.125, 57.097 117 C 57.243 102.904, 56.778 94.845, 55.549 90.172 C 54.872 87.602, 54.462 84.150, 54.637 82.500 C 54.812 80.850, 55.183 75, 55.462 69.500 C 56.098 56.921, 57.532 47.363, 59.484 42.692 C 61.475 37.927, 61.397 35.669, 59.171 33.655 C 56.832 31.538, 54.098 31.584, 51.234 33.789 M 105.001 34.051 C 101.517 35.541, 98 39.032, 98 41 C 98 41.908, 99.166 43.742, 100.591 45.076 C 102.978 47.310, 103.871 47.481, 111.970 47.253 C 121.414 46.987, 123.767 48.008, 122.549 51.844 C 121.904 53.877, 119.271 55.200, 112.366 56.960 C 106.857 58.365, 105.610 60.056, 106.298 65.189 C 106.710 68.259, 106.314 70.432, 104.795 73.429 C 103.660 75.668, 102.332 77.757, 101.845 78.072 C 100.951 78.649, 101.164 81.231, 102.333 84 C 105.252 90.911, 105.824 94.055, 104.821 97.687 C 104.220 99.863, 104.072 103.845, 104.474 106.995 C 104.861 110.023, 105.111 115.059, 105.030 118.186 C 104.869 124.396, 106.532 128.681, 110.259 131.662 C 113.431 134.198, 112.670 136.276, 107.680 138.701 C 105.346 139.834, 101.988 141.981, 100.218 143.470 C 95.995 147.024, 95.761 151.948, 99.646 155.548 C 103.065 158.716, 105.177 158.641, 109.215 155.206 C 111.022 153.669, 113.668 151.679, 115.097 150.784 C 116.525 149.888, 118.257 147.794, 118.946 146.130 C 119.996 143.595, 119.940 142.586, 118.600 139.899 C 116.586 135.864, 116.582 134.374, 118.582 133.607 C 121.197 132.603, 130.262 133.030, 134 134.332 C 137.191 135.444, 137.475 135.858, 137.213 139.022 C 136.835 143.587, 138.524 146.530, 143.455 149.897 C 145.680 151.415, 149.250 153.860, 151.390 155.329 C 155.801 158.358, 161.435 158.916, 162.393 156.418 C 164.058 152.078, 161.718 145, 158.618 145 C 157.920 145, 156.292 143.875, 155 142.500 C 153.708 141.125, 152.070 140, 151.360 140 C 150.649 140, 148.501 139.253, 146.585 138.339 C 143.701 136.964, 143.268 136.368, 144.068 134.873 C 144.599 133.880, 146.939 132.584, 149.267 131.992 C 155.777 130.338, 157.969 128.901, 158.785 125.751 C 159.553 122.787, 159.413 100.108, 158.505 80.500 C 158.225 74.450, 158.051 68.600, 158.118 67.500 C 158.645 58.865, 157.315 57, 150.630 57 C 148.437 57, 145.163 56.465, 143.356 55.812 C 135.500 52.971, 139.787 47.463, 150.109 47.135 C 160.573 46.802, 165.177 41.334, 159.491 35.992 C 156.695 33.365, 155.840 33.275, 140 33.935 C 135.325 34.129, 126.100 33.995, 119.500 33.636 C 111.753 33.214, 106.614 33.361, 105.001 34.051 M 75.465 49.983 C 74.346 50.419, 72.811 51.522, 72.054 52.434 C 69.876 55.059, 67.587 72.396, 68.019 83 C 68.655 98.622, 68.460 116.295, 67.615 119.568 C 65.954 126.003, 74.766 131.760, 81.294 128.503 C 82.951 127.676, 85.077 127, 86.019 127 C 88.663 127, 92.703 123.335, 93.257 120.434 C 93.662 118.316, 93.165 117.462, 90.628 115.915 C 88.908 114.866, 86.542 114.006, 85.371 114.004 C 83.358 114, 81.484 111.090, 80.861 107 C 80.359 103.700, 82.275 89.006, 83.410 87.454 C 84.146 86.447, 86.560 85.611, 89.561 85.322 C 92.277 85.061, 95.670 84.405, 97.100 83.864 C 103.900 81.294, 96.357 71.995, 86.684 71.022 L 81.500 70.500 81.500 61.132 C 81.500 52.859, 81.266 51.613, 79.500 50.477 C 78.270 49.685, 76.717 49.495, 75.465 49.983 M 123 70.634 C 116.256 71.847, 114.677 75.260, 119.347 78.531 C 121.833 80.272, 136.455 80.557, 142.149 78.975 C 145.373 78.080, 145.774 77.618, 145.594 75.009 C 145.481 73.385, 145.040 71.706, 144.613 71.278 C 143.757 70.420, 126.970 69.919, 123 70.634 M 120.500 92.178 C 117.542 93.830, 117.541 93.835, 119.366 95.852 C 120.736 97.365, 122.245 97.663, 127.405 97.436 C 130.899 97.282, 135.500 97.557, 137.629 98.047 C 139.758 98.537, 142.264 98.704, 143.199 98.418 C 145.207 97.803, 146.302 94.950, 145.416 92.641 C 144.883 91.253, 143.069 91.005, 133.643 91.030 C 127.356 91.048, 121.628 91.548, 120.500 92.178 M 139 109.203 C 137.075 109.765, 131.878 109.978, 127.451 109.676 C 120.251 109.184, 119.276 109.329, 118.201 111.049 C 116.458 113.840, 116.728 116.784, 118.828 117.908 C 120.929 119.032, 143.671 119.560, 146.146 118.542 C 149.259 117.263, 148.900 111.009, 145.585 108.765 C 144.245 107.858, 143.416 107.913, 139 109.203" stroke="none" fill="black" fill-rule="evenodd"/>
</svg>