<svg xmlns="http://www.w3.org/2000/svg" width="256" height="256" viewBox="0 0 256 256" version="1.1">
	<path d="M 57.503 32.297 C 55.217 34.583, 53.554 37.781, 52.084 42.719 C 49.617 51.003, 37.865 74.907, 34.973 77.524 C 32.313 79.931, 26.396 90.723, 25.541 94.728 C 24.625 99.012, 25.514 101.458, 28.478 102.808 C 30.709 103.824, 31.361 103.454, 36.127 98.460 C 42.892 91.371, 45.596 91.124, 46.553 97.506 C 46.925 99.984, 46.942 104.372, 46.591 107.256 C 45.522 116.040, 45.683 134.041, 46.907 142.500 C 48.569 153.994, 48.730 154.526, 51.589 157.923 C 57.591 165.056, 60.616 159.652, 60.117 142.690 C 59.859 133.946, 60.098 131.549, 61.370 130.144 C 63.113 128.218, 63.027 120.738, 61.128 109 C 60.550 105.425, 60.084 99.010, 60.094 94.744 C 60.103 90.479, 59.805 86.494, 59.431 85.888 C 58.384 84.195, 58.783 76.682, 60.092 73.420 C 60.737 71.814, 61.344 67.125, 61.440 63 C 61.656 53.813, 64.129 45.372, 68.049 40.439 C 71.661 35.893, 71.816 32.765, 68.535 30.615 C 64.662 28.077, 61.194 28.606, 57.503 32.297 M 152.511 32.583 C 149.438 35.898, 149.329 37.161, 150.369 57.500 C 151.508 79.802, 151.514 83.189, 150.428 91.500 C 149.299 100.144, 149.288 104.822, 150.355 122.156 L 151.195 135.811 148.502 140.406 C 146.973 143.016, 145.074 145, 144.105 145 C 140.383 145, 138.723 149.755, 141.282 153.087 C 143.423 155.876, 146.716 157, 152.746 157 C 159.647 157, 162.533 155.006, 163.561 149.529 C 164.371 145.207, 163.259 39.437, 162.367 36 C 160.769 29.843, 156.441 28.343, 152.511 32.583 M 79.153 37.605 C 76.954 39.146, 76.870 39.705, 77.085 51.355 C 77.208 58.035, 76.936 66.200, 76.481 69.500 C 76.025 72.800, 75.662 76.850, 75.673 78.500 C 75.720 85.461, 76.343 92.643, 77.072 94.623 C 77.530 95.865, 77.412 97.188, 76.790 97.810 C 76.040 98.560, 76.035 101.297, 76.772 107.074 C 77.627 113.768, 78.298 115.753, 80.428 117.887 C 82.801 120.264, 83.963 120.552, 93.269 121.080 C 98.896 121.399, 105.002 122.299, 106.837 123.080 C 109.973 124.414, 110.286 124.362, 112.023 122.219 C 114.129 119.619, 115.958 111.634, 115.967 105 C 116.011 70.937, 115.260 43.099, 114.232 40.724 C 112.637 37.042, 110.803 36.486, 103.968 37.617 C 99.848 38.298, 96.872 38.210, 93.370 37.301 C 86.742 35.583, 81.893 35.686, 79.153 37.605 M 91.223 48.557 C 87.296 51.307, 89.256 57.090, 94.874 59.331 C 98.209 60.661, 98.575 60.624, 99.837 58.822 C 101.661 56.218, 101.568 50.425, 99.671 48.529 C 97.707 46.564, 94.050 46.576, 91.223 48.557 M 128.549 51.091 C 123.172 55.812, 122.377 60.404, 124.583 74 C 124.806 75.375, 125.683 83.087, 126.532 91.137 C 127.380 99.187, 128.484 107.201, 128.984 108.944 C 129.484 110.688, 129.651 112.745, 129.355 113.516 C 128.461 115.847, 130.977 121.858, 133.133 122.542 C 138.841 124.354, 140.199 116.826, 139.993 84.500 C 139.827 58.451, 139.465 53.359, 137.575 50.474 C 135.415 47.177, 132.804 47.355, 128.549 51.091 M 92.392 73.517 C 88.549 77.360, 89.344 81.955, 94.251 84.257 C 97.362 85.716, 98.356 85.802, 100.084 84.758 C 101.836 83.700, 102.099 82.758, 101.739 78.833 C 101.033 71.160, 97.028 68.882, 92.392 73.517 M 89.363 98.221 C 88.039 100.364, 88.955 105.444, 90.968 107.126 C 92.039 108.020, 92.634 109.033, 92.291 109.376 C 91.948 109.719, 93.392 110, 95.500 110 C 97.608 110, 99.032 109.699, 98.664 109.331 C 98.297 108.963, 98.638 107.951, 99.423 107.081 C 100.807 105.547, 101.474 102.339, 101.156 98.750 C 101.028 97.317, 100.015 97, 95.559 97 C 92.353 97, 89.808 97.502, 89.363 98.221 M 107.882 125.750 C 107.816 126.162, 107.814 126.832, 107.877 127.237 C 107.940 127.642, 106.043 128.464, 103.662 129.063 C 101.095 129.710, 99.333 130.733, 99.333 131.577 C 99.333 132.360, 99.626 133, 99.983 133 C 100.340 133, 101.902 135.656, 103.453 138.902 C 106.373 145.012, 109.193 147.233, 113.080 146.485 C 116.234 145.877, 116.368 145.589, 116.822 138.455 C 117.260 131.575, 116.204 129, 112.945 129 C 111.949 129, 110.849 128.100, 110.500 127 C 109.886 125.065, 108.123 124.223, 107.882 125.750 M 78.635 132.165 C 76.746 134.054, 74.607 137.602, 73.882 140.050 C 73.156 142.497, 71.536 145.320, 70.282 146.323 C 66.144 149.628, 67.748 153.400, 73.808 154.612 C 76.655 155.181, 77.448 154.682, 82.938 148.868 C 86.245 145.365, 88.962 141.690, 88.975 140.700 C 89.015 137.824, 91.910 133, 93.597 133 C 94.991 133, 94.991 132.848, 93.599 131.456 C 92.750 130.607, 89.809 129.646, 87.063 129.321 C 82.362 128.764, 81.870 128.930, 78.635 132.165" stroke="none" fill="black" fill-rule="evenodd"/>
</svg>