<svg xmlns="http://www.w3.org/2000/svg" width="256" height="256" viewBox="0 0 256 256" version="1.1">
	<path d="M 56.563 32.197 C 54.588 34.505, 52.505 38.126, 51.934 40.244 C 51.364 42.362, 49.391 47.110, 47.551 50.797 C 42.466 60.981, 41 64.936, 41 68.472 C 41 71.526, 36.758 78.796, 33.970 80.518 C 32.297 81.552, 26 95.046, 26 97.597 C 26 98.781, 26.281 101.156, 26.625 102.875 C 27.137 105.433, 27.731 106, 29.904 106 C 31.506 106, 33.141 105.142, 34.029 103.835 C 40.907 93.712, 44.032 96.387, 44.637 112.917 C 45.433 134.674, 47.028 152.029, 48.589 155.930 C 51.582 163.410, 58.272 164.607, 59.208 157.829 C 60.385 149.303, 59.337 116.214, 57.597 107 C 56.611 101.775, 55.777 92.739, 55.744 86.921 C 55.677 74.878, 57.124 70.993, 62.657 68.362 C 65.543 66.989, 66.413 67.038, 72.765 68.930 C 76.588 70.069, 80.835 71, 82.203 71 C 85.125 71, 87.572 73.410, 88.524 77.225 C 89.235 80.074, 86.935 83.012, 80.640 87.297 C 77.860 89.189, 77.311 91.844, 79.035 95.066 C 80.190 97.224, 81.901 97.451, 86.429 96.048 C 88.118 95.525, 91.610 94.574, 94.190 93.935 C 97.984 92.996, 99.177 92.146, 100.440 89.486 C 101.298 87.677, 102 85.060, 102 83.670 C 102 80.815, 103.829 78.657, 108.138 76.429 C 111.609 74.634, 113 71.509, 113 65.507 C 113 61.953, 113.503 60.750, 115.716 59.008 C 118.183 57.068, 118.542 57.020, 119.617 58.490 C 120.359 59.506, 120.614 62.232, 120.300 65.805 C 120.025 68.937, 120.277 75.699, 120.859 80.830 C 121.972 90.648, 121.369 93.431, 117.887 94.536 C 116.996 94.819, 114.893 97.261, 113.213 99.965 C 110.737 103.948, 109.476 105.008, 106.565 105.554 C 104.589 105.925, 101.741 105.872, 100.236 105.438 C 98.731 105.003, 94.271 104.653, 90.325 104.660 C 82.182 104.673, 77.990 106.585, 78.015 110.273 C 78.036 113.348, 78.810 114.180, 84.155 116.872 C 88.932 119.278, 89.277 119.289, 101.817 117.420 C 105.489 116.873, 106.509 117.130, 108.644 119.135 C 111.193 121.530, 111.227 121.973, 109.424 129.356 C 109.040 130.927, 109.149 132.502, 109.665 132.856 C 110.182 133.210, 111.411 135.233, 112.397 137.352 C 113.872 140.520, 114.068 142.587, 113.499 149.011 C 112.666 158.416, 113.230 160.567, 116.786 161.556 C 121.973 162.999, 122.840 162.951, 125.141 161.087 C 127.033 159.555, 127.399 158.421, 127.148 154.857 C 126.277 142.502, 126.499 139.209, 128.339 137.177 C 130.174 135.150, 130.188 135.154, 136.798 139.443 C 142.196 142.945, 143.992 144.825, 146.522 149.619 C 149.998 156.209, 152.560 157.964, 158.731 157.985 C 162.495 157.998, 163.036 157.703, 163.637 155.310 C 164.108 153.434, 163.678 151.543, 162.217 149.060 C 161.064 147.102, 159.395 143.874, 158.506 141.886 C 157.618 139.898, 155.781 137.765, 154.423 137.147 C 152.189 136.129, 150.079 131.186, 151.130 129.429 C 151.333 129.089, 149.953 128.010, 148.061 127.032 C 144.601 125.242, 137.821 125.148, 135.586 126.858 C 133.015 128.826, 131.042 128.769, 128.582 126.655 C 122.672 121.577, 126.132 119.790, 141 120.242 C 152.810 120.601, 156.642 119.635, 159.044 115.696 C 161.945 110.939, 161.610 107.367, 158.094 105.549 C 154.101 103.484, 150.061 103.416, 146.500 105.355 C 141.427 108.116, 131.175 106.990, 128.537 103.381 C 127.020 101.307, 127.637 94.359, 129.615 91.250 C 130.598 89.704, 132.021 89, 134.163 89 C 137.432 89, 138.941 90.350, 141.549 95.605 C 142.397 97.313, 144.180 99.293, 145.511 100.006 C 148.685 101.705, 150.324 100.365, 152.647 94.171 C 154.366 89.588, 155.423 88.310, 160.481 84.703 C 163.182 82.777, 163.715 79.459, 161.718 77 C 161.048 76.175, 158.764 74.203, 156.642 72.617 L 152.784 69.733 153.182 63.487 C 153.491 58.622, 154.179 56.454, 156.290 53.687 C 157.780 51.732, 159 49.733, 159 49.243 C 159 48.753, 157.465 46.193, 155.588 43.553 C 153.712 40.914, 151.896 37.260, 151.554 35.434 C 151.140 33.227, 150.187 31.860, 148.715 31.360 C 143.987 29.754, 141 32.205, 141 37.691 C 141 39.619, 140.200 41.800, 139.082 42.918 C 136.380 45.620, 127.113 46.613, 119 45.070 C 115.425 44.390, 110.417 43.509, 107.872 43.112 C 101.392 42.101, 98.285 39.771, 96.987 34.951 C 95.791 30.509, 94.292 29.459, 90.508 30.409 C 88.102 31.012, 86.798 33.143, 79.163 48.942 C 72.939 61.821, 71.287 64.486, 69.695 64.209 C 68.775 64.049, 67.118 64.402, 66.011 64.994 C 64.651 65.722, 64 65.735, 64 65.035 C 64 64.466, 63.170 64, 62.155 64 C 56.652 64, 55.339 55.962, 59.978 50.677 C 63.638 46.509, 69 36.498, 69 33.833 C 69 30.025, 67.105 28, 63.543 28 C 60.802 28, 59.470 28.801, 56.563 32.197 M 90.750 52.392 C 88.676 53.966, 88.442 58.292, 90.345 59.872 C 91.085 60.486, 93.129 61.276, 94.887 61.627 C 98.599 62.370, 100.916 60.192, 100.968 55.911 C 101.019 51.786, 94.504 49.542, 90.750 52.392 M 135.186 60.214 C 133.264 62.136, 133.703 70.421, 135.829 72.345 C 138.096 74.397, 139 74.441, 139 72.500 C 139 71.675, 139.397 71, 139.883 71 C 140.626 71, 140.710 65.577, 139.991 64 C 139.866 63.725, 139.799 63.216, 139.842 62.869 C 139.885 62.522, 139.122 61.516, 138.147 60.633 C 136.778 59.394, 136.101 59.299, 135.186 60.214 M 88.152 127.067 C 86.892 128.420, 86 130.685, 86 132.534 C 86 134.420, 85.195 136.418, 84 137.500 C 82.900 138.495, 82 139.878, 82 140.572 C 82 141.266, 81.662 141.983, 81.250 142.167 C 80.838 142.350, 79.764 143.850, 78.865 145.500 C 77.047 148.837, 77.818 152.609, 80.532 153.651 C 82.410 154.371, 89.399 150.944, 94.314 146.893 C 97.810 144.011, 106 132.905, 106 131.046 C 106 130.510, 104.987 129.537, 103.750 128.885 C 102.513 128.234, 101.241 127.306, 100.925 126.824 C 100.608 126.342, 98.089 125.679, 95.327 125.352 C 90.940 124.833, 90.031 125.050, 88.152 127.067" stroke="none" fill="black" fill-rule="evenodd"/>
</svg>