<svg xmlns="http://www.w3.org/2000/svg" width="256" height="256" viewBox="0 0 256 256" version="1.1">
	<path d="M 76.090 30.971 C 74.765 31.288, 72.749 32.795, 71.611 34.320 C 69.701 36.878, 69.658 37.301, 71.055 39.796 C 72.476 42.332, 73.060 42.518, 80.487 42.796 C 84.842 42.958, 88.942 43.537, 89.598 44.081 C 91.340 45.527, 92.357 52.043, 91.044 53.356 C 90.354 54.046, 84.514 54.463, 75.225 54.485 C 58.151 54.525, 51.003 56.315, 47.959 61.313 C 45.142 65.937, 43.820 83.773, 43.733 118.322 C 43.647 152.586, 43.879 154.430, 48.436 155.573 C 52.173 156.511, 54.323 154.641, 56.749 148.340 C 58.544 143.677, 58.818 141.745, 58.105 138.753 C 57.614 136.692, 57.277 130.842, 57.356 125.753 C 57.491 117.106, 57.631 116.520, 59.500 116.800 C 67.305 117.972, 69.885 117.370, 74.001 113.417 C 76.244 111.263, 79.587 107.250, 81.430 104.500 C 83.273 101.750, 85.730 98.643, 86.890 97.595 C 88.051 96.547, 89 95.291, 89 94.803 C 89 94.315, 89.449 93.372, 89.997 92.708 C 98.222 82.741, 100.580 82.444, 104.373 90.897 C 105.829 94.140, 107.656 97.038, 108.434 97.336 C 109.211 97.635, 111.756 99.144, 114.088 100.689 C 122.656 106.370, 125.629 108.120, 131.606 111.003 C 139.626 114.872, 140.619 116.092, 138.973 120.065 C 138.274 121.752, 137.610 125.465, 137.497 128.316 C 137.154 136.955, 137.141 136.998, 134.750 137.032 C 131.108 137.083, 128.962 139.402, 128.809 143.449 C 128.701 146.333, 129.301 147.725, 131.555 149.820 C 137.020 154.899, 142.592 156.392, 146.096 153.718 C 150.168 150.611, 151.017 146.579, 151.769 126.763 C 152.940 95.917, 152.710 70.307, 151.250 68.849 C 150.563 68.162, 150 65.450, 150 62.823 C 150 55.357, 148.381 54.714, 126.547 53.502 C 116.621 52.951, 107.968 52.155, 107.318 51.733 C 106.668 51.311, 105.608 48.386, 104.963 45.233 C 103.167 36.454, 102.052 34.195, 98.403 31.940 C 95.587 30.200, 93.698 29.905, 86.771 30.128 C 82.222 30.275, 77.416 30.654, 76.090 30.971 M 115.318 67.509 C 111.749 69.009, 110.930 70.839, 111.163 76.791 C 111.306 80.449, 111.624 81, 113.593 81 C 116.404 81, 119 83.482, 119 86.170 C 119 87.854, 124.211 94, 125.639 94 C 125.874 94, 127.642 95.575, 129.567 97.500 C 131.492 99.425, 133.952 101, 135.033 101 C 136.725 101, 137.093 100.336, 136.980 97.490 C 136.969 97.209, 137.644 95.656, 138.480 94.039 C 140.081 90.942, 140.444 82.344, 139.356 73.283 C 138.785 68.530, 138.452 67.981, 135.615 67.109 C 131.127 65.731, 118.976 65.970, 115.318 67.509 M 68.500 68.634 C 67.400 68.912, 64.538 69.863, 62.141 70.747 L 57.782 72.355 58.294 77.928 C 58.609 81.353, 58.209 85.816, 57.258 89.510 C 55.486 96.388, 56.214 106.761, 58.531 107.650 C 60.903 108.560, 66.678 103.152, 71.035 95.942 C 73.342 92.124, 75.526 89, 75.887 89 C 76.249 89, 77.409 87.397, 78.464 85.437 C 79.755 83.041, 81.303 81.689, 83.192 81.312 C 85.655 80.819, 85.997 80.305, 85.978 77.125 C 85.966 75.131, 85.116 72.407, 84.089 71.072 C 82.543 69.060, 81.217 68.600, 76.361 68.386 C 73.138 68.245, 69.600 68.356, 68.500 68.634" stroke="none" fill="black" fill-rule="evenodd"/>
</svg>