<svg xmlns="http://www.w3.org/2000/svg" width="256" height="256" viewBox="0 0 256 256" version="1.1">
	<path d="M 118 30.689 C 114.469 32.036, 113 34.363, 113 38.610 C 113 42.754, 113.130 42.934, 116.596 43.584 C 118.573 43.955, 123.091 44.026, 126.636 43.741 C 131.506 43.350, 133.440 43.583, 134.551 44.693 C 135.843 45.986, 135.767 46.518, 133.916 49.118 C 132.759 50.743, 130.207 52.844, 128.246 53.786 C 120.981 57.278, 121.315 60.280, 129.579 65.755 C 134.542 69.043, 136.933 73.271, 134.662 74.745 C 134.023 75.160, 130.090 75.500, 125.923 75.500 C 114.195 75.500, 109.149 79.012, 111.621 85.455 C 112.652 88.141, 117.719 90.112, 122.978 89.872 C 130.617 89.523, 130.948 90.157, 130.526 104.326 C 130.149 117.019, 129.591 120, 127.593 120 C 125.044 120, 124 117.409, 123.986 111.050 C 123.968 102.283, 123.269 100.106, 120.226 99.342 C 116.745 98.468, 115.045 99.790, 111.208 106.357 C 108.088 111.697, 105.087 113.567, 103.572 111.116 C 103.271 110.630, 100.995 109.278, 98.514 108.112 C 96.033 106.945, 94.074 105.656, 94.160 105.246 C 94.247 104.836, 93.986 103.748, 93.582 102.828 C 92.491 100.351, 94.495 97.412, 99.001 94.879 C 102.175 93.095, 103 92.056, 103 89.839 C 103 85.883, 99.851 84.202, 89.395 82.577 C 84.503 81.816, 81.175 81.134, 82 81.061 C 82.981 80.975, 82.673 80.471, 81.110 79.604 C 79.796 78.876, 78.157 77.227, 77.468 75.940 C 75.501 72.266, 79.504 70.684, 88.756 71.481 C 94.682 71.991, 96.561 71.782, 99.006 70.337 C 102.233 68.431, 102.518 67.493, 101.048 63.626 C 99.651 59.953, 96.509 58.736, 88.827 58.894 C 81.356 59.048, 77 57.225, 77 53.944 C 77 51.003, 78.899 50.500, 90 50.500 C 98.927 50.500, 100.907 50.200, 103.219 48.500 C 107.130 45.622, 106.694 43.514, 101.684 41.089 C 98.422 39.510, 95.432 38.999, 89.434 38.996 C 80.923 38.992, 76.240 37.186, 74.029 33.054 C 73.297 31.686, 71.932 31, 69.943 31 C 66.447 31, 65.927 31.975, 63.431 43.214 C 61.772 50.685, 61.953 59.632, 63.791 60.946 C 64.217 61.251, 66.039 63.830, 67.841 66.678 C 70.862 71.454, 71.034 72.161, 70.056 75.792 C 69.473 77.958, 69.260 81.051, 69.583 82.667 C 70.051 85.007, 69.575 86.244, 67.242 88.741 C 65.595 90.504, 63.573 94.421, 62.624 97.689 C 61.695 100.885, 60.499 104.882, 59.967 106.571 C 58.010 112.786, 58.691 115.718, 62.732 118.464 C 65.230 120.161, 67.823 121, 70.572 121 C 73.872 121, 74.873 121.442, 75.665 123.250 C 76.943 126.169, 75.756 131.560, 73.104 134.877 C 71.157 137.313, 65.131 149.073, 63.617 153.391 C 63.236 154.478, 63.628 156.309, 64.539 157.700 C 65.760 159.563, 66.846 160.047, 69.277 159.809 C 71.956 159.546, 73.272 158.296, 78.024 151.500 C 84.270 142.567, 83.367 142.900, 96.180 144.799 C 99.854 145.343, 103.892 146.511, 105.153 147.394 C 108.355 149.637, 110.095 149.430, 116.844 146 C 123.584 142.575, 128.567 142.080, 129.432 144.750 C 129.744 145.713, 131.912 147.586, 134.249 148.912 C 141.157 152.832, 152.279 158.188, 155.415 159.104 C 161.621 160.916, 165 157.745, 165 150.108 C 165 144.304, 162.592 142.732, 152 141.622 C 149.525 141.362, 146.825 140.872, 146 140.532 C 142.978 139.289, 140.640 134.718, 140.569 129.917 C 140.477 123.651, 144.944 117.672, 150.092 117.169 C 153.618 116.824, 154.959 115.645, 154.985 112.867 C 155.001 111.074, 150.323 109.669, 149.386 111.185 C 148.796 112.139, 144.078 107.249, 143.902 105.500 C 143.847 104.950, 143.644 103.150, 143.450 101.500 C 142.559 93.881, 142.811 90.046, 144.303 88.554 C 147.847 85.010, 153.452 88.038, 153.300 93.415 C 153.227 95.967, 153.679 96.944, 155.102 97.316 C 159.027 98.343, 160.559 97.035, 161.693 91.687 C 162.298 88.834, 163.261 84.729, 163.833 82.565 C 164.476 80.132, 164.523 77.978, 163.957 76.920 C 162.851 74.854, 157.888 73, 153.462 73 C 147.923 73, 145.671 70.234, 145.223 62.884 C 144.853 56.810, 144.996 56.321, 148.167 52.822 C 155.717 44.492, 159 39.665, 159 36.897 C 159 32.246, 156.335 31.504, 139.500 31.466 C 131.250 31.447, 123.375 31.136, 122 30.774 C 120.625 30.412, 118.825 30.374, 118 30.689 M 31.655 37.829 C 30.745 38.835, 30 40.228, 30 40.924 C 30 43.686, 33.740 48.279, 38.250 51.056 C 40.862 52.665, 43 54.459, 43 55.042 C 43 55.625, 44.669 56.799, 46.709 57.652 C 50.273 59.141, 50.489 59.114, 52.232 56.961 C 54.558 54.089, 53.896 52.035, 48.294 44.742 C 41.893 36.410, 35.386 33.706, 31.655 37.829 M 72.166 95.750 C 68.302 105.617, 73.557 113.901, 80.066 108.205 C 83.212 105.452, 83.194 99.761, 80.031 96.814 C 78.914 95.773, 78 94.490, 78 93.961 C 78 93.432, 76.930 93, 75.621 93 C 73.954 93, 72.921 93.823, 72.166 95.750 M 46.189 112.039 C 44.985 113.160, 43.943 114.848, 43.872 115.789 C 43.478 121.074, 43.068 122.410, 41.095 124.834 C 39.902 126.300, 38.155 128.790, 37.213 130.366 C 36.271 131.942, 34.092 134.957, 32.371 137.066 C 28.962 141.242, 27.514 146.512, 28.518 151.084 C 29.129 153.864, 30.346 154.520, 34 154.040 C 35.756 153.809, 42.802 147.203, 47.332 141.541 C 50.290 137.843, 50.505 137.039, 50.568 129.393 C 50.621 123.031, 51.067 120.568, 52.568 118.352 C 53.631 116.784, 54.782 114.825, 55.126 114 C 56.787 110.025, 49.959 108.526, 46.189 112.039 M 103 121.649 C 94.690 122.900, 89.708 126.101, 91.517 129.028 C 92.516 130.644, 97.471 132.873, 102.641 134.032 C 107.103 135.031, 107.626 134.946, 109.243 132.948 C 111.204 130.527, 111.539 125.876, 109.965 122.934 C 108.952 121.042, 108.088 120.883, 103 121.649 M 125.750 121.662 C 126.438 121.940, 127.563 121.940, 128.250 121.662 C 128.938 121.385, 128.375 121.158, 127 121.158 C 125.625 121.158, 125.063 121.385, 125.750 121.662" stroke="none" fill="black" fill-rule="evenodd"/>
</svg>