<svg xmlns="http://www.w3.org/2000/svg" width="256" height="256" viewBox="0 0 256 256" version="1.1">
	<path d="M 112.405 27.936 C 111.253 28.423, 108.795 30.774, 106.944 33.160 C 105.093 35.547, 101.583 39.750, 99.144 42.500 C 96.706 45.250, 92.291 51.163, 89.335 55.641 C 84.771 62.554, 83.121 64.206, 78.400 66.595 C 73.142 69.255, 70 72.891, 70 76.315 C 70 77.094, 70.933 78.916, 72.073 80.365 C 74.722 83.733, 78.392 83.777, 83.215 80.500 C 87.731 77.431, 90.652 77.364, 97.199 80.181 C 101.937 82.219, 102.803 82.285, 110.436 81.181 C 114.928 80.531, 121.638 80, 125.347 80 C 131.202 80, 132.419 79.671, 134.584 77.507 C 137.308 74.783, 136.995 73.115, 133.096 69.587 C 130.444 67.187, 121.263 66.238, 110.500 67.253 C 97.460 68.483, 97.295 67.873, 107.078 54.602 C 113.661 45.672, 114.399 45, 117.625 45 C 120.371 45, 121.983 45.886, 125.356 49.250 C 129.474 53.356, 137 64.691, 137 66.786 C 137 67.835, 148.618 76.754, 152.855 78.958 C 156.051 80.620, 161.689 79.449, 163.090 76.832 C 164.801 73.635, 162.829 70.965, 151.295 60.868 C 145.625 55.903, 139.127 49.638, 136.856 46.945 C 134.586 44.252, 131.953 41.802, 131.006 41.502 C 130.058 41.201, 128.491 39.198, 127.523 37.051 C 124.182 29.642, 117.666 25.714, 112.405 27.936 M 39.028 35.113 C 33.369 37.372, 33.716 40.618, 40.331 47.286 C 46.002 53.002, 56.303 59.549, 57.988 58.507 C 59.480 57.585, 59.225 50.234, 57.668 49.300 C 56.936 48.860, 55.058 46.126, 53.496 43.225 C 50.785 38.192, 45.845 33.927, 42.882 34.063 C 42.122 34.098, 40.388 34.571, 39.028 35.113 M 93.500 89.008 C 89.193 89.938, 86 92.194, 86 94.306 C 86 96.912, 87.655 99.654, 89.702 100.439 C 93.788 102.007, 111.496 103.810, 117.854 103.305 C 125.445 102.703, 130.312 103.868, 136.057 107.661 C 139.497 109.933, 139.763 109.959, 144.169 108.458 C 149.258 106.724, 153 103.719, 153 101.365 C 153 98.559, 149.804 94.320, 145.664 91.636 C 141.641 89.027, 141.394 88.998, 121.550 88.843 C 110.522 88.757, 100.375 88.613, 99 88.524 C 97.625 88.434, 95.150 88.652, 93.500 89.008 M 57.875 107.500 C 57.806 107.775, 57.638 108.450, 57.500 109 C 57.362 109.550, 57.194 110.600, 57.125 111.333 C 57.056 112.067, 55.498 114.204, 53.662 116.083 C 42.734 127.269, 35.877 144.734, 40.571 149.429 C 47.546 156.403, 60 138.100, 60 120.876 C 60 117.090, 60.492 114.837, 61.500 114 C 62.325 113.315, 63 112.167, 63 111.449 C 63 109.166, 58.353 105.586, 57.875 107.500 M 127.924 116.629 C 125.253 119.525, 120.212 122, 116.984 122 C 115.840 122, 113.041 121.100, 110.764 120 C 106.015 117.706, 104.097 117.543, 100.595 119.139 C 98.383 120.147, 94.973 125.348, 95.016 127.651 C 95.024 128.118, 97.345 129.625, 100.172 131 C 107.491 134.559, 109.749 136.574, 110.550 140.262 C 110.936 142.043, 112.433 145.077, 113.876 147.004 C 115.319 148.931, 116.997 151.406, 117.604 152.504 C 120.081 156.985, 128.458 157.009, 129.580 152.538 C 129.916 151.200, 129.628 148.402, 128.940 146.319 C 128.253 144.236, 127.752 140.725, 127.828 138.516 C 127.939 135.263, 128.667 133.850, 131.655 131.078 C 136.404 126.675, 140.232 119.302, 138.982 116.967 C 138.481 116.030, 138.355 114.979, 138.702 114.631 C 139.049 114.284, 137.312 114, 134.841 114 C 131.272 114, 129.850 114.540, 127.924 116.629" stroke="none" fill="black" fill-rule="evenodd"/>
</svg>