<svg xmlns="http://www.w3.org/2000/svg" width="256" height="256" viewBox="0 0 256 256" version="1.1">
	<path d="M 89.529 31.156 C 87.244 32.953, 86.878 33.862, 87.327 36.626 C 87.623 38.450, 89.020 41.188, 90.432 42.710 C 91.845 44.233, 93 45.798, 93 46.188 C 93 46.578, 94.125 48.111, 95.500 49.595 C 96.875 51.078, 98 52.884, 98 53.607 C 98 55.779, 88.292 57.997, 78.568 58.046 C 73.581 58.071, 63.532 58.662, 56.238 59.359 C 41.299 60.788, 37.737 62.345, 37.199 67.684 C 36.686 72.768, 38.359 73.278, 53.224 72.572 C 60.526 72.225, 68.188 71.962, 70.250 71.987 C 75.351 72.050, 95.452 71.954, 109.750 71.798 C 116.213 71.727, 125.649 72.231, 130.720 72.917 C 141.267 74.345, 151.975 73.237, 155.118 70.393 C 157.659 68.094, 157.487 64.678, 154.666 61.398 C 152.352 58.707, 152.232 58.686, 139.916 58.780 C 126.548 58.883, 108.728 56.849, 106.453 54.961 C 105.286 53.993, 105.269 53.357, 106.350 51.149 C 108.025 47.727, 107.542 45.742, 103.342 38.780 C 99.887 33.052, 95.809 29, 93.500 29 C 92.823 29, 91.037 29.970, 89.529 31.156 M 109.686 89.017 C 105.703 90.212, 104.080 91.817, 104.523 94.121 C 105.195 97.606, 109.021 102.884, 113.595 106.632 C 116.042 108.637, 118.277 111.437, 118.583 112.882 C 119.822 118.724, 123.615 125.242, 129.369 131.420 C 138.489 141.209, 141.857 144.270, 144.978 145.603 C 149.137 147.379, 152.926 147.095, 154.296 144.905 C 155.649 142.743, 154.400 138.266, 152.248 137.560 C 151.286 137.244, 149.375 134.627, 148 131.743 C 146.607 128.821, 143.302 124.508, 140.534 122 C 137.803 119.525, 134.428 116.210, 133.034 114.634 C 131.640 113.058, 129.037 110.183, 127.250 108.244 C 125.463 106.306, 123.941 103.996, 123.870 103.110 C 123.798 102.225, 123.671 100.303, 123.587 98.840 C 123.350 94.712, 121.136 91.435, 117.372 89.640 C 113.560 87.822, 113.642 87.829, 109.686 89.017 M 65.054 93.752 C 62.158 95.221, 61.432 96.297, 60.500 100.500 C 59.142 106.621, 52.430 118.285, 47.584 122.946 C 45.613 124.842, 44 126.877, 44 127.469 C 44 128.061, 42.404 130.968, 40.454 133.930 C 35.972 140.735, 34.315 146.616, 35.606 151.137 C 37.581 158.052, 43.652 154.922, 51.924 142.725 C 54.342 139.159, 57.570 135.504, 59.099 134.601 C 61.919 132.935, 62.522 131.817, 63.427 126.572 C 64.916 117.944, 66.243 113, 67.071 113 C 67.582 113, 68 111.945, 68 110.655 C 68 109.365, 68.937 107.462, 70.083 106.425 C 72.350 104.373, 75 98.776, 75 96.038 C 75 95.094, 73.854 93.799, 72.453 93.161 C 69.191 91.674, 69.140 91.678, 65.054 93.752" stroke="none" fill="black" fill-rule="evenodd"/>
</svg>