<svg xmlns="http://www.w3.org/2000/svg" width="256" height="256" viewBox="0 0 256 256" version="1.1">
	<path d="M 69.021 33.256 C 64.054 35.032, 62.763 39.055, 66.041 42.544 C 68.436 45.093, 68.557 45.110, 79.479 44.468 C 93.044 43.671, 94.104 44.208, 94.768 52.212 C 95.396 59.784, 93.127 64.566, 88.493 65.435 C 84.479 66.188, 81.426 70.483, 80.417 76.796 C 80.047 79.108, 79.406 81, 78.991 81 C 78.577 81, 76.972 83.503, 75.425 86.561 C 73.877 89.620, 72.238 92.353, 71.782 92.635 C 71.326 92.916, 69.638 96.048, 68.030 99.594 C 66.422 103.140, 64.279 107.270, 63.266 108.771 C 62.254 110.272, 60.154 115.431, 58.599 120.235 C 56.153 127.792, 55.016 129.746, 50.166 134.735 C 39.615 145.587, 36.435 152.557, 40.935 154.965 C 43.553 156.366, 47.145 154.888, 50.119 151.185 C 51.429 149.555, 54.370 147.284, 56.655 146.138 C 62.288 143.316, 64.602 140.061, 65.433 133.792 C 65.867 130.525, 67.098 127.249, 68.665 125.195 C 70.057 123.369, 72.791 118.641, 74.739 114.688 C 76.688 110.735, 79.074 106.600, 80.043 105.500 C 81.011 104.400, 83.282 100.658, 85.089 97.185 C 86.895 93.712, 89.645 89.965, 91.199 88.859 C 92.752 87.752, 93.767 86.431, 93.453 85.924 C 93.139 85.416, 93.359 85, 93.941 85 C 94.523 85, 95 83.884, 95 82.519 C 95 80.683, 95.674 79.869, 97.591 79.388 C 100.962 78.542, 104.178 81.635, 104.352 85.890 C 104.422 87.601, 104.765 89, 105.114 89 C 105.464 89, 106.036 90.463, 106.386 92.250 C 107.099 95.894, 110.791 103.689, 112.849 105.895 C 113.591 106.690, 116.339 111.914, 118.956 117.504 C 123.798 127.847, 133.370 140.991, 138.957 144.969 C 144.526 148.935, 153 148.902, 153 144.915 C 153 141.977, 151.314 139.224, 146.565 134.407 C 144.271 132.080, 141.068 128.236, 139.447 125.864 C 136.452 121.481, 128.117 113.048, 126.750 113.017 C 126.338 113.008, 126 111.750, 126 110.222 C 126 108.695, 124.650 104.843, 123 101.663 C 121.350 98.482, 120 94.979, 120 93.878 C 120 90.525, 116.800 81.860, 115.357 81.307 C 114.430 80.951, 114 78.944, 114 74.970 C 114 70.242, 113.537 68.604, 111.528 66.216 C 109.292 63.558, 109.023 62.239, 108.706 52.389 C 108.507 46.200, 107.811 40.488, 107.092 39.156 C 104.687 34.693, 97.790 32.597, 84.500 32.290 C 76.778 32.111, 71.260 32.456, 69.021 33.256" stroke="none" fill="black" fill-rule="evenodd"/>
</svg>