<svg xmlns="http://www.w3.org/2000/svg" width="256" height="256" viewBox="0 0 256 256" version="1.1">
	<path d="M 58.977 28.750 C 56.774 31.545, 56.773 31.596, 58.544 41.500 C 59.198 45.158, 55.905 51, 53.189 51 C 50.741 51, 47.315 47.231, 45.879 42.957 C 42.601 33.203, 36.831 33.909, 35.528 44.224 C 35.162 47.126, 34.418 50.932, 33.876 52.682 C 33.084 55.237, 33.278 56.616, 34.862 59.682 C 35.946 61.782, 37.771 64.066, 38.917 64.758 C 42.423 66.877, 41.287 68.578, 34.419 71.497 C 27.195 74.567, 25.021 77.460, 27.253 81.033 C 27.928 82.115, 28.710 83.010, 28.991 83.023 C 29.271 83.035, 35.240 83.187, 42.255 83.361 C 49.270 83.534, 55.303 83.970, 55.663 84.329 C 56.022 84.689, 56.840 84.548, 57.481 84.016 C 59.444 82.386, 67.299 82.179, 70.274 83.679 C 71.800 84.447, 73.600 85.006, 74.274 84.920 C 74.948 84.834, 77.162 84.816, 79.193 84.882 C 82.318 84.982, 82.826 85.307, 82.500 87 C 82.288 88.100, 82.651 89.014, 83.307 89.030 C 83.963 89.047, 83.675 89.540, 82.667 90.126 C 80.071 91.636, 62.889 90.511, 59.170 88.588 C 56.558 87.237, 56.054 87.230, 54.978 88.526 C 54.305 89.337, 52.715 90, 51.443 90 C 48.151 90, 43.937 91.766, 42.057 93.934 C 40.181 96.098, 39.305 108.830, 40.835 111.695 C 41.366 112.688, 42.058 115.126, 42.373 117.114 C 42.688 119.101, 43.458 122.026, 44.084 123.614 C 45.485 127.169, 45.350 136.303, 43.826 140.981 C 43.203 142.895, 41.432 145.722, 39.890 147.263 C 35.306 151.848, 36.261 152.684, 49.332 155.523 C 55.370 156.835, 57.461 156.835, 67.332 155.525 C 73.474 154.710, 80.075 153.566, 82 152.985 C 83.985 152.385, 88.963 152.171, 93.500 152.490 C 99.450 152.909, 101.941 152.704, 103.222 151.687 C 105.390 149.967, 109.977 140.223, 109.990 137.312 C 109.996 136.109, 110.645 132.284, 111.432 128.812 C 112.965 122.056, 113.692 112.232, 114.599 86 C 115.741 52.956, 115.642 53.903, 118.227 51.319 C 121.322 48.223, 126.194 48.985, 128.026 52.852 C 128.716 54.308, 129.986 56.946, 130.848 58.713 C 132.174 61.432, 132.234 62.818, 131.240 67.713 C 130.407 71.818, 130.336 76.311, 130.999 83.168 C 131.739 90.824, 131.626 94.014, 130.459 98.494 C 129.281 103.021, 129.201 105.486, 130.061 110.826 C 130.652 114.497, 130.854 119.403, 130.510 121.728 C 130.121 124.356, 130.496 128.329, 131.502 132.228 C 132.392 135.678, 133.536 140.105, 134.045 142.066 C 135.468 147.553, 140.660 152.612, 146.193 153.904 C 148.774 154.507, 152.408 155, 154.269 155 C 162.918 155, 168.043 139.918, 162.961 129.420 C 161.264 125.914, 160.551 125.304, 158.711 125.785 C 155.634 126.588, 154.002 128.450, 153.986 131.179 C 153.962 135.275, 152.866 137.802, 150.888 138.319 C 148.521 138.938, 146 134.622, 146 129.954 C 146 128.223, 145.271 124.299, 144.379 121.233 C 143.148 116.997, 142.909 113.479, 143.383 106.579 C 143.727 101.586, 144.400 86.860, 144.880 73.855 C 145.360 60.850, 145.999 49.810, 146.301 49.322 C 147.450 47.463, 144.814 38.925, 142.662 37.530 C 139.695 35.609, 110.287 34.241, 107.221 35.882 C 103.683 37.775, 102.291 44.870, 101.998 62.500 C 101.638 84.172, 101.635 84.860, 101.848 90 C 102.210 98.698, 101.129 117.538, 100.070 120.993 C 99.482 122.915, 99 126.004, 99 127.859 C 99 130.469, 98.165 131.995, 95.305 134.615 C 93.272 136.477, 90.783 138, 89.772 138 C 86.182 138, 85.765 132.044, 88.940 126.111 C 89.578 124.919, 90.333 121.419, 90.619 118.332 C 90.904 115.246, 91.748 111.771, 92.494 110.610 C 94.636 107.281, 95.225 101.890, 93.981 97 C 92.008 89.242, 91.738 87, 92.778 87 C 93.331 87, 94.499 85.210, 95.375 83.021 C 97.275 78.272, 96.605 75.940, 91.942 71.082 L 88.661 67.664 91.449 62.510 C 93.747 58.262, 94.092 56.754, 93.412 53.928 C 92.959 52.043, 92.665 49.600, 92.759 48.500 C 93.404 40.976, 93.227 39.870, 90.988 37.487 C 89.703 36.119, 88.141 35, 87.517 35 C 85.163 35, 82.898 37.655, 82.488 40.896 C 81.518 48.560, 76.438 51.892, 72.193 47.648 C 69.961 45.415, 69.620 44.201, 69.557 38.237 C 69.439 27.012, 64.112 22.236, 58.977 28.750 M 48.571 64.571 C 47.707 65.436, 47 66.529, 47 67.002 C 47 67.474, 45.987 68.056, 44.750 68.294 C 43.012 68.629, 43.194 68.759, 45.550 68.864 C 47.227 68.939, 49.110 69.510, 49.733 70.133 C 51.186 71.586, 53.574 70.665, 54.933 68.126 C 55.749 66.601, 55.631 65.774, 54.427 64.569 C 52.434 62.577, 50.565 62.577, 48.571 64.571 M 65.750 64.760 C 63.187 65.326, 63.616 67.868, 66.496 69.180 C 68.527 70.106, 69.333 70.009, 70.825 68.659 C 71.833 67.746, 73.950 67, 75.529 67 C 80.031 67, 77.158 65.160, 72 64.739 C 69.525 64.538, 66.713 64.547, 65.750 64.760 M 65 101.804 C 65 102.247, 63.161 102.717, 60.913 102.850 C 55.171 103.189, 52.827 104.798, 54.220 107.447 C 55.717 110.294, 56.978 110.967, 60.849 110.985 C 62.691 110.993, 65.811 111.765, 67.782 112.701 C 70.411 113.948, 71.473 114.082, 71.766 113.201 C 71.987 112.540, 72.804 112, 73.583 112 C 74.362 112, 75 111.550, 75 111 C 75 109.071, 75.178 108.491, 76.115 107.362 C 76.716 106.638, 76.626 105.274, 75.869 103.612 C 74.825 101.320, 74.086 101, 69.839 101 C 67.178 101, 65 101.362, 65 101.804 M 63.888 122.623 C 61.351 123.402, 58.450 124.950, 57.442 126.064 C 55.807 127.871, 55.741 128.597, 56.829 132.795 C 58.319 138.542, 61.910 142, 66.387 142 C 69.802 142, 69.842 141.953, 73.398 133.849 C 75.292 129.533, 75.487 123.887, 73.800 122.200 C 72.304 120.704, 69.793 120.812, 63.888 122.623" stroke="none" fill="black" fill-rule="evenodd"/>
</svg>