<svg xmlns="http://www.w3.org/2000/svg" width="256" height="256" viewBox="0 0 256 256" version="1.1">
	<path d="M 58.424 27.192 C 55.148 31.365, 45.059 55.983, 43.004 64.820 C 42.060 68.879, 40.480 71.604, 36.338 76.320 C 30.739 82.695, 26.815 89.387, 25.156 95.396 C 24.365 98.263, 24.531 99.192, 26.141 100.921 C 29.388 104.406, 32.079 103.520, 36.500 97.511 C 40.837 91.615, 43.272 90.151, 45.570 92.058 C 46.793 93.073, 46.982 96.282, 46.682 110.891 C 46.247 132.064, 48.721 156.930, 51.577 160.086 C 54.177 162.958, 58.258 162.558, 60.103 159.250 C 61.381 156.959, 61.604 152.415, 61.442 132 C 61.336 118.525, 60.779 105.475, 60.204 103 C 58.279 94.706, 57.819 78.951, 59.340 73.406 C 60.509 69.144, 60.519 67.918, 59.404 65.906 C 57.636 62.715, 57.669 59.036, 59.506 54.640 C 61.824 49.092, 68 48.272, 68 53.512 C 68 56.344, 69.965 61, 71.161 61 C 71.622 61, 72 61.850, 72 62.889 C 72 63.928, 72.828 65.801, 73.839 67.050 C 75.652 69.288, 75.707 69.294, 77.658 67.411 C 83.451 61.818, 83.539 61.782, 87.905 63.090 C 90.157 63.764, 92 64.441, 92 64.593 C 92 64.745, 91.523 66.126, 90.939 67.660 C 90.356 69.195, 89.631 72.262, 89.330 74.475 C 89.028 76.689, 88.326 79.063, 87.768 79.750 C 87.211 80.438, 87.090 81, 87.500 81 C 87.910 81, 87.648 81.719, 86.919 82.598 C 86.001 83.703, 84.599 84.034, 82.369 83.672 C 77.220 82.837, 75.442 83.841, 72.721 89.123 C 70.644 93.154, 70.333 94.674, 71.064 97.222 C 71.559 98.948, 72.534 100.745, 73.232 101.216 C 78.391 104.702, 80.863 105.282, 91.144 105.416 C 99.928 105.532, 102.211 105.881, 103.845 107.360 C 105.834 109.159, 105.834 109.166, 103.780 111.220 C 100.997 114.003, 94.633 114.563, 88.040 112.604 C 77.967 109.613, 76.209 113.347, 76.382 137.354 C 76.487 152.011, 76.706 154.015, 78.405 155.894 C 79.613 157.230, 81.524 158, 83.629 158 C 86.356 158, 87.246 157.425, 88.612 154.784 C 89.997 152.104, 90.166 149.779, 89.622 140.826 C 89.263 134.918, 88.717 129.425, 88.407 128.620 C 87.459 126.149, 91.749 122.722, 94.837 123.484 C 96.301 123.846, 97.885 124.517, 98.356 124.977 C 98.827 125.436, 99.747 132.210, 100.401 140.031 C 101.460 152.690, 101.832 154.445, 103.791 156.032 C 106.185 157.970, 109.206 157.662, 111.185 155.277 C 111.982 154.317, 112.572 149.368, 112.810 141.648 C 113.015 134.981, 113.588 128.769, 114.084 127.844 C 114.688 126.715, 114.575 125.996, 113.742 125.660 C 113.059 125.384, 113.989 125.122, 115.809 125.079 C 117.629 125.036, 118.864 125.412, 118.553 125.915 C 118.242 126.418, 118.486 126.995, 119.096 127.199 C 119.792 127.431, 120.380 132.183, 120.677 139.982 C 121.132 151.926, 121.251 152.484, 123.825 154.715 C 126.075 156.666, 127.532 157.015, 133 156.912 C 136.575 156.844, 142.087 157.117, 145.248 157.518 C 149.199 158.019, 151.445 157.875, 152.431 157.058 C 154.487 155.351, 158.127 138.860, 157.924 132.171 C 157.664 123.584, 156.132 117.463, 153.693 115.264 C 150.295 112.201, 140.644 110.595, 133.533 111.909 C 125.214 113.447, 122.166 113.276, 119.420 111.116 L 117.025 109.232 119.763 108.170 C 121.268 107.586, 129.925 106.810, 139 106.446 C 148.075 106.081, 156.282 105.369, 157.238 104.863 C 163.186 101.713, 157.573 89.355, 148.467 85.551 C 143.953 83.665, 141.057 78.793, 141.168 73.272 C 141.252 69.077, 139.063 65, 136.727 65 C 136.198 65, 133.965 66.800, 131.765 69 C 129.565 71.200, 128.058 73, 128.418 73 C 128.777 73, 128.589 73.900, 128 75 C 127.188 76.518, 127.240 77, 128.215 77 C 129.033 77, 129.500 78.363, 129.500 80.750 C 129.500 84.734, 131.242 87.017, 136.283 89.638 C 137.813 90.434, 138.823 91.478, 138.526 91.957 C 138.230 92.437, 138.553 93.068, 139.244 93.361 C 139.935 93.653, 136.225 93.836, 131 93.768 C 122.894 93.661, 121.243 93.353, 119.750 91.668 C 118.787 90.582, 118 90.239, 118 90.906 C 118 91.573, 117.586 91.862, 117.081 91.550 C 116.575 91.237, 115.386 91.757, 114.438 92.705 C 111.043 96.100, 97 94.188, 97 90.331 C 97 89.599, 97.378 89, 97.839 89 C 99.218 89, 100.773 84.665, 101.509 78.771 C 102.231 72.995, 101.049 69.775, 96.778 65.885 C 95.109 64.365, 95.280 64.165, 99.685 62.482 C 103.854 60.890, 104.646 60.854, 106.933 62.153 C 109.557 63.643, 109.862 65.182, 108.789 71.500 C 108.479 73.322, 108.989 75.915, 110.086 78.105 C 111.080 80.088, 112.041 82.788, 112.222 84.105 C 112.758 88.009, 113.907 89, 117.899 89 C 120.893 89, 121.901 88.513, 122.746 86.658 C 123.349 85.336, 123.449 83.726, 122.976 82.962 C 122.516 82.217, 122.542 80.855, 123.035 79.935 C 123.527 79.016, 123.645 77.979, 123.298 77.631 C 122.951 77.284, 123.218 77, 123.892 77 C 124.566 77, 124.896 76.641, 124.625 76.202 C 124.354 75.763, 124.527 74.766, 125.009 73.986 C 125.491 73.205, 125.522 72.102, 125.077 71.534 C 124.632 70.965, 124.046 69.265, 123.774 67.756 C 123.042 63.690, 125.018 62.609, 131.740 63.399 C 135.268 63.814, 139.310 63.593, 142.324 62.820 C 147.176 61.577, 147.214 61.586, 149.850 64.684 C 156.549 72.557, 160.270 70.149, 160.299 57.925 C 160.321 48.462, 157.281 46.828, 139.656 46.828 C 127.307 46.828, 123 46.107, 123 44.042 C 123 42.539, 129.096 41.191, 138.090 40.705 C 151.797 39.965, 155.952 36.544, 150.643 30.371 C 148.455 27.828, 147.645 27.606, 139.393 27.290 C 134.502 27.102, 124.966 27.454, 118.202 28.071 C 109.352 28.878, 103.603 28.894, 97.702 28.126 C 93.191 27.539, 86.575 26.835, 83 26.563 C 79.425 26.290, 72.866 25.769, 68.424 25.404 C 60.669 24.768, 60.272 24.839, 58.424 27.192 M 67.923 38.923 C 64.610 42.236, 64.180 44.613, 66.750 45.404 C 69.059 46.115, 78.800 46.899, 93.158 47.530 C 103.146 47.969, 105.053 47.804, 106.479 46.378 C 109.392 43.466, 106.333 41.805, 97.329 41.410 C 92.160 41.183, 87.087 40.200, 82.492 38.533 C 73.558 35.292, 71.499 35.348, 67.923 38.923 M 85 90.094 C 85 90.695, 85.900 91.423, 87 91.710 C 88.100 91.998, 89 92.717, 89 93.308 C 89 93.899, 89.635 93.514, 90.411 92.452 C 91.188 91.391, 91.611 90.180, 91.352 89.761 C 90.618 88.574, 85 88.868, 85 90.094 M 133.087 126.560 C 130.125 127.845, 129.881 128.203, 131.243 129.270 C 132.311 130.107, 132.940 132.681, 133.208 137.318 C 133.624 144.489, 134.562 145.956, 138.750 145.985 C 142.645 146.011, 144.946 142.683, 144.763 137.287 C 144.674 134.654, 144.909 131.600, 145.284 130.500 C 145.814 128.949, 145.279 128.107, 142.903 126.750 C 139.220 124.647, 137.568 124.615, 133.087 126.560" stroke="none" fill="black" fill-rule="evenodd"/>
</svg>