<svg xmlns="http://www.w3.org/2000/svg" width="256" height="256" viewBox="0 0 256 256" version="1.1">
	<path d="M 69.405 31.105 C 67.871 32.800, 67.496 34.767, 67.478 41.210 C 67.458 48.656, 67.268 49.373, 64.747 51.541 C 63.130 52.932, 60.114 54.121, 57.269 54.491 C 49.304 55.524, 47.921 55.988, 45.455 58.455 C 42.284 61.625, 41.300 65.728, 43.244 67.672 C 44.581 69.010, 45.567 68.945, 52.187 67.088 C 66.215 63.152, 69.019 64.683, 68.967 76.250 C 68.949 80.237, 68.531 86.633, 68.038 90.462 C 66.865 99.567, 65.832 100.354, 56 99.630 L 48.500 99.078 43.003 103.344 C 37.320 107.754, 36.395 109.453, 37.430 113.579 C 38.164 116.500, 41.318 116.746, 49.856 114.546 C 57.346 112.616, 75.556 111.511, 91 112.050 C 106.265 112.582, 124.022 112.315, 142.147 111.279 C 153.458 110.633, 156.154 110.174, 157.897 108.595 C 160.515 106.224, 160.585 102.943, 158.085 99.861 C 156.252 97.602, 155.615 97.500, 143.335 97.500 L 130.500 97.500 128.886 94.269 C 127.684 91.863, 127.312 88.497, 127.431 81.074 C 127.651 67.333, 128.304 66.639, 140.146 67.565 C 150.927 68.409, 153.609 67.827, 154.243 64.508 C 154.807 61.558, 152.002 58.086, 146.939 55.468 C 144.344 54.127, 142.112 53.868, 136.897 54.305 C 127.801 55.068, 126.923 54.052, 126.234 41.964 C 125.771 33.858, 125.461 32.693, 123.406 31.347 C 120.601 29.509, 117.432 30.332, 115.820 33.318 C 115.152 34.554, 114.739 38.644, 114.865 42.751 C 115.067 49.307, 114.849 50.242, 112.590 52.501 C 111.058 54.033, 108.815 55.063, 106.795 55.164 C 98.985 55.552, 82.405 54.699, 81.359 53.856 C 79.560 52.406, 78.785 44.511, 79.999 40.005 C 81.193 35.569, 80.729 32.872, 78.363 30.506 C 76.197 28.340, 71.631 28.645, 69.405 31.105 M 87.500 68.728 C 83.343 69.740, 83.140 70.223, 79.971 86.598 C 78.971 91.766, 79.028 93.153, 80.341 95.693 L 81.891 98.689 94.277 99.351 C 113.773 100.394, 116.286 98.572, 116.834 83 C 117.158 73.806, 117.083 73.419, 114.506 71 C 112.015 68.661, 111.122 68.492, 100.672 68.371 C 94.527 68.300, 88.600 68.461, 87.500 68.728 M 120.945 121.279 C 119.149 122.500, 117.527 124.528, 117.341 125.785 C 116.809 129.369, 119.366 134.277, 123.457 137.525 C 125.518 139.161, 129.746 143.004, 132.852 146.065 C 140.102 153.208, 144.385 156.262, 150.101 158.361 C 155.421 160.316, 157.610 159.819, 158.242 156.517 C 158.606 154.610, 156.539 151.939, 147.264 142.334 C 140.979 135.825, 134.503 128.588, 132.871 126.251 C 131.240 123.915, 128.624 121.340, 127.058 120.530 C 124.431 119.172, 123.957 119.230, 120.945 121.279 M 64.272 124.750 C 62.275 126.618, 61.107 128.910, 60.631 131.895 C 59.714 137.643, 57.111 141.145, 50.924 144.952 C 47.452 147.088, 45.393 149.210, 44.336 151.739 C 42.856 155.280, 42.885 155.488, 45.101 157.283 C 47.957 159.596, 52.331 158.967, 59.500 155.214 C 66.261 151.674, 67.779 150.284, 68.508 146.962 C 68.888 145.231, 71.241 142.328, 74.565 139.489 C 80.514 134.406, 81.363 131.537, 78.537 126.072 C 75.917 121.006, 68.963 120.362, 64.272 124.750" stroke="none" fill="black" fill-rule="evenodd"/>
</svg>