<svg xmlns="http://www.w3.org/2000/svg" width="256" height="256" viewBox="0 0 256 256" version="1.1">
	<path d="M 64.712 29.012 C 63.305 30.119, 61.879 32.275, 61.543 33.803 C 61.208 35.331, 60.078 37.987, 59.033 39.706 C 57.473 42.270, 56.122 43.040, 51.500 44 C 46.859 44.963, 45.528 45.726, 43.938 48.335 C 39.170 56.153, 44.757 61.382, 51.594 55.501 C 55.579 52.074, 57.982 52.358, 62.169 56.750 L 65.743 60.500 65.477 74 C 65.330 81.425, 65.183 91.792, 65.151 97.037 C 65.094 106.095, 64.933 106.792, 61.955 110.903 C 58.665 115.445, 57.806 115.635, 50.399 113.461 C 46.483 112.312, 43.443 117.993, 45.898 121.870 C 46.463 122.762, 48.288 123.149, 51.133 122.982 C 64.448 122.196, 69.227 123.955, 69.814 129.855 C 70.305 134.794, 64.118 142.670, 57.611 145.389 C 50.457 148.378, 46.999 154.094, 50.557 157.047 C 53.209 159.249, 65.347 155.752, 73.809 150.349 C 81.966 145.140, 83.288 142.288, 80.559 135.782 C 76.522 126.155, 78.072 125.526, 103.690 126.398 C 118.209 126.893, 124.573 126.764, 126.106 125.943 C 127.352 125.276, 132.581 124.831, 138.623 124.878 C 150.603 124.969, 154.007 123.908, 153.985 120.089 C 153.955 115.028, 150.321 112.800, 142.094 112.800 C 137.419 112.800, 135.886 112.338, 133.312 110.150 L 130.193 107.500 129.574 85.619 C 129.234 73.585, 128.702 63.327, 128.392 62.825 C 127.475 61.341, 130.883 57, 132.964 57 C 134.019 57, 135.136 56.589, 135.446 56.087 C 135.757 55.585, 138.476 55.387, 141.489 55.648 C 146.366 56.070, 147.249 55.842, 149.523 53.568 C 151.560 51.531, 151.872 50.628, 151.060 49.112 C 149.867 46.883, 145.034 45, 140.504 45 C 133.704 45, 129 40.703, 129 34.492 C 129 29.840, 120.212 26.867, 118.104 30.805 C 117.573 31.798, 117.385 34.454, 117.687 36.707 C 118.582 43.374, 116.001 43.917, 89.500 42.647 C 72.228 41.819, 72.612 41.982, 73.428 35.834 C 74.482 27.887, 70.302 24.615, 64.712 29.012 M 78.846 57.872 C 77.281 58.630, 76 60.037, 76 61 C 76 62.472, 77.308 62.852, 84.250 63.399 C 88.787 63.757, 94.907 64.310, 97.848 64.628 C 104.104 65.304, 115 63.201, 115 61.317 C 115 60.618, 113.782 59.248, 112.293 58.273 C 110.030 56.790, 107.303 56.499, 95.639 56.497 C 85.826 56.494, 80.848 56.902, 78.846 57.872 M 79.875 80.481 C 78.432 81.279, 77.016 82.831, 76.729 83.929 C 75.709 87.829, 78.339 88.484, 96.267 88.789 C 110.237 89.027, 113.648 88.805, 115.591 87.532 C 117.637 86.192, 117.803 85.661, 116.838 83.543 C 115.200 79.950, 111.817 79.217, 96.399 79.119 C 85.991 79.053, 81.841 79.395, 79.875 80.481 M 80 101.724 C 79.175 102.027, 77.658 103.152, 76.629 104.225 C 75.141 105.776, 74.971 106.640, 75.794 108.447 C 77.283 111.714, 83.417 112.935, 98.046 112.875 C 104.896 112.848, 111.738 113.138, 113.252 113.521 C 115.431 114.073, 116.412 113.727, 117.968 111.859 C 122.398 106.542, 118.960 103.378, 107.865 102.563 C 94.103 101.551, 81.505 101.172, 80 101.724 M 111.989 135.250 C 110.899 137.037, 110.006 138.867, 110.004 139.316 C 109.993 141.704, 112.689 144.319, 117.847 146.923 C 121.022 148.526, 124.210 150.549, 124.932 151.418 C 125.654 152.288, 126.683 153, 127.218 153 C 127.753 153, 129.386 153.834, 130.846 154.854 C 134.934 157.710, 138.614 158.251, 142.009 156.496 C 145.372 154.756, 145.788 152.425, 143.520 148.039 C 141.447 144.029, 137.715 141.356, 131.679 139.557 C 128.831 138.708, 124.520 136.660, 122.100 135.007 C 116.483 131.169, 114.447 131.218, 111.989 135.250" stroke="none" fill="black" fill-rule="evenodd"/>
</svg>