<svg xmlns="http://www.w3.org/2000/svg" width="256" height="256" viewBox="0 0 256 256" version="1.1">
	<path d="M 76.567 29.681 C 72.217 30.888, 59.353 37.256, 57.128 39.304 C 53.957 42.223, 51.822 47.443, 52.574 50.439 C 52.909 51.772, 52.442 55.407, 51.538 58.517 C 49.950 63.978, 49.969 64.397, 52.078 70.734 C 53.817 75.961, 54.138 78.619, 53.655 83.797 C 52.679 94.245, 56.236 99, 65.027 99 C 66.528 99, 69.445 99.706, 71.511 100.569 L 75.266 102.138 74.696 107.654 C 74.278 111.706, 72.992 115.071, 69.848 120.335 C 63.238 131.406, 60.120 134.836, 51.818 140.170 C 43.555 145.479, 41.961 148.138, 43.934 153.326 C 45.224 156.720, 48.208 156.825, 56.874 153.782 C 62.410 151.837, 64.258 150.462, 70.939 143.322 C 75.170 138.800, 79.501 133.404, 80.565 131.330 C 81.629 129.256, 84.412 125.166, 86.750 122.241 C 89.191 119.185, 91 115.861, 91 114.429 C 91 108.202, 96.648 100.653, 99.809 102.656 C 101.092 103.469, 101.520 105.268, 101.583 110.114 C 101.705 119.488, 105.817 144.002, 107.851 147.485 C 110.560 152.123, 123.987 160.196, 129.943 160.769 C 139.155 161.654, 152.723 157.098, 154.863 152.400 C 155.545 150.904, 156.369 145.322, 156.693 139.996 C 157.253 130.806, 157.170 130.233, 155.077 128.766 C 149.937 125.166, 145 130.271, 145 139.186 C 145 144.992, 144.935 145.129, 141.532 146.551 C 137.493 148.239, 132.505 148.271, 125.500 146.654 C 121.164 145.653, 120.253 144.994, 118.636 141.684 C 116.468 137.245, 114.017 122.230, 114.007 113.321 C 113.997 104.397, 115.279 103.428, 128 102.741 C 138.924 102.150, 143.788 98.553, 143.198 91.500 C 143.106 90.400, 143.660 83.650, 144.429 76.500 C 145.198 69.350, 145.800 62.825, 145.767 62 C 145.734 61.175, 146.031 57.350, 146.427 53.500 C 147.081 47.142, 146.930 46.179, 144.786 43 C 142.545 39.678, 142.021 39.452, 134.463 38.553 C 120.151 36.851, 113.750 37.231, 109.635 40.028 C 104.634 43.426, 104.056 45.792, 107.503 48.756 C 110.115 51.003, 110.734 51.093, 119.112 50.437 C 129.062 49.659, 132.350 50.818, 133.228 55.414 C 133.992 59.410, 131.355 60.997, 123.921 61.016 C 112.154 61.047, 105.483 67.347, 111.366 72.874 C 113.334 74.723, 115.434 75.321, 121.897 75.877 C 126.338 76.258, 130.443 77.043, 131.021 77.621 C 131.599 78.199, 132.229 80.297, 132.422 82.284 C 133.061 88.878, 133.109 88.869, 99.855 88.674 C 72.245 88.512, 70.066 88.369, 68.105 86.595 C 65.344 84.097, 65.181 77.051, 67.829 74.655 C 69.825 72.848, 76.508 72.396, 77.500 74 C 77.840 74.550, 80.549 75, 83.520 75 C 89.673 75, 93.025 72.538, 92.967 68.061 C 92.887 61.961, 86.125 58.346, 78.166 60.149 C 68.433 62.354, 65 61.130, 65 55.454 C 65 51.962, 68.468 46.924, 72.358 44.767 C 73.536 44.113, 77.805 43.293, 81.845 42.945 C 89.775 42.260, 91.303 41.192, 90.339 37.008 C 89.083 31.559, 82.473 28.042, 76.567 29.681" stroke="none" fill="black" fill-rule="evenodd"/>
</svg>