<svg xmlns="http://www.w3.org/2000/svg" width="256" height="256" viewBox="0 0 256 256" version="1.1">
	<path d="M 54.089 32.750 C 52.916 33.712, 50.818 37.650, 49.428 41.500 C 48.037 45.350, 45.847 51.425, 44.560 55 C 43.273 58.575, 41.498 62.850, 40.616 64.500 C 39.734 66.150, 39.010 68.047, 39.006 68.717 C 39.003 69.386, 37.484 71.450, 35.630 73.303 C 33.777 75.157, 31.558 77.759, 30.699 79.086 C 28.331 82.748, 24.814 93.671, 25.179 96.233 C 25.452 98.156, 26.025 98.457, 28.950 98.219 C 31.281 98.029, 33.064 97.081, 34.449 95.294 C 40.877 87.007, 43.118 86.931, 44.645 94.951 C 45.279 98.277, 45.282 99.520, 44.725 123 C 44.457 134.275, 44.607 146.134, 45.058 149.353 C 46.408 158.999, 51.029 161.710, 56.460 156.042 C 59.181 153.202, 59.262 152.834, 58.501 146.792 C 58.065 143.331, 57.763 139.150, 57.829 137.500 C 57.895 135.850, 58.238 128.200, 58.590 120.500 C 59.054 110.358, 58.792 102.914, 57.639 93.485 C 56.195 81.681, 56.169 77.014, 57.525 73.178 C 57.782 72.451, 57.498 69.894, 56.895 67.495 C 55.924 63.640, 56.121 62.171, 58.597 54.817 C 60.137 50.243, 62.206 45.150, 63.195 43.500 C 65.544 39.580, 65.470 36.868, 62.927 33.635 C 60.521 30.575, 57.151 30.238, 54.089 32.750 M 82.500 34.137 C 78.896 36.162, 77.045 39.369, 77.022 43.628 C 77.010 45.898, 76.315 49.396, 75.477 51.401 C 73.515 56.097, 74.749 58.558, 79.762 59.951 C 81.818 60.522, 84.063 60.991, 84.750 60.994 C 85.438 60.997, 86 61.418, 86 61.929 C 86 63.954, 82.675 66, 79.383 66 C 72.372 66, 69.291 72.231, 70.406 84.156 C 72.143 102.725, 72.167 107.568, 70.553 113.797 C 69.631 117.354, 69.191 121.500, 69.538 123.352 C 69.882 125.184, 69.458 129.302, 68.576 132.707 C 67.709 136.052, 67 139.892, 67 141.241 C 67 142.589, 66.294 145.109, 65.430 146.839 C 61.142 155.436, 70.546 157.542, 77.770 149.603 C 80.467 146.639, 80.887 145.305, 81.614 137.388 C 82.064 132.500, 82.348 125.350, 82.246 121.500 C 82.020 112.952, 83.365 109, 86.499 109 C 90.888 109, 91.364 110.991, 91.480 129.826 C 91.616 151.886, 92.009 153, 99.661 153 C 102.597 153, 105 152.550, 105 152 C 105 149.923, 107.348 151.136, 110.677 154.934 C 115.089 159.967, 118.849 160.877, 123.617 158.063 C 126.629 156.286, 127.757 156.116, 130.843 156.973 C 136.479 158.539, 137.702 158.264, 141.868 154.500 C 143.999 152.575, 146.460 151, 147.336 151 C 148.213 151, 151.059 152.350, 153.661 154 C 159.241 157.539, 160.343 157.657, 163 155 C 165.569 152.431, 165.548 148.526, 162.947 145.158 C 156.913 137.348, 155.572 134.489, 155.602 129.500 C 155.632 124.411, 157.152 119.526, 161.545 110.401 C 162.895 107.597, 164.279 102.623, 164.621 99.349 C 165.182 93.988, 164.999 93.111, 162.791 90.544 C 160.734 88.152, 159.385 87.619, 154.419 87.234 C 149.674 86.866, 148.055 86.272, 146.253 84.236 C 143.077 80.646, 144.668 79.364, 153.037 78.765 C 160.689 78.218, 164 76.323, 164 72.491 C 164 69.764, 160.429 65.800, 156.342 63.991 L 153.259 62.626 156.311 60.563 C 159.776 58.221, 161.312 53.950, 159.964 50.405 C 159.461 49.083, 159.312 46.691, 159.632 45.090 C 161.057 37.964, 156.090 31.985, 150.039 33.543 C 148.643 33.903, 142.851 34.154, 137.169 34.103 C 126.993 34.010, 126.793 34.053, 123.868 36.978 C 121.259 39.587, 120.927 40.567, 121.132 45.052 C 121.370 50.273, 120.103 52.361, 117.341 51.300 C 115.856 50.731, 115.731 50.144, 115.973 44.844 C 116.100 42.054, 115.431 40.395, 113.152 37.844 L 110.164 34.500 99.832 34.420 C 94.149 34.376, 88.375 34.042, 87 33.676 C 85.625 33.311, 83.600 33.518, 82.500 34.137 M 92.223 44.557 C 89.197 46.676, 89.432 48.522, 92.909 49.962 C 96.733 51.546, 100.068 49.947, 99.465 46.819 C 98.724 42.971, 95.794 42.055, 92.223 44.557 M 138.521 44.977 C 137.033 46.621, 137.033 46.890, 138.524 48.381 C 141.325 51.182, 146.209 50.261, 146.777 46.825 C 147.322 43.520, 141.100 42.127, 138.521 44.977 M 116 58.709 C 112.794 59.888, 110.952 62.238, 112.126 63.652 C 113.699 65.547, 120.451 65.367, 122.095 63.385 C 123.244 62.001, 123.103 61.502, 121.107 59.885 C 118.649 57.896, 118.381 57.834, 116 58.709 M 97 61.800 C 97 64.706, 102.377 66.067, 103.393 63.418 C 104.307 61.037, 104.263 61, 100.500 61 C 98.575 61, 97 61.360, 97 61.800 M 139.567 61.892 C 138.963 62.868, 144.172 63.689, 147.750 63.180 C 148.988 63.005, 150 62.442, 150 61.930 C 150 60.740, 140.301 60.704, 139.567 61.892 M 85.392 79.573 C 84.379 83.610, 86.096 84.516, 92.217 83.177 C 95.122 82.541, 98.963 81.920, 100.750 81.797 C 106.170 81.426, 104.728 79.018, 99 78.875 C 92.702 78.718, 92.329 78.662, 91.417 77.750 C 91.004 77.338, 89.625 77, 88.352 77 C 86.700 77, 85.853 77.736, 85.392 79.573 M 105.459 80.067 C 105.096 80.653, 105.070 81.403, 105.400 81.733 C 105.730 82.063, 106 81.782, 106 81.108 C 106 80.434, 106.485 80.182, 107.078 80.548 C 107.672 80.915, 111.433 81.348, 115.437 81.511 C 127.678 82.008, 130.005 85.469, 123 92.760 C 120.800 95.049, 119 97.318, 119 97.801 C 119 99.049, 123.634 101, 126.597 101 C 130.108 101, 134.650 98.446, 135.255 96.131 C 135.536 95.059, 135.647 91.870, 135.502 89.043 C 135.326 85.589, 135.716 83.427, 136.691 82.452 C 137.960 81.183, 137.945 81, 136.571 81 C 135.707 81, 135 80.550, 135 80 C 135 78.595, 106.328 78.660, 105.459 80.067 M 84.512 90.962 C 84.169 92.041, 84.348 93.782, 84.909 94.831 C 85.471 95.879, 85.658 97.009, 85.326 97.341 C 84.587 98.079, 89.878 100.194, 90.894 99.566 C 91.293 99.319, 94.856 99.022, 98.810 98.907 C 102.765 98.791, 106 98.315, 106 97.848 C 106 97.382, 105.100 97, 104 97 C 102.667 97, 102 96.333, 102 95 C 102 93.708, 101.292 92.956, 100 92.875 C 97.329 92.708, 97.099 92.640, 92.628 90.689 C 87.561 88.479, 85.276 88.555, 84.512 90.962 M 144.127 102.750 C 143.431 108.672, 144.653 112, 147.525 112 C 149.244 112, 150.906 106.961, 150.275 103.661 C 149.873 101.557, 149.198 101, 147.050 101 C 145.208 101, 144.267 101.563, 144.127 102.750 M 104.217 111.424 C 103.350 113.325, 103.421 114.105, 104.545 115.037 C 105.333 115.691, 105.731 116.626, 105.430 117.113 C 105.129 117.601, 106.334 118, 108.108 118 C 109.882 118, 111.037 117.704, 110.675 117.342 C 110.313 116.980, 110.525 116.073, 111.145 115.325 C 112.022 114.269, 111.631 113.415, 109.386 111.485 C 105.825 108.422, 105.586 108.419, 104.217 111.424 M 125.420 112.130 C 124.560 113.521, 124.865 128.220, 125.852 132.981 C 126.305 135.164, 126.052 138.046, 125.174 140.713 C 124.404 143.052, 124.045 146.044, 124.376 147.363 C 125.051 150.051, 128.407 151.419, 129.904 149.616 C 130.442 148.968, 133.113 147.635, 135.841 146.654 C 141.257 144.707, 141.528 144.221, 141.893 135.814 C 142.170 129.413, 141.332 127.374, 135.845 121.109 C 133.730 118.694, 132 116.139, 132 115.431 C 132 112.282, 126.905 109.727, 125.420 112.130 M 106.750 121.662 C 107.438 121.940, 108.563 121.940, 109.250 121.662 C 109.938 121.385, 109.375 121.158, 108 121.158 C 106.625 121.158, 106.063 121.385, 106.750 121.662 M 105.200 124.200 C 103.231 126.169, 103.831 129.492, 106.588 131.890 C 109.069 134.046, 109.234 134.064, 110.557 132.320 C 114.274 127.416, 109.389 120.011, 105.200 124.200 M 104.220 142.528 C 103.175 143.713, 103.221 144.408, 104.474 146.320 C 105.317 147.607, 105.705 148.961, 105.337 149.330 C 104.968 149.698, 105.942 150, 107.500 150 C 109.058 150, 110.037 149.704, 109.675 149.342 C 109.313 148.980, 109.514 148.086, 110.120 147.355 C 110.727 146.624, 110.940 144.895, 110.593 143.513 C 109.875 140.652, 106.354 140.108, 104.220 142.528" stroke="none" fill="black" fill-rule="evenodd"/>
</svg>