<svg xmlns="http://www.w3.org/2000/svg" width="256" height="256" viewBox="0 0 256 256" version="1.1">
	<path d="M 46.500 34.898 C 38.474 36.918, 36.244 41.398, 40.933 46.087 C 43.654 48.808, 43.684 48.813, 58.404 48.813 C 72.790 48.813, 85.130 50.310, 87.854 52.385 C 88.768 53.082, 89.036 54.693, 88.680 57.346 C 87.761 64.200, 87.279 64.356, 67.767 64.098 C 50.625 63.872, 50.403 63.897, 47.797 66.312 C 42.814 70.930, 40.249 86.857, 41.968 102.500 C 43.038 112.230, 42.832 128.602, 41.420 146.113 C 40.778 154.077, 40.887 154.887, 42.863 156.863 C 45.286 159.286, 50.177 159.697, 51.900 157.621 C 52.529 156.863, 53.294 152.475, 53.601 147.871 C 53.907 143.267, 54.671 138.445, 55.298 137.156 C 55.926 135.866, 58.607 133.713, 61.257 132.370 C 63.906 131.027, 65.848 129.564, 65.573 129.118 C 65.297 128.672, 69.582 128.446, 75.095 128.616 C 88.273 129.023, 88.449 129.232, 92.114 148.852 C 95.135 165.027, 105.534 163.822, 104.454 147.422 C 104.204 143.615, 103.830 136.172, 103.623 130.882 C 103.416 125.592, 102.812 120.486, 102.280 119.536 C 101.235 117.669, 101.749 113, 102.999 113 C 103.420 113, 103.588 107.038, 103.373 99.750 C 102.948 85.392, 103.809 81.263, 107.377 80.551 C 113.403 79.348, 132.840 79.163, 134.380 80.294 C 136.623 81.940, 136.982 84.132, 137.942 102 C 138.781 117.613, 138.525 119.618, 135.268 122.875 C 134.411 123.732, 134.240 124.530, 134.834 124.898 C 135.919 125.568, 137.542 132.635, 137.155 135 C 136.772 137.335, 133.717 143.271, 131.666 145.666 C 130.028 147.577, 129.968 148.158, 131.155 150.615 C 131.895 152.146, 133.996 154.270, 135.825 155.335 C 140.791 158.228, 146.087 156.414, 149.454 150.669 L 151.953 146.404 152.324 112.452 C 152.538 92.879, 152.294 77.042, 151.747 75.058 C 151.226 73.164, 149.553 70.451, 148.029 69.027 C 145.562 66.722, 143.878 66.296, 132.667 65.136 C 125.567 64.401, 117.281 64.132, 113.665 64.519 C 106.410 65.296, 103.428 64.255, 101.977 60.439 C 100.695 57.068, 102.360 53.194, 105.624 51.953 C 109.022 50.661, 121.900 49.907, 138.697 50.017 L 151.895 50.104 153.544 46.916 C 154.940 44.215, 154.993 43.355, 153.886 41.286 C 151.825 37.435, 149.223 36.655, 138 36.525 C 132.225 36.457, 125.250 35.907, 122.500 35.302 C 119.248 34.586, 110.332 34.400, 97 34.770 C 67.961 35.577, 65.387 35.580, 57 34.821 C 52.875 34.448, 48.150 34.482, 46.500 34.898 M 58.244 80.988 C 56.827 82.307, 56.283 83.736, 56.623 85.238 C 57.353 88.454, 57.208 93.900, 56.056 106.500 C 54.643 121.954, 55.499 123.938, 62.430 121.278 C 69.242 118.663, 70.329 117.045, 70.126 109.820 C 69.913 102.211, 69.369 100.155, 66.833 97.381 C 65.521 95.945, 65.048 94.332, 65.366 92.381 C 65.624 90.796, 65.873 89.156, 65.918 88.735 C 66.085 87.180, 72.601 84.007, 75.636 84.004 C 78.195 84.001, 79.054 84.598, 80.302 87.250 C 82.101 91.071, 83.953 112.333, 82.684 114.600 C 81.942 115.926, 83.495 122, 84.576 122 C 85.328 122, 89.522 117.163, 89.801 115.975 C 90.363 113.585, 90.179 92.534, 89.550 87.141 C 88.624 79.213, 88.197 79, 73.260 79 C 61.786 79, 60.144 79.217, 58.244 80.988 M 116.063 86.265 C 112.355 88.144, 111.338 93.472, 113.834 97.939 C 114.981 99.994, 116.007 104.107, 116.258 107.665 L 116.694 113.830 111.847 118.966 C 109.181 121.790, 107 124.371, 107 124.701 C 107 125.412, 126.542 124.318, 129.645 123.433 C 131.556 122.888, 131.687 122.451, 130.852 119.425 C 130.230 117.172, 130.273 115.358, 130.981 114.036 C 131.567 112.940, 131.821 110.800, 131.546 109.279 C 131.270 107.758, 130.749 103.811, 130.389 100.507 C 129.599 93.274, 127.997 89.846, 124.111 87.079 C 120.749 84.685, 119.441 84.553, 116.063 86.265" stroke="none" fill="black" fill-rule="evenodd"/>
</svg>