<svg xmlns="http://www.w3.org/2000/svg" width="256" height="256" viewBox="0 0 256 256" version="1.1">
	<path d="M 42.308 34.008 C 38.510 35.540, 36.939 39.037, 37.799 44.048 C 38.219 46.496, 38.125 50.921, 37.590 53.881 C 36.502 59.907, 35.718 58.776, 48.391 69.471 C 55.067 75.104, 54.691 74.968, 63.595 74.985 C 68.684 74.994, 73.729 75.673, 77.182 76.812 C 83.446 78.879, 87.007 78.074, 86.989 74.597 C 86.956 68.312, 85.626 64.741, 82.602 62.817 C 79.784 61.023, 78.250 60.890, 65.824 61.363 C 50.063 61.963, 49.378 61.671, 50.307 54.751 C 51.227 47.886, 53.491 46.750, 64.419 47.667 C 69.414 48.085, 74.850 48.408, 76.500 48.385 C 131.350 47.593, 134.333 47.783, 137.463 52.251 C 139.184 54.707, 139.511 58, 138.035 58 C 137.504 58, 135.488 59.389, 133.554 61.087 C 130.102 64.118, 130.066 64.228, 131.582 67.159 C 133.475 70.819, 132.139 73, 128.003 73 C 126.490 73, 123.338 73.675, 121 74.500 C 118.662 75.325, 115.118 76.003, 113.124 76.006 C 106.809 76.015, 102.003 77.862, 100.927 80.692 C 98.698 86.554, 103.697 89.876, 111.576 87.768 C 114.987 86.856, 117.299 86.860, 121.702 87.783 C 129.522 89.423, 130.415 90.519, 129.554 97.412 C 129.170 100.485, 128.551 102.997, 128.178 102.994 C 126.200 102.978, 120 100.794, 120 100.114 C 120 98.896, 115.230 97, 112.165 97 C 110.562 97, 107.988 98.240, 105.962 99.987 L 102.500 102.975 105.254 105.443 C 106.769 106.800, 109.633 108.216, 111.620 108.589 C 115.873 109.386, 126 107.362, 126 105.714 C 126 105.010, 126.538 105.134, 127.402 106.036 C 129.488 108.215, 130.447 115.539, 128.820 116.870 C 128.094 117.464, 126.194 119.009, 124.599 120.304 C 122.224 122.230, 121.820 123.147, 122.374 125.354 C 122.746 126.837, 124 129, 125.159 130.159 C 127.017 132.017, 128.054 132.201, 133.884 131.703 C 137.523 131.392, 141.953 130.522, 143.728 129.768 L 146.956 128.399 144.478 124.753 C 142.116 121.277, 142 120.412, 142 106.276 C 142 87.616, 142.305 87, 151.557 87 C 157.686 87, 158 86.883, 158 84.607 C 158 83.291, 157.325 81.955, 156.500 81.638 C 155.675 81.322, 155 80.410, 155 79.612 C 155 78.741, 152.900 77.489, 149.750 76.482 C 142.413 74.136, 141 72.184, 141 64.389 C 141 60.354, 141.411 58, 142.116 58 C 142.729 58, 145.396 58.769, 148.042 59.708 C 152.211 61.189, 153.195 61.233, 155.426 60.040 C 158.372 58.463, 158.784 54.995, 156.500 51 C 155.714 49.625, 155.055 46.148, 155.035 43.273 C 154.975 34.403, 156.963 34.765, 106.206 34.382 C 82.168 34.200, 58.450 33.843, 53.500 33.588 C 48.550 33.333, 43.514 33.522, 42.308 34.008 M 48 89.843 C 41.754 90.810, 35.574 94.184, 35.180 96.842 C 34.927 98.552, 35.369 99, 37.308 99 C 40.680 99, 46.164 101.418, 48.402 103.892 C 49.947 105.599, 50.146 106.848, 49.569 111.225 C 48.759 117.376, 45.348 127.754, 39.886 140.692 C 36.823 147.948, 36.200 150.395, 36.926 152.306 C 38.545 156.563, 43.492 157.245, 47.412 153.750 C 50.003 151.440, 59.955 132.690, 60.018 130 C 60.037 129.175, 60.871 126.700, 61.872 124.500 C 63.467 120.994, 63.530 120.035, 62.384 116.732 C 60.844 112.296, 61.354 110.464, 65.162 106.750 C 69.635 102.388, 72.378 103.277, 73.787 109.546 C 74.280 111.744, 74.556 114.208, 74.399 115.021 C 70.941 132.947, 71.397 143.140, 75.892 148.372 C 78.825 151.786, 87.216 154.921, 96.500 156.070 C 101.450 156.683, 106.400 157.143, 107.500 157.092 C 108.600 157.042, 117.194 156.663, 126.598 156.250 C 136.060 155.835, 144.322 155.019, 145.098 154.422 C 145.869 153.829, 148.611 152.565, 151.190 151.612 C 154.799 150.279, 156.450 148.908, 158.354 145.660 C 164.830 134.608, 162.056 125.406, 153.160 128.434 C 149.469 129.690, 148.150 131.427, 147.665 135.672 C 146.914 142.255, 147.124 142.173, 131.614 141.903 C 123.852 141.768, 111.071 141.798, 103.214 141.971 C 85.193 142.366, 86.009 143.128, 86.122 126 C 86.221 111.078, 87.136 108.484, 93.496 105.111 C 98.388 102.516, 98.815 101.138, 96.140 96.580 C 93.161 91.505, 89.905 89.775, 83.882 90.067 C 74.756 90.508, 65.792 90.397, 59 89.758 C 55.425 89.422, 50.475 89.460, 48 89.843" stroke="none" fill="black" fill-rule="evenodd"/>
</svg>