<svg xmlns="http://www.w3.org/2000/svg" width="256" height="256" viewBox="0 0 256 256" version="1.1">
	<path d="M 86.572 32.250 C 85.520 33.856, 85.323 35.501, 85.884 38 C 86.317 39.925, 86.770 47.500, 86.892 54.834 C 87.014 62.167, 87.538 69.284, 88.057 70.649 C 89.423 74.243, 89.232 75.768, 87.154 77.846 C 84.464 80.536, 73.615 81.481, 68.033 79.512 C 65.676 78.680, 61.162 78, 58 78 C 54.838 78, 50.329 77.322, 47.980 76.493 C 44.037 75.102, 43.471 75.127, 40.604 76.824 C 37.957 78.391, 37.518 79.216, 37.622 82.426 C 37.700 84.823, 38.527 86.972, 39.900 88.345 C 41.887 90.331, 43.113 90.505, 55.559 90.567 C 73.270 90.655, 72.979 90.392, 69.987 103.642 C 68.762 109.064, 66.429 116.369, 64.802 119.876 C 61.503 126.985, 54.383 134.743, 48.319 137.837 C 41.293 141.422, 36.541 151.714, 40.424 154.937 C 41.962 156.213, 49.381 154.811, 50.477 153.037 C 50.786 152.538, 53.582 150.965, 56.691 149.541 C 65.275 145.612, 71.108 138.769, 76.193 126.668 C 80.767 115.781, 83.968 104.968, 83.985 100.348 C 83.999 96.572, 84.295 96.091, 87.250 95.040 C 89.037 94.404, 93.439 93.628, 97.032 93.315 C 103.470 92.755, 103.583 92.788, 104.924 95.623 C 105.775 97.423, 106.569 104.678, 107.046 115 C 107.465 124.075, 108.245 132.876, 108.779 134.558 C 109.945 138.229, 112.990 144.303, 114.014 145 C 114.418 145.275, 115.622 146.945, 116.689 148.711 C 118.853 152.290, 121.580 154.647, 127.503 158.060 C 133.154 161.315, 144.145 161.310, 149.420 158.049 C 154.273 155.050, 156.115 152.052, 155.992 147.354 C 155.936 145.234, 156.202 140.696, 156.583 137.268 C 157.348 130.370, 156.322 128, 152.569 128 C 148.441 128, 146.504 130.428, 146.451 135.669 C 146.370 143.566, 145.514 144.975, 140.683 145.158 C 138.382 145.246, 135.600 145.256, 134.500 145.181 C 131.536 144.980, 124.478 140.995, 123.058 138.721 C 120.475 134.586, 118.974 103.242, 121.070 97.229 C 122.449 93.274, 123.835 92.795, 133.500 92.931 C 143.423 93.071, 152.101 91.514, 153.750 89.298 C 155.772 86.580, 155.231 83.197, 152.485 81.398 C 149.903 79.706, 143.038 79.267, 128.500 79.864 C 121.857 80.137, 107.910 79.357, 103.421 78.462 C 100.621 77.904, 99.112 74.238, 100.144 70.500 C 102.773 60.982, 99.491 34.339, 95.310 31.250 C 92.570 29.226, 88.228 29.723, 86.572 32.250 M 45.750 37.115 C 41.610 40.204, 42.253 42.823, 48.493 48.295 C 52.339 51.668, 54.837 54.985, 56.918 59.481 C 58.569 63.049, 61.049 66.641, 62.531 67.612 C 64.984 69.220, 65.386 69.230, 67.842 67.747 C 71.873 65.315, 71.816 61.357, 67.674 55.931 C 65.791 53.466, 62.660 48.288, 60.714 44.425 C 55.993 35.050, 51.476 32.843, 45.750 37.115 M 133.213 40.243 C 132.607 40.974, 130.623 44.423, 128.805 47.908 C 126.987 51.393, 124.888 55.367, 124.139 56.740 C 123.391 58.112, 122.535 61.051, 122.237 63.270 C 121.600 68.020, 123.463 70, 128.569 70 C 132.526 70, 133.206 69.109, 135.438 61 C 136.422 57.425, 137.913 52.439, 138.750 49.920 C 140.065 45.965, 140.082 44.944, 138.879 42.433 C 137.320 39.180, 134.879 38.236, 133.213 40.243" stroke="none" fill="black" fill-rule="evenodd"/>
</svg>