<svg xmlns="http://www.w3.org/2000/svg" width="256" height="256" viewBox="0 0 256 256" version="1.1">
	<path d="M 72.500 32.987 C 56.073 33.889, 53.184 35.791, 54.394 44.913 C 54.732 47.461, 54.571 52.998, 54.036 57.218 C 53.269 63.268, 53.371 65.908, 54.521 69.696 C 55.322 72.338, 55.983 76.892, 55.989 79.816 C 56.004 87.331, 57.140 88.993, 62.285 89.032 C 70.548 89.094, 71.731 92.687, 67.379 104.500 C 65.961 108.350, 64.844 112.559, 64.898 113.854 C 65.131 119.504, 60.263 125.445, 49.757 132.333 C 45.786 134.936, 43.831 136.932, 43.424 138.799 C 43.099 140.285, 42.100 143.659, 41.202 146.298 C 40 149.833, 39.851 151.544, 40.637 152.798 C 42.542 155.837, 45.959 155.438, 49.870 151.721 C 51.867 149.823, 55.207 147.143, 57.292 145.764 C 59.378 144.386, 62.452 141.062, 64.122 138.379 C 65.792 135.696, 68.480 132.310, 70.095 130.855 C 75.347 126.123, 82.422 107.307, 82.918 96.750 C 82.963 95.787, 83.900 94.100, 85 93 C 86.641 91.359, 88.333 91, 94.418 91 C 105.346 91, 105 90.652, 105 101.646 C 105 117.652, 106.752 129.839, 109.816 135.156 C 114.584 143.427, 123.976 153.070, 129.779 155.652 C 132.682 156.943, 135.714 158, 136.518 158 C 138.840 158, 150.782 152.968, 152.031 151.463 C 153.820 149.307, 157 135.271, 157 129.528 C 157 123.663, 154.638 120.345, 151.232 121.426 C 148.608 122.259, 146.954 125.702, 145.625 133.096 C 144.598 138.812, 144.238 139.433, 141.500 140.214 C 137.939 141.231, 132.061 140.522, 126.417 138.395 L 122.335 136.856 120.167 124.560 C 117.642 110.231, 117.394 99.694, 119.468 94.731 C 121.202 90.582, 124.797 89, 132.494 89 C 141.036 89, 141.655 87.642, 143.044 65.861 C 143.583 57.412, 144.291 48.583, 144.618 46.240 C 145.998 36.341, 143.038 34.118, 128.395 34.060 C 113.676 34.002, 87.716 33.187, 86 32.729 C 85.175 32.509, 79.100 32.625, 72.500 32.987 M 76 45.965 C 67.394 47.164, 67.338 47.260, 66.773 61.712 C 66.497 68.745, 66.497 75.097, 66.773 75.827 C 67.617 78.067, 71.866 79.112, 75.847 78.058 C 79.894 76.986, 82.719 76.937, 104.500 77.556 C 119.312 77.977, 126.930 77.060, 128.849 74.625 C 129.337 74.006, 130.041 67.789, 130.413 60.809 C 131.032 49.214, 130.935 48.039, 129.295 47.194 C 127.160 46.094, 82.470 45.063, 76 45.965" stroke="none" fill="black" fill-rule="evenodd"/>
</svg>