<svg xmlns="http://www.w3.org/2000/svg" width="256" height="256" viewBox="0 0 256 256" version="1.1">
	<path d="M 94.139 32.861 C 92.636 34.364, 92.244 36.432, 92.103 43.611 C 91.827 57.570, 90.938 68.419, 89.989 69.391 C 89.003 70.400, 85.233 70.423, 79.809 69.454 C 77.291 69.004, 75.096 69.304, 72.905 70.397 C 66.877 73.405, 63.939 71.922, 65.868 66.846 C 67.208 63.323, 65.491 49.526, 63.232 45.658 C 60.864 41.602, 56.605 41.309, 53.841 45.011 C 49.580 50.718, 49.154 67.572, 53.047 76.373 C 55.666 82.295, 58.762 83.415, 64.391 80.480 C 66.620 79.318, 68.051 79.205, 70.641 79.986 C 72.488 80.544, 75.494 81.450, 77.321 82 C 79.148 82.550, 82.212 83, 84.130 83 C 90.916 83, 90.859 82.783, 91.196 109.981 L 91.500 134.463 88.785 135.769 C 86.407 136.914, 85.551 136.811, 81.895 134.946 C 78.250 133.087, 76.738 132.904, 69.971 133.503 C 61.585 134.245, 57.716 133.162, 58.131 130.187 C 58.260 129.259, 57.799 125.273, 57.106 121.328 C 56.263 116.534, 56.170 113.551, 56.823 112.328 C 57.722 110.645, 58.361 106.159, 58.106 103.321 C 57.719 99.019, 48.647 97.353, 45.072 100.928 C 44.012 101.988, 42.779 105.026, 42.332 107.678 C 41.096 115.022, 41.296 135.942, 42.610 136.787 C 43.221 137.179, 44.489 138.998, 45.427 140.829 C 47.797 145.453, 52.425 147.168, 61.863 146.921 C 66.063 146.810, 83.675 146.833, 101 146.971 C 129.605 147.200, 132.841 147.396, 136.210 149.111 C 141.737 151.925, 145.339 151.574, 148.411 147.923 C 150.807 145.075, 151.514 142.801, 151.185 139 C 151.114 138.175, 151.711 134.125, 152.513 130 C 153.315 125.875, 154.163 116.580, 154.398 109.345 L 154.824 96.190 151.286 95.526 C 149.243 95.142, 146.533 95.365, 144.874 96.052 C 141.840 97.309, 141.494 98.653, 141.927 107.500 C 142.035 109.700, 141.429 113.154, 140.579 115.176 C 139.730 117.198, 138.736 121.392, 138.372 124.496 C 137.334 133.326, 136.332 134.016, 124.441 134.095 C 113.058 134.171, 107.571 133.392, 105.980 131.476 C 104.643 129.865, 104.098 123.860, 103.567 104.885 C 103.082 87.577, 103.657 86.019, 112.108 81.742 C 116.966 79.285, 118.664 78.983, 128.023 78.912 C 133.785 78.869, 140.300 79.109, 142.500 79.445 C 146.038 79.985, 146.719 79.748, 148.398 77.393 C 150.199 74.867, 150.232 73.988, 149.040 60.175 C 147.394 41.103, 146.144 38.571, 139.891 41.629 C 136.651 43.214, 135.284 46.606, 134.444 55.145 C 133.366 66.092, 133.231 66.209, 121.251 66.565 C 109.121 66.927, 109 66.825, 109 56.313 C 109 39.121, 100.808 26.192, 94.139 32.861 M 29.200 71.200 C 27.911 72.489, 27.601 75.268, 28.631 76.298 C 29.349 77.016, 33.164 75.216, 34.157 73.691 C 36.016 70.837, 31.721 68.679, 29.200 71.200" stroke="none" fill="black" fill-rule="evenodd"/>
</svg>