<svg xmlns="http://www.w3.org/2000/svg" width="256" height="256" viewBox="0 0 256 256" version="1.1">
	<path d="M 147.209 32.046 C 145.041 32.917, 141.715 38.730, 142.582 40.133 C 142.804 40.492, 143.207 47.472, 143.476 55.643 C 143.746 63.814, 144.233 73.425, 144.559 77 C 145.491 87.222, 145.313 131.172, 144.326 134.500 C 143.652 136.772, 142.109 138.160, 137.968 140.221 C 134.961 141.718, 131.992 142.765, 131.372 142.549 C 130.751 142.333, 129.806 142.594, 129.270 143.130 C 128.154 144.246, 128.807 149, 130.076 149 C 130.540 149, 132.596 150.812, 134.646 153.028 C 136.696 155.243, 139.526 157.359, 140.936 157.731 C 148.684 159.771, 155 154.777, 155 146.612 C 155 144.694, 155.626 140.284, 156.391 136.812 C 157.883 130.040, 157.813 83.152, 156.262 50.399 C 155.346 31.051, 154.411 29.156, 147.209 32.046 M 45.373 33.688 C 43.654 33.919, 41.315 35.100, 40.177 36.312 C 38.180 38.437, 38.137 39.102, 38.950 55.095 C 39.657 69.005, 40.139 72.353, 41.942 75.886 C 43.124 78.202, 44.858 80.333, 45.795 80.622 C 46.733 80.910, 48.962 81.781, 50.750 82.557 L 54 83.968 54 95.515 C 54 108.345, 52.177 115.783, 47.020 124 C 44.449 128.096, 41.218 135.611, 37.948 145.099 C 36.380 149.648, 37.321 153.589, 40.151 154.329 C 43.364 155.169, 45.442 153.633, 49.027 147.766 C 50.796 144.870, 54.327 140.221, 56.872 137.436 C 65.222 128.300, 65.084 128.598, 65.584 118.680 C 65.862 113.176, 66.554 109.017, 67.320 108.251 C 71.179 104.393, 79.773 105.345, 83.099 110 C 84.749 112.309, 84.779 113.073, 83.486 120 C 81.544 130.404, 80.151 134.838, 78.185 136.878 C 72.916 142.344, 68.341 148.734, 68.573 150.302 C 69.060 153.608, 71.983 157, 74.345 157 C 78.432 157, 85.646 153.982, 88.195 151.205 C 89.916 149.331, 91.051 146.384, 91.890 141.611 C 92.556 137.823, 93.978 133.003, 95.050 130.901 C 97.160 126.765, 97.480 121.778, 96.036 115.547 C 95.292 112.340, 95.517 110.669, 97.229 106.689 C 99.306 101.862, 99.309 101.730, 97.475 98.323 C 94.958 93.650, 92.834 92.687, 87.180 93.658 C 84.606 94.099, 79.647 94.470, 76.161 94.480 C 70.692 94.497, 69.559 94.176, 67.911 92.139 C 65.740 89.457, 65.428 85.972, 67.200 84.200 C 69.198 82.202, 82.009 82.688, 86.571 84.934 C 90.255 86.748, 90.605 86.763, 92.186 85.184 C 95.006 82.366, 96.146 66.820, 94.612 52.089 C 93.457 40.999, 93.063 39.469, 90.910 37.724 C 88.891 36.087, 87.547 35.869, 82.633 36.382 C 78.897 36.772, 74.719 36.478, 71.133 35.574 C 65.126 34.060, 50.549 32.993, 45.373 33.688 M 51.553 48.250 C 50.439 51.874, 50.383 59.931, 51.451 63 C 52.120 64.925, 53.692 67.016, 54.944 67.647 C 58.480 69.429, 78.417 69.407, 79.901 67.619 C 83.888 62.816, 80.536 50.080, 74.755 48.065 C 70.313 46.516, 52.041 46.662, 51.553 48.250 M 110.626 48.517 C 107.692 51.451, 106.196 63.869, 107.254 76.500 C 107.669 81.450, 107.998 89.676, 107.985 94.780 C 107.961 104.437, 108.779 107.322, 112.367 110.228 C 115.321 112.620, 117.493 112.422, 119.349 109.591 C 121.011 107.053, 123.304 95.301, 122.417 93.865 C 122.131 93.403, 121.901 86.522, 121.906 78.574 C 121.917 61.973, 120.816 53.574, 118.162 50.005 C 115.890 46.950, 112.803 46.340, 110.626 48.517" stroke="none" fill="black" fill-rule="evenodd"/>
</svg>