<svg xmlns="http://www.w3.org/2000/svg" width="256" height="256" viewBox="0 0 256 256" version="1.1">
	<path d="M 146.225 32.784 C 144.974 32.983, 143.239 34.232, 142.368 35.561 C 140.981 37.678, 140.932 39.232, 141.971 48.165 C 142.622 53.769, 142.855 60.945, 142.487 64.112 C 141.983 68.454, 142.359 72.037, 144.014 78.685 C 145.697 85.443, 146.097 89.367, 145.728 95.500 C 145.464 99.900, 145.530 106.425, 145.874 110 C 146.423 115.703, 145.153 130.269, 143.549 136.660 C 143.244 137.877, 140.345 140.953, 137.107 143.497 C 130.252 148.883, 130.164 150.109, 136.242 155.600 C 139.746 158.765, 140.743 159.164, 144.051 158.720 C 151.202 157.761, 154.991 153.260, 155.011 145.703 C 155.017 143.391, 155.692 139.291, 156.511 136.591 C 158.302 130.688, 158.431 111.612, 156.895 80 C 156.320 68.175, 155.908 56.925, 155.978 55 C 156.088 52.013, 155.501 47.736, 153.429 36.421 C 152.988 34.016, 149.513 32.261, 146.225 32.784 M 43.833 36.698 C 40.694 37.191, 36 41.239, 36 43.452 C 36 44.304, 36.900 45.900, 38 47 C 39.618 48.618, 41.333 49, 46.977 49 C 53.330 49, 54.102 49.225, 55.605 51.519 C 58.500 55.938, 54.782 70.070, 49.061 76.395 C 44.002 81.988, 36 95.163, 36 97.900 C 36 99.127, 36.498 101.063, 37.108 102.201 C 38.144 104.138, 38.783 104.228, 47.052 103.604 L 55.890 102.936 61.539 108.218 C 64.646 111.123, 67.821 114.095, 68.594 114.821 C 69.367 115.548, 70 117.029, 70 118.111 C 70 120.769, 66.132 128.204, 63.950 129.741 C 61.994 131.118, 54 142.467, 54 143.866 C 54 144.355, 53.330 145.311, 52.512 145.990 C 50.267 147.853, 50.796 154.713, 53.232 155.350 C 55.120 155.844, 63.565 153.713, 65.500 152.254 C 67.029 151.101, 76 137.452, 76 136.278 C 76 135.710, 76.652 134.704, 77.449 134.042 C 78.246 133.381, 79.436 131.189, 80.094 129.170 C 80.752 127.152, 81.584 125.275, 81.944 125 C 82.304 124.725, 83.370 122.066, 84.314 119.091 C 85.257 116.117, 88.043 110.624, 90.506 106.886 C 92.969 103.148, 95.418 98.156, 95.948 95.794 C 97.711 87.942, 99.211 75.241, 98.603 73.324 C 97.374 69.453, 85.762 65.117, 76.405 65.036 C 70.136 64.981, 66.813 60.044, 70.538 56.319 C 71.384 55.474, 74.196 54.136, 76.788 53.347 C 80.685 52.161, 82.576 52.124, 87.719 53.134 C 91.933 53.961, 94.996 54.047, 97.219 53.402 C 102.554 51.852, 104.399 52.634, 105.769 57.024 C 106.446 59.193, 107.002 64.688, 107.004 69.234 C 107.010 81.811, 109.711 97.218, 113.211 104.640 C 114.817 108.046, 118.471 109.252, 120.982 107.204 C 123.392 105.238, 123.895 100.241, 122.713 90 C 122.301 86.425, 121.926 79.450, 121.880 74.500 C 121.794 65.140, 119.425 50.499, 117.614 48.138 C 115.744 45.701, 112.652 45.165, 109.035 46.652 C 107.129 47.436, 105.267 48.568, 104.897 49.167 C 103.875 50.821, 102.441 49.469, 100.226 44.763 C 97.374 38.704, 94.657 36.549, 90.197 36.810 C 83.135 37.223, 54.532 37.158, 50.527 36.720 C 48.312 36.478, 45.300 36.468, 43.833 36.698 M 66.750 78.572 C 65.237 79.393, 63.936 80.612, 63.857 81.282 C 62.767 90.580, 63.005 91.200, 69.903 96.985 C 72.791 99.406, 73.255 99.436, 77.094 97.451 C 81.120 95.369, 83.994 90.384, 83.984 85.500 C 83.976 82.037, 83.509 81.198, 80.502 79.250 C 76.477 76.643, 70.820 76.364, 66.750 78.572" stroke="none" fill="black" fill-rule="evenodd"/>
</svg>