<svg xmlns="http://www.w3.org/2000/svg" width="256" height="256" viewBox="0 0 256 256" version="1.1">
	<path d="M 72.500 27.127 C 69.200 27.613, 60.741 28.377, 53.702 28.826 C 41.852 29.581, 40.714 29.831, 38.346 32.200 C 33.187 37.358, 39.347 42.164, 50 41.292 C 53.816 40.979, 56.086 41.281, 57.412 42.276 C 61.881 45.629, 55.862 48.581, 46.964 47.401 C 39.840 46.456, 29 51.711, 29 56.110 C 29 58.568, 33.995 59.392, 45.073 58.760 C 52.680 58.326, 54.146 58.504, 55.526 60.029 C 57.786 62.526, 55.924 63.456, 48.616 63.480 C 39.924 63.509, 38.872 65.291, 37.621 82.111 L 36.647 95.203 40.824 99.177 C 43.121 101.362, 45 102.735, 45 102.227 C 45 101.719, 48.155 101.211, 52.011 101.098 C 57.547 100.937, 59.147 101.219, 59.616 102.441 C 59.942 103.292, 60.565 103.769, 61 103.500 C 61.435 103.231, 62.054 103.698, 62.376 104.538 C 63.502 107.472, 55.693 109.001, 50.315 106.900 C 44.267 104.537, 42.128 104.718, 38.985 107.861 C 35.583 111.263, 35.373 112.230, 37.557 114.414 C 38.838 115.695, 40.701 115.857, 48.088 115.333 C 54.529 114.876, 57.738 115.057, 59.453 115.975 C 61.818 117.240, 61.822 117.274, 59.918 119.318 C 58.860 120.454, 57.208 121.540, 56.247 121.732 C 52.434 122.491, 44.066 122.106, 42.155 121.083 C 37.661 118.678, 32.091 120.986, 30.532 125.900 C 29.991 127.604, 30.435 128.865, 32.273 130.844 C 38.181 137.203, 38.555 139.065, 35.606 147.456 C 31.834 158.192, 41.524 160.144, 47 149.751 C 48.992 145.970, 50.023 145.005, 52.073 145.003 C 54.109 145.001, 55.097 145.904, 56.810 149.333 C 59.654 155.029, 62.287 157.361, 64.928 156.523 C 66.068 156.161, 67 155.253, 67 154.504 C 67 151.908, 70.091 150, 74.321 149.985 C 76.620 149.976, 79 149.639, 79.612 149.235 C 80.981 148.330, 82.061 142.895, 81.978 137.331 C 81.929 134.038, 82.328 133.031, 83.873 132.540 C 88.420 131.097, 92.967 134.492, 92.158 138.727 C 91.668 141.285, 95.072 144.750, 98.645 145.330 C 100.613 145.649, 104.604 147.550, 107.514 149.554 C 113.975 154.004, 115.794 153.644, 119.260 147.230 C 122.686 140.888, 127.240 127.220, 127.166 123.500 C 127.133 121.850, 128.243 116.001, 129.633 110.503 C 131.615 102.661, 132.142 98.165, 132.074 89.648 C 132.027 83.676, 131.737 78.384, 131.430 77.886 C 131.122 77.389, 131.155 76.086, 131.503 74.991 C 132.288 72.518, 138.293 72.260, 143.588 74.472 L 147.112 75.945 146.418 89.339 C 145.943 98.494, 146.112 104.791, 146.951 109.239 C 147.983 114.710, 147.918 117.386, 146.541 126.046 C 144.845 136.716, 143.850 138.703, 136.532 146.038 C 132.492 150.087, 133.746 154.378, 140.155 158.428 C 142.515 159.919, 143.183 159.948, 146.155 158.686 C 152.315 156.070, 154.752 152.866, 155.518 146.379 C 155.899 143.146, 156.904 139.405, 157.749 138.067 C 158.780 136.435, 159.569 131.327, 160.145 122.567 C 161.194 106.597, 160.510 68.471, 159.107 64.782 C 157.405 60.304, 152.892 58.690, 144.095 59.411 C 137.561 59.946, 136.046 59.753, 133.250 58.031 C 131.463 56.930, 129.965 55.235, 129.923 54.265 C 129.881 53.294, 129.752 50.700, 129.637 48.500 C 129.522 46.300, 129.332 42.103, 129.214 39.173 C 129.037 34.776, 128.490 33.336, 126.077 30.923 C 122.777 27.623, 120.861 27.282, 118.558 29.585 C 117.249 30.894, 117.035 33.194, 117.327 42.835 C 117.522 49.251, 117.481 55.058, 117.237 55.739 C 116.994 56.421, 115.021 57.456, 112.853 58.040 C 109.973 58.815, 108.649 59.827, 107.935 61.800 C 106.172 66.674, 104.862 68.667, 103.420 68.667 C 102.639 68.667, 102 68.265, 102 67.774 C 102 67.284, 101.662 67.062, 101.250 67.282 C 100.838 67.503, 99.740 66.882, 98.811 65.902 C 97.219 64.224, 97.292 63.908, 100.086 60.392 L 103.050 56.662 100.360 53.854 C 97.174 50.528, 94.021 49.391, 84.155 48.009 C 80.115 47.443, 75.942 46.372, 74.882 45.630 C 72.986 44.302, 72.986 44.239, 74.853 41.933 C 76.485 39.918, 77.916 39.511, 85.022 39.044 C 94.146 38.444, 95.802 37.330, 94.612 32.590 C 94.129 30.665, 92.698 29.311, 89.715 27.957 C 85.185 25.901, 81.904 25.743, 72.500 27.127 M 81 62 C 81 62.550, 81.648 63, 82.441 63 C 83.234 63, 84.160 62.550, 84.500 62 C 84.840 61.450, 84.191 61, 83.059 61 C 81.927 61, 81 61.450, 81 62 M 51.200 74.200 C 49.581 75.819, 49.689 76.999, 51.655 79.171 C 52.565 80.177, 52.832 81, 52.249 81 C 51.665 81, 51.423 81.900, 51.710 83 C 51.998 84.100, 51.829 85, 51.335 85 C 49.826 85, 49.946 89.710, 51.486 90.989 C 53.263 92.463, 58.648 90.888, 58.215 89.020 C 58.058 88.343, 58.392 87.233, 58.956 86.553 C 59.521 85.873, 59.650 84.983, 59.243 84.576 C 58.836 84.169, 59.376 83.198, 60.443 82.418 C 61.600 81.572, 61.855 81, 61.074 81 C 60.313 81, 59.961 80.257, 60.232 79.220 C 60.710 77.394, 58.900 75, 57.042 75 C 56.469 75, 56 74.550, 56 74 C 56 72.607, 52.653 72.747, 51.200 74.200 M 107.419 75.030 C 101.613 76.800, 100.513 79.121, 100.389 89.856 C 100.328 95.160, 99.988 100.702, 99.634 102.171 C 99.279 103.640, 99.451 106.057, 100.016 107.542 C 101.082 110.345, 99.497 117, 97.764 117 C 96.441 117, 99.085 121.279, 101.659 123.304 C 104.677 125.678, 104.625 128.468, 101.493 132.190 C 98.665 135.551, 98.862 136.549, 102.491 137.243 C 106.493 138.008, 110.594 133.178, 112.433 125.532 C 112.826 123.900, 114.306 120.115, 115.723 117.120 C 117.968 112.374, 118.327 110.189, 118.520 100.088 C 118.642 93.714, 119.066 86.001, 119.461 82.948 C 120.027 78.583, 119.860 77.129, 118.680 76.149 C 116.622 74.441, 111.137 73.896, 107.419 75.030 M 77.896 76.892 C 75.207 77.346, 74.360 77.944, 74.558 79.250 C 74.704 80.213, 74.344 81, 73.759 81 C 73.173 81, 73.732 81.900, 75 83 L 77.306 85 73.903 85.007 L 70.500 85.013 73.500 87 C 75.892 88.584, 76.112 88.988, 74.583 88.993 C 71.901 89.003, 73.180 89.991, 76.627 90.573 C 78.207 90.840, 80.066 91.257, 80.759 91.501 C 83.390 92.427, 87 90.127, 87 87.525 C 87 86.136, 86.576 85, 86.057 85 C 85.539 85, 85.288 84.100, 85.500 83 C 85.712 81.900, 85.429 81, 84.871 81 C 84.313 81, 84.619 80.238, 85.551 79.306 C 87.143 77.714, 87.132 77.568, 85.373 76.876 C 83.260 76.046, 82.904 76.047, 77.896 76.892 M 73 101.969 C 73 102.501, 73.675 102.678, 74.500 102.362 C 75.325 102.045, 76 101.609, 76 101.393 C 76 101.177, 75.325 101, 74.500 101 C 73.675 101, 73 101.436, 73 101.969 M 77 102.929 C 77 104.678, 76.338 105.021, 72.750 105.136 C 70.412 105.211, 72.751 105.675, 77.946 106.168 C 83.142 106.660, 88.067 106.805, 88.890 106.489 C 91.495 105.489, 85.671 100.997, 81.794 101.015 C 79.371 101.027, 78.889 101.277, 79.971 101.961 C 80.780 102.473, 81.171 103.162, 80.840 103.493 C 80.509 103.824, 79.510 103.367, 78.619 102.476 C 77.127 100.984, 77 101.020, 77 102.929 M 73 116.101 C 73 116.595, 71.987 117.052, 70.750 117.116 C 68.797 117.217, 68.755 117.297, 70.429 117.724 C 71.490 117.994, 72.930 118.787, 73.628 119.485 C 75.152 121.009, 88.887 121.216, 90.750 119.744 C 92.827 118.101, 92.187 117.261, 88.250 116.458 C 82.597 115.306, 73 115.081, 73 116.101 M 46.635 134.072 L 43.880 136.240 45.940 138.159 C 47.073 139.214, 48 140.510, 48 141.039 C 48 141.568, 49.545 142, 51.433 142 C 53.987 142, 55.028 141.488, 55.500 140 C 55.849 138.900, 56.554 138, 57.067 138 C 57.580 138, 58 137.475, 58 136.833 C 58 136.192, 57.703 135.964, 57.339 136.327 C 56.976 136.691, 56.178 135.978, 55.566 134.744 C 54.057 131.700, 50.036 131.398, 46.635 134.072 M 67.333 136.500 C 67.333 137.325, 67.885 138, 68.560 138 C 69.234 138, 70.045 137.325, 70.362 136.500 C 70.742 135.509, 70.326 135, 69.135 135 C 68.144 135, 67.333 135.675, 67.333 136.500" stroke="none" fill="black" fill-rule="evenodd"/>
</svg>