<svg xmlns="http://www.w3.org/2000/svg" width="256" height="256" viewBox="0 0 256 256" version="1.1">
	<path d="M 50.323 28.765 C 49.125 28.961, 46.200 30.808, 43.823 32.871 C 41.445 34.934, 38.070 37.198, 36.322 37.902 C 27.809 41.333, 28.564 46.026, 37.591 45.789 C 44.365 45.611, 47.479 48.083, 48.313 54.298 C 48.680 57.033, 49.674 59.095, 51.187 60.260 C 58.157 65.626, 58.329 65.875, 56.714 68.271 C 55.235 70.464, 53.959 70.708, 49 69.745 C 45.318 69.029, 41.284 71.522, 39.056 75.891 C 36.782 80.347, 35.706 91.857, 37.170 96.057 C 38.196 99.001, 44.292 104.374, 45.377 103.290 C 45.719 102.947, 46 103.192, 46 103.833 C 46 104.475, 45.408 105, 44.685 105 C 43.962 105, 42.600 106.615, 41.659 108.589 C 40.013 112.041, 40.025 112.304, 41.971 115.453 C 44.201 119.061, 46.659 119.490, 49.395 116.750 C 50.356 115.788, 51.786 114.950, 52.571 114.889 C 58.609 114.419, 58.485 114.340, 58.814 118.909 C 58.987 121.308, 58.667 123.733, 58.104 124.296 C 57.541 124.859, 54.872 125.242, 52.174 125.146 C 48.745 125.025, 46.870 125.452, 45.948 126.563 C 44.849 127.886, 44.869 128.304, 46.064 129.061 C 46.854 129.561, 48.456 129.976, 49.625 129.985 C 54.876 130.023, 58.219 131.420, 60.635 134.588 C 65.360 140.782, 61.207 144.721, 52.511 142.294 C 44.959 140.187, 44.833 140.180, 40.004 141.616 C 34.781 143.168, 33.090 145.022, 33.750 148.471 C 34.598 152.909, 35.862 153.182, 55.210 153.112 C 95.818 152.965, 107.696 152.429, 110.453 150.623 C 116.532 146.640, 121.844 135.178, 123.475 122.529 C 123.828 119.794, 124.748 116.194, 125.521 114.529 C 126.293 112.863, 127.122 110.375, 127.362 109 C 127.602 107.625, 128.343 103.575, 129.007 100 C 130.252 93.304, 130.450 84.489, 129.459 79.874 C 128.600 75.873, 131.305 73.707, 136.139 74.523 C 138.265 74.883, 141.161 75.304, 142.573 75.459 C 143.985 75.614, 145.582 76.182, 146.122 76.722 C 146.945 77.545, 148.121 99.002, 148.277 116.030 C 148.324 121.247, 143.611 136.895, 140.566 141.624 C 139.430 143.390, 137.478 145.316, 136.230 145.905 C 133.589 147.150, 131.900 150.901, 132.664 153.824 C 132.980 155.030, 134.864 156.529, 137.283 157.496 C 141.067 159.010, 141.686 159.010, 145.673 157.487 C 151.531 155.250, 153.999 151.880, 154.004 146.115 C 154.006 143.438, 154.768 140.240, 155.818 138.500 C 159.920 131.705, 161.031 120.703, 161.156 85.643 C 161.249 59.520, 162.064 60.877, 145.783 60.044 C 139.577 59.726, 133.493 58.898, 132.262 58.204 C 129.959 56.906, 128.639 53.631, 129.098 50.358 C 129.631 46.565, 127.763 33.424, 126.383 31.250 C 124.588 28.424, 119.520 28.161, 118.096 30.820 C 117.547 31.846, 117.326 37.354, 117.590 43.442 C 117.847 49.384, 117.822 54.986, 117.534 55.892 C 117.247 56.798, 115.546 58.330, 113.756 59.297 C 111.947 60.273, 108.759 63.749, 106.582 67.116 C 102.797 72.972, 102.543 73.161, 99.082 72.672 C 97.112 72.393, 91.966 71.695, 87.647 71.120 C 80.044 70.107, 77 68.854, 77 66.738 C 77 64.770, 80.544 63.063, 84.693 63.032 C 89.358 62.996, 92 60.499, 92 56.123 C 92 54.586, 93.473 52.289, 96 49.885 C 98.200 47.792, 100 45.257, 100 44.250 C 100 41.542, 86.670 28.995, 83.822 29.022 C 81.131 29.048, 78.074 31.366, 75.712 35.174 C 72.428 40.467, 66.752 39.702, 59.500 32.987 C 55.120 28.931, 53.599 28.232, 50.323 28.765 M 65 51.500 C 63.950 52.765, 64.146 53, 66.255 53 C 67.630 53, 69.315 52.325, 70 51.500 C 71.050 50.235, 70.854 50, 68.745 50 C 67.370 50, 65.685 50.675, 65 51.500 M 107.041 77.619 C 103.068 80.962, 101.112 84.767, 101.147 89.085 C 101.262 103.447, 100.816 110.245, 99.447 115 C 98.576 118.025, 97.508 122.525, 97.074 125 C 96.640 127.475, 95.954 130.270, 95.550 131.212 C 94.361 133.982, 88.606 135.354, 84.361 133.878 C 82.783 133.329, 81.645 133.749, 80.017 135.482 C 77.819 137.822, 77.818 137.832, 79.840 138.915 C 80.956 139.512, 86.194 140, 91.480 140 C 100.265 140, 101.295 139.796, 103.467 137.624 C 104.774 136.317, 106.762 132.272, 107.886 128.634 C 109.009 124.996, 110.805 120.328, 111.877 118.260 C 114.342 113.501, 116.732 100.450, 117.540 87.330 C 118.126 77.813, 118.037 77.090, 116.149 76.080 C 112.951 74.368, 110.390 74.801, 107.041 77.619 M 51.106 81.901 C 47.602 85.174, 47.324 86.589, 49.557 89.777 C 51.877 93.090, 56.890 92.768, 60.422 89.081 C 63.354 86.021, 63.281 85.254, 59.677 81.250 C 56.978 78.252, 54.839 78.414, 51.106 81.901 M 74.750 83.217 C 72.741 85.731, 72.588 86.627, 74.016 87.510 C 74.575 87.856, 74.796 88.521, 74.507 88.989 C 73.719 90.263, 80.746 92.281, 83.535 91.581 C 86.552 90.823, 89.625 85.520, 87.746 84.312 C 81.580 80.347, 77.330 79.988, 74.750 83.217 M 48.233 102.474 C 47.180 103.702, 47.500 104.460, 50.132 106.975 C 53.859 110.537, 57.926 110.949, 59.796 107.955 C 60.873 106.231, 60.793 105.557, 59.287 103.672 C 57.103 100.937, 50.193 100.188, 48.233 102.474 M 74.400 119.364 C 74.400 121.490, 74.946 121.847, 78.884 122.290 C 81.351 122.568, 83.961 122.569, 84.684 122.291 C 86.649 121.537, 86.272 119.884, 84 119.290 C 82.900 119.002, 82 118.457, 82 118.079 C 82 117.701, 80.290 117.290, 78.200 117.167 C 74.785 116.965, 74.400 117.188, 74.400 119.364" stroke="none" fill="black" fill-rule="evenodd"/>
</svg>