<svg xmlns="http://www.w3.org/2000/svg" width="256" height="256" viewBox="0 0 256 256" version="1.1">
	<path d="M 78 29.117 C 76.075 29.619, 70.675 30.448, 66 30.960 C 40.370 33.768, 36.500 34.820, 36.500 38.984 C 36.500 42.431, 40.130 43.968, 48.316 43.985 C 56.250 44.002, 59 45.146, 59 48.427 C 59 51.507, 55.834 52.302, 47.025 51.434 C 39.493 50.692, 35.128 52.100, 30.871 56.645 L 28.500 59.177 31.380 61.479 C 32.963 62.746, 36.932 64.349, 40.200 65.042 C 45.203 66.104, 46.643 66.074, 49.320 64.850 C 52.715 63.299, 53.539 63.247, 56.190 64.420 C 57.606 65.047, 57.698 65.600, 56.753 67.834 C 55.122 71.688, 53.097 73.122, 50.928 71.961 C 49.940 71.433, 47.549 71, 45.614 71 C 42.598 71, 41.677 71.609, 39.160 75.267 C 36.238 79.514, 36.180 79.818, 35.781 93 C 35.492 102.557, 36.651 110.037, 38.890 113.066 C 40.940 115.837, 41.018 116.323, 39.664 117.826 C 37.005 120.777, 36.687 124.392, 38.851 127.063 C 40.554 129.164, 41.700 129.510, 47.163 129.569 C 55.903 129.665, 58.600 130.620, 60.055 134.132 C 62.669 140.444, 57.811 144.595, 49.921 142.789 C 46.089 141.912, 44.818 142.075, 40.813 143.958 C 35.255 146.570, 34.180 148.625, 36.932 151.377 C 38.757 153.201, 40.261 153.388, 53.221 153.399 C 63.436 153.407, 71.111 152.787, 80.187 151.219 C 90.385 149.457, 93.900 149.222, 98.110 150.021 C 100.991 150.567, 103.551 151.218, 103.801 151.467 C 104.621 152.288, 109.443 149.230, 112.682 145.835 C 116.799 141.519, 121.961 127.458, 121.988 120.485 C 121.995 118.827, 122.860 115.865, 123.911 113.904 C 124.963 111.942, 126.073 108.799, 126.378 106.919 C 126.683 105.038, 127.423 101.025, 128.021 98 C 128.657 94.786, 128.838 88.915, 128.458 83.874 C 127.841 75.696, 127.924 75.167, 130.055 73.674 C 132.048 72.278, 132.695 72.264, 135.773 73.550 C 137.682 74.347, 140.259 75, 141.500 75 C 142.740 75, 144.245 75.590, 144.843 76.311 C 145.501 77.104, 146.179 85.795, 146.556 98.288 L 147.181 118.953 143.996 128.726 C 141.054 137.756, 140.363 138.927, 134.906 144.112 C 131.658 147.199, 129 150.428, 129 151.289 C 129 153.301, 133.159 156.567, 137.577 158.025 C 144.944 160.457, 153 153.197, 153 144.127 C 153 142.568, 154.125 138.192, 155.500 134.401 C 156.875 130.610, 158 125.479, 158 122.998 C 158 120.517, 158.401 117.088, 158.891 115.379 C 159.976 111.599, 160.481 80.190, 159.613 70.529 C 159.269 66.696, 158.428 63.007, 157.744 62.332 C 155.693 60.309, 148.914 59.283, 140.184 59.675 C 132.614 60.015, 131.764 59.855, 129.597 57.688 C 127.513 55.603, 127.155 54.027, 126.503 44.049 C 125.911 34.985, 125.396 32.396, 123.883 30.883 C 121.588 28.588, 119.651 28.492, 117.573 30.570 C 115.112 33.031, 114.693 36.405, 115.692 45.727 C 116.757 55.658, 116.085 57.050, 109.315 58.929 C 103.553 60.530, 102.330 60.284, 98.253 56.709 C 93.234 52.306, 89.918 51.003, 83.703 50.986 C 76.728 50.968, 74.191 50.176, 73.430 47.781 C 72.376 44.458, 75.103 42.924, 83.490 42.123 C 89.883 41.512, 91.608 40.968, 93.137 39.079 C 95.656 35.969, 95.496 34.742, 92.099 31.106 C 88.971 27.757, 85.237 27.231, 78 29.117 M 75.319 64.781 C 74.457 65.330, 74.644 66.203, 76.011 68.016 C 77.664 70.208, 78.712 70.522, 84.931 70.691 C 90.862 70.852, 92.535 71.306, 95.489 73.560 C 99.370 76.520, 99.146 75.212, 99.510 97 C 99.679 107.066, 98.581 110.996, 94.969 113.252 C 92.947 114.514, 92.263 117, 93.938 117 C 94.454 117, 96.591 119.691, 98.688 122.979 C 100.785 126.268, 102.950 128.963, 103.500 128.969 C 104.433 128.980, 111 116.014, 111 114.162 C 111 113.700, 112.139 109.703, 113.532 105.279 C 115.898 97.761, 116.331 90.052, 115.080 77.714 C 115.036 77.282, 113.004 76.073, 110.564 75.027 C 108.124 73.981, 104.899 71.747, 103.398 70.063 C 100.956 67.322, 100.070 67, 94.957 67 C 91.815 67, 87.629 66.325, 85.654 65.500 C 81.793 63.887, 77.226 63.569, 75.319 64.781 M 50.585 83.182 C 49.381 84.901, 49.310 85.696, 50.248 86.932 C 52.401 89.764, 55 92.095, 55 91.192 C 55 90.705, 55.900 89.268, 57 88 C 58.100 86.732, 59 84.638, 59 83.347 C 59 81.339, 58.503 81, 55.557 81 C 53.151 81, 51.653 81.658, 50.585 83.182 M 75 83.393 C 75 86.007, 76.645 87, 80.975 87 C 83.912 87, 85.353 85.085, 84.362 82.500 C 83.971 81.482, 82.375 81, 79.393 81 C 75.426 81, 75 81.232, 75 83.393 M 53.166 94.586 C 52.432 95.416, 51.227 97.261, 50.488 98.686 C 49.307 100.962, 49.376 101.593, 51.057 103.888 C 53.509 107.237, 52.768 109.840, 48.462 113 C 46.588 114.375, 45.043 116.022, 45.028 116.661 C 45.012 117.299, 47.036 118.807, 49.524 120.011 L 54.047 122.201 57.596 119.495 C 61.962 116.164, 62.663 114.520, 60.597 112.454 C 59.719 111.576, 59 110.471, 59 110 C 59 109.529, 58.293 108.436, 57.429 107.571 C 56 106.143, 56.005 106, 57.488 106 C 58.384 106, 58.871 105.601, 58.570 105.113 C 58.269 104.626, 58.648 103.707, 59.413 103.072 C 61.330 101.481, 59.971 96.806, 57.186 95.411 C 55.990 94.812, 55.309 94.024, 55.673 93.661 C 56.036 93.297, 55.921 93.017, 55.417 93.038 C 54.913 93.059, 53.900 93.755, 53.166 94.586 M 74.223 97.007 C 70.905 100.098, 72.360 102.125, 77.699 101.849 C 80.863 101.685, 82.565 101.031, 83.573 99.592 C 84.851 97.767, 84.769 97.442, 82.746 96.319 C 79.474 94.501, 76.669 94.728, 74.223 97.007 M 82 114 C 81.175 114.533, 78.813 114.976, 76.750 114.985 C 74.433 114.994, 72.994 115.478, 72.985 116.250 C 72.974 117.150, 72.764 117.181, 72.235 116.361 C 71.702 115.535, 71.145 115.604, 70.211 116.611 C 69.141 117.763, 69.259 118, 70.902 118 C 71.991 118, 73.170 118.466, 73.522 119.036 C 74.269 120.244, 81.271 120.058, 85.250 118.725 C 87.002 118.139, 88 117.093, 88 115.843 C 88 114.765, 87.550 114.160, 87 114.500 C 86.450 114.840, 86 114.641, 86 114.059 C 86 112.743, 83.991 112.713, 82 114 M 79.567 131.892 C 79.179 132.519, 78.534 132.830, 78.133 132.582 C 77.732 132.335, 76.751 132.545, 75.952 133.051 C 74.956 133.681, 74.892 133.974, 75.750 133.985 C 76.438 133.993, 77 134.872, 77 135.939 C 77 137.475, 77.951 138.020, 81.578 138.564 C 90.812 139.949, 100.246 137.272, 100.838 133.100 C 101.120 131.115, 100.870 130.852, 99.338 131.523 C 97.074 132.514, 95.288 132.514, 86.886 131.528 C 82.254 130.984, 80.060 131.093, 79.567 131.892" stroke="none" fill="black" fill-rule="evenodd"/>
</svg>