<svg xmlns="http://www.w3.org/2000/svg" width="256" height="256" viewBox="0 0 256 256" version="1.1">
	<path d="M 59 28.793 C 53.848 30.400, 52.535 36.086, 56.004 41.774 C 59.519 47.540, 58.143 51, 52.334 51 C 50.538 51, 47.447 50.227, 45.467 49.283 C 42.253 47.750, 41.585 47.723, 39.263 49.033 C 35.601 51.097, 34.349 55.357, 36.458 58.577 C 39.070 62.562, 42.683 63.501, 48.134 61.608 C 59.726 57.585, 63.760 61.600, 61.589 75 C 60.095 84.220, 59.144 85.893, 53.879 88.561 C 47.996 91.542, 46.034 93.392, 39.727 101.898 C 34.740 108.625, 34.448 109.366, 33.573 117.500 C 33.278 120.250, 32.752 123.963, 32.405 125.750 C 31.823 128.741, 31.979 129, 34.356 129 C 36.398 129, 37.686 127.831, 40.514 123.411 C 45.182 116.113, 48.637 113, 52.068 113 C 54.332 113, 55.028 113.601, 55.833 116.250 C 57.334 121.192, 58.183 139.789, 57.007 141.987 C 56.452 143.024, 55.761 145.754, 55.472 148.054 C 54.158 158.514, 68.026 168.999, 70.443 159.372 C 70.749 158.152, 70.569 152.994, 70.043 147.911 C 69.517 142.827, 69.341 138.258, 69.651 137.756 C 70.695 136.066, 70.188 114.788, 69.077 113.677 C 68.485 113.085, 68 110.890, 68 108.800 C 68 105.160, 68.140 105, 71.333 105 C 73.245 105, 74.737 105.533, 74.832 106.250 C 74.923 106.938, 75.180 109.469, 75.403 111.876 C 75.911 117.375, 78.383 119.936, 83.490 120.255 C 86.950 120.471, 87.584 120.152, 88.854 117.558 C 90.053 115.106, 90.078 114.105, 89.004 111.558 C 88.294 109.876, 87.516 106.694, 87.275 104.488 C 86.890 100.963, 87.264 100.035, 90.355 96.853 C 92.785 94.350, 93.711 92.611, 93.349 91.228 C 92.772 89.022, 87.688 86.438, 81.500 85.207 C 78.652 84.640, 77.524 83.920, 77.583 82.705 C 77.629 81.767, 77.742 78.730, 77.833 75.955 C 77.963 72.044, 78.562 70.347, 80.500 68.409 C 81.875 67.034, 83 65.564, 83 65.142 C 83 64.720, 84.237 63.238, 85.750 61.850 C 88.196 59.604, 89.411 59.312, 96.739 59.207 C 103.593 59.108, 105.132 59.378, 105.900 60.813 C 108.908 66.433, 102.421 110.374, 97.021 120.958 C 95.910 123.137, 95 125.619, 95 126.474 C 95 127.328, 94.574 128.809, 94.053 129.764 C 92.304 132.972, 90.186 141.465, 90.106 145.588 C 90.046 148.677, 90.615 150.229, 92.428 151.933 C 95.673 154.981, 98.480 153.940, 101.153 148.700 C 102.319 146.414, 104.329 142.949, 105.620 140.998 C 107.698 137.858, 109.129 132.059, 111.664 116.500 C 111.933 114.850, 113.072 109.450, 114.194 104.500 C 115.317 99.550, 116.444 93.475, 116.698 91 C 116.953 88.525, 117.833 84.025, 118.655 81 C 119.477 77.975, 120.735 73.025, 121.451 70 C 123.372 61.893, 123.906 61.001, 126.857 60.989 C 128.311 60.983, 131.709 60.308, 134.409 59.489 C 145.399 56.155, 146.777 57.854, 145.068 72.628 C 144.440 78.058, 143.279 91.010, 142.488 101.410 C 141.697 111.811, 140.618 121.711, 140.090 123.410 C 139.563 125.110, 138.622 129.075, 138 132.223 L 136.869 137.946 130.885 140.632 C 120.816 145.151, 120.415 149.908, 129.678 154.925 C 136.088 158.397, 139.523 158.742, 142.647 156.228 C 145.304 154.089, 148.997 146.867, 149.008 143.790 C 149.012 142.530, 149.888 138.631, 150.954 135.124 C 152.020 131.618, 153.170 124.193, 153.509 118.624 C 153.848 113.056, 155.029 101.300, 156.135 92.500 C 158.418 74.325, 158.804 48.860, 156.861 44.594 C 155.142 40.822, 152.395 40.535, 142.037 43.045 C 134.844 44.788, 131.355 45.123, 125.696 44.617 C 121.738 44.262, 113.550 43.728, 107.500 43.430 C 94.671 42.797, 92.432 43.572, 90.481 49.324 C 89.768 51.428, 88.917 53.416, 88.591 53.743 C 88.264 54.069, 85.860 53.781, 83.249 53.102 C 80.637 52.423, 77.298 51.626, 75.829 51.332 C 71.317 50.427, 69.270 47.205, 68.798 40.264 C 68.477 35.538, 67.824 33.441, 66.101 31.608 C 63.625 28.972, 61.336 28.065, 59 28.793 M 69.750 87.217 C 67.304 90.278, 67.548 91, 71.025 91 C 73.351 91, 74.275 90.408, 75.025 88.435 C 76.330 85.003, 76.328 84.998, 73.750 85.013 C 72.513 85.021, 70.713 86.012, 69.750 87.217" stroke="none" fill="black" fill-rule="evenodd"/>
</svg>