<svg xmlns="http://www.w3.org/2000/svg" width="256" height="256" viewBox="0 0 256 256" version="1.1">
	<path d="M 62.635 31.073 C 59.372 33.639, 59.148 37.995, 62.068 42.095 C 66.430 48.221, 61.315 52.245, 49.722 51.809 C 38.342 51.381, 33.010 54.815, 35.209 61.156 C 36.887 65.993, 41.742 66.891, 58.432 65.449 C 63.192 65.037, 68.390 65.203, 71.432 65.863 C 74.219 66.468, 81.675 67.033, 88 67.119 C 94.801 67.212, 101.473 67.876, 104.328 68.744 C 108.632 70.053, 109.607 70.041, 113.328 68.633 C 119.342 66.355, 131.638 63.940, 133.720 64.627 C 134.699 64.950, 136.904 65.834, 138.619 66.592 C 141.302 67.777, 142.492 67.756, 147.119 66.440 C 154.561 64.324, 156.603 63.167, 157.894 60.333 C 159.157 57.561, 158.072 54.634, 155.227 53.137 C 154.277 52.637, 149.675 51.921, 145 51.546 C 129.840 50.328, 126.707 48.049, 129.120 39.995 C 131.285 32.768, 127.897 28.385, 121.501 30.138 C 117.070 31.353, 115.928 33.524, 116.613 39.425 C 117.108 43.685, 116.851 44.945, 115.013 47.270 C 110.873 52.507, 107.799 53.349, 95.534 52.606 C 81.984 51.786, 77.690 50.693, 75.105 47.406 C 73.533 45.408, 73.306 44.324, 74.051 42.365 C 75.842 37.656, 75.186 34.334, 71.923 31.589 C 68.203 28.458, 66.107 28.342, 62.635 31.073 M 139.039 72.189 C 137.810 73.508, 137 75.738, 137 77.802 C 137 79.686, 136.247 85.880, 135.327 91.566 C 133.755 101.277, 133.757 102.135, 135.357 105.702 C 136.726 108.754, 137.016 112.052, 136.836 122.490 C 136.618 135.030, 136.522 135.559, 134.055 137.750 C 125.184 145.630, 125.015 146.947, 131.950 154.142 C 136.545 158.909, 137.161 159.235, 140.539 158.687 C 144.833 157.991, 146.840 156.514, 148.213 153.041 C 148.801 151.552, 149.324 135.591, 149.475 114.500 C 149.719 80.299, 149.635 78.337, 147.777 75.237 C 146.071 72.391, 143.253 70, 141.605 70 C 141.315 70, 140.160 70.985, 139.039 72.189 M 107.882 71.750 C 107.816 72.162, 107.818 72.841, 107.884 73.257 C 109.164 81.281, 108.962 86.023, 107.143 90.638 C 104.390 97.621, 104.066 101.654, 105.785 107.500 C 106.594 110.250, 107.183 115.143, 107.094 118.374 C 106.894 125.620, 108.563 128.508, 113.487 129.432 C 121.291 130.896, 122.848 128.422, 120.474 118.333 C 119.590 114.575, 118.973 108.350, 119.104 104.500 C 119.716 86.414, 118.780 81.041, 114.164 76.144 C 112.424 74.299, 111 72.386, 111 71.894 C 111 70.817, 108.050 70.681, 107.882 71.750 M 67.873 76.429 C 67.528 76.791, 65.953 77.304, 64.373 77.567 C 52.086 79.617, 50.957 80.077, 47.918 84.271 C 43.844 89.896, 43.615 91.420, 45.040 103.447 C 46.021 111.720, 46.027 115.277, 45.072 120.223 C 42.936 131.276, 39.745 144.469, 38.958 145.500 C 38.539 146.050, 37.685 148.411, 37.060 150.746 C 35.193 157.730, 38.179 160.734, 44.203 157.932 C 47.660 156.324, 49.602 153.106, 51.426 145.960 C 52.334 142.407, 53.919 138.652, 54.950 137.615 C 56.051 136.509, 59.649 135.220, 63.662 134.494 C 67.423 133.814, 72.603 132.666, 75.173 131.942 C 81.554 130.145, 83 131.399, 83 138.728 C 83 143.118, 82.501 144.804, 80.500 147.182 C 79.125 148.816, 78 151.234, 78 152.554 C 78 157.493, 87.696 160.395, 91.797 156.684 C 95.340 153.477, 96.141 147.842, 95.919 127.667 C 95.803 117.125, 96.049 104.984, 96.466 100.686 C 97.047 94.693, 96.870 91.897, 95.706 88.686 C 94.872 86.384, 93.917 83.275, 93.583 81.779 C 93.249 80.282, 92.146 78.613, 91.130 78.070 C 88.941 76.898, 68.780 75.476, 67.873 76.429 M 63 88.813 C 59.289 89.375, 58 90.863, 58 94.587 C 58 98.942, 59.405 99.584, 70.589 100.340 C 81.522 101.080, 83.634 100.161, 82.531 95.143 C 82.144 93.377, 80.853 91.313, 79.663 90.555 C 77.467 89.158, 67.562 88.122, 63 88.813 M 70.500 110.492 C 63.023 112.392, 60.233 113.697, 59.093 115.826 C 57.251 119.269, 60.575 120.965, 69.722 121.249 C 76.336 121.455, 78.148 121.174, 79.789 119.690 C 82.410 117.320, 83.068 113.542, 81.301 111.019 C 79.712 108.751, 77.730 108.655, 70.500 110.492" stroke="none" fill="black" fill-rule="evenodd"/>
</svg>