<svg xmlns="http://www.w3.org/2000/svg" width="256" height="256" viewBox="0 0 256 256" version="1.1">
	<path d="M 63.436 26.176 C 61.751 27.360, 57.804 32.193, 54.666 36.915 C 47.336 47.946, 45.640 49.804, 38.713 54.403 C 32.617 58.449, 31.039 61.391, 32.606 65.787 C 33.984 69.650, 36.359 70.695, 40.225 69.141 C 47.592 66.178, 51.025 65.845, 54.860 67.720 C 58.969 69.729, 60.376 73, 57.132 73 C 56.024 73, 54.840 73.450, 54.500 74 C 53.650 75.375, 43.991 75.257, 38.562 73.805 C 30.346 71.608, 26.034 76.522, 31.629 81.707 C 34.044 83.945, 34.206 84.588, 33.620 89.577 C 33.073 94.228, 33.321 95.549, 35.345 98.755 C 36.644 100.815, 38.058 103.625, 38.485 105 C 40.731 112.225, 44.890 114.646, 55.495 114.905 C 67.948 115.209, 69.627 113.599, 68.951 102 C 68.710 97.875, 68.510 90.900, 68.507 86.500 C 68.500 78.631, 68.151 77.567, 64.221 73.431 C 62.468 71.586, 65.993 69.412, 72 68.634 C 81.639 67.385, 87.126 70.946, 81.311 74.678 C 77.175 77.332, 73.342 81, 74.705 81 C 75.509 81, 75.889 83.340, 75.889 88.289 C 75.889 92.298, 76.364 96.827, 76.944 98.354 C 77.525 99.881, 78 102.390, 78 103.930 C 78 107.704, 81.393 111.773, 86.115 113.663 C 90.585 115.451, 90.760 116.053, 87.929 119.882 C 86.791 121.422, 85.417 124.666, 84.878 127.091 C 83.119 135, 75.400 143.440, 70.983 142.285 C 67.317 141.327, 63.793 136.341, 63.235 131.326 C 62.516 124.862, 60.733 122.438, 55.347 120.603 C 51.349 119.240, 50.573 119.234, 48.570 120.546 C 45.997 122.232, 44.001 126.052, 43.997 129.297 C 43.996 130.509, 42.421 134.110, 40.497 137.300 C 38.574 140.490, 37 143.303, 37 143.550 C 37 143.798, 36.100 144.900, 35 146 C 33.021 147.979, 32.336 153.105, 33.607 156.418 C 34.755 159.410, 41.833 157.353, 44.300 153.310 C 46.077 150.398, 50.509 149.298, 59.820 149.456 L 69.140 149.615 71.345 153.557 C 74.890 159.895, 79.709 158.948, 85.443 150.785 C 86.905 148.703, 87.718 148.523, 94.588 148.758 C 99.852 148.938, 102.532 148.611, 103.469 147.674 C 105.117 146.026, 104.916 138.805, 103.207 138.236 C 99.931 137.144, 98.896 134.751, 99.364 129.353 C 99.768 124.688, 99.497 123.555, 97.372 121.030 C 96.019 119.422, 94.032 117.828, 92.956 117.486 C 91.880 117.145, 91 116.419, 91 115.874 C 91 115.328, 91.412 115.136, 91.915 115.447 C 92.418 115.758, 92.997 115.510, 93.202 114.895 C 93.410 114.271, 96.368 113.655, 99.905 113.499 C 105.136 113.268, 106.676 112.779, 108.775 110.679 C 112.123 107.331, 113.241 99.304, 111.961 87.806 C 110.388 73.676, 108.937 71.863, 100.928 74.019 C 91.359 76.596, 86.610 69.621, 94.142 64.053 C 96.772 62.109, 97.864 61.933, 103.548 62.542 C 109.625 63.193, 110.025 63.106, 110.820 60.956 C 111.283 59.705, 111.458 57.617, 111.209 56.315 C 110.726 53.787, 104.134 47.525, 100 45.668 C 98.625 45.050, 93.072 40.710, 87.660 36.022 C 82.248 31.335, 76.724 26.907, 75.384 26.183 C 71.049 23.839, 66.762 23.837, 63.436 26.176 M 150.071 32.425 C 147.887 34.749, 147.795 35.522, 147.851 51.175 C 147.916 69.258, 148.612 98.534, 149.524 121.500 L 150.119 136.500 147.519 139.250 C 146.089 140.762, 144.375 142.013, 143.710 142.028 C 143.044 142.043, 141.236 143.344, 139.691 144.920 C 136.971 147.694, 136.929 147.894, 138.357 151.311 C 140.075 155.423, 142.541 157, 147.253 157 C 152.524 157, 160.812 154.198, 161.362 152.229 C 162.046 149.780, 163.514 131.095, 163.305 127.500 C 161.923 103.761, 161.173 84.689, 161.320 77 C 161.511 66.941, 160.372 43.053, 159.401 36.744 C 158.853 33.187, 156.042 30, 153.452 30 C 152.845 30, 151.324 31.091, 150.071 32.425 M 69.613 41.250 C 66.837 43.750, 63 50.275, 63 52.495 C 63 54.955, 66.568 56, 74.966 56 C 80.761 56, 83.207 55.624, 83.571 54.676 C 84.041 53.450, 79.219 43.173, 76.811 40.273 C 75.220 38.355, 72.403 38.737, 69.613 41.250 M 120.171 44.750 C 116.538 51.823, 117.231 85.401, 121.278 98.326 C 123.476 105.349, 125.573 107.588, 128.947 106.517 C 131.898 105.580, 132.869 98.244, 132.521 79.500 C 132.242 64.483, 131.906 61.581, 129.640 54.620 C 126.199 44.050, 122.508 40.202, 120.171 44.750 M 47.683 87.559 C 46.683 88.932, 45.615 91.597, 45.309 93.481 C 44.842 96.362, 45.238 97.392, 47.800 99.954 C 51.477 103.631, 53.436 103.790, 55.539 100.582 C 60.797 92.556, 53.206 79.972, 47.683 87.559 M 90.354 88.555 C 88.605 90.304, 88.055 91.750, 88.382 93.740 C 88.632 95.258, 88.873 96.820, 88.918 97.211 C 89.033 98.209, 93.206 102, 94.189 102 C 96.077 102, 99 97.776, 99 95.047 C 99 87.711, 94.544 84.365, 90.354 88.555" stroke="none" fill="black" fill-rule="evenodd"/>
</svg>