<svg xmlns="http://www.w3.org/2000/svg" width="256" height="256" viewBox="0 0 256 256" version="1.1">
	<path d="M 145.596 33.894 C 144.047 35.606, 143.758 38.099, 143.536 51.692 C 143.394 60.387, 142.972 68.210, 142.598 69.078 C 142.224 69.945, 142.472 71.970, 143.148 73.578 C 143.858 75.266, 144.510 82.410, 144.692 90.500 C 145.538 128.234, 145.574 133.634, 144.990 135.379 C 144.644 136.413, 142.600 138.454, 140.448 139.915 C 138.297 141.376, 135.857 143.782, 135.027 145.261 C 133.655 147.706, 133.686 148.262, 135.378 151.403 C 138.556 157.304, 144.336 158.307, 152.591 154.390 C 154.559 153.456, 156.192 151.853, 156.421 150.631 C 157.990 142.260, 159.078 125.738, 158.519 118.775 C 158.153 114.224, 157.657 99.925, 157.417 87 C 156.418 33.263, 156.356 32.781, 150.442 32.201 C 148.394 32.001, 146.808 32.554, 145.596 33.894 M 39.835 39.933 C 36.341 42.762, 37.977 46.646, 43.260 48.063 C 51.621 50.307, 52 50.605, 52 54.949 C 52 57.461, 50.816 61.267, 48.804 65.220 C 46.280 70.180, 45.634 72.642, 45.731 76.930 C 45.953 86.699, 48.439 88.405, 60.812 87.283 C 65.655 86.844, 67.212 87.069, 68.545 88.402 C 69.888 89.745, 70.007 90.600, 69.153 92.785 C 68.570 94.278, 67.960 96.587, 67.797 97.916 C 67.601 99.513, 66.144 101.125, 63.500 102.670 C 60.182 104.609, 58.605 104.909, 54.250 104.432 C 48.424 103.793, 46.583 104.829, 45.438 109.392 C 44.297 113.937, 46.353 115.176, 53.910 114.501 C 66.505 113.375, 70.136 116.687, 69.581 128.796 C 69.229 136.483, 68.345 137.432, 60.118 138.949 C 44.931 141.751, 41.582 143.614, 42.200 148.915 C 42.671 152.948, 45.999 153.818, 58.121 153.079 C 67.601 152.501, 69.535 152.043, 76.121 148.810 C 80.741 146.543, 86.247 144.771, 90.846 144.071 C 102.308 142.325, 106.515 139.275, 105.812 133.219 C 105.362 129.348, 101.563 128.277, 93.899 129.860 C 88.630 130.948, 87.505 130.906, 85.418 129.538 C 84.095 128.671, 83.084 127.633, 83.170 127.231 C 83.257 126.829, 82.989 125.295, 82.574 123.822 C 81.644 120.520, 82.586 117.285, 84.818 116.120 C 85.743 115.636, 89.416 114.938, 92.980 114.567 C 102.011 113.628, 105.912 109.566, 102.614 104.534 C 101.335 102.582, 99.871 102.040, 94.281 101.451 C 86.010 100.578, 83.140 99.573, 82.328 97.265 C 81.986 96.294, 80.579 94.279, 79.201 92.786 C 75.310 88.573, 77.364 87, 86.756 87 C 96.967 87, 101.361 85.568, 103.230 81.630 C 105.035 77.827, 104.083 75.158, 100.108 72.877 C 95.828 70.420, 93.229 57.914, 96.350 54.793 C 97.092 54.051, 100.017 52.812, 102.850 52.041 C 106.634 51.011, 108 50.159, 108 48.831 C 108 46.045, 104.953 42.988, 100 40.803 C 95.946 39.015, 92.849 38.788, 68.735 38.511 C 44.572 38.233, 41.763 38.371, 39.835 39.933 M 115.250 47.031 C 114.013 47.529, 113 48.400, 113 48.968 C 113 49.535, 112.368 50, 111.596 50 C 110.466 50, 110.590 51.105, 112.232 55.674 C 113.908 60.333, 114.170 62.806, 113.697 69.509 C 113.300 75.133, 113.542 78.893, 114.475 81.602 C 115.220 83.765, 116.983 90.655, 118.393 96.914 C 121.902 112.491, 125.300 116.019, 128.563 107.474 C 130.043 103.598, 130.165 101.409, 129.413 92.224 C 128.931 86.326, 128.493 77.225, 128.440 72 C 128.388 66.775, 127.818 60.928, 127.173 59.007 C 126.528 57.085, 126 54.290, 126 52.796 C 126 47.640, 120.746 44.822, 115.250 47.031 M 68.637 57.929 C 62.769 65.398, 61.817 69.179, 65.240 71.422 C 68.159 73.334, 76.769 73.729, 79.829 72.092 C 82.953 70.420, 83.190 62.421, 80.313 55.750 C 79.016 52.742, 78.162 52, 75.996 52 C 73.889 52, 72.271 53.304, 68.637 57.929" stroke="none" fill="black" fill-rule="evenodd"/>
</svg>