<svg xmlns="http://www.w3.org/2000/svg" width="256" height="256" viewBox="0 0 256 256" version="1.1">
	<path d="M 91.970 32.823 C 90.305 34.172, 90.001 35.154, 90.559 37.379 C 91.398 40.720, 94.116 42.037, 105.231 44.488 C 113.998 46.421, 116.779 48.765, 121.487 58.191 C 122.946 61.111, 125.430 64.850, 127.008 66.500 C 130.362 70.006, 132.145 74.148, 131.058 75.906 C 129.792 77.954, 122.949 78.997, 118.022 77.893 C 115.483 77.324, 109.811 77.178, 104.969 77.556 C 99.598 77.977, 94.281 77.785, 90.705 77.043 C 85.647 75.993, 84.241 76.096, 78.252 77.961 C 74.538 79.117, 68.837 80.386, 65.583 80.781 C 62.328 81.177, 59.531 81.950, 59.366 82.500 C 58.707 84.707, 61.870 87.017, 66.111 87.427 C 76.382 88.419, 84 91.417, 84 94.466 C 84 96.632, 80.064 103.017, 75.848 107.691 C 73.769 109.996, 71.761 113.146, 71.387 114.691 C 70.602 117.929, 59.881 133.259, 55.728 137.082 C 53.219 139.391, 52.994 140.109, 53.596 143.876 C 54.107 147.073, 54.900 148.391, 56.885 149.346 C 61.234 151.437, 63.388 150.326, 67.499 143.874 C 69.612 140.556, 72.952 136.639, 74.921 135.171 C 79.361 131.858, 80.096 130.926, 84.016 123.648 C 85.750 120.430, 88.687 115.807, 90.544 113.375 C 94.542 108.137, 96.173 102.935, 95.378 97.960 C 94.452 92.169, 97.674 90.209, 106.862 90.976 C 108.161 91.084, 112.087 90.603, 115.586 89.908 C 121.399 88.753, 122.123 88.802, 123.974 90.477 C 126.427 92.697, 126.775 101.521, 124.651 107.624 C 123.908 109.756, 123.008 116.084, 122.650 121.687 C 122.291 127.290, 121.587 132.956, 121.084 134.278 C 120.518 135.769, 118.084 137.703, 114.678 139.369 C 110.742 141.295, 109.279 142.544, 109.516 143.778 C 109.698 144.725, 109.881 146.195, 109.923 147.045 C 110.023 149.052, 121.292 155, 124.996 155 C 129.209 155, 132 150.960, 132 144.859 C 132 140.367, 134.187 123.857, 135.557 118 C 135.879 116.625, 136.554 111.675, 137.057 107 C 137.722 100.822, 138.815 96.805, 141.059 92.294 C 144.119 86.143, 146.373 84.358, 149.750 85.411 C 150.713 85.711, 152.625 85.385, 154 84.686 C 158.490 82.405, 155.918 76.246, 149.324 73.491 C 147.126 72.573, 145.322 70.621, 143.624 67.324 C 142.061 64.288, 139.109 60.953, 135.662 58.326 C 130.182 54.151, 124.858 46.209, 121.952 37.873 C 119.985 32.231, 117.002 31.057, 104.693 31.083 C 96.183 31.100, 93.674 31.444, 91.970 32.823 M 64.033 39.967 C 62.951 41.049, 59.963 46.337, 57.393 51.717 C 52.815 61.300, 43.394 75.535, 39.007 79.498 C 33.704 84.288, 32.304 91.536, 36.480 92.584 C 40.313 93.546, 50.783 88.139, 55 83.020 C 56.925 80.683, 60.124 76.910, 62.108 74.635 C 66.514 69.585, 67.529 67.646, 68.460 62.501 C 68.858 60.302, 70.268 55.928, 71.592 52.782 C 74.705 45.386, 74.656 42.661, 71.365 40.073 C 68.081 37.489, 66.533 37.467, 64.033 39.967" stroke="none" fill="black" fill-rule="evenodd"/>
</svg>