<svg xmlns="http://www.w3.org/2000/svg" width="256" height="256" viewBox="0 0 256 256" version="1.1">
	<path d="M 89.500 29.765 C 86.251 32.152, 85.504 34.605, 85.403 43.214 C 85.265 55.050, 84.834 55.471, 72.714 55.592 C 67.646 55.643, 62.233 56.205, 60.685 56.842 C 59.137 57.479, 56.506 58, 54.839 58 C 51.031 58, 46 60.899, 46 63.093 C 46 66.563, 48.403 67.097, 62.656 66.794 C 75.776 66.515, 76.670 66.621, 79.750 68.818 C 82.555 70.819, 83 71.726, 83 75.446 C 83 80.010, 81.804 83.515, 76.675 93.974 C 73.580 100.285, 69.667 104.961, 63.295 109.963 C 60.879 111.860, 60.367 112.816, 61.066 114.123 C 61.670 115.251, 61.478 116.773, 60.493 118.660 C 59.679 120.222, 59.010 123.084, 59.006 125.021 C 59 128.644, 57.672 130.459, 51.339 135.508 C 46.072 139.707, 43.318 152, 47.645 152 C 50.260 152, 62.464 141.775, 64.824 137.606 C 66.103 135.348, 67.992 132.595, 69.023 131.490 C 70.054 130.384, 72.003 126.981, 73.353 123.927 C 74.704 120.874, 77.427 116.954, 79.404 115.218 C 81.382 113.482, 83 111.239, 83 110.234 C 83 109.229, 85.025 105.323, 87.500 101.555 C 89.975 97.787, 92.007 94.208, 92.015 93.602 C 92.023 92.996, 92.661 90.687, 93.433 88.472 C 94.205 86.257, 95.134 82.454, 95.497 80.021 C 96.331 74.425, 98.393 70.412, 101.260 68.801 C 104.114 67.198, 136.807 67.595, 138.809 69.257 C 141.189 71.232, 138.669 101.872, 135.646 107.718 C 134.815 109.324, 133.438 115.339, 132.585 121.084 C 130.956 132.054, 129.315 136.979, 127.284 136.992 C 125.590 137.003, 118.657 140.287, 117.765 141.500 C 116.158 143.688, 117.089 147.711, 119.805 150.313 C 122.169 152.578, 123.493 153, 128.232 153 C 133.510 153, 134.045 152.770, 136.961 149.250 C 138.670 147.188, 140.307 144.375, 140.599 143 C 140.891 141.625, 141.981 137.125, 143.021 133 C 144.062 128.875, 145.217 123.025, 145.589 120 C 145.962 116.975, 146.609 114.050, 147.028 113.500 C 147.447 112.950, 148.310 109.350, 148.946 105.500 C 153.273 79.304, 154.092 65.012, 151.547 60.091 C 149.537 56.203, 145.054 54.489, 140.151 55.734 C 137.912 56.302, 133.836 56.379, 130.402 55.918 C 127.156 55.482, 119.154 54.862, 112.619 54.539 C 106.084 54.217, 100.009 53.545, 99.119 53.046 C 97.765 52.288, 97.556 50.597, 97.844 42.697 C 98.164 33.921, 98.027 33.103, 95.906 31.127 C 93.568 28.949, 91.274 28.462, 89.500 29.765" stroke="none" fill="black" fill-rule="evenodd"/>
</svg>