<svg xmlns="http://www.w3.org/2000/svg" width="256" height="256" viewBox="0 0 256 256" version="1.1">
	<path d="M 114.900 32.100 C 112.981 34.019, 112.832 35.095, 113.172 44.531 L 113.544 54.862 105.408 58.931 C 100.933 61.169, 96.960 63, 96.580 63 C 96.199 63, 94.991 60.973, 93.895 58.494 C 92.104 54.446, 92.022 53.376, 93.091 47.941 C 95.068 37.894, 91.190 33.689, 81.920 35.829 C 79.108 36.478, 69.291 37, 59.892 37 C 41.028 37, 36.545 37.980, 35.451 42.341 C 34.423 46.436, 36.409 48.571, 42.958 50.408 C 48.447 51.948, 49 52.352, 49 54.818 C 49 56.310, 46.035 63.538, 42.410 70.880 C 36.981 81.877, 35.927 84.800, 36.430 87.476 C 38.093 96.345, 46.816 95.156, 50.990 85.492 C 51.942 83.288, 53.827 80.138, 55.178 78.492 C 58.025 75.024, 59.612 71.093, 60.377 65.610 C 61.158 60.015, 65.384 54.178, 70.223 52.012 C 78.017 48.522, 81.438 52.325, 80.558 63.500 C 79.763 73.606, 79.346 74.494, 74.041 77.381 C 67.377 81.008, 66.464 82.291, 67.964 85.913 C 69.474 89.559, 72.785 90.939, 80.682 91.217 C 88.003 91.474, 90.652 89.737, 91.516 84.113 C 91.822 82.126, 93.049 78.530, 94.243 76.122 L 96.414 71.744 104.722 72.262 C 109.292 72.547, 113.699 73.335, 114.515 74.013 C 118.072 76.965, 115.446 94.921, 109.914 105.465 C 106.678 111.633, 104.728 117.423, 103.513 124.465 C 102.108 132.609, 97.392 137.820, 94.260 134.689 C 93.004 133.432, 92.929 132.189, 93.811 127.182 C 94.558 122.943, 94.554 120.158, 93.799 117.697 C 93.059 115.286, 93.046 113.306, 93.757 111.267 C 95.768 105.498, 93.471 100.266, 87.915 97.965 C 85.588 97.001, 84.027 97.012, 80.430 98.020 C 76.750 99.050, 74.874 99.049, 70.572 98.017 C 66.669 97.081, 63.464 97, 58.502 97.714 C 54.787 98.248, 49.937 98.354, 47.726 97.950 C 44.210 97.307, 43.414 97.530, 41.381 99.723 C 39.137 102.145, 39.069 102.716, 39.413 116.365 C 39.610 124.139, 39.956 135, 40.182 140.500 C 40.775 154.872, 43.263 157.747, 51.827 153.959 C 54.262 152.881, 57.885 151.997, 59.877 151.994 C 61.870 151.991, 66.200 151.526, 69.500 150.960 C 72.800 150.394, 78.425 149.660, 82 149.328 C 85.575 148.996, 90.805 147.711, 93.622 146.474 C 96.899 145.034, 99.240 144.538, 100.122 145.096 C 102.603 146.668, 106.251 146.046, 109.620 143.476 C 113.119 140.807, 113.606 139.524, 119.478 117.500 C 120.944 112, 123.039 104.903, 124.133 101.729 C 126.510 94.834, 126.567 94.551, 127.500 85 C 127.903 80.875, 128.867 76.263, 129.642 74.750 C 130.974 72.152, 131.432 72, 137.954 72 C 148.356 72, 148.171 71.598, 148.079 93.899 C 148.037 104.130, 148.011 114.780, 148.022 117.567 C 148.039 122.231, 146.693 127.485, 143.782 134.110 C 142.525 136.972, 135.339 142, 132.505 142 C 128.525 142, 126.564 148.503, 129.750 151.137 C 132.551 153.453, 140.522 157, 142.925 157 C 148.253 157, 152.598 152.517, 153.585 146 C 153.960 143.525, 155.128 139.291, 156.181 136.591 C 158.139 131.573, 161.132 112.085, 160.893 105.922 C 160.820 104.040, 160.829 93.913, 160.913 83.419 C 160.998 72.924, 160.818 63.689, 160.514 62.897 C 159.172 59.401, 155.738 58.561, 142.663 58.530 C 126.568 58.492, 126.563 58.488, 125.536 44.290 C 125.129 38.657, 124.218 33.545, 123.391 32.250 C 121.567 29.395, 117.674 29.326, 114.900 32.100 M 65 109.550 C 62.525 110.259, 59.509 110.875, 58.297 110.920 C 55.171 111.034, 51.212 113.004, 50.528 114.787 C 50.208 115.621, 50.660 118.759, 51.533 121.761 C 52.752 125.956, 52.873 127.926, 52.054 130.276 C 50.009 136.141, 54.782 139.988, 61.716 138.062 C 63.797 137.484, 67.658 137.009, 70.295 137.006 C 74.049 137.001, 75.624 136.467, 77.545 134.545 C 78.895 133.195, 80.034 131.283, 80.077 130.295 C 80.119 129.308, 80.331 127.600, 80.548 126.500 C 80.766 125.400, 81.055 122.088, 81.191 119.141 C 81.418 114.219, 81.175 113.545, 78.204 110.891 C 74.653 107.718, 72.248 107.474, 65 109.550" stroke="none" fill="black" fill-rule="evenodd"/>
</svg>