<svg xmlns="http://www.w3.org/2000/svg" width="256" height="256" viewBox="0 0 256 256" version="1.1">
	<path d="M 75.500 30.463 C 73.850 31.224, 71.375 33.447, 70 35.402 C 68.477 37.569, 65.825 39.610, 63.213 40.629 C 56.689 43.172, 54 46.978, 54 53.668 C 54 58.485, 53.573 59.680, 50.627 63.123 C 46.654 67.764, 43.626 76.485, 43.553 83.500 C 43.502 88.319, 43.608 88.512, 46.477 88.838 C 48.115 89.024, 52.138 88.607, 55.418 87.911 C 59.961 86.947, 61.475 86.926, 61.774 87.823 C 61.990 88.470, 63.029 89, 64.083 89 C 65.138 89, 66 89.477, 66 90.059 C 66 90.641, 65.550 90.840, 65 90.500 C 64.450 90.160, 64 90.573, 64 91.418 C 64 93.570, 60.438 95.563, 54 97.015 C 48.002 98.367, 45.552 100.032, 43.379 104.235 C 42.147 106.617, 42.160 107.448, 43.482 110.612 C 44.857 113.901, 45.286 114.193, 47.972 113.656 C 49.606 113.329, 52.746 111.923, 54.951 110.531 C 57.822 108.719, 60.343 108, 63.828 108 C 68.475 108, 68.928 108.256, 73.768 113.627 C 79.172 119.621, 79.458 121.422, 75.178 122.484 C 71.831 123.314, 68 126.806, 68 129.025 C 68 129.947, 68.476 132.068, 69.058 133.737 C 69.896 136.142, 71.018 137.025, 74.453 137.987 C 79.399 139.372, 80.825 139.061, 90.500 134.491 C 94.350 132.672, 98.850 130.972, 100.500 130.714 C 102.150 130.456, 105.242 129.515, 107.372 128.623 C 112.061 126.658, 118.906 126.436, 118.639 128.257 C 118.236 130.997, 115.228 133.864, 109.609 136.859 C 106.369 138.587, 103.164 140, 102.486 140 C 101.809 140, 99.234 140.894, 96.764 141.986 C 94.294 143.079, 88.275 144.913, 83.387 146.063 C 74.002 148.271, 66.084 152.105, 65.875 154.542 C 65.806 155.344, 65.750 156.675, 65.750 157.500 C 65.750 160.525, 66.072 160.836, 69.872 161.478 C 72.791 161.971, 75.194 161.534, 79.622 159.704 C 82.855 158.368, 89.775 156.718, 95 156.038 C 105.413 154.683, 112.311 151.576, 118.713 145.359 C 120.602 143.525, 123.647 141.312, 125.481 140.442 C 132.898 136.923, 132.209 127.393, 124.229 123.123 C 123.003 122.467, 121.983 121.158, 121.962 120.215 C 121.925 118.563, 111.968 111, 109.831 111 C 109.217 111, 109.095 110.277, 109.534 109.250 C 109.946 108.288, 110.501 106.227, 110.767 104.671 C 111.033 103.114, 111.861 101.607, 112.607 101.320 C 113.354 101.034, 117.250 102.603, 121.266 104.807 C 125.282 107.011, 132.021 109.942, 136.241 111.321 C 140.462 112.699, 144.934 114.541, 146.180 115.414 C 148.897 117.316, 152.367 117.470, 153.789 115.750 C 155.490 113.693, 154.697 106.834, 152.615 105.593 C 151.605 104.992, 148.990 103.150, 146.804 101.500 C 137.538 94.507, 136.499 93.909, 134.495 94.412 C 131.398 95.189, 128.245 94.045, 127.696 91.944 C 126.820 88.595, 129.391 87.609, 135.764 88.849 C 142.362 90.134, 151.919 90.883, 153.750 90.259 C 155.992 89.495, 155.069 84.643, 151.750 79.740 C 147.830 73.948, 145.260 73.058, 140.663 75.899 C 133.068 80.593, 126.240 77.307, 125.245 68.478 C 124.846 64.943, 124.216 63.644, 122.610 63.046 C 119.774 61.990, 116.729 63.232, 116.391 65.584 C 115.365 72.735, 114.777 74.064, 112.005 75.498 C 106.771 78.204, 104.348 77.490, 100.475 72.098 C 98.538 69.402, 96.206 66.909, 95.292 66.559 C 94.248 66.158, 91.672 67.271, 88.355 69.555 C 83.664 72.786, 82.627 73.113, 79 72.500 C 75.368 71.886, 74.337 72.213, 69.588 75.484 C 65.811 78.085, 63.414 79.061, 61.377 78.829 C 57.696 78.408, 57.042 75.033, 59.930 71.362 C 61.301 69.618, 62 67.265, 62 64.388 C 62 58.044, 64.707 56.510, 74.277 57.429 C 78.249 57.811, 90.011 58.337, 100.414 58.598 C 116.809 59.009, 119.805 58.846, 122.914 57.370 C 124.886 56.433, 128.525 55.150, 131 54.518 C 137.079 52.966, 136.830 50.905, 130 46.217 C 126.319 43.690, 123.753 40.963, 122.242 37.971 C 119.658 32.852, 117.569 31, 114.380 31 C 110.601 31, 109.070 33.394, 110.079 37.722 C 111.489 43.764, 109.183 45.008, 96.639 44.968 C 89.797 44.947, 85.931 44.504, 84.750 43.608 C 82.529 41.922, 82.555 41.445, 85 39 C 88.237 35.763, 87.618 32.156, 83.532 30.449 C 79.373 28.711, 79.295 28.711, 75.500 30.463 M 96.917 89.415 C 96.688 89.644, 94.601 90.113, 92.280 90.459 C 88.536 91.017, 81.099 93.978, 83.403 93.994 C 83.900 93.997, 83.331 94.846, 82.138 95.880 C 79.699 97.995, 80.177 101, 82.953 101 C 83.910 101, 86.137 100.279, 87.903 99.398 C 90.501 98.102, 92.820 97.932, 100.057 98.505 C 108.360 99.162, 108.999 99.079, 108.985 97.356 C 108.963 94.672, 107.968 93.494, 103.720 91.116 C 100.103 89.092, 97.815 88.520, 96.917 89.415 M 95.319 112.442 C 92.470 113.024, 89.807 113.838, 89.402 114.250 C 88.998 114.662, 87.729 115.014, 86.583 115.032 C 81.406 115.111, 78.721 121.331, 83.472 122.239 C 84.878 122.508, 88.005 121.728, 90.722 120.430 C 93.350 119.175, 97.681 117.322, 100.348 116.312 C 108.468 113.237, 104.894 110.485, 95.319 112.442" stroke="none" fill="black" fill-rule="evenodd"/>
</svg>