<svg xmlns="http://www.w3.org/2000/svg" width="256" height="256" viewBox="0 0 256 256" version="1.1">
	<path d="M 90 29 C 87.792 31.208, 87.461 34.453, 89.025 38.567 C 91.400 44.813, 88.666 46.327, 72 47.994 C 55.250 49.670, 54.179 49.892, 52.108 52.115 C 49.722 54.676, 50.449 57.673, 53.877 59.407 C 57.261 61.119, 71.790 61.975, 79.500 60.917 C 83.931 60.309, 85.834 60.425, 86.778 61.360 C 87.481 62.057, 88.771 66.808, 89.646 71.918 C 91.199 80.996, 91.189 81.255, 89.217 83.228 C 86.545 85.900, 75.750 86.970, 58.233 86.299 C 41.965 85.677, 40.302 86.034, 38.411 90.558 C 35.167 98.323, 41.626 101.680, 54.701 99.026 C 57.340 98.490, 61.975 98.377, 65 98.776 C 70.047 99.440, 70.526 99.727, 70.817 102.251 C 71.027 104.078, 69.094 109.072, 65.067 117.110 C 61.730 123.769, 58.988 129.956, 58.972 130.859 C 58.957 131.762, 57.654 133.765, 56.077 135.312 C 53.248 138.086, 51.734 142.085, 52.901 143.699 C 53.230 144.154, 56.102 146.293, 59.282 148.452 C 63.949 151.620, 66.168 152.456, 70.782 152.789 C 79.814 153.439, 108.200 150.274, 115.263 147.830 C 122.594 145.293, 128.068 145.328, 135.888 147.962 C 142.402 150.157, 145.325 149.807, 146.757 146.663 C 148.090 143.738, 145.144 137.974, 140.509 134.439 C 137.980 132.510, 137 130.986, 137 128.982 C 137 127.452, 135.397 123.819, 133.436 120.905 C 131.476 117.992, 129.618 114.338, 129.307 112.785 C 128.717 109.837, 123.848 105, 121.470 105 C 118.590 105, 114.928 107.438, 114.350 109.740 C 113.942 111.365, 114.941 114.678, 117.454 120.031 C 121.899 129.505, 121.628 131.505, 115.690 133.037 C 113.385 133.631, 109.475 134.868, 107 135.784 C 104.500 136.711, 99.167 137.516, 95 137.598 C 90.875 137.678, 86.150 137.850, 84.500 137.978 C 76.572 138.596, 73.982 138.055, 72.837 135.542 C 71.924 133.538, 72.129 132.109, 73.949 127.792 C 75.177 124.881, 76.723 122.050, 77.386 121.500 C 79.651 119.622, 82 115.558, 82 113.520 C 82 111.341, 86.417 102.440, 88.562 100.295 C 89.274 99.583, 90.538 99, 91.370 99 C 92.201 99, 93.160 98.550, 93.500 98 C 94.500 96.382, 103.253 96.853, 109.093 98.839 C 113.516 100.343, 117.746 100.687, 132.336 100.729 L 150.171 100.781 153.586 97.647 C 157.327 94.214, 157.940 90.827, 155.423 87.500 C 153.984 85.599, 152.738 85.500, 130.140 85.500 C 104.331 85.500, 104.853 85.608, 102.238 79.703 C 100.612 76.029, 100.674 74.143, 102.657 67.011 C 104.691 59.692, 105.418 59.387, 123 58.438 C 136.418 57.715, 139.857 56.470, 138.002 53.005 C 136.526 50.245, 118.752 45, 110.876 45 C 102.824 45, 101 43.487, 101 36.806 C 101 28.615, 94.791 24.209, 90 29" stroke="none" fill="black" fill-rule="evenodd"/>
</svg>