<svg xmlns="http://www.w3.org/2000/svg" width="256" height="256" viewBox="0 0 256 256" version="1.1">
	<path d="M 91.452 29.646 C 90.104 31.101, 89 32.823, 89 33.472 C 89 34.121, 87.886 35.698, 86.525 36.976 C 84.217 39.145, 83.359 39.282, 73.775 39.012 C 51.408 38.381, 44.111 38.697, 41.500 40.408 C 38.447 42.409, 38.259 45.828, 41.039 48.811 C 42.918 50.828, 44.021 51, 55.081 51 C 62.074 51, 70.244 51.653, 74.655 52.564 C 78.819 53.424, 82.821 53.899, 83.549 53.620 C 85.150 53.005, 90 56.628, 90 58.438 C 90 59.149, 89.067 60.916, 87.927 62.365 L 85.855 65 68.895 65 C 50.922 65, 45.694 66.006, 44.684 69.659 C 41.400 81.537, 40.805 91.984, 42.591 106.413 C 43.731 115.618, 43.819 119.557, 42.974 123.624 C 42.194 127.384, 42.184 130.543, 42.940 134.632 C 43.523 137.786, 44 142.963, 44 146.137 C 44 149.310, 44.500 153.003, 45.110 154.343 C 46.622 157.661, 50.605 159.735, 52.815 158.356 C 55.416 156.733, 57.323 150.125, 57.101 143.500 C 56.512 125.881, 56.597 94.172, 57.240 92.003 C 57.647 90.630, 58.343 89.386, 58.787 89.238 C 59.231 89.090, 59.416 87.440, 59.198 85.572 C 58.678 81.118, 61.991 78.799, 69.024 78.693 C 75.564 78.594, 76.935 80.045, 77.395 87.551 C 77.595 90.823, 78.326 94.866, 79.018 96.535 C 80.194 99.372, 80.072 99.774, 77.138 102.708 C 75.412 104.434, 74 106.556, 74 107.423 C 74 110.324, 77.767 113, 81.851 113 C 86.454 113, 91.659 114.669, 92.305 116.353 C 92.561 117.020, 91.880 118.665, 90.792 120.009 C 88.740 122.543, 86.582 122.840, 76.259 122.013 C 69.060 121.436, 65.597 127.124, 69.636 132.890 C 71.098 134.978, 71.813 135.163, 76.386 134.640 C 79.199 134.318, 82.913 133.773, 84.639 133.430 C 87.313 132.898, 88.404 133.370, 91.987 136.607 C 95.641 139.908, 96.128 140.826, 95.681 143.577 C 95.077 147.299, 98.068 153, 100.625 153 C 103.901 153, 106.752 145.751, 103.857 144.786 C 102.391 144.297, 104.415 140.317, 107.397 137.824 C 109.646 135.944, 112.035 135.389, 121.500 134.549 C 126.407 134.113, 127.888 133.538, 129.627 131.396 C 134.484 125.413, 129.365 121.908, 116.285 122.261 C 108.158 122.480, 107.168 122.294, 104.270 120 C 102.532 118.625, 101.086 117.169, 101.055 116.763 C 100.947 115.326, 108.314 113, 112.973 113 C 123.677 113, 127.150 108.822, 121 103.342 C 117.486 100.212, 117.255 98.217, 120 94.727 C 122.378 91.704, 122.564 88.706, 120.500 86.643 C 119.675 85.818, 119 84.034, 119 82.680 C 119 80.036, 119.770 79.681, 128.136 78.475 C 135.098 77.472, 136.583 78.711, 137.401 86.209 C 138.609 97.272, 139.021 131.210, 137.993 135.025 C 137.067 138.464, 131.215 145, 129.062 145 C 128.517 145, 127.589 145.900, 127 147 C 126.274 148.356, 126.263 149, 126.965 149 C 127.534 149, 128 149.618, 128 150.374 C 128 152.124, 133.908 158.467, 136.363 159.352 C 139.125 160.348, 144.737 156.437, 147.050 151.902 C 148.143 149.760, 149.316 145.867, 149.657 143.253 C 149.998 140.639, 150.617 138.050, 151.034 137.500 C 151.451 136.950, 152.050 122.775, 152.364 106 C 152.911 76.839, 152.847 75.317, 150.922 71.339 C 149.814 69.051, 148.141 66.843, 147.204 66.433 C 144 65.030, 124.509 63.488, 119 64.201 C 113.916 64.859, 107.716 63.861, 105.737 62.066 C 105.317 61.685, 105.461 59.976, 106.056 58.268 C 107.736 53.450, 111.510 52.302, 128 51.593 C 152.222 50.553, 152.123 50.566, 154.158 48.053 C 156.624 45.008, 156.478 42.798, 153.636 40.127 C 151.133 37.777, 151.700 37.813, 119.500 37.950 C 116.200 37.964, 111.615 37.733, 109.310 37.436 C 105.606 36.958, 104.989 36.496, 103.984 33.451 C 101.823 26.903, 95.714 25.048, 91.452 29.646 M 92.565 80.329 C 90.994 81.478, 90.921 81.984, 92.027 84.051 C 93.561 86.917, 93.487 92.410, 91.862 96.334 C 90.387 99.895, 91.710 100.963, 97.628 100.985 C 101.586 100.999, 104.071 99.465, 104.648 96.649 C 104.777 96.017, 105.134 94.487, 105.442 93.250 C 105.749 92.013, 106.182 90.213, 106.405 89.250 C 106.628 88.287, 106.942 87.050, 107.103 86.500 C 108.627 81.300, 97.624 76.630, 92.565 80.329" stroke="none" fill="black" fill-rule="evenodd"/>
</svg>