<svg xmlns="http://www.w3.org/2000/svg" width="256" height="256" viewBox="0 0 256 256" version="1.1">
	<path d="M 82 38.846 C 78.425 39.692, 73.025 40.298, 70 40.192 C 57.441 39.754, 45.272 40.119, 41.859 41.038 C 36.621 42.448, 34.663 45.818, 36.260 50.672 C 37.931 55.755, 41.100 57.313, 45.331 55.133 C 47.860 53.830, 51.831 53.481, 65 53.408 C 74.075 53.357, 84.135 52.763, 87.357 52.088 C 90.979 51.328, 98.928 50.981, 108.189 51.180 C 126.694 51.575, 126.009 51.002, 125.799 65.906 C 125.700 72.958, 126.250 79.175, 127.445 84.500 C 128.801 90.539, 129.291 97.525, 129.447 113 C 129.560 124.275, 129.319 134.441, 128.912 135.591 C 128.504 136.741, 125.947 139.109, 123.230 140.853 C 120.513 142.596, 117.504 144.890, 116.545 145.950 C 115.014 147.642, 114.974 148.124, 116.219 149.902 C 122.625 159.049, 135.881 159.207, 139.728 150.184 C 141.833 145.247, 142.011 112.532, 140.096 82.430 C 139.324 70.291, 138.998 59.142, 139.372 57.654 C 140.493 53.189, 143.458 51, 148.385 51 C 151.942 51, 153.075 50.535, 154.385 48.535 C 156.670 45.048, 156.394 42.303, 153.464 39.373 C 150.734 36.643, 149.109 36.623, 137.595 39.183 C 134.031 39.976, 130.475 39.968, 124.595 39.157 C 110.813 37.254, 89.384 37.098, 82 38.846 M 76 72.078 C 74.625 72.670, 69.567 74.001, 64.760 75.036 C 53.566 77.448, 52.272 78.200, 49.934 83.653 C 47.701 88.863, 47.492 94.456, 49.402 97.902 C 50.134 99.223, 50.527 101.093, 50.275 102.057 C 49.607 104.610, 51.814 117.740, 53.439 120.881 C 55.102 124.099, 59.791 126.935, 60.815 125.343 C 62.447 122.808, 68.163 120.998, 74.700 120.946 C 88.368 120.838, 96.894 119.447, 99.644 116.878 C 103.669 113.118, 105.104 109.381, 105.472 101.702 C 105.738 96.153, 105.388 93.721, 103.907 90.818 C 102.858 88.762, 102 85.331, 102 83.193 C 102 78.748, 100.108 76.124, 95.008 73.497 C 90.892 71.377, 79.593 70.533, 76 72.078 M 76.290 85.919 C 67.254 86.558, 65.093 87.968, 65.032 93.264 C 65.014 94.784, 64.456 96.898, 63.791 97.963 C 62.813 99.528, 62.910 100.588, 64.294 103.491 L 66.007 107.083 73.254 106.854 C 77.239 106.729, 81.859 106.948, 83.519 107.342 C 85.553 107.824, 87.186 107.585, 88.519 106.609 C 90.217 105.368, 90.500 103.979, 90.500 96.887 C 90.500 89.988, 90.178 88.312, 88.561 86.806 C 87.495 85.813, 86.145 85.076, 85.561 85.169 C 84.978 85.262, 80.805 85.600, 76.290 85.919" stroke="none" fill="black" fill-rule="evenodd"/>
</svg>