<svg xmlns="http://www.w3.org/2000/svg" width="256" height="256" viewBox="0 0 256 256" version="1.1">
	<path d="M 92.797 28.049 L 89.749 31.097 90.448 42.806 C 91.128 54.205, 91.085 54.571, 88.823 56.672 C 87.463 57.935, 84.427 59.131, 81.500 59.557 C 78.750 59.957, 74.756 60.895, 72.624 61.642 C 70.493 62.389, 65.755 63, 62.097 63 C 57.553 63, 54.704 63.519, 53.106 64.639 C 51 66.113, 50.843 66.739, 51.529 70.889 C 51.949 73.425, 52.358 81.575, 52.437 89 C 52.554 99.858, 52.942 103.241, 54.422 106.285 C 57.497 112.614, 58.684 113, 75.068 113 C 88.209 113, 89.866 113.194, 91.425 114.917 C 92.759 116.391, 92.918 117.284, 92.115 118.785 C 91.540 119.859, 91.319 120.985, 91.622 121.289 C 91.925 121.592, 90.989 122.616, 89.541 123.565 C 87.341 125.006, 86.301 125.107, 83.201 124.178 C 81.162 123.567, 72.295 122.808, 63.497 122.490 C 54.699 122.172, 46.440 121.686, 45.144 121.410 C 42.096 120.761, 38 123.461, 38 126.119 C 38 129.174, 41.180 134.022, 43.490 134.488 C 44.595 134.711, 50.675 135.136, 57 135.431 C 63.325 135.727, 70.300 136.407, 72.500 136.943 C 74.700 137.479, 79.695 137.651, 83.599 137.325 C 90.255 136.769, 90.802 136.879, 92.349 139.088 C 93.420 140.616, 94 143.470, 94 147.202 C 94 150.369, 94.724 154.769, 95.609 156.980 C 97.088 160.678, 97.519 161, 100.986 161 C 103.059 161, 105.240 160.415, 105.834 159.700 C 106.930 158.379, 107.859 153.714, 108.463 146.500 C 108.647 144.300, 108.843 142.178, 108.899 141.785 C 109.271 139.163, 130.197 134.623, 135.243 136.070 C 143.469 138.429, 151.057 136.537, 154.876 131.174 C 156.679 128.642, 156.748 128.086, 155.487 126.285 C 153.221 123.049, 146.800 122.074, 130.461 122.483 C 122.190 122.690, 114.990 122.944, 114.461 123.048 C 107.083 124.497, 101.462 117.933, 107.663 115.108 C 109.128 114.440, 113.290 113.675, 116.913 113.406 C 120.536 113.138, 125.750 112.722, 128.500 112.483 C 131.250 112.244, 134.705 112.038, 136.179 112.024 C 139.860 111.991, 142 109.527, 142 105.323 C 142 103.379, 142.622 99.249, 143.382 96.144 C 145.562 87.246, 145.365 74.692, 142.964 69.421 C 139.541 61.908, 135.234 60.241, 116.500 59.180 C 104.651 58.509, 104.496 58.468, 104.214 56 C 103.708 51.583, 106.487 50.878, 124.507 50.850 C 137.699 50.830, 141.482 50.505, 144.168 49.162 C 148.337 47.078, 148.759 44.994, 145.725 41.467 C 143.587 38.981, 142.450 38.624, 134.424 37.922 C 129.516 37.493, 122.042 37.110, 117.815 37.071 C 109.339 36.993, 105 35.816, 105 33.596 C 105 31.802, 98.713 25, 97.055 25 C 96.390 25, 94.474 26.372, 92.797 28.049 M 69.625 73.438 C 64.222 75.407, 63.372 76.458, 64.889 79.292 C 66.104 81.563, 66.508 81.625, 80.318 81.668 C 88.118 81.692, 101.925 82.019, 111 82.396 C 120.075 82.772, 128.051 82.705, 128.725 82.246 C 129.399 81.788, 130.074 80.326, 130.225 78.998 C 130.755 74.343, 126.417 73.421, 103.200 73.253 C 91.815 73.171, 80.475 72.862, 78 72.565 C 75.286 72.240, 71.962 72.587, 69.625 73.438 M 69.748 94.124 C 66.137 95.494, 64.942 99.736, 67.603 101.741 C 68.990 102.787, 70.979 103.001, 75 102.538 C 78.025 102.189, 90.054 101.664, 101.730 101.371 C 123.461 100.825, 128.072 100.285, 128.766 98.202 C 129.533 95.900, 124.055 95.144, 102.382 94.564 C 90.347 94.242, 78.700 93.777, 76.500 93.530 C 74.300 93.283, 71.262 93.550, 69.748 94.124" stroke="none" fill="black" fill-rule="evenodd"/>
</svg>