<svg xmlns="http://www.w3.org/2000/svg" width="256" height="256" viewBox="0 0 256 256" version="1.1">
	<path d="M 82.253 34.134 C 78.817 34.543, 75.597 35.131, 75.097 35.440 C 74.596 35.750, 69.570 36.476, 63.926 37.055 C 53.157 38.161, 50.761 38.951, 47.737 42.397 C 43.635 47.071, 43.355 49.434, 43.120 81.334 C 42.903 110.762, 42.776 112.609, 40.352 121.834 C 37.555 132.480, 34.772 146.839, 34.607 151.485 C 34.490 154.749, 36.242 155.658, 40.561 154.574 C 43.362 153.871, 45.298 150.484, 48.120 141.346 C 54.164 121.778, 56.139 106.360, 55.785 81.500 C 55.461 58.748, 55.872 57.098, 63.055 52.345 C 66.256 50.227, 68.995 49.498, 76.777 48.697 C 91.925 47.137, 93.988 47.266, 96.132 49.914 C 97.159 51.183, 98 52.814, 98 53.537 C 98 55.545, 87.888 60.052, 81.414 60.931 C 74.429 61.878, 72.762 63.616, 71.114 71.671 C 69.935 77.436, 70.064 82.464, 71.816 99 C 73.358 113.552, 75.100 115.303, 87.818 115.086 C 92.479 115.007, 97.802 115.440, 99.647 116.048 L 103 117.155 103 129.012 C 103 143.084, 102.313 145.412, 97.709 146.931 C 90.427 149.334, 91.204 156.067, 99.144 159.357 C 104.752 161.682, 110.104 160.987, 113.612 157.479 C 116.157 154.934, 116.079 155.859, 116.430 124.215 C 116.478 119.895, 116.949 117.653, 117.935 117.042 C 118.724 116.553, 124.662 115.838, 131.131 115.451 C 140.696 114.881, 143.275 114.392, 144.946 112.836 C 146.076 111.783, 147.063 110.602, 147.140 110.211 C 147.216 109.820, 147.398 102.300, 147.543 93.500 C 147.963 68.082, 145.799 63.109, 133.185 60.508 C 129.161 59.679, 123.844 59, 121.369 59 C 111.746 59, 107.176 52.735, 113.687 48.469 C 115.843 47.057, 118.353 46.938, 132.980 47.557 C 142.228 47.948, 150.888 47.994, 152.226 47.658 C 157.208 46.408, 157.564 39.656, 152.804 36.673 C 148.798 34.163, 97.510 32.317, 82.253 34.134 M 93.105 72.500 C 84.752 73.629, 82.849 75.178, 84.733 79.314 C 85.836 81.735, 86.158 81.797, 101.403 82.511 C 109.953 82.912, 120.363 82.920, 124.537 82.529 C 131.284 81.896, 132.250 81.546, 133.243 79.366 C 134.174 77.323, 134.030 76.586, 132.378 74.934 C 128.541 71.097, 111.358 70.032, 93.105 72.500 M 92.863 94.019 C 86.944 94.718, 84.643 96.455, 86.241 99.014 C 88.538 102.693, 91.974 103.375, 109.210 103.572 C 129.668 103.807, 132.389 103.373, 132.807 99.811 C 133.289 95.701, 131.063 95.275, 100.500 93.632 C 98.850 93.543, 95.414 93.717, 92.863 94.019 M 73.903 122.666 C 72.474 123.553, 70.597 125.678, 69.732 127.389 C 62.155 142.370, 61.759 144.153, 65.073 148.365 C 68.698 152.975, 74.281 151.166, 77.977 144.184 C 79.050 142.158, 81.519 138.763, 83.464 136.640 C 85.409 134.516, 87.056 132.379, 87.125 131.890 C 87.194 131.400, 87.330 130.438, 87.427 129.750 C 87.769 127.337, 85.583 123.836, 82.855 122.425 C 79.326 120.600, 77.135 120.659, 73.903 122.666 M 129.048 125.109 C 127.486 126.818, 126.302 128.731, 126.416 129.359 C 127.120 133.250, 128.697 135.268, 133.549 138.489 C 136.550 140.481, 139.737 143.525, 140.631 145.253 C 142.506 148.879, 149.529 155.716, 152.274 156.587 C 155.357 157.565, 157.778 154.515, 157.326 150.223 C 157.110 148.175, 156.274 146, 155.467 145.390 C 154.660 144.779, 154 143.782, 154 143.175 C 154 142.567, 152.709 140.591, 151.132 138.785 C 149.555 136.978, 146.784 133.025, 144.976 130 C 140.883 123.153, 139.481 122, 135.252 122 C 132.763 122, 131.149 122.809, 129.048 125.109" stroke="none" fill="black" fill-rule="evenodd"/>
</svg>