<svg xmlns="http://www.w3.org/2000/svg" width="256" height="256" viewBox="0 0 256 256" version="1.1">
	<path d="M 91.548 25.947 C 89.997 27.660, 89.765 30.366, 89.620 48.420 C 89.497 63.570, 89.119 69.280, 88.175 70.223 C 87.472 70.925, 85.007 71.572, 82.698 71.659 C 80.389 71.747, 77.150 72.017, 75.500 72.260 C 73.850 72.503, 71.138 72.159, 69.474 71.496 C 67.810 70.832, 61.888 69.966, 56.315 69.571 C 46.839 68.899, 46.142 68.978, 45.568 70.785 C 44.681 73.580, 45.905 76, 48.206 76 C 49.302 76, 55.666 77.840, 62.349 80.089 C 70.952 82.984, 76.187 84.181, 80.276 84.189 C 85.573 84.199, 86.171 84.430, 87.486 86.974 C 88.275 88.499, 89.149 92.073, 89.427 94.916 C 89.706 97.758, 90.171 100.468, 90.462 100.938 C 90.752 101.407, 90.137 102.844, 89.096 104.129 C 87.258 106.399, 87.103 106.420, 83.789 104.839 C 81.129 103.571, 79.946 103.462, 78.437 104.346 C 75.663 105.970, 59.371 105.580, 54.296 103.767 C 50.402 102.376, 49.863 102.405, 46.986 104.155 C 45.277 105.194, 43.208 107.652, 42.387 109.617 C 41.063 112.786, 41.063 113.447, 42.390 115.473 C 44.589 118.828, 54.934 121.035, 69.666 121.289 C 80.823 121.483, 82.025 121.324, 84.166 119.380 C 85.450 118.214, 87.287 117.276, 88.250 117.297 C 89.212 117.317, 89.791 117.543, 89.535 117.798 C 89.280 118.054, 89.559 119.176, 90.157 120.293 C 92.312 124.319, 94.016 135.695, 93.906 145.327 C 93.805 154.258, 94.003 155.374, 96.072 157.577 C 100.953 162.772, 106.269 159.294, 106.573 150.706 C 106.674 147.843, 106.273 140.827, 105.683 135.117 L 104.609 124.733 107.306 122.413 C 112.307 118.111, 122.423 116.852, 134.316 119.051 C 140.564 120.206, 150.470 118.961, 152.682 116.743 C 154.424 114.997, 155.062 108.447, 153.665 106.655 C 151.726 104.166, 145.816 103.123, 139.872 104.222 C 136.058 104.927, 132.054 104.856, 126.066 103.976 C 121.427 103.295, 114.749 102.757, 111.227 102.780 C 103.731 102.830, 101 100.969, 101 95.812 C 101 91.528, 104.798 86.048, 108.271 85.322 C 109.795 85.003, 111.284 84.350, 111.580 83.871 C 111.876 83.392, 113.021 83, 114.125 83 C 115.228 83, 117.049 82.509, 118.170 81.909 C 120.967 80.412, 136.456 80.532, 140.191 82.079 C 142.983 83.235, 143.389 83.139, 145.095 80.920 C 147.517 77.769, 147.487 74.751, 145.012 72.511 C 143.316 70.976, 142.107 70.829, 136.762 71.511 C 127.592 72.680, 124.722 72.410, 119.865 69.923 C 117.357 68.638, 113.383 67.610, 110.523 67.505 C 105.719 67.330, 105.520 67.204, 104.813 63.912 C 104.410 62.035, 103.864 54.188, 103.600 46.472 C 103.080 31.279, 102.345 28.055, 98.841 25.601 C 95.813 23.480, 93.689 23.581, 91.548 25.947 M 53.869 30.510 C 49.026 33.141, 49.346 37.178, 54.806 42.348 C 56.494 43.946, 58.102 46.728, 58.469 48.687 C 60.016 56.930, 63.474 59.319, 70.504 56.999 C 76.497 55.021, 76.506 53.430, 70.576 43.132 C 62.425 28.976, 60.027 27.164, 53.869 30.510 M 127.751 32.841 C 125.033 34.481, 124.278 36.343, 121.303 48.733 C 119.574 55.938, 124.169 59.642, 128.767 54.748 C 131.396 51.949, 136.992 38.424, 136.997 34.857 C 137.002 30.758, 132.743 29.830, 127.751 32.841" stroke="none" fill="black" fill-rule="evenodd"/>
</svg>