<svg xmlns="http://www.w3.org/2000/svg" width="256" height="256" viewBox="0 0 256 256" version="1.1">
	<path d="M 103.386 36.906 C 100.590 38.611, 100.131 39.605, 98.890 46.653 C 97.422 54.987, 97.311 81.903, 98.642 107 C 99.035 114.425, 99.465 122.525, 99.596 125 C 99.727 127.475, 99.872 135.019, 99.917 141.765 L 100 154.029 103.250 157.437 C 107.172 161.550, 109.948 162.489, 112.552 160.586 C 114.243 159.349, 114.462 158.131, 114.215 151.331 C 114.058 147.024, 113.471 139.450, 112.910 134.500 C 112.348 129.550, 111.695 112.225, 111.459 96 C 111.222 79.775, 110.789 64.700, 110.498 62.500 C 110.206 60.300, 110.555 56.480, 111.274 54.010 C 112.477 49.881, 112.900 49.464, 116.541 48.818 C 127.591 46.857, 141.342 48.511, 144.684 52.204 C 146.700 54.432, 146.803 58.159, 145.563 84 C 144.729 101.359, 141.730 112.966, 136.348 119.668 C 132.775 124.116, 132.393 125, 134.040 125 C 134.613 125, 136.334 125.926, 137.865 127.058 C 140.037 128.664, 141.836 129.049, 146.048 128.808 C 151.186 128.515, 151.557 128.306, 153.707 124.500 C 155.401 121.503, 155.973 118.871, 155.991 114 C 156.004 110.425, 156.438 104.800, 156.955 101.500 C 158.574 91.157, 159.341 73.619, 159.111 52.205 C 159.007 42.551, 158.840 41.749, 156.428 39.337 C 153.648 36.557, 155.131 36.616, 137.750 38.599 C 133.828 39.047, 130.927 38.667, 126.282 37.099 C 118.131 34.348, 107.726 34.260, 103.386 36.906 M 77.983 42.558 C 72.737 46.496, 70.423 47.134, 65.688 45.950 C 62.578 45.173, 58.437 45.282, 49.603 46.376 C 33.114 48.419, 33.473 47.973, 33.595 66.277 C 33.759 90.964, 36.576 108.908, 40.948 113.115 C 44.315 116.355, 46.502 116.638, 63.716 116.069 C 83.709 115.408, 83.484 115.513, 85.588 105.864 C 87.457 97.289, 87.572 46.966, 85.731 43.124 C 84.042 39.600, 82.111 39.459, 77.983 42.558 M 63.500 56.683 C 61.300 57.481, 57.366 58.391, 54.758 58.705 C 52.149 59.020, 49.540 59.849, 48.959 60.549 C 47.924 61.796, 47.354 90.140, 48.332 91.734 C 48.591 92.155, 49.084 94.281, 49.429 96.458 C 50.172 101.152, 51.190 101.953, 56.500 102.020 C 58.700 102.048, 61.625 102.714, 63 103.500 C 66.538 105.523, 69.391 105.330, 71.570 102.923 C 73.300 101.011, 73.436 99.130, 73.270 79.330 C 73.087 57.350, 72.661 54.863, 69.128 55.117 C 68.232 55.181, 65.700 55.886, 63.500 56.683" stroke="none" fill="black" fill-rule="evenodd"/>
</svg>