<svg xmlns="http://www.w3.org/2000/svg" width="256" height="256" viewBox="0 0 256 256" version="1.1">
	<path d="M 114 26.916 C 109.114 28.596, 93.373 31.914, 85 33.029 C 80.325 33.651, 74.613 34.574, 72.307 35.080 C 70.001 35.586, 65.421 36, 62.129 36 C 58.020 36, 55.650 36.493, 54.571 37.571 C 52.541 39.601, 52.588 40.207, 55.016 43.293 C 58.214 47.359, 62.899 48.356, 75.428 47.637 C 82.048 47.256, 87.103 47.391, 88 47.971 C 89.129 48.702, 89.508 50.988, 89.534 57.221 C 89.553 61.774, 89.909 67.525, 90.327 70 C 90.746 72.487, 90.678 75.102, 90.175 75.846 C 89.486 76.863, 85.007 77.278, 71.832 77.544 C 62.244 77.739, 53.155 78.371, 51.635 78.949 C 50.114 79.527, 47.185 80, 45.126 80 C 39.281 80, 37.523 82.079, 37.885 88.561 C 38.080 92.048, 41.829 95.260, 44.826 94.508 C 48.841 93.500, 61.242 92.041, 74.919 90.967 C 91.925 89.631, 91.981 89.671, 91.658 102.740 C 91.526 108.108, 91.752 113.175, 92.160 114 C 92.568 114.825, 93.295 122.925, 93.775 132 C 94.765 150.739, 95.722 153.919, 100.804 155.374 C 107.279 157.228, 108.441 152.811, 106.686 133 C 106.321 128.875, 105.821 118.881, 105.575 110.792 L 105.128 96.084 108.432 94.042 C 111.369 92.227, 113.380 92, 126.552 92 C 144.585 92, 152.455 90.309, 153.482 86.214 C 154.261 83.113, 151.649 79.151, 147.481 77.109 C 145.022 75.905, 143.693 75.939, 137.571 77.360 C 132.508 78.535, 127.945 78.848, 121.500 78.465 C 103.311 77.384, 103.346 77.417, 102.493 60.844 C 101.975 50.800, 102.116 49.262, 103.723 47.424 C 106.599 44.135, 110.112 42.183, 117.952 39.516 C 126.467 36.620, 128 35.555, 128 32.533 C 128 27.909, 120.207 24.782, 114 26.916" stroke="none" fill="black" fill-rule="evenodd"/>
</svg>