<svg xmlns="http://www.w3.org/2000/svg" width="256" height="256" viewBox="0 0 256 256" version="1.1">
	<path d="M 99.612 32.876 C 98.678 33.908, 96.784 38.432, 95.403 42.929 C 94.022 47.426, 91.377 54.124, 89.525 57.814 C 87.673 61.505, 85.853 65.738, 85.481 67.221 C 84.683 70.399, 82.859 72.166, 81.381 71.193 C 80.802 70.812, 79.862 66.036, 79.291 60.579 C 78.552 53.511, 77.791 50.320, 76.643 49.481 C 74.403 47.843, 55.390 46.913, 44.169 47.893 C 36.087 48.598, 34.496 49.050, 32.281 51.264 C 29.908 53.638, 29.704 54.581, 29.427 64.450 C 29.238 71.233, 29.633 77.009, 30.520 80.414 C 31.284 83.348, 32.185 89.968, 32.522 95.124 C 32.859 100.281, 33.807 106.387, 34.628 108.692 C 36.444 113.792, 39.185 114.940, 50.016 115.137 C 54.132 115.212, 60.050 115.324, 63.167 115.387 C 70.579 115.535, 71.671 114.232, 76.340 99.667 C 80.844 85.616, 82.693 83, 88.120 83 C 93.041 83, 96.292 79.868, 97.868 73.609 C 98.622 70.617, 100.225 68.126, 103.026 65.596 L 107.090 61.924 118.795 62.523 C 136.652 63.437, 135.257 62.433, 138.583 76.759 C 140.664 85.726, 142.263 87.368, 146.322 84.709 C 149.140 82.862, 154 73.353, 154 69.686 C 154 68.154, 154.689 65.569, 155.531 63.940 C 158.002 59.161, 157.751 54.075, 154.937 51.953 C 151.657 49.478, 149.551 49.235, 142 50.458 C 138.064 51.095, 133.133 51.186, 129.500 50.688 C 126.200 50.235, 121.212 50.080, 118.415 50.343 C 115.618 50.606, 112.873 50.524, 112.314 50.161 C 110.121 48.733, 109 44.847, 109 38.673 C 109 33.706, 108.635 32.074, 107.418 31.607 C 104.476 30.478, 101.318 30.991, 99.612 32.876 M 46.092 60.943 C 45.198 61.496, 44.494 65.763, 43.907 74.189 C 43.036 86.700, 43.093 87.872, 44.854 93.675 C 45.384 95.421, 45.597 97.070, 45.328 97.339 C 45.058 97.608, 45.340 98.767, 45.954 99.914 C 46.939 101.754, 47.987 102, 54.844 102 C 65.329 102, 65.993 101.402, 67.131 90.935 C 68.099 82.031, 67.385 64.241, 65.968 61.948 C 65.013 60.403, 48.331 59.560, 46.092 60.943 M 113.037 81.276 C 110.271 82.676, 106.139 93.781, 106.050 100.057 C 105.995 103.970, 101.420 113.723, 95.992 121.500 C 94.073 124.250, 91.781 128.075, 90.899 130 C 90.017 131.925, 88.037 134.926, 86.497 136.668 C 83.745 139.784, 81.045 145.924, 81.015 149.135 C 80.996 151.185, 85.178 154, 88.242 154 C 91.883 154, 94.392 151.634, 99.067 143.791 C 101.457 139.781, 105.570 134.338, 108.206 131.695 C 110.843 129.052, 113 126.464, 113 125.945 C 113 125.425, 114.586 125, 116.525 125 C 119.256 125, 120.245 125.507, 120.919 127.250 C 121.397 128.488, 123.001 130.625, 124.485 132 C 125.968 133.375, 128.828 136.740, 130.841 139.477 C 134.670 144.686, 140.747 150.638, 144.371 152.729 C 147.726 154.665, 153.921 156.160, 155.939 155.519 C 160.843 153.963, 157.675 143.411, 151.325 140.157 C 149.221 139.079, 145.475 136.199, 143 133.758 C 140.525 131.317, 138.020 129.135, 137.434 128.910 C 136.848 128.684, 134.269 125.237, 131.704 121.250 C 129.139 117.263, 126.445 114, 125.716 114 C 124.988 114, 122.893 112.453, 121.061 110.563 L 117.729 107.125 119.364 102.125 C 121.292 96.233, 121.568 82.968, 119.800 81.200 C 118.274 79.674, 116.155 79.698, 113.037 81.276" stroke="none" fill="black" fill-rule="evenodd"/>
</svg>