<svg xmlns="http://www.w3.org/2000/svg" width="256" height="256" viewBox="0 0 256 256" version="1.1">
	<path d="M 61.519 27.750 C 60.110 29.262, 58.501 32.180, 57.944 34.233 C 56.698 38.831, 54.649 40.001, 48.105 39.854 C 42.202 39.721, 40 41.130, 40 45.041 C 40 51.608, 43.425 53.820, 50 51.500 C 52.824 50.503, 54.803 50.355, 56.527 51.010 C 58.637 51.812, 59 52.592, 59 56.320 C 59 59.511, 58.341 61.456, 56.555 63.534 C 54.457 65.975, 53.469 66.346, 49.591 66.145 C 39.630 65.630, 28.231 76.377, 34.934 79.965 C 38.600 81.927, 44.895 81.108, 53.035 77.611 C 53.942 77.221, 55.476 77.795, 56.785 79.014 C 59.405 81.455, 59.653 85.958, 57.594 93.691 C 56.355 98.347, 56.382 99.027, 57.856 100.289 C 62.414 104.190, 67.666 102.805, 70.836 96.865 C 72.395 93.945, 73 91.054, 73 86.528 C 73 79.063, 73.812 78.130, 81.198 77.108 C 88.989 76.030, 91 74.647, 91 70.366 C 91 67.669, 90.245 66.097, 87.894 63.901 C 84.591 60.816, 82.476 60.429, 77.189 61.946 C 74.455 62.730, 73.559 62.559, 71.946 60.946 C 69.583 58.583, 69.555 58.080, 71.624 55.127 C 73.110 53.005, 73.839 52.841, 80.246 53.190 L 87.245 53.572 89.623 49.806 C 92.722 44.895, 92.621 42.969, 89.084 39.580 C 86.410 37.019, 85.643 36.816, 79.857 37.143 L 73.547 37.500 72.945 33.836 C 71.541 25.295, 66.372 22.541, 61.519 27.750 M 131.892 29.441 C 131.649 29.684, 129.212 30.165, 126.475 30.510 C 123.739 30.855, 118.125 32.057, 114 33.182 C 98.126 37.511, 97.375 38.619, 97.140 58.036 C 96.925 75.887, 95.806 83.183, 92.526 88.140 C 88.171 94.720, 89.654 103.300, 95.417 104.868 C 99.656 106.021, 101.789 104.647, 102.608 100.238 C 102.989 98.182, 103.875 95.600, 104.576 94.500 C 105.277 93.400, 106.502 89.316, 107.297 85.425 C 109.689 73.717, 111.892 71.517, 119.780 72.960 C 128.256 74.510, 128.494 74.977, 128.543 90.124 C 128.567 97.481, 128.953 104.717, 129.401 106.204 C 130.104 108.538, 129.893 108.988, 127.858 109.491 C 125.524 110.068, 97.473 110.287, 83 109.842 C 76.363 109.638, 60.466 111.200, 59.517 112.150 C 58.184 113.483, 56.440 121.035, 57.166 122.332 C 57.675 123.242, 57.529 125.732, 56.809 128.425 C 55.847 132.021, 55.851 133.699, 56.828 136.400 C 57.521 138.317, 57.940 143.119, 57.782 147.326 C 57.531 154.007, 57.754 155.103, 59.811 157.296 C 61.891 159.512, 62.534 159.667, 66.220 158.839 C 68.473 158.333, 78.683 157.992, 88.908 158.082 C 117.468 158.333, 138.777 157.430, 140.634 155.889 C 141.993 154.761, 142.160 152.120, 141.829 137.039 C 141.475 120.939, 141.246 119.110, 139.044 114.750 C 137.725 112.138, 136.275 110, 135.823 110 C 134.289 110, 134.990 107.880, 137.695 104.333 C 140.182 101.072, 140.450 99.784, 141.160 87.650 C 141.850 75.879, 142.158 74.314, 144.101 72.730 C 145.616 71.494, 147.213 71.137, 149.396 71.546 C 151.115 71.869, 153.754 71.664, 155.260 71.091 C 158.923 69.699, 158.825 66.505, 155.009 62.858 C 152.506 60.466, 151.161 59.996, 146.759 59.975 C 137.927 59.932, 127.654 59.230, 124.661 58.465 C 122.985 58.036, 120.168 58.284, 117.783 59.071 C 113.874 60.362, 113.669 60.316, 111.372 57.646 C 108.452 54.251, 108.357 51.087, 111.073 47.635 C 112.536 45.774, 114.079 45.001, 116.323 45.003 C 119.219 45.006, 131.487 42.377, 141.500 39.607 C 146.611 38.193, 147.336 35.142, 143.422 31.515 C 141.421 29.661, 139.608 29, 136.521 29 C 134.218 29, 132.135 29.199, 131.892 29.441 M 110.664 123.811 C 104.138 125.116, 101.670 125.179, 95.896 124.189 C 87.791 122.799, 72.124 122.636, 70.095 123.920 C 69.311 124.417, 68.732 126.276, 68.785 128.131 C 68.855 130.592, 69.709 132.130, 72.080 134.065 C 74.722 136.222, 74.995 136.788, 73.641 137.308 C 71.042 138.305, 71.723 140.903, 74.750 141.542 C 76.263 141.861, 79.075 142.825, 81 143.684 C 85.659 145.762, 95.765 146.923, 99.500 145.809 C 101.150 145.317, 106.904 144.933, 112.286 144.956 C 118.499 144.982, 123.295 144.486, 125.422 143.597 C 128.754 142.205, 128.774 142.157, 129.210 134.349 C 129.451 130.032, 129.466 125.967, 129.242 125.315 C 128.927 124.395, 119.606 121.572, 118.701 122.122 C 118.590 122.189, 114.974 122.949, 110.664 123.811" stroke="none" fill="black" fill-rule="evenodd"/>
</svg>