<svg xmlns="http://www.w3.org/2000/svg" width="256" height="256" viewBox="0 0 256 256" version="1.1">
	<path d="M 90.354 31.463 C 88.784 33.368, 86.426 36.326, 85.112 38.038 C 83.799 39.749, 80.988 42.245, 78.866 43.585 C 76.744 44.924, 72.720 49.166, 69.923 53.010 C 67.127 56.855, 64.462 60, 64 60 C 62.499 60, 43.081 74.980, 42.025 76.953 C 40.887 79.079, 40.671 83.979, 41.607 86.418 C 42.509 88.769, 46.728 88.333, 49.694 85.583 C 53.047 82.474, 57.271 81.721, 64.061 83.023 C 67.053 83.596, 74.900 84.306, 81.500 84.601 C 88.100 84.895, 96.200 85.841, 99.500 86.702 C 102.800 87.563, 107.300 88.277, 109.500 88.289 C 116.803 88.328, 127.380 85.913, 131.157 83.344 C 134.682 80.947, 134.971 80.911, 139.186 82.342 C 150.868 86.308, 156 85.366, 156 79.255 C 156 74.655, 153.667 72.654, 138.519 64.260 C 135.779 62.742, 131.504 59.623, 129.019 57.329 C 126.533 55.035, 121.463 50.351, 117.750 46.920 C 113.340 42.846, 111 39.918, 111 38.476 C 111 33.491, 103.507 28, 96.702 28 C 93.931 28, 92.616 28.717, 90.354 31.463 M 94.955 46.757 C 90.062 50.109, 85.742 54.540, 82.532 59.500 C 80.752 62.250, 78.036 65.744, 76.497 67.265 C 74.957 68.786, 73.902 70.235, 74.153 70.486 C 74.605 70.938, 80.339 71.294, 107.601 72.563 C 119.480 73.115, 121.791 72.988, 122.264 71.755 C 122.573 70.950, 121.767 69.149, 120.473 67.754 C 119.178 66.358, 117.020 62.580, 115.677 59.358 C 113.875 55.037, 111.882 52.385, 108.080 49.250 C 102.399 44.566, 99.074 43.935, 94.955 46.757 M 109 95.911 C 108.175 96.379, 99.400 96.988, 89.500 97.266 C 75.024 97.671, 70.815 98.115, 68 99.531 C 62.397 102.351, 61.283 103.775, 59.486 110.412 C 57.742 116.858, 58.066 122.530, 60.893 135 C 61.454 137.475, 61.932 142.459, 61.956 146.076 C 61.993 151.640, 62.359 152.989, 64.335 154.845 C 66.582 156.956, 66.912 156.988, 73.116 155.687 C 77.998 154.664, 81.498 154.575, 87.531 155.319 C 93.435 156.048, 98.092 155.951, 105.500 154.947 C 111 154.201, 120.185 153.479, 125.912 153.342 C 132.842 153.176, 136.579 152.681, 137.085 151.862 C 137.504 151.184, 138.143 147.901, 138.505 144.565 C 138.867 141.229, 139.709 136.250, 140.375 133.500 C 141.042 130.750, 141.511 127.487, 141.418 126.250 C 141.326 125.013, 141.194 120.017, 141.125 115.148 C 140.973 104.383, 139.027 100.737, 131.527 97.172 C 127.128 95.081, 126.196 94.965, 122.366 96.038 C 119.180 96.929, 117.293 96.949, 114.902 96.116 C 111.146 94.806, 110.960 94.800, 109 95.911 M 83 110.018 C 71.072 110.958, 68.621 113.350, 71.603 121.141 C 72.521 123.538, 73.367 127.075, 73.483 129 C 73.622 131.292, 74.359 132.845, 75.618 133.500 C 76.676 134.050, 78.979 135.532, 80.737 136.794 C 88.336 142.250, 96.273 142.924, 114 139.620 C 125.396 137.496, 127.074 135.412, 129.785 120.009 C 130.959 113.346, 130.675 112.484, 126.652 110.474 C 124.092 109.196, 120.399 108.949, 107 109.163 C 97.925 109.308, 87.125 109.692, 83 110.018" stroke="none" fill="black" fill-rule="evenodd"/>
</svg>