<svg xmlns="http://www.w3.org/2000/svg" width="256" height="256" viewBox="0 0 256 256" version="1.1">
	<path d="M 88.209 28.566 C 86.979 29.427, 85.101 31.841, 84.036 33.930 C 82.970 36.019, 79.347 39.927, 75.985 42.614 C 72.623 45.301, 68.888 48.334, 67.686 49.353 C 66.484 50.373, 60.775 53.616, 55 56.560 C 48.882 59.679, 43.696 63.046, 42.574 64.628 C 40.121 68.086, 39.877 74.836, 42.152 76.301 C 44.423 77.765, 57.495 73.908, 64.156 69.809 C 69.085 66.776, 69.288 66.739, 72.056 68.374 C 77.879 71.814, 83.414 73.140, 91 72.911 C 95.125 72.787, 100.838 72.751, 103.696 72.831 C 108.851 72.974, 117.058 70.333, 118.449 68.083 C 119.686 66.080, 124.458 66.976, 131.972 70.622 C 145.288 77.081, 150.697 78.307, 154.184 75.656 C 156.807 73.662, 157.472 69.370, 155.601 66.514 C 153.461 63.248, 150.266 61.730, 139.762 58.986 C 134.490 57.609, 129.260 55.473, 126.578 53.602 C 124.133 51.896, 120.190 49.163, 117.816 47.529 C 115.442 45.895, 109.761 40.945, 105.191 36.529 C 94.795 26.484, 92.631 25.469, 88.209 28.566 M 93.500 46.912 C 89.120 49.693, 85 53.560, 85 54.891 C 85 56.391, 88.216 57.576, 94.692 58.462 C 100.794 59.296, 103.608 58.601, 105.052 55.904 C 105.938 54.246, 105.409 53.251, 101.629 49.471 C 99.170 47.012, 97.010 45.002, 96.829 45.004 C 96.648 45.006, 95.150 45.864, 93.500 46.912 M 75.661 77.672 C 75.408 77.925, 71.942 78.890, 67.958 79.816 C 62.247 81.144, 60.270 82.099, 58.608 84.333 L 56.500 87.166 59 89.214 C 61.392 91.174, 62.306 91.233, 80.066 90.590 C 99.480 89.887, 105.301 90.284, 108.363 92.523 C 110.812 94.314, 110.806 100.452, 108.352 103.163 C 104.563 107.350, 101.656 108.026, 86.859 108.160 C 79.061 108.231, 70.615 108.814, 68.090 109.455 C 64.029 110.487, 63.341 111.075, 62.116 114.560 C 60.416 119.401, 59.501 134.647, 60.719 137.841 C 61.210 139.129, 61.291 142.896, 60.900 146.213 C 59.730 156.136, 62.679 160.495, 69.500 158.926 C 71.150 158.547, 77.225 158.181, 83 158.112 C 88.775 158.044, 97.961 157.316, 103.413 156.494 C 108.865 155.672, 117.640 154.994, 122.913 154.986 C 128.186 154.979, 133.530 154.697, 134.790 154.359 C 139.073 153.212, 140.084 148.318, 139.952 129.371 C 139.850 114.642, 139.593 111.953, 138.166 110.731 C 135.905 108.795, 133.333 107.941, 128 107.359 C 125.525 107.088, 122.938 106.686, 122.250 106.465 C 120.373 105.861, 120.746 101.955, 122.857 100.117 C 125.177 98.096, 129 90.699, 129 88.230 C 129 83.170, 119.218 77.605, 110.500 77.705 C 97.154 77.858, 83.934 77.774, 80.310 77.514 C 78.006 77.348, 75.914 77.420, 75.661 77.672 M 110.598 121.571 C 107.828 122.586, 102.462 122.975, 92.098 122.912 C 77.107 122.821, 74.389 123.236, 72.282 125.938 C 70.652 128.027, 70.703 130.198, 72.459 133.583 C 73.395 135.388, 73.580 136.801, 72.976 137.529 C 71.005 139.904, 77.990 145, 83.215 144.999 C 87.874 144.998, 100.721 142.196, 104.116 140.440 C 105.691 139.626, 107.199 139.007, 107.467 139.064 C 107.736 139.122, 110.103 139.735, 112.728 140.426 C 116.352 141.381, 118.303 141.412, 120.840 140.556 C 124.985 139.158, 125.736 137.845, 126.429 130.778 C 126.953 125.440, 126.828 125.033, 123.913 122.580 C 120.435 119.653, 116.620 119.364, 110.598 121.571" stroke="none" fill="black" fill-rule="evenodd"/>
</svg>