<svg xmlns="http://www.w3.org/2000/svg" width="256" height="256" viewBox="0 0 256 256" version="1.1">
	<path d="M 81.854 31.689 C 80.399 31.922, 78.374 33.035, 77.354 34.161 C 75.722 35.965, 75.488 38.119, 75.399 52.160 C 75.310 66.308, 75.509 68.378, 77.165 70.482 C 79.239 73.119, 85.158 75.497, 89 75.237 C 90.375 75.144, 100.646 75.059, 111.825 75.049 C 130.447 75.031, 132.382 74.864, 134.925 73.054 L 137.700 71.077 137.485 55.353 L 137.271 39.628 134.385 37.302 C 130.050 33.807, 126.155 33.139, 106.713 32.554 C 96.930 32.260, 87.930 31.850, 86.713 31.642 C 85.496 31.434, 83.309 31.455, 81.854 31.689 M 53.441 43.297 C 51.296 45.142, 50.495 47.159, 49.368 53.547 C 46.762 68.316, 46.669 70.843, 48.432 78.817 C 49.366 83.043, 50.326 87.478, 50.565 88.673 C 50.804 89.868, 52.165 92.231, 53.589 93.923 L 56.178 97 71.066 97 C 85.406 97, 86.008 97.083, 87.415 99.250 C 88.923 101.572, 89.083 108.545, 87.678 110.750 C 86.720 112.255, 82.125 112.378, 78.491 110.997 C 75.147 109.725, 69.808 109.199, 53.269 108.512 C 40.928 108, 39.901 108.099, 38.019 109.981 C 35.842 112.158, 35.401 116.013, 36.990 118.982 C 37.879 120.643, 39.401 120.836, 51.867 120.871 C 67.606 120.914, 74.426 122.195, 76.602 125.516 C 77.933 127.547, 77.862 128.130, 75.856 131.631 C 74.636 133.759, 72.482 136.750, 71.069 138.278 C 68.250 141.325, 56.961 148.321, 53 149.476 C 48.150 150.889, 44.012 154.363, 44.039 157 C 44.103 163.442, 48.634 164.608, 59.554 160.995 C 67.611 158.330, 70.590 156.471, 78.496 149.179 C 84.641 143.511, 90.062 139.748, 93.783 138.568 C 95.641 137.979, 96.882 138.671, 100.438 142.278 C 104.542 146.441, 108.027 148, 113.230 148 C 114.319 148, 117.525 149.168, 120.355 150.596 C 128.065 154.487, 135.345 157.036, 139.156 157.180 C 143.548 157.345, 147 155.468, 147 152.915 C 147 150.402, 144.669 145.800, 142.474 143.978 C 140.019 141.941, 128.304 137.977, 121.947 137.033 C 118.704 136.551, 114.767 135.103, 112.479 133.550 C 109.891 131.794, 107.789 131.081, 106.282 131.446 C 105.027 131.751, 102.879 132.273, 101.509 132.606 C 99.719 133.042, 98.838 132.742, 98.377 131.539 C 98.023 130.619, 98.146 129.454, 98.649 128.951 C 99.152 128.448, 105.849 127.809, 113.532 127.530 C 131.181 126.890, 152.717 124.480, 154.577 122.936 C 157.924 120.159, 155.514 115.286, 149.700 113.076 C 145.836 111.607, 144 106.644, 144 97.667 C 144 85.345, 140.710 83.432, 120 83.709 C 114.775 83.779, 100.947 83.982, 89.270 84.161 C 68.319 84.481, 68.011 84.456, 65.770 82.213 C 63.811 80.252, 63.495 78.884, 63.461 72.221 C 63.387 57.384, 61.870 45.238, 59.816 43.033 C 57.413 40.454, 56.712 40.483, 53.441 43.297 M 93.854 45.778 C 88.774 46.421, 85.775 52.853, 88.799 56.617 C 91.400 59.854, 96.316 61, 107.602 61 C 118.378 61, 122.574 59.918, 123.534 56.892 C 124.427 54.081, 122.945 48.038, 121.134 47.101 C 119.425 46.217, 98.434 45.199, 93.854 45.778 M 109 98.438 C 102.900 99.878, 101.193 101.052, 100.920 104 C 100.190 111.890, 101.945 112.898, 117.025 113.253 C 125.580 113.454, 128.045 113.178, 130.193 111.781 C 132.809 110.079, 132.822 110.012, 131.493 104.975 C 129.502 97.425, 128.872 96.974, 120.629 97.190 C 116.708 97.292, 111.475 97.854, 109 98.438" stroke="none" fill="black" fill-rule="evenodd"/>
</svg>