<svg xmlns="http://www.w3.org/2000/svg" width="256" height="256" viewBox="0 0 256 256" version="1.1">
	<path d="M 94 32.111 C 86.025 32.546, 75.641 32.647, 70.924 32.336 C 61.604 31.720, 56.721 33.153, 55.548 36.848 C 53.922 41.973, 58.362 44, 71.215 44 C 82.767 44, 85.953 45.556, 85.985 51.215 C 86.015 56.562, 75.544 59.139, 57.289 58.277 C 44.088 57.653, 42.694 58.043, 40.855 62.883 C 38.548 68.948, 42.936 74.115, 48.574 71.972 C 51.756 70.762, 59.675 69.755, 67.140 69.610 C 71.390 69.527, 73.301 69.969, 74.890 71.405 C 77.089 73.390, 77.766 78.409, 75.984 79.510 C 75.425 79.856, 75.214 80.538, 75.516 81.027 C 76.395 82.449, 70.976 84.687, 64.851 85.432 C 61.078 85.891, 58.591 86.794, 57.361 88.154 C 55.560 90.144, 55.579 90.238, 58.187 92.345 C 59.654 93.530, 62.013 95.309, 63.428 96.297 C 65.553 97.781, 66 98.887, 66 102.662 C 66 106.602, 65.521 107.669, 62.515 110.422 C 60.500 112.268, 56.941 114.150, 54.074 114.884 C 46.249 116.890, 42 122.161, 42 129.865 C 42 136.095, 45.641 137.858, 50.023 133.750 C 56.460 127.714, 61.677 124, 63.718 124 C 67.626 124, 69.954 132.497, 70.416 148.449 C 70.563 153.520, 71.179 156.625, 72.415 158.510 C 74.084 161.058, 74.508 161.187, 78.851 160.478 C 81.408 160.060, 88 159.596, 93.500 159.447 C 99 159.297, 107.603 158.636, 112.618 157.976 C 119.424 157.082, 123.049 157.059, 126.917 157.889 C 129.767 158.500, 134.050 159, 136.434 159 C 143.398 159, 143.973 157.362, 144.238 136.773 C 144.577 110.363, 144.004 109.592, 123.308 108.656 C 116.487 108.347, 111.856 108.620, 109.308 109.482 C 107.213 110.190, 100.775 111.054, 95 111.401 C 83.802 112.074, 81.413 111.403, 80.984 107.462 C 80.598 103.925, 80.963 103.020, 84.098 99.741 L 87.196 96.500 97.848 96.948 C 118.154 97.802, 133.790 97.450, 136.347 96.082 C 139.778 94.245, 141 90.904, 141 83.357 C 141 73.521, 143.636 70.052, 151.139 70.014 C 152.591 70.006, 154.763 69.203, 155.966 68.229 C 160.569 64.501, 155.095 57.984, 148.431 59.258 C 144.123 60.081, 142.032 56.837, 142.203 49.593 C 142.499 37.034, 140.697 34.802, 128.358 32.441 C 120.325 30.904, 116.737 30.870, 94 32.111 M 103.182 46.094 C 100.882 46.786, 99.444 48.075, 98.494 50.296 C 97.226 53.259, 97.288 53.630, 99.311 55.228 C 102.353 57.629, 127.051 57.848, 129.007 55.492 C 130.222 54.028, 129.843 47.513, 128.462 46.126 C 127.403 45.063, 106.696 45.037, 103.182 46.094 M 96.174 72.965 C 91.170 76.122, 90.312 77.183, 90.781 79.636 C 91.395 82.847, 95.707 84, 107.100 84 C 123.384 84, 131.617 81.076, 130.233 75.784 C 129.391 72.564, 125.845 71.659, 112.500 71.257 C 100.636 70.901, 99.209 71.050, 96.174 72.965 M 98.331 123.931 C 91.088 124.244, 84.802 124.861, 84.363 125.301 C 83.923 125.742, 83.277 128.892, 82.926 132.301 C 82.206 139.297, 83.615 144.189, 86.850 145.920 C 89.518 147.348, 103.116 147.306, 106.685 145.859 C 108.233 145.231, 113.669 144.415, 118.764 144.045 C 123.858 143.675, 128.544 142.856, 129.176 142.224 C 129.808 141.592, 130.734 138.471, 131.234 135.288 C 133.319 122.019, 134.355 122.376, 98.331 123.931" stroke="none" fill="black" fill-rule="evenodd"/>
</svg>