<svg xmlns="http://www.w3.org/2000/svg" width="256" height="256" viewBox="0 0 256 256" version="1.1">
	<path d="M 75 32 C 64.308 32.509, 60.830 33.581, 59.045 36.917 C 58.494 37.946, 57.845 44.348, 57.603 51.144 C 57.252 61.024, 57.529 64.830, 58.987 70.139 C 62.142 81.621, 61.624 81.255, 76.500 82.508 C 80.350 82.832, 84.786 83.600, 86.357 84.214 C 89.114 85.292, 89.191 85.508, 88.573 90.416 C 87.681 97.494, 86.080 98.559, 75.878 98.860 C 71.270 98.996, 65.475 99.586, 63 100.172 C 60.525 100.758, 56.643 101.166, 54.372 101.079 C 51.784 100.980, 50.073 101.402, 49.786 102.210 C 48.692 105.289, 49.910 130.804, 51.413 136.299 C 52.286 139.488, 53 144.051, 53 146.438 C 53 149.091, 53.684 151.623, 54.759 152.951 C 56.466 155.059, 57.285 155.136, 82.009 155.517 C 96.029 155.732, 110.425 155.500, 114 155 C 120.433 154.101, 126.913 154.682, 135.927 156.967 C 142.791 158.707, 143.976 156.936, 145.016 143.382 C 145.804 133.100, 146.424 112.766, 146.133 106.750 C 146.060 105.237, 145.060 103.060, 143.912 101.912 C 142.081 100.081, 141.102 99.908, 135.952 100.506 C 131.534 101.018, 128.769 100.746, 124.790 99.405 C 121.879 98.424, 116.127 97.553, 112 97.467 C 101.728 97.253, 102.170 97.421, 101.420 93.423 C 100.225 87.057, 101.742 85.538, 110.642 84.183 C 114.964 83.525, 120.075 82.968, 122 82.945 C 123.925 82.923, 127.059 82.138, 128.965 81.202 C 134.892 78.291, 136.635 72.557, 137.564 52.910 L 138.253 38.320 134.877 36.264 C 133.019 35.133, 129.025 33.719, 126 33.121 C 119.760 31.888, 90.742 31.250, 75 32 M 76.049 46.017 C 71.031 47.198, 70 49.255, 70 58.080 C 70 70.331, 69.433 70.036, 93.225 70.194 C 120.547 70.377, 122.661 69.297, 123.770 54.593 C 124.512 44.753, 125.074 44.978, 100.059 45.102 C 88.751 45.159, 77.947 45.570, 76.049 46.017 M 89 111.118 C 75.555 112.228, 69.646 113.121, 66.192 114.564 C 62.855 115.959, 62.808 116.063, 63.418 120.741 C 63.759 123.359, 64.218 127.886, 64.438 130.802 C 64.658 133.718, 65.572 137.224, 66.469 138.593 C 67.962 140.871, 68.668 141.067, 74.800 140.904 C 78.485 140.806, 88.895 140.947, 97.933 141.217 C 115.070 141.729, 128.112 140.366, 130.571 137.806 C 132.100 136.214, 133.480 116.077, 132.190 114.178 C 130.850 112.204, 124.821 111.159, 117.240 111.586 C 113.533 111.795, 107.350 111.636, 103.500 111.232 C 99.650 110.829, 93.125 110.777, 89 111.118" stroke="none" fill="black" fill-rule="evenodd"/>
</svg>