<svg xmlns="http://www.w3.org/2000/svg" width="256" height="256" viewBox="0 0 256 256" version="1.1">
	<path d="M 71.190 31.932 C 62.775 32.445, 61.694 32.741, 59.962 35 C 58.907 36.375, 58.035 38.175, 58.023 39 C 58.011 39.825, 57.793 46.125, 57.538 53 C 56.712 75.270, 60.396 83.704, 70.500 82.681 C 72.700 82.458, 80.121 82.961, 86.992 83.800 C 97.068 85.029, 100.794 85.099, 106.260 84.162 C 109.988 83.523, 115.339 83, 118.153 83 C 124.253 83, 130.433 81.303, 132.367 79.097 C 135.364 75.677, 137 66.486, 137 53.061 C 137 37.907, 136.268 35.967, 129.669 33.622 C 125.035 31.975, 88.004 30.905, 71.190 31.932 M 76.172 46.127 C 71.760 47.414, 68.538 54.210, 69.269 60.691 C 70.123 68.275, 70.880 68.609, 88.767 69.318 C 109.742 70.149, 116.146 69.316, 120.236 65.225 C 122.887 62.575, 123.420 61.209, 123.724 56.298 C 123.944 52.751, 123.571 49.530, 122.763 48 L 121.442 45.500 100.471 45.328 C 88.937 45.234, 78.002 45.593, 76.172 46.127 M 48.409 93.961 C 45.854 95.008, 44.769 97.755, 42.070 110 C 39.729 120.622, 39.321 128.456, 40.286 144.262 C 40.980 155.631, 41.785 158.279, 45.082 160.044 C 46.754 160.938, 47.970 160.586, 51.887 158.073 C 54.896 156.141, 59.673 154.378, 64.832 153.293 L 73.008 151.574 78.383 154.482 C 83.596 157.302, 83.836 157.338, 86.379 155.672 C 88.257 154.441, 89.028 153.039, 89.100 150.727 C 89.644 133.233, 89.902 128.188, 90.347 126.302 C 90.799 124.386, 90.080 118.886, 87.393 103.694 C 86.930 101.075, 85.739 99.140, 83.575 97.489 C 80.771 95.351, 79.076 95.026, 67.965 94.502 C 61.109 94.179, 54.375 93.732, 53 93.510 C 51.625 93.287, 49.559 93.490, 48.409 93.961 M 103.114 96.550 C 101.301 98.460, 100.782 100.020, 100.955 103.033 C 101.340 109.758, 101.275 114.263, 100.706 120.305 C 100.371 123.854, 100.671 127.740, 101.477 130.305 C 102.202 132.612, 103.530 138.550, 104.428 143.500 C 106.399 154.370, 108.202 156.543, 114.425 155.548 C 116.612 155.198, 118.994 154.420, 119.719 153.818 C 120.559 153.121, 123.118 152.967, 126.769 153.394 C 144.577 155.477, 152.414 155.902, 153.679 154.851 C 154.543 154.135, 155 151.339, 155 146.781 C 155 142.946, 155.696 137.412, 156.547 134.485 C 157.823 130.096, 157.940 126.831, 157.214 115.894 L 156.332 102.626 152.566 99.371 C 147.909 95.345, 144.083 94.437, 138.437 96.018 C 136.039 96.689, 132.822 96.980, 131.289 96.664 C 121.018 94.548, 117.783 94.115, 112 94.077 C 106.326 94.040, 105.197 94.354, 103.114 96.550 M 118.500 107.945 C 117.400 108.396, 115.625 109.736, 114.556 110.925 C 112.733 112.952, 112.688 113.614, 113.840 121.583 C 114.516 126.256, 114.810 130.499, 114.494 131.010 C 113.500 132.619, 116.934 137.950, 119.268 138.423 C 123.536 139.288, 137.513 139.972, 139.575 139.417 C 142.575 138.609, 143.582 134.063, 143.538 121.531 L 143.500 110.561 139 108.835 C 134.251 107.013, 122.069 106.485, 118.500 107.945 M 55.119 111.373 C 53.194 113.422, 52.895 114.822, 52.927 121.623 C 52.948 125.955, 52.707 131.115, 52.392 133.088 C 51.458 138.937, 53.408 140.054, 63.287 139.329 C 67.804 138.997, 72.268 138.332, 73.207 137.851 C 76.716 136.052, 77.853 116.500, 74.727 111.715 C 73.049 109.145, 72.537 109, 65.151 109 C 58.233 109, 57.096 109.269, 55.119 111.373" stroke="none" fill="black" fill-rule="evenodd"/>
</svg>