<svg xmlns="http://www.w3.org/2000/svg" width="256" height="256" viewBox="0 0 256 256" version="1.1">
	<path d="M 67.500 33.650 C 63.100 35.032, 56.037 36.952, 51.804 37.915 C 42.859 39.950, 41 41.186, 41 45.099 C 41 49.291, 44.686 51.414, 50.217 50.407 C 55.795 49.392, 57.120 49.666, 59.353 52.295 C 61.347 54.642, 61.257 59.896, 59.131 65.269 C 58.066 67.961, 57.832 68.034, 50.768 67.895 C 42.286 67.728, 34 70.617, 34 73.742 C 34 76.990, 36.906 79.896, 40.779 80.520 C 49.226 81.883, 53.877 83.238, 54.352 84.474 C 55.168 86.603, 51.267 93.339, 47.966 95.500 C 42.439 99.119, 39.360 104.296, 35.865 115.847 C 35.308 117.688, 33.987 120.613, 32.930 122.347 C 31.873 124.081, 31.006 126.434, 31.004 127.576 C 30.999 130.471, 35.278 134.241, 38.107 133.832 C 40.969 133.419, 46.599 126.196, 47.948 121.208 C 49.697 114.738, 51.538 113, 56.639 113 L 61.165 113 60.587 133.058 C 60.104 149.782, 60.259 153.599, 61.514 156.028 C 64.374 161.558, 69.178 161.710, 72.670 156.381 C 74.136 154.143, 74.446 151.578, 74.397 142.077 C 74.364 135.710, 73.982 128.162, 73.547 125.304 C 73.112 122.447, 73.044 118.959, 73.397 117.554 C 74.004 115.136, 74.397 114.998, 80.769 114.968 C 87.949 114.934, 90.265 113.891, 91.449 110.159 C 92.795 105.919, 91.133 101.672, 86.104 96.500 C 78.790 88.979, 78.773 88.970, 75.149 90.725 C 73.417 91.564, 72 92.644, 72 93.125 C 72 93.606, 70.313 93.964, 68.250 93.921 C 66.188 93.878, 65.063 93.615, 65.750 93.338 C 66.438 93.060, 67 91.971, 67 90.917 C 67 89.454, 67.710 89, 70 89 C 73.050 89, 74.267 86.678, 71.750 85.662 C 71.063 85.385, 72.188 85.122, 74.250 85.079 C 76.618 85.029, 78.006 85.461, 78.015 86.250 C 78.025 87.041, 78.301 87.126, 78.765 86.482 C 79.169 85.921, 81.901 85.471, 84.837 85.482 C 89.456 85.498, 90.498 85.123, 92.587 82.694 C 96.081 78.632, 95.803 74.459, 91.880 72.073 C 88.927 70.277, 87.577 70.216, 80.878 71.572 C 76.874 72.382, 73.372 71.111, 72.136 68.398 C 71.252 66.459, 71.415 64.760, 72.918 60.225 C 73.962 57.076, 75.112 53.178, 75.474 51.562 C 76.379 47.525, 78.676 46.069, 84.200 46.032 C 87.485 46.010, 89.176 45.508, 89.815 44.366 C 91.111 42.050, 89.570 36.236, 86.909 33.403 C 83.926 30.228, 78.157 30.301, 67.500 33.650 M 103.515 47.167 C 100.970 49.168, 100.807 49.720, 101.364 54.417 C 101.696 57.212, 101.442 63.448, 100.801 68.273 C 99.862 75.330, 99.896 78.069, 100.975 82.273 C 101.712 85.148, 102.387 93.350, 102.474 100.500 C 102.657 115.474, 103.548 126.197, 105.539 137.391 C 106.312 141.732, 106.688 145.696, 106.375 146.202 C 105.712 147.275, 107.934 153.192, 109.365 154.165 C 110.624 155.021, 114 148.754, 114 145.559 C 114 141.490, 117.862 138.294, 125 136.458 C 132.634 134.493, 135.892 134.110, 138.136 134.914 C 141.275 136.038, 146 140.312, 146 142.027 C 146 144.272, 148.569 146.379, 150.435 145.663 C 153.037 144.665, 154.075 137.367, 154.478 117.240 C 154.696 106.383, 155.445 90.750, 156.143 82.500 C 158.365 56.239, 156.946 47.831, 150.183 47.182 C 148.358 47.006, 144.641 47.340, 141.923 47.923 C 137.901 48.786, 135.076 48.613, 126.741 46.994 C 113.060 44.338, 107.054 44.383, 103.515 47.167 M 115.036 61.405 C 113.341 65.863, 112.048 84.065, 113.052 89.340 C 113.559 92.002, 114.007 99.202, 114.048 105.340 C 114.167 123.006, 116.014 127.004, 123.116 124.967 C 124.970 124.435, 129.008 124, 132.088 124 C 141.385 124, 141.466 123.787, 141.679 98.641 C 141.778 87.014, 141.923 74.174, 142.002 70.108 C 142.189 60.433, 141.411 59.600, 133.699 61.217 C 129.069 62.189, 127.331 62.165, 124.728 61.097 C 118.295 58.456, 116.131 58.524, 115.036 61.405 M 67.813 97.683 C 68.534 97.972, 69.397 97.936, 69.729 97.604 C 70.061 97.272, 69.471 97.036, 68.417 97.079 C 67.252 97.127, 67.015 97.364, 67.813 97.683" stroke="none" fill="black" fill-rule="evenodd"/>
</svg>