<svg xmlns="http://www.w3.org/2000/svg" width="256" height="256" viewBox="0 0 256 256" version="1.1">
	<path d="M 118.525 29.782 C 115.901 30.382, 114.273 32.738, 113.538 37 C 113.206 38.925, 112.502 42.525, 111.974 45 C 108.563 60.985, 108 64.524, 108 69.987 C 108 79.540, 102.838 87.896, 99.640 83.522 C 97.416 80.481, 95.733 73.031, 96.305 68.765 C 96.911 64.244, 95.173 59.664, 92.455 58.621 C 91.565 58.280, 83.561 57.994, 74.668 57.986 C 65.776 57.979, 57.519 57.709, 56.319 57.388 C 53.610 56.661, 52.500 54.048, 54.213 52.430 C 55.665 51.060, 67.343 47.996, 71.064 48.008 C 73.672 48.017, 86.029 45.295, 89.750 43.891 C 93.106 42.626, 92.665 38.738, 88.796 35.482 C 85.208 32.463, 83.395 32.447, 67 35.293 C 48.398 38.522, 43.528 41.839, 41.083 52.943 C 39.177 61.602, 39.308 66.805, 41.538 71 C 43.978 75.591, 44.669 91.663, 43.041 105.956 C 41.656 118.112, 40.657 122.691, 37.991 129.095 C 35.230 135.727, 33.783 143.008, 34.483 146.750 C 34.983 149.423, 35.550 150, 37.678 150 C 39.115 150, 41.135 149, 42.221 147.750 C 44.281 145.379, 47.417 139.024, 47.154 137.750 C 47.069 137.338, 47.410 137, 47.912 137 C 48.413 137, 48.696 136.213, 48.540 135.250 C 48.171 132.966, 49.785 131, 52.030 131 C 53.569 131, 53.795 131.868, 53.673 137.318 C 53.520 144.169, 55.046 147.673, 59.433 150.548 C 61.664 152.010, 62.145 151.967, 66.098 149.950 C 70.052 147.933, 71.156 147.834, 81.429 148.576 C 87.518 149.016, 93.850 149.326, 95.500 149.264 C 97.150 149.202, 100.408 149.852, 102.741 150.708 C 109.294 153.113, 114.205 151.278, 123.988 142.769 C 130.279 137.297, 132.500 135.910, 134.258 136.357 C 135.491 136.671, 139.929 140.319, 144.120 144.464 C 153.464 153.704, 156.858 154.358, 160.366 147.595 C 162.414 143.649, 161.251 141.148, 154.010 133.930 C 150.704 130.635, 148 127.571, 148 127.122 C 148 126.673, 147.048 125.225, 145.885 123.903 C 141.305 118.701, 140.742 117.209, 141.482 112.252 C 141.872 109.638, 142.755 106.375, 143.444 105 C 147.978 95.950, 148.044 95.728, 151.577 77.620 C 153.002 70.315, 153.815 68.290, 156.155 66.204 C 158.169 64.410, 159 62.728, 159 60.445 C 159 55.633, 156.348 53.146, 149.763 51.781 C 144.819 50.757, 142.983 50.853, 136.470 52.475 L 128.912 54.357 126.821 52.265 C 125.053 50.498, 124.706 48.844, 124.578 41.578 C 124.453 34.445, 124.093 32.672, 122.464 31.156 C 121.384 30.152, 119.611 29.533, 118.525 29.782 M 125.519 65.750 C 122.083 69.181, 120.996 71.973, 121.015 77.315 C 121.033 82.174, 121.042 82.190, 127.153 87.682 C 132.759 92.719, 135.604 92.628, 136.589 87.379 C 136.940 85.508, 137.626 83.731, 138.113 83.430 C 138.601 83.129, 139 79.539, 139 75.454 L 139 68.025 135.020 65.513 C 129.991 62.338, 128.908 62.365, 125.519 65.750 M 60.500 71.474 C 56.855 72.796, 53 76.128, 53 77.956 C 53 78.360, 53.788 79.394, 54.750 80.254 C 56.621 81.926, 73.738 83.402, 79.015 82.347 C 83.497 81.451, 85.046 74.134, 81.180 72.120 C 77.797 70.357, 64.707 69.948, 60.500 71.474 M 95.500 94.593 C 92.478 95.432, 86.346 95.922, 80 95.832 C 59.855 95.548, 51.915 97.790, 53.550 103.301 C 54.406 106.190, 57.056 108.202, 58.971 107.420 C 62.311 106.056, 73.058 105.822, 82.945 106.898 C 88.676 107.521, 93.514 108.181, 93.698 108.364 C 93.881 108.547, 94.686 111.212, 95.486 114.286 C 97.060 120.329, 97.397 127.141, 96.437 133.535 C 95.964 136.684, 96.266 138.107, 97.811 140.016 C 99.690 142.336, 99.949 142.385, 102.838 140.981 C 108.532 138.213, 119.795 128.536, 122.590 124.009 C 124.708 120.578, 125.475 117.890, 125.799 112.764 C 126.033 109.060, 125.961 104.980, 125.639 103.699 C 124.864 100.612, 121.658 97, 119.692 97 C 118.826 97, 117.879 96.613, 117.586 96.139 C 117.293 95.666, 114.229 95.016, 110.777 94.695 C 107.325 94.374, 103.600 93.908, 102.500 93.659 C 101.400 93.410, 98.250 93.830, 95.500 94.593 M 71.321 118.141 C 68.925 119.352, 66.703 123.852, 66.528 127.849 C 66.342 132.103, 69.204 134, 75.809 134 C 83.908 134, 85.496 132.637, 84.643 126.414 C 84.275 123.727, 83.165 120.721, 82.177 119.733 C 79.953 117.508, 74.233 116.670, 71.321 118.141" stroke="none" fill="black" fill-rule="evenodd"/>
</svg>