<svg xmlns="http://www.w3.org/2000/svg" width="256" height="256" viewBox="0 0 256 256" version="1.1">
	<path d="M 93 26.734 C 92.175 27.051, 89.516 28.928, 87.091 30.905 L 82.683 34.500 61.915 34.500 C 42.353 34.500, 40.984 34.622, 38.324 36.608 C 34.707 39.308, 34.557 43.025, 38 44.661 C 39.375 45.314, 48.752 46.258, 58.838 46.758 C 72.417 47.432, 77.394 48.020, 78.015 49.025 C 78.641 50.038, 77.553 50.839, 73.715 52.190 C 70.889 53.186, 67.207 54, 65.532 54 C 54.486 54, 49.821 60.723, 58.043 64.792 C 61.586 66.544, 64.085 66.791, 78.204 66.780 C 87.068 66.774, 95.676 66.380, 97.333 65.905 C 99.118 65.392, 100.803 65.422, 101.472 65.977 C 103.116 67.341, 134.897 67.066, 138.289 65.658 C 142.631 63.855, 143.192 57.225, 139.182 55.111 C 136.371 53.629, 125.949 52.496, 117.727 52.779 C 109.723 53.054, 106 52.008, 106 49.484 C 106 47.554, 108.996 46.963, 118 47.116 C 135.162 47.407, 152.255 45.863, 154.745 43.796 C 156.914 41.997, 156.178 38.349, 153.250 36.386 C 150.847 34.775, 147.657 34.477, 127.969 34.021 L 105.439 33.500 100.866 29.750 C 96.214 25.935, 95.647 25.717, 93 26.734 M 81.441 49.468 C 79.638 50.832, 79.811 50.939, 83.872 50.968 C 87.647 50.996, 88.075 50.795, 87 49.500 C 85.432 47.611, 83.908 47.602, 81.441 49.468 M 87.708 71.626 C 86.945 72.388, 81.033 73.269, 65.940 74.869 C 56.196 75.901, 51.135 78.958, 51.499 83.590 C 51.632 85.284, 52.812 88.811, 54.121 91.429 C 56.203 95.594, 57.243 96.490, 62.448 98.606 C 70.337 101.812, 71.615 103.832, 68.228 107.738 C 66.585 109.631, 65.645 109.743, 55.404 109.257 L 44.353 108.734 43.293 111.617 C 41.404 116.755, 41.699 121.109, 43.977 121.704 C 45.090 121.995, 46 122.663, 46 123.188 C 46 123.713, 46.706 123.436, 47.570 122.573 C 49.792 120.351, 53.455 119.638, 55.907 120.950 C 60.740 123.537, 55.559 128.487, 50.453 126.161 C 46.845 124.517, 43.255 124.722, 42.185 126.634 C 40.112 130.339, 44.646 138.858, 48.750 138.967 C 50.489 139.013, 50.317 140.664, 48.500 141.362 C 47.675 141.678, 47 142.520, 47 143.231 C 47 143.943, 45.987 144.970, 44.750 145.513 C 42.280 146.597, 38.708 153.243, 39.205 155.828 C 39.613 157.944, 44.007 159.466, 47.314 158.636 C 48.742 158.278, 53.305 155.012, 57.455 151.378 C 63.538 146.051, 65 144.219, 65 141.921 C 65 138.432, 67.486 136.906, 73.548 136.671 C 79.254 136.450, 81.988 138.784, 80.118 142.279 C 79.430 143.565, 77.362 145.428, 75.521 146.419 C 73.681 147.410, 71.952 149.077, 71.678 150.124 C 70.873 153.201, 72.415 157.221, 75.197 159.298 L 77.786 161.231 83.987 157.926 C 87.397 156.109, 91.322 153.134, 92.709 151.315 C 94.966 148.356, 95.159 147.427, 94.542 142.486 C 93.916 137.482, 94.093 136.678, 96.433 133.898 C 97.852 132.211, 98.759 130.419, 98.448 129.915 C 98.137 129.412, 98.696 129, 99.691 129 C 100.867 129, 101.540 129.788, 101.613 131.250 C 101.675 132.488, 102.340 134.972, 103.090 136.771 C 104.214 139.465, 104.225 140.409, 103.156 142.121 C 100.656 146.125, 104.050 157.343, 108.230 158.889 C 109.399 159.322, 112.413 159.267, 114.928 158.767 C 119.214 157.916, 129.448 158.270, 140.176 159.641 C 144.212 160.156, 145.178 159.913, 147.223 157.868 C 149.464 155.627, 149.555 155.059, 148.879 147.498 C 148.486 143.099, 148.410 137.172, 148.711 134.326 C 149.150 130.168, 148.844 128.483, 147.149 125.741 L 145.041 122.330 148.771 120.373 C 151.657 118.859, 152.568 117.728, 152.801 115.373 C 153.277 110.557, 151.153 109.579, 139.864 109.418 C 132.010 109.307, 129.568 108.919, 128.047 107.543 C 125.275 105.034, 127.107 101.778, 132.553 99.532 C 139.248 96.771, 140.625 94.792, 139.300 89.831 C 138.673 87.481, 138.550 84.568, 139.011 82.962 C 139.574 80.998, 139.346 79.484, 138.237 77.837 C 137.371 76.552, 136.614 75.412, 136.553 75.305 C 136.389 75.014, 123.044 72.901, 119 72.525 C 108.296 71.530, 88.376 70.957, 87.708 71.626 M 67.250 84.360 C 64.523 85.711, 64.486 86.144, 66.849 89.062 L 68.698 91.346 81.599 90.135 C 89.923 89.354, 96.175 89.244, 99.220 89.827 C 101.815 90.324, 107.890 90.517, 112.720 90.257 C 119.809 89.874, 121.938 89.381, 123.774 87.695 L 126.048 85.606 121.274 84.347 C 115.088 82.716, 70.549 82.726, 67.250 84.360 M 86.485 100.872 C 85.376 101.217, 84.532 102.063, 84.610 102.750 C 84.687 103.438, 84.806 104.640, 84.875 105.422 C 85.027 107.156, 90.245 108.979, 95 108.958 C 96.925 108.950, 100.006 109.118, 101.847 109.332 C 105.417 109.746, 109.669 108.257, 110.420 106.331 C 110.670 105.688, 110.116 104.296, 109.188 103.239 C 107.821 101.682, 105.691 101.213, 98 100.780 C 92.775 100.485, 87.593 100.527, 86.485 100.872 M 73 122 C 73 123.187, 72.933 123.173, 80.250 123.515 C 84.624 123.719, 86 123.450, 86 122.392 C 86 121.346, 84.386 121, 79.500 121 C 75.833 121, 73 121.436, 73 122 M 99.918 121.415 C 99.655 121.678, 97.541 122.005, 95.220 122.142 C 92.899 122.279, 91 122.709, 91 123.097 C 91 124.335, 98.028 128, 100.402 128 C 102.774 128, 106 125.217, 106 123.171 C 106 122.527, 105.362 122, 104.582 122 C 103.802 122, 102.541 121.761, 101.780 121.469 C 101.018 121.177, 100.181 121.153, 99.918 121.415 M 127.250 121.746 C 126.013 121.962, 125 122.486, 125 122.909 C 125 123.868, 129.565 126, 131.618 126 C 133.110 126, 136.598 123.206, 135.869 122.596 C 135.078 121.934, 129.384 121.372, 127.250 121.746 M 117.557 137.223 C 115.547 140.091, 115.584 142.441, 117.670 144.527 C 120.215 147.072, 131.608 145.665, 134.871 142.402 C 137.998 139.275, 136.609 137.511, 129.885 136.069 C 122.243 134.430, 119.321 134.703, 117.557 137.223" stroke="none" fill="black" fill-rule="evenodd"/>
</svg>