<svg xmlns="http://www.w3.org/2000/svg" width="256" height="256" viewBox="0 0 256 256" version="1.1">
	<path d="M 63.308 32.884 C 41.509 33.744, 41.784 33.546, 40.721 49.104 C 40.293 55.372, 40.262 63.425, 40.652 67 C 41.042 70.575, 41.498 81.150, 41.664 90.500 C 42.340 128.545, 43.220 143.473, 45.154 149.750 C 46.290 153.436, 49.100 154.034, 53.821 151.593 C 55.784 150.577, 61.411 150.108, 74.021 149.909 C 97.624 149.535, 132.046 150.687, 135.402 151.963 C 136.903 152.533, 140.508 153, 143.413 153 C 148.566 153, 148.736 152.907, 150.304 149.250 C 152.466 144.205, 153.004 134.816, 153.528 93 C 153.772 73.475, 154.459 53.036, 155.055 47.581 C 156.060 38.372, 155.999 37.476, 154.204 35.081 C 152.437 32.723, 151.718 32.520, 145.885 32.737 C 135.670 33.115, 113.833 33.074, 96 32.643 C 86.925 32.424, 72.214 32.532, 63.308 32.884 M 62.270 47.340 C 59.943 47.978, 57.018 49.527, 55.770 50.783 C 53.560 53.005, 53.504 53.563, 53.650 71.783 C 53.814 92.160, 54.837 117.999, 55.856 127.500 L 56.500 133.500 70 133.741 C 77.425 133.874, 86.650 134.642, 90.500 135.448 C 97.501 136.914, 112.847 138.516, 118.500 138.371 C 120.150 138.328, 124.505 138.228, 128.179 138.147 C 135.873 137.978, 137.638 136.792, 138.490 131.218 C 138.802 129.173, 139.716 124.526, 140.521 120.890 C 141.668 115.707, 141.753 113.033, 140.915 108.500 C 139.594 101.355, 139.471 91.107, 140.462 70.919 C 141.264 54.566, 140.744 51.522, 136.551 48.042 C 134.383 46.243, 68.542 45.621, 62.270 47.340 M 81.147 62.994 C 74.406 63.759, 73.629 64.354, 71.994 70 C 68.075 83.540, 68.574 101.135, 73.135 110.210 C 75.421 114.759, 78.142 115.629, 93.500 116.719 C 108.871 117.810, 111.610 117.535, 115.588 114.500 C 119.767 111.313, 121.223 108.553, 123.557 99.397 C 125.240 92.794, 125.253 92.053, 123.748 88.882 C 120.273 81.558, 120.131 80.541, 121.600 73.532 C 122.588 68.821, 122.708 66.353, 121.993 65.492 C 120.049 63.149, 112.828 61.875, 106.500 62.758 C 103.200 63.219, 99.375 63.281, 98 62.897 C 94.888 62.028, 89.384 62.060, 81.147 62.994 M 90.347 76.147 C 88.062 76.660, 84.978 78.295, 83.493 79.780 C 81.104 82.169, 80.862 83.002, 81.398 86.990 C 83.249 100.750, 83.445 101.419, 86 102.709 C 89.115 104.281, 100.383 104.387, 103.316 102.872 C 107.104 100.914, 109.926 96.722, 109.964 92.993 C 109.984 91.065, 110.435 87.970, 110.967 86.116 C 113.394 77.652, 103.959 73.090, 90.347 76.147" stroke="none" fill="black" fill-rule="evenodd"/>
</svg>