<svg xmlns="http://www.w3.org/2000/svg" width="256" height="256" viewBox="0 0 256 256" version="1.1">
	<path d="M 122.750 31.080 C 120.849 32.187, 120.387 36.986, 121.907 39.826 C 123.434 42.680, 122.031 46.551, 118.771 48.476 C 116.176 50.009, 113.194 50.300, 99.106 50.393 C 83.467 50.497, 82.312 50.638, 79.269 52.806 C 77.492 54.073, 75.628 55.843, 75.125 56.740 C 73.874 58.976, 75.835 63, 78.176 63 C 79.196 63, 82.730 63.751, 86.030 64.668 C 90.971 66.042, 92.895 66.137, 96.927 65.206 C 100.653 64.346, 102.787 64.366, 105.852 65.288 L 109.880 66.500 107.173 69.500 C 101.943 75.295, 99.103 76.990, 96.365 75.949 C 92.602 74.518, 88.405 74.807, 86.918 76.599 C 86.188 77.479, 84.585 81.369, 83.357 85.245 C 81.278 91.799, 81.225 92.594, 82.597 96.634 C 83.408 99.023, 83.893 102.220, 83.674 103.739 C 83.137 107.468, 85.404 111.640, 88.967 113.483 C 90.713 114.386, 94.552 115, 98.450 115 C 103.667 115, 105.407 115.407, 107 117 C 109.457 119.457, 109.490 120.247, 107.221 122.300 C 105.826 123.562, 103.503 123.870, 96.471 123.726 C 89.243 123.577, 86.723 123.929, 83.500 125.541 C 80.220 127.182, 79.560 127.988, 79.832 130.021 C 80.014 131.384, 80.812 133.513, 81.605 134.750 C 82.873 136.730, 83.882 137, 90.009 137 C 93.838 137, 98.917 136.480, 101.295 135.844 C 103.673 135.208, 106.906 135.011, 108.480 135.406 C 111.865 136.255, 120.973 145, 118.473 145 C 117.469 145, 116.981 145.665, 117.190 146.750 C 117.674 149.259, 121.317 148.916, 122.486 146.252 C 123.608 143.694, 128.616 141, 132.246 141 C 133.590 141, 135.505 141.900, 136.500 143 C 137.495 144.100, 138.803 145.012, 139.405 145.028 C 140.007 145.043, 141.625 146.624, 143 148.541 C 148.378 156.042, 156.078 158.177, 160.509 153.396 C 164.406 149.191, 167.181 142.599, 166.424 139.345 C 164.659 131.760, 160.501 130.025, 155.059 134.604 C 152.159 137.044, 151.817 137.110, 149.597 135.655 C 148.294 134.802, 146.218 132.016, 144.983 129.465 C 142.048 123.401, 142.617 115.036, 146.405 108.572 C 147.832 106.136, 149 103.379, 149 102.443 C 149 101.508, 150.632 98.936, 152.626 96.729 C 156.125 92.856, 156.233 92.508, 155.717 86.820 C 155.134 80.387, 153.807 78, 150.812 78 C 147.961 78, 144.838 79.930, 145.627 81.205 C 146.038 81.871, 145.851 82.026, 145.155 81.595 C 144.520 81.203, 144 81.390, 144 82.011 C 144 83.949, 139.708 82.607, 139.171 80.500 C 138.389 77.438, 138.425 67.717, 139.225 65.750 C 139.809 64.315, 141.212 64, 147.018 64 C 155.806 64, 159.411 62.313, 161.016 57.452 C 162.483 53.008, 161.664 48.288, 158.738 44.324 C 152.809 36.289, 152.709 36.193, 151.519 37.304 C 150.878 37.904, 150.548 39.415, 150.787 40.664 C 151.086 42.232, 150.283 43.871, 148.187 45.967 C 144.167 49.987, 139.380 50.107, 135.555 46.283 C 133.163 43.890, 132.915 43.055, 133.478 39.296 C 134.032 35.601, 133.781 34.690, 131.605 32.514 C 128.975 29.884, 125.711 29.355, 122.750 31.080 M 46.236 46.787 C 44.618 48.032, 43.696 50.223, 43.007 54.458 C 41.728 62.316, 40.354 63.562, 33.310 63.255 C 30.220 63.121, 27.087 63.513, 26.346 64.128 C 24.498 65.662, 24.654 71.062, 26.629 73.880 C 28.134 76.029, 28.725 76.155, 34.422 75.545 C 39.935 74.955, 40.793 75.113, 42.543 77.046 C 46.829 81.778, 45.181 105.112, 40.274 109.189 C 39.368 109.942, 35.732 110.583, 31.737 110.694 C 27.910 110.801, 24.602 111.064, 24.386 111.280 C 24.170 111.496, 24.281 113.771, 24.633 116.336 C 25.058 119.438, 26.145 121.872, 27.881 123.608 C 30.293 126.021, 30.906 126.162, 35.995 125.481 C 41.123 124.795, 45.259 124.361, 49.094 124.106 C 49.971 124.048, 51.996 122.865, 53.594 121.479 C 56.259 119.166, 57.039 119.007, 63 119.559 C 70.853 120.286, 73 119.089, 73.424 113.751 C 73.767 109.427, 71.186 106, 67.586 106 C 58.820 106, 55.949 102.854, 57.751 95.225 C 58.365 92.626, 59.404 88.088, 60.060 85.141 C 61.085 80.530, 61.861 79.352, 65.615 76.706 C 68.750 74.496, 70.149 72.721, 70.584 70.402 C 71.614 64.914, 70.530 63.437, 64.478 62.083 C 58.510 60.747, 57 59.115, 57 54 C 57 46.311, 51.576 42.677, 46.236 46.787 M 113.984 63.509 C 112.618 64.240, 111.536 64.987, 111.581 65.169 C 111.626 65.351, 112.268 66.625, 113.008 68 C 115.519 72.662, 117.160 97.534, 115.725 109.196 C 115.001 115.088, 115.095 117.398, 116.146 119.491 C 119.208 125.595, 126.740 126.649, 128.807 121.263 C 130.397 117.118, 129.718 101.108, 127.799 97.495 C 125.860 93.847, 125.436 89.763, 126.469 84.693 C 127.106 81.562, 126.712 79.699, 124.244 74.193 C 122.594 70.512, 120.990 66.742, 120.679 65.815 C 119.741 63.023, 116.790 62.007, 113.984 63.509 M 95.223 89.411 C 93.257 93.724, 92.689 98.921, 94.009 100.511 C 96.008 102.919, 100.714 102.367, 102.589 99.504 C 104.313 96.874, 103.879 90.780, 101.788 88.250 C 100.045 86.141, 96.421 86.782, 95.223 89.411" stroke="none" fill="black" fill-rule="evenodd"/>
</svg>