<svg xmlns="http://www.w3.org/2000/svg" width="256" height="256" viewBox="0 0 256 256" version="1.1">
	<path d="M 117.473 31.030 C 115.800 32.879, 115.541 34.796, 115.471 45.839 C 115.406 56.264, 115.045 59.236, 113.446 62.512 C 112.031 65.412, 110.797 66.582, 108.924 66.800 C 106.775 67.050, 106.082 66.470, 104.738 63.300 C 103.852 61.210, 102.847 57.368, 102.504 54.762 C 102.161 52.156, 101.201 49.344, 100.369 48.512 C 98.322 46.465, 94.284 46.601, 93.131 48.755 C 92.030 50.813, 90.138 60.379, 89.423 67.500 C 89.148 70.250, 88.186 75.747, 87.286 79.715 C 85.707 86.680, 85.727 87.287, 87.862 97.290 C 89.078 102.989, 90.296 111.667, 90.569 116.576 C 91.194 127.798, 93.557 140.062, 96.305 146.336 C 98.201 150.667, 99.104 151.488, 104.961 154.211 C 110.856 156.950, 112.869 157.323, 125.401 157.992 C 140.353 158.790, 140.451 158.782, 149.608 155.872 C 158.002 153.205, 159.720 151.061, 161.702 140.780 C 163.512 131.387, 162.836 127.628, 158.892 125.165 C 156.664 123.773, 154 125.044, 154 127.498 C 154 130.238, 148.928 140.001, 146.770 141.415 C 145.508 142.242, 141.452 143.620, 137.757 144.477 C 131.667 145.889, 130.359 145.888, 123.769 144.466 C 119.771 143.603, 115.057 142.640, 113.293 142.325 C 111.529 142.010, 109.448 141.020, 108.669 140.126 C 107.001 138.210, 105.117 132.672, 104.514 127.910 C 104.278 126.048, 103.586 122.443, 102.976 119.899 C 102.097 116.236, 102.174 114.096, 103.345 109.610 C 104.420 105.494, 104.561 102.992, 103.859 100.453 C 102.729 96.361, 105.035 85.724, 107.687 82.793 C 109.890 80.359, 112.795 80.539, 115.056 83.250 C 116.502 84.982, 116.941 87.157, 116.967 92.703 C 117.005 100.960, 118.198 104.313, 121.657 105.890 C 125.376 107.584, 127.805 107.228, 129.426 104.750 C 132.050 100.741, 132.301 95.022, 130.196 87.204 C 128.186 79.739, 128.348 76.403, 131.035 69.915 C 132.038 67.493, 132.825 67, 135.687 67 C 141.123 67, 142.656 68.352, 143.376 73.778 C 143.854 77.378, 143.492 80.161, 141.975 84.565 C 138.833 93.681, 138.813 95.960, 141.823 101.492 C 146.116 109.380, 154.225 112.467, 155.463 106.683 C 155.720 105.483, 156.171 94.879, 156.466 83.119 C 156.972 62.906, 156.891 61.560, 154.983 58.473 C 150.155 50.661, 141.542 49.949, 133.807 56.724 C 132.292 58.051, 131.859 57.950, 129.665 55.756 C 127.439 53.530, 127.203 52.455, 127.089 44.002 C 127.021 38.885, 126.407 33.528, 125.725 32.099 C 124.101 28.694, 120.060 28.171, 117.473 31.030 M 53.200 40.200 C 52.540 40.860, 52 41.924, 52 42.565 C 52 43.206, 51.163 44.803, 50.141 46.115 C 49.118 47.427, 47.951 50.731, 47.548 53.457 C 47.145 56.184, 46.069 58.982, 45.158 59.675 C 44.198 60.405, 40.531 60.950, 36.450 60.968 C 28.754 61.003, 27 61.939, 27 66.009 C 27 71.195, 28.819 72.208, 39.078 72.733 C 44.260 72.998, 49.014 73.729, 49.643 74.358 C 50.286 75.001, 51.086 80.800, 51.473 87.635 L 52.162 99.769 49.331 102.450 C 45.201 106.362, 42.226 107.657, 35.500 108.474 C 32.200 108.874, 28.712 109.623, 27.750 110.136 C 25.146 111.526, 25.627 114.781, 28.923 118.077 C 31.314 120.468, 32.691 121, 36.489 121 C 39.042 121, 41.901 120.588, 42.843 120.084 C 43.784 119.581, 48.102 118.675, 52.439 118.072 C 56.777 117.468, 60.941 116.464, 61.694 115.839 C 62.717 114.990, 64.034 114.993, 66.898 115.851 C 72.768 117.610, 74.892 117.262, 78.147 114.007 C 82.729 109.425, 81.441 106.410, 73.176 102.375 C 72.447 102.020, 70.071 102.316, 67.896 103.034 C 62.133 104.936, 61.229 103.581, 63.481 96.421 C 64.870 92.004, 65.123 89.029, 64.621 83.005 C 63.852 73.781, 64.408 73.017, 72.715 71.890 C 78.841 71.058, 80.302 69.786, 79.472 66 C 78.531 61.702, 74.514 59, 69.067 59 C 63.453 59, 61.652 57.443, 61.795 52.715 C 61.911 48.902, 57.489 39, 55.671 39 C 54.972 39, 53.860 39.540, 53.200 40.200" stroke="none" fill="black" fill-rule="evenodd"/>
</svg>