<svg xmlns="http://www.w3.org/2000/svg" width="256" height="256" viewBox="0 0 256 256" version="1.1">
	<path d="M 81 28.079 C 74.125 28.439, 65.800 29.057, 62.500 29.452 C 59.200 29.848, 53.040 30.523, 48.810 30.954 C 38.194 32.034, 37.549 32.819, 37.316 44.935 C 37.214 50.196, 36.915 63.643, 36.651 74.817 C 36.386 85.992, 36.561 97.917, 37.039 101.317 C 37.517 104.718, 38.167 116.950, 38.484 128.500 C 38.800 140.050, 39.266 150.176, 39.518 151.002 C 40.684 154.815, 43.495 155.210, 66.895 154.855 C 79.328 154.667, 93.550 154.635, 98.500 154.785 C 103.450 154.935, 116.050 155.213, 126.500 155.402 C 136.950 155.592, 146.918 156.074, 148.651 156.473 C 151.174 157.053, 152.243 156.757, 154.015 154.985 C 155.919 153.081, 156.138 152.095, 155.582 147.904 C 155.148 144.635, 155.491 140.977, 156.624 136.768 C 158.573 129.536, 158.849 122.390, 159.033 74.420 C 159.120 52.010, 158.778 37.891, 158.088 35.329 C 156.022 27.653, 156.814 27.829, 123.314 27.615 C 106.916 27.510, 87.875 27.719, 81 28.079 M 109 42.683 C 104.285 43.457, 101 45.231, 101 47.005 C 101 49.321, 103.759 49.970, 113.668 49.986 C 123.423 50.003, 124.632 50.387, 126.544 54.086 C 127.815 56.543, 127.826 57.477, 126.624 60.964 C 125.584 63.985, 125.535 65, 126.429 65 C 127.478 65, 130.173 68.055, 132.351 71.714 C 132.756 72.395, 132.180 73.820, 131.036 74.964 C 129.148 76.852, 127.768 77, 112 77 C 101.333 77, 95 77.373, 95 78 C 95 78.550, 94.662 78.947, 94.250 78.882 C 92.069 78.537, 89 79.109, 89 79.860 C 89 81.146, 99.038 82.070, 112.107 81.987 C 118.771 81.944, 124.770 82.394, 126.193 83.042 C 128.531 84.107, 128.649 84.540, 128.249 90.586 C 127.891 96.005, 128.077 97, 129.445 97 C 131.165 97, 133.036 100.715, 132.296 102.660 C 132.054 103.297, 132.788 104.115, 133.928 104.477 C 136.448 105.277, 136.727 109.517, 134.471 112.738 C 132.991 114.851, 133.320 119.805, 135.019 121 C 135.410 121.275, 136.050 122.525, 136.441 123.778 C 136.998 125.562, 136.463 126.699, 133.970 129.028 C 132.220 130.662, 130.167 132, 129.407 132 C 128.647 132, 126.953 130.313, 125.642 128.250 C 122.197 122.828, 120.118 121.291, 114.500 120.013 C 102.087 117.191, 101 116.777, 101 114.870 C 101 113.842, 100.534 113, 99.965 113 C 99.261 113, 99.252 112.397, 99.936 111.120 C 100.698 109.696, 100.496 108.724, 99.104 107.120 C 96.790 104.452, 95.686 104.468, 89.798 107.250 C 85.674 109.198, 85.035 109.902, 85.033 112.500 C 85.030 116.796, 85.914 117.698, 91.513 119.107 C 97.449 120.600, 99 121.939, 99 125.570 C 99 128.444, 94.147 134, 91.636 134 C 89.616 134, 80.739 138.072, 81.374 138.708 C 81.672 139.005, 88.572 139.445, 96.708 139.686 C 104.843 139.927, 112.906 140.494, 114.624 140.946 C 116.343 141.399, 119.718 141.546, 122.124 141.272 C 124.531 140.999, 129.912 140.713, 134.082 140.638 C 138.848 140.551, 142.285 139.990, 143.332 139.128 C 145.123 137.654, 145.546 132.931, 144.134 130.184 C 143.613 129.171, 143.801 125.943, 144.606 122.080 C 145.576 117.426, 145.690 113.871, 145.022 109.153 C 144.515 105.574, 144.330 102.275, 144.610 101.822 C 144.891 101.368, 145.330 93.235, 145.586 83.748 C 145.842 74.262, 146.093 65.040, 146.144 63.255 C 146.194 61.470, 145.919 56.631, 145.532 52.502 C 144.555 42.077, 144.343 41.964, 126.027 42.136 C 118.037 42.211, 110.375 42.457, 109 42.683 M 55.854 43.706 C 54.399 43.930, 52.374 45.034, 51.354 46.161 C 49.657 48.034, 49.505 50.173, 49.556 71.354 C 49.586 84.084, 49.927 100.575, 50.312 108 C 50.698 115.425, 51.200 125.252, 51.427 129.838 C 51.655 134.423, 52.015 138.349, 52.227 138.561 C 53.115 139.449, 75.618 139.952, 76.900 139.113 C 78.059 138.355, 77.932 137.729, 76.166 135.484 C 74.392 133.228, 74.097 131.750, 74.417 126.706 C 74.783 120.944, 74.638 120.482, 71.521 117.454 C 69.716 115.702, 66.661 113.971, 64.731 113.609 C 61.125 112.933, 59.943 110.829, 60.808 106.627 C 61.136 105.034, 61.829 104.842, 65.454 105.339 C 69.179 105.849, 69.840 105.645, 70.715 103.711 C 71.744 101.438, 70.530 97, 68.879 97 C 68.430 97, 68.316 96.341, 68.625 95.535 C 68.934 94.730, 68.313 92.818, 67.245 91.285 C 64.881 87.892, 63.868 84.200, 65.094 83.442 C 66.183 82.769, 66.315 79.950, 65.250 80.118 C 60.015 80.945, 57.069 74.518, 60.750 70.301 C 64.278 66.259, 68.446 64.974, 77.482 65.143 C 86.841 65.318, 88.681 64.723, 84.573 62.851 C 82.593 61.949, 80.589 61.894, 76.943 62.641 C 70.348 63.992, 68.472 62.061, 68.885 54.348 C 69.026 51.710, 73.336 50.005, 79.899 49.989 C 87.745 49.970, 92.131 48.918, 91.788 47.137 C 91.163 43.893, 86.949 43.025, 72.500 43.165 C 64.800 43.239, 57.309 43.483, 55.854 43.706 M 106.250 63.119 C 104.463 63.635, 103 64.269, 103 64.529 C 103 64.788, 106.938 64.966, 111.750 64.924 C 120.189 64.851, 120.375 64.800, 117 63.500 C 112.893 61.919, 110.679 61.840, 106.250 63.119 M 71.559 79.094 C 65.024 80.676, 66.116 81.082, 76.297 80.856 C 81.634 80.738, 86 80.300, 86 79.883 C 86 79.466, 85.213 79.161, 84.250 79.206 C 83.287 79.251, 80.925 79.029, 79 78.714 C 77.075 78.398, 73.727 78.569, 71.559 79.094 M 113.380 97.152 C 113.760 99.051, 113.400 100.986, 112.376 102.549 C 110.211 105.853, 111.256 109.596, 114.576 110.430 C 118.268 111.356, 120.247 110.452, 122.250 106.922 C 125.722 100.804, 123.306 95.528, 116.644 94.681 C 112.828 94.196, 112.794 94.222, 113.380 97.152" stroke="none" fill="black" fill-rule="evenodd"/>
</svg>