<svg xmlns="http://www.w3.org/2000/svg" width="256" height="256" viewBox="0 0 256 256" version="1.1">
	<path d="M 113.875 30.412 C 113.669 30.593, 98.116 30.986, 79.313 31.286 C 42.855 31.867, 41.471 32.058, 37.846 37 C 36.269 39.151, 36.174 40.022, 37.169 43.234 C 38.019 45.976, 38.049 49.297, 37.282 55.734 C 36.594 61.511, 36.564 66.716, 37.195 71 C 37.722 74.575, 38.298 83.125, 38.476 90 C 38.655 96.875, 39.255 105.217, 39.811 108.539 C 40.469 112.472, 40.486 116.306, 39.862 119.539 C 39.314 122.372, 39.196 130.504, 39.587 138.500 C 40.234 151.734, 40.409 152.628, 42.783 154.838 C 44.656 156.583, 45.955 157.012, 47.897 156.526 C 55.258 154.684, 65.707 154.070, 99.515 153.494 C 134.670 152.894, 136.896 152.964, 143.824 154.884 C 154.674 157.891, 155.656 157.256, 156.311 146.815 C 156.597 142.242, 157.491 135.125, 158.296 131 C 159.240 126.167, 159.615 119.766, 159.351 113 C 159.127 107.225, 159.014 97.775, 159.101 92 C 159.384 73.245, 158.941 38.571, 158.382 35.742 C 158.083 34.225, 156.883 32.472, 155.716 31.848 C 153.825 30.836, 114.915 29.500, 113.875 30.412 M 58.791 44.879 C 55.652 45.230, 52.533 46.067, 51.860 46.740 C 50.092 48.508, 49.040 59.364, 50.211 63.761 C 50.758 65.817, 51.154 70.875, 51.091 75 C 50.792 94.456, 50.828 94.882, 52.967 97.460 C 54.089 98.812, 54.128 99.997, 53.177 103.811 C 51.060 112.298, 50.882 115.789, 52.294 121.195 C 53.083 124.217, 53.353 127.397, 52.915 128.518 C 52.489 129.608, 52.109 132.358, 52.070 134.629 C 51.973 140.315, 54.901 141.573, 64.605 140.017 C 73.729 138.553, 74.071 138.546, 99.350 139.254 C 122.649 139.907, 126.029 139.441, 125.966 135.589 C 125.941 134.062, 123.962 132.357, 118.605 129.250 C 114.576 126.912, 110.362 125, 109.241 125 C 108.121 125, 105.246 126.120, 102.852 127.488 C 97.520 130.536, 95.703 130.597, 91.299 127.876 C 88.200 125.960, 86.913 125.811, 78.181 126.352 C 67.414 127.019, 61.770 125.781, 61.164 122.619 C 60.106 117.106, 67.655 112.487, 75.928 113.585 C 79.908 114.113, 81.298 113.828, 84.336 111.859 C 86.338 110.561, 87.981 109.185, 87.988 108.801 C 88.008 107.624, 81.413 103, 79.713 103 C 78.834 103, 76.543 103.927, 74.623 105.060 L 71.133 107.119 65.816 104.679 C 59.948 101.986, 56.214 98.604, 57.935 97.540 C 58.533 97.171, 59 93.638, 59 89.481 C 59 82.700, 59.229 81.869, 61.740 79.540 C 64.125 77.329, 66.579 76.460, 69.250 76.882 C 69.662 76.947, 70 76.325, 70 75.500 C 70 74.592, 69.072 74, 67.648 74 C 65.038 74, 59.267 70.431, 57.636 67.809 C 56.831 66.515, 57.042 65.611, 58.531 63.966 C 62.076 60.049, 64.271 59.542, 79.972 59.017 L 95.443 58.500 97.646 54.500 C 98.858 52.300, 100.312 49.979, 100.878 49.342 C 101.619 48.508, 101.011 47.771, 98.704 46.710 C 95.068 45.037, 68.344 43.811, 58.791 44.879 M 132.370 45.440 C 128.861 46.968, 127.123 49, 129.326 49 C 132.090 49, 133.996 53.719, 134.387 61.530 C 134.704 67.863, 134.402 69.843, 132.562 73.477 C 130.562 77.428, 130.490 78.088, 131.793 80.573 C 133.126 83.119, 133.004 83.748, 130.076 89.407 C 125.690 97.885, 123.113 102.166, 120.991 104.500 C 119.173 106.500, 118.659 108.105, 118.882 111.089 C 119.070 113.613, 122.976 114.708, 130.085 114.231 C 136.621 113.791, 136.679 113.810, 137.914 116.791 C 139.429 120.450, 137.989 123.700, 132.552 128.890 C 127.531 133.683, 127.881 135.471, 134.250 137.565 C 137.137 138.515, 140.044 139.492, 140.709 139.737 C 141.374 139.982, 142.765 138.791, 143.799 137.090 C 145.577 134.167, 145.661 131.671, 145.338 91.320 C 144.957 43.851, 144.973 43.963, 138.727 44.039 C 136.952 44.061, 134.092 44.691, 132.370 45.440 M 109.800 46.546 C 107.279 47.914, 107.187 48.194, 108.413 50.756 C 109.135 52.265, 110.351 54.806, 111.113 56.401 C 113.902 62.236, 116.728 62.104, 119.729 56 C 122.632 50.097, 122.979 48.122, 121.391 46.534 C 119.466 44.609, 113.356 44.615, 109.800 46.546 M 71.666 73.427 C 71.365 74.212, 71.655 75.285, 72.309 75.812 C 73.919 77.107, 78 75.472, 78 73.532 C 78 71.537, 72.427 71.444, 71.666 73.427 M 114.315 74.332 C 113.114 74.929, 111.658 76.456, 111.080 77.724 C 110.229 79.592, 110.406 80.406, 112.015 82.015 C 114.399 84.399, 116.136 84.498, 120.050 82.474 C 123.577 80.650, 123.861 77.880, 120.811 75.039 C 118.412 72.804, 117.572 72.712, 114.315 74.332 M 89.443 75.418 C 87.543 76.808, 87.554 76.904, 90.002 80.168 C 92.028 82.870, 92.546 84.824, 92.742 90.500 C 92.876 94.350, 93.067 98.962, 93.167 100.749 C 93.290 102.939, 92.605 104.792, 91.063 106.433 L 88.776 108.867 91.205 111.295 C 94.332 114.423, 100.347 116.465, 102.644 115.180 C 105.600 113.525, 105.905 108.510, 103.456 101.812 C 102.560 99.362, 101.822 93.937, 101.747 89.250 C 101.673 84.713, 101.251 81, 100.807 81 C 100.363 81, 100 80.126, 100 79.057 C 100 76.765, 96.429 74, 93.469 74 C 92.321 74, 90.509 74.638, 89.443 75.418 M 73.667 87.667 C 72.658 88.675, 72.868 92.885, 74.035 95.066 C 75.472 97.750, 78.835 97.555, 79.477 94.750 C 80.455 90.477, 78.943 87, 76.108 87 C 75.132 87, 74.033 87.300, 73.667 87.667" stroke="none" fill="black" fill-rule="evenodd"/>
</svg>