<svg xmlns="http://www.w3.org/2000/svg" width="256" height="256" viewBox="0 0 256 256" version="1.1">
	<path d="M 110.433 27.414 C 108.747 28.148, 105.994 30.493, 104.317 32.625 C 101.059 36.764, 90.546 57.809, 89.622 62.041 C 88.928 65.219, 92.052 70.611, 95.498 72.181 C 98.876 73.720, 98.776 77.607, 95.230 82.600 C 89.583 90.553, 88.705 95.084, 92 99.273 C 94.693 102.696, 94.518 105.805, 91.500 108.179 C 88.324 110.677, 88.360 111.811, 91.750 115.862 C 93.858 118.381, 95.455 119.240, 98.593 119.539 C 104.492 120.103, 108.003 121.668, 107.982 123.725 C 107.952 126.674, 102.328 134.069, 94.087 142 C 85.134 150.615, 83.778 153.869, 87.564 157.655 C 91.560 161.651, 96.405 160.389, 101.597 154 C 103.161 152.075, 105.325 149.825, 106.405 149 C 108.607 147.318, 114.289 141.691, 117.855 137.661 C 121.044 134.058, 124.623 134.239, 129.481 138.250 C 139.374 146.416, 152.706 156.120, 154.750 156.642 C 155.988 156.958, 158.125 156.934, 159.500 156.589 C 165.094 155.185, 160.613 144.881, 151.634 138.500 C 146.518 134.864, 141 128.355, 141 125.956 C 141 125.430, 140.438 124.990, 139.750 124.978 C 137.125 124.932, 147.364 121, 150.109 121 C 151.699 121, 153.890 120.110, 154.977 119.023 C 160.225 113.775, 150.977 108.021, 137.236 107.985 C 134.081 107.976, 130.888 107.582, 130.141 107.108 C 129.394 106.635, 128.546 104.156, 128.258 101.599 C 127.437 94.312, 129.149 93.078, 140.062 93.095 C 153.560 93.117, 158.839 89.573, 153.544 84.046 C 149.144 79.454, 144.181 78.617, 128.910 79.895 C 117.596 80.842, 115.327 80.789, 113.404 79.529 C 110.259 77.468, 109.512 74.394, 111.440 71.451 C 112.919 69.194, 113.699 68.992, 121.273 68.901 C 125.798 68.847, 131.975 68.487, 135 68.102 C 139.232 67.563, 141.736 67.842, 145.860 69.314 C 152.046 71.521, 157.361 71.083, 160.321 68.123 C 163.493 64.951, 161.378 60.392, 154 54.497 C 152.625 53.399, 149.335 49.239, 146.689 45.254 C 141.660 37.678, 138.393 35.599, 135.410 38.074 C 134.172 39.102, 133.983 40.544, 134.500 45 C 135.407 52.812, 134.363 53.529, 122.274 53.397 C 111.017 53.275, 108.892 52.090, 110.961 47.093 C 111.653 45.422, 114.622 42.003, 117.558 39.494 C 122.289 35.453, 122.850 34.569, 122.492 31.735 C 121.801 26.276, 116.998 24.555, 110.433 27.414 M 53.250 40.718 C 52.563 40.965, 52 41.632, 52 42.201 C 52 42.770, 50.717 44.697, 49.149 46.483 C 47.535 48.321, 46.021 51.466, 45.658 53.735 C 44.790 59.164, 42.906 60.414, 34.704 61 C 26.990 61.551, 25.247 62.862, 26.354 67.275 C 27.569 72.114, 29.442 73, 38.461 73 C 51.255 73, 52.535 74.816, 50.853 90.578 C 49.983 98.723, 49.632 99.739, 46.815 102.250 C 45.118 103.762, 43.677 105.035, 43.614 105.079 C 43.552 105.122, 40.619 105.365, 37.098 105.619 C 30.107 106.122, 24.664 108.976, 25.200 111.856 C 25.368 112.760, 27.080 114.304, 29.003 115.287 C 32.545 117.096, 33.094 117.102, 52.500 115.519 C 54.700 115.340, 58.229 114.277, 60.343 113.157 C 63.271 111.606, 64.775 111.344, 66.658 112.060 C 72.031 114.103, 81.142 112.787, 83.166 109.677 C 83.533 109.113, 81.764 107.073, 79.236 105.143 C 75.416 102.226, 73.733 101.606, 69.276 101.473 C 62.220 101.262, 61.370 100.323, 62.992 94.529 C 63.738 91.865, 64.041 87.682, 63.716 84.533 C 62.792 75.581, 63.208 75, 70.545 75 C 80.188 75, 82.279 71.819, 77.377 64.605 C 74.785 60.789, 74.696 60.752, 69.520 61.286 C 66.365 61.611, 63.334 61.351, 61.892 60.630 C 59.761 59.563, 59.536 58.878, 59.833 54.339 C 60.074 50.657, 59.593 48.122, 58.097 45.190 C 55.814 40.716, 55.098 40.055, 53.250 40.718 M 101.200 96.723 C 98.865 98.238, 97 100.236, 97 101.223 C 97 102.201, 96.438 103.015, 95.750 103.033 C 95.063 103.052, 95.568 103.956, 96.872 105.043 C 98.745 106.603, 100.599 106.989, 105.681 106.879 C 111.964 106.743, 114.843 105.461, 115.115 102.679 C 115.609 97.628, 112.671 94, 108.089 94 C 106.610 94, 103.510 95.226, 101.200 96.723 M 130 123.964 C 128.434 124.351, 127.381 125.407, 127.180 126.791 C 126.908 128.671, 127.331 129, 130.023 129 C 131.762 129, 134.271 128.145, 135.600 127.100 L 138.015 125.201 135.257 124.273 C 133.741 123.763, 131.375 123.624, 130 123.964" stroke="none" fill="black" fill-rule="evenodd"/>
</svg>