<svg xmlns="http://www.w3.org/2000/svg" width="256" height="256" viewBox="0 0 256 256" version="1.1">
	<path d="M 123.137 29.575 C 121.070 31.059, 120.859 31.790, 121.455 35.386 C 122.646 42.574, 122.551 43.196, 119.969 45.149 C 117.761 46.819, 115.371 47.100, 101.225 47.352 C 85.739 47.627, 84.899 47.747, 82.488 50.012 C 79.889 52.453, 79.848 52.720, 80.041 66 C 80.077 68.475, 80.195 78.305, 80.303 87.845 L 80.500 105.191 77.554 107.539 C 74.919 109.640, 73.914 109.827, 68.054 109.307 C 64.449 108.988, 60.938 108.283, 60.250 107.741 C 58.319 106.218, 58.778 97.087, 61.035 92.111 C 62.298 89.327, 62.963 85.908, 62.851 82.763 C 62.695 78.333, 62.999 77.552, 65.703 75.435 C 67.368 74.133, 69.322 71.637, 70.046 69.889 C 71.258 66.964, 71.181 66.565, 69.084 64.867 C 67.831 63.852, 64.937 62.488, 62.653 61.836 C 56.397 60.049, 55.933 59.431, 56.495 53.627 C 57.019 48.208, 56.150 46.205, 52.413 44.215 C 50.718 43.313, 49.735 43.517, 47.181 45.302 C 44.641 47.078, 43.817 48.601, 42.892 53.233 C 42.262 56.386, 41.110 59.493, 40.333 60.139 C 39.556 60.784, 36.125 61.579, 32.710 61.906 L 26.500 62.500 26.598 66.902 C 26.720 72.430, 28.665 73.995, 35.441 74.015 C 42.737 74.036, 45.309 75.656, 46.425 80.933 C 47.792 87.402, 45.862 103.368, 43.298 106.803 C 41.440 109.293, 40.690 109.514, 33.510 109.683 C 29.233 109.784, 25.278 110.322, 24.722 110.878 C 24.039 111.561, 24.129 113.388, 24.998 116.494 C 26.685 122.517, 29.880 124.209, 40.683 124.798 C 47.698 125.180, 49.529 124.922, 53.519 122.991 C 57.190 121.214, 59.263 120.851, 63.336 121.273 C 69.773 121.941, 73.681 123.673, 74.328 126.146 C 74.978 128.634, 73.322 134.535, 71.447 136.410 C 69.587 138.270, 67.814 147.343, 68.626 150.852 C 71.145 161.746, 80.072 159.779, 81.568 148 C 82.631 139.638, 84.792 129.757, 85.704 129.093 C 86.152 128.767, 87.639 126.816, 89.009 124.757 C 90.379 122.698, 91.838 121.011, 92.250 121.007 C 92.662 121.003, 93 119.859, 93 118.465 C 93 117.070, 93.649 114.933, 94.443 113.715 C 95.708 111.775, 95.685 110.584, 94.259 104.109 L 92.631 96.719 95.831 93.859 C 99.554 90.533, 102.013 90.252, 104.390 92.879 C 106.543 95.257, 106.687 97.185, 105.648 109.631 C 104.885 118.763, 105.003 120.218, 106.844 124.381 C 108.842 128.898, 108.988 129, 113.444 129 C 118.798 129, 118.289 131.053, 118.529 108.500 C 118.623 99.700, 118.926 91.600, 119.204 90.500 C 120.067 87.075, 114.447 77, 111.672 77 C 111.134 77, 108.223 78.168, 105.205 79.596 C 96.307 83.806, 93.255 80.995, 94.211 69.469 C 94.902 61.137, 96.495 59.946, 106.928 59.966 C 111.643 59.974, 116.391 59.966, 117.481 59.946 C 119.703 59.906, 122 62.512, 122 65.072 C 122 66.001, 123.157 69.836, 124.571 73.594 C 126.554 78.860, 126.964 81.236, 126.364 83.963 C 125.345 88.595, 125.610 90.534, 128.051 96.280 C 129.168 98.909, 129.826 101.473, 129.513 101.978 C 128.848 103.055, 130.884 111.979, 132.173 113.636 C 132.691 114.303, 132.571 117.715, 131.882 121.887 C 130.719 128.927, 130.654 129.035, 125.527 132.438 C 118.805 136.900, 118.387 137.507, 117.675 143.833 C 117.141 148.571, 117.344 149.435, 119.492 151.583 C 120.821 152.912, 122.544 154, 123.320 154 C 125.956 154, 129.685 150.113, 131.428 145.549 C 133.854 139.197, 136.314 139.432, 141.500 146.512 C 146.066 152.744, 149.676 155, 155.087 155 C 158.330 155, 159.352 154.397, 162.288 150.750 C 166.413 145.628, 168 141.262, 168 135.039 C 168 131.032, 167.584 130.068, 165.040 128.188 C 160.705 124.983, 158.395 125.401, 155.240 129.962 C 153.733 132.141, 151.926 133.941, 151.225 133.962 C 148.008 134.058, 146.859 121.666, 149.500 115.346 C 150.325 113.371, 151 111.077, 151 110.247 C 151 109.418, 152.631 106.469, 154.624 103.694 C 161.373 94.301, 162.573 88.826, 158.686 85.174 C 155.695 82.365, 153.729 82.433, 149.215 85.500 C 141.443 90.781, 138.751 88.439, 138.534 76.210 C 138.448 71.419, 138.048 66.785, 137.644 65.910 C 136.348 63.107, 139.824 61.532, 148.610 60.944 C 157.915 60.321, 160.009 59.135, 161.736 53.509 C 162.655 50.515, 162.477 49.430, 160.469 45.764 C 159.184 43.419, 157.417 39.925, 156.542 38 C 153.318 30.905, 152.342 30.195, 147.488 31.414 C 144.100 32.264, 143.331 35.659, 145.906 38.400 C 148.555 41.220, 148.538 42.421, 145.811 44.961 C 141.285 49.178, 133.085 45.682, 134.468 40.125 C 136.169 33.288, 136.146 32.442, 134.204 30.685 C 131.314 28.069, 125.978 27.534, 123.137 29.575" stroke="none" fill="black" fill-rule="evenodd"/>
</svg>