<svg xmlns="http://www.w3.org/2000/svg" width="256" height="256" viewBox="0 0 256 256" version="1.1">
	<path d="M 117.873 30.127 C 116.067 31.933, 115.828 33.048, 116.290 37.523 C 117.010 44.495, 115.481 46.668, 109.235 47.552 C 100.379 48.805, 92.677 50.895, 91.100 52.472 C 89.226 54.345, 85.994 63.059, 85.310 68.081 C 85.042 70.051, 85.537 74.070, 86.411 77.013 C 88.413 83.755, 88.524 98.086, 86.602 101.802 C 85.834 103.289, 84.349 105.279, 83.303 106.226 C 81.499 107.859, 81.179 107.838, 77.094 105.817 C 74.726 104.645, 70.548 103.471, 67.811 103.208 C 64.815 102.920, 62.618 102.169, 62.293 101.322 C 61.996 100.548, 62.499 97.543, 63.410 94.646 C 64.363 91.618, 64.968 86.842, 64.832 83.419 C 64.703 80.142, 64.903 76.966, 65.276 76.362 C 65.650 75.757, 67.866 74.957, 70.202 74.584 C 75.390 73.754, 78 71.557, 78 68.019 C 78 63.816, 74.237 61, 68.620 61 C 61.173 61, 59.831 59.843, 60.313 53.834 C 60.618 50.036, 60.196 47.827, 58.609 44.902 C 56.215 40.490, 54.737 40.078, 52.240 43.123 C 51.283 44.290, 49.951 45.753, 49.281 46.373 C 48.610 46.993, 47.520 50.028, 46.858 53.117 C 45.394 59.953, 43.855 61.071, 35.427 61.423 C 28.055 61.731, 25.988 63.040, 26.032 67.372 C 26.093 73.418, 27.839 74.379, 37.522 73.696 C 51.208 72.730, 52.188 73.760, 51.925 88.826 C 51.660 103.935, 49.075 107.130, 36.310 108.123 C 25.784 108.941, 23.327 110.590, 26.927 114.422 C 29.809 117.490, 35.811 118.814, 47.303 118.917 C 53.549 118.973, 57.006 118.531, 59.203 117.395 C 62.831 115.519, 79.488 115.330, 81.669 117.141 C 83.772 118.886, 83.226 124.015, 80.565 127.504 C 71.542 139.334, 69.698 151.446, 76.184 156.288 C 80.582 159.572, 85 156.122, 85 149.403 C 85 146.711, 86.995 142.302, 90.384 137.506 C 93.472 133.137, 94.774 128.698, 95.486 120.120 C 96.286 110.471, 98.473 105, 101.531 105 C 103.096 105, 104.154 105.957, 105.093 108.224 C 105.827 109.997, 108.282 113.724, 110.549 116.507 C 117.793 125.400, 118.425 126.865, 118.111 134.015 C 118.020 136.074, 117.138 136.840, 113.250 138.235 C 110.018 139.395, 107.861 140.971, 106.500 143.169 C 101.938 150.535, 101.734 151.121, 102.870 153.613 C 104.704 157.638, 108.259 156.698, 114.392 150.564 C 117.382 147.574, 121.649 144.199, 123.874 143.064 C 127.881 141.020, 134 140.257, 134 141.801 C 134 142.924, 147.488 153.898, 151.059 155.679 C 155.261 157.776, 160.569 155.982, 161.327 152.208 C 162.070 148.515, 159.065 142.859, 155.351 140.960 C 149.013 137.719, 141.130 131.916, 140.796 130.245 C 140.308 127.806, 143.146 117.918, 145.250 114.726 C 146.213 113.265, 147 111.406, 147 110.594 C 147 109.782, 147.415 108.861, 147.923 108.548 C 148.431 108.234, 149.161 106.545, 149.545 104.795 C 149.929 103.045, 150.751 101.041, 151.372 100.341 C 154.653 96.642, 155.143 95.683, 155.225 92.803 C 155.365 87.866, 151.319 85.001, 144.194 84.994 C 137.629 84.988, 131.716 83.567, 130.087 81.605 C 129.246 80.592, 129.279 77.884, 130.215 71.007 C 131.329 62.831, 131.741 61.669, 133.802 60.885 C 140.432 58.365, 145.056 60.964, 144.344 66.811 C 143.789 71.374, 146.804 76.662, 150.488 77.586 C 153.478 78.337, 158.118 76.632, 160.625 73.862 C 162.307 72.004, 162.310 71.592, 160.684 65.492 C 159.744 61.963, 159.034 58.722, 159.106 58.288 C 159.644 55.054, 158.623 51.532, 156.545 49.455 C 154.300 47.209, 153.318 47, 145.013 47 C 139.349 47, 134.632 46.455, 132.468 45.551 C 129.194 44.183, 129 43.833, 128.996 39.301 C 128.989 29.912, 123.015 24.985, 117.873 30.127 M 104.549 62.340 C 102.709 63.686, 99.167 75.159, 99.058 80.128 C 98.972 84.017, 101.062 85.139, 107.933 84.891 C 118.629 84.505, 120.543 81.988, 116.991 72.978 C 115.896 70.199, 115 66.908, 115 65.663 C 115 64.418, 114.460 62.860, 113.800 62.200 C 112.194 60.594, 106.826 60.675, 104.549 62.340 M 118.798 96.812 C 117.225 96.993, 115.848 97.903, 115.504 98.988 C 113.954 103.872, 122.926 115.376, 127.841 114.808 C 129.303 114.638, 130.512 114.050, 130.526 113.500 C 130.540 112.950, 131.305 111.375, 132.225 110 C 134.171 107.093, 135.426 100.010, 134.285 98.379 C 133.485 97.237, 123.697 96.247, 118.798 96.812 M 100.813 101.683 C 101.534 101.972, 102.397 101.936, 102.729 101.604 C 103.061 101.272, 102.471 101.036, 101.417 101.079 C 100.252 101.127, 100.015 101.364, 100.813 101.683" stroke="none" fill="black" fill-rule="evenodd"/>
</svg>