<svg xmlns="http://www.w3.org/2000/svg" width="256" height="256" viewBox="0 0 256 256" version="1.1">
	<path d="M 93.571 29.571 C 92.063 31.080, 91.373 35.710, 91.867 41 C 92.269 45.291, 89.728 62.990, 88.462 64.721 C 87.374 66.209, 86.562 66.238, 80.133 65.025 C 74.577 63.977, 72.156 63.936, 69.138 64.840 C 67.010 65.478, 63.745 66.035, 61.884 66.077 C 56.579 66.197, 50.881 68.291, 49.276 70.710 C 47.921 72.752, 48.025 73.121, 50.655 75.584 L 53.500 78.249 69.500 77.625 C 91.209 76.778, 90.304 76.042, 90.567 94.763 C 90.675 102.449, 91.089 114.156, 91.487 120.777 L 92.210 132.816 89.606 134.523 C 87.149 136.133, 86.795 136.131, 83.339 134.491 C 80.582 133.182, 78.105 132.878, 73.328 133.262 C 69.837 133.542, 66.422 134.212, 65.740 134.750 C 64.453 135.766, 60.344 135.691, 48.596 134.438 C 42.533 133.791, 41.527 133.926, 40.346 135.542 C 38.446 138.140, 38.676 141.676, 40.889 143.889 C 43.787 146.787, 50.730 147.177, 101.206 147.282 C 143.040 147.369, 147.812 147.214, 150.736 145.671 C 154.338 143.770, 155.915 139.808, 153.992 137.490 C 151.576 134.579, 144.035 133.272, 132.500 133.764 C 121.402 134.238, 107.353 132.751, 105.503 130.906 C 104.568 129.974, 103.385 115.609, 102.505 94.500 C 102.104 84.889, 103.121 82.099, 107.516 80.744 C 108.607 80.408, 111.300 79.481, 113.500 78.684 C 115.774 77.861, 122.762 77.034, 129.697 76.768 C 142.196 76.288, 147 74.839, 147 71.548 C 147 68.481, 143.967 67, 137.679 66.996 C 134.280 66.994, 127.611 66.361, 122.857 65.589 C 118.104 64.818, 113.604 64.215, 112.857 64.251 C 106.350 64.559, 105.425 62.854, 104.593 49 C 104.279 43.775, 103.737 37.839, 103.389 35.808 C 102.261 29.222, 97.161 25.982, 93.571 29.571" stroke="none" fill="black" fill-rule="evenodd"/>
</svg>