<svg xmlns="http://www.w3.org/2000/svg" width="256" height="256" viewBox="0 0 256 256" version="1.1">
	<path d="M 118.174 29.314 C 116.588 31.003, 116 32.882, 116 36.258 C 116 42.956, 114.082 44, 101.777 44 C 93.333 44, 91.727 44.273, 90 46 C 86.325 49.675, 87.434 51.751, 95 55.356 L 99.500 57.500 99.602 69.554 L 99.705 81.609 93.892 84.979 C 90.695 86.833, 87.854 88.937, 87.579 89.654 C 86.888 91.455, 94.393 96.350, 100.500 98.082 C 106.884 99.892, 120.956 99.585, 129.175 97.455 C 132.644 96.556, 136.777 96.112, 138.463 96.457 C 140.133 96.800, 145.602 97.347, 150.616 97.674 C 159.020 98.223, 159.898 98.102, 161.866 96.134 C 164.546 93.454, 164.570 90.994, 161.946 87.659 C 160.066 85.268, 157.165 84.046, 149.779 82.534 C 145.940 81.747, 144.753 79.029, 145.962 73.790 C 146.506 71.430, 146.962 67.220, 146.976 64.434 C 146.999 59.568, 147.159 59.279, 151.030 57.103 C 156.412 54.078, 158.353 51.058, 157.074 47.696 C 155.546 43.677, 152.947 42.908, 141.924 43.217 C 132.365 43.485, 131.739 43.377, 129.919 41.139 C 128.858 39.833, 128 37.244, 128 35.344 C 128 33.030, 127.199 31.108, 125.545 29.455 C 122.490 26.399, 120.941 26.369, 118.174 29.314 M 48.722 44.353 C 46.562 47.284, 44.938 50.684, 44.852 52.452 C 44.771 54.129, 44.658 56.237, 44.602 57.137 C 44.546 58.038, 43.643 59.725, 42.595 60.887 C 41.049 62.602, 39.531 63, 34.545 63 C 31.099 63, 27.873 63.527, 27.200 64.200 C 25.516 65.884, 25.668 74.479, 27.407 75.923 C 28.479 76.813, 30.406 76.814, 35.499 75.927 C 43.924 74.460, 46.472 75.438, 47.934 80.701 C 49.483 86.279, 49.243 97.011, 47.494 100.364 C 46.672 101.940, 46 103.782, 46 104.459 C 46 107.546, 42.116 109.241, 34.629 109.422 C 30.179 109.530, 26.543 110.134, 25.592 110.924 C 23.029 113.051, 23.603 118.534, 26.750 121.979 C 30.038 125.580, 37.027 126.736, 41.494 124.419 C 42.998 123.638, 46.470 123, 49.210 123 C 52.511 123, 55.097 122.355, 56.875 121.089 C 59.378 119.307, 59.927 119.276, 65.029 120.626 C 68.038 121.422, 71.963 121.812, 73.750 121.491 C 76.586 120.984, 77.015 120.501, 77.115 117.705 C 77.414 109.390, 76.694 108.712, 68.438 109.523 C 62.621 110.095, 62.327 110.013, 61.188 107.512 C 59.543 103.903, 59.704 98.954, 61.614 94.382 C 62.817 91.501, 63.064 88.927, 62.584 84.244 C 61.991 78.457, 62.134 77.775, 64.425 75.484 C 66.467 73.442, 67.886 73, 72.396 73 C 75.413 73, 78.195 72.494, 78.577 71.875 C 79.720 70.027, 79.365 63.145, 78.046 61.555 C 77.068 60.377, 75.217 60.200, 68.938 60.684 C 58.916 61.457, 57.950 60.774, 58.125 53.035 C 58.216 48.991, 57.709 46.466, 56.390 44.409 C 52.907 38.973, 52.688 38.972, 48.722 44.353 M 124.500 57.696 C 112.708 58.322, 110.724 59.709, 111.677 66.663 C 112.206 70.517, 111.850 72.072, 109.408 76.587 C 106.634 81.714, 106.587 82.015, 108.287 83.716 C 111.357 86.786, 128.985 85.872, 132.391 82.466 C 133.514 81.343, 133.719 79.327, 133.290 73.647 C 132.914 68.683, 133.102 66.055, 133.866 65.583 C 136.463 63.978, 134.446 56.668, 131.550 57.189 C 130.972 57.293, 127.800 57.521, 124.500 57.696 M 103.413 102.951 C 102.911 103.433, 101.150 103.973, 99.500 104.150 C 97.738 104.339, 95.493 105.635, 94.060 107.290 C 90.639 111.241, 90.121 124.230, 92.935 135.491 C 94.553 141.963, 94.704 144.078, 93.793 147.484 C 91.310 156.769, 94.921 160.003, 105.749 158.190 C 113.839 156.836, 135.681 156.397, 142.066 157.461 C 146.049 158.124, 146.976 157.921, 149.337 155.861 L 152.043 153.500 152.674 131.983 L 153.304 110.466 150.871 107.636 C 148.549 104.937, 148.058 104.811, 140.139 104.896 C 135.575 104.945, 131.080 104.578, 130.151 104.081 C 127.840 102.844, 104.549 101.860, 103.413 102.951 M 109.428 118.076 C 104.523 119.496, 103.446 122.633, 104.913 131.238 C 105.594 135.232, 106.351 139.219, 106.595 140.097 C 107.073 141.820, 113.924 144.307, 116.145 143.565 C 119.219 142.537, 125.110 142.289, 129.100 143.018 C 137.521 144.558, 140.563 140.813, 140.282 129.249 C 140.133 123.120, 139.707 121.317, 137.973 119.471 C 136.001 117.372, 134.999 117.207, 124.173 117.197 C 117.753 117.192, 111.118 117.587, 109.428 118.076" stroke="none" fill="black" fill-rule="evenodd"/>
</svg>