<svg xmlns="http://www.w3.org/2000/svg" width="256" height="256" viewBox="0 0 256 256" version="1.1">
	<path d="M 99.495 33.414 C 98.168 34.742, 96.824 37.104, 96.510 38.664 C 95.414 44.098, 87.889 57.890, 84.300 61.042 C 80.800 64.115, 80.591 64.162, 73.615 63.478 C 69.702 63.094, 64.975 62.151, 63.111 61.383 C 59.744 59.995, 59.725 59.951, 60.267 54.698 C 60.806 49.480, 58.961 39.561, 57.107 37.707 C 54.341 34.941, 48.368 43.820, 45.545 54.895 C 44.282 59.851, 41.688 61.959, 36.815 61.985 C 31.643 62.014, 29 63.689, 29 66.940 C 29 71.049, 32.419 72.745, 41.061 72.926 C 43.147 72.969, 45.506 73.823, 46.754 74.985 C 48.747 76.842, 48.850 77.668, 48.345 87.735 C 47.765 99.284, 45.727 106.005, 42.240 107.872 C 41.168 108.445, 37.268 109.224, 33.573 109.603 C 25.617 110.418, 23.821 112.190, 24.554 118.506 C 24.882 121.338, 25.924 123.329, 28.136 125.350 C 30.905 127.879, 31.796 128.141, 36.084 127.680 C 41.645 127.082, 47.904 125.064, 49.821 123.250 C 50.548 122.563, 50.773 121.997, 50.321 121.994 C 49.870 121.990, 50.850 121.281, 52.500 120.418 C 54.578 119.330, 56.883 119.028, 60 119.435 C 70.744 120.838, 74.993 119.879, 80.413 114.830 C 81.691 113.639, 83.894 113, 86.719 113 C 90.427 113, 91.509 113.510, 94.124 116.489 C 98.730 121.735, 106.848 123.932, 120.047 123.507 C 131.475 123.138, 133.698 121.974, 132.474 117 C 131.492 113.011, 130.308 112.484, 122.949 112.765 C 118.458 112.936, 114.725 112.494, 112.381 111.515 C 108.242 109.785, 91.494 109.391, 90.500 111 C 89.546 112.544, 86.781 112.196, 82.126 109.947 C 79.384 108.622, 74.851 107.680, 69.347 107.292 C 58.832 106.550, 58.003 105.533, 59.831 95.615 C 60.474 92.125, 61 86.356, 61 82.795 C 61 75.125, 61.821 74.461, 71.768 74.091 C 79.928 73.787, 84.471 75.308, 85.932 78.835 C 86.558 80.346, 88.653 82.435, 90.588 83.478 C 92.524 84.520, 94.805 86.553, 95.657 87.997 C 96.510 89.440, 99.158 91.855, 101.543 93.364 C 105.443 95.831, 106.690 96.087, 113.952 95.912 C 124.843 95.650, 126.637 95.203, 128.558 92.272 C 130.108 89.906, 130.090 89.645, 128.248 87.804 C 125.485 85.041, 112.958 82, 104.341 82 C 97.659 82, 96.908 81.790, 95.404 79.494 C 93.152 76.056, 94.768 72.503, 100.584 68.105 L 105.074 64.710 114.787 65.581 C 120.129 66.060, 128.400 66.471, 133.166 66.495 C 140.090 66.530, 142.236 66.903, 143.836 68.352 C 146.793 71.027, 148.109 78.175, 147.823 90 C 147.683 95.775, 147.693 103.650, 147.845 107.500 C 148.052 112.763, 147.376 117.311, 145.119 125.827 C 141.488 139.528, 139.734 142.204, 132.236 145.482 C 126.378 148.044, 126.650 152.865, 132.900 157.250 C 137.607 160.552, 140.688 160.706, 145.479 157.880 C 149.633 155.429, 151.669 151.997, 152.610 145.855 C 152.978 143.460, 153.815 140.375, 154.472 139 C 158.063 131.481, 159.903 114.827, 160.594 83.589 C 161.145 58.658, 161.081 57.322, 159.218 55.021 C 157.675 53.115, 156.445 52.656, 153.382 52.840 C 151.247 52.968, 142.156 53.079, 133.180 53.087 C 119.247 53.100, 116.410 52.839, 113.785 51.301 C 108.745 48.348, 108.158 46.553, 110.750 42.030 C 113.575 37.101, 113.566 35.880, 110.686 33.174 C 107.530 30.210, 102.593 30.316, 99.495 33.414" stroke="none" fill="black" fill-rule="evenodd"/>
</svg>