<svg xmlns="http://www.w3.org/2000/svg" width="256" height="256" viewBox="0 0 256 256" version="1.1">
	<path d="M 80.731 30.908 C 79.385 32.508, 77.765 35.875, 77.132 38.392 C 76.403 41.287, 75.088 43.551, 73.552 44.558 C 71.725 45.755, 50.168 49.811, 44.750 49.977 C 43.017 50.030, 40 54.189, 40 56.525 C 40 60.084, 43.857 61.411, 50.230 60.044 C 55.633 58.885, 62.986 58.674, 65.418 59.607 C 67.640 60.460, 67.395 62.807, 64.446 68.921 C 63.041 71.833, 60.997 76.605, 59.905 79.525 C 57.466 86.042, 54.892 89.412, 49.984 92.510 C 44.870 95.738, 36.278 109.010, 33.485 117.996 C 33.058 119.369, 32.106 120.944, 31.368 121.496 C 29.327 123.024, 28.500 128.594, 30.217 129.253 C 33.469 130.501, 36.610 128.646, 40.500 123.181 C 48.364 112.134, 52.020 110.409, 54.580 116.538 C 56.437 120.982, 57.840 136.267, 57.245 145.580 C 56.855 151.701, 57.135 153.332, 59.313 157.631 C 60.716 160.399, 62.940 163.107, 64.331 163.741 C 66.621 164.784, 66.954 164.613, 68.325 161.690 C 69.148 159.935, 69.940 157.375, 70.085 156 C 70.328 153.696, 69.207 133.996, 68.483 127.847 C 68.311 126.388, 67.857 118.908, 67.474 111.225 C 66.663 94.941, 67.518 91.455, 76.038 76.276 C 78.747 71.449, 80.972 66.782, 80.982 65.905 C 81.039 60.878, 90.739 58.427, 106.474 59.465 C 120.782 60.408, 121.141 60.403, 137 59.031 C 145.274 58.314, 151.371 57.299, 152.750 56.408 C 155.523 54.616, 155.660 51.032, 153.077 47.861 C 151.155 45.501, 151.145 45.500, 132.827 45.982 C 99.155 46.867, 93.266 46.698, 91.365 44.795 C 89.847 43.276, 89.798 42.479, 90.919 37.471 C 92.045 32.442, 91.994 31.650, 90.433 29.926 C 87.827 27.046, 83.623 27.471, 80.731 30.908 M 116.599 69.204 C 113.425 70.981, 112.050 75.841, 113.418 80.448 C 115.904 88.818, 111.996 93.230, 101.757 93.615 C 98.316 93.745, 94.938 93.884, 94.250 93.925 C 92.530 94.028, 89 97.695, 89 99.379 C 89 100.987, 92.834 102.608, 98.500 103.396 C 115.272 105.728, 116.040 106.408, 116.026 118.922 C 116.020 124.190, 116.383 130.300, 116.833 132.500 C 117.393 135.245, 117.244 137.328, 116.356 139.140 L 115.062 141.780 100.281 142.212 C 83.977 142.688, 80.680 143.611, 79.101 148.141 C 78.260 150.552, 78.468 151.432, 80.410 153.690 L 82.719 156.374 97.609 155.092 C 105.799 154.387, 121.876 153.740, 133.335 153.655 L 154.170 153.500 156.583 150.697 C 158.855 148.058, 158.908 147.722, 157.488 144.976 C 155.137 140.430, 152.559 139.561, 142.061 139.775 C 130.025 140.021, 129 139.284, 129 130.386 C 129 126.919, 128.485 120.617, 127.855 116.383 C 126.802 109.306, 126.858 108.577, 128.546 107.343 C 129.612 106.563, 132.966 106, 136.542 106 C 144.507 106, 148.877 104.453, 150.116 101.195 C 150.928 99.059, 150.682 98.227, 148.627 96.173 C 146.526 94.072, 145.015 93.650, 138.332 93.301 C 134.025 93.077, 129.551 92.699, 128.392 92.463 C 125.757 91.926, 123.079 85.113, 123.297 79.500 C 123.466 75.116, 121.518 69.413, 119.598 68.676 C 118.928 68.419, 117.578 68.657, 116.599 69.204" stroke="none" fill="black" fill-rule="evenodd"/>
</svg>