<svg xmlns="http://www.w3.org/2000/svg" width="256" height="256" viewBox="0 0 256 256" version="1.1">
	<path d="M 94.917 28.282 C 94.047 28.952, 92.693 30.846, 91.908 32.491 C 89.154 38.265, 85.379 38.949, 61.335 38.026 C 49.743 37.580, 44.683 40.824, 44.839 48.599 C 44.890 51.161, 44.419 54.213, 43.791 55.379 C 43.026 56.801, 42.564 67.434, 42.389 87.623 C 42.180 111.835, 41.808 118.900, 40.494 123.623 C 35.645 141.056, 33.720 151.609, 34.965 153.935 C 36.387 156.592, 39.985 156.586, 43.371 153.922 C 46.887 151.157, 47.978 148.924, 49.643 141.089 C 50.413 137.465, 51.757 131.125, 52.629 127 C 53.510 122.836, 54.325 113.495, 54.462 106 C 54.598 98.575, 55.049 91.709, 55.465 90.741 C 57.049 87.056, 64.566 87.343, 68.750 91.248 C 71.445 93.764, 71.518 95.165, 69.315 101.988 C 67.889 106.402, 67.810 108.060, 68.797 112.769 C 69.439 115.829, 70.872 119.300, 71.982 120.481 C 74.395 123.050, 74.457 123.895, 72.506 127.636 C 70.455 131.569, 70.625 135.351, 72.948 137.453 C 74.573 138.924, 76.193 139.135, 82.698 138.726 C 86.989 138.456, 91.402 137.933, 92.505 137.565 C 93.844 137.117, 95.247 137.581, 96.728 138.961 C 98.607 140.712, 98.776 141.398, 97.834 143.464 C 96.349 146.724, 94.177 147.029, 76 146.528 C 58.476 146.045, 56 146.719, 56 151.972 C 56 154.100, 56.887 155.572, 59.250 157.369 L 62.500 159.840 87.500 158.765 C 101.250 158.174, 121.189 157.790, 131.810 157.912 C 142.430 158.033, 152.410 157.849, 153.986 157.503 C 158.029 156.615, 160.211 153.057, 158.644 149.907 C 157.062 146.725, 149.673 145.742, 129.341 146.010 L 114.183 146.209 112.520 143.672 C 111.180 141.625, 111.084 140.711, 112.027 138.949 C 113.077 136.988, 113.724 136.831, 118.348 137.416 C 132.052 139.148, 139.126 138.329, 142.880 134.575 C 145.475 131.980, 145.316 130.711, 141.780 125.778 C 139.866 123.108, 142.084 121.694, 148.961 121.196 C 155.397 120.731, 157.344 119.413, 156.827 115.873 C 156.591 114.259, 154.596 112.640, 149.670 110.068 L 142.840 106.500 146.420 105.574 C 150.916 104.410, 151.212 101.415, 147.250 97.194 C 144.022 93.754, 140.832 92.806, 136 93.847 C 130.991 94.927, 129 94.259, 129 91.500 C 129 88.566, 130.330 88.250, 140.500 88.768 L 148.500 89.176 150.750 85.776 C 153.352 81.845, 153.666 76.449, 151.534 72.331 C 150.728 70.774, 149.808 67.815, 149.490 65.755 C 148.675 60.483, 142.997 57.899, 132.663 58.099 C 123.582 58.275, 116.815 55.757, 119.406 53.166 C 120.563 52.008, 124.503 51.426, 135.224 50.828 C 143.076 50.391, 150.950 49.782, 152.721 49.476 C 158.628 48.456, 160.298 42.552, 155.557 39.446 C 152.944 37.733, 143.484 37.433, 125.779 38.501 C 111.438 39.365, 109.412 38.761, 106.547 32.761 C 104.218 27.885, 98.362 25.630, 94.917 28.282 M 58.250 51.119 C 54.611 52.170, 54.243 53.475, 56.629 56.880 C 58.122 59.012, 58.849 59.175, 65.379 58.843 C 70.484 58.583, 73.270 57.917, 75.219 56.490 C 78.780 53.883, 78.685 53.184, 74.532 51.449 C 70.674 49.837, 63.214 49.686, 58.250 51.119 M 89.500 52.178 C 88.400 52.792, 87.342 53.424, 87.149 53.581 C 86.957 53.739, 87.677 54.811, 88.751 55.963 C 90.011 57.316, 92.486 58.270, 95.727 58.654 C 99.991 59.159, 101.072 58.928, 102.875 57.125 C 104.044 55.956, 105.450 55, 106 55 C 108.192 55, 106.810 53.333, 103.679 52.201 C 99.546 50.706, 92.156 50.694, 89.500 52.178 M 90.864 71.390 C 89.651 72.001, 88.481 73.036, 88.265 73.691 C 87.436 76.208, 98.546 79.833, 103.374 78.621 C 106.310 77.884, 107.519 74.090, 105.470 72.042 C 103.675 70.246, 93.997 69.815, 90.864 71.390 M 121.463 71.679 C 120.659 72.484, 120 73.509, 120 73.957 C 120 75.383, 126.529 77.933, 131.399 78.410 C 135.645 78.826, 136.211 78.631, 137.228 76.398 C 138.912 72.703, 136.666 71.088, 129.183 70.613 C 124.605 70.322, 122.534 70.608, 121.463 71.679 M 58.200 72.200 C 55.267 75.133, 57.691 77.722, 64.203 78.614 C 68.243 79.168, 68.970 78.945, 71.297 76.436 C 73.688 73.857, 73.758 73.539, 72.195 72.352 C 70.046 70.719, 59.792 70.608, 58.200 72.200 M 83.349 88.390 C 82.677 89.156, 82.546 90.265, 83.033 91.054 C 83.492 91.797, 83.646 92.763, 83.375 93.202 C 82.394 94.789, 87.559 93.910, 89.931 92.087 C 92.165 90.370, 92.231 90.088, 90.752 88.609 C 88.824 86.681, 84.947 86.566, 83.349 88.390 M 101.250 88.699 C 96.506 89.163, 96.207 89.552, 98.797 91.883 C 101.504 94.318, 105 99.616, 105 101.282 C 105 102.092, 104.351 103.294, 103.557 103.953 C 102.213 105.068, 102.175 107.071, 103.397 112.500 C 103.644 113.600, 103.881 115.219, 103.923 116.097 C 104.043 118.595, 107.020 121.307, 113 124.367 C 118.994 127.434, 128.269 128.992, 129.422 127.126 C 129.805 126.507, 131.024 126, 132.130 126 C 135.776 126, 131.609 123.058, 127.327 122.609 C 120.244 121.865, 115.379 118.566, 114.480 113.895 C 114.278 112.849, 113.810 111.501, 113.438 110.900 C 112.067 108.681, 112.123 102.663, 113.541 99.921 C 115.239 96.637, 115.067 94.362, 112.886 91.248 C 111.173 88.802, 107.781 88.059, 101.250 88.699 M 82.882 102.250 C 82.816 102.938, 82.816 103.838, 82.882 104.250 C 82.947 104.662, 82.480 105, 81.845 105 C 81.155 105, 81.356 105.736, 82.347 106.831 C 83.259 107.838, 83.703 108.963, 83.336 109.331 C 82.968 109.699, 83.417 110, 84.333 110 C 85.250 110, 86 109.580, 86 109.067 C 86 108.554, 86.900 107.849, 88 107.500 C 90.493 106.709, 90.560 104.816, 88.171 102.655 C 86.013 100.702, 83.050 100.475, 82.882 102.250 M 128.632 103.115 C 126.872 105.628, 127.869 109.331, 130.442 109.839 C 132.776 110.299, 138 108.038, 138 106.567 C 138 105.275, 132.699 101, 131.097 101 C 130.556 101, 129.447 101.952, 128.632 103.115 M 83.250 118.277 C 82.013 118.843, 81 119.687, 81 120.153 C 81 120.619, 80.100 121, 79 121 C 77.889 121, 77 121.667, 77 122.500 C 77 123.325, 77.563 124.007, 78.250 124.015 C 79.098 124.026, 79.018 124.373, 78 125.097 C 76.902 125.877, 78.243 126.021, 83 125.632 C 90.471 125.022, 100 122.975, 100 121.980 C 100 120.951, 92.948 118.207, 89 117.699 C 87.075 117.451, 84.487 117.712, 83.250 118.277" stroke="none" fill="black" fill-rule="evenodd"/>
</svg>