<svg xmlns="http://www.w3.org/2000/svg" width="256" height="256" viewBox="0 0 256 256" version="1.1">
	<path d="M 60.251 28.537 C 59.045 29.382, 57.552 31.951, 56.934 34.246 C 55.474 39.667, 53.647 40.930, 47.205 40.968 C 42.941 40.994, 41.431 41.478, 39.455 43.455 C 36.290 46.619, 36.358 48.498, 39.750 51.655 C 42.284 54.013, 42.987 54.164, 48.711 53.583 C 54.593 52.986, 55.011 53.088, 56.597 55.507 C 57.518 56.913, 58.097 58.166, 57.885 58.292 C 57.673 58.418, 56.463 59.396, 55.195 60.465 C 53.410 61.971, 51.267 62.431, 45.695 62.506 C 37.357 62.618, 28.452 65.287, 26.931 68.130 C 26.353 69.209, 26.020 71.534, 26.190 73.296 L 26.500 76.500 33.812 76.541 C 42.214 76.588, 43.191 77.368, 42.533 83.500 C 40.758 100.034, 40.827 103.827, 42.937 105.937 C 44.394 107.394, 46.289 108, 49.389 108 C 54.598 108, 57.645 110.144, 58.934 114.716 C 59.675 117.344, 59.461 118.415, 57.765 120.572 C 55.734 123.153, 55.513 123.196, 47.570 122.534 C 40.206 121.921, 39.197 122.058, 36.725 124.002 C 33.778 126.320, 33.145 130.304, 35.282 133.087 C 37.672 136.199, 40.920 137.081, 48.921 136.789 C 53.270 136.630, 57.156 136.827, 57.557 137.226 C 57.957 137.625, 58.334 142.843, 58.393 148.822 C 58.512 160.872, 59.368 163, 64.099 163 C 68.589 163, 70.160 159.574, 70.494 149.056 C 70.862 137.473, 71.422 136.866, 81.942 136.657 C 88.806 136.521, 90.180 136.182, 92.421 134.076 C 95.645 131.045, 95.839 126.094, 92.918 121.368 C 90.412 117.312, 87.895 117.075, 84.206 120.547 C 82.718 121.948, 80.018 123.808, 78.207 124.681 C 75.056 126.200, 74.810 126.170, 72.488 123.989 C 71.154 122.735, 70.276 121.363, 70.537 120.940 C 70.799 120.517, 70.479 119.993, 69.827 119.776 C 69.175 119.558, 68.541 117.942, 68.420 116.185 C 68.254 113.795, 68.838 112.486, 70.734 110.995 C 73.802 108.582, 74.740 108.547, 81.062 110.615 C 85.615 112.104, 86.194 112.103, 88.484 110.602 C 91.881 108.376, 92.499 105.005, 91.142 96.090 C 89.437 84.890, 89.648 82.206, 92.500 78.818 C 95.909 74.767, 95.725 71.068, 91.933 67.437 C 89.074 64.699, 88.336 64.500, 81.039 64.500 C 74.746 64.500, 72.800 64.127, 71.106 62.595 C 68.585 60.314, 68.437 58.420, 70.610 56.247 C 71.875 54.982, 74.005 54.686, 80.555 54.867 C 88.438 55.084, 88.979 54.962, 90.510 52.625 C 92.642 49.371, 92.719 44.290, 90.667 42.239 C 88.887 40.458, 83.880 40.093, 77.500 41.278 C 72.180 42.266, 70.891 41.203, 69.914 35.017 C 69.461 32.156, 68.566 29.182, 67.923 28.407 C 66.391 26.561, 62.990 26.618, 60.251 28.537 M 102.540 35.370 C 99.799 38.111, 99.754 38.425, 99.960 53.500 C 100.267 75.950, 100.684 81.852, 102.490 89.283 C 104.037 95.648, 104.191 97.994, 103.339 102.156 C 102.630 105.618, 102.613 110.164, 103.288 116.373 C 103.833 121.393, 104.227 132.250, 104.163 140.500 C 104.095 149.341, 104.498 156.629, 105.145 158.250 C 106.612 161.924, 109.833 161.828, 113.500 158 C 115.748 155.654, 117.239 155, 120.341 155 C 123.016 155, 126.346 153.860, 130.566 151.500 C 134.009 149.575, 137.930 148, 139.280 148 C 140.631 148, 144.811 149.575, 148.570 151.500 C 158.553 156.612, 161.772 156.121, 162.681 149.345 C 163.117 146.091, 162.749 144.855, 160.572 142.268 C 159.121 140.544, 156.382 138.621, 154.484 137.995 C 150.904 136.813, 147 132.406, 147 129.546 C 147 128.641, 147.704 126.540, 148.564 124.876 C 149.424 123.213, 150.943 118.848, 151.939 115.176 C 152.935 111.504, 154.945 105.360, 156.405 101.522 C 160.528 90.681, 158.733 86.885, 148.285 84.351 C 142.080 82.846, 130.456 83.210, 121.574 85.187 C 117.011 86.203, 116.517 86.122, 114.865 84.082 C 113.398 82.269, 113.088 79.988, 113.114 71.190 C 113.131 65.310, 113.081 57.885, 113.001 54.689 C 112.793 46.284, 113.445 45.820, 124.393 46.592 C 136.088 47.417, 141.056 49.490, 143.456 54.548 C 145.253 58.336, 145.250 58.379, 143.023 60.183 C 141.394 61.502, 139.081 62, 134.589 62 C 131.109 62, 127.875 62.525, 127.200 63.200 C 124.510 65.890, 126.569 72.832, 130.898 75.669 C 134.923 78.306, 145.109 77.712, 150.552 74.523 C 156.386 71.104, 157.442 67.628, 157.343 52.180 C 157.263 39.727, 156.330 35.724, 153.231 34.535 C 152.413 34.221, 141.244 33.709, 128.411 33.397 L 105.079 32.830 102.540 35.370 M 58 76.752 C 54.944 78.278, 54.517 78.944, 54.634 82 C 54.984 91.175, 57.025 93.759, 64.595 94.607 C 68.673 95.063, 69.950 94.785, 72.168 92.958 C 74.879 90.724, 75.034 89.281, 73.423 81.278 C 72.248 75.439, 64.928 73.291, 58 76.752 M 131.401 98.160 C 130.138 100.203, 130.944 107.280, 132.654 109.171 C 133.565 110.177, 135.347 111, 136.615 111 C 139.052 111, 144.755 105.752, 142.966 105.155 C 142.260 104.920, 142.294 104.351, 143.070 103.416 C 143.706 102.649, 143.941 100.900, 143.593 99.513 C 143.016 97.216, 142.497 97, 137.540 97 C 134.506 97, 131.802 97.511, 131.401 98.160 M 118.151 117.318 C 117.550 118.042, 116.753 123.653, 116.380 129.786 C 115.657 141.696, 116.411 144.560, 119.911 143.191 C 123.854 141.648, 132 133.081, 132 130.477 C 132 128.943, 125.362 118.976, 123.190 117.250 C 121.168 115.643, 119.523 115.665, 118.151 117.318" stroke="none" fill="black" fill-rule="evenodd"/>
</svg>