<svg xmlns="http://www.w3.org/2000/svg" width="256" height="256" viewBox="0 0 256 256" version="1.1">
	<path d="M 94.015 30.786 C 92.005 32.414, 91.773 33.664, 91.395 44.845 C 91.066 54.590, 90.567 57.929, 88.970 61.059 C 86.797 65.318, 83.378 66.365, 81 63.500 C 79.383 61.552, 76.188 61.599, 71.372 63.643 C 68.691 64.781, 63.868 65.373, 55.689 65.568 C 42.732 65.877, 39.543 66.989, 38.385 71.604 C 37.926 73.429, 38.287 74.729, 39.619 76.055 C 41.405 77.834, 42.407 77.872, 59.500 76.802 C 79.800 75.531, 85.351 76.019, 89.314 79.424 C 91.836 81.592, 92.065 82.373, 92.016 88.646 C 91.856 109.040, 92.130 118.862, 93.034 125.239 C 93.977 131.890, 93.904 132.474, 91.845 134.665 C 89.337 137.335, 85.834 137.691, 83.643 135.500 C 81.614 133.471, 73.603 133.559, 70.420 135.644 C 68.366 136.990, 66.217 137.187, 58.568 136.731 C 47.711 136.083, 46.414 136.704, 48.684 141.463 C 51.337 147.027, 52.813 147.197, 99.353 147.277 C 137.177 147.343, 141.833 147.176, 144.750 145.649 C 148.877 143.489, 149.116 139.683, 145.377 135.651 C 142.809 132.881, 142.605 132.838, 135.627 133.601 C 120.736 135.229, 108.091 133.556, 106.219 129.710 C 105.627 128.494, 104.873 120.300, 104.544 111.500 C 104.214 102.700, 103.689 92.963, 103.377 89.862 C 102.656 82.706, 103.866 80.438, 109.820 77.779 C 114.093 75.872, 116.160 75.706, 133.567 75.871 C 150.991 76.036, 152.823 75.888, 154.817 74.158 C 157.235 72.061, 157.675 68.796, 155.750 67.224 C 155.063 66.663, 152.076 65.489, 149.113 64.615 C 144.634 63.294, 142.585 63.215, 136.960 64.144 C 131.364 65.068, 128.947 64.979, 122.975 63.630 C 119.004 62.734, 113.801 62, 111.413 62 C 106.064 62, 105.014 60.425, 104.963 52.316 C 104.904 42.952, 102.588 32.894, 100.010 30.807 C 97.242 28.566, 96.760 28.564, 94.015 30.786" stroke="none" fill="black" fill-rule="evenodd"/>
</svg>