<svg xmlns="http://www.w3.org/2000/svg" width="256" height="256" viewBox="0 0 256 256" version="1.1">
	<path d="M 88.954 29.055 L 84.722 34.110 71.893 33.805 C 59.195 33.503, 59.038 33.527, 56.426 36.129 C 53.403 39.141, 53.714 41.997, 57.267 43.836 C 58.507 44.478, 65.621 45.167, 73.268 45.386 C 83.323 45.673, 87.637 46.184, 89.268 47.280 C 92.601 49.522, 90.680 50.469, 82.472 50.632 C 78.415 50.712, 72.937 51.249, 70.298 51.826 C 61.798 53.683, 55.501 54.043, 49.951 52.991 C 45.214 52.092, 44.209 52.199, 42.014 53.831 C 38.850 56.184, 38.381 59.126, 40.624 62.549 C 42.272 65.064, 42.692 65.181, 47.936 64.585 C 56.069 63.661, 57.172 63.744, 58.831 65.403 C 63.304 69.876, 57.682 79, 50.453 79 C 48.237 79, 46.723 79.559, 46.357 80.513 C 45.538 82.645, 47.917 85.161, 50.097 84.469 C 51.096 84.152, 53.507 84.192, 55.456 84.558 C 58.523 85.133, 59 85.603, 59 88.052 C 59 91.710, 57.965 92.260, 50.730 92.446 C 45.532 92.580, 44.427 92.965, 42.370 95.356 C 40.906 97.058, 40 99.380, 40 101.430 C 40 103.255, 39.325 106.662, 38.500 109 C 34.943 119.081, 37.262 120.792, 52.042 118.989 C 60.666 117.938, 62 118.003, 65.901 119.663 L 70.217 121.500 69.594 128.327 C 69.252 132.082, 68.301 136.452, 67.480 138.038 C 65.660 141.559, 59.602 145.086, 51.191 147.524 C 45.231 149.251, 40 153.285, 40 156.154 C 40 157.868, 45.752 163, 47.673 163 C 50.212 163, 61.947 160.431, 65.118 159.182 C 66.558 158.614, 69.136 155.979, 70.848 153.325 C 72.559 150.671, 75.851 145.923, 78.164 142.773 C 81.753 137.884, 82.433 136.167, 82.803 131.047 C 83.042 127.748, 83.809 124.573, 84.509 123.993 C 86.429 122.399, 101.875 120.863, 104.085 122.045 C 105.453 122.778, 105.905 124.118, 105.842 127.265 C 105.727 132.961, 109.903 144.608, 114.091 150.276 C 117.799 155.295, 123.420 158.357, 132.363 160.228 C 136.823 161.161, 138.445 161.004, 144.676 159.036 C 148.623 157.789, 153.297 155.889, 155.064 154.815 L 158.276 152.861 157.591 143.776 C 156.866 134.173, 155.847 131, 153.488 131 C 151.259 131, 148.178 136.230, 147.775 140.698 C 147.463 144.158, 132.397 145.523, 125.744 142.694 C 123.586 141.776, 121.594 140.063, 121.064 138.668 C 119.541 134.663, 119.378 123.222, 120.824 121.776 C 122.282 120.317, 127.787 120.281, 142.969 121.631 C 152.424 122.472, 153.610 122.390, 155.219 120.781 C 156.199 119.801, 157 118.300, 157 117.444 C 157 114.888, 150.807 109.995, 146.750 109.345 C 144.688 109.015, 143 108.391, 143 107.959 C 143 107.528, 141.537 107.451, 139.750 107.788 C 137.963 108.126, 135.037 108.331, 133.250 108.244 C 131.463 108.157, 127.525 108.063, 124.500 108.036 C 121.475 108.008, 117.763 107.965, 116.250 107.939 C 114.737 107.914, 111.025 107.900, 108 107.909 C 97.311 107.941, 87.458 107.880, 84 107.761 C 82.075 107.695, 76.225 108.013, 71 108.468 C 56.765 109.707, 53 109.521, 53 107.578 C 53 105.682, 60.475 103.553, 69.500 102.878 C 70.050 102.836, 71.297 102.376, 72.271 101.855 C 73.245 101.334, 74.595 101.259, 75.271 101.688 C 75.947 102.118, 76.725 102.508, 77 102.554 C 77.275 102.601, 79.504 103.212, 81.953 103.913 C 85.483 104.922, 87.169 104.934, 90.089 103.971 C 92.348 103.225, 95.268 103.041, 97.637 103.495 C 100.921 104.125, 127.259 105.141, 143.304 105.258 C 148.819 105.298, 150.506 104.120, 149.652 100.823 C 148.767 97.405, 143.124 94, 138.343 94 C 133.414 94, 129.901 90.939, 131.677 88.191 C 132.538 86.860, 133.980 86.567, 138.457 86.813 C 144.760 87.160, 147 86.016, 147 82.450 C 147 79.656, 142.654 76, 139.333 76 C 136.181 76, 130.850 73.732, 129.132 71.660 C 127.964 70.252, 128.014 69.627, 129.476 67.397 C 131.148 64.845, 131.380 64.797, 139.388 65.337 C 151.692 66.166, 156.147 63.001, 150.306 57.581 C 145.746 53.350, 140.023 51.620, 134.489 52.800 C 131.598 53.417, 128.588 53.455, 126.654 52.901 C 124.926 52.405, 121.023 52, 117.979 52 C 114.502 52, 111.588 51.399, 110.138 50.384 C 106.534 47.860, 109.059 46.523, 117.801 46.329 C 135.058 45.945, 141.833 43.420, 138.639 38.562 C 136.356 35.090, 130.464 33.696, 117.644 33.594 L 105.789 33.500 101.644 28.742 C 96.270 22.571, 94.343 22.619, 88.954 29.055 M 79.593 64.830 C 73.945 66.752, 71.931 69.083, 73.615 71.750 C 74.508 73.163, 76.313 73.530, 82.993 73.655 C 92.276 73.830, 93.692 74.762, 91.401 79.191 C 90.602 80.736, 90.201 82, 90.510 82 C 90.818 82, 90.042 83.065, 88.785 84.368 C 86.653 86.577, 84.360 86.958, 81.996 85.498 C 81.448 85.159, 81 85.374, 81 85.976 C 81 86.756, 80.432 86.767, 79.023 86.012 C 77.453 85.172, 76.630 85.370, 75.023 86.977 C 71.111 90.889, 71.957 91.310, 83.148 91.015 C 88.122 90.885, 89.100 91.195, 91.344 93.616 C 92.746 95.127, 93.666 96.732, 93.387 97.182 C 93.109 97.632, 94.285 98, 96 98 C 97.715 98, 98.876 97.609, 98.581 97.131 C 98.286 96.654, 102.327 94.976, 107.562 93.403 C 115.792 90.931, 117.040 90.271, 116.790 88.522 C 116.604 87.226, 115.692 86.455, 114.250 86.375 C 109.695 86.122, 109.177 85.964, 106.928 84.143 C 105.581 83.052, 104.547 81.020, 104.422 79.221 C 104.202 76.041, 106.267 74.477, 111.705 73.704 C 112.918 73.532, 114.832 72.557, 115.957 71.539 C 118.003 69.687, 118.003 69.686, 114.613 67.383 C 108.260 63.066, 88.920 61.656, 79.593 64.830 M 94.269 101.693 C 95.242 101.947, 96.592 101.930, 97.269 101.656 C 97.946 101.382, 97.150 101.175, 95.500 101.195 C 93.850 101.215, 93.296 101.439, 94.269 101.693" stroke="none" fill="black" fill-rule="evenodd"/>
</svg>