<svg xmlns="http://www.w3.org/2000/svg" width="256" height="256" viewBox="0 0 256 256" version="1.1">
	<path d="M 41.236 30.654 C 37.515 32.488, 36.462 35.327, 37.486 40.757 C 37.875 42.815, 38.286 55.075, 38.400 68 C 38.514 80.925, 38.954 93.075, 39.376 95 C 40.412 99.723, 44.838 105.097, 49.553 107.359 C 53.382 109.195, 53.517 109.190, 60.639 106.956 C 66.490 105.121, 68.382 104.902, 70.675 105.793 C 72.229 106.397, 75.975 107.117, 79 107.394 C 86.709 108.098, 88.730 108.866, 89.394 111.342 C 91.393 118.795, 88.143 120.890, 80.084 117.346 C 75.491 115.325, 73.382 115.012, 66.214 115.285 C 59.318 115.547, 57.507 115.954, 56.381 117.494 C 54.400 120.203, 54.669 122.504, 57.331 125.599 C 59.638 128.281, 59.809 128.311, 73.895 128.585 C 83.056 128.763, 88.640 129.286, 89.564 130.053 C 91.575 131.722, 91.295 137.067, 89.056 139.750 C 86.977 142.243, 84.373 142.583, 80.583 140.856 C 78.683 139.990, 76.663 140.007, 72.286 140.927 C 67.658 141.899, 65.099 141.880, 59.500 140.831 C 55.650 140.109, 49.410 139.530, 45.633 139.544 C 39.769 139.567, 38.504 139.894, 36.974 141.784 C 35.247 143.916, 35.251 144.144, 37.083 147.936 C 38.129 150.101, 39.425 152.144, 39.961 152.476 C 43.483 154.652, 149.339 156.853, 154.776 154.863 C 159.696 153.062, 158.866 147.306, 153.281 144.500 C 150.369 143.037, 147.084 142.564, 138.987 142.439 C 126.470 142.247, 111.354 140.253, 108.335 138.397 C 105.912 136.907, 106.128 134.082, 108.850 131.663 C 110.987 129.763, 127.204 128.040, 133.620 129.032 C 138.696 129.816, 140.277 129.220, 142.085 125.841 C 143.059 124.020, 140.876 118.022, 139.224 117.983 C 138.826 117.973, 135.350 117.282, 131.500 116.446 C 126.668 115.397, 122.091 115.123, 116.720 115.559 C 107.684 116.293, 104 114.803, 104 110.411 C 104 109.013, 103.531 106.992, 102.957 105.920 C 101.627 103.435, 103.995 103.661, 105.500 106.162 C 106.373 107.614, 106.962 107.665, 110.142 106.568 C 112.145 105.876, 116.583 103.440, 120.006 101.155 C 127.099 96.418, 129.408 96.111, 134.720 99.195 C 147.389 106.550, 152.182 107.568, 156.492 103.820 C 158.998 101.641, 159.540 99.571, 158.389 96.571 C 157.829 95.112, 140.343 86, 138.103 86 C 137.570 86, 136.855 85.117, 136.512 84.038 C 135.860 81.985, 137.020 79.147, 140.167 75.092 C 141.195 73.768, 142.747 70.237, 143.617 67.245 C 144.487 64.253, 146.954 59.300, 149.099 56.237 C 151.480 52.839, 153.027 49.466, 153.070 47.584 C 153.109 45.888, 153.494 43.600, 153.926 42.500 C 154.358 41.400, 154.293 39.292, 153.781 37.816 C 151.997 32.670, 150.096 32.232, 127.939 31.851 L 107.500 31.500 103.906 34.250 C 101.929 35.763, 99.860 37, 99.309 37 C 98.758 37, 96.762 35.500, 94.874 33.666 L 91.440 30.331 73.970 29.669 C 48.885 28.717, 44.924 28.837, 41.236 30.654 M 52.750 43.080 C 48.915 45.314, 52.095 50, 57.446 50 C 64.201 50, 67 48.931, 67 46.350 C 67 44.694, 66.205 43.648, 64.435 42.975 C 61.130 41.719, 54.993 41.774, 52.750 43.080 M 90 43.716 C 80.949 44.178, 80.616 44.357, 82.399 47.804 C 83.376 49.694, 85.172 51.035, 87.771 51.813 C 94.822 53.926, 95.333 55.205, 95.473 71.095 C 95.615 87.208, 95.740 86.978, 86.816 87.032 C 83.892 87.049, 80.706 87.666, 79.735 88.403 C 78.049 89.683, 78.049 89.839, 79.735 91.921 C 80.706 93.120, 83.490 94.548, 85.923 95.094 C 88.356 95.641, 92.578 97.156, 95.306 98.462 C 98.034 99.767, 100.768 100.624, 101.383 100.367 C 101.997 100.109, 103.401 98.472, 104.501 96.729 C 105.602 94.986, 108.896 91.971, 111.822 90.030 C 117.966 85.953, 119.429 83.847, 118.551 80.347 C 117.826 77.457, 113.799 70.955, 109.838 66.277 C 106.928 62.840, 105.017 57.398, 105.002 52.500 C 104.988 48.083, 101.552 42.956, 98.765 43.193 C 97.519 43.299, 93.575 43.534, 90 43.716 M 119.843 46.523 C 117.245 47.934, 117.215 48.062, 118.496 52.233 C 121.027 60.480, 121.806 61.737, 125.095 62.883 C 129.854 64.542, 132.310 62.518, 134.346 55.262 C 136.440 47.802, 136.516 48.318, 133.050 46.526 C 129.373 44.624, 123.341 44.623, 119.843 46.523 M 64.500 62.244 C 59.550 62.755, 54.302 63.622, 52.837 64.171 C 47.390 66.215, 48.663 74.844, 54.591 76.052 C 56.291 76.399, 60.116 76.294, 63.091 75.820 C 66.066 75.345, 70.975 74.678, 74 74.337 C 81.094 73.537, 83.650 71.078, 81.487 67.136 C 79.011 62.623, 77.349 60.994, 75.390 61.158 C 74.350 61.245, 69.450 61.734, 64.500 62.244 M 57.328 86.728 C 49.262 87.461, 49.065 92.491, 56.968 95.891 C 63.175 98.561, 66.774 98.561, 69.615 95.892 C 71.486 94.134, 71.681 93.394, 70.791 91.440 C 69.792 89.248, 64.241 85.785, 62.349 86.175 C 61.882 86.271, 59.623 86.520, 57.328 86.728" stroke="none" fill="black" fill-rule="evenodd"/>
</svg>