<svg xmlns="http://www.w3.org/2000/svg" width="256" height="256" viewBox="0 0 256 256" version="1.1">
	<path d="M 93.908 28.092 C 92.029 29.971, 91.887 30.892, 92.511 37.110 C 93.669 48.636, 90.927 50.644, 77.799 47.887 C 70.415 46.337, 69 44.821, 69 38.456 C 69 32.515, 67.104 29.465, 62.775 28.441 C 60.579 27.921, 59.444 28.402, 56.927 30.920 C 55.208 32.638, 54.036 34.651, 54.321 35.394 C 54.606 36.137, 55.145 38.787, 55.520 41.283 C 56.141 45.424, 55.974 45.971, 53.617 47.515 C 51.372 48.986, 50.376 49.050, 46 48 C 41.731 46.976, 40.608 47.027, 38.611 48.335 C 35.813 50.168, 34.938 53.794, 36.077 58.830 C 36.551 60.930, 36.474 65.615, 35.896 69.781 C 34.516 79.717, 35.043 81, 40.499 81 C 46.604 81, 49.315 77.236, 49.197 68.927 C 49.125 63.862, 49.444 62.796, 51.521 61.162 C 53.642 59.494, 55.262 59.319, 65.134 59.690 C 71.298 59.922, 77.051 60.485, 77.920 60.941 C 80.786 62.445, 89.185 63.008, 115.807 63.483 C 130.276 63.741, 142.494 64.188, 142.959 64.475 C 143.423 64.762, 144.113 67.664, 144.491 70.924 C 145.322 78.083, 147.174 80.100, 152.992 80.180 C 159.233 80.267, 160.453 78.520, 160.158 69.922 C 159.582 53.160, 156.508 47.396, 148.661 48.361 C 144.123 48.920, 139.402 47.489, 138.562 45.301 C 138.233 44.444, 138.488 42.293, 139.128 40.522 C 140.724 36.110, 139.585 32.185, 136.485 31.407 C 130.918 30.010, 127 33.400, 127 39.613 C 127 42.568, 125.324 46.019, 123.087 47.672 C 120.288 49.740, 113.457 50.218, 109.620 48.615 C 105.341 46.827, 104.313 43.785, 105.883 37.552 C 107.122 32.630, 106.568 30.314, 103.549 27.783 C 100.746 25.435, 96.427 25.573, 93.908 28.092 M 76 68.709 C 70.554 69.273, 67.020 71.043, 65.654 73.891 C 64.190 76.944, 64.218 89.376, 65.705 96.220 C 67.765 105.702, 71.275 108.315, 80.769 107.433 C 90.348 106.544, 94.801 111.020, 89.391 116.102 C 87.069 118.283, 87.036 118.285, 81.369 116.503 C 74.201 114.248, 73.760 114.245, 66.500 116.394 C 59.451 118.481, 56.584 121.205, 57.518 124.927 C 57.870 126.331, 58.625 127.768, 59.195 128.121 C 59.765 128.473, 66.346 128.828, 73.818 128.909 C 89.433 129.079, 91 129.736, 91 136.116 C 91 141.043, 87.716 144.446, 84.010 143.362 C 79.676 142.093, 74.663 142.236, 70.204 143.755 C 66.417 145.046, 65.196 145.044, 60.003 143.735 C 50.257 141.281, 43.102 143.570, 42.468 149.345 C 41.907 154.454, 43.329 154.748, 72.500 155.554 C 107.330 156.516, 118.599 156.531, 134.500 155.637 C 150.618 154.730, 151.613 154.521, 153.510 151.625 C 155.558 148.499, 154.541 146.317, 149.945 143.972 C 145.653 141.782, 143.635 141.681, 122.234 142.578 C 105.711 143.272, 104 142.871, 104 138.312 C 104 131.656, 108.693 129.706, 125 129.585 C 131.325 129.538, 136.975 129.050, 137.556 128.500 C 140.937 125.298, 139.274 121.113, 133.790 119.021 C 131.980 118.330, 128.985 117.097, 127.132 116.280 C 124.470 115.105, 122.247 114.981, 116.511 115.687 C 108.916 116.621, 104.233 115.971, 102.851 113.792 C 101.689 111.961, 101.793 111.350, 103.571 109.571 C 104.784 108.359, 107.359 108, 114.849 108 C 123.676 108, 124.730 107.796, 126.486 105.750 C 128.424 103.492, 129.518 98.668, 130.625 87.500 C 131.483 78.850, 131.377 77.230, 129.858 75.749 C 125.399 71.399, 110.611 67.748, 103.268 69.184 C 99.270 69.965, 86.440 69.644, 81 68.627 C 80.175 68.473, 77.925 68.510, 76 68.709 M 85 82.657 C 78.666 83.350, 77.356 83.923, 76.171 86.523 C 73.285 92.857, 75.777 95.125, 85.353 94.881 C 89.284 94.781, 96.550 94.987, 101.500 95.338 C 112.880 96.147, 117.380 95.258, 117.833 92.111 C 118.380 88.310, 117.087 84.982, 114.722 84.104 C 112.167 83.155, 90.222 82.087, 85 82.657" stroke="none" fill="black" fill-rule="evenodd"/>
</svg>