<svg xmlns="http://www.w3.org/2000/svg" width="256" height="256" viewBox="0 0 256 256" version="1.1">
	<path d="M 83.904 28.395 C 82.636 29.713, 81.126 32.478, 80.547 34.539 C 78.579 41.555, 74.349 43.087, 52.207 44.803 C 42.564 45.550, 41.031 46.332, 41.031 50.500 C 41.031 54.893, 42.408 55.494, 52.756 55.617 C 58.162 55.681, 63.578 56.049, 64.792 56.434 C 68.111 57.487, 67.482 60.410, 62.905 65.208 C 60.652 67.569, 58.126 70.850, 57.290 72.500 C 55.456 76.123, 51.032 80.996, 49.563 81.011 C 47.954 81.026, 36.752 89.664, 34.678 92.488 C 32.467 95.498, 33.215 98.621, 36.282 99.193 C 41.424 100.153, 51.893 98.471, 54.702 96.234 C 56.241 95.008, 59.703 92.838, 62.396 91.412 C 66.198 89.398, 67.762 89.039, 69.396 89.808 C 76.669 93.230, 85.759 95.214, 93.570 95.085 C 97.033 95.027, 101.971 95.762, 105.070 96.796 C 110.973 98.766, 114.951 98.164, 118.752 94.724 C 119.800 93.776, 121.185 93, 121.829 93 C 122.473 93, 123.004 92.662, 123.008 92.250 C 123.016 91.469, 127.761 89, 129.254 89 C 129.725 89, 132.775 90.810, 136.033 93.023 C 141.222 96.546, 142.688 97.056, 147.847 97.128 C 151.086 97.174, 154.696 96.698, 155.868 96.070 C 160.301 93.698, 157.511 87.510, 150.108 83.293 C 147.574 81.849, 144.562 79.834, 143.416 78.815 C 142.269 77.796, 138.736 75.957, 135.563 74.728 C 130.663 72.831, 129.433 71.818, 127.397 68.012 C 125.952 65.310, 125 61.851, 125 59.301 C 125 53.509, 127.156 52.377, 135.181 53.956 C 141.382 55.176, 146.692 54.281, 148.878 51.647 C 150.499 49.694, 149.079 46.273, 146.155 45.087 C 141.281 43.112, 136.890 42.915, 104.262 43.214 C 99.488 43.258, 94.397 41.478, 93.638 39.499 C 93.360 38.773, 93.620 36.589, 94.217 34.645 C 96.457 27.347, 89.166 22.928, 83.904 28.395 M 83.754 57.985 C 79.712 61.388, 72.425 75.060, 73.358 77.491 C 74.108 79.445, 79.247 81.943, 82.656 82.010 C 91.452 82.182, 114.684 80.603, 115.740 79.760 C 117.199 78.597, 116.488 74.639, 114.168 71 C 113.291 69.625, 112.332 66.521, 112.037 64.103 C 111.227 57.471, 108.413 55.838, 96.831 55.281 C 87.546 54.834, 87.482 54.848, 83.754 57.985 M 107.817 100.516 C 106.561 101.772, 101.874 102.230, 91.500 102.112 C 85.450 102.042, 78.145 102.469, 75.266 103.060 C 72.388 103.651, 67.068 104.242, 63.446 104.373 C 56.716 104.616, 55.048 105.577, 55.015 109.227 C 54.992 111.870, 59.142 114.014, 66.673 115.248 C 74.419 116.518, 80.248 116.692, 84.226 115.772 C 86.077 115.344, 87.642 115.699, 89.099 116.879 C 91.480 118.807, 92.953 128.425, 93.480 145.500 C 93.633 150.450, 93.813 155.308, 93.879 156.295 C 94.062 159.011, 98.578 163, 101.469 163 C 104.808 163, 108.339 157.638, 107.395 154 C 107.038 152.625, 106.356 146.775, 105.880 141 C 105.403 135.225, 104.737 128.582, 104.400 126.237 C 103.960 123.176, 104.240 121.282, 105.394 119.522 C 108.200 115.238, 110.483 114.629, 118.548 116.008 L 125.796 117.248 129.398 114.374 C 133.575 111.041, 134.105 107.687, 130.750 105.815 C 126.803 103.612, 121.599 102.031, 118.250 102.015 C 116.333 102.006, 114.994 101.487, 114.985 100.750 C 114.974 99.917, 114.646 100, 114 101 C 113.467 101.825, 113.024 102.013, 113.015 101.417 C 112.995 100, 110.005 100, 109.985 101.417 C 109.976 102.049, 109.635 101.973, 109.166 101.235 C 108.725 100.539, 108.118 100.216, 107.817 100.516 M 122.500 124.955 C 120.244 125.867, 117.508 128.752, 116.766 131 C 115.867 133.721, 118.024 136.027, 124.303 139.060 C 127.711 140.706, 131.175 142.899, 132 143.933 C 134.544 147.123, 141.137 151, 144.017 151 C 148.681 151, 149.568 148.740, 147.028 143.335 C 144.854 138.711, 135.839 129, 133.721 129 C 133.120 129, 131.700 128.152, 130.564 127.115 C 127.924 124.704, 125.033 123.930, 122.500 124.955 M 63.311 134.055 C 49.258 145.899, 48.892 146.298, 49.203 149.473 C 49.481 152.305, 49.793 152.519, 54.061 152.797 C 60.372 153.208, 63.506 151.754, 67.045 146.773 C 68.715 144.423, 72.087 141.150, 74.538 139.500 C 76.990 137.850, 78.997 136.223, 78.998 135.885 C 78.999 135.547, 78.067 134.084, 76.927 132.635 C 73.732 128.572, 69.263 129.038, 63.311 134.055" stroke="none" fill="black" fill-rule="evenodd"/>
</svg>