<svg xmlns="http://www.w3.org/2000/svg" width="256" height="256" viewBox="0 0 256 256" version="1.1">
	<path d="M 83.546 28.750 C 71.592 41.267, 60.138 51.822, 55.854 54.268 C 50.148 57.527, 48.214 60.664, 49.932 63.874 C 51.394 66.604, 52.753 66.550, 60.077 63.468 C 67.456 60.362, 69.565 61.062, 75.232 68.500 C 80.801 75.810, 80.244 77.473, 71 81.129 C 66.875 82.761, 59.751 84.937, 55.168 85.967 C 43.411 88.607, 40.261 92.078, 45.314 96.826 C 47.058 98.464, 48.871 99, 52.665 99 C 58.329 99, 61.765 98.019, 70.643 93.871 C 74.022 92.292, 77.622 90.986, 78.643 90.968 C 81.582 90.918, 84 88.513, 84 85.640 C 84 83.208, 85.236 82.406, 88.250 82.882 C 88.662 82.947, 89 82.550, 89 82 C 89 81.450, 90.575 81, 92.500 81 C 95.635 81, 96.208 81.443, 95.915 83.638 C 95.868 83.989, 96.348 84.597, 96.982 84.989 C 97.699 85.432, 96.974 86.182, 95.067 86.972 C 93.380 87.671, 92 88.609, 92 89.057 C 92 89.504, 90.459 90.428, 88.576 91.109 C 86.693 91.790, 84.590 93.398, 83.902 94.683 C 83.215 95.968, 79.243 99.790, 75.076 103.177 C 70.909 106.563, 66.938 110.020, 66.250 110.858 C 64.369 113.151, 64.746 117.746, 67 120 C 70.291 123.291, 74.197 122.546, 80.109 117.500 C 83.008 115.025, 85.992 113, 86.740 113 C 88.525 113, 94 115.847, 94.001 116.776 C 94.002 117.174, 95.124 118.804, 96.495 120.399 C 99.030 123.346, 100.984 128.700, 100.994 132.724 C 101.004 136.529, 97.873 137.499, 74.790 140.837 C 66.056 142.100, 62 144.861, 62 149.545 C 62 158.426, 73.562 158.785, 99.241 150.701 C 106.886 148.294, 110.378 145.723, 111.350 141.785 C 112.177 138.438, 115.888 134.621, 120.398 132.481 C 124.108 130.721, 135.863 116.486, 139.788 109 C 141.086 106.525, 143.403 102.737, 144.936 100.582 C 147.914 96.398, 147.918 94.362, 144.953 91.179 C 143.314 89.420, 142.165 89.240, 135.296 89.666 C 126.207 90.229, 124.412 89.468, 115.600 81.324 C 110.775 76.863, 110 75.644, 110 72.509 C 110 67.114, 113.521 59.702, 116.772 58.252 C 120.124 56.758, 124.428 51.468, 125.370 47.685 C 125.954 45.341, 125.518 44.318, 122.759 41.559 C 119.643 38.443, 118.902 38.205, 110.188 37.515 C 101.787 36.850, 100.770 36.546, 99.214 34.238 C 95.925 29.357, 91.185 25, 89.164 25 C 88.044 25, 85.516 26.688, 83.546 28.750 M 89 46.691 C 85.655 47.928, 81 53.425, 81 56.139 C 81 60.065, 84.297 62.001, 90.973 61.996 C 103.079 61.988, 108.327 53.280, 99.073 48.555 C 95.785 46.876, 90.930 45.978, 89 46.691 M 113 97.433 C 113 98.295, 112.522 99, 111.938 99 C 111.354 99, 108.429 100.158, 105.438 101.573 C 99.483 104.390, 98.334 107.182, 101.829 110.345 C 104.491 112.754, 116.160 112.564, 121.765 110.020 C 127.626 107.360, 128.168 105.339, 123.961 101.827 C 122.099 100.272, 120.034 99, 119.371 99 C 118.709 99, 118.017 98.609, 117.833 98.132 C 117.650 97.655, 116.487 96.950, 115.250 96.565 C 113.576 96.044, 113 96.267, 113 97.433 M 111 113.800 C 111 115.177, 113.326 117, 115.083 117 C 116.009 117, 117.002 116.100, 117.290 115 C 117.737 113.289, 117.320 113, 114.406 113 C 112.533 113, 111 113.360, 111 113.800" stroke="none" fill="black" fill-rule="evenodd"/>
</svg>