<svg xmlns="http://www.w3.org/2000/svg" width="256" height="256" viewBox="0 0 256 256" version="1.1">
	<path d="M 50.827 28.686 C 48.037 29.405, 45.801 33.959, 45.400 39.740 C 45.190 42.751, 44.549 46.962, 43.974 49.097 C 42.753 53.630, 40.495 54.574, 32.992 53.685 C 25.033 52.743, 23.721 57.255, 30.873 60.968 C 32.868 62.003, 35.968 64.121, 37.763 65.675 L 41.025 68.500 39.588 80 C 38.797 86.325, 37.888 94.785, 37.568 98.801 C 36.793 108.513, 35.326 114.736, 32.877 118.700 C 30.831 122.010, 31.041 124, 33.437 124 C 34.162 124, 35.331 123.306, 36.035 122.458 C 37.001 121.294, 38.915 120.987, 43.845 121.208 L 50.375 121.500 50.745 124.762 C 51.043 127.402, 50.265 129.118, 46.659 133.762 C 42.439 139.197, 38.951 145.442, 36.037 152.776 C 34.893 155.656, 34.952 156.289, 36.523 158.026 C 41.431 163.448, 51.802 156.110, 58.904 142.189 C 61.440 137.217, 66.420 134.157, 69.175 135.877 C 70.164 136.495, 71.793 137, 72.795 137 C 73.798 137, 75.491 137.661, 76.559 138.468 C 79.005 140.318, 83.406 140.501, 82.724 138.724 C 82.455 138.023, 81.702 134.879, 81.050 131.739 C 80.001 126.688, 79.465 125.840, 76.398 124.384 C 73.185 122.860, 69.864 119, 71.765 119 C 72.224 119, 72.640 117.987, 72.690 116.750 C 72.739 115.513, 73.245 113.150, 73.814 111.500 C 78.568 97.714, 79.987 91.697, 80.959 81.209 C 81.562 74.706, 82.205 72.410, 83.944 70.560 C 86.482 67.858, 88.767 67.832, 90.254 70.489 C 90.820 71.500, 91.368 77.316, 91.472 83.414 C 91.691 96.251, 92.685 98.714, 97.990 99.557 C 104.849 100.648, 105.717 100.990, 108.384 103.657 C 110.581 105.854, 110.960 106.923, 110.429 109.427 C 110.071 111.117, 109.204 113.175, 108.503 114 C 107.032 115.733, 102 126.588, 102 128.030 C 102 128.563, 101.351 129, 100.558 129 C 98.403 129, 89.597 139.661, 88.854 143.168 C 87.992 147.238, 90.365 150, 94.722 150 C 96.525 150, 98.001 149.662, 98.003 149.250 C 98.004 148.838, 99.329 147.614, 100.945 146.530 C 103.001 145.153, 105.481 141.186, 109.193 133.335 C 114.423 122.272, 116.470 119.933, 120.203 120.754 C 121.140 120.960, 122.168 122.112, 122.488 123.314 C 122.808 124.516, 123.568 127.162, 124.176 129.193 C 124.995 131.926, 124.978 134.434, 124.112 138.835 C 121.431 152.465, 126.562 165.796, 132.807 161.422 C 135.755 159.358, 136.931 154.661, 136.919 145 C 136.913 140.325, 137.299 135.150, 137.777 133.500 C 138.779 130.037, 138.595 111.329, 137.534 108.794 C 136.481 106.280, 141.141 102, 144.931 102 C 147.086 102, 148.445 102.750, 149.665 104.612 C 151.200 106.954, 151.255 108.188, 150.198 116.555 C 149.550 121.687, 149.288 126.587, 149.617 127.443 C 149.945 128.299, 149.732 129, 149.142 129 C 148.553 129, 147.587 129.903, 146.996 131.007 C 145.351 134.081, 149.702 138.010, 154.705 137.968 C 162.783 137.901, 164.067 134.552, 164.471 112.500 C 164.902 88.893, 165.012 89.050, 148 88.999 C 136.883 88.966, 133.293 87.680, 133.897 83.950 C 134.744 78.714, 134.281 67.389, 133.131 65.243 C 132.082 63.285, 132.252 62.657, 134.416 60.493 C 136.005 58.904, 138.104 57.970, 140.205 57.918 C 151.221 57.643, 154.235 55.110, 149.980 49.702 C 148.585 47.928, 146.221 46.745, 142.327 45.874 C 134.843 44.199, 131.430 41.245, 130.701 35.810 C 129.879 29.678, 125.838 27.293, 121.648 30.466 C 119.621 32.002, 119.219 34.829, 120.352 39.586 C 120.904 41.902, 120.620 43.248, 119.213 44.985 C 117.649 46.916, 116.044 47.405, 109.495 47.940 C 102.051 48.549, 101.519 48.756, 99.075 51.992 C 97.659 53.868, 94.797 57.181, 92.715 59.354 L 88.929 63.306 86.139 60.633 C 84.604 59.163, 82.072 55.289, 80.512 52.024 C 78.951 48.760, 77.040 45.846, 76.265 45.548 C 73.991 44.675, 71.150 46.785, 69.046 50.910 C 66.830 55.254, 65.538 56.017, 61.658 55.275 C 56.354 54.261, 54.614 48.561, 57.500 41.654 C 59.325 37.287, 59.449 31.604, 57.750 30.245 C 56.049 28.884, 52.853 28.164, 50.827 28.686 M 111.546 61.541 C 110.110 62.627, 109.662 64.010, 109.855 66.759 C 110.036 69.329, 109.110 72.592, 106.899 77.181 C 103.815 83.583, 103.749 83.968, 105.331 86.382 C 107.072 89.040, 112.292 90.985, 117.710 90.994 C 119.919 90.998, 121.730 90.143, 123.520 88.250 C 126.613 84.979, 126.431 82.015, 122.526 72.060 C 121.137 68.519, 120 64.896, 120 64.010 C 120 60.189, 115.192 58.784, 111.546 61.541 M 65.559 63.904 C 65.187 64.507, 63.749 65, 62.364 65 C 59.372 65, 54.301 69.722, 53.641 73.122 C 53.387 74.430, 52.694 79.100, 52.100 83.500 C 51.507 87.900, 50.773 93.075, 50.470 95 C 50.167 96.925, 49.654 100.179, 49.330 102.231 C 48.630 106.674, 50.433 111.618, 52.997 112.289 C 54.006 112.553, 55.854 112.258, 57.104 111.634 C 60.032 110.172, 65.879 98.539, 65.967 94 C 66.004 92.075, 66.699 87.364, 67.511 83.530 C 69.659 73.389, 69.778 66.349, 67.833 64.404 C 66.747 63.319, 66.020 63.159, 65.559 63.904" stroke="none" fill="black" fill-rule="evenodd"/>
</svg>