<svg xmlns="http://www.w3.org/2000/svg" width="256" height="256" viewBox="0 0 256 256" version="1.1">
	<path d="M 94.136 31.249 C 91.969 32.311, 91.823 32.838, 92.383 37.597 C 93.225 44.767, 91.425 46.818, 84 47.149 C 80.975 47.284, 76.025 47.974, 73 48.682 C 69.975 49.390, 65.423 49.976, 62.885 49.984 C 53.335 50.017, 51.741 53.631, 51.590 75.594 C 51.525 85.044, 51.122 89.144, 50.142 90.327 C 49.394 91.228, 46.362 92.729, 43.402 93.662 C 37.491 95.526, 36.275 97.316, 38.141 101.409 C 39.635 104.690, 40.233 104.808, 58 105.345 C 73.868 105.824, 84 107.485, 84 109.608 C 84 110.340, 80.607 113.229, 76.460 116.027 C 70.019 120.373, 68.527 121.945, 66.229 126.808 C 63.274 133.062, 60.077 136.221, 53.155 139.725 C 46.935 142.874, 44 145.842, 44 148.983 C 44 153.290, 46.124 155.248, 50.730 155.184 C 59.641 155.061, 62.774 153.386, 72.680 143.448 C 79.009 137.098, 82.235 133.076, 82.646 131.022 C 83.079 128.856, 84.723 126.939, 88.377 124.338 C 94.988 119.633, 99.255 114.783, 97.670 113.775 C 96.784 113.211, 96.789 113.027, 97.693 113.015 C 98.349 113.007, 98.723 112.156, 98.524 111.125 C 97.824 107.492, 100.126 107.055, 130.500 105.054 C 147.022 103.966, 153.779 102.666, 156.367 100.077 C 160.038 96.407, 156.096 91.029, 149.703 90.985 C 144.800 90.951, 144.504 90.038, 144.447 74.786 C 144.416 66.582, 143.868 58.692, 143.159 56.254 C 141.201 49.516, 139.409 48.485, 127.380 47.172 C 121.553 46.535, 116.367 46.273, 115.856 46.589 C 114.350 47.520, 107.086 45.944, 105.480 44.337 C 104.639 43.496, 104 41.028, 104 38.620 C 104 36.289, 103.438 33.646, 102.750 32.746 C 101.063 30.538, 97.022 29.836, 94.136 31.249 M 78.500 60.763 C 69.339 63.051, 68.099 63.871, 66.922 68.426 C 66.342 70.667, 65.221 74.525, 64.429 77 C 62.713 82.367, 62.625 85.625, 64.084 89.810 C 65.481 93.818, 67.408 94.357, 79.426 94.099 C 87.325 93.929, 89.894 93.499, 92.009 91.994 C 95.118 89.780, 95.258 89.190, 95.332 78 C 95.397 68.342, 93.199 61.867, 89.246 60.066 C 86.487 58.809, 86.271 58.823, 78.500 60.763 M 111 60.752 C 107.616 62.442, 107.479 62.733, 106.876 69.500 C 106.533 73.350, 105.902 79.806, 105.473 83.846 C 104.524 92.788, 104.730 92.985, 115 92.928 C 125.051 92.873, 129.056 91.409, 131.211 87 C 132.774 83.805, 132.798 82.803, 131.496 75.500 C 130.712 71.100, 130.054 66.026, 130.035 64.225 C 130.007 61.646, 129.455 60.743, 127.435 59.975 C 123.365 58.428, 114.846 58.830, 111 60.752 M 106.315 114.007 C 102.720 115.456, 101.287 119.283, 103.429 121.719 C 104.018 122.389, 105.604 124.301, 106.953 125.969 C 108.302 127.636, 110.024 129, 110.780 129 C 111.535 129, 115.381 131.163, 119.326 133.807 C 123.272 136.451, 127.268 138.904, 128.207 139.259 C 129.146 139.614, 131.031 141.613, 132.396 143.702 C 137.237 151.112, 140.683 154.148, 144.895 154.713 C 148.716 155.225, 148.931 155.102, 150.424 151.528 C 151.967 147.835, 151.951 147.765, 148.023 141.155 C 145.848 137.495, 142.591 133.421, 140.785 132.102 C 138.978 130.784, 136.150 127.948, 134.500 125.800 C 132.327 122.973, 128.971 120.669, 122.330 117.448 C 113.111 112.976, 110.347 112.383, 106.315 114.007" stroke="none" fill="black" fill-rule="evenodd"/>
</svg>