<svg xmlns="http://www.w3.org/2000/svg" width="256" height="256" viewBox="0 0 256 256" version="1.1">
	<path d="M 94.352 28.050 C 91.627 29.078, 90.870 30.332, 90.265 34.827 C 89.996 36.815, 89.041 38.981, 88.141 39.639 C 87.241 40.297, 82.228 41.303, 77.002 41.874 C 71.776 42.446, 65.025 43.217, 62 43.588 C 58.975 43.960, 53.207 44.388, 49.182 44.539 C 43.909 44.737, 41.323 45.303, 39.932 46.562 C 37.199 49.035, 37.487 52.618, 40.581 54.645 C 42.882 56.153, 43.725 56.190, 48.331 54.993 C 53.432 53.667, 57.832 53.530, 61.251 54.592 C 64.942 55.738, 64.977 58.228, 61.451 68.860 C 57.585 80.521, 55.047 84.656, 50.601 86.542 C 47.301 87.942, 41.435 93.113, 38.672 97.058 C 36.535 100.109, 36.523 105.381, 38.649 107.506 C 40.409 109.266, 40.881 109.210, 48.297 106.371 C 53.632 104.328, 54.460 104.764, 55.652 110.250 C 55.981 111.763, 56.712 113, 57.277 113 C 57.964 113, 58.115 119.507, 57.734 132.657 C 57.186 151.542, 57.253 152.515, 59.424 157.425 C 62.050 163.362, 65.627 165.724, 68.650 163.515 C 70.329 162.289, 70.529 160.239, 70.810 141.332 C 71.007 128.077, 70.713 119.045, 70.002 116.500 C 69.387 114.300, 68.799 106.200, 68.696 98.500 C 68.488 82.984, 69.003 81.148, 75.636 73.747 C 78.893 70.114, 79.932 66.694, 78.119 65.574 C 76.403 64.513, 76.258 60.076, 77.893 58.623 C 80.540 56.272, 96.158 53.466, 100.128 54.628 L 103.500 55.615 103.181 62.557 C 102.794 71.003, 100.744 75.701, 94 83.599 C 86.081 92.874, 84.218 94.758, 81.212 96.534 C 77.252 98.873, 76.745 100.191, 78.723 103.015 C 80.167 105.077, 80.833 105.210, 86.898 104.654 C 95.143 103.897, 97.333 104.950, 101.135 111.500 C 106.754 121.179, 108.070 127.505, 105.663 133.265 C 104.409 136.266, 103.414 137.071, 99.826 137.988 C 92.941 139.748, 90.025 141.126, 88.460 143.360 C 86.558 146.076, 86.606 150.368, 88.586 154.541 C 91.477 160.632, 96.729 159.432, 104.370 150.933 C 106.916 148.101, 109.001 145.495, 109.002 145.142 C 109.003 144.789, 111.018 143.150, 113.480 141.500 C 115.942 139.850, 117.966 138.162, 117.978 137.750 C 118.009 136.678, 123 136.817, 123 137.890 C 123 138.379, 125.084 139.759, 127.632 140.957 C 130.179 142.154, 134.567 144.831, 137.382 146.904 C 142.422 150.617, 149.976 154, 153.227 154 C 155.552 154, 158 150.136, 158 146.465 C 158 143.489, 153.779 138.027, 151.445 137.982 C 150.288 137.960, 142.801 132.944, 140.519 130.662 C 139.605 129.748, 138.041 129, 137.044 129 C 134.468 129, 131.999 124.778, 132.573 121.357 C 133.250 117.319, 135.084 113, 136.121 113 C 136.605 113, 137 112.360, 137 111.577 C 137 110.794, 138.125 108.816, 139.500 107.182 C 140.875 105.548, 142 103.935, 142 103.597 C 142 103.259, 143.351 101.117, 145.003 98.837 C 146.655 96.557, 148.481 92.849, 149.062 90.596 C 149.642 88.343, 150.780 85.053, 151.590 83.283 C 152.962 80.287, 152.906 79.827, 150.781 76.560 C 147.652 71.751, 144.554 70.622, 137.878 71.860 C 133.716 72.631, 131.100 72.510, 126.308 71.321 C 119.610 69.661, 117.879 68.275, 116.184 63.222 C 114.129 57.094, 116.193 55.692, 127.500 55.539 C 138.641 55.389, 150.303 53.910, 152.810 52.330 C 155.892 50.389, 155.452 46.026, 152 44.288 C 150.569 43.568, 145.651 43.011, 140.500 42.986 C 126.351 42.917, 105.915 41.175, 104.389 39.908 C 103.625 39.274, 103 37.497, 103 35.959 C 103 34.422, 102.720 32.435, 102.379 31.545 C 101.439 29.095, 96.864 27.103, 94.352 28.050 M 107.844 87.255 C 102.293 91.948, 101.366 97.908, 105.750 100.714 C 107.263 101.682, 110.676 104.647, 113.336 107.302 C 117.856 111.816, 118.312 112.037, 120.336 110.696 C 123.603 108.530, 123.513 106.222, 119.992 101.841 C 117.304 98.495, 116.903 97.330, 117.446 94.435 C 117.801 92.546, 118.520 90.944, 119.045 90.875 C 119.570 90.806, 120.563 90.677, 121.250 90.588 C 121.938 90.499, 124.372 90.972, 126.661 91.639 C 130.012 92.615, 131.172 92.595, 132.621 91.535 C 134.151 90.416, 134.243 89.828, 133.232 87.610 C 132.057 85.031, 131.913 85, 121.271 85.005 C 111.567 85.009, 110.237 85.232, 107.844 87.255 M 32.274 123.217 C 31.709 123.923, 31.554 125.343, 31.930 126.373 C 32.578 128.151, 32.699 128.158, 34.351 126.506 C 36.149 124.708, 36.144 122.881, 34.338 122.279 C 33.767 122.089, 32.838 122.511, 32.274 123.217" stroke="none" fill="black" fill-rule="evenodd"/>
</svg>