<svg xmlns="http://www.w3.org/2000/svg" width="256" height="256" viewBox="0 0 256 256" version="1.1">
	<path d="M 52.110 30.396 C 48.704 32.284, 47.076 35.775, 47.035 41.282 C 46.994 46.828, 44.952 52.368, 42.428 53.780 C 41.460 54.322, 38.970 54.537, 36.895 54.259 C 31.588 53.547, 28 54.627, 28 56.935 C 28 58.961, 34.078 64.290, 37.660 65.405 C 41.884 66.720, 42.271 68.198, 41.012 78.211 C 40.369 83.320, 39.172 91.325, 38.351 96 C 35.774 110.677, 35.344 114.699, 36.128 116.818 C 36.895 118.890, 42.245 120.983, 46.801 120.994 C 48.485 120.999, 49.496 121.943, 50.570 124.513 C 52.222 128.468, 51.344 131.188, 46.851 136.036 C 41.810 141.473, 37.961 146.926, 36.103 151.260 C 34.368 155.306, 34.319 156.011, 35.638 157.893 C 37.612 160.712, 42.656 160.647, 46.687 157.750 C 48.409 156.512, 53.059 151.802, 57.019 147.282 C 60.980 142.763, 65.105 138.784, 66.186 138.441 C 67.507 138.022, 69.923 138.994, 73.560 141.409 C 78.969 145, 83.932 146.105, 84.077 143.750 C 84.119 143.063, 84.324 141.600, 84.533 140.500 C 85.046 137.799, 83.003 130.897, 81.068 128.798 C 80.206 127.862, 78.920 126.399, 78.211 125.548 C 77.501 124.697, 75.637 124, 74.068 124 C 70.950 124, 69.200 121.521, 71.653 120.580 C 72.493 120.257, 73.590 120.247, 74.090 120.556 C 74.591 120.865, 75 120.641, 75 120.059 C 75 119.477, 75.702 119, 76.559 119 C 77.416 119, 77.840 118.550, 77.500 118 C 77.160 117.450, 77.359 117, 77.941 117 C 78.523 117, 79 115.857, 79 114.460 C 79 113.063, 79.939 110.080, 81.087 107.830 C 82.652 104.762, 83 102.835, 82.477 100.120 C 80.943 92.145, 80.940 90.783, 82.441 84.925 C 83.298 81.577, 84 77.277, 84 75.370 C 84 73.462, 84.629 70.685, 85.397 69.199 C 87.441 65.246, 88.435 55.681, 87.067 53.125 C 85.655 50.487, 79.179 47.212, 76.500 47.781 C 75.400 48.014, 72.663 50.274, 70.418 52.803 L 66.337 57.400 62.418 55.914 C 58.949 54.599, 58.465 54.006, 58.191 50.742 C 58.010 48.573, 58.730 45.137, 59.941 42.400 C 62.679 36.210, 62.545 33.574, 59.365 31.073 C 56.315 28.674, 55.375 28.586, 52.110 30.396 M 142 39.606 C 138.225 40.446, 134.033 40.765, 132 40.366 C 130.075 39.988, 120.625 39.591, 111 39.484 C 92.226 39.275, 89.962 39.806, 90.032 44.405 C 90.079 47.516, 92.123 49.665, 96.824 51.546 C 103.626 54.268, 105.275 57.536, 105.085 67.924 C 104.882 79.078, 104.153 85.111, 102.813 86.726 C 102.231 87.427, 100.213 88, 98.328 88 C 93.261 88, 89 90.524, 89 93.526 C 89 97.312, 92.471 100.173, 96.821 99.974 C 102.609 99.710, 102.670 99.749, 104.031 104.611 C 105.037 108.203, 105.063 109.937, 104.150 112.463 C 103.505 114.245, 102.131 119.576, 101.097 124.309 C 99.275 132.646, 97.358 136.864, 92.224 143.836 C 90.300 146.449, 89.891 147.941, 90.340 150.710 C 91.470 157.670, 96.282 159.926, 101.405 155.896 C 107.123 151.398, 115.027 130.243, 116.311 116 C 117.267 105.397, 119.744 102.548, 128.692 101.761 C 133.565 101.333, 133.952 101.469, 134.991 103.978 C 136.332 107.215, 136.317 106.396, 135.426 128.022 C 135.029 137.660, 135.023 147.670, 135.413 150.268 C 136.248 155.836, 140.123 161, 143.466 161 C 148.169 161, 148.395 159.629, 148.283 131.780 L 148.177 105.732 150.563 103.346 C 151.875 102.034, 154.279 100.694, 155.905 100.369 C 162.260 99.098, 165.052 93.052, 161.106 89.106 C 160.064 88.064, 157.366 86.900, 155.111 86.519 C 150.254 85.698, 150.039 85.425, 149.409 79.261 C 149.142 76.643, 148.479 71.700, 147.937 68.277 C 146.699 60.464, 148.033 56.854, 154.291 51.086 C 159.843 45.969, 160.707 42.701, 157.233 39.968 C 154.326 37.682, 150.999 37.603, 142 39.606 M 121.971 58.647 C 118.878 59.486, 117.720 63.353, 117.229 74.493 L 116.740 85.561 119.417 86.780 C 122.428 88.152, 132.816 88.404, 134.788 87.152 C 135.787 86.518, 135.919 83.579, 135.379 74.009 C 134.575 59.798, 133.614 57.919, 127.250 58.116 C 125.188 58.180, 122.812 58.419, 121.971 58.647 M 63 66.525 C 60.619 67.317, 58.961 68.778, 57.814 71.094 C 55.748 75.267, 51.181 92.681, 50.364 99.500 C 50.035 102.250, 49.569 104.834, 49.329 105.242 C 49.089 105.650, 50.074 107.164, 51.517 108.608 C 53.808 110.898, 54.671 111.148, 58.295 110.569 C 65.808 109.367, 66.870 106.933, 69.016 86 C 69.608 80.225, 70.337 74.680, 70.637 73.678 C 71.442 70.981, 70.220 67.177, 68.238 66.210 C 67.210 65.708, 65.071 65.837, 63 66.525" stroke="none" fill="black" fill-rule="evenodd"/>
</svg>