<svg xmlns="http://www.w3.org/2000/svg" width="256" height="256" viewBox="0 0 256 256" version="1.1">
	<path d="M 86.755 28.978 C 83.808 31.296, 81.138 36.660, 77.862 46.846 C 74.832 56.269, 73.641 56.923, 58.205 57.646 C 48.124 58.117, 46.257 58.473, 44.750 60.207 C 42.642 62.634, 42.500 65.934, 44.393 68.523 C 45.848 70.512, 46.146 70.532, 63 69.787 C 69.135 69.516, 69.518 69.630, 69.829 71.819 C 70.009 73.094, 68.263 78.123, 65.948 82.993 C 62.219 90.841, 61.791 92.470, 62.191 97.295 C 62.581 101.993, 63.183 103.290, 66.572 106.742 C 68.732 108.943, 70.950 111.241, 71.500 111.848 C 72.050 112.455, 74.638 114.897, 77.250 117.275 C 79.863 119.652, 82 122.154, 82 122.834 C 82 125.381, 78.748 128.897, 75.789 129.546 C 72.123 130.351, 64.463 133.833, 61.027 136.256 C 59.668 137.215, 56.743 138.014, 54.527 138.032 C 49.849 138.069, 47.383 139.624, 46.514 143.088 C 45.544 146.953, 49.477 149.919, 57.362 151.269 C 64.735 152.532, 63.648 152.894, 78.751 144.149 C 83.289 141.522, 88.239 138.219, 89.751 136.809 C 93.853 132.985, 101.670 129, 105.069 129 C 108.370 129, 116.874 132.938, 118.935 135.422 C 119.656 136.290, 120.667 137, 121.182 137 C 122.962 137, 132.019 143.484, 132.542 145.132 C 133.265 147.410, 138.410 149.365, 141.585 148.568 C 146.784 147.263, 149 145.034, 149 141.107 C 149 134.738, 144.013 130.206, 136.993 130.194 C 134.274 130.190, 132.548 129.281, 129.208 126.094 C 125.778 122.822, 124.171 121.997, 121.208 121.985 C 114.960 121.959, 114.530 121.209, 116.427 113.645 C 117.337 110.017, 119.547 104.450, 121.339 101.274 C 123.131 98.098, 125.645 92.237, 126.924 88.250 C 128.204 84.263, 129.644 81, 130.125 81 C 130.606 81, 131 79.927, 131 78.615 C 131 75.210, 134.733 73.172, 143.162 71.977 C 152.356 70.673, 156.398 68.427, 156.799 64.400 C 157.201 60.349, 154.347 57.930, 148.718 57.551 C 143.600 57.206, 138.232 53.773, 137.357 50.286 C 136.905 48.485, 136.086 48, 133.500 48 C 130.640 48, 130.024 48.483, 128.716 51.750 C 125.974 58.596, 124.315 59.364, 112.734 59.149 C 102.041 58.950, 92.381 57.498, 90.250 55.769 C 88.310 54.195, 88.749 51.787, 91.879 46.852 C 96.523 39.529, 97.566 35.781, 96.008 32.018 C 95.282 30.266, 93.604 28.420, 92.279 27.916 C 89.232 26.758, 89.689 26.670, 86.755 28.978 M 93 70.977 C 86.569 72.351, 84.017 73.888, 82.627 77.227 C 79.741 84.157, 76.514 95.605, 76.807 97.871 C 77.148 100.506, 82.903 106.382, 87.444 108.730 C 89.065 109.568, 92.674 110.309, 95.465 110.377 C 101.540 110.524, 103.971 108.692, 106.578 102 C 107.542 99.525, 109.106 96.375, 110.054 95 C 112.336 91.688, 117.581 80.806, 118.326 77.838 C 119.247 74.168, 118.009 73.237, 109.979 71.562 C 102.013 69.900, 98.596 69.782, 93 70.977" stroke="none" fill="black" fill-rule="evenodd"/>
</svg>