<svg xmlns="http://www.w3.org/2000/svg" width="256" height="256" viewBox="0 0 256 256" version="1.1">
	<path d="M 78.393 27.157 C 77.234 27.718, 75.032 30.163, 73.498 32.589 L 70.710 37 55.310 37 C 40.311 37, 39.845 37.064, 37.466 39.443 C 35.578 41.331, 35.211 42.395, 35.850 44.123 C 37.146 47.626, 42.748 48.932, 57.330 49.128 C 71.683 49.321, 73.853 49.995, 76.372 55.043 C 77.747 57.800, 77.703 57.906, 74.961 58.509 C 73.404 58.850, 70.414 58.653, 68.315 58.071 C 61.905 56.291, 59.248 56.746, 55.384 60.287 L 51.798 63.573 51.312 75.628 C 50.893 86.023, 51.059 87.916, 52.512 89.370 C 55.054 91.912, 52.768 94, 47.443 94 C 42.391 94, 38.486 95.292, 37.751 97.206 C 37.465 97.953, 37.625 101.025, 38.108 104.032 C 38.590 107.040, 39.262 111.525, 39.600 114 C 39.938 116.475, 40.418 118.838, 40.666 119.250 C 41.726 121.009, 43.956 119.681, 48.002 114.883 C 53.489 108.376, 57.205 106.848, 68.014 106.654 C 78.121 106.473, 80.160 107.578, 78.810 112.500 C 78.211 114.680, 76.553 116.320, 72.743 118.500 C 68.607 120.866, 67.431 122.103, 67.174 124.354 C 66.821 127.440, 69.059 130.249, 72.821 131.443 C 76.769 132.696, 78 134.857, 78 140.536 C 78 147.106, 76.924 147.893, 66.306 149.084 C 53.709 150.496, 49.084 155.555, 56.250 160.082 C 58.949 161.788, 60.601 162.050, 66 161.631 C 75.473 160.896, 95.385 155.520, 103.724 151.446 C 111.456 147.668, 119.421 140.444, 120.472 136.255 C 120.819 134.875, 122.879 132.038, 125.051 129.951 C 129.763 125.423, 129.975 123.122, 126.080 118.766 L 123.159 115.500 112.330 115.468 C 99.505 115.430, 97 114.778, 97 111.478 C 97 109.550, 97.661 108.967, 100.435 108.446 C 102.324 108.092, 104.365 108.108, 104.970 108.481 C 105.574 108.855, 111.566 109.050, 118.285 108.915 C 136.566 108.547, 138.459 108.669, 141.867 110.431 C 144.312 111.696, 145 112.704, 145 115.026 C 145 118.608, 148.106 122, 151.386 122 C 154.961 122, 156.936 117.021, 156.595 108.864 C 156.274 101.173, 154.439 98.474, 148.348 96.734 C 144.515 95.639, 121.304 95.260, 117.500 96.230 C 116.400 96.511, 114.734 96.345, 113.799 95.861 C 112.763 95.326, 110.337 95.453, 107.596 96.185 C 103.937 97.164, 102.616 97.132, 100.528 96.015 C 96.645 93.937, 99.040 92.546, 106.160 92.743 C 109.533 92.837, 113.156 92.452, 114.211 91.887 C 115.524 91.185, 116.520 91.187, 117.373 91.895 C 118.479 92.812, 122.546 92.778, 137.671 91.721 C 141.553 91.450, 145.963 87.809, 146.106 84.757 C 146.315 80.304, 145.786 76.450, 144.560 73.500 C 143.875 71.850, 143.001 68.831, 142.619 66.791 C 141.570 61.188, 138.187 59.335, 128.882 59.267 C 117.317 59.183, 114 56.313, 119.750 51.368 C 122.722 48.811, 126.701 48.398, 133.396 49.951 C 136.057 50.569, 139.828 50.409, 145.294 49.448 C 156.789 47.427, 159.585 44.116, 154.645 38.374 C 152.566 35.957, 151.598 35.639, 146.395 35.666 C 143.153 35.682, 136.556 36.053, 131.736 36.490 L 122.973 37.284 118.043 32.142 C 112.272 26.123, 107.649 25.061, 103.745 28.858 C 102.217 30.345, 102.076 31.766, 102.653 39.893 C 103.202 47.632, 103.714 49.695, 105.658 52.005 C 108.403 55.267, 108.543 56.304, 106.474 58.022 C 104.652 59.533, 93.050 59.455, 88.250 57.899 C 84.827 56.789, 83.761 53.689, 86.448 52.658 C 87.244 52.353, 88.625 50.692, 89.516 48.968 C 90.801 46.485, 90.916 45.196, 90.069 42.767 C 89.481 41.081, 89 37.551, 89 34.923 C 89 30.952, 88.555 29.795, 86.365 28.073 C 83.487 25.809, 81.617 25.594, 78.393 27.157 M 65 69.851 C 62.322 71.283, 61.427 72.454, 61.188 74.838 C 60.927 77.450, 61.413 78.282, 64.188 79.973 C 68.287 82.472, 70.573 82.514, 74.942 80.171 C 79.241 77.865, 80.036 74.043, 76.837 71.063 C 75.619 69.928, 73.845 69, 72.893 69 C 71.942 69, 70.564 68.771, 69.832 68.490 C 69.099 68.210, 66.925 68.822, 65 69.851 M 93.500 71.138 C 89.128 73.742, 89.606 77.368, 94.638 79.767 C 97.734 81.244, 98.274 81.240, 101.474 79.714 C 105.121 77.975, 107.130 73.730, 105.214 71.814 C 103.641 70.241, 95.768 69.786, 93.500 71.138 M 116.799 72.356 C 114.129 74.385, 114.990 77.767, 118.613 79.487 C 123.172 81.650, 132.247 81.489, 134.311 79.209 C 135.810 77.552, 135.785 77.176, 133.981 74.209 C 132.090 71.099, 131.820 71.001, 125.265 71.032 C 121.326 71.050, 117.789 71.604, 116.799 72.356 M 66.250 92.130 C 64.482 93.926, 64.700 95.778, 66.750 96.376 C 72.067 97.926, 78.108 98.155, 79.663 96.865 C 80.567 96.114, 81.351 95.600, 81.404 95.722 C 81.457 95.844, 82.513 95.679, 83.750 95.355 C 87.388 94.404, 86.348 93.247, 81.250 92.574 C 68.734 90.920, 67.478 90.883, 66.250 92.130 M 88.853 128.239 C 86.331 129.955, 88.420 133.356, 93.579 135.933 C 97.743 138.012, 98.117 138.038, 101.385 136.487 C 105.642 134.467, 108.686 131.255, 107.426 130.113 C 104.272 127.253, 92.105 126.025, 88.853 128.239" stroke="none" fill="black" fill-rule="evenodd"/>
</svg>