<svg xmlns="http://www.w3.org/2000/svg" width="256" height="256" viewBox="0 0 256 256" version="1.1">
	<path d="M 68.500 27.838 C 65.103 29.910, 62.092 34.020, 55.637 45.393 C 52.536 50.855, 49.680 54.401, 46.360 56.911 C 41.041 60.931, 35.433 69.081, 36.347 71.463 C 36.722 72.439, 38.210 73, 40.422 73 C 44.759 73, 48.793 74.771, 49.495 76.985 C 49.789 77.910, 50.110 83.691, 50.210 89.833 C 50.423 103.005, 49.296 105.405, 41.599 108.158 C 35.708 110.266, 34.082 111.598, 34.667 113.836 C 35.467 116.894, 38.412 117.972, 43.688 117.138 C 46.362 116.716, 49.889 116.769, 51.525 117.257 C 59.800 119.724, 61.949 120.232, 67.308 120.982 C 75.797 122.171, 79.912 126.716, 74.665 129.107 C 73.381 129.692, 71.569 131.460, 70.637 133.037 C 69.706 134.614, 67.494 136.917, 65.722 138.155 C 63.950 139.393, 61.600 141.368, 60.500 142.545 C 59.400 143.721, 55.473 145.943, 51.773 147.482 C 45.635 150.035, 42 153.208, 42 156.013 C 42 157.824, 47.156 162, 49.396 162.003 C 50.553 162.005, 54.768 161.038, 58.762 159.854 C 65.396 157.888, 66.969 156.850, 76.983 147.839 C 83.011 142.414, 88.477 136.978, 89.129 135.758 C 89.782 134.539, 90.953 132.904, 91.732 132.125 C 92.776 131.081, 92.842 130.520, 91.982 129.989 C 89.224 128.284, 95.674 123, 100.511 123 C 104.212 123, 106.957 126.487, 106.325 130.384 C 105.382 136.194, 108.137 139.319, 118.951 144.709 C 124.203 147.327, 130.525 150.870, 133 152.584 C 137.189 155.485, 144.108 158.235, 151.695 160.015 C 157.667 161.416, 161.057 156.381, 157.530 151.347 C 156.722 150.193, 153.910 148.257, 151.280 147.044 C 148.651 145.831, 146.040 144.313, 145.477 143.669 C 144.121 142.119, 141.544 140.522, 135.500 137.485 C 132.750 136.103, 129.375 134.307, 128 133.494 C 126.625 132.681, 123.813 131.360, 121.750 130.559 C 117.875 129.053, 116.731 126.194, 119.250 124.311 C 121.152 122.889, 129.842 121.185, 136 121.027 C 139.025 120.949, 141.927 120.461, 142.450 119.943 C 142.972 119.424, 145.672 118.993, 148.450 118.985 C 155.295 118.965, 158.500 117.238, 158.500 113.571 C 158.500 111.121, 157.916 110.499, 154.502 109.317 C 147.315 106.829, 147.273 106.685, 148.729 89.500 C 149.241 83.450, 149.463 75.008, 149.221 70.740 C 148.817 63.621, 148.549 62.815, 145.986 60.990 C 144.084 59.635, 141.580 59, 138.145 59 C 131.393 59, 123.422 57.213, 121.878 55.353 C 121.172 54.502, 120.734 51.806, 120.874 49.168 C 121.091 45.079, 120.732 44.117, 118.015 41.515 C 114.944 38.572, 114.775 38.537, 103.204 38.450 C 88.095 38.336, 84.648 37.579, 81.778 33.742 C 75.626 25.515, 73.706 24.662, 68.500 27.838 M 72.001 47.123 C 66.187 49.442, 63.249 54.849, 66.200 57.800 C 68.731 60.331, 98.988 58.441, 101.857 55.572 C 104.302 53.127, 101.603 51, 96.054 51 C 93.468 51, 87.594 49.875, 83 48.500 C 78.406 47.125, 74.614 46.029, 74.574 46.063 C 74.533 46.098, 73.375 46.575, 72.001 47.123 M 68.370 70.819 C 67.199 71.194, 65.061 72.394, 63.620 73.487 C 58.946 77.033, 60.730 86.001, 66.110 85.999 C 68.992 85.999, 78.308 82.567, 82.612 79.921 C 86.990 77.229, 86.271 73.406, 81.135 72.069 C 75.270 70.541, 70.652 70.089, 68.370 70.819 M 107.081 72.315 C 105.200 73.035, 103.057 74.534, 102.319 75.646 C 100.275 78.725, 102.991 80.333, 113.500 82.268 C 133.201 85.894, 134.069 85.781, 135.428 79.414 C 135.903 77.190, 135.586 75.719, 134.293 74.143 C 132.699 72.201, 131.278 71.905, 121.500 71.483 C 113.814 71.150, 109.470 71.401, 107.081 72.315 M 89.500 91.486 C 86.200 92.217, 82.233 93.306, 80.685 93.907 C 79.137 94.508, 75.044 95, 71.590 95 C 63.706 95, 61.402 96.925, 62.343 102.724 C 63.235 108.224, 65.086 109.118, 74.884 108.785 C 81.169 108.572, 83.466 108.122, 83.994 107 C 87.167 100.250, 87.894 99.497, 91.543 99.183 C 95.709 98.824, 99.404 101.489, 100.434 105.595 C 100.777 106.958, 101.788 108.012, 102.769 108.028 C 103.721 108.043, 108.325 108.252, 113 108.491 C 117.675 108.730, 124.200 108.605, 127.500 108.213 L 133.500 107.500 133.338 104 C 133.249 102.075, 133.136 99.721, 133.088 98.769 C 133.040 97.817, 131.988 96.827, 130.750 96.569 C 129.512 96.310, 124.900 95.352, 120.500 94.439 C 116.100 93.525, 109.771 92.153, 106.436 91.389 C 99.218 89.736, 97.365 89.746, 89.500 91.486" stroke="none" fill="black" fill-rule="evenodd"/>
</svg>