<svg xmlns="http://www.w3.org/2000/svg" width="256" height="256" viewBox="0 0 256 256" version="1.1">
	<path d="M 88.238 26.666 C 87.544 26.946, 85.646 29.048, 84.020 31.337 C 82.394 33.627, 79.201 37.525, 76.923 40 C 74.646 42.475, 71.808 46.551, 70.618 49.057 C 69.428 51.563, 66.826 55.838, 64.836 58.557 C 62.847 61.276, 60.551 65.108, 59.735 67.073 C 58.918 69.038, 56.932 72.188, 55.320 74.073 C 50.942 79.194, 46 87.118, 46 89.016 C 46 90.904, 49.027 94, 50.872 94 C 51.541 94, 53.305 92.835, 54.794 91.411 C 58.536 87.830, 64.471 83.901, 66.612 83.586 C 69.458 83.169, 74.731 86.388, 85.723 95.257 C 93.959 101.901, 96.550 106.213, 95.652 111.777 C 94.909 116.373, 90.140 120.608, 84.644 121.550 C 80.060 122.336, 77.270 124.944, 72.181 133.198 C 70.927 135.232, 68.911 137.197, 67.700 137.563 C 66.490 137.929, 63.138 139.992, 60.250 142.147 C 56.560 144.901, 55 146.752, 55 148.377 C 55 151.424, 57.919 153.950, 62.251 154.653 C 65.248 155.140, 66.305 154.722, 69.625 151.735 C 71.756 149.818, 75.300 147.296, 77.500 146.130 C 79.700 144.963, 83.775 141.645, 86.555 138.755 C 89.336 135.865, 94.318 131.546, 97.627 129.158 C 100.936 126.770, 104.413 123.388, 105.353 121.642 C 106.294 119.896, 109.246 116.978, 111.914 115.158 C 115.073 113.002, 117.747 110.042, 119.579 106.674 C 121.127 103.828, 123.258 100.600, 124.314 99.500 C 125.371 98.400, 126.906 95.925, 127.725 94 C 128.544 92.075, 129.830 89.825, 130.581 89 C 138.062 80.790, 143.480 70.448, 145.230 61.040 C 146.569 53.836, 145.286 51.267, 138.802 48.180 C 135.316 46.521, 132.414 46.118, 123.500 46.058 C 110.123 45.968, 106.412 45.384, 102.430 42.744 C 99.535 40.824, 99.384 40.410, 99.792 35.497 C 100.162 31.030, 99.895 29.980, 97.923 28.143 C 95.750 26.119, 91.287 25.438, 88.238 26.666 M 87.376 50.462 C 87.068 51.266, 85.957 52.196, 84.908 52.529 C 83.858 52.862, 83 53.677, 83 54.340 C 83 55.002, 81.570 57.279, 79.822 59.400 C 75.762 64.326, 74.308 71.827, 77.043 73.742 C 78.032 74.435, 79.132 76.323, 79.486 77.936 C 79.961 80.098, 80.867 81.031, 82.930 81.485 C 84.470 81.823, 86.672 82.977, 87.823 84.050 C 88.974 85.122, 90.197 86, 90.540 86 C 90.883 86, 93.054 87.549, 95.364 89.442 C 101.309 94.314, 103.773 95.061, 108.537 93.438 C 110.717 92.696, 113.307 91.056, 114.293 89.794 C 115.279 88.532, 117.641 85.545, 119.543 83.155 C 121.444 80.766, 123 78.259, 123 77.585 C 123 76.912, 124.350 74.848, 126 73 C 130.606 67.841, 129.770 62.484, 123.884 59.440 C 122.202 58.570, 117.153 57.480, 112.663 57.016 C 101.839 55.899, 92.244 53.043, 91.648 50.760 C 91.091 48.631, 88.158 48.426, 87.376 50.462" stroke="none" fill="black" fill-rule="evenodd"/>
</svg>