<svg xmlns="http://www.w3.org/2000/svg" width="256" height="256" viewBox="0 0 256 256" version="1.1">
	<path d="M 50.973 30.692 C 47.412 33.128, 47.032 33.956, 47.015 39.312 C 46.995 45.601, 44.274 53.783, 41.753 55.132 C 40.565 55.768, 37.632 55.935, 34.506 55.544 C 30.363 55.026, 28.911 55.231, 27.627 56.515 C 26.732 57.411, 26 58.500, 26 58.937 C 26 61.152, 30.417 64.872, 34.224 65.863 C 40.418 67.477, 41.247 68.284, 41.174 72.633 C 41.104 76.734, 38.613 92.797, 37.006 99.500 C 35.525 105.683, 35.759 114.555, 37.441 115.951 C 38.234 116.609, 41.722 118.166, 45.191 119.412 C 51.131 121.543, 51.517 121.875, 51.785 125.088 C 52.029 128, 50.966 129.947, 44.540 138.370 C 34.321 151.761, 32.715 157.546, 38.483 160.174 C 42.889 162.182, 49.596 158.185, 54.971 150.350 C 61.496 140.841, 66.085 137, 70.926 137 C 73.970 137, 75.534 136.312, 77.923 133.923 C 81.499 130.347, 81.652 129.228, 79.169 124.780 C 77.975 122.643, 77.572 120.629, 78.011 119 C 78.381 117.625, 78.770 113.806, 78.875 110.513 C 78.980 107.220, 79.764 101.595, 80.616 98.013 C 81.468 94.431, 82.250 87.807, 82.355 83.292 C 82.527 75.848, 82.798 74.820, 85.272 72.238 C 86.773 70.672, 88 68.853, 88 68.195 C 88 67.538, 88.450 67, 89 67 C 89.550 67, 90 66.088, 90 64.974 C 90 63.053, 90.152 63.027, 92.950 64.474 C 94.962 65.515, 98.801 66, 105.016 66 C 110.030 66, 115 66.465, 116.062 67.033 C 118.456 68.314, 122.157 75.391, 122.420 79.191 C 122.747 83.910, 119.791 85, 106.670 85 C 96.651 85, 94.951 85.251, 92.635 87.073 C 86.809 91.655, 91.985 96.990, 102.264 96.996 C 105.434 96.998, 108.809 97.397, 109.764 97.883 C 110.719 98.369, 112.709 99.330, 114.186 100.018 C 116.522 101.106, 116.685 101.458, 115.436 102.706 C 114.646 103.496, 114 104.738, 114 105.464 C 114 106.191, 113.330 107.043, 112.510 107.358 C 111.691 107.672, 109.371 110.508, 107.355 113.660 C 102.219 121.689, 97.543 127.682, 91.876 133.500 C 89.198 136.250, 87.005 139.002, 87.003 139.615 C 86.996 142.266, 91.197 146, 94.186 146 C 101.189 146, 106.305 140.886, 111.641 128.551 C 114.979 120.834, 120.175 120.245, 122.107 127.365 C 122.955 130.491, 122.922 133.484, 121.971 139.634 C 119.720 154.198, 121.996 162, 128.497 162 C 131.308 162, 132.232 161.452, 133.474 159.050 C 135.267 155.582, 135.470 145.492, 133.937 136.040 C 131.766 122.658, 134.759 121.727, 145.482 132.450 C 154.044 141.012, 160.137 143.900, 162.583 140.556 C 164.595 137.805, 163.213 130.376, 159.793 125.560 C 158.208 123.327, 154.568 119.475, 151.705 117 C 143.742 110.116, 138.894 104.441, 139.539 102.759 C 140.482 100.302, 144.707 99.001, 151.797 98.985 C 159.646 98.967, 160.762 98.438, 161.580 94.348 C 162.082 91.841, 161.720 90.925, 159.555 89.222 C 156.554 86.861, 149.112 85.027, 142.201 84.944 C 135.528 84.863, 130.754 82.993, 130.355 80.300 C 130.175 79.091, 130.874 76.127, 131.908 73.716 C 134.358 67.998, 137.787 66.504, 146.573 67.325 C 154.688 68.082, 157.611 67.049, 158.474 63.119 C 159.885 56.696, 155.156 53.326, 143.331 52.326 C 136.802 51.774, 135.235 51.278, 133.243 49.129 C 131.117 46.835, 130.949 45.989, 131.533 40.536 C 132.132 34.939, 131.984 34.275, 129.548 31.646 C 127.448 29.381, 126.366 28.934, 124.207 29.445 C 119.484 30.562, 117.758 33.639, 118.596 39.444 C 119.658 46.795, 119.285 49.277, 116.814 51.317 C 115.086 52.743, 113.632 53, 110.055 52.508 C 104.252 51.709, 102.233 52.504, 96.576 57.814 C 90.963 63.083, 89.596 62.835, 84.645 55.646 C 82.631 52.721, 79.830 49.712, 78.421 48.958 C 75.973 47.648, 75.663 47.801, 71.430 52.412 C 68.993 55.065, 67 57.663, 67 58.185 C 67 59.464, 63.082 58.256, 60 56.027 C 57.833 54.459, 57.529 53.540, 57.717 49.124 C 57.836 46.323, 58.623 42.696, 59.467 41.065 C 61.626 36.888, 61.375 33.700, 58.686 31.174 C 55.900 28.558, 54.243 28.454, 50.973 30.692 M 62.015 67.752 C 57.655 69.939, 54.463 75.540, 53.071 83.446 C 51.915 90.012, 51.825 90.476, 49.899 99.745 C 48.685 105.591, 48.733 106.166, 50.650 108.745 C 53.367 112.400, 57.548 112.779, 62.006 109.775 C 65.936 107.126, 67.802 102.310, 67.925 94.500 C 67.968 91.750, 68.677 85.675, 69.500 81 C 71.388 70.279, 71.393 70.393, 69 68 C 66.568 65.568, 66.380 65.562, 62.015 67.752" stroke="none" fill="black" fill-rule="evenodd"/>
</svg>