<svg xmlns="http://www.w3.org/2000/svg" width="256" height="256" viewBox="0 0 256 256" version="1.1">
	<path d="M 92.635 30.250 C 90.913 32.997, 90.085 37.582, 89.881 45.500 C 89.708 52.236, 87.807 56.962, 85.224 57.077 C 84.276 57.119, 82.600 57.386, 81.500 57.670 C 80.400 57.954, 73.200 58.273, 65.500 58.379 C 50.102 58.589, 47.010 59.153, 45.182 62.080 C 42.617 66.187, 47.258 69.305, 55.788 69.205 C 57.279 69.188, 61.963 69.109, 66.195 69.031 C 81.076 68.756, 86 70.729, 86 76.964 C 86 79.119, 85.545 81.163, 84.989 81.507 C 83.861 82.204, 78 94.324, 78 95.958 C 78 96.531, 77.652 97, 77.227 97 C 76.802 97, 75.602 98.584, 74.559 100.521 C 73.516 102.458, 70.579 105.991, 68.032 108.373 C 65.485 110.756, 63.584 113.253, 63.808 113.924 C 64.031 114.594, 63.349 116.123, 62.292 117.321 C 61.235 118.520, 59.501 121.525, 58.438 124 C 57.376 126.475, 54.189 130.944, 51.357 133.932 C 42.713 143.050, 41.686 152.028, 49.823 147.345 C 51.874 146.164, 55.444 144.688, 57.755 144.066 C 60.204 143.406, 62.695 141.888, 63.728 140.424 C 68.931 133.051, 74.446 127, 75.962 127 C 76.906 127, 78.197 128.138, 78.831 129.528 C 79.464 130.919, 80.774 132.351, 81.741 132.712 C 84.150 133.610, 90 138.307, 90 139.342 C 90 140.750, 93.982 145.348, 96.823 147.222 C 102.552 150.999, 111 148.041, 111 142.257 C 111 140.002, 108.577 137, 106.757 137 C 105.353 137, 98.023 129.239, 95.817 125.417 C 94.221 122.650, 93.743 122.485, 86.567 122.208 C 79.886 121.950, 79 121.692, 79 120.005 C 79 117.683, 81.040 113, 82.052 113 C 82.454 113, 83.469 111.313, 84.307 109.250 C 85.145 107.188, 87.916 103.475, 90.464 101 C 95.277 96.324, 98.362 91.395, 97.425 89.879 C 97.126 89.395, 97.722 89, 98.748 89 C 100.200 89, 100.569 89.664, 100.408 91.989 C 100.268 94.005, 101.152 96.174, 103.123 98.655 C 104.730 100.677, 106.299 103.495, 106.610 104.916 C 107.843 110.556, 108.664 111.900, 112.855 115.137 C 115.250 116.986, 118.400 120.727, 119.855 123.449 C 123.854 130.932, 138.572 144.565, 143.750 145.583 C 148.492 146.516, 153.968 145.264, 154.152 143.205 C 154.236 142.267, 154.358 140.825, 154.424 140 C 154.489 139.175, 152.958 137.234, 151.021 135.686 C 147.098 132.551, 143 128.384, 143 127.530 C 143 126.576, 136.560 121.060, 135.411 121.029 C 134.811 121.013, 132.691 119.313, 130.699 117.250 C 128.706 115.188, 125.913 112.600, 124.491 111.500 C 121.496 109.183, 118.501 103.233, 117.443 97.500 C 116.953 94.842, 115.537 92.391, 113.224 90.196 C 108.968 86.157, 107.709 79.619, 110.396 75.518 C 113.005 71.536, 119.522 67.663, 122.399 68.385 C 128.125 69.822, 142.968 70.797, 146.614 69.975 C 151.493 68.875, 154.361 65.575, 153.482 62.073 C 153.130 60.669, 152.315 59.164, 151.671 58.729 C 151.027 58.293, 145.100 58.042, 138.500 58.169 C 123.464 58.460, 105.506 57.090, 103.311 55.485 C 101.908 54.460, 101.682 52.592, 101.887 43.697 C 102.082 35.191, 101.802 32.627, 100.450 30.564 C 98.336 27.337, 94.557 27.186, 92.635 30.250 M 98.269 85.693 C 99.242 85.947, 100.592 85.930, 101.269 85.656 C 101.946 85.382, 101.150 85.175, 99.500 85.195 C 97.850 85.215, 97.296 85.439, 98.269 85.693" stroke="none" fill="black" fill-rule="evenodd"/>
</svg>