<svg xmlns="http://www.w3.org/2000/svg" width="256" height="256" viewBox="0 0 256 256" version="1.1">
	<path d="M 69.098 30.750 C 67.180 32.331, 66.938 33.722, 66.600 45.130 C 66.082 62.544, 63.939 66.527, 56.343 64.190 C 49.460 62.071, 49.506 62.164, 49.440 50.118 C 49.376 38.388, 48.546 36, 44.533 36 C 41.450 36, 39.455 38.633, 38.095 44.500 C 36.554 51.144, 35.904 67.618, 37.063 70.665 C 38.012 73.163, 45.631 77.346, 47.324 76.300 C 49.065 75.224, 64.324 75.024, 65.573 76.060 C 67.529 77.684, 68.879 91.150, 67.623 96.500 C 67.364 97.600, 67.119 98.838, 67.077 99.250 C 66.880 101.174, 62.079 99.718, 59.658 97 C 55.408 92.230, 51.602 93.097, 47 99.881 C 46.175 101.098, 43.197 103.221, 40.382 104.599 C 34.680 107.391, 31 110.429, 31 112.343 C 31 113.038, 32.575 115.134, 34.500 117 C 37.552 119.958, 38 121.013, 38 125.238 C 38 131.173, 35.344 144.433, 33.405 148.184 C 32.620 149.701, 31.046 151.811, 29.907 152.872 C 28.654 154.040, 27.966 155.730, 28.168 157.151 C 28.618 160.334, 33.151 160.722, 39.265 158.101 C 43.374 156.339, 44.322 155.304, 47.317 149.302 C 52.671 138.573, 54.389 132.062, 53.095 127.402 C 50.889 119.457, 51.389 118.512, 61.654 111.236 C 65.223 108.706, 66.631 108.434, 66.746 110.250 C 66.789 110.938, 67.276 112.938, 67.827 114.696 C 68.378 116.454, 68.639 120.504, 68.407 123.696 C 66.185 154.218, 66.228 154.987, 70.380 158.887 C 73.634 161.944, 77.072 161.357, 79.046 157.407 C 80.376 154.746, 80.544 149.231, 80.245 117.907 C 79.841 75.696, 79.848 78.028, 80.090 66.909 C 80.192 62.184, 79.710 55.958, 79.017 53.072 C 78.222 49.758, 78.003 45.349, 78.421 41.101 C 79.005 35.179, 78.832 34.056, 76.969 31.688 C 74.518 28.572, 72.092 28.283, 69.098 30.750 M 111.493 33.252 C 109.356 35.090, 108.711 36.809, 107.983 42.604 C 107.493 46.509, 106.565 50.861, 105.921 52.275 C 104.791 54.754, 100.826 56.629, 99.044 55.527 C 98.568 55.233, 96.334 54.920, 94.079 54.832 C 88.351 54.608, 85 57.809, 85 63.505 C 85 69.091, 87.576 70.533, 95.880 69.593 C 104.173 68.655, 104.466 69.383, 101.908 84.599 C 100.808 91.145, 99.479 98.419, 98.954 100.764 C 97.059 109.237, 97.886 111.490, 107.172 123.146 C 113.149 130.648, 111.767 133.682, 99.704 139.534 C 91.695 143.420, 90.088 144.639, 88.919 147.713 C 86.904 153.012, 91.856 157, 100.452 157 C 104.823 157, 104.161 157.494, 120.008 142.390 C 126.701 136.010, 132.616 137.012, 143.323 146.341 C 150.663 152.736, 152.892 154, 156.827 154 C 160.003 154, 161 152.602, 161 148.153 C 161 142.379, 154.376 135.389, 144 130.212 C 136.154 126.298, 135 125.063, 135 120.574 C 135 117.982, 135.669 115.636, 136.750 114.439 C 141.578 109.091, 147.964 92.878, 150.578 79.332 C 150.808 78.140, 153.302 74.643, 156.119 71.560 C 162.146 64.965, 162.157 64.042, 156.322 53.780 C 152.915 47.789, 152.166 47.056, 149.418 47.030 C 146.938 47.006, 145.861 47.733, 143.911 50.750 C 140.481 56.057, 135.168 57.804, 127.602 56.110 C 120.306 54.478, 119.548 53.038, 120.368 42.374 C 120.965 34.607, 120.870 34.023, 118.779 32.558 C 115.803 30.473, 114.590 30.589, 111.493 33.252 M 130.500 70.002 C 129.400 70.478, 126.858 71.135, 124.851 71.461 C 116.728 72.779, 114.756 76.846, 113.438 95 C 112.515 107.700, 112.651 109, 115.179 111.690 C 118.345 115.061, 121.180 114.604, 124.763 110.145 C 127.449 106.802, 133 92.801, 133 89.368 C 133 88.714, 134.350 85.327, 135.999 81.840 C 137.649 78.353, 138.999 74.578, 138.999 73.450 C 139.001 69.476, 135.238 67.949, 130.500 70.002" stroke="none" fill="black" fill-rule="evenodd"/>
</svg>