<svg xmlns="http://www.w3.org/2000/svg" width="256" height="256" viewBox="0 0 256 256" version="1.1">
	<path d="M 109 25.976 C 106.525 26.383, 93.925 27.300, 81 28.013 C 55.403 29.425, 52.631 30.102, 53.198 34.800 C 53.822 39.967, 57.169 41.065, 73.245 41.378 C 90.069 41.706, 91.903 42.353, 89.448 47.101 C 88.623 48.695, 87.623 50.033, 87.224 50.074 C 86.826 50.114, 76.870 50.330, 65.100 50.554 C 53.329 50.778, 42.915 51.210, 41.957 51.514 C 40.999 51.818, 39.649 53.434, 38.957 55.105 C 37.891 57.677, 37.958 58.689, 39.392 61.697 L 41.087 65.250 47.992 64.569 C 51.790 64.195, 57.608 64.196, 60.921 64.571 C 68.473 65.425, 69.453 67.296, 65.405 73.137 C 62.270 77.661, 59.920 79.095, 51.759 81.468 C 42.727 84.093, 39.412 90.440, 44.014 96.291 C 45.710 98.447, 46.481 98.722, 48.888 98.032 C 50.460 97.581, 52.816 96.541, 54.123 95.719 C 55.430 94.898, 58.975 93.432, 62 92.461 C 67.453 90.711, 69.665 88.903, 78.250 79.179 C 80.744 76.355, 82 73.962, 82 72.034 C 82 68.979, 84.337 67.424, 87.248 68.542 C 89.435 69.381, 90.643 82.994, 88.914 87.321 C 87.267 91.443, 76.369 102.351, 72.500 103.751 C 66.244 106.013, 53.062 106.735, 48.648 105.056 C 46.192 104.122, 43.889 105.015, 40.250 108.311 C 37.292 110.989, 37.382 114.365, 40.465 116.385 C 43.120 118.125, 48 118.580, 48 117.088 C 48 115.819, 55.362 114.701, 58.776 115.451 C 60.327 115.792, 62.792 117.179, 64.254 118.535 C 65.716 119.891, 67.382 121, 67.956 121 C 68.530 121, 69.014 122.688, 69.031 124.750 C 69.049 126.940, 70.087 130.164, 71.526 132.500 C 74.600 137.490, 74.858 143.470, 72.066 144.965 C 71.002 145.534, 67.387 146, 64.034 146 C 53.953 146, 46.695 150.552, 50.580 154.437 C 53.929 157.786, 56.566 158.396, 67.500 158.349 C 77.749 158.306, 78.944 158.088, 85 155.152 C 88.575 153.419, 92.175 151.998, 93 151.995 C 93.825 151.991, 95.736 151.343, 97.247 150.555 C 98.758 149.767, 103.033 148.824, 106.747 148.461 C 112.280 147.919, 114.674 148.199, 120 150.007 C 129.537 153.244, 136.890 153.724, 139.875 151.304 C 145.429 146.802, 140.917 139.766, 131.641 138.464 C 125.377 137.585, 122.590 134.948, 123.385 130.651 C 123.706 128.918, 124.193 126.155, 124.467 124.512 C 125.197 120.133, 128.016 116.906, 133.938 113.670 C 138.090 111.401, 140.462 110.800, 145.266 110.800 C 151.326 110.800, 154.031 109.594, 153.247 107.241 C 153.019 106.558, 151.374 106, 149.591 106 C 147.495 106, 145.632 105.204, 144.323 103.750 C 141.379 100.479, 141.046 98.796, 142.607 95.082 C 143.993 91.787, 144.028 91.773, 149.253 92.426 C 153.019 92.896, 155.042 92.690, 156.400 91.697 C 158.986 89.806, 157.886 85.791, 154.277 83.949 C 152.750 83.170, 149.312 81.062, 146.638 79.266 C 142.425 76.436, 140.932 76, 135.460 76 C 129.829 76, 128.921 75.715, 127.073 73.365 C 124.365 69.924, 124.458 68.401, 127.496 66.411 C 129.285 65.238, 131.024 64.969, 133.641 65.460 C 142.510 67.124, 149.755 67.102, 151.452 65.405 C 154.485 62.372, 152.958 59.745, 146 56.026 C 138.813 52.186, 130.388 50.814, 115.325 51.032 C 106.198 51.164, 103.463 50.204, 102.779 46.626 C 101.767 41.328, 105.159 39.673, 119.500 38.467 C 123.900 38.097, 128.512 37.155, 129.750 36.374 C 132.737 34.489, 132.647 30.556, 129.545 27.455 C 127.390 25.299, 126.263 25.014, 120.295 25.118 C 116.558 25.182, 111.475 25.569, 109 25.976 M 105 67.295 C 102.642 68.489, 102.495 69.044, 102.407 77.031 C 102.314 85.507, 100.422 91.473, 96.352 96.113 C 93.511 99.354, 93.918 101.754, 97.688 103.978 C 101.112 105.999, 101.434 106.016, 106.770 104.465 C 109.812 103.580, 114.355 102.605, 116.864 102.298 C 122.420 101.617, 127.236 98.623, 128.930 94.796 C 130.699 90.800, 129.940 89.627, 123.476 86.364 C 116.522 82.854, 114.532 79.606, 115.477 73.306 C 115.909 70.426, 115.724 68.372, 114.948 67.438 C 113.480 65.668, 108.359 65.595, 105 67.295 M 91 112.941 C 90.175 113.507, 89.906 113.976, 90.403 113.985 C 90.900 113.993, 90.337 114.840, 89.153 115.867 C 87.969 116.894, 87 118.469, 87 119.367 C 87 120.265, 86.550 121, 86 121 C 85.450 121, 85 121.430, 85 121.955 C 85 122.480, 86.688 123.219, 88.750 123.598 C 90.898 123.992, 93.679 125.507, 95.259 127.143 C 96.776 128.715, 98.925 130, 100.035 130 C 101.145 130, 104.077 127.976, 106.551 125.502 C 110.909 121.143, 111 120.929, 109.466 118.588 C 106.500 114.061, 94.652 110.438, 91 112.941" stroke="none" fill="black" fill-rule="evenodd"/>
</svg>