<svg xmlns="http://www.w3.org/2000/svg" width="256" height="256" viewBox="0 0 256 256" version="1.1">
	<path d="M 90.245 31.155 C 89.560 31.840, 89 34.319, 89 36.665 C 89 42.335, 86.915 43.469, 78.085 42.598 C 58.557 40.674, 42.466 40.242, 39.877 41.572 C 34.133 44.524, 36.379 50.349, 43.694 51.473 C 45.787 51.795, 50.489 52.720, 54.143 53.529 C 57.797 54.338, 64.569 55, 69.193 55 C 74.398 55, 78.057 55.457, 78.800 56.200 C 80.176 57.576, 80.410 61.628, 79.159 62.402 C 78.697 62.688, 77.505 65.977, 76.512 69.711 C 73.963 79.292, 70.908 84.864, 65.598 89.614 C 59.012 95.506, 59.703 99.825, 67.330 100.430 C 74.593 101.007, 83.650 93.571, 86.005 85.099 C 86.555 83.120, 88.393 79.475, 90.089 77 C 92.924 72.864, 93.123 72.041, 92.546 66.827 C 91.989 61.798, 92.171 60.918, 94.148 59.077 C 95.374 57.935, 97.305 56.946, 98.439 56.881 C 99.572 56.816, 101.610 56.703, 102.968 56.631 C 107.235 56.404, 107.968 59.662, 107.999 79 C 108.030 98.352, 108.349 100.658, 111.108 101.534 C 116.206 103.152, 120.484 97.664, 121.387 88.345 C 122.293 79.011, 122.474 63.721, 121.712 61 C 121.256 59.372, 121.540 57.814, 122.525 56.533 C 123.832 54.834, 125.094 54.598, 131.769 54.803 C 138.986 55.025, 146.470 53.941, 151.750 51.909 C 154.408 50.886, 154.796 46.939, 152.468 44.611 C 150.164 42.307, 145.469 41.799, 135.500 42.776 C 124.616 43.842, 105.549 43.364, 102.924 41.959 C 101.879 41.400, 100.774 39.718, 100.469 38.221 C 99.392 32.943, 97.572 30.513, 94.464 30.205 C 92.828 30.043, 90.930 30.470, 90.245 31.155 M 49.284 63.035 C 41.021 67.776, 37.108 75.463, 40.400 80.488 C 42.450 83.616, 44.070 83.649, 47.673 80.637 C 49.228 79.337, 52.525 77.259, 55 76.020 C 63.410 71.809, 64.927 68.720, 61.023 63.756 C 58.106 60.048, 54.840 59.847, 49.284 63.035 M 131.370 64.358 C 128.905 66.479, 128.726 67.055, 129.597 70.092 C 130.253 72.377, 131.952 74.399, 134.859 76.351 C 137.221 77.937, 139.417 79.970, 139.739 80.867 C 140.061 81.765, 142.611 84.862, 145.405 87.750 C 155.795 98.488, 159.066 91.948, 151.214 76.135 C 147.162 67.975, 141.028 62, 136.703 62 C 135.278 62, 132.878 63.061, 131.370 64.358 M 91.055 102.250 C 90.491 102.938, 88.917 104.893, 87.557 106.595 L 85.084 109.689 69.860 109.834 C 61.487 109.914, 52.956 109.527, 50.901 108.973 C 46.354 107.749, 42.725 109.114, 41.110 112.657 C 39.572 116.033, 39.711 117.422, 41.851 120.064 C 43.628 122.259, 44.385 122.363, 60.765 122.667 C 78.134 122.990, 83 123.794, 82.635 126.284 C 82.522 127.050, 78.327 131.635, 73.311 136.473 C 66.130 143.399, 62.738 145.883, 57.346 148.165 C 46.241 152.867, 42.965 156.965, 47.048 161.048 C 49.494 163.494, 49.644 163.489, 60.341 160.529 C 71.161 157.536, 76.449 154.524, 84.260 146.905 C 88.188 143.073, 92.048 140.376, 95.387 139.130 L 100.500 137.223 108 141.292 C 112.125 143.530, 117.975 146.947, 121 148.887 C 130.259 154.822, 132.265 155.702, 140.379 157.380 C 151.467 159.673, 153.800 159.533, 155.186 156.490 C 156.169 154.333, 156.002 153.631, 153.991 151.490 C 152.704 150.121, 151.312 149, 150.896 149 C 150.481 149, 147.390 147.172, 144.027 144.939 C 140.664 142.705, 133.207 138.652, 127.456 135.933 C 117.815 131.374, 117 130.769, 117 128.164 C 117 123.785, 120.284 122.571, 130.081 123.327 C 134.563 123.672, 141.553 123.674, 145.615 123.331 L 153 122.707 153 119.540 C 153 116.544, 152.620 116.225, 145.937 113.614 C 140.311 111.417, 136.801 110.776, 128.687 110.464 C 123.084 110.249, 115.227 109.770, 111.226 109.400 C 104.296 108.760, 103.808 108.545, 100.892 104.864 C 97.682 100.811, 93.208 99.622, 91.055 102.250" stroke="none" fill="black" fill-rule="evenodd"/>
</svg>