<svg xmlns="http://www.w3.org/2000/svg" width="256" height="256" viewBox="0 0 256 256" version="1.1">
	<path d="M 51.367 30.772 C 48.368 33.202, 47 36.269, 47 40.566 C 47 42.600, 46.081 45.752, 44.957 47.570 C 43.230 50.364, 42.029 51.048, 37.207 51.982 C 28.467 53.676, 27 54.521, 27 57.856 C 27 61.525, 28.285 62.560, 35.594 64.778 C 41.088 66.445, 41.522 66.797, 41.816 69.820 C 42.172 73.478, 39.669 89.159, 37.638 96 C 36.841 98.682, 36.608 101.604, 37.060 103.233 C 37.726 105.635, 49.270 119.953, 51.250 120.833 C 51.663 121.017, 52 123.069, 52 125.395 C 52 129.938, 51.091 131.220, 44.126 136.500 C 37.065 141.853, 34.595 148.782, 37.443 155.250 C 39.123 159.065, 46.080 156.733, 52.111 150.332 C 54.097 148.224, 59.100 144.770, 63.229 142.655 L 70.737 138.810 77.683 142.405 C 87.107 147.282, 89.485 147.149, 92.371 141.585 C 94.421 137.634, 92.762 135.315, 83.949 129.810 C 80.154 127.439, 77.039 124.986, 77.025 124.357 C 76.995 122.991, 74 121.647, 74 123 C 74 123.515, 73.328 123.679, 72.506 123.364 C 70.509 122.598, 71.607 121, 74.130 121 C 76.335 121, 79.275 118.608, 78.286 117.619 C 77.945 117.279, 78.105 117, 78.641 117 C 80.753 117, 87.674 95.420, 88.406 86.550 C 88.782 81.996, 89.631 79.558, 92.030 76.155 C 95.344 71.453, 95.472 70.867, 95.183 61.635 C 95.015 56.239, 94.701 55.495, 91.259 52.344 C 86.343 47.840, 84.095 47.401, 79.074 49.962 C 73.676 52.716, 63.214 53.652, 60.653 51.610 C 58.050 49.535, 58.124 44.039, 60.807 40.271 C 62.013 38.577, 63 36.093, 63 34.751 C 63 29.591, 55.846 27.144, 51.367 30.772 M 107.727 46.646 C 105.728 47.221, 101 55.868, 101 58.952 C 101 60.063, 100.474 62.936, 99.832 65.338 C 98.856 68.986, 98.935 70.381, 100.313 73.823 C 101.543 76.899, 101.953 81.104, 101.929 90.424 C 101.912 97.289, 102.328 104.615, 102.853 106.703 C 103.997 111.244, 105.304 126.690, 105.081 133.024 C 104.893 138.357, 111.087 153, 113.530 153 C 114.339 153, 115 152.331, 115 151.513 C 115 148.112, 127.302 143, 135.486 143 C 138.386 143, 140.044 143.897, 144.019 147.614 C 148.050 151.385, 149.414 152.113, 151.476 151.595 C 152.910 151.235, 154.031 150.215, 154.072 149.231 C 154.148 147.410, 154.187 146.978, 155.828 129.500 C 156.396 123.450, 157.120 111.300, 157.438 102.500 C 157.755 93.700, 158.277 81.488, 158.599 75.362 C 159.414 59.832, 158.384 51.293, 155.328 48.237 C 153.208 46.118, 152.434 45.934, 148.714 46.668 C 143.615 47.675, 127.278 47.752, 117 46.819 C 112.875 46.444, 108.702 46.367, 107.727 46.646 M 134.406 61.054 C 130.542 62.834, 129.998 62.850, 124.705 61.344 C 121.620 60.467, 118.424 60.007, 117.601 60.323 C 114.526 61.503, 113.765 68.716, 114.425 90.395 C 114.775 101.888, 115.220 111.563, 115.413 111.895 C 115.607 112.228, 116.049 114.892, 116.396 117.815 C 117.108 123.810, 119.008 128.973, 121.095 130.585 C 122.004 131.287, 125.678 131.464, 131.496 131.085 L 140.493 130.500 142.481 126.500 C 144.237 122.965, 144.499 120.117, 144.736 102 C 145.138 71.172, 144.921 61.628, 143.785 60.250 C 142.379 58.543, 139.281 58.809, 134.406 61.054 M 66.686 69.357 C 65.837 70.653, 63.098 72.674, 60.599 73.848 C 53.630 77.124, 53.175 78.356, 51.486 98.500 C 51.152 102.486, 53.501 106.860, 56.613 108.043 C 61.053 109.731, 67.501 109.209, 69.500 107 C 70.495 105.900, 70.999 105, 70.620 105 C 70.240 105, 70.373 104.171, 70.915 103.158 C 71.457 102.145, 72.180 99.108, 72.522 96.408 C 72.863 93.709, 73.363 90.375, 73.632 89 C 73.901 87.625, 74.384 82.517, 74.705 77.648 C 75.164 70.685, 74.991 68.608, 73.895 67.914 C 71.389 66.327, 68.261 66.953, 66.686 69.357" stroke="none" fill="black" fill-rule="evenodd"/>
</svg>