<svg xmlns="http://www.w3.org/2000/svg" width="256" height="256" viewBox="0 0 256 256" version="1.1">
	<path d="M 129.467 30.059 C 123.948 30.485, 116.684 31.546, 113.322 32.416 C 109.961 33.287, 103.399 34, 98.741 34 C 91.685 34, 89.829 34.346, 87.635 36.073 C 84.167 38.800, 84.310 40.377, 88.394 44.461 L 91.788 47.854 91.277 56.677 C 90.853 64.017, 90.403 65.852, 88.598 67.592 C 86.976 69.156, 86.156 69.392, 85.349 68.529 C 83.564 66.618, 82.352 63.767, 81.086 58.500 C 80.424 55.750, 78.778 51.813, 77.428 49.750 C 74.091 44.655, 71.399 44.817, 65 50.500 C 62.213 52.975, 59.498 55, 58.967 55 C 58.435 55, 57.100 54.100, 56 53 C 53.764 50.764, 53.318 45.144, 55.110 41.795 C 55.720 40.654, 56.596 38.410, 57.056 36.806 C 58.652 31.239, 51.882 27.846, 47.025 31.778 C 45.280 33.192, 44.646 35.185, 43.940 41.484 C 43.170 48.350, 42.649 49.813, 40.044 52.418 C 37.118 55.344, 36.915 55.392, 32.504 54.212 C 26.167 52.517, 23.233 52.696, 22.083 54.845 C 21.371 56.175, 21.520 57.297, 22.614 58.859 C 24.391 61.396, 31.036 65, 33.937 65 C 37.909 65, 39.060 68.709, 37.987 78.044 C 37.453 82.695, 37.012 92.895, 37.008 100.711 C 37.001 113.798, 37.164 115.075, 39.069 116.850 C 40.207 117.910, 42.345 119.041, 43.819 119.362 C 50.926 120.910, 51.170 125.335, 44.623 133.944 C 38.917 141.446, 36.766 146.565, 37.183 151.645 C 37.481 155.264, 37.716 155.518, 41.032 155.797 C 44.892 156.122, 50.471 153.036, 52.406 149.504 C 55.363 144.110, 57.475 141.828, 60.798 140.440 C 68.820 137.088, 74.224 138.722, 81.463 146.687 C 87.176 152.974, 87.457 152.999, 95.436 147.939 C 99.668 145.255, 100.165 144.576, 99.680 142.151 C 99.319 140.345, 99.888 138.049, 101.340 135.451 C 104.232 130.281, 107.488 129.785, 111.840 133.850 C 116.074 137.806, 115.964 140.965, 111.442 145.231 C 107.688 148.772, 106.601 151.675, 108.251 153.750 C 109.902 155.826, 114.333 155.169, 120.234 151.973 C 127.626 147.969, 131.510 147.912, 137.693 151.716 C 140.403 153.383, 145.198 155.497, 148.350 156.413 C 153.955 158.043, 154.146 158.032, 157.094 155.933 C 159.638 154.122, 160.061 153.224, 159.804 150.175 C 159.488 146.421, 159.115 146.102, 150.947 142.612 C 148.993 141.777, 146.544 140.154, 145.506 139.006 C 143.776 137.095, 143.722 136.410, 144.860 130.898 C 145.544 127.587, 146.979 123.443, 148.048 121.689 C 149.187 119.820, 149.994 116.693, 149.996 114.135 C 149.999 110.421, 149.478 109.291, 146.500 106.564 C 142.089 102.523, 142.054 101, 146.374 101 C 150.411 101, 158.107 98.431, 159.194 96.721 C 160.512 94.646, 160.083 91.402, 158.205 89.236 C 156.505 87.276, 155.329 87.161, 136.089 87.068 C 124.913 87.014, 115.033 86.540, 114.134 86.015 C 113.054 85.384, 112.944 85.051, 113.809 85.030 C 114.529 85.014, 114.854 84.573, 114.531 84.050 C 113.030 81.621, 118.757 80.839, 137.558 80.906 C 155.694 80.970, 157.010 80.851, 157.972 79.053 C 159.767 75.698, 159.106 73.402, 155 68.737 C 150.482 63.605, 150.325 62.960, 152.706 59.325 C 154.019 57.322, 154.465 54.105, 154.638 45.392 L 154.863 34.063 151.855 31.531 C 148.534 28.737, 147.487 28.668, 129.467 30.059 M 130 44.308 C 127.936 45.363, 127.558 46.189, 127.831 49.043 C 128.014 50.944, 128.239 55.289, 128.331 58.697 C 128.424 62.105, 129.017 65.413, 129.649 66.046 C 133.328 69.735, 138.597 61.329, 140.679 48.450 C 141.093 45.890, 140.749 45.207, 138.539 44.200 C 135.198 42.678, 133.137 42.704, 130 44.308 M 105.676 46.688 C 102.272 48.099, 101.925 48.560, 102.523 50.887 C 102.892 52.324, 103.564 56.072, 104.016 59.214 C 104.468 62.357, 105.146 65.426, 105.521 66.035 C 107.724 69.599, 115.966 68.516, 116.043 64.652 C 116.338 49.991, 116.228 47.979, 115.051 46.561 C 113.432 44.610, 110.597 44.649, 105.676 46.688 M 54.557 69.198 C 51.740 71.620, 51.649 72.033, 48.969 94.500 C 47.595 106.027, 47.731 107.576, 50.393 110.670 C 52.607 113.245, 52.977 113.350, 55.345 112.083 C 58.811 110.228, 60 106.242, 60 96.477 C 60 91.540, 60.626 86.502, 61.566 83.876 C 62.428 81.469, 63.215 76.800, 63.316 73.500 L 63.500 67.500 60.369 67.196 C 58.224 66.987, 56.394 67.617, 54.557 69.198 M 84 71.722 C 84 72.254, 82.876 73.996, 81.501 75.594 C 80.127 77.193, 79.002 78.921, 79.001 79.436 C 79.001 79.950, 78.109 81.319, 77.020 82.479 C 75.204 84.412, 71.051 98.101, 71.015 102.275 C 71.007 103.251, 70.185 106.401, 69.188 109.275 C 65.614 119.582, 66.597 125.434, 72.911 131.437 C 74.610 133.052, 76 134.975, 76 135.709 C 76 136.442, 77.105 137.546, 78.455 138.161 C 81.885 139.724, 86.416 137.681, 89.081 133.370 C 90.235 131.502, 92.039 129.515, 93.089 128.952 C 94.140 128.390, 95 127.347, 95 126.634 C 95 125.922, 96.123 123.125, 97.496 120.419 C 99.455 116.559, 99.993 113.981, 99.996 108.441 C 100.001 99.157, 98.894 97.691, 91.370 97.020 C 86.469 96.582, 85.359 96.115, 84.340 94.063 C 81.994 89.340, 86.454 85.967, 91.550 88.610 C 93.023 89.375, 95.072 90, 96.103 90 C 98.582 90, 102 86.999, 102 84.823 C 102 82.436, 97.452 78.105, 92.568 75.840 C 90.330 74.802, 87.487 73.234, 86.250 72.355 C 85.013 71.476, 84 71.191, 84 71.722 M 117 102.383 C 117 104.190, 120.067 105.084, 127.750 105.514 C 132.669 105.789, 134 105.558, 134 104.432 C 134 103.644, 134.477 103, 135.059 103 C 135.641 103, 135.840 102.550, 135.500 102 C 135.160 101.450, 130.859 101, 125.941 101 C 118.995 101, 117 101.309, 117 102.383 M 123 117.713 C 119.706 118.933, 119.066 120.051, 120.217 122.576 C 120.824 123.909, 121.630 125, 122.008 125 C 122.385 125, 123.732 125.900, 125 127 C 126.268 128.100, 128.569 129, 130.113 129 C 132.503 129, 133.091 128.428, 134.074 125.147 C 135.795 119.404, 134.182 116.977, 128.715 117.079 C 126.397 117.122, 123.825 117.408, 123 117.713" stroke="none" fill="black" fill-rule="evenodd"/>
</svg>