<svg xmlns="http://www.w3.org/2000/svg" width="256" height="256" viewBox="0 0 256 256" version="1.1">
	<path d="M 48.141 31.859 C 46.164 33.380, 45.649 34.983, 44.966 41.762 C 44.097 50.380, 42.999 53.414, 40.227 54.847 C 38.316 55.836, 37.590 55.763, 30.827 53.908 C 25.670 52.494, 23 53.554, 23 57.019 C 23 59.928, 29.587 65, 33.366 65 C 38.604 65, 39.477 67.704, 38.095 79.653 C 36.743 91.342, 36.778 112.423, 38.156 116.116 C 38.693 117.555, 40.340 119.295, 41.816 119.982 C 43.292 120.669, 45.175 121.563, 46 121.967 C 46.825 122.371, 47.648 123.956, 47.830 125.489 C 48.092 127.708, 47.143 129.316, 43.167 133.388 C 36.865 139.841, 33.768 146.312, 34.188 152.149 C 34.497 156.456, 34.541 156.503, 38.533 156.797 C 44.082 157.205, 48.608 153.952, 52.159 147 C 55.195 141.056, 60.034 136, 62.686 136 C 63.596 136, 67.404 137.412, 71.148 139.138 L 77.956 142.276 80.005 139.888 C 81.564 138.072, 81.944 136.548, 81.592 133.522 C 81.337 131.333, 80.650 129.383, 80.065 129.188 C 79.479 128.993, 79 128.196, 79 127.417 C 79 126.500, 77.908 126, 75.904 126 C 71.289 126, 67.186 122.693, 67.482 119.212 C 67.614 117.658, 68.175 115.513, 68.727 114.444 C 69.280 113.375, 69.970 109.736, 70.262 106.357 C 70.611 102.297, 72.213 96.873, 74.986 90.357 C 77.293 84.936, 79.888 78.802, 80.753 76.726 C 81.767 74.293, 82.345 69.755, 82.381 63.960 C 82.436 54.997, 82.425 54.959, 78.968 51.544 C 73.462 46.106, 71.253 46.089, 65.819 51.447 C 60.680 56.513, 59.151 56.930, 56.491 53.991 C 54.294 51.562, 54.295 45.264, 56.494 41.011 C 58.630 36.880, 58.434 32.303, 56.066 31.035 C 53.269 29.539, 50.828 29.792, 48.141 31.859 M 124.524 32.948 C 121.797 34.237, 120.010 34.541, 118.839 33.914 C 115.539 32.148, 111.697 33.037, 105.900 36.908 C 102.681 39.058, 98.263 41.118, 96.081 41.486 C 88.942 42.692, 88.289 46.830, 94.491 51.561 C 98.392 54.536, 100.267 59.057, 99.437 63.484 C 99 65.815, 97.721 67.287, 94.385 69.302 C 91.928 70.786, 89.527 72, 89.048 72 C 86.497 72, 90.735 79.673, 94.608 82.067 C 98.068 84.205, 99.831 88.025, 100.397 94.609 C 100.907 100.552, 100.001 101.638, 93 103.468 C 88.611 104.615, 88 105.272, 88 108.849 C 88 112.392, 88.209 112.625, 92.537 113.903 C 99.420 115.935, 101.282 121.416, 100.010 135.891 C 99.292 144.051, 99.159 144.387, 95.136 148.215 C 92.861 150.379, 91 152.596, 91 153.141 C 91 157.057, 96.684 161, 102.328 161 C 106.352 161, 106.799 160.506, 110.344 152.139 C 113.109 145.613, 113.192 144.550, 112.943 118.770 C 112.923 116.773, 114.404 114.553, 118.458 110.498 C 121.506 107.450, 124 104.399, 124 103.718 C 124 102.371, 119.366 97, 118.204 97 C 116.988 97, 115.130 91.752, 114.434 86.354 C 113.825 81.633, 113.953 81.150, 115.984 80.505 C 119.368 79.431, 126.454 80.843, 128.842 83.067 C 131.693 85.724, 132.275 88.525, 131.834 97.476 C 131.629 101.614, 131.715 105, 132.024 105 C 133.521 105, 134.858 114.342, 134.327 121.095 C 133.695 129.137, 132.701 130.646, 125.034 135.205 C 120.033 138.179, 119 139.797, 119 144.656 C 119 147.858, 119.485 149.189, 120.934 149.965 C 125.079 152.183, 127.243 151.288, 131.258 145.694 C 133.917 141.991, 140.317 143.487, 142.964 148.432 C 146.380 154.816, 155.724 158.721, 160.341 155.696 C 163.595 153.564, 169 145.189, 169 142.279 C 169 134.947, 162.240 130.982, 155.996 134.652 C 152.913 136.464, 152.822 136.461, 151.334 134.500 C 150.137 132.921, 149.949 130.842, 150.443 124.620 C 151.168 115.486, 151.737 114.164, 157.734 107.692 C 162.594 102.447, 162.839 100.132, 159.078 95 C 157.484 92.825, 156.482 92.500, 151.373 92.500 C 144.803 92.500, 143 91.749, 143 89.012 C 143 85.429, 145.742 84, 152.617 84 C 158.223 84, 159.433 83.658, 161.641 81.450 C 164.601 78.489, 164.278 75.036, 160.676 71.156 C 158.713 69.041, 157.937 68.874, 152.754 69.455 C 147.499 70.043, 146.791 69.882, 144.474 67.565 C 142.099 65.190, 141.982 64.609, 142.602 58.266 C 143.237 51.775, 144.898 46.148, 144.970 50.250 C 144.986 51.212, 145.450 52, 146 52 C 146.550 52, 147 52.830, 147 53.845 C 147 56.182, 149.541 58.493, 154.296 60.479 C 157.715 61.908, 158.231 61.895, 160.630 60.323 C 163.075 58.721, 163.209 58.237, 162.713 52.770 C 162.331 48.559, 161.448 45.964, 159.547 43.472 C 156.329 39.254, 153.089 38.312, 148.207 40.178 L 144.500 41.594 139.650 36.297 C 134.145 30.285, 131.427 29.684, 124.524 32.948 M 118.303 47.197 C 115.589 48.508, 114 52.839, 114 58.927 C 114 64.752, 116.142 68, 119.984 68 C 124.557 68, 127 64.026, 127 56.588 C 127 47.425, 124.165 44.364, 118.303 47.197 M 65 65.107 C 65 65.716, 64.320 65.953, 63.488 65.634 C 61.527 64.881, 56.144 67.908, 53.866 71.044 C 50.038 76.314, 46.890 108.051, 50 110.020 C 51.843 111.187, 54.079 111.237, 55.793 110.149 C 57.679 108.953, 61.737 96.459, 62.500 89.500 C 62.862 86.200, 63.559 82.150, 64.049 80.500 C 64.540 78.850, 65.122 74.963, 65.342 71.862 C 65.563 68.761, 66.053 65.724, 66.431 65.112 C 66.809 64.500, 66.641 64, 66.059 64 C 65.477 64, 65 64.498, 65 65.107" stroke="none" fill="black" fill-rule="evenodd"/>
</svg>