<svg xmlns="http://www.w3.org/2000/svg" width="256" height="256" viewBox="0 0 256 256" version="1.1">
	<path d="M 47.073 31.635 C 45.604 33.502, 45 35.726, 45 39.269 C 45 46.253, 43.092 52.001, 40.361 53.245 C 38.606 54.045, 36.837 53.760, 32.414 51.965 C 26.897 49.726, 26.683 49.712, 25.362 51.519 C 24.613 52.544, 24 53.978, 24 54.706 C 24 56.443, 29.359 59.657, 33.575 60.448 C 39.226 61.508, 42.474 67.377, 39.985 72.029 C 39.057 73.762, 34.906 107.780, 34.621 115.988 L 34.500 119.475 40.500 120.488 C 47.949 121.744, 49 122.412, 49 125.889 C 49 127.824, 47.401 130.444, 43.696 134.580 C 37.022 142.028, 34.415 146.423, 33.659 151.500 C 32.789 157.339, 33.845 158.430, 39.602 157.641 C 45.822 156.788, 50.383 153.588, 53.211 148.090 C 54.893 144.820, 57.234 142.555, 62.269 139.328 C 70.343 134.152, 72.029 131.122, 69.484 126.362 C 67.778 123.172, 68.049 114.904, 69.938 112.533 C 70.390 111.965, 71.560 107.225, 72.537 102 C 73.513 96.775, 75.190 90.250, 76.261 87.500 C 77.547 84.201, 78.169 80.317, 78.089 76.081 C 77.989 70.752, 78.340 69.267, 80.159 67.331 C 82.502 64.837, 87.374 64.178, 88.616 66.187 C 89.019 66.841, 89.926 69.855, 90.631 72.886 C 91.631 77.187, 91.686 82.140, 90.883 95.448 C 89.889 111.929, 88.666 118.528, 84.477 130 C 82.195 136.249, 81.951 150.371, 84.088 152.513 C 85.391 153.819, 86.138 153.894, 88.248 152.933 C 90.856 151.744, 91.730 149.968, 96.083 137 C 97.283 133.425, 98.709 129.940, 99.251 129.255 C 99.793 128.571, 99.989 127.065, 99.686 125.908 C 99.384 124.752, 99.561 121.262, 100.080 118.153 C 100.598 115.044, 101.267 109.181, 101.565 105.125 C 102.072 98.233, 103.426 95, 105.804 95 C 106.324 95, 107.089 96.462, 107.502 98.250 C 107.916 100.037, 108.465 102.175, 108.722 103 C 108.979 103.825, 109.610 108.100, 110.125 112.500 C 110.640 116.900, 111.723 124.867, 112.531 130.205 C 113.339 135.542, 114 142.755, 114 146.232 C 114 154.715, 115.826 157.449, 120.873 156.528 C 122.868 156.163, 129.386 155.630, 135.359 155.341 L 146.218 154.817 150.522 157.909 C 158.280 163.480, 160.084 161.795, 160.910 148.204 C 161.906 131.814, 161.375 92.665, 160.104 88.815 C 158.786 84.820, 156.419 83.328, 150.007 82.448 C 147.535 82.108, 145.231 81.374, 144.886 80.816 C 144.170 79.656, 134.604 80.298, 120.500 82.451 C 118.300 82.786, 114.508 83.262, 112.073 83.507 C 109.639 83.753, 107.215 84.385, 106.688 84.912 C 103.999 87.601, 101.939 79.163, 104.594 76.335 C 105.833 75.015, 111.033 73.762, 115.500 73.707 C 119.870 73.653, 134.923 75.086, 139.023 75.946 C 140.961 76.353, 143.436 76.338, 144.523 75.913 C 145.610 75.488, 148.750 75.095, 151.500 75.038 C 157.010 74.926, 159.462 73.579, 160.816 69.919 C 161.812 67.228, 161.622 46.987, 160.536 40.034 C 159.143 31.109, 157.609 30.332, 144.343 31.825 C 139.479 32.372, 132.800 32.473, 129.500 32.050 C 126.200 31.626, 120.800 31.362, 117.500 31.462 C 114.200 31.563, 107.649 31.725, 102.941 31.822 C 90.839 32.074, 90.432 32.486, 90.770 44.173 C 91.010 52.481, 90.782 53.920, 88.686 57.346 L 86.334 61.191 83.611 58.846 C 82.114 57.556, 79.676 54.250, 78.194 51.500 C 76.106 47.625, 74.884 46.429, 72.765 46.185 C 70.447 45.918, 69.607 46.569, 67.265 50.447 C 64.061 55.751, 61.858 56.792, 58.498 54.590 C 55.435 52.584, 54.222 46.771, 55.988 42.559 C 57.913 37.966, 58.391 32.176, 56.984 30.481 C 54.916 27.989, 49.439 28.627, 47.073 31.635 M 109.212 44.187 C 103.440 45.749, 99.826 54.630, 103.750 57.608 C 104.713 58.339, 108.036 58.951, 111.135 58.968 C 116.067 58.996, 116.975 58.687, 118.416 56.488 C 120.495 53.315, 120.766 47.332, 118.914 45.505 C 117.009 43.625, 113.199 43.108, 109.212 44.187 M 136.500 46.386 C 130.143 49.157, 129.308 56.866, 135.143 58.900 C 138.996 60.243, 143.979 60.299, 146 59.021 C 147.591 58.015, 148.093 50.024, 146.770 46.750 C 145.916 44.636, 140.920 44.459, 136.500 46.386 M 60.559 64.566 C 52.368 70.155, 52.228 70.414, 50.521 83 C 49.664 89.325, 48.567 97.200, 48.083 100.500 C 45.943 115.091, 55.897 117.475, 60.271 103.418 C 61.284 100.163, 63.024 91.650, 64.138 84.500 C 65.253 77.350, 66.402 70.037, 66.692 68.250 C 66.982 66.463, 67.623 65, 68.118 65 C 68.612 65, 68.455 64.100, 67.768 63 C 66.234 60.545, 66.554 60.475, 60.559 64.566 M 133 93.930 C 128.880 94.537, 123.978 96.753, 124.015 97.991 C 124.098 100.743, 126.414 101.427, 136.377 101.641 C 146.481 101.858, 146.892 101.783, 147.228 99.683 C 147.421 98.482, 147.151 96.487, 146.628 95.250 C 145.604 92.822, 142.537 92.525, 133 93.930 M 127.335 112.808 C 125.040 113.135, 123.574 115.501, 124.619 117.192 C 125.887 119.245, 132.057 120.977, 138.602 121.119 C 144.071 121.238, 145.583 120.923, 146.667 119.441 C 148.163 117.395, 148.315 116.036, 147.235 114.359 C 146.533 113.270, 132.031 112.140, 127.335 112.808 M 138 133.015 C 137.175 133.556, 134.849 133.914, 132.832 133.809 C 129.486 133.635, 126 135.228, 126 136.931 C 126 139.274, 129.195 141.221, 134.528 142.129 C 148.170 144.451, 150.359 143.481, 148.146 136.093 C 146.996 132.253, 146.690 132.001, 143.210 132.015 C 141.169 132.024, 138.825 132.474, 138 133.015" stroke="none" fill="black" fill-rule="evenodd"/>
</svg>