<svg xmlns="http://www.w3.org/2000/svg" width="256" height="256" viewBox="0 0 256 256" version="1.1">
	<path d="M 118.302 29.501 C 117.123 30.327, 115.872 32.305, 115.523 33.898 C 114.166 40.072, 110.873 41.110, 97.822 39.475 C 92.581 38.819, 91.947 38.962, 89.572 41.337 C 85.049 45.860, 86.412 48.561, 93.938 49.988 C 96.872 50.545, 101.376 51, 103.945 51 C 106.515 51, 109.491 51.647, 110.559 52.438 C 112.477 53.859, 112.476 53.894, 110.500 55.364 C 109.400 56.182, 105.181 58.121, 101.124 59.671 C 97.068 61.222, 93.521 63.086, 93.242 63.813 C 92.173 66.597, 95.092 69.746, 99.356 70.410 C 101.635 70.764, 104.400 71.197, 105.500 71.371 C 111.556 72.330, 113.055 73.787, 111.121 76.839 C 110.485 77.842, 108.796 78.010, 104.386 77.507 C 101.149 77.138, 97.775 76.637, 96.888 76.394 C 95.922 76.130, 93.604 77.666, 91.104 80.226 L 86.932 84.500 90.134 87.386 C 93.308 90.246, 93.415 90.266, 102.468 89.630 C 113.648 88.844, 115.642 89.765, 114.614 95.243 C 113.791 99.632, 112.693 100.083, 104.654 99.332 C 98.448 98.753, 98.266 98.803, 97.642 101.289 C 96.481 105.914, 97.726 107.149, 103.382 106.981 C 111.565 106.739, 111.936 106.846, 113.870 110.026 C 115.376 112.502, 115.662 114.767, 115.445 122.477 C 115.299 127.660, 114.887 132.374, 114.530 132.951 C 113.637 134.397, 108.733 134.270, 106.760 132.750 C 105.867 132.063, 104.921 130.044, 104.658 128.265 C 104.395 126.486, 103.351 123.336, 102.340 121.265 C 100.834 118.184, 99.893 117.442, 97.156 117.180 C 92.756 116.758, 90.454 118.951, 88.889 125.057 C 88.025 128.428, 86.463 131.045, 83.817 133.551 C 79.344 137.790, 78.522 140.316, 79.347 147.282 C 80.527 157.242, 85.973 158.208, 91.292 149.401 C 94.593 143.937, 96.360 143.226, 104.547 144.074 C 109.515 144.588, 111.776 145.390, 114.538 147.619 C 124.771 155.879, 126.818 156.407, 146.395 155.841 C 157.198 155.528, 158.333 155.312, 160.002 153.249 C 161.003 152.011, 161.672 150.211, 161.488 149.249 C 161.304 148.287, 161.119 147.140, 161.077 146.699 C 160.796 143.761, 142.166 141.334, 134.853 143.281 C 130.966 144.317, 127.466 141.264, 128.377 137.633 C 129.275 134.054, 132.380 133, 142.018 133 C 146.356 133, 151.010 132.497, 152.359 131.882 C 156.773 129.871, 156.255 122.808, 151.562 121.023 C 150.191 120.502, 145.266 119.870, 140.618 119.618 C 131.363 119.116, 128 117.908, 128 115.087 C 128 111.600, 130.796 110.522, 139.385 110.696 C 154.033 110.992, 157.079 109.037, 155.653 100.249 C 155.181 97.339, 155.561 95.953, 157.547 93.350 C 160.813 89.068, 161.362 85.767, 160.019 78.500 C 159.409 75.200, 158.510 70.071, 158.021 67.102 C 156.711 59.146, 155.787 58.586, 142.998 57.995 C 134.461 57.600, 131.683 57.112, 130.340 55.768 C 129.393 54.822, 128.917 53.749, 129.282 53.385 C 129.646 53.021, 135.076 52.611, 141.349 52.475 C 155.424 52.169, 158.370 51.042, 158.807 45.798 C 159.081 42.510, 158.759 41.927, 155.839 40.417 C 153.126 39.014, 150.839 38.828, 142.532 39.333 C 131.056 40.031, 128.187 39.155, 126.698 34.500 C 125.591 31.038, 123.193 28, 121.568 28 C 120.950 28, 119.481 28.676, 118.302 29.501 M 50.465 30.952 C 47.069 32.328, 45.888 34.596, 45.399 40.683 C 44.799 48.145, 43.434 52.943, 41.137 55.671 C 38.737 58.519, 37.441 58.712, 31.695 57.077 C 25.649 55.356, 23.693 56.599, 26.015 60.687 C 26.832 62.125, 28.175 63.611, 29 63.989 C 29.825 64.367, 32.300 65.544, 34.500 66.606 L 38.500 68.536 38.380 78.967 C 38.259 89.545, 36.773 102.318, 34.583 111.613 C 32.801 119.177, 33.503 120.198, 41.507 121.676 C 51.781 123.572, 52.598 126.676, 45.185 135.663 C 32.511 151.028, 30.110 161.217, 39.523 159.690 C 43.991 158.965, 49.139 155.095, 53.865 148.906 C 55.716 146.483, 59.541 143.222, 62.365 141.660 C 65.189 140.098, 68.493 137.900, 69.707 136.776 C 71.819 134.821, 71.847 134.574, 70.358 131.116 C 67.160 123.688, 67.146 122.795, 70.109 115.488 C 71.667 111.644, 72.955 107.739, 72.971 106.809 C 72.987 105.879, 73.391 104.876, 73.869 104.581 C 74.346 104.286, 75.032 102.200, 75.393 99.946 C 75.753 97.692, 77.331 93.295, 78.900 90.174 C 81.174 85.650, 81.559 83.993, 80.800 82 C 79.462 78.487, 80.490 73.366, 83.276 69.657 C 87.159 64.487, 87.154 63.541, 83.202 56.414 C 77.570 46.258, 72.875 45.371, 67.500 53.448 C 65.128 57.012, 63.905 57.961, 61.660 57.978 C 55.490 58.026, 53.264 50.423, 57.022 42.141 C 59.592 36.478, 59.522 33.479, 56.777 31.557 C 54.312 29.830, 53.440 29.746, 50.465 30.952 M 57.096 69.573 C 54.076 72.114, 52.703 75.587, 51.592 83.500 C 50.059 94.409, 48.920 100.280, 48.007 101.988 C 44.868 107.852, 48.905 115.108, 54.824 114.239 C 61.810 113.214, 65.487 102.938, 66.450 81.750 L 67.120 67 63.637 67 C 61.354 67, 59.100 67.887, 57.096 69.573 M 131.500 72.178 C 130.400 72.792, 129.375 73.391, 129.222 73.509 C 129.069 73.626, 129.395 74.910, 129.947 76.361 C 131.321 79.976, 136.718 80.044, 140.694 76.498 C 143.431 74.057, 143.452 73.959, 141.559 72.498 C 139.286 70.744, 134.348 70.587, 131.500 72.178 M 130.053 92.436 C 129.144 93.531, 129.136 94.387, 130.019 96.036 C 131.044 97.950, 131.717 98.123, 135.839 97.532 C 141.409 96.734, 143.867 94.380, 141.226 92.374 C 138.883 90.595, 131.548 90.635, 130.053 92.436" stroke="none" fill="black" fill-rule="evenodd"/>
</svg>