<svg xmlns="http://www.w3.org/2000/svg" width="256" height="256" viewBox="0 0 256 256" version="1.1">
	<path d="M 89.622 26.463 C 88.366 27.818, 86.800 30.725, 86.141 32.923 C 84.646 37.913, 82.071 38.575, 70.026 37.063 C 65.366 36.479, 57.853 36, 53.332 36 C 46.107 36, 44.775 36.289, 42.334 38.389 C 39.378 40.931, 39.571 39.674, 38.766 61.727 C 38.624 65.628, 41.112 68.646, 45.214 69.547 C 50.243 70.652, 51.532 68.373, 51.193 58.974 C 50.912 51.203, 50.972 50.970, 53.550 49.795 C 55.705 48.814, 57.802 48.935, 64.848 50.452 C 74.803 52.594, 76.619 52.640, 87.479 51.020 C 92.241 50.310, 98.691 50.103, 103.479 50.507 C 107.891 50.880, 116.132 51.145, 121.794 51.097 C 132.852 51.003, 138.044 52.345, 139.878 55.773 C 140.450 56.841, 141.151 60.094, 141.436 63.003 C 142.219 70.991, 145.840 73.948, 151.779 71.451 C 153.464 70.742, 155.283 69.339, 155.821 68.331 C 156.923 66.267, 156.528 61.148, 154.879 56.142 C 154.271 54.295, 154.023 51.248, 154.327 49.371 C 155.108 44.561, 153.307 40.210, 149.781 38.387 C 146.244 36.558, 137.253 36.259, 134.243 37.870 C 131.555 39.309, 118.547 39.328, 110.378 37.905 C 104.605 36.900, 104.005 36.554, 103.018 33.655 C 101.569 29.401, 96.506 24, 93.966 24 C 92.832 24, 90.877 25.109, 89.622 26.463 M 65.819 60.575 C 59.286 65.480, 56 71.413, 56 78.306 C 56 87.420, 59.836 87.996, 67.500 80.031 C 69.700 77.745, 73.075 74.930, 75 73.775 C 83.513 68.671, 85.257 64.166, 80.545 59.455 C 76.857 55.766, 71.703 56.158, 65.819 60.575 M 115 59.820 C 111.454 61.427, 109 63.596, 109 65.124 C 109 66.801, 116.248 74, 117.936 74 C 120.509 74, 129.144 80.686, 131.611 84.589 C 133.756 87.984, 135.175 89.130, 137.854 89.632 C 142.381 90.482, 144.329 88.241, 142.822 83.919 C 142.262 82.313, 141.398 81, 140.902 81 C 140.406 81, 140 80.100, 140 79 C 140 76.896, 126.149 62.116, 122.316 60.131 C 119.912 58.886, 117.305 58.776, 115 59.820 M 92.302 74.012 C 90.021 74.930, 87 79.744, 87 82.459 C 87 84.209, 83.250 88.248, 78 92.154 C 76.075 93.586, 72.025 97.237, 69 100.268 C 65.010 104.267, 60.755 107.113, 53.500 110.640 C 42.092 116.184, 39.576 118.971, 41.958 123.421 C 43.561 126.417, 46.330 126.725, 51.654 124.500 C 55.571 122.863, 62.709 122.529, 64.844 123.883 C 65.955 124.586, 65.909 125.275, 64.584 127.838 C 63.272 130.375, 63.170 131.798, 64.029 135.628 C 64.606 138.205, 64.973 143.618, 64.844 147.657 C 64.650 153.728, 64.964 155.477, 66.655 157.750 C 69.187 161.154, 72.057 161.664, 75.603 159.340 C 77.791 157.907, 80.894 157.498, 91.413 157.257 C 98.611 157.091, 106.750 156.869, 109.500 156.762 C 112.250 156.655, 117.650 156.932, 121.500 157.379 C 128.488 158.189, 128.503 158.185, 130.149 155.345 C 131.081 153.737, 132.072 149.022, 132.429 144.500 C 132.777 140.100, 133.559 133.912, 134.167 130.750 L 135.273 125 142.937 125 C 151.003 125, 153.016 124.108, 152.978 120.550 C 152.948 117.844, 150.497 114.973, 145 111.209 C 142.525 109.515, 138.925 106.750, 137 105.066 C 135.075 103.382, 132.975 102.004, 132.334 102.002 C 131.693 102.001, 129.717 100.168, 127.944 97.929 C 126.170 95.689, 121.721 91.882, 118.057 89.468 C 114.393 87.054, 109.712 83.261, 107.657 81.039 C 104.288 77.398, 97.315 72.901, 95.290 73.063 C 94.855 73.098, 93.511 73.525, 92.302 74.012 M 90.859 96.337 C 85.255 100.902, 82.519 105.297, 83.182 108.671 C 83.506 110.318, 84.463 110.463, 92.812 110.132 C 100.081 109.844, 102.451 110.093, 103.791 111.285 C 105.305 112.632, 111.264 113.517, 116.250 113.134 C 118.536 112.959, 118.532 109.290, 116.243 105.975 C 112.555 100.634, 103.241 92.913, 99.815 92.357 C 96.877 91.881, 95.674 92.415, 90.859 96.337 M 85.282 124.326 C 79.974 126.263, 78.491 128.444, 78.576 134.187 C 78.697 142.318, 79.583 142.677, 99.147 142.535 C 113.746 142.428, 115.741 142.209, 117.746 140.489 C 120.833 137.841, 121.679 132.686, 119.558 129.448 C 116.086 124.149, 112.559 123.001, 100 123.080 C 93.675 123.120, 87.052 123.680, 85.282 124.326" stroke="none" fill="black" fill-rule="evenodd"/>
</svg>