<svg xmlns="http://www.w3.org/2000/svg" width="256" height="256" viewBox="0 0 256 256" version="1.1">
	<path d="M 92.194 28.293 C 91.010 29.554, 89.560 31.964, 88.973 33.649 C 87.443 38.037, 83.263 38.958, 65.489 38.822 C 48.813 38.695, 44.339 39.267, 41.715 41.860 C 39.553 43.999, 34.872 61.793, 35.669 64.843 C 36.446 67.814, 40.437 68.639, 44.548 66.678 C 46.973 65.522, 48.653 63.503, 50.693 59.294 C 52.289 56, 54.579 52.936, 56 52.193 C 58.760 50.751, 71.724 51.184, 76.149 52.867 C 77.641 53.434, 88.866 53.624, 103.685 53.333 C 130.657 52.804, 134.487 53.252, 139.500 57.523 C 141.150 58.928, 143.784 61.186, 145.353 62.539 C 148.485 65.241, 150.981 65.606, 154.316 63.850 C 157.473 62.188, 157.843 61.226, 156.896 57.148 C 156.429 55.142, 156.037 51.544, 156.024 49.154 C 156.011 46.764, 155.251 43.540, 154.335 41.989 C 152.859 39.491, 151.919 39.095, 146.085 38.516 C 142.463 38.157, 137.475 38.303, 135 38.841 C 130.331 39.856, 111.003 38.915, 107.700 37.512 C 106.710 37.092, 105.639 35.445, 105.321 33.854 C 104.630 30.399, 99.744 26, 96.598 26 C 95.361 26, 93.379 27.032, 92.194 28.293 M 78.500 61.004 C 70.986 62.419, 63.763 65.146, 61.478 67.431 C 59.320 69.589, 59.261 70.008, 60.397 75.107 C 61.091 78.224, 61.302 82.399, 60.898 85 C 60.514 87.475, 60.402 100.750, 60.649 114.500 C 61.417 157.126, 61.275 154.997, 63.444 156.583 C 65.748 158.267, 69.801 158.406, 73.673 156.934 C 77.365 155.530, 116.102 155.704, 125.411 157.166 C 135.022 158.676, 136.909 158.536, 139.307 156.137 C 141.145 154.299, 141.372 152.814, 141.422 142.289 C 141.545 116.668, 140.504 113.376, 131.370 110.503 C 127.346 109.237, 125.327 109.100, 122.343 109.890 C 118.001 111.039, 88.623 111.598, 79.530 110.705 C 72.113 109.976, 70.338 108.182, 72.636 103.736 L 74.187 100.738 89.843 101.419 C 115.853 102.550, 128.954 102.260, 131.649 100.494 C 133.931 98.999, 134 98.543, 134 85.042 C 134 77.391, 133.591 70.055, 133.091 68.740 C 132.591 67.425, 130.904 65.483, 129.341 64.425 C 126.870 62.751, 124.546 62.486, 111.500 62.395 C 103.250 62.338, 94.475 61.786, 92 61.170 C 87.001 59.925, 84.400 59.893, 78.500 61.004 M 85.162 75.948 C 74.288 76.477, 73.726 76.615, 71.412 79.306 C 68.569 82.613, 68.308 85.573, 70.750 86.832 C 72.616 87.794, 115.264 88.274, 118.307 87.367 C 123.025 85.962, 122.252 77.619, 117.310 76.613 C 112.714 75.677, 97.290 75.358, 85.162 75.948 M 81.064 125.500 C 74.034 126.445, 73.587 126.658, 72.860 129.402 C 72.390 131.179, 72.543 133.117, 73.256 134.402 C 73.896 135.556, 74.308 137.050, 74.172 137.722 C 74.037 138.393, 75.180 139.218, 76.713 139.553 C 78.246 139.888, 80.625 140.581, 82 141.093 C 83.375 141.605, 91.475 142.045, 100 142.072 C 108.525 142.099, 117.558 142.205, 120.074 142.307 C 124.871 142.503, 127.749 140.776, 128.473 137.267 C 128.674 136.295, 129.559 133.804, 130.440 131.731 C 131.945 128.193, 131.930 127.841, 130.199 125.983 C 128.464 124.121, 127.172 124.019, 108.427 124.252 C 97.467 124.388, 85.154 124.950, 81.064 125.500" stroke="none" fill="black" fill-rule="evenodd"/>
</svg>