<svg xmlns="http://www.w3.org/2000/svg" width="256" height="256" viewBox="0 0 256 256" version="1.1">
	<path d="M 88.658 27.995 C 87.272 29.642, 85.844 31.917, 85.484 33.052 C 84.405 36.449, 80.847 37.084, 69.708 35.869 C 55.371 34.304, 44.530 35.154, 41.408 38.086 C 39.744 39.650, 38.995 41.453, 38.984 43.924 C 38.976 45.891, 38.317 50.200, 37.520 53.500 C 35.469 61.993, 35.612 64.615, 38.223 66.443 C 41.419 68.682, 44.727 68.364, 47.545 65.545 C 49.599 63.492, 50 62.123, 50 57.168 C 50 52.940, 50.461 50.862, 51.612 49.907 C 53.409 48.416, 62.360 48.401, 73.649 49.871 C 77.417 50.361, 90.625 50.532, 103 50.250 C 140.804 49.389, 141.171 49.449, 142.340 56.682 C 143.055 61.106, 147.415 68, 149.497 68 C 150.281 68, 151.823 67.033, 152.924 65.851 C 154.709 63.935, 154.883 62.647, 154.525 54.020 C 154.005 41.490, 153.430 39.400, 150.163 38.159 C 143.858 35.764, 139.804 34.863, 138.209 35.505 C 137.269 35.883, 129.587 36.398, 121.138 36.650 C 107.643 37.052, 105.547 36.900, 103.888 35.399 C 102.850 34.459, 102 33.240, 102 32.689 C 102 32.139, 100.852 30.184, 99.449 28.344 C 96.086 23.934, 92.181 23.808, 88.658 27.995 M 69 56.646 C 62.168 58.925, 60.085 62.330, 62.575 67.146 C 63.612 69.151, 64.286 73.848, 64.562 80.998 C 65.059 93.879, 65.860 96.371, 70.207 98.569 C 74.564 100.772, 78 103.987, 78 105.862 C 78 108.756, 73.559 113.936, 70.500 114.610 C 68.850 114.973, 63.588 115.265, 58.808 115.259 C 51.072 115.249, 49.882 115.496, 47.996 117.504 L 45.876 119.760 49.188 121.720 C 51.010 122.797, 56.450 124.960, 61.278 126.525 C 68.890 128.994, 70.124 129.712, 70.573 131.936 C 70.858 133.346, 71.520 136.127, 72.045 138.116 C 73.895 145.124, 73.072 145.999, 61.650 149.164 C 46.989 153.227, 45.741 156.768, 57.595 160.668 C 67.238 163.841, 69.924 163.636, 78.297 159.085 C 82.259 156.932, 89.775 153.748, 95 152.009 C 105.776 148.422, 110.367 148.517, 115.503 152.434 C 119.522 155.500, 127.113 158.062, 134.142 158.726 C 139.425 159.224, 139.896 159.088, 141.534 156.588 C 143.821 153.098, 142.324 149.528, 137.768 147.607 C 131.140 144.814, 123.431 142, 122.405 142 C 120.769 142, 117.202 137.731, 116.974 135.500 C 116.441 130.291, 117.002 129.417, 122.750 126.492 C 129.895 122.857, 129.983 122.845, 136.590 124.565 C 141.395 125.817, 142.469 125.796, 146.007 124.381 C 153.784 121.269, 148.787 114, 138.870 114 C 137.312 114, 133.154 112.578, 129.630 110.840 L 123.222 107.680 120.476 109.840 C 118.966 111.028, 117.116 112, 116.365 112 C 115.614 112, 115 112.391, 115 112.870 C 115 114.158, 94.311 113.711, 92.994 112.395 C 91.398 110.797, 92.849 106.152, 95.365 104.804 C 96.713 104.082, 102.549 103.716, 111.193 103.810 L 124.887 103.960 126.973 101.307 C 128.920 98.832, 129.031 97.691, 128.636 84.200 C 128.403 76.249, 128.584 68.450, 129.038 66.868 C 130.110 63.128, 126.453 58.489, 121.756 57.629 C 117.539 56.857, 70.967 55.989, 69 56.646 M 78.250 68.789 C 75.902 69.033, 75 69.630, 75 70.941 C 75 74.805, 77.374 75.323, 95.498 75.414 C 112.804 75.500, 115.832 74.964, 114.080 72.130 C 113.022 70.418, 109.400 69.925, 94.789 69.504 C 88.348 69.318, 82.723 69.005, 82.289 68.809 C 81.855 68.613, 80.037 68.604, 78.250 68.789 M 78.500 84.993 C 76.251 85.373, 75.470 86.067, 75.379 87.763 C 75.217 90.792, 76.218 90.927, 97 90.695 L 114.500 90.500 114.152 88 C 113.961 86.625, 113.736 85.434, 113.652 85.354 C 113.180 84.900, 81.003 84.570, 78.500 84.993 M 83.186 127.082 C 80.334 128.192, 81.032 129.466, 85.834 131.916 C 93.346 135.748, 102 135.290, 102 131.060 C 102 129.966, 101.040 128.556, 99.866 127.928 C 97.127 126.463, 86.199 125.908, 83.186 127.082" stroke="none" fill="black" fill-rule="evenodd"/>
</svg>