<svg xmlns="http://www.w3.org/2000/svg" width="256" height="256" viewBox="0 0 256 256" version="1.1">
	<path d="M 91.214 28.563 C 90.099 29.344, 88.216 31.988, 87.029 34.440 C 85.091 38.444, 84.437 38.962, 80.593 39.538 C 78.082 39.915, 72.809 39.523, 67.829 38.590 C 55.520 36.283, 45.955 36.461, 42.653 39.058 C 40.257 40.943, 40.029 41.762, 39.936 48.808 C 39.880 53.039, 39.759 59.875, 39.667 64 L 39.500 71.500 43.500 71.794 C 49.918 72.267, 51.238 70.604, 51.930 61.178 C 52.258 56.721, 53.049 52.551, 53.689 51.911 C 55.549 50.051, 66.520 51.252, 69.763 53.671 C 73.618 56.546, 73.551 58.143, 69.459 60.915 C 63.639 64.858, 63.369 66.273, 67.066 73.481 C 68.877 77.011, 70.027 80.488, 69.681 81.388 C 69.342 82.272, 67.063 83.967, 64.617 85.156 C 59.367 87.706, 57.763 90.286, 57.414 96.742 C 57.272 99.359, 56.894 106.357, 56.573 112.294 C 56.253 118.230, 55.326 124.677, 54.515 126.619 C 52.728 130.895, 49 146.288, 49 149.388 C 49 152.433, 50.968 154.762, 54.200 155.541 C 56.293 156.045, 57.472 155.619, 59.450 153.641 C 61.520 151.571, 62 150.126, 62 145.969 C 62 141.620, 62.449 140.397, 64.976 137.871 C 67.800 135.046, 68.246 134.929, 73.781 135.555 C 81.694 136.450, 113.235 132.046, 114.588 129.857 C 114.880 129.386, 116.831 129, 118.924 129 C 123.196 129, 128 132.114, 128 134.884 C 128 136.792, 124.510 141, 122.927 141 C 122.380 141, 120.562 142.402, 118.887 144.116 C 115.255 147.831, 115.544 151.223, 119.792 154.746 C 123.696 157.983, 128.346 158.599, 133.010 156.495 C 138.443 154.046, 140.334 149.750, 139.526 141.694 C 139.185 138.287, 139.578 126.275, 140.399 115 C 142.144 91.041, 141.811 89.480, 134 84.977 C 130.312 82.851, 129.443 81.795, 129.181 79.121 C 129 77.261, 129.580 74.764, 130.530 73.314 C 132.090 70.932, 132.561 70.810, 137.849 71.413 C 155.801 73.460, 154.528 73.553, 155.960 70.097 C 156.837 67.979, 157.015 65.293, 156.513 61.738 C 156.107 58.857, 155.656 53.537, 155.511 49.916 C 155.367 46.295, 154.732 42.368, 154.101 41.189 C 152.372 37.958, 147.476 37.071, 141 38.817 C 133.535 40.830, 116.850 41.323, 110 39.734 C 105.055 38.587, 104.388 38.114, 103.391 35.047 C 102.184 31.335, 98.108 27.509, 95.121 27.284 C 94.087 27.206, 92.329 27.781, 91.214 28.563 M 129.727 53.607 C 129.522 53.811, 124.887 54.234, 119.427 54.546 C 113.967 54.858, 107.700 55.526, 105.500 56.032 C 103.300 56.537, 100.037 56.962, 98.250 56.976 C 96.463 56.989, 95 57.450, 95 58 C 95 58.550, 95.594 59, 96.320 59 C 97.045 59, 98.705 60.225, 100.007 61.723 C 101.990 64.004, 102.366 65.502, 102.328 70.973 C 102.273 78.699, 103.505 82, 106.440 82 C 109.672 82, 115.826 75.452, 116.622 71.164 C 118.211 62.616, 123.397 60.759, 131.439 65.859 C 133.919 67.432, 135.660 69.007, 135.307 69.359 C 133.383 71.284, 136.475 69.593, 139.009 67.335 C 142.492 64.231, 143.065 59.274, 140.235 56.713 C 138.559 55.196, 130.515 52.818, 129.727 53.607 M 79.750 57.068 C 75.521 59.301, 75.414 59.662, 77.500 64.654 C 78.325 66.629, 79.002 69.877, 79.004 71.872 C 79.008 76.237, 82.286 82.012, 84.735 81.969 C 87.819 81.914, 89.670 77.960, 89.780 71.193 C 89.878 65.173, 91.632 59, 93.244 59 C 93.660 59, 94 58.377, 94 57.617 C 94 54.537, 85.188 54.197, 79.750 57.068 M 85.750 95.747 C 83.138 95.946, 81 96.551, 81 97.090 C 81 97.691, 80.204 97.644, 78.941 96.969 C 76.445 95.633, 71.373 96.586, 70.626 98.532 C 70.095 99.917, 72.379 103, 73.937 103 C 74.373 103, 75.874 102.100, 77.273 101 C 80.386 98.551, 87.468 98.333, 92.714 100.525 C 95.440 101.664, 98.176 101.886, 103.517 101.402 L 110.669 100.754 113.901 104.127 C 116.853 107.207, 117.088 107.916, 116.609 112.291 C 116.138 116.594, 116.322 117.190, 118.420 118.146 C 120.226 118.968, 121.578 118.820, 124.378 117.491 C 126.370 116.546, 128.034 115.261, 128.076 114.636 C 128.513 108.085, 127.618 99.110, 126.329 97.122 C 124.877 94.884, 124.394 94.783, 118.143 95.408 C 109.543 96.268, 110.916 96.240, 100 95.782 C 94.775 95.563, 88.362 95.547, 85.750 95.747 M 71.638 111.305 C 69.301 114.442, 67.645 121.911, 68.686 124.623 C 69.395 126.471, 73.510 126.367, 76.473 124.426 C 78.166 123.316, 82.205 122.718, 90.156 122.398 C 101.483 121.942, 106 120.592, 106 117.662 C 106 115.469, 99.849 113.290, 89.961 111.980 C 84.757 111.291, 79.042 110.138, 77.259 109.418 C 74.142 108.160, 73.927 108.232, 71.638 111.305" stroke="none" fill="black" fill-rule="evenodd"/>
</svg>