<svg xmlns="http://www.w3.org/2000/svg" width="256" height="256" viewBox="0 0 256 256" version="1.1">
	<path d="M 90.222 26.264 C 89.052 27.509, 87.386 30.225, 86.519 32.299 C 84.369 37.446, 81.563 38.349, 70.500 37.454 C 65.550 37.054, 57.225 36.805, 52 36.902 C 43.636 37.057, 42.284 37.334, 40.690 39.224 C 39.195 40.997, 38.991 42.423, 39.516 47.435 C 39.865 50.771, 39.696 55.499, 39.139 57.941 C 37.128 66.761, 40.540 72.102, 46.793 69.922 C 50.482 68.636, 51.141 66.968, 51.360 58.359 C 51.473 53.919, 51.988 51.596, 53.012 50.898 C 53.952 50.257, 58.923 50.126, 66.500 50.541 C 73.100 50.903, 87.500 51.348, 98.500 51.530 C 124.661 51.963, 134.519 52.700, 137.963 54.481 C 140.933 56.017, 143 60.375, 143 65.102 C 143 72.222, 148.485 76.352, 154.090 73.454 C 155.696 72.623, 157.056 71.064, 157.125 69.974 C 157.194 68.888, 157.323 67.438, 157.412 66.750 C 157.501 66.063, 156.728 62.618, 155.693 59.094 C 154.630 55.473, 154.066 51.422, 154.395 49.774 C 154.737 48.065, 154.374 45.690, 153.519 44.036 C 151.696 40.511, 144.422 38.503, 136.572 39.359 C 129.541 40.126, 106.241 38.445, 104.560 37.049 C 103.834 36.448, 102.976 34.728, 102.651 33.228 C 101.878 29.649, 96.760 24, 94.293 24 C 93.223 24, 91.392 25.019, 90.222 26.264 M 73.272 59.776 C 69.666 60.948, 67 63.798, 67 66.483 C 67 68.380, 68.202 69.772, 71.972 72.242 C 77.113 75.611, 78.284 77.108, 77.451 79.250 C 76.846 80.808, 70.422 84.486, 66.761 85.371 C 63.078 86.261, 51.302 91.931, 50.082 93.401 C 48.610 95.175, 51.070 99.301, 54.269 100.426 C 56.378 101.167, 59.089 100.757, 66.248 98.612 C 84.875 93.032, 85.126 92.984, 86.826 94.683 C 88.939 96.796, 87.662 98.408, 82.862 99.692 C 79.899 100.484, 76.858 102.456, 73.488 105.770 C 69.322 109.868, 67.347 110.981, 61.500 112.529 C 53.657 114.605, 49.200 117.354, 48.380 120.620 C 47.728 123.218, 49.516 127, 51.396 127 C 53.934 127, 68.062 122.125, 71.270 120.142 C 73.047 119.044, 76.697 117.400, 79.383 116.488 C 82.068 115.577, 85.166 113.992, 86.266 112.967 C 89.944 109.540, 93.587 108.887, 96.452 111.141 C 97.854 112.243, 99 113.555, 99 114.056 C 99 114.557, 96.688 116.138, 93.863 117.570 C 91.037 119.001, 87.656 121.444, 86.348 122.998 C 84.788 124.852, 81.729 126.527, 77.447 127.871 C 71.724 129.667, 65.510 133.006, 64 135.096 C 63.725 135.476, 59.590 137.644, 54.812 139.912 C 45.923 144.131, 43.633 146.648, 46.040 149.548 C 47.769 151.632, 50.609 151.381, 64.235 147.941 C 78.105 144.439, 77.969 144.499, 84.543 139.066 C 88.317 135.948, 90.317 135, 93.125 135 C 96.898 135, 98 136.169, 98 140.172 C 98 141.277, 95.796 144.305, 93.103 146.901 C 89.060 150.798, 88.294 152.087, 88.714 154.286 C 89.376 157.745, 93.663 162, 96.486 162 C 99.922 162, 106.274 156.806, 110.063 150.900 L 113.500 145.542 113.500 131.322 C 113.500 116.215, 113.970 114.576, 118.135 115.165 C 119.915 115.417, 121.241 117.033, 123.500 121.705 C 126.959 128.860, 138.648 141.537, 145.475 145.538 C 151.266 148.932, 155.371 148.618, 155.817 144.748 C 155.993 143.215, 155.295 140.779, 154.241 139.248 C 153.201 137.737, 151.771 135.050, 151.065 133.278 C 149.745 129.966, 135.151 115.494, 131.400 113.777 C 130.108 113.186, 129.243 111.791, 129.153 110.158 C 129.072 108.696, 128.934 106.825, 128.846 106 C 128.316 101.060, 129.137 98.887, 132.250 96.989 C 134.037 95.900, 135.942 94.859, 136.482 94.677 C 138.868 93.872, 136.878 88.588, 132.912 85.193 C 128.913 81.770, 128.839 81.589, 129.391 76.598 C 130.574 65.893, 129.645 64.184, 121.506 62.095 C 114.785 60.371, 77.031 58.556, 73.272 59.776 M 96.777 78.007 C 94.390 80.610, 93.873 83.986, 95.857 84.007 C 96.211 84.011, 97.625 85.698, 99 87.757 C 104.177 95.508, 107.077 98, 110.920 98 C 113.554 98, 114.909 97.397, 115.974 95.750 C 116.774 94.513, 117.452 93.275, 117.480 93 C 117.508 92.725, 117.970 91.825, 118.507 91 C 120.153 88.472, 122.204 82.635, 122.356 80.046 C 122.573 76.341, 118.945 75.029, 108.500 75.034 C 99.801 75.038, 99.409 75.137, 96.777 78.007" stroke="none" fill="black" fill-rule="evenodd"/>
</svg>