<svg xmlns="http://www.w3.org/2000/svg" width="256" height="256" viewBox="0 0 256 256" version="1.1">
	<path d="M 89.582 28.303 C 88.162 30.165, 87 32.139, 87 32.689 C 87 33.240, 86.159 34.451, 85.131 35.381 C 83.014 37.298, 78.586 37.434, 57.247 36.241 C 42.391 35.410, 38.716 35.978, 36.438 39.455 C 34.251 42.791, 35.420 54.993, 38.274 58.621 C 39.995 60.809, 40.128 61.675, 39.207 64.677 C 37.864 69.053, 38.321 70.244, 42.587 73.498 C 48.327 77.877, 46.659 82.187, 37.433 86.814 C 32.480 89.298, 30.765 91.223, 31.590 93.373 C 32.030 94.520, 33.459 95, 36.429 95 C 41.832 95, 50 97.765, 50 99.594 C 50 100.367, 49.559 101, 49.020 101 C 47.538 101, 44.001 108.541, 43.996 111.710 C 43.994 113.245, 43.054 116.040, 41.907 117.921 C 40.311 120.539, 39.985 122.183, 40.517 124.921 C 40.899 126.890, 41.078 132.100, 40.914 136.500 C 40.258 154.152, 40.289 154.470, 42.703 154.813 C 44.168 155.022, 46.381 153.768, 49.302 151.076 C 54.609 146.184, 57.936 144.729, 68.883 142.512 C 75.843 141.102, 77.412 141.042, 78.118 142.157 C 79.446 144.252, 79.232 144.740, 75.500 148.136 C 71.328 151.933, 70.918 155.635, 74.314 158.826 C 81.071 165.173, 95.217 157.113, 93.237 148.044 C 92.932 146.645, 92.717 144.600, 92.760 143.500 C 92.921 139.336, 93.998 128.349, 94.607 124.659 C 95 122.272, 94.754 119.909, 93.957 118.419 C 92.926 116.494, 92.917 115.278, 93.911 112.260 C 95.182 108.397, 94.335 103.943, 92.062 102.538 C 90.288 101.442, 90.859 100.177, 93.750 98.797 C 96.082 97.684, 96.546 96.778, 96.801 92.846 C 97.067 88.731, 96.786 87.989, 94.301 86.267 C 92.760 85.199, 90.675 84.027, 89.667 83.662 C 87.245 82.786, 87.960 80.984, 91.569 78.866 C 95.959 76.290, 100.594 76.469, 101.499 79.250 C 101.902 80.487, 102.348 81.838, 102.490 82.250 C 102.633 82.662, 102.806 83.381, 102.875 83.847 C 102.944 84.313, 103.812 85.630, 104.804 86.774 C 106.287 88.484, 107.927 88.893, 114.054 89.076 C 122.462 89.327, 124 89.693, 124 91.440 C 124 92.115, 123.438 92.714, 122.750 92.773 C 103.684 94.389, 101.413 95.891, 101.987 106.500 C 102.386 113.870, 102.358 117.269, 101.814 127.500 C 101.172 139.588, 102.565 146.491, 106.367 150.054 C 108.090 151.669, 110.072 152.993, 110.771 152.995 C 111.471 152.998, 113.914 154.238, 116.201 155.750 C 120.303 158.463, 120.572 158.500, 136.429 158.500 C 154.922 158.500, 157.776 157.699, 159.637 151.988 C 160.601 149.029, 160.475 147.914, 158.808 144.636 C 157.727 142.511, 155.978 140.546, 154.921 140.269 C 153.865 139.993, 153 139.369, 153 138.883 C 153 138.398, 152.213 137.993, 151.250 137.985 C 149.754 137.972, 149.718 137.828, 151 137 C 151.978 136.368, 152.070 136.025, 151.263 136.015 C 149.898 135.998, 147.105 130.065, 147.148 127.273 C 147.163 126.298, 146.456 123.567, 145.576 121.203 C 144.697 118.840, 144.190 115.735, 144.450 114.303 C 144.743 112.687, 144.179 110.655, 142.961 108.945 C 140.458 105.430, 140.471 105.358, 143.750 104.689 C 145.262 104.381, 147.963 102.910, 149.750 101.419 C 152.767 98.904, 153 98.271, 153 92.597 C 153 88.087, 152.377 85.306, 150.623 81.992 C 148.257 77.522, 148.431 73, 150.968 73 C 152.556 73, 152.191 68.403, 150.490 66.992 C 149.602 66.255, 146.514 65.795, 142.989 65.874 C 137.332 66.002, 122.870 63.966, 118.500 62.426 C 117.400 62.039, 114.747 59.914, 112.604 57.704 C 108.938 53.923, 108.816 53.607, 110.545 52.343 C 111.866 51.378, 116.138 51, 125.741 51 C 140.064 51, 142.442 51.607, 146.924 56.405 C 150.084 59.787, 154.384 59.869, 156.533 56.590 C 158.650 53.359, 157.864 43.632, 155.199 40.071 L 153.274 37.500 129.527 37.500 L 105.779 37.500 104.140 35.154 C 100.866 30.470, 96.452 26.141, 94.332 25.536 C 92.658 25.058, 91.577 25.688, 89.582 28.303 M 50.295 49.014 C 47.587 50.105, 43.688 57.441, 44.484 59.949 C 45.654 63.636, 52.220 63.936, 58.797 60.603 C 66.577 56.661, 68.871 56.801, 73.433 61.498 C 76.442 64.597, 77.712 65.119, 84.563 66.072 C 88.816 66.664, 93.242 67.742, 94.398 68.470 C 98.724 71.190, 100.795 71.243, 102.477 68.676 C 103.788 66.674, 103.880 65.426, 103.003 61.514 C 102.241 58.114, 102.251 56.403, 103.038 55.455 C 103.871 54.450, 103.579 53.771, 101.817 52.618 C 100.059 51.468, 96.366 51.091, 86.500 51.055 C 79.350 51.029, 72.375 50.779, 71 50.499 C 58.797 48.017, 53.684 47.650, 50.295 49.014 M 121 76.066 C 121 77.610, 121.707 78, 124.500 78 C 129.746 78, 129.167 75.613, 123.680 74.618 C 121.530 74.228, 121 74.515, 121 76.066 M 61.775 76.559 C 60.276 77.372, 58.536 78.999, 57.906 80.175 C 55.378 84.898, 65.057 87.814, 71.913 84.394 C 74.031 83.337, 74.939 82.283, 74.566 81.312 C 74.255 80.500, 74 79.435, 74 78.944 C 74 77.749, 68.558 74.990, 66.300 75.040 C 65.310 75.062, 63.274 75.746, 61.775 76.559 M 129 76.500 C 129 78.039, 131.611 78.470, 134.412 77.395 C 136.796 76.481, 135.268 75, 131.941 75 C 129.993 75, 129 75.507, 129 76.500 M 127.250 89.706 C 126.013 89.944, 125 90.532, 125 91.012 C 125 91.492, 125.900 91.712, 127 91.500 C 128.100 91.288, 129 91.539, 129 92.057 C 129 93.531, 135.621 93.162, 136.903 91.617 C 138.806 89.324, 134.083 88.390, 127.250 89.706 M 65.538 97.939 C 65.219 98.455, 64.067 98.706, 62.979 98.496 C 61.842 98.277, 61 98.658, 61 99.391 C 61 100.093, 61.563 100.706, 62.250 100.753 C 62.938 100.801, 64.625 101.131, 66 101.488 C 74.510 103.694, 80 103.164, 80 100.136 C 80 98.638, 79.275 98.344, 75.964 98.502 C 73.745 98.607, 71.693 98.312, 71.405 97.847 C 70.696 96.700, 66.261 96.769, 65.538 97.939 M 117 106.500 C 117 107.384, 117.923 108.006, 119.250 108.015 C 121.069 108.028, 121.213 108.216, 120 109 C 118.718 109.828, 118.754 109.972, 120.250 109.985 C 121.213 109.993, 122 109.325, 122 108.500 C 122 107.215, 124.493 106.446, 127.250 106.882 C 127.662 106.947, 128 106.550, 128 106 C 128 105.450, 125.525 105, 122.500 105 C 118.278 105, 117 105.348, 117 106.500 M 129 106.031 C 129 106.599, 130.575 106.957, 132.500 106.827 C 134.425 106.697, 136 106.233, 136 105.796 C 136 105.358, 134.425 105, 132.500 105 C 130.575 105, 129 105.464, 129 106.031 M 62.636 112.154 C 57.577 113.122, 54.163 115.365, 56.012 116.507 C 56.577 116.857, 58.493 116.663, 60.270 116.078 C 62.046 115.493, 64.578 115.223, 65.895 115.478 C 68.804 116.040, 75.018 120.163, 74.418 121.132 C 74.181 121.516, 74.553 122.020, 75.244 122.253 C 76.200 122.576, 76.078 123.568, 74.733 126.407 C 72.793 130.503, 72.996 131.504, 75.920 132.269 C 78.287 132.888, 82.759 130.087, 81.069 129.043 C 79.224 127.903, 78.989 120.737, 80.732 118.775 C 82.130 117.201, 81.981 116.785, 79.027 114.025 C 75.486 110.718, 72.141 110.336, 62.636 112.154 M 117.792 116.057 C 116.849 116.606, 116.337 117.714, 116.649 118.526 C 117.359 120.378, 120.736 120.366, 124 118.500 C 126.415 117.119, 126.426 117.070, 124.309 117.035 C 123.104 117.016, 121.840 116.550, 121.500 116 C 120.738 114.767, 119.985 114.778, 117.792 116.057 M 118.269 121.693 C 119.242 121.947, 120.592 121.930, 121.269 121.656 C 121.946 121.382, 121.150 121.175, 119.500 121.195 C 117.850 121.215, 117.296 121.439, 118.269 121.693 M 55.068 127.152 C 51.800 130.196, 52.671 133.421, 56.869 133.822 C 60.693 134.188, 66.014 132.322, 65.973 130.629 C 65.957 130.008, 63.989 128.514, 61.598 127.309 L 57.250 125.118 55.068 127.152 M 119.427 140.393 C 117.316 142.666, 116.993 144.997, 118.781 145.064 C 121.105 145.150, 128.279 145.803, 135.181 146.557 C 138.544 146.924, 141.603 146.745, 142.681 146.119 C 143.783 145.478, 143.979 145.049, 143.179 145.030 C 142.200 145.008, 142.278 144.580, 143.476 143.381 C 144.968 141.889, 144.876 141.645, 142.298 140.276 C 139.951 139.029, 138.512 138.981, 133.380 139.978 C 129.291 140.771, 126.130 140.854, 123.857 140.226 C 121.526 139.583, 120.132 139.635, 119.427 140.393" stroke="none" fill="black" fill-rule="evenodd"/>
</svg>