<svg xmlns="http://www.w3.org/2000/svg" width="256" height="256" viewBox="0 0 256 256" version="1.1">
	<path d="M 91.232 27.253 C 90.068 28.492, 88.842 31.080, 88.507 33.003 C 87.500 38.790, 86.037 39.550, 76.715 39.122 C 65.102 38.589, 62.614 38.554, 52.705 38.791 C 44.905 38.976, 43.637 39.272, 41.509 41.400 C 39.279 43.630, 39.109 44.543, 39.125 54.225 C 39.141 65.160, 40.244 69.231, 43.350 69.829 C 46.250 70.387, 48.998 67.121, 49.015 63.095 C 49.023 61.118, 49.599 58.375, 50.294 57 C 52.606 52.430, 55.045 52.045, 71.500 53.650 C 82.540 54.727, 87.952 54.843, 92 54.091 C 96.617 53.234, 118.310 52.643, 134.795 52.926 C 141.203 53.036, 144 56.228, 144 63.431 C 144 68.178, 144.342 69.178, 146.433 70.548 C 149.146 72.326, 152.194 71.376, 153.878 68.227 C 154.951 66.220, 154.178 45.258, 152.945 42.920 C 151.076 39.376, 143.469 38.233, 125.283 38.766 C 104.780 39.366, 102 38.717, 102 33.333 C 102 29.491, 98.346 25, 95.220 25 C 94.191 25, 92.396 26.014, 91.232 27.253 M 103.637 62.696 C 103.254 63.079, 97.356 63.281, 90.530 63.145 C 79.843 62.933, 77.583 63.172, 74.257 64.869 C 70.666 66.701, 68 70.333, 68 73.392 C 68 75.813, 71.627 77.988, 76.573 78.533 C 79.283 78.831, 83.899 79.589, 86.831 80.217 L 92.163 81.358 91.621 90.307 C 91.322 95.228, 90.795 99.535, 90.448 99.878 C 90.101 100.220, 86.371 100.565, 82.159 100.645 C 77.946 100.725, 71.215 101.115, 67.199 101.511 C 59.903 102.231, 51 100.780, 51 98.870 C 51 97.105, 46.761 98.071, 44.944 100.250 C 42.772 102.853, 42.637 104.151, 44.018 109.123 C 44.891 112.266, 45.587 112.892, 49.262 113.843 C 51.593 114.446, 58.291 115.417, 64.146 116.001 C 73.346 116.918, 75.383 116.838, 79.146 115.416 C 91.727 110.658, 93.832 112.382, 93.895 127.500 C 93.943 139.222, 92.283 144.461, 88.195 145.487 C 84.772 146.346, 80 149.811, 80 151.438 C 80 153.272, 88.411 155.500, 95.332 155.500 C 100.629 155.500, 101.426 155.207, 104.020 152.303 C 108.662 147.108, 109.717 139.530, 107.505 127.269 C 105.601 116.712, 113.207 112.342, 131.271 113.611 C 144.504 114.542, 151.008 112.118, 149.649 106.763 C 148.861 103.659, 146.181 102.228, 139.863 101.539 C 136.913 101.217, 130.225 100.453, 125 99.841 C 119.775 99.229, 113.700 98.595, 111.500 98.432 C 109.300 98.269, 107.221 98.105, 106.880 98.068 C 105.934 97.964, 103.957 89.816, 104.218 87.096 C 104.509 84.061, 113.209 77, 116.656 77 C 120.724 77, 123 75.223, 123 72.047 C 123 67.570, 122.057 66.070, 117.917 63.957 C 114.167 62.044, 105.091 61.243, 103.637 62.696" stroke="none" fill="black" fill-rule="evenodd"/>
</svg>