<svg xmlns="http://www.w3.org/2000/svg" width="256" height="256" viewBox="0 0 256 256" version="1.1">
	<path d="M 111.903 29.431 C 111.666 29.667, 100.453 30.141, 86.986 30.482 C 73.519 30.823, 61.150 31.354, 59.500 31.662 C 55.399 32.428, 53 34.779, 53 38.034 C 53 42.739, 56.754 43.488, 79 43.223 C 95.210 43.029, 99.123 43.265, 102.191 44.620 C 104.221 45.517, 106.109 46.842, 106.387 47.566 C 106.665 48.291, 104.428 51.262, 101.399 54.190 C 93.714 61.620, 93.189 62.918, 93.756 73.101 C 94.205 81.160, 94.086 81.846, 91.868 83.967 C 89.548 86.185, 89.154 86.220, 72.500 85.694 C 63.150 85.399, 52.508 85.405, 48.852 85.708 C 43.058 86.187, 42.062 86.568, 41.102 88.676 C 39.487 92.219, 39.757 96.614, 41.708 98.565 C 43.211 100.068, 44.624 100.174, 53.458 99.447 C 64.276 98.557, 71.449 98.414, 77 98.979 C 78.925 99.174, 83.231 98.985, 86.570 98.559 C 95.877 97.368, 95.881 97.376, 95.570 118.379 C 95.340 133.967, 95.087 136.220, 93.156 139.924 C 88.850 148.187, 91.121 153, 99.329 153 C 102.667 153, 104.571 152.429, 106 151 C 108.386 148.614, 108.234 149.663, 108.523 133.500 C 109.067 103.075, 108.957 104.423, 111.083 102.141 C 112.180 100.964, 113.226 100, 113.408 100 C 113.589 100, 117.701 99.309, 122.545 98.464 C 129.888 97.184, 132.555 97.131, 138.597 98.146 C 147.226 99.596, 153.078 98.337, 155.600 94.487 C 157.070 92.245, 157.050 91.768, 155.346 88.287 C 152.160 81.778, 145.248 80.233, 136.544 84.084 C 133.164 85.579, 130.656 86.012, 127.667 85.618 C 125.375 85.315, 120.125 84.766, 116 84.397 C 105.826 83.486, 105 82.953, 105 77.309 C 105 72.889, 106.952 69.070, 111.714 64.179 C 112.421 63.452, 113 62.435, 113 61.919 C 113 61.404, 114.237 59.635, 115.750 57.989 C 120.590 52.722, 121 52.118, 121 50.256 C 121 48.009, 128.172 42.341, 132.110 41.476 C 135.851 40.654, 135.753 39.727, 131.434 35.058 C 129.049 32.481, 126.418 30.839, 123.491 30.102 C 119.098 28.996, 112.708 28.626, 111.903 29.431" stroke="none" fill="black" fill-rule="evenodd"/>
</svg>