<svg xmlns="http://www.w3.org/2000/svg" width="256" height="256" viewBox="0 0 256 256" version="1.1">
	<path d="M 89.949 28.543 C 82.915 34.419, 83.069 34.388, 62.001 34.168 C 41.316 33.951, 37.598 34.559, 36.379 38.358 C 35.378 41.479, 35.193 57.220, 36.135 59.128 C 37.442 61.772, 41.717 61.991, 45.272 59.596 C 47.720 57.946, 48.626 56.438, 49.205 53.048 C 49.618 50.625, 50.443 48.161, 51.038 47.572 C 52.167 46.453, 65.196 46.414, 72.750 47.507 C 79.136 48.432, 78.257 50.652, 70.934 52.093 C 60.806 54.085, 59.590 56.220, 61.583 68.500 C 62.525 74.306, 63.632 75.869, 68.050 77.637 C 72.492 79.414, 73.086 80.739, 69.750 81.424 C 68.513 81.678, 65.228 82.384, 62.451 82.994 C 58.882 83.778, 56.591 83.795, 54.636 83.052 C 53.114 82.473, 49.884 82, 47.458 82 C 43.879 82, 42.743 82.463, 41.440 84.451 C 39.402 87.562, 40.206 90.100, 43.925 92.297 C 46.094 93.578, 50.030 94.165, 59.102 94.562 C 72.658 95.154, 77.325 96.423, 70.191 97.577 C 63.623 98.640, 62.049 100.474, 61.854 107.294 C 61.761 110.567, 62.191 113.591, 62.844 114.244 C 63.480 114.880, 64 116.498, 64 117.840 C 64 119.182, 64.692 120.785, 65.537 121.404 C 66.383 122.022, 67.170 124.096, 67.287 126.014 C 67.483 129.226, 67.147 129.673, 63 131.709 C 60.525 132.924, 56.648 133.936, 54.385 133.959 C 49.331 134.009, 45.412 136.846, 44.470 141.137 C 43.302 146.456, 47.414 147.122, 55.614 142.942 C 60.439 140.482, 65.119 140.466, 68.124 142.899 C 70.341 144.695, 70.402 145.048, 69.245 149.375 C 66.933 158.018, 70.689 161.518, 79.940 159.340 C 82.998 158.620, 87.356 158.024, 89.625 158.016 C 98.721 157.981, 102.361 155.913, 103.471 150.148 C 104.129 146.736, 99.807 144.033, 94.707 144.666 C 84.401 145.945, 82.311 144.605, 84.111 137.874 C 85.307 133.404, 88.093 131, 92.077 131 C 95.088 131, 101 133.990, 101 135.513 C 101 136.331, 101.450 137, 102 137 C 102.550 137, 103 137.609, 103 138.354 C 103 140.879, 107.784 145, 110.716 145 C 115.115 145, 123.541 148.477, 129.271 152.657 C 134.238 156.279, 134.941 156.489, 143.309 156.837 C 150.649 157.142, 152.441 156.911, 154.059 155.447 C 158.074 151.814, 155.525 146.655, 149.078 145.366 C 144.724 144.495, 140.750 140.711, 140.750 137.435 C 140.750 135.657, 141.901 133.882, 144.375 131.842 L 148 128.854 142.500 121.825 C 137.175 115.020, 137 114.597, 137 108.572 C 137 103.399, 136.620 101.998, 134.750 100.274 C 133.512 99.133, 131.600 97.982, 130.500 97.716 C 128.691 97.278, 128.715 97.221, 130.750 97.116 C 131.988 97.052, 133.287 97.038, 133.638 97.085 C 133.989 97.132, 134.571 96.694, 134.931 96.112 C 135.291 95.529, 138.941 94.792, 143.043 94.474 C 157.691 93.336, 159.426 92.509, 156.146 88.228 C 154.818 86.494, 151.793 85.576, 140.500 83.481 C 124.991 80.605, 124.556 80.558, 121 81.413 C 119.625 81.743, 112.971 82.123, 106.214 82.257 C 96.193 82.455, 93.753 82.223, 92.979 81 C 92.275 79.886, 92.027 79.842, 92.015 80.828 C 92.003 81.867, 90.208 82.038, 83.750 81.615 C 73.032 80.912, 73 80.905, 73 79.274 C 73 78.509, 73.419 78.141, 73.931 78.457 C 74.443 78.774, 75.144 78.575, 75.490 78.016 C 75.835 77.457, 78.593 77, 81.618 77 C 84.643 77, 86.909 77.338, 86.655 77.750 C 86.400 78.162, 87.723 78.586, 89.596 78.692 C 91.664 78.808, 93.006 78.416, 93.015 77.692 C 93.025 76.975, 93.417 77.097, 94 78 C 94.862 79.333, 94.973 79.333, 95 78 C 95.027 76.667, 95.138 76.667, 96 78 C 96.646 79, 96.974 79.083, 96.985 78.250 C 96.994 77.491, 98.375 77, 100.500 77 C 102.625 77, 104.006 77.491, 104.015 78.250 C 104.026 79.083, 104.354 79, 105 78 C 105.583 77.097, 105.975 76.975, 105.985 77.692 C 105.994 78.421, 107.357 78.809, 109.500 78.692 C 111.424 78.586, 112.999 78.162, 113 77.750 C 113 77.338, 116.822 77, 121.492 77 C 128.711 77, 130.350 76.682, 132.422 74.881 C 134.281 73.265, 134.671 72.255, 134.064 70.631 C 133.626 69.459, 132.946 65.876, 132.552 62.668 C 132.158 59.460, 130.946 55.328, 129.858 53.485 L 127.881 50.134 130.130 48.931 C 133.007 47.391, 138.981 47.384, 141.847 48.918 C 143.071 49.573, 144.336 51.428, 144.658 53.040 C 145.436 56.928, 149.327 61, 152.264 61 C 153.561 61, 155.650 60.043, 156.906 58.873 C 158.788 57.120, 159.074 56.109, 158.535 53.123 C 158.175 51.130, 157.644 47.025, 157.354 44 C 156.941 39.682, 156.255 37.997, 154.164 36.158 C 151.512 33.826, 151.421 33.819, 133.500 34.517 C 112.311 35.342, 108.531 34.662, 102.272 28.895 C 99.947 26.753, 97.177 25, 96.117 25 C 95.057 25, 92.281 26.594, 89.949 28.543 M 88.659 49.447 C 88.246 50.524, 89.238 51.063, 92.545 51.559 C 97.378 52.284, 104 51.418, 104 50.062 C 104 47.602, 89.588 47.025, 88.659 49.447 M 109.566 49.893 C 108.859 51.038, 113.344 52.189, 115.415 51.394 C 116.280 51.062, 116.740 50.388, 116.435 49.895 C 115.717 48.733, 110.284 48.732, 109.566 49.893 M 83.507 97.011 C 84.225 98.173, 90 97.974, 90 96.787 C 90 96.354, 88.398 96, 86.441 96 C 84.297 96, 83.130 96.402, 83.507 97.011 M 84.873 109.881 C 84.563 110.812, 82.893 111.231, 79.749 111.168 C 77.183 111.117, 73.919 111.679, 72.495 112.418 C 70.046 113.689, 69.998 113.856, 71.624 115.481 C 72.987 116.844, 74.190 117.042, 77.422 116.438 C 79.665 116.018, 89.541 115.560, 99.368 115.419 C 109.196 115.279, 117.671 114.729, 118.202 114.198 C 118.822 113.578, 118.355 112.477, 116.895 111.117 C 114.282 108.682, 113.370 108.496, 112.662 110.250 C 112.259 111.250, 112.142 111.250, 112.079 110.250 C 112.032 109.509, 110.608 109, 108.583 109 C 106.704 109, 104.940 109.563, 104.662 110.250 C 104.259 111.250, 104.142 111.250, 104.079 110.250 C 103.953 108.262, 99.585 108.801, 98 111 C 96.392 113.231, 94.008 113.676, 93.985 111.750 C 93.974 110.917, 93.646 111, 93 112 C 92.354 113, 92.026 113.083, 92.015 112.250 C 92.007 111.539, 90.742 111, 89.083 111 C 87.479 111, 85.979 110.438, 85.750 109.750 C 85.438 108.813, 85.218 108.846, 84.873 109.881 M 116.250 125.592 C 112.215 127.650, 112.121 129.494, 115.950 131.474 C 119.398 133.257, 123.031 133.397, 128.250 131.947 C 132.416 130.790, 132.623 130.480, 130.589 128.446 C 129.813 127.671, 129.026 126.584, 128.839 126.032 C 128.193 124.119, 119.718 123.824, 116.250 125.592" stroke="none" fill="black" fill-rule="evenodd"/>
</svg>