<svg xmlns="http://www.w3.org/2000/svg" width="256" height="256" viewBox="0 0 256 256" version="1.1">
	<path d="M 88.972 29.030 C 87.338 30.780, 86 32.784, 86 33.483 C 86 37.046, 77.830 39.432, 71.006 37.863 C 68.528 37.293, 60.881 36.872, 54.014 36.927 C 37.907 37.057, 37.771 37.166, 36.869 50.771 C 36.162 61.449, 36.682 63, 40.967 63 C 44.265 63, 46.527 60.677, 48.332 55.434 C 50.179 50.068, 52.953 48.769, 61.119 49.443 C 68.213 50.029, 78 52.759, 78 54.152 C 78 54.618, 77.467 55, 76.814 55 C 76.162 55, 74.700 55.844, 73.564 56.875 C 72.429 57.906, 69.120 59.523, 66.212 60.468 C 60.229 62.412, 56.933 66.074, 58.668 68.851 C 59.235 69.758, 61.879 71.049, 64.544 71.720 C 67.242 72.400, 70.429 74.061, 71.734 75.469 C 74.061 77.979, 74.064 78.015, 72.137 80.084 C 71.068 81.231, 68.283 82.598, 65.947 83.123 C 63.611 83.648, 60.364 85.029, 58.731 86.191 L 55.763 88.305 56.512 96.903 C 56.924 101.631, 57.343 107.075, 57.444 109 C 57.689 113.678, 58.943 117.220, 60.896 118.747 C 62.348 119.882, 62.310 120.120, 60.500 121.251 C 57.140 123.349, 54.402 123.805, 49.993 122.999 C 46.524 122.364, 45.437 122.563, 43.886 124.114 C 41.304 126.696, 41.347 133.347, 43.963 135.963 C 45.805 137.805, 46.223 137.837, 50.713 136.474 C 56.665 134.668, 65.922 134.625, 68.250 136.392 C 69.213 137.123, 70 138.614, 70 139.705 C 70 143.667, 62.078 147.604, 51.986 148.659 C 46.713 149.210, 46.010 149.561, 44.925 152.181 C 43.589 155.406, 44.818 159.609, 47.383 160.594 C 49.833 161.534, 71.880 158.186, 74.757 156.437 C 76.266 155.520, 79.211 152.551, 81.301 149.839 C 86.261 143.406, 90.292 141.008, 96.161 141.004 C 100.093 141.001, 101.209 141.460, 103.295 143.938 C 104.919 145.868, 107.698 147.438, 111.395 148.513 C 114.491 149.412, 118.313 151.234, 119.889 152.560 C 122.849 155.050, 136.745 158.980, 142.639 158.993 C 144.366 158.997, 146.793 158.178, 148.033 157.174 C 149.887 155.673, 150.173 154.733, 149.639 151.887 C 148.802 147.427, 144.480 144.785, 137.374 144.391 C 134.468 144.230, 130.774 143.418, 129.166 142.586 C 126.257 141.082, 124.402 138.264, 125.560 137.107 C 125.894 136.773, 130.451 136.490, 135.688 136.478 C 144.852 136.458, 145.300 136.352, 147.605 133.673 C 148.922 132.141, 150 130.024, 150 128.967 C 150 125.159, 146.394 124.268, 130 124.029 C 109.651 123.733, 105.956 123.535, 103.163 122.596 L 100.826 121.810 103.115 120.207 C 104.893 118.962, 107.204 118.692, 113.452 119.001 C 129.305 119.786, 130.077 119.650, 133.605 115.448 C 136.031 112.558, 136.924 110.351, 137.392 106.083 C 138.150 99.172, 137.321 86.091, 136.025 84.530 C 135.112 83.429, 127.658 79.843, 123.614 78.558 C 121.810 77.985, 121.805 77.873, 123.487 76.014 C 124.455 74.945, 127.637 73.375, 130.559 72.526 C 136.692 70.743, 138.444 67.975, 135.355 64.948 C 132.810 62.455, 117.499 55.877, 112.764 55.242 C 107.290 54.507, 103.426 58.270, 102.462 65.273 C 101.797 70.113, 101.906 70.443, 105.103 73.234 C 106.937 74.835, 109.127 76.557, 109.969 77.061 C 111.269 77.837, 111.123 78.276, 109 79.965 C 106.002 82.352, 103.131 82.473, 96.591 80.489 C 93.891 79.670, 89.755 79, 87.400 79 C 85.045 79, 82.840 78.550, 82.500 78 C 81.974 77.149, 82.716 76.908, 85.519 77.021 C 85.805 77.032, 87.015 76.132, 88.208 75.021 C 89.401 73.909, 90.734 73, 91.170 73 C 91.605 73, 92.220 71.970, 92.536 70.712 C 93.341 67.505, 89.837 59.882, 86.121 56.755 L 83.011 54.139 88.756 52.465 C 92.964 51.239, 95.971 50.991, 100 51.539 C 106.230 52.387, 115.753 52.334, 127.550 51.388 C 134.008 50.869, 136.233 51.069, 138.800 52.397 C 140.560 53.307, 142 54.554, 142 55.167 C 142 55.781, 143.346 57.570, 144.991 59.142 C 148.414 62.413, 154.823 63.123, 157.021 60.475 C 158.703 58.448, 157.661 45.657, 155.550 42.436 C 152.448 37.702, 148.238 37.130, 125.500 38.354 C 111.007 39.133, 104.677 37.831, 102.013 33.521 C 99.595 29.608, 97.178 27.443, 94.222 26.542 C 92.447 26.001, 91.289 26.550, 88.972 29.030 M 71.490 90.016 C 71.144 90.575, 70.443 90.774, 69.931 90.457 C 69.419 90.141, 69 91.034, 69 92.441 C 69 94.747, 69.371 94.991, 72.750 94.912 C 77.807 94.794, 87.142 93.305, 84 93.118 C 82.001 92.999, 81.800 92.775, 83 92 C 84.613 90.958, 83.994 90.716, 79.750 90.733 C 78.787 90.736, 78 90.348, 78 89.870 C 78 88.650, 72.255 88.779, 71.490 90.016 M 112.715 89.618 C 112.186 90.148, 109.623 90.627, 104.250 91.200 C 102.436 91.394, 102.718 92.676, 104.750 93.470 C 107.290 94.463, 117.943 95.153, 120.109 94.465 C 123.742 93.312, 120.482 89.088, 115.917 89.032 C 114.496 89.014, 113.055 89.278, 112.715 89.618 M 70.956 105 C 69.815 105.275, 68.909 105.838, 68.941 106.250 C 68.973 106.662, 69 107.429, 69 107.952 C 69 108.992, 72.717 108.651, 77.616 107.163 C 79.422 106.615, 81.314 106.585, 82.116 107.093 C 83.946 108.252, 91.110 108.216, 92.972 107.038 C 94.268 106.219, 94.268 106.046, 92.972 105.590 C 90.904 104.863, 73.465 104.395, 70.956 105 M 97 105.814 C 97 106.338, 98.143 106.985, 99.540 107.252 C 101.142 107.559, 101.944 107.325, 101.711 106.619 C 101.255 105.231, 97 104.504, 97 105.814 M 108 105.985 C 106.822 106.735, 107.198 107.081, 109.750 107.595 C 111.537 107.955, 113 108.644, 113 109.125 C 113 109.606, 115.025 110, 117.500 110 C 121.633 110, 122 109.796, 122 107.500 C 122 105.098, 121.754 105.001, 115.750 105.015 C 112.313 105.024, 108.825 105.460, 108 105.985 M 67.420 117.040 C 64.036 118.292, 62.724 120.526, 64.504 122.004 C 66.309 123.501, 84.376 124.036, 87.609 122.688 L 89.717 121.808 87.313 119.404 C 84.937 117.028, 81 116.117, 81 117.943 C 81 118.905, 80.505 118.859, 73.455 117.236 C 71.230 116.724, 68.514 116.636, 67.420 117.040" stroke="none" fill="black" fill-rule="evenodd"/>
</svg>