<svg xmlns="http://www.w3.org/2000/svg" width="256" height="256" viewBox="0 0 256 256" version="1.1">
	<path d="M 91.772 26.250 C 90.886 26.938, 89.173 29.642, 87.966 32.260 C 85.260 38.126, 83.347 38.736, 72.518 37.186 C 63.288 35.865, 47.775 36.634, 43.861 38.607 C 41.461 39.816, 41.174 40.598, 40.694 47.218 C 40.404 51.223, 39.675 56.731, 39.074 59.458 C 37.682 65.782, 39.109 70.711, 42.730 72.087 C 48.748 74.376, 52 69.479, 52 58.130 C 52 51.315, 52.052 51.178, 55.018 50.144 C 57.058 49.432, 60.703 49.398, 66.268 50.038 C 70.796 50.559, 87.381 50.988, 103.125 50.992 C 118.869 50.997, 133.187 51.287, 134.943 51.639 C 139.245 52.499, 140.930 55.446, 141.674 63.407 C 142.188 68.916, 142.734 70.432, 144.784 72.044 C 147.987 74.564, 150.223 74.518, 152.595 71.884 C 154.314 69.975, 154.469 68.391, 154.181 55.689 C 154.005 47.945, 153.435 40.813, 152.914 39.839 C 151.150 36.543, 145.279 35.883, 127.952 37.034 C 108.016 38.357, 103 37.537, 103 32.954 C 103 30.230, 98.136 25, 95.602 25 C 94.381 25, 92.658 25.563, 91.772 26.250 M 72.772 58.689 C 71.272 58.931, 69.085 60.337, 67.913 61.814 C 66.043 64.169, 65.860 65.300, 66.426 71 C 66.781 74.575, 67.278 80.200, 67.531 83.500 C 68.476 95.842, 70.284 98.175, 79.789 99.309 C 84.567 99.879, 87.008 101.426, 86.985 103.872 C 86.946 107.997, 85.574 108.444, 72.637 108.554 C 55.244 108.700, 55.412 108.562, 54.477 123.526 C 54.007 131.044, 54.148 137.111, 54.876 140.736 C 55.494 143.815, 56 147.773, 56 149.532 C 56 151.295, 56.969 153.962, 58.159 155.475 C 60.101 157.944, 60.731 158.150, 64.409 157.522 C 74.508 155.797, 81.121 155.518, 105.500 155.788 C 119.800 155.946, 133.032 156.134, 134.904 156.206 C 137.345 156.300, 138.831 155.692, 140.154 154.058 C 141.797 152.029, 142 149.782, 142 133.612 C 142 108.667, 142.333 109.036, 119.370 108.518 C 110.909 108.327, 104.341 107.718, 102.998 106.999 C 100.810 105.828, 100.801 105.756, 102.628 103.988 C 104.123 102.541, 119.334 99, 124.055 99 C 125.435 99, 126.982 93.422, 126.828 89 C 126.741 86.525, 126.938 82.700, 127.265 80.500 C 127.593 78.300, 128.173 73.551, 128.556 69.948 C 129.239 63.521, 129.197 63.358, 126.376 61.448 C 123.813 59.712, 121.596 59.490, 106 59.404 C 96.375 59.351, 85.575 59.069, 82 58.778 C 78.425 58.487, 74.272 58.447, 72.772 58.689 M 80.081 74.750 C 78.625 75.941, 77.897 77.743, 77.803 80.391 C 77.584 86.581, 78.971 87.058, 96.844 86.943 C 111.452 86.848, 112.365 86.726, 114.515 84.576 C 116.191 82.899, 116.646 81.553, 116.260 79.405 C 115.169 73.327, 114.210 73, 97.456 73 C 84.429 73, 81.911 73.254, 80.081 74.750 M 72.500 120.676 C 71.400 120.911, 69.429 121.637, 68.120 122.290 C 65.830 123.432, 65.763 123.774, 66.348 131.360 C 66.683 135.695, 67.471 139.863, 68.100 140.621 C 69.461 142.260, 85.014 142.586, 86.591 141.009 C 87.967 139.633, 111.848 139.541, 115.315 140.898 C 116.863 141.504, 119.165 142, 120.430 142 C 122.817 142, 128.518 138.185, 127.561 137.228 C 127.262 136.929, 127.473 136.135, 128.030 135.464 C 128.587 134.793, 129.145 131.872, 129.271 128.974 L 129.500 123.703 123.500 122.316 C 118.866 121.244, 115.977 121.164, 110.808 121.964 C 102.642 123.228, 95.904 123.291, 92.815 122.130 C 90.095 121.109, 75.397 120.056, 72.500 120.676" stroke="none" fill="black" fill-rule="evenodd"/>
</svg>