<svg xmlns="http://www.w3.org/2000/svg" width="256" height="256" viewBox="0 0 256 256" version="1.1">
	<path d="M 91 26.709 C 87.631 27.903, 86.022 31.334, 86.623 36.043 C 87.555 43.348, 86.926 43.558, 65.292 43.170 C 42.770 42.766, 42 43.044, 42 51.580 C 42 54.624, 41.486 60.228, 40.857 64.033 C 39.956 69.493, 39.982 71.273, 40.980 72.476 C 42.456 74.254, 46.270 74.461, 49.150 72.920 C 51.460 71.683, 54 66.256, 54 62.555 C 54 57.796, 57.522 56.690, 70.244 57.455 C 76.435 57.827, 83.975 58.084, 87 58.026 C 90.025 57.968, 101.725 57.855, 113 57.775 C 136.140 57.610, 138 58.022, 138 63.313 C 138 67.476, 140.390 70.847, 144.583 72.599 C 148.172 74.099, 152.335 73.243, 153.205 70.827 C 153.467 70.097, 153.472 63.953, 153.215 57.174 L 152.748 44.847 149.461 43.280 C 146.599 41.915, 145.614 41.889, 141.837 43.077 C 134.998 45.227, 113.866 44.948, 106.750 42.613 L 101 40.726 101 36.037 C 101 32.452, 100.471 30.864, 98.750 29.289 C 96.177 26.935, 93.180 25.937, 91 26.709 M 81.078 65.146 C 79.973 66.333, 78.821 69.351, 78.502 71.896 C 76.631 86.828, 74.759 88.174, 56.371 87.812 C 42.177 87.533, 40 88.167, 40 92.583 C 40 97.373, 43.150 98.750, 55.037 99.157 C 61.833 99.389, 66.390 99.990, 67.155 100.755 C 68.618 102.218, 69.165 105, 67.989 105 C 67.530 105, 66.640 106.562, 66.009 108.472 C 64.429 113.259, 66.282 116.729, 72 119.688 C 74.475 120.969, 77.904 123.517, 79.620 125.351 C 81.335 127.185, 83.473 128.967, 84.370 129.312 C 86.989 130.317, 86.318 133.632, 83.250 134.844 C 81.737 135.442, 76.113 137.023, 70.752 138.358 C 65.391 139.693, 58.866 141.847, 56.252 143.143 C 51.787 145.358, 51.520 145.711, 51.829 149 C 52.226 153.212, 53.168 154.196, 58.930 156.419 C 63.104 158.029, 63.766 158.030, 70.430 156.425 C 78.407 154.503, 81.995 152.920, 84.073 150.404 C 84.858 149.454, 87.862 147.630, 90.750 146.351 C 93.637 145.072, 97.791 142.895, 99.980 141.513 C 104.519 138.647, 110.140 138.237, 115.216 140.399 C 117.022 141.169, 120.475 142.615, 122.890 143.614 C 125.304 144.613, 128.703 146.939, 130.444 148.784 C 134.937 153.547, 140.412 154.207, 144.799 150.516 C 151.059 145.248, 148.028 138.792, 138.328 136.736 C 132.153 135.426, 121.076 129.353, 121.028 127.250 C 121.013 126.563, 120.599 126, 120.108 126 C 118.352 126, 117.986 120.969, 119.483 117.386 C 120.317 115.389, 121.004 112.573, 121.010 111.128 C 121.023 107.541, 125.377 98.453, 127.466 97.652 C 128.399 97.293, 131.039 96.981, 133.332 96.958 C 135.624 96.934, 139.975 96.338, 143 95.632 C 149.662 94.078, 150.463 92.102, 145.964 88.316 C 144.212 86.842, 142.186 85.044, 141.461 84.318 C 140.736 83.593, 139.496 83, 138.706 83 C 137.916 83, 136.197 82.161, 134.885 81.135 C 131.667 78.620, 124.022 75, 121.927 75 C 120.124 75, 117 79.001, 117 81.310 C 117 82.069, 116.094 83.510, 114.986 84.513 C 113.370 85.975, 111.200 86.352, 104.021 86.418 C 96.226 86.489, 94.801 86.231, 92.982 84.419 C 90.961 82.405, 90.946 82.196, 92.542 77.919 C 95.501 69.984, 95.491 68.359, 92.460 65.551 C 88.962 62.308, 83.890 62.128, 81.078 65.146 M 86.655 100.829 C 84.371 103.353, 84.474 110.214, 86.829 112.345 C 89.391 114.664, 99.720 114.588, 102.633 112.228 C 107.093 108.615, 108.231 103.424, 105.171 100.655 C 102.433 98.177, 88.940 98.303, 86.655 100.829 M 111 176 C 109.865 176.734, 110.305 176.973, 112.809 176.985 C 114.764 176.994, 115.865 176.591, 115.500 176 C 114.724 174.744, 112.944 174.744, 111 176" stroke="none" fill="black" fill-rule="evenodd"/>
</svg>