<svg xmlns="http://www.w3.org/2000/svg" width="256" height="256" viewBox="0 0 256 256" version="1.1">
	<path d="M 90.116 26.580 C 88.952 28.059, 87.944 29.884, 87.875 30.635 C 87.806 31.386, 87.638 32.450, 87.500 33 C 87.362 33.550, 87.194 34.624, 87.125 35.386 C 86.936 37.487, 80.525 40.147, 77.292 39.467 C 75.756 39.143, 67.506 38.620, 58.957 38.304 C 38.802 37.559, 39.556 36.961, 40.531 52.910 C 41.296 65.444, 41.878 67.473, 44.932 68.272 C 47.684 68.992, 49.169 66.830, 50.126 60.710 C 51.119 54.367, 53.910 51.572, 58.462 52.363 C 60.133 52.653, 66.910 53.425, 73.522 54.077 C 83.598 55.072, 86.673 55.026, 92.522 53.793 C 97.444 52.756, 105.178 52.363, 118.769 52.458 C 141.138 52.615, 140.884 52.511, 143.459 62.500 C 145.283 69.576, 147.343 71.680, 150.438 69.626 C 153.104 67.857, 153.689 63.784, 153.033 51.555 L 152.500 41.610 147.872 39.232 C 143.419 36.945, 142.929 36.901, 134.977 38.064 C 127.075 39.219, 107.228 38.792, 103.569 37.388 C 102.671 37.043, 102 35.612, 102 34.041 C 102 32.531, 100.973 29.767, 99.718 27.898 C 96.706 23.415, 93.005 22.907, 90.116 26.580 M 104.018 63.740 C 103.203 64.060, 101.963 64.894, 101.263 65.594 C 99.918 66.939, 95.162 66.536, 93.550 64.940 C 93.028 64.423, 89.181 64, 85.003 64 C 77.524 64, 77.351 64.058, 73.846 67.750 C 68.752 73.116, 68.472 74.625, 71.926 78.080 C 74.746 80.900, 75.146 80.994, 83.268 80.751 C 94.744 80.409, 99.747 83.110, 95.500 87.357 C 94.675 88.182, 94 89.162, 94 89.534 C 94 89.907, 92.914 91.502, 91.587 93.079 C 90.108 94.836, 89.373 96.710, 89.689 97.917 C 90.017 99.173, 89.315 100.776, 87.752 102.339 C 85.625 104.466, 84.026 104.886, 75.683 105.512 C 70.393 105.908, 61.438 106.068, 55.783 105.866 L 45.500 105.500 45.500 109.391 C 45.500 111.855, 46.050 113.553, 47 114.020 C 53.522 117.227, 57.908 118.365, 67.284 119.282 C 76.726 120.206, 78.505 120.130, 81.568 118.669 C 86.932 116.111, 90.823 116.448, 91.599 119.537 C 91.949 120.932, 91.969 123.407, 91.643 125.037 C 91.317 126.667, 91.513 129.218, 92.078 130.706 C 93.356 134.068, 92.372 140.356, 90.163 142.937 C 89.248 144.006, 87.150 145.003, 85.500 145.152 C 81.369 145.527, 80 146.757, 80 150.094 C 80 152.754, 80.467 153.084, 87.056 155.086 C 93.362 157.001, 94.493 157.084, 97.699 155.864 C 103.585 153.623, 105.446 150.136, 105.845 140.603 C 106.035 136.064, 105.737 130.708, 105.183 128.700 C 103.745 123.492, 104.559 121.677, 109.312 119.496 C 112.806 117.893, 116.070 117.547, 129 117.407 C 140.235 117.286, 145.492 116.825, 148.104 115.732 C 155.916 112.464, 152.517 106.603, 142.198 105.549 C 139.064 105.229, 133.575 104.531, 130 103.997 C 126.425 103.464, 119.523 102.731, 114.663 102.369 C 105.268 101.669, 103.355 100.476, 106.339 97.178 C 107.209 96.217, 109.315 92.816, 111.020 89.622 C 112.725 86.427, 115.668 82.266, 117.560 80.374 C 119.731 78.202, 121 75.966, 121 74.311 C 121 71.917, 117.105 65.546, 114.553 63.765 C 113.326 62.909, 106.179 62.891, 104.018 63.740" stroke="none" fill="black" fill-rule="evenodd"/>
</svg>