<svg xmlns="http://www.w3.org/2000/svg" width="256" height="256" viewBox="0 0 256 256" version="1.1">
	<path d="M 89.974 25.872 C 88.395 27.451, 86.817 30.039, 86.468 31.622 C 85.366 36.616, 85.113 37.006, 82.276 38.094 C 80.308 38.849, 77.923 38.845, 74.083 38.079 C 71.104 37.486, 63.096 37, 56.288 37 C 44.501 37, 43.792 37.117, 41.471 39.438 C 39.532 41.377, 39.049 42.860, 39.109 46.688 C 39.150 49.335, 38.468 53.173, 37.592 55.218 C 36.716 57.263, 36 60.536, 36 62.493 C 36 67.862, 40.733 69.210, 47.665 65.814 C 49.577 64.877, 49.772 64.155, 49.329 59.627 C 48.511 51.255, 49.357 50.742, 63.718 50.890 C 75.955 51.016, 81.261 52.200, 83.913 55.395 C 84.984 56.686, 84.174 57.363, 78.333 60.058 C 71.963 62.998, 71.148 63.141, 66.304 62.170 C 61.626 61.232, 60.605 61.371, 56.054 63.567 C 52.443 65.309, 51 66.584, 51 68.034 C 51 70.920, 53.390 76.109, 55.950 78.781 L 58.135 81.061 61.817 78.175 C 71.488 70.596, 74.643 71.158, 81.907 81.750 C 83.133 83.537, 85.006 85, 86.068 85 C 87.452 85, 88 85.695, 88 87.451 L 88 89.902 73.328 89.938 C 59.641 89.972, 58.499 90.122, 56.328 92.162 C 54.846 93.554, 54 95.494, 54 97.500 C 54 101.338, 51.026 104.387, 45.516 106.196 C 42.718 107.115, 41.267 108.294, 40.601 110.190 C 39.136 114.361, 41.198 116.077, 47.428 115.873 C 52.502 115.708, 60 118.237, 60 120.114 C 60 120.601, 59.647 121, 59.216 121 C 57.986 121, 55 126.583, 55 128.881 C 55 131.684, 58.473 133.696, 64.500 134.386 C 67.250 134.701, 71.525 135.330, 74 135.784 C 76.930 136.321, 79.721 136.201, 82 135.438 C 88.033 133.421, 91.930 136.158, 90.596 141.475 C 89.648 145.249, 86.097 148, 82.172 148 C 76.669 148, 73.871 153.833, 77.750 157.216 C 80.177 159.333, 93.685 160.400, 97 158.738 C 100.368 157.049, 103.383 150.556, 103.500 144.738 C 103.642 137.680, 104.761 137.029, 119.540 135.400 C 137.205 133.453, 139.712 132.672, 141.702 128.499 C 143.857 123.980, 142.319 122.005, 136.628 121.986 C 130.692 121.967, 128 121.032, 128 118.990 C 128 115.828, 135.047 114.812, 138.559 117.468 C 141.208 119.472, 150.904 119.456, 153.777 117.443 C 156.770 115.348, 156.755 110.644, 153.750 108.532 C 152.512 107.662, 149.798 106.677, 147.718 106.343 C 143.242 105.622, 140 102.044, 140 97.823 C 140 90.849, 132.185 88.521, 112.314 89.577 L 100.129 90.225 100.722 87.954 C 101.230 86.012, 101.004 85.766, 99.158 86.248 C 97.971 86.559, 97 86.405, 97 85.906 C 97 85.408, 100.332 85, 104.405 85 C 109.679 85, 112.918 84.451, 115.655 83.094 C 125.473 78.225, 127.042 77.775, 129.965 78.986 C 136.370 81.639, 141.911 78.706, 143.552 71.794 C 144.102 69.477, 143.714 68.806, 140.847 67.117 C 139.006 66.032, 135.700 63.815, 133.500 62.190 C 127.490 57.750, 125.577 57.451, 123.127 60.566 C 121.986 62.016, 120.792 64.845, 120.472 66.851 C 119.576 72.490, 118.677 73.486, 114.342 73.643 C 112.174 73.721, 108.179 74.539, 105.466 75.460 C 96.292 78.575, 90 75.321, 90 67.461 C 90 63.369, 90.207 63, 92.500 63 C 93.875 63, 95 63.367, 95 63.816 C 95 65.037, 102.475 69, 104.779 69 C 107.637 69, 108.246 66.459, 106.867 60.297 C 105.952 56.208, 105.944 54.656, 106.834 53.766 C 108.237 52.363, 137.616 51.789, 140.166 53.115 C 141.809 53.968, 144.601 61.122, 145.195 66 C 145.456 68.138, 145.935 68.449, 148.500 68.151 C 152.729 67.660, 156.982 64.921, 157.650 62.260 C 157.962 61.017, 157.493 58.190, 156.608 55.979 C 155.724 53.769, 155 50.190, 155 48.027 C 155 37.730, 151.802 36.452, 129.500 37.837 C 120.700 38.383, 112.150 38.616, 110.500 38.355 C 103.295 37.211, 103 37.049, 102.996 34.231 C 102.991 30.522, 99.564 25.165, 96.434 23.975 C 93.010 22.673, 93.241 22.606, 89.974 25.872 M 89 87.627 C 89 89.116, 89.338 89.926, 89.750 89.428 C 90.162 88.931, 90.788 88.293, 91.139 88.012 C 91.491 87.730, 91.153 86.920, 90.389 86.211 C 89.228 85.133, 89 85.366, 89 87.627 M 92.211 86.389 C 92.920 87.153, 93.730 87.491, 94.012 87.139 C 94.293 86.788, 94.931 86.162, 95.428 85.750 C 95.926 85.338, 95.116 85, 93.627 85 C 91.366 85, 91.133 85.228, 92.211 86.389 M 90.216 100.221 C 87.515 100.923, 87.164 101.307, 88.237 102.379 C 92.500 106.643, 98.158 107.072, 103 103.500 C 105.930 101.339, 106.099 101, 104.253 101 C 103.079 101, 101.830 100.534, 101.478 99.964 C 100.760 98.802, 95.184 98.929, 90.216 100.221 M 66.750 101.059 C 63.085 103.238, 65.941 107, 71.260 107 C 73.624 107, 78.866 102.533, 77.778 101.445 C 76.662 100.329, 68.461 100.041, 66.750 101.059 M 118.750 100.639 C 115.257 101.652, 117.456 104.899, 122.081 105.557 C 124.581 105.913, 126.143 105.494, 127.892 103.997 C 129.207 102.871, 130.072 101.738, 129.813 101.479 C 129.055 100.722, 120.662 100.085, 118.750 100.639 M 67.310 116.146 C 66.314 116.538, 66.063 116.891, 66.750 116.930 C 67.438 116.968, 67.947 117.338, 67.882 117.750 C 67.470 120.358, 68.330 120.685, 74.500 120.268 C 78.778 119.979, 81 120.200, 81 120.914 C 81 122.520, 88.907 122.236, 90.571 120.571 C 92.108 119.035, 92.471 117.067, 91.250 116.894 C 90.838 116.835, 87.350 116.611, 83.500 116.395 C 79.650 116.179, 74.839 115.874, 72.810 115.717 C 70.780 115.560, 68.305 115.753, 67.310 116.146 M 101.015 118.750 C 101.028 120.246, 101.172 120.282, 102 119 C 102.862 117.667, 102.973 117.667, 103 119 C 103.027 120.333, 103.138 120.333, 104 119 C 104.773 117.805, 104.989 118.008, 105.064 120 C 105.115 121.375, 105.385 121.938, 105.662 121.250 C 105.940 120.563, 106.981 120, 107.976 120 C 108.972 120, 110.045 119.325, 110.362 118.500 C 110.826 117.291, 109.974 117, 105.969 117 C 101.897 117, 101.003 117.316, 101.015 118.750" stroke="none" fill="black" fill-rule="evenodd"/>
</svg>