<svg xmlns="http://www.w3.org/2000/svg" width="256" height="256" viewBox="0 0 256 256" version="1.1">
	<path d="M 139.500 32.378 C 136.053 33.870, 124.604 36.620, 118 37.541 C 115.525 37.887, 110.800 38.873, 107.500 39.734 C 104.200 40.594, 98.575 41.402, 95 41.529 C 91.425 41.656, 87.150 42.072, 85.500 42.452 C 83.025 43.022, 81.906 42.611, 79.102 40.100 C 74.512 35.990, 71.636 35.280, 56.691 34.570 C 42.489 33.896, 37.684 35.071, 35.945 39.645 C 33.919 44.973, 37.065 47, 47.363 47 C 59.182 47, 61.067 51.307, 53.929 62 C 52.493 64.150, 51.373 70.862, 49.612 87.873 C 49.113 92.691, 45.198 95.124, 36.008 96.329 C 33.958 96.598, 31.696 101.652, 32.389 104.414 C 33.005 106.868, 40.532 110.567, 41.552 108.917 C 41.863 108.412, 43.180 108, 44.477 108 C 51.392 108, 53.489 112.524, 52.733 125.809 C 52.429 131.139, 51.673 136.813, 51.052 138.417 C 49.978 141.191, 45.350 145.996, 43.750 145.999 C 41.881 146.002, 43.218 151.026, 45.583 152.887 C 49.192 155.726, 58.852 159.182, 61.144 158.454 C 64.880 157.268, 66.294 153.597, 65.120 148.125 C 64.371 144.631, 64.372 139.744, 65.125 131.506 C 65.712 125.088, 65.850 118.186, 65.433 116.168 C 65.015 114.151, 64.784 111.600, 64.918 110.500 C 65.208 108.133, 67.726 103.965, 68.769 104.125 C 72.713 104.730, 80 99.060, 80 95.387 C 80 91.091, 77.343 89.730, 70.400 90.474 C 64.346 91.122, 64.094 91.057, 62.751 88.494 C 60.947 85.051, 62.228 74.763, 65.397 67.248 C 67.368 62.574, 68.613 61.258, 75.079 57.005 C 79.419 54.152, 82.873 52.493, 83.399 53.012 C 84.879 54.471, 85.569 61.078, 84.910 67.484 C 84.569 70.793, 84.517 81.474, 84.795 91.221 C 85.426 113.419, 84.090 124.446, 79.408 135.673 C 74.098 148.408, 75.131 156, 82.174 156 C 86.009 156, 87.569 153.494, 92.157 139.958 L 96.380 127.500 96.687 95 C 97.017 59.978, 97.362 54.775, 99.463 53.031 C 100.214 52.407, 104.804 51.749, 109.664 51.567 C 115.654 51.342, 120.916 50.435, 126 48.750 C 130.125 47.382, 136.310 45.987, 139.744 45.648 C 143.178 45.309, 147.566 44.373, 149.494 43.567 C 152.390 42.357, 153 41.583, 153 39.122 C 153 35.852, 150.998 33.330, 147.280 31.916 C 144.179 30.738, 143.145 30.799, 139.500 32.378 M 141.113 59.930 C 140.177 60.509, 139.766 65.791, 139.542 80.107 C 139.375 90.773, 138.940 100.214, 138.576 101.086 C 137.699 103.180, 140.209 110.640, 145.107 120.500 C 147.778 125.876, 149.236 130.304, 149.552 134 C 150.127 140.714, 153.453 148.369, 156.503 150.002 C 160.068 151.909, 162.828 150.434, 163.625 146.194 C 164.845 139.698, 159.814 118.560, 156.109 114.616 C 154.559 112.966, 153.995 111.063, 153.983 107.436 C 153.973 104.721, 153.263 99.350, 152.406 95.500 C 151.548 91.650, 150.729 83.546, 150.587 77.490 C 150.443 71.396, 149.795 65.485, 149.134 64.251 C 147.653 61.483, 142.816 58.877, 141.113 59.930 M 115.234 69.004 C 111.378 71.349, 110.155 75.142, 109.462 86.901 C 109.158 92.071, 108.396 97.246, 107.769 98.401 C 107.142 99.555, 106.056 108.825, 105.354 119 C 104.653 129.175, 103.802 139.075, 103.464 141 C 102.941 143.978, 103.278 144.910, 105.726 147.247 C 108.667 150.055, 116.309 152.144, 122.500 151.833 C 124.150 151.749, 128.934 151.976, 133.131 152.337 C 142.270 153.121, 143.557 152.258, 142.508 146.049 C 142.135 143.838, 141.877 141.793, 141.935 141.504 C 141.993 141.215, 141.307 139.560, 140.410 137.825 C 139.189 135.465, 138.938 133.266, 139.410 129.086 C 140.265 121.515, 138.350 118.524, 133.258 119.479 C 126.683 120.713, 125.750 121.842, 126.346 127.848 C 126.984 134.286, 125.790 138, 123.081 138 C 120.036 138, 118.022 134.409, 119.053 130.815 C 119.528 129.159, 119.917 123.065, 119.917 117.272 C 119.917 102.533, 120.920 90.475, 122.699 83.834 C 124.079 78.682, 124.066 77.715, 122.557 73.171 C 120.596 67.269, 119.300 66.531, 115.234 69.004" stroke="none" fill="black" fill-rule="evenodd"/>
</svg>