<svg xmlns="http://www.w3.org/2000/svg" width="256" height="256" viewBox="0 0 256 256" version="1.1">
	<path d="M 89.558 26.888 C 88.138 29.634, 87.267 32.698, 87.074 35.629 C 86.894 38.362, 81.685 39.039, 72.500 37.522 C 56.233 34.834, 44.235 35.824, 41.979 40.039 C 41.441 41.045, 41 44.351, 41 47.385 C 41 50.419, 40.518 55.150, 39.928 57.899 C 39.035 62.065, 39.137 63.486, 40.542 66.448 C 41.885 69.277, 42.801 70, 45.043 70 C 49.940 70, 51.423 67.503, 52.318 57.751 C 52.964 50.714, 53.956 49.990, 62.872 50.056 C 71.187 50.118, 76.736 51.582, 78.324 54.132 C 79.540 56.084, 77.896 60.661, 74.775 64.011 C 70.696 68.389, 66.239 74.734, 63.723 79.744 C 61.543 84.082, 61.357 85.107, 62.472 86.631 C 63.602 88.177, 64.153 88.251, 66.505 87.180 C 68.004 86.497, 70.191 86.241, 71.365 86.612 C 75.495 87.916, 79.607 94.512, 78.488 98.039 C 77.930 99.797, 71.411 103, 68.392 103 C 67.529 103, 63.953 104.329, 60.444 105.953 C 56.935 107.577, 52.322 109.375, 50.191 109.949 C 45.125 111.313, 42.566 114.136, 43.397 117.444 C 44.143 120.417, 47.833 121.695, 50.913 120.047 C 53.262 118.789, 60.441 120.397, 62.821 122.714 C 63.548 123.421, 64.575 124, 65.104 124 C 66.609 124, 67.926 128.387, 66.662 129.190 C 65.728 129.783, 65.502 138.130, 65.945 155.679 C 66.074 160.793, 71.500 162.371, 78.628 159.369 C 81.747 158.055, 86.948 157.683, 105.379 157.454 C 124.751 157.213, 128.504 156.925, 129.857 155.572 C 131.114 154.315, 131.593 150.755, 132.099 138.897 C 132.874 120.766, 133.380 119.723, 142.806 116.829 C 147.387 115.423, 149.383 114.254, 150.176 112.514 C 151.474 109.663, 150.708 107.180, 148.273 106.350 C 147.298 106.018, 144.165 104.678, 141.312 103.373 C 138.458 102.068, 135.132 101, 133.920 101 C 132.707 101, 128.681 100.096, 124.972 98.992 C 117.705 96.827, 117.008 95.949, 117.047 89 C 117.066 85.575, 118.519 83.053, 125.367 74.560 C 128.113 71.154, 128.165 70.901, 126.603 68.517 C 123.354 63.559, 120.408 62.527, 108.408 62.146 C 97.819 61.810, 97.159 61.665, 95.949 59.405 C 94.861 57.372, 94.930 56.734, 96.416 55.093 C 98.888 52.361, 105.328 51.790, 121.299 52.887 C 137.268 53.983, 139.360 54.869, 141.034 61.246 C 142.500 66.830, 144.133 70.073, 146.095 71.298 C 148.727 72.942, 152.820 71.249, 154.617 67.774 C 156.058 64.986, 156.105 63.936, 154.984 59.562 C 154.277 56.803, 153.775 52.387, 153.869 49.747 C 154.006 45.875, 153.574 44.483, 151.634 42.543 C 148.759 39.668, 141.753 37.587, 138.116 38.526 C 136.677 38.898, 128.756 39.139, 120.514 39.061 C 103.477 38.902, 101.073 38.142, 101.220 32.965 C 101.341 28.700, 98.044 24.574, 94.207 24.191 C 91.630 23.933, 90.853 24.384, 89.558 26.888 M 89.225 76.709 C 86.722 77.189, 83.481 81.351, 84.423 82.875 C 85.098 83.968, 93.755 86, 97.735 86 C 101.021 86, 105.063 82.388, 104.288 80.144 C 102.987 76.375, 97.492 75.122, 89.225 76.709 M 93.942 104.849 C 91.435 106.307, 86.985 109.867, 84.052 112.761 L 78.720 118.022 92.110 117.447 C 108.828 116.730, 110 116.500, 110 113.931 C 110 111.277, 107.232 105.961, 104.699 103.750 C 102.017 101.409, 99.398 101.676, 93.942 104.849 M 113 132.116 C 111.075 132.532, 103.022 133.146, 95.104 133.479 C 80.438 134.098, 77 134.880, 77 137.601 C 77 143.403, 81.617 145.168, 95 144.482 C 100.775 144.186, 107.075 143.954, 109 143.967 C 114.493 144.002, 116.628 143.217, 118.401 140.511 C 119.937 138.167, 119.928 137.776, 118.274 134.679 C 116.624 131.590, 116.256 131.411, 113 132.116" stroke="none" fill="black" fill-rule="evenodd"/>
</svg>