<svg xmlns="http://www.w3.org/2000/svg" width="256" height="256" viewBox="0 0 256 256" version="1.1">
	<path d="M 89.637 27.506 C 87.142 30.001, 86.215 32.253, 86.630 34.810 C 87.164 38.091, 85.574 40.520, 81.897 42.043 C 79.335 43.104, 77.131 43.130, 70.557 42.180 C 66.068 41.531, 58.290 41, 53.271 41 C 44.789 41, 44.010 41.172, 42.227 43.439 C 39.793 46.533, 38.316 64.404, 40.159 68.449 C 42.557 73.712, 49.274 70.255, 50.476 63.140 C 51.664 56.108, 53.051 55.584, 68.249 56.419 C 83.718 57.268, 89.639 57.194, 95.633 56.074 C 98.031 55.626, 108.207 55.430, 118.247 55.639 C 136.337 56.014, 136.520 56.040, 138.750 58.565 C 139.988 59.965, 141 62.229, 141 63.596 C 141 67.271, 144.730 73.920, 147.500 75.182 C 149.407 76.051, 150.434 75.946, 152.359 74.684 C 155.309 72.751, 156.751 65.105, 155.022 60.559 C 154.416 58.964, 153.881 55.599, 153.834 53.080 C 153.786 50.561, 153.382 47.532, 152.936 46.348 C 151.749 43.202, 146.109 41.698, 138.194 42.415 C 134.512 42.749, 125.034 42.655, 117.130 42.208 C 101.281 41.309, 100.023 40.748, 99.978 34.559 C 99.934 28.568, 93.181 23.962, 89.637 27.506 M 74.005 71.143 C 70.386 73.344, 69.800 74.397, 69.800 78.694 C 69.800 81.121, 70.565 83.020, 72.204 84.659 C 74.473 86.927, 74.903 87, 79.827 85.944 C 84.906 84.855, 93.038 85.100, 99.870 86.548 C 105.389 87.718, 120.430 83.934, 122.012 80.977 C 123.135 78.880, 121.443 74.004, 119.589 73.994 C 118.990 73.990, 117.363 73.394, 115.973 72.669 C 111.631 70.403, 109.159 70.148, 104.658 71.503 C 100.812 72.660, 99.829 72.603, 96.279 71.014 C 90.948 68.627, 78.019 68.702, 74.005 71.143 M 75.500 93.151 C 73.835 93.677, 66.938 93.841, 60 93.519 C 42.387 92.702, 38.225 94.300, 40.933 100.838 C 42.842 105.447, 46.864 106.323, 67 106.520 C 76.625 106.614, 85.485 107.007, 86.688 107.393 C 89.844 108.406, 91.395 113.989, 90.578 121.396 C 90.208 124.753, 89.945 127.950, 89.995 128.500 C 90.044 129.050, 90.434 134.450, 90.860 140.500 C 91.286 146.550, 92.240 152.625, 92.981 154 C 95.772 159.184, 100.339 160.492, 103.491 157.010 C 105.100 155.232, 105.206 153.929, 104.486 144.760 C 104.042 139.117, 103.639 129.375, 103.590 123.111 C 103.469 107.829, 102.888 108.255, 124.997 107.415 C 142.081 106.765, 151.091 104.810, 152.371 101.476 C 152.677 100.679, 151.857 98.783, 150.550 97.263 L 148.173 94.500 131.837 94.367 C 115.510 94.235, 88.606 93.265, 82 92.571 C 80.075 92.368, 77.150 92.630, 75.500 93.151 M 120.916 118.601 C 120.186 119.481, 119.420 120.944, 119.215 121.851 C 117.800 128.110, 117.811 129, 119.303 129 C 120.145 129, 120.989 129.466, 121.178 130.035 C 121.368 130.604, 123.512 131.755, 125.942 132.592 C 128.372 133.429, 133.037 136.433, 136.309 139.267 C 142.558 144.681, 144.602 145.575, 146.716 143.821 C 149.808 141.254, 146.510 130.647, 142.279 129.551 C 141.057 129.235, 139.558 128.042, 138.946 126.900 C 138.335 125.758, 136.245 123.063, 134.301 120.912 C 131.244 117.528, 130.192 117, 126.506 117 C 123.819 117, 121.754 117.591, 120.916 118.601 M 60.409 122.035 C 59.259 122.466, 57.788 124.099, 57.139 125.664 C 56.491 127.230, 54.732 129.343, 53.230 130.361 C 49.234 133.068, 45.132 138.781, 44.407 142.646 C 42.583 152.366, 55.275 150.701, 61.019 140.467 C 64.067 135.035, 63.888 135.174, 72.750 131.355 C 76.188 129.874, 79 128.142, 79 127.505 C 79 126.869, 77.987 125.427, 76.750 124.301 C 74.278 122.051, 64.125 120.643, 60.409 122.035" stroke="none" fill="black" fill-rule="evenodd"/>
</svg>