<svg xmlns="http://www.w3.org/2000/svg" width="256" height="256" viewBox="0 0 256 256" version="1.1">
	<path d="M 89.655 30.829 C 88.745 31.835, 87.990 33.747, 87.978 35.079 C 87.915 41.880, 80.178 44.751, 68.142 42.441 C 63.948 41.636, 57.889 41.376, 51.701 41.737 C 42.805 42.255, 41.723 42.537, 39.951 44.789 C 38.878 46.153, 38 48.194, 38 49.325 C 38 50.455, 37.450 54.044, 36.777 57.300 C 35.598 63.011, 35.637 63.288, 37.888 65.110 C 40.531 67.251, 44.725 67.528, 47.096 65.718 C 47.974 65.048, 49.441 63.051, 50.357 61.280 C 53.439 55.314, 58.974 54.220, 73.410 56.722 C 80.390 57.932, 83.963 58.049, 89.910 57.263 C 99.603 55.982, 137.286 57.940, 141 59.917 C 142.375 60.649, 144.539 62.535, 145.810 64.108 C 148.574 67.530, 152.055 67.606, 155.598 64.322 C 158.295 61.822, 158.445 60.060, 156.684 51.591 C 155.780 47.247, 154.762 45.165, 152.842 43.732 C 150.414 41.919, 149.618 41.863, 141.535 42.939 C 132.395 44.155, 113.312 43.591, 106.821 41.912 C 103.778 41.125, 102.936 40.317, 101.948 37.231 C 99.557 29.763, 93.483 26.599, 89.655 30.829 M 65.375 67.203 C 64.966 67.864, 64.602 72.628, 64.566 77.789 C 64.502 86.910, 64.417 87.245, 61.544 89.716 C 58.801 92.075, 58.079 92.216, 51.544 91.670 C 45.911 91.199, 43.670 91.454, 40.353 92.946 C 33.323 96.106, 32.681 99.872, 38.492 103.854 C 41.672 106.033, 42.455 106.128, 51.796 105.466 C 61.382 104.786, 61.775 104.840, 63.318 107.044 C 64.197 108.299, 64.683 109.703, 64.398 110.165 C 64.113 110.626, 63.854 116.740, 63.822 123.752 C 63.755 138.401, 62.948 141.170, 57.058 146.943 C 52.645 151.269, 52.267 152.682, 54.415 156.835 C 56.291 160.464, 60.027 162.373, 63.681 161.570 C 69.881 160.208, 76.011 145.557, 76.472 131 C 76.620 126.325, 77.201 121.098, 77.762 119.384 C 78.324 117.670, 78.435 115.704, 78.010 115.016 C 76.439 112.474, 78.516 108.537, 82.456 106.591 C 85.810 104.934, 86.728 104.852, 89.410 105.967 C 94.246 107.977, 98.483 108.336, 99.660 106.837 C 101.240 104.824, 102.980 99.109, 102.436 97.722 C 102.172 97.050, 100.408 95.495, 98.517 94.266 C 95.546 92.337, 93.919 92.064, 86.584 92.266 C 79.948 92.449, 77.743 92.154, 76.499 90.918 C 75.044 89.471, 75.065 89.141, 76.752 87.058 C 78.338 85.100, 79.486 84.792, 84.917 84.868 C 90.742 84.950, 91.463 84.716, 94.119 81.873 C 97.630 78.114, 97.736 75.967, 94.590 72.310 C 92.363 69.721, 91.622 69.506, 84.824 69.474 C 79.527 69.450, 76.779 68.959, 75.011 67.720 C 72.183 65.740, 66.469 65.433, 65.375 67.203 M 114.860 69.926 C 105.978 70.839, 103.014 75.768, 106.699 83.495 C 108.081 86.393, 108.201 87.794, 107.345 91.004 C 106.197 95.305, 106.170 95.244, 113.456 105.315 C 115.371 107.963, 117.706 112.563, 118.643 115.537 C 120.281 120.732, 120.272 121.108, 118.424 125.049 C 116.948 128.198, 115.220 129.827, 111 132.051 C 103.306 136.106, 102.216 137.138, 100.507 141.981 C 98.926 146.461, 98.617 150.968, 99.630 154.750 C 100.094 156.482, 100.962 157, 103.394 157 C 106.007 157, 107.479 155.950, 111.889 150.941 C 119.703 142.063, 124.702 139.275, 131.698 139.894 C 132.357 139.952, 135.672 142.363, 139.065 145.250 C 148.652 153.409, 151.197 155, 154.661 155 C 157.715 155, 157.912 154.768, 158.564 150.422 C 159.413 144.762, 158.039 141.474, 153.877 139.204 C 149.438 136.782, 137 124.025, 137 121.894 C 137 120.911, 138.800 116.629, 141 112.378 C 143.200 108.126, 145 104.009, 145 103.228 C 145 102.448, 145.831 100.614, 146.847 99.154 C 149.526 95.304, 150.792 90.966, 151.477 83.284 C 151.990 77.538, 151.791 76.134, 150.179 74.107 C 148.613 72.138, 147.411 71.731, 143.388 71.808 C 140.700 71.860, 135.350 71.454, 131.500 70.906 C 127.650 70.359, 123.600 69.783, 122.500 69.628 C 121.400 69.473, 117.962 69.607, 114.860 69.926 M 123.796 84.222 C 120.028 85.496, 119.526 88.150, 122.099 93.193 C 123.307 95.562, 124.229 97.612, 124.148 97.750 C 122.597 100.372, 127.980 104.617, 130.885 103.062 C 132.621 102.133, 136 93.949, 136 90.673 C 136 86.358, 128.774 82.539, 123.796 84.222 M 41.605 116.420 C 40.712 118.301, 39.728 121.339, 39.419 123.170 C 39.109 125.002, 37.694 130.220, 36.275 134.767 C 34.166 141.524, 33.902 143.489, 34.826 145.517 C 36.159 148.442, 37.629 148.588, 42.873 146.316 C 46.334 144.817, 47.009 143.913, 49.033 138.066 C 50.283 134.455, 51.661 131.035, 52.095 130.467 C 52.530 129.898, 53.022 126.595, 53.189 123.126 C 53.460 117.511, 53.235 116.609, 51.136 114.909 C 49.839 113.859, 47.530 113, 46.003 113 C 43.827 113, 42.878 113.738, 41.605 116.420 M 89.500 115 C 87.300 116.063, 85.860 116.947, 86.300 116.966 C 86.740 116.985, 86.665 117.776, 86.134 118.724 C 84.901 120.929, 86.033 123.064, 90.805 127.537 C 98.023 134.303, 102.404 130.082, 100.031 118.649 C 98.955 113.467, 98.637 113.003, 96.179 113.034 C 94.706 113.053, 91.700 113.937, 89.500 115" stroke="none" fill="black" fill-rule="evenodd"/>
</svg>