<svg xmlns="http://www.w3.org/2000/svg" width="256" height="256" viewBox="0 0 256 256" version="1.1">
	<path d="M 46.923 31.923 C 44.426 34.420, 43.999 35.623, 43.994 40.173 C 43.987 46.967, 42.527 52.214, 40.008 54.493 C 38.152 56.173, 37.679 56.187, 32.527 54.722 C 27.372 53.255, 26.888 53.270, 24.798 54.963 L 22.568 56.768 26.105 60.305 C 28.280 62.480, 31.069 64.110, 33.348 64.538 C 38.649 65.532, 39.335 67.456, 38.079 77.809 C 37.499 82.589, 36.739 93.025, 36.389 101 C 35.778 114.921, 35.841 115.610, 37.949 118.250 C 39.157 119.762, 40.766 121, 41.526 121 C 44.525 121, 47.833 123.347, 48.304 125.809 C 48.699 127.874, 47.797 129.428, 43.740 133.680 C 37.418 140.303, 32.978 147.969, 32.805 152.556 C 32.629 157.261, 33.983 158.413, 38.657 157.537 C 42.380 156.838, 44.065 155.391, 55.402 143.157 C 59.400 138.842, 62.293 137.771, 67.743 138.589 C 73.187 139.405, 77 137.668, 77 134.370 C 77 133.110, 76.275 131.499, 75.389 130.789 C 68.845 125.554, 67.845 124.039, 68.096 119.750 C 68.233 117.413, 68.672 114.825, 69.072 114 C 69.472 113.175, 70.080 110.700, 70.423 108.500 C 72.334 96.249, 75.527 92, 82.825 92 C 84.433 92, 87.617 91.341, 89.901 90.535 C 94.485 88.918, 97.108 89.487, 100.672 92.870 C 105.092 97.067, 104.420 102, 99.427 102 C 98.146 102, 94.888 102.474, 92.185 103.054 C 86.143 104.350, 85.132 106.180, 85.577 115.022 C 86.380 130.957, 88.181 148.926, 89.500 154.155 C 90.488 158.075, 94.018 160.970, 96.600 159.980 C 99.258 158.962, 101.283 150.112, 99.820 145.913 C 99.226 144.210, 99.210 141.894, 99.778 139.831 C 100.283 137.999, 100.469 135.600, 100.191 134.500 C 99.914 133.400, 99.509 129.575, 99.291 126 C 99.073 122.425, 98.806 118.150, 98.697 116.500 L 98.500 113.500 106.750 113.500 C 115.130 113.500, 117.189 114.524, 113.054 116.634 C 108.831 118.790, 108.388 119.622, 107.535 127 C 107.313 128.925, 106.966 131.838, 106.766 133.473 C 106.209 138.005, 109.334 141, 114.621 141 C 116.965 141, 119.186 140.508, 119.558 139.906 C 119.950 139.272, 121.760 139.029, 123.867 139.329 C 125.865 139.614, 129.525 140.135, 132 140.486 C 135.833 141.031, 136.894 140.778, 139.159 138.775 C 141.041 137.111, 141.568 135.979, 140.964 134.901 C 140.495 134.063, 140.004 131.155, 139.873 128.439 C 139.549 121.747, 135.183 117.060, 129.100 116.875 C 126.845 116.806, 124.550 116.638, 124 116.500 C 123.450 116.362, 122.550 116.194, 122 116.125 C 121.450 116.056, 121 115.539, 121 114.975 C 121 113.706, 125.144 112.069, 128.779 111.903 C 133.331 111.695, 146.162 114.643, 147.065 116.105 C 147.532 116.860, 147.781 120.967, 147.619 125.231 C 147.399 131.022, 146.865 133.492, 145.507 134.992 C 144.508 136.096, 144.097 137.002, 144.595 137.004 C 146.207 137.012, 145.980 144.365, 144.310 146.210 C 142.281 148.452, 143.097 155.556, 145.675 158.084 C 151.527 163.823, 158.157 159.691, 159.497 149.470 C 161.989 130.455, 162.363 122.629, 160.980 118.440 C 160.271 116.290, 159.754 112.910, 159.832 110.928 C 160.029 105.886, 157.192 103.645, 147.250 100.987 C 142.713 99.773, 139 98.380, 139 97.890 C 139 97.401, 139.627 97, 140.394 97 C 141.161 97, 143.234 95.650, 145 94 C 147.715 91.464, 149.015 91, 153.406 91 C 158.739 91, 161 89.809, 161 87 C 161 84.316, 156.047 77.660, 151.872 74.732 C 145.032 69.938, 145.489 66.536, 153.314 64 C 155.860 63.175, 158.893 61.685, 160.053 60.690 C 161.958 59.056, 162.023 58.665, 160.725 56.690 C 158.512 53.322, 153.511 52.118, 141.484 52.056 C 132.719 52.012, 129.757 51.619, 126.984 50.133 C 119.475 46.111, 122.691 43.446, 136.834 41.974 C 141.417 41.496, 145.805 40.577, 146.584 39.930 C 149.054 37.880, 148.243 34.578, 144.750 32.466 C 140.226 29.730, 125.712 29.913, 113.863 32.855 C 109.113 34.035, 103.586 35, 101.581 35 C 97.113 35, 90.995 37.431, 91.015 39.199 C 91.048 41.965, 92.866 43.055, 99.455 44.255 C 103.804 45.048, 106.679 46.126, 107.370 47.222 C 109.145 50.041, 106.846 51.201, 97.816 52.043 C 93.242 52.470, 88.233 53.310, 86.685 53.910 C 82.696 55.455, 82.618 55.430, 77.500 51 C 74.958 48.800, 72.234 47, 71.447 47 C 70.660 47, 68.846 48.312, 67.417 49.916 C 63.888 53.877, 59.815 55.507, 57.091 54.049 C 55.941 53.433, 54.966 52.383, 54.923 51.715 C 54.881 51.047, 54.669 49.600, 54.450 48.500 C 54.232 47.400, 55.054 43.653, 56.277 40.174 L 58.500 33.847 55.694 31.424 C 52.053 28.278, 50.478 28.368, 46.923 31.923 M 80.214 65.793 C 73.392 68.414, 73.086 74.654, 79.574 78.821 C 83.094 81.081, 83.297 81.098, 87.344 79.484 C 95.459 76.247, 100.722 67.527, 96.066 65.035 C 93.229 63.517, 85.133 63.904, 80.214 65.793 M 121 64.741 C 120.175 65.062, 118.982 66.028, 118.349 66.887 C 116.845 68.929, 118.893 70.404, 125.039 71.706 C 132.670 73.323, 136.326 70.326, 132 66 C 130.032 64.032, 124.464 63.394, 121 64.741 M 55.844 69.227 C 52.102 72.430, 51.394 74.309, 50.092 84.500 C 49.460 89.450, 48.449 96.060, 47.847 99.189 C 46.517 106.103, 47.237 109.454, 50.516 111.602 C 52.804 113.102, 53.194 113.103, 55.465 111.615 C 59.145 109.203, 59.762 107.393, 60.832 95.841 C 61.564 87.935, 62.480 83.862, 64.470 79.655 C 66.111 76.186, 67.009 72.783, 66.815 70.767 C 66.522 67.729, 66.220 67.481, 62.500 67.227 C 59.518 67.023, 57.824 67.532, 55.844 69.227 M 114.500 82 C 114.840 82.550, 114.641 83, 114.059 83 C 112.125 83, 112.965 85.854, 115.099 86.531 C 118.053 87.469, 125.609 86.176, 127.004 84.495 C 129.042 82.039, 127.073 81, 120.382 81 C 116.303 81, 114.112 81.373, 114.500 82 M 129.598 97.842 C 129.312 98.304, 127.260 98.631, 125.039 98.566 C 119.489 98.406, 119.767 100.693, 125.401 101.537 C 130.930 102.367, 134 101.437, 134 98.933 C 134 96.969, 130.650 96.138, 129.598 97.842 M 114.467 99.053 C 114.223 99.449, 114.917 100.007, 116.011 100.293 C 117.206 100.605, 118 100.318, 118 99.573 C 118 98.253, 115.215 97.843, 114.467 99.053 M 121.489 132.018 C 120.574 133.498, 121.442 134.255, 123.577 133.838 C 125.140 133.534, 125.156 133.371, 123.745 132.201 C 122.620 131.269, 121.984 131.218, 121.489 132.018" stroke="none" fill="black" fill-rule="evenodd"/>
</svg>