<svg xmlns="http://www.w3.org/2000/svg" width="256" height="256" viewBox="0 0 256 256" version="1.1">
	<path d="M 90.648 30.239 C 89.511 31.089, 88.601 33.363, 88.288 36.139 C 87.429 43.759, 88.708 43.480, 52.673 43.907 C 45.527 43.992, 44.608 44.239, 42.105 46.750 C 39.519 49.344, 39.350 50.076, 39.117 59.664 C 38.906 68.369, 39.115 69.965, 40.577 70.783 C 44.626 73.049, 49.577 69.564, 51.143 63.346 C 52.924 56.272, 52.763 56.316, 71.943 57.768 C 79.276 58.323, 84.487 58.176, 89.443 57.273 C 95.089 56.244, 100.666 56.220, 117.338 57.152 C 139.840 58.411, 141 58.747, 141 63.995 C 141 67.740, 145.433 73, 148.589 73 C 151.441 73, 154.706 70.019, 155.554 66.642 C 155.886 65.317, 155.675 62.493, 155.085 60.366 C 154.494 58.240, 154.009 54.148, 154.006 51.273 C 154.001 46.778, 153.643 45.812, 151.451 44.376 C 149.135 42.859, 147.688 42.824, 135.568 43.993 C 121.692 45.333, 108.164 44.303, 104.508 41.629 C 103.653 41.005, 102.820 38.792, 102.657 36.712 C 102.493 34.632, 101.684 32.256, 100.860 31.432 C 98.686 29.257, 92.873 28.578, 90.648 30.239 M 64.795 64.188 C 62.193 66.190, 60.857 70.864, 61.555 75.521 C 62.411 81.226, 59.390 87.234, 54.803 88.948 C 52.986 89.627, 50.504 90.574, 49.288 91.053 C 46.370 92.200, 40.285 100.670, 39.545 104.613 C 38.392 110.756, 40.966 112.877, 46.678 110.490 C 51.513 108.470, 54.343 108.617, 56.500 111 C 57.495 112.100, 58.803 113.014, 59.405 113.032 C 60.949 113.076, 65.545 117.280, 66.979 119.960 C 68.322 122.470, 67.526 129, 65.876 129 C 65.308 129, 63.114 130.800, 61 133 C 58.886 135.200, 56.784 137.003, 56.328 137.006 C 55.873 137.009, 53.878 137.462, 51.895 138.013 C 45.474 139.796, 41.320 144.934, 40.472 152.140 C 40.002 156.135, 40.211 156.775, 42.353 157.922 C 45.080 159.381, 50.233 158.629, 51.987 156.516 C 52.605 155.771, 55.396 154.339, 58.187 153.335 C 64.477 151.074, 68.722 146.327, 74.139 135.500 C 76.341 131.100, 81.256 123.737, 85.063 119.137 C 89.396 113.901, 92.398 109.228, 93.093 106.637 C 93.703 104.362, 94.488 102.050, 94.836 101.500 C 95.184 100.950, 95.498 99.825, 95.534 99 C 95.664 95.982, 97.171 93, 98.567 93 C 99.355 93, 100.020 92.438, 100.044 91.750 C 100.069 91.063, 100.907 92.075, 101.906 94 C 103.712 97.476, 104.812 107.059, 105.407 124.500 C 105.861 137.784, 107.600 143.898, 112.165 148.257 C 120.574 156.288, 138.200 160.305, 147.934 156.410 C 152.880 154.431, 155.636 150.031, 158.138 140.123 C 161.276 127.692, 160.777 126.356, 153.410 127.461 C 148.292 128.229, 146.322 130.487, 145.680 136.320 C 145.449 138.421, 144.814 140.586, 144.269 141.131 C 143.039 142.361, 138.326 142.484, 130.500 141.490 C 123.152 140.556, 121.408 139.710, 119.649 136.220 C 118.340 133.625, 116.571 118.845, 116.809 112.500 C 116.871 110.850, 117.052 104.826, 117.211 99.114 C 117.560 86.582, 118.110 85.896, 126.187 87.924 C 129.109 88.657, 132.063 89.705, 132.750 90.251 C 134.400 91.563, 134.338 97.560, 132.614 103.288 C 131.851 105.822, 131.443 108.110, 131.706 108.373 C 131.970 108.636, 132.271 111.578, 132.376 114.909 C 132.589 121.662, 133.211 122.692, 137.607 123.571 C 140.185 124.087, 140.938 123.745, 142.518 121.340 C 143.545 119.778, 144.753 116.475, 145.202 114 C 145.651 111.525, 146.535 106.800, 147.165 103.500 C 147.795 100.200, 148.280 93.528, 148.241 88.674 C 148.157 77.995, 147.097 76.271, 140.751 76.491 C 138.413 76.573, 130.215 76.277, 122.534 75.834 L 108.567 75.028 104.801 77.638 C 102.730 79.073, 101.265 80.619, 101.546 81.074 C 101.826 81.528, 101.143 82.388, 100.028 82.985 C 97.957 84.094, 94.304 82.934, 92.852 80.707 C 92.496 80.160, 88.790 79.494, 84.616 79.226 C 76.294 78.692, 74.159 77.439, 75.931 74.130 C 77.755 70.720, 77.190 67.355, 74.496 65.589 C 70.926 63.250, 66.790 62.653, 64.795 64.188 M 70.035 91.882 C 67.004 92.422, 66.454 92.988, 65.651 96.395 C 64.828 99.887, 64.980 100.478, 67.116 102.107 C 70.358 104.579, 74.449 105.365, 76.989 104.006 C 79.807 102.498, 81.304 98.436, 79.965 95.935 C 79.396 94.871, 79.256 94, 79.656 94 C 80.055 94, 79.509 93.339, 78.441 92.532 C 76.379 90.972, 75.510 90.905, 70.035 91.882" stroke="none" fill="black" fill-rule="evenodd"/>
</svg>