<svg xmlns="http://www.w3.org/2000/svg" width="256" height="256" viewBox="0 0 256 256" version="1.1">
	<path d="M 90.276 24.991 C 89.338 26.086, 87.828 28.898, 86.919 31.241 C 84.422 37.677, 79.233 39.380, 69.500 36.956 C 64.020 35.592, 42.626 35.758, 39.485 37.189 C 36.558 38.522, 36.317 39.388, 35.504 51.500 C 34.822 61.646, 35.569 63.594, 40.516 64.565 C 45.282 65.500, 49 62.017, 49 56.619 C 49 49.491, 50.474 48.456, 60.174 48.769 C 69.176 49.060, 74.132 50.249, 76.068 52.582 C 77.523 54.335, 75.651 56.189, 70 58.598 C 62.650 61.731, 62 62.261, 62 65.134 C 62 68.314, 63.680 69.511, 69.518 70.491 C 71.708 70.858, 75.300 71.844, 77.500 72.682 C 83.424 74.937, 85.890 75.200, 87.792 73.777 C 89.692 72.357, 89.725 72.248, 90.407 65.291 C 90.770 61.586, 90.422 59.579, 89.016 57.267 C 87.177 54.243, 87.178 54.148, 89.069 52.437 C 93.277 48.630, 104.986 51.267, 103.306 55.644 C 102.015 59.008, 107.127 76.959, 109.385 76.989 C 110.498 77.003, 106.022 80.521, 104 81.221 C 103.175 81.506, 101.104 81.174, 99.398 80.483 C 94.100 78.336, 88.547 77.833, 83.675 79.060 C 81.104 79.708, 79 80.588, 79 81.017 C 79 81.446, 75.737 82.113, 71.750 82.500 C 57.456 83.887, 55.545 86.372, 55.620 103.474 C 55.665 113.747, 55.892 114.991, 58.943 121.695 C 61.265 126.795, 62.812 128.978, 64.259 129.195 C 65.381 129.363, 67.175 130.677, 68.245 132.116 C 70.041 134.531, 70.073 134.958, 68.665 137.682 C 66.449 141.966, 60.399 145.734, 52.674 147.640 C 44.984 149.538, 41.302 153.081, 42.414 157.513 C 43.433 161.573, 46.031 162.197, 52.635 159.968 C 55.861 158.879, 61.038 157.318, 64.140 156.498 C 70.265 154.880, 73.132 152.562, 79.500 144.077 C 88.331 132.311, 87.555 132.878, 94.376 133.206 L 100.500 133.500 101.722 138.500 C 103.768 146.868, 106.030 151.878, 108.717 153.992 C 113.017 157.374, 123.514 160.031, 133.436 160.248 C 144.951 160.499, 148.843 158.772, 154.275 151 C 157.852 145.882, 158.092 145.095, 157.740 139.671 C 157.344 133.579, 156.257 132.043, 152.323 132.015 C 149.306 131.994, 146.359 136.118, 145.554 141.488 C 144.708 147.130, 142.617 147.424, 138.161 142.527 C 136.422 140.616, 135 138.785, 135 138.457 C 135 138.129, 136.350 135.898, 138 133.500 C 141.343 128.641, 141.576 126.996, 139.720 121.376 C 138.880 118.835, 138.505 112.678, 138.629 103.500 C 138.735 95.657, 138.356 88.270, 137.768 86.703 C 136.243 82.638, 131.678 80.657, 122.276 79.979 C 114.524 79.420, 110.939 78.283, 113.756 77.278 C 114.447 77.031, 114.790 76.469, 114.517 76.028 C 113.566 74.488, 116.849 72.913, 123.116 71.904 C 126.589 71.345, 130.009 70.407, 130.716 69.821 C 134.451 66.721, 129.688 60.729, 120.533 57.013 C 117.490 55.778, 115 54.209, 115 53.526 C 115 51.354, 135.330 50.036, 138.951 51.974 C 139.951 52.509, 141.077 54.170, 141.452 55.664 C 142.439 59.598, 147.588 65.688, 150.377 66.221 C 153.196 66.760, 156.565 64.455, 157.757 61.170 C 158.819 58.245, 156.563 44.509, 154.505 41.367 C 151.823 37.274, 146.482 36.486, 130.143 37.773 C 110.959 39.284, 106.637 38.344, 103.241 31.924 C 98.653 23.248, 93.931 20.722, 90.276 24.991 M 86.813 76.683 C 87.534 76.972, 88.397 76.936, 88.729 76.604 C 89.061 76.272, 88.471 76.036, 87.417 76.079 C 86.252 76.127, 86.015 76.364, 86.813 76.683 M 70.625 90.484 C 68.013 92.461, 69.261 95, 72.844 95 C 78.251 95, 82.001 93.821, 81.985 92.125 C 81.973 90.853, 81.786 90.790, 81.123 91.835 C 80.480 92.849, 80.147 92.669, 79.732 91.085 C 79.315 89.487, 78.406 89.007, 75.844 89.032 C 74.005 89.049, 71.656 89.703, 70.625 90.484 M 97.333 90.810 C 95.918 92.225, 95.946 92.434, 97.636 93.038 C 100.296 93.990, 118.685 95.058, 120.490 94.366 C 122.400 93.633, 122.411 92.268, 120.522 90.379 C 118.379 88.236, 99.557 88.586, 97.333 90.810 M 69.586 104.637 C 69.226 105.574, 69.418 106.640, 70.011 107.007 C 71.207 107.746, 88.069 107.244, 92 106.352 C 94.325 105.824, 94.360 105.733, 92.500 105.040 C 91.400 104.630, 87.688 104.400, 84.250 104.529 C 80.813 104.658, 78 104.454, 78 104.077 C 78 103.700, 76.254 103.288, 74.120 103.162 C 71.246 102.992, 70.070 103.375, 69.586 104.637 M 113.470 104.048 C 113.114 104.624, 112.075 105.022, 111.161 104.933 C 107.768 104.600, 105 105.026, 105 105.883 C 105 107.394, 119.867 108.356, 121.556 106.954 C 122.820 105.905, 122.654 105.533, 120.401 104.364 C 117.263 102.736, 114.363 102.604, 113.470 104.048 M 71.750 116.406 C 70.237 116.945, 69 117.733, 69 118.158 C 69 119.048, 73.163 121.519, 74.184 121.234 C 74.837 121.053, 83.261 120.270, 91.237 119.649 C 93.293 119.489, 95.233 119.101, 95.548 118.786 C 95.863 118.471, 98.231 118.756, 100.810 119.420 C 103.390 120.084, 107.188 120.568, 109.250 120.495 C 111.313 120.422, 113 120.731, 113 121.182 C 113 121.632, 114.973 122, 117.383 122 C 121.062 122, 121.859 121.645, 122.344 119.794 C 122.661 118.580, 122.755 117.422, 122.554 117.220 C 122.352 117.018, 113.932 116.880, 103.843 116.913 C 93.754 116.947, 83.025 116.625, 80 116.200 C 76.791 115.748, 73.355 115.834, 71.750 116.406 M 115.671 131.811 C 114.375 133.243, 114.230 134.315, 114.978 136.924 C 115.499 138.740, 115.889 140.512, 115.844 140.863 C 115.453 143.945, 116.369 144.886, 120.750 145.897 C 128.351 147.653, 129.725 147.185, 131.151 142.355 C 131.837 140.030, 132.759 138.351, 133.199 138.623 C 135.070 139.779, 133.761 137.788, 130.750 134.897 C 125.372 129.735, 118.772 128.384, 115.671 131.811" stroke="none" fill="black" fill-rule="evenodd"/>
</svg>