<svg xmlns="http://www.w3.org/2000/svg" width="256" height="256" viewBox="0 0 256 256" version="1.1">
	<path d="M 89.970 29.250 C 88.936 30.488, 86.982 32.850, 85.627 34.500 L 83.163 37.500 65.165 37.181 C 45.578 36.834, 41.576 37.660, 40.515 42.268 C 36.005 61.861, 35.977 62.658, 39.750 64.102 C 41.688 64.843, 43.574 64.834, 46.136 64.071 C 49.504 63.068, 49.873 62.566, 51.136 57.264 C 53.298 48.191, 53.483 48.155, 82.500 51.078 C 89.100 51.743, 96.525 52.222, 99 52.144 C 101.475 52.065, 110.677 51.747, 119.448 51.437 C 137.533 50.799, 139.401 51.272, 141.098 56.926 C 143.742 65.734, 151.562 68.911, 154.109 62.213 C 155.510 58.529, 153.213 44.207, 150.670 40.767 C 148.138 37.342, 143.454 36.368, 136.634 37.847 C 133.123 38.608, 127.243 38.691, 118.033 38.109 C 106.725 37.394, 104.400 36.972, 103.533 35.475 C 98.892 27.461, 93.522 24.996, 89.970 29.250 M 90.500 57.088 C 87.200 58.123, 82.617 58.977, 80.315 58.985 C 76.366 58.999, 62.074 61.593, 61.215 62.452 C 60.996 62.670, 61.082 63.671, 61.405 64.675 C 61.765 65.792, 64.581 67.469, 68.668 69 C 72.340 70.375, 75.901 72.055, 76.583 72.732 C 78.542 74.681, 77.159 77.587, 72.071 82.213 C 61.668 91.672, 59.717 92.773, 52 93.545 C 44.929 94.251, 43 95.643, 43 100.036 C 43 105.258, 45.543 106.205, 60.714 106.636 C 68.515 106.858, 74.645 107.456, 74.833 108.014 C 75.017 108.556, 76.272 109, 77.623 109 C 79.677 109, 79.868 109.230, 78.789 110.404 C 78.080 111.177, 77.275 111.768, 77 111.718 C 76.725 111.669, 73.654 111.985, 70.175 112.421 C 62.421 113.393, 59.223 116.115, 56.133 124.374 C 53.448 131.550, 53.461 134.210, 56.223 143.052 C 58.870 151.524, 60.414 152.705, 66.317 150.773 C 69.009 149.892, 72.104 149.649, 75 150.093 C 77.475 150.472, 85.599 150.577, 93.053 150.326 L 106.605 149.870 114.415 154.082 L 122.224 158.295 127.423 156.656 C 131.765 155.287, 132.916 154.399, 134.409 151.268 C 135.392 149.206, 136.386 144.815, 136.617 141.510 C 136.848 138.204, 137.487 133.304, 138.036 130.620 C 138.585 127.937, 138.749 123.589, 138.400 120.960 C 137.952 117.578, 138.266 114.871, 139.473 111.709 C 141.388 106.695, 144.028 105, 149.925 105 C 156.297 105, 157.984 100.540, 153 96.872 C 151.617 95.854, 147.297 94.584, 143.330 94.031 C 134.916 92.856, 131.012 91.296, 130.968 89.089 C 130.918 86.590, 128.897 84.683, 123.500 82.045 C 116.637 78.690, 116.129 78.223, 116.749 75.851 C 117.339 73.597, 122.483 71, 126.357 71 C 127.689 71, 129.818 70.158, 131.089 69.129 C 133.269 67.364, 133.310 67.122, 131.808 64.830 C 129.653 61.540, 124.316 59.903, 113 59.062 C 107.775 58.673, 101.925 57.646, 100 56.780 C 96.760 55.321, 96.054 55.344, 90.500 57.088 M 93 86 C 93 86.550, 92.415 87, 91.699 87 C 88.593 87, 85.073 89.547, 85.246 91.670 C 85.396 93.514, 86.029 93.836, 89.461 93.813 C 91.683 93.799, 95.626 94.120, 98.224 94.526 C 103.212 95.306, 108 93.411, 108 90.657 C 108 87.760, 103.118 85, 97.992 85 C 95.247 85, 93 85.450, 93 86 M 115 108.014 C 114.082 108.615, 108.612 108.748, 100.909 108.357 C 87.394 107.671, 81 108.319, 81 110.376 C 81 112.669, 85.693 114.256, 93.178 114.496 C 104.014 114.843, 106.604 115.630, 108 118.999 C 109.032 121.491, 108.886 122.430, 106.928 125.914 C 104.845 129.620, 104.770 130.272, 105.990 133.970 C 109.995 146.105, 116.935 148.381, 123.403 139.678 C 125.239 137.208, 125.544 135.175, 125.850 123.361 C 126.166 111.164, 126.022 109.732, 124.350 108.465 C 122.200 106.836, 117.168 106.593, 115 108.014 M 69.158 127.720 C 65.150 129.661, 64.487 131.764, 67.190 133.953 C 70.383 136.539, 88.728 137.541, 91.250 135.268 C 93.493 133.245, 93.491 129.754, 91.245 127.721 C 88.908 125.607, 73.523 125.606, 69.158 127.720" stroke="none" fill="black" fill-rule="evenodd"/>
</svg>