<svg xmlns="http://www.w3.org/2000/svg" width="256" height="256" viewBox="0 0 256 256" version="1.1">
	<path d="M 65.350 33.874 C 50.367 34.715, 50.432 34.649, 50.067 49.247 C 49.729 62.751, 49.727 63.470, 49.988 82.500 C 50.213 98.907, 48.808 113.911, 46.501 119.756 C 44.673 124.389, 38.961 145.283, 38.261 149.900 C 37.844 152.652, 38.199 153.648, 40.123 155.128 C 45.636 159.367, 50.166 155.918, 52.955 145.359 C 53.951 141.587, 56.132 134.856, 57.801 130.403 C 60.487 123.240, 60.920 120.561, 61.557 107.183 C 62.181 94.072, 62.533 91.828, 64.204 90.315 C 66.834 87.936, 74.226 88.313, 78.030 91.021 C 80.560 92.823, 80.797 93.404, 79.932 95.679 C 79.388 97.108, 77.870 99.554, 76.559 101.113 C 73.882 104.294, 74.078 107.174, 77.209 110.640 C 78.846 112.452, 80.244 112.778, 86.321 112.767 C 100.686 112.740, 106 114.937, 101.986 119.245 C 100.326 121.028, 99.226 121.213, 92.976 120.766 C 89.060 120.486, 85.349 119.749, 84.728 119.128 C 81.338 115.738, 73 120.541, 73 125.885 C 73 129.272, 76.017 132.243, 79.757 132.540 C 86.884 133.107, 100.632 135.459, 101.750 136.302 C 103.246 137.430, 103.384 141.415, 102.015 143.971 C 101.126 145.633, 99.955 145.767, 89.952 145.357 C 83.859 145.107, 77.889 144.559, 76.687 144.140 C 74.001 143.205, 73.464 143.255, 68.681 144.893 C 64.088 146.466, 62.663 149.370, 64.613 153.187 C 65.368 154.664, 66.514 156.200, 67.160 156.599 C 67.807 156.998, 76.697 157.558, 86.918 157.844 C 109.960 158.486, 113.017 158.472, 120.500 157.680 C 123.800 157.331, 131.863 156.996, 138.419 156.934 C 151.572 156.811, 154.504 156.137, 155.497 153.009 C 156.414 150.120, 154.763 148.473, 149.455 146.987 C 146.977 146.293, 144.709 145.337, 144.415 144.863 C 143.630 143.593, 130.962 143.813, 124.948 145.201 C 119.999 146.344, 119.653 146.290, 117.872 144.090 C 115.439 141.086, 115.485 136.776, 117.974 134.523 C 119.629 133.025, 120.400 132.923, 122.737 133.891 C 125.388 134.989, 130.053 135.487, 134.561 135.153 C 137.818 134.911, 140.824 131.528, 140.285 128.709 C 139.519 124.704, 133.481 122, 125.301 122 C 119.015 122, 118.125 121.740, 115.684 119.192 L 112.994 116.384 115.001 114.229 C 118.910 110.034, 125.515 109.365, 140.419 111.656 C 148.165 112.847, 148.288 106.731, 140.646 100.340 C 135.541 96.071, 135.138 93.496, 139.190 91.026 C 141.010 89.916, 143.876 89.006, 145.559 89.004 C 152.590 88.995, 153.783 84.306, 147.752 80.387 C 144.653 78.374, 143.418 78.285, 121.500 78.498 C 108.850 78.621, 94.450 78.447, 89.500 78.111 C 84.550 77.775, 77.575 77.792, 74 78.149 C 70.425 78.506, 66.723 78.383, 65.773 77.876 C 62.932 76.360, 61.984 73.665, 63.338 70.950 C 64.810 67.997, 69.875 66.942, 76.746 68.156 C 79.361 68.619, 93.820 69.241, 108.878 69.539 C 128.684 69.931, 137.159 70.458, 139.521 71.444 C 142.428 72.659, 143.123 72.603, 145.866 70.935 C 149.762 68.566, 150.021 67.277, 149.735 51.692 C 149.424 34.748, 150.315 35.450, 128.084 34.627 C 97.489 33.495, 76.582 33.244, 65.350 33.874 M 63.985 48.015 C 59.732 52.268, 62.556 55.398, 70.260 54.970 C 78.343 54.521, 81.752 54.590, 107.436 55.726 C 125.161 56.510, 131.842 56.491, 133.186 55.652 C 135.461 54.231, 135.478 52.803, 133.250 50.092 C 131.345 47.774, 134.443 47.994, 83.235 46.525 C 66.986 46.059, 65.853 46.147, 63.985 48.015 M 100.906 92.399 C 96.595 93.793, 95.656 97.945, 99.106 100.362 C 100.327 101.217, 101.590 101.763, 101.913 101.576 C 102.236 101.388, 104.907 100.949, 107.849 100.600 C 114.687 99.788, 116.500 98.776, 116.760 95.628 C 116.938 93.484, 116.463 92.996, 113.735 92.516 C 107.129 91.353, 104.225 91.326, 100.906 92.399" stroke="none" fill="black" fill-rule="evenodd"/>
</svg>