<svg xmlns="http://www.w3.org/2000/svg" width="256" height="256" viewBox="0 0 256 256" version="1.1">
	<path d="M 112.500 29.403 C 108.436 31.197, 106.833 33.199, 102.287 42.163 C 99.388 47.877, 97.099 50.854, 93.280 53.873 C 86.511 59.223, 85.985 61.107, 90.194 64.935 C 93.670 68.096, 93.754 68.130, 98.476 68.357 C 100.709 68.464, 101.679 69.145, 102.360 71.083 C 103.968 75.656, 101.382 78.990, 93 83.148 C 88.875 85.194, 85.235 86.898, 84.911 86.934 C 84.586 86.970, 83.771 85.793, 83.099 84.319 C 82.227 82.403, 82.075 78.443, 82.567 70.447 C 83.218 59.881, 83.137 59.137, 81.128 57.128 C 77.186 53.186, 73.453 54.816, 70.315 61.850 C 68.708 65.452, 68.619 68.635, 69.343 96.500 C 69.512 103.021, 68.710 110.041, 67.589 111.856 C 67.200 112.485, 67.387 113, 68.004 113 C 69.440 113, 68.896 117.082, 67.224 118.847 C 66.523 119.588, 65.278 119.937, 64.459 119.623 C 62.571 118.898, 60.575 113.883, 61.856 113.083 C 62.369 112.762, 62.575 109.575, 62.313 106 C 61.593 96.165, 61.591 90.208, 62.305 82.500 C 62.662 78.650, 62.582 70.100, 62.127 63.500 C 61.453 53.725, 60.834 50.585, 58.788 46.566 L 56.277 41.632 53.611 44.299 C 47.161 50.748, 46.064 58.454, 48.955 77 C 50.891 89.419, 50.220 107.785, 47.719 110.826 C 46.938 111.777, 46.935 112.343, 47.711 112.826 C 49.553 113.972, 49.550 117.381, 47.705 120 C 46.224 122.102, 45.791 122.261, 44.987 121 C 43.701 118.984, 43.737 113, 45.035 113 C 45.711 113, 45.745 112.393, 45.134 111.250 C 43.364 107.940, 42.751 102.456, 42.126 84.327 C 41.525 66.889, 41.402 66.049, 39.076 63.577 C 36.338 60.667, 31.974 60.168, 29.643 62.499 C 27.727 64.416, 26.613 73.261, 27.420 80.153 C 27.764 83.094, 28.394 91.350, 28.819 98.500 C 29.404 108.340, 30.086 112.528, 31.626 115.727 C 34.603 121.916, 38.337 125, 42.852 125 C 46.729 125, 49 126.393, 49 128.771 C 49 132.846, 56.742 134.695, 61.080 131.657 C 62.381 130.745, 63.088 130, 62.651 130 C 62.214 130, 62.605 129.252, 63.519 128.338 C 64.925 126.932, 65.321 126.893, 66.089 128.088 C 66.589 128.865, 66.873 130.175, 66.720 131 C 66.432 132.559, 67.165 133.752, 70.439 137.048 C 75.392 142.035, 82.466 136.412, 78.621 130.544 C 77.242 128.440, 77.371 127.509, 80.165 119.374 C 82.805 111.687, 83.150 109.497, 82.741 103.002 C 82.481 98.879, 82.717 94.520, 83.265 93.318 L 84.262 91.131 89.448 94.057 L 94.634 96.984 99.351 93.992 C 101.946 92.346, 104.414 91, 104.835 91 C 107.246 91, 110.911 88.193, 111.347 86.013 C 111.624 84.631, 112.962 81.861, 114.322 79.857 C 115.682 77.854, 117.107 74.788, 117.490 73.043 C 118.236 69.651, 121.723 67.296, 124.451 68.343 C 125.320 68.676, 126.483 70.198, 127.036 71.724 C 127.589 73.251, 128.447 75.400, 128.944 76.500 C 129.440 77.600, 130.076 80.525, 130.356 83 C 130.754 86.521, 131.578 88.098, 134.145 90.250 C 135.949 91.763, 138.004 93, 138.712 93 C 139.421 93, 140 93.450, 140 94 C 140 94.588, 143.500 95, 148.500 95 C 155.667 95, 157.314 94.686, 159 93 C 161.614 90.386, 161.531 87.833, 158.750 85.299 C 155.440 82.284, 152.524 81, 148.989 81 C 144.399 81, 139.687 76.095, 140.638 72.306 C 141.816 67.612, 143.740 66.504, 150.790 66.458 C 155.783 66.425, 157.515 66.016, 158.531 64.627 C 160.511 61.920, 158.620 58.031, 153.482 54.243 C 151.053 52.451, 147.255 48.320, 145.043 45.063 C 140.803 38.819, 138.286 37.241, 135.201 38.892 C 133.631 39.733, 133.399 40.763, 133.770 45.237 C 134.370 52.478, 132.975 53.584, 123.713 53.207 C 115.171 52.859, 113 51.832, 113 48.139 C 113 44.865, 115.987 41.739, 121.195 39.563 C 123.213 38.720, 125.098 37.650, 125.385 37.186 C 126.293 35.716, 121.620 30.096, 118.601 29.027 C 117.006 28.462, 115.656 28.018, 115.601 28.039 C 115.545 28.061, 114.150 28.674, 112.500 29.403 M 111.190 92.483 C 111.569 92.885, 111.441 93.728, 110.906 94.357 C 110.370 94.985, 109.385 96.249, 108.716 97.165 C 108.047 98.080, 105.639 99.028, 103.363 99.270 C 101.088 99.513, 98.236 100.634, 97.027 101.760 C 95.114 103.542, 94.990 104.112, 96.072 106.134 C 96.756 107.413, 97.942 109.085, 98.708 109.851 C 100.705 111.848, 99.902 114.280, 96.746 115.793 C 95.244 116.513, 93.547 117.979, 92.973 119.051 C 92.098 120.686, 92.257 121, 93.965 121 C 95.084 121, 96 121.450, 96 122 C 96 122.550, 96.675 123, 97.500 123 C 98.325 123, 99 123.450, 99 124 C 99 124.550, 99.563 125.002, 100.250 125.005 C 100.938 125.007, 102.963 126.380, 104.750 128.055 C 107.930 131.036, 108.708 133.396, 107.235 135.599 C 106.081 137.323, 97.140 142, 94.995 142 C 91.675 142, 85 146.043, 85 148.054 C 85 152.657, 90.064 158, 94.426 158 C 96.880 158, 112.223 150.092, 114.511 147.648 C 119.944 141.845, 124.177 141.674, 130.619 146.997 C 137.197 152.433, 143 154.982, 150.361 155.669 C 157.084 156.297, 158.293 155.666, 159.488 150.903 C 159.978 148.953, 159.484 147.540, 157.480 145.158 C 156.018 143.421, 154.194 142, 153.426 142 C 151.765 142, 140.249 136.232, 137.750 134.149 C 135.083 131.926, 135.471 126.050, 138.500 122.783 C 139.875 121.301, 141 119.454, 141 118.680 C 141 117.906, 142.062 116.199, 143.361 114.886 C 145.819 112.403, 148.682 107.231, 148.557 105.500 C 148.461 104.159, 145.812 100.565, 144.216 99.608 C 143.509 99.186, 140.134 98.441, 136.716 97.955 C 133.297 97.468, 128.596 96.148, 126.268 95.021 C 122.224 93.062, 109.753 90.963, 111.190 92.483 M 114.615 110.465 C 111.702 114.910, 112.465 116.533, 118.076 117.828 C 125.527 119.548, 127.465 119.303, 130.764 116.221 L 133.739 113.441 127.948 110.721 C 120.583 107.260, 116.763 107.187, 114.615 110.465 M 64.510 122.016 C 64.856 122.575, 65.557 122.774, 66.069 122.457 C 67.456 121.600, 67.198 121, 65.441 121 C 64.584 121, 64.165 121.457, 64.510 122.016" stroke="none" fill="black" fill-rule="evenodd"/>
</svg>