<svg xmlns="http://www.w3.org/2000/svg" width="256" height="256" viewBox="0 0 256 256" version="1.1">
	<path d="M 69.922 27.862 C 68.303 29.173, 67.456 31.168, 67.061 34.601 C 66.364 40.663, 64.628 41.661, 52.674 42.872 C 40.919 44.064, 33.867 48.401, 36.616 52.750 C 37.576 54.268, 39.299 54.485, 49.611 54.385 C 56.150 54.322, 64.983 53.926, 69.240 53.504 C 77.877 52.649, 80.771 53.691, 78.992 57.015 C 77.778 59.283, 71.695 60.436, 62.456 60.151 C 56.255 59.959, 55.156 60.206, 53.274 62.216 C 50.126 65.580, 48.285 72.326, 47.674 82.736 C 47.207 90.692, 47.461 92.978, 49.509 99.231 C 52.991 109.862, 56.159 111.700, 72.734 112.709 C 79.715 113.134, 82.368 112.939, 83.607 111.911 C 86.061 109.874, 113.302 110.497, 116.612 112.665 C 117.925 113.526, 119 114.837, 119 115.580 C 119 118.489, 115.124 118.948, 93.863 118.553 C 65.372 118.025, 40.789 117.719, 39.250 117.874 C 38.489 117.951, 38 119.503, 38 121.845 C 38 127.763, 39.816 128.713, 51.135 128.720 C 58.363 128.724, 61.344 129.127, 63.067 130.334 C 65.503 132.040, 70 141.875, 70 145.496 C 70 148.379, 74.010 152, 77.204 152 C 80.719 152, 84.312 148.977, 83.454 146.741 C 83.087 145.784, 82.368 145, 81.858 145 C 81.347 145, 81.492 143.988, 82.179 142.750 C 83.715 139.985, 83.794 139.213, 82.888 135.807 C 81.997 132.454, 82.717 132.274, 93.438 133.169 C 97.872 133.538, 104.522 133.877, 108.215 133.920 C 115.625 134.008, 117 135.087, 117 140.812 C 117 144.274, 115.501 145.750, 111.087 146.633 C 107.582 147.334, 104.616 150.835, 105.524 153.201 C 106.621 156.060, 114.205 159.401, 119.715 159.452 C 127.645 159.525, 129.171 157.510, 129.652 146.336 C 129.861 141.476, 130.526 135.988, 131.130 134.140 C 132.210 130.835, 132.294 130.794, 136.364 131.612 C 138.639 132.069, 143.052 132.456, 146.170 132.471 C 150.761 132.495, 152.314 132.055, 154.326 130.164 C 157.521 127.161, 158.143 124.650, 156.333 122.065 C 155.019 120.189, 153.869 120, 143.772 120 C 135.005 120, 132.286 119.663, 130.896 118.406 C 129.927 117.529, 129.384 116.163, 129.689 115.369 C 130.453 113.378, 135.324 111.005, 138.700 110.978 C 143.494 110.940, 145.844 108.175, 147.611 100.495 C 148.496 96.648, 149.172 92.600, 149.112 91.500 C 148.409 78.539, 148.005 76.510, 143.896 65.303 C 142.506 61.510, 138.397 59.662, 130.649 59.346 C 120.631 58.937, 117 58.168, 117 56.455 C 117 55.655, 117.900 55, 119 55 C 120.100 55, 121 54.647, 121 54.216 C 121 53.285, 131.118 53.486, 135.749 54.509 C 140.200 55.492, 151.826 53.204, 152.910 51.131 C 153.380 50.234, 153.392 48.516, 152.937 47.312 C 151.863 44.469, 146.559 43.013, 137.250 43.006 C 128.420 42.999, 126 41.277, 126 35 C 126 30.581, 123.347 27, 120.073 27 C 117.278 27, 114 31.689, 114 35.686 C 114 41.017, 109.949 42.258, 95.387 41.387 C 82.227 40.601, 79.369 39.282, 79.217 33.930 C 79.126 30.711, 75.692 26, 73.436 26 C 72.768 26, 71.187 26.838, 69.922 27.862 M 97 54.131 C 97 54.793, 96.716 55.049, 96.369 54.702 C 96.021 54.355, 94.867 54.536, 93.804 55.105 C 90.866 56.677, 93.406 59, 98.063 59 C 102.357 59, 103.594 57.849, 102.085 55.258 C 101.521 54.291, 101.047 53.853, 101.030 54.285 C 101.014 54.717, 100.100 54.589, 99 54 C 97.516 53.206, 97 53.240, 97 54.131 M 63.147 73.576 C 61.587 77.001, 62.736 96.918, 64.645 99.529 C 66.919 102.639, 87.045 103.625, 86.973 100.623 C 86.959 100.005, 84.322 96.239, 81.114 92.254 C 75.974 85.870, 75.212 84.346, 74.705 79.435 C 73.994 72.541, 72.776 71, 68.038 71 C 65.014 71, 64.102 71.481, 63.147 73.576 M 121.010 72.488 C 120 73.705, 120.115 74.097, 121.637 74.636 C 122.662 74.999, 124.861 75.838, 126.524 76.502 C 128.912 77.455, 129.794 77.446, 130.718 76.457 C 131.362 75.768, 132.389 75.037, 133.001 74.833 C 133.614 74.629, 133.816 73.684, 133.450 72.731 C 132.571 70.441, 122.866 70.251, 121.010 72.488 M 93.073 74.729 C 89.308 75.437, 86.246 77.857, 85.155 80.985 C 83.448 85.883, 85.363 87.145, 96.300 88.331 C 108.525 89.656, 113.363 88.683, 113.811 84.808 C 114.671 77.357, 104.745 72.533, 93.073 74.729 M 121.186 88.055 C 119.913 88.565, 119.139 89.416, 119.466 89.946 C 119.794 90.475, 119.780 92.027, 119.437 93.395 C 118.990 95.176, 117.917 96.062, 115.656 96.516 C 109.857 97.680, 109 98.124, 109 99.965 C 109 101.486, 109.632 101.725, 112.750 101.381 C 114.813 101.153, 120.100 100.707, 124.500 100.389 C 128.900 100.071, 132.865 99.466, 133.311 99.044 C 134.594 97.832, 134.364 90.143, 132.996 88.495 C 131.607 86.821, 124.885 86.571, 121.186 88.055" stroke="none" fill="black" fill-rule="evenodd"/>
</svg>