<svg xmlns="http://www.w3.org/2000/svg" width="256" height="256" viewBox="0 0 256 256" version="1.1">
	<path d="M 95.913 29.256 C 92.256 32.123, 91.982 34.429, 91.987 62.201 C 91.998 115.886, 91.557 135.832, 90.331 137.064 C 89.688 137.710, 87.245 138.212, 84.903 138.179 C 79.315 138.102, 76.997 139.386, 77.549 142.253 C 78.252 145.906, 81.325 149.351, 86.020 151.750 C 93.984 155.819, 101.411 154.039, 104.880 147.229 C 106.651 143.753, 106.753 141.463, 106.372 113.500 C 106.028 88.228, 106.218 82.476, 107.582 77 C 108.912 71.656, 108.980 69.966, 107.964 67.500 C 107.249 65.763, 106.567 58.248, 106.346 49.650 C 106.136 41.483, 105.537 34.058, 105.015 33.150 C 103.041 29.714, 102.412 29.143, 99.990 28.585 C 98.620 28.270, 96.786 28.572, 95.913 29.256 M 127.250 58.505 C 123.949 60.865, 124.317 64.475, 128.015 66.006 C 133.069 68.099, 139.031 78.010, 141.411 88.272 C 143.130 95.683, 148.106 104.581, 151.055 105.517 C 152.125 105.857, 153 106.520, 153 106.990 C 153 107.460, 154.565 108.361, 156.477 108.992 C 159.404 109.958, 160.433 109.857, 162.977 108.354 C 164.640 107.372, 166 106.056, 166 105.428 C 166 104.801, 164.417 102.215, 162.482 99.681 C 160.548 97.147, 158.679 93.595, 158.329 91.787 C 157.980 89.979, 156.458 87.074, 154.948 85.331 C 153.439 83.588, 151.905 80.400, 151.542 78.246 C 151.178 76.092, 149.894 73.404, 148.690 72.273 C 141.170 65.210, 138.276 62.241, 136.973 60.253 C 135.027 57.285, 130.176 56.412, 127.250 58.505 M 58.213 62.102 C 54.587 64.464, 52.528 67.859, 50.423 74.946 C 49.657 77.525, 46.549 83.430, 43.515 88.067 C 38.599 95.583, 38 97.068, 38 101.749 C 38 107.290, 40.258 111, 43.632 111 C 49.186 111, 55.897 102.234, 60.092 89.500 C 62.564 81.998, 62.888 81.229, 67.573 71.738 C 70.912 64.971, 71.218 63.794, 69.952 62.561 C 67.279 59.957, 61.832 59.744, 58.213 62.102" stroke="none" fill="black" fill-rule="evenodd"/>
</svg>