<svg xmlns="http://www.w3.org/2000/svg" width="256" height="256" viewBox="0 0 256 256" version="1.1">
	<path d="M 127.494 31.740 C 126.941 32.158, 125.196 34.233, 123.616 36.351 C 122.036 38.470, 120.464 39.804, 120.122 39.317 C 119.780 38.830, 118.202 37.434, 116.615 36.216 C 113.208 33.599, 108.664 33.379, 102.134 35.517 C 99.585 36.351, 95.591 37.493, 93.257 38.054 C 90.169 38.796, 88.615 39.845, 87.550 41.904 C 85.641 45.594, 87.023 47.470, 92.753 48.967 C 97.367 50.173, 99.744 52.869, 100.917 58.227 C 102.198 64.078, 100.977 66.314, 95.468 68.206 C 88.120 70.730, 85.152 70.531, 83.975 67.435 C 83.439 66.024, 83 62.860, 83 60.403 C 83 56.688, 82.621 55.793, 80.750 55.088 C 79.279 54.534, 77.574 54.714, 75.823 55.608 C 73.537 56.776, 73.053 57.816, 72.502 62.738 C 72.147 65.907, 71.471 70.771, 71 73.546 C 70.229 78.090, 70.578 82.668, 72.699 95.814 C 73.003 97.696, 72.472 101.550, 71.470 104.736 C 70.499 107.821, 69.752 111.730, 69.808 113.422 C 69.864 115.115, 69.405 118.300, 68.787 120.500 C 67.116 126.448, 67.029 127.330, 68 128.499 C 68.488 129.088, 68.507 130.179, 68.042 130.932 C 67.576 131.686, 67.598 132.790, 68.091 133.398 C 68.582 134.004, 70.798 136.862, 73.015 139.750 C 75.232 142.637, 77.400 145, 77.832 145 C 82.425 145, 84.293 135.667, 81.612 126.113 C 79.772 119.556, 80.092 117.735, 83.343 116.254 C 86.904 114.631, 96.661 116.571, 99.570 119.479 C 102.361 122.270, 102.582 125.943, 100.674 137.783 C 99.679 143.956, 99.119 145.257, 97 146.313 C 94.971 147.324, 94.500 148.297, 94.500 151.473 C 94.500 154.830, 94.961 155.657, 97.734 157.277 C 102.664 160.156, 106.205 158.934, 109.069 153.366 C 112.386 146.917, 114.100 145.991, 121.454 146.678 C 126.168 147.118, 128.387 146.851, 130.927 145.538 C 135.622 143.110, 139.875 144.176, 143 148.565 C 148.021 155.616, 154.491 156.979, 158.118 151.750 C 159.358 149.963, 161.639 147.022, 163.186 145.215 C 168.867 138.583, 166.242 131.437, 157.247 129.050 C 152.551 127.804, 150.490 125.375, 149.493 119.911 C 148.917 116.756, 149.218 115.971, 151.984 113.411 C 159.476 106.479, 162.432 96.321, 158.942 89.500 C 157.626 86.926, 157.594 85.861, 158.717 82 C 161.095 73.828, 156.641 68.331, 148.616 69.535 C 144.670 70.127, 144.115 69.925, 141.664 67.012 C 138.782 63.588, 138.741 63.445, 138.939 57.500 C 139.185 50.134, 139.987 47.855, 142.218 48.193 C 143.585 48.399, 144.818 49.978, 145.973 53 C 147.207 56.228, 148.655 57.994, 151.097 59.248 C 155.445 61.482, 156.141 61.449, 158.900 58.879 C 161.510 56.447, 161.254 52.718, 157.962 45.216 C 155.799 40.287, 151.815 38.087, 145.218 38.178 C 142.064 38.221, 140.171 37.511, 137.233 35.184 C 133.107 31.916, 129.125 30.508, 127.494 31.740 M 55.086 41.740 C 54.308 42.580, 52.187 46.219, 50.371 49.827 C 46.672 57.179, 46.688 56.481, 49.673 81.500 C 51.294 95.089, 50.913 105.458, 48.623 110.052 C 47.575 112.154, 47.595 112.832, 48.734 113.896 C 50.402 115.454, 49.526 120.617, 47.199 122.943 C 45.791 124.352, 45.802 124.531, 47.321 124.823 C 48.417 125.034, 49 126.121, 49 127.951 C 49 131.688, 51.402 133.482, 56.235 133.355 C 63.598 133.162, 66.297 127.406, 63.559 117.737 C 63.060 115.975, 63.209 114.454, 63.969 113.537 C 65.182 112.076, 64.932 106.439, 63.149 95 C 62.677 91.975, 62.516 88.150, 62.790 86.500 C 63.065 84.850, 63.231 80.125, 63.160 76 C 63.088 71.875, 63.024 64.675, 63.016 60 C 62.995 47.047, 58.901 37.620, 55.086 41.740 M 116.487 47.380 C 115.629 48.689, 114.696 52.267, 114.413 55.331 C 113.743 62.582, 115.792 67, 119.825 67 C 122.060 67, 122.832 66.353, 123.803 63.668 C 125.947 57.739, 122.879 45, 119.307 45 C 118.614 45, 117.344 46.071, 116.487 47.380 M 30.063 60.750 C 27.106 63.146, 25.391 75.177, 26.893 82.983 C 27.477 86.017, 28.226 93.900, 28.558 100.500 C 29.043 110.127, 29.573 113.192, 31.240 116 C 34.951 122.249, 38.106 125, 41.564 125 L 44.754 125 44.428 118.285 C 44.051 110.490, 43.243 104.741, 41.926 100.472 C 41.412 98.807, 40.867 90.707, 40.715 82.472 C 40.427 66.862, 39.789 64.139, 35.633 60.772 C 32.964 58.611, 32.703 58.609, 30.063 60.750 M 113.264 85.646 C 113.731 89.790, 114.467 90.925, 120.074 96.146 C 128.711 104.188, 129.536 103.998, 129.838 93.901 C 130.070 86.141, 129.963 85.701, 127.290 83.402 C 125.030 81.458, 123.383 81.002, 118.620 81.001 L 112.740 81 113.264 85.646 M 84.586 83.135 C 84.345 83.886, 83.956 87.993, 83.723 92.263 C 83.193 101.970, 84.104 103.525, 90.149 103.234 C 100.374 102.741, 101.978 101.402, 101.630 93.654 C 101.209 84.281, 100.443 83.421, 91.682 82.483 C 86.464 81.924, 84.931 82.065, 84.586 83.135 M 141.557 85.223 C 139.513 88.140, 139.590 89.209, 142.073 92.365 C 144.793 95.824, 148.422 95.812, 150.698 92.338 C 153.480 88.093, 153.359 85.673, 150.293 84.250 C 146.296 82.394, 143.305 82.727, 141.557 85.223 M 126 103.997 C 126 106.144, 118.720 113, 116.440 113 C 111.795 113, 110.611 117.489, 112.485 128 C 114.133 137.249, 114.096 137.221, 120.562 134.099 C 122.728 133.053, 125.850 131.972, 127.500 131.696 C 133.925 130.623, 134 130.504, 134 121.417 C 134 114.885, 133.572 112.345, 132.052 109.845 C 130.980 108.083, 130.332 106.272, 130.611 105.821 C 130.890 105.369, 130.079 104.993, 128.809 104.985 C 126.951 104.972, 126.793 104.780, 128 104 C 129.282 103.172, 129.246 103.028, 127.750 103.015 C 126.787 103.007, 126 103.449, 126 103.997" stroke="none" fill="black" fill-rule="evenodd"/>
</svg>