<svg xmlns="http://www.w3.org/2000/svg" width="256" height="256" viewBox="0 0 256 256" version="1.1">
	<path d="M 92.705 28.297 C 91.492 29.561, 89.576 31.890, 88.448 33.473 C 85.915 37.025, 81.033 37.793, 60.184 37.916 C 43.687 38.013, 40.060 39.147, 40.015 44.224 C 39.986 47.496, 44.867 48.749, 60 49.355 C 67.975 49.675, 74.598 49.950, 74.719 49.968 C 74.839 49.986, 74.703 50.611, 74.416 51.357 C 73.899 52.705, 70.141 54.068, 62.534 55.666 C 56.579 56.918, 54.383 60.848, 53.516 71.802 C 52.800 80.842, 53.909 86.052, 57.263 89.405 C 61.751 93.894, 71.229 95.446, 83.159 93.646 C 88.551 92.833, 88.896 92.912, 90.480 95.329 C 91.824 97.381, 91.917 98.286, 90.967 100.062 C 89.903 102.049, 89.253 102.202, 84.146 101.665 C 78.127 101.032, 73.646 100.374, 68 99.295 C 64.242 98.577, 61.064 98.628, 51.242 99.564 C 44.781 100.180, 42.309 102.036, 43.570 105.323 C 44.269 107.143, 42.462 114.422, 40.248 118.708 C 38.698 121.708, 38.702 122.153, 40.315 125.534 C 41.910 128.879, 42.281 129.099, 45.270 128.461 C 47.046 128.082, 50.017 127.148, 51.872 126.386 C 57.314 124.149, 61.385 124.623, 64.894 127.901 C 66.688 129.577, 67.991 131.795, 67.980 133.151 C 67.969 134.443, 69.431 138.528, 71.230 142.229 C 74.238 148.419, 74.754 148.960, 77.670 148.979 C 80.594 148.998, 80.969 148.610, 82.512 143.963 C 83.433 141.192, 83.933 138.268, 83.625 137.464 C 81.629 132.264, 88.556 129.122, 102.185 129.044 C 111.407 128.991, 114.731 130.079, 115.570 133.424 C 116.243 136.103, 113.359 145, 111.819 145 C 110.338 145, 106 149.783, 106 151.416 C 106 153.997, 109.819 156.637, 115.535 158.009 C 120.814 159.275, 121.121 159.235, 123.524 156.978 C 126.821 153.880, 128.016 149.007, 127.523 140.665 C 127.300 136.887, 127.612 132.750, 128.221 131.415 C 129.259 129.135, 129.802 129, 137.911 128.994 C 142.635 128.991, 148.099 128.545, 150.054 128.002 C 153.925 126.926, 158 123.670, 158 121.652 C 158 116.584, 150.048 114.250, 140.401 116.487 C 136.812 117.319, 132.989 118, 131.906 118 C 128.113 118, 127.826 111.464, 131.500 108.765 C 133.449 107.333, 136.531 108.067, 138.855 110.517 C 143.114 115.008, 147.852 113.168, 147.165 107.290 C 146.908 105.086, 145.918 103.337, 144.344 102.306 C 140.196 99.588, 139.684 97.503, 141.923 92.440 C 144.047 87.640, 144.982 75.390, 143.418 72.877 C 142.946 72.119, 142.266 68.673, 141.906 65.218 C 141.088 57.365, 139.181 55, 133.666 55 C 129.243 55, 123 53.092, 123 51.740 C 123 51.268, 122.550 51.160, 122 51.500 C 121.450 51.840, 121 51.634, 121 51.043 C 121 50.342, 124.396 50.003, 130.750 50.071 C 136.863 50.136, 142.663 49.582, 146.299 48.587 C 149.488 47.714, 152.331 47, 152.615 47 C 152.900 47, 152.990 45.777, 152.816 44.282 C 152.615 42.552, 151.335 40.782, 149.294 39.411 C 146.387 37.459, 144.211 37.190, 125.985 36.524 C 112.904 36.047, 105.566 35.390, 104.976 34.645 C 97.492 25.193, 96.284 24.568, 92.705 28.297 M 84.122 49.899 C 83.364 50.381, 83.053 51.277, 83.431 51.888 C 84.440 53.521, 88.693 53.243, 89.362 51.500 C 89.678 50.675, 89.538 50, 89.050 50 C 88.563 50, 87.564 49.780, 86.832 49.511 C 86.099 49.241, 84.880 49.416, 84.122 49.899 M 111 51.500 C 111 52.325, 111.482 53, 112.071 53 C 112.661 53, 113.818 52.325, 114.643 51.500 C 115.976 50.167, 115.857 50, 113.571 50 C 111.952 50, 111 50.556, 111 51.500 M 82.500 65 C 81.400 65.473, 79.089 65.891, 77.365 65.930 C 75.640 65.968, 72.715 66.657, 70.865 67.461 C 67.521 68.913, 67.547 68.922, 75.050 68.961 C 79.383 68.983, 83.093 69.493, 83.758 70.158 C 85.236 71.636, 88 69.569, 88 66.985 C 88 65.619, 85.725 63.629, 84.668 64.070 C 84.576 64.109, 83.600 64.527, 82.500 65 M 112 67.948 C 112 68.526, 113.237 69.004, 114.750 69.009 C 116.263 69.013, 119.975 69.265, 123 69.567 C 128.043 70.072, 128.304 70.001, 126.148 68.719 C 123.314 67.034, 112 66.417, 112 67.948 M 81.769 79.565 C 81.458 79.875, 78.795 80.357, 75.852 80.634 C 72.908 80.912, 69.909 81.329, 69.187 81.562 C 66.838 82.320, 68.911 83.810, 73.255 84.488 C 75.590 84.852, 79.318 85.816, 81.539 86.630 C 84.495 87.713, 86.283 87.843, 88.204 87.113 C 91.461 85.874, 92.687 82.544, 90.640 80.497 C 89.200 79.058, 82.934 78.399, 81.769 79.565 M 105 82.481 C 105 84.337, 107.420 84.900, 117.500 85.392 C 125.989 85.806, 129.291 84.922, 128.356 82.485 C 127.514 80.291, 105 80.288, 105 82.481 M 106.554 96.498 C 103.995 98.482, 105.494 99.988, 110.727 100.690 C 113.288 101.034, 115.727 100.679, 117.598 99.691 L 120.500 98.160 117.857 97.145 C 112.703 95.167, 108.574 94.930, 106.554 96.498 M 84.582 111.872 C 81.176 113.017, 79.126 113.031, 72.212 111.955 C 66.693 111.097, 62.716 110.972, 60.310 111.583 C 56.263 112.610, 53.692 115.552, 55.730 116.825 C 57.844 118.145, 107.619 117.400, 111.005 115.998 C 114.803 114.425, 114.765 113.831, 110.750 112.033 C 106.492 110.125, 90.077 110.025, 84.582 111.872" stroke="none" fill="black" fill-rule="evenodd"/>
</svg>