<svg xmlns="http://www.w3.org/2000/svg" width="256" height="256" viewBox="0 0 256 256" version="1.1">
	<path d="M 90.347 35.248 C 89.337 36.881, 89.046 45.544, 89.063 73.442 C 89.075 93.562, 89.304 96.898, 90.924 100.562 C 92.417 103.936, 93.372 104.828, 95.888 105.197 C 102.014 106.096, 102.275 104.955, 102.056 78.282 C 101.949 65.202, 101.478 52.700, 101.010 50.500 C 99.819 44.901, 97.358 36.388, 96.555 35.089 C 95.635 33.601, 91.296 33.712, 90.347 35.248 M 126.655 54.829 C 123.571 58.237, 124.552 61.999, 129.683 66.444 C 136.671 72.498, 144.841 81.016, 147.718 85.250 C 150.644 89.556, 152.244 89.918, 154.447 86.772 C 156.676 83.589, 155.502 75.519, 152.152 71 C 148.413 65.956, 136.901 55.017, 134.185 53.928 C 130.707 52.534, 128.492 52.799, 126.655 54.829 M 54.768 61.321 C 51.513 64.629, 44.290 73.703, 40.219 79.599 C 37.392 83.693, 34.801 91.476, 35.190 94.711 C 35.980 101.303, 43.961 99.016, 49.885 90.500 C 51.798 87.750, 53.957 84.905, 54.682 84.179 C 55.407 83.452, 56 82.465, 56 81.987 C 56 81.508, 58.198 78.605, 60.884 75.535 C 66.932 68.624, 68.806 62.806, 65.915 59.915 C 62.919 56.919, 58.559 57.469, 54.768 61.321 M 126.736 98.250 C 125.015 99.558, 121 108.164, 121 110.547 C 121 113.192, 112.652 119.905, 107.446 121.446 C 104.620 122.282, 101.093 124.265, 99.446 125.943 C 97.826 127.594, 95.998 128.957, 95.385 128.972 C 94.772 128.988, 93.197 129.835, 91.885 130.855 C 90.573 131.875, 87.813 133.259, 85.750 133.932 C 83.688 134.605, 82 135.466, 82 135.847 C 82 136.227, 79.266 138.041, 75.925 139.878 C 69.938 143.169, 69.647 143.221, 55.675 143.481 C 40.069 143.772, 40.233 143.683, 43.549 150.094 C 44.626 152.177, 46.122 152.965, 50.947 153.989 C 59.516 155.807, 61.576 155.461, 90.482 147.337 C 100.149 144.620, 106.957 140.633, 107.027 137.646 C 107.076 135.587, 113.698 129.301, 117.049 128.133 C 122.135 126.360, 126.433 122.585, 128.445 118.121 C 129.456 115.879, 131.051 113.801, 131.990 113.503 C 136.320 112.129, 137.211 103.785, 133.460 99.740 C 130.649 96.708, 129.191 96.386, 126.736 98.250" stroke="none" fill="black" fill-rule="evenodd"/>
</svg>