<svg xmlns="http://www.w3.org/2000/svg" width="256" height="256" viewBox="0 0 256 256" version="1.1">
	<path d="M 97.269 35.724 C 96.593 35.960, 95.087 39.350, 93.924 43.256 C 91.929 49.955, 91.847 51.726, 92.486 74.429 C 93.130 97.298, 92.845 103.040, 90.157 121.407 C 89.197 127.963, 87.031 130.473, 83.166 129.504 C 81.862 129.178, 78.423 129.820, 75.378 130.960 C 68.687 133.463, 67.374 133.486, 63.058 131.171 C 57.831 128.368, 56.800 124.204, 57.072 107 C 57.462 82.268, 57.427 80.673, 56.359 74.210 C 55.788 70.751, 54.843 67.443, 54.260 66.860 C 53.677 66.277, 51.483 65.800, 49.384 65.800 C 43.601 65.800, 41.355 68.944, 41.701 76.556 C 41.849 79.825, 42.211 92.751, 42.505 105.279 C 43.104 130.813, 43.769 133.898, 49.926 139.710 C 53.880 143.443, 53.523 143.333, 67.301 145.047 C 73.628 145.834, 79.831 145.978, 84.801 145.454 C 91.489 144.747, 106.590 144.097, 123.500 143.787 C 126.396 143.734, 131.993 144.811, 136.802 146.348 C 146.693 149.508, 148.402 149.598, 150.911 147.089 C 154.883 143.117, 155.672 132.315, 154.642 96 C 153.828 67.287, 153.267 62.042, 150.711 59.250 C 148.041 56.333, 146.929 56.414, 143.773 59.750 C 141.177 62.494, 141.171 62.543, 140.949 81.500 C 140.827 91.950, 141.080 106.861, 141.512 114.635 L 142.298 128.771 139.899 129.565 C 135.519 131.016, 127.619 131.340, 112 130.707 L 105.500 130.444 105 125.972 C 104.415 120.745, 104.441 119.671, 106.053 81 L 107.284 51.500 104.030 43.814 C 100.821 36.234, 99.689 34.879, 97.269 35.724" stroke="none" fill="black" fill-rule="evenodd"/>
</svg>