<svg xmlns="http://www.w3.org/2000/svg" width="256" height="256" viewBox="0 0 256 256" version="1.1">
	<path d="M 55.523 35.533 C 53.885 36.404, 52.213 37.653, 51.807 38.309 C 51.400 38.964, 51.018 44.225, 50.958 50 C 50.833 61.945, 50.820 61.074, 51.457 82.500 C 51.815 94.537, 51.563 100.110, 50.439 105 C 49.618 108.575, 48.308 114.902, 47.528 119.060 C 46.167 126.321, 44.415 132.477, 39.464 147.399 C 36.985 154.867, 37.306 157.829, 40.730 159.096 C 43.523 160.129, 49.010 157.090, 51.019 153.396 C 53.825 148.239, 58.763 134.657, 60.071 128.500 C 60.773 125.200, 61.381 119.125, 61.423 115 C 61.487 108.749, 61.902 106.937, 63.913 104.117 L 66.326 100.734 79.413 101.399 C 100.703 102.480, 103.026 103.119, 102.968 107.872 C 102.909 112.760, 101.338 113.515, 90.658 113.790 C 81.138 114.036, 76.126 115.370, 74.433 118.108 C 73.261 120.005, 73.574 151.252, 74.796 154.202 C 76.514 158.353, 81.180 160.302, 87.354 159.446 C 90.184 159.053, 104.067 158.663, 118.204 158.579 C 132.341 158.495, 144.266 158.069, 144.704 157.633 C 145.810 156.532, 146.788 119.901, 145.769 117.760 C 143.824 113.675, 132.186 111.016, 124.199 112.832 C 120.361 113.705, 119.635 113.566, 117.449 111.540 C 114.567 108.870, 114.381 106.874, 116.685 103.358 L 118.370 100.786 128.935 101.513 C 138.751 102.189, 143.065 102.314, 148.750 102.089 C 151.487 101.981, 155 98.666, 155 96.191 C 155 92.695, 152.517 90.933, 145.485 89.439 C 141.643 88.623, 134.225 87.688, 129 87.360 C 123.762 87.031, 118.520 86.153, 117.316 85.402 C 114.483 83.636, 114.474 78.352, 117.299 75.250 C 119.206 73.157, 120.181 73, 131.273 73 L 143.198 73 145.983 70.018 C 148.694 67.116, 148.771 66.719, 148.838 55.268 C 148.926 39.984, 148.566 38.347, 144.667 36.317 C 141.909 34.881, 136.138 34.622, 100 34.308 C 63.590 33.993, 58.135 34.143, 55.523 35.533 M 66.236 47.602 C 61.770 49.875, 60.979 53.433, 64.219 56.674 C 66.558 59.013, 66.959 59.087, 71.101 57.957 C 74.222 57.106, 78.985 56.991, 87.500 57.564 C 99.734 58.386, 126.832 58.767, 130.560 58.170 C 133.689 57.668, 135.227 54.593, 133.856 51.583 C 133.236 50.223, 132.003 48.783, 131.115 48.384 C 130.227 47.985, 118.250 47.591, 104.500 47.510 C 90.750 47.428, 77.250 47.042, 74.500 46.651 C 70.725 46.115, 68.700 46.348, 66.236 47.602 M 68.430 70.934 C 65.605 72.119, 63.317 75.861, 62.723 80.264 C 61.811 87.035, 62.452 87.263, 82.241 87.226 C 91.909 87.207, 100.760 86.894, 101.910 86.529 C 103.996 85.867, 104.266 84.869, 104.187 78.110 C 104.126 72.879, 102.539 72.025, 91.950 71.528 C 86.753 71.284, 79.800 70.856, 76.500 70.575 C 73.200 70.295, 69.568 70.457, 68.430 70.934 M 96.693 127.592 C 87.930 128.819, 86.266 129.965, 85.937 135 C 85.548 140.976, 85.901 141.898, 89.247 143.628 C 96.056 147.149, 128.072 146.357, 131.855 142.573 C 132.818 141.611, 133.558 138.604, 133.811 134.626 L 134.219 128.227 130.641 127.046 C 126.467 125.669, 108.357 125.960, 96.693 127.592" stroke="none" fill="black" fill-rule="evenodd"/>
</svg>