<svg xmlns="http://www.w3.org/2000/svg" width="256" height="256" viewBox="0 0 256 256" version="1.1">
	<path d="M 56.456 28.179 C 55.332 28.698, 53.189 31.146, 51.695 33.620 L 48.977 38.119 42.090 37.440 C 35.432 36.784, 35.145 36.848, 33.491 39.373 C 32.443 40.973, 32.012 42.911, 32.379 44.374 C 33.127 47.355, 38.452 49.997, 43.341 49.813 C 49.113 49.597, 53.088 54.512, 49.800 57.800 C 49.140 58.460, 46.713 59, 44.406 59 C 41.158 59, 39.511 59.654, 37.106 61.901 C 33.985 64.817, 32.919 68.936, 35.250 69.074 C 41.043 69.419, 47.827 71.809, 48.946 73.900 C 49.937 75.752, 50.796 88.544, 49.983 89.340 C 49.717 89.599, 48.150 90.036, 46.500 90.309 C 41.543 91.129, 40.015 92.091, 39.330 94.822 C 38.789 96.976, 39.293 97.945, 42.266 100.462 C 46.303 103.878, 48.499 104.122, 75.248 104.114 C 91.618 104.110, 93.845 103.368, 95.978 97.213 C 97.675 92.316, 97.060 90.692, 92.278 87.432 C 89.631 85.628, 89.288 84.868, 89.591 81.489 C 89.804 79.114, 90.629 77.204, 91.720 76.557 C 92.785 75.925, 100.531 75.492, 111 75.481 C 123.097 75.468, 129.422 75.062, 131.488 74.166 C 134.194 72.991, 134.641 73.073, 136.232 75.039 C 137.199 76.232, 137.782 77.544, 137.528 77.955 C 136.992 78.823, 136.885 96.106, 137.350 107 C 137.525 111.125, 137.240 119.450, 136.715 125.500 C 135.785 136.215, 135.673 136.581, 132.380 139.606 C 130.521 141.314, 129 143.179, 129 143.749 C 129 144.319, 128.325 145.045, 127.500 145.362 C 123.218 147.005, 129.078 155.099, 135.916 156.987 C 141.540 158.540, 145.412 156.061, 147.310 149.692 C 149.674 141.760, 150.026 137.123, 149.871 116 C 149.642 84.794, 149.654 84.599, 151.970 80.058 C 153.136 77.773, 155.189 75.499, 156.553 74.980 C 159.559 73.837, 161.468 70, 160.651 66.744 C 160.315 65.406, 158.538 63.528, 156.643 62.507 C 152.065 60.041, 149.783 55.934, 150.091 50.712 C 150.713 40.164, 150.027 34.027, 148 32 C 145.426 29.426, 140.571 29.429, 137.994 32.006 C 136.131 33.869, 136.031 34.894, 136.585 46.423 C 137.339 62.117, 138.010 61.525, 118.386 62.483 C 104.694 63.152, 104.076 63.094, 97.729 60.555 C 94.131 59.115, 90.808 58.005, 90.344 58.087 C 87.934 58.515, 85.953 57.885, 86.569 56.888 C 86.947 56.277, 86.696 55.430, 86.012 55.007 C 85.226 54.522, 86.748 53.595, 90.134 52.496 C 97.516 50.099, 102 47.231, 102 44.904 C 102 42.707, 96.610 39.009, 93.399 39.004 C 89.303 38.996, 85.471 36.912, 83.241 33.479 C 79.311 27.428, 75.138 29.410, 74.246 37.751 C 73.967 40.363, 73.289 43.067, 72.739 43.760 C 72.189 44.452, 71.781 47.152, 71.833 49.760 C 71.895 52.899, 71.319 55.296, 70.129 56.856 L 68.332 59.212 65.690 56.764 C 63.472 54.708, 63.181 53.850, 63.871 51.408 C 64.652 48.645, 63.777 36.023, 62.532 32.101 C 61.521 28.916, 58.744 27.123, 56.456 28.179 M 66 72.230 C 64.858 73.457, 63.688 75.594, 63.401 76.980 C 63.114 78.366, 62.456 80.281, 61.940 81.236 C 58.923 86.812, 63.360 91.848, 70.644 91.115 C 71.274 91.052, 73.194 89.687, 74.911 88.083 C 77.886 85.304, 78.007 84.894, 77.469 79.360 C 77.157 76.149, 76.187 72.759, 75.298 71.776 C 73.067 69.311, 68.513 69.533, 66 72.230 M 114.500 91.386 C 112.850 92.106, 110.867 93.878, 110.093 95.325 C 108.796 97.749, 108.917 98.333, 111.627 102.728 C 113.588 105.909, 116.145 108.356, 119.299 110.069 C 121.900 111.482, 123.722 112.945, 123.348 113.319 C 122.714 113.953, 123.212 114.145, 126.155 114.400 C 127.547 114.521, 128.207 111.880, 128.129 106.500 C 128.097 104.300, 128.036 100.375, 127.995 97.778 C 127.936 94.112, 127.432 92.715, 125.737 91.528 C 123.094 89.677, 118.553 89.619, 114.500 91.386 M 67.107 109.156 C 65.241 109.692, 62.915 111.114, 61.937 112.316 C 60.347 114.270, 59.314 114.478, 52.118 114.294 C 44.539 114.100, 43.959 114.237, 42.038 116.679 C 39.430 119.994, 39.471 121.422, 42.250 124.049 C 44.248 125.938, 45.241 126.105, 51.121 125.540 C 57.631 124.915, 57.786 124.956, 60.371 128.029 C 63.765 132.063, 63.814 136.341, 60.500 139.412 C 58.300 141.451, 57.010 141.726, 49.750 141.704 C 43.168 141.684, 40.628 142.126, 37.189 143.891 C 33.530 145.768, 32.924 146.508, 33.189 148.778 C 33.724 153.378, 36.783 154.134, 53 153.672 C 65.234 153.325, 68.750 152.850, 75.500 150.635 C 79.900 149.190, 85.975 147.719, 89 147.366 C 95.740 146.577, 99.156 144.946, 100.904 141.680 C 102.066 139.509, 101.997 138.868, 100.368 136.677 C 98.005 133.499, 95.516 133.017, 85.155 133.734 C 76.737 134.316, 75.061 133.760, 75.015 130.371 C 74.995 128.911, 80.331 126.710, 84.358 126.518 C 89.780 126.259, 94.741 124.094, 95.381 121.707 C 96.455 117.703, 96.032 116.015, 93.218 113.071 C 90.559 110.288, 90.067 110.164, 82.027 110.257 C 76.390 110.322, 73.489 109.966, 73.226 109.177 C 72.772 107.816, 71.780 107.812, 67.107 109.156" stroke="none" fill="black" fill-rule="evenodd"/>
</svg>