<svg xmlns="http://www.w3.org/2000/svg" width="256" height="256" viewBox="0 0 256 256" version="1.1">
	<path d="M 117.655 30.829 C 116.326 32.297, 116 34.826, 116 43.674 C 116 56.950, 115.736 57.319, 104.731 59.424 C 100.521 60.230, 96.137 61.391, 94.990 62.005 C 91.832 63.696, 90.800 67.626, 91.590 74.964 C 91.977 78.559, 92.443 86.450, 92.626 92.500 C 92.808 98.550, 93.170 110.547, 93.428 119.159 C 93.732 129.289, 94.495 137.058, 95.587 141.159 C 96.516 144.647, 97.198 149.140, 97.104 151.144 C 96.781 157.980, 102.019 160.194, 106.055 154.928 C 110.414 149.241, 121.918 146.586, 130 149.403 C 132.475 150.265, 137.425 151.010, 141 151.059 C 145.576 151.120, 148.388 151.713, 150.500 153.061 C 152.150 154.115, 154.964 155.741, 156.753 156.675 C 159.854 158.294, 160.070 158.286, 161.373 156.505 C 162.518 154.939, 163.764 144.572, 164.319 132 C 164.472 128.518, 163.072 110.015, 161.972 101 C 161.469 96.875, 160.852 86.571, 160.602 78.102 C 160.005 57.853, 160.572 58.500, 143.391 58.500 C 128.601 58.500, 128.217 58.254, 128.031 48.662 C 127.965 45.273, 127.764 41.150, 127.584 39.500 C 127.405 37.850, 127.200 35.712, 127.129 34.750 C 126.955 32.390, 123.433 29, 121.155 29 C 120.140 29, 118.565 29.823, 117.655 30.829 M 54.823 46.750 C 53.420 48.263, 51.761 51.030, 51.136 52.899 C 49.725 57.121, 49.677 68.546, 51.038 76.500 C 52.867 87.201, 53.177 96.362, 51.933 103 C 51.263 106.575, 50.760 111.075, 50.816 113 C 50.871 114.925, 50.465 118.199, 49.913 120.276 C 48.996 123.724, 48.771 123.914, 47.322 122.465 C 46.231 121.374, 45.637 118.561, 45.418 113.450 C 45.243 109.364, 44.630 104.328, 44.055 102.260 C 43.481 100.192, 43.009 91.248, 43.006 82.385 C 43 67.601, 42.829 66.052, 40.927 63.635 C 38.451 60.486, 33.184 60.029, 30.735 62.750 C 28.580 65.145, 27.473 77.331, 28.923 82.713 C 29.546 85.027, 30.063 92.629, 30.071 99.608 C 30.086 110.672, 30.338 112.614, 32.044 114.783 C 33.120 116.151, 34 117.837, 34 118.531 C 34 119.225, 35.615 121.211, 37.589 122.944 C 40.802 125.765, 41.628 126.028, 45.457 125.454 C 49.485 124.850, 49.728 124.950, 49.599 127.156 C 49.508 128.720, 48.886 129.454, 47.731 129.361 C 46.686 129.277, 46 129.927, 46 131.002 C 46 132.232, 47.002 132.947, 49.250 133.319 C 51.038 133.615, 53.736 134.167, 55.246 134.544 C 58.655 135.398, 64.560 132.789, 65.258 130.122 C 65.531 129.078, 65.530 125.248, 65.256 121.611 C 64.931 117.295, 65.169 114.501, 65.943 113.569 C 66.794 112.544, 66.926 109.235, 66.414 101.821 C 66.022 96.144, 65.761 90.600, 65.836 89.500 C 66.399 81.128, 65.810 57.114, 64.946 53.258 C 63.893 48.559, 60.725 44, 58.513 44 C 57.887 44, 56.226 45.237, 54.823 46.750 M 76.117 55.631 C 72.379 58.249, 71.234 62.534, 72.010 71 C 72.757 79.146, 72.532 96.786, 71.555 106.750 C 71.161 110.765, 71.310 113, 71.971 113 C 73.319 113, 73.343 129.670, 71.996 130.502 C 69.731 131.902, 75.054 144.333, 77.697 143.813 C 78.572 143.641, 80.236 142.231, 81.394 140.679 C 83.713 137.572, 83.539 140.606, 84.576 85.127 C 85.002 62.370, 84.856 58.429, 83.512 56.377 C 81.688 53.595, 79.359 53.360, 76.117 55.631 M 111.008 71.893 C 107.167 72.962, 105.815 76.524, 106.429 83.954 C 107.045 91.401, 108.764 93.763, 114.213 94.647 C 118.705 95.376, 119.567 94.016, 120.518 84.704 C 121.377 76.284, 120.740 73.658, 117.477 72.171 C 114.664 70.890, 114.619 70.888, 111.008 71.893 M 131.201 72.257 C 130.209 73.453, 130.265 74.919, 131.480 79.586 C 132.316 82.795, 133 86.433, 133 87.671 C 133 93.051, 141.047 95.953, 145 92 C 146.661 90.339, 147 88.667, 147 82.122 C 147 72.746, 146.423 72.030, 138.258 71.290 C 133.832 70.888, 132.146 71.119, 131.201 72.257 M 141.500 108.991 C 132.399 110.539, 131.895 111.243, 134.508 118.746 C 135.322 121.082, 136.270 125.357, 136.614 128.246 C 137.488 135.573, 139.253 138.601, 143.100 139.370 C 149.144 140.579, 150.726 137.418, 151.088 123.406 C 151.340 113.627, 150.674 109, 149.014 109 C 148.546 109, 147.564 108.845, 146.832 108.655 C 146.099 108.466, 143.700 108.617, 141.500 108.991 M 108.697 111.024 C 106.915 112.425, 106.262 113.732, 106.572 115.274 C 106.818 116.498, 107.050 120.934, 107.087 125.132 L 107.155 132.764 111.967 135.882 C 114.614 137.597, 117.254 139, 117.833 139 C 120.406 139, 122 134.447, 122 127.098 C 122 119.560, 123.577 113, 125.389 113 C 125.933 113, 125.411 112.100, 124.230 111 C 121.214 108.190, 112.282 108.204, 108.697 111.024" stroke="none" fill="black" fill-rule="evenodd"/>
</svg>