<svg xmlns="http://www.w3.org/2000/svg" width="256" height="256" viewBox="0 0 256 256" version="1.1">
	<path d="M 114.281 31.516 C 112.309 32.897, 107.945 40.101, 102.781 50.500 C 101.688 52.700, 98.962 56.398, 96.722 58.717 C 91.104 64.533, 92.107 66.674, 101.931 69.839 C 114.206 73.792, 112.983 75.888, 94 83.435 L 87.500 86.019 85.250 83.454 C 82.541 80.365, 82.498 78.589, 84.911 69.500 C 86.539 63.372, 86.596 62.161, 85.375 59.780 C 83.928 56.960, 81.415 55.228, 79.250 55.559 C 78.563 55.664, 77.618 55.806, 77.152 55.875 C 75.898 56.060, 73.259 62.751, 72.055 68.799 C 70.665 75.781, 70.708 89.863, 72.131 93.946 C 72.976 96.369, 72.968 98.969, 72.100 104.225 C 71.461 108.095, 70.733 115.122, 70.482 119.840 C 70.116 126.710, 69.624 128.820, 68.013 130.432 C 66.906 131.539, 65.960 132.007, 65.911 131.472 C 65.862 130.938, 65.700 128.250, 65.549 125.500 C 65.399 122.750, 64.932 119.230, 64.511 117.677 C 64.073 116.061, 64.167 114.433, 64.729 113.871 C 65.306 113.294, 65.404 111.210, 64.967 108.819 C 64.365 105.529, 64.428 93.482, 65.120 79.500 C 65.174 78.400, 64.781 71.200, 64.245 63.500 C 63.558 53.612, 62.737 48.399, 61.451 45.750 C 60.449 43.687, 59.281 42, 58.855 42 C 57.286 42, 52.760 47.632, 50.819 52 C 49.130 55.800, 48.894 57.979, 49.300 66 C 49.564 71.225, 50.064 76.625, 50.410 78 C 51.602 82.736, 51.419 108.387, 50.176 110.689 C 49.405 112.119, 49.343 113.094, 49.997 113.498 C 51.549 114.458, 51.126 117.269, 49.056 119.750 C 48.024 120.987, 46.969 122, 46.711 122 C 45.689 122, 44.046 116.301, 44.117 113 C 44.158 111.075, 43.670 107.025, 43.032 104 C 42.395 100.975, 41.982 92.875, 42.114 86 C 42.246 79.125, 42.302 71.964, 42.237 70.088 C 42.048 64.589, 37.575 61.579, 32.259 63.373 C 29.002 64.472, 26.592 73.374, 27.383 81.386 C 27.714 84.749, 28.260 92.900, 28.595 99.500 C 29.400 115.369, 32.461 122.325, 40.500 126.552 C 42.789 127.755, 46.309 127.309, 45.453 125.924 C 45.139 125.416, 45.310 125, 45.834 125 C 47.370 125, 48.180 128.271, 46.848 129.094 C 43.188 131.356, 55.255 136.116, 59.614 134.130 C 62.640 132.751, 69 132.637, 69 133.961 C 69 135.612, 73.281 139, 75.368 139 C 76.462 139, 78.801 138.478, 80.564 137.841 C 83.552 136.760, 83.709 136.473, 82.884 133.596 C 82.344 131.711, 82.419 127.394, 83.077 122.505 C 84.947 108.609, 85.265 102.198, 84.230 99.229 C 83.038 95.809, 84.254 93, 86.928 93 C 87.933 93, 90.498 93.755, 92.628 94.677 C 94.758 95.599, 97.104 96.465, 97.842 96.602 C 99.588 96.925, 100.658 98, 99.233 98 C 97.487 98, 98.877 103.234, 101.313 105.832 C 103.160 107.802, 104.355 108.128, 109 107.929 C 118.181 107.536, 118.160 107.527, 117.810 111.750 C 117.557 114.812, 117.070 115.561, 115.155 115.832 C 113.865 116.015, 111.512 115.626, 109.924 114.969 C 103.433 112.280, 98.517 117.230, 101.653 123.298 C 103.945 127.734, 105.840 128.931, 110.628 128.968 C 114.641 128.999, 118.109 131.224, 116.560 132.774 C 116.161 133.173, 109.998 133.576, 102.866 133.670 C 89.254 133.848, 85.675 134.818, 88.439 137.581 C 89.199 138.342, 89.988 139.463, 90.191 140.072 C 90.785 141.854, 100.844 144, 108.607 144 C 117.578 144, 119.237 145.263, 121.738 154 C 123.565 160.383, 123.664 160.506, 127.299 160.810 C 130.747 161.099, 131.006 160.928, 131.082 158.310 C 131.231 153.217, 132.094 149.520, 133.456 148.137 C 134.236 147.344, 139.242 146.272, 145.405 145.577 C 157.125 144.256, 161.264 142.270, 161.811 137.706 C 162.062 135.614, 161.324 134.581, 158.021 132.395 C 153.548 129.435, 155.056 129.376, 140.635 133.071 C 138.509 133.616, 135.921 133.792, 134.884 133.463 C 132.428 132.684, 130.898 129.783, 132.001 127.999 C 132.726 126.826, 133.874 126.807, 139.277 127.881 C 144.775 128.974, 146.213 128.938, 149.344 127.630 C 154.156 125.619, 155.972 121.838, 153.825 118.299 C 150.963 113.583, 147.810 112.417, 141.495 113.742 C 138.433 114.384, 135.269 114.657, 134.464 114.348 C 132.344 113.534, 132.578 109.038, 134.750 108.842 C 137.521 108.593, 138.244 108.639, 142.740 109.350 C 146.220 109.900, 147.340 109.660, 148.990 108.010 C 152.728 104.272, 151.151 99.482, 145.852 98.479 C 139.226 97.224, 137.358 96.549, 133.166 93.890 C 130.659 92.301, 127.684 91.002, 126.554 91.004 C 123.760 91.009, 118.387 94.408, 116.961 97.074 C 115.930 99, 115.223 99.187, 110.891 98.673 C 103.309 97.776, 102.349 96.799, 106.758 94.469 C 110.605 92.437, 112.679 90.943, 116.431 87.500 C 119.834 84.377, 122.825 82.908, 123.513 84.020 C 123.846 84.559, 124.788 85, 125.607 85 C 126.426 85, 128.959 85.900, 131.236 87 C 133.513 88.100, 135.854 89.010, 136.438 89.022 C 137.022 89.034, 138.625 89.924, 140 91 C 141.375 92.076, 143.287 92.966, 144.250 92.978 C 145.213 92.990, 146 93.507, 146 94.127 C 146 94.878, 147.680 95.093, 151.033 94.771 C 157.381 94.161, 161 91.100, 161 86.340 C 161 83.608, 160.343 82.607, 157.250 80.620 C 155.188 79.295, 151.700 77.905, 149.500 77.532 C 138.878 75.727, 138.487 71.542, 147.709 58.373 C 155.350 47.462, 152.306 41.580, 139.155 41.844 C 133.368 41.960, 128.899 39.799, 126.519 35.734 C 125.478 33.955, 123.922 31.952, 123.063 31.282 C 120.902 29.597, 116.867 29.705, 114.281 31.516 M 118.557 53.223 C 115.149 58.087, 117.913 61.036, 125.815 60.968 C 131.018 60.923, 133.322 58.977, 132.070 55.684 C 130.157 50.654, 121.465 49.070, 118.557 53.223" stroke="none" fill="black" fill-rule="evenodd"/>
</svg>