<svg xmlns="http://www.w3.org/2000/svg" width="256" height="256" viewBox="0 0 256 256" version="1.1">
	<path d="M 66 32.696 C 54.489 33.062, 52.581 33.460, 50.225 35.989 C 48.518 37.821, 48.417 39.989, 48.738 68 C 48.961 87.578, 48.705 99.345, 48.001 101.773 C 47.406 103.823, 46.245 109.538, 45.420 114.474 C 43.843 123.903, 39.070 140.720, 36.045 147.500 C 33.351 153.539, 32.803 155.803, 33.500 158 C 35.161 163.232, 48.093 157.317, 49.427 150.715 C 49.673 149.497, 50.144 147.150, 50.474 145.500 C 51.132 142.201, 56.554 124.259, 58.331 119.500 C 59.774 115.632, 60.111 112.830, 59.994 105.669 C 59.809 94.364, 62.114 91.490, 70 93.195 C 71.925 93.612, 75.605 93.963, 78.179 93.976 C 83.448 94.003, 86 95.821, 86 99.548 C 86 102.942, 82.122 105.196, 76.820 104.885 C 71.775 104.589, 63.032 107.771, 65.169 109.126 C 66.266 109.821, 66.258 109.972, 65.128 109.985 C 64.039 109.997, 64.006 110.302, 64.964 111.456 C 65.628 112.257, 65.911 113.335, 65.592 113.851 C 64.870 115.019, 67.290 116, 70.891 116 C 72.391 116, 74.441 116.602, 75.447 117.338 C 77.085 118.535, 77.156 119.193, 76.124 123.588 C 75.490 126.290, 74.312 133.225, 73.505 139 C 72.122 148.896, 72.143 149.642, 73.857 151.974 C 76.181 155.133, 81.493 156.303, 90.633 155.668 C 100.434 154.987, 104.970 152.124, 104.988 146.610 C 105.004 141.414, 103.017 140.071, 95.250 140.032 C 91.813 140.014, 88.966 139.662, 88.923 139.250 C 88.881 138.838, 88.624 137.600, 88.351 136.500 C 87.708 133.905, 87.750 131.275, 88.497 127.219 C 89.369 122.492, 95.809 118, 101.716 118 C 108.616 118, 110.256 119.495, 116.525 131.500 C 117.777 133.898, 120.691 136.903, 123.799 139.003 C 126.651 140.930, 129.990 143.922, 131.220 145.653 C 136.357 152.884, 147.096 157.448, 154.563 155.573 C 157.018 154.957, 157.196 154.586, 156.663 151.200 C 156.084 147.528, 151.098 142, 148.364 142 C 146.259 142, 141 136.905, 141 134.866 C 141 133.790, 142.042 131.867, 143.315 130.594 C 145.110 128.799, 145.536 127.466, 145.209 124.668 C 144.774 120.938, 146.903 117.893, 152.782 113.840 C 156.122 111.537, 156.405 108.312, 153.437 106.367 C 150.592 104.503, 143.918 103.959, 139.267 105.213 C 136.644 105.920, 135.487 105.680, 133.136 103.943 C 129.812 101.485, 129.932 99.352, 133.590 95.916 C 135.551 94.074, 137.192 93.644, 142.536 93.574 C 149.546 93.482, 151.016 92.536, 150.264 88.601 C 149.659 85.438, 145.034 83, 139.636 83 C 136.012 83, 134.587 82.467, 132.662 80.392 C 128.125 75.498, 132.070 70.061, 140.185 70.022 C 142.762 70.010, 145.979 69.578, 147.334 69.063 C 149.796 68.127, 149.799 68.109, 149.844 53.463 C 149.888 39.289, 149.810 38.719, 147.490 36.399 C 145.988 34.897, 143.858 33.969, 141.795 33.917 C 139.983 33.871, 137.375 33.660, 136 33.447 C 132.554 32.915, 77.672 32.326, 66 32.696 M 62.834 47.166 C 61.825 48.175, 61.007 49.788, 61.015 50.750 C 61.051 54.815, 62.186 55.142, 75.099 54.815 C 92.513 54.373, 118.679 55.022, 124.012 56.028 C 130.157 57.188, 136 55.476, 136 52.516 C 136 51.324, 134.946 49.358, 133.658 48.148 C 131.356 45.986, 130.743 45.943, 97.992 45.640 C 66.774 45.352, 64.552 45.448, 62.834 47.166 M 71.500 67.491 C 70.950 67.675, 69.249 68.101, 67.719 68.439 C 62.707 69.547, 58.881 79.481, 62.191 82.791 C 64.099 84.699, 85.737 83.002, 84.525 81.040 C 84.218 80.544, 84.425 79.856, 84.984 79.510 C 86.420 78.622, 86.247 72.720, 84.723 70.636 C 83.028 68.317, 74.853 66.373, 71.500 67.491 M 97.548 71.287 C 95.269 74.765, 96.660 81.495, 99.842 82.390 C 100.754 82.646, 104.977 82.726, 109.226 82.568 C 115.881 82.321, 117.209 81.963, 118.808 79.988 C 121.004 77.277, 120.603 73.856, 117.791 71.310 C 116.284 69.946, 113.745 69.414, 107.484 69.151 C 99.559 68.818, 99.101 68.916, 97.548 71.287 M 99.250 96.674 C 96.212 98.794, 96.332 102.375, 99.489 103.813 C 102.550 105.208, 115.965 104.339, 117.747 102.630 C 118.740 101.678, 118.683 100.993, 117.467 99.257 C 114.658 95.246, 103.554 93.672, 99.250 96.674 M 128.484 116.340 C 125.843 117.884, 125.391 121.611, 127.698 122.811 C 130.384 124.209, 133.304 122.709, 133.703 119.725 C 134.147 116.414, 131.401 114.633, 128.484 116.340" stroke="none" fill="black" fill-rule="evenodd"/>
</svg>