<svg xmlns="http://www.w3.org/2000/svg" width="256" height="256" viewBox="0 0 256 256" version="1.1">
	<path d="M 50.420 33.147 C 49.276 33.701, 47.594 35.417, 46.682 36.961 C 45.327 39.255, 45.228 40.357, 46.142 42.978 C 46.854 45.020, 46.987 48.425, 46.507 52.343 C 46.092 55.730, 45.832 60.300, 45.929 62.500 C 46.432 73.849, 45.759 106.329, 44.904 112 C 42.992 124.682, 38.419 142.763, 35.711 148.346 C 34.603 150.630, 33.652 154.075, 33.598 156 C 33.512 159.083, 33.820 159.537, 36.184 159.810 C 42.131 160.497, 48.122 154.864, 49.915 146.898 C 50.460 144.479, 52.250 138.675, 53.892 134 C 56.110 127.688, 57.029 122.925, 57.462 115.500 C 57.783 110, 58.365 103.475, 58.756 101 C 59.147 98.525, 59.401 94.250, 59.322 91.500 C 59.242 88.750, 59.105 84.149, 59.017 81.275 C 58.728 71.815, 63.010 67.932, 73.825 67.848 C 79.047 67.808, 82.944 69.254, 83.083 71.285 C 83.938 83.836, 83.208 85.963, 78.009 86.076 C 72.889 86.187, 68.545 88.165, 68.224 90.533 C 67.827 93.457, 73.553 99, 76.969 99 C 82.521 99, 85.449 100.794, 86.761 104.999 C 88.344 110.072, 88.290 114.034, 86.608 116.250 C 84.990 118.381, 83.306 118.444, 78.755 116.542 C 74.493 114.761, 70.074 115.382, 67.800 118.080 C 64.683 121.779, 69.233 128.054, 76.836 130.541 C 79.676 131.470, 81.998 132.741, 81.995 133.365 C 81.993 133.989, 80.755 135.864, 79.245 137.531 C 73.516 143.856, 71.833 146.962, 72.496 149.983 C 74.019 156.916, 78.899 156.964, 86.765 150.123 C 92.302 145.307, 93.847 142.889, 97.877 132.730 C 98.481 131.206, 100.135 129.519, 101.553 128.980 C 104.887 127.712, 116.122 127.716, 119.461 128.985 C 122.952 130.312, 123.546 132.364, 122.241 138.588 C 120.998 144.514, 122.550 152.740, 125.533 156.037 C 128.141 158.919, 132.494 160.091, 134.669 158.497 C 136.194 157.380, 136.459 155.962, 136.253 150.017 C 136.117 146.091, 135.554 142.035, 135.003 141.005 C 133.593 138.372, 133.753 131.436, 135.250 130.279 C 137.174 128.792, 148.208 126, 152.161 126 C 156.104 126, 159 123.562, 159 120.243 C 159 116.387, 156.626 115.320, 146.373 114.567 C 138.271 113.973, 136.297 113.496, 134.802 111.772 C 132.315 108.904, 132.532 104.660, 135.302 101.994 C 137.676 99.710, 144.114 97.042, 147.316 97.015 C 150.341 96.990, 152.978 95.106, 152.334 93.429 C 152.009 92.581, 148.426 90.292, 144.372 88.342 C 138.070 85.310, 136.090 83.437, 137.250 81.605 C 137.387 81.388, 136.781 80.375, 135.902 79.355 C 131.016 73.683, 134.054 70.500, 144.356 70.500 C 148.285 70.500, 151.998 70.176, 152.607 69.779 C 153.359 69.290, 153.625 63.999, 153.438 53.279 C 153.286 44.601, 153.125 37.174, 153.081 36.776 C 153.036 36.377, 151.762 35.444, 150.250 34.701 C 148.152 33.671, 140.152 33.300, 116.500 33.137 C 99.450 33.019, 78.075 32.747, 69 32.532 C 59.121 32.298, 51.665 32.545, 50.420 33.147 M 61.250 46.474 C 58.978 48.129, 58.346 51.421, 59.846 53.784 C 60.467 54.764, 67.418 55.174, 89.080 55.511 C 104.711 55.754, 120.794 56.230, 124.821 56.569 C 129.627 56.973, 133.148 56.767, 135.071 55.971 C 138.225 54.664, 138.264 54.587, 137.391 51.332 C 136.271 47.157, 132.272 46.568, 104.516 46.490 C 90.207 46.449, 75.125 46.060, 71 45.625 C 64.765 44.968, 63.120 45.111, 61.250 46.474 M 98.085 70.164 C 96.834 70.627, 95.699 72.482, 95.003 75.198 C 94.397 77.564, 93.703 80.087, 93.461 80.806 C 92.932 82.372, 97.273 86.949, 99.455 87.125 C 109.323 87.923, 118.351 86.683, 121.063 84.156 C 122.339 82.967, 123.558 81.208, 123.771 80.247 C 125.244 73.603, 125.198 73.176, 122.850 71.683 C 120.260 70.036, 101.536 68.888, 98.085 70.164 M 99.697 100.750 C 97.350 104.935, 99.231 113.304, 102.771 114.427 C 103.764 114.742, 107.259 114.947, 110.538 114.881 C 116.949 114.753, 119.131 113.415, 121.017 108.456 C 122.508 104.532, 120.235 103.049, 110.245 101.427 C 100.019 99.767, 100.241 99.781, 99.697 100.750" stroke="none" fill="black" fill-rule="evenodd"/>
</svg>