<svg xmlns="http://www.w3.org/2000/svg" width="256" height="256" viewBox="0 0 256 256" version="1.1">
	<path d="M 148 29.896 C 146.075 30.262, 139.550 30.477, 133.500 30.373 C 121.169 30.161, 100.477 31.628, 94.705 33.124 C 89.876 34.375, 88.495 37.461, 90.126 43.347 C 91.674 48.929, 91.538 111.082, 89.968 116 C 89.353 117.925, 88.617 121.075, 88.332 123 C 87.216 130.547, 83.214 134.899, 82.984 128.815 C 82.624 119.279, 82.675 109.040, 83.203 84.819 C 83.691 62.456, 83.551 57.804, 82.336 56.069 C 80.378 53.273, 78.632 53.464, 74.796 56.891 C 71.631 59.719, 71.550 60.005, 71.027 70.141 C 70.733 75.838, 70.794 84.059, 71.161 88.409 C 71.545 92.959, 71.411 97.418, 70.846 98.906 C 70.305 100.328, 69.868 108.694, 69.875 117.496 C 69.890 134.909, 70.008 137, 70.978 137 C 71.333 137, 72.688 137.993, 73.990 139.206 C 75.747 140.842, 77.474 141.375, 80.679 141.271 C 83.361 141.183, 85.048 141.579, 85.128 142.315 C 85.198 142.967, 85.360 144.480, 85.488 145.678 C 85.764 148.269, 90.752 152.924, 93.301 152.968 C 95.278 153.003, 97.447 148.738, 98.370 143 C 98.680 141.075, 99.443 137.025, 100.066 134 C 100.690 130.975, 101.357 124.675, 101.548 120 C 101.962 109.940, 102.094 109, 103.099 109 C 103.521 109, 104.151 108.100, 104.500 107 C 104.869 105.837, 106.013 105, 107.234 105 C 108.389 105, 109.048 105.285, 108.699 105.634 C 108.351 105.983, 108.951 107.393, 110.033 108.769 C 112.385 111.759, 112.509 114.116, 110.515 117.971 C 109.698 119.551, 109.450 120.991, 109.963 121.172 C 110.477 121.352, 111.163 129.071, 111.487 138.325 C 111.837 148.295, 112.549 155.906, 113.235 157.004 C 115.364 160.413, 118.169 160.925, 123.542 158.885 C 126.269 157.849, 130.438 157.001, 132.807 157.001 C 135.176 157, 139.099 156.500, 141.525 155.889 C 145.706 154.837, 146.154 154.940, 150.164 157.889 C 155.132 161.542, 159.549 161.998, 160.514 158.956 C 160.871 157.833, 161.237 146.020, 161.328 132.706 C 161.469 112.127, 161.239 107.803, 159.793 103.852 C 158.773 101.064, 158.314 97.840, 158.646 95.796 C 159.462 90.763, 155.604 86.519, 149.273 85.487 C 141.302 84.188, 124.972 84.622, 109.822 86.536 C 103.197 87.373, 100.731 82.007, 105.646 77.452 C 108.744 74.581, 107.827 74.623, 133.500 76.160 C 156.198 77.519, 158.136 77.159, 161.293 70.999 C 162.846 67.969, 163.047 65.266, 162.793 50.828 C 162.511 34.756, 162.413 34.064, 160.076 31.578 C 157.558 28.901, 155.060 28.553, 148 29.896 M 53.137 45.014 C 51.553 46.671, 49.385 50.323, 48.319 53.130 C 46.531 57.836, 46.482 58.865, 47.695 66.366 C 50.174 81.706, 50.452 84.519, 50.474 94.500 C 50.508 109.735, 46.608 117.629, 43.927 107.750 C 43.293 105.412, 42.375 102.195, 41.887 100.601 C 41.399 99.006, 40.975 91.356, 40.944 83.601 C 40.879 67.581, 39.847 63.168, 35.697 61.182 C 33.296 60.032, 32.554 60.062, 30.530 61.389 C 27.212 63.562, 26.585 71.216, 27.896 93.500 C 28.824 109.274, 29.257 112.118, 31.397 116.500 C 35.160 124.205, 41.379 128.590, 44.670 125.859 C 45.594 125.092, 46.417 125.274, 47.666 126.523 C 49.255 128.112, 49.261 128.336, 47.749 129.441 C 46.314 130.491, 46.516 130.785, 49.377 131.819 C 51.173 132.469, 54.529 133, 56.836 133 C 63.703 133, 65.594 128.158, 63.378 116.250 C 62.969 114.054, 63.162 113, 63.972 113 C 64.846 113, 65.006 111.170, 64.561 106.250 C 64.225 102.538, 63.761 91.625, 63.530 82 C 62.729 48.631, 62.748 48.830, 60.062 45.250 C 58.721 43.462, 57.262 42, 56.821 42 C 56.379 42, 54.721 43.356, 53.137 45.014 M 137.517 44.133 C 132.600 45.284, 132.057 45.816, 130.998 50.511 C 129.394 57.622, 132.893 60.955, 142.345 61.321 C 148.569 61.562, 150.239 59.735, 150.586 52.307 C 151.004 43.344, 148.249 41.621, 137.517 44.133 M 106.333 46.576 C 104.172 48.738, 103.843 49.790, 104.289 53.115 C 105.004 58.452, 106.523 60, 111.041 60 C 117.849 60, 119.912 58.034, 120.754 50.740 C 121.358 45.513, 119.805 44, 113.832 44 C 109.875 44, 108.403 44.506, 106.333 46.576 M 123.494 99.649 C 121.839 101.304, 121.885 101.504, 124.432 103.695 C 126.655 105.607, 128.337 106.020, 134.306 106.115 C 144.214 106.274, 144.705 106.178, 147.568 103.524 L 150.097 101.181 147.995 99.709 C 146.520 98.676, 142.817 98.188, 135.565 98.072 C 126.935 97.935, 124.949 98.194, 123.494 99.649 M 105.655 100.457 C 105.230 101.564, 105.690 101.996, 107.281 101.985 C 108.502 101.976, 109.050 101.634, 108.500 101.223 C 107.950 100.813, 107.218 100.125, 106.874 99.695 C 106.529 99.265, 105.981 99.608, 105.655 100.457 M 44 114.918 C 44 117.831, 45.067 120, 46.500 120 C 47.933 120, 49 117.831, 49 114.918 C 49 113.539, 48.298 113, 46.500 113 C 44.702 113, 44 113.539, 44 114.918 M 139 116 C 137.625 116.440, 134.813 116.845, 132.750 116.900 C 129.796 116.979, 129 117.395, 129 118.860 C 129 120.372, 130.078 120.860, 134.750 121.465 C 145.474 122.854, 146.322 122.753, 147.026 120 C 147.377 118.625, 147.467 116.938, 147.225 116.250 C 146.741 114.873, 142.885 114.756, 139 116 M 138.061 136.101 C 136.719 136.637, 134.435 136.815, 132.984 136.497 C 128.879 135.595, 125 137.499, 125 140.416 C 125 143.740, 125.996 144.185, 135.404 145.066 C 139.857 145.483, 144.257 146.125, 145.182 146.493 C 146.394 146.975, 147.254 146.370, 148.256 144.331 C 151.642 137.438, 146.038 132.914, 138.061 136.101" stroke="none" fill="black" fill-rule="evenodd"/>
</svg>