<svg xmlns="http://www.w3.org/2000/svg" width="256" height="256" viewBox="0 0 256 256" version="1.1">
	<path d="M 94.664 27.780 C 91.727 28.420, 90.092 33.526, 91.301 38.286 C 92.255 42.045, 92.138 42.485, 89.607 44.662 C 87.327 46.623, 85.728 47.012, 79.694 47.077 C 75.737 47.119, 71.600 47.337, 70.500 47.562 C 69.400 47.788, 67.375 47.732, 66 47.439 C 61.528 46.485, 59.842 44.436, 59.370 39.379 C 58.866 33.992, 57.636 32, 54.812 32 C 49.173 32, 47.159 35.576, 46.894 46.052 C 46.731 52.530, 46.952 53.406, 49.351 55.806 C 51.895 58.350, 52.522 58.466, 67.244 59.133 C 75.635 59.512, 83.312 60.145, 84.304 60.539 C 85.607 61.057, 86.023 62.113, 85.804 64.346 C 85.549 66.943, 84.941 67.581, 82 68.341 C 80.075 68.839, 75.274 70.315, 71.332 71.623 C 67.390 72.930, 63.027 74, 61.638 74 C 57.194 74, 53.999 77.833, 52.461 85.012 C 50.368 94.778, 50.588 103.187, 53.046 107.354 C 55.379 111.308, 56.080 111.676, 63.024 112.598 C 69.101 113.404, 70 114.711, 70 122.738 C 70 127.504, 69.460 129.445, 67.128 133.054 C 62.305 140.520, 57.779 144.700, 51.500 147.488 C 44.597 150.552, 41.521 153.955, 42.419 157.533 C 43.593 162.210, 46.187 162.444, 57.316 158.874 C 67.949 155.464, 68.392 155.148, 77.109 144.789 C 82.085 138.875, 82.753 137.338, 83.559 129.951 C 84.318 122.999, 85.168 120.690, 88.194 117.362 C 90.614 114.700, 93.353 115.283, 96.018 119.026 C 97.619 121.274, 98 123.438, 98 130.282 C 98 134.942, 98.725 141.965, 99.611 145.888 C 101.423 153.912, 103.294 155.905, 111.009 158.030 C 115.461 159.256, 135.129 159.509, 142 158.430 C 155.110 156.369, 157 155.170, 157 148.912 C 157 146.441, 156.075 144.839, 153.023 142.021 C 149.990 139.221, 148.756 137.095, 147.827 133.069 C 147.024 129.593, 145.837 127.284, 144.353 126.312 C 141.635 124.531, 138.336 125.366, 137.484 128.051 C 137.100 129.262, 135.966 130, 134.492 130 C 131.779 130, 131.034 129.086, 129.996 124.484 C 129.395 121.817, 129.686 120.739, 131.552 118.727 C 132.815 117.365, 135.377 115.964, 137.245 115.614 C 142.217 114.681, 144.959 110.477, 144.934 103.822 C 144.923 100.895, 145.051 93.795, 145.220 88.045 C 145.506 78.295, 145.368 77.402, 143.174 74.795 C 141.195 72.443, 140.054 72, 135.976 72 C 133.311 72, 130.030 71.582, 128.685 71.070 C 127.341 70.559, 121.667 69.886, 116.077 69.574 C 104.081 68.904, 99.333 67.114, 101.049 63.909 C 101.644 62.797, 102.664 61.698, 103.315 61.467 C 103.967 61.236, 112.600 60.858, 122.500 60.628 C 141.241 60.193, 144.220 59.650, 147.428 56.089 C 149.182 54.142, 149.255 53.386, 148.228 47.724 C 147.608 44.301, 146.833 39.818, 146.507 37.762 C 146.158 35.565, 145.134 33.607, 144.023 33.012 C 138.965 30.305, 135.303 33.469, 136.445 39.558 C 137.431 44.817, 134.865 45.880, 120.411 46.204 C 110.120 46.434, 107.965 46.207, 105.570 44.638 C 102.947 42.919, 102.810 42.490, 103.419 37.900 C 103.785 35.138, 103.627 32.171, 103.056 31.104 C 101.908 28.960, 97.415 27.180, 94.664 27.780 M 80 80.630 C 70.485 81.656, 67.894 82.249, 66.401 83.742 C 64.904 85.239, 64.918 85.467, 66.580 86.682 C 67.617 87.440, 71.041 88, 74.644 88 C 78.088 88, 82.002 88.500, 83.343 89.110 C 85.415 90.055, 86.128 89.872, 88.114 87.886 C 93.376 82.624, 89.948 79.558, 80 80.630 M 117.547 82.796 C 104.619 83.276, 103.380 86.865, 115.834 87.756 C 125.427 88.442, 132.217 87.364, 131.804 85.220 C 131.395 83.099, 127.445 82.428, 117.547 82.796 M 84.555 98.778 C 84.317 99.016, 80.194 99.276, 75.394 99.356 C 69.681 99.450, 66.530 99.908, 66.272 100.682 C 65.673 102.481, 69.923 104.317, 75.500 104.667 C 78.250 104.840, 81.695 105.473, 83.155 106.073 C 86.466 107.434, 90.500 106.938, 90.500 105.169 C 90.500 104.438, 91.374 103.200, 92.441 102.419 C 94.129 101.185, 94.162 101, 92.691 101 C 91.761 101, 91 100.601, 91 100.113 C 91 99.193, 85.318 98.015, 84.555 98.778 M 106.246 100.154 C 104.464 101.936, 104.674 102.531, 107.547 103.839 C 111.166 105.488, 117.834 105.276, 123.545 103.330 L 128.446 101.660 124.973 100.480 C 120.069 98.813, 107.801 98.599, 106.246 100.154 M 111.161 121.547 C 108.743 126.853, 110.660 134, 114.500 134 C 115.865 134, 117.113 133.048, 117.839 131.453 C 119.351 128.136, 119.328 121.728, 117.800 120.200 C 115.732 118.132, 112.409 118.806, 111.161 121.547 M 131.018 140.740 C 127.162 142.253, 125.686 146.282, 128.582 147.393 C 130.938 148.297, 134.893 148.128, 136.934 147.035 C 139.011 145.924, 138.628 141, 136.465 141 C 135.749 141, 134.564 140.811, 133.832 140.579 C 133.099 140.348, 131.833 140.420, 131.018 140.740 M 113.707 143.013 C 113.028 145.610, 116.693 147.964, 117.627 145.530 C 118.216 143.996, 116.475 141, 114.994 141 C 114.576 141, 113.996 141.906, 113.707 143.013" stroke="none" fill="black" fill-rule="evenodd"/>
</svg>