<svg xmlns="http://www.w3.org/2000/svg" width="256" height="256" viewBox="0 0 256 256" version="1.1">
	<path d="M 119 28.766 C 115.562 29.901, 114 32.344, 114 36.584 C 114 44.165, 109.993 45.894, 94.432 45.028 C 81.365 44.301, 79 42.945, 79 36.177 C 79 30.729, 77.765 29, 73.873 29 C 70.115 29, 67 33.160, 67 38.180 C 67 43.975, 63.828 46.694, 56.041 47.575 C 51.102 48.134, 49.558 48.744, 48.324 50.629 C 45.230 55.351, 49.508 58.321, 59 58.042 C 78.683 57.462, 86.236 57.807, 87.787 59.358 C 89.158 60.729, 89.186 61.283, 88 63.499 C 86.701 65.926, 86.334 66.024, 80.842 65.403 C 76.085 64.864, 73.525 65.235, 66.471 67.481 C 58.996 69.861, 57.928 70.485, 58.194 72.320 C 58.401 73.744, 59.471 74.629, 61.500 75.053 C 63.150 75.398, 66.729 76.705, 69.453 77.958 C 73.652 79.888, 75.379 80.135, 80.804 79.579 C 85.091 79.140, 87.664 79.307, 88.601 80.084 C 90.795 81.904, 90.241 86.279, 87.572 88.219 C 85.496 89.727, 84.516 89.793, 79.562 88.754 C 75.167 87.832, 73.488 87.839, 71.973 88.785 C 69.459 90.355, 67.414 90.299, 62.500 88.529 C 57.205 86.621, 45.705 86.584, 42.072 88.463 C 39.005 90.049, 38 91.811, 38 95.598 C 38 99.341, 43.644 101.723, 48.831 100.169 C 58.646 97.228, 64 99.701, 64 107.175 C 64 111.579, 57.160 127.081, 53.929 130 C 53.016 130.825, 49.509 134.774, 46.135 138.776 C 39.580 146.549, 38.445 150.299, 41.750 153.255 C 45.844 156.915, 50.215 155.829, 54.677 150.043 C 57.585 146.272, 59.158 145.075, 61.250 145.043 C 62.763 145.019, 64 144.586, 64 144.079 C 64 143.573, 65.800 141.340, 68 139.118 C 71.370 135.714, 72 134.427, 72 130.943 C 72 128.669, 72.787 125.468, 73.750 123.829 C 75.413 120.998, 75.749 120.879, 80.500 121.431 C 83.250 121.751, 88.971 122.281, 93.214 122.610 C 97.457 122.939, 101.342 123.724, 101.847 124.354 C 102.352 124.984, 103.086 130.328, 103.477 136.228 C 104.188 146.936, 104.185 146.959, 101.748 148.069 C 99.945 148.891, 97.111 148.872, 90.903 147.996 C 74.472 145.678, 74.025 145.668, 71.945 147.550 C 69.264 149.976, 69.508 152.418, 72.800 156.103 C 75.408 159.021, 76.252 159.300, 85.050 160.161 C 90.248 160.670, 96.525 160.860, 99 160.583 C 101.475 160.307, 110.475 159.825, 119 159.513 C 145.317 158.548, 148.551 158.145, 151.430 155.477 C 154.546 152.589, 154.016 150.796, 149.151 147.770 C 145.810 145.693, 144.314 145.500, 131.558 145.500 L 117.617 145.500 115.832 142.448 C 114.263 139.765, 114.183 138.618, 115.167 132.948 C 116.680 124.237, 118.210 123, 127.476 123 C 133.298 123, 135.250 122.591, 137.363 120.929 C 139.564 119.198, 139.818 118.528, 138.912 116.835 C 136.632 112.576, 123.504 109.472, 110 110 C 108.075 110.076, 102 110.323, 96.500 110.549 C 84.048 111.063, 82.498 110.748, 82.242 107.649 C 81.996 104.684, 86.523 102.424, 90.742 103.405 C 94.619 104.307, 108.048 104.281, 132.648 103.323 C 151.401 102.593, 154.037 102.283, 155.913 100.582 C 157.349 99.280, 157.829 97.996, 157.407 96.582 C 155.743 91.006, 151.854 90.062, 128.061 89.454 C 107.630 88.932, 104.857 88.201, 105.742 83.568 C 106.354 80.370, 111.477 78.826, 118 79.875 C 120.475 80.273, 123.625 80.284, 125 79.899 C 126.375 79.514, 129.830 79.155, 132.679 79.100 C 138.198 78.993, 141 77.271, 141 73.985 C 141 71.575, 137.433 69.074, 134.929 69.729 C 133.212 70.178, 121.146 63.456, 121.056 62 C 121.039 61.725, 122.603 60.478, 124.532 59.228 C 127.700 57.175, 128.795 57.020, 135.887 57.611 C 142.970 58.202, 143.935 58.065, 145.793 56.207 C 150.143 51.857, 146.612 48.909, 135.353 47.490 C 130.343 46.858, 126.108 44.268, 125.903 41.711 C 125.850 41.045, 125.886 38.790, 125.983 36.699 C 126.221 31.588, 122.670 27.554, 119 28.766 M 107.750 60.689 C 104.946 61.422, 105.708 62.584, 109.901 63.967 C 113.131 65.033, 114.336 65.019, 116.901 63.883 C 118.606 63.129, 120 62.228, 120 61.881 C 120 60.463, 111.705 59.656, 107.750 60.689" stroke="none" fill="black" fill-rule="evenodd"/>
</svg>