<svg xmlns="http://www.w3.org/2000/svg" width="256" height="256" viewBox="0 0 256 256" version="1.1">
	<path d="M 93.571 30.571 C 91.708 32.435, 91.597 34.547, 93.131 38.947 C 94.149 41.865, 94.012 42.443, 91.775 44.680 C 89.378 47.076, 88.770 47.174, 75.181 47.334 C 61.902 47.490, 60.946 47.372, 58.883 45.318 C 57.464 43.905, 56.724 41.991, 56.784 39.887 C 56.917 35.220, 55.413 33, 52.120 33 C 48.155 33, 45.792 36.076, 45.418 41.725 C 45.244 44.351, 44.691 47.854, 44.190 49.509 C 42.733 54.315, 44.145 56.365, 50.233 58.284 C 54.309 59.569, 57.696 59.869, 63.596 59.469 C 67.943 59.175, 75.935 59.522, 81.356 60.241 C 88.372 61.172, 93.342 61.278, 98.601 60.612 C 107.579 59.473, 111.179 60.580, 110.248 64.193 C 109.193 68.283, 107.160 68.964, 96.500 68.793 C 91 68.705, 78.417 68.952, 68.539 69.341 C 52.306 69.981, 50.365 70.248, 48.375 72.117 C 45.097 75.197, 43.662 84.952, 43.539 105 C 43.443 120.692, 43.158 123.484, 40.775 132.023 C 39.314 137.260, 36.971 144.010, 35.569 147.023 C 31.814 155.090, 32.243 160, 36.703 160 C 42.706 160, 46.352 155.670, 49.939 144.280 C 51.016 140.859, 52.314 137.259, 52.822 136.280 C 53.331 135.301, 54.018 131.625, 54.349 128.111 C 55.012 121.090, 56.755 117.559, 59.974 116.717 C 63.564 115.778, 68.182 122.027, 69.313 129.356 C 69.641 131.477, 70.829 134.978, 71.954 137.137 C 74.621 142.253, 74.621 145, 71.955 145 C 69.185 145, 65 149.365, 65 152.255 C 65 155.396, 66.790 157, 70.296 157 C 74.463 157, 78.892 153.418, 81.103 148.260 L 83.019 143.789 92.028 144.502 C 98.793 145.038, 101.424 144.893, 102.594 143.922 C 103.517 143.156, 104.427 143.010, 104.826 143.564 C 105.197 144.079, 107.414 146.188, 109.753 148.250 C 114.950 152.832, 118.479 153.084, 125.455 149.371 C 129.946 146.980, 130.718 146.855, 133.947 147.990 C 135.901 148.677, 138.400 150.038, 139.500 151.015 C 149.080 159.519, 156.046 158.814, 161.087 148.829 C 164.418 142.229, 164.586 140.646, 162.487 135.622 C 160.747 131.459, 157.673 130.793, 154.376 133.865 C 149.497 138.410, 144.737 138.898, 143.494 134.980 C 142.381 131.474, 144.950 118.007, 148.124 110.704 C 151.933 101.940, 152.505 94.321, 149.595 91.105 C 148.547 89.947, 148.003 89, 148.384 89 C 148.766 89, 148.511 88.393, 147.818 87.650 C 146.794 86.554, 146.316 86.541, 145.278 87.579 C 144.575 88.282, 144 89.302, 144 89.845 C 144 90.389, 143.472 91.009, 142.826 91.225 C 142.181 91.440, 140.269 94.287, 138.576 97.551 C 134.111 106.167, 131.731 105.993, 130.593 96.967 C 130.348 95.024, 129.840 92.212, 129.465 90.717 C 128.461 86.716, 129.612 83.498, 132.523 82.171 C 136.173 80.509, 138.389 80.703, 143.573 83.139 C 147.709 85.084, 148.495 85.157, 152.181 83.940 C 157.340 82.238, 161 79.370, 161 77.031 C 161 75.349, 157.535 71.889, 151.821 67.866 C 149.597 66.300, 149.497 65.674, 149.432 52.866 C 149.345 35.892, 147.551 31.574, 141.263 33.209 C 137.808 34.107, 136.280 37.156, 137.445 40.827 C 137.892 42.234, 137.306 43.401, 135.401 44.900 C 133.068 46.734, 131.387 47, 122.115 46.998 C 114.013 46.997, 110.672 46.583, 108 45.248 C 104.330 43.415, 104.411 43.710, 105.095 34.722 C 105.227 32.976, 104.599 31.409, 103.403 30.504 C 100.865 28.583, 95.523 28.619, 93.571 30.571 M 128.264 60.527 C 124.812 62.946, 127.853 68.374, 132.046 67.278 C 134.282 66.693, 134.764 62.164, 132.800 60.200 C 131.260 58.660, 130.892 58.687, 128.264 60.527 M 61.070 83.223 C 59.733 83.925, 58.304 85.758, 57.894 87.295 C 56.866 91.150, 57.363 107.768, 58.540 108.917 C 59.906 110.249, 67.651 111.236, 70.987 110.503 C 76.531 109.285, 77.456 99, 72.021 99 C 70.910 99, 70 98.550, 70 98 C 70 97.450, 69.377 97, 68.617 97 C 66.716 97, 65.953 92.284, 67.629 90.893 C 68.371 90.277, 68.754 89.411, 68.480 88.968 C 67.806 87.876, 73.688 86.596, 78 86.897 C 79.925 87.031, 86.219 87.315, 91.986 87.528 C 97.754 87.741, 103.504 88.467, 104.763 89.141 C 107.628 90.674, 108.442 93.741, 107.188 98.282 C 106.339 101.358, 106.565 102.322, 109.004 106.007 C 112.736 111.643, 112.191 115.267, 106.843 120.387 C 100.098 126.845, 98.522 133.577, 102.677 138.188 C 103.845 139.484, 104.769 139.658, 106.664 138.938 C 108.020 138.422, 111.013 137.998, 113.315 137.996 C 119.468 137.991, 123.410 135.181, 124.942 129.707 C 127.137 121.869, 124.566 114.689, 118.887 112.796 C 118.330 112.610, 117.707 109.475, 117.502 105.828 C 117.298 102.182, 116.604 97.241, 115.959 94.849 C 115.315 92.457, 114.845 90.383, 114.914 90.240 C 115.525 88.979, 111.422 83.893, 109.380 83.381 C 106.427 82.639, 91.165 82.430, 83 83.019 C 79.975 83.238, 74.350 83.085, 70.500 82.681 C 65.504 82.156, 62.804 82.311, 61.070 83.223 M 89.395 100.614 C 87.742 101.296, 88.973 105.915, 91.113 107.061 C 92.461 107.782, 93.821 107.627, 95.991 106.505 C 99.241 104.824, 100.020 101.605, 97.418 100.607 C 95.632 99.922, 91.063 99.926, 89.395 100.614 M 83 117.929 C 83 118.439, 82.366 119.492, 81.590 120.267 C 79.891 121.966, 79.418 124.869, 80.453 127.250 C 80.965 128.426, 82.333 129, 84.628 129 C 88.970 129, 91.006 125.503, 89.298 120.978 C 88.496 118.855, 88.511 117.973, 89.355 117.627 C 89.985 117.369, 88.813 117.122, 86.750 117.079 C 84.688 117.036, 83 117.418, 83 117.929" stroke="none" fill="black" fill-rule="evenodd"/>
</svg>