<svg xmlns="http://www.w3.org/2000/svg" width="256" height="256" viewBox="0 0 256 256" version="1.1">
	<path d="M 80.500 37.237 C 77.750 37.705, 69.601 38.242, 62.390 38.431 C 44.059 38.909, 39.005 41.623, 41.962 49.400 C 42.997 52.123, 43.200 52.194, 47.767 51.436 C 53.435 50.495, 88.186 50.854, 89.237 51.865 C 89.642 52.254, 90.212 57.282, 90.504 63.037 C 90.796 68.791, 91.381 77.325, 91.804 82 C 92.667 91.544, 91.972 99.438, 90.107 101.274 C 89.119 102.245, 88.346 101.877, 86.380 99.500 C 81.059 93.066, 78.509 90.945, 74.941 89.984 C 69.655 88.561, 68.634 86.930, 69.480 81.259 C 69.871 78.642, 70.823 74.983, 71.595 73.128 C 75.141 64.616, 70.979 58.156, 63.726 60.914 C 60.818 62.020, 59.647 64.846, 57.496 75.947 C 55.490 86.301, 54.723 87.800, 50.540 89.548 C 46.135 91.388, 40.840 95.932, 41.623 97.199 C 41.969 97.758, 42.178 101.920, 42.089 106.447 C 41.917 115.213, 43.068 120, 45.350 120 C 46.120 120, 49.483 116.467, 52.824 112.148 C 62.199 100.029, 65.219 98.814, 72.945 104.048 C 78.775 107.998, 81.447 108.592, 84.472 106.610 C 88.509 103.965, 90.506 104.577, 92.537 109.081 C 94.097 112.541, 94.191 113.645, 93.158 116.331 C 92.488 118.074, 91.658 123.025, 91.315 127.333 C 90.972 131.641, 90.108 135.749, 89.396 136.461 C 87.824 138.033, 72.549 139.438, 67.078 138.513 C 64.629 138.099, 60.805 138.447, 56.958 139.432 C 51.900 140.728, 50.022 140.801, 46.637 139.833 C 44.362 139.182, 41.825 138.760, 41 138.894 C 36.769 139.583, 35.535 147.001, 39.250 149.417 C 40.487 150.222, 46 151.605, 51.500 152.489 C 61.717 154.133, 73.046 153.933, 85.152 151.898 C 88.837 151.278, 92.375 151.300, 95.318 151.959 C 102.493 153.567, 143.698 153.650, 148.500 152.067 C 156.228 149.517, 158.296 144.951, 153.448 141.138 C 149.668 138.165, 141.940 137.567, 131.824 139.465 C 123.938 140.945, 122.605 140.952, 117.180 139.547 C 113.897 138.696, 109.840 138, 108.165 138 C 104.291 138, 103.687 136.944, 103.639 130.085 C 103.573 120.743, 105.282 117.397, 111.837 114.043 C 114.952 112.449, 119.931 108.637, 122.902 105.572 C 126.164 102.207, 129.157 100, 130.458 100 C 132.811 100, 147 111.614, 147 113.541 C 147 114.193, 148.194 115.921, 149.653 117.380 C 152.132 119.859, 152.425 119.926, 154.118 118.393 C 156.869 115.903, 156.237 110.449, 152.238 102.186 C 147.876 93.171, 144.122 90, 137.816 90 C 134.125 90, 133.138 89.598, 132.296 87.750 C 131.732 86.513, 131.602 84.600, 132.006 83.500 C 132.411 82.400, 132.994 77.563, 133.301 72.751 C 133.928 62.936, 133.058 61, 128.017 61 C 123.633 61, 120.425 65.526, 119.592 72.888 C 118.497 82.564, 116.269 88.664, 112.426 92.508 C 110.505 94.428, 108.328 96, 107.588 96 C 105.385 96, 103.852 90.695, 103.936 83.370 C 103.980 79.592, 103.735 72.129, 103.390 66.787 C 102.597 54.471, 103.096 52.444, 107.250 51.117 C 109.037 50.547, 117.969 50.119, 127.098 50.167 C 144.845 50.261, 150.223 49.321, 152.110 45.795 C 153.014 44.105, 152.779 43.325, 150.760 41.305 C 147.551 38.096, 142.552 37.059, 135.569 38.155 C 131.297 38.824, 128.833 38.683, 125.593 37.583 C 120.766 35.944, 89.497 35.704, 80.500 37.237 M 106 97.969 C 106 98.501, 106.675 98.678, 107.500 98.362 C 108.325 98.045, 109 97.609, 109 97.393 C 109 97.177, 108.325 97, 107.500 97 C 106.675 97, 106 97.436, 106 97.969" stroke="none" fill="black" fill-rule="evenodd"/>
</svg>