<svg xmlns="http://www.w3.org/2000/svg" width="256" height="256" viewBox="0 0 256 256" version="1.1">
	<path d="M 96.500 33.184 C 91 33.728, 78.225 34.246, 68.110 34.336 L 49.720 34.500 47.815 37.049 C 45.529 40.108, 46.212 42.541, 49.892 44.444 C 52.590 45.839, 63.488 46.936, 79.296 47.403 C 90.883 47.745, 91.710 48.500, 90.236 57.397 C 89.383 62.541, 89.453 65.020, 90.567 69.204 C 92.236 75.475, 92.370 79.439, 91.002 81.997 C 90.086 83.707, 88.857 83.833, 76.252 83.506 C 68.688 83.309, 61.715 82.843, 60.756 82.470 C 59.797 82.096, 55.100 82.373, 50.317 83.085 C 40.366 84.565, 38 86.177, 38 91.477 C 38 97.726, 39.167 97.963, 67.225 97.427 L 91.950 96.953 92.545 99.325 C 92.873 100.629, 92.997 104.127, 92.820 107.098 C 92.326 115.431, 93.986 146.107, 95.127 149.734 C 96.316 153.512, 100.326 157, 103.480 157 C 108.752 157, 111.548 148.327, 108.629 141.030 C 107.488 138.180, 106.836 132.292, 106.436 121.236 C 105.815 104.047, 106.164 102.427, 111.318 98.600 C 113.931 96.660, 115.272 96.524, 129.775 96.737 C 145.489 96.967, 151.799 96.152, 153.901 93.619 C 154.525 92.868, 155.191 90.407, 155.383 88.151 C 155.717 84.206, 155.570 83.970, 151.550 82.024 C 146.492 79.576, 143.077 79.488, 135.932 81.622 C 131.739 82.874, 127.946 83.124, 119.305 82.715 C 113.147 82.424, 107.677 81.918, 107.148 81.592 C 103.154 79.123, 101.180 53.823, 104.750 50.855 C 108.665 47.601, 114.113 45.977, 125.957 44.533 C 140.418 42.770, 144.100 40.907, 136.884 39.004 C 134.473 38.369, 129.085 36.732, 124.911 35.369 C 115.702 32.359, 109.596 31.890, 96.500 33.184" stroke="none" fill="black" fill-rule="evenodd"/>
</svg>