<svg xmlns="http://www.w3.org/2000/svg" width="256" height="256" viewBox="0 0 256 256" version="1.1">
	<path d="M 83.825 25.014 C 81.661 26.308, 79.665 32.369, 80.518 35.056 C 81.463 38.035, 78.445 41, 74.467 41 C 70.315 41, 68.964 39.274, 69.163 34.220 C 69.323 30.136, 66.954 25, 64.911 25 C 61.135 25, 57 30.608, 57 35.728 C 57 37.283, 56.280 39.582, 55.401 40.838 C 53.972 42.879, 53.112 43.090, 47.298 42.829 C 41.496 42.568, 40.589 42.789, 38.897 44.879 C 34.966 49.734, 38.065 54, 45.523 54 C 47.765 54, 50.140 54.540, 50.800 55.200 C 53.553 57.953, 51.461 63.480, 46.415 66.783 C 44.497 68.039, 42.428 70.161, 41.819 71.499 C 40.874 73.573, 41.108 74.453, 43.406 77.466 C 45.198 79.816, 46.923 81, 48.551 81 C 49.898 81, 51 80.599, 51 80.109 C 51 79.618, 52.688 78.506, 54.750 77.636 C 61.707 74.702, 64.997 70.588, 65.004 64.816 C 65.013 56.890, 72.186 51.998, 77.578 56.240 C 81.753 59.524, 82.184 61.330, 79.980 66.312 C 77.635 71.614, 78.068 73.327, 82.898 77.853 L 86.477 81.206 96.988 80.509 C 102.770 80.125, 108.930 79.143, 110.677 78.326 C 114.696 76.448, 118.238 69.440, 117.368 65.090 C 116.616 61.332, 118.718 59, 122.857 59 C 127.475 59, 129.216 61.379, 128.430 66.617 C 127.568 72.367, 129.369 75.077, 136.213 78.328 C 140.804 80.509, 145.351 82.254, 147 82.466 C 148.046 82.601, 150 84.149, 150 84.842 C 150 86.323, 98.368 87.040, 94 85.619 C 91.106 84.677, 88.874 84.656, 84 85.522 C 82.075 85.864, 72.236 86.224, 62.136 86.322 L 43.773 86.500 39.846 90.924 C 37.272 93.824, 36.147 95.891, 36.580 96.924 C 36.944 97.791, 37.536 101.425, 37.895 105 C 38.255 108.575, 38.902 112.063, 39.334 112.751 C 39.766 113.438, 42.126 114.507, 44.579 115.124 C 52.884 117.215, 56.872 127.582, 54.588 141.137 C 53.963 144.847, 54.221 146.711, 55.878 150.456 C 57.705 154.588, 58.273 155.100, 60.713 154.819 C 63.105 154.543, 63.848 153.576, 66.231 147.637 C 69.174 140.303, 69.472 138.068, 68.448 130.997 C 67.573 124.955, 69.349 123.461, 79 122.122 C 88.471 120.808, 89.605 121.708, 91.590 132.119 C 93.289 141.029, 93.360 145.684, 91.886 151.537 C 90.407 157.412, 91.305 160.414, 95.091 162.247 C 101.596 165.398, 105.321 161.409, 104.381 152.301 C 103.966 148.273, 104.295 144.745, 105.460 140.758 C 107.101 135.141, 107.090 134.932, 104.961 131.144 C 103.248 128.097, 103.013 126.844, 103.857 125.268 C 105.109 122.928, 107.654 122.313, 119.662 121.450 C 129.978 120.709, 132.369 121.729, 132.225 126.806 C 132.074 132.092, 129.215 136.774, 125.361 138.046 C 120.084 139.788, 117 143.405, 117 147.854 C 117 153.776, 118.755 155.374, 124.635 154.809 C 127.417 154.542, 130.618 153.493, 131.937 152.417 C 143.135 143.279, 144.277 141.135, 144.411 129 C 144.462 124.325, 144.954 119.762, 145.502 118.861 C 146.051 117.960, 148.525 116.258, 151 115.080 C 157.228 112.115, 159.417 108.897, 158.413 104.181 C 157.626 100.482, 157.538 98.775, 157.992 96 C 158.578 92.412, 157.843 89.752, 155.662 87.571 L 153.323 85.232 155.814 83.366 C 159.515 80.594, 161.292 75.736, 159.802 72.465 C 158.441 69.478, 154.268 67, 150.597 67 C 147.783 67, 142.880 65.068, 141.765 63.520 C 140.425 61.659, 140.974 58.334, 142.911 56.580 C 144.391 55.241, 145.802 54.997, 149.161 55.499 C 155.006 56.372, 159 54.788, 159 51.597 C 159 47.922, 154.663 45, 149.210 45 C 142.946 45, 138.412 41.487, 137.279 35.757 C 136.631 32.480, 135.856 31.322, 133.838 30.612 C 129.200 28.981, 127.773 30.352, 128.297 35.934 C 128.734 40.591, 128.597 40.945, 125.831 42.285 C 122.289 44, 118.898 43.485, 116.010 40.794 C 114.278 39.181, 113.979 38.081, 114.474 35.146 C 115.195 30.873, 113.718 28.403, 109.894 27.482 C 106.012 26.549, 103.866 29.197, 104.145 34.578 C 104.514 41.717, 100.050 44.803, 93.602 41.865 C 90.224 40.325, 89.819 38.765, 91.536 33.899 C 92.731 30.512, 92.768 29.285, 91.740 27.131 C 90.382 24.284, 86.696 23.298, 83.825 25.014 M 93.666 56.127 C 92.325 56.907, 92.002 57.872, 92.465 59.718 C 93.360 63.281, 95.398 65, 98.729 65 C 102.243 65, 104 63.386, 104 60.160 C 104 55.820, 98.133 53.530, 93.666 56.127 M 63.500 98.458 C 62.950 98.622, 60.475 99.361, 58 100.098 C 55.525 100.836, 52.938 101.983, 52.250 102.648 C 50.494 104.346, 50.696 107.553, 52.683 109.540 C 54.113 110.970, 55.728 111.130, 63.433 110.608 C 82.438 109.321, 95.882 106.781, 93.029 105.018 C 92.078 104.430, 92.301 104.039, 93.868 103.542 C 96.388 102.742, 100.264 103.763, 99.487 105.022 C 98.460 106.682, 102.837 107.976, 111.161 108.471 C 138.446 110.095, 140.559 110.059, 142.842 107.932 C 145.618 105.346, 145.644 101.415, 142.895 99.944 C 141.063 98.963, 127.628 99.005, 108.500 100.051 C 106.850 100.141, 103.925 100.170, 102 100.114 C 100.075 100.059, 97.375 100.004, 96 99.993 C 94.625 99.982, 89.450 99.568, 84.500 99.074 C 75.565 98.181, 65.418 97.883, 63.500 98.458" stroke="none" fill="black" fill-rule="evenodd"/>
</svg>