<svg xmlns="http://www.w3.org/2000/svg" width="256" height="256" viewBox="0 0 256 256" version="1.1">
	<path d="M 63.500 28.208 C 60.540 29.905, 59.252 32.025, 58.563 36.329 C 57.835 40.883, 55.162 46.369, 49.859 54.195 C 47.737 57.327, 46 60.165, 46 60.500 C 46 60.835, 45.054 63.187, 43.897 65.725 C 42.741 68.264, 41.728 72.402, 41.647 74.921 C 41.511 79.164, 41.692 79.522, 44.126 79.804 C 47.463 80.191, 55.064 73.887, 60 66.639 C 63.348 61.724, 68.027 58.453, 72.500 57.902 C 74.994 57.595, 93.876 58.981, 96.250 59.645 C 97.624 60.030, 98.005 61.248, 98.024 65.317 C 98.037 68.168, 98.463 72.291, 98.970 74.480 C 99.707 77.657, 99.570 78.818, 98.292 80.230 C 96.321 82.408, 93.382 82.448, 83.640 80.434 C 76.736 79.006, 75.510 79.009, 69.783 80.467 C 62.934 82.210, 59.587 85.126, 60.565 88.500 C 61.780 92.696, 62.146 104.610, 61.139 107.198 C 60.562 108.681, 58.979 110.623, 57.622 111.512 C 55.324 113.018, 54.860 112.994, 50.875 111.167 C 43.693 107.875, 38.265 110.377, 39.450 116.434 C 40.742 123.040, 45.756 124.695, 53.109 120.944 C 57.128 118.894, 57.150 118.894, 61.319 120.846 C 81.411 130.253, 81.286 130.209, 89.450 130.754 C 93.877 131.050, 97.831 131.789, 98.235 132.396 C 98.639 133.003, 98.976 138.046, 98.985 143.602 C 98.998 152.460, 99.282 154.123, 101.290 157.102 C 103.022 159.672, 104.294 160.500, 106.510 160.500 C 111.114 160.500, 111.946 157.613, 111.457 143.329 C 110.900 127.054, 110.781 127.180, 126.272 127.656 C 132.447 127.846, 140 128.279, 143.055 128.620 C 147.965 129.168, 148.923 128.964, 151.306 126.870 C 154.743 123.848, 155.807 118.949, 153.521 116.664 C 151.988 115.131, 145.913 114.286, 140.500 114.853 C 139.400 114.968, 134.675 115.179, 130 115.321 C 125.318 115.464, 120.004 116.236, 118.169 117.040 C 115.119 118.376, 114.726 118.345, 113.502 116.672 C 110.143 112.079, 110.860 99.810, 114.763 95.088 C 116.329 93.193, 116.893 93.097, 120.500 94.114 C 125.642 95.564, 138.382 94.635, 141.516 92.581 C 143.637 91.192, 143.785 90.681, 142.846 87.988 C 141.531 84.217, 139.703 83.224, 131.028 81.572 C 125.933 80.601, 122.791 80.527, 118.945 81.287 C 114.040 82.257, 113.642 82.179, 111.895 79.908 C 110.408 77.972, 110.040 75.696, 110.022 68.307 C 109.995 56.867, 110.815 56, 121.673 56 C 129.913 56, 137.913 54.525, 140.640 52.502 C 142.385 51.208, 142.396 51.016, 140.815 49.411 C 138.494 47.056, 121.804 43.043, 114.500 43.085 C 111.200 43.103, 103.575 43.700, 97.555 44.412 C 83.195 46.108, 75.038 45.652, 72.863 43.031 C 71.348 41.205, 71.348 40.718, 72.863 36.453 L 74.500 31.848 71.694 29.424 C 68.618 26.766, 66.549 26.459, 63.500 28.208 M 74.250 95.662 C 72.761 96.263, 72.574 100.619, 74 101.500 C 74.550 101.840, 75 103.140, 75 104.389 C 75 105.639, 76.716 108.575, 78.812 110.915 C 82.083 114.565, 83.540 115.362, 89.062 116.523 C 94.614 117.690, 95.810 117.675, 97.750 116.415 C 99.612 115.206, 99.999 114.051, 99.994 109.727 C 99.985 101.352, 98.474 97.361, 94.829 96.090 C 91.725 95.008, 76.648 94.695, 74.250 95.662" stroke="none" fill="black" fill-rule="evenodd"/>
</svg>