<svg xmlns="http://www.w3.org/2000/svg" width="256" height="256" viewBox="0 0 256 256" version="1.1">
	<path d="M 54.382 32.348 C 51.992 34.403, 51.669 35.370, 51.786 40.098 C 52.074 51.741, 48.867 55.996, 39.800 56.004 C 37.279 56.006, 34.155 56.827, 32.250 57.989 C 29.524 59.651, 28.995 60.578, 28.967 63.735 C 28.949 65.806, 28.541 74.264, 28.059 82.532 C 26.845 103.373, 27.714 110.205, 32.408 116.739 C 36.495 122.427, 37.582 123.107, 40.500 121.802 C 42.433 120.938, 42.492 120.056, 42.274 95.277 C 42.047 69.540, 42.346 67, 45.599 67 C 47.968 67, 49.833 71.284, 50.607 78.500 C 51.020 82.350, 51.308 101.475, 51.246 121 C 51.124 159.313, 51.210 159.989, 56.445 161.979 C 59.696 163.215, 62.563 162.254, 63.814 159.509 C 64.915 157.092, 65.112 136.541, 64.448 93.500 C 64.244 80.300, 64.293 68.487, 64.557 67.250 C 65.138 64.531, 67.626 64.372, 70.845 66.848 C 72.994 68.501, 73.099 68.980, 72.101 72.576 C 70.527 78.245, 70.753 87.164, 72.581 91.540 C 73.697 94.211, 73.929 96.378, 73.369 98.912 C 72.933 100.885, 72.519 104.318, 72.449 106.541 C 72.379 108.763, 71.949 111.913, 71.493 113.541 C 69.896 119.237, 70.263 120.407, 74.237 122.282 C 77.107 123.637, 78.488 123.809, 79.994 123.003 C 82.149 121.850, 82.567 120.504, 83.535 111.624 C 83.887 108.393, 85.036 104.217, 86.088 102.344 C 88.085 98.788, 88.623 95, 87.130 95 C 85.218 95, 83.864 85.712, 83.687 71.391 C 83.448 52.086, 82.536 50.698, 72.824 54.861 C 65.091 58.176, 61.540 54.771, 63.061 45.500 C 64.408 37.287, 64.162 34.162, 62 32 C 59.400 29.400, 57.719 29.477, 54.382 32.348 M 106.500 33.937 C 95.813 34.796, 91.717 38.583, 93.999 45.496 C 94.774 47.845, 94.992 55.579, 94.677 69.498 C 94.229 89.243, 94.119 90.159, 91.813 93.267 C 88.971 97.098, 88.982 97.566, 92.073 104.500 C 93.930 108.667, 94.952 115.817, 94.976 124.814 C 94.996 132.707, 94.611 134.979, 92.449 139.705 C 90.097 144.848, 89.999 145.601, 91.199 149.391 C 92.202 152.558, 93.360 153.920, 96.251 155.333 L 100.002 157.166 106.330 154.083 C 109.810 152.387, 113.522 150.998, 114.579 150.995 C 117.119 150.988, 121.570 147.237, 123.446 143.522 C 124.868 140.706, 124.828 140.476, 122.725 139.308 C 121.501 138.629, 118.420 137.781, 115.878 137.425 C 108.765 136.427, 108.587 136.162, 107.720 125.287 C 107.291 119.904, 106.798 114.161, 106.625 112.524 C 106.011 106.732, 112.112 104.661, 116.833 109.059 C 118.539 110.648, 118.953 111.962, 118.648 114.809 C 118.190 119.070, 120.166 123.556, 123.736 126.365 C 125.092 127.431, 127.013 130.196, 128.004 132.510 C 129.758 136.602, 130.558 137.547, 138.648 145.094 C 148.047 153.863, 156.754 157.895, 160.548 155.235 C 162.193 154.081, 162.069 149.761, 160.312 147.008 C 158.423 144.047, 152.112 138, 150.910 138 C 149.838 138, 145 130.919, 145 129.349 C 145 128.697, 146.581 127.186, 148.513 125.992 C 153.831 122.705, 154.406 120.877, 151.478 116.563 C 150.115 114.554, 149 112.343, 149 111.648 C 149 110.953, 151.025 108.958, 153.500 107.213 C 157.399 104.465, 158 103.565, 158 100.475 C 158 93.016, 149.625 89.428, 140.773 93.094 C 139.041 93.811, 136.269 93.953, 133.264 93.477 C 130.644 93.062, 126.250 92.847, 123.500 92.999 C 112.192 93.625, 111.508 93.559, 109.288 91.629 C 107.055 89.687, 107.055 89.687, 109.069 87.941 C 110.538 86.666, 110.733 86.054, 109.791 85.676 C 109.081 85.391, 109.737 85.122, 111.250 85.079 C 112.763 85.036, 114 85.375, 114 85.833 C 114 86.820, 113.289 86.745, 128.881 87.405 C 135.691 87.693, 141.486 88.152, 141.758 88.425 C 142.618 89.285, 147.895 86.065, 148.996 84.007 C 149.868 82.378, 149.508 81.468, 146.925 78.768 L 143.798 75.500 127.165 75.500 L 110.531 75.500 109.186 72.698 C 106.727 67.576, 108.399 66.956, 124.385 67.061 C 143.207 67.185, 142.329 67.274, 144.784 64.987 C 146.620 63.276, 146.776 62.602, 145.818 60.501 C 143.340 55.062, 139.424 54.017, 120.212 53.664 C 110.001 53.477, 108.329 52.566, 110.291 48.260 C 111.344 45.949, 111.698 45.866, 117.948 46.475 C 130.528 47.700, 148.392 47.495, 151.793 46.086 C 157.963 43.530, 156.738 37.313, 149.629 35.102 C 145.888 33.939, 116.389 33.143, 106.500 33.937 M 130.664 107.479 C 128.531 109.611, 128.557 111.307, 130.750 113.204 C 133.556 115.631, 137.115 116.039, 140.691 114.342 C 144.721 112.430, 144.950 109.909, 141.242 108.268 C 136.045 105.967, 132.444 105.699, 130.664 107.479" stroke="none" fill="black" fill-rule="evenodd"/>
</svg>