<svg xmlns="http://www.w3.org/2000/svg" width="256" height="256" viewBox="0 0 256 256" version="1.1">
	<path d="M 139.917 31.404 C 139.688 31.626, 133.650 33.009, 126.500 34.477 C 103.725 39.153, 93.913 42.066, 93.024 44.418 C 91.021 49.714, 96.951 52.751, 106.135 51.133 C 110.880 50.297, 112.922 50.333, 114.909 51.288 C 117.375 52.473, 117.507 52.941, 117.649 61.016 C 117.833 71.437, 116.880 72.929, 110.141 72.776 C 104.531 72.648, 101.242 74.234, 99.924 77.701 C 98.029 82.684, 104.883 87.202, 110.265 84.518 C 115.255 82.028, 116.795 82.526, 118.005 87.018 C 118.600 89.228, 118.955 94.291, 118.793 98.268 L 118.500 105.500 110.539 105.701 C 101.635 105.925, 93.222 107.635, 91.233 109.624 C 88.842 112.015, 87.838 116.443, 88.995 119.487 L 90.069 122.311 106.284 121.748 C 115.203 121.439, 125.200 121.565, 128.500 122.029 C 145.792 124.461, 155.383 125.146, 157.655 124.111 C 161.239 122.478, 160.923 116.664, 157.054 113.050 C 154.021 110.217, 146.209 108.015, 139.083 107.985 C 137.112 107.976, 134.904 107.592, 134.176 107.130 C 131.181 105.231, 130.374 89.665, 133.100 86.380 C 134.125 85.144, 135.549 84.993, 140.436 85.602 C 143.771 86.017, 147.757 86.328, 149.294 86.293 C 154.417 86.177, 157.302 81.556, 155.379 76.545 C 154.149 73.340, 148.876 71.557, 140.536 71.528 C 133.059 71.502, 132.493 71.347, 131.300 69 C 130.601 67.625, 130.023 63.013, 130.015 58.750 C 129.997 49.210, 131.173 47.712, 139.885 46.177 C 149.573 44.471, 151.446 43.233, 151.805 38.297 C 152.080 34.517, 151.816 33.956, 149.105 32.554 C 146.342 31.125, 140.906 30.445, 139.917 31.404 M 61.539 39.941 C 57.429 42.077, 51.103 42.676, 49.450 41.086 C 48.404 40.080, 45.996 39.709, 41.651 39.885 C 35.613 40.129, 30.490 49.672, 34.577 53.064 C 35.878 54.144, 36.974 54.138, 40.827 53.029 C 49.537 50.522, 52.427 50.553, 53.782 53.165 C 55.621 56.714, 55.519 60.889, 53.432 67.500 C 51.386 73.982, 50.580 74.944, 44.500 78.162 C 37.139 82.056, 34.032 87.075, 35.458 92.768 C 35.835 94.271, 36.269 99.262, 36.424 103.860 C 36.691 111.784, 36.870 112.372, 39.853 115.160 C 41.584 116.778, 43 118.754, 43 119.551 C 43 120.348, 43.438 121, 43.974 121 C 44.510 121, 45.688 122.463, 46.591 124.250 C 47.495 126.038, 49.144 128.496, 50.256 129.713 C 52.171 131.808, 52.190 132.061, 50.616 134.463 C 49.702 135.858, 48.164 137, 47.199 137 C 44.092 137, 41.101 139.947, 40.396 143.703 C 39.819 146.779, 40.075 147.642, 42.038 149.232 C 45.664 152.168, 51.662 150.869, 59.380 145.473 C 66.494 140.500, 67.072 140.346, 70.412 142.535 C 81.308 149.674, 138.771 155.483, 151.169 150.698 C 161.278 146.797, 160.441 140.858, 149.500 138.857 C 146.200 138.254, 136.881 137.659, 128.791 137.536 C 119.448 137.394, 113.573 136.891, 112.689 136.157 C 111.753 135.380, 108.868 135.202, 103.898 135.614 C 98.383 136.071, 94.972 135.787, 90.500 134.500 C 83.928 132.609, 77 129.142, 77 127.744 C 77 127.256, 76.325 126.182, 75.500 125.357 C 73.929 123.786, 74.345 116.685, 76.142 114.391 C 77.746 112.344, 79.978 103.540, 79.989 99.218 C 79.995 96.863, 80.681 93.306, 81.513 91.314 C 83.383 86.838, 83.724 80.324, 82.168 78.768 C 80.848 77.448, 75.224 77.237, 69.905 78.308 C 67.043 78.885, 65.767 78.604, 63.639 76.931 L 60.968 74.830 63.734 69.673 C 65.255 66.836, 68.525 62.504, 71 60.045 C 80.031 51.074, 80.864 47.989, 75.750 42.451 C 71.553 37.905, 67.003 37.102, 61.539 39.941 M 47.896 93.167 C 43.376 96.439, 43.326 96.535, 45.164 98.444 C 46.194 99.513, 47.525 102.213, 48.122 104.444 C 50.476 113.237, 52.121 116, 55.006 116 C 58.615 116, 62.544 112.177, 65.532 105.759 C 68.589 99.192, 68.616 96.827, 65.669 93.402 C 63.798 91.227, 62.270 90.608, 57.919 90.263 C 53.024 89.876, 52.055 90.157, 47.896 93.167" stroke="none" fill="black" fill-rule="evenodd"/>
</svg>