<svg xmlns="http://www.w3.org/2000/svg" width="256" height="256" viewBox="0 0 256 256" version="1.1">
	<path d="M 96.693 26.787 C 95.804 27.769, 94.392 30.211, 93.555 32.214 C 92.718 34.216, 91.239 36.080, 90.267 36.355 C 85.520 37.699, 76.099 38.401, 62.165 38.448 C 47.096 38.499, 46.796 38.543, 44.828 40.969 C 43.175 43.006, 42.935 44.320, 43.454 48.476 C 43.881 51.897, 43.588 54.915, 42.542 57.882 C 40.721 63.043, 40.593 68.432, 42.098 76.566 C 44.516 89.637, 40.366 132.576, 35.458 145.270 C 34.656 147.344, 34 150.576, 34 152.453 C 34 156.570, 36.349 157.700, 41.424 156.025 C 45.148 154.796, 47.286 151.288, 48.447 144.500 C 48.824 142.300, 49.982 138.025, 51.021 135 C 53.743 127.076, 55.972 85.286, 54.879 62.667 C 54.523 55.307, 54.650 54.712, 56.988 52.814 C 59.316 50.924, 60.447 50.831, 74.488 51.364 C 94.237 52.114, 135.946 52.151, 137.130 51.419 C 137.643 51.103, 141.581 50.867, 145.882 50.895 C 152.851 50.941, 153.944 50.688, 155.927 48.577 C 158.828 45.490, 158.362 41.338, 154.819 38.705 C 152.262 36.805, 151.307 36.754, 134.045 37.607 C 112.772 38.657, 110.430 38.289, 109.472 33.742 C 107.986 26.689, 100.479 22.603, 96.693 26.787 M 84.417 60.031 C 80.540 64.060, 77.421 65.664, 71.840 66.501 C 66.028 67.373, 61 70.349, 61 72.917 C 61 73.988, 62.462 75.907, 64.250 77.182 C 66.970 79.122, 68.602 79.469, 74.264 79.307 C 80.486 79.130, 81.161 79.315, 82.672 81.623 C 83.576 83.002, 84.371 85.158, 84.438 86.414 C 84.651 90.396, 88.105 96.381, 92.280 100 C 96.289 103.476, 96.373 103.497, 104.408 103.116 C 115.267 102.601, 117.800 102.643, 122.500 103.418 C 130 104.656, 133.283 101.161, 134.459 90.685 C 135.286 83.329, 135.634 82.470, 138.578 80.541 C 140.275 79.429, 142.926 79.032, 147.549 79.200 C 154.092 79.437, 155.942 78.587, 155.985 75.323 C 156.009 73.423, 150.955 70, 148.115 69.994 C 142.876 69.983, 137.936 67.963, 136.977 65.439 C 136.440 64.028, 134.200 62.099, 131.666 60.869 L 127.284 58.740 121.685 61.812 C 111.938 67.162, 99 69.357, 99 65.660 C 99 64.998, 97.617 62.778, 95.927 60.728 C 92.012 55.977, 88.521 55.766, 84.417 60.031 M 98.121 79.576 C 95.365 82.746, 95.700 86.053, 98.940 87.662 C 102.597 89.478, 118.810 88.627, 120.892 86.510 C 122.372 85.004, 122.282 84.685, 119.769 82.501 C 118.116 81.065, 115.154 79.882, 112.269 79.504 C 109.646 79.160, 106.466 78.456, 105.203 77.940 C 101.705 76.509, 100.557 76.774, 98.121 79.576 M 73 106.007 C 61.938 107.975, 60.174 114.870, 69.843 118.346 C 72.413 119.271, 76.972 120.268, 79.973 120.562 C 85.056 121.060, 88.229 122, 84.827 122 C 83.135 122, 81.073 125.834, 81.735 127.750 C 81.972 128.438, 82.755 129, 83.475 129 C 84.681 129, 88 135.669, 88 138.092 C 88 140.147, 85.219 141.870, 80.891 142.497 C 75.339 143.301, 67.726 145.826, 66.919 147.132 C 65.764 149, 67.250 153.118, 69.646 154.687 C 71.445 155.866, 73.328 156.088, 77.268 155.585 C 88.973 154.092, 94.905 152.743, 96.705 151.164 C 102.575 146.015, 107.668 145.597, 117.984 149.417 C 126.021 152.392, 138.145 155.036, 144.326 155.160 C 152.787 155.330, 156.845 149.940, 151.750 145.299 C 147.991 141.876, 145.269 140.926, 137.809 140.436 C 128.794 139.843, 127.946 139.187, 129.168 133.746 C 129.687 131.438, 130.591 129.253, 131.178 128.890 C 131.764 128.528, 132.038 127.617, 131.786 126.866 C 131.527 126.095, 133.227 124.017, 135.685 122.100 C 139.405 119.197, 140.010 118.220, 139.822 115.422 C 139.646 112.813, 138.873 111.735, 136.035 110.140 C 129.790 106.630, 123.240 104.801, 121.071 105.962 C 118.657 107.254, 113.315 107.319, 112.541 106.066 C 111.924 105.067, 103.190 105.234, 91 106.477 C 86.790 106.906, 81.965 106.834, 80 106.313 C 78.075 105.803, 74.925 105.665, 73 106.007 M 96.625 120.484 C 95.519 121.321, 94.998 122.553, 95.356 123.485 C 95.868 124.821, 97.707 125.022, 107.219 124.783 C 117.319 124.529, 118.513 124.307, 118.836 122.620 C 119.035 121.586, 118.590 120.355, 117.848 119.885 C 115.526 118.414, 98.733 118.887, 96.625 120.484" stroke="none" fill="black" fill-rule="evenodd"/>
</svg>