<svg xmlns="http://www.w3.org/2000/svg" width="256" height="256" viewBox="0 0 256 256" version="1.1">
	<path d="M 97.246 29.154 C 96.561 29.839, 96 32.055, 96 34.079 C 96 37.159, 95.553 37.936, 93.250 38.854 C 88.009 40.943, 77.441 42.294, 65 42.463 C 52.038 42.640, 46.394 43.803, 43.620 46.868 C 42.723 47.858, 41.268 52.874, 40.366 58.080 C 39.029 65.794, 38.928 69.039, 39.804 76 C 41.737 91.360, 39.324 119.036, 34.390 138.103 C 30.522 153.049, 31.620 158.374, 38.105 156.113 C 42.530 154.571, 44.799 151.547, 45.581 146.150 C 45.952 143.593, 46.677 140.688, 47.192 139.696 C 48.056 138.032, 48.882 133.655, 50.530 122.021 C 50.879 119.558, 51.354 117.237, 51.585 116.863 C 52.192 115.880, 53.431 74.895, 53.128 65.815 C 52.758 54.733, 51.526 55.180, 84.545 54.411 C 115.815 53.682, 117.531 53.673, 137.669 54.145 C 152.577 54.494, 152.883 54.458, 155.419 52.076 C 158.689 49.004, 158.707 45.559, 155.469 42.559 C 152.958 40.232, 152.789 40.217, 133.997 40.683 C 112.339 41.219, 112.147 41.165, 108 33.263 C 105.823 29.115, 105.048 28.462, 101.996 28.204 C 100.068 28.042, 97.931 28.469, 97.246 29.154 M 71 61.922 C 64.554 63.195, 59.362 68.132, 60.718 71.697 C 60.969 72.356, 64.060 73.855, 67.587 75.029 C 71.114 76.203, 74 77.540, 74 78 C 74 78.460, 74.243 79.469, 74.539 80.242 C 74.861 81.079, 72.850 83.839, 69.562 87.073 C 66.528 90.058, 64.036 93.406, 64.023 94.514 C 63.999 96.600, 69.194 99.489, 75.090 100.668 C 76.659 100.982, 78.209 102.084, 78.538 103.119 C 78.866 104.154, 79.583 105, 80.130 105 C 81.425 105, 80.843 109.136, 79.321 110.750 C 77.761 112.405, 77.054 112.339, 72.472 110.110 C 70.336 109.071, 68.118 108.359, 67.544 108.527 C 66.970 108.695, 65.319 109.090, 63.877 109.404 C 62.237 109.761, 60.811 111.042, 60.073 112.823 C 58.465 116.706, 60.062 119.951, 65.113 123.059 C 67.293 124.402, 69.338 126.529, 69.657 127.787 C 70.547 131.307, 69.194 136.257, 66.728 138.504 C 63.979 141.006, 61 146.508, 61 149.081 C 61 151.730, 64.513 155, 67.360 155 C 68.657 155, 72.370 153.641, 75.610 151.979 L 81.500 148.959 86.954 150.968 C 92.035 152.839, 107.060 154.718, 131 156.476 C 139.579 157.106, 152.543 155.385, 156.939 153.032 C 159.109 151.871, 160.910 149.064, 161.521 145.892 C 162.138 142.688, 157.874 141.878, 141.547 142.097 C 133.271 142.208, 124.475 141.816, 122 141.224 C 119.525 140.633, 113.090 140.112, 107.701 140.068 C 91.458 139.933, 83.889 137.122, 85.540 131.837 C 85.941 130.552, 86.675 129.239, 87.170 128.919 C 87.666 128.599, 88.301 127.024, 88.583 125.419 C 89.598 119.627, 91.078 115.065, 92.357 113.786 C 93.074 113.069, 93.466 111.898, 93.228 111.184 C 92.574 109.223, 95.091 97, 96.148 97 C 97.177 97, 95.381 93.238, 93.413 91.271 C 92.715 90.572, 91.664 90, 91.079 90 C 90.494 90, 88.904 89.033, 87.545 87.852 L 85.075 85.704 87.037 82.948 C 88.117 81.432, 89 79.561, 89 78.791 C 89 78.021, 90.350 75.263, 92 72.661 C 97.597 63.836, 95.215 60.933, 82.527 61.115 C 78.112 61.178, 72.925 61.541, 71 61.922 M 118 62.828 C 110.813 65.499, 109 66.845, 109 69.512 C 109 72.539, 112.089 74.674, 117.782 75.582 C 122.541 76.342, 126 79.717, 126 83.600 C 126 86.870, 122.733 88.337, 117.272 87.518 C 113.248 86.915, 112.468 87.136, 109.886 89.609 C 104.196 95.060, 107.131 99.991, 116.079 100.014 C 123.639 100.033, 125.919 100.831, 126.642 103.710 C 127.381 106.655, 125.568 113.283, 123.571 114.941 C 122.790 115.590, 118.404 116.431, 113.825 116.810 L 105.500 117.500 104.379 120.970 C 103.314 124.264, 104.105 129.339, 105.848 130.400 C 106.207 130.618, 118.124 130.955, 132.330 131.148 C 156.964 131.484, 158.227 131.410, 159.580 129.559 C 163.835 123.742, 158.620 118, 149.082 118 C 146.232 118, 142.647 117.352, 141.115 116.559 C 138.756 115.340, 138.303 114.441, 138.162 110.698 C 138.026 107.121, 138.499 105.773, 140.642 103.630 C 142.981 101.291, 144.019 100.998, 149.536 101.118 C 156.976 101.279, 158 100.782, 158 97.009 C 158 93.210, 153.571 90, 148.328 90 C 145.840 90, 143.135 89.097, 140.732 87.464 C 137.507 85.273, 137 84.404, 137 81.075 C 137 75.895, 139.472 73.130, 144.921 72.214 C 150.084 71.347, 150.936 69.950, 147.980 67.196 C 142.035 61.658, 127.031 59.471, 118 62.828 M 75 113.941 C 75 115.807, 77.226 116.203, 78.810 114.618 C 80.301 113.127, 80.215 113, 77.714 113 C 76.221 113, 75 113.423, 75 113.941" stroke="none" fill="black" fill-rule="evenodd"/>
</svg>