<svg xmlns="http://www.w3.org/2000/svg" width="256" height="256" viewBox="0 0 256 256" version="1.1">
	<path d="M 96.035 32.934 C 95.466 33.998, 95 35.503, 95 36.279 C 95 39.065, 91.344 40.748, 82 42.263 C 74.821 43.427, 71.034 43.564, 66.500 42.824 C 55.893 41.094, 43.333 43.641, 41.003 47.994 C 40.493 48.947, 39.519 54.738, 38.838 60.862 C 37.868 69.577, 37.860 73.261, 38.800 77.809 C 40.201 84.596, 40.288 102.304, 38.954 109.500 C 38.445 112.250, 37.347 120.504, 36.516 127.842 C 35.685 135.180, 34.788 141.534, 34.523 141.962 C 34.259 142.391, 33.369 145.325, 32.546 148.483 C 30.342 156.947, 32.877 160.332, 39.384 157.613 C 43.501 155.893, 44.637 153.145, 46.460 140.500 C 47.253 135, 48.614 126.675, 49.485 122 C 52.278 107.009, 53.686 80.907, 51.945 76.404 C 50.469 72.586, 50.669 58.103, 52.223 56.231 C 53.221 55.029, 57.509 54.820, 77.462 55.002 C 135.417 55.529, 154.479 54.687, 158.067 51.439 C 160.846 48.924, 160.278 44.276, 156.884 41.754 C 154.399 39.907, 153.615 39.870, 141.240 41.015 C 134.074 41.679, 124.522 42.054, 120.013 41.849 C 112.053 41.488, 111.731 41.375, 108.916 37.988 C 107.321 36.070, 105.338 33.712, 104.508 32.750 C 102.445 30.356, 97.356 30.467, 96.035 32.934 M 78.357 60.992 C 75.643 62.087, 73 65.815, 73 68.548 C 73 70.730, 69.203 75, 67.262 75 C 66.652 75, 64.798 76.141, 63.141 77.535 C 58.249 81.651, 60.046 85.913, 67.562 88.017 C 72.430 89.380, 75.216 92.234, 74.247 94.865 C 73.916 95.764, 70.825 99.105, 67.377 102.289 C 61.565 107.656, 56.543 115.583, 55.490 121.051 C 54.926 123.982, 58.706 128, 62.027 128 C 64.813 128, 70 124.067, 70 121.955 C 70 121.430, 70.675 121, 71.500 121 C 72.333 121, 73 120.111, 73 119 C 73 117.572, 73.643 117.020, 75.250 117.070 C 76.874 117.121, 77.082 117.330, 76 117.820 C 74.073 118.693, 73.589 121, 75.333 121 C 77.016 121, 77.022 121.065, 77.283 141.697 C 77.407 151.561, 77.926 159.298, 78.500 159.841 C 79.050 160.363, 80.933 161.091, 82.685 161.460 C 85.122 161.973, 86.329 161.671, 87.825 160.175 C 89.655 158.345, 89.751 157.088, 89.323 140.484 L 88.867 122.749 91.620 119.874 C 93.625 117.782, 95.344 116.991, 97.937 116.968 C 105.642 116.899, 107.402 111.745, 101.954 105.204 C 99.436 102.182, 97.077 100.607, 93.250 99.392 C 89.003 98.044, 88 97.304, 88 95.516 C 88 93.093, 91.064 89, 92.878 89 C 94.584 89, 103.391 84.772, 104.218 83.556 C 104.613 82.975, 104.498 82.349, 103.962 82.165 C 103.426 81.980, 103.206 81.475, 103.474 81.043 C 103.939 80.289, 99.736 77.984, 91.776 74.628 C 87.903 72.994, 86.280 69.863, 87.294 65.983 C 87.645 64.643, 86.987 63.348, 85.272 61.999 C 82.502 59.820, 81.589 59.687, 78.357 60.992 M 117.295 61.107 C 113.022 62.343, 111.008 65.482, 110.965 70.973 C 110.945 73.463, 110.312 76.615, 109.557 77.979 C 108.387 80.092, 108.398 80.869, 109.632 83.256 C 110.428 84.796, 111.306 88.367, 111.583 91.193 C 111.860 94.019, 112.305 96.684, 112.571 97.115 C 112.837 97.545, 112.596 99.833, 112.035 102.199 C 110.425 108.988, 110.199 112.357, 111.220 114.340 C 112.460 116.749, 112.953 121.138, 113.484 134.500 C 114.250 153.783, 114.458 155.142, 116.946 157.157 C 119.958 159.596, 121.959 159.481, 125.798 156.649 C 128.325 154.784, 130.741 154.174, 137.478 153.699 C 145.249 153.150, 146.333 153.307, 150.235 155.538 C 152.581 156.879, 155.436 157.981, 156.581 157.988 C 160.822 158.013, 161.349 154.667, 160.634 132.287 C 160.268 120.854, 159.559 109.025, 159.058 106 C 158.556 102.975, 158.113 93.738, 158.073 85.473 C 157.991 68.647, 157.432 66.914, 151.255 64.333 C 148.009 62.977, 127.103 59.888, 122.538 60.090 C 121.417 60.140, 119.058 60.597, 117.295 61.107 M 128.508 74.991 C 125.835 75.461, 125.422 76.032, 124.634 80.348 C 123.424 86.969, 124.721 88.125, 133.364 88.125 C 141.739 88.125, 143.881 87.444, 145.033 84.414 C 146.049 81.742, 144.931 77.697, 142.812 76.377 C 140.962 75.225, 132.075 74.364, 128.508 74.991 M 126.032 102.968 C 121.822 107.178, 124.932 111.695, 132.500 112.361 C 135.250 112.603, 139.348 113.118, 141.606 113.505 C 145.352 114.148, 145.767 114.003, 146.342 111.855 C 148.441 104.014, 146.540 102.047, 136.267 101.430 C 128.973 100.991, 127.838 101.162, 126.032 102.968 M 127.136 126.559 C 124.225 129.063, 123.860 133.612, 126.275 137.297 C 127.573 139.278, 129.002 139.868, 133.692 140.358 C 136.886 140.692, 141.123 141.240, 143.107 141.576 C 147.373 142.297, 147.939 141.414, 148.656 132.925 C 149.291 125.415, 148.113 124.510, 137.649 124.467 C 130.862 124.440, 129.220 124.767, 127.136 126.559" stroke="none" fill="black" fill-rule="evenodd"/>
</svg>