<svg xmlns="http://www.w3.org/2000/svg" width="256" height="256" viewBox="0 0 256 256" version="1.1">
	<path d="M 57.350 31.928 C 55.617 32.985, 52.732 36.020, 50.938 38.674 C 49.143 41.329, 45.558 45.544, 42.971 48.042 C 38.122 52.723, 35.774 56.444, 34.612 61.287 C 34.244 62.820, 32.309 66.349, 30.312 69.129 C 27.377 73.214, 26.951 74.356, 28.090 75.077 C 30.181 76.400, 31.681 76.206, 35.790 74.081 C 40.120 71.841, 47.717 64.020, 50.439 59 C 52.886 54.487, 56.892 50.615, 61.685 48.127 C 63.783 47.038, 67.014 44.742, 68.865 43.025 C 71.750 40.348, 72.142 39.445, 71.612 36.701 C 70.382 30.334, 63.656 28.083, 57.350 31.928 M 141.500 38.559 C 133.025 40.589, 130.647 40.803, 125.908 39.962 C 122.832 39.416, 114.507 38.929, 107.408 38.880 C 100.309 38.831, 92.636 38.736, 90.358 38.669 C 82.870 38.448, 78.330 43.008, 80.073 49 C 81.466 53.787, 81.024 59.449, 78.998 62.772 L 77.003 66.044 79.729 70.272 C 82.437 74.470, 82.459 74.644, 82.799 95 C 82.987 106.275, 83.065 123.825, 82.973 134 L 82.805 152.500 85.357 154.882 L 87.909 157.264 94.351 154.526 L 100.793 151.788 125.208 152.408 C 141.644 152.825, 150.634 152.675, 152.716 151.949 C 155.054 151.134, 156.382 149.605, 158.155 145.685 C 160.332 140.870, 160.513 139.107, 160.678 121 C 160.775 110.275, 161.137 95.650, 161.481 88.500 C 162.246 72.606, 162.310 67.820, 161.962 52.549 C 161.712 41.606, 161.495 40.405, 159.390 38.299 C 156.547 35.456, 154.317 35.489, 141.500 38.559 M 138.410 51.972 C 136.131 52.893, 121.923 53.998, 107.110 54.405 C 99.330 54.619, 97.488 54.979, 96.372 56.505 C 94.253 59.404, 93.594 65.034, 94.736 70.489 C 95.313 73.245, 95.652 80.450, 95.490 86.500 C 95.298 93.652, 95.680 99.286, 96.583 102.605 C 97.563 106.207, 97.851 111.654, 97.563 121.105 C 97.066 137.412, 97.466 138.314, 105.233 138.386 C 108.130 138.413, 112.075 138.288, 114 138.109 C 115.925 137.930, 123.192 138.123, 130.148 138.539 L 142.797 139.294 144.273 136.397 C 146.324 132.371, 147.382 122.102, 147.559 104.500 C 147.643 96.250, 148.022 82.975, 148.403 75 C 148.784 67.025, 148.832 59.052, 148.509 57.282 C 147.486 51.676, 143.858 49.769, 138.410 51.972 M 58.992 66.250 C 57.282 68.037, 54.957 71.300, 53.825 73.500 C 52.693 75.700, 51.032 78.335, 50.133 79.355 C 49.235 80.375, 48.607 81.500, 48.738 81.855 C 49.433 83.739, 47.488 86.014, 44.272 87.075 C 42.275 87.734, 39.556 89.562, 38.231 91.137 C 36.906 92.712, 35.212 94, 34.467 94 C 33.721 94, 31.957 95.013, 30.545 96.250 C 28.220 98.288, 28.074 98.840, 28.996 102.105 C 30.061 105.877, 33.044 110, 34.707 110 C 35.241 110, 36.157 108.987, 36.741 107.750 C 38.974 103.018, 43.236 99, 46.023 99 C 47.525 99, 49.222 99.563, 49.792 100.250 C 51.298 102.064, 52.099 112.895, 52.328 134.500 C 52.505 151.219, 52.768 153.972, 54.515 157.431 C 56.920 162.194, 58.864 163.502, 62.268 162.648 C 64.035 162.204, 65.165 160.980, 65.865 158.750 C 66.489 156.764, 66.856 141.109, 66.809 118.500 C 66.733 81.988, 66.761 81.447, 68.967 77.500 C 70.197 75.300, 71.720 72.825, 72.351 72 C 76.001 67.234, 76.004 66.373, 72.383 64.646 C 66.803 61.984, 62.590 62.489, 58.992 66.250 M 104.956 71.173 C 101.602 73.213, 100.112 75.749, 100.653 78.500 C 101.092 80.731, 102.027 93.564, 102.366 102 C 102.666 109.483, 103.542 111.554, 107.420 113.950 C 111.791 116.652, 114.601 116.539, 116.537 113.584 C 118.742 110.219, 120.484 109.806, 123.261 111.991 C 127.896 115.637, 134.376 115.054, 137.044 110.750 C 138.853 107.830, 139.004 106.332, 138.528 96 C 138.236 89.675, 137.991 82.048, 137.984 79.052 C 137.976 75.981, 137.333 72.630, 136.510 71.374 C 135.109 69.236, 134.496 69.152, 121.417 69.299 C 110.481 69.422, 107.226 69.793, 104.956 71.173 M 115.986 83.228 C 114.282 84.815, 113.950 85.931, 114.454 88.377 C 114.807 90.095, 115.413 93.478, 115.798 95.896 C 116.586 100.832, 118.956 103.111, 121.288 101.176 C 122.214 100.408, 123.004 96.996, 123.455 91.820 C 124.091 84.531, 123.973 83.562, 122.333 82.625 C 119.420 80.961, 118.306 81.066, 115.986 83.228" stroke="none" fill="black" fill-rule="evenodd"/>
</svg>