<svg xmlns="http://www.w3.org/2000/svg" width="256" height="256" viewBox="0 0 256 256" version="1.1">
	<path d="M 49.654 31.965 C 47.288 34.146, 42.967 39.834, 40.051 44.605 C 35.532 52, 34.732 54.056, 34.625 58.553 C 34.556 61.453, 34.817 64.145, 35.203 64.533 C 36.954 66.293, 40.867 63.469, 45.305 57.242 C 47.948 53.534, 53.235 47.800, 57.054 44.500 C 64.821 37.789, 66.128 34.082, 62.255 29.750 C 59.470 26.636, 54.484 27.512, 49.654 31.965 M 80.615 30.465 C 79.727 31.820, 79 34.079, 79 35.485 C 79 36.890, 77.250 41.744, 75.110 46.270 C 72.971 50.797, 70.905 56.297, 70.520 58.492 C 70.134 60.688, 69.645 62.766, 69.433 63.109 C 69.220 63.452, 67.068 63.280, 64.649 62.727 C 62.230 62.173, 59.107 62.007, 57.709 62.358 C 52.047 63.779, 40 76.790, 40 81.483 C 40 82.187, 37.932 84.773, 35.404 87.230 C 32.439 90.112, 30.753 92.639, 30.654 94.348 C 30.549 96.147, 29.938 96.999, 28.750 96.999 C 27.788 97, 27 97.675, 27 98.500 C 27 100.529, 29.584 100.395, 31.843 98.250 C 34.424 95.800, 39.819 93, 41.960 93 C 43.855 93, 45.140 95.503, 47.022 102.863 C 48.400 108.249, 48.532 122.620, 47.236 125.991 C 46.708 127.363, 46.633 129.721, 47.069 131.241 C 47.504 132.758, 47.891 137.038, 47.929 140.750 C 48.067 154.236, 52.812 163.890, 57.423 160.064 C 61.345 156.809, 63.895 125.738, 61.087 115.404 C 60.546 113.410, 60.767 109.673, 61.710 104.904 C 64.132 92.656, 64.381 88.086, 62.729 86.190 C 60.313 83.417, 58.734 79.789, 59.652 79.123 C 61.316 77.916, 65.638 71.462, 66.933 68.250 C 68.287 64.890, 70.296 64.273, 74.500 65.928 C 77.410 67.073, 80.270 65.396, 82.523 61.224 C 83.610 59.209, 85.685 56.900, 87.132 56.091 C 90.154 54.404, 91.543 55.285, 93.762 60.297 C 95.725 64.732, 95.245 66.955, 91.522 70.678 C 88.622 73.578, 87.417 74.115, 84.272 73.906 C 76.457 73.389, 75.039 75.058, 75.014 84.800 C 75.006 87.714, 74.421 91.314, 73.714 92.800 C 72.946 94.413, 72.599 97.714, 72.851 101 C 73.084 104.025, 73.345 115.137, 73.431 125.694 C 73.632 150.144, 73.254 149.508, 87 148.571 C 92.225 148.215, 100.429 147.725, 105.232 147.483 C 119.479 146.763, 124.364 143.307, 118.750 137.919 C 115.429 134.731, 110.761 132.008, 108.611 132.004 C 106.908 132, 106.776 131.407, 107.270 125.964 C 107.950 118.457, 109.921 115.365, 115.635 112.837 C 125.072 108.663, 123.349 98.923, 112.920 97.489 C 108.496 96.881, 108 96.556, 108 94.274 C 108 92.445, 109.816 90.023, 114.500 85.608 C 118.547 81.793, 121 78.677, 121 77.351 C 121 74.469, 118.229 71.547, 114 69.970 C 112.075 69.252, 109.942 68.239, 109.260 67.718 C 107.883 66.667, 108.549 62.238, 110.374 60.312 C 112.619 57.942, 122.772 53.241, 124.003 54.002 C 125.168 54.722, 125.505 65.517, 124.602 73.209 C 124.427 74.699, 125.155 77.849, 126.219 80.209 C 127.810 83.738, 128.075 86.099, 127.715 93.500 C 127.474 98.450, 127.035 103.411, 126.740 104.523 C 126.444 105.636, 126.825 108.336, 127.586 110.523 C 129.736 116.701, 129.393 131.536, 126.978 136.859 C 124.497 142.326, 124.488 142.118, 127.558 150.152 C 130.395 157.576, 133.718 160.756, 136.873 159.068 C 140.091 157.346, 141.083 153.056, 140.674 142.642 C 140.403 135.746, 140.722 131.606, 141.750 128.671 C 143.557 123.513, 143.706 104.188, 141.964 100.933 C 140.728 98.624, 140.456 74.689, 141.644 72.767 C 141.985 72.216, 141.688 69.369, 140.986 66.441 C 139.942 62.088, 139.948 60.514, 141.019 57.809 C 142.760 53.413, 144.914 51, 147.096 51 C 150.617 51, 150.568 50.558, 150.893 85.231 C 150.959 92.252, 150.501 98.476, 149.752 100.731 C 148.945 103.161, 148.678 107.624, 149 113.294 L 149.500 122.088 153.500 125.506 C 161.962 132.738, 163.217 130.278, 163.708 105.506 C 163.915 95.053, 164.497 83.615, 165.001 80.088 C 165.505 76.562, 165.706 73.333, 165.447 72.914 C 165.188 72.495, 164.949 64.958, 164.916 56.166 C 164.865 42.489, 164.614 39.972, 163.178 38.742 C 160.226 36.212, 157.818 35.911, 152.598 37.419 C 149.794 38.230, 144.593 39.357, 141.040 39.925 C 136.402 40.665, 133.139 41.949, 129.467 44.478 C 126.655 46.415, 123.840 48, 123.212 48 C 122.584 48, 120.502 46.624, 118.586 44.942 C 114.745 41.569, 114.038 41.434, 105.829 42.512 C 95.952 43.809, 91 40.915, 91 33.847 C 91 31.137, 90.454 29.778, 89.066 29.035 C 85.737 27.254, 82.343 27.828, 80.615 30.465 M 83.055 87.923 C 81.240 90.472, 81.132 91.209, 82.216 93.673 C 82.900 95.228, 83.732 96.725, 84.066 97 C 85.421 98.117, 86.595 103.796, 86.444 108.500 C 85.710 131.361, 85.774 133.203, 87.357 134.785 C 88.697 136.126, 89.312 136.171, 91.356 135.077 C 93.568 133.893, 93.828 132.974, 94.451 124.142 C 94.825 118.839, 95.214 109.024, 95.315 102.330 C 95.492 90.702, 95.392 90.046, 93.076 87.580 C 89.729 84.019, 85.738 84.155, 83.055 87.923" stroke="none" fill="black" fill-rule="evenodd"/>
</svg>