<svg xmlns="http://www.w3.org/2000/svg" width="256" height="256" viewBox="0 0 256 256" version="1.1">
	<path d="M 67.390 30.765 C 66.779 31.169, 65.520 32.982, 64.592 34.793 C 62.396 39.078, 60.084 39.842, 51 39.286 C 42.272 38.751, 36.602 40.585, 34.807 44.524 C 33.883 46.553, 34.005 47.348, 35.496 48.996 C 37.061 50.725, 38.574 51, 46.506 51 C 51.563 51, 57.074 51.478, 58.751 52.063 C 62.776 53.466, 63.729 56.907, 60.728 59.210 C 58.585 60.854, 50.860 63, 47.086 63 C 44.633 63, 40.371 66.474, 39.706 69.015 C 39.359 70.342, 39.918 71.777, 41.272 73.039 C 43.148 74.787, 44.960 75.014, 57.939 75.128 C 78.533 75.310, 96.327 75.746, 97.500 76.097 C 98.050 76.261, 99.513 76.052, 100.750 75.631 C 103.869 74.570, 103.639 70.970, 100.250 67.809 C 96.184 64.017, 93.406 62.856, 86.275 61.972 C 79.171 61.091, 75.923 59.010, 76.745 55.866 C 77.484 53.043, 81.548 51.773, 88 52.351 C 91.025 52.622, 95.525 52.365, 98 51.781 C 106.648 49.739, 108.264 45.456, 102 41.178 C 98.760 38.965, 97.853 38.832, 89.770 39.381 C 79.252 40.097, 76.683 39.165, 74.562 33.864 C 73.022 30.015, 70.301 28.839, 67.390 30.765 M 137.498 38.750 C 136.672 39.712, 134.372 42.410, 132.388 44.744 C 130.116 47.414, 126.578 49.975, 122.840 51.652 C 116.181 54.641, 115 56.161, 115 61.747 C 115 64.700, 115.676 66.273, 117.831 68.338 C 123.338 73.614, 126.596 72.176, 130.878 62.578 C 132.947 57.939, 136.398 53.555, 143.257 46.850 C 147.973 42.241, 148.587 39.829, 145.573 37.765 C 143.606 36.419, 139.019 36.978, 137.498 38.750 M 136.360 73.460 C 134.261 74.930, 132.669 78.177, 131.564 83.242 C 131.123 85.264, 129.663 86.644, 125.999 88.501 C 120.184 91.447, 116.172 97.523, 118.570 99.750 C 121.017 102.023, 127.605 101.189, 134.235 97.765 C 141.231 94.153, 141.963 93.448, 141.985 90.301 C 142 88.127, 147.506 83, 149.825 83 C 151.223 83, 152.451 78.539, 151.484 76.974 C 150.619 75.575, 142.466 72, 140.140 72 C 139.208 72, 137.507 72.657, 136.360 73.460 M 57.658 82.884 C 45.524 83.466, 44.705 83.638, 42.794 86 C 41.008 88.208, 40.849 89.377, 41.433 96 C 42.472 107.778, 43.629 111.075, 48.103 115 C 51.615 118.081, 52.372 119.577, 54.433 127.500 C 56.002 133.534, 56.474 137.069, 55.864 138.227 C 54.267 141.259, 51.020 142.259, 44.600 141.695 C 40.383 141.325, 37.943 141.567, 36.695 142.480 C 35.039 143.692, 35.011 144.092, 36.360 147.320 C 37.169 149.255, 38.656 151.265, 39.665 151.786 C 45.120 154.600, 73.282 155.276, 82 152.801 C 85.025 151.943, 92.146 150.938, 97.825 150.569 C 107.764 149.923, 108.318 149.997, 112.635 152.526 C 116.525 154.806, 117.533 155.010, 120.242 154.065 C 124.602 152.546, 142.475 133.442, 145.263 127.321 C 145.835 126.066, 147.076 124.793, 148.020 124.494 C 148.964 124.194, 150.549 123.051, 151.543 121.952 C 153.301 120.010, 153.257 119.860, 149.925 116.422 C 148.041 114.479, 146.725 112.576, 147 112.194 C 147.275 111.813, 145.970 110.736, 144.099 109.802 C 141.055 108.283, 140.399 108.259, 137.849 109.578 C 135.787 110.644, 134.994 111.804, 134.978 113.776 C 134.966 115.274, 134.076 117.625, 133 119 C 131.924 120.375, 131.023 122.175, 130.997 123 C 130.885 126.548, 121.767 136.044, 115.278 139.371 C 112.250 140.923, 111.636 140.906, 105.073 139.087 C 101.233 138.023, 96.833 136.544, 95.295 135.801 C 92.517 134.458, 92.502 134.398, 92.867 126.122 C 93.207 118.401, 93.451 117.586, 96.227 114.933 C 98.877 112.401, 99.261 111.292, 99.570 105.286 C 99.762 101.554, 100.339 97.098, 100.851 95.384 C 101.364 93.670, 101.412 91.667, 100.958 90.932 C 100.504 90.197, 100.328 89.278, 100.569 88.889 C 100.809 88.500, 99.595 86.996, 97.871 85.545 C 95.341 83.416, 93.751 82.921, 89.619 82.977 C 86.803 83.015, 81.350 82.871, 77.500 82.656 C 73.650 82.442, 64.721 82.545, 57.658 82.884 M 60.413 94.982 C 55.865 96.011, 55 96.810, 55 99.981 C 55 102.393, 55.580 103.036, 58.676 104.058 C 62.435 105.299, 65.397 105.407, 77.273 104.736 C 84.392 104.334, 86.160 103.420, 86.703 99.861 C 87.398 95.310, 84.713 94.148, 73.665 94.219 C 68.074 94.254, 62.111 94.598, 60.413 94.982 M 69.585 117.044 C 65.813 118.172, 65.019 119.581, 66.078 123.273 C 66.552 124.926, 67.019 129.154, 67.116 132.670 C 67.213 136.186, 67.702 139.316, 68.203 139.625 C 71.614 141.734, 77.702 135.591, 78.442 129.293 C 78.688 127.207, 79.196 123.823, 79.571 121.774 C 80.195 118.370, 80.021 117.958, 77.562 117.024 C 74.464 115.846, 73.583 115.848, 69.585 117.044" stroke="none" fill="black" fill-rule="evenodd"/>
</svg>