<svg xmlns="http://www.w3.org/2000/svg" width="256" height="256" viewBox="0 0 256 256" version="1.1">
	<path d="M 86.239 30.978 C 78.627 34.433, 68.134 36.475, 45.282 38.947 C 31.712 40.415, 29.148 46.064, 39.215 52.314 C 42.518 54.365, 45.219 54.417, 50.621 52.535 C 52.888 51.745, 59.044 50.658, 64.302 50.120 C 69.559 49.583, 76.480 48.450, 79.680 47.603 C 82.881 46.757, 87.975 45.588, 91 45.006 C 98.312 43.598, 99.172 42.925, 99.297 38.507 C 99.383 35.466, 98.790 34.201, 96.186 31.875 C 92.400 28.492, 91.830 28.440, 86.239 30.978 M 137.884 37.250 C 137.060 37.938, 135.162 40.174, 133.665 42.219 C 132.169 44.265, 127.832 47.953, 124.027 50.414 C 116.513 55.275, 113.557 59.387, 114.598 63.533 C 115.483 67.061, 120.669 72, 123.488 72 C 125.847 72, 131 66.959, 131 64.651 C 131 63.994, 132.287 61.891, 133.861 59.978 C 135.434 58.065, 137.894 54.182, 139.328 51.349 C 140.761 48.515, 143.110 45.272, 144.548 44.141 C 147.696 41.664, 147.151 38.388, 143.349 36.943 C 140.146 35.725, 139.681 35.751, 137.884 37.250 M 64.151 56.607 C 60.621 59.079, 59.971 61.966, 62.035 66 C 63.020 67.925, 64.653 70.404, 65.663 71.509 C 66.673 72.614, 68.996 75.255, 70.824 77.378 L 74.147 81.237 71.549 83.949 C 70.120 85.441, 68.742 87.750, 68.487 89.081 C 67.655 93.424, 65.392 94.179, 55.384 93.456 C 46.701 92.828, 46.164 92.908, 44.095 95.128 C 41.643 97.761, 40.502 101.260, 41.364 103.506 C 42.048 105.289, 45.066 106.640, 50.238 107.479 C 58.656 108.846, 57.568 115.730, 47.392 125.500 C 38.760 133.787, 30.791 145.350, 31.212 148.977 C 31.646 152.712, 35.345 154.155, 39.867 152.353 C 43.453 150.924, 52.969 141.699, 53.033 139.588 C 53.090 137.738, 56.665 134.078, 59.450 133.019 C 61.702 132.163, 62.479 132.388, 64.602 134.511 C 66.929 136.838, 67.087 137.617, 66.886 145.756 C 66.650 155.290, 68.269 160.316, 71.951 161.485 C 74.205 162.200, 77.940 160.524, 78.123 158.715 C 78.367 156.312, 79.112 143.447, 79.148 141 C 79.219 136.293, 81.216 127.642, 82.537 126.320 C 84.136 124.722, 89.616 124.570, 90.561 126.099 C 91.898 128.261, 97.253 129.842, 99.608 128.769 C 103.256 127.107, 103.148 124.499, 99.289 121.082 C 97.374 119.387, 95.380 118, 94.858 118 C 93.026 118, 88.818 112.916, 89.398 111.405 C 89.716 110.576, 92.001 109.003, 94.475 107.908 C 101.759 104.686, 102.236 100.901, 96.018 95.668 C 93.320 93.398, 91.911 93, 86.578 93 C 81.580 93, 79.943 92.595, 78.500 91 C 77.439 89.828, 77.176 89, 77.865 89 C 78.622 89, 78.313 87.574, 77 85 L 74.959 81 77.730 80.885 C 81.990 80.708, 84.137 80.955, 88.738 82.151 C 96.951 84.287, 101.876 79.467, 101.155 70 C 100.500 61.384, 93.595 57.837, 90.436 64.494 C 88.751 68.045, 82.777 74, 80.899 74 C 76.966 74, 74.018 68.573, 74.006 61.307 C 74.002 59.145, 73.282 57.611, 71.777 56.557 C 68.952 54.578, 67.030 54.591, 64.151 56.607 M 41.267 65.250 C 37.963 69.473, 40.361 74.999, 46.636 77.621 C 50.824 79.371, 50.637 79.405, 51.489 76.750 C 52.731 72.875, 52.009 70.607, 48.463 67.250 C 44.800 63.783, 42.841 63.238, 41.267 65.250 M 137.113 74.733 C 135.490 76.356, 133.669 79.516, 133.066 81.756 C 132.187 85.018, 131.077 86.351, 127.484 88.457 C 121.701 91.845, 119 94.793, 119 97.713 C 119 100.664, 122.737 102.226, 127.844 101.409 C 133.441 100.514, 142.130 94.220, 143.500 90.067 C 144.124 88.179, 145.278 86.321, 146.067 85.938 C 146.855 85.556, 149.188 84.520, 151.250 83.638 C 153.593 82.635, 155 81.359, 155 80.239 C 155 77.311, 152.263 74.278, 149.025 73.617 C 147.361 73.278, 144.664 72.726, 143.032 72.391 C 140.623 71.897, 139.508 72.338, 137.113 74.733 M 68.512 100.981 C 67.566 102.511, 70.427 103.879, 71.694 102.502 C 72.636 101.478, 72.478 101.097, 70.945 100.696 C 69.876 100.416, 68.781 100.545, 68.512 100.981 M 138.750 111.080 C 137.787 111.641, 137 112.782, 137 113.616 C 137 114.451, 135.938 116.566, 134.641 118.317 C 133.343 120.068, 131.209 123.696, 129.899 126.379 C 128.470 129.305, 125.318 133.108, 122.024 135.879 C 112.481 143.909, 111.449 146.100, 114.463 151.928 C 115.954 154.812, 117.850 156.018, 120.832 155.977 C 122.825 155.950, 136 142.125, 142.730 133 C 145.900 128.700, 148.568 126.161, 150.610 125.499 C 155.089 124.045, 157 122.119, 157 119.058 C 157 112.990, 144.701 107.614, 138.750 111.080" stroke="none" fill="black" fill-rule="evenodd"/>
</svg>