<svg xmlns="http://www.w3.org/2000/svg" width="256" height="256" viewBox="0 0 256 256" version="1.1">
	<path d="M 84.708 31.090 C 80.039 33.554, 78.221 36.995, 79.780 40.417 C 80.641 42.306, 82.150 43.095, 86.691 44.033 C 93.200 45.376, 96.982 47.233, 105 53.024 C 108.025 55.209, 111.047 56.997, 111.715 56.998 C 114.703 57.002, 116.024 49.343, 113.857 44.585 C 112.866 42.410, 106.152 37, 104.445 37 C 104.116 37, 101.333 35.200, 98.260 33 C 91.972 28.497, 90.117 28.235, 84.708 31.090 M 72.200 66.200 C 70.580 67.820, 70.690 70.603, 72.629 77.068 C 74.040 81.774, 74.099 83.769, 73.067 92 C 72.411 97.225, 71.405 103.652, 70.830 106.283 C 70.102 109.615, 70.103 111.890, 70.833 113.783 C 71.410 115.277, 72.106 119.875, 72.381 124 C 73.732 144.313, 83.029 156.047, 97.710 155.969 C 104.896 155.931, 117.423 154.346, 121.703 152.933 C 125.357 151.727, 128.709 146.976, 129.064 142.500 C 129.595 135.793, 128.939 123, 128.063 123 C 127.547 123, 125.635 126.101, 123.813 129.890 C 121.096 135.541, 119.760 137.161, 116.390 138.890 C 110.593 141.867, 101.178 141.763, 94.500 138.649 C 85.548 134.476, 85.638 134.871, 86.167 102 C 86.207 99.525, 85.905 94.536, 85.496 90.912 C 84.781 84.581, 84.874 84.157, 87.876 80.012 C 89.594 77.640, 91 74.937, 91 74.006 C 91 71.979, 87.361 67.687, 84.316 66.122 C 81.425 64.637, 73.714 64.686, 72.200 66.200 M 137.655 70.829 C 135.597 73.103, 135.531 78.117, 137.483 84 C 138.304 86.475, 139.454 91.041, 140.038 94.148 C 141.799 103.516, 149.072 109.241, 157 107.500 C 160.080 106.824, 160.365 106.305, 160.023 102 C 159.807 99.290, 154.536 87.436, 152.463 85 C 151.760 84.175, 150.659 81.522, 150.015 79.104 C 147.632 70.155, 141.799 66.250, 137.655 70.829 M 47.727 81.913 C 46.330 83.573, 44.870 86.859, 44.482 89.215 C 44.094 91.572, 42.409 96.355, 40.739 99.843 C 36.924 107.809, 36.948 111.409, 40.840 115.302 C 44.192 118.653, 46.755 118.553, 51.412 114.890 C 55.147 111.953, 56.203 108.727, 56.126 100.500 C 56.089 96.650, 56.518 92.077, 57.079 90.337 C 57.887 87.827, 57.725 86.381, 56.295 83.337 C 53.956 78.358, 51.115 77.886, 47.727 81.913" stroke="none" fill="black" fill-rule="evenodd"/>
</svg>