<svg xmlns="http://www.w3.org/2000/svg" width="256" height="256" viewBox="0 0 256 256" version="1.1">
	<path d="M 57.476 31.155 C 55.500 32.890, 52.494 36.378, 50.797 38.905 C 47.873 43.260, 40.237 50.996, 38.860 50.999 C 37.428 51.002, 34 60.258, 34 64.121 L 34 68.263 37.973 67.731 C 42.645 67.104, 43.266 66.528, 48.445 58.035 C 52.992 50.579, 55.500 48.089, 62.669 43.912 C 69.050 40.194, 70.333 38.695, 70.333 34.960 C 70.333 27.918, 63.475 25.888, 57.476 31.155 M 118 28.709 C 115.287 29.707, 112.818 32.432, 110.491 37 C 109.230 39.475, 106.984 42.625, 105.500 44 C 100.009 49.089, 90.401 62.420, 85.411 71.875 C 83.617 75.274, 85.465 78.694, 90.447 81.197 C 92.676 82.317, 95.276 83.915, 96.225 84.749 C 97.554 85.917, 99.284 86.113, 103.771 85.605 C 109.166 84.995, 109.755 85.133, 111.803 87.489 C 113.849 89.842, 113.910 90.280, 112.615 93.380 C 110.834 97.642, 107.370 98.638, 102.258 96.357 C 97.328 94.158, 96.805 94.118, 94.808 95.789 C 93.878 96.567, 90.739 97.496, 87.832 97.852 C 83.318 98.406, 82.414 98.879, 81.634 101.098 C 81.131 102.528, 81.033 105.360, 81.414 107.394 C 82.476 113.052, 85.431 113.703, 94.885 110.362 C 104.022 107.134, 108.830 107.538, 111.837 111.788 C 114.816 115.996, 115.672 130.337, 113.438 138.590 C 112.484 142.115, 111.371 145, 110.966 145 C 110.560 145, 109.479 146.579, 108.563 148.508 C 105.405 155.163, 110.484 160.043, 117.945 157.522 C 123.244 155.732, 125.111 152.394, 126.056 143.022 C 126.826 135.382, 128.230 131.645, 131.603 128.259 C 132.283 127.576, 132.988 127.360, 133.170 127.778 C 133.351 128.196, 136.508 130.668, 140.185 133.273 C 147.297 138.310, 151 142.583, 151 145.749 C 151 148.342, 154.290 151.210, 156.355 150.417 C 157.555 149.957, 158.042 148.394, 158.156 144.643 C 158.387 136.997, 158.073 134.901, 156.036 130.500 C 155.018 128.300, 153.894 125.507, 153.539 124.294 C 153.184 123.081, 151.506 120.921, 149.811 119.494 C 145.719 116.051, 141.766 116.829, 136.714 122.071 C 134.632 124.232, 132.526 126, 132.035 126 C 130.417 126, 127.714 114.727, 128.678 112 C 129.469 109.761, 130.081 109.513, 134.531 109.622 C 137.264 109.689, 142.200 110.466, 145.500 111.349 C 152.647 113.262, 154.507 112.854, 155.821 109.084 C 158.500 101.398, 147.821 95.868, 135 98.302 C 131.134 99.036, 130.098 98.570, 128.250 95.264 C 126.172 91.546, 126.696 89.119, 129.750 88.307 C 133.735 87.248, 133.644 87.261, 137.919 87.125 C 140.986 87.027, 142.530 86.265, 145.028 83.618 C 147.489 81.009, 149.265 80.118, 152.798 79.719 C 158.055 79.127, 160.386 76.795, 159.516 73 C 159.200 71.625, 155.468 67.094, 151.221 62.930 C 139.089 51.036, 131 41.963, 131 40.249 C 131 37.437, 125.920 29.920, 123.362 28.948 C 120.637 27.912, 120.220 27.893, 118 28.709 M 117.736 51.250 C 110.504 61.186, 107.528 65, 107.010 65 C 106.692 65, 105.634 66.350, 104.659 68 C 103.684 69.650, 103.250 71.003, 103.693 71.006 C 104.137 71.009, 111.318 71.221, 119.652 71.477 C 130.923 71.823, 135.065 71.626, 135.827 70.709 C 137.174 69.086, 133.717 58.673, 130.362 54.249 C 128.039 51.186, 123.317 48, 121.101 48 C 120.551 48, 119.037 49.462, 117.736 51.250 M 57.999 64.940 C 56.073 65.959, 53.749 67.627, 52.833 68.646 C 50.491 71.253, 46.051 80.273, 46.639 81.226 C 47.829 83.150, 45.775 86.001, 43.183 86.025 C 41.283 86.043, 38.536 87.897, 33.775 92.375 L 27.051 98.699 29.340 100.850 C 32.275 103.607, 32.583 103.571, 35.806 100.094 C 37.288 98.495, 40.063 96.326, 41.974 95.272 C 45.425 93.370, 45.462 93.371, 47.531 95.440 C 48.676 96.586, 50.422 99.993, 51.410 103.011 C 52.979 107.805, 53.118 110.588, 52.508 125 C 51.767 142.519, 53.254 155.686, 56.540 160.702 C 58.031 162.978, 61.378 163.683, 63.695 162.209 C 65.962 160.769, 66.695 152.442, 66.268 133 C 65.520 99.007, 65.555 95.676, 66.739 87.309 C 67.377 82.804, 68.830 77.293, 69.969 75.061 C 74.575 66.032, 67.401 59.967, 57.999 64.940 M 88.635 121.073 C 86.860 122.468, 86 124.101, 86 126.073 C 86 127.683, 85.562 129, 85.026 129 C 82.022 129, 79.707 140.307, 82.200 142.800 C 84.581 145.181, 89.612 144.166, 94.155 140.387 C 98.090 137.114, 104.054 129.129, 103.964 127.253 C 103.891 125.717, 99.409 121.365, 96.703 120.202 C 92.859 118.550, 91.680 118.677, 88.635 121.073" stroke="none" fill="black" fill-rule="evenodd"/>
</svg>