<svg xmlns="http://www.w3.org/2000/svg" width="256" height="256" viewBox="0 0 256 256" version="1.1">
	<path d="M 47.500 35.508 C 46.950 35.682, 45.251 36.101, 43.725 36.438 C 40.358 37.181, 37 40.350, 37 42.784 C 37 43.766, 38.353 45.368, 40.007 46.345 C 42.548 47.846, 45.127 48.088, 56.660 47.909 C 72.379 47.665, 72.351 47.651, 73.455 56.485 C 74.121 61.817, 73.144 65.506, 70.600 67.258 C 69.995 67.675, 67.250 67.773, 64.500 67.476 C 60.998 67.097, 56.983 67.619, 51.098 69.218 C 39.949 72.246, 39.197 73.298, 38.396 87 C 37.700 98.906, 38.732 104.340, 42.451 108.353 C 44.587 110.657, 45.719 111.008, 51.202 111.064 C 59.427 111.148, 68.467 113.099, 71.107 115.360 C 72.960 116.946, 73.128 117.820, 72.518 122.700 C 71.731 129.003, 68.793 136.509, 65.908 139.591 C 64.832 140.740, 61.759 142.708, 59.081 143.962 C 49.520 148.440, 49.665 156.661, 59.336 158.391 C 63.222 159.087, 73.091 157.062, 75.358 155.104 C 76.380 154.222, 78.284 151.394, 79.590 148.820 C 80.895 146.245, 82.930 143.462, 84.111 142.635 C 86.141 141.213, 86.640 141.457, 93.155 147.065 C 99.256 152.316, 100.545 153, 104.337 153 C 107.300 153, 109.314 152.356, 110.863 150.913 C 112.867 149.046, 114.704 148.769, 128.301 148.283 C 142.026 147.793, 144.179 147.951, 150.500 149.920 L 157.500 152.099 159.850 149.377 C 161.807 147.111, 162.092 145.977, 161.553 142.604 C 161.196 140.375, 160.257 137.836, 159.464 136.961 C 158.672 136.085, 157.750 133.823, 157.416 131.934 C 156.436 126.395, 152.182 115.684, 148.594 109.727 C 146.765 106.688, 144.952 102.919, 144.566 101.351 C 142.759 94.006, 137.960 91.884, 132.635 96.073 C 129.041 98.900, 129.129 103.107, 132.865 107.016 C 134.788 109.029, 135.933 111.497, 136.348 114.524 C 136.688 117.005, 137.676 120.407, 138.543 122.084 C 142.148 129.055, 138.372 133.542, 129.772 132.506 C 126.169 132.072, 124.097 132.420, 121.062 133.968 C 116.592 136.249, 112 136.600, 110.200 134.800 C 108.585 133.185, 108.701 123.712, 110.414 117.276 C 111.179 114.403, 112.120 109.678, 112.505 106.776 C 112.890 103.874, 113.778 100.150, 114.479 98.500 C 119.100 87.614, 124.526 44.098, 122.017 38.041 C 121.113 35.858, 120.086 35, 118.379 35 C 114.686 35, 112.460 38.075, 111.085 45.077 C 110.391 48.609, 109.001 55.550, 107.996 60.500 C 106.991 65.450, 105.645 74.211, 105.006 79.969 C 104.367 85.726, 103.209 91.957, 102.433 93.814 C 101.657 95.671, 100.522 101.311, 99.910 106.345 C 98.512 117.849, 96.885 123.638, 93.578 128.876 C 90.834 133.223, 87.519 134.357, 86.639 131.250 C 85.166 126.047, 84.997 117.073, 86.278 112.113 C 88.078 105.147, 87.511 102.454, 83.932 100.972 C 81.719 100.055, 79.934 100.056, 76.096 100.977 C 72.091 101.938, 70.654 101.910, 68.700 100.835 C 67.365 100.101, 63.400 97.979, 59.887 96.121 C 52.818 92.381, 52.038 91.587, 52.015 88.110 C 51.997 85.259, 54.550 83.084, 58 83.010 C 59.375 82.980, 62.462 82.066, 64.859 80.978 C 70.351 78.486, 73.078 78.489, 77.982 80.991 C 80.128 82.086, 82.580 82.714, 83.431 82.388 C 84.830 81.851, 86.676 76.826, 86.879 73 C 86.923 72.175, 87.252 67.166, 87.610 61.869 C 88.445 49.504, 87.466 41.466, 84.802 38.802 C 83.056 37.056, 81.970 36.857, 77.134 37.396 C 74.023 37.743, 69.933 37.550, 68 36.965 C 64.608 35.939, 49.523 34.867, 47.500 35.508" stroke="none" fill="black" fill-rule="evenodd"/>
</svg>