<svg xmlns="http://www.w3.org/2000/svg" width="256" height="256" viewBox="0 0 256 256" version="1.1">
	<path d="M 107 28.722 C 103.964 29.862, 85.247 49.926, 84.739 52.584 C 84.151 55.663, 85.580 61.622, 87.138 62.585 C 87.723 62.947, 90.519 63.526, 93.351 63.872 C 100.871 64.789, 100.777 67.103, 92.935 74.050 C 86.092 80.113, 81.604 85.417, 80.607 88.620 C 80.055 90.394, 80.447 90.839, 83.011 91.352 C 84.748 91.700, 87.897 91.330, 90.287 90.497 C 92.604 89.690, 95.942 89.023, 97.705 89.015 C 100.551 89.002, 100.980 89.374, 101.536 92.342 C 101.881 94.180, 102.014 96.973, 101.832 98.548 C 101.548 100.999, 100.811 101.626, 96.726 102.889 C 92.515 104.192, 91.394 104.192, 87.226 102.888 C 80.243 100.704, 79 101.269, 79 106.623 C 79 109.085, 79.617 112.314, 80.372 113.800 C 81.220 115.468, 81.438 117.265, 80.942 118.500 C 79.908 121.081, 79.777 126.958, 80.750 127.140 C 81.162 127.217, 83.260 127.379, 85.412 127.499 C 87.564 127.620, 91.250 128.771, 93.603 130.056 C 101.838 134.555, 100.202 142.113, 90.500 144.387 C 81.647 146.462, 75.891 150.694, 77.843 153.692 C 82.505 160.850, 103.973 155.868, 111.002 145.998 C 113.832 142.022, 118.638 141.849, 121.903 145.604 C 125.472 149.708, 137.908 155, 143.984 155 C 150.565 155, 155 152.788, 155 149.505 C 155 146.330, 146.371 140.668, 137.977 138.334 L 132 136.672 132 132.401 C 132 126.763, 133.248 123.731, 138.050 117.699 C 142.785 111.753, 143.649 108.981, 142.006 105.014 C 139.929 100, 138.605 99.508, 127.934 99.782 C 117.525 100.050, 116.385 99.587, 117.408 95.510 C 118.134 92.617, 119.450 92.160, 128.847 91.540 C 136.293 91.048, 141.443 92.298, 144.963 95.454 C 147.619 97.834, 153.692 98.432, 156.504 96.589 C 160.404 94.034, 159.901 91.727, 152.559 78.500 C 145.889 66.485, 141.992 62.864, 138.019 64.990 C 135.914 66.117, 133 71.395, 133 74.082 C 133 77.160, 130.240 78.977, 126.207 78.555 C 124.168 78.341, 120.843 78.129, 118.817 78.083 C 111.815 77.925, 112.974 70.272, 120.353 67.944 C 127.591 65.660, 137.990 57.098, 139.471 52.201 C 140.335 49.342, 137.701 45, 135.101 45 C 134.082 45, 130.608 46.168, 127.380 47.596 C 123.632 49.253, 118.888 50.390, 114.255 50.740 C 107.071 51.283, 107 51.265, 107 48.835 C 107 45.697, 108.386 44.026, 114.250 40.091 C 119.301 36.702, 120.163 34.306, 117.345 31.488 C 114.454 28.597, 110.293 27.484, 107 28.722 M 56.224 31.604 C 54.423 33.023, 51.082 36.956, 48.801 40.342 C 46.520 43.729, 42.736 48.653, 40.393 51.285 C 38.049 53.916, 35.618 57.741, 34.990 59.785 C 34.362 61.828, 33.595 64.175, 33.285 65 C 32.206 67.876, 32.343 70, 33.608 70 C 34.309 70, 35.129 69.600, 35.432 69.111 C 35.734 68.622, 37.195 67.917, 38.680 67.544 C 43.029 66.453, 46.448 63.461, 48.986 58.526 C 51.874 52.912, 54.751 49.941, 62.226 44.854 C 65.375 42.711, 68.413 40.097, 68.976 39.045 C 70.364 36.451, 70.269 31.669, 68.800 30.200 C 66.626 28.026, 59.797 28.788, 56.224 31.604 M 64.147 63.134 C 58.784 65.135, 46.182 78.867, 47.601 81.163 C 48.502 82.622, 46.112 85.711, 43.124 86.949 C 40.084 88.208, 37.368 92.911, 38.291 95.316 C 38.583 96.077, 40.435 96.730, 42.521 96.808 C 47.338 96.989, 48.538 98.094, 50.572 104.217 C 51.872 108.130, 52.143 111.577, 51.767 119.390 C 51.209 130.972, 52.397 151.049, 53.991 156.965 C 54.793 159.944, 55.707 161.139, 57.534 161.598 C 60.992 162.466, 62.623 161.602, 64.698 157.801 C 66.586 154.342, 66.805 143.609, 65.378 124.500 C 65.050 120.100, 64.717 112.881, 64.640 108.457 C 64.505 100.708, 64.626 100.256, 67.939 96.075 L 71.377 91.736 68.614 86.618 C 66.198 82.143, 65.994 81.123, 66.995 78.502 C 67.624 76.853, 68.797 74.777, 69.600 73.890 C 71.465 71.829, 72.984 66.592, 72.121 65.196 C 70.966 63.327, 66.633 62.206, 64.147 63.134 M 109.114 114.879 C 107.510 116.113, 107.105 116.947, 107.880 117.426 C 108.514 117.818, 108.796 118.521, 108.507 118.988 C 107.761 120.196, 110.702 122.887, 113.550 123.602 C 118.836 124.929, 125.718 117.861, 122.386 114.529 C 120.206 112.349, 112.127 112.562, 109.114 114.879" stroke="none" fill="black" fill-rule="evenodd"/>
</svg>