<svg xmlns="http://www.w3.org/2000/svg" width="256" height="256" viewBox="0 0 256 256" version="1.1">
	<path d="M 90.415 27.765 C 88.075 29.349, 87.244 32.298, 88.180 35.689 C 89.367 39.988, 88.532 42.610, 85.717 43.430 C 84.498 43.785, 75.400 44.521, 65.500 45.066 C 43.437 46.281, 41.899 46.514, 39.175 49.051 C 36.544 51.503, 36.497 52.157, 38.755 54.946 C 40.446 57.034, 41.322 57.124, 62.522 57.397 C 77.167 57.586, 85.282 58.080, 86.767 58.875 C 89.291 60.226, 89.683 64.002, 87.947 70.250 C 86.857 74.175, 86.648 74.289, 81 74.039 C 75.143 73.779, 58.757 77.880, 56.253 80.232 C 53.454 82.862, 53.423 84.168, 56.104 86.595 C 57.938 88.256, 60.006 88.524, 72.242 88.689 C 80.298 88.797, 86.717 89.317, 87.310 89.910 C 87.878 90.478, 88.460 93.025, 88.604 95.571 C 88.748 98.116, 89.008 100.300, 89.183 100.423 C 93.959 103.802, 96.078 105, 97.277 105 C 98.085 105, 100.548 106.956, 102.752 109.347 C 108.019 115.061, 109.537 115.554, 112.556 112.535 C 115.325 109.766, 115.521 108.503, 113.761 104.774 C 112.739 102.607, 107.924 98.703, 106 98.481 C 101.987 98.018, 100 96.713, 100 94.540 C 100 93.208, 100.393 91.875, 100.873 91.579 C 101.353 91.282, 106.865 90.831, 113.123 90.577 C 126.958 90.014, 135.934 89.047, 138.182 87.877 C 141.001 86.411, 141.431 83.088, 139.120 80.628 C 137.023 78.395, 136.257 78.259, 109.175 75.291 C 102.186 74.525, 100.993 73.189, 101.031 66.179 C 101.059 61.175, 101.386 60.262, 103.781 58.501 C 106.258 56.679, 108.531 56.457, 129.333 56.001 C 150.461 55.537, 152.272 55.355, 153.583 53.559 C 155.444 51.009, 155.378 50.378, 153 48 C 151.277 46.277, 149.647 45.997, 141.250 45.976 C 135.887 45.963, 129.700 45.498, 127.500 44.942 C 125.300 44.387, 119.295 43.940, 114.155 43.948 C 105.169 43.963, 104.698 43.852, 101.913 41.067 C 99.567 38.721, 99.130 37.599, 99.617 35.167 C 100.710 29.701, 94.699 24.866, 90.415 27.765 M 65.197 109.087 C 61.934 111.486, 61 112.822, 61 115.087 C 61 118.551, 59.475 118.795, 56.323 115.833 C 53.756 113.422, 48.937 112.977, 46.580 114.934 C 45.740 115.631, 44.798 117.843, 44.485 119.850 C 44.173 121.858, 43.204 126.041, 42.332 129.147 C 41.149 133.357, 40.971 136.028, 41.633 139.647 C 42.438 144.055, 42.771 144.500, 45.260 144.500 C 46.767 144.500, 47.962 144.100, 47.915 143.612 C 47.868 143.123, 48.205 142.448, 48.665 142.112 C 51.286 140.192, 53.143 136.734, 53.604 132.915 C 54.316 127.005, 58.034 118.449, 59.136 120.185 C 59.803 121.238, 59.972 121.243, 59.985 120.211 C 59.995 119.335, 60.593 119.495, 61.849 120.711 C 64.131 122.918, 69 133.185, 69 135.789 C 69 142.839, 73.589 147.143, 84.288 150.128 C 95.813 153.344, 122.519 155.863, 125.900 154.053 C 128.725 152.542, 131.005 147.263, 130.985 142.282 C 130.966 137.670, 130.237 136.421, 126.799 135.114 C 124.611 134.282, 123.641 134.493, 121.329 136.301 C 118.784 138.292, 117.479 138.484, 107.509 138.326 C 81.619 137.917, 80.246 137.190, 80.098 123.805 C 80.005 115.259, 78.958 109.859, 76.920 107.403 C 74.930 105.005, 69.731 105.752, 65.197 109.087 M 136.205 112.345 C 134.943 113.045, 133.232 114.927, 132.402 116.527 C 131.069 119.096, 131.064 119.847, 132.362 122.968 C 134.276 127.572, 135.306 130.340, 135.414 131.167 C 135.461 131.533, 135.838 132.171, 136.250 132.583 C 136.662 132.996, 137 134.158, 137 135.167 C 137 136.175, 137.338 137.012, 137.750 137.027 C 138.162 137.041, 140.451 138.841, 142.836 141.027 C 149.314 146.964, 153.013 146.061, 152.985 138.550 C 152.967 133.602, 151.156 129.770, 148.492 129.043 C 146.886 128.605, 146.532 127.724, 146.663 124.500 C 146.882 119.107, 145.303 114.326, 142.701 112.503 C 140.127 110.700, 139.208 110.678, 136.205 112.345" stroke="none" fill="black" fill-rule="evenodd"/>
</svg>