<svg xmlns="http://www.w3.org/2000/svg" width="256" height="256" viewBox="0 0 256 256" version="1.1">
	<path d="M 55.500 28.844 C 51.504 31.291, 45.882 37.631, 42.394 43.625 C 40.833 46.306, 38.800 49.325, 37.876 50.334 C 36.186 52.178, 34 59.219, 34 62.820 C 34 63.884, 34.675 65.315, 35.499 65.999 C 38.262 68.292, 42.393 65.491, 46.121 58.796 C 50.705 50.563, 56.201 44.604, 62.572 40.959 C 65.498 39.285, 68.160 37.072, 68.487 36.042 C 69.579 32.602, 67.984 29.190, 64.759 28.066 C 60.531 26.592, 58.964 26.724, 55.500 28.844 M 103 31 C 101.498 32.502, 101 34.333, 101 38.351 C 101 44.480, 99.497 49.595, 97.466 50.375 C 96.699 50.669, 93.628 50.397, 90.642 49.771 C 84.227 48.425, 81.357 49.714, 78.740 55.117 C 75.985 60.807, 79.032 63, 89.691 63 C 95.627 63, 97.711 64.296, 98.951 68.762 C 101.341 77.368, 98.631 82.202, 91.723 81.658 C 87.650 81.337, 79.486 85.160, 77.585 88.278 C 75.737 91.308, 78.586 92.175, 88.243 91.521 L 96.986 90.929 99.023 94.215 C 101.346 97.961, 101.443 103.892, 99.254 108.340 C 97.874 111.142, 97.774 111.170, 91.678 110.429 C 79.958 109.006, 76.599 110.290, 75.406 116.648 C 74.439 121.805, 76.068 123, 84.067 123 C 89.714 123, 91.330 123.387, 93.454 125.250 L 96.019 127.500 92.865 136 C 91.131 140.675, 89.101 145.388, 88.356 146.473 C 86.678 148.914, 86.583 155.183, 88.200 156.800 C 89.672 158.272, 93.469 158.354, 96.053 156.972 C 97.110 156.406, 99.549 153.593, 101.473 150.722 C 103.397 147.850, 106.209 143.744, 107.721 141.598 C 109.727 138.753, 110.517 136.353, 110.637 132.737 C 110.728 130.009, 111.256 125.915, 111.809 123.638 C 114.499 112.581, 115.082 104.261, 113.956 92.996 C 113.094 84.379, 113.112 80.208, 114.030 75.343 C 114.941 70.514, 114.953 68.302, 114.082 66.197 C 113.312 64.338, 113.094 58.676, 113.423 49.055 C 113.876 35.787, 113.759 34.470, 111.889 31.844 C 109.475 28.454, 105.887 28.113, 103 31 M 124.910 31.609 C 123.410 33.415, 123.337 54.261, 124.714 87 C 125.449 104.474, 125.487 128.669, 124.806 145.587 C 124.512 152.869, 124.615 153.272, 127.370 155.641 C 131.113 158.861, 135.013 158.489, 136.801 154.741 C 137.679 152.902, 138.102 147.874, 138.071 139.665 C 138.010 123.403, 137.819 123.646, 151.160 123 C 161.135 122.517, 161.524 122.411, 162.751 119.842 C 163.629 118.005, 163.728 116.415, 163.073 114.693 C 161.428 110.366, 158.291 109, 150 109 C 140.836 109, 138.457 107.663, 137.495 101.973 C 136.998 99.027, 137.251 97.266, 138.430 95.467 C 139.921 93.190, 140.653 93, 147.912 93 C 154.107 93, 156.269 92.603, 158.089 91.129 C 160.285 89.351, 160.319 89.135, 158.775 86.779 C 157.008 84.083, 151.378 81, 148.221 81 C 145.476 81, 139.605 78.433, 138.042 76.551 C 136.985 75.277, 136.979 74.145, 138.014 70.451 C 139.759 64.217, 141.881 63, 151 63 C 159.949 63, 163 61.456, 163 56.929 C 163 54.678, 162.223 53.481, 159.750 51.923 C 156.981 50.178, 155.464 49.961, 149.500 50.456 C 139.499 51.287, 137.506 49.478, 135.547 37.793 C 134.526 31.705, 127.986 27.902, 124.910 31.609 M 58.389 62.231 C 50.855 66.759, 42.564 76.814, 42.259 81.792 C 42.113 84.158, 39.359 86.947, 35 89.142 C 31.106 91.103, 26 96.207, 26 98.139 C 26 100.001, 29.563 103, 31.773 103 C 32.504 103, 34.542 101.486, 36.301 99.636 C 41.887 93.762, 44.339 94.284, 47.403 102 C 48.897 105.764, 49.234 110.181, 49.460 129 C 49.691 148.225, 50.005 152.218, 51.620 156.429 C 53.886 162.340, 57.484 164.048, 61.247 161 C 63.460 159.208, 63.496 158.833, 63.258 139.838 C 63.126 129.202, 62.514 118.343, 61.899 115.708 C 60.429 109.412, 61.534 100.862, 64.266 97.390 C 67.277 93.561, 67.051 88.707, 63.700 85.209 C 62.215 83.659, 61 81.806, 61 81.092 C 61 80.378, 63.050 77.514, 65.556 74.726 C 71.855 67.721, 72.331 66.630, 70.225 64.030 C 68.107 61.414, 61.436 60.400, 58.389 62.231" stroke="none" fill="black" fill-rule="evenodd"/>
</svg>