<svg xmlns="http://www.w3.org/2000/svg" width="256" height="256" viewBox="0 0 256 256" version="1.1">
	<path d="M 63.365 28.032 C 59.245 28.910, 55.589 31.595, 49.497 38.214 C 39.219 49.381, 36.470 53.193, 34.757 58.659 C 33.798 61.718, 31.637 65.788, 29.955 67.704 C 26.237 71.939, 26.584 73.532, 31.197 73.400 C 34.009 73.319, 35.751 72.251, 40.170 67.900 C 43.186 64.930, 47.108 60.171, 48.884 57.324 C 52.621 51.335, 58.284 46.404, 65.788 42.605 C 71.910 39.505, 73.536 36.848, 72.278 31.994 C 71.289 28.177, 68.499 26.937, 63.365 28.032 M 94.225 29.823 C 90.151 30.401, 88.643 34.199, 89.313 42.195 C 89.663 46.371, 89.439 51.068, 88.771 53.568 C 87.880 56.898, 87.923 58.773, 88.968 62.163 C 89.703 64.549, 90.206 68.343, 90.086 70.595 C 89.917 73.767, 90.466 75.401, 92.523 77.845 C 93.983 79.580, 95.813 81, 96.589 81 C 97.365 81, 98 81.450, 98 82 C 98 82.550, 99.013 83.052, 100.250 83.116 C 102.293 83.221, 102.316 83.278, 100.500 83.732 C 99.400 84.007, 98.275 84.517, 98 84.866 C 97.508 85.490, 92.144 88.189, 84.711 91.551 C 81.291 93.098, 80.969 93.566, 81.409 96.354 C 81.676 98.054, 81.187 101.610, 80.321 104.258 C 78.658 109.342, 78.963 116.046, 80.968 118.461 C 81.599 119.221, 83.976 120.158, 86.249 120.542 C 91.853 121.489, 93.276 123.231, 94.091 130.142 C 95.547 142.486, 106.371 149.760, 110.054 140.869 C 111.202 138.098, 111.126 137.272, 109.431 134.106 C 108.369 132.123, 106.469 130.050, 105.209 129.500 C 103.551 128.776, 102.999 127.810, 103.209 126 C 103.460 123.840, 104.248 123.343, 109 122.346 C 112.025 121.712, 117.264 121.149, 120.643 121.096 C 127.886 120.983, 128.464 121.676, 128.056 130 C 127.741 136.435, 126.224 139.793, 122.036 143.316 C 119.500 145.450, 119 146.597, 119 150.280 C 119 158.218, 125.645 160.797, 132.543 155.535 C 138.265 151.171, 139.601 148.065, 140.783 136.381 C 142.090 123.457, 143.071 122, 150.464 122 C 158.714 122, 161.679 118.148, 157.369 113.027 C 155.213 110.464, 154.108 109.997, 150.161 109.978 C 144.206 109.949, 140.918 107.586, 141.662 103.868 C 142.220 101.077, 145.518 99, 149.392 99 C 154.793 99, 157.017 91.367, 152.482 88.396 C 150.423 87.047, 148.734 86.889, 143.232 87.527 C 134.862 88.498, 110.339 88.079, 107.272 86.913 C 104.598 85.896, 104.222 83.033, 106.750 82.926 C 107.713 82.885, 109.400 82.707, 110.500 82.530 C 116.350 81.589, 138.915 81.054, 139.404 81.844 C 139.713 82.344, 141.886 82.726, 144.233 82.692 C 147.379 82.647, 149.222 81.956, 151.251 80.062 L 154.001 77.493 154.320 56.137 C 154.661 33.337, 154.514 32.559, 149.680 31.546 C 143.474 30.246, 100.625 28.915, 94.225 29.823 M 105.005 42.866 C 101.708 43.820, 101.309 46.506, 104.189 48.368 C 107.747 50.669, 136.303 50.126, 138.717 47.711 C 140.252 46.177, 140.271 45.842, 138.901 44.473 C 137.709 43.280, 134.103 42.858, 122.437 42.545 C 114.222 42.324, 106.377 42.469, 105.005 42.866 M 66.056 62.078 C 63.062 63.141, 60.362 64.395, 60.056 64.866 C 59.750 65.336, 58.047 66.465, 56.271 67.375 C 53.061 69.020, 46 78.711, 46 81.473 C 46 82.261, 44.072 83.759, 41.715 84.802 C 37.018 86.879, 33 90.256, 29.372 95.174 C 27.175 98.151, 27.128 98.484, 28.664 100.182 C 31.330 103.127, 35.598 102.469, 39.567 98.500 C 45.024 93.043, 49.214 94.229, 51.207 101.794 C 51.744 103.832, 52.323 115.483, 52.493 127.685 C 52.673 140.577, 53.275 151.303, 53.930 153.288 C 55.480 157.985, 59.238 161.377, 61.942 160.519 C 66.367 159.114, 66.966 156.495, 66.993 138.450 C 67.008 129.127, 66.689 119.925, 66.285 118 C 65.347 113.524, 65.388 107.804, 66.441 96.273 C 66.982 90.350, 66.926 86.591, 66.286 85.773 C 65.738 85.073, 65.035 83.466, 64.726 82.203 C 64.257 80.290, 65.231 79.066, 70.548 74.888 C 75.653 70.876, 77.069 69.148, 77.608 66.275 C 78.142 63.431, 77.900 62.400, 76.450 61.340 C 74.101 59.622, 72.695 59.722, 66.056 62.078 M 105.056 64.433 C 104.097 65.588, 104.365 66.193, 106.440 67.553 C 109.026 69.247, 112.066 69.223, 124.633 67.409 C 127.174 67.042, 129.026 67.233, 129.442 67.906 C 130.492 69.605, 134.535 69.197, 137.079 67.137 C 139.377 65.276, 139.377 65.272, 137.317 64.170 C 135.174 63.023, 133.244 63.166, 129 64.787 C 127.270 65.448, 125.114 65.323, 122 64.382 C 115.944 62.551, 106.594 62.580, 105.056 64.433 M 89 102.376 C 89 107.709, 90.757 108.203, 108.066 107.734 C 116.282 107.511, 123.263 107.070, 123.580 106.753 C 123.897 106.436, 123.464 104.900, 122.618 103.338 C 121.772 101.777, 121.055 101.175, 121.025 102 C 120.987 103.019, 120.734 103.132, 120.235 102.353 C 119.825 101.714, 115.520 100.939, 110.500 100.600 C 105.550 100.267, 98.688 99.730, 95.250 99.408 L 89 98.822 89 102.376" stroke="none" fill="black" fill-rule="evenodd"/>
</svg>