<svg xmlns="http://www.w3.org/2000/svg" width="256" height="256" viewBox="0 0 256 256" version="1.1">
	<path d="M 58.500 30.167 C 55.088 32.054, 51.935 35.299, 48.461 40.500 C 46.624 43.250, 43.259 47.300, 40.985 49.500 C 36.864 53.486, 34 58.628, 34 62.041 C 34 64.058, 31.030 70.120, 29.508 71.208 C 27.488 72.652, 30.757 74.432, 33.301 73.273 C 37.449 71.383, 47.920 62.056, 49.636 58.724 C 52.514 53.133, 58.165 46.985, 62.915 44.276 C 70.035 40.216, 71 39.094, 71 34.880 C 71 32.137, 70.458 30.781, 69.066 30.035 C 66.555 28.691, 61.043 28.760, 58.500 30.167 M 96.039 33.189 C 94.918 34.392, 94 35.989, 94 36.737 C 94 37.484, 92.533 40.437, 90.741 43.298 C 88.948 46.159, 86.824 49.850, 86.021 51.500 C 85.218 53.150, 83.310 56.381, 81.781 58.680 C 80.251 60.979, 79 63.362, 79 63.976 C 79 64.765, 76.144 64.902, 69.250 64.444 L 59.500 63.797 55.250 67.476 C 52.912 69.500, 51 71.601, 51 72.145 C 51 72.688, 49.859 74.630, 48.464 76.458 C 47.069 78.287, 45.997 80.170, 46.082 80.642 C 46.594 83.482, 45.714 85.031, 43.250 85.630 C 40.393 86.323, 34.811 90.202, 29.300 95.322 C 26.307 98.103, 26.189 98.462, 27.474 100.897 C 28.230 102.329, 29.506 104.380, 30.311 105.456 C 31.752 107.382, 31.829 107.375, 35.348 104.964 C 37.314 103.617, 39.484 101.464, 40.171 100.180 C 41.748 97.233, 44.103 95.953, 46.697 96.631 C 49.896 97.468, 51.048 105.404, 51.410 129.116 C 51.745 151.057, 52.897 159.380, 55.923 161.718 C 58.333 163.580, 62.771 163.229, 65 161 C 67.344 158.656, 67.454 154.815, 65.913 129 C 64.729 109.164, 64.734 101.138, 65.934 95.798 C 66.584 92.903, 66.441 90.666, 65.418 87.767 C 63.143 81.319, 63.489 80.502, 70.321 76.187 C 73.798 73.991, 77.408 71.026, 78.344 69.598 C 79.280 68.169, 80.941 67, 82.034 67 C 85.006 67, 92.633 70.855, 96.137 74.128 C 98.747 76.566, 99.132 77.515, 98.621 80.256 C 96.574 91.251, 96.700 94.474, 99.380 99.762 C 100.821 102.607, 102 106.108, 102 107.544 C 102 113.149, 92.065 118.930, 90.563 114.199 C 90.249 113.208, 88.218 110.666, 86.051 108.549 L 82.110 104.702 80.360 108.370 C 78.646 111.965, 78.654 112.069, 80.756 113.542 C 84.622 116.250, 86 118.105, 86 120.604 C 86 122.221, 86.771 123.374, 88.250 123.969 C 89.487 124.466, 89.938 124.902, 89.250 124.937 C 86.541 125.074, 91.673 128.550, 94.953 128.800 C 96.831 128.943, 98.985 129.573, 99.741 130.200 C 102.145 132.195, 104.154 138.312, 103.521 141.712 C 102.900 145.051, 103.216 144.895, 94 146.410 C 89.653 147.125, 88.220 148.062, 86.711 151.178 C 84.884 154.950, 85.488 157.450, 88.873 160.122 C 92.578 163.046, 98.650 162.238, 103.837 158.129 C 106.010 156.408, 108.173 154.997, 108.644 154.993 C 109.115 154.989, 111.300 153.211, 113.500 151.042 C 116.330 148.252, 118.378 147.088, 120.500 147.064 C 124.362 147.019, 131.610 149.548, 134.791 152.050 C 137.668 154.313, 146.057 157, 150.247 157 C 153.311 157, 157.018 155.422, 158.235 153.600 C 158.639 152.995, 158.976 151.048, 158.985 149.273 C 159.004 145.211, 156.878 143.802, 147.291 141.520 C 143.327 140.577, 139.621 139.248, 139.057 138.568 C 137.641 136.862, 142.102 128.100, 146.622 123.710 C 149.493 120.922, 149.998 119.840, 149.449 117.655 C 148.461 113.717, 143.540 110.014, 139.173 109.923 C 137.153 109.881, 134.825 109.680, 134 109.476 C 133.175 109.272, 131.150 108.839, 129.500 108.513 C 119.240 106.489, 121.787 105, 135.508 105 L 146.898 105 149.616 101.437 C 152.239 97.998, 152.337 97.417, 152.440 84.687 C 152.611 63.445, 151.744 61.970, 137.928 59.990 C 129.382 58.765, 126.291 57.540, 129.187 56.526 C 129.909 56.273, 135.537 55.895, 141.694 55.685 C 154.634 55.244, 158 53.874, 158 49.050 C 158 44.451, 153.723 41.661, 148.015 42.535 C 141.239 43.572, 113.449 43.121, 110.295 41.922 C 106.865 40.618, 106.035 39.344, 106.015 35.357 C 105.992 30.541, 99.766 29.188, 96.039 33.189 M 101 56.469 L 98.500 57.867 102 59.284 C 104.816 60.425, 107.314 60.507, 114.785 59.705 C 124.827 58.626, 126.566 56.994, 118.919 55.824 C 111.583 54.702, 103.649 54.988, 101 56.469 M 112.848 75.152 C 110.745 77.255, 110.740 77.337, 112.598 78.724 C 113.818 79.634, 115.755 79.942, 118 79.582 C 119.925 79.274, 124.425 79.010, 128 78.996 C 135.660 78.965, 138.031 77.915, 136.399 75.278 C 135.260 73.439, 129 72.173, 129 73.782 C 129 74.833, 124.445 74.778, 123.381 73.715 C 121.763 72.096, 114.978 73.022, 112.848 75.152 M 113 90.500 C 113 92.039, 115.611 92.470, 118.412 91.395 C 120.796 90.481, 119.268 89, 115.941 89 C 113.993 89, 113 89.507, 113 90.500 M 129.667 89.667 C 129.300 90.033, 129 91.128, 129 92.099 C 129 94.177, 132.191 95.420, 135.436 94.605 C 137.253 94.149, 137.629 93.508, 137.248 91.515 C 136.853 89.449, 136.192 89, 133.550 89 C 131.781 89, 130.033 89.300, 129.667 89.667 M 114 123.421 C 114 125.297, 114.674 125.989, 117 126.500 C 120.375 127.241, 125.669 126.345, 126.575 124.879 C 127.904 122.728, 124.699 121, 119.378 121 C 114.355 121, 114 121.160, 114 123.421 M 86 130.500 C 86 131.325, 86.402 132, 86.893 132 C 87.384 132, 88.045 131.325, 88.362 130.500 C 88.712 129.586, 88.363 129, 87.469 129 C 86.661 129, 86 129.675, 86 130.500" stroke="none" fill="black" fill-rule="evenodd"/>
</svg>