<svg xmlns="http://www.w3.org/2000/svg" width="256" height="256" viewBox="0 0 256 256" version="1.1">
	<path d="M 71.388 25.980 C 70.227 26.449, 68.370 27.985, 67.263 29.393 C 65.553 31.567, 65.379 32.645, 66.107 36.543 C 66.579 39.068, 67.201 41.516, 67.489 41.983 C 67.778 42.450, 67.593 43.940, 67.079 45.293 C 66.083 47.911, 61.603 50, 56.986 50 C 53.062 50, 49 53.535, 49 56.950 C 49 61.453, 50.951 62.294, 59.730 61.576 C 65.189 61.129, 69.080 61.373, 72.813 62.396 C 76.746 63.474, 78.893 63.585, 81.080 62.822 C 83.362 62.027, 84.556 62.134, 86.325 63.293 C 89.304 65.245, 91.300 73.248, 89.689 76.784 C 88.638 79.090, 88.268 79.185, 83.038 78.496 C 74.955 77.432, 74.584 77.506, 65.071 82.076 C 55.237 86.799, 52.565 89.755, 51.085 97.542 C 50.567 100.269, 49.661 103.767, 49.072 105.315 C 47.614 109.143, 47.719 115.522, 49.261 116.802 C 49.955 117.378, 54.999 118.052, 60.470 118.300 C 66.572 118.576, 70.562 119.185, 70.792 119.875 C 70.998 120.494, 71.696 121, 72.343 121 C 74.153 121, 76.168 124.894, 75.480 127.063 C 75.142 128.128, 74.333 129.008, 73.683 129.017 C 73.032 129.026, 70.783 130.777, 68.684 132.907 C 66.585 135.037, 61.767 138.967, 57.977 141.640 C 47.645 148.928, 48.983 152.837, 62.132 153.777 L 68.813 154.255 73.656 149.714 C 80.727 143.084, 85.276 135.090, 85.163 129.492 C 85.083 125.491, 85.315 125.002, 87.286 125.015 C 88.764 125.026, 89.084 125.294, 88.251 125.824 C 87.324 126.412, 87.712 127.473, 89.751 129.935 C 93.002 133.858, 94.618 138.854, 95.559 147.888 C 95.937 151.524, 96.671 155.313, 97.189 156.306 C 98.633 159.075, 102.116 159.970, 104.745 158.248 C 106.811 156.894, 107 156.009, 107 147.701 C 107 142.384, 106.330 136.243, 105.381 132.860 C 103.284 125.388, 104.048 122.519, 108.766 120.148 C 118.449 115.282, 131.706 114.929, 135.930 119.426 C 137.996 121.625, 138.036 121.999, 136.739 127.117 C 135.472 132.118, 134.992 132.712, 129.938 135.533 C 117.810 142.304, 120.584 152.274, 134.643 152.440 C 138.313 152.483, 140.374 151.968, 141.840 150.643 C 144.238 148.475, 149.997 136.958, 150.006 134.313 C 150.010 133.316, 150.637 131.303, 151.401 129.839 C 152.534 127.667, 153.678 114.132, 153.130 109.371 C 152.817 106.654, 146.799 105.798, 126.970 105.650 C 108.763 105.514, 106.711 105.326, 105.509 103.681 C 104.241 101.948, 104.869 96.798, 106.552 95.114 C 107.202 94.464, 135.195 94.324, 140.796 94.943 C 142.610 95.143, 144.528 94.872, 145.060 94.340 C 146.975 92.425, 148.943 79.853, 147.998 75.574 C 147.503 73.333, 146.662 66.851, 146.130 61.170 C 145.373 53.085, 144.764 50.537, 143.331 49.451 C 141.199 47.836, 134.686 47.562, 132.041 48.978 C 130.663 49.715, 129.544 49.429, 127.492 47.815 C 124.838 45.728, 124.786 45.484, 125.397 38.087 C 126.065 29.997, 125.770 28.968, 122.250 27.115 C 117.731 24.735, 113 29.786, 113 36.990 C 113 42.862, 109.328 48.550, 104.745 49.778 C 97.333 51.765, 80.305 48.906, 79.848 45.598 C 79.765 44.994, 79.653 41.275, 79.598 37.334 C 79.514 31.205, 79.149 29.795, 77.076 27.584 C 74.417 24.750, 74.426 24.753, 71.388 25.980 M 119 63.702 C 108.179 64.141, 107.451 64.437, 105.066 69.364 C 101.117 77.520, 106.183 82.379, 116.309 80.149 C 121.070 79.100, 124.675 79.226, 129.233 80.601 C 131.409 81.258, 136 76.838, 136 74.087 C 136 69.367, 130.307 62.321, 127.203 63.199 C 126.816 63.308, 123.125 63.534, 119 63.702 M 75.551 92.933 C 67.859 93.482, 67.540 93.606, 65.692 96.779 C 64.051 99.596, 63.956 100.479, 65.017 103.042 C 66.467 106.541, 69.303 107.504, 75.609 106.640 C 78.066 106.303, 82.049 106.556, 84.460 107.201 C 91.168 108.995, 91.918 107.826, 91.122 96.821 C 90.942 94.340, 88.165 91.974, 85.679 92.183 C 84.480 92.284, 79.923 92.622, 75.551 92.933" stroke="none" fill="black" fill-rule="evenodd"/>
</svg>