<svg xmlns="http://www.w3.org/2000/svg" width="256" height="256" viewBox="0 0 256 256" version="1.1">
	<path d="M 93.263 28.636 C 91.744 30.596, 89.817 33.087, 88.983 34.172 C 86.471 37.436, 74.190 39.374, 65.282 37.912 C 56.611 36.490, 51.526 37.157, 48.357 40.135 C 43.266 44.917, 46.346 47.331, 58.428 48.023 C 70.023 48.688, 73.541 50.759, 74.554 57.515 C 75.511 63.893, 74.605 66.047, 69.304 70 C 66.722 71.925, 62.887 75.362, 60.782 77.637 C 58.677 79.912, 54.784 82.707, 52.132 83.848 C 44.416 87.167, 44.511 86.865, 44.415 108.404 C 44.336 126.292, 44.155 128.069, 41.566 136.500 C 40.046 141.450, 38.734 147.075, 38.651 149 C 38.510 152.274, 38.716 152.521, 41.844 152.820 C 46.904 153.305, 49.834 150.050, 53.502 139.870 C 58.346 126.424, 58.682 124.554, 58.424 112.431 C 58.285 105.869, 58.559 99.511, 59.034 98.302 C 60.500 94.568, 65.424 92.730, 71.866 93.513 C 74.965 93.889, 82.675 94.275, 89 94.371 C 100.087 94.539, 103 95.091, 103 97.024 C 103 98.679, 99.504 99.836, 90.963 101.005 C 86.313 101.642, 81.945 102.631, 81.255 103.204 C 79.462 104.691, 79.706 108.435, 81.750 110.823 C 84.835 114.427, 89.476 114.886, 100.500 112.676 C 106 111.574, 110.650 110.296, 110.833 109.836 C 111.017 109.376, 111.594 109, 112.117 109 C 112.640 109, 114.387 107.650, 116 106 C 117.613 104.350, 119.917 103, 121.120 103 C 122.394 103, 124.867 101.311, 127.041 98.956 L 130.775 94.911 141.851 95.206 C 154.658 95.546, 156.735 94.623, 155.527 89.124 C 154.520 84.536, 150.299 82.044, 142.299 81.313 C 136.244 80.760, 135.145 80.318, 132.250 77.275 C 130.463 75.395, 129 73.426, 129 72.898 C 129 72.370, 127.200 70.283, 125 68.260 C 120.952 64.538, 120.154 61.755, 121.594 56.389 C 122.496 53.029, 129.338 49.854, 137.695 48.916 C 147.265 47.843, 148.758 47.337, 149.530 44.906 C 149.988 43.463, 149.390 42.308, 147.356 40.708 C 144.767 38.671, 143.388 38.489, 129.523 38.355 C 111.468 38.182, 106.724 37.162, 105.038 33.092 C 103.732 29.938, 100.504 26.652, 97.763 25.686 C 96.543 25.255, 95.206 26.131, 93.263 28.636 M 88.250 51.616 C 85.719 52.731, 87.069 54.924, 90.750 55.675 C 99.379 57.438, 111.828 55.430, 109.115 52.713 C 107.873 51.470, 90.639 50.564, 88.250 51.616 M 95.500 72.355 C 84.961 76.582, 82.153 78.740, 84.947 80.467 C 87.042 81.762, 106.874 83.129, 111.297 82.284 C 112.574 82.039, 114.164 80.967, 114.830 79.900 C 116.475 77.267, 113.419 73.998, 107.718 72.292 C 102.585 70.757, 99.446 70.773, 95.500 72.355 M 121.295 108.654 C 119.629 109.461, 117.771 111.206, 117.167 112.533 C 116.563 113.859, 115.040 115.148, 113.784 115.397 C 112.528 115.646, 108.350 116.559, 104.500 117.427 C 100.650 118.295, 96.500 119.004, 95.279 119.003 C 91.533 118.998, 82.253 123.627, 81.547 125.851 C 81.182 127.001, 81.582 129.225, 82.459 130.920 C 85.259 136.335, 89.665 137.302, 96.500 134 C 98.700 132.937, 101.625 132.050, 103 132.028 C 107.397 131.959, 112.848 129.998, 115.986 127.359 C 117.662 125.948, 121.136 124.161, 123.706 123.388 C 130.971 121.201, 133 119.490, 133 115.545 C 133 112.955, 132.340 111.679, 130.250 110.231 C 126.047 107.319, 124.584 107.061, 121.295 108.654 M 135.063 125.725 C 134.272 126.036, 132.545 127.576, 131.224 129.146 C 129.903 130.716, 128.187 132, 127.411 132 C 126.635 132, 126 132.420, 126 132.933 C 126 133.446, 125.153 134.134, 124.119 134.462 C 123.084 134.791, 121.255 135.911, 120.055 136.953 C 118.854 137.994, 116.101 139.145, 113.936 139.511 C 111.771 139.877, 110 140.524, 110 140.949 C 110 142.481, 98.713 146, 93.797 146 C 86.828 146, 77.813 150.814, 78.800 154.009 C 79.765 157.132, 82.406 158.943, 87.558 160.012 C 92.441 161.026, 93.748 160.855, 103.025 157.992 C 108.599 156.272, 116.237 153.320, 119.998 151.433 C 123.760 149.545, 127.297 148, 127.858 148 C 128.419 148, 131.043 146.177, 133.689 143.949 C 144.001 135.265, 146.195 132.951, 145.596 131.388 C 145.268 130.535, 145 129.270, 145 128.579 C 145 126.141, 138.639 124.314, 135.063 125.725 M 102 175.500 C 100.933 176.786, 101.267 177, 104.346 177 C 107.127 177, 107.807 176.662, 107.362 175.500 C 107.045 174.675, 105.989 174, 105.015 174 C 104.042 174, 102.685 174.675, 102 175.500" stroke="none" fill="black" fill-rule="evenodd"/>
</svg>