<svg xmlns="http://www.w3.org/2000/svg" width="256" height="256" viewBox="0 0 256 256" version="1.1">
	<path d="M 58.157 31.693 C 56.318 32.599, 53.618 34.939, 52.157 36.893 C 50.696 38.846, 46.455 43.593, 42.734 47.439 C 39.013 51.286, 35.079 56.272, 33.991 58.518 C 31.642 63.371, 29.819 72.168, 30.927 73.305 C 33.580 76.031, 42.137 69.176, 47.193 60.277 C 50.542 54.383, 59.028 46.164, 64.395 43.617 C 68.394 41.719, 70 39.397, 70 35.515 C 70 33.474, 69.237 32.579, 66.532 31.449 C 62.270 29.668, 62.266 29.668, 58.157 31.693 M 104.259 31.779 C 101.348 32.244, 99.006 35.656, 98.978 39.473 C 98.948 43.600, 95.829 50.152, 91.981 54.171 C 90.228 56.002, 87.934 59.182, 86.883 61.238 C 84.366 66.160, 83.476 75.698, 85.226 79 C 87.451 83.201, 90.198 82.648, 96.927 76.644 C 102.557 71.620, 103.523 71.138, 108.778 70.728 C 111.925 70.482, 115.513 69.940, 116.750 69.524 C 118.951 68.783, 119 68.931, 119 76.261 C 119 80.535, 118.379 85.242, 117.555 87.215 C 116.617 89.459, 115.926 95.958, 115.587 105.719 C 115.048 121.251, 113.957 126, 110.931 126 C 109.970 126, 106.650 123.937, 103.555 121.415 L 97.926 116.830 98.442 111.394 C 98.870 106.877, 98.623 105.623, 96.979 103.979 C 93.508 100.508, 86.221 102.025, 84.110 106.657 C 82.795 109.545, 82.652 113, 83.848 113 C 84.315 113, 85.461 114.695, 86.395 116.766 C 87.974 120.268, 87.978 120.807, 86.461 124.440 C 85.563 126.589, 83.729 129.212, 82.386 130.268 C 77.707 133.949, 73.521 145.356, 74.695 151.227 C 76.075 158.125, 82.834 156.097, 87.500 147.385 C 89.150 144.304, 91.573 140.932, 92.885 139.892 C 97.564 136.180, 104.441 138.115, 112.249 145.340 C 119.537 152.085, 123.127 153.903, 135.147 156.936 C 145.577 159.568, 155.595 158.554, 158.235 154.600 C 158.639 153.995, 158.976 151.864, 158.985 149.865 C 159.009 144.113, 156.187 142.867, 143.720 143.128 C 131.669 143.380, 129.597 142.856, 128.069 139.167 C 126.673 135.796, 127.460 119.279, 129.199 115.462 C 130.187 113.295, 130.835 112.959, 132.947 113.517 C 134.351 113.887, 137.629 114.416, 140.232 114.691 C 144.489 115.140, 145.266 114.888, 147.982 112.172 C 149.642 110.512, 151 108.319, 151 107.299 C 151 104.635, 148.351 101.233, 144.878 99.437 C 141.914 97.904, 141.830 97.934, 138.038 101.841 C 135.927 104.017, 133.899 106.743, 133.532 107.899 C 133.165 109.054, 132.419 110, 131.874 110 C 131.328 110, 131.131 109.597, 131.435 109.105 C 131.740 108.612, 131.332 107.958, 130.529 107.650 C 129.333 107.191, 129.131 104.871, 129.410 94.795 C 129.597 88.033, 130.245 81.263, 130.850 79.750 C 132.167 76.458, 137.456 73.009, 141.196 73.004 C 143.791 73, 155.269 79.008, 156.513 81.021 C 156.846 81.559, 158.195 82, 159.512 82 C 161.422 82, 162.113 81.252, 162.929 78.296 C 163.827 75.044, 163.628 74.039, 161.299 70.046 C 158.232 64.788, 157.187 63.837, 150.786 60.477 C 148.193 59.116, 145.606 57.132, 145.036 56.067 C 144.466 55.003, 143.994 50.614, 143.986 46.316 C 143.969 36.309, 143.347 34.125, 140.296 33.359 C 136.494 32.405, 134.999 34.812, 132.983 45.129 C 131.241 54.048, 130.944 54.681, 126.826 58.247 C 124.447 60.308, 121.700 61.996, 120.723 61.997 C 119.745 61.999, 116.940 59.862, 114.490 57.250 C 109.675 52.117, 108.872 48.420, 110.978 41.078 C 112.771 34.824, 109.920 30.877, 104.259 31.779 M 58.500 65.162 C 55.771 66.665, 50 72.185, 50 73.292 C 50 73.787, 49.090 75.469, 47.978 77.030 C 46.866 78.592, 46.020 80.237, 46.097 80.685 C 46.592 83.568, 45.736 85.949, 44.006 86.498 C 42.909 86.846, 41.346 87.797, 40.532 88.611 C 39.718 89.425, 36.456 91.550, 33.282 93.335 C 30.109 95.119, 27.358 97.380, 27.169 98.359 C 26.737 100.606, 31.551 108, 33.446 108 C 34.226 108, 35.892 106.537, 37.149 104.750 C 38.406 102.963, 40.011 100.905, 40.717 100.179 C 41.423 99.452, 42 98.439, 42 97.929 C 42 96.159, 45.102 97.011, 47.542 99.451 C 50.736 102.645, 52.249 112.346, 52.075 128.500 C 51.896 145.137, 53.571 158.638, 56.325 162.743 C 58.792 166.422, 61.828 166.953, 64.366 164.148 C 66.424 161.875, 66.577 156.897, 65.576 125 C 65.170 112.075, 64.875 100.825, 64.920 100 C 64.966 99.175, 65.115 94.225, 65.251 89 C 65.466 80.787, 65.828 79.041, 67.917 76.112 C 70.820 72.041, 71.069 67.255, 68.476 65.358 C 66.253 63.733, 61.273 63.635, 58.500 65.162" stroke="none" fill="black" fill-rule="evenodd"/>
</svg>