<svg xmlns="http://www.w3.org/2000/svg" width="256" height="256" viewBox="0 0 256 256" version="1.1">
	<path d="M 63.869 31.123 C 62.032 31.796, 60.703 33.490, 59.463 36.735 C 58.487 39.291, 56.048 43.209, 54.042 45.441 C 44.035 56.581, 38.619 66.948, 39.196 73.854 C 39.608 78.780, 41.724 78.908, 46.260 74.280 C 48.298 72.201, 52.919 67.474, 56.529 63.776 C 63.782 56.347, 69.100 53.813, 73.364 55.756 C 77.029 57.426, 77.286 60.602, 74.056 64.305 C 72.524 66.062, 70.931 68.625, 70.517 70 C 69.494 73.401, 63.890 80.819, 61.812 81.523 C 60.883 81.838, 58.720 83.694, 57.006 85.646 C 53.562 89.568, 53.162 94.461, 56.132 96.319 C 58.997 98.112, 63.251 95.330, 74.680 84.187 C 86.250 72.907, 91 67.273, 91 64.830 C 91 60.531, 102.142 56.057, 104.818 59.281 C 105.808 60.473, 105.371 62.150, 102.520 68.098 C 100.584 72.138, 99 76.004, 99 76.689 C 99 77.373, 96.028 81.211, 92.395 85.217 C 84.018 94.454, 82.694 96.459, 83.433 98.788 C 84.178 101.136, 90.414 103.180, 93.350 102.039 C 99.451 99.667, 111 85.752, 111 80.773 C 111 80.062, 112.029 78.359, 113.286 76.990 C 117.618 72.273, 119 69.544, 119 65.712 C 119 60.464, 120.405 58.258, 124.463 57.138 C 127.896 56.190, 134.492 57.064, 136.043 58.672 C 136.482 59.128, 136.491 65.269, 136.063 72.320 C 135.150 87.368, 133.871 90.132, 127.395 91.055 C 119.750 92.144, 115.576 96.721, 118.262 101.070 C 119.743 103.468, 120.959 103.754, 132.085 104.321 C 143.630 104.909, 145.241 103.673, 146.534 93.237 C 146.857 90.632, 147.770 86.179, 148.562 83.342 C 149.412 80.299, 149.982 73.944, 149.953 67.842 C 149.926 62.154, 149.944 55.810, 149.993 53.745 C 150.057 51.022, 149.413 49.322, 147.645 47.554 C 145.433 45.342, 144.300 45.096, 135.354 44.883 C 129.934 44.755, 122.350 44.710, 118.500 44.784 C 93.199 45.273, 77.155 45.030, 74.792 44.122 C 72.232 43.138, 72.116 42.815, 72.665 38.183 C 73.180 33.833, 72.983 33.101, 70.900 31.642 C 68.270 29.801, 67.608 29.752, 63.869 31.123 M 65 108.119 C 60.652 110.742, 61.012 110.380, 60.534 112.615 C 58.704 121.169, 58.705 121, 60.465 121 C 62.511 121, 65.920 124.820, 65.967 127.167 C 65.985 128.083, 66.487 128.996, 67.083 129.194 C 67.679 129.393, 68.467 132.902, 68.833 136.991 C 69.464 144.027, 69.683 144.550, 72.898 146.713 C 74.767 147.971, 77.259 149, 78.436 149 C 79.614 149, 82.360 149.933, 84.539 151.072 C 87.015 152.368, 91.874 153.489, 97.500 154.062 C 102.450 154.567, 108.643 155.268, 111.262 155.621 C 116.785 156.365, 124.413 153.964, 126.011 150.979 C 127.437 148.315, 127.228 143.790, 125.487 139.622 C 123.750 135.467, 121.665 135.027, 118.370 138.122 C 116.408 139.966, 115.482 140.138, 111.306 139.434 C 108.663 138.989, 105.600 138.752, 104.500 138.908 C 99.952 139.553, 96.179 139.189, 90.500 137.557 C 82.768 135.335, 79.944 132.760, 80.090 128.066 C 80.355 119.571, 78.800 108.574, 77.156 107.324 C 74.622 105.396, 68.893 105.771, 65 108.119 M 136.223 114.557 C 132.960 116.842, 133.473 119.495, 138.438 126.023 C 140.879 129.233, 143.629 133.353, 144.550 135.179 C 146.870 139.782, 152.021 145, 154.244 145 C 156.620 145, 159.201 139.245, 157.909 136.830 C 157.409 135.896, 157 134.196, 157 133.052 C 157 131.909, 156.623 130.191, 156.162 129.236 C 155.701 128.281, 154.059 124.889, 152.512 121.698 C 148.577 113.579, 141.837 110.624, 136.223 114.557 M 45.077 118.540 C 40.594 125.608, 35.168 149.750, 37.709 151.320 C 39.162 152.218, 46.512 148.436, 48.687 145.671 C 50.120 143.849, 50.921 140.829, 51.414 135.388 C 52.141 127.359, 53.842 122.748, 56.654 121.173 C 58.941 119.894, 57.783 117.537, 53.920 115.610 C 49.168 113.239, 48.244 113.545, 45.077 118.540 M 102.250 115.220 C 101.013 115.817, 99.944 116.687, 99.875 117.153 C 99.341 120.771, 99.059 120.116, 103.574 125.750 C 108.014 131.292, 113 129.693, 113 122.729 C 113 118.732, 112.016 117.149, 108.295 115.158 C 105.737 113.789, 105.208 113.794, 102.250 115.220" stroke="none" fill="black" fill-rule="evenodd"/>
</svg>