<svg xmlns="http://www.w3.org/2000/svg" width="256" height="256" viewBox="0 0 256 256" version="1.1">
	<path d="M 90.525 33.405 C 88.141 35.225, 87.200 39.234, 87.969 44.297 C 88.370 46.936, 88.500 51.211, 88.260 53.797 C 88 56.591, 88.593 61.442, 89.720 65.748 C 91.208 71.429, 91.457 74.505, 90.872 79.981 C 89.920 88.893, 88.522 91.697, 83.159 95.457 C 79.357 98.122, 78.053 98.479, 72.659 98.329 C 69.271 98.235, 65.150 97.450, 63.500 96.585 C 61.850 95.720, 59.473 95.010, 58.218 95.006 C 56.963 95.003, 54.346 94.336, 52.404 93.524 C 49.320 92.236, 48.929 91.687, 49.322 89.196 C 50.654 80.743, 54.747 78, 66.027 78 C 70.259 78, 73.091 77.536, 73.662 76.750 C 74.160 76.063, 75.611 71.283, 76.886 66.128 C 79.203 56.762, 79.203 56.752, 77.395 48.128 C 74.678 35.171, 74.562 35.099, 56.345 35.104 C 44.397 35.107, 40.836 35.439, 38.098 36.804 C 33.657 39.018, 32.490 42.151, 34.969 45.201 C 36.725 47.362, 37.539 47.500, 48.543 47.500 C 62.037 47.500, 62.602 47.846, 63.658 56.757 C 64.201 61.343, 64.033 61.933, 61.754 63.426 C 60.379 64.326, 56.756 65.470, 53.703 65.967 C 46.462 67.145, 42.977 69.031, 39.422 73.691 C 36.658 77.313, 36.506 78.039, 36.322 88.500 C 36.102 101.041, 37.030 105.092, 40.804 108.060 C 43.234 109.972, 44.254 110.093, 52.676 109.461 L 61.890 108.770 63.941 112.135 C 66.629 116.543, 66.534 119.459, 63.369 129.836 C 60.435 139.456, 56.162 145, 51.682 145 C 47.446 145, 46 146.036, 46 149.072 C 46 152.565, 47.189 153.233, 57.381 155.467 C 65.013 157.140, 65.345 157.135, 67.881 155.295 C 74.944 150.173, 79.860 126.996, 76.639 114.005 C 75.765 110.480, 76.668 108.372, 80.101 105.928 C 83.604 103.434, 87.359 103.933, 89.065 107.121 C 90.816 110.393, 91.378 133.279, 89.952 143.281 C 88.775 151.545, 88.813 152.146, 90.601 153.499 C 93.220 155.481, 95.898 155.346, 100.500 153 C 102.658 151.900, 105.537 151, 106.900 151 C 110.050 151, 115.563 147.254, 116.976 144.153 C 119.266 139.127, 116.244 136.561, 108.375 136.853 C 102.796 137.061, 101.529 135.392, 102.607 129.259 C 103.728 122.880, 103.751 121.176, 102.772 116.635 C 101.191 109.304, 104.147 106.155, 110.901 107.973 C 115.201 109.131, 116.214 110.657, 115.408 114.761 C 114.552 119.123, 117.369 124.132, 123.992 130.026 C 127.376 133.037, 132.450 138.374, 135.268 141.887 C 143.153 151.718, 153.877 157.742, 158.803 155.105 C 160.425 154.237, 160.778 153.230, 160.502 150.258 C 160.133 146.284, 156.116 142.016, 149.253 138.305 C 144.255 135.601, 143.846 131.212, 148.154 126.490 C 153.284 120.867, 153.377 120.405, 149.883 117.917 C 146.571 115.558, 141.459 115.149, 138.056 116.970 C 134.846 118.688, 131.316 118.137, 128.077 115.411 C 124.349 112.275, 124.156 109.599, 127.498 107.409 C 129.690 105.973, 130.799 105.924, 136.568 107.013 C 143.844 108.386, 150.478 107.839, 155.017 105.491 C 157.470 104.222, 158 103.324, 158 100.429 C 158 98.025, 157.222 96.131, 155.545 94.455 C 152.551 91.460, 148.441 91.037, 138 92.648 C 135.525 93.030, 133.142 93.259, 132.705 93.156 C 131.430 92.858, 128.194 92.869, 116.500 93.213 C 106.766 93.500, 105.303 93.321, 103.788 91.659 C 102.255 89.978, 102.235 89.622, 103.597 88.260 C 104.906 86.952, 107.826 86.840, 124.498 87.462 C 142.112 88.119, 144.154 88.022, 146.908 86.395 C 151.222 83.847, 151.446 82.219, 147.933 78.938 C 143.971 75.236, 140.765 74.701, 126.344 75.329 C 112.818 75.918, 106.522 75.068, 104.484 72.375 C 102.540 69.808, 102.623 69.493, 105.605 68.134 C 107.318 67.354, 113.970 66.982, 125.028 67.050 C 141.471 67.151, 145.288 66.566, 147.180 63.654 C 149.383 60.266, 141.406 54.582, 134 54.264 C 112.165 53.325, 104.687 52.465, 103.621 50.769 C 102.779 49.428, 102.933 48.638, 104.303 47.269 C 106.190 45.383, 112.853 45.274, 141.057 46.666 C 152.202 47.217, 152.712 47.152, 155.390 44.848 C 157.855 42.728, 158.037 42.176, 157.012 39.926 C 156.377 38.532, 154.877 36.778, 153.679 36.028 C 149.435 33.371, 93.606 31.052, 90.525 33.405" stroke="none" fill="black" fill-rule="evenodd"/>
</svg>