<svg xmlns="http://www.w3.org/2000/svg" width="256" height="256" viewBox="0 0 256 256" version="1.1">
	<path d="M 62.355 28.971 C 59.923 29.977, 56.221 34.604, 53.133 40.500 C 50.980 44.610, 46.117 51.368, 37.705 61.940 C 32.717 68.207, 30.945 73.658, 33.568 74.664 C 34.358 74.968, 36.812 74.492, 39.022 73.608 C 44.236 71.522, 45.580 71.580, 48 74 C 49.745 75.745, 50.006 77.368, 50.044 86.750 C 50.073 93.817, 50.606 98.871, 51.600 101.500 C 52.432 103.700, 53.532 106.829, 54.045 108.453 C 54.557 110.078, 56.165 112.354, 57.617 113.511 C 59.668 115.147, 60.095 116.126, 59.532 117.900 C 58.969 119.672, 58.325 120.036, 56.654 119.528 C 43.101 115.404, 37.863 119.747, 36.491 136.246 C 35.663 146.205, 37.031 150, 41.450 150 C 44.715 150, 47.257 146.480, 50.588 137.347 C 52.417 132.332, 53.994 129.553, 55.186 129.241 C 56.843 128.808, 57.433 127.742, 57.118 125.750 C 56.831 123.930, 61.274 125.247, 63.865 127.750 C 66.512 130.307, 67.938 133.504, 69.418 140.207 C 70.137 143.459, 75.527 148.795, 79 149.692 C 80.375 150.047, 83.750 151.315, 86.500 152.510 C 89.250 153.705, 94.200 155.199, 97.500 155.829 C 114.766 159.128, 121.508 160.047, 124.160 159.465 C 134.510 157.192, 132.596 142, 121.960 142 C 120.002 142, 117.953 142.447, 117.406 142.994 C 115.044 145.356, 104.512 143.599, 95.554 139.347 C 92.833 138.056, 89.831 137, 88.882 137 C 87.932 137, 85.609 135.193, 83.719 132.985 C 81.175 130.013, 80.409 128.310, 80.769 126.428 C 81.787 121.105, 75.531 113, 70.405 113 C 68.435 113, 63.930 107.854, 64.496 106.250 C 64.739 105.563, 64.511 105, 63.990 105 C 63.441 105, 63.514 103.966, 64.164 102.539 C 65.040 100.616, 64.911 98.745, 63.575 93.983 C 62.498 90.143, 61.746 83.192, 61.542 75.194 C 61.364 68.212, 60.903 60.859, 60.517 58.852 C 59.592 54.041, 62.255 48.031, 68.359 41.159 C 73.478 35.395, 73.824 34.196, 71.250 31.153 C 69.164 28.688, 65.320 27.745, 62.355 28.971 M 112.123 33.099 C 111.047 34.253, 109.881 36.391, 109.532 37.849 C 109.183 39.307, 106.961 43.425, 104.595 47 C 102.228 50.575, 99.547 54.728, 98.637 56.229 C 97.726 57.730, 95.579 59.683, 93.866 60.569 C 91.083 62.008, 90.590 62.018, 89.236 60.665 C 88.403 59.831, 87.502 56.753, 87.234 53.825 C 86.641 47.337, 85.672 45.991, 81.628 46.032 C 76.021 46.089, 75.297 47.451, 75.077 58.353 C 74.968 63.762, 74.515 69.158, 74.069 70.344 C 73.624 71.530, 73.175 76.860, 73.072 82.189 C 72.860 93.188, 74.341 97.620, 78.518 98.486 C 79.883 98.768, 82.107 99.229, 83.460 99.509 C 86.844 100.209, 87.668 98.209, 88.203 88 C 88.480 82.717, 89.292 78.270, 90.350 76.250 C 91.838 73.407, 92.553 73, 96.058 73 C 102.443 73, 106.385 70.754, 110.638 64.692 C 115.985 57.072, 118.308 55.854, 125.971 56.655 C 129.396 57.013, 133.076 58.051, 134.229 58.985 C 136.280 60.646, 136.283 60.712, 134.442 63.829 C 133.074 66.145, 131.630 67.139, 129.038 67.550 C 124.057 68.340, 119.050 70.707, 118.316 72.618 C 117.974 73.509, 118.369 76.346, 119.192 78.922 C 121.653 86.618, 119.987 88.813, 110.096 90.903 C 107.124 91.531, 102.999 92.996, 100.930 94.159 C 97.597 96.033, 97.284 96.529, 98.187 98.511 C 98.747 99.741, 100.988 101.749, 103.166 102.973 C 107.401 105.353, 109.935 105.284, 119 102.540 C 121.475 101.791, 124.655 100.925, 126.066 100.616 C 127.477 100.307, 129.683 99.142, 130.969 98.027 C 134.439 95.017, 137.513 95.515, 142.272 99.858 C 147.607 104.726, 150.054 106, 154.070 106 C 157.243 106, 162 102.276, 162 99.793 C 162 97.018, 156.782 92.088, 152.253 90.584 C 145.686 88.403, 142 84.807, 142 80.582 C 142 78.747, 142.675 76.685, 143.500 76 C 144.325 75.315, 145 74.283, 145 73.706 C 145 73.129, 145.733 71.848, 146.629 70.858 C 148.954 68.289, 158 52.736, 158 51.308 C 158 50.650, 156.957 48.899, 155.683 47.417 C 153.385 44.746, 153.261 44.725, 141.214 44.893 C 130.205 45.047, 128.872 44.872, 127.032 43.032 C 125.799 41.799, 125 39.684, 125 37.655 C 125 35.684, 124.249 33.630, 123.171 32.655 C 120.544 30.277, 114.526 30.519, 112.123 33.099 M 134.462 116.417 C 133.167 118.394, 133.075 119.566, 133.958 122.843 C 135.859 129.902, 149.553 146.348, 154.581 147.610 C 157.861 148.433, 158.826 147.039, 158.341 142.177 C 157.960 138.357, 157.678 137.535, 154.136 129.890 C 152.961 127.355, 152 124.507, 152 123.562 C 152 122.616, 150.270 120.078, 148.156 117.921 C 144.912 114.612, 143.667 114, 140.179 114 C 136.912 114, 135.714 114.506, 134.462 116.417 M 96.319 115.781 C 94.240 117.104, 98.169 120.991, 102.256 121.654 C 105.239 122.138, 106.098 121.907, 106.649 120.472 C 108.002 116.947, 100.116 113.367, 96.319 115.781 M 57.750 121.662 C 58.438 121.940, 59.563 121.940, 60.250 121.662 C 60.938 121.385, 60.375 121.158, 59 121.158 C 57.625 121.158, 57.063 121.385, 57.750 121.662 M 109.500 173 C 109.840 173.550, 109.656 174, 109.090 174 C 108.525 174, 108.322 174.675, 108.638 175.500 C 108.955 176.325, 109.889 177, 110.714 177 C 111.671 177, 111.994 176.427, 111.607 175.418 C 111.273 174.548, 111 173.423, 111 172.918 C 111 172.413, 110.523 172, 109.941 172 C 109.359 172, 109.160 172.450, 109.500 173" stroke="none" fill="black" fill-rule="evenodd"/>
</svg>