<svg xmlns="http://www.w3.org/2000/svg" width="256" height="256" viewBox="0 0 256 256" version="1.1">
	<path d="M 54.990 30.856 C 52.104 33.742, 52 34.166, 52 43.023 L 52 52.200 48.564 55.350 C 46.675 57.082, 43.674 59.667, 41.896 61.092 C 39.043 63.380, 38.684 64.215, 38.835 68.201 C 38.985 72.172, 38.295 73.794, 33.135 81.609 C 26.021 92.383, 24.592 96.398, 25.506 103.045 C 26.245 108.416, 28.705 111.151, 32.018 110.285 C 34.558 109.621, 36.241 106.853, 40.442 96.436 C 42.392 91.599, 44.946 86.622, 46.118 85.374 C 48.086 83.280, 48.373 83.231, 49.874 84.733 C 51.191 86.050, 51.450 88.181, 51.235 95.930 C 51.089 101.193, 50.467 107.036, 49.853 108.914 C 48.547 112.909, 49.251 126.732, 50.920 129.850 C 51.540 131.008, 52.504 136.784, 53.063 142.686 C 54.365 156.421, 56.771 161.500, 61.979 161.500 C 65.091 161.500, 65.494 161.167, 66.214 158 C 66.836 155.269, 66.418 146.369, 65.511 143 C 65.437 142.725, 65.052 138.225, 64.657 133 C 64.261 127.775, 63.666 120.350, 63.335 116.500 C 62.300 104.477, 62.792 96.542, 64.953 90.394 C 66.079 87.190, 67 83.548, 67 82.299 C 67 80.242, 68.547 72.770, 69.753 69 C 70.098 67.920, 70.364 67.850, 70.700 68.750 C 70.957 69.438, 71.756 70, 72.476 70 C 73.197 70, 74.013 70.592, 74.291 71.317 C 74.605 72.134, 76.825 72.721, 80.148 72.865 C 87.800 73.196, 89.651 75.336, 91.061 85.481 C 91.671 89.870, 92.293 97.970, 92.443 103.481 C 92.965 122.728, 94.820 127.241, 102.723 128.486 C 111.411 129.855, 144.002 130.723, 148.060 129.693 C 152.628 128.535, 152.899 126.851, 153.059 98.668 C 153.252 64.643, 153.873 65.981, 136.061 62.014 C 131.234 60.938, 123.959 60.019, 119.893 59.970 C 115.827 59.920, 110.925 59.825, 109 59.759 C 104.323 59.596, 89.130 60.683, 86.005 61.404 C 82.234 62.274, 80.207 61.220, 79.505 58.024 C 78.417 53.068, 76.626 52.373, 70.400 54.489 C 64.051 56.648, 61.813 55.732, 63.751 51.770 C 65.555 48.082, 66.229 33.903, 64.738 31 C 62.803 27.233, 58.674 27.172, 54.990 30.856 M 87.339 35.911 C 83.843 38.069, 82.518 40.943, 83.400 44.457 C 84.134 47.384, 85.550 47.586, 115.819 49.090 C 144.405 50.511, 154.042 50.103, 157.793 47.313 C 161.384 44.642, 161.710 41.619, 158.730 38.639 C 156.342 36.251, 156.159 36.232, 128.414 35.595 C 113.061 35.242, 98.250 34.730, 95.500 34.457 C 91.664 34.076, 89.764 34.415, 87.339 35.911 M 109.313 75.102 C 107.560 75.610, 105.190 77.215, 104.045 78.670 C 102.216 80.995, 102.131 81.568, 103.339 83.407 C 105.899 87.305, 114.210 89.148, 125.820 88.391 C 132.666 87.944, 136.620 87.237, 137.568 86.289 C 139.882 83.975, 140.370 80.214, 138.689 77.648 C 137.330 75.573, 136.120 75.237, 127.925 74.655 C 116.555 73.848, 113.385 73.924, 109.313 75.102 M 108.415 102.858 C 101.435 104.161, 103.422 112.456, 111 113.648 C 112.925 113.950, 115.231 114.589, 116.124 115.067 C 118.222 116.189, 136.136 116.152, 137.964 115.022 C 140.417 113.506, 140.930 106.473, 138.743 104.352 C 137.559 103.204, 113.033 101.995, 108.415 102.858 M 97.500 139.668 C 94.750 140.498, 90.369 141.506, 87.764 141.908 C 85.160 142.309, 82.737 142.930, 82.380 143.287 C 81.586 144.081, 83.761 149.556, 85.415 150.929 C 88.784 153.725, 129.464 155.744, 150.339 154.151 C 159.813 153.429, 162 152.153, 162 147.348 C 162 143.124, 158.321 140.972, 151.044 140.938 C 133.259 140.857, 116.040 140.276, 112 139.622 C 109.525 139.221, 106.375 138.728, 105 138.526 C 103.625 138.324, 100.250 138.838, 97.500 139.668" stroke="none" fill="black" fill-rule="evenodd"/>
</svg>