<svg xmlns="http://www.w3.org/2000/svg" width="256" height="256" viewBox="0 0 256 256" version="1.1">
	<path d="M 85.713 33.093 C 58.461 33.883, 52.776 34.681, 51.019 37.964 C 50.488 38.957, 50.102 46.908, 50.161 55.634 C 50.221 64.360, 50.191 74.875, 50.096 79 C 49.885 88.158, 50.510 91.806, 52.798 94.780 C 54.417 96.883, 55.518 97.097, 67.027 97.543 C 87.690 98.346, 91.237 99.171, 90.499 103.004 C 90.288 104.102, 90.464 105, 90.891 105 C 91.318 105, 91.706 105.563, 91.753 106.250 C 92.005 109.890, 93.310 112.021, 98.540 117.329 C 105.450 124.341, 108.303 125.687, 111.635 123.504 C 117.280 119.805, 112.845 109.399, 104.500 106.762 C 101.667 105.867, 100.410 104.869, 100.192 103.340 C 99.907 101.338, 100.449 101.129, 107.665 100.452 C 111.944 100.051, 120.060 100.006, 125.700 100.351 C 137.912 101.098, 140.317 100.319, 141.769 95.148 C 142.332 93.141, 142.815 90.825, 142.843 90 C 143.422 72.513, 143.041 41.933, 142.220 39.906 C 141.641 38.480, 139.893 36.809, 138.334 36.193 C 134.366 34.627, 119.414 31.968, 115.640 32.158 C 113.913 32.245, 100.446 32.666, 85.713 33.093 M 66.623 46.500 C 64.943 47.050, 62.877 48.737, 62.034 50.250 C 60.655 52.722, 60.655 53.278, 62.040 55.750 L 63.580 58.500 76.040 58.501 C 87.756 58.501, 88.629 58.364, 90.665 56.197 C 92.456 54.289, 92.675 53.354, 91.933 50.766 C 91.062 47.730, 89.549 46.093, 87.500 45.971 C 78.931 45.461, 69.033 45.711, 66.623 46.500 M 110.021 47.306 C 106.133 48.641, 104.314 52.130, 105.352 56.265 C 105.894 58.427, 106.708 58.899, 110.745 59.394 C 113.360 59.715, 118.875 59.645, 123 59.239 C 130.305 58.519, 130.509 58.426, 130.827 55.643 C 131.353 51.038, 129.276 47.305, 125.799 46.610 C 121.092 45.668, 113.866 45.987, 110.021 47.306 M 63.673 72.977 C 62.120 74.822, 61 77.369, 61 79.054 C 61 83.510, 64.239 85.003, 75.138 85.572 C 92.403 86.472, 92.383 86.479, 91.655 79.147 C 91.032 72.871, 89.262 71.562, 81.235 71.441 C 77.531 71.385, 72.665 70.993, 70.423 70.569 C 66.646 69.856, 66.150 70.033, 63.673 72.977 M 105.855 75.227 C 102.653 77.978, 101.636 81.852, 103.467 84.316 C 104.626 85.875, 106.519 86.158, 116.864 86.316 C 127.873 86.484, 129.037 86.328, 130.378 84.500 C 132.201 82.015, 131.466 77.102, 128.938 74.878 C 127.553 73.659, 124.786 73.219, 117.797 73.105 C 109.449 72.969, 108.230 73.186, 105.855 75.227 M 51.800 111.973 C 46.045 113.430, 45.397 113.867, 44.306 117.034 C 43.650 118.940, 43.087 122.386, 43.056 124.691 C 43.025 126.996, 42.550 129.160, 42 129.500 C 40.915 130.171, 40.620 139.847, 41.607 142.418 C 41.941 143.288, 43.216 144, 44.440 144 C 47.452 144, 52.306 137.773, 56.544 128.472 C 59.791 121.347, 60.105 121, 63.290 121 C 66.103 121, 66.885 121.536, 68.251 124.399 C 69.142 126.269, 70.184 129.531, 70.566 131.649 C 70.948 133.767, 71.600 135.950, 72.015 136.500 C 72.430 137.050, 73.075 138.929, 73.448 140.676 C 73.834 142.484, 75.284 144.638, 76.813 145.676 C 82.417 149.478, 94.594 155, 97.374 155 C 98.966 155, 103.050 155.512, 106.448 156.139 C 114.897 157.695, 123.544 156.546, 126.634 153.457 C 130.929 149.161, 129.894 144.773, 122.573 136.251 L 120.641 134.002 117.305 137.643 L 113.970 141.284 107.025 140.639 C 103.205 140.284, 99.049 139.574, 97.790 139.060 C 96.530 138.547, 93.827 137.856, 91.782 137.524 C 86.432 136.657, 85.116 134.893, 85.234 128.745 C 85.346 122.842, 83.658 116.791, 81.368 114.890 C 80.526 114.192, 77.512 113.258, 74.669 112.815 C 59.285 110.415, 58.125 110.373, 51.800 111.973 M 135.250 113.355 C 133.463 115.085, 132 117.267, 132 118.204 C 132 120.527, 134.116 125, 135.216 125 C 135.708 125, 137.252 127.588, 138.647 130.750 C 143.091 140.824, 146.126 144.853, 149.825 145.589 C 151.689 145.960, 153.596 145.804, 154.166 145.234 C 155.508 143.892, 154.168 131.311, 152.505 129.648 C 151.817 128.960, 150.562 125.365, 149.717 121.661 C 148.872 117.956, 147.455 113.817, 146.567 112.462 C 144.236 108.904, 139.458 109.281, 135.250 113.355" stroke="none" fill="black" fill-rule="evenodd"/>
</svg>