<svg xmlns="http://www.w3.org/2000/svg" width="256" height="256" viewBox="0 0 256 256" version="1.1">
	<path d="M 64.449 30.894 C 55.412 31.508, 50.088 33.481, 49.931 36.273 C 49.893 36.948, 49.779 49.200, 49.677 63.500 C 49.497 88.771, 49.556 89.630, 51.783 94.144 C 54.222 99.090, 55.961 100.172, 64.500 102.057 C 71.535 103.611, 95.156 104.468, 122.779 104.172 C 130.632 104.088, 137.382 104.068, 137.779 104.128 C 139.960 104.457, 141.103 103.701, 142.495 101.010 C 143.345 99.366, 143.985 97.787, 143.917 97.501 C 143.849 97.216, 144.126 93.273, 144.533 88.741 C 145.508 77.871, 145.493 48.793, 144.510 42.616 C 143.611 36.969, 141.157 34.031, 137.250 33.926 C 134.397 33.849, 132.891 33.626, 124.500 32.043 C 118.255 30.865, 76.613 30.069, 64.449 30.894 M 63.482 44.661 C 62.170 45.973, 61.973 47.285, 62.544 50.911 C 62.941 53.435, 63.179 55.950, 63.073 56.500 C 62.967 57.050, 62.715 62.830, 62.512 69.344 C 62.310 75.858, 61.887 81.446, 61.573 81.761 C 60.555 82.779, 60.963 85.568, 62.422 87.559 C 63.631 89.209, 65.167 89.517, 72.672 89.613 C 77.527 89.675, 88.159 90.023, 96.299 90.385 C 104.438 90.748, 111.788 90.658, 112.633 90.186 C 113.866 89.495, 113.219 88.559, 109.334 85.413 C 106.675 83.261, 103.494 80.938, 102.264 80.250 C 99.712 78.824, 91 78.545, 91 79.890 C 91 81.217, 82.416 85, 79.405 85 C 77.966 85, 75.507 83.921, 73.940 82.603 L 71.090 80.205 75.040 76.853 C 77.213 75.009, 78.992 73.085, 78.995 72.579 C 78.998 72.072, 79.679 70.907, 80.508 69.991 C 81.879 68.476, 81.673 68.150, 78.258 66.423 C 69.754 62.120, 68.655 59.045, 73.917 54.277 C 76.036 52.356, 77.261 52.028, 80.739 52.447 C 85.662 53.041, 89.803 51.727, 91.745 48.953 C 93.420 46.563, 95.308 46.460, 97.128 48.659 C 99.256 51.232, 108.105 54.979, 112.078 54.990 C 114.045 54.996, 118.522 56.165, 122.026 57.589 C 128.072 60.045, 128.464 60.087, 129.699 58.398 C 131.226 56.309, 131.421 49.654, 130.030 47.057 C 129.193 45.493, 127.107 45.148, 114.780 44.541 C 105.532 44.085, 99.540 44.206, 97.777 44.883 C 95.734 45.668, 94.015 45.564, 90.901 44.465 C 84.756 42.297, 65.710 42.433, 63.482 44.661 M 125.495 64.972 C 123.843 65.914, 120.701 67.021, 118.514 67.431 C 110.155 69, 109.037 71.379, 114.169 76.675 C 116.577 79.158, 117.373 80.915, 117.479 83.982 C 117.653 88.970, 118.306 89.587, 124.204 90.345 C 128.796 90.935, 131.809 89.631, 132.100 86.929 C 132.745 80.937, 131.086 65.309, 129.687 64.200 C 128.913 63.586, 127.456 63.854, 125.495 64.972 M 63.445 113.248 C 62.100 114.846, 61 116.616, 61 117.181 C 61 117.858, 58.263 117.966, 52.980 117.498 C 43.964 116.700, 42 117.499, 42 121.966 C 42 123.462, 41.100 127.303, 40 130.500 C 35.854 142.550, 37.992 148.478, 45.581 145.973 C 48.482 145.016, 49.640 143.679, 52.517 137.966 C 56.748 129.564, 60.179 126.120, 63.657 126.785 C 65.036 127.049, 66.337 127.768, 66.548 128.382 C 71.529 142.902, 73.372 145.183, 84.385 150.470 C 95.401 155.758, 108.691 156.999, 118.208 153.627 C 125.052 151.202, 125.428 150.694, 125.992 143.113 C 126.765 132.710, 125.890 130.326, 120.994 129.499 C 117.732 128.948, 117 128.416, 117 126.596 C 117 125.359, 115.554 123.044, 113.750 121.392 C 111.963 119.756, 109.490 117.198, 108.257 115.708 C 106.434 113.508, 105.181 113, 101.578 113 C 93.750 113, 92.721 115.911, 98.224 122.495 C 106.176 132.008, 107.293 133, 110.049 133 C 113.165 133, 115.066 136.334, 113.081 138.319 C 111.167 140.233, 99.049 140.367, 92.995 138.542 C 86.291 136.521, 83.378 133.176, 81.922 125.829 C 81.342 122.898, 80.645 119.389, 80.374 118.031 C 79.774 115.025, 78.199 113, 76.461 113 C 75.749 113, 74.979 112.438, 74.750 111.750 C 74.511 111.032, 72.538 110.466, 70.112 110.421 C 66.627 110.355, 65.463 110.849, 63.445 113.248 M 134 113.666 C 128.149 114.588, 126.962 115.172, 125.600 117.806 C 124.251 120.415, 124.319 120.701, 126.726 122.541 C 128.134 123.619, 131.135 126.484, 133.393 128.910 C 135.652 131.335, 139.637 135.546, 142.250 138.268 C 144.863 140.990, 147 143.548, 147 143.951 C 147 144.355, 148.567 145.529, 150.482 146.560 C 153.096 147.968, 154.250 148.150, 155.108 147.292 C 156.694 145.706, 156.796 137.765, 155.238 137.246 C 154.557 137.019, 154 135.746, 154 134.417 C 154 133.088, 153.191 131.191, 152.202 130.202 C 151.213 129.213, 148.955 125.399, 147.184 121.727 C 143.136 113.334, 141.696 112.454, 134 113.666" stroke="none" fill="black" fill-rule="evenodd"/>
</svg>