<svg xmlns="http://www.w3.org/2000/svg" width="256" height="256" viewBox="0 0 256 256" version="1.1">
	<path d="M 53.065 28.935 C 51.089 30.911, 49.016 36.852, 49.006 40.568 C 49.003 41.706, 48.323 44.917, 47.496 47.703 C 45.892 53.103, 44.627 53.960, 38.219 53.986 C 33.800 54.005, 33.070 56.331, 35.927 61.294 C 38.608 65.953, 38.861 71.064, 36.538 73.650 C 34.270 76.174, 30.406 82.260, 27.298 88.204 C 24.457 93.638, 23.798 101.886, 25.892 105.799 C 27.319 108.465, 31.090 108.698, 33.194 106.250 C 35.574 103.481, 40.585 92.160, 42.890 84.345 C 45.231 76.407, 45.489 74, 44 74 C 43.450 74, 43 73.262, 43 72.360 C 43 71.458, 42.256 70.176, 41.346 69.511 C 39.952 68.492, 40.189 68.374, 42.846 68.764 C 45.997 69.227, 46.289 69.779, 46.267 75.250 C 46.264 76.213, 46.678 77, 47.189 77 C 47.700 77, 47.862 77.414, 47.550 77.919 C 47.237 78.425, 47.637 79.494, 48.437 80.294 C 49.606 81.463, 49.791 83.990, 49.375 93.125 C 49.091 99.381, 48.443 106.075, 47.936 108 C 45.775 116.203, 45.737 126.253, 47.837 134 C 48.955 138.125, 50.166 143.975, 50.527 147 C 51.906 158.547, 56.037 164.656, 60.759 162.129 C 64.191 160.292, 64.540 153.673, 61.902 140.500 C 60.339 132.698, 60.910 94.265, 62.651 90.035 C 64.257 86.134, 65.601 84.995, 67.915 85.576 C 79.705 88.538, 78.967 88.514, 83.570 86.072 C 87.538 83.967, 91.347 83.783, 90.799 85.722 C 90.678 86.150, 91.311 88.975, 92.206 92 C 94.677 100.350, 96.200 119.694, 95.842 138.199 C 95.550 153.363, 95.687 154.997, 97.416 156.907 C 99.935 159.691, 102.141 159.546, 105.076 156.405 C 110.174 150.948, 111.628 150.678, 136.904 150.501 C 159.964 150.340, 160.336 150.304, 162.154 148.058 C 164.573 145.071, 164.503 140.503, 162 138 C 160.488 136.488, 158.597 135.981, 154.250 135.924 C 145.943 135.814, 141.731 134.043, 140.627 130.197 C 139.367 125.802, 141.862 122.393, 148.481 119.466 C 154.257 116.912, 155.276 115.557, 153.707 112.521 C 152.117 109.444, 150.832 108.526, 146.205 107.160 C 141.678 105.824, 139.384 102.515, 140.515 98.951 C 141.192 96.820, 145.944 95, 150.835 95 C 153.062 95, 155.207 94.215, 156.629 92.879 C 158.721 90.914, 158.775 90.586, 157.362 88.430 C 156.524 87.151, 153.737 85.316, 151.169 84.354 C 139.643 80.034, 137.634 77.778, 141.104 73.047 C 144.029 69.060, 146.577 68.004, 153.315 67.986 C 161.342 67.965, 163 67.251, 163 63.818 C 163 57.534, 158.447 54.010, 150.300 53.986 C 142.594 53.964, 141.142 53.242, 139.956 48.836 C 139.373 46.672, 139.173 44.029, 139.512 42.963 C 140.863 38.705, 133.632 31.776, 129.494 33.364 C 126.973 34.331, 126.139 38.088, 127.645 41.692 C 129.418 45.937, 129.363 49.454, 127.499 51 C 125.048 53.035, 117.840 53.378, 113.720 51.656 C 110.663 50.379, 110.006 49.602, 110.035 47.301 C 110.055 45.760, 110.714 43.375, 111.500 42 C 113.570 38.378, 113.318 35.648, 110.686 33.174 C 105.481 28.285, 98.343 32.118, 96.026 41.045 C 95.462 43.220, 94.541 46.770, 93.979 48.933 C 93.274 51.650, 91.497 54.151, 88.229 57.022 C 82.059 62.444, 81.572 63.435, 83.340 66.981 C 84.432 69.169, 84.512 70.147, 83.653 70.821 C 81.737 72.322, 77.012 73.125, 70.087 73.125 C 64.443 73.125, 63.258 72.802, 61.660 70.828 C 59.415 68.056, 59.891 61.883, 62.578 58.913 C 64.024 57.316, 65.466 57.027, 70.913 57.241 L 77.500 57.500 77.803 52.803 C 78.085 48.425, 77.893 47.996, 74.976 46.488 C 73.255 45.598, 69.969 44.551, 67.674 44.161 L 63.500 43.452 63.225 36.976 C 63.008 31.849, 62.516 30.135, 60.865 28.750 C 58.146 26.469, 55.467 26.533, 53.065 28.935 M 110.438 68.792 C 105.269 71.675, 103.364 73.405, 102.760 75.763 C 101.954 78.911, 104.430 79.998, 114.318 80.837 C 121.356 81.435, 123.025 81.259, 126.255 79.578 C 128.418 78.452, 129.547 77.338, 128.919 76.950 C 128.320 76.580, 127.914 75.970, 128.018 75.595 C 128.122 75.221, 127.682 73.646, 127.040 72.096 C 125.080 67.366, 116.173 65.593, 110.438 68.792 M 116.608 94.055 C 109.069 95.319, 106 96.893, 106 99.499 C 106 102.594, 107.908 103.920, 114.696 105.542 C 123.582 107.665, 125.718 107.445, 127.377 104.238 C 128.603 101.867, 128.609 100.910, 127.418 97.488 C 126.655 95.294, 126.023 93.388, 126.015 93.250 C 125.990 92.830, 121.759 93.192, 116.608 94.055 M 115.670 120.433 C 109.855 121.996, 108.347 123.396, 107.506 128.013 C 106.612 132.920, 109.768 135.739, 117.593 137.023 C 122.748 137.869, 123.818 137.755, 126 136.123 C 128.219 134.463, 128.462 133.649, 128.163 128.877 C 127.978 125.919, 127.180 122.487, 126.390 121.250 C 124.766 118.706, 122.686 118.547, 115.670 120.433" stroke="none" fill="black" fill-rule="evenodd"/>
</svg>