<svg xmlns="http://www.w3.org/2000/svg" width="256" height="256" viewBox="0 0 256 256" version="1.1">
	<path d="M 58.783 27.750 C 55.589 31.412, 55.013 33.972, 55.255 43.429 C 55.499 52.981, 55.492 53.015, 52.500 55.468 C 50.850 56.821, 48.753 57.944, 47.839 57.964 C 45.568 58.013, 41.430 63.143, 39.965 67.725 C 39.301 69.801, 37.878 72.959, 36.802 74.741 C 30.300 85.523, 27.619 92.521, 27.632 98.683 C 27.645 105.410, 28.971 108, 32.400 108 C 35.736 108, 38.728 105.363, 40.060 101.247 C 40.727 99.186, 42.337 95.377, 43.637 92.783 C 45.481 89.101, 46 86.448, 46 80.688 C 46 74.612, 46.348 72.995, 47.974 71.523 C 49.823 69.850, 50.109 69.842, 52.474 71.391 C 53.893 72.321, 55.015 74.022, 55.035 75.273 C 55.055 76.498, 55.055 88.576, 55.035 102.113 C 55.016 115.775, 55.477 129.123, 56.072 132.113 C 56.662 135.076, 57.104 140.548, 57.055 144.273 C 56.990 149.096, 57.569 152.452, 59.064 155.928 C 61.311 161.151, 63.773 162.618, 66.701 160.477 C 68.294 159.312, 68.501 157.343, 68.554 142.833 C 68.587 133.850, 68.034 122.225, 67.324 117 C 65.915 106.619, 66.288 97.738, 68.641 85.660 C 69.735 80.044, 69.884 77.066, 69.167 75.160 C 67.727 71.336, 66.967 63.672, 67.880 62.194 C 68.977 60.420, 75 63.119, 75 65.384 C 75 65.674, 76.101 67.533, 77.446 69.515 C 78.791 71.497, 79.641 73.771, 79.336 74.567 C 77.935 78.217, 80.043 82.495, 84.845 85.750 C 87.482 87.537, 90.216 89, 90.921 89 C 92.290 89, 92.019 94.263, 90.301 101 C 89.809 102.931, 89.770 107.160, 90.216 110.436 C 90.660 113.701, 90.790 118.426, 90.505 120.936 C 90.220 123.446, 89.755 129.762, 89.472 134.972 C 89.188 140.182, 88.516 144.884, 87.978 145.422 C 86.422 146.978, 86.842 151.589, 88.750 153.884 C 91.137 156.757, 94.507 155.718, 95.980 151.655 C 101.028 137.735, 102.972 136.557, 119.397 137.467 C 130.397 138.075, 138 139.374, 138 140.643 C 138 142.301, 135.661 145.002, 134.215 145.015 C 129.033 145.062, 129.182 150.930, 134.509 156.578 C 138.661 160.981, 143.113 161.199, 148.269 157.250 C 152.098 154.318, 153.093 151.335, 153.523 141.500 C 153.644 138.750, 154.058 135.150, 154.444 133.500 C 155.345 129.652, 155.346 129.155, 154.475 118.900 C 153.983 113.101, 154.131 109.134, 154.928 106.718 C 155.993 103.490, 155.861 102.741, 153.593 99.147 C 152.208 96.953, 150.158 94.868, 149.038 94.512 C 147.917 94.156, 147 93.471, 147 92.990 C 147 92.509, 145.988 92.370, 144.750 92.683 C 140.255 93.817, 134.219 93.158, 130.402 91.116 L 126.500 89.028 136.250 89.141 C 141.613 89.203, 146 89.625, 146 90.078 C 146 91.255, 156.110 90.363, 159.312 88.904 C 161.405 87.950, 162 86.979, 162 84.514 C 162 78.494, 154.502 74.717, 143.146 75.015 C 132.773 75.288, 131.990 75.141, 131.072 72.750 C 129.973 69.886, 130.587 69.305, 135.500 68.566 C 144.633 67.191, 146.582 66.604, 148.221 64.729 C 150.251 62.408, 149.498 60.439, 145.201 56.823 C 143.637 55.506, 142.535 53.894, 142.754 53.239 C 142.972 52.585, 145.397 51.751, 148.142 51.387 C 154.275 50.573, 156.998 47.487, 155.154 43.439 C 153.459 39.719, 149.689 38.749, 139.897 39.516 C 131.373 40.183, 131.274 40.164, 129.147 37.460 C 127.966 35.959, 127 34.194, 127 33.539 C 127 32.885, 125.879 31.296, 124.510 30.009 C 122.368 27.997, 121.668 27.830, 119.507 28.815 C 118.105 29.453, 116 32.005, 114.748 34.583 L 112.502 39.205 102.371 38.514 C 94.057 37.948, 91.685 38.112, 89.137 39.429 C 85.696 41.209, 82.734 45.952, 83.893 47.828 C 84.304 48.493, 88.347 49.816, 92.877 50.768 C 97.407 51.721, 101.121 52.935, 101.130 53.467 C 101.139 53.999, 98.205 55.426, 94.609 56.639 L 88.072 58.844 85.536 56.850 C 84.141 55.752, 83 54.291, 83 53.602 C 83 51.480, 78.687 48.280, 74.925 47.611 C 72.959 47.261, 70.345 46.038, 69.115 44.893 C 66.951 42.876, 66.800 40.257, 68.314 31 C 68.359 30.725, 68.052 29.488, 67.631 28.250 C 66.669 25.422, 61.089 25.107, 58.783 27.750 M 107 52.393 C 107 52.609, 107.698 53.054, 108.552 53.382 C 109.442 53.723, 109.843 53.555, 109.493 52.989 C 108.906 52.038, 107 51.583, 107 52.393 M 130.667 52.667 C 129.121 54.212, 130.247 55, 134 55 C 136.200 55, 138 54.598, 138 54.107 C 138 52.375, 132.114 51.219, 130.667 52.667 M 87.352 69.247 C 84.900 70.678, 85.583 71.699, 90.794 74.394 C 94.454 76.286, 96.979 76.383, 104.174 74.907 C 107.103 74.307, 110.513 73.623, 111.750 73.388 C 113.141 73.125, 114 72.239, 114 71.069 C 114 69.633, 113.095 69.061, 110.250 68.699 C 102.381 67.700, 89.475 68.008, 87.352 69.247 M 111.250 88.220 C 110.013 88.817, 109 89.637, 109 90.042 C 109 91.544, 116.102 92.046, 120.235 90.836 C 124.382 89.622, 124.417 89.577, 121.500 89.217 C 119.850 89.013, 118.073 88.431, 117.550 87.923 C 116.334 86.742, 114.097 86.847, 111.250 88.220 M 108.717 105 C 104.130 105.606, 103.738 107.008, 107.611 108.945 C 110.956 110.618, 132.712 111.939, 136.426 110.695 C 138.977 109.841, 140.588 107.155, 139.283 105.933 C 138.332 105.044, 114.005 104.301, 108.717 105 M 104.956 122.553 C 102.933 124.990, 105.153 126.319, 109.904 125.516 C 113.759 124.865, 115.501 123.463, 112.750 123.225 C 110.595 123.039, 108.543 122.470, 107.363 121.733 C 106.738 121.342, 105.655 121.711, 104.956 122.553 M 131.191 122.850 C 127.776 123.811, 128.329 125.384, 132.421 126.352 C 136.771 127.381, 139.262 126.597, 138.824 124.337 C 138.470 122.514, 134.875 121.814, 131.191 122.850" stroke="none" fill="black" fill-rule="evenodd"/>
</svg>