<svg xmlns="http://www.w3.org/2000/svg" width="256" height="256" viewBox="0 0 256 256" version="1.1">
	<path d="M 87.724 30.147 C 81.916 33.945, 74.042 34.963, 56.158 34.226 C 45.052 33.769, 43.905 33.896, 40.585 35.948 C 36.107 38.715, 35.761 42.069, 39.750 44.033 C 42.176 45.227, 60.104 46.684, 80.196 47.320 C 86.137 47.508, 89.260 49.140, 87.345 51.055 C 86.166 52.234, 81 51.286, 81 49.892 C 81 48.442, 76.912 48.846, 70.500 50.929 C 67.200 52.001, 62.107 53.468, 59.181 54.189 C 54.368 55.375, 53.643 55.928, 51.555 60 C 49.026 64.934, 46.560 77.009, 46.682 83.861 C 46.745 87.358, 47.382 88.843, 49.900 91.361 C 52.870 94.330, 53.512 94.518, 61.770 94.825 C 78.081 95.433, 81.063 95.337, 82.232 94.168 C 83.992 92.408, 85.655 92.746, 88.313 95.404 C 92.254 99.345, 92.365 101.844, 88.665 103.364 C 86.133 104.404, 84.500 104.422, 80.500 103.456 C 73.946 101.873, 51.464 101.683, 48.641 103.186 C 43.917 105.702, 42.608 110.430, 45.829 113.345 C 47.277 114.656, 49.765 115, 57.794 115 C 66.992 115, 68.031 115.190, 69.028 117.052 C 69.868 118.622, 69.725 120.312, 68.420 124.240 C 66.198 130.931, 66.308 136.436, 68.775 142 C 71.447 148.025, 75.038 151.125, 84 155.140 L 91.500 158.500 107.560 158.367 C 124.963 158.224, 128.009 157.449, 134.176 151.596 C 135.648 150.199, 136.998 149.436, 137.176 149.901 C 137.354 150.365, 139.848 151.927, 142.717 153.372 C 148.266 156.168, 153.826 156.774, 155.800 154.800 C 157.721 152.879, 157.192 149.101, 154.645 146.554 C 151.614 143.524, 150.976 141.837, 150.005 134.299 C 149.551 130.778, 148.324 126.859, 147.164 125.230 C 145.139 122.387, 145.138 122.338, 147.054 119.431 C 150.495 114.212, 149.670 111.014, 143.765 106.681 C 140.903 104.581, 137.322 102.614, 135.809 102.312 C 133.434 101.837, 133.201 101.493, 134.107 99.800 C 134.685 98.721, 136.697 96.206, 138.578 94.211 C 140.460 92.216, 142 89.579, 142 88.351 C 142 87.123, 142.458 85.835, 143.019 85.489 C 144.091 84.826, 143.553 78.128, 141.935 72 C 141.427 70.075, 141.009 66.978, 141.006 65.118 C 140.999 61.254, 137.723 55.334, 135.200 54.626 C 134.265 54.364, 131.925 53.839, 130 53.459 C 128.075 53.080, 125.890 52.276, 125.144 51.674 C 124.345 51.029, 120.342 50.676, 115.394 50.814 C 108.633 51.003, 107 50.768, 107 49.604 C 107 47.847, 111.981 46.618, 115.750 47.444 C 120.668 48.523, 148.954 46.260, 151.512 44.584 C 154.489 42.633, 153.778 39.444, 149.829 37.042 C 146.908 35.266, 132.193 33.877, 113.500 33.613 C 106.193 33.510, 105.095 33.219, 100.820 30.250 C 98.246 28.462, 95.321 27.005, 94.320 27.012 C 93.319 27.018, 90.351 28.429, 87.724 30.147 M 73.272 63.908 C 64.724 64.608, 60.606 67.035, 63.335 69.764 C 64.717 71.146, 65.584 71.179, 70.356 70.035 C 73.400 69.304, 77.056 69.046, 78.650 69.449 C 80.217 69.846, 82.850 70.244, 84.500 70.335 C 87.293 70.489, 87.500 70.259, 87.500 67 C 87.500 63.684, 87.316 63.495, 84 63.408 C 82.075 63.357, 77.247 63.582, 73.272 63.908 M 105.216 64.845 C 103.993 65.621, 104.503 68.960, 105.857 69.036 C 106.211 69.056, 110.985 69.663, 116.467 70.386 C 127.384 71.824, 130.255 71.560, 129.792 69.160 C 129.505 67.667, 128.173 67.176, 118.500 64.991 C 113.461 63.852, 106.894 63.780, 105.216 64.845 M 81.638 79.170 C 79.271 80.366, 75.405 81.194, 71.650 81.311 C 66.706 81.463, 65.460 81.837, 65.190 83.247 C 64.902 84.746, 65.617 84.976, 70.231 84.870 C 73.467 84.795, 76.861 85.394, 78.754 86.373 C 80.485 87.268, 82.625 88, 83.509 88 C 84.394 88, 84.840 88.450, 84.500 89 C 84.160 89.550, 84.610 90, 85.500 90 C 86.390 90, 86.869 89.597, 86.565 89.105 C 86.260 88.612, 86.688 87.950, 87.514 87.633 C 88.341 87.316, 89.507 85.982, 90.105 84.670 C 91.035 82.629, 90.809 81.900, 88.551 79.641 C 87.098 78.189, 85.817 77.049, 85.705 77.109 C 85.592 77.169, 83.762 78.096, 81.638 79.170 M 102.750 81.080 C 100.644 82.307, 100.440 85.571, 102.422 86.332 C 104.362 87.076, 123.777 87.094, 126.725 86.354 C 129.086 85.761, 129.088 85.750, 127.048 84.321 C 124.785 82.736, 122.919 82.195, 115.500 80.971 C 108.651 79.841, 104.821 79.874, 102.750 81.080 M 104 96.673 C 102.242 97.408, 101.037 99.022, 101.015 100.672 C 100.989 102.671, 107.437 104.144, 112.992 103.407 C 118.468 102.680, 120.279 100.850, 117.887 98.460 C 116.373 96.947, 106.410 95.665, 104 96.673 M 83.635 114.476 C 81.538 116.064, 78.703 121, 79.888 121 C 80.987 121, 83 130.369, 83 135.490 C 83 139.418, 83.391 140.114, 87.143 142.874 C 91.853 146.337, 98.886 147.829, 102.578 146.147 C 105.830 144.665, 105.640 142.928, 101.443 135.768 C 98.158 130.162, 96.249 125.790, 94.012 118.748 C 92.270 113.261, 87.715 111.386, 83.635 114.476 M 123 117.096 C 114.723 117.827, 109.112 118.987, 108.966 120 C 108.803 121.125, 112.249 128.392, 113.574 129.717 C 115.529 131.672, 115.362 134.332, 113.010 138.720 C 111.315 141.882, 111.236 142.552, 112.473 143.245 C 113.328 143.724, 115.483 143.405, 117.713 142.470 C 122.177 140.597, 126.744 141.181, 129.783 144.012 C 132.339 146.394, 136.548 146.620, 137.392 144.421 C 138.122 142.518, 137.071 137.749, 135.729 136.868 C 134.104 135.803, 133.704 128.445, 135.187 126.898 C 135.923 126.129, 137.285 124.312, 138.214 122.860 C 139.799 120.382, 139.798 120.131, 138.201 118.745 C 135.729 116.599, 132.545 116.254, 123 117.096 M 45.652 130.491 C 44.095 132.048, 42.484 136.395, 41.573 141.500 C 41.278 143.150, 40.772 145.626, 40.449 147.003 C 39.464 151.199, 41.509 155, 44.753 155 C 49.030 155, 51.655 152.538, 53.967 146.359 C 57.038 138.152, 56.944 134.209, 53.612 131.343 C 50.478 128.647, 47.785 128.358, 45.652 130.491" stroke="none" fill="black" fill-rule="evenodd"/>
</svg>