<svg xmlns="http://www.w3.org/2000/svg" width="256" height="256" viewBox="0 0 256 256" version="1.1">
	<path d="M 54.772 30.745 C 51.787 32.596, 50.003 36.575, 49.994 41.399 C 49.979 49.795, 46.768 56.568, 41.536 59.237 C 35.665 62.232, 34.890 63.678, 36.864 67.955 C 37.764 69.905, 38.824 71.646, 39.221 71.824 C 39.617 72.002, 39.511 72.677, 38.986 73.324 C 29.099 85.495, 25 93.877, 25 101.927 C 25 110.204, 30.127 113.688, 34.873 108.635 C 36.095 107.335, 38.825 102.047, 40.940 96.885 C 44.800 87.463, 46.600 85.593, 49.495 87.996 C 51.646 89.781, 50.701 101.515, 47.362 114.490 C 45.754 120.738, 46.139 127.257, 48.267 129.821 C 48.915 130.602, 49.959 136.086, 50.586 142.007 C 51.909 154.497, 54.109 160.010, 58.355 161.475 C 60.802 162.319, 61.480 162.125, 63.105 160.119 C 65.400 157.284, 65.469 153.951, 63.470 142.485 C 61.689 132.276, 61.378 101.024, 62.997 95.012 C 63.625 92.679, 65.319 90.120, 67.269 88.558 C 69.046 87.134, 71.044 85.527, 71.708 84.985 C 72.372 84.443, 74.229 84, 75.835 84 C 77.441 84, 79.315 83.325, 80 82.500 C 80.685 81.675, 80.875 81, 80.422 81 C 79.970 81, 80.140 80.460, 80.800 79.800 C 82.147 78.453, 82.451 73, 81.179 73 C 80.727 73, 80.251 70.638, 80.121 67.750 C 79.808 60.810, 77.342 56.593, 73.366 56.199 C 71.531 56.017, 69.820 56.512, 69.042 57.449 C 67.131 59.752, 64.448 59.332, 62.547 56.432 C 61.069 54.176, 61.009 53.053, 62.051 47.182 C 64.428 33.801, 64.412 32.402, 61.869 30.621 C 58.999 28.611, 58.191 28.625, 54.772 30.745 M 89.245 34.250 C 87.217 36.785, 86.860 40.246, 88.106 45.308 C 88.809 48.164, 89.347 51.288, 89.303 52.250 C 89.259 53.212, 89.172 54.837, 89.111 55.860 C 89.050 56.884, 87.846 59.422, 86.435 61.501 C 83.141 66.355, 82.603 70.604, 84.864 73.918 C 87.648 78, 89.972 90.530, 90.166 102.500 C 90.497 122.970, 89.875 139.480, 88.602 144 C 87.034 149.566, 87.838 153.111, 91.029 154.702 C 94.126 156.246, 97.793 155.399, 101.036 152.389 C 102.431 151.095, 105.131 149.738, 107.036 149.375 C 117.285 147.420, 122.400 139.400, 116.902 133.902 C 114.782 131.782, 113.026 131.727, 105.732 133.549 C 103.008 134.229, 102.966 134.170, 103.132 129.870 C 103.225 127.467, 102.969 119.996, 102.564 113.268 L 101.827 101.036 104.506 99.815 C 109.109 97.718, 111.611 100.163, 115.912 110.963 C 117.985 116.167, 121.239 122.242, 123.143 124.463 C 125.047 126.683, 127.693 130.300, 129.021 132.500 C 132.490 138.245, 132.807 138.628, 140.226 146.034 C 152.347 158.135, 159.922 158.965, 159.986 148.200 C 160.010 144.191, 157.172 140.221, 151.670 136.569 C 142.904 130.751, 142.467 126.290, 149.851 118 C 151.565 116.075, 153.025 114.050, 153.095 113.500 C 153.439 110.784, 152.642 107.423, 150.932 104.378 C 149.510 101.846, 149.178 99.837, 149.595 96.288 C 149.901 93.691, 150.319 91.293, 150.525 90.960 C 150.730 90.627, 151.034 79.211, 151.199 65.591 L 151.500 40.828 148.694 38.414 C 146.515 36.539, 144.729 35.997, 140.694 35.984 C 137.837 35.976, 132.800 35.317, 129.500 34.520 C 121.602 32.613, 90.720 32.406, 89.245 34.250 M 109.121 47.027 C 102.250 48.031, 99.179 50.765, 100.549 54.657 C 101.812 58.242, 104.290 58.790, 120.252 59.012 C 138.225 59.263, 137 59.480, 137 56.047 C 137 53.075, 135.185 48.033, 134.089 47.962 C 129.985 47.694, 120.735 46.926, 118 46.626 C 116.075 46.414, 112.080 46.595, 109.121 47.027 M 65.638 68.500 C 64.729 70.871, 66.020 73.001, 68.357 72.985 C 72.473 72.955, 75.142 69.620, 72.533 67.765 C 70.714 66.472, 66.234 66.949, 65.638 68.500 M 43.515 72.976 C 42.548 74.541, 44.891 78, 46.919 78 C 47.983 78, 49.011 77.065, 49.344 75.794 C 50.019 73.213, 50.211 73.452, 46.811 72.637 C 45.332 72.283, 43.849 72.435, 43.515 72.976 M 130 73.165 C 128.609 73.733, 124.616 73.925, 121 73.599 C 114.565 73.019, 103.559 74.462, 101.361 76.174 C 99.718 77.453, 99.087 81.828, 100.390 82.904 C 102.227 84.421, 107.829 85.071, 121.290 85.329 C 136.522 85.620, 138.150 84.869, 137.454 77.875 C 137.226 75.582, 136.918 73.603, 136.770 73.477 C 135.603 72.488, 132.061 72.324, 130 73.165 M 130.250 99.161 C 124.747 101.830, 124.625 104.603, 129.767 110.116 C 134.285 114.960, 136.872 114.795, 142.355 109.311 C 145.438 106.228, 145.734 105.510, 144.780 103.416 C 144.182 102.105, 142.412 100.465, 140.847 99.772 C 139.281 99.079, 138 98.172, 138 97.756 C 138 96.427, 134.627 97.038, 130.250 99.161" stroke="none" fill="black" fill-rule="evenodd"/>
</svg>