<svg xmlns="http://www.w3.org/2000/svg" width="256" height="256" viewBox="0 0 256 256" version="1.1">
	<path d="M 53.455 31.455 C 51.180 33.729, 51 34.633, 51 43.780 C 51 52.737, 50.792 53.843, 48.750 55.720 C 47.513 56.858, 44.578 58.103, 42.228 58.486 C 37.453 59.265, 34.654 62.861, 35.989 66.500 C 36.874 68.911, 36.589 69.919, 33.018 77 C 26.386 90.153, 24.054 101.996, 27.009 107.518 C 29.176 111.565, 33.809 110.689, 36.881 105.651 C 39.624 101.152, 44 83.795, 44 77.411 C 44 72.462, 44.192 72.001, 46.250 72.015 C 47.487 72.024, 48.978 72.361, 49.562 72.765 C 51.792 74.308, 51.785 96.464, 49.551 109.730 C 47.260 123.329, 47.153 125.885, 48.708 129.902 C 49.433 131.773, 50.501 137.623, 51.082 142.902 C 52.302 153.987, 55.313 160.539, 59.692 161.638 C 64.708 162.896, 65.238 160.590, 64.319 141.500 C 63.868 132.150, 63.574 117.525, 63.665 109 C 63.809 95.373, 64.132 92.594, 66.340 86 C 68.735 78.847, 68.982 78.515, 71.676 78.818 C 73.229 78.993, 74.928 79.555, 75.450 80.068 C 75.973 80.581, 77.885 81, 79.700 81 C 85.028 81, 86.972 83.802, 87.157 91.750 C 87.561 109.142, 87.797 113.853, 88.493 118.500 C 89.437 124.804, 89.456 127.231, 88.656 139.195 C 87.900 150.503, 88.785 154, 92.404 154 C 93.753 154, 95.532 153.325, 96.358 152.499 C 98.040 150.817, 99.639 143.603, 100.397 134.275 C 100.885 128.273, 102.294 123.999, 103.785 124.001 C 104.178 124.001, 107.875 124.717, 112 125.592 C 122.368 127.790, 132.344 127.096, 138.309 123.763 C 142.821 121.241, 142.901 121.233, 144.638 123.152 C 146.733 125.468, 147.098 126.883, 147.326 133.594 C 147.552 140.201, 146.061 142, 140.363 142 C 136.505 142, 135.737 142.385, 134.048 145.161 C 132.379 147.905, 132.292 148.730, 133.382 151.411 C 134.976 155.328, 140.373 159.017, 144.398 158.942 C 146.104 158.910, 149.946 157.672, 152.935 156.192 C 160.744 152.324, 160.986 151.245, 160.916 120.637 C 160.851 92.364, 160.062 84.839, 156.357 77.179 C 153.042 70.325, 150.939 69.363, 141.981 70.601 C 134.432 71.644, 131.641 71.112, 130.612 68.431 C 129.778 66.257, 127 42.772, 127 37.891 C 127 31.157, 120.428 26.370, 116.945 30.567 C 116.230 31.428, 115.674 33.566, 115.709 35.317 C 116.161 57.605, 115.617 68.784, 114.001 70.397 C 113.286 71.110, 108.115 71.439, 99.362 71.327 C 84.281 71.135, 82 70.270, 82 64.749 C 82 63.132, 81.228 60.502, 80.284 58.904 C 78.686 56.198, 78.148 56, 72.407 56 C 63.510 56, 63.057 55.071, 64.033 38.815 C 64.561 30.025, 58.854 26.055, 53.455 31.455 M 89.966 41.541 C 88.248 43.611, 88.662 55.810, 90.548 58.703 C 92.554 61.779, 98.298 62.705, 102.611 60.648 C 108.090 58.036, 106.948 54.002, 98.112 44.750 C 93.236 39.644, 91.958 39.141, 89.966 41.541 M 146.840 44.551 C 144.453 47.054, 142.231 49.863, 141.902 50.794 C 140.767 54.002, 142.575 57.464, 146.569 59.734 C 151.552 62.565, 151.952 62.549, 155.807 59.355 C 159.277 56.481, 159.731 53.859, 158.031 46.527 C 157.132 42.647, 154.847 40, 152.399 40 C 151.729 40, 149.227 42.048, 146.840 44.551 M 67.667 64.667 C 66.376 65.957, 67.003 72.758, 68.529 74.024 C 69.798 75.077, 70.480 74.898, 72.529 72.972 C 75.523 70.160, 75.626 68.626, 73 66 C 70.974 63.974, 68.882 63.451, 67.667 64.667 M 101.229 88.473 C 99.634 90.339, 99.637 90.398, 101.505 94.010 C 103.286 97.454, 103.336 97.470, 106.285 95.582 C 107.503 94.801, 109.625 94.014, 111 93.832 C 112.375 93.649, 113.805 93.077, 114.177 92.559 C 114.932 91.510, 124.156 91.722, 124.977 92.808 C 125.265 93.189, 125.950 93.578, 126.500 93.672 C 129.953 94.267, 137.126 98.263, 138.497 100.356 C 140.021 102.681, 139.992 103.095, 138.041 106.919 C 135.535 111.832, 133.581 112.091, 126.318 108.471 C 123.527 107.080, 117.294 105.253, 112.468 104.411 C 102.398 102.653, 101.877 102.916, 102.176 109.613 C 102.363 113.813, 105.325 118.902, 106.487 117.021 C 106.843 116.445, 111.126 116.002, 116.309 116.005 C 122.415 116.008, 127.079 115.444, 130.205 114.323 C 134.705 112.711, 135.066 112.721, 138.470 114.554 C 144.577 117.843, 146.319 114.975, 146.402 101.500 C 146.450 93.587, 145.491 90.368, 142.501 88.409 C 140.643 87.191, 139.351 87.024, 137.267 87.732 C 134.324 88.732, 109.206 88.627, 105 87.597 C 103.389 87.203, 102.048 87.514, 101.229 88.473" stroke="none" fill="black" fill-rule="evenodd"/>
</svg>