<svg xmlns="http://www.w3.org/2000/svg" width="256" height="256" viewBox="0 0 256 256" version="1.1">
	<path d="M 118.108 27.637 C 116.059 29.072, 115.830 29.881, 116.248 34.226 C 116.643 38.343, 116.367 39.519, 114.612 41.191 C 112.675 43.036, 111.755 43.137, 103.500 42.414 C 92.758 41.474, 92.750 41.474, 67.928 42.699 C 52.037 43.483, 47.618 44.026, 44.428 45.582 C 40.590 47.456, 40.485 47.648, 39.860 54 C 39.509 57.575, 38.881 62.453, 38.467 64.839 C 37.999 67.528, 38.231 71.901, 39.076 76.339 C 39.826 80.278, 40.429 85.300, 40.417 87.500 C 40.354 98.902, 38.703 113.541, 36.525 122 C 29.363 149.818, 28.761 153.904, 31.429 156.571 C 35.788 160.931, 41.698 155.112, 43.686 144.500 C 44.485 140.237, 46.135 134.349, 47.470 131 C 50.214 124.117, 53.111 93.675, 52.835 74.626 C 52.623 59.950, 52.831 56.719, 54.039 55.955 C 56.204 54.585, 104.949 54.748, 109.101 56.139 C 114.129 57.823, 116.800 60.598, 116.235 63.552 C 115.517 67.308, 114.376 67.442, 107.893 64.533 C 103.039 62.354, 99.890 61.750, 90.932 61.277 C 74.601 60.416, 62.909 63.793, 61.348 69.823 C 60.055 74.817, 63.853 75.622, 88 75.472 C 103.550 75.376, 107.034 75.078, 109.848 73.603 C 115.747 70.510, 116.668 70.708, 117.862 75.328 C 118.455 77.623, 119.109 82.650, 119.315 86.500 C 119.921 97.828, 116.516 103.124, 111.276 99.003 C 109.876 97.901, 109.032 97, 109.400 97 C 109.769 97, 109.649 96.213, 109.134 95.250 C 108.619 94.288, 107.978 92.100, 107.708 90.388 C 106.938 85.497, 105.290 83.251, 101.571 82.023 C 97.123 80.556, 88.805 80.499, 86.154 81.918 C 85.015 82.527, 81.226 82.964, 77.733 82.888 C 68.079 82.679, 62.624 86.221, 62.932 92.500 C 63.737 108.940, 63.603 108.262, 66.519 110.770 C 68.490 112.465, 70.097 113.031, 71.913 112.667 C 76.183 111.814, 81.198 113.302, 82.079 115.686 C 82.761 117.528, 82.337 118.048, 79.100 119.343 C 76.801 120.263, 73.766 120.644, 71.336 120.318 C 61.652 119.019, 54.706 127.492, 53.616 141.934 C 53.203 147.412, 53.421 149.278, 54.615 150.472 C 58.101 153.958, 64.862 150.760, 65.125 145.500 C 65.306 141.873, 65.353 141.729, 67.195 139.116 C 68.755 136.903, 68.993 136.851, 70.522 138.379 C 71.427 139.285, 72.584 141.529, 73.091 143.368 C 73.599 145.206, 74.911 147.744, 76.007 149.008 C 77.103 150.272, 78 151.687, 78 152.153 C 78 152.619, 78.873 153, 79.941 153 C 81.009 153, 82.128 153.398, 82.428 153.884 C 83.439 155.520, 91.952 159, 94.942 159 C 97.909 159, 102.939 157.198, 103.069 156.089 C 103.994 148.173, 105.279 147.075, 113.668 147.032 C 119.580 147.001, 119.924 146.860, 121.918 143.632 C 124.716 139.106, 124.572 134.833, 121.500 131.182 C 120.125 129.548, 118.993 127.151, 118.985 125.856 C 118.976 124.560, 118.558 122.849, 118.054 122.054 C 116.564 119.698, 118.689 117, 122.035 117 C 123.666 117, 125 117.381, 125 117.847 C 125 118.313, 125.900 119.732, 127 121 C 128.100 122.268, 129 124.587, 129 126.153 C 129 127.719, 129.340 129, 129.756 129 C 130.574 129, 132.427 132.987, 133.474 137 C 134.560 141.164, 136.383 144.405, 138.691 146.276 C 139.896 147.253, 141.163 148.939, 141.507 150.023 C 142.185 152.158, 149.668 157, 152.291 157 C 155.907 157, 158.668 154.590, 161.796 148.703 C 165.884 141.009, 166.359 134.329, 163.128 129.960 C 161.958 128.376, 161 126.721, 161 126.281 C 161 125.841, 160.095 124.916, 158.989 124.225 C 157.327 123.187, 156.544 123.252, 154.489 124.599 C 151.969 126.250, 151.618 127.043, 151.958 130.313 C 152.062 131.311, 151.404 133.261, 150.495 134.647 C 148.921 137.050, 148.778 137.082, 147.454 135.334 C 146.689 134.325, 146.049 132.825, 146.032 132 C 146.014 131.175, 143.897 126.776, 141.327 122.226 C 138.161 116.621, 135.925 113.768, 134.396 113.385 C 132.449 112.896, 132.046 111.944, 131.456 106.432 C 131.080 102.919, 131.122 98.798, 131.550 97.273 C 131.978 95.748, 132.263 94.187, 132.182 93.805 C 132.025 93.055, 135.970 90.205, 140 88.158 C 144.108 86.071, 145.441 84.730, 148.287 79.822 C 151.666 73.995, 151.675 72.530, 148.354 69.452 C 145.146 66.479, 141.930 66.315, 139.500 69 C 137.669 71.023, 134.447 71.580, 132.361 70.235 C 131.046 69.386, 129.014 62.630, 129.006 59.079 C 129.003 57.747, 129.708 55.876, 130.572 54.920 C 132.064 53.271, 132.486 53.280, 138.819 55.091 C 147.591 57.600, 149.725 57.472, 154.500 54.155 C 159.631 50.590, 159.402 48.025, 153.428 42.131 C 149.748 38.500, 149 37.127, 149 33.996 C 149 31.138, 148.429 29.856, 146.632 28.678 C 144.489 27.274, 144.050 27.277, 142.010 28.706 C 140.017 30.102, 139.824 30.867, 140.349 35.303 C 141.040 41.129, 139.618 42.916, 134.250 42.968 C 129.697 43.013, 127 40.032, 127 34.955 C 127 31.993, 126.343 30.252, 124.545 28.455 C 121.644 25.553, 121.170 25.492, 118.108 27.637 M 79.150 95.439 C 77.129 97.434, 76.968 98.071, 77.999 99.998 C 79.126 102.104, 79.620 102.197, 86.209 101.548 C 93.096 100.869, 98 99.378, 98 97.961 C 98 96.709, 86.449 92.940, 83 93.066 C 82.175 93.096, 80.443 94.164, 79.150 95.439 M 95.667 113.667 C 94.515 114.818, 94.938 117.975, 96.578 120.479 C 97.447 121.804, 98.365 124.206, 98.618 125.817 C 98.995 128.203, 98.656 128.879, 96.790 129.464 C 94.347 130.230, 88.577 130.199, 85.842 129.405 C 84.433 128.996, 84.223 129.671, 84.442 133.892 C 84.959 143.853, 87.926 146.987, 95.494 145.567 C 98.717 144.963, 101.673 142.007, 100.365 140.698 C 100.054 140.387, 100.170 139.541, 100.622 138.817 C 101.423 137.534, 102.023 135.525, 102.209 133.500 C 102.260 132.950, 101.973 131.037, 101.571 129.250 C 101.050 126.931, 101.198 126, 102.087 126 C 102.773 126, 103.106 125.772, 102.827 125.494 C 102.549 125.216, 104.049 123.172, 106.161 120.952 C 108.272 118.732, 110 116.035, 110 114.958 C 110 113.205, 109.284 113, 103.167 113 C 99.408 113, 96.033 113.300, 95.667 113.667" stroke="none" fill="black" fill-rule="evenodd"/>
</svg>