<svg xmlns="http://www.w3.org/2000/svg" width="256" height="256" viewBox="0 0 256 256" version="1.1">
	<path d="M 123.482 26.632 C 118.417 28.110, 97.855 30.012, 82 30.468 C 52.075 31.328, 45.674 32.301, 44.445 36.173 C 43.508 39.125, 45.707 40.810, 52.018 41.978 C 60.598 43.566, 62 44.625, 62 49.521 C 62 54.526, 58.631 60.094, 54.989 61.108 C 53.620 61.489, 50.613 61.845, 48.306 61.900 C 45.433 61.969, 43.240 62.750, 41.345 64.379 C 38.905 66.479, 38.532 67.595, 38.177 73.865 C 37.957 77.773, 38.072 82.149, 38.433 83.588 C 39.035 85.989, 39.397 86.151, 42.795 85.550 C 44.833 85.189, 47.175 84.703, 48 84.470 C 50.674 83.714, 51.967 85.497, 53.137 91.556 C 54.218 97.151, 57.104 102, 59.353 102 C 60.524 102, 67 95.148, 67 93.909 C 67 93.448, 67.941 92.567, 69.091 91.951 C 73.643 89.515, 80.742 95.659, 81.710 102.871 C 82.114 105.890, 81.723 107.004, 79.464 109.264 C 77.959 110.769, 76.114 112, 75.364 112 C 74.614 112, 74 112.375, 74 112.833 C 74 114.402, 70.500 113.811, 65.324 111.368 C 61.665 109.641, 59.320 109.123, 57.324 109.600 C 52.782 110.687, 51.876 111.832, 53.789 114.066 C 54.699 115.130, 55.456 116.961, 55.472 118.136 C 55.507 120.767, 59.507 123.900, 63.512 124.432 C 68.263 125.063, 69.832 125.987, 71.858 129.349 C 77.159 138.146, 74.548 144.809, 65.467 145.664 C 59.343 146.241, 49.963 148.822, 47.532 150.600 C 45.834 151.842, 45.824 152.082, 47.370 154.442 C 49.459 157.629, 53.772 159.872, 59.233 160.610 C 62.647 161.071, 64.799 160.591, 70 158.206 C 73.575 156.566, 77.471 154.932, 78.657 154.575 C 79.844 154.217, 82.769 152.371, 85.157 150.472 C 88.895 147.500, 90.254 147.018, 94.912 147.010 C 100.519 147, 107.123 148.633, 117.592 152.618 C 121.507 154.108, 127.067 155.175, 133.146 155.603 C 141.404 156.183, 143.193 156.008, 147.218 154.228 C 152.805 151.756, 154.741 148.884, 152.398 146.541 C 150.226 144.369, 145.087 142.317, 140.390 141.747 C 138.250 141.487, 132.821 140.437, 128.324 139.413 C 121.593 137.880, 120.077 137.181, 119.747 135.457 C 119.132 132.239, 120.182 130.343, 124 127.777 C 127.918 125.144, 130.409 120.865, 129.567 118.212 C 129.261 117.247, 127.683 115.004, 126.061 113.228 C 123.527 110.454, 122.437 109.998, 118.306 109.985 C 115.663 109.976, 112.837 109.550, 112.026 109.037 C 111.055 108.423, 110.294 108.513, 109.792 109.303 C 109.322 110.042, 109.025 109.575, 109.015 108.083 C 109.007 106.754, 109.282 105.949, 109.627 106.293 C 110.694 107.361, 115.321 104.396, 119.290 100.101 C 123.700 95.330, 128.370 94.541, 131.529 98.032 C 134.657 101.488, 139.815 104.153, 142.729 103.818 C 145.160 103.539, 145.459 103.132, 145.169 100.500 C 143.980 89.719, 144.501 88.224, 150.933 83.959 C 153.025 82.571, 153.307 81.466, 153.756 72.881 C 154.251 63.406, 154.237 63.332, 151.492 61.173 C 149.317 59.461, 147.384 59, 142.388 59 C 136.780 59, 135.862 58.720, 134.458 56.576 C 133.008 54.363, 133.008 53.886, 134.456 51.085 C 135.402 49.255, 135.788 47.005, 135.413 45.508 C 135.053 44.075, 135.473 41.276, 136.392 38.979 C 138.580 33.510, 138.415 31.318, 135.681 29.527 C 133.353 28.002, 125.321 26.095, 123.482 26.632 M 111.256 42.015 C 100.514 43.583, 101 43.157, 101 50.993 C 101 57.742, 101.091 57.996, 104.062 59.532 C 106.611 60.850, 108.015 60.931, 112.429 60.015 C 118.989 58.653, 121.416 56.117, 122.713 49.271 C 123.557 44.818, 123.454 43.816, 122.023 42.521 C 120.216 40.885, 119.294 40.842, 111.256 42.015 M 76.465 43.952 C 72.788 45.442, 71.706 47.697, 72.269 52.697 C 72.871 58.033, 74.402 59.554, 80.150 60.525 C 83.850 61.151, 89.940 59.675, 90.041 58.129 C 90.064 57.783, 90.333 54.899, 90.638 51.719 C 91.356 44.250, 90.328 42.981, 83.628 43.063 C 80.807 43.098, 77.584 43.498, 76.465 43.952 M 128.339 72.739 C 126.251 73.462, 121.210 74.183, 117.138 74.341 C 109.949 74.620, 109.627 74.743, 106.085 78.564 C 102.434 82.504, 100 83.878, 100 82 C 100 81.450, 99.126 81, 98.057 81 C 96.988 81, 95.525 80.160, 94.807 79.134 C 93.313 77.002, 87.999 75.473, 83.289 75.822 C 81.523 75.953, 78.431 75.371, 76.417 74.530 C 72.207 72.771, 67.964 72.584, 63.571 73.965 C 61.882 74.496, 59.375 75.167, 58 75.456 C 56.625 75.746, 54.825 76.445, 54 77.011 C 52.716 77.892, 52.840 78.326, 54.854 80.015 C 56.149 81.101, 57.628 81.730, 58.141 81.413 C 58.653 81.096, 61.612 81.635, 64.714 82.611 L 70.355 84.385 75.145 81.711 C 77.779 80.241, 80.544 79.272, 81.290 79.558 C 82.035 79.844, 84.188 82.479, 86.073 85.414 C 90.194 91.830, 94.061 94.195, 99.868 93.853 C 102.211 93.715, 104.323 93.286, 104.561 92.901 C 104.799 92.516, 107.358 91.654, 110.247 90.985 C 114.094 90.094, 116.705 88.629, 120 85.512 C 126.180 79.665, 127.511 79.088, 132.120 80.259 C 139.107 82.032, 143.561 76.382, 138.286 72.437 C 136.178 70.862, 133.529 70.942, 128.339 72.739 M 98.687 108.052 C 94.677 111.299, 99.696 113.349, 105.293 110.750 C 106.773 110.063, 107.988 108.809, 107.992 107.964 C 108.003 105.848, 101.331 105.912, 98.687 108.052 M 94.758 123.575 C 94.442 123.891, 93.355 124.307, 92.342 124.499 C 91.329 124.690, 90.275 124.895, 90 124.955 C 88.694 125.236, 97.764 129.990, 99.615 129.995 C 100.778 129.998, 102.940 129.048, 104.420 127.885 L 107.109 125.769 104.440 124.385 C 101.762 122.995, 95.834 122.499, 94.758 123.575" stroke="none" fill="black" fill-rule="evenodd"/>
</svg>