<svg xmlns="http://www.w3.org/2000/svg" width="256" height="256" viewBox="0 0 256 256" version="1.1">
	<path d="M 53.888 30.500 C 50.631 32.270, 49.310 35.675, 48.640 44.033 C 47.880 53.505, 46.740 55.785, 41.636 58.043 C 35.851 60.602, 35.048 61.755, 35.160 67.343 C 35.222 70.424, 34.685 72.690, 33.613 73.875 C 31.085 76.669, 26.038 93.831, 26.018 99.703 C 25.985 109.448, 30.524 113.358, 34.780 107.250 C 37.817 102.892, 42.014 86.403, 42.007 78.857 C 42.002 73.794, 42.366 72.073, 43.540 71.623 C 45.484 70.877, 48.974 72.997, 49.081 74.991 C 49.126 75.821, 49.320 77.850, 49.512 79.500 C 50.486 87.860, 49.866 100.530, 48.027 109.863 C 45.617 122.090, 45.479 127.275, 47.482 130.333 C 48.301 131.582, 49.449 137.273, 50.047 143.047 C 50.642 148.796, 51.585 154.961, 52.141 156.747 C 53.998 162.704, 60.476 165.014, 63.443 160.777 C 65.539 157.785, 65.403 153.408, 62.910 143.667 C 61.027 136.310, 60.861 133.368, 61.235 114 C 61.627 93.626, 62.193 88.806, 65.429 78.288 C 66.142 75.971, 66.370 73.946, 65.937 73.788 C 65.503 73.629, 64.841 72.263, 64.466 70.750 C 63.791 68.032, 63.840 68, 68.642 68.015 C 72.147 68.026, 73.082 68.301, 72 69 C 71.175 69.533, 70.893 69.976, 71.372 69.985 C 71.852 69.993, 71.775 70.566, 71.201 71.258 C 69.952 72.763, 76.328 80.084, 80.987 82.493 C 83.902 84, 84.679 85.752, 86.540 95 C 86.927 96.925, 88.034 100.075, 88.999 102 C 90.023 104.042, 90.561 106.773, 90.291 108.557 C 89.986 110.579, 90.366 112.059, 91.415 112.929 C 92.287 113.653, 93 114.757, 93 115.383 C 93 116.008, 94.172 117.784, 95.604 119.328 C 97.612 121.494, 98.098 122.864, 97.729 125.318 C 97.453 127.153, 98.044 130.526, 99.126 133.287 C 100.156 135.920, 101 139.612, 101 141.492 C 101 144.665, 100.732 144.953, 97.250 145.522 C 89.006 146.869, 87.838 147.257, 85.956 149.278 C 82.864 152.596, 83.405 156.667, 87.250 159.011 C 89.037 160.101, 91.690 160.994, 93.145 160.996 C 97.601 161.003, 108.736 157.093, 111.940 154.397 C 119.167 148.316, 126.638 148.373, 138.637 154.602 C 146.379 158.620, 148.097 159.145, 152.218 158.751 C 159.500 158.054, 163.599 151.638, 159.250 147.742 C 157.749 146.397, 151.535 144.283, 143.282 142.310 C 139.500 141.405, 139.604 138.536, 143.665 131.669 C 146.156 127.458, 148.650 124.632, 150.973 123.388 C 155.433 121, 156.226 116.934, 152.918 113.413 C 151.689 112.105, 149.930 110.795, 149.008 110.503 C 147.306 109.962, 146.643 107.104, 148.167 106.875 C 148.625 106.806, 149.338 106.650, 149.750 106.527 C 150.162 106.405, 152.443 105.948, 154.818 105.513 C 157.761 104.975, 159.653 103.933, 160.761 102.242 C 162.266 99.946, 162.252 98.824, 160.577 87.131 C 159.394 78.878, 158.790 68.954, 158.832 58.500 C 158.905 40.796, 158.050 35.734, 154.607 33.478 C 151.480 31.429, 93.804 30.416, 89.943 32.342 C 87.521 33.550, 87.499 33.690, 87.353 49.030 C 87.250 59.845, 87.580 65.102, 88.449 66.500 C 90.915 70.470, 90.894 73.840, 88.392 75.479 C 87.115 76.315, 85.465 77, 84.724 77 C 82.512 77, 75.133 68.404, 76.058 66.905 C 76.504 66.185, 76.665 65.268, 76.418 64.867 C 76.170 64.466, 76.425 63.856, 76.984 63.510 C 78.629 62.493, 78.149 58.445, 76.171 56.655 C 74.932 55.534, 72.554 55, 68.794 55 C 61.480 55, 60.539 53.826, 61.364 45.734 C 61.713 42.305, 62.269 38.082, 62.599 36.349 C 63.055 33.949, 62.698 32.698, 61.099 31.099 C 58.657 28.657, 57.461 28.558, 53.888 30.500 M 101.250 43.662 C 99.412 44.404, 99.647 55.416, 101.580 59.155 C 103.137 62.165, 103.244 62.200, 108.830 61.520 C 111.949 61.140, 114.927 60.418, 115.450 59.915 C 115.972 59.412, 117.547 58.978, 118.950 58.952 C 121.362 58.907, 121.316 58.812, 118.083 57.202 C 113.221 54.780, 113.323 52.481, 118.425 49.491 C 120.763 48.121, 123.424 47, 124.338 47 C 127.286 47, 126.103 44.271, 122.875 43.625 C 119.229 42.896, 103.080 42.924, 101.250 43.662 M 132.500 44 C 129.200 44.365, 127.175 44.746, 128 44.847 C 129.333 45.010, 129.333 45.138, 128 46 C 126.792 46.781, 126.947 46.972, 128.798 46.985 C 131.714 47.004, 136 51.563, 136 54.646 C 136 55.941, 135.550 57, 135 57 C 133.344 57, 133.871 60.021, 136 62.727 C 138.660 66.109, 138.522 68.569, 135.500 71.591 C 132.622 74.468, 132.566 74.615, 134.250 74.817 C 134.938 74.899, 136.850 75.232, 138.500 75.557 C 142.758 76.395, 147.137 74.566, 146.341 72.282 C 146 71.302, 145.048 69.956, 144.226 69.292 C 143.102 68.383, 142.882 66.894, 143.339 63.292 C 145.366 47.294, 145.343 46.353, 142.875 44.625 C 141.599 43.731, 140.093 43.076, 139.527 43.168 C 138.962 43.261, 135.800 43.635, 132.500 44 M 100.476 71.075 C 99.604 73.822, 99.789 73.933, 106.085 74.440 C 109.063 74.680, 113.162 75.184, 115.194 75.560 C 119.242 76.309, 126 75.390, 126 74.091 C 126 73.641, 123.361 72.713, 120.136 72.029 C 115.720 71.092, 113.747 71.065, 112.150 71.920 C 110.392 72.861, 109.730 72.708, 108.292 71.028 C 105.961 68.306, 101.346 68.334, 100.476 71.075 M 95.814 86.510 C 94.831 88.667, 94.998 89.369, 97.009 91.510 C 99.840 94.523, 101.370 94.630, 104 92 C 106.801 89.199, 106.557 86.162, 103.435 84.975 C 99.240 83.380, 97.037 83.824, 95.814 86.510 M 121 85.897 C 121 86.441, 120.100 86.712, 119 86.500 C 115.959 85.914, 116.229 90.590, 119.280 91.355 C 121.476 91.906, 126 91.221, 126 90.338 C 126 90.102, 124.875 88.784, 123.500 87.409 C 122.125 86.034, 121 85.354, 121 85.897 M 138.463 87.417 C 137.130 89.451, 137.086 90.169, 138.190 91.954 C 140.632 95.906, 146.355 95.864, 148.846 91.875 C 150.042 89.960, 149.912 89.473, 147.637 87.364 C 144.310 84.279, 140.504 84.301, 138.463 87.417 M 111.523 122.360 C 109.725 123.674, 109.737 123.822, 111.900 126.860 C 113.130 128.587, 114.668 130.034, 115.318 130.076 C 115.968 130.117, 118.300 130.301, 120.500 130.484 C 127.324 131.052, 134.575 127.097, 131.689 124.381 C 128.225 121.122, 115.026 119.798, 111.523 122.360" stroke="none" fill="black" fill-rule="evenodd"/>
</svg>