<svg xmlns="http://www.w3.org/2000/svg" width="256" height="256" viewBox="0 0 256 256" version="1.1">
	<path d="M 117.953 30.250 C 116.168 32.140, 115.936 33.219, 116.504 37 C 116.876 39.475, 117.300 42.400, 117.446 43.500 C 117.857 46.593, 115.288 51.774, 112.979 52.507 C 109.921 53.477, 106.808 50.950, 104.208 45.388 C 98.174 32.475, 96.533 30.543, 93.317 32.572 C 89.997 34.666, 89.508 36.624, 90.787 42.704 C 91.885 47.922, 91.823 48.749, 90.163 51 C 87.009 55.278, 83.714 56.328, 79.296 54.462 C 77.208 53.581, 73.025 52.857, 70 52.854 C 66.975 52.851, 63.769 52.645, 62.876 52.397 C 60.633 51.773, 59.873 45.964, 61.182 39.446 C 62.101 34.874, 62.014 33.670, 60.610 31.527 C 58.556 28.393, 53.341 28.094, 49.861 30.910 C 47.737 32.629, 47.447 33.843, 46.970 43.013 C 46.348 54.962, 45.584 56, 37.416 56 C 33.595 56, 32.053 56.420, 31.607 57.582 C 30.647 60.083, 30.920 63.289, 32.324 66 C 33.460 68.194, 33.324 69.035, 31.209 72.873 C 29.883 75.278, 27.725 81.128, 26.412 85.873 C 22.808 98.899, 23.402 107.041, 28.064 108.520 C 31.312 109.551, 34.248 105.817, 37.440 96.594 C 40.756 87.013, 41.637 79.582, 39.940 75.500 C 38.115 71.110, 38.060 70.300, 39.463 68.382 C 40.577 66.858, 41.114 66.805, 43.866 67.944 C 45.805 68.748, 47 69.959, 47 71.121 C 47 72.155, 47.354 73, 47.786 73 C 48.696 73, 48.380 101.317, 47.395 108 C 46.275 115.605, 46.131 118.068, 46.046 131.138 C 46.001 138.089, 46.422 144.980, 46.982 146.453 C 47.542 147.925, 48.002 150.338, 48.004 151.815 C 48.006 153.292, 48.899 155.963, 49.989 157.750 C 51.622 160.429, 52.591 161, 55.501 161 C 58.537 161, 59.261 160.520, 60.664 157.578 C 61.967 154.846, 62.104 153.183, 61.345 149.328 C 60.822 146.673, 60.497 141.350, 60.623 137.500 C 60.864 130.134, 60.891 122.260, 60.744 102.500 C 60.660 91.106, 62.505 80.142, 65.977 71.415 C 66.923 69.039, 81.980 62.519, 85.840 62.814 C 88.848 63.044, 94 66.699, 94 68.603 C 94 69.993, 91.275 74.925, 89.913 76 C 89.564 76.275, 88.547 77.929, 87.652 79.675 C 86.153 82.602, 86.152 83.242, 87.640 87.849 C 89.751 94.383, 88.911 97.360, 84.213 100 C 80.877 101.876, 77.972 106.010, 77.380 109.725 C 77.272 110.399, 76.440 112.900, 75.530 115.282 L 73.876 119.613 78.570 124.306 C 81.151 126.888, 84.034 129, 84.977 129 C 87.715 129, 90.404 132.747, 90.299 136.420 C 90.248 138.250, 89.284 141.830, 88.159 144.374 L 86.112 149 90.696 149 C 95.657 149, 96.926 148.016, 99.497 142.174 C 100.634 139.591, 102.307 138.254, 106.989 136.184 C 110.305 134.719, 113.243 132.810, 113.518 131.943 C 113.793 131.075, 114.177 126.677, 114.371 122.168 C 114.698 114.575, 114.937 113.787, 117.612 111.486 C 121.038 108.540, 121.762 108.477, 124.855 110.856 L 127.210 112.667 125.281 116.584 C 122.696 121.830, 122.413 128.373, 124.565 133.144 C 126.222 136.818, 126.524 137, 130.961 137 C 137.152 137, 138.799 138.449, 139.486 144.500 C 141.076 158.512, 142.359 161, 147.993 161 C 153.227 161, 154.375 159.258, 153.408 152.780 C 152.508 146.748, 152.592 147.107, 151.504 144.614 C 151.052 143.577, 151.091 142.084, 151.591 141.297 C 152.455 139.936, 153.705 139.173, 160.401 135.912 C 164.956 133.695, 165.810 131.562, 163.422 128.363 C 162.310 126.874, 160.529 125.170, 159.464 124.577 C 155.560 122.405, 150.076 114.591, 151.474 113.193 C 151.816 112.851, 154.211 111.430, 156.798 110.036 C 162.495 106.964, 163.313 104.178, 159.420 101.115 C 157.940 99.952, 155.975 99, 155.052 99 C 154.129 99, 152.081 97.650, 150.500 96 C 147.900 93.286, 147.817 93, 149.631 93 C 150.734 93, 153.969 92.308, 156.818 91.461 C 161.626 90.034, 162 89.697, 162 86.799 C 162 83.585, 158.256 76.256, 154.898 72.898 C 152.058 70.058, 152.583 68.201, 156.715 66.475 C 161.032 64.671, 161.964 63.496, 161.985 59.826 C 161.995 58, 161.024 56.415, 158.923 54.826 C 152.907 50.278, 151 48.059, 151 45.604 C 151 44.237, 151.450 42.840, 152 42.500 C 153.697 41.451, 153.133 35.431, 151.171 33.655 C 147.972 30.759, 144.613 31.554, 142.313 35.750 C 141.183 37.813, 139.993 40.632, 139.669 42.015 C 139.345 43.399, 137.539 46.023, 135.656 47.848 L 132.233 51.166 130.117 48.895 C 128.388 47.039, 128 45.366, 128 39.766 C 128 33.819, 127.674 32.583, 125.545 30.455 C 122.501 27.410, 120.681 27.361, 117.953 30.250 M 107.519 66.100 C 107.742 67.254, 108.728 68.942, 109.712 69.850 C 112.380 72.312, 111.900 74.434, 107.489 79.671 C 102.199 85.951, 98.744 92.987, 100.130 94.657 C 100.703 95.347, 100.901 96.351, 100.570 96.887 C 99.653 98.371, 101.734 99.248, 109.453 100.632 C 119.398 102.414, 121.322 102.315, 122.801 99.947 C 123.925 98.147, 123.708 97.419, 121.042 94.053 C 118.347 90.651, 118 89.458, 118 83.606 C 118 79.954, 117.561 77, 117.019 77 C 116.480 77, 115.741 75.763, 115.377 74.250 C 114.113 68.989, 111.027 64, 109.037 64 C 107.623 64, 107.222 64.555, 107.519 66.100 M 131.651 78.468 C 131.341 79.275, 131.095 83.549, 131.105 87.964 C 131.115 92.380, 130.873 96.397, 130.567 96.891 C 130.262 97.386, 130.720 98.062, 131.585 98.394 C 133.588 99.163, 138.152 98.055, 137.478 96.964 C 137.198 96.511, 138.551 95.569, 140.484 94.869 C 142.418 94.170, 144 93.239, 144 92.799 C 144 92.360, 145.350 92, 147 92 C 150.103 92, 150.746 91.146, 148.977 89.377 C 148.061 88.461, 147.503 86.735, 146.598 82.014 C 146.295 80.431, 137.937 77.011, 134.357 77.004 C 133.178 77.002, 131.961 77.661, 131.651 78.468 M 93.235 112.497 C 88.878 114.390, 88.214 116.534, 91.048 119.551 C 94.145 122.848, 97.378 122.682, 99.932 119.096 C 102.583 115.373, 102.534 114.580, 99.535 112.615 C 96.642 110.720, 97.297 110.732, 93.235 112.497 M 136 117 C 136 117.550, 136.702 118, 137.559 118 C 138.416 118, 138.840 117.550, 138.500 117 C 138.160 116.450, 137.459 116, 136.941 116 C 136.423 116, 136 116.450, 136 117" stroke="none" fill="black" fill-rule="evenodd"/>
</svg>