<svg xmlns="http://www.w3.org/2000/svg" width="256" height="256" viewBox="0 0 256 256" version="1.1">
	<path d="M 112.500 29.542 C 109.750 30.316, 100.075 31.395, 91 31.939 C 57.679 33.936, 55.945 34.144, 53.253 36.459 C 51.189 38.234, 50.693 39.705, 50.354 45.050 C 50.130 48.598, 49.642 52.625, 49.270 54 C 48.898 55.375, 48.558 68.200, 48.513 82.500 L 48.431 108.500 45.738 114.231 C 44.257 117.383, 41.896 124.493, 40.492 130.030 C 39.089 135.568, 36.604 143.463, 34.970 147.575 C 30.361 159.178, 31.327 161.950, 38.653 158.138 C 46.938 153.826, 51.124 147.396, 52.448 136.950 C 53.756 126.629, 57.500 117.066, 60.250 117.026 C 61.342 117.010, 62 117.752, 62 119 C 62 120.100, 62.378 121, 62.839 121 C 65.174 121, 66.367 127.150, 66.556 140.174 C 66.735 152.459, 66.978 154.161, 68.946 156.924 C 70.151 158.616, 71.973 160, 72.996 160 C 76.036 160, 78.812 155.399, 79.513 149.198 C 79.868 146.064, 80.664 141.925, 81.284 140 C 81.903 138.075, 82.271 136.050, 82.102 135.500 C 81.933 134.950, 81.658 131.800, 81.491 128.500 C 81.324 125.200, 80.696 121.233, 80.094 119.685 C 78.421 115.380, 78.769 113.426, 81.424 112.217 C 85.101 110.541, 136.973 110.342, 139.618 111.993 C 141.456 113.142, 141.638 114.248, 141.567 123.883 C 141.497 133.265, 141.222 134.880, 139.208 137.707 C 137.338 140.335, 136.532 140.762, 134.719 140.092 C 131.713 138.980, 130.423 134.051, 131.689 128.516 C 132.820 123.576, 132.684 123.227, 128.500 120.318 C 126.029 118.600, 123.737 118.186, 115.500 117.972 C 97.042 117.491, 94.563 117.749, 91.646 120.452 C 89.922 122.050, 89 123.946, 89 125.893 C 89 127.537, 88.557 129.156, 88.016 129.490 C 87.475 129.825, 86.664 131.517, 86.215 133.251 C 85.472 136.116, 85.796 136.796, 89.758 140.702 C 92.156 143.066, 93.641 145, 93.059 145 C 91.496 145, 91.771 146.628, 93.652 148.509 C 95 149.857, 96.426 150.033, 101.402 149.467 C 104.756 149.085, 109.300 147.909, 111.500 146.854 C 114.364 145.480, 116.068 145.198, 117.500 145.863 C 118.600 146.373, 122.016 147.343, 125.092 148.017 C 129.993 149.092, 131.106 149.816, 134.102 153.872 C 137.934 159.061, 141.502 160.212, 145.544 157.563 C 149.164 155.191, 150.826 151.132, 152.396 140.823 C 153.177 135.695, 154.245 130.375, 154.770 129 C 155.294 127.625, 155.548 125.600, 155.333 124.500 C 155.118 123.400, 154.578 118.894, 154.133 114.486 C 153.687 110.078, 152.769 105.436, 152.091 104.170 C 149.962 100.191, 143.151 98.073, 131.724 97.837 C 115.398 97.499, 74.569 98.862, 69.952 99.899 C 64.227 101.186, 61.369 99.964, 60.784 95.983 C 59.975 90.469, 64.597 88.006, 72.010 90.003 C 77.454 91.469, 139.322 91.590, 143.127 90.142 C 147.903 88.325, 148.772 81.703, 145.412 72.730 C 144.635 70.656, 144 67.601, 144 65.940 C 144 61.884, 140.727 55.699, 137.841 54.301 C 132.528 51.727, 123.621 51.021, 109.036 52.017 C 101.081 52.560, 89.606 52.977, 83.536 52.942 C 77.466 52.908, 70.935 53.355, 69.023 53.935 C 64.725 55.240, 62.309 54.549, 61.424 51.761 C 60.934 50.217, 61.367 49.121, 62.984 47.812 C 64.870 46.285, 67.210 45.990, 77.861 45.937 C 91.376 45.870, 99.740 45.166, 118 42.560 C 135.497 40.062, 138.473 38.621, 135.933 33.874 C 132.961 28.321, 123.230 26.522, 112.500 29.542 M 99.500 65.521 C 92.900 66.253, 82.438 66.884, 76.250 66.925 C 63.667 67.009, 61 68.225, 61 73.878 C 61 79.320, 61.382 79.379, 95.749 79.224 C 113.131 79.146, 128.577 78.812, 130.074 78.484 C 132.897 77.864, 133.961 75.766, 133.986 70.776 C 133.996 68.804, 133.240 67.662, 131.250 66.644 C 127.117 64.528, 112.977 64.028, 99.500 65.521 M 102.145 131.070 C 100.572 131.700, 99.991 132.535, 100.395 133.588 C 100.728 134.455, 101 135.525, 101 135.967 C 101 137.021, 111.445 138.311, 113.838 137.551 C 115.909 136.894, 117.931 133.178, 117.265 131.250 C 116.750 129.759, 105.746 129.628, 102.145 131.070" stroke="none" fill="black" fill-rule="evenodd"/>
</svg>