<svg xmlns="http://www.w3.org/2000/svg" width="256" height="256" viewBox="0 0 256 256" version="1.1">
	<path d="M 102.538 30.149 C 99.982 32.159, 99.850 32.640, 100.474 37.638 C 101.403 45.078, 100.645 46.749, 95.738 48.070 C 93.461 48.684, 82.350 49.492, 71.049 49.866 C 48.525 50.612, 45.520 51.404, 44.474 56.873 C 44.197 58.318, 43.018 62.363, 41.855 65.863 C 40.076 71.212, 39.879 73.204, 40.619 78.363 C 42.265 89.846, 41.594 110.674, 39.293 119.500 C 36.227 131.260, 34.341 149.259, 35.833 152.532 C 36.840 154.742, 37.554 155.075, 40.724 154.810 C 43.656 154.565, 44.915 153.787, 46.718 151.102 C 48.649 148.227, 49.003 146.382, 49.017 139.102 C 49.030 132.830, 49.843 127.392, 52.017 119.029 C 53.658 112.720, 55 106.780, 55 105.830 C 55 101.148, 64.468 97, 75.155 97 C 81.721 97, 83.572 102.029, 80.416 111.292 C 78.728 116.246, 74.846 120.272, 68.106 124.061 C 65.751 125.384, 64 127.112, 64 128.111 C 64 130.324, 70.493 135.730, 74.103 136.523 C 77.823 137.340, 84.441 135.224, 87.135 132.357 C 90.525 128.748, 95.648 112.297, 95.876 104.285 C 95.982 100.553, 96.546 96.014, 97.129 94.197 C 98.503 89.919, 97.625 86.605, 94.774 85.309 C 93.345 84.660, 86.082 84.462, 75.232 84.777 C 59.606 85.230, 57.776 85.107, 55.982 83.484 C 53.010 80.794, 53.512 76.547, 57.435 71.190 C 63.881 62.388, 63.022 62.801, 74.336 63.065 C 79.926 63.196, 87.047 62.951, 90.161 62.521 C 93.275 62.091, 97.009 62.036, 98.460 62.401 C 102.344 63.375, 105.029 70.373, 105.980 82 C 106.520 88.592, 107.417 92.760, 108.911 95.617 C 110.095 97.882, 111.240 100.651, 111.456 101.770 C 111.671 102.889, 112.503 105.086, 113.303 106.652 C 115.701 111.342, 116.256 115.636, 114.815 118.355 C 113.218 121.371, 106.834 127.926, 99.579 134 C 92.405 140.006, 91.107 142.936, 93.887 146.842 C 96.067 149.903, 99.925 151.476, 102.921 150.525 C 103.884 150.219, 107.250 147.051, 110.401 143.485 C 115.358 137.873, 116.592 137, 119.568 137 C 122.548 137, 124.072 138.082, 130.978 145.100 C 138.022 152.258, 139.367 153.200, 142.549 153.200 C 145.284 153.200, 147.275 152.252, 150.825 149.258 C 156.206 144.721, 157.486 142.482, 158.762 135.375 C 159.953 128.739, 158.460 123.636, 155.192 123.173 C 152.010 122.722, 148.163 125.474, 147.378 128.763 C 146.463 132.594, 145.130 134, 142.412 134 C 139.769 134, 133 128.532, 133 126.396 C 133 125.628, 132.550 125, 132 125 C 129.262 125, 132.972 111.928, 139.198 99.638 C 141.865 94.374, 145 84.327, 145 81.044 C 145 77.832, 140.974 73.672, 138.339 74.159 C 137.185 74.373, 134.895 77.664, 132.188 83 C 129.712 87.880, 126.812 92.139, 125.378 93 C 123.076 94.382, 122.787 94.343, 121.690 92.500 C 118.085 86.442, 116.768 73.831, 119.055 67.271 C 119.979 64.622, 120.699 64.171, 124.805 63.665 C 127.387 63.347, 131.525 63.498, 134 64 C 136.475 64.502, 141.697 64.932, 145.604 64.956 C 151.792 64.994, 153.049 64.684, 155.354 62.548 C 158.988 59.180, 158.902 54.748, 155.128 50.974 C 153.549 49.395, 150.961 47.794, 149.378 47.417 C 145.249 46.433, 143 44.117, 143 40.848 C 143 37.472, 137.426 30.833, 133.080 29.033 C 129.496 27.549, 126.352 28.943, 124.947 32.640 C 123.819 35.606, 124.769 37.695, 127.984 39.323 C 129.262 39.971, 131.202 41.706, 132.296 43.179 C 134.104 45.614, 134.142 46.001, 132.714 47.429 C 129.885 50.258, 117.886 48.962, 114.084 45.417 C 113.114 44.512, 112.736 42.220, 112.884 38.133 C 113.066 33.085, 112.755 31.850, 110.861 30.085 C 108.018 27.437, 105.966 27.453, 102.538 30.149" stroke="none" fill="black" fill-rule="evenodd"/>
</svg>