<svg xmlns="http://www.w3.org/2000/svg" width="256" height="256" viewBox="0 0 256 256" version="1.1">
	<path d="M 79.363 27.012 C 63.610 28.117, 60 29.612, 60 35.033 C 60 39.741, 61.482 40.113, 81.549 40.445 C 101.652 40.777, 102.600 41.042, 101.430 46 C 101.106 47.375, 100.231 48.843, 99.487 49.263 C 97.738 50.247, 92.448 59.665, 91.589 63.322 C 91.071 65.526, 89.712 66.700, 85.393 68.677 C 79.453 71.397, 77.351 74.276, 78.362 78.307 C 78.990 80.809, 80.767 81.703, 87 82.653 C 91.232 83.298, 92.265 84.145, 91.440 86.295 C 90.736 88.131, 89.068 88.768, 84 89.137 C 77.267 89.628, 75.044 94.243, 79.073 99.365 C 80.709 101.446, 82.023 102.007, 85.323 102.033 C 87.969 102.054, 90.364 102.787, 91.858 104.031 C 94.130 105.924, 94.161 106.131, 92.698 109.748 C 91.321 113.154, 90.848 113.489, 87.567 113.384 C 85.580 113.320, 83.141 112.532, 82.148 111.634 C 80.792 110.406, 78.337 110, 72.278 110 C 66.593 110, 64.067 109.617, 63.716 108.703 C 63.087 107.062, 65.341 100.405, 67.278 98.184 C 68.987 96.225, 71.566 88.962, 71.072 87.500 C 70.887 86.950, 70.544 82.170, 70.310 76.879 C 69.953 68.802, 70.157 66.986, 71.575 65.568 C 72.950 64.193, 73.056 63.418, 72.145 61.419 C 70.642 58.120, 66.522 56.693, 61 57.558 C 58.525 57.946, 53.945 58.174, 50.821 58.064 C 44.639 57.847, 43.894 58.436, 42.575 64.586 C 42.088 66.855, 42.420 68.297, 43.829 70.038 C 45.652 72.288, 45.945 72.338, 49.827 71.057 C 53.422 69.871, 54.212 69.909, 56.454 71.378 C 59.659 73.478, 59.802 78.150, 56.904 86 C 55.787 89.025, 54.607 92.625, 54.282 94 C 53.601 96.878, 50.147 101.871, 45.135 107.222 C 42.164 110.394, 41.530 111.937, 40.839 117.670 C 39.456 129.162, 42.456 134.967, 48.192 131.897 C 51.700 130.020, 52.638 128.741, 53.370 124.843 C 53.742 122.859, 55.389 119.383, 57.029 117.118 C 59.741 113.374, 60.411 113, 64.395 113 C 68.547 113, 68.809 113.171, 69.388 116.250 C 69.772 118.296, 71.275 120.519, 73.445 122.250 C 77.268 125.299, 78.562 125.525, 82.685 123.869 C 86.144 122.479, 89.981 122.161, 90.630 123.210 C 90.896 123.640, 91.308 125.005, 91.547 126.243 C 91.785 127.481, 92.435 128.645, 92.990 128.830 C 96.378 129.959, 91.864 144.238, 87.693 145.587 C 84.568 146.597, 85.876 152.017, 89.898 154.718 C 99.646 161.265, 108.068 153.472, 109.280 136.783 C 109.588 132.539, 110.128 128.602, 110.479 128.033 C 110.831 127.465, 113.904 126.986, 117.309 126.968 C 125.264 126.927, 127 125.637, 127 119.762 C 127 113.428, 125.659 112.610, 116.656 113.453 L 109.302 114.142 108.037 111.089 C 106.285 106.859, 107.109 105.509, 112.339 104.045 C 116.892 102.770, 120.061 100.341, 123.056 95.831 C 123.943 94.496, 117.379 89.911, 112.500 88.459 C 109.750 87.640, 106.880 86.577, 106.122 86.097 C 104.256 84.915, 105.606 83.001, 108.309 82.996 C 111.227 82.991, 116.894 79.465, 116.639 77.813 C 116.136 74.565, 112.465 70.240, 108.898 68.694 C 106.754 67.766, 105 66.420, 105 65.703 C 105 63.932, 113.736 52.039, 115.548 51.343 C 116.346 51.037, 117 50.074, 117 49.203 C 117 48.332, 119.545 45.270, 122.655 42.399 C 127.389 38.028, 128.294 36.649, 128.217 33.929 C 128.164 32.069, 127.232 29.787, 126.037 28.590 C 124.098 26.649, 122.760 26.490, 107.225 26.366 C 98.026 26.292, 85.489 26.583, 79.363 27.012 M 135.794 62.647 C 133.432 65.203, 129.588 69.097, 127.250 71.301 C 124.184 74.191, 123 76.101, 123 78.154 C 123 79.719, 123.413 81, 123.917 81 C 125.306 81, 127.151 90.839, 126.132 92.811 C 125.046 94.914, 125.440 97.620, 127.130 99.656 C 128.670 101.512, 130.213 104.103, 132.991 109.500 C 134.124 111.700, 135.793 114.850, 136.701 116.500 C 137.609 118.150, 139.256 121.300, 140.360 123.500 C 142.749 128.259, 147.710 133.873, 150.500 134.974 C 152.541 135.780, 155.903 134.595, 157.235 132.600 C 158.665 130.458, 158.029 124.029, 156.207 122.207 C 155.221 121.221, 153.831 119.006, 153.118 117.285 C 152.405 115.563, 150.508 112.882, 148.902 111.327 C 147.296 109.772, 145.098 107.116, 144.018 105.425 C 141.324 101.208, 138.029 90.329, 138.013 85.600 C 137.997 80.654, 142.422 71.487, 146.161 68.723 C 147.722 67.568, 149 65.961, 149 65.151 C 149 63.419, 143.214 58, 141.364 58 C 140.663 58, 138.156 60.091, 135.794 62.647" stroke="none" fill="black" fill-rule="evenodd"/>
</svg>