<svg xmlns="http://www.w3.org/2000/svg" width="256" height="256" viewBox="0 0 256 256" version="1.1">
	<path d="M 124 30.521 C 113.433 32.556, 68.575 37.051, 59.200 37.013 C 52.374 36.986, 48.017 41.370, 47.985 48.297 C 47.977 50.059, 47.267 53.521, 46.407 55.991 C 45.255 59.301, 44.732 65.880, 44.419 80.991 C 43.841 108.926, 43.419 113.366, 40.368 123.621 C 37.577 132.998, 35.296 142.827, 34.354 149.539 C 33.646 154.589, 35.464 156.496, 40.032 155.493 C 44.796 154.447, 47.482 149.081, 51.542 132.500 C 52.485 128.650, 54.102 123.825, 55.134 121.778 C 56.886 118.305, 57.150 115.883, 56.742 107 C 56.046 91.857, 57.926 87.785, 65.228 88.619 C 67.578 88.887, 73.662 89.134, 78.750 89.169 C 83.838 89.203, 88 89.655, 88 90.174 C 88 90.693, 88.480 90.821, 89.067 90.459 C 89.707 90.063, 90.007 90.539, 89.817 91.650 C 89.407 94.046, 85.533 95.158, 82.155 93.850 C 77.319 91.978, 75.752 92.041, 72.611 94.233 C 70.900 95.427, 69.169 96.875, 68.765 97.452 C 67.625 99.079, 67.870 103.819, 69.206 105.958 C 70.190 107.534, 70.098 108.234, 68.706 109.773 C 66.639 112.056, 66.494 117.642, 68.398 121.596 C 71.290 127.603, 71.219 128.427, 67.644 130.352 C 64.703 131.936, 61 137.318, 61 140.008 C 61 140.525, 62.433 141.690, 64.184 142.595 C 68.264 144.705, 76.330 143.988, 81.078 141.094 C 85.545 138.370, 86.826 138.458, 87.599 141.540 C 88.040 143.297, 87.661 144.717, 86.369 146.145 C 83.715 149.077, 84.023 152.007, 87.373 155.727 C 90.838 159.574, 93.214 160.491, 95.939 159.032 C 98.827 157.487, 100.214 154.372, 100.548 148.684 C 100.740 145.408, 101.496 143.060, 102.767 141.788 C 104.625 139.931, 104.885 139.922, 109.854 141.547 C 114.194 142.966, 115.765 143.047, 119.756 142.052 C 122.365 141.402, 125.988 140, 127.807 138.935 C 129.626 137.871, 132.439 137, 134.057 137 C 136.824 137, 137 137.239, 137 141 C 137 143.846, 136.577 145, 135.535 145 C 133.882 145, 132 147.988, 132 150.613 C 132 151.573, 133.632 153.852, 135.626 155.679 C 138.363 158.186, 140.139 158.992, 142.876 158.969 C 147.450 158.929, 149.501 156.302, 150.270 149.500 C 150.581 146.750, 151.122 143.375, 151.472 142 C 151.822 140.625, 152.139 133.425, 152.178 126 C 152.261 109.859, 150.605 101.194, 146.220 94.820 L 143.131 90.330 146.154 87.308 C 150.029 83.432, 150.373 77.342, 147.032 71.739 C 145.634 69.395, 145.004 67.122, 145.358 65.708 C 146.990 59.206, 142.176 55.682, 129.212 53.890 C 122.596 52.976, 118.828 52.900, 116.110 53.625 C 114.012 54.185, 100.590 54.757, 86.283 54.896 C 63.915 55.113, 60.190 54.939, 59.695 53.648 C 58.342 50.121, 62.137 49.191, 80.500 48.550 C 93.729 48.088, 109.270 46.569, 110.867 45.582 C 111.267 45.335, 118.284 44.206, 126.462 43.072 C 136.604 41.667, 141.913 40.484, 143.165 39.351 C 148.184 34.809, 142.297 29.942, 132 30.120 C 128.425 30.181, 124.825 30.362, 124 30.521 M 115.500 67.110 C 108.900 67.524, 93.828 68.157, 82.006 68.517 C 60.212 69.181, 59.050 69.414, 59.015 73.129 C 58.981 76.785, 63.890 77.305, 98.169 77.280 C 129.149 77.257, 131.300 77.140, 132.990 75.378 C 136.034 72.204, 136.326 69.499, 133.762 68.238 C 130.104 66.439, 128.129 66.317, 115.500 67.110 M 129.394 89.465 L 126.691 90.570 130.147 91.630 C 133.636 92.701, 138 91.876, 138 90.146 C 138 88.694, 132.369 88.249, 129.394 89.465 M 99.250 90.706 C 96.737 91.190, 96.302 93.176, 98.338 94.866 C 100.724 96.846, 102.028 103.606, 101.961 113.660 C 101.925 119.072, 101.741 124.935, 101.552 126.689 C 101.323 128.805, 101.802 130.415, 102.972 131.475 C 104.593 132.942, 105.398 132.886, 112.868 130.793 C 117.341 129.540, 121 128.271, 121 127.973 C 121 127.675, 119.633 126.624, 117.962 125.637 C 116.291 124.649, 113.835 122.190, 112.504 120.171 C 110.497 117.127, 110.224 115.884, 110.904 112.894 C 111.471 110.404, 111.314 108.547, 110.398 106.894 C 108.440 103.361, 108.709 100.893, 111.498 96.788 L 113.997 93.111 111.776 91.556 C 109.682 90.089, 104.335 89.726, 99.250 90.706 M 80.635 107.073 C 78.133 109.040, 76.975 113, 78.901 113 C 79.397 113, 80.748 114.603, 81.904 116.561 C 83.522 119.304, 83.766 120.568, 82.967 122.061 C 82.397 123.128, 82.139 124, 82.395 124 C 82.651 124, 82.474 125.347, 82.002 126.993 C 81.305 129.424, 81.505 130.240, 83.065 131.333 C 84.122 132.074, 84.690 132.977, 84.327 133.340 C 83.964 133.703, 84.026 134, 84.466 134 C 85.917 134, 89.075 129.664, 88.074 129.046 C 87.524 128.706, 87.468 127.861, 87.945 127.090 C 88.406 126.343, 88.405 124.412, 87.942 122.799 C 87.456 121.104, 87.502 118.810, 88.050 117.367 C 89.446 113.696, 89.210 109.745, 87.443 107.223 C 85.508 104.459, 83.999 104.426, 80.635 107.073 M 125.223 106.557 C 123.044 108.083, 122.056 113, 123.929 113 C 126.002 113, 128 116.361, 128 119.849 C 128 124.751, 130.350 128, 133.896 128 C 137.531 128, 138.660 125.425, 138.893 116.605 C 139.049 110.717, 138.752 109.365, 136.863 107.355 C 134.239 104.561, 128.621 104.176, 125.223 106.557 M 131 130.500 C 131.685 131.325, 133.042 132, 134.015 132 C 134.989 132, 136.045 131.325, 136.362 130.500 C 136.807 129.338, 136.127 129, 133.346 129 C 130.267 129, 129.933 129.214, 131 130.500 M 133.269 133.693 C 134.242 133.947, 135.592 133.930, 136.269 133.656 C 136.946 133.382, 136.150 133.175, 134.500 133.195 C 132.850 133.215, 132.296 133.439, 133.269 133.693" stroke="none" fill="black" fill-rule="evenodd"/>
</svg>