<svg xmlns="http://www.w3.org/2000/svg" width="256" height="256" viewBox="0 0 256 256" version="1.1">
	<path d="M 110.500 28.450 C 106.650 29.729, 101.025 31.078, 98 31.448 C 94.975 31.818, 88.225 32.970, 83 34.007 C 77.775 35.044, 71.025 36.203, 68 36.582 C 61.639 37.380, 57.483 39.229, 56.056 41.895 C 55.504 42.926, 54.508 48.995, 53.842 55.382 C 52.874 64.675, 52.888 68.281, 53.912 73.437 C 54.617 76.980, 54.888 80.373, 54.515 80.976 C 54.142 81.580, 53.456 88.857, 52.992 97.148 C 52.158 112.021, 52.100 112.299, 48.615 117.945 C 46.672 121.092, 44.613 125.764, 44.039 128.327 C 43.464 130.890, 41.619 137.127, 39.938 142.188 C 36.686 151.975, 36.693 154.739, 39.978 156.768 C 41.668 157.812, 42.555 157.764, 45.006 156.497 C 46.642 155.651, 48.700 153.861, 49.579 152.520 C 51.915 148.954, 57.413 133.652, 59.467 125 C 60.621 120.137, 62.067 116.709, 63.580 115.250 C 66.189 112.734, 70.885 112.292, 74.316 114.240 C 75.855 115.114, 83.147 115.518, 99 115.608 C 111.375 115.679, 125.109 116.058, 129.519 116.452 C 140.085 117.395, 140.842 116.633, 142.060 103.826 C 142.548 98.697, 143.500 91.125, 144.176 87 C 146.836 70.769, 145.564 65.286, 138.629 63.080 C 133.286 61.381, 106.049 59.947, 101 61.099 C 98.525 61.664, 95.030 61.851, 93.234 61.514 C 91.437 61.178, 85.457 61.400, 79.943 62.006 C 68.410 63.275, 66.256 62.869, 65.349 59.253 C 63.674 52.579, 69.871 49.408, 93.161 45.021 C 112.693 41.343, 124.132 38.312, 126.167 36.278 C 128.863 33.581, 127.010 28.548, 122.778 27.073 C 118.828 25.695, 118.777 25.701, 110.500 28.450 M 104.500 74.658 C 87.979 75.732, 70.639 78.006, 68.553 79.373 C 66.156 80.944, 65.067 84.502, 65.454 89.500 C 65.582 91.150, 65.757 94.139, 65.843 96.143 C 65.930 98.147, 66.563 99.981, 67.250 100.220 C 67.938 100.459, 73.450 100.282, 79.500 99.827 C 88.600 99.142, 91.242 99.275, 94.797 100.600 C 97.572 101.634, 100.582 101.995, 103.297 101.619 C 105.609 101.299, 111.100 100.597, 115.500 100.060 C 119.900 99.523, 124.531 98.783, 125.790 98.415 C 129.004 97.476, 130.868 93.278, 131.601 85.327 C 132.475 75.860, 131.126 74.675, 119.207 74.440 C 114.418 74.346, 107.800 74.444, 104.500 74.658" stroke="none" fill="black" fill-rule="evenodd"/>
</svg>