<svg xmlns="http://www.w3.org/2000/svg" width="256" height="256" viewBox="0 0 256 256" version="1.1">
	<path d="M 56.565 28.578 C 53.651 31.492, 52.952 33.920, 53.213 40.228 C 53.505 47.299, 51.786 52.561, 48.942 53.305 C 47.900 53.577, 45.350 53.406, 43.274 52.924 C 41.198 52.442, 38.938 52.037, 38.250 52.024 C 35.989 51.981, 33 55.940, 33 58.977 C 33 63.351, 36.639 65.377, 44.015 65.111 C 51.038 64.858, 52.065 65.931, 54.440 76.005 C 56.759 85.845, 56.466 89.873, 53.041 95.275 C 50.080 99.943, 49.306 100.360, 41.716 101.378 C 37.475 101.947, 30.463 106.966, 29.450 110.158 C 28.521 113.084, 32.009 116.333, 35.957 116.220 C 37.658 116.172, 40.720 115.090, 42.761 113.816 C 50.210 109.167, 50.296 109.150, 52.749 111.941 C 55.639 115.230, 55.768 116.202, 54.610 126 C 53.023 139.423, 51.270 143.104, 45.250 145.651 C 42.660 146.748, 42 147.608, 42 149.891 C 42 153.304, 43.237 154.467, 49.050 156.518 C 59.962 160.368, 66.291 158, 66.182 150.109 C 66.151 147.856, 65.842 145.553, 65.494 144.991 C 64.914 144.051, 65.271 141.676, 68.122 127.500 C 68.911 123.581, 68.792 121.419, 67.575 117.500 C 65.612 111.180, 65.609 108.626, 67.563 104.508 C 68.900 101.690, 69.975 101.001, 75.002 99.734 C 79.897 98.501, 81.263 98.473, 83.189 99.567 C 89.793 103.318, 92.661 104.145, 97.500 103.694 C 103.062 103.176, 107.461 104.829, 108.217 107.722 C 108.701 109.572, 104.865 118.631, 101.750 122.994 C 100.788 124.342, 100 126.207, 100 127.139 C 100 128.071, 99.644 128.983, 99.209 129.167 C 96.625 130.256, 88 145.816, 88 149.389 C 88 154.113, 93.469 156.708, 97.190 153.750 C 99.926 151.575, 112.906 133.221, 113.565 130.596 C 114.365 127.410, 118.402 123, 120.518 123 C 124.704 123, 127.148 125.362, 132.938 135 C 140.665 147.862, 154.332 157.268, 158.800 152.800 C 159.460 152.140, 160 150.650, 160 149.488 C 160 145.847, 156.099 139.102, 153.093 137.548 C 150.357 136.133, 144 129.072, 144 127.447 C 144 126.314, 136.186 116.019, 132.339 112.083 C 128.505 108.160, 128.206 106.424, 130.953 104.041 C 132.536 102.667, 133.910 102.489, 138.203 103.100 C 154.258 105.385, 162.690 102.549, 160.087 95.741 C 159.615 94.509, 158.290 92.654, 157.142 91.620 C 155.244 89.910, 153.980 89.804, 143.214 90.446 C 127.829 91.365, 127.756 91.290, 129.447 76.224 C 130.166 69.822, 130.605 68.705, 133.113 66.920 C 135.705 65.074, 136.611 64.981, 143.155 65.888 C 151.348 67.023, 153.634 66.307, 154.642 62.290 C 156.214 56.027, 149.500 51.014, 139.500 50.986 C 132.886 50.968, 131.856 50.557, 130.112 47.246 C 129.241 45.592, 129.205 43.954, 129.975 41.093 C 131.154 36.715, 130.079 32.542, 127.211 30.363 C 124.596 28.377, 122.164 28.745, 119.358 31.551 C 116.961 33.949, 116.848 34.507, 117.484 40.841 C 118.407 50.032, 116.893 51.950, 107.953 52.908 C 100.621 53.695, 97.700 55.003, 95.385 58.535 C 93.897 60.807, 93.899 61.196, 95.408 63.500 C 97.207 66.246, 97.508 66.310, 107.208 66.023 C 113.199 65.846, 114.187 66.096, 116.458 68.367 C 118.734 70.643, 119 71.703, 119 78.500 C 119 85.340, 118.743 86.348, 116.402 88.689 C 113.859 91.232, 113.595 91.274, 104.152 90.659 C 95.311 90.084, 94.085 90.231, 89.566 92.414 C 83.980 95.112, 83.220 95.016, 80.471 91.271 C 75.754 84.847, 74.792 84.418, 69.750 86.494 C 68.195 87.134, 67.992 86.505, 67.927 80.857 C 67.887 77.361, 67.518 72.138, 67.106 69.250 L 66.359 64 72.957 64 C 81.405 64, 84.483 62.164, 83.582 57.660 C 82.572 52.611, 78.355 49, 73.468 49 C 67.282 49, 65.895 46.960, 66.629 38.943 C 67.145 33.307, 66.946 32.156, 65.037 29.750 C 62.582 26.657, 58.984 26.159, 56.565 28.578" stroke="none" fill="black" fill-rule="evenodd"/>
</svg>