<svg xmlns="http://www.w3.org/2000/svg" width="256" height="256" viewBox="0 0 256 256" version="1.1">
	<path d="M 111.500 32.618 C 106.701 33.933, 101.603 34.539, 74 37.077 C 58.968 38.460, 56.574 39.237, 54.695 43.342 C 51.747 49.782, 51.219 59.181, 52.253 86.779 C 52.979 106.179, 52.326 112.814, 49.031 119.500 C 44.896 127.889, 37.784 150.745, 38.554 153.169 C 39.348 155.672, 42.689 157.295, 45.563 156.573 C 49.356 155.622, 52.682 151.195, 54.515 144.660 C 55.450 141.328, 56.791 137.678, 57.495 136.550 C 58.199 135.423, 59.344 132.041, 60.039 129.035 C 61.940 120.814, 64.616 115.496, 67.517 114.174 C 68.934 113.528, 73.828 113, 78.392 113 C 85.235 113, 86.988 113.329, 88.386 114.875 C 89.993 116.650, 89.896 117.144, 86.545 124.202 C 83.753 130.084, 82.005 132.370, 78.254 135.045 C 72.004 139.500, 62 149.587, 62 151.432 C 62 154.436, 66.419 158.181, 70.085 158.285 C 74.275 158.404, 77.276 156.345, 82.032 150.088 C 87.197 143.292, 93.511 137.288, 97.742 135.148 C 100.673 133.665, 103.635 133.250, 111.204 133.260 C 120.165 133.272, 121.081 133.458, 123.179 135.690 C 125.297 137.945, 125.348 138.289, 123.939 140.804 C 123.107 142.287, 121.264 144.059, 119.842 144.743 C 115.922 146.628, 115.178 148.071, 116.194 151.820 C 116.887 154.378, 118.058 155.577, 121.297 157.048 C 127.144 159.702, 130.417 159.497, 134.018 156.250 C 136.674 153.854, 137.205 152.469, 138.137 145.500 C 140.441 128.278, 140.425 127.748, 137.496 124.998 C 134.878 122.540, 134.593 122.503, 119.636 122.694 C 111.276 122.800, 104.001 122.575, 103.468 122.194 C 102.936 121.812, 101.927 120.477, 101.227 119.227 C 100.197 117.388, 100.197 116.891, 101.227 116.620 C 112.386 113.687, 117.862 113.027, 130.678 113.069 C 146.505 113.121, 153 111.965, 153 109.095 C 153 105.716, 142.250 102.648, 129 102.246 C 118.870 101.939, 117.292 101.652, 115.750 99.838 C 111.431 94.755, 114.640 91.431, 123.351 91.961 C 136.231 92.746, 144.913 92.287, 147.346 90.693 C 151.093 88.238, 152.138 79.969, 149.500 73.654 C 148.675 71.680, 147.998 68.812, 147.996 67.282 C 147.990 62.715, 144.595 58.232, 140.296 57.117 C 130.764 54.643, 126.008 54.527, 89 55.865 C 68.415 56.609, 64 56.154, 64 53.288 C 64 50.756, 70.145 49.213, 80.395 49.170 C 92.541 49.119, 101.331 48.323, 110.500 46.447 C 128.949 42.670, 132.463 41.812, 135.130 40.433 C 138.366 38.759, 138.413 38.640, 136.920 35.850 C 134.435 31.208, 122.286 29.663, 111.500 32.618 M 105.500 68.640 C 97.800 69.346, 90.375 70.033, 89 70.167 C 87.625 70.301, 82.828 70.050, 78.340 69.609 C 73.853 69.168, 69.240 69.107, 68.089 69.472 C 63.691 70.868, 63.192 76.938, 67.335 78.653 C 69.823 79.683, 130.479 79.728, 133.502 78.702 C 136.221 77.779, 138.234 74.312, 137.462 71.880 C 136.076 67.513, 127.392 66.632, 105.500 68.640 M 68.847 90.771 C 65.315 91.228, 62.710 96.270, 64.255 99.660 C 65.288 101.926, 66.280 102.341, 70.500 102.271 C 71.600 102.253, 78.882 102.184, 86.683 102.119 C 100.454 102.003, 100.887 101.935, 101.609 99.750 C 103.869 92.916, 103.098 92.524, 85.571 91.587 C 78.460 91.208, 72.385 90.792, 72.071 90.663 C 71.757 90.534, 70.306 90.583, 68.847 90.771" stroke="none" fill="black" fill-rule="evenodd"/>
</svg>