<svg xmlns="http://www.w3.org/2000/svg" width="256" height="256" viewBox="0 0 256 256" version="1.1">
	<path d="M 50.452 29.646 C 48.423 31.835, 48 33.314, 48 38.212 C 48 43.960, 46.857 47.682, 44.600 49.279 C 43.995 49.707, 40.533 49.781, 36.907 49.443 C 29.547 48.757, 27 50.070, 27 54.548 C 27 57.714, 30.212 59.718, 37.571 61.143 C 45.295 62.639, 46.606 63.897, 47.284 70.463 C 47.591 73.433, 48.602 77.466, 49.531 79.424 C 50.680 81.845, 50.975 83.867, 50.454 85.742 C 50.032 87.259, 49.562 89.133, 49.409 89.907 C 49.256 90.680, 48.224 92.221, 47.115 93.330 C 45.314 95.131, 44.680 95.221, 41.183 94.173 C 35.440 92.452, 31.168 92.733, 27.368 95.082 C 23.704 97.346, 23.047 100.362, 25.063 105.665 C 27.147 111.147, 30.395 111.349, 37.120 106.412 C 39.809 104.438, 41.755 102.413, 41.445 101.912 C 41.135 101.410, 42.034 101, 43.441 101 C 45.227 101, 46 101.537, 46 102.777 C 46 103.755, 46.766 105.649, 47.703 106.986 C 49.003 108.842, 49.492 112.147, 49.771 120.959 C 50.116 131.887, 49.998 132.739, 47.548 137 C 41.562 147.411, 41.586 147.325, 43.522 151.405 C 44.661 153.806, 46.677 155.815, 49.277 157.141 C 55.485 160.308, 57.396 160.331, 60.452 157.275 C 62.792 154.936, 63.087 154.001, 62.581 150.530 C 60.877 138.822, 60.847 134.967, 62.408 128.103 C 63.911 121.496, 63.912 120.505, 62.420 115.373 C 60.567 108.998, 61.149 102.182, 63.805 99.152 C 65.820 96.852, 74.028 94, 78.631 94 C 82.116 94, 86.483 92.456, 89.082 90.303 C 90.283 89.309, 97.150 88.936, 117.582 88.756 L 144.500 88.518 150.695 92.759 C 154.102 95.092, 157.287 97, 157.771 97 C 158.255 97, 159.639 95.949, 160.846 94.664 C 162.577 92.821, 163.089 90.942, 163.270 85.772 C 163.538 78.124, 162.139 75.880, 155.250 72.906 C 150.160 70.708, 149.906 69.055, 153.582 62.026 C 157.316 54.883, 154.974 49, 148.396 49 C 143.438 49, 139.910 54.077, 139.692 61.522 C 139.553 66.291, 139.047 67.708, 136.433 70.646 C 133.256 74.217, 129.972 75.078, 125.245 73.578 C 122.169 72.601, 122.431 70.350, 125.966 67.375 C 127.699 65.917, 129.195 63.477, 129.565 61.505 C 130.259 57.807, 128.668 51.811, 126.389 49.532 C 123.997 47.139, 130.021 44.757, 140.408 43.988 C 148.019 43.424, 149.584 42.997, 151.158 41.053 C 153.574 38.069, 153.482 36.672, 150.651 33.380 C 147.025 29.166, 140.014 29.081, 121 33.024 C 112.475 34.792, 102.800 36.339, 99.500 36.462 C 89.869 36.820, 89.484 36.901, 87.189 39.039 C 84.345 41.688, 84.429 43.168, 87.640 46.984 C 90.124 49.937, 90.205 50.350, 89.003 53.992 C 87.917 57.282, 87.971 58.615, 89.363 62.869 C 90.263 65.623, 91 68.479, 91 69.216 C 91 71.512, 87.131 74, 83.560 74 C 79.761 74, 77 76.134, 77 79.071 C 77 80.893, 76.099 81.250, 71.500 81.250 C 70.675 81.250, 69.395 81.194, 68.656 81.125 C 67.917 81.056, 66.263 77.918, 64.981 74.151 L 62.649 67.302 64.893 64.151 C 66.127 62.418, 67.832 61, 68.682 61 C 69.532 61, 71.976 60.017, 74.114 58.816 C 78.969 56.087, 79.437 52.275, 75.315 49.033 C 73.174 47.349, 71.503 46.980, 67.065 47.210 L 61.500 47.500 61.863 39.204 C 62.164 32.334, 61.922 30.572, 60.458 28.954 C 57.915 26.143, 53.410 26.455, 50.452 29.646 M 102.643 49.604 C 100.147 50.977, 99.868 51.577, 100.436 54.338 C 100.794 56.077, 101.359 60.329, 101.691 63.787 C 102.205 69.123, 102.706 70.366, 105.003 72.002 C 110.408 75.851, 120 75.482, 120 71.425 C 120 70.597, 119.015 68.026, 117.811 65.710 C 116.247 62.701, 115.605 59.646, 115.561 55 L 115.500 48.500 110.500 48.266 C 107.426 48.122, 104.399 48.637, 102.643 49.604 M 124 97.691 C 121.459 98.799, 118.816 99.046, 114.357 98.592 C 104.751 97.613, 94.162 98.910, 91.896 101.342 C 90.853 102.461, 90 103.697, 90 104.088 C 90 104.479, 91.522 107.060, 93.382 109.824 C 95.242 112.588, 96.985 116.346, 97.256 118.175 C 97.869 122.305, 100.092 128.068, 101.748 129.820 C 103.792 131.980, 104.345 135.986, 102.959 138.577 C 101.516 141.272, 96.720 142.978, 90.500 143.008 C 88.300 143.019, 85.469 143.304, 84.208 143.641 C 82.105 144.205, 81.971 144.637, 82.580 148.878 C 83.815 157.467, 87.500 159.121, 98.180 155.877 C 105.375 153.691, 108.904 151.147, 112.387 145.635 C 113.968 143.132, 114.637 142.842, 117.686 143.336 C 119.605 143.648, 122.211 144.938, 123.476 146.204 C 124.742 147.469, 128.648 149.933, 132.157 151.679 C 144.679 157.911, 153.670 158.473, 156.400 153.194 C 157.637 150.801, 157.606 150.240, 156.142 148.489 C 154.339 146.332, 143.102 140.389, 138.500 139.158 C 133.917 137.933, 133.290 135.898, 135.460 129.289 C 136.506 126.105, 137.897 122.825, 138.553 122 C 139.208 121.175, 140.544 118.781, 141.520 116.680 C 142.496 114.578, 144.578 111.575, 146.147 110.006 C 149.400 106.754, 149.824 103.055, 147.213 100.693 C 142.161 96.121, 130.927 94.668, 124 97.691 M 111.250 112.491 C 109.463 113.268, 108.023 114.488, 108.052 115.202 C 108.080 115.916, 109.963 117.991, 112.236 119.813 C 115.780 122.654, 116.922 123.049, 120.252 122.583 C 124.637 121.970, 129.861 118.337, 129.945 115.844 C 129.981 114.745, 128.426 113.652, 125.322 112.594 C 119.627 110.654, 115.546 110.624, 111.250 112.491" stroke="none" fill="black" fill-rule="evenodd"/>
</svg>