<svg xmlns="http://www.w3.org/2000/svg" width="256" height="256" viewBox="0 0 256 256" version="1.1">
	<path d="M 53.151 27.340 C 51.664 28.922, 50.521 32.163, 49.618 37.354 C 47.766 48.004, 43.818 51.599, 38.441 47.532 C 33.650 43.908, 26.174 47.528, 27.484 52.837 C 28.406 56.571, 28.739 56.782, 36.537 58.575 C 47.877 61.181, 47.346 60.684, 48.881 70.119 C 49.631 74.728, 50.265 79.063, 50.289 79.750 C 50.313 80.438, 50.708 81, 51.167 81 C 52.790 81, 51.972 85.906, 50.134 87.193 C 49.108 87.912, 48.313 88.725, 48.366 89 C 48.420 89.275, 47.714 90.571, 46.797 91.879 C 45.505 93.725, 44.555 94.117, 42.565 93.629 C 41.154 93.283, 38.883 92.724, 37.518 92.387 C 34.047 91.529, 30.671 92.565, 27.077 95.589 C 24.607 97.667, 24 98.949, 24 102.089 C 24 106.047, 26.633 110.010, 29.250 109.991 C 31.309 109.975, 41.055 104.019, 41.678 102.396 C 42.124 101.235, 43 101.701, 45.494 104.424 C 49.102 108.362, 49.984 111.926, 49.967 122.500 C 49.954 130.634, 48.028 135.547, 42.592 141.306 C 37.305 146.907, 37.986 150.150, 45.356 154.469 C 49.529 156.914, 55.330 157.751, 57.600 156.235 C 60.109 154.560, 61.192 150.688, 60.566 145.629 C 60.104 141.901, 60.455 138.861, 61.848 134.500 C 64.861 125.075, 65.044 121.749, 62.935 114.812 C 60.991 108.421, 60.421 100.413, 61.765 98.400 C 62.929 96.657, 66.137 95.330, 70.974 94.589 C 76.650 93.721, 78.990 91.687, 78.361 88.168 C 77.751 84.760, 75.316 81, 73.717 81 C 71.984 81, 67 76.207, 67 74.541 C 67 73.782, 66.213 71.781, 65.250 70.093 C 63.663 67.310, 63.641 66.766, 65.014 64.262 C 66.726 61.139, 73.032 57.667, 76.992 57.667 C 80.956 57.667, 85.748 61.786, 88.626 67.669 C 90.324 71.138, 92.175 73.352, 94.084 74.198 C 99.315 76.513, 101.295 85.130, 98.767 94.580 C 97.729 98.462, 96.822 99.600, 93.017 101.796 C 90.533 103.230, 88.275 104.702, 88 105.067 C 87.725 105.432, 86.375 106.063, 85 106.469 C 80.182 107.893, 78 109.918, 78 112.964 C 78 114.569, 78.338 116.085, 78.750 116.332 C 79.162 116.580, 82.650 115.981, 86.500 115.001 C 95.960 112.592, 96.687 113.803, 92.210 124.500 C 91.289 126.700, 89.965 129.095, 89.268 129.821 C 88.570 130.548, 88 131.673, 88.001 132.321 C 88.001 132.970, 86.325 136.758, 84.277 140.740 C 80.752 147.591, 80.645 148.073, 82.274 149.703 C 84.517 151.946, 91.573 151.716, 94.782 149.295 C 97.486 147.255, 102.324 139.202, 107.876 127.500 C 112.081 118.638, 115.575 104.352, 114.411 100.781 C 114.002 99.526, 113.507 87.250, 113.311 73.500 C 112.810 38.399, 112.669 36.396, 110.519 34.021 C 109.513 32.910, 107.480 32, 106 32 C 101.576 32, 99.747 35.059, 99.308 43.193 C 99.094 47.152, 98.432 50.979, 97.837 51.696 C 96.131 53.752, 91.984 53.225, 88.411 50.500 C 84.805 47.750, 79.587 47.238, 76.794 49.360 C 74.718 50.938, 64.378 49.230, 63.056 47.090 C 62.605 46.361, 62.472 41.985, 62.760 37.367 C 63.206 30.218, 63.017 28.676, 61.487 26.985 C 59.092 24.339, 55.840 24.477, 53.151 27.340 M 125.492 33.382 C 124.007 34.468, 123.559 36.194, 123.406 41.420 C 123.299 45.080, 122.653 49.422, 121.971 51.069 C 121.098 53.178, 120.970 56.048, 121.540 60.782 C 122.366 67.635, 122.637 89.327, 122.156 110.021 C 122.009 116.357, 122.428 124.682, 123.088 128.521 C 123.748 132.359, 124.364 137.300, 124.459 139.500 C 124.757 146.458, 128.216 150.267, 138.500 154.964 C 142.690 156.877, 144.581 157.156, 150.175 156.688 C 159.070 155.943, 162.339 154.150, 163.822 149.200 C 166.080 141.664, 164.618 132.996, 161.089 133.003 C 160.215 133.005, 156.800 134.804, 153.500 137 C 144.385 143.067, 139.903 142.195, 138.081 134 C 137.531 131.525, 136.546 125.043, 135.893 119.595 C 134.784 110.354, 134.828 109.599, 136.543 108.345 C 137.555 107.605, 139.384 107, 140.608 107 C 144.134 107, 152.208 110.843, 155.644 114.156 C 160.168 118.517, 162.515 117.726, 162.446 111.863 C 162.351 103.781, 154.021 96.295, 141.500 93.040 C 135.963 91.601, 135.239 90.935, 135.478 87.500 C 135.593 85.850, 135.757 83.280, 135.843 81.789 C 136.060 78.037, 139.619 75, 143.799 75 C 146.503 75, 148.095 74.109, 151.392 70.750 C 153.687 68.412, 156.337 65.387, 157.282 64.027 C 161.110 58.518, 158.068 51.667, 151.794 51.667 C 148.296 51.667, 141 55.327, 141 57.082 C 141 58.694, 138.105 58.066, 137.165 56.250 C 136.667 55.288, 135.939 51.145, 135.549 47.044 C 134.780 38.978, 133.084 34.651, 130.055 33.030 C 127.641 31.737, 127.753 31.729, 125.492 33.382" stroke="none" fill="black" fill-rule="evenodd"/>
</svg>