<svg xmlns="http://www.w3.org/2000/svg" width="256" height="256" viewBox="0 0 256 256" version="1.1">
	<path d="M 52.725 27.752 C 50.516 30.192, 49 34.533, 49 38.416 C 49 47.442, 45.029 50.670, 37.887 47.449 C 32.698 45.109, 28.646 46.276, 28.186 50.243 C 28.013 51.731, 28.302 53.717, 28.827 54.656 C 29.875 56.527, 36.883 58.961, 41.295 58.985 C 46.360 59.012, 48.574 62.530, 49.512 72.044 C 50.626 83.347, 50.418 90, 48.950 90 C 48.556 90, 47.982 90.961, 47.675 92.137 C 47.166 94.080, 46.681 94.208, 42.308 93.555 C 35.255 92.502, 31.228 92.805, 28.500 94.592 C 25.502 96.556, 24.620 99.159, 25.450 103.587 C 26.033 106.692, 26.403 107, 29.561 107 C 33.536 107, 41 104.884, 41 103.757 C 41 103.340, 41.675 103, 42.500 103 C 43.325 103, 44 102.550, 44 102 C 44 101.450, 44.477 101, 45.059 101 C 45.641 101, 45.856 101.423, 45.537 101.940 C 45.217 102.458, 45.918 103.777, 47.094 104.873 C 52.030 109.472, 51.884 127.612, 46.817 139.321 C 43.557 146.854, 43.302 148.198, 44.352 152.315 C 44.869 154.339, 46.254 155.666, 49.285 157.043 C 55.203 159.729, 57.411 159.488, 60.499 155.819 C 62.809 153.073, 63.081 152.081, 62.483 148.569 C 60.861 139.040, 62.646 125.610, 66.059 121.656 C 66.908 120.673, 65.572 115.325, 63.473 111.301 C 60.755 106.089, 62.453 97.021, 66.929 92.852 C 68.699 91.203, 68.975 91.287, 72.945 94.685 C 77.578 98.650, 81.504 105.964, 81.193 110.048 C 81.034 112.139, 81.839 113.310, 84.896 115.428 C 87.044 116.917, 89.010 118.931, 89.265 119.904 C 89.519 120.877, 89.812 126.135, 89.915 131.587 C 90.192 146.173, 93.436 151.706, 99.048 147.162 C 101.934 144.826, 102.985 137.265, 101.558 129.109 C 100.639 123.859, 100.691 123.658, 103.557 121.364 C 107.506 118.205, 110.239 118.393, 113.923 122.077 C 117.139 125.292, 117.781 127.819, 115.870 129.730 C 115.184 130.416, 114.660 135.447, 114.537 142.509 C 114.360 152.726, 114.575 154.461, 116.284 156.634 C 118.762 159.784, 122.647 159.481, 124.409 156 C 125.106 154.625, 126.340 152.150, 127.152 150.500 C 128.604 147.552, 128.748 147.505, 135.565 147.766 C 144.231 148.098, 146.698 147.527, 147.499 145.004 C 147.847 143.908, 148.889 142.253, 149.816 141.326 C 151.176 139.965, 151.500 137.666, 151.500 129.369 L 151.500 119.098 155.349 115.155 C 158.939 111.478, 159.261 110.653, 160.130 102.887 C 161.966 86.471, 160.510 85.779, 127 87.134 C 114.557 87.638, 103.706 86.438, 106.227 84.838 C 107.227 84.204, 107.232 84.027, 106.250 84.015 C 105.563 84.007, 105 83.325, 105 82.500 C 105 81.217, 107.877 81, 124.894 81 L 144.788 81 147.894 78.099 C 149.959 76.170, 151.001 74.243, 151.004 72.349 C 151.008 68.803, 153.728 64.237, 157.739 61.044 C 160.399 58.927, 160.674 58.271, 159.837 56.053 C 159.307 54.649, 157.831 52.375, 156.559 51 C 153.137 47.304, 152 44.595, 152 40.137 C 152 35.824, 150.212 33.277, 146.680 32.560 C 140.838 31.374, 125.040 30.595, 112 30.850 C 100.221 31.080, 97.050 31.455, 95.103 32.848 C 91.515 35.414, 90.736 38.453, 92.962 41.201 C 94.810 43.483, 94.976 43.498, 115.162 43.192 C 138.043 42.845, 140.179 43.319, 137.936 48.241 L 136.724 50.901 123.112 50.551 C 115.625 50.359, 107.439 49.881, 104.919 49.488 C 101.978 49.030, 97.326 49.353, 91.919 50.390 C 82.670 52.165, 81.046 52.113, 78.451 49.959 C 77.421 49.104, 74.203 48.426, 70.629 48.311 C 62.845 48.059, 61.899 46.892, 62.682 38.505 C 63.150 33.489, 62.901 31.641, 61.417 29.129 C 59.287 25.524, 55.311 24.894, 52.725 27.752 M 72.605 60.672 C 63.552 63.922, 62.624 64.911, 63.605 70.264 C 64.032 72.594, 64.458 74.725, 64.551 75 C 64.644 75.275, 65.059 76.934, 65.473 78.686 C 66.352 82.414, 68.033 83.318, 71.578 81.970 C 74.308 80.932, 79 81.639, 79 83.088 C 79 83.567, 80.872 84.915, 83.161 86.082 C 87.028 88.055, 87.753 88.114, 93.411 86.917 C 96.760 86.208, 100.099 85.033, 100.831 84.305 C 101.562 83.577, 102.633 83.273, 103.210 83.630 C 103.807 83.999, 104.060 83.679, 103.797 82.889 C 103.542 82.125, 102.516 81.341, 101.515 81.147 C 100.515 80.953, 98.780 79.941, 97.660 78.897 C 96.539 77.854, 95.330 77, 94.972 77 C 93.422 77, 92.007 71.856, 93.031 69.943 C 94.256 67.653, 93.949 67.701, 105.691 67.965 C 110.747 68.079, 115.809 67.878, 116.941 67.519 C 119.648 66.660, 119.560 64.637, 116.750 63.136 C 114.076 61.706, 101.010 61.250, 95.868 62.407 C 92.898 63.074, 91.286 62.747, 87.036 60.612 C 80.896 57.528, 81.367 57.526, 72.605 60.672 M 92.101 100.378 C 90.444 102.375, 92.395 106.821, 95.215 107.472 C 100.261 108.638, 106.928 108.720, 109.069 107.641 C 110.530 106.906, 111.375 105.531, 111.449 103.772 C 111.540 101.606, 110.960 100.833, 108.633 100.022 C 104.245 98.492, 93.474 98.724, 92.101 100.378 M 129.250 100.220 C 127.752 100.943, 127 102.195, 127 103.968 C 127 109.005, 137.603 111.808, 144.050 108.474 C 147.983 106.440, 148.205 101.870, 144.453 100.161 C 141.301 98.724, 132.278 98.760, 129.250 100.220 M 127.676 123.052 C 125.003 126.868, 128.894 137, 133.033 137 C 135.417 137, 136.687 135.199, 138.143 129.756 C 139.263 125.568, 139.201 124.880, 137.540 123.045 C 135.052 120.295, 129.604 120.299, 127.676 123.052" stroke="none" fill="black" fill-rule="evenodd"/>
</svg>