<svg xmlns="http://www.w3.org/2000/svg" width="256" height="256" viewBox="0 0 256 256" version="1.1">
	<path d="M 48.923 28.923 C 46.306 31.541, 46 32.511, 46 38.201 C 46 48.173, 42.826 51.030, 35.788 47.390 C 33.230 46.068, 32.002 45.982, 28.898 46.912 C 24.028 48.372, 22.972 51.262, 26.166 54.390 C 27.819 56.008, 30.650 57.022, 35.871 57.867 C 47.120 59.686, 46.810 59.312, 46.232 70.356 C 45.843 77.790, 46.062 80.250, 47.263 81.966 C 49.441 85.075, 48.616 92.958, 45.873 95.250 C 44.721 96.213, 44.071 97, 44.429 97 C 44.786 97, 44.499 97.630, 43.789 98.400 C 42.434 99.871, 39.526 98.577, 40.531 96.950 C 40.811 96.496, 39.119 95.730, 36.770 95.246 C 31.291 94.118, 24.231 96.261, 23.031 99.418 C 21.238 104.135, 24.856 111, 29.135 111 C 31.124 111, 37.155 107.385, 37.833 105.786 C 38.017 105.354, 38.767 105, 39.500 105 C 40.233 105, 41.096 104.437, 41.417 103.750 C 41.883 102.750, 42.117 102.750, 42.583 103.750 C 42.904 104.437, 43.692 105.003, 44.333 105.007 C 46.685 105.022, 48.940 115.047, 48.381 123 C 47.708 132.569, 46.525 136.397, 42.478 142.104 L 39.213 146.708 41.147 149.763 C 43.346 153.236, 50.527 157, 54.954 157 C 59.420 157, 60.431 154.214, 60.132 142.724 C 59.906 134.050, 60.165 132.320, 62.431 127.369 C 65.162 121.404, 65.106 119.604, 61.968 112.500 C 59.187 106.204, 60.062 103.223, 66.375 97.500 C 69.408 94.750, 72.027 91.600, 72.195 90.500 C 72.630 87.650, 73.376 87.337, 80.307 87.096 C 83.713 86.978, 88.075 86.536, 90 86.115 C 96.266 84.745, 102 88.379, 102 93.721 C 102 97.511, 100.770 100.380, 97.701 103.750 C 95.043 106.668, 92.686 106.596, 89.591 103.500 C 88.216 102.125, 85.945 101, 84.545 101 C 82.268 101, 82.001 101.395, 82.014 104.750 C 82.035 110.554, 82.871 112.370, 86.316 114.090 C 89.824 115.842, 90.688 118.215, 90.882 126.639 C 91.022 132.736, 89.495 135.001, 83.050 138.254 C 77.338 141.137, 73.770 147.041, 75.222 151.207 C 75.767 152.770, 76.936 154, 77.876 154 C 80.051 154, 93.661 147.482, 95.660 145.482 C 97.821 143.322, 103.042 144.450, 110.832 148.760 C 121.468 154.645, 136.098 156.409, 150.881 153.590 C 158.584 152.121, 161.707 150.119, 162.469 146.160 C 162.795 144.466, 162.113 143.418, 159.701 141.913 C 156.901 140.166, 154.996 139.943, 144.500 140.135 C 131.611 140.371, 116.257 137.833, 115.288 135.307 C 115.012 134.588, 114.243 134, 113.580 134 C 112.917 134, 111.103 132.673, 109.549 131.051 C 107.107 128.502, 106.798 127.542, 107.276 123.979 C 107.580 121.712, 108.922 118.202, 110.258 116.178 C 111.594 114.155, 113.181 110.250, 113.783 107.500 C 115.438 99.946, 115.987 81.598, 114.638 78.948 C 114.012 77.720, 111.250 75.533, 108.500 74.090 C 101.930 70.642, 101.386 67.411, 106.290 60.957 C 108.153 58.505, 110.315 55.150, 111.095 53.500 C 112.852 49.785, 116.690 49.187, 124.396 51.427 C 130.658 53.247, 131.986 55.412, 132.300 64.307 C 132.477 69.317, 132.217 70.154, 130 71.698 C 125.936 74.530, 123 77.798, 123 79.490 C 123 81.066, 124.809 82.992, 130.500 87.474 C 133.393 89.752, 133.497 90.115, 133.416 97.668 C 133.366 102.398, 132.710 106.944, 131.761 109.146 C 130.415 112.268, 129.589 112.894, 126.018 113.497 C 122.805 114.040, 121.408 114.924, 119.928 117.351 C 114.798 125.764, 121.077 131.206, 129.739 125.853 L 133.213 123.705 140.170 125.986 C 149.327 128.988, 157.374 128.405, 160.750 124.495 C 164.619 120.013, 163.164 113, 158.366 113 C 154.284 113, 149.048 109.994, 147.324 106.660 C 145.176 102.505, 144.400 91.862, 145.970 88.072 C 146.967 85.665, 148.248 84.779, 152.526 83.535 C 157.151 82.191, 157.931 81.591, 158.516 78.928 C 159.390 74.948, 157.318 72.629, 151.410 70.975 C 145.788 69.401, 144.608 67.296, 144.664 58.941 C 144.720 50.654, 146.409 47.141, 151.756 44.191 C 155.182 42.302, 156 41.310, 156 39.048 C 156 33.225, 150.827 31.972, 140.884 35.386 C 136.823 36.780, 131.475 38.204, 129 38.549 C 126.525 38.894, 122.385 39.841, 119.801 40.652 L 115.101 42.127 108.499 38.145 C 101.413 33.871, 90.527 31.149, 85.534 32.402 C 79.253 33.979, 75.360 42.059, 80.250 43.370 C 81.487 43.701, 83.716 43.979, 85.203 43.986 C 88.651 44.004, 92.729 45.850, 93.446 47.719 C 94.050 49.293, 90.044 65.647, 87.865 70.500 C 87.125 72.150, 85.468 75.075, 84.185 77 L 81.851 80.500 72.425 80.592 L 63 80.683 63 77.163 C 63 75.226, 62.483 72.213, 61.852 70.467 C 60.187 65.863, 62.358 61.496, 67.566 58.971 C 69.802 57.887, 72.129 57, 72.738 57 C 74.608 57, 76.292 50.413, 75.026 48.049 C 74.119 46.354, 72.943 45.997, 68.215 45.985 C 65.072 45.976, 61.984 45.639, 61.354 45.235 C 60.723 44.831, 59.954 41.180, 59.644 37.123 C 58.797 26.034, 54.839 23.007, 48.923 28.923" stroke="none" fill="black" fill-rule="evenodd"/>
</svg>