<svg xmlns="http://www.w3.org/2000/svg" width="256" height="256" viewBox="0 0 256 256" version="1.1">
	<path d="M 53.619 27.290 C 51.849 29.060, 51.184 31.162, 50.692 36.540 C 50.156 42.408, 49.636 43.865, 47.381 45.828 C 45.910 47.109, 43.985 47.916, 43.103 47.622 C 34.456 44.738, 32.949 44.568, 30.296 46.178 C 28.840 47.061, 27.549 48.464, 27.427 49.296 C 27.033 51.981, 30.679 56.702, 33.653 57.356 C 35.219 57.701, 38.727 58.442, 41.448 59.003 C 46.913 60.130, 51.564 63.616, 50.044 65.447 C 49.479 66.128, 49.468 67.929, 50.016 70.034 C 53.471 83.291, 53.419 82.714, 51.444 85.690 C 50.418 87.235, 49.485 89.086, 49.370 89.802 C 48.812 93.291, 44 97.948, 44 95 C 44 94.450, 43.487 94, 42.860 94 C 42.233 94, 41.186 93.269, 40.532 92.375 C 38.795 89.999, 34.725 90.385, 29.551 93.417 C 21.951 97.871, 24.828 104, 34.518 104 C 37.374 104, 38.905 103.240, 41.566 100.500 C 45.154 96.805, 46.578 96.194, 46.804 98.250 C 46.880 98.938, 47.068 100.625, 47.221 102 C 47.374 103.375, 48.063 105.095, 48.750 105.821 C 49.438 106.548, 50 108.206, 50 109.506 C 50 110.806, 50.368 112.912, 50.817 114.185 C 51.266 115.458, 51.359 120.639, 51.023 125.699 C 50.469 134.043, 50.104 135.328, 47.081 139.536 C 43.415 144.642, 42.947 147.745, 45.304 151.341 C 46.772 153.582, 54.624 158, 57.138 158 C 57.776 158, 59.800 156.453, 61.636 154.562 C 64.516 151.597, 64.884 150.670, 64.310 147.812 C 63.428 143.419, 63.432 141.007, 64.339 131.451 C 64.826 126.310, 64.677 120.889, 63.924 116.451 C 63.276 112.628, 62.818 108.167, 62.905 106.537 C 63.140 102.169, 66.180 97.551, 69.051 97.203 C 74.121 96.590, 77.667 94.483, 83.153 88.828 C 86.262 85.622, 89.310 83, 89.928 83 C 90.545 83, 91.320 84.350, 91.650 86 C 91.980 87.650, 92.572 89, 92.966 89 C 93.912 89, 96.086 98.831, 95.965 102.564 C 95.912 104.179, 96.172 116.075, 96.542 129 C 97.082 147.902, 97.528 153.038, 98.822 155.250 C 100.761 158.564, 103.940 158.829, 106.593 155.898 C 110.983 151.046, 113.114 150.667, 136.686 150.543 C 156.849 150.437, 159.060 150.256, 160.936 148.558 C 166.278 143.724, 160.262 136, 151.154 136 C 146.633 136, 141.333 133.373, 140.641 130.790 C 138.946 124.462, 140.828 121.759, 148.546 119.436 C 151.151 118.652, 153.894 117.503, 154.641 116.883 C 158.262 113.878, 154.426 108.412, 147.971 107.379 C 145.330 106.957, 142.741 105.745, 141.408 104.306 C 137.316 99.891, 140.620 95.872, 149.417 94.560 C 154.388 93.819, 159 91.547, 159 89.840 C 159 87.658, 153.909 84.116, 148.524 82.550 C 140.534 80.227, 138.174 78.540, 138.744 75.558 C 139.536 71.415, 143.213 68.961, 150.127 67.962 C 153.632 67.455, 157.010 67.031, 157.633 67.020 C 158.257 67.009, 159.092 65.987, 159.489 64.750 C 161.509 58.453, 157.583 54, 150.009 54 C 144.755 54, 140 52.597, 138.786 50.687 C 138.370 50.034, 138.024 47.013, 138.015 43.973 C 137.998 37.650, 136.465 34.849, 132.014 33.006 C 129.349 31.902, 128.691 31.970, 126.974 33.523 C 124.657 35.620, 124.455 39.695, 126.532 42.441 C 128.729 45.346, 128.371 49.627, 125.777 51.443 C 123.038 53.362, 115.041 53.482, 112.524 51.642 C 110.003 49.798, 110.153 44.893, 112.833 41.485 C 115.564 38.013, 115.551 36.752, 112.750 33.496 C 111.244 31.745, 109.437 30.850, 107.285 30.789 C 101.880 30.635, 99.283 34.065, 97.094 44.245 C 96.201 48.400, 94.677 51.444, 91.590 55.245 C 86.361 61.681, 85 64.163, 85 67.265 C 85 68.770, 84.163 70.056, 82.750 70.721 C 79.008 72.482, 72.483 74, 68.654 74 C 65.408 74, 64.822 73.568, 62.886 69.750 C 61.701 67.412, 60.247 65.190, 59.654 64.810 C 58.979 64.378, 59.606 63.167, 61.340 61.560 C 63.647 59.422, 65.064 59, 69.929 59 C 73.373 59, 76.177 58.489, 76.787 57.750 C 77.866 56.441, 78.772 48.438, 77.935 47.601 C 77.668 47.335, 75.212 46.836, 72.475 46.493 C 64.370 45.475, 64.010 45.252, 63.906 41.183 C 63.636 30.527, 63.337 28.111, 62.104 26.625 C 60.183 24.311, 56.293 24.616, 53.619 27.290 M 112.500 68.164 C 109.031 70.078, 105 74.309, 105 76.035 C 105 78.301, 111.356 80.895, 117.500 81.137 C 120.971 81.273, 123.723 80.684, 126.500 79.211 C 128.700 78.043, 129.911 77.069, 129.191 77.044 C 128.471 77.020, 128.110 76.631, 128.389 76.179 C 128.668 75.728, 128.066 73.993, 127.051 72.324 C 125.703 70.108, 123.978 68.980, 120.660 68.145 C 115.193 66.768, 115.030 66.768, 112.500 68.164 M 110.250 95.491 C 106.526 97.110, 105.839 100.658, 108.750 103.246 C 112.512 106.590, 125.983 107.912, 126.630 105 C 126.814 104.175, 127.252 102.250, 127.604 100.723 C 128.961 94.830, 118.810 91.770, 110.250 95.491 M 117.500 119.929 C 110.785 121.549, 107.973 124.447, 108.032 129.684 C 108.091 134.905, 110.272 136.424, 118.287 136.829 C 124.500 137.143, 125.766 136.916, 127.307 135.213 C 128.776 133.590, 128.974 132.282, 128.401 127.968 C 127.346 120.012, 124.833 118.159, 117.500 119.929" stroke="none" fill="black" fill-rule="evenodd"/>
</svg>