<svg xmlns="http://www.w3.org/2000/svg" width="256" height="256" viewBox="0 0 256 256" version="1.1">
	<path d="M 51.989 29.250 C 50.745 31.290, 50.006 34.280, 50.004 37.282 C 49.999 43.156, 47.850 48.596, 45.201 49.436 C 44.110 49.782, 41.257 49.382, 38.859 48.547 C 30.750 45.723, 27.230 47.217, 28.488 52.946 C 29.230 56.324, 34.375 59.212, 41.923 60.487 C 47.404 61.413, 48.791 63.726, 50.598 74.951 C 51.905 83.071, 51.896 84.541, 50.512 88.615 C 49.660 91.126, 48.296 93.847, 47.481 94.662 C 45.880 96.262, 45.383 105, 46.893 105 C 47.384 105, 48.116 105.787, 48.518 106.750 C 51.519 113.921, 50.469 131.430, 46.500 140.403 C 42.839 148.682, 43.437 152.431, 49.132 156.896 C 53.879 160.618, 56.554 161.139, 59.406 158.895 C 62.645 156.348, 64.539 149.875, 62.927 146.863 C 61.243 143.717, 60.820 134.063, 62.189 130.013 C 62.842 128.081, 63.404 121.680, 63.438 115.789 L 63.500 105.078 68.097 100.289 C 70.626 97.655, 73.634 93.925, 74.782 92 C 77.413 87.588, 86.185 82.737, 86.536 85.500 C 86.874 88.159, 88.472 92.875, 90.212 96.347 C 91.272 98.463, 91.893 100.835, 91.593 101.619 C 91.292 102.403, 91.568 105.307, 92.206 108.072 C 93.088 111.892, 93.086 113.872, 92.201 116.321 C 90.780 120.251, 92.136 126.136, 95.161 129.161 C 96.808 130.808, 97.977 131.075, 101.346 130.572 C 113.988 128.687, 118 131.036, 118 140.324 C 118 144.171, 118.626 146.456, 120.389 149.052 C 122.895 152.739, 123.612 152.991, 145.877 158.033 C 156.392 160.413, 159 159.108, 159 151.464 C 159 144.751, 154.138 142.008, 142.203 141.986 C 132.562 141.969, 130.503 141.417, 128.461 138.301 C 126.919 135.947, 126.948 135.684, 128.985 133.516 C 131.393 130.953, 135.160 129.859, 142.340 129.639 C 146.211 129.521, 147.630 128.969, 149.425 126.882 C 151.464 124.511, 151.641 123.414, 151.363 114.886 C 151.194 109.724, 150.804 104.069, 150.496 102.320 C 150.014 99.584, 150.569 98.426, 154.468 94.036 C 158.761 89.202, 159 88.621, 159 83.001 C 159 76.966, 158.290 75.611, 151.200 68.129 C 149.096 65.909, 150.238 63.684, 154.761 61.189 C 161.485 57.480, 161.480 51.851, 154.751 48.371 C 152.058 46.978, 149.558 46.822, 138.685 47.362 C 127.962 47.896, 125.239 47.733, 122.404 46.388 C 119.004 44.774, 117.860 41.620, 119.888 39.450 C 123.484 35.601, 121.095 31, 115.500 31 C 110.499 31, 108.644 33.390, 107.780 40.949 C 107.323 44.949, 102.619 46.930, 92.862 47.235 C 86.114 47.445, 83.969 47.888, 82.480 49.376 C 80.908 50.949, 79.621 51.160, 74.520 50.684 C 71.173 50.372, 67.212 49.651, 65.717 49.083 C 63.034 48.062, 63 47.934, 62.968 38.775 C 62.932 28.180, 61.935 26, 57.125 26 C 54.639 26, 53.551 26.689, 51.989 29.250 M 80.500 56.928 C 77.652 57.810, 66.070 63.697, 64.309 65.158 C 63.210 66.070, 62.991 67.555, 63.453 70.943 C 64.862 81.252, 64.708 81, 69.554 81 C 73.402 81, 74.137 80.636, 75.464 78.070 C 76.297 76.458, 78.821 74.104, 81.073 72.839 C 83.325 71.573, 86.477 68.756, 88.079 66.578 C 90.656 63.074, 90.836 62.386, 89.645 60.592 C 87.954 58.046, 83.132 56.114, 80.500 56.928 M 114.472 64.121 C 113.357 64.664, 111.557 66.432, 110.472 68.051 C 109.387 69.670, 108.050 70.997, 107.500 71 C 106.950 71.003, 105.600 72.353, 104.500 74 C 103.400 75.647, 102.162 76.996, 101.750 76.997 C 101.338 76.999, 101 77.623, 101 78.385 C 101 80.365, 105.204 82.849, 109.798 83.584 C 113.179 84.124, 113.968 83.883, 115.369 81.884 C 116.266 80.603, 117 78.366, 117 76.912 C 117 73.079, 120.561 69, 123.908 69 C 126.607 69, 126.677 69.147, 126.897 75.239 C 127.156 82.415, 128.831 85, 133.221 85 C 137.211 85, 140 83.325, 140 80.930 C 140 79.172, 137.580 74.405, 135.975 73 C 134.283 71.519, 131 65.973, 131 64.596 C 131 63.275, 129.749 63.012, 123.750 63.068 C 119.763 63.105, 115.587 63.579, 114.472 64.121 M 29.500 93.549 C 25.088 95.810, 24.030 97.619, 25.048 101.166 C 26.872 107.527, 29.246 108.305, 36.473 104.908 C 40.206 103.153, 43.026 99.724, 42.061 98.112 C 41.934 97.898, 42.430 97.343, 43.165 96.877 C 44.188 96.228, 44.092 96.027, 42.750 96.015 C 41.788 96.007, 41 95.622, 41 95.161 C 41 94.103, 36.465 91.998, 34.203 92.006 C 33.266 92.010, 31.150 92.704, 29.500 93.549 M 106.419 94.154 C 102.583 95.169, 99.803 98.063, 100.922 99.874 C 101.756 101.223, 112.061 102.298, 114.648 101.305 C 116.359 100.648, 116.393 98.216, 114.711 96.679 C 111.885 94.094, 109.450 93.352, 106.419 94.154 M 130.750 96.689 C 129.707 96.962, 129 98.100, 129 99.506 C 129 102.285, 131.688 103.447, 135.953 102.510 C 138.239 102.008, 138.774 101.421, 138.454 99.759 C 137.811 96.420, 135.422 95.468, 130.750 96.689 M 100.702 114.631 C 100.316 115.017, 100 115.675, 100 116.093 C 100 116.978, 105.766 120, 107.454 120 C 109.233 120, 113.983 117.596, 113.992 116.691 C 113.996 116.246, 113.601 116.129, 113.113 116.430 C 112.626 116.731, 111.741 116.393, 111.147 115.678 C 109.989 114.282, 101.866 113.468, 100.702 114.631 M 131.250 115.031 C 128.444 116.159, 128.437 116.777, 131.203 119.176 C 133.800 121.429, 136.855 121.223, 138.398 118.691 C 139.278 117.247, 139.109 116.593, 137.559 115.441 C 135.361 113.810, 134.438 113.750, 131.250 115.031" stroke="none" fill="black" fill-rule="evenodd"/>
</svg>