<svg xmlns="http://www.w3.org/2000/svg" width="256" height="256" viewBox="0 0 256 256" version="1.1">
	<path d="M 53.954 28.549 C 51.992 30.637, 51.490 32.398, 51.173 38.299 C 50.610 48.775, 47.744 51.009, 39.363 47.507 C 32.703 44.725, 27.623 48.261, 30.008 54.019 C 31.349 57.257, 37.058 60, 42.455 60 C 49.290 60, 50.776 61.270, 51.462 67.695 C 51.803 70.888, 52.551 76.238, 53.123 79.585 C 54.398 87.038, 52.733 92.053, 48.206 94.394 C 46.582 95.233, 45.084 95.755, 44.877 95.554 C 43.800 94.507, 37.040 94.200, 33.843 95.052 C 31.044 95.798, 29.930 96.763, 29.093 99.163 C 27.489 103.766, 27.756 107.469, 29.829 109.345 C 32.430 111.699, 34.602 111.416, 40.154 108 C 42.836 106.350, 45.586 105.014, 46.265 105.032 C 48.427 105.087, 50.613 107.395, 51.825 110.899 C 53.300 115.166, 53.347 131.184, 51.900 136.500 C 50.883 140.236, 46.052 146, 43.938 146 C 43.422 146, 43 147.047, 43 148.326 C 43 153.872, 56.905 161.056, 61.255 157.758 C 64.400 155.373, 65.836 151.189, 64.880 147.198 C 63.855 142.919, 64.598 132.823, 66.497 125.244 C 67.669 120.563, 67.606 119.306, 65.914 113.744 C 63.766 106.679, 63.439 99.961, 65.159 98.241 C 65.885 97.515, 67.939 97.304, 70.659 97.677 C 73.624 98.083, 76.456 97.716, 79.595 96.517 C 83.636 94.974, 84.368 94.939, 85.659 96.230 C 86.466 97.038, 87.368 99.229, 87.663 101.099 C 87.957 102.970, 88.604 105.258, 89.099 106.184 C 89.595 107.111, 90 108.941, 90 110.253 C 90 114.100, 92.960 122.960, 94.891 124.891 C 96.085 126.085, 99.670 127.081, 105.785 127.916 L 114.898 129.162 116.058 132.676 C 117.026 135.608, 116.926 136.837, 115.457 140.095 C 113.626 144.155, 111.616 144.935, 107.988 142.994 C 106.954 142.440, 100.250 141.811, 93.091 141.596 C 77.451 141.125, 76.453 141.637, 79.755 148.433 C 81.451 151.924, 82.488 152.862, 85.176 153.336 C 94.314 154.948, 109.241 155.341, 138 154.724 C 143.225 154.612, 149.847 154.909, 152.715 155.384 C 157.708 156.212, 157.979 156.140, 159.092 153.698 C 160.557 150.482, 159.564 146.314, 157.150 145.548 C 153.486 144.385, 151.736 132.664, 154.447 127.439 C 155.545 125.322, 155.772 122.216, 155.384 114.574 C 154.724 101.550, 154.427 100.301, 151.314 97.415 C 149.116 95.378, 147.693 95, 142.222 95 C 135.038 95, 129 92.285, 129 89.054 C 129 87.863, 127.508 86.702, 124.500 85.553 C 119.930 83.808, 119.038 82.362, 121.200 80.200 C 123.454 77.946, 130.295 79.226, 130.625 81.964 C 130.694 82.534, 130.806 83.401, 130.875 83.892 C 130.992 84.727, 134.003 85.838, 138.422 86.676 C 139.478 86.876, 140.828 87.400, 141.422 87.840 C 143.850 89.641, 150.977 91.223, 153.661 90.557 C 157.086 89.706, 161.001 86.247, 160.996 84.076 C 160.994 83.209, 160.117 81.065, 159.048 79.310 C 157.404 76.615, 156.177 75.939, 151.126 74.945 C 147.839 74.298, 143.739 72.911, 142.014 71.863 C 138.075 69.467, 138.471 67.907, 145.121 59.655 C 147.818 56.308, 150.451 52.028, 150.971 50.143 C 151.491 48.259, 152.870 45.703, 154.035 44.463 C 156.863 41.452, 156.305 37.296, 152.714 34.627 C 150.174 32.738, 148.372 32.537, 132.214 32.336 C 122.471 32.215, 109.676 31.842, 103.781 31.506 C 92.038 30.838, 89.524 31.493, 87.952 35.626 C 86.621 39.127, 88.278 41.727, 93.059 43.640 C 97.235 45.311, 97.559 45.961, 98.309 54.164 C 98.665 58.059, 99.417 59.476, 102.867 62.759 C 105.140 64.921, 107 67.533, 107 68.563 C 107 71.276, 102.259 74.935, 97.826 75.644 C 95.722 75.980, 94 76.648, 94 77.128 C 94 77.608, 92.717 78, 91.149 78 C 86.384 78, 82.438 79.837, 82.265 82.137 C 82.178 83.286, 81.933 84.400, 81.721 84.613 C 81.508 84.825, 78.109 84.030, 74.167 82.845 L 67 80.690 67 75.588 C 67 72.783, 66.619 69.140, 66.154 67.493 C 65.046 63.575, 65.585 62.266, 69.041 60.479 C 74.455 57.679, 83 59.134, 83 62.856 C 83 63.405, 84.196 64.795, 85.657 65.945 C 88.660 68.307, 91.466 67.902, 94.250 64.704 C 96.985 61.562, 96.521 58.164, 93.250 57.376 C 87.709 56.042, 81.040 51.977, 79.497 48.995 C 78.021 46.141, 77.648 46, 71.533 46 C 68.005 46, 64.920 45.663, 64.679 45.250 C 64.437 44.837, 64.655 41.460, 65.162 37.744 C 65.961 31.896, 65.844 30.658, 64.292 28.526 C 61.835 25.149, 57.138 25.160, 53.954 28.549 M 109.565 46.329 C 108.058 47.431, 107.946 48.030, 108.909 49.829 C 109.548 51.023, 110.493 52, 111.010 52 C 111.526 52, 112.659 53.373, 113.527 55.052 C 116.006 59.846, 123 61.198, 123 56.883 C 123 55.800, 123.744 54.951, 124.750 54.885 C 128.997 54.605, 129.487 54.434, 129.270 53.311 C 129.144 52.657, 129.931 51.839, 131.020 51.494 C 132.110 51.148, 133 49.980, 133 48.897 C 133 47.203, 132.706 47.087, 130.880 48.064 C 129.715 48.688, 128.548 50.012, 128.288 51.007 C 127.786 52.925, 125.576 53.835, 122.847 53.247 C 121.937 53.051, 120.018 51.115, 118.582 48.945 C 115.790 44.726, 112.903 43.888, 109.565 46.329 M 109 86.187 C 109 86.634, 107.511 87, 105.691 87 C 103.871 87, 101.568 87.596, 100.572 88.323 C 98.990 89.481, 98.933 89.920, 100.122 91.823 C 101.474 93.989, 104.191 94.604, 110.425 94.155 C 113.226 93.954, 116.818 90.530, 116.207 88.645 C 116.055 88.174, 116.471 87.137, 117.133 86.340 C 118.158 85.105, 117.646 84.926, 113.668 85.132 C 111.101 85.265, 109 85.740, 109 86.187 M 104.250 106.674 C 103.013 107.538, 102 109.096, 102 110.137 C 102 113.008, 107.752 116.096, 112.500 115.772 C 116.064 115.530, 116.535 115.194, 116.823 112.685 C 117.344 108.140, 114.622 104.991, 110.227 105.052 C 108.177 105.081, 105.487 105.811, 104.250 106.674 M 131.298 107.086 C 128.758 108.025, 127.820 111.371, 129.465 113.621 C 130.901 115.586, 137.372 115.766, 139.616 113.904 C 141.339 112.474, 141.408 109.568, 139.750 108.257 C 137.931 106.819, 133.630 106.223, 131.298 107.086 M 129.760 129.250 C 126.802 131.530, 127.120 137.211, 130.390 140.481 C 133.375 143.466, 135.828 142.925, 138.769 138.632 C 141.543 134.584, 141.671 130.430, 139.066 129.035 C 136.429 127.624, 131.730 127.732, 129.760 129.250" stroke="none" fill="black" fill-rule="evenodd"/>
</svg>