<svg xmlns="http://www.w3.org/2000/svg" width="256" height="256" viewBox="0 0 256 256" version="1.1">
	<path d="M 50.392 27.261 C 46.522 29.306, 45.045 32.315, 45.022 38.203 C 45.010 41.340, 44.467 45.076, 43.816 46.506 C 42.646 49.072, 42.532 49.097, 34.921 48.433 C 27.696 47.802, 27.169 47.891, 26.553 49.834 C 25.809 52.178, 28.479 57, 30.521 57 C 31.230 57, 33.541 57.842, 35.655 58.872 C 37.770 59.901, 41.031 61.392, 42.903 62.184 L 46.306 63.624 46.091 71.742 C 45.941 77.412, 46.336 80.748, 47.398 82.804 C 48.235 84.422, 48.681 85.986, 48.388 86.279 C 48.095 86.572, 47.638 88.316, 47.371 90.156 C 47.105 91.995, 46.125 94.191, 45.194 95.035 C 43.533 96.540, 42.785 98.259, 42.706 100.750 C 42.659 102.246, 41 102.455, 41 100.964 C 41 100.395, 38.969 99.058, 36.487 97.994 C 32.588 96.323, 31.466 96.226, 28.237 97.280 C 24.767 98.413, 24.478 98.810, 24.189 102.832 C 23.523 112.086, 30.028 115.097, 36.434 108.500 C 40.271 104.549, 42.567 104.062, 43.500 107 C 43.849 108.100, 44.629 109, 45.234 109 C 45.839 109, 46.072 109.262, 45.752 109.582 C 45.432 109.901, 45.790 111.646, 46.547 113.459 C 48.620 118.419, 46.620 133.609, 42.859 141.485 C 38.925 149.721, 39.086 152.307, 43.732 155.464 C 48.174 158.482, 52.891 158.719, 56.139 156.086 C 58.148 154.458, 58.469 153.377, 58.294 148.836 C 58.180 145.901, 58.802 139.494, 59.675 134.598 C 61.044 126.928, 61.081 124.729, 59.945 118.707 C 58.742 112.333, 58.785 111.443, 60.435 108.609 C 61.431 106.899, 63.588 103.025, 65.229 100 C 69.072 92.917, 69.444 92.492, 73.473 90.580 C 76.292 89.242, 77.322 89.183, 79.677 90.226 C 83.760 92.035, 84.772 93.268, 85.543 97.376 C 86.094 100.314, 85.761 101.729, 83.865 104.513 C 82.564 106.423, 81.136 107.989, 80.691 107.993 C 80.246 107.997, 80.115 108.377, 80.399 108.837 C 80.683 109.297, 79.810 111.751, 78.458 114.291 C 75.647 119.572, 75.419 121.562, 77.401 123.544 C 78.602 124.744, 78.988 124.719, 80.110 123.368 C 86.134 116.109, 95.564 123.546, 89.829 131.034 C 83.851 138.838, 78.398 144.662, 75.463 146.375 C 73.697 147.406, 71.518 149.787, 70.622 151.666 C 69.031 155.004, 69.052 155.143, 71.547 157.638 C 75.036 161.127, 78.308 160.203, 84 154.121 C 86.475 151.477, 90.174 148.105, 92.219 146.629 C 97.304 142.960, 105 130.912, 105 126.622 C 105 123.568, 107.697 119, 109.500 119 C 110.792 119, 114.020 123.233, 114.654 125.758 C 114.984 127.072, 114.726 129.306, 114.081 130.722 C 112.837 133.451, 113.394 144.357, 115.129 151.240 C 116.309 155.921, 118.853 156.715, 125.935 154.612 C 130.006 153.403, 133.909 153.204, 144.062 153.690 C 155.670 154.245, 157.207 154.123, 159.001 152.500 C 163.053 148.832, 160.243 142, 154.682 142 C 153.652 142, 151.481 141.216, 149.859 140.258 C 145.444 137.650, 146.177 133.447, 151.691 129.754 C 157.429 125.911, 158.102 123.331, 154.220 120.059 C 152.551 118.652, 150.032 116.702, 148.624 115.727 C 146.397 114.186, 146.207 113.640, 147.162 111.545 C 148.285 109.080, 151.553 107.324, 156 106.797 C 159.772 106.349, 159.226 103.064, 155 100.781 C 150.241 98.210, 146.828 94.208, 147.196 91.631 C 147.404 90.172, 149.166 88.711, 152.783 87 C 158.568 84.263, 160.049 81.597, 158.127 77.380 C 157.508 76.020, 155.589 74.141, 153.864 73.204 C 149.386 70.772, 145.931 67.743, 145.648 66 C 145.514 65.175, 144.864 63.519, 144.204 62.319 C 142.500 59.223, 144.638 57.421, 151.751 55.962 C 154.913 55.314, 158.063 54.327, 158.750 53.769 C 160.876 52.045, 160.241 46.575, 157.630 44.122 C 154.904 41.561, 155.603 41.618, 138.407 42.559 C 129.958 43.022, 124.664 42.911, 123.479 42.248 C 122.469 41.683, 120.670 39.484, 119.482 37.360 C 116.534 32.094, 113.202 32.042, 110.762 37.224 C 107.610 43.918, 105.840 44.439, 92.482 42.603 C 79.434 40.809, 75.880 41.482, 72.690 46.350 C 71.062 48.834, 71.065 49.066, 72.736 50.753 C 76.512 54.564, 78 57.990, 78 62.872 C 78 67.023, 77.499 68.356, 74.869 71.196 C 73.146 73.056, 71.223 76.136, 70.594 78.039 C 69.495 81.367, 69.280 81.489, 65.017 81.208 C 62.579 81.048, 60.340 80.673, 60.042 80.376 C 59.744 80.078, 59.500 76.834, 59.500 73.167 C 59.500 67.204, 59.739 66.395, 61.759 65.509 C 64.175 64.449, 67.423 57.402, 66.844 54.475 C 66.655 53.517, 64.926 51.890, 63.003 50.860 C 58.829 48.624, 57.905 45.876, 58.592 37.740 C 59.310 29.233, 55.610 24.505, 50.392 27.261 M 108.742 56.591 C 108.417 56.917, 104.887 57.152, 100.899 57.115 C 96.911 57.078, 93.052 57.542, 92.324 58.146 C 91.556 58.783, 91 61.295, 91 64.122 C 91 66.805, 90.580 69, 90.067 69 C 89.554 69, 88.849 69.900, 88.500 71 C 88.151 72.100, 87.221 73, 86.433 73 C 84.544 73, 84.626 73.682, 86.794 76.009 C 88.083 77.392, 89.851 77.910, 93.068 77.845 C 95.532 77.796, 100.051 78.316, 103.111 79 C 111.922 80.972, 114.896 78.414, 117.339 66.761 C 118.548 60.992, 118.544 59.795, 117.313 58.037 C 115.952 56.093, 110.209 55.124, 108.742 56.591 M 131.556 59.910 C 130.725 61.255, 132.019 64, 133.485 64 C 135.244 64, 137.311 61.312, 136.527 60.044 C 135.733 58.759, 132.324 58.667, 131.556 59.910 M 132 66.418 C 132 67.198, 131.727 68.548, 131.393 69.418 C 130.935 70.611, 131.427 71, 133.393 71 C 134.827 71, 136 70.550, 136 70 C 136 69.450, 135.498 69, 134.883 69 C 134.259 69, 133.997 68.118, 134.290 67 C 134.630 65.700, 134.320 65, 133.406 65 C 132.633 65, 132 65.638, 132 66.418 M 125.500 88.178 C 124.400 88.792, 123.375 89.391, 123.222 89.509 C 122.122 90.355, 125.394 94.920, 127.821 95.926 C 133.652 98.341, 139.595 92.014, 135 88.282 C 133.123 86.757, 128.141 86.703, 125.500 88.178 M 99.167 94.941 C 97.425 97.109, 96 99.551, 96 100.369 C 96 102.884, 100.969 106, 104.980 106 C 113.533 106, 114.420 96.506, 106.274 92.147 C 103.103 90.450, 102.626 90.638, 99.167 94.941 M 124.369 111.560 C 122.853 113.873, 122.841 114.270, 124.243 115.671 C 125.096 116.524, 127.754 117.443, 130.149 117.713 C 133.724 118.116, 134.856 117.816, 136.463 116.041 C 137.698 114.677, 138.039 113.624, 137.387 113.189 C 136.819 112.810, 136.064 111.713, 135.708 110.750 C 135.224 109.438, 133.935 109, 130.554 109 C 126.821 109, 125.758 109.440, 124.369 111.560 M 130 130.189 C 128.075 130.716, 125.858 131.772, 125.073 132.536 C 122.922 134.630, 125.228 138.779, 129.543 140.582 C 132.696 141.900, 133.251 141.892, 134.631 140.512 C 137.025 138.117, 137.344 133.621, 135.286 131.271 C 133.762 129.531, 132.987 129.372, 130 130.189" stroke="none" fill="black" fill-rule="evenodd"/>
</svg>