<svg xmlns="http://www.w3.org/2000/svg" width="256" height="256" viewBox="0 0 256 256" version="1.1">
	<path d="M 49.102 27.909 C 41.484 28.445, 40.518 28.750, 38.702 31.189 C 36.842 33.689, 36.792 34.306, 37.994 39.972 C 38.817 43.852, 39.092 49.609, 38.750 55.821 C 38.308 63.838, 37.668 66.776, 35.158 72.312 C 31.653 80.041, 30.399 89.564, 32.714 90.860 C 33.575 91.342, 35.975 90.751, 38.817 89.358 C 45.764 85.953, 47.551 86.250, 55 92.049 C 60.172 96.076, 63.052 96.650, 72.741 95.585 C 79.217 94.873, 81.477 94.932, 81.773 95.818 C 81.989 96.468, 82.804 97, 83.583 97 C 84.362 97, 85 97.473, 85 98.051 C 85 99.680, 78.518 102, 73.966 102 C 69.077 102, 65.019 103.776, 67.046 105.029 C 67.770 105.476, 68.490 107.397, 68.646 109.299 C 68.913 112.555, 68.671 112.854, 64.465 114.460 C 62.009 115.398, 60 116.541, 60 117.001 C 60 119.220, 61.405 121, 63.157 121 C 64.225 121, 66.450 121.698, 68.101 122.552 C 70.512 123.799, 70.969 124.536, 70.427 126.302 C 70.055 127.511, 69.627 128.643, 69.474 128.818 C 69.321 128.994, 63.190 129.398, 55.848 129.716 C 48.507 130.035, 42.230 130.708, 41.901 131.212 C 41.572 131.717, 41.512 133.225, 41.768 134.565 C 42.229 136.978, 42.339 137, 53.867 137.015 C 61.801 137.024, 66.928 137.526, 69.989 138.592 C 73.283 139.739, 76.246 139.977, 81.120 139.488 C 87.306 138.867, 87.872 138.979, 89.381 141.133 C 90.271 142.405, 91 143.777, 91 144.182 C 91 145.916, 85.301 150, 82.883 150 C 81.432 150, 79.685 150.675, 79 151.500 C 77.980 152.729, 78.049 153, 79.378 153 C 80.270 153, 81 153.431, 81 153.958 C 81 155.513, 93.192 161, 96.646 161 C 99.400 161, 100.099 160.427, 101.911 156.684 C 103.060 154.311, 104 151.210, 104 149.795 C 104 148.380, 104.859 146.159, 105.910 144.861 C 107.783 142.544, 108.219 142.491, 129.209 142 C 147.636 141.569, 150.981 141.249, 153.360 139.687 C 157.530 136.950, 156.689 133.205, 151.310 130.560 C 149.005 129.427, 147.165 128.050, 147.220 127.500 C 147.418 125.530, 144.845 120.460, 142.560 118.317 C 141.279 117.116, 138.492 115.845, 136.366 115.491 C 130.588 114.531, 127 112.933, 127 111.320 C 127 110.529, 126.550 110.160, 126 110.500 C 125.450 110.840, 125 110.751, 125 110.303 C 125 109.855, 126.308 108.909, 127.906 108.202 C 131.307 106.696, 134.420 100.899, 133.457 97.864 C 132.603 95.173, 135.671 88.319, 138.003 87.709 C 138.981 87.454, 141.968 87.674, 144.641 88.199 C 150.849 89.419, 155 88.038, 155 84.752 C 155 82.072, 151.549 79.967, 142.549 77.155 C 139.276 76.132, 136.448 74.843, 136.263 74.290 C 135.899 73.198, 146.555 71.607, 148.048 72.530 C 148.549 72.839, 150.813 72.537, 153.080 71.858 C 163.279 68.802, 160.982 60.067, 149.319 57.556 C 142.456 56.079, 142.743 52.560, 150.097 48.035 C 157.815 43.287, 156.500 40.592, 144.500 36.560 C 140.100 35.082, 134.925 32.819, 133 31.531 C 127.036 27.539, 124.037 27.463, 118.949 31.174 C 115.537 33.662, 113.066 34.571, 108.350 35.070 C 104.447 35.483, 101.069 36.527, 99.101 37.928 C 95.015 40.838, 92.827 39.997, 89.955 34.412 C 88.668 31.911, 86.811 29.434, 85.827 28.907 C 84.843 28.381, 80.317 28.037, 75.769 28.143 C 71.221 28.249, 65.250 28.106, 62.500 27.826 C 59.750 27.546, 53.721 27.583, 49.102 27.909 M 53.250 40.031 C 50.100 41.297, 50.378 44.517, 53.750 45.819 C 55.263 46.403, 60.140 47.173, 64.589 47.530 C 71.303 48.069, 72.953 47.905, 74.296 46.561 C 76.068 44.790, 75.608 42.215, 73.169 40.250 C 71.363 38.794, 56.727 38.634, 53.250 40.031 M 90.655 44.829 C 89.485 46.121, 89 48.497, 89 52.928 C 89 58.662, 88.733 59.447, 85.873 62.119 L 82.745 65.041 78.444 62.520 C 73.917 59.867, 69.170 59.304, 65.934 61.035 C 63.262 62.465, 63.515 64.452, 66.629 66.493 C 70.360 68.937, 73.969 69.275, 78.662 67.619 C 81.840 66.498, 83.236 66.437, 85.020 67.341 C 88.460 69.084, 91.081 73.186, 91.699 77.796 C 92.004 80.063, 93.042 82.633, 94.007 83.506 C 95.624 84.970, 96.125 84.848, 100.422 81.948 C 103.922 79.586, 106.592 78.666, 111.144 78.253 C 115.578 77.851, 117.802 77.107, 119.427 75.482 C 121.535 73.374, 121.556 73.204, 119.838 72.131 C 118.842 71.509, 114.442 71, 110.061 71 C 100.858 71, 97.473 69.796, 96.170 66.058 C 95.056 62.863, 96.181 60.989, 100.573 58.720 C 107.860 54.954, 107.596 50.996, 99.741 46.236 C 93.543 42.479, 92.875 42.375, 90.655 44.829 M 118.455 48.455 C 114.939 51.971, 115.376 53.814, 120.250 56.027 C 126.160 58.710, 131.231 58.565, 134.660 55.616 L 137.432 53.232 133.816 49.616 C 130.699 46.499, 129.559 46, 125.555 46 C 121.956 46, 120.356 46.553, 118.455 48.455 M 52.701 62.964 C 53.140 64.643, 53.417 64.726, 54.607 63.536 C 56.491 61.651, 56.359 61, 54.094 61 C 52.691 61, 52.323 61.519, 52.701 62.964 M 65.500 79.140 L 63.500 81.161 65.963 83.163 C 67.721 84.592, 69.267 84.997, 71.367 84.577 C 75.917 83.667, 77.092 82.296, 75.783 79.424 C 74.352 76.283, 68.487 76.121, 65.500 79.140 M 104.770 88.744 L 96.039 89.077 93.398 93.584 C 91.945 96.062, 91.051 98.384, 91.410 98.743 C 93.924 101.258, 117.394 98.549, 119.633 95.487 C 121.704 92.655, 118.613 87.737, 115.059 88.206 C 114.201 88.319, 109.571 88.561, 104.770 88.744 M 110.323 108.650 C 107.376 109.286, 105.370 111.770, 106.715 113.115 C 108.323 114.723, 121.740 113.119, 122.464 111.234 C 122.785 110.398, 122.916 109.582, 122.755 109.422 C 122.141 108.807, 112.395 108.202, 110.323 108.650 M 81.056 112.433 C 80.095 113.591, 80.397 114.214, 82.628 115.676 C 85.541 117.584, 89.002 117.571, 90.235 115.647 C 91.359 113.891, 91.190 113.596, 88.293 112.250 C 84.767 110.613, 82.519 110.670, 81.056 112.433 M 80.250 124.347 C 76.880 125.453, 75.584 129, 78.550 129 C 79.402 129, 81.449 129.698, 83.100 130.552 C 87.066 132.603, 89.676 131.664, 90.215 127.990 C 90.939 123.053, 87.749 121.887, 80.250 124.347 M 107.650 126.469 C 106.686 128.981, 106.708 129, 110.570 129 C 112.534 129, 117.896 129.738, 122.485 130.640 C 127.225 131.571, 131.623 131.938, 132.665 131.489 C 133.674 131.054, 135.020 130.587, 135.656 130.451 C 136.292 130.316, 137.578 129.776, 138.513 129.252 C 141.342 127.669, 131.274 124.821, 126.917 125.972 C 125.038 126.468, 122.150 126.689, 120.500 126.462 C 118.850 126.235, 115.430 125.763, 112.900 125.412 C 109.123 124.888, 108.185 125.077, 107.650 126.469" stroke="none" fill="black" fill-rule="evenodd"/>
</svg>