<svg xmlns="http://www.w3.org/2000/svg" width="256" height="256" viewBox="0 0 256 256" version="1.1">
	<path d="M 51.901 29.106 C 49.451 31.729, 49 33.040, 49 37.541 C 49 47.860, 46.033 50.800, 38.038 48.405 C 30.651 46.192, 26.598 48.444, 27.689 54.154 C 28.102 56.315, 29.116 57.064, 33.346 58.332 C 36.181 59.181, 40.075 60.181, 42 60.554 C 46.709 61.465, 47.838 62.549, 48.558 66.850 C 48.894 68.858, 49.760 73.518, 50.483 77.206 C 51.605 82.935, 51.582 84.537, 50.321 88.206 C 47.696 95.844, 45.020 97.297, 38.056 94.870 C 34.331 93.571, 28.117 94.949, 25.957 97.552 C 24.498 99.310, 24.505 106.207, 25.969 108.941 C 26.507 109.947, 28.132 111.067, 29.580 111.431 C 32.305 112.115, 34.586 111.034, 38.708 107.105 C 39.923 105.947, 42.213 105, 43.798 105 C 47.380 105, 48.650 107.482, 50.023 117.164 C 51.212 125.545, 50.226 132.663, 46.527 142.398 C 43.550 150.232, 43.783 153.400, 47.674 158.024 C 51.196 162.210, 55.898 162.134, 60.016 157.826 C 63.728 153.942, 64.550 151.017, 63.100 146.858 C 62.301 144.566, 62.285 140.592, 63.040 132.590 C 64.072 121.670, 63.817 116.947, 61.821 109.960 C 60.720 106.108, 62.122 98.661, 64.188 97.384 C 64.811 96.999, 67.876 96.776, 71 96.888 C 78.579 97.162, 80.026 95.601, 77.461 89.914 C 75.284 85.085, 70.732 81, 67.529 81 C 65.413 81, 65.277 80.706, 65.970 77.632 C 66.472 75.406, 66.250 73.121, 65.315 70.898 C 63.205 65.881, 64.274 63.443, 69.449 61.466 C 74.807 59.420, 77.395 56.819, 76.591 54.288 C 75.885 52.064, 70.996 49, 68.152 49 C 64.669 49, 63 45.260, 63 37.452 C 63 31.320, 62.684 30.051, 60.686 28.174 C 57.528 25.208, 55.324 25.442, 51.901 29.106 M 107.500 30.871 C 105.850 31.895, 103.423 33.904, 102.106 35.334 C 100.790 36.765, 97.569 38.647, 94.949 39.517 C 89.436 41.348, 85 45.056, 85 47.834 C 85 48.895, 86.434 51.164, 88.186 52.878 L 91.372 55.993 89.186 59.883 C 86.404 64.832, 86.422 67.994, 89.250 71.594 C 90.776 73.536, 91.531 75.913, 91.595 78.979 C 91.648 81.465, 92.031 86.425, 92.447 90 L 93.202 96.500 89.851 98.422 C 85.630 100.842, 84.624 102.523, 84.491 107.372 C 84.410 110.354, 83.766 111.695, 81.693 113.205 C 79.855 114.544, 79 116.074, 79 118.024 C 79 121.506, 79.742 122.011, 85.773 122.638 C 88.471 122.918, 91.036 123.826, 91.750 124.755 C 92.438 125.650, 93.007 125.959, 93.015 125.441 C 93.024 124.924, 93.482 125.175, 94.034 126 C 94.912 127.311, 95.207 127.280, 96.379 125.750 C 97.117 124.787, 98.218 124, 98.825 124 C 99.433 124, 102.037 123.285, 104.613 122.410 C 110.162 120.526, 114 121.812, 114 125.555 C 114 126.774, 114.672 129.060, 115.494 130.636 C 117.503 134.487, 117.530 146.315, 115.535 147.971 C 113.835 149.382, 107.317 148.565, 103.190 146.424 C 100.095 144.818, 99.167 142.877, 99.070 137.809 C 99.032 135.779, 98.550 133.840, 98 133.500 C 97.450 133.160, 97 132.009, 97 130.941 C 97 129.280, 96.283 129, 92.026 129 C 87.466 129, 86.917 129.260, 85.435 132.126 C 84.338 134.248, 84.002 136.576, 84.389 139.376 C 84.703 141.644, 85.234 145.567, 85.568 148.094 C 85.903 150.621, 87.160 153.922, 88.362 155.429 C 90.258 157.807, 91.537 158.270, 98.024 158.926 C 102.136 159.342, 115.704 159.641, 128.176 159.591 C 149.643 159.505, 151.003 159.387, 153.676 157.382 C 156.473 155.284, 156.498 155.170, 156.272 145.382 C 156.147 139.947, 156.035 134.014, 156.022 132.198 L 156 128.895 150.754 129.198 C 145.868 129.479, 145.392 129.740, 143.802 133 C 142.864 134.925, 142.074 137.637, 142.048 139.027 C 141.969 143.165, 139.334 146, 135.566 146 C 131.105 146, 129.987 144.331, 129.429 136.838 C 129.170 133.352, 128.719 129.736, 128.427 128.801 C 128.131 127.852, 128.773 126.227, 129.883 125.117 C 131.560 123.440, 132.774 123.214, 137.685 123.668 C 140.883 123.963, 146.379 124.842, 149.897 125.622 C 153.415 126.402, 156.396 126.918, 156.520 126.770 C 157.853 125.178, 160 119.585, 160 117.705 C 160 112.293, 152.400 109.463, 140.184 110.325 C 131.592 110.931, 128 110.122, 128 107.580 C 128 104.433, 132.533 103.027, 140.676 103.647 C 147.757 104.186, 148.678 104.045, 150.369 102.162 C 151.680 100.701, 152.042 99.304, 151.583 97.474 C 150.442 92.930, 145.665 91.759, 125.549 91.093 L 107.598 90.500 107.459 87.846 C 107.341 85.606, 108.034 84.875, 111.910 83.152 C 114.434 82.031, 121.105 79.727, 126.733 78.032 C 135.617 75.358, 137.495 74.395, 140.978 70.726 C 143.185 68.402, 146.601 64.808, 148.569 62.740 C 154.202 56.822, 159.188 48.834, 159.735 44.850 C 160.170 41.686, 159.865 40.958, 157.441 39.369 C 155.037 37.794, 152.914 37.580, 142.307 37.841 C 128.149 38.190, 124.877 37.402, 120.110 32.492 C 116.175 28.439, 112.231 27.932, 107.500 30.871 M 119.609 50.534 C 118.127 52.016, 118.088 52.500, 119.305 54.333 C 121.017 56.911, 124.734 59.614, 127.778 60.494 C 129.535 61.002, 130.742 60.417, 133.063 57.932 C 136.682 54.059, 136.457 52.870, 131.813 51.321 C 124.676 48.942, 121.412 48.731, 119.609 50.534 M 100.448 55.446 C 98.569 56.849, 98.562 57.012, 100.250 60.031 C 101.213 61.753, 102 64.715, 102 66.612 C 102 68.794, 102.565 70.280, 103.538 70.653 C 105.734 71.496, 112.014 68.871, 113.629 66.436 C 114.875 64.555, 114.619 63.961, 110.749 59.760 C 105.891 54.487, 103.225 53.371, 100.448 55.446 M 42.269 97.693 C 43.242 97.947, 44.592 97.930, 45.269 97.656 C 45.946 97.382, 45.150 97.175, 43.500 97.195 C 41.850 97.215, 41.296 97.439, 42.269 97.693 M 42.750 101.662 C 43.438 101.940, 44.563 101.940, 45.250 101.662 C 45.938 101.385, 45.375 101.158, 44 101.158 C 42.625 101.158, 42.063 101.385, 42.750 101.662 M 42.813 103.683 C 43.534 103.972, 44.397 103.936, 44.729 103.604 C 45.061 103.272, 44.471 103.036, 43.417 103.079 C 42.252 103.127, 42.015 103.364, 42.813 103.683 M 101.527 104.616 C 99.885 106.258, 99.916 108.447, 101.583 108.565 C 102.088 108.600, 104.177 109.123, 106.226 109.727 C 111.253 111.209, 114 110.381, 114 107.383 C 114 105.691, 113.437 105, 112.059 105 C 110.991 105, 109.840 104.550, 109.500 104 C 108.529 102.428, 103.312 102.831, 101.527 104.616" stroke="none" fill="black" fill-rule="evenodd"/>
</svg>