<svg xmlns="http://www.w3.org/2000/svg" width="256" height="256" viewBox="0 0 256 256" version="1.1">
	<path d="M 58.043 29.673 C 56.242 31.962, 56.033 33.169, 56.588 38.073 C 57.200 43.485, 57.091 43.894, 54.599 45.527 C 52.491 46.908, 50.773 47.120, 46.020 46.582 C 41.698 46.093, 39.315 46.303, 37.286 47.352 C 28.858 51.711, 29.358 56.885, 38.464 59.533 C 41.512 60.419, 44.432 61.938, 44.951 62.909 C 45.547 64.022, 45.528 67.224, 44.900 71.587 C 44.352 75.389, 44.165 79.926, 44.482 81.670 C 44.800 83.413, 44.405 87.913, 43.604 91.670 C 42.804 95.426, 41.906 102.831, 41.609 108.124 C 41.261 114.341, 40.347 119.583, 39.028 122.930 C 37.904 125.780, 36.259 132.699, 35.372 138.306 C 32.996 153.319, 32.931 154.698, 34.538 156.031 C 36.650 157.784, 42.734 156.350, 44.412 153.703 C 46.031 151.151, 51 132.294, 51 128.704 C 51 127.369, 52.415 123.177, 54.146 119.388 C 56.768 113.645, 57.240 111.503, 56.984 106.500 C 56.472 96.484, 56.789 93.878, 58.697 92.430 C 62.188 89.783, 71.700 91.050, 74.235 94.500 C 75.448 96.152, 75.097 101.475, 73.469 106.088 C 72.440 109.005, 71.835 115.191, 71.625 124.964 C 71.272 141.308, 70.409 144.307, 65.662 145.668 C 59.399 147.464, 58.472 153.842, 63.589 159.923 C 66.354 163.210, 70.198 163.936, 73.086 161.718 C 76.523 159.078, 82.164 148.202, 83.572 141.500 C 85.474 132.446, 86.110 126.548, 85.983 119.133 C 85.903 114.385, 85.950 109.375, 86.088 108 C 86.226 106.625, 86.375 100.225, 86.420 93.778 C 86.492 83.262, 86.291 81.847, 84.465 80.021 C 82.240 77.795, 76.989 77.203, 70.806 78.480 C 65.341 79.609, 60.261 78.380, 59.380 75.715 C 57.913 71.281, 59.019 66.623, 62.321 63.323 C 66.587 59.059, 70.567 58.640, 81.500 61.306 C 89.960 63.368, 90.519 63.666, 90.818 66.267 C 91.324 70.672, 93.415 73.826, 98.977 78.573 C 104.767 83.515, 107.450 84.513, 112.670 83.666 C 115.116 83.269, 116.695 83.552, 117.713 84.570 C 119.734 86.591, 120.597 97.144, 119.047 100.887 C 118.374 102.512, 117.820 108.041, 117.817 113.171 C 117.808 127.445, 116.563 129.263, 111.812 121.936 C 109.602 118.528, 109.324 117.359, 110.088 114.692 C 111.300 110.466, 111.243 105.322, 109.957 102.920 C 109.383 101.848, 107.478 100.385, 105.723 99.669 C 97.815 96.442, 94.378 101.147, 96.351 112.500 C 97.279 117.843, 94.847 128.934, 91.861 132.977 C 88.907 136.975, 88.786 145.001, 91.630 148.144 C 94.228 151.014, 97.947 149.968, 104.701 144.466 C 111.122 139.235, 113.522 139.052, 116.475 143.569 C 119.454 148.126, 136.732 155.494, 148.152 157.077 C 156.461 158.228, 156.927 158.188, 159.902 156.070 C 162.470 154.241, 163 153.189, 163 149.917 C 163 146.538, 162.533 145.686, 159.750 143.989 C 157.963 142.899, 154.847 142.006, 152.826 142.004 C 150.806 142.002, 146.756 141.508, 143.826 140.907 C 140.897 140.307, 137.449 139.613, 136.164 139.367 C 134.879 139.120, 132.742 137.832, 131.414 136.505 C 128.479 133.570, 128.121 126.654, 130.630 121.367 C 132.919 116.545, 135.286 115.165, 140.302 115.731 C 143.445 116.085, 145.111 115.731, 146.822 114.345 C 149.426 112.236, 150.071 106.995, 148.029 104.535 C 146.598 102.811, 142.445 102.470, 141.500 104 C 140.492 105.631, 136.437 105.140, 134.655 103.171 C 133.419 101.806, 133 99.409, 133 93.706 C 133 87.094, 133.268 85.927, 135 85 C 138.680 83.030, 144 88.363, 144 94.022 C 144 95.961, 146.162 99.093, 147.475 99.056 C 149.068 99.011, 154.062 95.745, 154.839 94.240 C 155.333 93.283, 156.013 88.633, 156.350 83.907 C 156.940 75.624, 156.870 75.227, 154.423 72.928 C 151.985 70.637, 151.279 70.539, 136.692 70.473 C 128.336 70.435, 120.155 70.763, 118.511 71.201 C 109.417 73.625, 104.123 64.573, 112.194 60.400 C 114.624 59.143, 118.598 58.831, 131.705 58.870 C 140.758 58.896, 149.061 59.202, 150.156 59.549 C 153.462 60.599, 157.804 58.168, 158.530 54.862 C 159.848 48.861, 156.029 46.958, 141.675 46.466 C 115.616 45.571, 113 44.673, 113 36.621 C 113 32.701, 112.687 32.113, 110.006 31.002 C 105.971 29.331, 102 31.732, 102 35.842 C 102 40.040, 99.276 48.380, 96.930 51.362 C 94.321 54.678, 91.345 54.706, 86.944 51.457 C 85.050 50.058, 81.175 48.237, 78.334 47.410 C 75.492 46.583, 72.586 45.206, 71.875 44.349 C 71.164 43.493, 70.276 39.831, 69.901 36.213 C 69.155 29.003, 67.629 27, 62.881 27 C 61.107 27, 59.406 27.939, 58.043 29.673" stroke="none" fill="black" fill-rule="evenodd"/>
</svg>