<svg xmlns="http://www.w3.org/2000/svg" width="256" height="256" viewBox="0 0 256 256" version="1.1">
	<path d="M 57.969 29.750 C 56.066 32.154, 55.871 33.283, 56.421 38.725 C 56.971 44.158, 56.790 45.210, 55.004 46.996 C 53.165 48.835, 52.170 48.978, 45.228 48.402 C 37.737 47.780, 37.416 47.845, 34.750 50.517 C 33.237 52.032, 32 54.111, 32 55.136 C 32 57.923, 35.615 61, 38.889 61 C 44.253 61, 46.070 63.615, 46.541 72.008 C 46.773 76.129, 47.216 80.670, 47.527 82.099 C 47.838 83.529, 47.430 87.804, 46.620 91.599 C 45.810 95.395, 44.890 102.325, 44.575 107 C 43.959 116.155, 42.819 121.203, 39.947 127.500 C 38.012 131.742, 35 146.535, 35 151.793 C 35 155.579, 37.480 157.234, 41.531 156.150 C 45.975 154.962, 47.748 151.512, 51.553 136.658 C 53.502 129.045, 55.471 122.070, 55.927 121.158 C 59.504 114.003, 59.948 111.783, 59.498 103.317 C 58.924 92.549, 59.893 91, 67.200 91 C 71.059 91, 72.609 91.518, 74.545 93.455 C 77.417 96.326, 77.622 99.463, 75.398 106.500 C 74.529 109.250, 73.879 114.209, 73.954 117.519 C 74.105 124.166, 71.642 139.932, 69.962 143.070 C 69.373 144.171, 67.535 145.343, 65.878 145.674 C 61.750 146.500, 59.587 150.053, 60.342 154.769 C 61.794 163.838, 72.499 164.401, 77.882 155.691 C 80.923 150.771, 86.949 131.460, 87.656 124.370 C 88.118 119.737, 87.866 117.439, 86.627 114.954 C 85.149 111.991, 85.138 111.439, 86.517 109.334 C 88.843 105.784, 93.848 106.173, 98.289 110.250 C 102.832 114.421, 104.515 122.414, 103.566 135.316 C 102.988 143.180, 103.144 144.496, 105.006 147.510 C 108.216 152.704, 118.095 158.956, 124.836 160.061 C 131.468 161.147, 144.288 161.169, 151.744 160.107 C 157.685 159.261, 162 155.995, 162 152.346 C 162 149.111, 159.114 142.258, 157.488 141.634 C 156.742 141.348, 154.466 142.438, 152.429 144.057 C 149.280 146.559, 147.809 147.011, 142.612 147.077 C 139.251 147.119, 135.806 147.290, 134.957 147.458 C 132.899 147.864, 122.031 146.214, 119.441 145.101 C 117.108 144.099, 114.800 137.637, 115.492 134.044 C 115.741 132.750, 116.243 128.400, 116.607 124.377 C 117.147 118.422, 116.958 116.585, 115.590 114.498 C 113.557 111.394, 113.724 101.330, 115.822 100.519 C 119.674 99.029, 123.363 106.300, 122.935 114.538 C 122.569 121.582, 122.948 122.933, 126.148 125.991 C 129.946 129.621, 132.892 129.808, 135.896 126.611 C 138.244 124.111, 138.264 123.295, 136.480 102.220 C 136.160 98.440, 138.244 95.780, 140.779 96.731 C 143.586 97.783, 144.833 100.232, 144.833 104.686 C 144.833 106.993, 145.273 109.665, 145.810 110.625 C 146.457 111.781, 146.430 112.940, 145.729 114.062 C 144.029 116.784, 147.818 122.423, 151.600 122.799 C 156.591 123.295, 158.257 120.444, 158.028 111.799 C 157.922 107.785, 157.744 100.900, 157.633 96.500 C 157.478 90.399, 156.850 87.267, 154.986 83.306 C 152.147 77.274, 149.890 75.923, 144.346 76.937 C 138.872 77.938, 136.449 76.801, 134.055 72.107 C 132.935 69.912, 130.406 66.886, 128.435 65.383 L 124.852 62.650 127.176 61.360 C 130.060 59.760, 135.322 59.682, 145.746 61.085 C 152.831 62.039, 154.125 61.964, 156.405 60.470 C 159.829 58.227, 159.887 53.796, 156.537 50.446 C 154.122 48.031, 153.797 47.988, 139.787 48.242 C 120.441 48.591, 113.155 46.122, 114.568 39.692 C 115.536 35.283, 113.367 32, 109.486 32 C 105.163 32, 103 34.660, 103 39.976 C 103 45.729, 99.381 55.380, 95.778 59.237 C 88.744 66.768, 88.363 70.956, 94.392 74.489 C 99.458 77.459, 101.411 81.228, 100.715 86.697 C 100.030 92.071, 99.238 93.570, 96.398 94.865 C 93.009 96.408, 92.315 96.315, 90 94 C 88.525 92.525, 88 90.667, 88 86.923 C 88 82.645, 87.540 81.386, 85.077 78.923 C 81.728 75.574, 78.464 75.219, 72 77.500 C 62.787 80.751, 59.909 78.452, 61.924 69.450 C 63.846 60.862, 68.286 58.773, 78.653 61.579 C 83.767 62.963, 85.240 63.046, 86.476 62.020 C 88.418 60.408, 88.410 57.667, 86.452 53.540 C 84.640 49.721, 81.412 48, 76.064 48 C 73.864 48, 71.278 47.236, 70.015 46.213 C 67.975 44.562, 67.897 44.097, 68.979 40.079 C 70.933 32.821, 68.236 27, 62.918 27 C 61.087 27, 59.405 27.935, 57.969 29.750 M 113.349 63.468 C 110.273 65.623, 108.640 73.067, 110.143 78.083 C 111.351 82.116, 115.059 87, 116.912 87 C 118.697 87, 123.003 81.585, 122.494 79.981 C 122.223 79.127, 122.422 75.078, 122.936 70.983 C 123.630 65.457, 123.565 63.344, 122.685 62.784 C 120.715 61.531, 115.577 61.907, 113.349 63.468" stroke="none" fill="black" fill-rule="evenodd"/>
</svg>