<svg xmlns="http://www.w3.org/2000/svg" width="256" height="256" viewBox="0 0 256 256" version="1.1">
	<path d="M 94.008 27.959 C 88.967 29.228, 87.996 35.637, 92.062 40.806 C 96.379 46.294, 93.463 50.161, 85.123 50.009 C 71.751 49.765, 44.404 51.695, 41.500 53.088 C 37.602 54.958, 37.481 58.523, 41.221 61.315 C 43.823 63.259, 44.494 63.298, 56.690 62.216 C 73.652 60.712, 73.470 60.566, 72.563 75 C 71.352 94.270, 69.219 102.616, 64 108.500 C 63.025 109.600, 61.504 112.975, 60.621 116 C 59.737 119.025, 57.912 123.300, 56.565 125.500 C 55.218 127.700, 53.226 131.300, 52.137 133.500 C 51.048 135.700, 48.080 140.650, 45.541 144.500 C 40.396 152.301, 39.226 155.544, 40.705 157.905 C 42.474 160.729, 45.908 160.393, 49.067 157.087 C 50.680 155.399, 52.007 153.677, 52.015 153.259 C 52.023 152.842, 54.542 149.800, 57.612 146.500 C 63.340 140.344, 65.814 136.330, 67.948 129.733 C 68.618 127.661, 70.591 123.598, 72.333 120.705 C 74.075 117.811, 76.331 113.431, 77.346 110.972 C 83.564 95.908, 83.906 95.638, 96.500 95.886 C 123.855 96.424, 124.872 96.514, 127.731 98.641 C 131.349 101.333, 131.863 107.468, 129.153 115.633 C 128.082 118.860, 126.887 123.525, 126.497 126 C 125.286 133.689, 122.817 136.565, 115.270 139.076 C 104.872 142.537, 101.433 147.433, 106.113 152.113 C 107.823 153.823, 108.917 154.094, 111.863 153.538 C 113.863 153.160, 118.545 152.529, 122.268 152.135 C 127.658 151.565, 129.565 150.889, 131.640 148.814 C 136.965 143.489, 142.646 121.781, 142.189 108.500 C 142.094 105.750, 142.511 101.348, 143.116 98.717 C 143.955 95.069, 143.919 93.219, 142.967 90.920 C 140.881 85.884, 138.232 85.216, 118.978 84.873 C 89.283 84.343, 83.175 81.553, 88.669 71.027 C 89.394 69.637, 89.990 67.508, 89.994 66.295 C 90.003 63.095, 93.697 62.725, 113.500 63.939 C 122.850 64.512, 135.133 64.985, 140.795 64.990 C 150.504 64.999, 151.236 64.855, 153.641 62.450 C 155.626 60.465, 156.045 59.300, 155.530 57.200 C 154.265 52.037, 153.717 51.904, 132.405 51.564 C 120.408 51.373, 111.264 50.781, 109.388 50.074 C 105.709 48.687, 103.822 45.140, 104.626 41.121 C 105.860 34.952, 99.170 26.659, 94.008 27.959" stroke="none" fill="black" fill-rule="evenodd"/>
</svg>