<svg xmlns="http://www.w3.org/2000/svg" width="256" height="256" viewBox="0 0 256 256" version="1.1">
	<path d="M 110.465 29.024 C 109.346 29.438, 107.918 30.393, 107.293 31.147 C 105.507 33.298, 100.574 47.692, 98.603 56.500 C 96.721 64.907, 96.318 65.861, 91.500 73.303 C 85.894 81.963, 84.227 79.217, 84.019 60.977 C 83.790 40.877, 82.914 33.600, 80.671 33.172 C 75.202 32.128, 72.900 34.713, 72.365 42.500 C 71.485 55.303, 71.108 60.066, 70.584 65 C 70.262 68.025, 70.406 72.975, 70.904 76 C 71.983 82.564, 69.828 101.601, 67.773 103.656 C 67.042 104.387, 63.916 105.260, 60.827 105.597 C 55.901 106.134, 54.938 105.938, 53.001 104.001 C 51.237 102.237, 50.936 101.157, 51.508 98.646 C 52.341 94.992, 52.326 92.868, 51.405 84 C 51.033 80.425, 50.644 74.125, 50.539 70 C 50.354 62.713, 48.153 55.365, 45.691 53.820 C 43.693 52.565, 41.385 54.831, 38.184 61.188 C 34.390 68.726, 33.303 73.455, 34.918 75.401 C 38.878 80.173, 40.644 99.055, 38.010 108.463 C 37.202 111.351, 37.118 113.388, 37.760 114.536 C 39.417 117.497, 45.850 118.969, 57.203 118.985 C 72.421 119.006, 75.517 120.936, 72.894 128.766 C 72.205 130.820, 71.655 136.825, 71.670 142.111 C 71.693 150.370, 72.038 152.340, 74.115 156.106 C 78.103 163.336, 85.171 165.052, 86.476 159.107 C 87.017 156.647, 85.145 143.980, 81.953 128.500 C 80.622 122.046, 80.979 100.018, 82.523 93.288 C 83.181 90.422, 84.493 86.897, 85.438 85.454 C 86.982 83.098, 87.326 82.982, 88.828 84.318 C 90.880 86.143, 100.310 89, 104.280 89 C 107.473 89, 112.421 93.441, 113.528 97.301 C 113.875 98.510, 114.789 100.899, 115.559 102.609 C 116.330 104.319, 117.253 108.875, 117.612 112.734 L 118.264 119.750 112.737 127.223 C 109.697 131.334, 105.147 137.020, 102.625 139.859 C 95.351 148.050, 93.528 152.671, 96.429 155.571 C 99.868 159.011, 105.243 156.613, 114.548 147.490 C 118.195 143.914, 122.138 140.316, 123.312 139.494 C 128.171 136.091, 133.580 138.346, 143.211 147.789 C 149.539 153.993, 150.195 154.373, 154.692 154.435 L 159.461 154.500 159.810 149.245 C 160.134 144.372, 159.917 143.767, 156.830 140.914 C 142.643 127.804, 135.130 120.174, 134.563 118.301 C 134.110 116.803, 134.508 115.492, 135.811 114.189 C 139.676 110.324, 144.176 100.017, 145.498 92 C 145.906 89.525, 147.086 85.830, 148.120 83.790 C 149.154 81.749, 150 79.017, 150 77.718 C 150 73.596, 153.175 65.767, 155.044 65.278 C 156.121 64.997, 157.068 63.451, 157.467 61.324 C 158.506 55.785, 157.308 52.481, 153.519 50.440 C 150.452 48.788, 149.559 48.743, 143.820 49.946 C 140.344 50.674, 135.925 51.235, 134 51.192 C 132.075 51.149, 128.052 51.072, 125.060 51.021 C 122.068 50.971, 119.030 50.440, 118.310 49.842 C 117.403 49.090, 117 45.916, 117 39.538 C 117 30.950, 116.846 30.251, 114.750 29.296 C 113.513 28.732, 111.584 28.610, 110.465 29.024 M 115.267 64.293 C 109.797 67.151, 108.781 79.008, 113.574 84.055 C 114.908 85.460, 116 87.152, 116 87.816 C 116 88.479, 118.458 90.227, 121.462 91.700 C 126.632 94.236, 127.024 94.288, 128.806 92.676 C 129.841 91.739, 131.235 88.526, 131.905 85.536 C 132.574 82.546, 134.217 77.940, 135.556 75.300 C 138.389 69.716, 138.632 66.769, 136.411 64.926 C 134.320 63.191, 118.295 62.711, 115.267 64.293" stroke="none" fill="black" fill-rule="evenodd"/>
</svg>