<svg xmlns="http://www.w3.org/2000/svg" width="256" height="256" viewBox="0 0 256 256" version="1.1">
	<path d="M 60.548 28.262 C 56.074 31.187, 54.858 31.503, 47.960 31.529 C 39.207 31.561, 35 33.467, 35 37.401 C 35 41.991, 42.198 44.734, 49.451 42.908 C 55.306 41.434, 59 42.770, 59 46.362 C 59 49.606, 55.526 50.190, 49.317 47.991 C 44.965 46.449, 44.243 46.431, 41.835 47.807 C 37.985 50.008, 37 53.020, 37 62.597 C 37 71.485, 38.072 74.945, 41.898 78.407 C 44.697 80.941, 44.558 81.980, 40.965 85.371 C 34.188 91.767, 33.484 97.755, 39.237 100.046 C 43.427 101.714, 43.067 101.297, 43.651 105.156 C 44.440 110.375, 46.428 112.580, 51.674 114.054 C 57.136 115.589, 58.375 115.617, 76.864 114.618 C 94.372 113.672, 93.660 113.039, 93.569 129.455 C 93.481 145.325, 93.349 145.501, 81.759 145.185 C 74.731 144.993, 73.236 144.644, 71.727 142.840 C 70.117 140.916, 70.094 140.506, 71.477 138.395 C 72.314 137.117, 73 135.176, 73 134.082 C 73 132.989, 73.514 130.966, 74.142 129.588 C 75.841 125.859, 73.177 122.408, 67.246 120.657 C 62.708 119.317, 62.451 119.349, 61.385 121.378 C 60.772 122.545, 60.012 127.077, 59.697 131.449 C 59.213 138.167, 58.766 139.684, 56.812 141.245 C 51.202 145.728, 50.636 145.933, 46.500 144.982 C 41.419 143.813, 39.130 144.528, 37.941 147.655 C 35.456 154.192, 40.361 157.946, 48.973 156.099 C 52.436 155.356, 55.468 155.321, 58.442 155.987 C 68.296 158.195, 78.984 158.823, 84.035 157.491 C 87.958 156.456, 95.737 156.383, 122.231 157.131 L 155.500 158.072 157.250 155.925 C 159.302 153.408, 159.513 150.008, 157.750 147.855 C 155.513 145.122, 148.814 144.221, 130.722 144.220 C 111.880 144.219, 107 143.333, 107 139.914 C 107 137.067, 110.870 135.639, 118 135.855 C 127.583 136.145, 131.815 135.211, 133.658 132.400 C 137.630 126.337, 129.512 120.270, 116.382 119.490 C 107.475 118.961, 104.232 117.631, 106.166 115.300 C 107.233 114.014, 108.919 113.852, 115.778 114.380 C 121.083 114.787, 124.832 114.625, 126.129 113.931 C 127.248 113.332, 131.342 112.662, 135.227 112.441 C 145.911 111.834, 149.694 108.269, 145 103.230 C 143.900 102.050, 143 100.899, 143 100.672 C 143 100.446, 145.196 100.212, 147.880 100.151 C 162.961 99.812, 164.835 89.970, 150.615 85.790 C 145.254 84.214, 140 81.130, 140 79.560 C 140 78.877, 140.670 76.109, 141.489 73.409 C 142.308 70.709, 142.983 66.847, 142.989 64.827 C 143.003 60.273, 146.738 55.502, 150.949 54.660 C 157.760 53.298, 159.325 47.987, 154.127 43.872 C 151.692 41.944, 150.708 41.843, 140.677 42.485 C 128.300 43.278, 126.544 42.545, 125.393 36.113 C 123.637 26.296, 115.201 26.709, 112.951 36.722 C 112.473 38.848, 110.397 43.620, 108.337 47.326 C 103.677 55.711, 101.515 56.552, 96.003 52.122 C 93.866 50.405, 91.191 49, 90.059 49 C 88.926 49, 88 48.536, 88 47.969 C 88 47.401, 86.520 47.037, 84.712 47.159 C 81.252 47.392, 79 46.518, 79 44.941 C 79 43.680, 84.716 43.732, 85.500 45 C 86.752 47.026, 92.826 46.083, 95.455 43.455 C 98.567 40.343, 98.693 37.150, 95.846 33.532 C 93.750 30.867, 93.501 30.812, 86.514 31.467 C 79.397 32.133, 79.296 32.109, 74.659 28.570 C 72.087 26.606, 68.974 25.005, 67.741 25.012 C 66.509 25.018, 63.271 26.481, 60.548 28.262 M 122.607 56.582 C 122.273 57.452, 122 58.373, 122 58.630 C 122 59.627, 128.379 61.714, 130.073 61.271 C 132.396 60.663, 133.343 58.118, 131.895 56.373 C 130.277 54.424, 123.375 54.579, 122.607 56.582 M 74.893 59.361 C 70.331 61.627, 71.655 68, 76.688 68 C 80.412 68, 83 66.190, 83 63.587 C 83 59.685, 78.726 57.458, 74.893 59.361 M 51.607 60.582 C 51.273 61.452, 51 63.197, 51 64.459 C 51 67.102, 53.776 69.934, 54.826 68.363 C 55.197 67.808, 56.288 67.064, 57.250 66.708 C 59.641 65.826, 59.517 61.347, 57.066 60.035 C 54.301 58.556, 52.308 58.755, 51.607 60.582 M 99.882 63.750 C 99.816 64.162, 99.832 64.885, 99.917 65.355 C 100.001 65.826, 99.663 66.726, 99.165 67.355 C 98.668 67.985, 97.687 70.300, 96.985 72.500 C 96.283 74.700, 94.850 77.604, 93.801 78.953 C 92.341 80.830, 92.043 82.298, 92.534 85.203 C 93.154 88.871, 93.077 89, 90.288 89 C 88.700 89, 86.965 88.565, 86.434 88.034 C 83.612 85.212, 73 87.651, 73 91.121 C 73 92.333, 72.290 93, 71 93 C 69.900 93, 69 93.450, 69 94 C 69 94.550, 67.425 95, 65.500 95 C 63.575 95, 62 94.550, 62 94 C 62 91.320, 52.794 94.647, 51.016 97.971 C 48.699 102.300, 57.417 104.198, 71.572 102.447 C 77.033 101.771, 86.091 101.406, 91.701 101.635 C 103.124 102.100, 104.218 101.506, 103.280 95.339 C 102.728 91.709, 104.739 89.961, 113.449 86.505 C 117.261 84.992, 118.928 83.642, 120.247 81 C 121.265 78.960, 121.578 77.361, 120.997 77.167 C 120.449 76.983, 120 76.266, 120 75.572 C 120 73.795, 116.683 71, 114.576 71 C 111.868 71, 107.294 67.940, 106.107 65.335 C 105.401 63.787, 104.193 63, 102.521 63 C 101.135 63, 99.947 63.337, 99.882 63.750 M 129.500 94 C 129.160 94.550, 127.327 95, 125.427 95 C 123.527 95, 120.966 95.563, 119.736 96.250 C 118.506 96.938, 117.373 97.552, 117.219 97.615 C 117.064 97.678, 116.760 98.649, 116.544 99.773 C 116.164 101.745, 116.507 101.802, 126.325 101.388 C 131.921 101.153, 137.344 100.696, 138.375 100.373 C 139.438 100.040, 140.622 100.374, 141.110 101.143 C 141.747 102.149, 141.973 101.952, 141.985 100.383 C 142.013 96.498, 131.331 91.037, 129.500 94" stroke="none" fill="black" fill-rule="evenodd"/>
</svg>