<svg xmlns="http://www.w3.org/2000/svg" width="256" height="256" viewBox="0 0 256 256" version="1.1">
	<path d="M 58.923 28.923 C 56.804 31.042, 56 32.810, 56 35.352 C 56 40.009, 53.820 41.995, 48.679 42.022 C 44.386 42.045, 36.806 44.887, 35.529 46.953 C 34.210 49.088, 35.925 52.478, 39.480 54.759 C 42.895 56.951, 43 57.206, 43 63.321 C 43 70.376, 41.116 73.503, 36.222 74.569 C 27.864 76.391, 25.994 78.489, 28.679 83.033 C 30.738 86.520, 34.139 87.235, 46.761 86.834 C 54.410 86.591, 56.158 86.833, 57.858 88.371 C 59.499 89.856, 59.693 90.677, 58.898 92.767 C 57.227 97.164, 55.169 98.039, 48 97.401 C 41.453 96.819, 36.283 97.958, 34.786 100.313 C 33.319 102.620, 34.028 106.677, 36.250 108.688 C 39.436 111.571, 42.159 111.985, 48.860 110.604 C 55.325 109.272, 58.563 110.049, 59.554 113.171 C 60.611 116.501, 61.226 126.122, 61.365 141.500 C 61.511 157.694, 62.238 160.520, 66.536 161.598 C 69.642 162.378, 73.811 159.799, 74.395 156.737 C 78.293 136.320, 78.360 135.597, 76.650 132.290 C 75.540 130.144, 75 126.604, 75 121.478 C 75 111.308, 75.783 110.555, 86.609 110.322 C 97.039 110.097, 99.010 109.123, 98.968 104.215 C 98.951 102.172, 98.379 99.825, 97.698 99 C 95.883 96.800, 92.196 94.919, 91.821 96.001 C 91.645 96.512, 87.225 97.201, 82 97.532 C 76.123 97.905, 73.003 97.784, 73.817 97.216 C 74.802 96.531, 74.343 95.970, 72 95 C 69.727 94.059, 69.227 93.472, 70.183 92.866 C 70.907 92.407, 71.107 92.024, 70.628 92.015 C 70.148 92.007, 70.315 91.325, 71 90.500 C 72.293 88.942, 83.955 88.288, 85.362 89.696 C 85.745 90.078, 86.824 90.504, 87.761 90.641 C 88.697 90.779, 89.622 91.366, 89.815 91.946 C 90.506 94.018, 93.663 92.942, 97.004 89.496 C 101.756 84.593, 101.751 79.825, 96.988 75.849 C 94.681 73.923, 92.429 72.990, 90.038 72.968 C 88.092 72.951, 85.708 72.335, 84.740 71.601 C 83.136 70.383, 83.113 70.012, 84.484 67.383 C 85.311 65.797, 85.990 63.967, 85.994 63.316 C 85.997 62.665, 87.871 60.865, 90.157 59.316 C 95.526 55.679, 96.429 54.101, 95.618 49.776 C 94.770 45.255, 91.206 43.408, 82.741 43.102 C 73.411 42.766, 71.567 41.551, 71.187 35.492 C 70.621 26.488, 64.589 23.257, 58.923 28.923 M 135 33.240 C 131.975 34.313, 126.800 35.636, 123.500 36.179 C 106.157 39.033, 106.187 38.986, 105.434 64.302 C 104.933 81.149, 105.076 84.246, 106.483 86.968 C 109.568 92.932, 106.710 125.290, 102.750 129.250 C 100.788 131.212, 100.770 131.201, 98.920 127.070 C 95.941 120.416, 92.110 117.537, 88.452 119.204 C 86.018 120.313, 84.079 125.443, 84.938 128.500 C 86.245 133.152, 87.415 133.955, 93.282 134.231 C 98.674 134.484, 99.096 134.692, 100.580 137.814 C 101.446 139.636, 102.288 143.813, 102.452 147.096 C 102.871 155.510, 106.564 159.365, 110.263 155.250 C 112.141 153.161, 117.188 132.375, 118.457 121.500 C 118.779 118.750, 119.544 113.789, 120.159 110.477 C 120.919 106.384, 120.970 102.674, 120.320 98.902 C 118.695 89.467, 121.173 87.167, 129.164 90.692 C 133.488 92.600, 133.948 94.487, 131.510 100.322 C 129.926 104.113, 130.251 105.971, 133.209 110.032 C 134.812 112.233, 135.101 115.044, 135.419 131.532 C 135.620 141.964, 136.263 151.714, 136.848 153.198 C 138.961 158.560, 146.726 160.761, 148.375 156.466 C 149.523 153.473, 149.139 121.605, 147.913 118.135 C 146.214 113.326, 147.260 94.779, 149.416 91.488 C 150.313 90.120, 151.556 89, 152.179 89 C 152.802 89, 154.816 87.852, 156.656 86.449 C 159.435 84.329, 160 83.243, 160 80.021 C 160 73.657, 158.140 72.626, 148.050 73.393 C 143.348 73.751, 136.647 74.934, 133.161 76.022 C 129.674 77.110, 126.032 78, 125.066 78 C 121.792 78, 119.826 74.403, 118.947 66.806 C 118.482 62.788, 117.814 58.119, 117.463 56.432 C 116.957 54.006, 117.371 52.713, 119.443 50.250 C 121.632 47.649, 123.005 47.033, 127.782 46.511 C 134.302 45.797, 143.616 42.657, 146.232 40.290 C 148.168 38.538, 148.605 34.492, 146.967 33.480 C 143.710 31.466, 140.198 31.396, 135 33.240 M 61.256 55.975 C 55.864 57.255, 55.006 58.551, 55.373 64.854 C 55.877 73.511, 56.284 74, 62.985 74 C 69.728 74, 71.009 72.938, 72.512 66.104 C 73.878 59.895, 73.368 57.489, 70.401 56.137 C 67.627 54.873, 66.018 54.844, 61.256 55.975 M 40.468 121.453 C 39.020 123.352, 37.167 127.464, 36.350 130.590 C 35.534 133.717, 34.188 137.309, 33.360 138.573 C 32.532 139.837, 32 142.137, 32.177 143.685 C 32.627 147.607, 36.692 147.957, 42.469 144.571 C 48.384 141.105, 50.609 138.005, 51.386 132.150 C 52.096 126.793, 51.285 123.724, 48.238 120.250 C 45.500 117.127, 43.536 117.431, 40.468 121.453" stroke="none" fill="black" fill-rule="evenodd"/>
</svg>