<svg xmlns="http://www.w3.org/2000/svg" width="256" height="256" viewBox="0 0 256 256" version="1.1">
	<path d="M 66.948 28.961 C 60.354 29.333, 56.590 30.030, 54.794 31.210 L 52.193 32.920 52.566 46.710 C 53.272 72.825, 54.063 79.961, 56.573 82.879 C 58.820 85.491, 58.869 85.499, 71.664 85.159 C 84.062 84.830, 84.575 84.899, 86.699 87.169 C 88.586 89.187, 88.773 90.071, 88.021 93.406 C 87.539 95.544, 86.626 97.613, 85.992 98.005 C 84.066 99.195, 70.959 98.101, 63 96.086 C 58.875 95.041, 52.502 93.911, 48.837 93.574 C 42.482 92.990, 42.079 93.085, 40.087 95.616 C 37.417 99.011, 37.430 102.764, 40.121 105.628 C 42.076 107.710, 42.875 107.846, 50.371 107.371 C 57.409 106.926, 58.938 107.133, 61.759 108.919 C 65.693 111.409, 68.662 116.040, 69.499 120.992 C 70.084 124.459, 70.989 126.214, 75.369 132.381 C 76.960 134.621, 77.060 135.442, 76.037 137.911 C 74.749 141.021, 72.623 141.965, 66.855 141.986 C 61.561 142.006, 50.429 145.698, 47.512 148.401 C 44.466 151.225, 44.251 155.251, 47 158 C 49.536 160.536, 52.783 160.521, 61.522 157.935 C 65.360 156.799, 70.525 155.487, 73 155.018 C 79.456 153.796, 80.553 153.215, 82.109 150.197 C 84.624 145.320, 85.762 144.736, 92.811 144.703 C 98.002 144.679, 100.620 145.234, 104.500 147.183 C 114.010 151.958, 128.951 156.776, 137.333 157.771 C 146.604 158.871, 153.192 148.996, 145.733 145.177 C 142.488 143.515, 130.588 140.949, 122.500 140.167 C 118.650 139.795, 114.938 139.128, 114.250 138.686 C 111.999 137.238, 112.933 132.856, 116.750 126.953 C 118.813 123.764, 121.625 119.257, 123 116.937 C 126.309 111.356, 131.348 109.051, 140.300 109.022 C 148.562 108.995, 153 107.065, 153 103.497 C 153 99.240, 148.828 97.460, 139.540 97.755 C 108.754 98.733, 103.906 98.577, 102.425 96.559 C 100.592 94.062, 100.595 89.581, 102.430 88.058 C 103.412 87.243, 108.654 86.913, 119.180 87.004 C 127.606 87.077, 135.464 87.106, 136.641 87.068 C 138.189 87.019, 139.240 85.857, 140.433 82.877 C 141.793 79.478, 142.075 74.960, 142.042 57.155 C 142.006 37.421, 141.841 35.396, 140.132 33.687 C 137.547 31.102, 124.956 29.041, 111.500 29 C 105.450 28.982, 95.100 28.844, 88.500 28.695 C 81.900 28.545, 72.201 28.665, 66.948 28.961 M 66.748 42.499 C 64.106 44.003, 64.060 44.163, 65.596 46.506 C 67.247 49.026, 70.614 49.992, 77 49.779 C 78.925 49.715, 90.175 50.236, 102 50.937 C 117.002 51.827, 124.293 51.900, 126.123 51.179 C 129.052 50.026, 130.808 45.405, 129.001 43.605 C 128.274 42.882, 121.781 42.500, 110.196 42.500 C 100.463 42.500, 87.325 42.147, 81 41.716 C 71.381 41.061, 69.050 41.189, 66.748 42.499 M 69.225 62.767 C 65.933 63.315, 63.552 67.295, 64.952 69.910 C 65.554 71.034, 66.977 72.452, 68.114 73.061 C 71.181 74.703, 123.766 74.791, 126.750 73.160 C 129.248 71.794, 129.654 69.787, 127.750 68.209 C 125.658 66.477, 111.620 65, 97.178 64.994 C 89.655 64.991, 81.925 64.561, 80 64.038 C 75.095 62.706, 71.871 62.326, 69.225 62.767 M 85.315 109.947 C 84.114 110.464, 82.663 111.762, 82.090 112.831 C 81.229 114.441, 81.713 115.526, 84.905 119.138 C 89.702 124.565, 95.788 126.841, 99.319 124.527 C 105.024 120.788, 107.713 113.667, 104.444 110.954 C 102.547 109.379, 88.368 108.632, 85.315 109.947" stroke="none" fill="black" fill-rule="evenodd"/>
</svg>