<svg xmlns="http://www.w3.org/2000/svg" width="256" height="256" viewBox="0 0 256 256" version="1.1">
	<path d="M 111.637 31.475 C 110.311 32.479, 108.960 36.723, 106.950 46.193 C 102.336 67.943, 101.193 72.261, 99.813 73.156 C 97.501 74.656, 88.658 77.104, 83.500 77.672 C 79.204 78.145, 78.218 77.910, 76.500 76.006 C 74.884 74.214, 74.548 72.610, 74.748 67.645 C 74.963 62.305, 75.356 61.206, 77.748 59.255 C 79.262 58.020, 81.671 57.008, 83.102 57.005 C 85.869 57, 91.665 53.543, 93.288 50.929 C 94.710 48.641, 91.389 42.136, 88.419 41.390 C 87.130 41.067, 83.246 41.707, 79.788 42.813 C 74.211 44.597, 71.405 44.783, 54.963 44.464 C 35.828 44.092, 32.921 44.539, 30.629 48.209 C 29.816 49.512, 30.091 51.007, 31.785 54.494 L 34.008 59.070 46.409 58.785 C 53.230 58.628, 59.119 58.803, 59.495 59.173 C 59.872 59.544, 61.045 64.269, 62.101 69.673 C 63.830 78.515, 63.912 80.943, 62.919 93.890 C 62.312 101.805, 62.106 110.218, 62.461 112.587 C 63.948 122.501, 55.525 128.053, 51.710 119.673 C 50.533 117.086, 50.454 114.838, 51.282 107.500 C 52.008 101.063, 51.975 96.934, 51.166 93 C 50.544 89.975, 50.268 85.925, 50.554 84 C 51.236 79.399, 50.114 77.959, 45.353 77.320 C 37.930 76.325, 37.509 78.318, 37.819 113 C 38.008 134.175, 38.138 135.599, 40.028 137.175 C 41.560 138.453, 42.756 138.644, 45.074 137.979 C 46.745 137.500, 50.224 137.355, 52.806 137.657 C 56.268 138.063, 59.075 137.616, 63.500 135.955 C 67.979 134.274, 71.908 133.659, 79 133.531 C 93.141 133.275, 99.010 130.124, 95.960 124.424 C 93.736 120.269, 86.215 119.158, 76.601 121.564 C 74.631 122.058, 73.916 121.946, 74.368 121.214 C 74.733 120.622, 74.575 119.856, 74.016 119.510 C 72.724 118.711, 72.694 114.706, 73.972 113.428 C 74.506 112.894, 75.096 108.545, 75.283 103.766 C 75.675 93.707, 77.212 91, 82.527 91 C 84.297 91, 89.191 89.875, 93.403 88.500 C 97.615 87.125, 101.940 86, 103.013 86 C 104.973 86, 112 92.049, 112 93.737 C 112 94.233, 113.350 96.152, 115 98 C 116.955 100.190, 118 102.432, 118 104.437 C 118 106.129, 118.450 109.082, 119 110.999 C 120.357 115.731, 119.303 120.464, 116.136 123.857 C 114.686 125.409, 111.700 128.884, 109.500 131.578 C 107.300 134.272, 104.724 137.258, 103.775 138.213 C 99.945 142.069, 100.061 150.741, 103.969 152.679 C 106.132 153.751, 106.877 153.580, 109.969 151.300 C 111.911 149.869, 115.648 146.534, 118.273 143.890 C 123.788 138.335, 128.139 136.960, 132.629 139.354 C 134.208 140.195, 138.785 144.060, 142.800 147.942 C 149.619 154.535, 150.394 155, 154.550 155 L 159 155 159 149.401 C 159 144.449, 158.648 143.473, 155.949 140.952 C 154.271 139.385, 152.118 137.855, 151.165 137.553 C 150.212 137.250, 148.637 135.655, 147.664 134.008 C 146.691 132.362, 145.029 130.551, 143.970 129.984 C 139.941 127.828, 136.319 123.109, 134.664 117.860 C 134.380 116.958, 134.905 115.383, 135.831 114.360 C 140.079 109.670, 143.950 99.573, 145.554 89 C 145.929 86.525, 146.800 83.375, 147.488 82 C 148.177 80.625, 149.052 77.359, 149.432 74.743 C 149.984 70.952, 150.823 69.429, 153.562 67.243 C 156.473 64.920, 157 63.872, 157 60.405 C 157 53.183, 152.309 51.064, 140.793 53.085 C 131.090 54.787, 122.906 54.419, 121.158 52.202 C 120.150 50.924, 119.970 48.340, 120.438 41.828 C 121.027 33.613, 120.941 33.072, 118.808 31.578 C 116.055 29.650, 114.083 29.622, 111.637 31.475 M 118.092 68.405 C 115.052 71.541, 114.848 72.153, 115.495 76.155 C 117.155 86.418, 129.048 97.382, 130.385 89.881 C 130.520 89.121, 131.883 84.549, 133.413 79.721 C 136.466 70.089, 136.304 69.243, 130.872 66.434 C 126.040 63.935, 121.789 64.590, 118.092 68.405" stroke="none" fill="black" fill-rule="evenodd"/>
</svg>