<svg xmlns="http://www.w3.org/2000/svg" width="256" height="256" viewBox="0 0 256 256" version="1.1">
	<path d="M 84 37.208 C 80.975 37.604, 74.675 38.200, 70 38.532 C 59.816 39.255, 54.530 41.240, 53.126 44.869 C 52.518 46.443, 52.322 52.723, 52.639 60.500 C 53.400 79.173, 53.700 91.136, 53.904 111 C 54.049 125.095, 54.447 129.570, 55.948 134 C 56.973 137.025, 58.024 142.492, 58.283 146.148 C 58.590 150.489, 59.400 153.654, 60.615 155.265 C 62.329 157.538, 62.654 157.617, 64.711 156.269 C 65.968 155.446, 67.227 153.305, 67.589 151.376 C 67.943 149.489, 69.026 147.521, 69.995 147.003 C 72.537 145.642, 127.151 146.475, 129.842 147.916 C 131.004 148.537, 132.444 149.962, 133.044 151.081 C 133.851 152.590, 134.939 153.037, 137.251 152.808 C 139.757 152.560, 140.526 151.912, 141.173 149.500 C 141.908 146.761, 142.561 121.390, 143.337 65.500 C 143.668 41.685, 143.200 39.433, 137.748 38.584 C 125.905 36.742, 93.834 35.921, 84 37.208 M 78.030 50.848 C 70.018 52.894, 67 56.515, 67 64.083 C 67 66.716, 66.499 70.137, 65.886 71.685 C 64.521 75.134, 64.575 80.338, 66.005 83.010 C 67.271 85.375, 71.333 85.603, 78 83.682 C 83.235 82.174, 89.833 82.238, 95.500 83.850 C 100.585 85.298, 117.258 85.327, 122.500 83.899 C 124.700 83.299, 127.512 81.873, 128.749 80.731 C 130.902 78.742, 130.976 78.139, 130.495 66.603 C 129.902 52.373, 129.724 51.651, 126.434 50.152 C 122.334 48.284, 86.027 48.806, 78.030 50.848 M 114 96.925 C 112.075 97.289, 102.114 97.393, 91.865 97.156 C 81.615 96.919, 72.049 97.022, 70.606 97.384 C 67.983 98.042, 67.982 98.047, 68.155 107.771 C 68.250 113.122, 68.003 118.916, 67.607 120.646 C 66.774 124.283, 69.026 130.689, 71.466 131.625 C 72.323 131.954, 75.439 131.242, 78.392 130.044 C 84.738 127.468, 89.469 127.950, 93.717 131.605 C 98.849 136.020, 104.898 135.973, 119.667 131.402 C 124.714 129.840, 128.082 128.229, 128.482 127.187 C 129.907 123.474, 132 110.169, 132 104.821 C 132 97.327, 130.612 95.959, 123.179 96.132 C 120.055 96.204, 115.925 96.561, 114 96.925" stroke="none" fill="black" fill-rule="evenodd"/>
</svg>