<svg xmlns="http://www.w3.org/2000/svg" width="256" height="256" viewBox="0 0 256 256" version="1.1">
	<path d="M 60.214 31.473 C 58.488 32.926, 56.768 35.756, 56.047 38.331 C 55.372 40.742, 53.823 43.791, 52.605 45.107 C 43.578 54.856, 31.095 69.039, 29.239 71.654 C 26.608 75.360, 26.389 78.246, 28.571 80.429 C 30.566 82.423, 36.229 82.450, 40.032 80.483 C 41.646 79.649, 44.997 78.688, 47.479 78.348 C 51.294 77.825, 52.609 78.137, 55.975 80.365 C 58.165 81.814, 60.417 83, 60.979 83 C 61.540 83, 62 83.450, 62 84 C 62 84.577, 65.147 85, 69.441 85 C 73.534 85, 77.160 84.550, 77.500 84 C 77.840 83.450, 78.810 83, 79.655 83 C 82.121 83, 86.914 79.096, 89.524 74.962 C 90.851 72.860, 93.949 69.755, 96.408 68.064 L 100.878 64.988 102.439 67.216 C 107.126 73.908, 100.675 84.978, 89 90.277 C 84.362 92.383, 76.328 92.895, 70.500 91.456 C 66.632 90.502, 62.388 90.432, 58 91.252 C 56.075 91.612, 51.566 91.403, 47.979 90.789 C 42.664 89.878, 40.907 89.935, 38.479 91.095 C 32.869 93.776, 34.572 99.100, 42.634 104.083 C 45.195 105.666, 46.833 105.920, 51.185 105.408 C 58.116 104.594, 59.198 105.810, 59.510 114.768 C 59.639 118.471, 60.232 123.525, 60.829 126 C 63.116 135.492, 61.960 141.718, 56.569 148.944 C 53.580 152.951, 53.362 155.628, 55.772 158.706 C 59.872 163.940, 66.379 163.015, 69.650 156.733 C 72.067 152.091, 74.220 142.315, 74.105 136.500 C 73.710 116.442, 73.942 110.012, 75.142 107.750 C 76.213 105.731, 79.637 105.494, 83.685 107.156 C 90.022 109.760, 90.765 109.490, 99.048 101.576 C 110.155 90.965, 113.963 90.345, 117.928 98.504 C 122.118 107.126, 122.262 107.698, 121.809 113.959 C 121.301 120.982, 119.559 123.366, 113.409 125.452 C 111.259 126.182, 109.011 127.724, 108.413 128.880 C 107.815 130.035, 105.452 133.039, 103.163 135.555 C 99.856 139.188, 99.001 140.887, 99.004 143.814 C 99.007 147.323, 102.112 154.004, 103.735 153.996 C 105.531 153.987, 111.380 149.640, 117.091 144.069 C 123.443 137.873, 128.413 135.385, 132.427 136.392 C 133.703 136.713, 137.804 140.542, 141.541 144.903 C 148.664 153.216, 151.216 155, 155.986 155 C 158.657 155, 158.930 154.648, 159.569 150.386 C 160.434 144.617, 158.339 139.744, 154.038 137.520 C 152.367 136.656, 150.998 135.623, 150.995 135.224 C 150.993 134.826, 149.643 133.062, 147.995 131.304 C 146.348 129.547, 145 127.887, 145 127.616 C 145 127.345, 143.687 125.686, 142.082 123.928 C 138.404 119.901, 137.861 117.821, 139.610 114.450 C 140.375 112.977, 141 111.310, 141 110.745 C 141 110.181, 141.848 107.870, 142.885 105.610 C 143.921 103.349, 145.774 97, 147.002 91.500 C 149.992 78.110, 152.336 71.577, 155.502 67.815 C 158.519 64.230, 158.278 61.132, 154.687 57.343 C 152.874 55.429, 151.459 55.032, 146.417 55.017 C 143.071 55.008, 137.871 55.495, 134.861 56.099 C 130.119 57.051, 128.861 56.949, 125.444 55.334 L 121.500 53.471 121.493 43.985 C 121.489 38.768, 121.125 33.938, 120.684 33.250 C 120.243 32.563, 118.385 32, 116.556 32 C 111.788 32, 110.064 35.211, 108.926 46.211 C 107.469 60.286, 102.665 66.105, 98.653 58.654 C 97.418 56.362, 94.275 53.788, 88.675 50.483 C 84.179 47.829, 79.505 45.061, 78.289 44.331 C 77.003 43.560, 75.608 41.227, 74.953 38.753 C 73.514 33.320, 69.500 29, 65.890 29 C 64.385 29, 61.831 30.113, 60.214 31.473 M 60.769 56.408 C 56.639 60.129, 54.738 63.958, 56.003 66.005 C 57.057 67.711, 77.318 68.653, 81.113 67.173 C 84.269 65.942, 85.279 62.843, 83.399 60.159 C 81.382 57.280, 72.170 52.996, 68.054 53.023 C 65.447 53.040, 63.506 53.942, 60.769 56.408 M 123.552 71.365 C 122.148 72.665, 121 74.465, 121 75.365 C 121 76.264, 120.523 77, 119.941 77 C 119.359 77, 119.159 77.448, 119.498 77.996 C 119.836 78.544, 120.281 79.862, 120.485 80.925 C 121.069 83.953, 129.417 92.261, 131.468 91.853 C 136.048 90.943, 138.785 74.785, 135 71 C 132.196 68.196, 126.784 68.369, 123.552 71.365 M 64.079 87.583 C 64.127 88.748, 64.364 88.985, 64.683 88.188 C 64.972 87.466, 64.936 86.603, 64.604 86.271 C 64.272 85.939, 64.036 86.529, 64.079 87.583 M 66 88.031 C 66 88.564, 66.675 89, 67.500 89 C 68.325 89, 69 88.823, 69 88.607 C 69 88.391, 68.325 87.955, 67.500 87.638 C 66.675 87.322, 66 87.499, 66 88.031 M 40.506 116.403 C 37.932 119.778, 36.682 124.472, 35.022 137 C 34.379 141.857, 34.481 143.831, 35.425 144.808 C 38.085 147.564, 45.250 143.286, 48.500 137.001 C 50.011 134.077, 52 124.118, 52 119.471 C 52 112.629, 44.842 110.719, 40.506 116.403 M 82.112 115.585 C 80.950 117.061, 80 118.677, 80 119.176 C 80 120.584, 86.264 132.410, 87.446 133.235 C 89.316 134.538, 94.811 134.046, 96.427 132.430 C 99.035 129.822, 99.450 126.025, 97.556 122.099 C 96.600 120.120, 95.283 117.375, 94.627 116 C 93.650 113.951, 92.604 113.446, 88.830 113.200 C 84.839 112.940, 83.942 113.258, 82.112 115.585" stroke="none" fill="black" fill-rule="evenodd"/>
</svg>