<svg xmlns="http://www.w3.org/2000/svg" width="256" height="256" viewBox="0 0 256 256" version="1.1">
	<path d="M 56.455 31.455 C 55.105 32.805, 54 34.859, 54 36.020 C 54 39.806, 51.926 42.143, 46.396 44.589 C 36.982 48.752, 36.699 54.256, 45.832 55.577 C 51.256 56.362, 53 57.485, 53 60.194 C 53 63.634, 50.142 65.441, 45.052 65.220 C 36.547 64.850, 24.667 74.055, 27.601 78.741 C 29.284 81.430, 34.238 81.384, 42.292 78.604 C 50.473 75.780, 53.582 76.032, 54.258 79.571 C 54.924 83.054, 52.515 85.793, 47.713 87.013 C 41.556 88.577, 38.889 90.146, 36.934 93.356 C 35.329 95.989, 35.313 96.572, 36.735 100.856 C 39.818 110.144, 43.546 111.303, 50.304 105.074 C 52.647 102.914, 55.754 100.849, 57.210 100.484 C 60.874 99.564, 64 100.753, 64 103.067 C 64 104.130, 64.459 105, 65.020 105 C 65.582 105, 65.132 106.782, 64.020 108.960 C 62.909 111.138, 62 113.544, 62 114.307 C 62 115.070, 61.100 116.732, 60 118 C 58.900 119.268, 58 120.746, 58 121.283 C 58 121.881, 56.158 121.986, 53.250 121.553 C 50.638 121.165, 46.871 120.614, 44.880 120.331 C 40.359 119.686, 35.523 122.036, 33.694 125.767 C 31.799 129.631, 32.564 131.560, 36.807 133.612 C 41.335 135.802, 47.006 135.810, 50.116 133.631 C 53.318 131.389, 58.287 131.555, 60.480 133.978 C 61.849 135.490, 62.135 136.954, 61.699 140.206 C 61.386 142.544, 60.677 144.608, 60.124 144.792 C 59.571 144.976, 58.365 147.396, 57.444 150.170 C 55.831 155.024, 55.842 155.312, 57.734 157.856 C 60.252 161.245, 66.230 162.007, 69.200 159.319 C 72.476 156.354, 74.281 151.871, 74.556 146.013 C 74.699 142.981, 74.857 139.730, 74.908 138.789 C 75.072 135.751, 79.029 133.211, 85.647 131.896 C 97.420 129.556, 101.347 124.778, 95.365 120.073 C 93.153 118.333, 91.319 118, 83.933 118 C 76.042 118, 75.070 117.796, 74.506 116.019 C 73.739 113.601, 76.514 109.489, 80 107.880 C 81.375 107.245, 83.994 104.739, 85.821 102.311 C 90.009 96.743, 92.120 95.971, 104.560 95.452 C 113.654 95.072, 114.872 95.232, 116.832 97.059 C 124.061 103.793, 123.500 118.093, 115.763 124.311 C 113.580 126.065, 111.207 128.625, 110.491 130 C 109.775 131.375, 106.956 135.046, 104.226 138.158 C 98.389 144.812, 97.426 147.691, 99.432 152.492 C 101.909 158.419, 106.953 156.473, 116.095 146.064 C 121.893 139.463, 125.685 137, 130.048 137 C 132.928 137, 135.035 138.792, 143 148.019 C 147.971 153.778, 152.125 156.081, 156.152 155.311 C 157.983 154.961, 158.951 154.036, 159.279 152.322 C 160.088 148.090, 158.285 142.641, 155.302 140.306 C 151.416 137.262, 149.017 134.870, 145.338 130.369 C 143.599 128.241, 141.012 125.085, 139.588 123.356 C 136.688 119.833, 136.247 115.896, 138.500 113.643 C 139.325 112.818, 140 111.643, 140 111.032 C 140 110.420, 140.862 108.230, 141.916 106.164 C 142.970 104.098, 144.503 99.278, 145.322 95.454 C 149.242 77.149, 150.721 73.231, 155.754 67.815 C 157.704 65.717, 158.098 64.526, 157.556 62.366 C 155.898 55.762, 148.480 53.307, 135.836 55.178 C 125.515 56.705, 122.794 54.076, 122.872 42.651 C 122.947 31.656, 120.978 28.336, 115.969 31.016 C 114.049 32.044, 110 43.155, 110 47.395 C 110 51.594, 106.966 61.178, 104.641 64.326 C 103.351 66.072, 102.011 68.307, 101.663 69.293 C 100.743 71.899, 97.691 69.975, 95.534 65.430 C 93.671 61.504, 93.754 60.757, 97.130 51.120 C 99.152 45.349, 99.225 44.491, 97.901 42.120 C 95.575 37.956, 91.694 38.122, 87.505 42.563 C 84.114 46.159, 83.875 46.242, 78.759 45.592 C 67.694 44.188, 64.099 41.438, 65.585 35.517 C 65.989 33.906, 65.521 32.521, 64.087 31.087 C 61.361 28.361, 59.456 28.453, 56.455 31.455 M 66.200 56.200 C 62.893 59.507, 66.019 63.281, 71.680 62.815 C 74.863 62.552, 75.558 62.092, 75.845 60.056 C 76.057 58.554, 75.502 57.109, 74.404 56.306 C 72.168 54.671, 67.786 54.614, 66.200 56.200 M 126.571 68.782 C 125.510 69.020, 124.105 69.752, 123.450 70.407 C 121.734 72.123, 118.992 77.659, 119.571 78.238 C 119.842 78.508, 120.256 79.732, 120.492 80.957 C 121.081 84.019, 128.048 90.998, 130.515 90.999 C 134.517 91.001, 138.147 73.026, 134.719 70.182 C 133.151 68.880, 129.172 68.197, 126.571 68.782 M 96.193 79.860 C 95.474 80.315, 91.901 80.785, 88.252 80.903 C 84.603 81.021, 81.226 81.360, 80.748 81.656 C 80.269 81.952, 78.442 82.420, 76.689 82.695 C 74.935 82.971, 73.275 83.557, 73 83.998 C 72.725 84.438, 71.375 84.988, 70 85.221 L 67.500 85.643 70.466 86.879 C 72.833 87.865, 73.136 88.302, 71.966 89.042 C 70.724 89.828, 70.755 89.972, 72.167 89.985 C 73.083 89.993, 73.985 89.546, 74.170 88.990 C 74.744 87.269, 78.760 87.055, 85.263 88.399 C 88.693 89.108, 93.160 89.487, 95.188 89.242 C 98.222 88.875, 99.064 88.256, 99.938 85.749 C 102.012 79.799, 100.367 77.212, 96.193 79.860" stroke="none" fill="black" fill-rule="evenodd"/>
</svg>