<svg xmlns="http://www.w3.org/2000/svg" width="256" height="256" viewBox="0 0 256 256" version="1.1">
	<path d="M 140.999 27.942 C 139.073 28.306, 135.248 29.749, 132.499 31.149 C 129.749 32.549, 125.390 34.643, 122.812 35.804 C 120.233 36.965, 117.084 39.320, 115.813 41.039 C 113.703 43.893, 113.487 45.300, 113.321 57.294 C 113.175 67.867, 112.837 70.646, 111.585 71.561 C 110.731 72.186, 110.324 72.991, 110.682 73.349 C 111.040 73.707, 111.049 74, 110.702 74 C 109.131 74, 108.119 70.071, 108.947 67.186 C 109.953 63.677, 108.484 62.253, 101.382 59.852 C 99.182 59.108, 97.296 58.163, 97.191 57.750 C 96.462 54.889, 97.324 53.109, 99.967 52.014 C 104.351 50.198, 104.964 47.036, 101.418 44.525 C 95.538 40.362, 93 37.222, 93 34.112 C 93 32.062, 92.327 30.710, 90.936 29.966 C 87.974 28.381, 86 30.393, 86 34.995 C 86 38.159, 85.296 39.394, 81.500 42.893 C 79.025 45.175, 77 47.204, 77 47.403 C 77 47.602, 78.841 49.606, 81.092 51.857 C 83.342 54.107, 85 56.523, 84.776 57.224 C 84.045 59.511, 75.046 61.907, 71.570 60.740 C 67.313 59.311, 65.998 58.102, 66.012 55.628 C 66.025 53.410, 71.664 49, 74.486 49 C 75.319 49, 76 48.325, 76 47.500 C 76 46.675, 75.438 45.995, 74.750 45.989 C 74.063 45.983, 71.328 43.976, 68.673 41.527 C 65.055 38.190, 63.926 36.476, 64.161 34.677 C 64.701 30.562, 60.265 27.143, 58.369 30.212 C 57.957 30.879, 57.720 32.907, 57.842 34.719 C 57.964 36.530, 57.584 38.908, 56.998 40.003 C 55.716 42.399, 49.159 45.794, 46.836 45.265 C 45.127 44.876, 42 38.355, 42 35.180 C 42 34.201, 41.460 32.860, 40.800 32.200 C 39.127 30.527, 33.443 30.699, 31.667 32.476 C 29.627 34.516, 28.697 48.870, 29.365 68 C 29.663 76.525, 30.060 94.075, 30.248 107 C 30.734 140.484, 32.600 148.930, 39.974 151.037 C 42.093 151.642, 53.274 151.886, 68 151.648 C 97.271 151.175, 100.090 150.507, 100.249 144 C 100.256 143.725, 100 142.093, 99.680 140.373 C 99.267 138.150, 99.591 136.791, 100.800 135.673 C 101.735 134.807, 104.001 132.754, 105.836 131.109 C 108.336 128.869, 109.009 127.602, 108.519 126.059 C 108.159 124.927, 107.512 124, 107.081 124 C 106.650 124, 104.871 122.637, 103.128 120.972 C 99.702 117.698, 99.850 116.177, 103.925 112.760 C 105.066 111.803, 106 109.959, 106 108.663 C 106 106.101, 102.979 102, 101.091 102 C 100.445 102, 98.929 101.080, 97.722 99.955 C 95.998 98.349, 95.813 97.734, 96.861 97.086 C 97.959 96.408, 97.935 96.018, 96.728 94.891 C 94.524 92.832, 96.479 89.581, 100.833 88.065 C 102.850 87.363, 106.229 85.432, 108.343 83.773 C 111.920 80.965, 112.300 80.871, 113.843 82.414 C 115.226 83.797, 115.529 86.631, 115.676 99.575 C 115.829 113.059, 115.596 115.659, 113.887 119.523 C 112.806 121.966, 111.907 124.086, 111.889 124.233 C 111.871 124.380, 111.300 127.200, 110.621 130.500 C 109.918 133.911, 109.701 138.010, 110.117 140 C 110.520 141.925, 110.622 144.642, 110.343 146.037 C 109.303 151.233, 117.340 152.462, 120.530 147.595 C 122.433 144.689, 125.886 132.194, 126.911 124.500 C 127.351 121.200, 128.531 114.511, 129.534 109.636 C 131.259 101.248, 131.267 100.433, 129.679 94.472 C 127.692 87.015, 127.568 83.832, 129.200 82.200 C 131.609 79.791, 140.143 81.233, 142.222 84.400 C 143.109 85.752, 142.544 90.823, 140.975 95.575 C 139.768 99.232, 139.900 101.471, 142.031 113.500 C 142.740 117.504, 143.238 128.276, 143.194 138.668 C 143.120 156.495, 143.163 156.884, 145.511 159.418 C 148.555 162.702, 153.427 162.939, 155.063 159.883 C 156.152 157.847, 156.278 142.379, 155.555 99.327 L 155.300 84.153 158.575 82.390 C 166.069 78.354, 165.723 69.406, 158 67.557 C 155.455 66.948, 136.680 68.382, 131.839 69.555 C 128.200 70.436, 126.934 67.795, 126.256 57.911 C 125.595 48.267, 126.937 45.598, 133.247 44.005 C 146.559 40.646, 153.050 36.713, 152.243 32.493 C 151.452 28.355, 147.429 26.726, 140.999 27.942 M 43.200 52.200 C 41.378 54.022, 41.753 59.466, 43.829 61.345 C 46.420 63.691, 49.277 63.398, 51.991 60.510 C 54.008 58.362, 54.172 57.672, 53.177 55.490 C 51.464 51.730, 45.603 49.797, 43.200 52.200 M 43.774 68.157 C 43.493 68.896, 43.618 70.456, 44.053 71.624 C 44.978 74.114, 50.474 75.500, 54.102 74.158 C 55.411 73.674, 57.611 73.593, 58.991 73.977 C 62.618 74.989, 69.107 74.444, 69.965 73.057 C 70.526 72.149, 72.097 72.222, 76.600 73.363 C 79.845 74.186, 85.200 74.959, 88.500 75.080 C 99.808 75.498, 100.984 74.926, 96.811 71.039 C 94.676 69.049, 89 68.173, 89 69.833 C 89 70.292, 88.325 70.667, 87.500 70.667 C 86.675 70.667, 86 70.384, 86 70.038 C 86 69.203, 81.230 68.865, 65 68.549 C 57.575 68.405, 49.877 67.956, 47.893 67.551 C 45.260 67.013, 44.147 67.177, 43.774 68.157 M 43.415 89.483 C 42.773 92.042, 42.546 104.627, 43.077 108.250 C 43.218 109.213, 43.708 110, 44.167 110 C 44.625 110, 45 110.675, 45 111.500 C 45 112.325, 44.590 113, 44.088 113 C 42.436 113, 41.775 120.791, 43.094 124.729 C 43.788 126.803, 44.252 130.075, 44.126 132 C 43.798 136.985, 45.877 139.366, 50.408 139.196 C 52.438 139.120, 54.526 138.793, 55.049 138.470 C 56.695 137.453, 56.083 133.501, 54.054 132.039 C 52.983 131.267, 52.335 130.268, 52.613 129.818 C 52.891 129.368, 52.417 129, 51.561 129 C 50.491 129, 51.062 127.878, 53.386 125.415 C 55.810 122.845, 56.613 121.216, 56.221 119.665 C 55.640 117.362, 51.534 113, 49.948 113 C 47.514 113, 49.868 107.520, 54.407 102.624 C 58.102 98.638, 58.827 97, 56.894 97 C 56.286 97, 57.186 95.694, 58.894 94.099 C 60.602 92.503, 62 90.752, 62 90.208 C 62 89.159, 57.826 88.220, 49.292 87.350 C 44.302 86.842, 44.055 86.932, 43.415 89.483 M 65.750 88.124 C 62.251 89.451, 62.199 92.245, 65.632 94.494 C 67.620 95.797, 67.939 96.419, 66.939 97.038 C 65.914 97.671, 65.865 98.408, 66.721 100.287 C 67.548 102.102, 68.917 102.891, 72.134 103.405 C 74.502 103.784, 76.791 104.635, 77.220 105.297 C 77.785 106.169, 78.206 106.193, 78.750 105.385 C 79.442 104.356, 82.781 102.929, 85.730 102.403 C 87.680 102.054, 90.204 99.103, 89.715 97.741 C 89.471 97.058, 89.664 95.734, 90.145 94.798 C 91.517 92.127, 87.636 89.263, 81.647 88.527 C 70.612 87.172, 68.406 87.116, 65.750 88.124 M 76.500 112 C 76.160 112.550, 75.093 113, 74.130 113 C 71.184 113, 67.818 116.847, 68.592 119.329 C 69.531 122.338, 70.520 122.789, 77.899 123.580 C 83.830 124.215, 84.511 124.087, 86.181 122.025 C 88.840 118.741, 88.423 116.425, 84.656 113.551 C 81.215 110.926, 77.590 110.237, 76.500 112 M 83.855 132.317 C 81.419 134.167, 83.842 137, 87.860 137 C 90.269 137, 91 136.561, 91 135.117 C 91 134.081, 90.213 132.955, 89.250 132.616 C 88.287 132.276, 87.050 131.789, 86.500 131.533 C 85.950 131.277, 84.760 131.630, 83.855 132.317 M 57 136.105 C 57 137.443, 58.121 138.046, 61.575 138.564 C 64.512 139.004, 66.553 138.847, 67.275 138.125 C 68.108 137.292, 68.089 137, 67.200 137 C 66.540 137, 66.112 136.494, 66.250 135.875 C 66.388 135.256, 65.263 134.679, 63.750 134.592 C 62.097 134.497, 61 134.946, 61 135.717 C 61 136.423, 60.270 137, 59.378 137 C 58.139 137, 58.017 136.685, 58.862 135.667 C 59.699 134.657, 59.608 134.333, 58.484 134.333 C 57.668 134.333, 57 135.131, 57 136.105" stroke="none" fill="black" fill-rule="evenodd"/>
</svg>