<svg xmlns="http://www.w3.org/2000/svg" width="256" height="256" viewBox="0 0 256 256" version="1.1">
	<path d="M 54.325 29.584 C 51.925 31.984, 51.786 32.611, 52.378 38.383 C 53.246 46.859, 52.100 48.343, 44.915 48.042 C 36.222 47.678, 34.642 47.900, 32 49.851 C 26.311 54.053, 29.038 59.090, 37.763 60.494 C 43.323 61.389, 44.191 63.124, 42.946 70.855 C 42.404 74.219, 42.051 79.340, 42.161 82.235 C 42.552 92.564, 39.078 122.108, 37.017 125.974 C 35.341 129.119, 31.001 146.644, 31.001 150.271 C 31 153.336, 31.474 154.259, 33.529 155.195 C 35.649 156.161, 36.497 156.021, 38.779 154.330 C 42.311 151.711, 45.963 145.274, 45.984 141.631 C 45.993 140.053, 46.880 136.003, 47.955 132.631 C 51.526 121.436, 53.261 113.567, 53.498 107.500 C 53.626 104.200, 53.792 100.556, 53.866 99.403 C 54.111 95.571, 57.577 92.727, 62 92.727 C 64.954 92.727, 66.559 93.338, 68.014 95.017 C 69.106 96.276, 69.991 97.575, 69.980 97.903 C 69.969 98.231, 69.286 104.125, 68.462 111 C 67.612 118.096, 67.226 126.310, 67.571 130 C 68.388 138.756, 67.197 141.453, 61.276 144.256 C 57.240 146.167, 56.453 147.004, 56.194 149.660 C 55.753 154.186, 61.109 160.289, 64.417 159.032 C 69.806 156.983, 76.821 151.828, 77.747 149.235 C 81.681 138.228, 81.944 136.351, 81.916 119.500 C 81.897 107.974, 82.365 100.407, 83.370 96 L 84.852 89.500 81.728 85 C 77.704 79.206, 77.185 78.878, 73 79.495 C 71.075 79.779, 67.885 80.250, 65.910 80.542 C 61.144 81.246, 57.187 79.623, 55.989 76.471 C 55.210 74.422, 55.526 72.896, 57.561 68.879 C 60.682 62.721, 64.547 60.820, 74.325 60.631 C 79.903 60.524, 81.398 60.838, 82.506 62.347 C 83.252 63.363, 83.634 64.790, 83.354 65.519 C 82.797 66.971, 84.656 71.070, 86.400 72.235 C 87.005 72.639, 89.778 72.976, 92.561 72.985 C 98.076 73.001, 100.765 74.711, 103.455 79.912 C 105.934 84.707, 105.808 115.592, 103.299 118.101 C 102.607 118.793, 100.562 118.829, 97.153 118.210 C 93.188 117.489, 91.591 117.598, 90.022 118.697 C 87.607 120.389, 87.415 123.720, 89.557 126.777 C 90.891 128.682, 92.033 129, 97.538 129 C 103.654 129, 103.994 129.127, 104.627 131.651 C 105.026 133.242, 104.761 135.141, 103.962 136.401 C 103.231 137.555, 101.974 139.803, 101.170 141.396 C 100.366 142.989, 98.873 145.127, 97.854 146.146 C 95.445 148.555, 95.500 151.500, 98 154 C 100.394 156.394, 103.745 156.567, 106.762 154.454 C 109.412 152.598, 113.511 145.660, 114.416 141.500 C 116.415 132.314, 119.578 130.100, 128.095 131.927 C 134.247 133.246, 135.925 135.074, 135.968 140.505 C 135.996 144.034, 136.643 145.120, 141.419 149.658 C 147.654 155.580, 151.813 157.008, 155.599 154.527 C 159.242 152.140, 158.651 147.062, 154.500 145.084 C 151.707 143.753, 145.075 137.299, 145.023 135.861 C 144.947 133.757, 149.075 130.889, 153.286 130.119 C 161.378 128.641, 164.262 124.185, 159.811 120.039 C 158.331 118.660, 156.267 118, 153.434 118 C 148.704 118, 146.007 115.901, 147.863 113.665 C 148.511 112.884, 148.926 108.630, 148.863 103.415 C 148.662 86.873, 149.190 84.401, 153.966 79.534 C 158.601 74.812, 158.781 72.430, 154.711 69.691 C 153.495 68.872, 150.792 66.615, 148.705 64.675 C 144.640 60.897, 143.338 60.769, 136.198 63.443 C 134.164 64.205, 129.710 65.082, 126.300 65.393 C 120.334 65.938, 119.920 65.822, 115.349 62.333 C 112.307 60.011, 109.682 58.787, 108.049 58.929 C 97.879 59.815, 97.117 59.452, 100.151 55.168 C 101.746 52.917, 102.275 52.838, 115.410 52.875 C 126.883 52.908, 129.742 53.234, 133.636 54.957 C 138.999 57.329, 142.565 57.576, 143.313 55.625 C 143.604 54.869, 146.008 53.926, 148.657 53.529 C 157.667 52.178, 161.751 48.140, 159.106 43.198 C 157.847 40.846, 153.321 39.075, 150.500 39.830 C 149.400 40.125, 141.075 40.318, 132 40.260 C 110.412 40.122, 107.070 39.062, 105.572 31.877 C 105.215 30.163, 103.959 28.811, 101.949 27.979 C 97.309 26.057, 93.956 28.945, 91.950 36.592 C 89.907 44.376, 88.664 47.108, 86.130 49.392 C 84.070 51.247, 83.864 51.247, 75.342 49.392 C 65.206 47.185, 63.611 46.033, 64.589 41.626 C 65.754 36.377, 65.682 34.622, 64.172 31.500 C 61.604 26.192, 58.351 25.558, 54.325 29.584 M 117.104 80.914 C 115.301 82.056, 116.421 85, 118.658 85 C 119.605 85, 123.006 84.457, 126.216 83.794 L 132.053 82.589 127.777 81.310 C 122.775 79.814, 119.060 79.676, 117.104 80.914 M 120.250 97.702 C 119.563 97.958, 119 98.804, 119 99.583 C 119 101.676, 134.545 101.627, 135.349 99.532 C 135.659 98.725, 135.595 97.872, 135.206 97.638 C 134.255 97.065, 121.823 97.118, 120.250 97.702 M 122.335 112.807 C 118.952 113.135, 117.352 115.245, 119.309 116.799 C 120.971 118.118, 134.161 119.251, 136.676 118.291 C 138.312 117.666, 138.575 117.039, 137.926 115.305 C 136.849 112.426, 132.858 111.786, 122.335 112.807" stroke="none" fill="black" fill-rule="evenodd"/>
</svg>