<svg xmlns="http://www.w3.org/2000/svg" width="256" height="256" viewBox="0 0 256 256" version="1.1">
	<path d="M 62.819 30.545 C 59.405 32.387, 58.956 33.922, 59.256 42.736 C 59.551 51.435, 57.853 53.856, 50.897 54.657 C 45.416 55.287, 36.650 58.622, 34.657 60.834 C 30.127 65.861, 32.307 70.813, 40.073 73.140 C 43.871 74.278, 44.616 74.190, 48.078 72.197 C 50.178 70.989, 53.088 70, 54.544 70 C 57.868 70, 62.822 72.863, 63.569 75.216 C 63.880 76.197, 64.554 77, 65.067 77 C 66.586 77, 66.131 81.856, 64.338 84.785 C 59.775 92.238, 58.376 93.987, 56.976 93.993 C 56.138 93.997, 53.438 91.310, 50.976 88.021 C 45.977 81.344, 43.753 80.615, 38.904 84.068 C 35.449 86.528, 35.149 89.713, 38.057 93.065 C 39.188 94.370, 40.822 96.929, 41.687 98.753 C 44.175 103.997, 46.301 104.575, 52.047 101.570 C 54.751 100.157, 57.409 99, 57.953 99 C 59.549 99, 60.836 105.241, 59.706 107.500 C 57.816 111.277, 54.494 113.752, 50.390 114.440 C 43.037 115.672, 36 125.161, 36 133.845 C 36 139.634, 37.936 140.697, 42.839 137.602 C 45.033 136.217, 47.542 134.064, 48.415 132.817 C 50.536 129.789, 58.042 123.908, 59.017 124.511 C 59.444 124.774, 60.739 126.806, 61.896 129.026 C 65.342 135.636, 64.421 141.197, 58.902 147.105 C 55.237 151.028, 54.716 154.583, 57.372 157.549 C 60.563 161.112, 63.946 161.511, 67.971 158.799 C 72.385 155.824, 74.549 151.977, 76.107 144.340 C 77.138 139.285, 77.118 137.161, 75.998 132.493 C 73.971 124.041, 76.738 121.350, 85.500 123.254 C 94.136 125.130, 95.063 125.193, 96.509 123.992 C 99.516 121.497, 97.396 114.718, 93.112 113.133 C 91.675 112.601, 89.193 111.004, 87.594 109.583 C 85.996 108.162, 84.323 107, 83.876 107 C 83.430 107, 82.413 105.763, 81.618 104.250 C 80.234 101.618, 80.318 101.366, 83.574 98.376 C 85.445 96.658, 88.218 94.788, 89.738 94.220 C 91.257 93.652, 93.400 92.851, 94.500 92.440 C 99.111 90.717, 100.746 91.080, 105.989 94.992 C 109.235 97.414, 112.458 99, 114.134 99 C 117.196 99, 122 100.886, 122 102.089 C 122 102.512, 122.745 103.602, 123.655 104.512 C 126.370 107.227, 126.587 114.976, 124.077 119.574 C 120.501 126.125, 114.825 132.566, 108.367 137.401 C 101.551 142.505, 100.296 145.379, 102.540 150.750 C 103.468 152.972, 104.571 154, 106.024 154 C 108.239 154, 117.904 147.865, 126.500 141.002 C 129.250 138.806, 132.287 137.008, 133.250 137.005 C 135.048 137, 143.558 144.973, 148 150.824 C 150.681 154.357, 156.050 156.265, 159.606 154.950 C 161.351 154.305, 161.577 153.480, 161.278 148.852 C 160.923 143.362, 158.944 139.518, 155.473 137.577 C 152.825 136.097, 151.625 134.639, 145.937 126 C 140.752 118.123, 140.228 115.727, 142.439 110 C 143.182 108.075, 144.745 104.025, 145.913 101 C 147.081 97.975, 148.528 92.366, 149.129 88.535 C 150.693 78.557, 153.616 70.111, 156.503 67.224 C 163.401 60.327, 154.931 51.827, 142.768 53.441 C 128.463 55.340, 129.297 55.383, 127.512 52.659 C 126.505 51.121, 125.638 47.069, 125.300 42.315 C 124.687 33.682, 122.533 29.786, 118.899 30.737 C 116.008 31.493, 115.341 33.521, 114.656 43.641 C 114.203 50.328, 113.321 54.434, 111.369 58.934 C 108.863 64.712, 108.775 65.418, 109.923 70.547 C 111.062 75.634, 110.985 76.299, 108.808 80.254 C 105.866 85.597, 103.591 85.987, 95.787 82.485 C 92.496 81.008, 88.161 79.824, 86.152 79.854 C 80.767 79.934, 77.465 78.347, 77.235 75.567 C 76.975 72.431, 78.935 71.669, 87.836 71.446 C 97.174 71.213, 100.682 69.061, 100.153 63.891 C 99.679 59.251, 97.411 54.091, 94.882 51.898 C 92.840 50.127, 92.656 50.135, 88.639 52.188 C 83.043 55.048, 76.188 54.950, 73.780 51.976 C 71.701 49.410, 71.518 44.496, 73.377 41.145 C 75.046 38.136, 74.381 34.692, 71.649 32.194 C 68.576 29.385, 65.894 28.884, 62.819 30.545 M 85.750 36.080 C 83.080 37.635, 83.638 39.622, 87.591 42.637 C 90.275 44.685, 91.578 45.125, 92.753 44.384 C 95.200 42.841, 95.086 39.995, 92.474 37.383 C 89.883 34.792, 88.442 34.512, 85.750 36.080 M 127.819 70.927 C 126.472 71.987, 124.539 74.695, 123.525 76.945 C 121.381 81.700, 121.978 83.462, 128.050 90.306 C 131.538 94.237, 131.645 94.278, 134.129 92.651 C 138.637 89.698, 140.814 73.952, 137.171 70.655 C 134.733 68.448, 130.826 68.562, 127.819 70.927" stroke="none" fill="black" fill-rule="evenodd"/>
</svg>