<svg xmlns="http://www.w3.org/2000/svg" width="256" height="256" viewBox="0 0 256 256" version="1.1">
	<path d="M 56.365 30.169 C 55.190 30.738, 53.634 32.316, 52.906 33.676 C 51.781 35.778, 51.838 36.867, 53.292 40.958 C 54.231 43.604, 55 46.669, 55 47.769 C 55 51.259, 50.829 53, 42.469 53 C 34.361 53, 31.678 53.865, 29.988 57.023 C 28.409 59.973, 30.392 62.811, 35.592 65.039 C 40.662 67.212, 40.593 67.091, 42.095 76.500 C 43.516 85.396, 43.571 87.524, 42.667 98.500 C 41.599 111.459, 40.330 117.853, 35.917 132.500 C 30.703 149.804, 30.802 156, 36.290 156 C 38.984 156, 45.936 150.874, 46.464 148.500 C 46.708 147.400, 47.147 144.250, 47.440 141.500 C 47.733 138.750, 48.451 134.925, 49.036 133 C 52.140 122.779, 54.538 110.921, 54.395 106.500 C 54.201 100.475, 55.971 96.660, 59.860 94.720 C 62.293 93.506, 63.251 93.486, 65.884 94.593 C 70.195 96.406, 71.431 100.045, 70.097 107 C 69.517 110.025, 68.756 118.125, 68.407 125 C 68.057 131.875, 67.366 138.269, 66.872 139.210 C 66.377 140.150, 63.869 141.969, 61.297 143.251 C 53.696 147.042, 53.843 151.836, 61.684 155.875 C 64.985 157.575, 70.124 157.221, 73.686 155.050 C 77.634 152.642, 78.598 150.846, 79.345 144.500 C 79.669 141.750, 80.571 135, 81.351 129.500 C 83.219 116.318, 83.833 105.318, 83.110 98 C 82.974 96.625, 83.149 93.700, 83.499 91.500 C 84.057 87.996, 83.747 87.035, 80.995 83.750 C 77.392 79.448, 75.655 79.196, 69.364 82.062 C 63.733 84.627, 59.530 83.949, 57.614 80.167 C 55.596 76.182, 56.339 74.278, 62.013 68.895 C 66.830 64.325, 67.515 64.001, 72.336 64.015 C 75.176 64.024, 78.135 64.432, 78.911 64.924 C 79.687 65.415, 81.229 65.481, 82.339 65.070 C 83.688 64.571, 85.044 64.913, 86.429 66.103 C 93.077 71.812, 94.549 72.999, 95 73.014 C 96.527 73.065, 98.143 75.012, 98.927 77.747 C 99.711 80.481, 99.410 81.329, 96.409 84.835 C 92.485 89.420, 92.225 90.988, 94.975 93.478 C 96.565 94.916, 97.884 95.131, 101.725 94.577 C 104.351 94.199, 108.998 93.642, 112.050 93.339 L 117.601 92.788 119.475 96.946 C 120.904 100.114, 121.121 101.744, 120.386 103.801 C 119.348 106.706, 119.237 106.723, 109.255 105.427 C 102.739 104.582, 101 105.791, 101 111.168 C 101 114.022, 101.683 115.774, 103.507 117.598 C 105.695 119.786, 106.781 120.077, 112.055 119.886 C 116.465 119.727, 118.526 120.097, 119.686 121.257 C 121.546 123.117, 123.251 132.327, 122.444 136.152 C 121.889 138.782, 121.812 138.803, 113.192 138.732 C 96.531 138.595, 87.113 140.937, 86.882 145.276 C 86.449 153.397, 86.731 153.491, 111.794 153.561 C 123.732 153.594, 139.369 153.992, 146.543 154.446 C 158.191 155.182, 159.769 155.088, 161.293 153.564 C 162.232 152.625, 163 150.964, 163 149.872 C 163 147.020, 157.170 142.102, 153.032 141.464 C 151.089 141.164, 147.873 140.487, 145.884 139.959 C 143.895 139.432, 140.874 139, 139.169 139 C 135.532 139, 134.256 137.148, 133.352 130.554 C 132.568 124.829, 133.789 123.296, 139.832 122.426 C 147.356 121.343, 151 119.476, 151 116.706 C 151 113.394, 148.123 111.102, 140.801 108.581 C 135.276 106.678, 134.395 106.004, 133.150 102.733 C 132.003 99.720, 131.973 98.481, 132.987 96.031 L 134.232 93.025 143.645 93.263 C 154.332 93.532, 155.907 92.655, 153.410 87.826 C 151.677 84.474, 147.751 82.290, 141.855 81.398 C 135.866 80.493, 131.314 76.881, 129.997 71.990 C 128.091 64.909, 122.017 64.441, 121.986 71.372 C 121.960 77.326, 121.026 79, 117.729 79 C 114.224 79, 108.475 73.629, 105.684 67.746 C 102.010 60.004, 104.547 59.104, 131 58.771 C 150.703 58.523, 152.723 58.333, 155.168 56.500 C 158.638 53.899, 159.281 50.565, 156.755 48.275 C 155.052 46.731, 152.066 46.435, 133.817 46 C 110.375 45.441, 110.830 45.591, 109.624 38.050 C 108.084 28.420, 100.085 28.550, 98.470 38.230 C 97.554 43.721, 93.668 51.419, 90.796 53.430 C 88.007 55.384, 86.008 55.399, 80.134 53.510 C 77.585 52.690, 73.406 51.769, 70.847 51.463 C 67.036 51.007, 66.087 50.484, 65.607 48.572 C 65.285 47.288, 65.515 44.822, 66.117 43.093 C 67.644 38.715, 66.433 33.486, 63.328 31.043 C 60.447 28.777, 59.488 28.657, 56.365 30.169" stroke="none" fill="black" fill-rule="evenodd"/>
</svg>