<svg xmlns="http://www.w3.org/2000/svg" width="256" height="256" viewBox="0 0 256 256" version="1.1">
	<path d="M 99.338 30.999 C 96.055 32.323, 95.545 35.514, 97.895 40.023 C 99.025 42.192, 99.704 44.608, 99.403 45.391 C 98.423 47.947, 93.340 49.333, 88.224 48.440 C 83.325 47.584, 82.619 47.573, 56.983 47.955 C 39.457 48.216, 37.374 48.872, 38.453 53.786 C 39.278 57.544, 41.799 58.710, 50.786 59.493 C 54.793 59.843, 60.553 60.774, 63.585 61.564 C 70.672 63.410, 74.482 63.374, 85.455 61.360 C 92.922 59.990, 95.664 59.908, 101.955 60.865 C 106.105 61.497, 111.300 62.025, 113.500 62.038 C 115.700 62.052, 118.332 62.694, 119.350 63.465 C 120.961 64.686, 121.051 65.315, 120.048 68.353 C 119.416 70.271, 118.246 72.381, 117.449 73.042 C 116.652 73.704, 116 75.765, 116 77.622 C 116 79.480, 115.645 81, 115.211 81 C 114.777 81, 113.142 83.447, 111.577 86.438 C 108.606 92.117, 102.848 98.991, 99.608 100.725 C 96.793 102.232, 94.114 101.121, 92.354 97.717 C 90.616 94.357, 89.353 92.665, 86.750 90.207 C 85.787 89.299, 85 88.136, 85 87.622 C 85 87.109, 83.877 85.216, 82.504 83.416 C 81.131 81.616, 80.267 79.469, 80.583 78.645 C 81.182 77.082, 78.190 69.829, 75.647 66.680 C 74.632 65.423, 73.145 64.959, 70.839 65.180 L 67.500 65.500 67.202 72.979 C 66.919 80.051, 67.127 80.893, 71.027 88.479 C 74.099 94.454, 76.401 97.470, 80.051 100.304 C 83.683 103.124, 85.269 105.195, 86.177 108.304 C 86.851 110.612, 87.817 112.786, 88.323 113.134 C 88.830 113.483, 89.302 115.506, 89.372 117.629 C 89.499 121.465, 89.464 121.502, 83.610 123.579 C 80.371 124.728, 75.236 125.770, 72.199 125.892 C 66.715 126.114, 61.115 128.159, 60.875 130.026 C 60.806 130.562, 60.633 131.338, 60.490 131.750 C 60.348 132.162, 59.906 133.496, 59.509 134.713 C 59.111 135.929, 56.922 137.884, 54.643 139.056 C 44.818 144.110, 44.043 144.808, 44.015 148.628 C 43.986 152.670, 46.312 153.443, 54.236 152.027 C 60.578 150.894, 61.917 150.240, 65.948 146.309 C 68.452 143.869, 73.731 140.335, 77.679 138.456 C 85.208 134.874, 88.677 131.520, 86.975 129.470 C 85.586 127.797, 88.406 125.772, 95.202 123.562 C 100.718 121.768, 100.997 121.767, 103.702 123.524 C 105.241 124.523, 107.088 126.164, 107.807 127.170 C 108.525 128.177, 109.684 129, 110.382 129 C 111.080 129, 114.879 131.446, 118.825 134.435 C 122.771 137.424, 127.574 140.440, 129.500 141.136 C 131.425 141.832, 133 142.706, 133 143.078 C 133 143.450, 135.221 144.709, 137.935 145.877 C 144.485 148.695, 153.495 148.812, 154.947 146.099 C 157.060 142.150, 152.875 136.152, 145.764 132.938 C 144.519 132.375, 142.375 131.265, 141 130.472 C 139.625 129.679, 137.556 129.023, 136.403 129.015 C 135.250 129.007, 133.375 128.213, 132.237 127.250 C 131.099 126.287, 129.157 124.654, 127.921 123.620 C 126.685 122.586, 123.159 120.606, 120.087 119.221 C 117.014 117.836, 114.346 116.578, 114.158 116.426 C 113.969 116.273, 113.617 114.029, 113.375 111.438 C 112.839 105.695, 114.385 100.629, 117.396 98.260 C 121.304 95.186, 125.130 88.361, 128.481 78.482 C 133.024 65.091, 137.543 60.948, 149 59.668 C 158.295 58.630, 160.306 53.278, 152.851 49.423 C 150.401 48.156, 147.660 47.925, 139.630 48.307 C 134.059 48.572, 127.057 49.321, 124.071 49.972 C 117.350 51.437, 112.515 50.606, 109.350 47.440 C 107.401 45.492, 107.127 44.630, 107.961 43.072 C 108.533 42.005, 109 39.520, 109 37.551 C 109 34.585, 108.443 33.631, 105.750 31.989 C 102.113 29.772, 102.307 29.802, 99.338 30.999" stroke="none" fill="black" fill-rule="evenodd"/>
</svg>