<svg xmlns="http://www.w3.org/2000/svg" width="256" height="256" viewBox="0 0 256 256" version="1.1">
	<path d="M 65.500 31.037 C 52.197 31.830, 50.201 33.553, 51.515 43.108 C 51.892 45.853, 52.335 54.040, 52.498 61.300 C 53.176 91.442, 53.968 93.281, 66.735 94.360 C 78.505 95.355, 86.917 97.059, 88.659 98.802 C 89.898 100.041, 90.131 101.780, 89.729 106.785 C 89.055 115.178, 88.204 115.954, 82.219 113.627 C 75.503 111.015, 62.034 109.609, 55.131 110.799 C 52.034 111.333, 47.988 111.538, 46.139 111.255 C 43.905 110.913, 42.486 111.203, 41.905 112.120 C 40.291 114.667, 40.925 120.635, 43.103 123.404 C 45.201 126.071, 45.231 126.076, 54.981 125.404 C 63.518 124.816, 65.689 125.019, 72.128 127.003 C 76.182 128.252, 81.613 129.192, 84.196 129.090 C 90.805 128.831, 92.099 131.083, 92.944 144.314 C 93.492 152.906, 93.977 155.050, 95.986 157.767 C 99.059 161.924, 102.002 161.959, 104.418 157.869 C 106.040 155.123, 106.185 153.420, 105.590 144.028 C 104.831 132.023, 105.186 131.172, 111.066 130.902 C 112.955 130.815, 118.080 130.067, 122.456 129.240 C 127.748 128.239, 133.052 127.939, 138.296 128.343 C 147.330 129.040, 151.405 127.843, 154.832 123.486 C 156.048 121.941, 157 119.300, 157 117.474 C 157 114.838, 156.525 114.098, 154.513 113.593 C 150.714 112.639, 138.518 112.850, 128.500 114.043 C 110.003 116.246, 106.518 116.329, 105.084 114.601 C 104.353 113.721, 104.047 113, 104.403 113 C 104.760 113, 104.365 111.672, 103.526 110.050 C 101.678 106.477, 101.542 101.621, 103.250 100.217 C 106.522 97.526, 119.422 95.097, 130.750 95.038 C 142.186 94.978, 142.031 95.311, 142.084 70.730 C 142.108 59.603, 142.186 49.375, 142.256 48 C 142.827 36.847, 140.586 33.864, 130.207 31.960 C 123.172 30.671, 81.593 30.077, 65.500 31.037 M 64.484 46.326 C 63.668 47.492, 63 49.438, 63 50.651 C 63 52.719, 65.310 55.969, 66.821 56.026 C 67.195 56.040, 80.922 56.101, 97.328 56.162 C 130.893 56.287, 130.841 56.298, 129.589 49.622 C 129.222 47.668, 128.395 45.744, 127.750 45.346 C 127.106 44.947, 112.941 44.528, 96.273 44.415 C 66.421 44.211, 65.946 44.240, 64.484 46.326 M 64.884 72.423 C 62.593 76.180, 62.591 75.817, 64.923 79.642 L 66.839 82.784 81.492 83.517 C 97.140 84.299, 123.556 82.843, 126.982 81.010 C 131.515 78.583, 130.683 71.642, 125.720 70.492 C 123.949 70.082, 109.959 69.656, 94.630 69.546 L 66.760 69.346 64.884 72.423" stroke="none" fill="black" fill-rule="evenodd"/>
</svg>