<svg xmlns="http://www.w3.org/2000/svg" width="256" height="256" viewBox="0 0 256 256" version="1.1">
	<path d="M 49.215 26.453 C 47.985 28.017, 47.035 31.353, 46.594 35.654 C 46.214 39.365, 45.176 43.933, 44.288 45.805 C 42.582 49.401, 42.546 49.408, 34.193 47.594 C 31.208 46.946, 27.446 48.395, 26.637 50.505 C 25.536 53.373, 28.663 56.216, 35.578 58.634 C 45.446 62.085, 45.372 61.974, 44.648 72.183 C 44.269 77.524, 44.411 81.136, 45.014 81.509 C 46.308 82.308, 46.286 86.706, 44.984 87.510 C 44.425 87.856, 44.215 88.539, 44.518 89.028 C 44.820 89.518, 44.490 90.868, 43.784 92.028 C 42.647 93.896, 41.897 94.064, 37.238 93.495 C 31.350 92.777, 26.135 94.089, 23.557 96.937 C 21.491 99.220, 22.213 104.355, 25.098 107.891 C 27.043 110.275, 27.060 110.277, 30.995 108.502 C 33.165 107.524, 35.699 105.885, 36.625 104.861 C 37.552 103.838, 38.915 103, 39.655 103 C 40.395 103, 41 102.550, 41 102 C 41 101.450, 41.477 101, 42.059 101 C 42.641 101, 42.876 101.392, 42.580 101.871 C 42.284 102.350, 42.932 103.769, 44.021 105.024 C 48.046 109.665, 46.504 134.166, 41.567 144.036 C 40.019 147.129, 39.546 149.243, 40.078 150.681 C 41.268 153.900, 47.461 158.118, 51.862 158.708 C 55.338 159.175, 56.010 158.914, 57.602 156.484 C 59.502 153.585, 59.472 154.769, 58.437 123.500 C 58.237 117.450, 58.070 111.182, 58.066 109.570 C 58.057 105.926, 61.208 100.700, 65.073 97.948 C 69.357 94.897, 70.188 92.792, 69.070 87.817 C 68.024 83.160, 65.882 81, 62.309 81 C 60.081 81, 60 80.706, 60 72.633 L 60 64.266 64 61.619 C 66.200 60.163, 68 58.528, 68 57.986 C 68 56.224, 71.032 56.944, 73.323 59.250 C 79.550 65.517, 79.588 65.642, 76.280 69.025 C 73.595 71.771, 73.361 72.503, 74.017 76.092 C 74.779 80.262, 77.209 82.914, 80.316 82.968 C 81.314 82.986, 83.066 83.500, 84.208 84.112 C 85.411 84.755, 90.749 85.166, 96.893 85.086 C 107.358 84.951, 114 83.723, 114 81.922 C 114 81.415, 115.200 81, 116.667 81 C 118.133 81, 119.037 81.296, 118.675 81.658 C 117.439 82.895, 120.240 85, 123.122 85 C 124.750 85, 126.007 85.543, 126.015 86.250 C 126.026 87.083, 126.354 87, 127 86 C 127.862 84.667, 127.973 84.667, 128 86 C 128.027 87.333, 128.138 87.333, 129 86 C 129.646 85, 129.974 84.917, 129.985 85.750 C 129.993 86.438, 130.873 87, 131.941 87 C 133.009 87, 134.160 87.450, 134.500 88 C 134.840 88.550, 136.018 89, 137.118 89 C 138.218 89, 138.881 89.384, 138.591 89.853 C 138.119 90.617, 132.640 91.030, 119 91.329 C 116.525 91.383, 109.100 91.107, 102.500 90.715 C 95.855 90.320, 89.888 90.396, 89.128 90.885 C 86.946 92.291, 86.071 107.385, 87.412 120.500 C 88.150 127.721, 90.408 135.372, 92.577 138 C 93.257 138.825, 93.968 140.622, 94.157 141.994 C 94.464 144.224, 93.995 144.613, 89.735 145.670 C 86.552 146.460, 83.897 146.543, 81.735 145.920 C 77.599 144.728, 76 146.634, 76 152.757 C 76 161.241, 78.215 162.414, 87.911 159.066 C 95.515 156.441, 100.521 153.028, 101.926 149.511 C 103.963 144.412, 104.578 143.574, 107.992 141.250 C 113.947 137.195, 121.647 139.196, 122.420 145 C 123.222 151.031, 124.187 152.074, 133.111 156.556 C 140.358 160.195, 142.951 161, 147.433 161 C 155.256 161, 157.585 159.600, 160.593 153.087 C 162.013 150.014, 163.583 146.722, 164.083 145.770 C 164.779 144.445, 164.398 143.652, 162.455 142.378 C 159.649 140.540, 158.419 140.913, 152.102 145.521 C 146.048 149.937, 135.827 148.263, 135.186 142.751 C 134.786 139.306, 139.351 136.296, 146.399 135.356 C 154.360 134.295, 154.893 133.213, 154.410 119.098 C 154.154 111.613, 153.402 105.398, 152.434 102.759 C 151.575 100.417, 150.735 97.825, 150.567 97 C 149.799 93.230, 148.674 91.089, 147.155 90.506 C 145.996 90.061, 147.435 89.023, 152.004 87.005 C 158.052 84.335, 158.521 83.896, 158.806 80.645 C 158.974 78.724, 159.762 76.613, 160.556 75.954 C 161.350 75.294, 162 73.867, 162 72.782 C 162 70.500, 158.353 65, 156.840 65 C 156.276 65, 154.679 64.106, 153.290 63.014 C 151.901 61.921, 150.368 61.273, 149.882 61.573 C 149.397 61.873, 149 61.714, 149 61.220 C 149 60.725, 150.066 59.836, 151.368 59.242 C 154.540 57.797, 155.264 53.606, 152.868 50.559 C 150.384 47.401, 150.484 46.790, 154 43.658 C 157.463 40.572, 157.731 38.971, 155.171 36.655 C 153.789 35.404, 151.381 35, 145.308 35 C 137.875 35, 137.067 34.794, 134.525 32.250 C 130.851 28.572, 126.875 26.015, 124.818 26.007 C 122.078 25.996, 118.998 31.438, 118.220 37.666 C 117.424 44.041, 115.238 46.151, 110.390 45.224 C 106.519 44.484, 106.536 42.664, 110.450 38.750 C 112.403 36.797, 114 34.745, 114 34.189 C 114 33.633, 112.657 32.047, 111.015 30.666 C 108.206 28.302, 107.351 28.154, 96.544 28.154 C 90.227 28.154, 84.641 27.896, 84.132 27.581 C 83.622 27.267, 81.843 27.281, 80.179 27.614 C 77.147 28.221, 75.891 30.126, 74.607 36.072 C 74.301 37.486, 72.399 41.152, 70.380 44.219 C 66.883 49.529, 66.573 49.747, 63.876 48.807 C 60.358 47.581, 59.013 43.340, 59.006 33.450 C 59.002 29.307, 58.505 25.905, 57.800 25.200 C 55.746 23.146, 51.307 23.794, 49.215 26.453 M 86.250 39.728 C 84.243 40.432, 84.806 42.558, 87.362 43.926 C 89.281 44.953, 90.123 44.940, 91.862 43.854 C 94.582 42.155, 94.557 41.411, 91.750 40.514 C 88.092 39.344, 87.561 39.269, 86.250 39.728 M 90.064 52.926 C 88.874 53.690, 88.853 54.118, 89.937 55.424 C 90.656 56.291, 90.852 57.029, 90.372 57.063 C 89.893 57.098, 90.578 57.558, 91.895 58.085 C 95.106 59.369, 98.513 58.323, 97.011 56.513 C 96.205 55.542, 96.257 55.073, 97.208 54.734 C 99 54.096, 98.038 53.344, 94.500 52.619 C 92.850 52.280, 90.854 52.418, 90.064 52.926 M 114.189 59.039 C 112.691 60.434, 112 62.258, 112 64.816 C 112 69.028, 109.734 72.941, 107.193 73.118 C 106.262 73.183, 106.850 73.522, 108.500 73.871 C 110.220 74.235, 111.910 75.438, 112.461 76.691 C 113.532 79.130, 116.107 80.170, 118.069 78.957 C 119.551 78.041, 120.083 74.169, 118.832 73.396 C 117.931 72.840, 118.849 67.829, 120.004 67 C 120.992 66.291, 123 62.330, 123 61.091 C 123 60.241, 118.039 57, 116.738 57 C 116.540 57, 115.392 57.918, 114.189 59.039 M 84.311 70.114 C 85.307 70.693, 86.769 70.919, 87.561 70.615 C 88.410 70.289, 89 70.664, 89 71.531 C 89 72.358, 88.017 73.044, 86.750 73.100 C 84.605 73.195, 84.616 73.232, 86.987 73.892 C 88.355 74.272, 90.647 74.412, 92.081 74.201 C 94.228 73.886, 94.607 73.394, 94.227 71.409 C 93.805 69.199, 93.303 69.003, 88.133 69.030 C 83.699 69.054, 82.885 69.285, 84.311 70.114 M 91 72 C 89.718 72.828, 89.754 72.972, 91.250 72.985 C 92.213 72.993, 93 72.550, 93 72 C 93 70.780, 92.887 70.780, 91 72 M 131.903 76.180 C 131.019 77.834, 131.412 77.999, 136.215 77.985 C 145.513 77.958, 146.437 74.585, 137.189 74.432 C 133.995 74.379, 132.625 74.832, 131.903 76.180 M 101.397 102.500 C 102.441 103.290, 103.678 103.699, 104.147 103.409 C 104.616 103.119, 105 103.327, 105 103.871 C 105 104.416, 103.987 105.056, 102.750 105.294 C 101.473 105.540, 102.231 105.780, 104.500 105.849 C 106.700 105.915, 107.987 105.639, 107.361 105.235 C 106.528 104.698, 106.576 104.171, 107.537 103.279 C 108.573 102.318, 108.958 102.318, 109.347 103.279 C 109.629 103.974, 109.876 103.746, 109.921 102.750 C 109.987 101.292, 109.125 101.005, 104.750 101.032 C 99.970 101.061, 99.670 101.192, 101.397 102.500 M 113 101.787 C 113 102.220, 114.007 102.650, 115.237 102.743 C 116.996 102.875, 117.156 102.710, 115.987 101.971 C 114.159 100.815, 113 100.744, 113 101.787 M 129.292 102.750 C 128.936 103.713, 128.163 104.831, 127.573 105.235 C 126.852 105.729, 126.910 105.974, 127.750 105.985 C 128.566 105.995, 129 107.594, 129 110.594 C 129 114.346, 129.366 115.283, 131 115.710 C 132.100 115.998, 133 116.628, 133 117.110 C 133 117.592, 134.151 116.986, 135.558 115.763 C 136.965 114.539, 137.643 113.381, 137.066 113.189 C 136.342 112.947, 136.335 112.243, 137.043 110.919 C 137.768 109.564, 137.745 109, 136.964 109 C 136.339 109, 136.523 108.334, 137.386 107.471 C 138.937 105.920, 138.576 103, 136.834 103 C 136.310 103, 136.160 102.550, 136.500 102 C 136.868 101.404, 135.667 101, 133.528 101 C 131.021 101, 129.742 101.528, 129.292 102.750 M 101 113.846 C 101 114.850, 105.591 114.743, 106.619 113.715 C 107.012 113.322, 105.908 113, 104.167 113 C 102.425 113, 101 113.381, 101 113.846 M 105.015 125.750 C 105.007 126.438, 104.213 127.032, 103.250 127.070 C 101.754 127.130, 101.790 127.265, 103.500 128 C 106.036 129.090, 139 129.275, 139 128.200 C 139 126.768, 136.645 125, 134.738 125 C 133.714 125, 130.622 125.737, 127.868 126.638 C 121.887 128.594, 107.288 128.061, 105.877 125.835 C 105.244 124.836, 105.027 124.815, 105.015 125.750" stroke="none" fill="black" fill-rule="evenodd"/>
</svg>