<svg xmlns="http://www.w3.org/2000/svg" width="256" height="256" viewBox="0 0 256 256" version="1.1">
	<path d="M 68.079 30.263 C 62.128 34.175, 61.796 34.263, 52.556 34.392 C 44.675 34.502, 42.651 34.869, 40.307 36.612 C 31.312 43.304, 42.986 48.802, 60.740 46.236 C 65.590 45.535, 67.644 45.656, 69.964 46.780 C 72.448 47.982, 72.781 48.541, 71.946 50.101 C 71.394 51.132, 69.718 52.247, 68.221 52.578 C 58.111 54.813, 55.685 57.229, 55.326 65.419 C 55.204 68.214, 54.793 72.668, 54.414 75.318 C 52.959 85.484, 57.308 91, 66.779 91 C 70.431 91, 72.104 92.005, 75.700 96.356 C 76.653 97.510, 76.531 98.234, 75.108 99.876 C 73.411 101.832, 72.542 101.917, 58.787 101.463 C 42.276 100.919, 42.193 100.953, 41.371 108.428 C 40.907 112.651, 41.069 113.076, 43.502 114.001 C 45.011 114.574, 48.560 114.700, 51.817 114.294 C 54.943 113.905, 57.950 113.737, 58.500 113.921 C 59.050 114.104, 60.063 114.272, 60.750 114.294 C 61.438 114.316, 61.982 115.046, 61.959 115.917 C 61.913 117.678, 53.078 122.239, 50.270 121.951 C 47.306 121.647, 46.385 121.929, 44.377 123.750 C 39.719 127.976, 37.817 133.583, 39.915 136.897 C 41.115 138.791, 47.118 137.764, 50.998 135.001 C 52.637 133.834, 55.194 132.794, 56.681 132.690 C 59.021 132.525, 59.549 133.036, 60.615 136.500 C 61.292 138.700, 61.881 143.170, 61.923 146.434 C 62.030 154.693, 65.105 161, 69.024 161 C 70.589 161, 73.137 160.494, 74.685 159.875 C 77.017 158.943, 88.420 158.405, 115.863 157.932 C 117.713 157.900, 120.863 158.522, 122.863 159.315 C 126.952 160.935, 130.344 160.170, 131.766 157.306 C 132.260 156.313, 132.728 150.608, 132.806 144.629 C 132.974 131.901, 133.788 130.522, 140.500 131.605 C 145.356 132.389, 149.166 132.246, 150.122 131.244 C 150.512 130.835, 150.982 128.943, 151.166 127.040 C 151.522 123.351, 151.864 123.659, 143 119.681 C 139.753 118.223, 132.559 116.813, 127.250 116.593 C 125.834 116.535, 125 115.869, 125 114.798 C 125 113.277, 126.379 113.108, 137.936 113.205 C 148.464 113.294, 151.346 113.003, 153.420 111.644 C 156.903 109.362, 157.815 105.349, 155.381 103.009 C 153.823 101.512, 151.095 101.095, 139.500 100.585 C 131.800 100.246, 125.050 99.943, 124.500 99.911 C 123.950 99.879, 117.875 100.278, 111 100.798 C 104.125 101.318, 96.761 101.591, 94.636 101.405 C 90.798 101.069, 85 99.004, 85 97.974 C 85 97.679, 87.081 96.822, 89.625 96.071 C 93.132 95.036, 98.510 94.844, 111.875 95.278 C 126.966 95.768, 130.003 95.613, 133 94.204 C 139.333 91.225, 140.083 89.585, 139.495 80 C 138.811 68.843, 138.350 61.892, 138.156 59.821 C 137.903 57.098, 135.087 55, 131.679 54.996 C 128.347 54.992, 122 51.740, 122 50.038 C 122 49.492, 123.161 48.285, 124.580 47.356 C 126.855 45.865, 127.891 45.810, 133.339 46.893 C 137.870 47.794, 141.218 47.848, 145.893 47.095 C 155.478 45.551, 158.155 42.170, 153.870 37.019 C 151.905 34.658, 151.262 34.534, 140.460 34.445 C 129.585 34.355, 128.946 34.230, 125.034 31.426 C 117.728 26.187, 116.238 25.664, 112.675 27.087 C 110.929 27.785, 107.598 30.075, 105.272 32.178 C 101.154 35.901, 96.827 37.147, 95.496 34.993 C 94.491 33.367, 89.022 30.852, 81.332 28.479 L 74.161 26.267 68.079 30.263 M 97.772 46.561 C 97.230 47.103, 90.421 47.826, 84.750 47.943 C 80.601 48.029, 81.292 50.743, 85.750 51.874 C 93.643 53.875, 102.587 54.200, 106.364 52.621 C 110.840 50.751, 110.366 48.726, 105.082 47.143 C 100.882 45.884, 98.628 45.705, 97.772 46.561 M 68.127 64.873 C 65.602 67.398, 65.491 68.332, 67.514 70.012 C 68.731 71.022, 71.530 71.003, 81.764 69.916 C 88.769 69.171, 93.600 68.410, 92.500 68.223 C 91.400 68.036, 89.825 67.611, 89 67.278 C 88.175 66.945, 87.275 66.596, 87 66.503 C 86.725 66.409, 85.150 65.769, 83.500 65.081 C 81.850 64.393, 78.195 63.586, 75.377 63.288 C 71.050 62.831, 69.923 63.077, 68.127 64.873 M 101.500 66.703 C 95.302 67.272, 94.300 67.823, 96.577 69.411 C 98.735 70.916, 121.198 71.137, 122.666 69.668 C 123.123 69.211, 122.624 68.198, 121.557 67.418 C 119.681 66.046, 111.748 65.763, 101.500 66.703 M 70.750 80.816 C 67.917 81.142, 67.353 82.429, 68.941 84.939 C 69.701 86.139, 70.688 86.185, 74.903 85.212 C 77.682 84.570, 80.641 84.309, 81.480 84.631 C 83.762 85.506, 88 84.160, 88 82.560 C 88 81.517, 86.146 81.074, 80.750 80.829 C 76.763 80.648, 72.263 80.642, 70.750 80.816 M 109.585 80.969 C 106.236 81.423, 105.894 81.685, 107.219 82.776 C 109.014 84.255, 114.086 84.602, 118.750 83.564 C 122.220 82.792, 123.151 81.103, 120.250 80.843 C 115.806 80.446, 113.211 80.476, 109.585 80.969 M 90.093 114.135 C 87.091 115.279, 75.822 115.626, 74.202 114.625 C 73.462 114.168, 73 114.482, 73 115.441 C 73 116.298, 73.001 117.338, 73.003 117.750 C 73.004 118.162, 76.717 118.559, 81.253 118.630 C 85.789 118.702, 95.274 118.853, 102.330 118.967 C 115.832 119.184, 124 117.751, 124 115.165 C 124 114.259, 123.296 113.951, 122.001 114.289 C 120.902 114.577, 119.743 114.393, 119.426 113.880 C 118.692 112.693, 93.300 112.913, 90.093 114.135 M 97 133.943 C 97 134.461, 97.961 134.700, 99.135 134.474 C 102.367 133.852, 102.674 133, 99.667 133 C 98.200 133, 97 133.424, 97 133.943 M 114.813 133.683 C 115.534 133.972, 116.397 133.936, 116.729 133.604 C 117.061 133.272, 116.471 133.036, 115.417 133.079 C 114.252 133.127, 114.015 133.364, 114.813 133.683 M 87.500 140.901 C 82.630 142.127, 77 145.130, 77 146.503 C 77 147.204, 78.618 148.081, 80.595 148.452 C 84.115 149.112, 115.016 147.243, 115.998 146.310 C 118.739 143.706, 94.578 139.121, 87.500 140.901" stroke="none" fill="black" fill-rule="evenodd"/>
</svg>