<svg xmlns="http://www.w3.org/2000/svg" width="256" height="256" viewBox="0 0 256 256" version="1.1">
	<path d="M 118.515 30.627 C 117.234 31.909, 117.026 33.364, 117.539 37.468 L 118.191 42.682 114.526 44.421 C 111.865 45.683, 108.482 46.139, 102.180 46.084 C 96.347 46.032, 91.923 46.570, 88.693 47.722 C 83.934 49.419, 83.840 49.412, 79.236 46.970 C 74.595 44.507, 73.019 44.281, 54.757 43.463 C 45.458 43.047, 38.705 44.995, 36.200 48.817 C 35.052 50.569, 34.425 53.861, 34.269 58.956 C 33.811 73.919, 33.985 101.616, 34.572 107 C 36.117 121.199, 40.761 128.804, 47.184 127.654 C 49.008 127.327, 52.075 126.797, 54 126.475 C 55.925 126.154, 59.300 125.483, 61.500 124.984 C 64.475 124.310, 66.831 124.495, 70.697 125.705 C 76.626 127.561, 77.791 127.068, 80.382 121.607 C 81.546 119.154, 81.711 117.480, 81.025 115.086 C 80.031 111.620, 81.174 107, 83.025 107 C 83.616 107, 85.324 107.633, 86.820 108.407 C 90.109 110.108, 107.978 110.676, 122.500 109.542 C 131.961 108.804, 132.603 108.877, 134.420 110.897 C 136.175 112.849, 136.239 113.578, 135.170 119.382 C 134.526 122.874, 134 128.180, 134 131.174 C 134 138.073, 132.432 140.195, 126.384 141.479 C 122.822 142.235, 121.191 143.186, 120.091 145.147 C 118.697 147.631, 118.780 148.022, 121.434 151.503 C 126.101 157.621, 134.638 159.790, 141.035 156.482 C 144.181 154.855, 144.688 153.548, 145.490 145 C 145.773 141.975, 146.384 136.873, 146.847 133.661 C 147.310 130.450, 147.478 125.620, 147.219 122.927 C 146.606 116.549, 148.159 114.260, 155.895 110.137 C 162.424 106.657, 163.437 104.610, 160.118 101.607 C 159.083 100.670, 156.680 99.474, 154.777 98.949 C 151.396 98.015, 149 94.866, 149 91.353 C 149 90.499, 150.575 88.225, 152.500 86.300 C 154.481 84.319, 156 81.797, 156 80.489 C 156 75.282, 145.953 70.848, 137.674 72.401 C 133.468 73.191, 131.471 71.148, 130.734 65.302 C 129.856 58.345, 131.038 57.616, 142.773 57.878 C 157.152 58.199, 163.241 55.056, 159.995 48.990 C 158.318 45.858, 154.877 45, 143.982 45 C 133.278 45, 129.183 43.827, 128.542 40.579 C 128.316 39.435, 127.874 36.968, 127.560 35.095 C 127.245 33.223, 126.486 31.085, 125.872 30.345 C 124.345 28.505, 120.490 28.653, 118.515 30.627 M 55.500 56.665 C 50.296 58.529, 49.553 59.457, 48.163 65.826 C 46.622 72.886, 46.656 73.254, 49.114 75.892 C 50.991 77.907, 51.843 78.089, 56.727 77.519 C 64.148 76.652, 65.740 75.441, 66.964 69.733 C 68.517 62.493, 68.247 60.156, 65.545 57.455 C 62.802 54.711, 61.290 54.592, 55.500 56.665 M 81.375 61.642 C 80.511 65.085, 80.434 82.122, 81.254 88.411 C 82.137 95.188, 83.702 96.583, 88.605 94.965 C 93.147 93.466, 97.644 93.460, 99.440 94.950 C 100.156 95.544, 102.712 96.030, 105.121 96.029 C 126.434 96.024, 133.634 95.762, 134.436 94.961 C 136.286 93.116, 136.017 89.647, 133.845 87.335 C 130.794 84.088, 124.259 84.242, 114.318 87.794 C 101.073 92.528, 91.824 90.908, 90.455 83.613 C 89.421 78.100, 91.057 76.324, 97.720 75.726 C 106.607 74.929, 115.398 72.723, 116.442 71.029 C 117.875 68.705, 117.093 61.672, 115.244 60.250 C 114.101 59.371, 108.926 59, 97.828 59 L 82.038 59 81.375 61.642 M 55.085 88.510 C 52.107 89.096, 49.228 90.277, 48.688 91.133 C 47.415 93.151, 50.475 108.763, 52.604 111.115 C 54.151 112.824, 60.252 114.556, 63 114.067 C 64.998 113.711, 65.592 112.638, 67.976 105.082 C 70.306 97.692, 70.543 93.124, 68.723 90.636 C 66.897 88.138, 61.357 87.275, 55.085 88.510 M 99.750 119.392 C 96.523 121.841, 97.482 127.562, 102.089 133.357 C 106.706 139.163, 108.919 140.361, 112.510 138.996 C 114.406 138.275, 115.037 137.269, 115.156 134.775 C 115.559 126.276, 114.481 123.520, 109.474 120.250 C 105.595 117.717, 102.335 117.430, 99.750 119.392" stroke="none" fill="black" fill-rule="evenodd"/>
</svg>