<svg xmlns="http://www.w3.org/2000/svg" width="256" height="256" viewBox="0 0 256 256" version="1.1">
	<path d="M 56.223 34.557 C 51.194 38.079, 54.381 43.162, 63.161 45.625 C 69.110 47.294, 75 52.225, 75 55.535 C 75 56.341, 75.112 57.333, 75.250 57.741 C 75.388 58.149, 68.605 58.558, 60.178 58.651 C 47.161 58.795, 44.566 59.083, 42.928 60.565 C 35.882 66.942, 47.510 72.709, 62.197 70.122 C 67.190 69.243, 68.715 69.287, 69.771 70.342 C 71.621 72.192, 73.892 81.209, 74.595 89.500 C 74.922 93.350, 75.236 96.725, 75.293 97 C 75.542 98.205, 73.783 102, 72.975 102 C 72.485 102, 72.193 103.688, 72.326 105.750 C 72.458 107.813, 71.995 111.750, 71.295 114.500 C 70.596 117.250, 70.018 122.958, 70.012 127.185 C 69.997 136.635, 68.973 139.475, 64.067 143.675 C 59.694 147.417, 58.651 151.265, 60.693 156.121 C 63.215 162.118, 67.177 163.409, 72.710 160.035 C 77.823 156.918, 80.091 151.173, 81.590 137.545 C 82.547 128.839, 83.349 125.218, 84.508 124.371 C 85.756 123.458, 87.896 123.672, 94.287 125.351 C 102.114 127.407, 102.621 127.717, 105.984 132.500 C 113.122 142.651, 117.655 146.153, 129.531 150.692 C 149.516 158.330, 160.423 157.554, 159.101 148.587 C 158.754 146.231, 155.344 143.239, 152 142.355 C 150.625 141.992, 147.250 140.672, 144.500 139.422 C 141.750 138.171, 136.125 136.428, 132 135.546 C 118.856 132.739, 117.148 131.457, 120.750 127.109 C 122.166 125.400, 124.254 124.819, 131.691 124.065 C 136.746 123.553, 141.779 122.654, 142.875 122.067 C 143.971 121.480, 147.108 121, 149.845 121 C 154.149 121, 155.164 120.594, 157.351 117.995 C 160.503 114.249, 161.055 110.315, 161.001 92 C 160.978 84.025, 161.061 74.575, 161.186 71 C 161.479 62.618, 159.998 45.025, 158.803 42.702 C 156.978 39.153, 153.707 38.950, 141.800 41.645 C 132.076 43.846, 129.827 44.049, 125.674 43.102 C 114.953 40.655, 109.472 42.739, 109.936 49.086 C 110.287 53.905, 110.181 56.435, 109.254 65.306 C 108.439 73.094, 107.324 75.128, 104 74.881 C 98.685 74.487, 96.584 75.254, 92.787 78.976 C 90.556 81.163, 88.413 82.755, 88.025 82.515 C 87.090 81.938, 84.265 70.681, 83.628 65 C 83.227 61.413, 83.618 59.688, 85.557 56.500 C 90.288 48.722, 88.221 43.963, 78.500 40.248 C 75.750 39.197, 71.750 37.136, 69.610 35.668 C 65.158 32.614, 59.649 32.156, 56.223 34.557 M 139.500 53.010 C 138.400 53.477, 134.743 53.891, 131.372 53.930 C 127.746 53.971, 124.839 54.510, 124.251 55.250 C 123.704 55.938, 122.951 59.712, 122.579 63.638 C 121.924 70.536, 121.990 70.847, 124.552 72.862 C 128.066 75.626, 132.338 76.326, 139.551 75.319 C 145.356 74.508, 145.526 74.395, 146.835 70.494 C 148.223 66.356, 147.892 55.438, 146.334 53.997 C 144.842 52.616, 141.546 52.140, 139.500 53.010 M 47.135 84.539 C 45.285 85.343, 42.360 86.020, 40.635 86.045 C 30.991 86.184, 30.031 91.697, 39.184 94.376 C 42.108 95.232, 45.569 96.687, 46.876 97.611 C 49.021 99.127, 49.202 99.834, 48.743 104.900 C 48.442 108.220, 47.209 112.347, 45.721 115.010 C 44.339 117.486, 42.670 121.533, 42.011 124.005 C 41.353 126.477, 40.199 129.191, 39.447 130.035 C 38.695 130.879, 36.735 134.088, 35.093 137.166 C 32.678 141.691, 32.335 143.063, 33.303 144.327 C 35.616 147.348, 39.203 147.270, 44.206 144.091 C 49.350 140.822, 52.654 136.213, 55.385 128.500 C 56.359 125.750, 57.558 122.600, 58.051 121.500 C 58.544 120.400, 59.368 116.575, 59.882 113 C 60.893 105.965, 62.782 100.172, 64.894 97.627 C 66.583 95.593, 65.614 89.847, 63.230 87.758 C 60.468 85.336, 55.296 82.997, 52.800 83.039 C 51.535 83.061, 48.986 83.736, 47.135 84.539 M 135 86.678 C 123.232 87.407, 122.364 88.434, 124.573 99.029 C 126.916 110.263, 126.774 110.129, 135.800 109.619 C 147.728 108.944, 147.962 108.701, 147.986 96.941 C 148.007 87.233, 146.409 85.971, 135 86.678 M 103.664 88.868 C 97.075 93.246, 95.198 101.800, 98.999 110.123 C 101.957 116.597, 103.454 118.118, 106.968 118.218 C 112.346 118.371, 113.159 116.575, 113.325 104.181 C 113.457 94.372, 113.235 92.792, 111.381 90.306 C 108.752 86.782, 107.231 86.498, 103.664 88.868" stroke="none" fill="black" fill-rule="evenodd"/>
</svg>