<svg xmlns="http://www.w3.org/2000/svg" width="256" height="256" viewBox="0 0 256 256" version="1.1">
	<path d="M 114.200 30.200 C 113.540 30.860, 113 33.110, 113 35.200 C 113 37.751, 112.296 39.704, 110.858 41.142 C 108.861 43.139, 108.036 43.243, 98.741 42.677 C 83.249 41.733, 80.092 44.446, 79.820 58.938 C 79.670 66.894, 79.071 69.362, 77.388 68.957 C 75.872 68.593, 73.070 61.669, 73.034 58.200 C 72.992 54.160, 70.765 49.649, 67.778 47.557 C 65.913 46.251, 63.477 46.096, 53.022 46.620 C 38.334 47.355, 34.923 48.559, 32.662 53.803 C 28.778 62.811, 28.034 75.727, 31.072 81.396 C 32.948 84.896, 33.099 86.485, 32.664 98.170 C 32.206 110.474, 32.298 111.282, 34.640 115.472 C 38.344 122.099, 44.477 125.319, 52.985 125.105 C 57.307 124.996, 60.677 125.473, 62.574 126.462 C 66.125 128.314, 70.387 128.447, 71.785 126.750 C 74.035 124.019, 75.329 112.808, 75.413 95.309 C 75.498 77.576, 75.559 77.063, 77.841 74.935 L 80.183 72.752 88.341 74.519 C 104.665 78.053, 145.189 77.603, 149.450 73.839 C 149.973 73.378, 151.194 73, 152.165 73 C 153.136 73, 155.560 71.569, 157.552 69.821 C 161.548 66.312, 161.645 65.151, 158.958 53 C 157 44.147, 156.020 43.584, 141.579 43 C 127.629 42.436, 125.676 41.555, 124.672 35.368 C 124.356 33.417, 123.570 31.187, 122.926 30.411 C 121.496 28.688, 115.848 28.552, 114.200 30.200 M 95.171 56.294 C 93.706 58.059, 94.509 62.348, 96.635 64.112 C 97.741 65.030, 99.631 65.041, 104.787 64.159 C 120.941 61.396, 126.746 61.245, 134.893 63.373 C 140.643 64.876, 141.519 64.890, 143.610 63.520 C 146.247 61.792, 145.977 60.109, 142.731 58.026 C 141.093 56.975, 136.778 56.564, 126.500 56.479 C 118.800 56.416, 108.884 56.008, 104.464 55.572 C 97.824 54.917, 96.210 55.042, 95.171 56.294 M 47.455 61.455 C 45.522 63.387, 45.005 64.928, 45.022 68.705 C 45.047 74.063, 46.824 76.899, 51.373 78.842 C 57.189 81.326, 60.991 75.425, 59.713 65.897 C 59.420 63.711, 58.634 61.264, 57.967 60.461 C 56.010 58.103, 50.263 58.646, 47.455 61.455 M 111.500 84.037 C 95.563 85.107, 90.142 87.855, 91.426 94.211 C 92.034 97.222, 92.190 104.713, 92.004 121.967 C 91.922 129.570, 93.523 132.426, 99.623 135.554 C 103.781 137.686, 105.238 137.747, 137.724 137.151 C 145.918 137.001, 145.955 136.988, 147.614 133.780 C 149.840 129.476, 150.345 125.031, 149.141 120.357 C 148.595 118.235, 148.486 114.700, 148.899 112.500 C 149.411 109.778, 149.185 107.283, 148.193 104.689 C 147.059 101.726, 146.986 100.325, 147.867 98.392 C 151.631 90.132, 145.605 84.603, 132.545 84.334 C 128.120 84.243, 123.600 84.003, 122.500 83.801 C 121.400 83.599, 116.450 83.705, 111.500 84.037 M 48.896 88.331 C 42.460 91.219, 42.209 93.081, 47.188 101 C 48.745 103.475, 50.276 106.175, 50.592 107 C 50.908 107.825, 52.765 109.532, 54.718 110.794 C 58.122 112.992, 58.337 113.013, 59.885 111.294 C 61.616 109.371, 63.546 104.821, 65.224 98.706 C 66.156 95.311, 66.015 94.639, 63.883 92.327 C 61.290 89.514, 56.113 86.952, 53.282 87.081 C 52.302 87.126, 50.328 87.688, 48.896 88.331 M 110.530 97.105 C 107.797 97.663, 104.928 98.645, 104.154 99.287 C 102.005 101.070, 107.224 102.900, 114.614 102.955 C 117.976 102.980, 123.113 103.453, 126.030 104.006 C 130.342 104.823, 131.770 104.726, 133.667 103.483 C 136.324 101.742, 136.651 99.786, 134.575 98.062 C 132.662 96.474, 116.728 95.840, 110.530 97.105 M 104.302 116.588 C 102.475 117.417, 104.882 121.954, 107.421 122.470 C 108.565 122.702, 115.025 123.078, 121.779 123.304 C 134.623 123.735, 135.162 123.577, 135.625 119.242 C 135.864 116.994, 135.623 116.905, 129.687 117.071 C 126.284 117.166, 119.450 116.974, 114.500 116.644 C 109.550 116.314, 104.961 116.289, 104.302 116.588 M 79.500 141.195 C 75.859 143.260, 75.716 144.341, 78.341 150 C 78.978 151.375, 80.122 153.154, 80.882 153.954 C 83.009 156.190, 106.923 157.830, 134.260 157.615 C 160.981 157.404, 162 157.146, 162 150.592 C 162 144.213, 161.670 143.994, 152.143 144.060 C 147.389 144.092, 141.429 144.461, 138.899 144.879 C 136.111 145.339, 130.199 145.087, 123.899 144.239 C 118.179 143.469, 107.875 142.698, 101 142.525 C 94.125 142.351, 86.928 141.712, 85.007 141.105 C 83.085 140.497, 81.510 140.014, 81.507 140.030 C 81.503 140.047, 80.600 140.571, 79.500 141.195" stroke="none" fill="black" fill-rule="evenodd"/>
</svg>