<svg xmlns="http://www.w3.org/2000/svg" width="256" height="256" viewBox="0 0 256 256" version="1.1">
	<path d="M 74.104 29.500 C 65.255 30.547, 62.262 31.294, 60.714 32.841 C 58.506 35.050, 58.515 34.797, 59.936 54 C 60.486 61.425, 61.101 70.757, 61.303 74.739 C 61.883 86.193, 64.233 87.836, 82 89.210 C 98.285 90.470, 107.893 90.556, 120.370 89.554 C 132.456 88.584, 135.929 86.843, 135.442 82 C 135.016 77.773, 135.016 70.140, 135.443 54.500 C 135.671 46.133, 135.424 38.368, 134.884 36.941 C 132.927 31.770, 122.775 28.757, 108.938 29.240 C 104.847 29.383, 97.900 29.197, 93.500 28.826 C 88.632 28.416, 81.038 28.680, 74.104 29.500 M 76.199 43.042 C 74.384 43.441, 72.749 43.933, 72.566 44.134 C 71.660 45.131, 74.228 49.136, 76.271 49.913 C 79.628 51.189, 116.050 51.876, 118.673 50.713 C 121.301 49.547, 122.699 45.059, 120.808 43.860 C 120.089 43.404, 115.225 42.977, 110 42.912 C 104.775 42.847, 95.775 42.686, 90 42.555 C 84.225 42.423, 78.015 42.642, 76.199 43.042 M 73.156 66.516 C 71.429 68.573, 72.421 72.620, 74.990 73.994 C 80.376 76.877, 114.203 77.567, 119.193 74.897 C 120.513 74.190, 121.022 73.023, 120.810 71.190 C 120.268 66.511, 116.803 65.735, 94.542 65.304 C 77.085 64.966, 74.327 65.123, 73.156 66.516 M 47.867 95.660 C 47.325 96.314, 47.170 98.389, 47.523 100.272 C 47.876 102.155, 48.281 109.952, 48.423 117.598 C 48.724 133.846, 50.415 147.965, 52.615 152.602 C 54.329 156.213, 56.806 157.077, 61.500 155.700 C 63.150 155.216, 78.859 154.895, 96.408 154.987 C 124.582 155.134, 129.026 155.375, 134.385 157.043 C 139.825 158.736, 140.691 158.777, 142.728 157.443 C 143.977 156.624, 145.039 155.402, 145.087 154.727 C 145.134 154.052, 145.363 148.635, 145.595 142.689 C 145.827 136.744, 146.385 130.219, 146.834 128.189 C 147.283 126.160, 147.282 120.450, 146.833 115.500 C 146.383 110.550, 146.249 105.869, 146.535 105.097 C 147.470 102.574, 144.980 97.030, 142.672 96.499 C 140.476 95.993, 126.275 95.552, 118 95.733 C 115.525 95.787, 109.450 95.896, 104.500 95.975 C 99.550 96.054, 93.250 96.242, 90.500 96.393 C 87.750 96.545, 84.398 96.270, 83.052 95.784 C 79.106 94.357, 49.036 94.252, 47.867 95.660 M 63 105.713 C 59.673 106.945, 59.112 108.023, 60.190 111.115 C 62.015 116.350, 66.491 118.052, 74 116.366 C 78.192 115.424, 80.373 115.467, 98.500 116.841 C 106.200 117.424, 117.040 117.924, 122.589 117.951 C 132.127 117.997, 132.731 117.877, 133.628 115.750 C 134.151 114.513, 134.420 112.511, 134.226 111.302 C 133.766 108.427, 127.600 107.428, 117.108 108.529 C 106.976 109.593, 104.534 109.608, 90.652 108.699 C 84.135 108.272, 76.935 107.271, 74.652 106.476 C 70.445 105.010, 65.733 104.701, 63 105.713 M 63.951 130.283 C 61.616 132.789, 61.527 134.185, 63.463 137.928 C 65.207 141.301, 67.462 142.358, 70.007 140.996 C 72.466 139.680, 79.615 139.723, 82.131 141.070 C 85.312 142.773, 87.474 142.961, 104.457 143.020 C 119.959 143.073, 123.479 142.642, 129.156 140.001 C 132.437 138.474, 133.364 134.639, 130.975 132.477 C 127.699 129.513, 122.313 128.748, 113.617 130.014 C 104.271 131.374, 75.508 130.875, 69.701 129.251 C 66.349 128.313, 65.673 128.435, 63.951 130.283" stroke="none" fill="black" fill-rule="evenodd"/>
</svg>