<svg xmlns="http://www.w3.org/2000/svg" width="256" height="256" viewBox="0 0 256 256" version="1.1">
	<path d="M 147 34.054 C 142.786 35.076, 135.221 35.273, 111.717 34.975 C 92.159 34.727, 91.676 34.859, 88.325 41.338 C 86.003 45.829, 87.069 46.742, 95.563 47.538 C 107.818 48.686, 108.526 50.193, 103.774 65 C 100.612 74.851, 97.718 78.794, 91.683 81.473 C 85.549 84.196, 83.378 83.530, 82.461 78.645 C 81.784 75.033, 83.589 53.920, 84.994 49.020 C 85.781 46.275, 85.618 45.941, 83.180 45.323 C 80.375 44.611, 79.787 44.612, 65.896 45.343 C 44.698 46.459, 39.931 47.155, 37.159 49.540 L 34.500 51.828 34.732 81.664 C 34.918 105.485, 35.260 112.105, 36.430 114.500 C 37.237 116.150, 38.144 118.703, 38.448 120.173 C 38.751 121.643, 40.165 124.231, 41.589 125.923 C 43.802 128.553, 44.854 128.998, 48.839 128.988 C 51.403 128.982, 55.975 128.224, 59 127.304 C 62.025 126.384, 67.788 125.554, 71.807 125.458 C 75.826 125.363, 79.478 124.884, 79.921 124.393 C 81.997 122.094, 83.228 115.549, 83.533 105.183 C 83.717 98.958, 84.350 93.283, 84.940 92.572 C 85.815 91.519, 86.870 91.561, 90.632 92.799 C 94.914 94.209, 95.516 94.184, 98.875 92.467 C 107.447 88.084, 111.316 82.940, 116.521 69 C 117.446 66.525, 118.831 63.022, 119.601 61.216 C 120.370 59.410, 121 57.025, 121 55.916 C 121 52.535, 123.829 48.163, 126.239 47.821 C 130.744 47.181, 142.932 48.531, 144.201 49.810 C 145.094 50.710, 145.458 53.902, 145.366 60.018 C 145.190 71.730, 143.711 74.358, 134.732 78.920 C 129.432 81.612, 128 82.818, 128 84.588 C 128 90.579, 132.180 93.196, 141.633 93.123 C 147.360 93.079, 148.286 92.781, 150.447 90.287 C 151.924 88.582, 153.129 85.582, 153.551 82.556 C 153.930 79.837, 155.087 75.155, 156.120 72.150 C 157.154 69.145, 158.023 64.170, 158.051 61.093 C 158.080 58.017, 158.469 52.350, 158.917 48.500 C 159.888 40.144, 158.472 35.510, 154.483 33.994 C 151.568 32.885, 151.825 32.883, 147 34.054 M 57.285 58.389 C 54.417 59.001, 51.410 60.176, 50.603 61.001 C 48.418 63.234, 47.820 73.299, 49.712 76 C 51.098 77.978, 51.914 78.137, 58.707 77.753 C 63.305 77.493, 66.483 76.837, 66.971 76.047 C 68.410 73.719, 69.182 61.209, 68.021 59.040 C 66.817 56.789, 65.232 56.693, 57.285 58.389 M 54.199 90.176 C 51.214 90.844, 49.642 91.811, 49.062 93.337 C 48.045 96.012, 50.362 109.287, 51.938 109.813 C 52.542 110.014, 53.590 110.701, 54.268 111.339 C 56.086 113.052, 62.794 116, 64.873 116 C 67.351 116, 68.887 112.161, 70.143 102.824 C 70.953 96.808, 70.914 94.207, 69.982 91.958 C 68.840 89.200, 68.410 89.007, 63.629 89.107 C 60.808 89.166, 56.565 89.647, 54.199 90.176 M 134.500 99.285 C 117.297 100.487, 115.287 100.511, 107.491 99.604 C 101.257 98.879, 100.210 99.010, 98.016 100.786 C 95.865 102.528, 95.435 103.977, 94.652 112.141 C 93.454 124.633, 93.358 130.506, 94.252 136.500 C 94.662 139.250, 95.291 143.975, 95.649 147 C 96.156 151.290, 96.951 153.131, 99.262 155.366 C 102.125 158.135, 102.434 158.203, 108.363 157.369 C 111.738 156.894, 122.375 156.484, 132 156.458 C 141.625 156.432, 150.255 156.319, 151.179 156.206 C 154.118 155.845, 156 153.012, 156 148.947 C 156 146.797, 156.527 141.964, 157.171 138.207 C 158.019 133.261, 158.072 127.876, 157.360 118.680 C 155.869 99.405, 154.113 97.914, 134.500 99.285 M 133.642 110.692 C 133.229 111.104, 127.999 111.693, 122.020 111.999 C 108.319 112.701, 106.937 113.634, 107.127 122.044 C 107.198 125.197, 106.994 128.200, 106.674 128.719 C 105.783 130.160, 108.650 139.956, 110.591 142.101 C 112.096 143.763, 113.790 144, 124.187 144 C 136.825 144, 141.990 142.756, 143.859 139.263 C 144.677 137.734, 145.376 124.145, 145.062 115.865 C 144.946 112.808, 135.710 108.624, 133.642 110.692" stroke="none" fill="black" fill-rule="evenodd"/>
</svg>