<svg xmlns="http://www.w3.org/2000/svg" width="256" height="256" viewBox="0 0 256 256" version="1.1">
	<path d="M 68.302 27.250 C 65.748 30.057, 65.061 32.068, 65.997 34 C 69.659 41.562, 67.052 45, 57.655 45 C 49.345 45, 48.339 46.171, 45.912 58.680 C 43.691 70.124, 43.561 73.326, 45.192 76.316 C 45.847 77.517, 46.459 81.104, 46.550 84.286 C 46.741 90.880, 47.537 91.822, 55.509 94.874 C 59.570 96.429, 63.340 96.814, 75.422 96.909 C 83.620 96.973, 90.815 97.414, 91.413 97.888 C 92.011 98.362, 101.275 98.689, 112 98.614 C 122.725 98.539, 133.390 98.852, 135.700 99.309 C 138.874 99.937, 140.747 99.740, 143.360 98.500 C 150.225 95.242, 150.177 95.428, 150.347 71.602 C 150.533 45.422, 150.960 46.353, 138.968 46.789 C 130.630 47.091, 127.737 46.246, 126 43 C 125.230 41.560, 125.355 40.086, 126.477 37.401 C 128.423 32.745, 128.400 32.400, 126 30 C 121.871 25.871, 115 28.964, 115 34.953 C 115 44.974, 106.669 48.635, 90.012 45.932 C 81.648 44.575, 80 43.071, 80 36.795 C 80 26.766, 73.538 21.494, 68.302 27.250 M 61.748 58.750 C 59.859 60.867, 59.359 63.737, 60.362 66.708 C 60.804 68.014, 60.482 70.759, 59.575 73.431 C 57.742 78.830, 58.034 79.819, 62.328 82.750 C 66.239 85.420, 68.055 85.526, 73.594 83.411 C 77.396 81.959, 78.020 81.959, 80.828 83.411 C 84.523 85.322, 86.913 85.382, 89.230 83.623 C 90.771 82.452, 90.831 81.696, 89.775 76.664 C 88.858 72.289, 88.862 70.270, 89.796 67.689 C 91.598 62.704, 91.271 60.407, 88.498 58.590 C 86.222 57.099, 85.725 57.091, 82.998 58.501 C 79.607 60.254, 79.390 61.664, 81.551 67.870 C 82.920 71.802, 82.917 72.478, 81.513 74.620 C 79.417 77.820, 77.161 77.610, 73.138 73.840 C 70.032 70.929, 69.811 70.320, 70.240 65.856 C 70.780 60.236, 69.084 57, 65.598 57 C 64.340 57, 62.607 57.788, 61.748 58.750 M 127.079 60.405 C 125.711 62.053, 126.388 63.786, 129.189 65.807 C 131.995 67.831, 131.349 70.566, 127.272 73.927 C 122.914 77.519, 119.322 77.828, 115.635 74.927 C 112.938 72.806, 111.960 67.761, 114 66.500 C 114.550 66.160, 115 64.792, 115 63.460 C 115 60.732, 111.699 59.357, 107.610 60.383 C 104.496 61.165, 103.880 62.998, 105.241 67.432 C 106.147 70.386, 106.044 71.685, 104.675 74.556 C 102.339 79.454, 102.573 81.517, 105.750 84.032 C 108.158 85.939, 109.184 86.115, 114 85.446 C 117.025 85.026, 122.368 84.769, 125.873 84.875 C 136.547 85.199, 139.064 81.989, 135.821 72.186 C 134.406 67.907, 134.299 66.493, 135.274 64.932 C 136.164 63.507, 136.195 62.530, 135.392 61.247 C 133.967 58.971, 128.711 58.439, 127.079 60.405 M 72.693 104.589 C 68.008 105.247, 64.225 106.346, 63.232 107.340 C 61.801 108.771, 61.551 112.089, 61.382 131.868 C 61.182 155.321, 61.552 158.087, 65.199 160.365 C 66.501 161.178, 67.877 160.875, 71.088 159.071 C 75.038 156.851, 75.912 156.755, 86.389 157.391 C 102.353 158.361, 132.174 157.077, 134.582 155.316 C 136.321 154.045, 136.492 152.419, 136.566 136.413 C 136.611 126.781, 136.294 118.682, 135.862 118.415 C 135.430 118.148, 135.509 116.791, 136.038 115.399 C 138.774 108.203, 135.948 105.584, 124.218 104.449 C 111.619 103.230, 81.795 103.311, 72.693 104.589 M 76.750 116.084 C 75.108 116.731, 74 117.925, 74 119.048 C 74 122.135, 77.346 123.142, 85.260 122.436 C 89.242 122.081, 98.266 122.288, 105.314 122.896 C 119.352 124.107, 122 123.581, 122 119.581 C 122 117.832, 121.299 117.080, 119.250 116.632 C 113.699 115.418, 79.560 114.978, 76.750 116.084 M 96 135.935 C 85.825 136.249, 76.938 136.869, 76.250 137.312 C 74.051 138.730, 74.903 140.726, 78.420 142.395 C 82.609 144.383, 98.709 147.290, 101.562 146.574 C 102.704 146.287, 106.758 145.751, 110.569 145.382 C 114.381 145.013, 118.513 144.049, 119.750 143.241 C 124.036 140.439, 121.572 134.656, 116.316 135.181 C 115.317 135.281, 106.175 135.620, 96 135.935" stroke="none" fill="black" fill-rule="evenodd"/>
</svg>