<svg xmlns="http://www.w3.org/2000/svg" width="256" height="256" viewBox="0 0 256 256" version="1.1">
	<path d="M 80.391 33.526 C 77.244 38.328, 76.677 54.334, 79.044 71.500 C 80.498 82.037, 80.509 82.464, 79.781 99.750 C 79.474 107.037, 79.571 113, 79.995 113 C 81.094 113, 81.840 117.642, 80.967 119.053 C 80.565 119.704, 80.546 121.396, 80.926 122.814 C 81.538 125.105, 80.942 132.096, 79.556 138.858 C 78.465 144.186, 78.780 156.675, 80.058 158.721 C 82.503 162.636, 89.825 162.602, 91.886 158.666 C 93.225 156.110, 93.307 153.905, 92.417 144.391 C 91.671 136.420, 93.032 130.589, 96.009 128.995 C 97.025 128.451, 101.438 128.117, 105.815 128.253 C 112.457 128.459, 114.122 128.185, 115.886 126.595 C 118.634 124.118, 118.552 122.809, 115.411 119.077 C 113.343 116.619, 112.045 116, 108.958 116 C 106.833 116, 103.981 116.507, 102.621 117.127 C 97.755 119.344, 92 116.069, 92 111.084 C 92 105.725, 96.514 103.662, 104.977 105.153 C 110.103 106.056, 111.397 105.970, 113.510 104.586 C 116.430 102.672, 116.695 99.411, 114.175 96.397 C 111.165 92.795, 108.120 91.726, 102.859 92.424 C 97.250 93.168, 94.646 92.111, 92.634 88.270 C 91.622 86.339, 91.508 84.980, 92.225 83.405 C 93.849 79.841, 97.188 78.667, 103.677 79.380 C 111.263 80.215, 110.848 80.213, 115.644 79.436 C 119.103 78.876, 120.631 79.239, 124.893 81.633 C 127.701 83.210, 129.998 84.912, 129.999 85.417 C 130 85.921, 129.695 86.028, 129.321 85.655 C 128.139 84.472, 123.035 94.351, 123.017 97.857 C 123.008 99.703, 123.741 105.264, 124.647 110.216 C 126.082 118.060, 126.790 119.791, 130.147 123.670 C 136.391 130.885, 135.292 133.781, 124.720 137.968 C 119.829 139.905, 118.656 140.877, 117.088 144.297 C 114.930 149.005, 115.674 153.430, 119.097 156.250 C 122.537 159.084, 124.821 158.324, 130.373 152.500 C 134.801 147.854, 136.166 147, 139.160 147 C 142.645 147, 143.811 147.650, 153.064 154.750 C 160.003 160.074, 163.907 158.451, 163.968 150.215 C 164.008 144.879, 161.939 141.635, 156.443 138.414 C 149.982 134.627, 149.881 134.349, 152.101 126.478 C 154.397 118.339, 154.820 116.743, 154.923 115.821 C 154.966 115.448, 155.584 114.548, 156.298 113.821 C 157.011 113.095, 158.392 109.800, 159.365 106.500 C 160.339 103.200, 161.555 99.466, 162.068 98.203 C 163.400 94.920, 163.157 88.911, 161.576 86.057 C 160.440 84.006, 160.439 82.882, 161.570 79.057 C 162.431 76.144, 163.022 67.706, 163.208 55.669 L 163.500 36.837 160.589 34.328 C 158.237 32.300, 156.989 31.930, 154.089 32.400 C 152.115 32.720, 146.602 33.445, 141.838 34.012 C 135.920 34.716, 131.753 35.838, 128.683 37.554 C 123.183 40.627, 122.226 42.673, 124.995 45.433 C 126.849 47.282, 128.167 47.483, 137.485 47.337 L 147.902 47.174 148.880 50.337 C 150.836 56.668, 151.135 60.062, 150.030 63.408 C 148.633 67.641, 147.576 68.069, 137.025 68.675 C 132.364 68.942, 126.993 69.812, 125.088 70.608 C 122.137 71.841, 121.421 71.850, 120.239 70.668 C 117.908 68.337, 117.319 62.948, 118.294 52.872 C 119.377 41.688, 118.562 38.963, 113.020 35.232 C 109.963 33.174, 108.804 32.969, 103.467 33.540 C 98.973 34.022, 96.400 33.776, 93.574 32.595 C 87.627 30.110, 82.387 30.480, 80.391 33.526 M 56.565 44.661 C 54.477 45.384, 50.008 45.909, 46.634 45.828 C 38.328 45.628, 35.739 46.897, 33.132 52.443 C 31.298 56.344, 30.945 58.997, 30.828 69.775 C 30.672 84.067, 30.655 90.870, 30.761 96 C 30.801 97.925, 30.855 102.537, 30.881 106.250 C 30.907 110.010, 31.366 113, 31.919 113 C 32.463 113, 33.205 114.687, 33.566 116.750 C 34.699 123.216, 38.381 128.475, 42.792 129.931 C 45.920 130.964, 47.178 130.975, 49.020 129.989 C 50.598 129.145, 53.578 128.958, 58.443 129.399 C 66.100 130.093, 69.042 129.041, 69.663 125.388 C 70.567 120.067, 70.189 100.221, 69.146 98.273 C 68.233 96.567, 68.332 95.093, 69.609 91.331 C 71.296 86.361, 71.143 74.039, 69.165 55.760 C 67.972 44.726, 64.701 41.844, 56.565 44.661 M 92.882 46.118 C 91.028 47.972, 90.833 49.024, 91.318 54.545 C 91.902 61.192, 93.956 66.386, 96.367 67.310 C 101.519 69.288, 104.985 62.306, 103.995 51.946 C 103.641 48.248, 102.845 45.514, 101.957 44.952 C 99.437 43.358, 95.083 43.917, 92.882 46.118 M 47.064 59.155 C 45 61.078, 44.804 61.973, 45.246 67.482 C 45.519 70.876, 46.430 75.194, 47.272 77.077 C 49.283 81.578, 50.018 85, 48.974 85 C 48.512 85, 47.849 85.900, 47.500 87 C 47.151 88.100, 46.269 89, 45.540 89 C 42.671 89, 41.496 95.412, 43.880 98.059 C 47.018 101.542, 47.762 102.677, 48.482 105.077 C 48.881 106.410, 49.884 108.569, 50.710 109.876 C 51.961 111.856, 51.985 112.393, 50.855 113.097 C 49.844 113.729, 49.772 114.379, 50.571 115.662 C 52.205 118.283, 53.752 118.355, 54.548 115.849 C 54.987 114.467, 54.829 113.443, 54.142 113.214 C 53.392 112.964, 53.514 112.343, 54.509 111.348 C 55.329 110.528, 56.056 108.989, 56.125 107.929 C 56.267 105.745, 56.206 106.014, 57.894 100.116 C 59.341 95.062, 58.879 92.320, 56.027 89.031 C 54.912 87.746, 53.947 86.200, 53.882 85.597 C 53.763 84.503, 53.829 84.058, 54.595 80.750 C 54.818 79.787, 55.225 77.987, 55.499 76.750 C 56.567 71.937, 56.183 61.266, 54.867 59.158 C 53.147 56.405, 50.017 56.404, 47.064 59.155 M 145 81.032 C 143.075 81.446, 139.342 82.229, 136.704 82.772 C 134.066 83.315, 131.686 83.981, 131.415 84.252 C 130.530 85.137, 141.346 88.186, 145.600 88.250 C 151.450 88.339, 158.952 82.847, 154.750 81.552 C 151.398 80.520, 148.183 80.348, 145 81.032 M 138 101 C 135.619 103.381, 135.520 104.916, 137.449 109.532 C 138.380 111.760, 139.576 113, 140.794 113 C 145.424 113, 148.374 104.374, 144.925 100.925 C 142.468 98.468, 140.511 98.489, 138 101" stroke="none" fill="black" fill-rule="evenodd"/>
</svg>