<svg xmlns="http://www.w3.org/2000/svg" width="256" height="256" viewBox="0 0 256 256" version="1.1">
	<path d="M 65.500 33.062 C 58.900 33.429, 53.442 33.790, 53.371 33.864 C 51.941 35.371, 51.207 40.555, 51.795 45 C 52.195 48.025, 52.205 53.875, 51.818 58 C 51.161 64.995, 52.079 77.436, 53.532 81.222 C 54.727 84.337, 58.483 85.692, 67.866 86.391 C 76.235 87.015, 80 88.259, 80 90.400 C 80 90.698, 76.737 91.888, 72.750 93.043 C 63.374 95.761, 58.234 97.947, 57.651 99.466 C 56.640 102.101, 58.909 103.495, 64.212 103.497 C 67.120 103.499, 70.557 104.102, 71.850 104.839 C 74.176 106.164, 74.219 106.545, 72.709 112.507 C 71.730 116.373, 67.090 119.087, 64.676 117.205 C 60.803 114.186, 42.872 112.700, 40.380 115.191 C 38.588 116.983, 39.299 124.670, 41.538 127.705 C 42.802 129.419, 43.147 129.392, 49.181 127.114 C 56.002 124.539, 62.153 123.960, 62.778 125.833 C 62.992 126.475, 63.732 127, 64.423 127 C 65.709 127, 68 131.080, 68 133.369 C 68 134.070, 66.663 136.411, 65.028 138.572 C 63.393 140.732, 62.043 142.956, 62.028 143.513 C 62.013 144.070, 60.988 144.970, 59.750 145.513 C 58.513 146.056, 56.655 148.230, 55.622 150.345 C 53.783 154.112, 53.783 154.227, 55.649 156.093 C 60.217 160.662, 70.053 157.700, 73.656 150.671 C 74.550 148.927, 76.531 145.673, 78.058 143.439 C 79.586 141.206, 81.604 137.029, 82.543 134.157 C 83.511 131.199, 85.130 128.466, 86.278 127.851 C 88.431 126.699, 111.126 126.492, 115.481 127.585 C 118.310 128.295, 118.414 128.986, 116.973 137.500 C 115.486 146.295, 116.682 155.773, 119.655 158.746 C 122.726 161.817, 126.943 161.472, 128.767 158 C 129.767 156.098, 129.925 152.213, 129.428 141.759 L 128.776 128.018 131.138 127.134 C 132.437 126.648, 134.400 126.395, 135.500 126.573 C 136.600 126.751, 139.384 127.200, 141.687 127.571 C 151.281 129.118, 156.135 125.970, 154.023 119.570 C 153.116 116.822, 152.168 116.027, 148.604 115.029 C 143.987 113.736, 139.278 113.859, 137.263 115.324 C 135.171 116.845, 131.001 115.133, 129.929 112.313 C 129.379 110.867, 129.003 106.232, 129.093 102.015 C 129.183 97.798, 128.747 93.396, 128.125 92.233 C 127.172 90.452, 127.344 89.872, 129.219 88.559 C 130.443 87.702, 133.360 87, 135.699 87 C 142.246 87, 143.341 84.613, 142.935 71.227 C 142.756 65.327, 142.562 57.350, 142.505 53.500 C 142.276 38.221, 142.257 38.127, 138.919 36.097 C 136.938 34.892, 132.920 33.990, 127.669 33.571 C 115.480 32.599, 79.173 32.302, 65.500 33.062 M 68.193 44.802 C 64.881 45.308, 63.121 49.549, 65.313 51.742 C 66.782 53.210, 67.793 53.274, 73.741 52.273 C 78.257 51.512, 82.989 51.430, 88 52.023 C 92.125 52.512, 103.037 52.932, 112.250 52.956 L 129 53 129 50.539 C 129 46.917, 124.135 46.020, 107 46.481 C 99.025 46.695, 89.575 46.470, 86 45.979 C 77.343 44.791, 71.006 44.372, 68.193 44.802 M 66.095 67.607 C 63.856 70.453, 64.489 73.173, 67.773 74.821 C 68.723 75.298, 82.502 75.606, 98.394 75.507 C 125.257 75.338, 127.384 75.195, 128.644 73.472 C 132.629 68.022, 128.633 67.083, 100.957 66.963 C 87.990 66.907, 77.784 66.459, 77.458 65.932 C 77.141 65.419, 74.916 65, 72.514 65 C 68.997 65, 67.745 65.508, 66.095 67.607 M 99.992 90.510 C 99.204 91.459, 98.944 93.545, 99.291 96.133 C 100.052 101.808, 99.370 103, 95.361 103 C 91.840 103, 85 105.364, 85 106.581 C 85 108.490, 89.306 113.849, 91.261 114.373 C 92.493 114.703, 97.855 114.979, 103.179 114.986 C 113.856 115.001, 115.962 114.051, 116.046 109.179 C 116.149 103.264, 116.174 93.432, 116.090 92.348 C 115.853 89.304, 102.279 87.754, 99.992 90.510" stroke="none" fill="black" fill-rule="evenodd"/>
</svg>