<svg xmlns="http://www.w3.org/2000/svg" width="256" height="256" viewBox="0 0 256 256" version="1.1">
	<path d="M 124.500 31.038 C 119.550 31.443, 113.037 32.334, 110.026 33.018 C 106.618 33.792, 101.580 34.033, 96.680 33.655 C 82.493 32.561, 78.249 37.911, 86.294 46.745 C 88.036 48.657, 88.187 49.485, 87.311 52.339 C 86.608 54.629, 86.607 57.271, 87.307 60.687 C 88.198 65.038, 88.082 66.026, 86.415 68.311 C 84.339 71.158, 83.311 71.482, 81 70.021 C 79.927 69.343, 79.481 67.198, 79.434 62.485 C 79.369 56.109, 79.231 55.761, 75.156 51.698 L 70.944 47.500 56.722 47.764 C 48.900 47.908, 40.994 48.520, 39.153 49.123 C 33.896 50.845, 32.302 56.907, 32.745 73.500 C 33.487 101.340, 34.432 111.288, 36.635 114.473 C 37.386 115.557, 38 117.241, 38 118.215 C 38 119.874, 40.026 122.763, 44.349 127.270 C 46.260 129.263, 48.281 129.250, 54.658 127.205 C 57.034 126.443, 58.487 126.540, 60.523 127.596 C 62.011 128.368, 65.543 129, 68.373 129 L 73.517 129 75.386 119.250 C 78.497 103.031, 79.375 101.787, 88.605 100.541 C 92.660 99.994, 94.048 100.191, 95.355 101.498 C 97.099 103.242, 97.200 103.571, 97.200 107.500 C 97.200 113.037, 96.903 114.075, 94.561 116.733 C 88.917 123.137, 86.166 126.757, 83.684 131.042 C 82.237 133.540, 79.754 136.545, 78.166 137.719 C 74.056 140.757, 73.025 147.334, 76.139 150.648 C 78.775 153.454, 80.046 153.547, 84.816 151.283 C 89.246 149.181, 91.386 147.108, 93.569 142.803 C 99.907 130.302, 103.313 128.250, 107.959 134.130 C 111.700 138.865, 111.639 144.345, 107.832 145.553 C 106.748 145.897, 105.035 147.539, 104.023 149.202 C 102.195 152.209, 102.198 152.240, 104.758 155.112 C 108.111 158.876, 109.758 158.755, 114.880 154.370 C 121.311 148.866, 125.319 148.784, 138.905 153.876 C 144.957 156.144, 150.845 158, 151.990 158 C 155.773 158, 159.001 155.062, 158.985 151.635 C 158.963 147.217, 158.112 146.309, 152.720 144.951 C 150.105 144.293, 147.722 143.359, 147.424 142.877 C 147.126 142.395, 146.041 142, 145.012 142 C 140.422 142, 138.622 136.166, 141.506 130.636 C 142.328 129.060, 143.010 127.035, 143.022 126.136 C 143.034 125.236, 143.924 123.375, 145 122 C 147.317 119.037, 147.599 112.375, 145.523 109.633 C 143.891 107.480, 140.298 106.978, 124.500 106.696 L 113.500 106.500 113.500 104 C 113.500 101.820, 113.994 101.459, 117.355 101.183 C 119.476 101.009, 121.951 101.160, 122.855 101.519 C 125.645 102.625, 141.281 103.017, 144.477 102.061 C 146.140 101.563, 150.037 100.439, 153.137 99.562 C 159.533 97.755, 160.862 95.567, 158.426 90.857 C 156.969 88.039, 156.896 88.021, 147.729 88.120 C 127.195 88.343, 106.763 87.043, 105.083 85.406 C 104.854 85.183, 106.054 85, 107.750 85 C 109.446 85, 110.992 84.525, 111.185 83.946 C 111.378 83.366, 112.203 82.759, 113.018 82.597 C 113.833 82.435, 115.251 81.975, 116.169 81.575 C 117.686 80.914, 125.768 81.142, 139.750 82.239 C 142.637 82.466, 145 82.231, 145 81.717 C 145 81.204, 146.152 81.072, 147.560 81.426 C 151.561 82.430, 156.844 81.066, 157.549 78.846 C 158.303 76.469, 155.875 72.482, 151.354 68.677 C 147.444 65.386, 147.211 63.451, 150.131 58.502 C 151.881 55.536, 152.151 53.940, 151.638 49.575 C 151.294 46.652, 151.478 42.928, 152.046 41.299 C 153.435 37.312, 151.896 33.515, 148.093 31.548 C 144.900 29.897, 139.788 29.787, 124.500 31.038 M 124.250 45.220 C 121.673 46.463, 121.456 48.425, 123.500 52 C 124.300 53.400, 124.945 57.221, 124.965 60.683 C 124.995 65.970, 125.290 66.957, 127 67.500 C 129.853 68.406, 133 67.164, 133 65.133 C 133 64.180, 133.382 62.972, 133.850 62.450 C 134.317 61.927, 135.723 58.239, 136.974 54.253 C 139.798 45.256, 139.122 43.969, 131.628 44.068 C 128.807 44.105, 125.487 44.624, 124.250 45.220 M 101.500 46.819 C 97.535 47.604, 97.188 48.641, 98.669 55.260 C 101.149 66.344, 102.916 69, 107.812 69 C 111.179 69, 112.171 66.448, 112.467 57.025 C 112.735 48.487, 112.631 47.951, 110.625 47.548 C 106.184 46.656, 103.433 46.436, 101.500 46.819 M 49.750 61.080 C 48.378 61.879, 48 63.452, 48 68.359 C 48 76.142, 49.350 78.198, 54.575 78.370 C 58.122 78.488, 58.664 78.163, 60.201 75 C 63.255 68.718, 63.324 65.415, 60.460 62.551 C 57.753 59.843, 52.995 59.190, 49.750 61.080 M 78.068 79.904 C 75.421 83.622, 75.467 84.605, 78.375 86.510 C 81.769 88.734, 97.544 88.845, 101.557 86.673 C 104.248 85.216, 104.307 85.077, 102.250 85.040 C 101.013 85.018, 100 84.550, 100 84 C 100 83.450, 99.127 83, 98.059 83 C 96.991 83, 95.840 82.550, 95.500 82 C 95.160 81.450, 93.896 80.998, 92.691 80.996 C 91.486 80.994, 89.027 80.094, 87.226 78.996 C 82.747 76.265, 80.501 76.488, 78.068 79.904 M 47.189 91.039 C 45.042 93.038, 44.162 97, 45.863 97 C 46.338 97, 47.530 99.588, 48.512 102.750 C 50.541 109.287, 55.313 116, 57.929 116 C 60.677 116, 62.461 113.173, 65.360 104.223 C 67.574 97.387, 67.835 95.558, 66.857 93.723 C 64.857 89.968, 62.756 89.065, 55.939 89.032 C 50.689 89.006, 48.940 89.408, 47.189 91.039 M 117.170 120.363 L 114.840 121.656 117.539 124.864 C 120.343 128.197, 124.590 130.767, 126.750 130.440 C 127.438 130.335, 128.398 130.194, 128.885 130.125 C 130.527 129.893, 133.110 124.923, 132.534 123.106 C 131.334 119.325, 122.034 117.665, 117.170 120.363" stroke="none" fill="black" fill-rule="evenodd"/>
</svg>