<svg xmlns="http://www.w3.org/2000/svg" width="256" height="256" viewBox="0 0 256 256" version="1.1">
	<path d="M 117.895 30.264 C 116.791 31.494, 114.823 33.850, 113.521 35.500 L 111.153 38.500 101.326 38.244 C 95.922 38.104, 90.472 38.229, 89.215 38.522 C 86.810 39.084, 84.695 43.041, 85.574 45.333 C 86.361 47.382, 93.400 50.998, 96.636 51.015 C 102.360 51.046, 103.162 54.041, 97.797 55.353 C 96.311 55.717, 93.857 57.079, 92.344 58.381 L 89.593 60.747 92.626 63.780 C 94.983 66.137, 96.901 66.969, 101.222 67.508 C 104.281 67.891, 107.766 67.892, 108.966 67.511 C 110.166 67.130, 112.476 67.369, 114.099 68.041 C 116.465 69.021, 116.920 69.684, 116.391 71.382 C 116.028 72.547, 115.229 73.831, 114.615 74.235 C 113.493 74.974, 105.582 75.318, 96.722 75.013 C 93.578 74.905, 90.406 75.593, 87.447 77.026 C 83.875 78.755, 82.651 78.956, 81.501 78.001 C 79.119 76.024, 78.603 70.450, 80.390 65.984 C 82.537 60.616, 82.426 58.294, 79.781 53.300 C 76.436 46.985, 74.821 46.493, 57.584 46.548 C 39.972 46.604, 36.436 47.683, 35.605 53.252 C 35.339 55.039, 34.583 59.969, 33.926 64.210 C 33.168 69.096, 33.041 73.674, 33.577 76.710 C 34.042 79.344, 34.441 88.475, 34.464 97 C 34.509 113.977, 35.181 118.485, 38.564 124.500 L 40.814 128.500 48.157 128.424 C 52.196 128.382, 57.855 127.983, 60.732 127.537 C 64.565 126.943, 66.385 127.074, 67.536 128.029 C 69.392 129.570, 77.624 129.776, 79.081 128.319 C 79.670 127.730, 80.257 119.151, 80.479 107.902 C 80.689 97.231, 81.166 87.713, 81.538 86.750 C 82.406 84.502, 83.685 84.546, 88.764 87 C 91.041 88.100, 93.713 89.007, 94.702 89.015 C 96.131 89.027, 96.214 89.212, 95.103 89.915 C 94.335 90.401, 93.598 92.425, 93.465 94.413 C 93.332 96.401, 92.669 98.693, 91.993 99.508 C 90.493 101.316, 90.473 108.147, 91.961 110.927 C 92.559 112.044, 92.817 113.981, 92.535 115.229 C 91.621 119.265, 90.955 123.390, 90.392 128.500 C 90.089 131.250, 89.184 136.650, 88.381 140.500 C 87.134 146.479, 87.121 148.075, 88.291 151.442 C 90.018 156.410, 91.988 157.742, 95.688 156.441 C 98.114 155.588, 98.682 154.577, 100.013 148.743 C 102.291 138.756, 102.528 138.623, 119.172 138.016 C 133.063 137.509, 139 138.366, 139 140.880 C 139 142.516, 135.972 145, 133.978 145 C 129.257 145, 129.608 151.382, 134.622 156.698 C 137.615 159.871, 138.388 160.199, 141.636 159.672 C 143.644 159.346, 146.390 158.049, 147.738 156.790 C 153.294 151.601, 153.960 147.831, 154.418 119 L 154.679 102.500 151.604 97.210 C 149.877 94.240, 147.607 91.689, 146.427 91.392 C 145.271 91.102, 136.265 90.724, 126.413 90.552 C 103.250 90.148, 104.662 90.277, 106.132 88.704 C 106.798 87.991, 108.478 87.314, 109.865 87.199 C 111.253 87.084, 112.744 86.430, 113.179 85.745 C 113.809 84.753, 113.972 84.754, 113.985 85.750 C 113.993 86.438, 114.900 87, 116 87 C 117.100 87, 118 87.467, 118 88.038 C 118 88.664, 120.181 88.962, 123.500 88.789 C 126.525 88.631, 129 88.117, 129 87.647 C 129 87.177, 131.813 87.091, 135.250 87.456 C 150.001 89.022, 152.901 89.104, 156.782 88.059 C 161.371 86.823, 162.667 84.558, 160.946 80.780 C 158.899 76.288, 154.454 74.605, 143.500 74.177 C 136.334 73.897, 133.004 73.348, 131.750 72.238 C 130.787 71.387, 130 70.354, 130 69.943 C 130 68.727, 135.134 67.348, 140.500 67.121 C 147.555 66.824, 148.374 66.640, 151.350 64.690 C 154.673 62.513, 154.725 59.635, 151.500 56.409 C 150.125 55.034, 149.016 53.592, 149.037 53.205 C 149.057 52.817, 151.082 51.227, 153.537 49.672 C 159.342 45.993, 159.743 42.254, 154.626 39.498 C 151.547 37.840, 150.464 37.789, 142.205 38.918 C 131.604 40.367, 130.220 39.911, 126.829 33.855 C 123.822 28.484, 120.638 27.205, 117.895 30.264 M 131.553 51.915 C 131.231 52.436, 131.394 53.125, 131.915 53.447 C 132.436 53.769, 133.125 53.606, 133.447 53.085 C 133.769 52.564, 133.606 51.875, 133.085 51.553 C 132.564 51.231, 131.875 51.394, 131.553 51.915 M 51.816 60.140 C 49.093 61.137, 48.812 61.821, 47.478 70.675 C 46.964 74.092, 47.226 75.226, 48.925 76.925 C 51.521 79.521, 57.196 79.662, 61.925 77.248 C 64.871 75.744, 65.550 74.681, 66.783 69.636 C 68.929 60.866, 67.763 58.976, 60.271 59.079 C 57.097 59.122, 53.292 59.600, 51.816 60.140 M 57 90 C 56.175 90.533, 54.498 90.976, 53.273 90.985 C 49.418 91.011, 47.780 94.923, 48.591 102.165 C 49.404 109.420, 51.060 112.547, 54.553 113.424 C 55.899 113.762, 57 114.459, 57 114.974 C 57 115.488, 58.614 116.212, 60.587 116.582 C 65.643 117.531, 66.851 115.860, 68.508 105.622 C 70.005 96.375, 69.473 92.842, 66.211 90.363 C 64.189 88.827, 59.124 88.628, 57 90 M 109.250 104.153 C 106.683 105.468, 106.586 105.873, 108.301 108.125 C 109.343 109.494, 111.767 109.745, 123.629 109.715 C 136.653 109.682, 137.814 109.527, 138.978 107.663 C 140.917 104.558, 137.780 102.668, 132 103.458 C 126.302 104.237, 126.783 104.234, 118.500 103.566 C 114.084 103.209, 110.669 103.426, 109.250 104.153 M 108.292 122.451 C 107.345 123.528, 107.365 124.058, 108.384 124.904 C 109.099 125.497, 109.885 125.782, 110.130 125.537 C 110.375 125.292, 112.246 124.979, 114.288 124.841 C 116.621 124.684, 118 124.088, 118 123.237 C 118 122.492, 117.581 122.141, 117.069 122.457 C 116.557 122.774, 115.856 122.575, 115.510 122.016 C 114.601 120.545, 109.708 120.840, 108.292 122.451 M 129.250 122.220 C 128.012 122.817, 127 123.634, 127 124.036 C 127 125.834, 138.389 126.798, 139.444 125.090 C 139.753 124.590, 139.732 123.465, 139.396 122.590 C 138.684 120.734, 132.779 120.518, 129.250 122.220" stroke="none" fill="black" fill-rule="evenodd"/>
</svg>