<svg xmlns="http://www.w3.org/2000/svg" width="256" height="256" viewBox="0 0 256 256" version="1.1">
	<path d="M 87.913 31.933 C 84.948 34.898, 84.838 35.297, 85.473 40.771 C 86.225 47.249, 85.082 51.351, 82.074 52.960 C 80.368 53.873, 79.419 53.470, 75.993 50.375 L 71.934 46.708 59.717 46.515 C 39.290 46.194, 36.338 47.650, 35.437 58.500 C 35.117 62.350, 34.454 66.759, 33.963 68.299 C 33.393 70.085, 33.498 72.977, 34.254 76.299 C 34.973 79.459, 35.311 87.279, 35.116 96.223 C 34.820 109.816, 34.968 111.303, 37.046 115.596 C 38.284 118.153, 40.918 121.753, 42.899 123.596 C 46.995 127.407, 50.236 127.816, 56.500 125.315 C 64.738 122.026, 90.281 123.425, 95 127.425 C 95.825 128.124, 97.294 128.978, 98.265 129.322 C 100.868 130.246, 101.805 133.676, 102.230 143.834 C 102.573 152.056, 102.874 153.229, 105.343 156.001 L 108.076 159.068 124.288 159.080 C 133.205 159.086, 142.404 159.128, 144.732 159.172 C 147.060 159.217, 149.985 158.585, 151.232 157.767 C 153.461 156.307, 153.499 155.953, 153.467 137.027 L 153.433 117.773 148.268 112.974 C 142.335 107.461, 142.524 107.195, 153 106.300 C 160.075 105.695, 163 104.631, 163 102.662 C 163 101.083, 157.173 92.958, 154.775 91.193 C 152.515 89.530, 152.527 86.889, 154.813 82.210 C 156.774 78.199, 156.818 77.726, 155.578 74.077 C 154.199 70.015, 152.925 69.202, 149.793 70.384 C 148.257 70.964, 147 71.943, 147 72.559 C 147 74.211, 142.439 75.999, 138.203 76.008 C 133.800 76.017, 121.008 71.020, 121.003 69.289 C 120.995 66.307, 139.207 64.323, 146.436 66.518 L 151.372 68.016 155.186 64.047 C 158.798 60.288, 158.997 59.743, 158.949 53.789 C 158.870 44.167, 157.536 34.136, 156.150 32.748 C 154.296 30.890, 119.200 29.019, 105.500 30.048 C 102.200 30.296, 97.592 30.123, 95.259 29.663 C 91.330 28.889, 90.791 29.055, 87.913 31.933 M 99.750 43.080 C 97.410 44.443, 97.531 48.531, 99.985 50.985 C 101.637 52.637, 102.380 52.784, 104.408 51.860 C 107.931 50.255, 108.746 46.022, 105.966 43.771 C 103.485 41.762, 102.249 41.625, 99.750 43.080 M 137 43.990 C 135.669 44.842, 135.672 45.262, 137.031 47.725 C 139.133 51.534, 144.169 52.120, 145.711 48.736 C 147.260 45.334, 145.622 42.997, 141.700 43.015 C 139.940 43.024, 137.825 43.462, 137 43.990 M 118.556 44.910 C 117.755 46.206, 118.902 48.748, 120.577 49.391 C 122.492 50.126, 124.716 49.182, 125.426 47.332 C 126.298 45.061, 125.207 44, 122 44 C 120.415 44, 118.865 44.409, 118.556 44.910 M 55.096 58.529 C 50.352 60.162, 49 62.484, 49 69 C 49 75.645, 50.271 77.654, 55.013 78.504 C 57.951 79.031, 58.921 78.713, 60.944 76.559 C 65.306 71.917, 67.560 61.539, 64.719 59.182 C 62.711 57.515, 58.811 57.251, 55.096 58.529 M 81.857 65.143 C 79.777 67.223, 79.870 66.757, 79.469 77 C 79.149 85.156, 80.287 89.661, 82.858 90.415 C 83.761 90.680, 88.033 91.372, 92.352 91.953 C 96.671 92.533, 100.528 93.208, 100.923 93.452 C 101.318 93.697, 103.087 93.017, 104.853 91.943 C 107.600 90.273, 107.910 89.701, 106.997 87.995 C 106.410 86.898, 106.283 85.970, 106.715 85.933 C 108.245 85.803, 98.467 83.030, 96.424 83.015 C 95.283 83.007, 93.328 81.913, 92.080 80.585 C 87.947 76.186, 91.929 71.201, 98.579 72.449 C 100.904 72.885, 102.730 72.568, 104.474 71.425 C 107.179 69.653, 107.889 65.693, 105.750 64.309 C 105.063 63.864, 99.823 63.452, 94.107 63.393 C 85.224 63.301, 83.445 63.555, 81.857 65.143 M 53.716 87.701 C 51.085 88.972, 48.644 90.765, 48.291 91.685 C 47.527 93.674, 50.691 106.587, 52.691 109.647 C 55.051 113.256, 61.253 117.008, 63.770 116.350 C 66.194 115.716, 66.628 114.479, 67.400 106 C 67.676 102.975, 68.207 98.814, 68.581 96.754 C 69.203 93.325, 68.945 92.719, 65.535 89.596 C 60.672 85.141, 59.426 84.942, 53.716 87.701 M 121.197 88 C 121.026 90.240, 121.416 91.040, 122.734 91.157 C 128.760 91.691, 130.203 91.567, 131.763 90.383 C 132.941 89.488, 133.075 89.053, 132.179 89.032 C 130.084 88.981, 127.740 86.273, 129.259 85.659 C 129.942 85.384, 128.458 85.122, 125.963 85.079 C 121.619 85.003, 121.416 85.128, 121.197 88 M 83.500 102.684 C 80.790 103.426, 80.033 104.836, 80.015 109.183 C 80.003 112.125, 80.453 113.013, 82.250 113.600 C 85.542 114.674, 92.661 114.058, 95.785 112.428 C 97.278 111.650, 99.041 111.010, 99.703 111.006 C 102.063 110.994, 105.912 108.694, 106.223 107.111 C 106.630 105.037, 102.587 102.915, 98.595 103.107 C 96.893 103.189, 93.250 103.004, 90.500 102.697 C 87.750 102.389, 84.600 102.384, 83.500 102.684 M 134.681 108.443 C 132.931 109.769, 132.935 109.845, 134.790 110.433 C 137.291 111.227, 140 110.166, 140 108.393 C 140 106.620, 137.048 106.648, 134.681 108.443 M 115.604 123.155 C 113.265 126.495, 115.142 129, 119.985 129 C 125.073 129, 126.588 126.691, 123.689 123.358 C 121.132 120.416, 117.585 120.327, 115.604 123.155 M 130.200 124.200 C 127.839 126.561, 128.891 128.651, 133.073 129.904 C 136.214 130.845, 137.472 130.853, 138.573 129.940 C 140.314 128.495, 140.420 125.820, 138.800 124.200 C 137.250 122.650, 131.750 122.650, 130.200 124.200 M 131.500 139 C 130.400 139.473, 127.206 139.891, 124.403 139.930 C 115.215 140.056, 111.424 146.522, 119.505 148.283 C 124.565 149.386, 136.525 148.639, 138.375 147.104 C 140.588 145.267, 140.934 141.251, 139.028 139.525 C 137.180 137.853, 134.589 137.673, 131.500 139" stroke="none" fill="black" fill-rule="evenodd"/>
</svg>