<svg xmlns="http://www.w3.org/2000/svg" width="256" height="256" viewBox="0 0 256 256" version="1.1">
	<path d="M 63.275 28.841 C 57.645 29.355, 55.547 30.003, 53.775 31.778 C 51.548 34.009, 51.507 34.438, 51.839 52.278 C 52.152 69.104, 52.338 70.672, 54.263 72.750 C 55.798 74.406, 57.475 75, 60.615 75 C 62.962 75, 65.149 74.567, 65.476 74.038 C 65.857 73.422, 66.981 73.422, 68.601 74.038 C 69.992 74.567, 74.257 75, 78.079 75 C 83.950 75, 85.962 75.464, 89.893 77.726 C 90.108 77.850, 89.716 78.638, 89.020 79.476 C 87.991 80.715, 88.012 81.007, 89.128 81.040 C 89.882 81.062, 89.375 81.670, 88 82.390 C 86.027 83.424, 80.967 83.540, 64 82.938 L 42.500 82.176 40.255 84.838 C 37.489 88.118, 37.424 90.543, 39.989 94.750 C 42.278 98.504, 42.385 98.525, 48.650 96.398 C 52.011 95.256, 55.260 94.960, 59.935 95.367 C 68.704 96.130, 74.283 97.072, 75.500 97.996 C 76.050 98.413, 78.075 98.597, 80 98.403 C 92.317 97.164, 104.001 97.095, 104.015 98.260 C 104.025 99.074, 104.364 98.984, 105 98 C 105.646 97, 105.974 96.917, 105.985 97.750 C 105.993 98.438, 106.337 98.947, 106.750 98.882 C 108.452 98.613, 110 99.050, 110 99.800 C 110 100.881, 107.171 101.091, 88.500 101.394 C 66.484 101.751, 61.560 103.879, 62.065 112.818 C 62.179 114.843, 61.761 117.767, 61.136 119.315 C 59.566 123.206, 59.715 127.122, 61.578 130.855 C 63.843 135.397, 62.655 139.483, 58.184 142.521 C 56.177 143.884, 53.261 145, 51.702 145 C 47.584 145, 45 146.717, 45 149.453 C 45 154.143, 45.759 154.779, 50.302 153.900 C 52.611 153.453, 56.880 153.068, 59.790 153.044 C 68.346 152.973, 77 147.199, 77 141.561 C 77 138.300, 82.966 133, 86.637 133 C 90.053 133, 91.534 135.232, 92.618 142.015 C 93.186 145.563, 92.922 146.271, 90.019 148.982 C 88.242 150.642, 85.991 152, 85.017 152 C 84.042 152, 82.685 152.675, 82 153.500 C 77.651 158.741, 95.833 163.773, 102 159.035 C 104.289 157.276, 104.511 156.414, 104.627 148.807 C 104.749 140.873, 105.254 137.016, 106.419 135.130 C 107.108 134.016, 111.657 134.882, 112.884 136.361 C 113.952 137.647, 114 137.885, 114 141.889 C 114 146.076, 116.802 148.781, 122.500 150.094 C 125.250 150.727, 130.264 152.346, 133.642 153.690 C 137.466 155.211, 141.241 156.014, 143.642 155.817 C 147.204 155.524, 147.524 155.245, 147.818 152.183 C 148.081 149.451, 147.494 148.259, 144.497 145.433 C 142.495 143.545, 139.999 142, 138.949 142 C 135.544 142, 129.091 138.864, 128.470 136.907 C 127.585 134.116, 128.707 131.495, 131.406 130.050 C 135.108 128.069, 136.311 124.502, 134.475 120.952 C 133.635 119.328, 132.510 118, 131.974 118 C 130.333 118, 130.890 115.110, 132.923 113.077 C 133.980 112.020, 134.740 110.557, 134.612 109.827 C 133.824 105.356, 132.657 103.981, 128.690 102.846 C 126.385 102.186, 124.162 101.726, 123.750 101.823 C 123.338 101.921, 123 101.630, 123 101.177 C 123 100.725, 120.750 100.448, 118 100.562 C 115.250 100.677, 113 100.372, 113 99.885 C 113 99.398, 113.787 98.955, 114.750 98.901 C 115.713 98.846, 117.850 98.586, 119.500 98.322 C 121.150 98.058, 127.675 97.625, 134 97.359 C 151.730 96.613, 155.038 95.274, 153.573 89.436 C 153.110 87.591, 151.478 86.203, 147.727 84.465 C 142.776 82.171, 141.843 82.082, 128.512 82.626 C 120.805 82.941, 114.275 83.207, 114 83.217 C 109.903 83.376, 106.882 82.632, 105 81 C 103.732 79.900, 102.313 79, 101.847 79 C 101.381 79, 101 78.550, 101 78 C 101 77.450, 101.873 77, 102.941 77 C 104.009 77, 105.160 76.550, 105.500 76 C 105.864 75.411, 111.828 75, 120.012 75 C 133.363 75, 138.293 74.153, 140.264 71.520 C 140.684 70.959, 140.769 66, 140.452 60.500 C 140.136 55, 139.771 47.007, 139.640 42.737 C 139.356 33.448, 138.581 32.423, 130.414 30.525 C 123.723 28.970, 75.210 27.754, 63.275 28.841 M 65.919 42.081 C 63.916 44.084, 63.907 44.212, 65.669 45.525 C 67.100 46.590, 70.560 46.766, 81.500 46.333 C 89.200 46.027, 101.328 46.259, 108.452 46.847 C 118.374 47.665, 121.974 47.633, 123.841 46.708 C 127.039 45.123, 126.879 43.941, 123.199 41.967 C 120.788 40.674, 118.894 40.507, 113.838 41.141 C 104.374 42.328, 90.396 42.314, 82.500 41.108 C 71.876 39.486, 68.304 39.696, 65.919 42.081 M 66.579 58.564 C 65.656 59.487, 65.041 60.976, 65.214 61.871 C 65.487 63.288, 67.735 63.532, 82.514 63.744 C 91.856 63.879, 100.175 64.034, 101 64.090 C 104.605 64.333, 121.216 63.117, 121.763 62.570 C 123.900 60.433, 118.603 59.703, 98.315 59.338 C 76.254 58.941, 72.808 58.723, 69.879 57.540 C 68.940 57.161, 67.551 57.592, 66.579 58.564 M 100.657 113.676 C 100.285 114.048, 93.798 114.417, 86.240 114.496 C 67.229 114.694, 64.449 115.877, 73.406 119.957 C 77.765 121.943, 80.387 121.980, 91.500 120.216 C 94.250 119.779, 98.075 119.832, 100 120.332 C 104.423 121.482, 118.642 120.619, 122.171 118.986 C 125.648 117.378, 124.810 115.319, 120.151 114.025 C 116.057 112.888, 101.702 112.631, 100.657 113.676" stroke="none" fill="black" fill-rule="evenodd"/>
</svg>