<svg xmlns="http://www.w3.org/2000/svg" width="256" height="256" viewBox="0 0 256 256" version="1.1">
	<path d="M 83.885 30.448 C 83.620 30.714, 78.249 30.995, 71.951 31.074 C 65.653 31.152, 58.930 31.731, 57.012 32.358 C 52.473 33.844, 50.449 37.771, 51.902 42.278 C 52.473 44.050, 52.958 50.225, 52.980 56 C 53.039 71.236, 53.470 73.925, 56.316 76.770 C 58.232 78.686, 60.035 79.327, 64.152 79.556 C 67.093 79.720, 72.650 80.127, 76.500 80.462 C 80.350 80.797, 88 81.262, 93.500 81.495 C 99 81.728, 103.950 81.970, 104.500 82.033 C 108.078 82.443, 133.890 80.838, 136.942 80.015 C 139.445 79.342, 141.069 78.143, 141.874 76.378 C 143.358 73.120, 143.261 39.667, 141.758 36.367 C 140.418 33.427, 137.094 32.261, 128 31.541 C 117.233 30.688, 84.457 29.876, 83.885 30.448 M 66.044 44.356 C 65.470 44.930, 65 45.969, 65 46.665 C 65 49.512, 69.076 50.123, 84.799 49.631 C 93.434 49.361, 105.011 49.628, 110.524 50.224 C 122.098 51.475, 127.504 50.795, 129.057 47.893 C 131.399 43.518, 129.984 43.313, 97.551 43.313 C 77.724 43.313, 66.723 43.677, 66.044 44.356 M 66.773 63.773 C 65.949 64.766, 65.919 65.647, 66.669 66.834 C 67.549 68.227, 69.672 68.516, 79.611 68.596 C 86.150 68.649, 93.652 69.216, 96.281 69.857 C 98.911 70.498, 102.061 70.814, 103.281 70.560 C 104.502 70.305, 108.377 69.830, 111.894 69.504 C 115.410 69.179, 119.121 68.328, 120.140 67.615 C 121.900 66.382, 121.870 66.262, 119.536 65.198 C 115.736 63.467, 109.145 62.938, 87.716 62.647 C 71.767 62.430, 67.707 62.649, 66.773 63.773 M 50 86.210 C 42.393 87.186, 39.983 89.277, 40.032 94.861 C 40.091 101.641, 43.874 103.668, 50.283 100.354 C 54.825 98.005, 65.301 98.361, 71.430 101.072 C 74.782 102.555, 77.171 102.992, 79.363 102.525 C 81.088 102.158, 84.568 101.625, 87.095 101.342 C 91.522 100.847, 91.749 100.951, 93.289 104.197 C 95.449 108.748, 97.309 127.464, 96.040 131.873 C 94.649 136.704, 92.244 140, 90.109 140 C 88.458 140, 76.128 128.040, 75.913 126.231 C 75.866 125.829, 75.662 122.229, 75.461 118.232 C 75.260 114.234, 74.833 110.539, 74.513 110.020 C 73.570 108.495, 67.378 107.727, 65.241 108.871 C 64.158 109.451, 62.009 112.530, 60.465 115.713 C 58.922 118.896, 57.373 121.725, 57.023 122 C 56.673 122.275, 55.795 123.963, 55.072 125.750 C 54.349 127.537, 53.474 129.005, 53.129 129.010 C 51.608 129.035, 41.876 139.323, 40.123 142.758 C 38.403 146.131, 38.340 146.904, 39.553 149.789 C 42.093 155.829, 46.211 155.067, 55.080 146.917 C 58.061 144.177, 61.775 141.244, 63.333 140.399 C 66.071 138.914, 66.322 138.983, 70.759 142.440 C 75.741 146.321, 79.587 147.665, 87.823 148.401 C 90.751 148.663, 93.676 149.312, 94.323 149.843 C 94.970 150.374, 98.200 152.315, 101.500 154.155 L 107.500 157.500 122.081 157.327 C 146.946 157.031, 157 154.753, 157 149.414 C 157 147.524, 155.888 146.550, 151.374 144.485 C 145.872 141.968, 145.422 141.927, 131.068 142.595 C 118.089 143.199, 115.949 143.069, 112.585 141.473 L 108.780 139.668 109.236 134.168 C 109.856 126.696, 111.979 125.014, 120.861 124.959 C 136.751 124.861, 139.762 124.527, 141.859 122.629 C 143.746 120.920, 143.802 120.517, 142.503 118.006 C 141.050 115.196, 138.546 114.038, 133.872 114.014 C 132.427 114.006, 129.597 113.312, 127.584 112.471 C 125.104 111.434, 122.404 111.138, 119.212 111.553 C 115.243 112.068, 114.136 111.822, 112.194 109.991 C 109.375 107.334, 109.689 104.916, 113.064 103.298 C 115.360 102.197, 121.560 101.966, 143.185 102.174 C 152.192 102.261, 158.747 96.257, 154.355 91.943 C 151.411 89.052, 127.496 87.015, 114 88.506 C 107.640 89.209, 77.593 89.231, 72.500 88.537 C 69.750 88.162, 66.375 87.458, 65 86.972 C 60.920 85.531, 56.886 85.326, 50 86.210" stroke="none" fill="black" fill-rule="evenodd"/>
</svg>