<svg xmlns="http://www.w3.org/2000/svg" width="256" height="256" viewBox="0 0 256 256" version="1.1">
	<path d="M 88.231 31.117 C 71.583 31.488, 56.854 32.071, 55.499 32.411 C 52.739 33.104, 49.502 38.400, 50.690 40.279 C 51.115 40.951, 51.500 48.925, 51.545 58 C 51.674 83.436, 52.827 84.856, 73.550 85.072 C 84.463 85.186, 85.450 85.359, 87.644 87.553 C 89.581 89.490, 89.899 90.591, 89.422 93.706 C 88.422 100.245, 87.669 100.520, 74.795 99.050 C 62.615 97.659, 42.774 96.260, 42.064 96.742 C 41.824 96.905, 41.724 99.167, 41.842 101.769 C 42.142 108.415, 44.209 109.927, 52.797 109.785 C 57.447 109.708, 60.851 110.268, 63.912 111.614 L 68.324 113.554 68.679 124.527 C 69.193 140.423, 69.200 140.347, 67.008 142.160 C 65.206 143.650, 64.467 143.677, 59.751 142.422 C 56.863 141.653, 53.015 141.018, 51.200 141.012 C 44.686 140.988, 39.927 145.407, 40.773 150.693 C 41.470 155.044, 44.942 155.311, 101.640 155.363 C 159.718 155.416, 158 155.592, 158 149.607 C 158 146.926, 157.369 146.121, 153.750 144.187 C 150.071 142.220, 147.793 141.880, 136.801 141.659 C 125.936 141.439, 123.798 141.127, 121.994 139.495 C 119.563 137.295, 119.966 133.767, 123.023 130.490 C 124.404 129.009, 124.977 126.643, 125.199 121.500 C 125.475 115.104, 125.718 114.415, 128.100 113.277 C 129.531 112.593, 133.764 111.600, 137.509 111.070 C 141.253 110.540, 144.688 109.520, 145.143 108.803 C 146.407 106.810, 146.101 103.718, 144.420 101.500 C 143.003 99.630, 141.732 99.500, 124.874 99.500 C 108.181 99.500, 106.738 99.356, 105.422 97.559 C 103.943 95.540, 103.559 91.312, 104.607 88.582 C 105.123 87.238, 107.490 86.995, 120.357 86.968 C 130.676 86.947, 136.009 86.548, 137.096 85.718 C 140.961 82.769, 141.708 78.950, 142.381 58.720 C 143.229 33.201, 142.963 32.615, 130 31.485 C 125.875 31.126, 121.600 30.744, 120.500 30.636 C 119.400 30.529, 104.879 30.745, 88.231 31.117 M 66.682 43.823 C 64.748 44.195, 63.297 48.697, 64.669 50.069 C 65.723 51.123, 121.946 52.390, 126.202 51.456 C 128.471 50.957, 129 50.300, 129 47.980 C 129 46.406, 128.442 44.773, 127.760 44.352 C 126.586 43.626, 70.243 43.138, 66.682 43.823 M 69.354 63.696 C 64.207 64.693, 62.364 71.637, 66.741 73.546 C 69.672 74.825, 101.679 75.247, 114.947 74.182 C 124.903 73.383, 127.651 72.831, 128.680 71.423 C 130.273 69.245, 129.034 67.496, 125.219 66.539 C 123.724 66.164, 111.700 65.512, 98.500 65.091 C 85.300 64.670, 73.825 64.090, 73 63.803 C 72.175 63.516, 70.534 63.468, 69.354 63.696 M 88.376 111.026 C 83.368 112.574, 82.528 114.398, 82.216 124.404 C 82.060 129.407, 81.835 135.525, 81.716 138 L 81.500 142.500 92.171 142.500 C 101.963 142.500, 103.046 142.309, 105.315 140.175 C 107.134 138.466, 107.970 136.349, 108.474 132.175 C 108.851 129.054, 110.024 125.012, 111.080 123.193 C 114.104 117.983, 113.607 115.709, 108.858 113.040 C 104.204 110.425, 93.673 109.389, 88.376 111.026" stroke="none" fill="black" fill-rule="evenodd"/>
</svg>