<svg xmlns="http://www.w3.org/2000/svg" width="256" height="256" viewBox="0 0 256 256" version="1.1">
	<path d="M 86.121 29.750 C 81.045 37.608, 81.516 37.358, 73.590 36.402 C 69.691 35.932, 62.823 35.536, 58.329 35.523 C 51.039 35.503, 49.879 35.762, 47.579 37.924 C 44.143 41.154, 44.322 42.418, 48.587 45.054 C 51.573 46.899, 54.245 47.380, 64.551 47.928 C 75.730 48.521, 77.175 48.815, 79.464 50.967 C 80.859 52.277, 82 53.633, 82 53.982 C 82 54.862, 68.608 58.249, 64.124 58.502 C 59.473 58.765, 56.098 60.819, 55.328 63.857 C 54.507 67.093, 56.329 67.964, 63.500 67.765 C 73.972 67.475, 77.932 72.362, 72.477 78.845 C 68.922 83.070, 62.673 84.268, 51.789 82.812 C 41.842 81.481, 38.752 82.054, 37.172 85.522 C 36.142 87.782, 36.309 88.400, 38.563 90.653 C 40.903 92.994, 41.595 93.156, 46.584 92.533 C 54.191 91.582, 58 92.548, 58 95.426 C 58 97.999, 55.570 103.308, 53.729 104.757 C 53.053 105.289, 51.284 106.014, 49.797 106.369 C 48.311 106.724, 45.869 108.069, 44.370 109.358 C 42.139 111.277, 41.631 112.569, 41.572 116.473 C 41.522 119.803, 41.981 121.552, 43.095 122.268 C 45.228 123.640, 49.662 122.429, 51.783 119.894 C 53.994 117.252, 58.730 114.755, 59.418 115.868 C 59.711 116.341, 61.372 120.502, 63.109 125.114 C 65.806 132.273, 66.310 135.057, 66.552 144.141 C 66.972 159.878, 69.568 163.507, 77.596 159.580 C 79.627 158.586, 84.709 158.112, 94.500 158.003 C 102.200 157.918, 110.300 157.812, 112.500 157.768 C 114.700 157.724, 117.850 158.277, 119.500 158.998 C 124.026 160.974, 124.664 160.962, 126.919 158.861 C 128.862 157.051, 129 155.844, 129 140.695 C 129 126.672, 129.257 123.996, 130.892 120.984 C 132.614 117.814, 133.131 117.529, 136.642 117.817 C 147.689 118.725, 148.483 118.622, 148.820 116.250 C 149.032 114.755, 148.624 114, 147.605 114 C 146.761 114, 145.567 113.060, 144.953 111.912 C 143.128 108.502, 136.874 102, 135.419 102 C 133.798 102, 131.684 98.348, 131.542 95.302 C 131.340 91.006, 136.197 90.256, 149.295 92.561 C 153.615 93.322, 157.102 91.128, 156.505 88.026 C 155.345 82.003, 150.082 79.447, 140.610 80.307 C 137.250 80.612, 129.325 80.509, 123 80.079 C 116.018 79.603, 109.022 79.692, 105.192 80.305 C 94.700 81.985, 89.091 77.766, 94.553 72.304 C 95.901 70.957, 98.505 70.616, 108.357 70.500 C 123.205 70.325, 137.069 69.067, 138.750 67.741 C 140.472 66.383, 140.315 64.611, 138.248 62.058 C 135.905 59.164, 122.074 56.059, 111.375 56.026 C 101.501 55.994, 97 55.183, 97 53.434 C 97 51.221, 98.628 50.867, 110.272 50.545 C 123.896 50.169, 137.098 48.540, 140.780 46.781 C 144.176 45.158, 144.728 41.969, 142.035 39.532 C 139.718 37.435, 129.193 36.191, 112.750 36.071 C 102.124 35.994, 102.471 36.155, 96.707 28.641 C 92.734 23.460, 89.998 23.747, 86.121 29.750 M 85.493 94.356 C 83.297 94.866, 80.712 95.825, 79.749 96.486 C 78.089 97.627, 78.095 97.776, 79.854 99.367 C 82.472 101.737, 101.685 103.254, 108.500 101.630 C 109.600 101.368, 110.805 101.119, 111.179 101.077 C 111.552 101.034, 112.589 100.268, 113.484 99.373 C 114.986 97.871, 114.935 97.559, 112.813 95.301 C 110.618 92.965, 110.041 92.868, 100.001 93.141 C 94.218 93.299, 87.689 93.846, 85.493 94.356 M 85.500 114.123 C 78.459 116.525, 77.958 117.017, 79.505 120.009 C 80.420 121.779, 82.023 122.955, 84.082 123.366 C 89.748 124.500, 102.517 124.036, 107.654 122.510 C 113.093 120.895, 116.999 117.599, 115.385 115.985 C 112.887 113.487, 91.305 112.142, 85.500 114.123 M 85 137.929 C 81.545 138.831, 81.167 142.408, 84.309 144.467 C 87.707 146.693, 100.365 146.866, 105 144.748 C 106.925 143.869, 109.963 142.855, 111.750 142.495 C 113.584 142.126, 115 141.222, 115 140.421 C 115 139.639, 115.001 138.687, 115.003 138.304 C 115.008 137.404, 88.287 137.070, 85 137.929" stroke="none" fill="black" fill-rule="evenodd"/>
</svg>