<svg xmlns="http://www.w3.org/2000/svg" width="256" height="256" viewBox="0 0 256 256" version="1.1">
	<path d="M 100.308 31.173 C 99.103 31.767, 97.887 32.759, 97.606 33.377 C 97.325 33.995, 95.605 38.100, 93.783 42.500 C 87.309 58.139, 82.930 63.057, 78.806 59.324 C 77.201 57.872, 76.982 56.769, 77.519 52.864 C 78.100 48.638, 77.921 47.995, 75.779 46.591 C 74.003 45.427, 72.599 45.255, 70.289 45.917 C 68.583 46.406, 61.857 46.768, 55.343 46.721 C 42.729 46.630, 37.077 48.119, 34.949 52.095 C 32.584 56.515, 31.795 78.118, 33.863 81.837 C 34.835 83.584, 35.026 87.698, 34.619 98.150 C 34.136 110.580, 34.300 112.728, 36.110 117.563 C 37.228 120.553, 38.449 123.001, 38.822 123.001 C 39.195 123.002, 40.817 124.135, 42.426 125.519 C 45.080 127.801, 46.103 128.018, 53.426 127.854 C 57.867 127.754, 64.213 128.024, 67.529 128.455 C 72.346 129.081, 73.805 128.939, 74.793 127.749 C 75.513 126.882, 76.229 121.992, 76.509 116.044 C 76.773 110.425, 77.200 105.485, 77.459 105.067 C 77.717 104.648, 78.201 98.949, 78.533 92.403 C 79.011 82.980, 79.483 80.234, 80.799 79.221 C 83.233 77.348, 85.300 78.128, 86.875 81.512 C 89.095 86.282, 90.757 87.678, 98.844 91.569 C 105.704 94.869, 107.074 95.188, 112.529 94.750 C 119.774 94.168, 125 91.754, 125 88.989 C 125 87.795, 123.365 85.947, 120.819 84.264 C 116.937 81.698, 115.899 81.499, 106.340 81.486 C 98.120 81.474, 95.710 81.138, 94.394 79.822 C 91.964 77.392, 93.352 71.829, 97.482 67.451 L 100.883 63.844 108.692 64.361 C 125.568 65.480, 140.309 67.095, 142.028 68.015 C 145.344 69.790, 146.970 77.495, 146.984 91.500 C 146.992 98.650, 147.095 106.525, 147.214 109 C 147.333 111.475, 146.702 116.875, 145.813 121 C 144.923 125.125, 143.903 130.606, 143.547 133.180 C 142.811 138.492, 138.601 143.791, 133.312 146.064 C 131.558 146.817, 129.603 148.574, 128.968 149.967 C 127.906 152.294, 128.155 152.805, 132.035 156.250 C 135.165 159.030, 137.142 160, 139.678 160 C 147.330 160, 152.985 154.059, 153.002 146 C 153.008 143.525, 153.652 140.274, 154.434 138.775 C 157.119 133.628, 158.358 120.563, 159.582 84.500 C 159.918 74.600, 160.402 66.161, 160.657 65.747 C 161.669 64.106, 159.617 55.617, 157.759 53.759 C 155.750 51.750, 154.383 51.728, 139 53.452 C 133.119 54.111, 115.317 52.119, 111.708 50.398 C 107.308 48.299, 106.089 45.139, 108.405 41.832 C 110.310 39.113, 110.502 33.661, 108.744 32.203 C 106.701 30.507, 102.659 30.013, 100.308 31.173 M 53.269 58.940 C 50.941 59.319, 48.705 59.962, 48.298 60.368 C 47.892 60.775, 47.385 64.185, 47.173 67.947 C 46.836 73.906, 47.063 75.063, 48.931 76.931 C 50.677 78.677, 51.768 78.951, 54.788 78.405 C 61.703 77.153, 64.421 74.865, 65.068 69.754 C 65.086 69.615, 65.541 67.537, 66.080 65.139 C 67.653 58.141, 65.264 56.985, 53.269 58.940 M 48.540 90.955 C 47.282 92.346, 46.932 93.862, 47.330 96.205 C 49.647 109.861, 50.926 112.216, 56.692 113.450 C 59.603 114.073, 60.095 113.798, 62.295 110.317 C 63.621 108.217, 65.514 103.702, 66.502 100.282 C 68.633 92.902, 68.074 91.760, 61.527 90.111 C 54.875 88.436, 50.567 88.716, 48.540 90.955 M 89.013 112.969 C 86.955 117.937, 88.571 121.296, 93.520 122.339 C 95.709 122.801, 100.005 123.813, 103.066 124.589 C 110.285 126.419, 122.107 126.400, 126.532 124.551 C 132.931 121.877, 129.944 116.603, 121.424 115.532 C 119.237 115.258, 113.860 114.111, 109.474 112.984 C 105.088 111.857, 98.990 110.669, 95.923 110.343 C 90.379 109.755, 90.338 109.770, 89.013 112.969" stroke="none" fill="black" fill-rule="evenodd"/>
</svg>