<svg xmlns="http://www.w3.org/2000/svg" width="256" height="256" viewBox="0 0 256 256" version="1.1">
	<path d="M 67.656 30.884 C 58.389 31.479, 57.667 31.686, 55.314 34.421 C 53.263 36.806, 52.957 37.879, 53.608 40.413 C 54.043 42.111, 54.480 47.325, 54.577 52 C 54.829 64.123, 55.786 74.088, 57.044 77.697 C 58.477 81.808, 61.386 82.840, 73.347 83.477 C 78.763 83.766, 83.611 84.260, 84.121 84.575 C 84.630 84.890, 96.614 85.154, 110.751 85.161 L 136.454 85.176 139.227 82.072 L 142 78.968 142 58.023 C 142 33.072, 142.357 33.854, 130.181 32.145 C 120.757 30.823, 81.084 30.023, 67.656 30.884 M 68.250 43.719 C 66.723 44.266, 66.596 47.632, 68.068 48.542 C 68.655 48.905, 73.043 49.349, 77.818 49.529 C 127.665 51.408, 126.151 51.455, 128.014 47.974 C 129.972 44.315, 126.347 43.793, 97.108 43.524 C 81.924 43.385, 68.938 43.472, 68.250 43.719 M 70 62.785 C 67.888 63.510, 67.033 65.070, 67.015 68.231 C 67.004 70.238, 67.596 71.109, 69.250 71.519 C 74.108 72.720, 123.017 74.452, 126.640 73.550 C 129.194 72.914, 130.444 70.239, 129 68.500 C 127.244 66.384, 117.240 65.034, 99.500 64.518 C 90.150 64.246, 80.700 63.741, 78.500 63.394 C 76.300 63.048, 73.825 62.653, 73 62.517 C 72.175 62.381, 70.825 62.502, 70 62.785 M 52.224 90.656 C 42.805 93.894, 47.802 99.157, 61.500 100.427 C 65.350 100.784, 72.631 102.040, 77.680 103.218 C 84.995 104.925, 86.967 105.766, 87.382 107.355 C 88.663 112.250, 87.673 112.480, 64.497 112.686 C 49.563 112.819, 42.408 113.246, 41.425 114.062 C 39.623 115.558, 39.645 118.947, 41.472 121.360 C 42.692 122.970, 44.561 123.256, 55.395 123.491 C 65.580 123.713, 68.523 124.120, 71.205 125.680 C 78.255 129.783, 74.467 137.110, 62.280 142.939 C 58.551 144.723, 53.479 147.154, 51.008 148.341 C 43.516 151.942, 42.297 154.909, 46.368 159.641 C 48.727 162.384, 48.760 162.390, 55.118 161.202 C 68.510 158.701, 68.743 158.565, 80.645 146.312 C 90.428 136.240, 92.276 134.773, 95.768 134.304 C 99.503 133.803, 100.016 134.062, 104.124 138.521 C 112.366 147.469, 130.703 158, 138.042 158 C 139.506 158, 142.233 156.963, 144.102 155.694 C 146.977 153.744, 147.466 152.859, 147.279 149.944 C 146.853 143.302, 147.235 143.649, 138 141.515 C 120.307 137.428, 118.999 136.896, 116.688 132.849 C 115.485 130.740, 113.825 128.971, 113 128.918 C 112.175 128.864, 113.075 128.375, 115 127.832 C 116.925 127.288, 118.927 126.429, 119.450 125.922 C 120.581 124.824, 136.233 124.824, 143.970 125.922 C 146.978 126.349, 150.226 126.492, 151.187 126.241 C 155.039 125.233, 154.106 118.241, 149.798 115.841 C 148.402 115.064, 143.573 114.520, 137.500 114.457 C 117.271 114.247, 103.193 112.871, 101.438 110.932 C 100.429 109.816, 100.067 108.364, 100.477 107.072 C 101.079 105.175, 101.911 104.999, 110.317 104.992 C 125.430 104.980, 140.056 104.040, 142.090 102.952 C 146.756 100.455, 142.584 93.972, 135.329 92.446 C 134.685 92.311, 120.510 91.923, 103.829 91.584 C 87.148 91.245, 70.962 90.514, 67.859 89.960 C 61.289 88.785, 57.126 88.971, 52.224 90.656" stroke="none" fill="black" fill-rule="evenodd"/>
</svg>