<svg xmlns="http://www.w3.org/2000/svg" width="256" height="256" viewBox="0 0 256 256" version="1.1">
	<path d="M 142 28.721 C 140.625 28.927, 137.250 29.937, 134.500 30.966 C 131.750 31.995, 126.986 33.058, 123.912 33.329 C 120.839 33.600, 116.598 34.747, 114.488 35.878 C 112.378 37.009, 108.235 38.475, 105.281 39.136 C 98.200 40.721, 94.038 45.170, 93.917 51.285 C 93.871 53.603, 93.666 56.400, 93.462 57.500 C 91.939 65.700, 91.881 72.864, 93.302 77.013 C 94.359 80.099, 94.701 83.842, 94.398 89 C 93.177 109.745, 92.067 121.756, 91.149 124.140 C 90.591 125.592, 89.819 132.150, 89.435 138.714 L 88.737 150.648 91.475 152.802 C 95.078 155.636, 98.064 155.048, 100.404 151.046 C 103.173 146.308, 104.128 141.143, 105.034 126 C 105.478 118.575, 106.263 110.608, 106.778 108.295 C 107.293 105.982, 107.518 101.932, 107.277 99.295 C 106.959 95.825, 107.426 93.187, 108.966 89.750 L 111.094 85 119.797 85.032 C 125.650 85.053, 129.103 85.520, 130.340 86.458 C 132.256 87.909, 132.263 88.911, 130.455 102.500 C 129.989 105.999, 130.312 109.293, 131.530 113.473 C 132.762 117.698, 133.338 123.696, 133.499 133.973 C 133.625 141.963, 134.081 149.400, 134.513 150.500 C 136.697 156.064, 143.107 158.986, 145.857 155.672 C 146.983 154.315, 146.690 121.926, 145.534 120.056 C 144.774 118.826, 144.756 88.800, 145.514 86.824 C 145.846 85.959, 147.889 84.452, 150.055 83.475 C 154.640 81.408, 159 76.173, 159 72.736 C 159 68.991, 155.307 67.590, 147.537 68.386 C 143.930 68.756, 139.857 69.484, 138.487 70.005 C 135.694 71.067, 132.743 71.227, 118.856 71.070 C 112.558 70.998, 108.862 70.534, 108.202 69.730 C 107.647 69.054, 106.910 66.025, 106.565 63 C 105.723 55.625, 107.220 52.887, 113.022 51.191 C 115.485 50.471, 120.425 48.387, 124 46.559 C 127.575 44.731, 133.543 42.681, 137.262 42.002 C 144.519 40.679, 149 37.999, 149 34.983 C 149 31.980, 144.876 28.291, 142 28.721 M 49 46.013 C 41.069 46.830, 36.651 48.138, 35.491 50.014 C 34.331 51.892, 34.084 74.161, 35.170 79 C 35.725 81.475, 36.314 89.575, 36.478 97 C 36.877 114.999, 39.143 123.195, 44.963 127.686 C 46.709 129.033, 52.269 128.580, 61.768 126.317 C 67.760 124.890, 68.193 124.916, 71.575 126.912 C 73.647 128.134, 76.853 129, 79.307 129.001 L 83.500 129.002 83.589 120.751 C 83.986 83.806, 83.893 54.924, 83.367 52 C 82.146 45.215, 81.452 44.661, 75.146 45.432 C 72.041 45.811, 69.050 46.165, 68.500 46.217 C 67.950 46.270, 65.025 46.072, 62 45.777 C 58.975 45.483, 53.125 45.589, 49 46.013 M 60.500 58 C 59.400 58.473, 56.868 58.891, 54.872 58.930 C 50.045 59.023, 48.818 60.798, 48.645 67.940 C 48.454 75.801, 49.456 76.680, 59.241 77.237 C 68.716 77.777, 69.494 77.123, 70.455 67.819 C 71.317 59.464, 70.218 56.972, 65.715 57.070 C 63.947 57.109, 61.600 57.527, 60.500 58 M 64.500 88.055 C 63.400 88.498, 60.207 88.891, 57.405 88.930 C 53.608 88.982, 51.840 89.519, 50.465 91.039 C 48.670 93.022, 48.671 93.287, 50.482 100.560 C 51.507 104.675, 52.942 108.537, 53.673 109.143 C 54.403 109.749, 55 110.816, 55 111.514 C 55 112.212, 56.233 113.093, 57.740 113.471 C 59.247 113.849, 60.709 114.504, 60.990 114.925 C 61.270 115.347, 62.719 115.990, 64.210 116.355 C 67.619 117.189, 68.051 116.399, 71.046 103.841 C 73.224 94.711, 73.258 94.043, 71.675 91.626 C 69.497 88.302, 66.990 87.054, 64.500 88.055" stroke="none" fill="black" fill-rule="evenodd"/>
</svg>