<svg xmlns="http://www.w3.org/2000/svg" width="256" height="256" viewBox="0 0 256 256" version="1.1">
	<path d="M 65.087 32.964 C 59.148 33.925, 55.487 37.988, 56.573 42.413 C 57.524 46.291, 57.422 49.785, 56.115 58 C 55.391 62.556, 55.405 66.294, 56.162 70.500 C 56.757 73.800, 57.343 77.625, 57.465 79 C 57.587 80.375, 57.757 82.217, 57.843 83.094 C 57.930 83.971, 59.886 86.555, 62.190 88.837 C 64.495 91.119, 66.473 93.552, 66.585 94.243 C 66.698 94.934, 66.890 95.950, 67.013 96.500 C 67.795 99.996, 66.548 101.191, 57.750 105.377 C 44.230 111.810, 41 115.307, 41 123.508 C 41 126.696, 43.720 130, 46.345 130 C 47.128 130, 53.221 123.945, 60.855 115.580 C 63.617 112.554, 69.231 112.073, 72.780 114.558 C 74.693 115.898, 74.915 116.705, 74.365 120.308 C 73.737 124.427, 72.358 128.014, 71.024 129 C 70.653 129.275, 69.229 131.169, 67.860 133.208 C 66.492 135.248, 63.039 139.424, 60.186 142.489 C 54.127 148.999, 53.129 153.492, 57.500 154.589 C 58.875 154.934, 61.078 154.946, 62.395 154.616 C 65.524 153.830, 83.456 136.532, 85.905 131.937 C 86.949 129.978, 89.310 126.815, 91.152 124.908 C 92.993 123.002, 95.175 120.470, 96 119.282 C 98.120 116.228, 101.135 116.002, 102.558 118.792 C 104.424 122.453, 102.551 129.308, 96.306 141.672 C 91.244 151.693, 90.759 153.177, 91.802 155.465 C 92.445 156.875, 94.060 158.526, 95.391 159.132 C 99.268 160.899, 101.888 158.424, 111.019 144.374 C 114.046 139.716, 115 137.248, 115 134.074 C 115 131.779, 115.636 128.670, 116.414 127.166 C 117.192 125.662, 118.122 122.868, 118.480 120.958 C 119.456 115.753, 124.323 113.822, 130.785 116.075 C 133.812 117.130, 133.859 117.249, 133.412 122.658 C 133.162 125.688, 132.250 129.817, 131.386 131.833 C 130.522 133.850, 129.588 136.841, 129.311 138.481 C 128.637 142.469, 125.721 146.392, 121.482 149.011 C 119.567 150.195, 118 151.540, 118 152 C 118 152.460, 117.754 153.478, 117.453 154.262 C 117.152 155.046, 118.233 157.108, 119.854 158.844 C 122.332 161.497, 123.533 162, 127.381 162 C 129.899 162, 133.804 161.262, 136.058 160.360 C 140.405 158.621, 142 156.074, 142 150.873 C 142 148.015, 143.339 142.900, 146.679 133 C 148.364 128.006, 150.238 111.458, 149.420 108.800 C 149.132 107.864, 147.306 106.116, 145.362 104.914 C 141.971 102.819, 140.695 102.722, 114.163 102.547 C 86.103 102.362, 82 101.848, 82 98.522 C 82 97.747, 82.953 96.446, 84.118 95.630 C 85.906 94.378, 90.115 94.231, 111.075 94.687 C 131.670 95.136, 136.156 94.987, 137.328 93.815 C 139.622 91.521, 142.135 86.027, 141.420 84.870 C 141.056 84.281, 140.586 74.565, 140.376 63.279 C 140.123 49.665, 139.575 41.893, 138.747 40.184 C 136.670 35.894, 128.431 34.026, 107 32.987 C 85.668 31.953, 71.385 31.946, 65.087 32.964 M 71 46.221 C 68.190 47.710, 67.040 53.138, 69.027 55.532 C 70.623 57.455, 120.969 57.661, 124.018 55.756 C 126.341 54.306, 126.549 52.133, 124.616 49.490 C 123.429 47.866, 121.337 47.499, 109.866 46.900 C 102.515 46.516, 91.325 45.908, 85 45.549 C 76.335 45.057, 72.884 45.222, 71 46.221 M 70.364 70.126 C 68.383 71.126, 66 74.884, 66 77.008 C 66 77.511, 66.864 78.727, 67.921 79.711 C 69.670 81.340, 72.304 81.500, 97.312 81.500 C 122.450 81.500, 124.953 81.346, 126.793 79.684 C 127.899 78.685, 128.657 77.110, 128.478 76.184 C 128.299 75.258, 128.119 74.211, 128.077 73.857 C 127.874 72.154, 122.877 71.538, 103.500 70.827 C 91.950 70.404, 80.250 69.831, 77.500 69.553 C 74.750 69.276, 71.539 69.534, 70.364 70.126" stroke="none" fill="black" fill-rule="evenodd"/>
</svg>