<svg xmlns="http://www.w3.org/2000/svg" width="256" height="256" viewBox="0 0 256 256" version="1.1">
	<path d="M 55.818 29.250 C 53.859 31.996, 53.537 33.558, 53.738 39.324 C 54.148 51.111, 50.715 54.286, 41.654 50.500 C 35.812 48.059, 34 48.466, 34 52.218 C 34 55.483, 37.819 60, 40.579 60 C 42.707 60, 47.743 64.840, 48.420 67.535 C 49.135 70.387, 46.472 77, 44.608 77 C 42.930 77, 40.290 80.371, 40.791 81.874 C 41.805 84.915, 38.734 91.924, 35.391 94.201 C 33.533 95.465, 32.011 97.166, 32.007 97.981 C 32.003 98.795, 31.024 101.816, 29.831 104.695 C 27.691 109.857, 27.686 110.014, 29.432 116.214 C 31.940 125.121, 32.780 127, 34.256 127 C 37.158 127, 40.382 120.210, 41.379 112 C 42.852 99.870, 44.337 96.627, 48.169 97.170 C 50.593 97.513, 50.999 98.759, 52.672 111 C 53.325 115.779, 53.419 135.726, 52.845 147.673 C 52.556 153.685, 52.832 155.291, 54.550 157.596 C 57.407 161.428, 59.273 162.399, 62.309 161.637 C 66.545 160.574, 67.279 155.601, 66.580 132.678 C 66.246 121.726, 65.767 112.432, 65.515 112.025 C 65.106 111.363, 64.252 104.814, 63.490 96.500 C 63.339 94.850, 63.897 92.729, 64.729 91.787 C 66.146 90.183, 66.600 90.272, 71.871 93.187 C 74.967 94.899, 77.650 96.682, 77.833 97.150 C 78.017 97.617, 78.831 98, 79.642 98 C 80.454 98, 80.859 97.581, 80.543 97.069 C 80.226 96.557, 80.425 95.856, 80.984 95.510 C 83.620 93.881, 80.217 74.107, 76.616 70.128 C 75.727 69.146, 75 67.628, 75 66.755 C 75 65.881, 74.438 64.940, 73.750 64.662 C 73.063 64.385, 73.651 64.122, 75.059 64.079 C 79.068 63.955, 81.325 61.740, 81.220 58.031 C 81.086 53.314, 77.863 50.372, 71.972 49.591 C 68.936 49.188, 66.707 48.300, 66.126 47.260 C 65.609 46.337, 65.435 42.287, 65.740 38.261 C 66.245 31.574, 66.093 30.727, 63.972 28.470 C 60.848 25.145, 58.592 25.361, 55.818 29.250 M 115.659 31.054 C 113.028 33.123, 110.920 38.687, 111.092 43.109 C 111.253 47.273, 109.444 51.457, 106.930 52.735 C 105.594 53.415, 102.174 53.977, 99.332 53.985 C 96.489 53.993, 93.435 54.280, 92.545 54.621 C 89.748 55.695, 87.742 60.836, 88.546 64.871 C 88.944 66.867, 89.380 69.625, 89.515 71 C 89.651 72.375, 90.278 75.688, 90.910 78.361 C 91.650 81.492, 91.794 86.121, 91.315 91.361 C 90.906 95.838, 90.667 100.850, 90.785 102.500 C 90.902 104.150, 91.185 110.700, 91.412 117.055 C 91.640 123.410, 92.315 131.255, 92.913 134.488 C 93.511 137.722, 94 142.906, 94 146.009 C 94 150.614, 94.426 152.051, 96.314 153.826 C 99.031 156.378, 101.418 156.552, 105.376 154.488 C 109.922 152.117, 116.014 151.807, 150.850 152.174 C 152.143 152.188, 153.628 151.772, 154.149 151.251 C 154.975 150.425, 158.972 131.109, 159.168 127 C 159.207 126.175, 158.650 119.425, 157.930 112 C 156.406 96.290, 156.390 95.173, 157.393 75.962 L 158.152 61.425 155.326 58.597 C 152.627 55.897, 152.229 55.804, 146.500 56.546 C 130.603 58.603, 122 55.749, 122 48.416 C 122 46.616, 122.568 44.548, 123.263 43.821 C 125.458 41.525, 128 37.126, 128 35.624 C 128 33.721, 122.340 29, 120.058 29 C 119.075 29, 117.095 29.924, 115.659 31.054 M 131.645 70.474 C 127.929 72.450, 126.477 72.752, 124.431 71.974 C 120.682 70.548, 108.705 70.764, 106.612 72.295 C 105.162 73.354, 104.850 75.052, 104.893 81.643 C 104.953 90.770, 105.448 92.690, 107.943 93.482 C 108.910 93.789, 116.055 94.219, 123.821 94.437 C 136.747 94.801, 138.154 94.667, 140.470 92.845 C 142.898 90.935, 143 90.419, 143 80.034 C 143 71.090, 142.726 69.109, 141.418 68.607 C 138.606 67.528, 136.389 67.951, 131.645 70.474 M 129 106.067 C 126.525 106.498, 120.824 106.885, 116.332 106.926 C 111.839 106.967, 107.435 107.280, 106.545 107.621 C 104.095 108.561, 102.202 113.111, 103.059 116 C 103.467 117.375, 103.845 121.470, 103.900 125.101 C 104.089 137.578, 106.260 139.904, 118.503 140.748 C 123.761 141.111, 127.529 140.686, 133.619 139.042 C 144.233 136.178, 145.498 134.555, 146.227 122.860 C 146.885 112.298, 146.369 109.267, 143.622 107.557 C 140.736 105.761, 134.436 105.118, 129 106.067" stroke="none" fill="black" fill-rule="evenodd"/>
</svg>