<svg xmlns="http://www.w3.org/2000/svg" width="256" height="256" viewBox="0 0 256 256" version="1.1">
	<path d="M 92.291 26.250 C 91.160 27.488, 89.498 29.956, 88.599 31.736 C 86.668 35.556, 83.711 36.534, 78.384 35.114 C 75.861 34.441, 73.098 34.406, 70.500 35.015 C 68.300 35.531, 62 35.970, 56.500 35.991 C 45.098 36.035, 41.656 37.208, 41.190 41.211 C 40.748 45, 44.063 46.746, 52 46.906 C 60.346 47.075, 69.652 48.875, 71.082 50.598 C 71.926 51.616, 71.683 52.777, 70.081 55.368 C 67.619 59.353, 65.749 60.652, 57.279 64.264 C 48.573 67.978, 41 73.799, 41 76.779 C 41 79.922, 42.734 83, 44.505 83 C 45.294 83, 47.626 82.053, 49.687 80.895 C 51.749 79.737, 58.175 77.267, 63.968 75.406 C 76.134 71.498, 80.666 69.008, 82 65.500 C 82.664 63.753, 83.704 63, 85.452 63 C 88.322 63, 90.251 65.532, 92.040 71.643 C 93.620 77.042, 97.072 81, 100.200 81 C 101.557 81, 102.714 80.438, 102.772 79.750 C 103.121 75.594, 105.203 70.256, 107.061 68.750 C 109.664 66.642, 111.524 66.568, 116.624 68.369 C 121.997 70.266, 143.170 80.112, 145 81.564 C 145.825 82.218, 148.212 83.359, 150.305 84.098 C 154.794 85.683, 155.920 84.714, 155.487 79.639 C 155.340 77.913, 155.170 75.937, 155.110 75.248 C 154.869 72.498, 138.611 62.595, 132.409 61.422 C 129.163 60.808, 119.941 54.387, 119.244 52.256 C 118.603 50.297, 123.734 48.871, 133.500 48.293 C 138.450 48.001, 143.400 47.780, 144.500 47.803 C 149.373 47.905, 152.916 46.840, 153.466 45.106 C 154.370 42.260, 153.121 40.243, 149.670 38.975 C 145.955 37.609, 128.335 35.784, 115.500 35.435 C 103.513 35.110, 104 35.185, 104 33.650 C 104 31.308, 98.069 24, 96.168 24 C 95.167 24, 93.423 25.012, 92.291 26.250 M 97 84.773 C 93.359 87.275, 93.072 87.285, 79.932 85.350 C 75.651 84.720, 68.711 86.431, 66.473 88.670 C 64.726 90.417, 65.222 94.901, 67.303 96.187 C 70.222 97.991, 81.665 99.084, 86.438 98.014 C 90.452 97.114, 91.905 97.201, 94.657 98.507 C 96.496 99.380, 98 100.547, 98 101.100 C 98 103.100, 93.110 109.241, 89.639 111.599 C 86.406 113.796, 84.951 114.033, 73.295 114.255 C 61.576 114.479, 60.180 114.311, 56.693 112.250 C 52.493 109.768, 47.784 109.316, 46.259 111.250 C 44.605 113.347, 43.984 120.350, 45.299 122.075 C 47.281 124.675, 51.369 126.807, 53.500 126.352 C 57.570 125.483, 67.103 126.052, 72.644 127.495 C 75.784 128.313, 80.785 128.926, 83.757 128.858 C 90.086 128.712, 91.823 129.988, 92.118 135 C 92.643 143.952, 90.829 145.959, 82.190 145.986 L 77.879 146 78.190 149.651 C 78.645 155.012, 82.292 157.357, 90.782 157.747 C 96.291 158.001, 97.907 157.705, 99.764 156.107 C 103.133 153.205, 105.950 146.155, 106 140.500 C 106.052 134.569, 109.015 127.447, 111.798 126.564 C 112.889 126.218, 121.593 126.049, 131.141 126.189 C 140.688 126.329, 149.512 126.088, 150.750 125.654 C 152.373 125.085, 153 124.070, 153 122.014 C 153 118.128, 147.847 115.026, 137.510 112.689 C 124.830 109.822, 121.288 109.581, 118.516 111.398 C 115.243 113.542, 114.514 113.433, 112.601 110.513 C 111.088 108.204, 111.097 107.760, 112.736 104.287 C 114.267 101.041, 115.412 100.215, 121.418 98.024 C 125.223 96.636, 128.532 94.911, 128.771 94.192 C 129.736 91.286, 122.370 86.014, 117.300 85.983 C 115.760 85.973, 111.350 85.156, 107.500 84.166 L 100.500 82.367 97 84.773" stroke="none" fill="black" fill-rule="evenodd"/>
</svg>