<svg xmlns="http://www.w3.org/2000/svg" width="256" height="256" viewBox="0 0 256 256" version="1.1">
	<path d="M 90.464 29.415 C 89.247 31.271, 89.034 33.180, 89.542 37.668 C 90.582 46.864, 90.360 46.959, 66.742 47.447 C 45.388 47.888, 41.599 48.763, 40.403 53.531 C 39.160 58.482, 40.823 59, 57.967 59 C 71.929 59, 73.875 59.205, 75.345 60.829 C 77.490 63.199, 77.432 64.249, 75.075 65.721 C 74.016 66.383, 71.478 70.105, 69.435 73.992 C 65.660 81.176, 57.651 89.115, 50.601 92.663 C 42.060 96.962, 38.484 104.124, 43.223 107.443 C 46.282 109.586, 49.040 109.399, 55.313 106.625 C 62.196 103.581, 69.965 95.888, 77.906 84.255 C 83.626 75.876, 84.371 75.371, 87.058 78.058 C 89.063 80.063, 89.183 80.816, 88.457 86.875 C 87.393 95.757, 87.479 98.327, 88.961 101.906 C 90.312 105.167, 92.860 106.497, 95.908 105.529 C 98.390 104.741, 98.952 103.116, 100.047 93.558 C 100.547 89.189, 101.582 84.990, 102.346 84.225 C 103.111 83.461, 105.566 82.659, 107.804 82.444 C 113.730 81.873, 121.314 85.723, 128.126 92.759 C 139.023 104.015, 147.588 107.493, 153.305 102.982 C 156.596 100.385, 156.692 96.155, 153.497 94.523 C 152.395 93.960, 148.795 91.849, 145.497 89.831 C 142.199 87.813, 138.150 85.839, 136.500 85.445 C 133.448 84.716, 117.767 73.874, 110.500 67.469 L 106.500 63.943 109.500 61.476 C 112.407 59.086, 112.988 59.010, 128.250 59.005 C 142.663 59, 144.170 58.830, 146 57 C 150.648 52.352, 147.447 49.713, 136.098 48.835 C 131.369 48.469, 123.225 47.879, 118 47.523 C 102.032 46.435, 101 45.830, 101 37.563 C 101 28.573, 94.373 23.448, 90.464 29.415 M 130.410 119.685 C 129.226 119.918, 127.382 121.853, 126.160 124.143 C 123.493 129.138, 123.486 129, 126.416 129 C 127.961 129, 130.213 130.488, 132.666 133.128 C 134.775 135.399, 139.069 138.942, 142.210 141.002 C 145.350 143.062, 147.689 144.978, 147.407 145.260 C 146.473 146.194, 152.229 150, 154.576 150 C 157.833 150, 158.416 148.416, 156.036 146.036 C 154.916 144.916, 154 142.914, 154 141.586 C 154 139.030, 148.736 127.772, 146.077 124.644 C 142.514 120.450, 136.377 118.508, 130.410 119.685 M 43.027 125.971 C 37.920 131.438, 36.041 146.917, 40.045 150.540 C 41.169 151.558, 42.950 152.522, 44.003 152.683 C 46.548 153.071, 50.392 147.931, 53.514 139.965 C 56.752 131.702, 58.475 129.213, 61.225 128.823 L 63.500 128.500 60.795 125.750 C 58.427 123.342, 57.327 123, 51.947 123 C 46.423 123, 45.522 123.300, 43.027 125.971 M 77.597 123.731 C 72.893 124.430, 71.725 126.266, 72.992 130.970 C 73.587 133.181, 74.765 135.555, 75.608 136.245 C 76.451 136.935, 77.897 138.377, 78.820 139.450 C 83.745 145.166, 86.316 147.035, 88.383 146.401 C 91.218 145.531, 91.250 145.486, 91.250 142.352 C 91.250 140.798, 90.359 138.900, 89.184 137.948 C 87.191 136.334, 87.178 136.155, 88.809 132.887 C 90.326 129.849, 90.984 129.469, 95.197 129.197 L 99.895 128.895 101.047 133.197 C 102.132 137.252, 104.771 142.893, 106.100 144 C 106.430 144.275, 107.234 145.512, 107.885 146.750 C 109.292 149.420, 111.925 149.607, 116.293 147.348 C 119.131 145.881, 119.271 145.621, 117.547 145.016 C 115.710 144.372, 115.723 144.306, 117.804 143.762 C 120.570 143.038, 120.711 139.611, 118.051 137.748 C 116.473 136.643, 116.186 135.523, 116.543 131.872 C 116.892 128.317, 116.555 126.899, 114.954 125.181 C 112.588 122.641, 107.775 122.342, 104 124.500 C 100.681 126.397, 88.319 126.397, 85 124.500 C 83.625 123.714, 82.050 123.122, 81.500 123.185 C 80.950 123.248, 79.194 123.494, 77.597 123.731" stroke="none" fill="black" fill-rule="evenodd"/>
</svg>