<svg xmlns="http://www.w3.org/2000/svg" width="256" height="256" viewBox="0 0 256 256" version="1.1">
	<path d="M 60.009 28.491 C 57.870 30.767, 57.686 31.768, 57.870 40.112 C 58.025 47.152, 57.695 49.816, 56.428 51.750 C 54.893 54.093, 54.384 54.222, 48.689 53.706 C 41.242 53.030, 37 55.295, 37 59.946 C 37 63.674, 38.632 64.846, 45.638 66.146 C 48.862 66.745, 52.522 67.626, 53.770 68.105 C 56.148 69.017, 58.662 73.913, 57.268 74.917 C 56.823 75.238, 55.941 76.681, 55.309 78.124 C 54.506 79.953, 53.128 80.941, 50.758 81.386 C 46.845 82.120, 43.289 86.270, 42.315 91.241 C 41.535 95.219, 38.932 100.571, 33.921 108.500 L 30.129 114.500 30.839 122.609 C 31.377 128.749, 32.135 131.574, 33.963 134.242 C 36.035 137.265, 36.577 137.566, 37.780 136.363 C 38.552 135.591, 39.299 134.407, 39.440 133.730 C 39.582 133.054, 39.972 131.825, 40.307 131 C 40.641 130.175, 41.633 126.645, 42.509 123.155 C 45.282 112.120, 50.326 100.196, 52.588 99.328 C 54.507 98.592, 56.875 100.665, 56.547 102.794 C 56.402 103.732, 56.649 104.739, 57.096 105.031 C 58.368 105.861, 60.201 135.646, 59.496 144 C 59.004 149.828, 59.234 152.392, 60.527 155.500 C 64.841 165.866, 71.163 165.924, 72.674 155.612 C 72.925 153.900, 73.638 150.700, 74.258 148.500 C 75.660 143.530, 75.598 142.892, 73 135.500 C 71.221 130.437, 70.984 128.094, 71.479 120.500 C 71.802 115.550, 71.686 108.225, 71.221 104.222 C 70.396 97.117, 70.432 96.930, 72.706 96.359 C 73.987 96.038, 77.026 96.430, 79.461 97.231 C 81.994 98.065, 84.445 98.334, 85.193 97.859 C 86.138 97.260, 85.946 97.025, 84.500 97.009 C 82.915 96.992, 83.123 96.665, 85.500 95.431 C 90.246 92.970, 90.428 92.442, 88.182 87.664 C 86.826 84.779, 85.031 82.739, 83.096 81.882 C 81.451 81.154, 79.846 79.522, 79.528 78.254 C 79.209 76.986, 78.026 75.026, 76.897 73.897 C 73.389 70.389, 75.098 69, 82.922 69 C 95.597 69, 97.154 66.705, 90.225 58.236 C 86.324 53.469, 83.907 52.525, 77.459 53.252 C 74.795 53.552, 72.682 53.303, 72.144 52.625 C 71.653 52.006, 71.002 46.621, 70.697 40.658 C 70.273 32.352, 69.740 29.370, 68.417 27.908 C 66.049 25.292, 62.803 25.516, 60.009 28.491 M 120.520 30.623 C 119.151 31.992, 119.003 33.684, 119.573 41.455 C 119.997 47.226, 119.862 51.389, 119.213 52.602 C 118.641 53.672, 116.208 55.064, 113.776 55.715 C 108.056 57.245, 99.589 63.086, 99.189 65.778 C 98.986 67.142, 99.769 68.458, 101.429 69.545 C 103.618 70.980, 104.852 71.064, 110.110 70.137 C 116.890 68.943, 120 69.816, 120 72.913 C 120 75.682, 117.546 80.977, 114.005 85.849 C 112.266 88.241, 109.983 92.207, 108.930 94.663 C 107.877 97.120, 104.483 102.115, 101.386 105.765 L 95.757 112.400 96.346 118.033 C 97.084 125.102, 97.728 126.779, 99.977 127.493 C 104.222 128.840, 111.015 122.046, 112.470 115 C 113.229 111.322, 116.920 105.018, 118.321 105.007 C 120.028 104.993, 122.270 108.230, 122.684 111.306 C 123.320 116.029, 124.092 130.835, 123.972 136 C 123.915 138.475, 123.785 143.373, 123.684 146.886 C 123.515 152.755, 123.718 153.434, 126.193 155.288 C 128.705 157.170, 129.049 157.198, 131.332 155.702 C 136.363 152.405, 138.119 141.661, 135.861 127.986 C 134.348 118.827, 135.707 115, 140.472 115 C 143.261 115, 144.120 115.674, 146.772 119.940 C 149.256 123.937, 150.622 125.090, 153.917 125.978 C 162.848 128.382, 165.082 121.981, 158.462 112.953 C 156.628 110.453, 153.862 107.760, 152.314 106.971 C 150.766 106.181, 148.626 104.511, 147.558 103.260 C 145.712 101.098, 142.046 91.078, 142.015 88.110 C 141.989 85.718, 137.707 78, 136.406 78 C 135.724 78, 134.940 77.438, 134.662 76.750 C 134.259 75.750, 134.142 75.750, 134.079 76.750 C 134.036 77.438, 133.073 78, 131.941 78 C 130.809 78, 130.160 77.550, 130.500 77 C 130.840 76.450, 130.641 76, 130.059 76 C 129.477 76, 129 75.325, 129 74.500 C 129 73.528, 130.056 72.956, 132 72.875 C 135.814 72.716, 136.251 72.628, 137.663 71.729 C 138.303 71.322, 142.598 70.607, 147.208 70.140 C 156.806 69.167, 160.191 67.802, 159.372 65.235 C 157.220 58.490, 155.311 57.372, 144.306 56.413 C 134.360 55.547, 133 54.837, 133 50.514 C 133 47.556, 132.338 43.347, 130.452 34.320 C 129.424 29.397, 123.829 27.314, 120.520 30.623 M 129.813 85.683 C 130.534 85.972, 131.397 85.936, 131.729 85.604 C 132.061 85.272, 131.471 85.036, 130.417 85.079 C 129.252 85.127, 129.015 85.364, 129.813 85.683" stroke="none" fill="black" fill-rule="evenodd"/>
</svg>