<svg xmlns="http://www.w3.org/2000/svg" width="256" height="256" viewBox="0 0 256 256" version="1.1">
	<path d="M 56.071 27.089 C 53.967 28.840, 53.549 30.277, 52.954 37.806 C 52.576 42.588, 51.933 47.288, 51.526 48.250 C 50.529 50.608, 46.315 50.493, 40.371 47.945 C 36.370 46.230, 35.197 46.092, 33.288 47.114 C 27.709 50.099, 33.918 59, 41.579 59 C 42.946 59, 45.625 59.652, 47.532 60.449 L 51 61.898 50.985 68.699 C 50.976 72.440, 50.639 75.966, 50.235 76.536 C 49.831 77.106, 47.700 77.711, 45.500 77.880 C 40.726 78.246, 39.036 79.421, 39.689 81.920 C 40.315 84.312, 37.768 89.171, 33.165 94.364 C 31.149 96.639, 28.713 99.919, 27.750 101.654 C 24.215 108.026, 26.559 118, 31.591 118 C 37.035 118, 40.144 114.274, 41.368 106.283 C 42.417 99.425, 43.926 97, 47.141 97 C 49.414 97, 50.072 97.534, 50.530 99.750 C 50.843 101.263, 51.533 104.075, 52.064 106 C 52.594 107.925, 53.003 110.400, 52.971 111.500 C 52.940 112.600, 52.919 118.578, 52.925 124.784 C 52.931 130.989, 52.508 138.319, 51.986 141.071 C 50.018 151.452, 54.796 162, 61.468 162 C 66.805 162, 67.094 160.068, 66.035 131.500 C 65.186 108.619, 63.954 98.363, 61.886 96.972 C 61.454 96.682, 62.255 94.970, 63.666 93.168 C 65.873 90.348, 66.649 89.984, 69.238 90.552 C 70.893 90.916, 73.706 92.074, 75.490 93.126 C 78.883 95.129, 81.458 94.854, 82.404 92.388 C 83.846 88.631, 76.768 73.062, 73.576 72.968 C 72.142 72.926, 67.819 68.915, 66.216 66.141 C 64.249 62.736, 65.636 61.722, 71.582 62.215 C 74.511 62.458, 79.515 62.131, 82.703 61.489 C 86.399 60.744, 89.678 60.642, 91.752 61.208 C 93.759 61.755, 98.081 61.673, 103.045 60.994 C 112.538 59.694, 114.806 60.206, 115.543 63.817 C 115.844 65.292, 116.544 68.207, 117.099 70.294 C 118.893 77.047, 116.755 79.650, 110.815 77.947 C 105.635 76.461, 101.442 77.768, 97.544 82.083 C 92.539 87.622, 92.100 90.434, 95.335 96.227 C 96.801 98.853, 97.999 101.563, 97.997 102.251 C 97.993 103.969, 102.220 112.255, 103.732 113.492 C 104.409 114.046, 106.322 117.170, 107.982 120.433 C 110.936 126.241, 111.704 130.390, 110.235 132.610 C 108.944 134.562, 103.626 136.785, 98.487 137.521 C 87.762 139.058, 83.347 145.386, 87.729 152.941 C 92.063 160.414, 93.478 159.934, 107.571 146.203 C 116.820 137.191, 117.701 136.586, 121.479 136.646 C 126.015 136.718, 131.228 139.266, 138.294 144.864 C 143.428 148.932, 152.859 152.497, 155.918 151.526 C 158.590 150.678, 160.323 145.980, 159.126 142.832 C 158.140 140.239, 152.668 135.533, 147.750 133.050 C 146.238 132.287, 145 131.338, 145 130.942 C 145 130.546, 143.430 129.928, 141.512 129.568 C 137.439 128.804, 136 126.630, 136 121.240 C 136 118.414, 136.664 116.725, 138.427 115.069 C 139.761 113.815, 141.853 110.249, 143.075 107.145 C 144.610 103.245, 146.952 99.936, 150.649 96.440 C 156.289 91.107, 157.022 89.165, 154.389 86.532 C 151.690 83.833, 143.241 79.993, 137.721 78.958 C 134.850 78.419, 131.916 77.196, 131.203 76.239 C 129.616 74.110, 130.126 63.470, 131.900 61.707 C 132.723 60.888, 136.189 60.594, 142.666 60.793 C 152.918 61.108, 157 59.786, 157 56.151 C 157 52.050, 152.777 49.958, 141.522 48.480 C 135.620 47.706, 130.163 46.551, 129.396 45.913 C 128.475 45.149, 128 42.637, 128 38.533 C 128 33.774, 127.570 31.921, 126.171 30.655 C 120.555 25.572, 113.859 32.703, 116.928 40.500 C 117.978 43.168, 116.161 46.946, 113.579 47.468 C 112.435 47.699, 108.350 48.082, 104.500 48.318 C 100.650 48.555, 94.979 49.648, 91.898 50.747 C 87.022 52.486, 85.857 52.578, 82.898 51.459 C 81.029 50.752, 77.475 49.447, 75 48.559 C 66.142 45.383, 66.373 45.681, 66.440 37.519 C 66.493 31.076, 66.202 29.854, 64.076 27.586 C 61.180 24.497, 59.323 24.382, 56.071 27.089 M 115.001 91.060 C 113.626 91.643, 111.495 93.066, 110.264 94.221 L 108.028 96.322 112.362 100.956 C 114.746 103.505, 116.886 106.159, 117.118 106.855 C 117.350 107.551, 118.975 108.161, 120.728 108.211 C 128.213 108.424, 137.402 96.068, 132.676 92.146 C 130.784 90.576, 117.994 89.790, 115.001 91.060" stroke="none" fill="black" fill-rule="evenodd"/>
</svg>