<svg xmlns="http://www.w3.org/2000/svg" width="256" height="256" viewBox="0 0 256 256" version="1.1">
	<path d="M 60.766 27.507 C 59.388 28.885, 57.998 31.625, 57.678 33.596 C 56.744 39.352, 55.665 40, 47.012 40 C 40.642 40, 38.793 40.375, 36.580 42.116 C 32.931 44.986, 33.355 48.985, 37.500 50.795 C 43.638 53.474, 43.519 53.259, 43.229 61.115 C 42.935 69.079, 44.739 76.478, 48.711 83.593 C 52.761 90.848, 54.053 91.500, 64.399 91.500 C 71.458 91.500, 74.199 91.905, 76.255 93.250 C 83.540 98.017, 81.112 102.400, 70.561 103.530 C 66.922 103.920, 62.625 103.975, 61.011 103.652 C 59.398 103.330, 57.809 103.501, 57.480 104.033 C 57.151 104.565, 57.760 105, 58.834 105 C 59.908 105, 61.023 105.617, 61.312 106.371 C 61.602 107.126, 63.112 108.061, 64.669 108.449 C 66.226 108.838, 68.334 109.908, 69.354 110.828 C 70.718 112.059, 73.572 112.593, 80.174 112.852 C 88.260 113.170, 89.220 113.415, 89.952 115.352 C 90.398 116.533, 90.357 118.277, 89.859 119.227 C 89.079 120.716, 87.408 120.941, 77.727 120.858 C 64.755 120.747, 54.672 123.102, 52.204 126.820 C 50.916 128.759, 50.935 129, 52.378 129 C 53.270 129, 54 129.352, 54 129.782 C 54 130.614, 58.110 131.828, 69.643 134.404 C 78.440 136.369, 80.144 136.384, 84.568 134.536 C 87.838 133.170, 88.211 133.211, 90.149 135.149 C 91.758 136.758, 92.097 138.014, 91.655 140.736 C 91.342 142.668, 90.869 144.464, 90.605 144.728 C 89.776 145.557, 79.455 145.124, 76.901 144.152 C 74.544 143.256, 50.852 143.572, 44.262 144.587 C 39.170 145.372, 37.340 150.751, 40.750 154.916 C 42.420 156.956, 43.347 157.056, 61 157.105 C 71.175 157.134, 95.828 156.961, 115.785 156.722 C 149.937 156.313, 152.154 156.176, 153.503 154.394 C 156.628 150.265, 155.009 147.020, 148.066 143.500 C 145.370 142.133, 143.434 141.914, 139.066 142.482 C 136.005 142.880, 132.600 143.144, 131.500 143.069 C 130.400 142.994, 125.479 142.751, 120.565 142.529 C 109.792 142.041, 107.410 141.510, 106.607 139.418 C 105.023 135.290, 108.661 134.237, 125.574 133.931 C 143.521 133.606, 144.591 133.402, 145.978 130.054 C 148.590 123.746, 143.189 120.018, 131.384 119.982 C 121.375 119.952, 107.730 118.182, 106.878 116.803 C 105.594 114.724, 107.254 113.973, 114.076 113.546 C 120.337 113.154, 134.729 110.017, 140.250 107.841 C 144.667 106.100, 143.575 100.965, 138.176 98.088 C 136.327 97.104, 133.616 97.105, 124.931 98.097 C 118.925 98.783, 113.730 99.063, 113.386 98.720 C 113.043 98.376, 113.495 97.363, 114.390 96.467 C 115.286 95.571, 115.801 94.487, 115.535 94.056 C 115.269 93.626, 118.524 91.515, 122.769 89.366 C 128.403 86.513, 131.028 84.523, 132.493 81.994 C 133.597 80.088, 137.088 76.003, 140.250 72.915 C 143.412 69.827, 146 66.569, 146 65.675 C 146 64.780, 147.575 62.615, 149.500 60.864 C 151.425 59.112, 153.002 56.963, 153.005 56.089 C 153.008 55.215, 154.119 52.700, 155.474 50.500 C 158.816 45.073, 158.761 40.743, 155.313 38.032 C 152.876 36.115, 151.566 35.945, 141.212 36.209 L 129.797 36.500 127.149 33.391 C 120.134 25.157, 113.614 26.599, 108.444 37.527 C 105.989 42.715, 101.192 47, 97.838 47 C 97.054 47, 94.706 45.200, 92.622 43 C 89.119 39.304, 88.425 39, 83.481 39 C 75.719 39, 73.399 37.849, 72.720 33.660 C 71.368 25.329, 65.806 22.466, 60.766 27.507 M 128.176 49.870 C 125.230 51.738, 132.085 55.563, 137.070 54.833 C 140.822 54.283, 140.341 52.354, 136.021 50.625 C 131.448 48.795, 130.079 48.663, 128.176 49.870 M 66.120 52.023 C 63.711 52.527, 60.695 53.625, 59.417 54.462 C 56.631 56.288, 55.454 61.435, 56.934 65.326 C 57.520 66.868, 58 69.644, 58 71.494 C 58 77.044, 59.958 78.099, 69.926 77.917 C 80.143 77.731, 84.337 79.351, 86.437 84.295 C 87.186 86.058, 88.588 89.415, 89.554 91.756 C 90.519 94.096, 91.920 96.519, 92.667 97.138 C 94.564 98.713, 102 99.474, 102 98.093 C 102 97.492, 101.582 97, 101.071 97 C 100.561 97, 100.223 94.878, 100.321 92.284 C 100.496 87.662, 100.610 87.506, 106 84.505 C 114.347 79.856, 113.942 76.633, 104.077 69.174 C 102.385 67.895, 101 66.037, 101 65.046 C 101 62.335, 98.405 56.669, 96.333 54.856 C 95.263 53.920, 91.795 53.011, 88 52.671 C 84.425 52.351, 79.025 51.868, 76 51.597 C 72.975 51.327, 68.529 51.518, 66.120 52.023 M 115.075 60.689 C 113.092 67.873, 115.909 72.625, 121.081 70.822 C 125.197 69.387, 124.694 63.694, 120.040 59.040 C 117.166 56.166, 116.239 56.474, 115.075 60.689" stroke="none" fill="black" fill-rule="evenodd"/>
</svg>