<svg xmlns="http://www.w3.org/2000/svg" width="256" height="256" viewBox="0 0 256 256" version="1.1">
	<path d="M 91.035 29.934 C 89.622 32.575, 89.760 36.722, 91.418 41.488 C 92.608 44.906, 92.603 45.867, 91.385 48.223 C 90.603 49.734, 88.800 51.263, 87.377 51.620 C 83.842 52.507, 74.411 50.111, 72.313 47.793 C 70.803 46.125, 70.760 45.519, 71.950 42.700 C 72.693 40.940, 73.346 37.940, 73.400 36.034 C 73.485 33.101, 73.070 32.416, 70.697 31.573 C 65.984 29.898, 61.458 34.415, 60.728 41.521 C 60.233 46.347, 58.893 49.045, 54.039 55 C 47.593 62.906, 45.897 65.866, 43.990 72.535 C 42.551 77.568, 42.360 79.734, 43.155 82.016 C 44.082 84.674, 43.887 85.224, 41.223 87.466 C 39.593 88.837, 37.696 91.319, 37.008 92.981 C 35.361 96.956, 36.626 98.465, 43.390 100.597 C 48.160 102.100, 49.055 102.102, 54.862 100.614 C 62.268 98.716, 70.844 98.560, 73.087 100.282 C 76.501 102.903, 77.226 105.806, 75.295 109.121 C 72.708 113.565, 57.299 128.381, 54.459 129.156 C 49.116 130.614, 43.518 136.721, 42.487 142.217 C 41.465 147.664, 44 148.646, 53.581 146.514 C 60.675 144.936, 61.297 144.558, 68.244 137.606 C 72.235 133.614, 77.300 128.135, 79.500 125.432 C 85.225 118.398, 87.715 116, 89.294 116 C 92.001 116, 94.124 126.969, 94.542 143.111 C 94.930 158.086, 98.291 164.286, 104.729 161.905 C 108.155 160.637, 110.374 156.211, 111.100 149.200 C 111.800 142.442, 111.281 140.284, 106.780 131.220 L 104.655 126.940 106.676 124.220 C 110.432 119.167, 115.134 120.474, 124.616 129.206 C 128.732 132.996, 137.160 140.407, 140.500 143.174 C 141.600 144.085, 144.088 145.125, 146.029 145.485 C 153.089 146.794, 158.433 137.665, 152.134 135.055 C 150.557 134.402, 147.215 131.491, 144.707 128.586 C 142.199 125.680, 138.730 122.717, 136.999 122 C 135.268 121.282, 132.148 119.077, 130.066 117.098 C 127.984 115.119, 125.205 112.702, 123.890 111.727 C 122.576 110.751, 120.375 109.103, 119 108.063 L 116.500 106.173 118.903 104.086 C 121.721 101.639, 129.822 101.265, 138.989 103.159 C 145.608 104.526, 149.282 103.809, 152.586 100.505 C 155.497 97.594, 155.646 95.019, 153.087 91.861 C 151.177 89.503, 151.146 89.500, 131.663 89.833 C 115.110 90.115, 111.624 89.915, 108.667 88.512 C 105.413 86.968, 103.185 83.172, 103.963 80.500 C 104.124 79.950, 104.709 77.700, 105.263 75.500 C 105.818 73.300, 107.649 70.038, 109.332 68.250 C 111.818 65.610, 113.153 65.004, 116.446 65.020 C 120.596 65.040, 133.265 66.660, 136.052 67.527 C 138.842 68.394, 141.376 65.635, 140.607 62.569 C 139.032 56.297, 130.588 52.274, 114.372 50.071 C 104.359 48.711, 102 46.530, 102 38.631 C 102 34.177, 101.572 32.964, 99.195 30.687 C 95.900 27.530, 92.490 27.215, 91.035 29.934 M 73.423 65.581 C 72.915 66.326, 71.216 67.153, 69.647 67.420 C 66.127 68.018, 63.237 69.873, 58.243 74.740 C 56.121 76.808, 52.733 79.940, 50.714 81.700 C 47.399 84.591, 47.194 85.051, 48.593 86.450 C 49.446 87.303, 50.448 88.027, 50.821 88.061 C 51.195 88.094, 60.050 88.255, 70.500 88.417 C 90.219 88.725, 93.970 88.127, 95.379 84.455 C 98.277 76.904, 90.907 67.496, 80.500 65.461 C 78.300 65.031, 76.015 64.577, 75.423 64.453 C 74.831 64.329, 73.931 64.837, 73.423 65.581" stroke="none" fill="black" fill-rule="evenodd"/>
</svg>