<svg xmlns="http://www.w3.org/2000/svg" width="256" height="256" viewBox="0 0 256 256" version="1.1">
	<path d="M 62.301 33.091 C 58.134 34.648, 57.249 37.102, 57.107 47.500 C 57.032 53, 56.910 59.300, 56.836 61.500 C 56.762 63.700, 57.275 68.200, 57.975 71.500 C 59.051 76.568, 59.015 78.415, 57.743 83.389 C 56.915 86.629, 56.158 94.239, 56.062 100.302 L 55.886 111.325 51.587 117.971 C 49.222 121.627, 46.500 127.066, 45.536 130.059 C 44.573 133.051, 42.483 138.314, 40.893 141.753 C 36.141 152.024, 37.464 157.337, 44.211 155.081 C 46.421 154.342, 48.730 152.209, 51.250 148.577 C 53.313 145.604, 55 142.744, 55 142.221 C 55 141.698, 55.801 140.197, 56.781 138.885 C 57.761 137.573, 59.597 133.800, 60.863 130.500 C 67.845 112.291, 67.671 112.499, 75 113.615 C 78.025 114.076, 91.167 114.465, 104.204 114.481 C 122.237 114.502, 128.219 114.819, 129.204 115.803 C 130.012 116.610, 130.633 120.494, 130.852 126.108 C 131.278 137.027, 130.782 137.779, 120.634 141.600 C 116.710 143.078, 112.938 144.727, 112.250 145.266 C 110.434 146.689, 110.719 150.436, 112.787 152.307 C 119.981 158.818, 135.202 158.243, 139.253 151.307 C 141.154 148.051, 144.321 127.289, 143.182 125.545 C 142.807 124.970, 142.474 105.825, 142.443 83 C 142.403 54.466, 142.037 40.863, 141.270 39.460 C 138.382 34.179, 128.064 32.707, 92.801 32.548 C 77.017 32.476, 63.292 32.721, 62.301 33.091 M 75.646 47.065 C 71.432 47.780, 70.507 48.746, 69.009 54 C 67.699 58.594, 67.741 61.639, 69.150 64.316 C 70.947 67.731, 71.985 68.014, 80.233 67.344 C 86.242 66.855, 89.243 67.117, 93.699 68.519 C 98.733 70.102, 100.108 70.167, 104.966 69.050 C 108.010 68.350, 113.425 67.582, 117 67.343 C 126.367 66.716, 127.525 66.338, 128.829 63.477 C 131.097 58.499, 130.074 48.702, 127.151 47.406 C 125.063 46.480, 80.819 46.187, 75.646 47.065 M 112 81.072 C 109.525 81.512, 100.477 81.609, 91.893 81.289 C 75.646 80.682, 70.881 81.465, 69.393 84.987 C 68.149 87.928, 67.868 94.534, 68.874 97.174 C 69.873 99.796, 70.055 99.845, 78.196 99.688 C 82.763 99.601, 90.237 100.170, 94.804 100.953 C 102.465 102.268, 103.524 102.236, 108.497 100.546 C 112.779 99.090, 115.422 98.853, 121.363 99.391 C 125.990 99.811, 129.073 99.690, 129.454 99.075 C 129.791 98.529, 130.331 95.251, 130.652 91.791 C 131.140 86.538, 130.928 85.146, 129.368 83.355 C 127.184 80.846, 119.187 79.795, 112 81.072" stroke="none" fill="black" fill-rule="evenodd"/>
</svg>