<svg xmlns="http://www.w3.org/2000/svg" width="256" height="256" viewBox="0 0 256 256" version="1.1">
	<path d="M 83.850 34.250 C 75.384 42.615, 73.547 43.745, 51.906 53.902 C 44.939 57.172, 42.659 59.112, 41.567 62.699 C 40.885 64.940, 41.684 66.015, 46.908 69.889 C 49.583 71.872, 50.782 77.542, 50.949 89 C 51.087 98.455, 53.542 103.278, 59.344 105.494 C 63.026 106.900, 64.508 107.019, 67.097 106.116 C 71.579 104.554, 73.108 104.751, 76.210 107.292 C 80.231 110.585, 78.561 112.179, 70.848 112.411 C 67.329 112.517, 63.920 112.931, 63.274 113.331 C 61.781 114.253, 61.668 154.254, 63.147 158.140 C 64.595 161.946, 71.719 162.880, 75.688 159.785 C 76.341 159.275, 82.641 158.975, 89.688 159.119 C 106.862 159.469, 129.222 158.042, 131.389 156.457 C 132.432 155.695, 133.319 153.291, 133.643 150.350 C 134.292 144.451, 134.311 146.146, 133.421 130.663 C 132.604 116.454, 132.139 115.413, 126.218 114.515 C 124.173 114.205, 120.475 113.454, 118 112.847 C 115.525 112.240, 111.025 111.872, 108 112.028 C 93.217 112.790, 85.901 112.457, 84.970 110.979 C 83.261 108.266, 88.495 106.920, 97.500 107.757 C 101.900 108.166, 112.451 108.381, 120.947 108.236 C 142.763 107.863, 143.625 107.076, 142.568 88.500 C 142.008 78.667, 142.149 77.165, 143.898 74.345 C 145.197 72.252, 146.972 70.953, 149.177 70.484 C 153.613 69.541, 156 67.272, 156 64 C 156 59.970, 153.488 58.378, 141.150 54.590 C 134.971 52.693, 128.022 49.969, 125.707 48.537 C 117.130 43.229, 108.184 36.390, 104.991 32.699 C 101.434 28.587, 97.247 26, 94.150 26 C 93.050 26, 88.563 29.594, 83.850 34.250 M 95.223 43.557 C 90.349 46.970, 93.736 50.835, 100.490 49.568 C 104.219 48.868, 105.495 46.794, 103.961 43.928 C 102.698 41.566, 98.329 41.381, 95.223 43.557 M 66.250 60.933 C 62.865 63.056, 61.929 66.375, 64.444 67.340 C 66.333 68.065, 78.291 65.045, 79.214 63.610 C 81.583 59.926, 71.257 57.793, 66.250 60.933 M 113.506 61.990 C 113.230 62.437, 110.386 63.107, 107.187 63.478 C 103.987 63.850, 100.759 64.531, 100.013 64.992 C 97.575 66.499, 106.429 68.114, 113.279 67.412 C 118.594 66.868, 120.285 67.105, 123.768 68.882 C 128.607 71.351, 130.330 71.512, 131.883 69.641 C 134.009 67.079, 129.727 63.290, 123.751 62.447 C 114.823 61.188, 114.024 61.152, 113.506 61.990 M 82.201 79.019 C 80.386 80.126, 79.135 81.409, 79.420 81.871 C 80.831 84.154, 82.267 88.832, 82.425 91.657 C 82.618 95.117, 84.500 98, 86.563 98 C 88.359 98, 88.941 96.845, 89.632 91.903 C 89.956 89.582, 91.070 86.292, 92.107 84.592 C 94.570 80.553, 94.541 80.417, 90.846 78.573 C 86.812 76.561, 86.180 76.593, 82.201 79.019 M 63.966 80.736 C 62.010 82.107, 61.881 82.817, 62.493 88.869 C 63.167 95.526, 64.656 98.415, 67.844 99.249 C 70.553 99.957, 71.702 97.819, 71.492 92.460 C 71.385 89.732, 71.905 86.285, 72.649 84.800 C 73.989 82.122, 74.507 79.160, 73.450 80.217 C 73.147 80.519, 71.372 80.422, 69.505 80.001 C 67.085 79.455, 65.493 79.667, 63.966 80.736 M 105.500 80 C 105.160 80.550, 104.009 81, 102.941 81 C 100.983 81, 100.413 82.080, 101.696 83.362 C 102.427 84.093, 102.739 85.354, 103.551 90.859 C 104.195 95.229, 105.718 98, 107.476 98 C 109.430 98, 110.227 96.397, 110.487 91.939 C 110.610 89.835, 111.287 86.721, 111.993 85.018 C 113.131 82.269, 113.063 81.761, 111.388 80.493 C 109.173 78.816, 106.376 78.582, 105.500 80 M 125.322 84.250 C 124.815 84.938, 124.292 87.792, 124.159 90.594 C 123.702 100.253, 129.781 100.210, 130.745 90.546 C 131.358 84.402, 128.047 80.558, 125.322 84.250 M 88.523 123.913 C 87.436 124.338, 84.836 124.488, 82.746 124.246 C 80.655 124.005, 78.249 124.074, 77.398 124.401 C 76.026 124.927, 76.041 125.184, 77.531 126.674 C 79.369 128.512, 81.608 128.739, 103.750 129.340 L 118 129.727 118 127.367 C 118 125.114, 117.692 125.009, 111.250 125.059 C 107.537 125.088, 102.928 124.637, 101.007 124.056 C 97.009 122.848, 91.414 122.783, 88.523 123.913 M 79.465 140.682 C 78.345 140.902, 76.843 142.021, 76.127 143.168 C 73.544 147.304, 75.893 147.898, 96 148.198 C 115.432 148.488, 119.172 147.833, 118.490 144.261 C 118.305 143.293, 118.119 142.162, 118.077 141.750 C 118.034 141.338, 117.127 141, 116.059 141 C 114.991 141, 113.910 141.338, 113.655 141.750 C 113.034 142.756, 87.248 141.821, 82.808 140.631 C 82.089 140.439, 80.584 140.461, 79.465 140.682" stroke="none" fill="black" fill-rule="evenodd"/>
</svg>