<svg xmlns="http://www.w3.org/2000/svg" width="256" height="256" viewBox="0 0 256 256" version="1.1">
	<path d="M 91.350 29.559 C 89.457 31.452, 88.923 32.820, 89.301 34.809 C 89.582 36.289, 90.141 39.205, 90.543 41.289 C 91.150 44.435, 90.899 45.479, 89.063 47.432 C 87.219 49.396, 86.124 49.710, 82.455 49.328 C 80.036 49.076, 75.308 49.574, 71.948 50.435 C 68.588 51.296, 64.592 52, 63.068 52 C 54.805 52, 50.722 56.644, 55.428 60.691 C 58.281 63.145, 58.853 63.216, 77.500 63.401 L 87.500 63.500 90.195 68.529 C 93.093 73.936, 95.131 81.266, 94.121 82.650 C 92.102 85.415, 89.181 86.393, 81.684 86.813 C 71.315 87.396, 71.020 87.398, 55.782 87.019 C 41.608 86.666, 40.454 87.062, 39.408 92.640 C 38.920 95.238, 39.220 96.585, 40.631 98.146 C 42.406 100.107, 43.128 100.173, 55 99.451 C 69.933 98.543, 72.794 98.643, 75.750 100.173 C 79.671 102.203, 78.274 107.101, 71.673 114.462 C 70.668 115.583, 68.320 119.200, 66.454 122.500 C 62.943 128.710, 58.614 132.074, 52.401 133.421 C 48.784 134.205, 43.608 139.212, 41.996 143.488 C 41.002 146.121, 41.133 146.690, 43.099 148.281 C 44.326 149.275, 46.043 149.812, 46.915 149.476 C 47.787 149.139, 51.875 147.952, 56 146.838 C 62.578 145.061, 64.207 144.121, 69.250 139.187 C 72.412 136.094, 75 133.182, 75 132.717 C 75 131.891, 81.303 124.016, 85.705 119.341 C 88.340 116.542, 91 116.287, 91 118.833 C 91 119.842, 91.330 120.997, 91.734 121.401 C 93.447 123.114, 94.742 134.062, 94.247 142.644 C 93.784 150.653, 93.989 152.346, 95.897 156.287 C 98.223 161.092, 100.711 162.440, 104.555 160.979 C 108.112 159.627, 109.717 156.203, 110.404 148.500 C 110.938 142.520, 110.684 140.659, 108.658 135.727 C 107.354 132.552, 105.998 129.664, 105.644 129.310 C 104.571 128.237, 104.921 125.310, 106.256 124.203 C 106.946 123.630, 108.674 122.869, 110.095 122.512 C 112.280 121.964, 113.587 122.737, 118.572 127.527 C 121.814 130.641, 125.671 133.813, 127.145 134.575 C 128.618 135.337, 130.651 136.985, 131.662 138.239 C 132.673 139.492, 135.290 141.976, 137.478 143.759 C 144.110 149.163, 152 147.564, 152 140.814 C 152 138.867, 149.891 136.472, 142.824 130.393 C 137.777 126.052, 131.533 120.362, 128.949 117.750 C 126.364 115.138, 123.631 112.993, 122.875 112.985 C 122.119 112.977, 119.831 111.514, 117.792 109.735 C 114.772 107.101, 114.186 106.009, 114.638 103.856 C 115.271 100.840, 117.840 100.007, 125 100.499 C 131.435 100.941, 141.866 101.240, 146.295 101.111 C 153.645 100.896, 158.072 92.270, 152.750 88.534 C 150.813 87.174, 147.997 87.045, 132.500 87.603 C 107.524 88.504, 103.089 87.133, 103.042 78.500 C 103.012 73.182, 107.216 64.248, 110.300 63.076 C 111.743 62.528, 117.322 62.561, 124.424 63.160 C 130.880 63.705, 136.801 63.906, 137.582 63.607 C 139.337 62.934, 139.377 59.079, 137.652 56.811 C 135.686 54.224, 124.484 50.417, 114.790 49.041 C 103.519 47.441, 102.389 46.448, 101.829 37.650 C 101.459 31.849, 101.020 30.518, 98.946 28.925 C 95.682 26.415, 94.385 26.524, 91.350 29.559" stroke="none" fill="black" fill-rule="evenodd"/>
</svg>