<svg xmlns="http://www.w3.org/2000/svg" width="256" height="256" viewBox="0 0 256 256" version="1.1">
	<path d="M 50.500 27.945 C 47.328 29.244, 45.319 32.181, 44.660 36.487 C 44.166 39.711, 43 41.394, 38.572 45.278 C 32.411 50.682, 32.266 52.437, 37.853 53.995 C 39.859 54.555, 42.581 55.850, 43.902 56.875 C 46.236 58.685, 46.298 59.094, 46.096 71.505 C 45.982 78.527, 45.549 86.123, 45.135 88.386 C 44.720 90.649, 44.700 93.625, 45.091 95 C 46.195 98.890, 46.128 110, 45 110 C 44.450 110, 44 110.659, 44 111.465 C 44 113.407, 40.865 115, 37.041 115 C 34.644 115, 33.732 115.575, 32.975 117.565 C 31.720 120.868, 31.642 120.525, 34.250 123.238 C 35.487 124.526, 37.625 125.588, 39 125.599 C 43.220 125.631, 50.406 127.185, 52.239 128.462 C 53.862 129.592, 53.828 129.803, 51.739 131.632 C 50.507 132.709, 48.263 134.209, 46.750 134.965 C 45.237 135.720, 44 136.628, 44 136.982 C 44 137.336, 42.191 140.626, 39.979 144.293 C 34.879 152.750, 34.171 155.940, 36.858 158.371 C 38.419 159.784, 39.755 160.048, 42.771 159.539 C 49.111 158.467, 52.294 155.893, 54.256 150.250 C 55.221 147.472, 57.359 143.757, 59.006 141.994 C 62.651 138.091, 62.756 136.051, 59.507 132.190 L 57.013 129.227 62.572 126.971 C 70.025 123.946, 78.300 123.886, 80.860 126.839 C 81.874 128.008, 82.995 128.672, 83.352 128.315 C 83.708 127.958, 84 128.161, 84 128.766 C 84 129.371, 83.155 130.133, 82.122 130.461 C 81.090 130.789, 79.075 132.062, 77.645 133.291 C 74.562 135.940, 74.842 137.604, 79.810 146.169 C 84.832 154.824, 86.727 155.699, 94.250 152.837 C 98.890 151.071, 99.075 151.075, 102.250 153.011 C 106.124 155.373, 112.253 155.604, 114.389 153.468 C 115.232 152.625, 116.206 150.263, 116.554 148.218 C 116.903 146.173, 118.045 141.995, 119.094 138.933 C 120.142 135.872, 121.003 130.922, 121.006 127.933 C 121.011 122.631, 122.216 116.726, 123.791 114.285 C 124.222 113.617, 128.411 112.634, 133.099 112.101 C 137.787 111.569, 142.721 110.873, 144.062 110.556 C 148.936 109.404, 149.427 110.763, 149.292 125.028 C 149.218 132.931, 148.673 139.375, 147.928 141.174 C 146.658 144.239, 143.623 146, 139.609 146 C 136.825 146, 133 149.892, 133 152.725 C 133 154.222, 134.293 155.448, 137.520 157.010 C 141.691 159.029, 142.557 159.108, 148.699 158.039 C 156.966 156.599, 158.543 155.767, 160.680 151.720 C 162.186 148.869, 162.347 145.295, 162.086 120.500 C 161.924 105.100, 161.725 80.350, 161.643 65.500 C 161.508 40.922, 161.327 38.252, 159.625 35.738 C 157.242 32.220, 154.205 31.482, 147.696 32.842 C 144.681 33.471, 136.686 33.734, 128.647 33.468 L 114.794 33.009 112.093 35.901 C 110.545 37.557, 108.885 40.986, 108.206 43.927 C 106.577 50.983, 105.300 52.183, 102.339 49.439 C 101.063 48.256, 97.877 46.210, 95.259 44.894 C 89.151 41.822, 88.812 41.325, 89.425 36.346 C 90.010 31.589, 88.583 29.750, 84.307 29.750 C 81.178 29.750, 78 33.151, 78 36.500 C 78 41.102, 74.849 43.351, 67.769 43.802 C 57.848 44.434, 55.179 41.920, 57.972 34.574 C 59.215 31.304, 58.516 29.556, 55.398 28.135 C 54.027 27.511, 52.815 27.029, 52.703 27.063 C 52.591 27.098, 51.600 27.495, 50.500 27.945 M 131.828 46.903 C 128.708 47.237, 125.866 47.800, 125.513 48.154 C 125.159 48.507, 124.205 51.648, 123.392 55.133 C 122.205 60.221, 122.155 61.922, 123.140 63.762 C 124.636 66.556, 125.959 66.866, 137.946 67.220 L 147.392 67.500 148.280 63.814 C 149.524 58.654, 147.512 49.472, 144.708 47.508 C 142.473 45.942, 141.294 45.887, 131.828 46.903 M 100 56.256 C 91.044 62.560, 90.433 63.425, 91.670 68.059 C 92.521 71.246, 92.448 73.388, 91.344 77.615 C 90.561 80.612, 90.165 83.458, 90.463 83.940 C 90.761 84.423, 90.991 87.446, 90.973 90.659 C 90.919 100.487, 90.975 101.261, 91.821 102.399 C 92.271 103.004, 93.270 105.525, 94.040 108 C 94.810 110.475, 96.016 113.095, 96.720 113.821 C 99.797 116.997, 96.729 124.909, 91.682 126.814 C 88.943 127.848, 88.766 128.219, 89.259 131.894 C 89.551 134.075, 90.963 137.396, 92.395 139.274 C 93.828 141.152, 95 143.218, 95 143.866 C 95 144.513, 96.142 145.563, 97.537 146.199 C 99.595 147.136, 100.366 147.062, 101.622 145.807 C 103.596 143.833, 107.944 128.695, 107.976 123.684 C 107.989 121.586, 108.413 119.096, 108.919 118.152 C 110.144 115.863, 110.314 83.368, 109.176 69.280 C 108.571 61.804, 107.715 57.215, 106.611 55.530 C 105.700 54.138, 104.852 53.020, 104.727 53.045 C 104.602 53.069, 102.475 54.514, 100 56.256 M 63.750 57.518 C 62.237 58.368, 61 59.450, 61 59.921 C 61 63.377, 71.883 68.517, 74.230 66.170 C 75.450 64.950, 75.857 58.524, 74.783 57.449 C 73.338 56.005, 66.364 56.048, 63.750 57.518 M 68 77.492 C 64.975 78.125, 61.487 79.281, 60.250 80.062 C 55.648 82.964, 58.715 88.542, 66.236 90.950 C 68.291 91.608, 70.230 92.563, 70.545 93.073 C 70.860 93.583, 72.066 94, 73.226 94 C 74.385 94, 75.055 93.721, 74.714 93.381 C 74.374 93.040, 74.731 92.126, 75.508 91.349 C 78.726 88.131, 78.134 77.947, 74.658 76.742 C 74.021 76.521, 71.025 76.858, 68 77.492 M 134 80.978 C 130.425 81.343, 126.721 81.992, 125.770 82.420 C 122.213 84.021, 121.372 94.404, 124.582 97.068 C 125.320 97.680, 129.653 98.322, 134.212 98.495 C 138.770 98.668, 143.374 98.965, 144.442 99.155 C 147.563 99.710, 149.167 95.505, 148.601 88.247 C 148.333 84.807, 147.837 81.545, 147.498 80.997 C 146.839 79.931, 144.294 79.928, 134 80.978 M 68.792 100.503 C 59.791 103.812, 57.878 105.144, 58.197 107.889 C 58.559 111.004, 63.304 113.669, 70.168 114.609 C 74.023 115.138, 75.014 114.901, 76.752 113.036 C 79.010 110.612, 80.219 106.254, 78.866 105.417 C 78.390 105.123, 78 104.171, 78 103.301 C 78 101.641, 75.208 99.036, 73.500 99.102 C 72.950 99.124, 70.832 99.754, 68.792 100.503" stroke="none" fill="black" fill-rule="evenodd"/>
</svg>