<svg xmlns="http://www.w3.org/2000/svg" width="256" height="256" viewBox="0 0 256 256" version="1.1">
	<path d="M 80.607 31.497 C 79.357 32.443, 78.553 34.601, 78.241 37.846 C 77.816 42.264, 77.400 42.965, 74.134 44.768 C 70.483 46.784, 60.020 48.304, 48.904 48.434 C 45.723 48.472, 42.594 49.092, 41.654 49.872 C 39.651 51.535, 39.515 54.954, 41.352 57.466 C 42.552 59.108, 43.530 59.229, 50.102 58.543 C 59.056 57.610, 60.990 57.666, 64.379 58.954 C 67.781 60.247, 67.838 63.773, 64.539 68.771 C 63.185 70.822, 61.568 74.884, 60.946 77.798 C 59.643 83.893, 57.287 86.536, 52.324 87.467 C 46.867 88.491, 44.735 89.804, 41.503 94.132 C 37.159 99.951, 38.670 107.130, 44.472 108.239 C 47.303 108.781, 53.530 104.937, 56.355 100.904 C 58.098 98.415, 63.225 97.825, 65.276 99.876 C 66.077 100.677, 66.405 104.025, 66.247 109.793 C 65.744 128.188, 65.320 131.388, 62.643 137 C 58.451 145.788, 59.421 153.021, 64.785 152.979 C 68.311 152.951, 72.546 147.120, 74.179 140.044 C 74.833 137.212, 76.347 133.838, 77.545 132.546 C 79.981 129.917, 83.465 129.467, 108.175 128.584 C 120.809 128.132, 122.047 128.249, 124.425 130.120 C 129.358 134, 126.691 140.264, 118.370 144.345 C 113.693 146.639, 113 147.357, 113 149.917 C 113 154.698, 116.753 156.967, 127.077 158.428 C 132.654 159.217, 137.335 156.241, 138.157 151.382 C 138.954 146.669, 138.377 92.508, 137.486 88.414 C 135.937 81.296, 133.616 78.006, 128.284 75.373 C 123.437 72.981, 122.198 72.814, 110.784 73.015 C 90.584 73.371, 84.721 73.047, 82.271 71.442 C 79.210 69.436, 79.306 65.501, 82.466 63.430 C 86.108 61.044, 98.286 59.871, 110.229 60.756 C 116.006 61.184, 122.255 61.198, 124.116 60.786 C 125.977 60.374, 131.956 59.555, 137.401 58.966 C 148.970 57.714, 153 56.046, 153 52.510 C 153 51.168, 152.191 49.637, 151.201 49.108 C 150.212 48.578, 137.950 47.845, 123.951 47.479 C 90.909 46.614, 87.497 45.751, 89.895 38.872 C 91.369 34.643, 91.292 33.435, 89.429 31.571 C 87.483 29.625, 83.127 29.589, 80.607 31.497 M 83.465 86.940 C 80.007 88.361, 78.708 90.586, 79.966 92.936 C 80.573 94.071, 81.392 95.054, 81.785 95.121 C 85.416 95.733, 122.894 95.506, 124.163 94.864 C 125.078 94.401, 125.675 93.230, 125.490 92.261 C 125.305 91.293, 125.119 90.217, 125.077 89.871 C 124.863 88.115, 118.579 86.799, 113.245 87.394 C 104.870 88.328, 98.981 88.399, 94.476 87.619 C 92.289 87.241, 89.375 86.745, 88 86.518 C 86.625 86.291, 84.584 86.481, 83.465 86.940 M 85.500 109 C 83.850 109.516, 81.898 110.908, 81.162 112.095 C 80.018 113.942, 80.059 114.488, 81.449 115.877 C 82.771 117.199, 85.558 117.523, 96.459 117.625 C 103.822 117.694, 111.858 118.052, 114.317 118.420 C 119.930 119.262, 123.232 118.460, 124.855 115.860 C 125.901 114.185, 125.848 113.417, 124.548 111.433 C 123.063 109.167, 122.458 109.040, 113.738 109.170 C 108.657 109.245, 100.900 109.027, 96.500 108.685 C 92.100 108.343, 87.150 108.485, 85.500 109" stroke="none" fill="black" fill-rule="evenodd"/>
</svg>