<svg xmlns="http://www.w3.org/2000/svg" width="256" height="256" viewBox="0 0 256 256" version="1.1">
	<path d="M 51.200 30.504 C 48.929 32.458, 48.487 33.806, 47.945 40.438 C 47.086 50.935, 46.142 51.793, 37.365 50.048 C 31.249 48.833, 30.570 48.868, 29.406 50.459 C 27.790 52.670, 29.524 57, 32.026 57 C 32.963 57, 34.874 57.900, 36.273 59 C 37.671 60.100, 39.226 61, 39.727 61 C 40.229 61, 41.712 62.234, 43.023 63.742 C 44.756 65.734, 45.518 68.012, 45.812 72.077 L 46.217 77.670 41.920 78.585 C 38.298 79.356, 37.501 79.974, 36.844 82.517 C 36.415 84.176, 33.646 87.948, 30.692 90.899 L 25.321 96.264 25.477 104.528 C 25.653 113.799, 27.467 118.011, 31.273 117.985 C 34.666 117.961, 35.955 116.705, 35.919 113.456 C 35.901 111.830, 36.092 109.150, 36.344 107.500 C 36.596 105.850, 36.846 103.781, 36.901 102.903 C 37.052 100.469, 40.487 97, 42.745 97 C 44.350 97, 44.706 97.580, 44.510 99.881 C 44.375 101.466, 43.954 103.266, 43.573 103.881 C 43.193 104.497, 43.318 105, 43.851 105 C 44.383 105, 45.396 108.262, 46.102 112.250 C 47.569 120.545, 47.427 119.939, 48.464 122.305 C 49.210 124.005, 48.942 129.814, 47.415 145.045 C 46.834 150.845, 47.053 152.170, 49.333 156.671 C 53.266 164.431, 57.159 165.193, 59.960 158.750 C 61.671 154.812, 61.740 152.883, 60.889 132.500 C 60.384 120.400, 59.737 107.350, 59.451 103.500 L 58.930 96.500 62.715 94.801 C 64.797 93.867, 67.400 92.786, 68.500 92.399 C 71.709 91.271, 74 88.853, 73.999 86.595 C 73.999 84.200, 70.339 74.124, 68.789 72.250 C 68.220 71.563, 68.125 71, 68.578 71 C 69.030 71, 68.860 70.460, 68.200 69.800 C 66.457 68.057, 66.721 65.588, 69.075 61.598 C 72.247 56.221, 71.396 53.916, 65.170 51.023 C 60.140 48.685, 59.872 48.375, 60.416 45.523 C 62.147 36.449, 62.168 35.226, 60.648 32.287 C 58.546 28.222, 54.697 27.496, 51.200 30.504 M 101.944 35.587 C 100.050 37.010, 96.155 39.693, 93.289 41.550 C 90.423 43.406, 86.892 46.717, 85.444 48.906 C 82.897 52.754, 82.802 53.426, 82.594 69.193 C 82.475 78.162, 81.926 87.075, 81.374 89 C 80.357 92.544, 81.724 100.805, 84.118 105.586 C 84.693 106.734, 85.035 108.309, 84.879 109.086 C 84.724 109.864, 84.933 112.905, 85.345 115.844 C 85.996 120.486, 87.920 124.478, 92.451 130.580 C 93.060 131.400, 92.938 135.141, 92.113 140.972 C 91.102 148.110, 91.085 150.398, 92.034 151.541 C 93.881 153.767, 97.754 153.334, 99.113 150.750 C 99.764 149.512, 101.342 147.244, 102.618 145.709 C 103.895 144.174, 105.883 139.674, 107.035 135.709 C 108.188 131.744, 109.933 126.700, 110.914 124.500 C 113.937 117.723, 115.963 107.619, 116.465 96.824 C 116.729 91.146, 117.230 82.121, 117.579 76.770 C 118.181 67.534, 118.082 66.815, 115.633 62.637 C 111.608 55.769, 108.775 55.711, 105.260 62.427 C 104.053 64.732, 103.596 68.872, 103.431 79 C 103.207 92.730, 102.465 100.208, 101.055 102.966 C 100.623 103.810, 100.472 105.063, 100.718 105.750 C 100.965 106.437, 100.679 107, 100.083 107 C 99.487 107, 99 107.750, 99 108.667 C 99 111.117, 98.268 109.945, 97.647 106.500 C 95.718 95.803, 95.446 92.560, 95.805 84.500 C 96.321 72.880, 96.314 71.372, 95.717 66.113 C 94.755 57.643, 97.961 52.227, 105.225 50.051 C 113.628 47.533, 117.539 39.734, 112.686 35.174 C 109.621 32.295, 106.149 32.429, 101.944 35.587 M 150.500 44.566 C 147.750 45.891, 144.094 46.980, 142.375 46.987 C 133.061 47.025, 128.602 50.342, 125.156 59.792 C 123.219 65.105, 123.031 67.185, 123.454 78.632 C 123.895 90.567, 125.009 106.471, 126.600 123.552 C 127.092 128.837, 126.826 132.088, 125.536 136.525 C 123.123 144.823, 124.131 154.290, 127.788 157.679 C 131.236 160.875, 134.087 160.311, 136.280 156 C 137.991 152.634, 138.069 147.730, 136.610 135 C 136.452 133.625, 137.600 129.800, 139.161 126.500 C 140.909 122.804, 141.999 118.846, 141.999 116.193 C 142 111.663, 140.244 103.199, 138.950 101.500 C 137.933 100.164, 138.504 77.604, 139.599 75.866 C 140.073 75.115, 140.469 71.177, 140.480 67.115 C 140.498 60.321, 140.710 59.572, 143.125 57.763 C 145.207 56.203, 146.169 56.020, 147.775 56.880 C 149.497 57.801, 149.901 59.349, 150.481 67.232 C 151.558 81.890, 151.069 95.912, 149.340 99.944 C 148.501 101.900, 147.589 104.850, 147.312 106.500 C 147.035 108.150, 146.471 110.109, 146.058 110.852 C 145.644 111.596, 145.627 113.959, 146.019 116.102 C 146.411 118.246, 146.454 120.030, 146.116 120.067 C 144.517 120.241, 154.823 122.972, 157.128 122.985 C 162.200 123.014, 162.770 120.583, 163.575 95.498 C 163.893 85.599, 164.315 75.700, 164.513 73.500 C 164.711 71.300, 164.409 64.100, 163.841 57.500 C 162.981 47.506, 162.472 45.207, 160.793 43.750 C 158.202 41.500, 156.604 41.626, 150.500 44.566" stroke="none" fill="black" fill-rule="evenodd"/>
</svg>