<svg xmlns="http://www.w3.org/2000/svg" width="256" height="256" viewBox="0 0 256 256" version="1.1">
	<path d="M 56.589 29.077 C 54.345 31.743, 54 33.084, 54 39.126 C 54 46.948, 52.060 52, 49.057 52 C 48.017 52, 45.066 51.100, 42.500 50 C 34.887 46.736, 32.991 47.502, 33.007 53.832 C 33.014 56.727, 37.292 60.329, 42.130 61.513 C 43.576 61.867, 46.126 63.584, 47.797 65.328 C 50.429 68.077, 50.879 69.362, 51.167 74.963 L 51.500 81.425 47.455 82.231 C 43.323 83.054, 40 86.739, 40 90.497 C 40 91.425, 39.100 93.329, 38 94.727 C 36.900 96.126, 36 97.821, 36 98.494 C 36 99.167, 34.181 101.785, 31.958 104.310 C 27.787 109.048, 27.621 109.652, 27.859 119.139 C 28.033 126.108, 30.265 129.474, 34.076 128.517 C 37.819 127.578, 41.029 119.737, 43.691 105.029 C 44.291 101.715, 45.147 100.235, 47 99.310 C 49.122 98.251, 49.745 98.322, 51.120 99.781 C 54.740 103.624, 55.276 113.357, 53.470 142.535 L 52.787 153.569 57.638 159.660 C 60.306 163.010, 63.058 165.668, 63.754 165.566 C 66.850 165.111, 67.499 162.877, 67.202 153.700 C 67.039 148.640, 66.794 137.525, 66.659 129 C 66.524 120.475, 66.115 112.375, 65.751 111 C 65.386 109.625, 64.626 105.580, 64.061 102.011 C 63.137 96.175, 63.224 95.331, 64.922 93.633 C 66.681 91.875, 67.270 91.837, 73.518 93.079 C 79.729 94.313, 80.324 94.277, 81.552 92.598 C 82.281 91.601, 82.720 89.541, 82.528 88.022 C 82.165 85.151, 80.001 81, 78.868 81 C 78.510 81, 77.942 79.906, 77.607 78.569 C 76.942 75.921, 70.891 69, 69.240 69 C 68.218 69, 66.544 64.123, 67.305 63.362 C 67.526 63.141, 71.263 62.686, 75.609 62.351 C 83.439 61.747, 83.542 61.770, 86.870 64.879 C 89.263 67.114, 90.074 68.609, 89.690 70.076 C 89.394 71.209, 89.545 73.343, 90.027 74.818 C 90.508 76.293, 91.386 79.392, 91.978 81.705 C 94.081 89.929, 98.113 91.236, 100.951 84.614 C 102.372 81.299, 102.701 78.790, 102.297 74.335 C 101.612 66.783, 102.912 65.361, 108.999 67 C 112.301 67.889, 113.441 68.811, 114.565 71.502 C 116.843 76.955, 116.691 83.634, 114.229 86.262 C 113.076 87.493, 111.085 90.750, 109.806 93.500 C 108.526 96.250, 105.796 101.259, 103.740 104.631 C 101.683 108.003, 100 111.469, 100 112.334 C 100 114.521, 97.949 119.113, 95.907 121.500 C 91.757 126.348, 87.042 137.246, 87.015 142.050 C 87.007 143.452, 86.493 145.107, 85.873 145.727 C 84.272 147.328, 85.628 151.731, 88.137 153.073 C 91.849 155.060, 94.833 152.397, 98.998 143.383 C 101.070 138.897, 104.224 133.713, 106.005 131.863 C 110.566 127.127, 112.170 124.472, 113.044 120.209 C 113.831 116.366, 115.553 111.147, 117.319 107.250 C 119.032 103.469, 124.741 104.309, 124.118 108.250 C 124.053 108.662, 124.477 109, 125.059 109 C 125.641 109, 125.841 109.448, 125.502 109.996 C 123.623 113.037, 123.129 127.807, 124.869 128.953 C 126.269 129.874, 127.676 133.247, 128.982 138.812 C 129.854 142.526, 131.424 145.437, 134.203 148.490 C 139.302 154.093, 143.427 156, 150.447 156 C 157.800 156, 160.133 153.800, 161.972 145.131 C 164.351 133.920, 160.446 129.768, 153.368 135.982 C 150.700 138.324, 149.020 139.035, 146.693 138.806 C 142.586 138.402, 140.763 134.553, 138.493 121.500 C 137.537 116, 136.400 110.053, 135.967 108.285 C 135.385 105.904, 135.676 104.097, 137.090 101.323 C 138.141 99.263, 139 97.009, 139 96.315 C 139 95.621, 135.626 92.903, 131.502 90.276 C 124.272 85.671, 124.004 85.360, 124.002 81.604 C 124.001 78.795, 125.010 76.185, 127.620 72.253 L 131.240 66.799 139.209 67.161 C 147.772 67.550, 150 68.882, 150 73.614 C 150 76.693, 154.682 82, 157.398 82 C 158.619 82, 160.491 81.358, 161.559 80.574 C 163.239 79.339, 163.474 78.042, 163.305 70.914 C 162.960 56.327, 160.818 54.106, 146.782 53.780 C 141.677 53.662, 136.111 53.907, 134.414 54.326 C 132.049 54.909, 130.765 54.630, 128.914 53.129 C 126.681 51.318, 126.514 50.553, 126.691 42.910 C 126.796 38.365, 126.459 33.857, 125.942 32.891 C 124.689 30.550, 121.531 29.645, 119.118 30.937 C 116.956 32.094, 114.478 38.347, 115.516 40.027 C 115.879 40.613, 115.876 43.265, 115.511 45.920 C 114.694 51.862, 112.737 52.991, 103.203 53.022 C 98.894 53.036, 95.068 53.695, 92.490 54.866 C 87.391 57.182, 85.492 56.869, 81.571 53.069 C 79.830 51.381, 77.470 50, 76.327 50 C 71.507 50, 68.038 48.697, 67.355 46.631 C 66.968 45.459, 66.617 41.285, 66.575 37.356 C 66.517 31.807, 66.075 29.742, 64.595 28.106 C 61.956 25.188, 59.623 25.471, 56.589 29.077" stroke="none" fill="black" fill-rule="evenodd"/>
</svg>