<svg xmlns="http://www.w3.org/2000/svg" width="256" height="256" viewBox="0 0 256 256" version="1.1">
	<path d="M 64.270 26.767 C 60.505 27.387, 58 31.633, 58 37.394 C 58 44.245, 56.318 45.276, 45.435 45.090 C 37.922 44.962, 36.944 45.176, 34.106 47.564 C 32.297 49.087, 31 51.134, 31 52.468 C 31 55.921, 35.432 57.290, 45.227 56.862 L 53.500 56.500 53.810 59.183 C 54.178 62.371, 51.306 64.366, 47.663 63.451 C 44.693 62.706, 38.471 65.219, 37.231 67.665 C 36.178 69.742, 36.490 93.779, 37.711 104.731 C 38.741 113.968, 40.657 116.141, 48.332 116.778 C 52.918 117.158, 53.960 117.618, 54.896 119.672 C 56.151 122.426, 55.075 125.374, 52.446 126.382 C 51.561 126.722, 48.130 127, 44.823 127 C 35.529 127, 30.081 131.545, 32.949 136.905 C 34.372 139.563, 37.887 140.151, 45.719 139.040 C 57.219 137.409, 57.407 137.583, 58.451 150.827 C 58.768 154.857, 59.719 159.489, 60.562 161.120 C 62.526 164.918, 66.332 166.799, 68.467 165.027 C 70.495 163.344, 73 154.694, 73 149.374 C 73 146.373, 73.678 144.323, 75.290 142.449 C 77.300 140.113, 78.716 139.660, 86.862 138.751 C 98.666 137.433, 99.317 137.910, 99.114 147.746 C 98.997 153.441, 99.316 154.976, 100.914 156.423 C 102.163 157.552, 103.601 157.944, 104.939 157.519 C 107.164 156.813, 109.980 152.268, 110.031 149.300 C 110.049 148.310, 111.399 144.811, 113.031 141.525 C 114.664 138.239, 116 134.811, 116 133.906 C 116 131.516, 119.824 119.917, 121.131 118.342 C 121.828 117.502, 124.413 117, 128.040 117 C 131.612 117, 135.623 116.233, 138.500 115 C 141.066 113.900, 143.786 113, 144.544 113 C 148.179 113, 149.025 133.261, 145.608 138.476 C 144.763 139.765, 141.580 141.961, 138.536 143.355 C 135.491 144.749, 132.948 146.477, 132.885 147.195 C 132.088 156.228, 138.484 159.949, 148.789 156.446 C 155.122 154.294, 157.037 151.884, 158.164 144.649 C 158.606 141.817, 159.357 137.628, 159.833 135.339 C 160.909 130.169, 160.298 93.370, 159.018 86.272 C 158.489 83.335, 158.347 72.301, 158.693 61.103 C 159.354 39.757, 158.859 36.408, 154.649 33.731 C 152.996 32.681, 147.689 32.387, 131.663 32.458 C 112.074 32.544, 110.687 32.674, 108.501 34.621 L 106.176 36.692 106.614 58.596 C 106.855 70.643, 107.119 83.650, 107.200 87.500 C 107.413 97.570, 105.351 120.893, 103.884 125 C 101.695 131.133, 100.502 131.568, 96.594 127.661 C 94.700 125.766, 92.554 124.011, 91.825 123.759 C 90.829 123.415, 91.237 121.838, 93.470 117.401 C 96.257 111.863, 96.423 110.884, 96.156 101.500 C 96 96, 95.759 86.775, 95.620 81 C 95.481 75.225, 95.004 69.693, 94.560 68.707 C 93.063 65.381, 86.633 63, 79.147 63 C 71.720 63, 70.120 61.924, 72.568 58.576 C 73.782 56.916, 74.879 56.805, 83.815 57.438 C 92.504 58.054, 93.932 57.926, 95.469 56.388 C 96.833 55.024, 97.088 53.659, 96.619 50.235 C 95.863 44.722, 95.467 44.100, 91.710 42.520 C 89.644 41.651, 87.667 41.522, 85.586 42.119 C 83.896 42.603, 80.398 43, 77.813 43 C 71.840 43, 69.818 40.629, 70.636 34.587 C 71.101 31.153, 70.815 30.172, 68.845 28.450 C 67.519 27.290, 65.531 26.559, 64.270 26.767 M 122.441 47.421 C 120.771 48.644, 120.500 50.088, 120.500 57.769 C 120.500 69.886, 120.622 70, 133.500 70 C 140.510 70, 144.068 69.604, 144.743 68.750 C 147.569 65.176, 146.305 52.018, 142.774 48.260 C 140.907 46.273, 139.670 46, 132.517 46 C 127.063 46, 123.742 46.468, 122.441 47.421 M 60.507 76.072 C 55.120 76.696, 53.105 77.388, 51.730 79.085 C 50.230 80.938, 50.151 81.594, 51.232 83.222 C 52.368 84.934, 53.984 85.196, 65.260 85.493 C 77.916 85.827, 78.009 85.813, 78.593 83.487 C 79.570 79.592, 78.222 77.383, 74.115 76.153 C 71.999 75.519, 69.645 75.059, 68.884 75.131 C 68.123 75.204, 64.353 75.627, 60.507 76.072 M 123.387 84.802 C 119.314 85.383, 117.844 92.298, 120.461 98.561 L 121.922 102.058 131.211 102.092 C 136.320 102.111, 141.571 102.142, 142.881 102.161 C 146.013 102.206, 146.966 100.496, 146.985 94.797 C 147.001 89.768, 145.373 85.040, 143.589 84.937 C 138.639 84.651, 125.078 84.560, 123.387 84.802 M 68.500 95.046 C 65.750 96.120, 62.067 96.999, 60.315 96.999 C 56.634 97, 52.427 98.430, 50.534 100.323 C 49.447 101.410, 49.535 102.058, 51.043 104.057 C 52.830 106.426, 53.128 106.469, 65.683 106.162 C 82.242 105.757, 84.906 103.893, 79.750 96.319 C 77.149 92.497, 75.503 92.311, 68.500 95.046 M 75.500 116.201 C 71.730 118.349, 69.047 122.220, 70.041 124.076 C 72.317 128.330, 80.720 128.288, 85.839 123.996 C 87.804 122.349, 87.964 121.812, 86.839 120.640 C 86.103 119.873, 84.838 118.290, 84.029 117.123 C 82.411 114.787, 78.687 114.385, 75.500 116.201" stroke="none" fill="black" fill-rule="evenodd"/>
</svg>