<svg xmlns="http://www.w3.org/2000/svg" width="256" height="256" viewBox="0 0 256 256" version="1.1">
	<path d="M 92.881 27.007 C 91.232 27.970, 89.616 31.407, 88.594 36.123 C 87.634 40.551, 83.820 41.373, 67.699 40.628 C 45.610 39.607, 39.979 41.196, 40.015 48.441 C 40.041 53.576, 41.148 54.413, 46.651 53.457 C 54.603 52.075, 63.746 52.119, 69.805 53.567 C 72.937 54.316, 77.442 54.945, 79.816 54.964 C 85.400 55.010, 88 56.451, 88 59.500 C 88 62.498, 84.851 64.352, 80.775 63.754 C 79.127 63.512, 75.241 63.911, 72.139 64.641 C 69.038 65.371, 64.862 65.976, 62.861 65.984 C 57.436 66.008, 55.081 68.494, 54.501 74.808 C 54.232 77.727, 53.114 83.635, 52.016 87.937 C 50.418 94.195, 50.234 96.431, 51.096 99.129 C 54.214 108.898, 55.143 109.849, 62.371 110.667 C 64.642 110.924, 66.650 111.554, 66.833 112.067 C 67.017 112.580, 67.726 113, 68.409 113 C 69.092 113, 70.643 114.056, 71.856 115.347 L 74.060 117.693 72.020 122.453 C 69.681 127.909, 62.012 135.322, 55.090 138.817 C 46.467 143.171, 42.999 146.063, 43.015 148.886 C 43.049 154.683, 43.619 154.792, 57.595 151.673 C 68.799 149.172, 78.881 140.543, 83.232 129.729 C 84.389 126.853, 85.776 124.050, 86.315 123.500 C 86.960 122.840, 87.053 122.925, 86.588 123.750 C 86.116 124.586, 86.647 125.026, 88.191 125.079 C 89.461 125.122, 89.955 125.379, 89.288 125.650 C 88.508 125.966, 89.131 127.173, 91.038 129.037 C 93.968 131.901, 94 132.053, 94 142.998 C 94 156.141, 95.325 160.438, 99.642 161.290 C 103.216 161.995, 106.946 159.730, 107.156 156.727 C 107.241 155.502, 107.354 150.225, 107.406 145 C 107.498 135.741, 107.561 135.491, 109.921 135.158 C 111.252 134.970, 114.177 135.729, 116.421 136.845 C 118.664 137.960, 122.691 139.808, 125.368 140.952 C 128.045 142.095, 131.081 144.105, 132.115 145.419 C 135.035 149.131, 143.034 154, 146.213 154 C 150.923 154, 153.505 150.558, 153.115 144.801 C 152.975 142.730, 141.638 134.549, 137.552 133.569 C 135.930 133.180, 132.270 130.511, 129.419 127.636 C 126.567 124.762, 123.169 121.914, 121.867 121.307 C 119.607 120.254, 119.761 120.087, 125.279 117.602 C 128.457 116.171, 131.494 115, 132.029 115 C 132.563 115, 133.787 114.302, 134.750 113.448 C 135.713 112.595, 137.515 111.133, 138.756 110.198 C 141.707 107.976, 143.442 95.622, 142.768 81.625 C 142.315 72.212, 142.131 71.516, 139.553 69.460 C 136.752 67.227, 125.204 64.711, 112.035 63.464 C 108.479 63.127, 105.277 62.671, 104.919 62.450 C 103.613 61.643, 105.314 56.841, 107.378 55.506 C 108.897 54.524, 115.331 53.936, 130 53.437 C 141.275 53.054, 151.287 52.333, 152.250 51.835 C 153.272 51.306, 153.994 49.801, 153.985 48.215 C 153.966 44.860, 153.084 43.451, 150.500 42.649 C 147.409 41.689, 122.457 39.917, 113.370 40.012 C 104.033 40.110, 102 38.946, 102 33.501 C 102 31.067, 101.276 29.576, 99.365 28.073 C 96.461 25.788, 95.295 25.596, 92.881 27.007 M 65.750 78.105 C 63.742 79.246, 63.431 83.031, 65.200 84.800 C 65.889 85.489, 69.190 86, 72.957 86 C 76.563 86, 81.002 86.427, 82.822 86.949 C 88.805 88.665, 94.050 84.399, 91.862 79.596 C 90.765 77.189, 90.489 77.136, 79.120 77.123 C 72.729 77.116, 66.713 77.558, 65.750 78.105 M 107 78.729 C 103.877 79.918, 103.313 82.170, 105.571 84.429 C 107.800 86.657, 124.602 86.668, 127.777 84.443 C 130.412 82.598, 130.535 81.678, 128.429 79.571 C 127.215 78.358, 124.767 78.018, 117.679 78.079 C 112.630 78.122, 107.825 78.415, 107 78.729 M 68.250 98.491 C 64.594 100.080, 64.186 101.813, 66.750 104.853 C 68.414 106.826, 68.803 106.863, 74.669 105.605 C 78.184 104.851, 81.411 104.645, 82.169 105.126 C 82.901 105.590, 84.854 105.976, 86.509 105.985 C 90.499 106.005, 92.452 103.087, 90.831 99.528 C 89.720 97.089, 89.358 97.001, 80.589 97.039 C 75.044 97.063, 70.233 97.629, 68.250 98.491 M 105.146 99.873 L 103.055 101.687 105.347 103.594 C 107.988 105.790, 108.892 106.061, 114.922 106.465 C 119.939 106.801, 124.104 105.817, 127.738 103.436 C 130.055 101.918, 130.115 101.686, 128.581 100.151 C 126.016 97.585, 108.030 97.372, 105.146 99.873" stroke="none" fill="black" fill-rule="evenodd"/>
</svg>