<svg xmlns="http://www.w3.org/2000/svg" width="256" height="256" viewBox="0 0 256 256" version="1.1">
	<path d="M 55.979 26.816 C 54.147 28.299, 53.599 30.087, 52.989 36.566 C 51.779 49.411, 50.879 50.213, 41.461 46.835 C 35.519 44.704, 35.134 44.682, 32.624 46.327 C 31.076 47.341, 30 48.971, 30 50.301 C 30 54.343, 32.544 56.580, 38.685 57.941 C 47.739 59.947, 48.146 60.315, 47.616 66.021 C 47.102 71.557, 46.470 73, 44.560 73 C 43.832 73, 41.826 74.443, 40.101 76.208 C 37.814 78.547, 37.017 80.238, 37.156 82.458 C 37.381 86.057, 35.198 90.558, 31.595 93.924 C 30.168 95.258, 29 97.193, 29 98.224 C 29 99.255, 28.371 101.316, 27.602 102.802 C 26.106 105.696, 26.276 109.758, 28.172 116.374 C 28.822 118.643, 29.268 120.856, 29.163 121.291 C 28.804 122.781, 31.070 126, 32.478 126 C 34.644 126, 37.282 121.798, 35.735 120.815 C 34.979 120.335, 34.922 120.025, 35.589 120.015 C 37.415 119.990, 39.317 114.906, 40.578 106.678 C 41.829 98.523, 44.038 94.926, 47.708 95.070 C 49.288 95.132, 49.264 95.242, 47.500 96 C 45.728 96.762, 45.813 96.867, 48.250 96.930 C 50.954 96.999, 51.649 98.458, 51.058 102.824 C 50.959 103.552, 51.372 104.743, 51.975 105.470 C 53.458 107.257, 54.162 130.419, 52.937 137.129 C 50.774 148.984, 50.733 150.582, 52.508 154.084 C 56.332 161.630, 64.054 164.619, 66.065 159.330 C 66.623 157.862, 67.043 154.375, 66.998 151.580 C 66.304 108.287, 65.615 98.616, 63.114 97.070 C 62.438 96.653, 62.500 95.643, 63.298 94.069 C 65.551 89.622, 67.187 89.431, 74.342 92.779 C 81.659 96.203, 82.522 95.900, 82.164 90.038 C 81.668 81.908, 79.008 75.776, 73.839 70.846 C 71.094 68.229, 67.983 65.812, 66.924 65.476 C 65.866 65.140, 65 63.996, 65 62.933 C 65 61.263, 65.729 61, 70.365 61 C 77.274 61, 81.501 58.131, 80.495 54.124 C 79.557 50.388, 78.470 49.368, 72.332 46.464 L 66.868 43.879 67.135 36.034 C 67.319 30.653, 66.987 27.689, 66.079 26.595 C 64.300 24.452, 58.748 24.574, 55.979 26.816 M 90.580 32.912 C 89.338 34.284, 88.547 37.818, 87.834 45.170 C 86.655 57.327, 86.700 61.398, 88.055 65.599 C 89.323 69.528, 89.635 85.389, 88.535 90 C 87.503 94.321, 87.487 96.515, 88.453 101 C 88.868 102.925, 89.590 115.075, 90.058 128 C 90.735 146.685, 91.248 152.146, 92.560 154.654 C 94.634 158.616, 98.147 159.457, 100.661 156.594 C 102.333 154.690, 102.500 152.398, 102.500 131.333 C 102.500 110.906, 102.920 105.548, 104.402 107.083 C 104.623 107.312, 104.961 108.625, 105.152 110 C 105.343 111.375, 105.849 112.759, 106.276 113.075 C 106.703 113.392, 107.333 116.013, 107.674 118.899 C 108.487 125.756, 110.903 127.486, 119.343 127.252 C 122.672 127.159, 125.869 127.453, 126.448 127.904 C 128.226 129.290, 132.870 130.071, 135.464 129.420 C 139.392 128.434, 139.475 127.942, 140.299 100.624 C 140.663 88.535, 140.553 87.592, 138.505 85.211 C 136.390 82.752, 136.112 82.703, 129.396 83.612 C 125.586 84.128, 120.451 84.189, 117.985 83.748 C 112.135 82.701, 107.400 83.591, 105.669 86.062 C 104.455 87.795, 104.126 87.857, 103.042 86.550 C 100.832 83.887, 100.250 78.554, 101.502 72.428 C 102.698 66.576, 102.689 64.351, 101.428 54.461 C 100.534 47.446, 101.679 46.692, 112.749 47.002 C 131.367 47.522, 140.619 47.410, 143.590 46.628 C 146.449 45.875, 146.786 46.064, 148.090 49.157 C 149.652 52.859, 149.924 82.200, 148.525 96 C 148.107 100.125, 147.811 103.950, 147.867 104.500 C 148.908 114.649, 149.660 133.632, 149.104 135.732 C 148.446 138.217, 144.927 140.883, 141.648 141.382 C 137.527 142.009, 136.899 145.921, 139.957 151.915 C 142.250 156.410, 145.009 157.292, 152.500 155.921 C 160.059 154.539, 161.600 152.201, 162.437 140.840 C 162.815 135.703, 162.638 122.950, 162.043 112.500 C 161.302 99.508, 161.277 90.496, 161.963 84 C 163.242 71.876, 163.298 39.913, 162.045 36.617 C 161.519 35.235, 160 33.391, 158.670 32.519 C 156.634 31.185, 155.556 31.119, 151.875 32.105 C 145.057 33.930, 134.388 34.322, 124 33.130 C 118.775 32.530, 109.510 31.802, 103.412 31.512 C 93.348 31.033, 92.163 31.162, 90.580 32.912 M 112.319 59.059 C 106.104 60.349, 104.537 64.089, 107.901 69.606 C 110.039 73.111, 112.288 73.699, 127.069 74.615 C 135.026 75.108, 136.035 74.965, 137.921 73.079 C 140.458 70.542, 140.573 66.654, 138.248 62 L 136.500 58.500 126 58.449 C 120.225 58.422, 114.069 58.696, 112.319 59.059 M 102 89.378 C 102 89.585, 102.675 90.315, 103.500 91 C 104.729 92.020, 105 91.951, 105 90.622 C 105 89.730, 104.325 89, 103.500 89 C 102.675 89, 102 89.170, 102 89.378 M 47 93 L 44.500 93.801 47.250 93.900 C 48.763 93.955, 50 93.550, 50 93 C 50 92.450, 49.888 92.045, 49.750 92.100 C 49.612 92.155, 48.375 92.560, 47 93 M 102.750 93.662 C 103.438 93.940, 104 94.767, 104 95.500 C 104 96.233, 103.438 97.034, 102.750 97.280 C 102.063 97.525, 101.818 98.068, 102.207 98.487 C 102.596 98.905, 103.553 99.002, 104.333 98.702 C 106.329 97.936, 105.271 92.976, 103.133 93.079 C 102.097 93.129, 101.957 93.342, 102.750 93.662 M 119.084 95.843 C 118.011 97.849, 118.303 113.440, 119.466 116.212 C 120.433 118.516, 123.752 119.451, 125.580 117.934 C 126.440 117.220, 127.015 115.189, 126.948 113.101 C 126.884 111.121, 127.145 106.748, 127.527 103.384 C 128.171 97.715, 128.052 97.150, 125.888 95.634 C 122.823 93.487, 120.304 93.564, 119.084 95.843" stroke="none" fill="black" fill-rule="evenodd"/>
</svg>