<svg xmlns="http://www.w3.org/2000/svg" width="256" height="256" viewBox="0 0 256 256" version="1.1">
	<path d="M 51.402 29.905 C 45.061 32.785, 44.180 36.920, 49.250 40.011 C 51.701 41.506, 54.287 41.993, 59.775 41.996 C 66.586 42, 67.109 41.843, 67.986 39.537 C 70.081 34.025, 64.988 27.969, 58.300 28.022 C 56.760 28.034, 53.656 28.881, 51.402 29.905 M 86.796 30.610 C 84.311 31.939, 82.084 35.689, 82.035 38.628 C 81.982 41.837, 84.587 43.361, 90.526 43.597 C 97.135 43.859, 98 44.368, 98 47.994 C 98 52.188, 96.405 55.713, 93.901 57.053 C 92.065 58.036, 90.773 57.782, 85.995 55.498 C 80.463 52.853, 80.201 52.822, 77.642 54.499 C 72.755 57.701, 74.935 63.904, 82.084 67.135 C 89.627 70.544, 89.644 76.675, 82.123 81.422 C 77.596 84.280, 77.279 84.676, 76.623 88.296 C 76.319 89.974, 76.816 91.786, 77.971 93.213 C 79.646 95.281, 80.093 95.368, 83.222 94.237 C 86.815 92.937, 91.273 92.606, 92.234 93.567 C 93.118 94.451, 90.981 101.207, 88.885 104.157 C 87.147 106.602, 86.247 106.870, 77.600 107.518 C 68.473 108.202, 65.656 107.817, 57.750 104.805 C 56.237 104.229, 55 103.137, 55 102.379 C 55 101.620, 54.517 101, 53.927 101 C 53.338 101, 53.788 99.814, 54.927 98.365 C 56.067 96.916, 57 95.002, 57 94.112 C 57 93.222, 58.530 90.341, 60.401 87.710 C 64.451 82.014, 65.342 79.030, 64.026 75.569 C 62.708 72.103, 58.826 72.134, 56.073 75.635 C 54.933 77.084, 54 78.801, 54 79.450 C 54 80.099, 52.445 81.371, 50.545 82.277 C 43.241 85.760, 41.951 95.578, 48.394 98.651 C 52.676 100.693, 52.300 104.128, 47.607 105.825 C 42.907 107.525, 38.641 112.293, 39.474 114.917 C 40.556 118.326, 45.115 120.015, 52.695 119.814 C 60.792 119.599, 69.894 121.211, 71.039 123.062 C 71.580 123.939, 70.950 125.170, 69.179 126.693 C 67.706 127.961, 66.155 128.998, 65.734 128.999 C 65.312 128.999, 64.209 130.590, 63.282 132.534 C 61.579 136.106, 54.846 140.576, 47.533 142.989 C 42.551 144.633, 40.637 147.251, 41.408 151.363 C 42.055 154.812, 43.505 156, 47.066 156 C 49.206 156, 60.480 150.754, 62.914 148.626 C 63.786 147.864, 67.152 145.957, 70.393 144.388 C 81.654 138.937, 84.835 133.357, 79.500 128.412 C 76.558 125.686, 76.337 124.177, 78.750 123.306 C 79.713 122.959, 81.625 121.916, 83 120.989 C 86.869 118.382, 89.713 118.016, 91.833 119.855 C 93.595 121.383, 93.715 122.873, 93.461 140.003 C 93.146 161.232, 93.613 163, 99.538 163 C 104.782 163, 106.917 158.906, 106.895 148.892 C 106.885 144.644, 107.373 139.330, 107.977 137.084 C 108.935 133.528, 109.442 133, 111.904 133 C 113.458 133, 115.803 133.828, 117.115 134.840 C 118.427 135.852, 122.200 138.144, 125.500 139.935 C 128.800 141.726, 131.950 143.524, 132.500 143.931 C 133.050 144.339, 135.975 145.397, 139 146.283 C 155.586 151.142, 158.137 147.498, 146.419 135.681 C 140.857 130.072, 133.140 125.034, 130.008 124.968 C 128.477 124.936, 125 122.709, 125 121.761 C 125 121.476, 126.350 120.683, 128 120 C 129.650 119.317, 131 118.362, 131 117.879 C 131 116.678, 136.696 116.767, 139.006 118.003 C 140.736 118.929, 147.703 117.710, 153.138 115.529 C 154.519 114.975, 156 111.027, 156 107.901 C 156 104.644, 136.962 101.849, 135.108 104.833 C 134.083 106.481, 119.813 107.122, 115.657 105.707 C 110.489 103.948, 95.466 93.016, 98.173 92.985 C 99.163 92.973, 99.196 92.776, 98.303 92.208 C 97.513 91.706, 97.423 90.945, 98.037 89.974 C 98.550 89.163, 98.976 86.742, 98.985 84.594 C 98.995 82.056, 99.823 79.606, 101.352 77.594 C 106.313 71.067, 110.989 58.738, 111.014 52.120 C 111.036 46.088, 111.976 44.163, 115.461 43.013 C 117.749 42.258, 119.533 42.252, 121.483 42.994 L 124.254 44.047 123.549 53.274 C 122.012 73.378, 121.409 76.096, 116.815 83.636 C 113.747 88.670, 111.384 94.115, 111.449 96 C 111.538 98.599, 116.737 98.344, 121.584 95.504 C 126.097 92.859, 132 85.935, 132 83.285 C 132 82.507, 132.915 79.744, 134.033 77.146 C 136.542 71.312, 138.675 70.924, 144.648 75.213 C 147.781 77.464, 150.162 78.350, 153.241 78.413 L 157.500 78.500 157.390 74.792 C 157.248 70.016, 151.031 61.604, 145.569 58.796 C 139.767 55.813, 138.330 53.478, 137.704 46.013 C 137.003 37.645, 135.546 34.504, 131.078 31.725 C 127.701 29.625, 126.414 29.500, 108.186 29.500 C 95.947 29.500, 88.112 29.907, 86.796 30.610 M 40.500 47.945 C 33.149 50.954, 32.870 62, 40.144 62 C 48.088 62, 51.732 51.603, 45.043 48.023 C 42.868 46.859, 43.143 46.864, 40.500 47.945 M 109.170 122.874 C 108.414 123.353, 107.982 124.966, 108.170 126.609 C 108.451 129.074, 108.991 129.547, 111.836 129.820 C 115.317 130.153, 121.980 126.582, 121.993 124.375 C 122.005 122.367, 111.846 121.177, 109.170 122.874" stroke="none" fill="black" fill-rule="evenodd"/>
</svg>