<svg xmlns="http://www.w3.org/2000/svg" width="256" height="256" viewBox="0 0 256 256" version="1.1">
	<path d="M 57.724 26.250 C 55.043 28.270, 53.001 34.506, 52.985 40.718 C 52.968 47.526, 51.316 51.376, 48.220 51.820 C 46.994 51.996, 43.448 51.189, 40.340 50.026 C 36.927 48.749, 34.326 48.274, 33.774 48.826 C 32.430 50.170, 33.964 57, 35.611 57 C 36.375 57, 37 57.420, 37 57.933 C 37 58.446, 37.918 59.157, 39.041 59.513 C 42.826 60.714, 48.677 67.624, 49.348 71.687 C 50.257 77.190, 50.162 78, 48.607 78 C 47.841 78, 46.948 78.694, 46.622 79.543 C 46.174 80.709, 45.575 80.843, 44.168 80.090 C 41.920 78.887, 40.015 80.411, 39.969 83.450 C 39.928 86.152, 36.034 92.399, 32.809 94.935 C 31.397 96.046, 29.999 97.978, 29.703 99.227 C 29.406 100.477, 28.443 103.444, 27.562 105.821 C 26.262 109.330, 26.170 110.926, 27.074 114.321 C 28.677 120.344, 30.490 122.074, 33.939 120.872 C 35.465 120.340, 37.172 118.913, 37.732 117.702 C 40.100 112.584, 41 109.762, 41 107.453 C 41 106.104, 41.400 105, 41.889 105 C 42.377 105, 43.077 103.401, 43.444 101.447 C 44.618 95.187, 50.263 95.690, 50.627 102.088 C 50.734 103.965, 51.308 107.689, 51.902 110.365 C 53.146 115.967, 53.333 136.589, 52.193 142.500 C 51.183 147.740, 52.472 155.812, 54.825 158.979 C 56.784 161.617, 61.425 162.722, 63.862 161.132 C 66.086 159.681, 66.885 152.130, 65.867 142.183 C 65.245 136.100, 65.262 130.350, 65.917 125.645 C 66.676 120.188, 66.596 117.040, 65.591 112.716 C 64.860 109.572, 64.484 107, 64.754 107 C 65.024 107, 64.781 106.437, 64.213 105.750 C 62.613 103.811, 62.417 96.408, 63.917 94.600 C 67.442 90.353, 79.714 95.051, 81.574 101.359 C 82.403 104.171, 82.949 104.532, 86.792 104.810 L 91.085 105.119 86.680 101.060 C 84.258 98.827, 81.652 96.986, 80.888 96.970 C 79.927 96.949, 80.038 96.626, 81.250 95.920 C 83.385 94.676, 83.436 93.360, 81.494 89.636 C 80.672 88.060, 80 86.186, 80 85.471 C 80 83.172, 70.756 73, 68.666 73 C 67.490 73, 65 67.743, 65 65.258 C 65 64.654, 66.350 63.898, 68 63.579 C 69.650 63.261, 72.355 62.738, 74.010 62.418 C 80.651 61.135, 82.183 55.302, 76.750 51.989 C 74.963 50.899, 72.713 50.006, 71.750 50.004 C 70.788 50.002, 69.071 49.071, 67.936 47.936 C 66.169 46.169, 65.966 45.117, 66.527 40.631 C 67.865 29.918, 63.127 22.177, 57.724 26.250 M 106.625 30.285 C 105.582 31.048, 104.666 33.386, 104.372 36.035 C 103.277 45.896, 102.777 46.473, 94.457 47.471 C 86.405 48.438, 81.859 55.003, 87.250 57.879 C 88.487 58.539, 90.561 59.689, 91.857 60.435 C 93.941 61.634, 94.846 61.502, 99.656 59.300 C 104.738 56.973, 105.399 56.897, 109.627 58.145 C 115.414 59.854, 116.163 60.841, 116.348 67.005 C 116.527 72.956, 116.206 73.244, 106.843 75.539 C 97.425 77.846, 96.569 78.638, 97.410 84.249 C 97.807 86.893, 98.730 89.066, 99.599 89.400 C 100.426 89.717, 102.017 92.046, 103.136 94.575 C 104.837 98.419, 104.979 99.637, 104.003 101.992 C 102.738 105.047, 100.597 105.965, 94.687 105.986 C 90.994 106, 90.883 106.102, 91.187 109.227 C 91.578 113.254, 94.604 114.953, 101.500 115.017 C 108.756 115.085, 112.815 119.174, 111.609 125.203 C 111.219 127.154, 111.525 128.668, 112.509 129.652 C 114.134 131.277, 114.573 137, 113.071 137 C 112.561 137, 111.477 137.666, 110.664 138.479 C 109.850 139.293, 107.006 140.473, 104.342 141.103 C 94.579 143.410, 92.908 145.010, 93.814 151.184 C 94.372 154.988, 97.329 156.181, 102 154.486 C 103.925 153.787, 108.650 152.214, 112.500 150.991 C 116.350 149.767, 120.175 148.195, 121 147.497 C 121.825 146.800, 124.300 146.025, 126.500 145.777 C 130.104 145.369, 130.859 145.704, 134.134 149.162 C 136.132 151.273, 138.086 153, 138.476 153 C 138.866 153, 140.329 153.900, 141.727 155 C 146.334 158.624, 156.130 156.784, 159.484 151.665 C 160.385 150.289, 161.150 147.240, 161.182 144.888 C 161.267 138.758, 158.341 136.521, 151.503 137.487 C 142.395 138.773, 141.001 138.810, 140.364 137.780 C 140.017 137.219, 141.146 135.654, 142.873 134.302 C 147.469 130.706, 148.267 128.706, 146.995 123.982 C 145.557 118.641, 146.648 116.959, 153.172 114.457 C 157.863 112.658, 158.536 112.044, 158.805 109.322 C 159.060 106.729, 158.558 105.890, 155.687 104.115 C 153.804 102.952, 151.305 102, 150.132 102 C 148.959 102, 147.090 101.090, 145.977 99.977 C 144.280 98.280, 144.143 97.595, 145.127 95.727 C 146.730 92.682, 147.519 92.291, 153.578 91.534 C 158.258 90.949, 158.963 90.546, 159.872 87.938 C 161.111 84.383, 159.668 79.428, 156.974 77.986 C 155.975 77.452, 153.435 76.760, 151.329 76.449 C 143.320 75.266, 142.772 74.722, 145.923 71.089 C 146.981 69.869, 148.135 67.160, 148.489 65.068 C 149.043 61.789, 149.777 60.936, 153.816 58.882 C 157.520 56.998, 158.568 55.903, 158.826 53.646 C 159.235 50.074, 156.079 46.500, 151.103 44.899 C 146.213 43.325, 145.026 42.226, 142.927 37.329 C 140.608 31.919, 136.840 29.296, 133.546 30.797 C 129.987 32.419, 129.384 35.675, 131.990 39.200 L 134.187 42.172 131.919 44.586 C 128.904 47.796, 121.506 47.973, 117.635 44.927 C 115.374 43.149, 115 42.094, 115 37.499 C 115 29.994, 111.338 26.839, 106.625 30.285 M 121.898 81.372 C 118.639 83.009, 114.729 90.866, 115.616 93.996 C 116.006 95.373, 116.234 97.057, 116.122 97.739 C 115.384 102.217, 121.235 104.812, 128.500 103.229 C 131.953 102.477, 132.462 102.026, 132.221 99.929 C 132.067 98.593, 131.511 97.352, 130.985 97.172 C 130.446 96.986, 130.677 95.591, 131.515 93.971 C 133.268 90.580, 133.303 88.680, 131.694 84.111 C 130.709 81.316, 129.943 80.680, 127.322 80.483 C 125.574 80.351, 123.133 80.751, 121.898 81.372 M 126.074 115.933 C 123.907 117.305, 123.698 120.970, 125.751 121.605 C 126.713 121.903, 128.181 122.500, 129.012 122.933 C 130.766 123.846, 134.941 122.548, 135.125 121.032 C 135.194 120.465, 135.318 119.438, 135.401 118.750 C 135.759 115.777, 129.370 113.847, 126.074 115.933" stroke="none" fill="black" fill-rule="evenodd"/>
</svg>