<svg xmlns="http://www.w3.org/2000/svg" width="256" height="256" viewBox="0 0 256 256" version="1.1">
	<path d="M 82.029 30.910 C 73.578 37.797, 72.147 38.185, 55.344 38.142 C 44.487 38.115, 42.836 38.341, 40.503 40.176 L 37.878 42.241 40.113 44.621 C 41.343 45.929, 43.058 47.010, 43.924 47.022 C 44.791 47.034, 47.413 47.912, 49.750 48.973 C 54.667 51.205, 54.962 52.590, 51.993 59.516 C 49.664 64.950, 50.468 67.818, 55.328 71.410 C 57.954 73.351, 59.220 73.476, 73.035 73.164 C 81.218 72.979, 88.495 73.193, 89.207 73.639 C 89.918 74.085, 91.617 74.603, 92.981 74.790 C 94.346 74.977, 95.802 75.664, 96.216 76.315 C 96.748 77.152, 96.974 77.167, 96.985 76.367 C 97.006 74.752, 100.779 74.025, 115 72.896 C 138.900 70.997, 140.507 70.810, 141.750 69.785 C 143.955 67.968, 143.107 65.359, 138.482 59.742 C 135.674 56.331, 134.190 53.668, 134.560 52.705 C 135.400 50.514, 141.159 48, 145.336 48 C 150.221 48, 153.629 46.527, 154.252 44.145 C 155.582 39.058, 146.524 35.948, 136.193 37.944 C 132.676 38.624, 126.991 38.652, 119.334 38.028 C 107.378 37.054, 105.058 36.234, 100 31.199 C 97.084 28.295, 91.986 25.009, 90.390 25.004 C 89.779 25.002, 86.016 27.659, 82.029 30.910 M 81.329 51.041 L 75.157 54.253 77.136 56.376 C 78.998 58.375, 80.082 58.500, 95.594 58.500 C 109.148 58.500, 112.244 58.234, 113.035 57 C 115.332 53.419, 114.070 52.510, 103.500 50.135 C 91.489 47.436, 87.980 47.580, 81.329 51.041 M 59.827 81.734 C 57.997 83.238, 56.222 84.855, 55.883 85.328 C 55.544 85.801, 52.291 85.869, 48.656 85.480 C 40.562 84.613, 37.639 85.266, 36.361 88.226 C 33.873 93.988, 37.647 96.140, 44.723 92.994 C 51.754 89.868, 54.423 90.089, 58.044 94.098 C 63.154 99.756, 63.962 101.394, 64.339 106.858 C 64.539 109.742, 65.242 112.641, 65.902 113.301 C 66.647 114.046, 70.586 114.531, 76.301 114.581 C 88.953 114.693, 89.708 114.796, 90.359 116.493 C 90.675 117.316, 90.005 118.849, 88.866 119.910 C 87.152 121.507, 85.854 121.737, 81.244 121.261 C 78.187 120.946, 73.657 119.918, 71.177 118.976 C 66.826 117.324, 66.548 117.334, 63.288 119.258 C 59.898 121.258, 59.249 121.264, 49.309 119.392 C 45.187 118.615, 41 122.409, 41 126.919 C 41 130.943, 43.268 132, 51.899 132 C 58.067 132, 59.071 132.263, 60.079 134.147 C 61.654 137.091, 59.675 143.512, 56.563 145.551 C 52.309 148.338, 52.347 153.421, 56.634 155.051 C 59.578 156.170, 68.738 154.547, 70.993 152.506 C 71.891 151.694, 73.386 148.617, 74.315 145.669 C 75.631 141.495, 77.095 139.390, 80.932 136.155 C 90.659 127.953, 94.167 131.342, 93.755 148.543 C 93.512 158.653, 93.615 159.261, 95.861 161.084 C 98.674 163.367, 100.926 163.509, 103.559 161.571 C 105.313 160.279, 105.475 159.036, 105.245 148.647 C 104.947 135.243, 105.582 133.939, 112.321 134.100 C 119.188 134.263, 121.202 135.270, 123.718 139.792 C 126.424 144.657, 133.878 151.944, 137.941 153.694 C 139.465 154.351, 141.695 154.631, 142.896 154.317 C 145.081 153.746, 148 149.368, 148 146.664 C 148 144.946, 141.288 138.226, 138.775 137.429 C 137.761 137.107, 137 135.891, 137 134.593 C 137 132.061, 139.569 130.530, 145.661 129.432 C 150.184 128.616, 152 127.375, 152 125.100 C 152 121.866, 148.567 120.291, 140.399 119.777 C 132.407 119.275, 126.995 117.582, 127.006 115.589 C 127.010 114.990, 128.360 113.733, 130.006 112.797 C 132.642 111.296, 133 110.550, 133 106.547 C 133 103.584, 132.564 101.995, 131.750 101.985 C 130.910 101.974, 130.852 101.729, 131.573 101.235 C 132.163 100.831, 132.905 99.794, 133.222 98.932 C 133.935 96.990, 143.769 94.653, 147.396 95.563 C 148.835 95.924, 151.585 95.925, 153.507 95.565 C 156.269 95.047, 156.988 94.448, 156.945 92.705 C 156.860 89.333, 152.222 86.434, 144.651 85.017 C 140.884 84.313, 135.797 82.670, 133.348 81.368 C 128.575 78.830, 124.541 78.316, 123.436 80.104 C 122.211 82.086, 114.592 84.956, 110.500 84.977 C 105.720 85.002, 95.493 81.452, 98.537 80.824 C 100.347 80.451, 100.325 80.371, 98.250 79.803 C 96.513 79.328, 96 79.604, 96 81.013 C 96 82.310, 94.586 83.309, 91.119 84.461 C 84.999 86.493, 76.462 85.360, 69.342 81.569 C 66.688 80.156, 64.209 79, 63.835 79 C 63.460 79, 61.656 80.230, 59.827 81.734 M 75.250 97.820 C 73.876 98.015, 73 98.834, 73 99.925 C 73 101.416, 74.178 101.809, 80.168 102.311 C 84.110 102.641, 88.047 102.495, 88.918 101.986 C 89.900 101.412, 90.026 101.049, 89.250 101.030 C 88.563 101.014, 88 100.334, 88 99.519 C 88 97.307, 83.286 96.678, 75.250 97.820 M 108.208 98.764 C 107.544 98.985, 107 99.765, 107 100.495 C 107 102.196, 113.636 103.347, 118.347 102.463 C 121.608 101.851, 121.790 101.648, 120.360 100.217 C 118.888 98.745, 111.070 97.810, 108.208 98.764 M 114.713 115.422 C 112.080 116.130, 109.718 116.775, 109.463 116.855 C 109.208 116.935, 108.438 117.007, 107.750 117.015 C 106.849 117.026, 106.886 117.275, 107.884 117.907 C 109.032 118.634, 117.997 118.789, 122.750 118.164 C 124.538 117.929, 124.296 115.327, 122.418 114.607 C 120.470 113.859, 120.561 113.850, 114.713 115.422" stroke="none" fill="black" fill-rule="evenodd"/>
</svg>