<svg xmlns="http://www.w3.org/2000/svg" width="256" height="256" viewBox="0 0 256 256" version="1.1">
	<path d="M 56.913 27.282 C 54.120 29.426, 53 32.719, 53 38.785 C 53 45.826, 51.493 50.709, 49.083 51.474 C 48.121 51.779, 45.402 51.347, 43.041 50.514 C 35.258 47.768, 31.729 49.131, 32.753 54.487 C 33.185 56.749, 36.586 58.726, 43.500 60.737 C 45.510 61.321, 47.099 62.816, 48.315 65.267 C 50.029 68.724, 50.036 69.121, 48.446 72.472 C 47.436 74.601, 45.412 76.660, 43.382 77.623 C 39.573 79.431, 39.598 79.380, 41.093 82.173 C 41.883 83.650, 41.883 84.517, 41.093 85.307 C 40.492 85.908, 40 87.982, 40 89.915 C 40 92.086, 39.235 94.208, 37.999 95.465 C 35.001 98.514, 28.473 107.260, 27.736 109.215 C 27.381 110.158, 27.720 113.942, 28.491 117.625 C 30.824 128.780, 34.043 129.638, 38.472 120.285 C 41.246 114.425, 41.798 112.300, 42.437 105 C 42.654 102.525, 42.869 100.211, 42.915 99.857 C 42.962 99.503, 43.708 98.942, 44.572 98.611 C 46.842 97.740, 50 99.740, 50 102.049 C 50 103.137, 50.406 104.809, 50.903 105.764 C 53.751 111.242, 54.854 133.242, 52.861 144.810 C 52.041 149.569, 52.073 152.191, 52.993 155.475 C 54.489 160.817, 58.859 165.300, 62.117 164.834 C 66.553 164.199, 67.174 161.024, 66.382 143 C 65.983 133.925, 65.591 122.225, 65.512 117 C 65.365 107.352, 63.512 97, 61.932 97 C 60.807 97, 61.881 93.992, 63.807 91.750 C 67.106 87.909, 78.738 90.588, 85 96.632 C 86.375 97.959, 89.075 100.348, 91 101.941 C 94.269 104.645, 94.425 105.034, 93.366 107.842 C 92.499 110.139, 92.579 114.108, 93.705 124.674 C 94.515 132.278, 95.299 141.890, 95.445 146.033 C 95.592 150.202, 96.321 154.541, 97.077 155.752 C 98.870 158.622, 102.813 159.400, 108.166 157.940 C 110.583 157.281, 120.461 156.667, 130.500 156.552 C 141.952 156.422, 149.292 155.921, 150.678 155.177 C 152.844 154.013, 153.886 149.053, 153.759 140.500 C 153.735 138.850, 154.065 133.422, 154.494 128.438 C 155.158 120.715, 155.008 118.819, 153.478 115.595 C 152.491 113.515, 150.630 111.333, 149.342 110.746 C 148.054 110.159, 147 109.359, 147 108.967 C 147 107.926, 123.979 107.859, 120.387 108.889 C 118.707 109.371, 116.673 109.397, 115.869 108.946 C 115.064 108.496, 111.052 107.825, 106.953 107.454 C 98.788 106.717, 97.631 106.216, 98.993 104.011 C 99.726 102.825, 102.097 102.598, 111.201 102.841 C 117.416 103.006, 126.325 103.509, 131 103.958 C 143.413 105.149, 156.572 104.511, 159.529 102.573 C 165.080 98.936, 163.521 92.209, 156.191 88.163 C 152.032 85.868, 151.964 85.744, 152.354 81.206 C 152.572 78.665, 152.168 74.767, 151.456 72.543 C 150.743 70.319, 149.784 67.174, 149.325 65.553 C 148.170 61.481, 143.274 58.908, 134.941 57.993 C 127.595 57.187, 125 55.884, 125 53 C 125 49.312, 127.775 48.500, 140.404 48.494 C 153.072 48.487, 156.006 47.725, 158.048 43.910 C 159.322 41.530, 157.392 37.815, 153.915 35.954 C 152.594 35.248, 141.870 34.671, 124.665 34.380 C 109.724 34.128, 96.171 33.891, 94.547 33.852 C 91.341 33.777, 88 36.914, 88 40 C 88 40.978, 88.851 42.830, 89.891 44.114 C 91.522 46.128, 92.865 46.502, 99.641 46.829 C 111.040 47.379, 114.248 51.089, 107.923 56.411 C 105.436 58.504, 103.801 59, 99.392 59 C 93.479 59, 92.296 60.058, 93.379 64.376 C 93.963 66.699, 96.596 68.205, 102.221 69.431 C 105.423 70.128, 106.918 72.530, 107.386 77.727 C 107.728 81.521, 106.642 84.848, 104.600 86.262 C 102.932 87.417, 87.801 85.972, 85.331 84.421 C 84.138 83.672, 82.168 81.293, 80.955 79.133 C 78.916 75.506, 75.633 73.052, 72.703 72.964 C 70.733 72.905, 66.288 68.679, 65.510 66.125 C 64.536 62.929, 66.206 62.034, 73.179 62.015 C 79.850 61.997, 82 60.419, 82 55.539 C 82 50.129, 79.165 47.626, 72.355 47.020 L 66.500 46.500 66.825 38.644 C 67.115 31.626, 66.910 30.533, 64.900 28.394 C 62.454 25.790, 59.409 25.366, 56.913 27.282 M 127.121 74.090 C 122.029 75.160, 119.257 76.966, 117.982 80.043 C 116.413 83.830, 118.091 86.748, 122.262 87.489 C 125.971 88.147, 136.832 87.502, 137.766 86.567 C 138.869 85.464, 138.944 82.595, 137.967 78.920 C 137.216 76.098, 136.325 75.133, 133.757 74.360 C 131.966 73.821, 128.979 73.700, 127.121 74.090 M 107.096 123.125 C 105.409 124.697, 104.968 125.935, 105.401 127.875 C 105.724 129.319, 106.281 132.658, 106.638 135.295 C 107.616 142.494, 108.757 142.945, 124.361 142.307 C 140.256 141.656, 142 140.895, 142 134.602 C 142 122.153, 140.325 121, 122.238 121 C 110.507 121, 109.177 121.187, 107.096 123.125" stroke="none" fill="black" fill-rule="evenodd"/>
</svg>