<svg xmlns="http://www.w3.org/2000/svg" width="256" height="256" viewBox="0 0 256 256" version="1.1">
	<path d="M 56.303 27.197 C 53.109 28.740, 51 33.992, 51 40.401 C 51 49.410, 47.233 51.782, 38.327 48.381 C 31.111 45.625, 26.670 48.372, 28.892 54.216 C 29.635 56.169, 31.393 57.192, 37.167 59.028 C 41.200 60.311, 44.831 61.842, 45.235 62.430 C 45.639 63.019, 45.968 66.200, 45.967 69.500 L 45.965 75.500 41.732 77.500 C 38.237 79.152, 37.547 79.935, 37.768 82 C 38.128 85.352, 34.926 90.317, 30.192 93.746 C 27.213 95.904, 26.473 96.999, 26.993 98.481 C 27.365 99.541, 27.072 101.554, 26.341 102.954 C 23.198 108.976, 26.490 118, 31.830 118 C 33.403 118, 35.378 117.212, 36.219 116.250 C 37.765 114.480, 39.794 108.755, 39.851 106 C 39.869 105.175, 40.100 103.600, 40.365 102.500 C 40.630 101.400, 40.881 99.713, 40.923 98.750 C 40.981 97.431, 41.862 97, 44.500 97 C 46.549 97, 48.065 97.518, 48.158 98.250 C 48.244 98.938, 48.521 101.075, 48.772 103 C 49.024 104.925, 49.290 117.107, 49.365 130.072 L 49.500 153.644 52.212 157.742 C 56.914 164.850, 61.802 164.352, 63.989 156.540 C 64.984 152.985, 65.004 151.078, 64.080 147.750 C 63.336 145.071, 63.011 137.770, 63.200 128 C 63.389 118.229, 62.996 109.409, 62.137 104.136 C 60.782 95.825, 60.788 95.757, 63.142 93.403 C 64.934 91.611, 66.726 90.995, 70.505 90.870 C 78.161 90.617, 80.001 89.630, 79.994 85.775 C 79.979 76.839, 75.516 70.147, 68.987 69.271 C 65.668 68.826, 65.206 68.483, 65.980 67.038 C 66.482 66.099, 68.487 64.244, 70.436 62.915 C 72.384 61.587, 74.637 59.150, 75.442 57.500 C 77.356 53.574, 75.972 51.396, 69.413 48.007 L 64.560 45.500 64.530 37.662 C 64.503 30.651, 64.251 29.623, 62.139 27.912 C 59.473 25.752, 59.329 25.735, 56.303 27.197 M 106.340 33.604 C 105.230 35.298, 104.409 39.328, 103.990 45.145 C 103.126 57.111, 101.979 58.286, 95.834 53.499 C 90.772 49.555, 88.750 49.648, 86.537 53.928 C 85.320 56.281, 85.366 57.104, 86.907 60.557 C 87.875 62.726, 88.949 66.252, 89.294 68.393 C 90.094 73.365, 93.512 77.160, 96.512 76.408 C 99.590 75.635, 101.754 78.175, 102.552 83.499 C 103.767 91.602, 100.880 97.397, 94.108 100.451 C 91.112 101.803, 89.570 103.384, 88.007 106.709 C 84.698 113.749, 86.078 115.573, 94.300 115.025 C 98.701 114.732, 99.601 116.152, 99.018 122.469 C 98.585 127.159, 98.098 128.278, 96.047 129.296 C 94.345 130.140, 92.869 132.503, 91.229 137.006 C 89.929 140.578, 88.259 144.628, 87.520 146.006 C 86.391 148.109, 86.395 149.035, 87.546 151.771 C 88.300 153.564, 89.611 155.297, 90.460 155.623 C 93.286 156.707, 97.109 154.975, 98.817 151.836 C 99.743 150.136, 101.906 146.645, 103.624 144.080 C 109.774 134.896, 112.416 127.760, 113.463 117.500 C 113.688 115.300, 114.349 111.380, 114.931 108.790 C 115.560 105.993, 115.755 99.085, 115.410 91.790 C 114.983 82.738, 115.208 78.051, 116.265 74 C 117.602 68.873, 117.692 60.001, 116.592 41.500 C 116.166 34.336, 116.157 34.300, 114.429 32.571 C 112.010 30.153, 108.290 30.627, 106.340 33.604 M 129.650 33.267 C 128.521 34.092, 127.788 36.274, 127.546 39.531 C 127.341 42.280, 126.670 47.304, 126.055 50.696 C 125.153 55.672, 125.248 58.820, 126.547 66.993 C 127.954 75.839, 127.998 79.045, 126.899 92.311 C 124.749 118.263, 124.980 125.241, 128.570 142.729 C 129.096 145.293, 137.884 152.100, 142.899 153.828 C 144.769 154.473, 149.381 155, 153.149 155 C 160.560 155, 163.056 153.614, 165.040 148.395 C 167.193 142.733, 164.809 132.026, 161.391 132.006 C 160.781 132.003, 157.752 133.350, 154.660 135 C 145.003 140.153, 142.316 138.821, 140.327 127.894 C 137.680 113.352, 137.549 110.156, 139.514 107.985 C 142.583 104.593, 149.820 106.181, 155.229 111.434 C 157.167 113.316, 159.595 115, 160.626 115.178 C 162.174 115.444, 162.553 114.773, 162.804 111.319 C 163.233 105.429, 159.965 100.725, 153.211 97.508 C 150.302 96.123, 146.394 93.460, 144.525 91.591 C 138.642 85.708, 138.745 77.412, 144.735 74.735 C 152.538 71.249, 161.485 64.259, 162.948 60.505 C 164.137 57.453, 162.210 53.330, 158.966 51.986 C 155.685 50.627, 151.807 51.577, 147.175 54.876 C 142.788 57.999, 141.350 56.340, 140.576 47.267 C 139.600 35.830, 139.179 34.402, 136.404 33.138 C 133.196 31.677, 131.788 31.704, 129.650 33.267 M 44.500 93 C 44.160 93.550, 44.359 94, 44.941 94 C 45.523 94, 46 93.550, 46 93 C 46 92.450, 45.802 92, 45.559 92 C 45.316 92, 44.840 92.450, 44.500 93" stroke="none" fill="black" fill-rule="evenodd"/>
</svg>