<svg xmlns="http://www.w3.org/2000/svg" width="256" height="256" viewBox="0 0 256 256" version="1.1">
	<path d="M 67.329 28.979 C 61.735 29.953, 54.250 31.062, 50.695 31.442 C 41.222 32.457, 37.523 36.523, 42 41 C 43.635 42.635, 45.333 43, 51.309 43 C 59.951 43, 62.627 44.366, 61.645 48.278 C 60.877 51.340, 58.665 52.188, 50.523 52.539 C 47.210 52.682, 44.197 52.844, 43.827 52.900 C 43.456 52.955, 41.769 54.165, 40.077 55.589 C 37.760 57.538, 37 59.012, 37 61.554 C 37 65.520, 38.387 66.496, 45.500 67.529 C 51.762 68.439, 54 69.578, 54 71.855 C 54 74.480, 50.268 77.282, 43.300 79.888 C 36.281 82.513, 34.515 84.124, 33.517 88.817 C 32.990 91.298, 33.253 92.622, 34.561 94.067 C 37.926 97.786, 44.590 96.198, 53.898 89.460 C 57.967 86.514, 57.719 86.531, 61.621 88.911 C 63.625 90.132, 65.763 92.974, 67.591 96.847 C 69.243 100.345, 71.398 103.316, 72.720 103.918 C 73.974 104.490, 75.045 104.629, 75.100 104.229 C 75.155 103.828, 75.309 101.287, 75.443 98.583 C 75.641 94.602, 76.221 93.206, 78.495 91.250 C 80.850 89.225, 81.885 88.959, 84.902 89.603 C 92.258 91.173, 95.278 90.715, 96.941 87.775 C 98.356 85.272, 98.326 84.761, 96.571 81.502 C 95.360 79.253, 93.715 77.762, 92.080 77.431 C 84.755 75.949, 82.087 74.782, 80.505 72.367 C 78.235 68.903, 79.618 68.040, 87.500 68.002 C 95.533 67.963, 97.911 67.202, 98.601 64.453 C 100.079 58.565, 95.558 54.628, 85.031 52.638 C 76.989 51.117, 76.282 50.659, 75.434 46.418 C 74.925 43.873, 75.222 43.220, 77.326 42.261 C 78.699 41.636, 81.549 40.812, 83.661 40.430 C 89.152 39.438, 91 38.244, 91 35.687 C 91 32.215, 88.308 29.180, 84.221 28.044 C 79.715 26.793, 79.962 26.779, 67.329 28.979 M 140.613 31.530 C 139.323 32.819, 139.108 36.470, 139.243 54.780 C 139.434 80.558, 138.820 83.767, 132.958 87.647 C 127.508 91.253, 127.713 93.736, 133.889 98.907 C 136.578 101.158, 139.627 103, 140.666 103 C 146.630 103, 151.407 94.353, 152.544 81.500 C 154.354 61.044, 152.117 34.021, 148.387 31.294 C 146.007 29.553, 142.483 29.660, 140.613 31.530 M 109.886 33.892 C 107.745 35.625, 107.653 36.408, 107.390 55.272 C 107.095 76.425, 106.959 75.855, 112.787 77.816 C 117.084 79.261, 120.742 77.874, 121.595 74.477 C 121.953 73.050, 121.750 67.072, 121.144 61.191 C 120.537 55.311, 119.802 47.922, 119.509 44.771 C 118.852 37.697, 117.473 34.537, 114.444 33.156 C 112.584 32.309, 111.655 32.459, 109.886 33.892 M 94.250 103.928 C 90.877 107.645, 90.125 108.792, 90.689 109.356 C 91.002 109.669, 90.143 110.433, 88.780 111.055 C 87.074 111.832, 84.449 111.904, 80.365 111.286 C 76.135 110.645, 73.003 110.759, 69.465 111.680 C 62.382 113.524, 55.114 113.501, 50.628 111.622 C 41.695 107.880, 35.838 110.396, 35.637 118.061 C 35.472 124.369, 37.372 125.298, 49 124.590 C 54.428 124.260, 62.786 124.548, 68.500 125.262 C 75.125 126.090, 79.762 126.198, 82.241 125.582 C 87.137 124.365, 90.554 126.133, 91.486 130.364 C 91.866 132.089, 92.339 139.350, 92.537 146.500 C 92.888 159.150, 92.970 159.562, 95.574 161.809 C 97.045 163.079, 98.905 163.867, 99.706 163.559 C 100.508 163.252, 101.747 163, 102.460 163 C 104.712 163, 106.257 157.505, 105.517 152.126 C 104.728 146.388, 106.675 141.098, 110.498 138.593 C 112.656 137.179, 113.100 137.258, 116.662 139.686 C 118.773 141.125, 122.878 142.928, 125.784 143.692 C 128.690 144.455, 135.419 147.592, 140.737 150.663 C 151.133 156.664, 156.741 158.222, 158.841 155.691 C 160.447 153.756, 158.387 148.451, 154.880 145.491 C 151.845 142.929, 139.448 134.788, 135.427 132.715 C 126.351 128.038, 129.813 124.634, 144.841 123.459 C 153.056 122.816, 154.261 122.478, 154.972 120.615 C 155.957 118.033, 154.143 115.748, 148.501 112.463 C 145.169 110.523, 142.911 110.100, 135 109.936 C 129.775 109.828, 122.045 110.080, 117.823 110.497 C 107.795 111.485, 105.544 110.823, 102.488 105.981 C 99.688 101.546, 97.016 100.880, 94.250 103.928 M 111.848 126.736 C 109.238 128.483, 109.222 128.562, 110.848 131.690 C 112.280 134.445, 112.767 134.721, 114.500 133.764 C 115.600 133.157, 117.228 131.836, 118.117 130.830 C 119.007 129.823, 120.341 129, 121.082 129 C 122.156 129, 122.133 128.710, 120.964 127.566 C 118.495 125.147, 114.734 124.805, 111.848 126.736 M 67.500 132.974 C 65.300 134.573, 61.190 137.261, 58.367 138.947 C 55.544 140.633, 52.677 142.685, 51.995 143.506 C 51.313 144.328, 49.717 145, 48.449 145 C 43.616 145, 41.848 150.277, 45.468 153.897 C 46.771 155.200, 47.829 155.232, 53.238 154.131 C 56.682 153.430, 61.750 151.819, 64.500 150.551 C 67.250 149.283, 71.602 147.491, 74.171 146.570 C 80.038 144.466, 80.962 143.334, 81.171 137.993 C 81.481 130.082, 74.835 127.643, 67.500 132.974" stroke="none" fill="black" fill-rule="evenodd"/>
</svg>