<svg xmlns="http://www.w3.org/2000/svg" width="256" height="256" viewBox="0 0 256 256" version="1.1">
	<path d="M 55.918 29.116 C 54.302 31.384, 53.492 34.444, 52.937 40.366 C 52.518 44.840, 51.863 49.288, 51.481 50.250 C 50.578 52.523, 47.556 52.435, 42.141 49.978 C 39.743 48.890, 36.648 48, 35.263 48 C 32.861 48, 32.776 48.196, 33.422 52.239 C 34.068 56.280, 37.246 61, 39.321 61 C 39.856 61, 42.253 62.605, 44.647 64.567 C 48.214 67.490, 49 68.741, 49 71.496 C 49 75.002, 46.887 78, 44.415 78 C 41.929 78, 39.251 80.242, 39.697 81.950 C 40.187 83.822, 35.787 93.102, 33.515 94.987 C 32.682 95.679, 32 97.133, 32 98.218 C 32 99.303, 30.988 101.611, 29.750 103.346 C 27.939 105.885, 27.527 107.727, 27.637 112.796 C 27.783 119.561, 29.658 123, 33.200 123 C 35.983 123, 40 118.517, 40 115.411 C 40 111.365, 42.157 105, 43.528 105 C 44.194 105, 44.686 104.213, 44.620 103.250 C 44.486 101.300, 44.985 100.993, 48.250 101.015 C 49.487 101.024, 50.050 101.361, 49.500 101.765 C 47.908 102.935, 47.865 105, 49.433 105 C 50.221 105, 51.081 105.787, 51.345 106.750 C 53.743 115.490, 54.252 131.459, 52.400 139.812 C 50.021 150.538, 50.737 155.814, 55.127 159.904 C 58.121 162.693, 61.135 162.549, 64.018 159.480 C 66.361 156.987, 66.384 156.742, 66.277 135.934 C 66.213 123.582, 65.756 114.411, 65.170 113.704 C 64.621 113.042, 63.939 109.171, 63.656 105.102 C 63.372 101.033, 62.628 97.388, 62.002 97.001 C 60.381 95.999, 65.425 94.275, 71.923 93.609 C 74.906 93.303, 77.693 92.704, 78.116 92.277 C 79.429 90.950, 79.477 78.659, 78.170 78.223 C 77.526 78.009, 75.097 76.827, 72.774 75.599 C 69.333 73.779, 68.317 72.563, 67.299 69.047 C 66.611 66.673, 66.289 64.341, 66.583 63.865 C 67.375 62.584, 71.620 62.815, 75.282 64.339 C 82.617 67.390, 86.920 61.805, 83.902 53.149 C 82.677 49.634, 80.142 49.096, 74.472 51.146 C 72.728 51.777, 70.072 51.984, 68.569 51.607 L 65.837 50.921 66.535 40.152 L 67.233 29.382 64.651 27.691 C 60.865 25.211, 58.414 25.610, 55.918 29.116 M 102.354 32.698 C 97.437 33.646, 96.704 35.966, 96.174 52.261 C 95.468 73.991, 95.544 75.687, 97.306 77.448 C 100.651 80.794, 100.150 86, 96.483 86 C 94.187 86, 89 91.703, 89 94.227 C 89 95.560, 90.153 97.734, 91.561 99.057 C 93.829 101.188, 94.063 102.038, 93.606 106.482 C 93.322 109.242, 93.070 111.838, 93.045 112.250 C 93.020 112.662, 92.121 113, 91.047 113 C 87.457 113, 84 115.213, 84 117.511 C 84 121.586, 86.106 126, 88.050 126 C 89.871 126, 97 119.506, 97 117.847 C 97 117.381, 98.278 117, 99.839 117 C 103.037 117, 105 120.040, 105 124.992 C 105 127.169, 104.315 128.218, 102.250 129.204 C 99.779 130.384, 99.469 131.109, 99.198 136.343 C 98.663 146.637, 102.373 147.787, 109.044 139.396 C 111.495 136.313, 114.671 132.520, 116.103 130.966 C 117.805 129.118, 118.416 127.684, 117.868 126.820 C 116.219 124.220, 116.907 121.249, 119.250 120.848 C 123.724 120.081, 126 120.999, 126 123.570 C 126 124.906, 125.550 126, 125 126 C 124.450 126, 124.113 126.418, 124.250 126.929 C 124.388 127.441, 123.707 128.453, 122.738 129.179 C 120.941 130.526, 120.448 132.082, 119.311 139.975 C 118.933 142.602, 117.858 145.104, 116.709 146.034 C 114.848 147.541, 114.833 147.776, 116.402 150.810 C 118.388 154.651, 121.648 155.009, 127.261 152 C 131.681 149.631, 133 149.499, 133 151.423 C 133 153.625, 137.625 158.602, 140.950 159.979 C 143.515 161.042, 144.386 160.953, 147.057 159.359 C 148.771 158.337, 150.754 156.375, 151.464 155 C 154.423 149.268, 156.343 144.420, 156.127 143.219 C 156.001 142.514, 157.097 138.014, 158.562 133.219 C 161.562 123.398, 161.565 114.037, 158.568 109.463 C 156.993 107.059, 156.473 106.935, 148.703 107.104 C 133.245 107.441, 115.359 106.840, 113.930 105.935 C 112.707 105.162, 112.718 105.024, 114 104.982 C 115.062 104.948, 114.810 104.359, 113.139 102.967 L 110.778 101 114.389 101 C 116.375 101, 118 101.450, 118 102 C 118 102.550, 119.350 103, 121 103 C 122.650 103, 124 103.493, 124 104.097 C 124 105.241, 131.256 104.914, 136 103.555 C 137.375 103.162, 139.063 102.801, 139.750 102.753 C 140.438 102.706, 141 102.292, 141 101.833 C 141 101.375, 142.575 101, 144.500 101 C 146.425 101, 148 101.450, 148 102 C 148 102.550, 149.050 103, 150.333 103 C 151.617 103, 152.980 103.313, 153.362 103.696 C 155.009 105.343, 157.153 104.590, 159.977 101.373 C 163.786 97.035, 163.787 94.633, 159.982 90.828 C 157.199 88.045, 156.554 87.851, 151.732 88.341 C 146.665 88.855, 122.577 90.008, 114.551 90.120 C 112.258 90.152, 110.161 89.584, 109.551 88.765 C 108.973 87.989, 107.600 86.839, 106.500 86.208 C 104.855 85.264, 104.795 85.055, 106.167 85.030 C 107.083 85.014, 107.983 84.573, 108.167 84.050 C 108.581 82.869, 113.505 82.721, 127 83.484 C 140.919 84.271, 148.437 83.389, 151.696 80.585 C 154.244 78.394, 154.256 78.305, 154.192 62.941 C 154.156 54.449, 154.519 45.732, 154.997 43.572 C 155.634 40.698, 155.482 38.899, 154.431 36.867 C 152.788 33.690, 149.726 32.835, 140.500 32.975 C 137.200 33.025, 127.750 32.890, 119.500 32.676 C 111.250 32.461, 103.534 32.471, 102.354 32.698 M 112.250 44.031 C 110.755 44.632, 110 45.777, 110 47.445 C 110 51.730, 113.201 52.817, 125.004 52.539 C 135.247 52.297, 139.921 51.566, 140.077 50.183 C 140.119 49.807, 140.304 48.710, 140.489 47.745 C 141.164 44.215, 137.268 42.996, 125.527 43.063 C 119.462 43.098, 113.487 43.534, 112.250 44.031 M 111.739 66.889 C 111.467 67.928, 111.527 69.211, 111.873 69.740 C 113.024 71.503, 117.026 73.103, 118.271 72.296 C 118.947 71.858, 122.875 71.275, 127 71 C 132.778 70.615, 134.500 70.156, 134.500 69 C 134.500 67.820, 133.413 67.570, 129.405 67.828 C 126.316 68.027, 122.822 67.535, 120.533 66.578 C 115.432 64.447, 112.349 64.556, 111.739 66.889 M 139.250 120.496 C 138.563 121.277, 138 123.554, 138 125.557 C 138 129.253, 135.632 135.416, 133.288 137.821 C 130.360 140.826, 133.099 145.343, 137.542 144.836 C 140.729 144.472, 142.799 141.386, 143.702 135.648 C 144.302 131.840, 145.726 129, 147.035 129 C 148.543 129, 148.166 122.023, 146.571 120.429 C 144.757 118.614, 140.876 118.649, 139.250 120.496" stroke="none" fill="black" fill-rule="evenodd"/>
</svg>