<svg xmlns="http://www.w3.org/2000/svg" width="256" height="256" viewBox="0 0 256 256" version="1.1">
	<path d="M 56.913 27.282 C 53.988 29.528, 53 32.819, 53 40.323 C 53 46.172, 52.588 48.287, 51.089 50.138 L 49.179 52.498 44.339 50.617 C 34.821 46.918, 32.053 47.367, 32.015 52.615 C 31.989 56.275, 35.698 59.770, 41.353 61.414 C 45.667 62.668, 47.015 63.613, 48.545 66.454 C 50.403 69.904, 50.401 69.986, 48.383 72.688 C 47.259 74.194, 45.025 76.155, 43.420 77.046 C 41.125 78.318, 40.478 79.397, 40.395 82.087 C 40.274 86.046, 37.158 92.645, 34.106 95.405 C 32.948 96.453, 32 97.714, 32 98.208 C 32 98.702, 30.875 100.762, 29.500 102.785 C 26.749 106.834, 26.454 109.751, 28.084 116.807 C 29.518 123.019, 31.028 126, 32.740 126 C 34.301 126, 37 123.630, 37 122.259 C 37 121.773, 37.955 119.399, 39.123 116.982 C 40.290 114.566, 41.475 110.881, 41.754 108.794 C 42.034 106.707, 42.604 105, 43.020 105 C 43.437 105, 44.064 103.475, 44.413 101.610 C 44.856 99.253, 45.722 98.044, 47.257 97.643 C 50.066 96.908, 51.252 98.108, 51.244 101.675 C 51.240 103.229, 51.650 104.762, 52.155 105.082 C 52.660 105.401, 53.332 111.701, 53.649 119.082 C 54.097 129.528, 53.867 134.009, 52.612 139.312 C 50.475 148.341, 50.583 151.804, 53.130 155.982 C 55.738 160.260, 57.837 161.927, 60.668 161.968 C 66.221 162.050, 66.069 162.793, 65.966 136.031 C 65.894 117.491, 65.479 109.572, 64.306 104.400 C 63.446 100.605, 62.323 97.232, 61.811 96.904 C 60.449 96.032, 65.522 93, 68.343 93 C 69.670 93, 72.428 93.699, 74.473 94.553 C 77.843 95.961, 78.414 95.959, 80.602 94.525 C 82.727 93.133, 82.940 92.441, 82.388 88.722 C 81.171 80.532, 78.620 76.348, 73.153 73.577 C 67.874 70.902, 67.108 70.158, 66.526 67.138 C 66.217 65.528, 67.015 65.179, 72.258 64.631 C 79.888 63.833, 82 62.071, 82 56.500 C 82 50.706, 79.872 49, 72.647 49 C 67.576 49, 66.852 48.740, 66.051 46.633 C 65.556 45.331, 65.480 42.744, 65.882 40.883 C 67.006 35.681, 66.216 30.859, 63.823 28.311 C 61.420 25.754, 59.313 25.440, 56.913 27.282 M 113.942 30.570 C 112.605 32.181, 112.158 50.829, 113.408 52.852 C 114.538 54.680, 112.182 58.682, 109.334 59.771 C 107.775 60.368, 104.382 61.137, 101.793 61.482 C 99.204 61.827, 96.099 62.909, 94.893 63.886 C 92.962 65.449, 92.730 66.491, 92.958 72.581 C 93.101 76.386, 93.243 80.400, 93.274 81.500 C 93.306 82.600, 93.059 88, 92.725 93.500 C 92.145 103.075, 93.110 110.985, 95.182 113.648 C 95.674 114.280, 95.982 116.305, 95.866 118.148 C 95.606 122.287, 97.957 129, 99.666 129 C 101.235 129, 103.524 132.976, 103.120 135 C 102.956 135.825, 101.736 137.932, 100.410 139.683 C 99.085 141.434, 97.997 143.234, 97.994 143.683 C 97.990 144.132, 96.656 145.257, 95.030 146.183 C 90.193 148.935, 89.792 155.925, 94.419 156.835 C 97.083 157.359, 108.458 151.242, 111.945 147.411 C 114.527 144.573, 115.127 143.026, 115.295 138.766 C 115.495 133.696, 115.579 133.561, 119 132.853 C 123.270 131.969, 130.572 132.814, 134.131 134.605 C 136.181 135.636, 136.912 136.930, 137.442 140.464 C 137.816 142.959, 138.539 145, 139.048 145 C 139.557 145, 142.326 147.362, 145.202 150.250 C 152.496 157.575, 155.954 160, 159.106 160 C 161.504 160, 161.905 159.522, 162.510 155.943 C 163.736 148.687, 161.582 145.825, 149.917 139.210 C 146.749 137.413, 144.333 135.345, 144.333 134.428 C 144.333 133.489, 146.253 131.909, 148.917 130.656 C 151.438 129.470, 153.859 128.050, 154.298 127.500 C 154.737 126.950, 154.821 124.250, 154.486 121.500 C 153.933 116.961, 153.811 104.165, 154.115 82.500 C 154.298 69.433, 154.217 69.005, 150.973 65.975 C 147.768 62.981, 146.162 62.486, 136.345 61.465 C 129.806 60.786, 126 58.438, 126 55.082 C 126 52.335, 130.947 50.615, 135.351 51.831 C 137.312 52.373, 142.575 52.745, 147.047 52.658 C 154.284 52.517, 155.388 52.241, 157.089 50.139 C 159.614 47.021, 159.522 46.368, 156.077 42.923 C 153.551 40.397, 152.402 40, 147.626 40 C 144.586 40, 139.774 40.498, 136.933 41.108 C 130.026 42.589, 127.934 41.478, 124.675 34.595 C 122.226 29.423, 121.770 29, 118.635 29 C 116.771 29, 114.658 29.707, 113.942 30.570 M 110.028 74.081 C 108.669 74.641, 107.248 75.599, 106.871 76.209 C 106.072 77.502, 106.884 80.153, 108.427 81.291 C 110.211 82.607, 135.210 80.996, 137.718 79.404 C 140.302 77.763, 139.815 75.482, 136.681 74.545 C 132.777 73.377, 112.588 73.025, 110.028 74.081 M 111.248 92.686 C 110.009 92.935, 108.556 93.961, 108.019 94.965 C 106.161 98.437, 109.201 99.363, 123.435 99.660 C 138.302 99.970, 141.213 99.135, 139.091 95.171 C 138.016 93.162, 137.167 92.999, 127.715 92.986 C 122.097 92.979, 116.600 92.806, 115.500 92.602 C 114.400 92.398, 112.487 92.436, 111.248 92.686 M 104.955 112.554 C 103.585 114.205, 105.210 117.616, 107.749 118.417 C 110.637 119.327, 137.323 119.539, 139.750 118.670 C 142.485 117.692, 142.817 113.566, 140.250 112.459 C 139.287 112.044, 131.199 111.599, 122.275 111.470 C 109.836 111.290, 105.794 111.543, 104.955 112.554" stroke="none" fill="black" fill-rule="evenodd"/>
</svg>