<svg xmlns="http://www.w3.org/2000/svg" width="256" height="256" viewBox="0 0 256 256" version="1.1">
	<path d="M 54.229 26.669 C 52.106 27.524, 50.244 32.178, 49.497 38.501 C 48.307 48.576, 45.634 50.858, 38.033 48.288 C 32.995 46.585, 29.380 47.228, 28.505 49.983 C 27.358 53.597, 30.849 56.515, 39.343 59.040 L 47.241 61.389 46.755 68.181 C 46.316 74.319, 45.920 75.336, 42.652 78.737 C 40.662 80.807, 37.163 84.645, 34.875 87.266 C 32.588 89.887, 29.015 92.988, 26.936 94.156 C 23.574 96.046, 23.258 96.549, 24.078 98.705 C 24.585 100.039, 25 102.473, 25 104.115 C 25 107.794, 27.353 112.538, 29.608 113.403 C 31.670 114.194, 34.397 111.870, 36.030 107.928 C 36.697 106.317, 37.638 105, 38.121 105 C 38.605 105, 38.893 104.662, 38.762 104.250 C 38.631 103.838, 39.136 102.037, 39.884 100.250 C 40.859 97.918, 41.893 97, 43.545 97 C 45.649 97, 45.850 97.451, 45.894 102.250 C 45.952 108.767, 46.390 111.761, 47.775 115.125 C 49.116 118.383, 49.455 131.728, 48.482 143 C 47.827 150.586, 47.985 152.003, 49.951 156.179 C 52.769 162.166, 57.233 164.211, 60.453 160.992 C 62.017 159.428, 62.484 157.714, 62.431 153.723 C 62.393 150.850, 62.275 142.650, 62.169 135.500 C 62.063 128.350, 62.114 120.250, 62.282 117.500 C 62.451 114.750, 62.271 111.563, 61.883 110.418 C 61.495 109.273, 60.868 105.898, 60.490 102.918 C 60.113 99.938, 59.349 97.218, 58.793 96.874 C 58.238 96.530, 59.970 95.456, 62.642 94.489 C 65.314 93.521, 69.400 91.856, 71.723 90.789 C 76.062 88.794, 78 89.032, 78 91.559 C 78 92.352, 78.340 93, 78.756 93 C 79.172 93, 80.107 94.462, 80.834 96.250 C 84.449 105.136, 85.002 106.715, 85.451 109.437 C 85.717 111.052, 85.540 112.852, 85.056 113.437 C 83.610 115.186, 82.273 124.506, 83.134 126.834 C 83.575 128.025, 83.585 129, 83.157 129 C 81.684 129, 79.047 140.507, 79.359 145.579 C 79.746 151.886, 80.415 153.002, 83.809 152.993 C 87.322 152.984, 90.398 148.418, 92.071 140.731 C 93.107 135.973, 93.889 134.614, 96.532 132.981 C 98.294 131.891, 101.345 131, 103.311 131 C 107.906 131, 110 133.840, 110 140.071 C 110 144.456, 109.804 144.785, 106.214 146.404 C 100.910 148.795, 100.796 151.882, 105.920 154.353 C 109.567 156.112, 109.945 156.120, 113.338 154.510 C 117.981 152.307, 120.288 148.207, 121.983 139.151 C 123.062 133.385, 123.099 131.389, 122.156 129.878 C 121.406 128.677, 121.281 127.305, 121.822 126.227 C 122.903 124.078, 122.665 120.130, 121.298 117.498 C 120.727 116.399, 120.439 114.600, 120.658 113.500 C 120.877 112.400, 121.133 110.037, 121.226 108.250 C 121.320 106.463, 121.780 105, 122.248 105 C 122.716 105, 122.683 104.255, 122.173 103.345 C 121.614 102.345, 121.604 100.395, 122.150 98.420 C 122.872 95.806, 122.596 94.203, 120.776 90.419 C 119.524 87.816, 117.825 85.313, 117 84.857 C 112.857 82.566, 103.857 78.969, 103.222 79.351 C 102.825 79.590, 100.250 80.084, 97.500 80.450 C 91.960 81.186, 85.195 82.604, 82.750 83.543 C 81.618 83.977, 81.064 83.484, 80.830 81.836 C 80.610 80.290, 79.154 78.850, 76.457 77.509 C 70.944 74.769, 65 68.533, 65 65.490 C 65 60.587, 74.113 57.987, 80.500 61.067 C 82.666 62.112, 84.056 63.959, 85.500 67.713 C 88.587 75.737, 88.199 75.640, 120.757 76.538 L 141.014 77.096 144.257 73.590 C 146.765 70.878, 148.855 69.787, 153.480 68.773 C 164.469 66.365, 163.981 59.766, 152.313 53.027 C 143.173 47.747, 133.182 39.145, 129.462 33.354 C 127.093 29.664, 125.169 27.881, 122.664 27.054 C 117.408 25.320, 113.536 27.469, 105.467 36.600 C 95.183 48.237, 92.056 50.841, 86.306 52.558 C 81.605 53.962, 80.825 53.961, 78.087 52.545 C 76.423 51.685, 72.330 50.607, 68.991 50.150 C 60.295 48.961, 60.464 49.269, 61.616 36.710 C 62.136 31.036, 61.947 29.598, 60.464 27.960 C 58.730 26.044, 56.784 25.641, 54.229 26.669 M 113.023 49.480 C 110.248 51.944, 106.521 54.701, 104.739 55.607 C 100.403 57.812, 100.506 57.597, 102.404 60.494 L 104.079 63.050 119.790 62.775 L 135.500 62.500 135.756 60 C 135.947 58.138, 134.516 55.906, 130.144 51.250 C 122.654 43.272, 120.287 43.028, 113.023 49.480 M 147.154 88.988 C 145.566 91.599, 145.360 94.092, 145.523 108.738 C 145.626 117.957, 146.041 128, 146.446 131.055 C 146.891 134.415, 146.743 138.239, 146.073 140.730 C 145.162 144.111, 144.431 144.966, 141.993 145.501 C 136.771 146.648, 135.676 151.274, 139.540 155.865 C 142.921 159.884, 147.459 160.741, 152.580 158.330 C 159.309 155.161, 159.495 154.177, 159.538 121.500 C 159.576 91.592, 159.161 88.043, 155.455 86.621 C 151.774 85.209, 148.965 86.010, 147.154 88.988 M 130.030 89.250 C 128.954 90.487, 128.096 91.900, 128.122 92.388 C 128.149 92.877, 127.599 93.630, 126.900 94.062 C 125.889 94.687, 125.881 95.152, 126.864 96.336 C 127.852 97.526, 127.799 98.546, 126.601 101.413 C 125.777 103.386, 125.417 105, 125.801 105 C 126.185 105, 126.473 106.687, 126.440 108.750 C 126.406 110.812, 126.840 112.811, 127.403 113.191 C 128.074 113.644, 127.885 115.022, 126.854 117.191 C 125.455 120.134, 125.442 121.053, 126.732 125.500 C 128.524 131.676, 130.511 134, 134 134 C 139.530 134, 141.177 129.105, 140.224 115.500 C 139.884 110.636, 141.155 97.543, 142.021 96.997 C 142.979 96.393, 139.503 88.938, 137.741 87.819 C 135.431 86.352, 131.996 86.989, 130.030 89.250 M 44 93 C 42.718 93.828, 42.754 93.972, 44.250 93.985 C 45.212 93.993, 46 93.550, 46 93 C 46 91.780, 45.887 91.780, 44 93 M 99.500 92.945 C 98.400 93.395, 96.636 94.725, 95.580 95.899 C 93.682 98.008, 93.685 98.058, 95.788 100.017 C 98.527 102.569, 104.554 102.701, 105.872 100.239 C 106.907 98.305, 106.242 93, 104.965 93 C 104.524 93, 103.564 92.803, 102.832 92.563 C 102.099 92.322, 100.600 92.494, 99.500 92.945 M 93 114.918 C 93 117.485, 98.865 121, 103.146 121 C 105.262 121, 107.175 120.277, 108.188 119.094 C 109.634 117.404, 109.653 116.950, 108.353 115.094 C 107.104 113.311, 105.857 113, 99.943 113 C 93.765 113, 93 113.211, 93 114.918" stroke="none" fill="black" fill-rule="evenodd"/>
</svg>