<svg xmlns="http://www.w3.org/2000/svg" width="256" height="256" viewBox="0 0 256 256" version="1.1">
	<path d="M 48.923 29.923 C 46.455 32.391, 46 33.642, 46 37.955 C 46 40.765, 45.327 44.676, 44.503 46.646 C 43.118 49.963, 42.766 50.181, 39.753 49.596 C 37.964 49.248, 34.410 48.694, 31.855 48.365 C 27.701 47.829, 27.136 47.995, 26.522 49.932 C 25.716 52.471, 28.287 57, 30.534 57 C 32.495 57, 41.296 61.095, 42.235 62.444 C 44.285 65.390, 41.760 73.125, 37.399 77.259 C 36.099 78.491, 35.027 79.964, 35.017 80.531 C 34.974 83.137, 27.764 92.812, 24.593 94.520 C 22.684 95.548, 21.390 96.822, 21.717 97.352 C 22.045 97.881, 22.241 100.210, 22.153 102.528 C 21.840 110.807, 26.198 116.570, 30.879 114.065 C 32.383 113.260, 35.797 105.943, 36.508 102 C 36.996 99.293, 38.400 97, 39.567 97 C 40.449 97, 41 95.985, 41 94.360 C 41 91.813, 43.339 89.098, 45.589 89.032 C 46.189 89.014, 47.168 90.073, 47.765 91.384 C 48.593 93.201, 48.524 94.235, 47.472 95.737 C 46.713 96.820, 45.878 98.890, 45.615 100.337 C 45.353 101.783, 44.856 103.424, 44.510 103.984 C 44.165 104.543, 44.246 105.002, 44.691 105.004 C 46.081 105.011, 46.610 124.454, 45.824 146.644 C 45.540 154.652, 45.748 156.063, 47.500 158.012 C 50.135 160.942, 53.071 161.989, 55.331 160.803 C 59.051 158.852, 59.625 154.968, 59.179 134.767 C 58.404 99.697, 58.560 97, 61.365 97 C 63.243 97, 69 94.015, 69 93.042 C 69 91.593, 74.241 88.750, 76.906 88.753 C 78.364 88.755, 80.998 87.444, 82.919 85.760 L 86.339 82.764 88.624 87.132 C 90.134 90.018, 90.925 93.292, 90.955 96.782 C 90.994 101.359, 90.699 102.180, 88.750 102.930 C 86.941 103.626, 85.876 103.202, 83.316 100.765 C 81.341 98.886, 79.532 97.966, 78.551 98.342 C 76.167 99.257, 74.776 103.984, 75.488 108.750 C 75.912 111.593, 75.753 113, 75.005 113 C 72.946 113, 69.689 122.174, 69.876 127.449 C 70.083 133.294, 71.911 136.559, 75.344 137.215 C 79.076 137.928, 80.703 136.467, 81.408 131.765 C 82.253 126.130, 82.228 126.262, 83.519 120.500 C 84.473 116.242, 85.018 115.455, 87.192 115.196 C 90.361 114.818, 90.813 115.909, 91.612 125.855 C 92.396 135.600, 90.707 144.641, 87.939 145.519 C 86.873 145.858, 86 146.745, 86 147.490 C 86 148.813, 91.489 154.918, 92.827 155.083 C 93.197 155.129, 94.625 155.306, 96 155.476 C 100.198 155.995, 103 153.492, 103 149.220 C 103 147.167, 103.466 143.915, 104.035 141.993 C 105.440 137.252, 105.483 131.083, 104.119 129.719 C 102.468 128.068, 102.758 119.790, 104.557 117.223 C 107.226 113.411, 110.262 114.415, 116.140 121.053 C 119.088 124.383, 121.680 127.645, 121.900 128.303 C 122.120 128.962, 122.795 129.825, 123.400 130.221 C 124.157 130.718, 123.827 132.275, 122.340 135.221 C 117.765 144.287, 118.662 152.129, 124.402 153.226 C 127.479 153.814, 129.763 151.500, 132.911 144.606 C 135.829 138.214, 137.161 137, 141.248 137 C 143.622 137, 145.294 137.752, 146.820 139.508 C 148.019 140.887, 149 142.246, 149 142.529 C 149 143.359, 154.217 151.303, 156.370 153.750 C 163.052 161.347, 167.335 147.468, 162.310 134.500 C 159.629 127.580, 158.701 126, 157.316 126 C 155.645 126, 152.013 120.203, 151.991 117.500 C 151.945 111.963, 158.238 88.658, 161.604 81.895 C 163.120 78.851, 164.830 66.464, 165.592 53 C 166.378 39.126, 164.009 37.234, 151.643 41.861 C 148.712 42.957, 142.210 44.312, 137.194 44.873 C 127.760 45.926, 125.203 46.797, 121.924 50.076 C 118.342 53.658, 106.614 51.707, 102.526 46.849 C 100.547 44.496, 100.121 42.979, 100.290 38.884 C 100.467 34.631, 100.124 33.520, 98.139 31.913 C 95.092 29.444, 94.410 29.499, 91.455 32.455 C 88.818 35.091, 88.814 35.137, 88.472 64 C 88.308 77.788, 87.071 80.294, 82.535 76.033 C 81.383 74.951, 79.104 74.012, 77.470 73.946 C 74.008 73.806, 66.667 76.334, 67.658 77.324 C 68.029 77.696, 67.856 78, 67.272 78 C 65.655 78, 60.366 72.729, 59.618 70.371 C 58.857 67.974, 59.741 65, 61.213 65 C 61.763 65, 63.094 63.879, 64.172 62.509 C 65.350 61.011, 68.298 59.388, 71.566 58.438 C 76.479 57.010, 77 56.589, 77 54.051 C 77 49.646, 75.088 48.772, 67.166 49.552 C 58.416 50.414, 57.726 49.540, 58.639 38.740 C 59.221 31.855, 59.100 31.171, 56.944 29.163 C 53.866 26.295, 52.414 26.432, 48.923 29.923 M 141.748 57.163 C 138.289 58.426, 137.351 61.862, 138.815 67.909 C 139.426 70.434, 139.917 74.898, 139.907 77.829 C 139.886 83.474, 141.141 86, 143.967 86 C 147.295 86, 149.493 82.161, 149.610 76.145 C 149.671 73.040, 150.070 67.921, 150.498 64.769 C 151.620 56.500, 149.237 54.428, 141.748 57.163 M 115.080 62.032 C 111.589 64.397, 109.983 64.900, 107.444 64.424 C 103.761 63.733, 103 64.530, 101.970 70.163 C 101.100 74.923, 102.632 76.479, 107.321 75.599 C 111.078 74.895, 112.443 75.968, 115.756 82.233 C 118.367 87.172, 117.663 90.573, 113.746 91.939 C 112.072 92.522, 109.623 93, 108.305 93 C 106.987 93, 104.794 94.115, 103.432 95.477 C 101.288 97.621, 101.125 98.227, 102.218 99.977 C 103.291 101.696, 104.538 102, 110.518 102 C 117.137 102, 117.716 102.184, 120.277 105.103 C 121.775 106.809, 123 109.004, 123 109.981 C 123 110.957, 123.734 113.498, 124.630 115.628 C 127.854 123.285, 128.046 124.954, 125.946 127.054 C 124.018 128.982, 124.033 129, 127.500 129 C 129.944 129, 131 128.548, 131 127.500 C 131 126.675, 130.887 125.822, 130.750 125.605 C 130.613 125.388, 131.233 124.375, 132.129 123.355 C 133.026 122.335, 134.427 120.150, 135.245 118.500 C 137.478 113.990, 136.146 101.149, 132.684 93.814 C 131.208 90.687, 130 87.666, 130 87.102 C 130 86.538, 128.400 82.706, 126.445 78.588 C 123.584 72.558, 123.020 70.408, 123.555 67.556 C 124.443 62.827, 123.399 58.995, 121.231 59.018 C 120.279 59.028, 117.511 60.384, 115.080 62.032" stroke="none" fill="black" fill-rule="evenodd"/>
</svg>