<svg xmlns="http://www.w3.org/2000/svg" width="256" height="256" viewBox="0 0 256 256" version="1.1">
	<path d="M 94.646 28.452 C 93.191 29.801, 92 31.580, 92 32.405 C 92 33.230, 90.221 35.335, 88.047 37.082 C 85.873 38.829, 82.901 42.062, 81.442 44.267 C 78.989 47.974, 78.865 48.658, 79.795 53.363 C 81.020 59.557, 80.302 81.931, 78.822 83.715 C 78.235 84.422, 77.174 85, 76.463 85 C 74.553 85, 68.428 74.495, 66.166 67.342 C 65.244 64.425, 65.506 63.788, 69.589 59.004 C 73.972 53.870, 74.099 53.134, 71.193 49.750 C 69.032 47.233, 66.131 47.589, 61 51 C 53.585 55.929, 49.977 54.729, 51.741 47.920 C 52.331 45.643, 54.003 43.612, 57.051 41.471 C 62.044 37.963, 62.852 35.549, 60.535 31.068 C 58.491 27.115, 54.418 26.936, 50.054 30.608 C 46.084 33.948, 45.465 35.172, 42.412 45.707 C 41.020 50.509, 39.406 55.011, 38.823 55.713 C 37.096 57.794, 37.712 64.386, 40.053 68.878 L 42.236 73.066 39.618 80.440 C 38.178 84.496, 37 88.554, 37 89.458 C 37 93.485, 49.269 95.471, 80.500 96.499 C 87.100 96.717, 93.625 96.963, 95 97.047 C 96.375 97.131, 102.808 97.049, 109.296 96.865 C 118.299 96.611, 121.286 96.845, 121.912 97.857 C 122.764 99.236, 132.494 99.023, 138.233 97.499 C 139.737 97.100, 141.762 97.121, 142.733 97.545 C 143.705 97.970, 145.834 98.507, 147.466 98.739 C 149.097 98.971, 151.204 99.574, 152.150 100.080 C 157.314 102.844, 163 99.427, 163 93.559 C 163 91.666, 162.613 89.879, 162.139 89.586 C 161.666 89.294, 160.543 86.432, 159.644 83.227 C 158.745 80.023, 156.913 75.916, 155.574 74.101 C 152.933 70.521, 152.921 70.668, 156.425 63.747 C 159.096 58.472, 158.845 55.600, 155.525 53.424 C 153.591 52.157, 152.778 52.167, 148.991 53.503 C 140.869 56.369, 138.535 53.117, 141.882 43.596 C 144.787 35.330, 142.693 30.856, 136.630 32.378 C 134.775 32.844, 133.559 34.754, 130.991 41.236 C 126.860 51.665, 124.558 55, 121.491 55 C 118.578 55, 117.652 53.630, 117.806 49.545 C 117.971 45.154, 114.800 40.449, 110.039 38.020 C 107.055 36.497, 106 35.347, 106 33.615 C 106 30.354, 102.325 26, 99.573 26 C 98.319 26, 96.101 27.104, 94.646 28.452 M 95.250 51.031 C 92.623 52.087, 92.361 54.642, 94.557 57.777 C 97.139 61.464, 102.154 60.537, 104.534 55.934 C 105.896 53.301, 105.844 53.004, 103.775 51.555 C 101.313 49.831, 98.644 49.667, 95.250 51.031 M 118.581 67.844 C 116.088 72.665, 115.489 80.571, 117.397 83.482 C 119.326 86.428, 121.145 86.574, 126.181 84.189 C 129.871 82.441, 135.087 77, 133.073 77 C 132.483 77, 132 76.175, 132 75.167 C 132 74.159, 130.088 71.814, 127.750 69.954 C 125.412 68.095, 123.350 66.220, 123.167 65.787 C 122.433 64.055, 119.968 65.160, 118.581 67.844 M 95.913 72.256 C 91.310 75.864, 91.276 81.057, 95.840 83.418 C 99.336 85.225, 104.418 83.333, 105.319 79.890 C 106.741 74.451, 100.046 69.018, 95.913 72.256 M 53.200 74.200 C 51.409 75.991, 51.746 78.746, 54.036 81.036 C 56.807 83.807, 58 82.725, 58 77.441 C 58 73.831, 57.663 73, 56.200 73 C 55.210 73, 53.860 73.540, 53.200 74.200 M 143.619 77.807 C 142.394 79.790, 143.801 82.515, 146.199 82.803 C 148.426 83.071, 148.706 82.752, 148.609 80.055 C 148.522 77.617, 148.060 77.004, 146.309 77.002 C 145.104 77.001, 143.894 77.363, 143.619 77.807 M 96.116 100.183 C 96.052 101.108, 94.987 102.176, 93.750 102.557 C 92.513 102.937, 90.695 104.092, 89.711 105.124 C 87.832 107.095, 84.415 107.550, 82.173 106.128 C 81.443 105.665, 78.743 105.685, 76.173 106.172 C 68.646 107.598, 61.884 107.258, 56.065 105.159 C 50.342 103.095, 48.458 103.160, 40.718 105.689 C 35.240 107.479, 33.358 109.932, 35.045 113.085 C 36.819 116.398, 41.992 117.903, 54.144 118.641 C 63.816 119.229, 66.084 119.704, 69.731 121.907 C 72.079 123.325, 73.984 125.164, 73.964 125.993 C 73.908 128.330, 59.347 137.076, 51 139.786 C 41.990 142.710, 37.478 146.695, 38.461 150.857 C 39.198 153.978, 42.458 157, 45.088 157 C 48.165 157, 60.146 152.126, 63.662 149.444 C 65.466 148.068, 69.846 145.639, 73.395 144.047 C 76.945 142.455, 80.374 140.170, 81.016 138.971 C 82.771 135.691, 81.434 130.519, 78.483 129.174 C 74.725 127.462, 75.354 125.597, 80.750 122.459 C 82.537 121.419, 84 120.216, 84 119.784 C 84 119.353, 85.088 119, 86.417 119 C 87.746 119, 89.021 118.438, 89.251 117.750 C 89.480 117.063, 90.745 119.200, 92.062 122.500 C 94.155 127.746, 94.473 130.268, 94.597 142.571 C 94.678 150.641, 95.209 157.523, 95.843 158.706 C 98.004 162.744, 104.623 162.442, 106.892 158.202 C 107.407 157.239, 107.840 152.862, 107.854 148.475 C 107.867 144.089, 108.061 139.601, 108.284 138.501 C 108.507 137.402, 108.085 135.054, 107.345 133.284 C 105.458 128.768, 105.648 127.261, 108.455 124.455 C 110.887 122.022, 115.756 121.202, 119.418 122.607 C 121.329 123.340, 121.487 126.359, 119.709 128.179 C 116.935 131.018, 115.176 134.295, 115.697 135.652 C 116.385 137.446, 122.393 140, 125.923 140 C 127.397 140, 131.446 141.848, 134.922 144.106 C 141.772 148.558, 152.148 152.541, 154.521 151.630 C 155.449 151.274, 156 149.716, 156 147.446 C 156 144.315, 155.178 143.052, 149.871 138.033 C 145.609 134.003, 142.100 131.679, 138.354 130.406 C 135.391 129.398, 131.759 127.314, 130.283 125.773 C 127.751 123.130, 127.696 122.876, 129.310 121.262 C 130.514 120.058, 133.482 119.360, 139.337 118.905 C 149.243 118.135, 154.209 116.015, 157.111 111.320 C 160.523 105.800, 159.392 105.438, 140.199 105.915 C 108.408 106.704, 106.952 106.659, 105.618 104.833 C 104.949 103.916, 102.760 102.858, 100.754 102.482 C 98.623 102.082, 96.926 101.112, 96.670 100.149 C 96.271 98.646, 96.222 98.649, 96.116 100.183" stroke="none" fill="black" fill-rule="evenodd"/>
</svg>