<svg xmlns="http://www.w3.org/2000/svg" width="256" height="256" viewBox="0 0 256 256" version="1.1">
	<path d="M 115.633 29.985 C 110.187 35.004, 107.744 35.881, 102.129 34.832 C 99.645 34.368, 96.687 34.267, 95.556 34.609 C 92.263 35.603, 89.156 39.001, 88.454 42.376 C 88.096 44.094, 86.723 47.380, 85.402 49.678 C 82.401 54.899, 82.411 55.539, 85.564 59.672 C 86.974 61.521, 88.982 64.966, 90.027 67.329 C 93.186 74.470, 94.863 75.404, 104.329 75.301 C 113.550 75.200, 116.237 76.342, 115.670 80.120 C 115.391 81.976, 114.602 82.570, 112.085 82.819 C 110.311 82.994, 107.781 82.431, 106.464 81.569 C 102.234 78.797, 97.238 79.756, 92.250 84.299 C 90.316 86.061, 90 87.357, 90 93.528 C 90 99.763, 90.323 101.056, 92.452 103.354 C 94.402 105.458, 95.887 106.024, 99.702 106.118 C 102.341 106.184, 104.810 106.193, 105.189 106.139 C 106.318 105.978, 107.183 109.847, 106.500 112 C 105.967 113.681, 104.987 114, 100.367 114 C 97.343 114, 93.998 114.466, 92.934 115.035 C 90.966 116.089, 90.165 121, 91.961 121 C 92.490 121, 93.471 122.912, 94.142 125.250 C 95.342 129.434, 95.628 131.041, 95.875 135 C 95.944 136.100, 96.623 137, 97.385 137 C 98.964 137, 102 141.201, 102 143.385 C 102 144.212, 100.609 145.147, 98.783 145.548 C 97.013 145.936, 94.876 146.610, 94.033 147.044 C 93.190 147.478, 90.996 148.393, 89.157 149.076 C 86.118 150.207, 85.870 150.600, 86.431 153.406 C 87.287 157.686, 89.940 160, 94.453 160.405 C 100.218 160.923, 102.322 159.995, 108.446 154.235 C 112.791 150.148, 115.158 148.731, 119.022 147.902 C 125.020 146.615, 131.739 147.816, 138.747 151.426 C 147.921 156.153, 157 155.667, 157 150.450 C 157 147.475, 155.301 145.839, 149.885 143.600 C 143.771 141.072, 141.656 137.993, 142.520 132.879 C 143.289 128.328, 147.402 125.010, 152.282 125.004 C 153.812 125.002, 156.625 124.348, 158.532 123.551 C 161.402 122.352, 162 121.582, 162 119.086 C 162 115.754, 159.956 114.174, 154 112.903 C 152.075 112.492, 148.830 111.533, 146.789 110.771 C 143.198 109.429, 143.144 109.339, 145.127 107.942 C 146.254 107.149, 147.586 106.613, 148.088 106.750 C 148.590 106.888, 149 106.550, 149 106 C 149 105.450, 150.157 105, 151.571 105 C 155.221 105, 156.618 103.161, 157.291 97.470 C 157.615 94.736, 158.073 91.600, 158.310 90.500 C 159.033 87.137, 157.293 85.283, 150.320 81.989 C 144.770 79.366, 142.901 78.938, 139.339 79.472 C 136.978 79.826, 134.785 80.540, 134.464 81.058 C 134.144 81.576, 132.934 82, 131.774 82 C 130.615 82, 129.963 81.704, 130.325 81.342 C 130.687 80.980, 130.472 80.069, 129.849 79.318 C 128.017 77.110, 129.704 76.503, 137.835 76.446 C 151.674 76.347, 155.921 74.249, 157.555 66.703 C 157.937 64.941, 159.093 62.306, 160.124 60.846 C 162.635 57.292, 162.520 55.972, 158.899 46.898 C 154.576 36.066, 153.709 35.445, 143.313 35.742 C 134.089 36.006, 132.308 35.437, 127 30.525 C 121.629 25.555, 120.496 25.501, 115.633 29.985 M 54.500 28.002 C 50.615 29.482, 49.123 32.326, 48.620 39.211 C 47.791 50.549, 45.161 52.483, 36.258 48.302 C 32.427 46.503, 28.379 47.232, 27.541 49.870 C 26.725 52.443, 28.616 57, 30.500 57 C 32.547 57, 43.141 60.741, 44.258 61.858 C 45.685 63.285, 42.181 73.484, 39.364 76.102 C 37.945 77.421, 35.775 80.766, 34.542 83.535 C 32.387 88.374, 27.792 93.228, 23.527 95.169 C 18.661 97.383, 23.416 114.137, 29.099 114.801 C 31.795 115.116, 33.785 113.476, 34.498 110.352 C 34.731 109.333, 35.594 106.700, 36.417 104.500 C 37.239 102.300, 37.932 99.905, 37.956 99.179 C 37.980 98.452, 38.675 97.182, 39.500 96.357 C 40.325 95.532, 41 93.980, 41 92.907 C 41 91.774, 42.097 90.457, 43.617 89.765 C 45.934 88.709, 46.456 88.845, 48.161 90.950 C 49.672 92.817, 49.808 93.505, 48.793 94.149 C 48.082 94.600, 47.853 94.976, 48.285 94.985 C 48.717 94.993, 48.543 95.985, 47.899 97.189 C 46.538 99.733, 46.523 111.476, 47.874 118 C 49.285 124.820, 49.517 132.571, 48.598 142.224 C 47.597 152.739, 48.273 156.983, 51.575 160.906 C 54.122 163.934, 55.928 164.179, 59.923 162.041 C 62.718 160.545, 63.407 157.060, 62.467 149.164 C 62.031 145.499, 61.629 136.650, 61.574 129.500 C 61.519 122.350, 61.079 112.157, 60.596 106.848 L 59.719 97.197 62.810 95.598 C 64.510 94.719, 67.466 94, 69.379 94 C 74.328 94, 76.348 91.628, 75.674 86.606 C 75.376 84.386, 74.428 82.055, 73.566 81.425 C 72.705 80.795, 72 79.731, 72 79.061 C 72 78.391, 70.200 76.061, 68 73.883 C 65.800 71.705, 64 69.590, 64 69.184 C 64 67.376, 67.508 63.771, 73.052 59.883 C 76.355 57.566, 78.905 55.182, 78.719 54.585 C 78.139 52.723, 71.672 50.003, 67.821 50.002 C 64.267 50, 61 47.985, 61 45.795 C 61 45.210, 61.508 43.036, 62.129 40.962 C 64.471 33.148, 60.171 25.843, 54.500 28.002 M 105.571 45.571 C 103.646 47.497, 103.623 48.103, 105.386 50.513 C 106.572 52.135, 107.328 52.271, 110.636 51.454 C 113.760 50.683, 114.558 49.998, 114.804 47.881 C 115.038 45.858, 114.583 45.121, 112.804 44.644 C 109.110 43.655, 107.249 43.893, 105.571 45.571 M 132 46 C 132 46.550, 132.927 47, 134.059 47 C 135.191 47, 135.840 46.550, 135.500 46 C 135.160 45.450, 134.234 45, 133.441 45 C 132.648 45, 132 45.450, 132 46 M 105.306 60.645 C 104.920 61.652, 105.394 62.815, 106.529 63.645 C 108.708 65.238, 111 65.420, 111 64 C 111 63.450, 111.675 63, 112.500 63 C 115.128 63, 114.115 61.443, 110.679 60.201 C 106.396 58.652, 106.060 58.680, 105.306 60.645 M 135.500 62 C 135.840 62.550, 136.991 63, 138.059 63 C 139.127 63, 140 62.550, 140 62 C 140 61.450, 138.848 61, 137.441 61 C 135.990 61, 135.149 61.433, 135.500 62 M 106.561 91.960 L 103.836 93.747 107.102 96.073 C 109.303 97.640, 110.498 98.007, 110.767 97.199 C 110.987 96.540, 111.804 96, 112.583 96 C 113.909 96, 114.333 94.999, 113.750 93.250 C 113.612 92.838, 113.162 92.612, 112.750 92.750 C 112.338 92.888, 112 92.598, 112 92.107 C 112 90.298, 109.209 90.223, 106.561 91.960 M 130.874 92.109 C 128.501 94.167, 128.516 94.252, 131.500 95.700 C 133.644 96.740, 142 95.475, 142 94.110 C 142 93.685, 140.988 92.849, 139.750 92.252 C 135.508 90.206, 133.113 90.167, 130.874 92.109 M 123.625 108.484 C 120.949 110.510, 122.253 112.722, 126.851 113.960 C 130.927 115.058, 136 114.022, 136 112.092 C 136 111.566, 136.959 110.830, 138.132 110.458 C 139.747 109.946, 139.941 109.581, 138.930 108.957 C 138.196 108.503, 137.268 108.335, 136.867 108.582 C 136.466 108.830, 135.856 108.575, 135.510 108.016 C 134.575 106.503, 125.784 106.849, 123.625 108.484 M 114.412 124.765 C 113.001 125.718, 112.060 129.480, 112.895 130.830 C 114.158 132.874, 122.633 133.268, 126.442 131.460 C 130.560 129.506, 130.826 128.451, 127.847 125.867 C 125.639 123.952, 116.702 123.219, 114.412 124.765" stroke="none" fill="black" fill-rule="evenodd"/>
</svg>