<svg xmlns="http://www.w3.org/2000/svg" width="256" height="256" viewBox="0 0 256 256" version="1.1">
	<path d="M 81.540 36.003 C 79.912 36.518, 70.912 37.194, 61.540 37.505 C 47.262 37.978, 44.095 38.364, 42 39.884 C 38.837 42.179, 38.346 45.970, 40.815 49.020 C 42.672 51.313, 42.895 51.345, 48.219 50.068 C 52.827 48.962, 54.172 48.973, 56.604 50.135 C 60.100 51.806, 60.640 54.452, 59.020 61.993 C 56.063 75.762, 55.984 75.932, 50.959 79.221 C 45.647 82.699, 39.399 91.356, 38.415 96.603 C 37.967 98.990, 38.283 100.784, 39.473 102.598 C 41.262 105.330, 42.215 105.391, 53.047 103.461 C 56.149 102.908, 56.997 103.240, 59.797 106.104 C 61.559 107.906, 63 109.726, 63 110.149 C 63 110.573, 64.185 112.018, 65.633 113.361 C 70.087 117.491, 68.328 120.473, 53.356 134.174 C 45.766 141.120, 43.631 149.218, 48.541 152.435 C 50.561 153.758, 51.740 153.891, 54.291 153.085 C 56.056 152.526, 58.732 151.822, 60.237 151.519 C 61.755 151.214, 63.713 149.750, 64.632 148.234 C 65.543 146.730, 67.747 143.250, 69.530 140.500 C 71.312 137.750, 73.880 133.475, 75.235 131 C 76.591 128.525, 78.893 124.750, 80.350 122.610 C 81.808 120.471, 83 118.144, 83 117.439 C 83 116.734, 85.900 112.997, 89.445 109.135 C 96.244 101.725, 99.430 94.664, 98.440 89.192 C 98.172 87.711, 98.581 84.744, 99.350 82.599 C 101.177 77.495, 100.168 74.045, 96.033 71.250 C 93.214 69.344, 91.373 69, 84.007 69 C 74.181 69, 72 67.774, 72 62.249 C 72 58.403, 78.360 52.556, 84.447 50.806 C 91.864 48.674, 106.706 50.320, 107.188 53.328 C 107.291 53.972, 107.417 61.700, 107.468 70.500 C 107.520 79.300, 108.079 89.333, 108.711 92.795 C 109.529 97.271, 109.595 103.526, 108.941 114.448 C 107.905 131.749, 108.397 134.390, 114.194 142.641 C 120.511 151.630, 124.182 154.551, 131.454 156.378 C 137.647 157.934, 138.635 157.939, 144.821 156.447 C 154.597 154.089, 155.629 152.591, 155.823 140.478 C 155.990 130.036, 155.284 128, 151.500 128 C 148.367 128, 146.851 130.206, 146.598 135.132 C 146.280 141.325, 143.904 142.401, 131.205 142.101 C 128.129 142.029, 126.246 141.337, 124.575 139.666 C 122.522 137.613, 122.144 135.953, 121.442 125.916 C 120.428 111.418, 120.730 104.890, 122.623 100.360 C 124.107 96.809, 124.194 96.766, 128.315 97.541 C 134.799 98.759, 147.171 98.118, 149.749 96.429 C 152.897 94.366, 152.574 92.670, 148.250 88.571 C 143.980 84.522, 139.485 83.287, 134.876 84.893 C 133.130 85.502, 130.020 86, 127.965 86 C 122.429 86, 121.101 82.483, 120.501 66.221 C 119.907 50.133, 119.965 50.051, 132.748 48.920 C 148.240 47.549, 154.588 45.873, 155.529 42.908 C 157.366 37.121, 152.266 34.373, 141.702 35.457 C 133.119 36.337, 97.799 36.466, 90 35.645 C 86.975 35.327, 83.168 35.488, 81.540 36.003 M 68.285 82.949 C 65.203 85.820, 64.369 92.264, 66.670 95.430 C 68.946 98.564, 71.222 99.369, 75.527 98.561 C 79.195 97.873, 84 93.021, 84 90.005 C 84 88.992, 84.266 87.470, 84.591 86.623 C 85.457 84.366, 79.390 81.008, 74.439 81.004 C 71.791 81.001, 69.649 81.678, 68.285 82.949" stroke="none" fill="black" fill-rule="evenodd"/>
</svg>