<svg xmlns="http://www.w3.org/2000/svg" width="256" height="256" viewBox="0 0 256 256" version="1.1">
	<path d="M 40.285 31.396 C 36.412 33.177, 35.267 36.712, 36.709 42.441 C 37.338 44.939, 37.616 59.862, 37.433 81.248 C 37.118 117.970, 36.812 120.768, 31.375 136.688 C 29.321 142.703, 29.171 151.861, 31.107 153.087 C 36.324 156.391, 41.525 151.949, 43.501 142.500 C 44.306 138.650, 44.973 134.289, 44.983 132.809 C 44.992 131.329, 45.450 129.840, 46 129.500 C 46.550 129.160, 47 128.117, 47 127.182 C 47 123.531, 50.363 122.902, 68.808 123.104 C 78.539 123.210, 88.147 123.739, 90.159 124.279 C 95.315 125.664, 98.561 124.539, 101.378 120.394 L 103.813 116.812 98.253 111.207 C 95.150 108.079, 93.221 105.426, 93.888 105.204 C 94.788 104.904, 94.801 104.465, 93.942 103.431 C 92.757 102.003, 93.176 101.334, 97.283 98.103 C 98.842 96.877, 99.360 96.989, 101.529 99.028 C 102.888 100.304, 104 101.837, 104 102.434 C 104 103.031, 104.900 104.081, 106 104.768 C 107.100 105.455, 108 106.688, 108 107.508 C 108 108.329, 108.649 109, 109.443 109 C 110.347 109, 110.741 109.746, 110.500 111 C 110.288 112.100, 110.539 113, 111.057 113 C 111.576 113, 112 113.900, 112 115 C 112 116.100, 112.450 117, 113 117 C 113.550 117, 114 117.900, 114 119 C 114 120.100, 114.348 121, 114.773 121 C 115.652 121, 118.539 126.356, 119.514 129.799 C 120.557 133.477, 117.675 136.722, 111.821 138.460 C 102.373 141.266, 98.789 140.500, 96.297 135.141 C 95.366 133.139, 94.131 131.169, 93.552 130.765 C 91.924 129.629, 83.382 129.869, 80.617 131.129 L 78.139 132.258 81.088 135.379 C 82.709 137.095, 85.040 139.959, 86.268 141.743 C 87.496 143.527, 89.037 144.989, 89.693 144.993 C 92.090 145.007, 98.593 149.381, 102.160 153.378 L 105.820 157.480 116.152 152.117 C 121.834 149.168, 127.075 145.910, 127.798 144.877 C 128.522 143.845, 129.694 143, 130.403 143 C 132.498 143, 138.065 145.993, 144.819 150.749 C 149.268 153.883, 152.134 155.200, 154.503 155.200 C 158.822 155.200, 159.709 154.599, 160.464 151.162 C 161.478 146.547, 159.542 143.345, 153.791 140.125 C 145.191 135.309, 144 134.189, 144 130.922 C 144 127.185, 147.244 117.449, 150.937 110.101 C 152.485 107.020, 154.067 103.043, 154.453 101.261 C 154.838 99.480, 155.569 97.766, 156.077 97.452 C 157.685 96.459, 157.085 94.254, 154.309 90.955 C 151.646 87.791, 151.548 87.764, 145.059 88.437 C 141.451 88.811, 137.375 89.118, 136 89.119 C 123.511 89.128, 116.399 88.642, 114.847 87.672 C 113.040 86.544, 112.232 81.508, 113.750 80.833 C 115.218 80.181, 118.704 74.439, 119.976 70.581 C 120.686 68.425, 121.319 62.260, 121.383 56.880 C 121.455 50.856, 121.953 46.647, 122.678 45.922 C 124.169 44.431, 132.754 44.551, 134.606 46.088 C 135.373 46.724, 136.005 48.652, 136.012 50.372 C 136.018 52.093, 136.688 55.975, 137.500 59 C 138.312 62.025, 138.982 66.845, 138.988 69.711 C 139.002 75.811, 140.222 77.299, 148.841 81.723 C 155.385 85.082, 157.764 84.957, 161.964 81.034 C 166.722 76.589, 166.100 73.852, 159.094 68.411 C 152.910 63.609, 152.058 62.063, 151.980 55.500 C 151.909 49.634, 148.463 36.034, 146.566 34.138 C 145.329 32.902, 142.910 32.481, 136.713 32.421 C 132.196 32.377, 125.939 31.749, 122.809 31.025 C 112.029 28.530, 108.440 32.409, 107.459 47.617 C 106.753 58.550, 105.350 64.373, 102.884 66.605 C 100.516 68.748, 100.387 74.906, 102.612 79.595 C 104.640 83.869, 103.786 90, 101.163 90 C 99.431 90, 90.561 81.782, 91.383 80.939 C 91.619 80.698, 92.039 79.046, 92.316 77.269 C 92.593 75.492, 93.423 73.370, 94.160 72.553 C 94.897 71.737, 96.063 70.398, 96.750 69.577 C 97.635 68.520, 98 63.440, 98 52.177 C 98 37.464, 97.840 36.067, 95.871 33.564 C 93.861 31.008, 93.319 30.868, 86.121 31.047 C 81.930 31.151, 70.625 30.940, 61 30.577 C 46.644 30.036, 42.922 30.183, 40.285 31.396 M 49.990 45.019 C 49.189 46.515, 49.250 47.746, 50.225 49.769 C 51.388 52.184, 52.117 52.508, 56.520 52.571 C 59.259 52.610, 65.841 52.995, 71.146 53.425 C 80.177 54.158, 80.927 54.073, 82.896 52.104 C 85.616 49.384, 85.571 46.513, 82.777 44.557 C 81.010 43.319, 77.537 43, 65.813 43 C 52.047 43, 50.999 43.134, 49.990 45.019 M 53.392 66.761 C 50.119 67.290, 48.618 71.128, 49.331 77.144 C 50.106 83.692, 51.563 85.407, 54.912 83.716 C 56.237 83.047, 57.474 81.713, 57.661 80.750 C 58.327 77.314, 58.624 76.452, 60.431 72.714 C 61.438 70.632, 62.039 68.706, 61.767 68.433 C 60.821 67.487, 55.487 66.422, 53.392 66.761 M 66.180 68.686 C 65.220 69.069, 65.429 69.612, 66.947 70.675 C 68.094 71.479, 68.797 72.520, 68.508 72.988 C 68.218 73.456, 68.693 74.550, 69.562 75.419 C 70.492 76.349, 70.673 77, 70 77 C 69.346 77, 69.562 77.704, 70.502 78.645 C 71.644 79.787, 71.805 80.503, 71.027 80.984 C 69.670 81.822, 71.345 83.420, 75.059 84.832 C 77.012 85.575, 78.077 85.356, 79.973 83.821 C 81.734 82.395, 82.054 81.652, 81.149 81.092 C 80.170 80.487, 80.190 80.087, 81.245 79.212 C 81.995 78.589, 82.566 76.229, 82.542 73.847 C 82.506 70.179, 82.156 69.497, 80 68.896 C 77.038 68.071, 68.061 67.934, 66.180 68.686 M 49.607 98.582 C 48.578 101.264, 48.995 106.410, 50.392 108.250 C 52.318 110.787, 57.196 110.502, 58.964 107.750 C 59.758 106.513, 60.288 104.713, 60.141 103.750 C 59.994 102.787, 60.387 102, 61.014 102 C 61.641 102, 60.816 100.875, 59.182 99.500 C 55.781 96.638, 50.546 96.136, 49.607 98.582 M 72.310 98.431 C 71.656 99.177, 71.393 100.060, 71.727 100.393 C 72.060 100.727, 71.471 101.007, 70.417 101.015 C 68.818 101.028, 68.749 101.189, 70 101.982 C 70.825 102.505, 71.521 103.511, 71.547 104.217 C 71.631 106.505, 74.436 110, 76.189 110 C 77.128 110, 79.111 108.875, 80.595 107.500 C 82.796 105.459, 82.967 105, 81.524 105 C 80.088 105, 79.983 104.726, 80.965 103.542 C 81.944 102.362, 81.690 101.599, 79.633 99.542 C 76.840 96.749, 74.146 96.340, 72.310 98.431 M 127.051 104.795 C 124.820 107.026, 124.322 108.269, 124.735 110.569 C 125.461 114.610, 127.801 117, 131.033 117 C 134.725 117, 136.137 114.974, 136.334 109.393 C 136.491 104.959, 136.314 104.616, 133.197 103.322 C 130.056 102.018, 129.756 102.090, 127.051 104.795 M 57.833 133.663 C 54.458 137.254, 51.579 146.767, 52.856 150.107 C 54.272 153.813, 57.367 156.037, 61.311 156.185 C 65.699 156.350, 67.994 154.620, 68.017 151.128 C 68.027 149.682, 68.688 145.416, 69.487 141.648 C 71.190 133.608, 70.437 132.129, 64.223 131.314 C 61.087 130.902, 60.080 131.272, 57.833 133.663" stroke="none" fill="black" fill-rule="evenodd"/>
</svg>