<svg xmlns="http://www.w3.org/2000/svg" width="256" height="256" viewBox="0 0 256 256" version="1.1">
	<path d="M 66.500 30.154 C 63.750 30.659, 57.450 31.759, 52.500 32.597 C 41.414 34.475, 38.010 37.017, 37.983 43.437 C 37.973 45.672, 37.295 50.650, 36.477 54.500 C 35.243 60.302, 35.185 63.212, 36.135 71.500 C 37.851 86.452, 38.008 113.161, 36.433 122 C 35.698 126.125, 34.404 133.325, 33.558 138 C 32.172 145.655, 32.191 150.881, 33.611 153.180 C 34.268 154.243, 40.114 154.214, 41.809 153.139 C 43.321 152.180, 46.828 139.829, 47.670 132.500 C 48.669 123.804, 49.049 123.365, 56.171 122.664 C 59.652 122.321, 64.592 121.754, 67.149 121.402 C 71.369 120.822, 71.952 120.997, 73.460 123.299 C 74.812 125.362, 74.930 126.548, 74.091 129.667 C 73.524 131.775, 72.912 134.400, 72.731 135.500 C 71.935 140.321, 69.775 142, 64.366 142 C 58.281 142, 57.766 142.758, 58.915 150.024 C 60.027 157.058, 61.743 158.518, 68.788 158.423 C 77.585 158.303, 81.662 156.081, 84.175 150.034 C 85.325 147.265, 86.609 145, 87.027 145 C 87.445 145, 87.351 143.088, 86.819 140.750 C 86.058 137.412, 86.325 122.789, 87.213 119.183 C 87.305 118.807, 87.033 117.030, 86.607 115.233 C 85.761 111.658, 81.874 108.989, 78.500 109.664 C 74.572 110.450, 68.660 110.102, 65.795 108.915 C 63.493 107.961, 61.734 107.984, 57.397 109.025 C 52.596 110.176, 51.717 110.146, 50.352 108.781 C 48.335 106.764, 49.404 101.052, 51.829 100.885 C 54.747 100.684, 57.483 101.180, 58 102.003 C 58.275 102.442, 64.476 102.809, 71.780 102.819 C 84.939 102.838, 85.076 102.814, 86.740 100.274 C 87.909 98.490, 88.368 95.872, 88.252 91.657 C 88.159 88.328, 88.460 85.131, 88.920 84.552 C 91.014 81.915, 91.159 78.796, 89.285 76.665 C 86.477 73.471, 85.179 69.769, 86.072 67.500 C 88.532 61.252, 84.330 55.181, 77 54.393 C 74.525 54.127, 69.942 53.192, 66.816 52.316 C 62.340 51.062, 60.243 50.949, 56.948 51.785 C 51.830 53.084, 50 52.487, 50 49.515 C 50 46.305, 51.653 45.356, 58.500 44.631 C 69.716 43.444, 83.708 41.299, 84.856 40.589 C 86.353 39.664, 86.268 34.933, 84.718 32.913 C 81.722 29.011, 76.792 28.265, 66.500 30.154 M 113.205 32.059 C 105.584 33.101, 103.077 37.884, 103.016 51.500 C 102.973 61.138, 101.261 70.842, 98.942 74.594 C 96.572 78.428, 96.484 81.658, 98.630 85.961 C 100.138 88.983, 100.138 89.488, 98.630 92.649 C 95.810 98.564, 96.464 102.695, 101 107.616 C 103.200 110.003, 105 112.885, 105 114.020 C 105 115.156, 106.912 118.587, 109.250 121.645 C 116.628 131.297, 116.729 131.537, 114.467 134.038 C 112.046 136.714, 105.775 140, 103.087 140 C 101.205 140, 98.240 140.986, 93.353 143.239 C 91.505 144.090, 91.328 144.666, 92.084 147.364 C 92.567 149.089, 94.373 151.778, 96.097 153.340 C 98.770 155.760, 99.763 156.079, 102.832 155.504 C 104.812 155.132, 107.642 153.967, 109.121 152.914 C 110.599 151.861, 112.214 151, 112.709 151 C 113.204 151, 115.651 149.705, 118.148 148.121 C 120.644 146.538, 124.304 144.658, 126.282 143.943 C 129.602 142.742, 130.169 142.836, 133.688 145.171 C 148.652 155.098, 152.174 156.645, 156.270 155.087 C 159.472 153.870, 160.537 150.711, 158.999 146.997 C 157.878 144.291, 149.736 139.384, 143.285 137.525 C 139.543 136.447, 139.332 131.295, 142.639 121.753 C 144.213 117.214, 145.838 113.350, 146.250 113.167 C 146.662 112.983, 147 112.171, 147 111.362 C 147 110.553, 148.316 108.483, 149.925 106.762 C 151.534 105.040, 153.310 101.820, 153.872 99.605 C 155.668 92.529, 152.992 91.186, 135.642 90.458 C 127.794 90.128, 121.834 90.374, 118.790 91.153 C 109.680 93.483, 106.454 88.910, 110.968 80.062 C 114.004 74.112, 116.769 62.939, 116.305 58.500 C 115.667 52.404, 117.793 46.029, 120.852 44.866 C 124.039 43.655, 134.166 44.658, 135.191 46.287 C 135.611 46.954, 135.694 48.336, 135.376 49.357 C 135.057 50.379, 135.601 56.648, 136.584 63.288 C 138.321 75.028, 138.476 75.464, 142.191 79.070 C 146.268 83.026, 151.619 86, 154.661 86 C 157.503 86, 162 81.300, 162 78.331 C 162 76.506, 160.407 74.211, 156.603 70.556 L 151.205 65.370 150.591 57.435 C 150.039 50.310, 149.505 46.849, 147.556 37.763 C 146.571 33.176, 143.737 32.217, 130 31.827 C 123.125 31.631, 115.567 31.736, 113.205 32.059 M 50.429 67.079 C 49.643 67.947, 49 69.169, 49 69.794 C 49 71.274, 52.751 73.272, 54.037 72.477 C 56.315 71.069, 60.167 71.068, 64.203 72.474 C 69.897 74.457, 70.660 74.396, 73.544 71.722 C 75.855 69.579, 75.906 69.311, 74.408 67.173 C 72.900 65.019, 72.270 64.916, 62.338 65.200 C 54.342 65.429, 51.520 65.874, 50.429 67.079 M 49.750 83.563 C 48.498 84.849, 48.908 87.679, 50.543 89.036 C 51.709 90.004, 53.157 90.072, 56.461 89.316 C 59.764 88.560, 61.852 88.659, 64.986 89.718 C 70.726 91.659, 73.428 91.115, 73.798 87.944 C 74.175 84.702, 70.435 82.433, 66.322 83.410 C 62.762 84.256, 62.619 84.257, 56 83.457 C 52.975 83.091, 50.163 83.139, 49.750 83.563 M 115.012 104.485 C 112.344 107.701, 118.337 116.182, 124.228 117.527 C 128.574 118.519, 130.836 117.251, 131.963 113.192 C 134.096 105.514, 133.266 104.640, 122.884 103.621 C 117.622 103.105, 116.011 103.281, 115.012 104.485" stroke="none" fill="black" fill-rule="evenodd"/>
</svg>