<svg xmlns="http://www.w3.org/2000/svg" width="256" height="256" viewBox="0 0 256 256" version="1.1">
	<path d="M 112.315 30.062 C 111.114 30.516, 109.721 31.700, 109.219 32.694 C 107.641 35.822, 105.754 51.882, 106.508 55.773 C 106.905 57.823, 107.347 61.975, 107.491 65 C 107.636 68.025, 108.518 73.523, 109.452 77.218 C 111.004 83.354, 111.020 84.566, 109.639 91.218 C 104.826 114.402, 108.536 132.672, 120.344 143.938 C 130.147 153.291, 133.894 155.515, 139.617 155.374 C 149.317 155.137, 159 150.200, 159 145.492 C 159 144.811, 159.889 142.244, 160.976 139.787 C 162.526 136.283, 162.750 134.614, 162.014 132.048 C 160.999 128.510, 158.499 126.082, 155.818 126.032 C 153.840 125.994, 150.424 130.461, 149.444 134.368 C 148.678 137.418, 145.042 140.305, 142.891 139.571 C 142.126 139.310, 139.700 138.842, 137.500 138.530 C 125.973 136.898, 124.829 136.028, 123.661 128 C 123.301 125.525, 122.707 121.925, 122.341 120 C 121.975 118.075, 121.636 108.818, 121.588 99.429 C 121.481 78.616, 121.271 79.011, 132.190 79.535 C 139.679 79.895, 147.749 78.283, 150.692 75.841 C 152.838 74.059, 151.883 68.981, 149 66.846 C 144.175 63.273, 140.957 63.038, 134.296 65.770 C 130.930 67.151, 127.484 68.016, 126.640 67.692 C 123.601 66.526, 122.088 61.259, 120.954 47.901 C 120.330 40.548, 119.400 33.747, 118.887 32.788 C 117.525 30.244, 114.812 29.118, 112.315 30.062 M 74.141 32.859 C 71.754 35.246, 70.729 46.284, 71.062 66 C 71.197 73.975, 71.310 92.319, 71.314 106.764 C 71.322 132.913, 71.311 133.040, 68.986 135.514 C 66.250 138.427, 61.010 138.867, 58.534 136.392 C 57.117 134.974, 57 132.276, 57.551 113.642 C 59.026 63.743, 58.979 62.763, 55.027 61.509 C 52.623 60.746, 46.438 63.522, 45.405 65.827 C 44.689 67.423, 44.207 88.307, 44.065 123.882 L 44 140.264 40.501 143.564 C 35.673 148.117, 34.589 151.270, 36.878 154.098 C 38.633 156.265, 38.836 156.282, 48.083 155.041 C 53.262 154.346, 58.175 153.766, 59 153.752 C 61.194 153.716, 78.160 148.040, 80.500 146.559 C 81.600 145.863, 84.837 145.071, 87.693 144.799 C 94.416 144.159, 97.628 141.975, 99.107 137.036 C 100.828 131.293, 99.362 129.898, 91.839 130.124 C 88.610 130.221, 85.703 130.036, 85.379 129.713 C 83.795 128.129, 82.805 93.622, 84.168 87.500 C 84.535 85.850, 84.873 84.162, 84.918 83.750 C 84.963 83.338, 86.597 83, 88.550 83 C 93.876 83, 97.896 80.451, 100.007 75.735 C 102.988 69.078, 99.434 65.258, 91.384 66.465 C 87.327 67.074, 86.924 66.931, 86.027 64.571 C 85.493 63.167, 84.832 56.105, 84.557 48.878 C 84.006 34.378, 82.857 31, 78.477 31 C 77.115 31, 75.164 31.836, 74.141 32.859" stroke="none" fill="black" fill-rule="evenodd"/>
</svg>