<svg xmlns="http://www.w3.org/2000/svg" width="256" height="256" viewBox="0 0 256 256" version="1.1">
	<path d="M 89 35.789 C 87.075 35.949, 80.778 36.760, 75.007 37.594 C 59.840 39.783, 58.746 41.311, 57.531 62 C 57.192 67.775, 56.706 73.867, 56.452 75.538 C 55.895 79.190, 52.194 81.579, 46.636 81.873 C 42.452 82.095, 38.401 84.465, 37.461 87.241 C 36.479 90.138, 37.862 91, 43.488 91 C 47.036 91, 49.390 91.533, 50.429 92.571 C 52.333 94.476, 52.513 102.484, 50.854 111.487 C 49.519 118.736, 50.070 121.741, 53.478 125.791 C 55.536 128.237, 56.981 128.853, 62 129.421 C 65.324 129.797, 69.947 130.797, 72.272 131.644 C 75.568 132.845, 78.876 133.049, 87.279 132.573 C 95.689 132.095, 99.288 132.319, 103.655 133.588 C 106.942 134.544, 110.756 134.975, 112.896 134.633 C 117.501 133.896, 122.409 135.171, 122.801 137.205 C 122.966 138.063, 121.841 140.114, 120.301 141.763 C 118.044 144.178, 116.459 144.855, 112.143 145.244 C 106.194 145.780, 104.750 147.072, 106.338 150.436 C 108.455 154.923, 122.808 159.734, 126.621 157.235 C 127.238 156.831, 129.094 153.800, 130.746 150.500 C 132.868 146.261, 133.608 143.564, 133.270 141.309 C 132.501 136.191, 135.956 133.547, 145.214 132.170 C 154.607 130.773, 158.045 129.335, 157.276 127.126 C 156.334 124.420, 152.682 122.046, 149.424 122.022 C 147.457 122.008, 145.502 121.099, 143.999 119.499 C 141.880 117.243, 141.657 116.120, 141.723 108.040 C 141.765 102.904, 142.366 97.795, 143.131 96.066 C 144.648 92.639, 148.820 90.491, 151.998 91.500 C 153.179 91.874, 155.237 91.906, 156.572 91.571 C 158.613 91.059, 159 90.353, 159 87.136 C 159 82.556, 157.349 80.833, 150.541 78.308 C 146.856 76.941, 145.424 75.830, 144.966 73.984 C 144.626 72.618, 144.507 64.739, 144.700 56.476 C 145.139 37.711, 145.271 37.954, 133.865 36.599 C 126.046 35.670, 96.824 35.142, 89 35.789 M 107.737 50.298 C 99.606 52.042, 97.420 52.192, 94.666 51.196 C 89.583 49.358, 82.662 49.692, 79.841 51.910 C 76.152 54.813, 69 70.714, 69 76.016 C 69 78.243, 70.547 78.711, 80 79.343 C 83.575 79.582, 89.077 80.368, 92.227 81.090 C 97.515 82.303, 98.264 82.245, 102.013 80.341 C 105.733 78.452, 106.533 78.387, 111.576 79.559 C 117.604 80.960, 129.156 79.946, 131.757 77.786 C 133.296 76.510, 133.073 72.268, 131.007 63.500 C 130.359 60.750, 129.854 57.024, 129.885 55.221 C 130.014 47.734, 124.942 46.606, 107.737 50.298 M 95.400 55.765 C 93.748 56.868, 92 60.592, 92 63.007 C 92 65.484, 103.584 76.937, 106.129 76.975 C 108.077 77.005, 110.400 71.855, 110.400 67.506 C 110.400 60.673, 100.110 52.620, 95.400 55.765 M 67.606 93.250 C 66.536 94.921, 66.223 98.311, 66.390 106.419 C 66.643 118.676, 66.720 118.794, 74.591 118.930 C 76.841 118.968, 80.891 119.670, 83.591 120.489 C 89.931 122.412, 94.990 122.396, 97.777 120.443 C 100.761 118.354, 100.576 116.486, 97.134 113.941 C 92.836 110.763, 89.629 104.561, 90.980 102.038 C 92.383 99.415, 96.276 98.489, 100.019 99.887 C 101.659 100.499, 104.371 101.513, 106.047 102.141 C 109.246 103.338, 111.925 107.321, 111.465 110.193 C 111.316 111.124, 110.525 112.840, 109.707 114.007 C 105.081 120.613, 116.572 124.757, 125.500 119.703 L 129.500 117.438 129.708 105.228 L 129.916 93.017 127.412 92.388 C 124.786 91.730, 120.547 92.087, 105.239 94.257 C 96.409 95.509, 95.641 95.464, 88.739 93.286 C 84.431 91.926, 78.979 91.001, 75.273 91 C 69.909 91, 68.847 91.312, 67.606 93.250" stroke="none" fill="black" fill-rule="evenodd"/>
</svg>