<svg xmlns="http://www.w3.org/2000/svg" width="256" height="256" viewBox="0 0 256 256" version="1.1">
	<path d="M 74.109 30.250 C 73.646 31.488, 72.939 34.975, 72.536 38 C 72.134 41.025, 71.664 44.284, 71.492 45.242 C 71.320 46.201, 72.272 48.595, 73.607 50.563 L 76.036 54.141 73.892 57.152 C 72.213 59.509, 71.749 61.610, 71.754 66.831 C 71.758 72.167, 71.349 73.950, 69.705 75.750 C 68.576 76.987, 67.370 78, 67.027 78 C 65.887 78, 64 71.419, 63.996 67.429 C 63.993 64.741, 63.047 62.079, 61 59 C 59.355 56.525, 58.007 54.181, 58.004 53.790 C 58.002 53.400, 59.237 51.932, 60.750 50.528 L 63.500 47.975 60.789 42.738 C 59.297 39.857, 57.803 36.058, 57.469 34.295 C 56.532 29.358, 52.796 28.965, 46.991 33.192 C 45.612 34.197, 40.908 35.641, 36.539 36.401 C 28.656 37.771, 25 40.021, 25 43.500 C 25 47.439, 32.002 50.612, 44.989 52.556 C 49.440 53.222, 50.794 54.517, 49.383 56.755 C 48.103 58.784, 44.978 59.765, 39.361 59.900 C 32.279 60.071, 28.380 65.716, 34.092 67.529 C 36.688 68.353, 36.489 70.158, 33.558 72.359 C 31.245 74.096, 29.172 79.505, 30.363 80.696 C 30.667 81, 33.747 82.225, 37.208 83.417 C 40.669 84.610, 43.649 86.237, 43.830 87.033 C 44.012 87.830, 44.687 88.823, 45.330 89.241 C 46.190 89.798, 46.202 90.199, 45.376 90.750 C 44.757 91.162, 43.922 93.018, 43.519 94.873 C 42.619 99.020, 39.675 104.225, 35.258 109.482 C 30.691 114.915, 31.092 117.936, 36.650 119.982 C 43.455 122.486, 45.270 124.713, 44.530 129.648 C 43.501 136.508, 43.733 151.633, 44.900 153.814 C 46.540 156.877, 51.666 158.154, 58.554 157.215 C 61.824 156.769, 72.825 156.790, 83 157.261 C 95.222 157.827, 102.689 157.770, 105.005 157.092 C 109.690 155.721, 117.254 147.669, 119.429 141.738 C 120.715 138.230, 122.318 136.189, 125.517 133.988 C 127.906 132.345, 130.342 131, 130.930 131 C 131.519 131, 132 130.570, 132 130.045 C 132 128.275, 136.482 133.678, 138.881 138.342 C 140.190 140.887, 143.837 145.676, 146.986 148.985 C 152.752 155.045, 155.664 156.217, 160.418 154.393 C 163.943 153.040, 160.326 140.087, 155.641 137.289 C 154.914 136.855, 153.048 134.250, 151.494 131.500 C 147.586 124.586, 145.293 122.247, 141.103 120.899 C 136.876 119.539, 134.824 118.094, 135.519 116.969 C 135.792 116.527, 136.257 111.065, 136.552 104.832 C 137.344 88.113, 137.601 84.824, 138.388 81.381 C 139.005 78.683, 138.680 77.908, 135.974 75.631 C 134.254 74.184, 131.869 72.994, 130.673 72.986 C 125.627 72.955, 124 71.885, 124 68.599 C 124 63.908, 127.839 62, 137.282 62 C 142.056 62, 145.119 62.451, 145.764 63.250 C 146.442 64.091, 146.436 66.554, 145.744 70.778 C 144.862 76.158, 144.971 77.588, 146.504 80.778 C 147.488 82.825, 148.614 85.175, 149.005 86 C 150.594 89.344, 153.397 87.512, 157.420 80.500 C 161.415 73.538, 161.437 73.441, 161.468 62.782 C 161.497 52.978, 161.308 51.872, 159.249 49.809 C 156.828 47.384, 156.306 47.334, 139.263 47.927 C 126.406 48.373, 125 47.398, 125 38.034 C 125 32.016, 124.710 30.910, 122.777 29.557 C 120.102 27.682, 116.413 27.530, 115.334 29.250 C 114.902 29.938, 114.219 33.425, 113.816 37 C 111.380 58.582, 109.197 67.946, 105.712 71.750 C 101.766 76.059, 98.737 73.381, 99.672 66.410 C 100.132 62.981, 99.791 61.988, 97.202 59.216 C 94.624 56.457, 93.509 55.998, 89.349 55.985 C 79.933 55.955, 80.234 53.482, 90 50.642 C 101.299 47.355, 104.811 42.910, 99.750 38.298 C 96.718 35.535, 80.318 28, 77.337 28 C 75.778 28, 74.659 28.780, 74.109 30.250 M 42 65.929 C 42 66.439, 41.277 67.580, 40.393 68.464 C 38.682 70.176, 38.995 70.621, 45.882 76.250 C 48.636 78.501, 48.830 78.476, 51.599 75.488 C 54.777 72.059, 52.738 67.082, 48.010 66.726 C 46.905 66.643, 46 66.220, 46 65.787 C 46 65.354, 45.100 65, 44 65 C 42.900 65, 42 65.418, 42 65.929 M 82.529 67.614 C 80.466 69.677, 80.604 70.717, 83.117 72.062 C 85.674 73.431, 88.444 71.322, 87.459 68.755 C 86.555 66.399, 84.272 65.870, 82.529 67.614 M 66 82.078 C 66 82.671, 64.125 84.905, 61.834 87.041 L 57.668 90.926 61.529 94.463 C 63.653 96.408, 65.693 98, 66.063 98 C 66.432 98, 67.912 96.220, 69.352 94.044 C 71.942 90.131, 71.965 89.584, 69.785 83.750 C 68.795 81.101, 66 79.866, 66 82.078 M 84 84 C 84 84.550, 83.438 85.004, 82.750 85.008 C 82.063 85.012, 80.972 86.153, 80.328 87.543 C 79.405 89.531, 79.445 90.628, 80.512 92.686 C 82.400 96.325, 83.756 96.967, 89.595 96.985 C 97.353 97.008, 99.790 100.638, 96.420 107.154 C 95.261 109.397, 95.022 111.526, 95.523 115.169 C 96.334 121.065, 94.646 123.068, 89 122.907 C 87.075 122.851, 84.977 122.850, 84.338 122.903 C 82.724 123.038, 83.358 126.307, 85.087 126.769 C 85.864 126.976, 87.400 127.523, 88.500 127.982 C 89.600 128.442, 91.294 129.073, 92.265 129.384 C 93.236 129.694, 94.493 131.166, 95.058 132.653 C 96.448 136.309, 93.615 139.186, 88.339 139.478 C 82.961 139.776, 81 140.850, 81 143.500 C 81 146.609, 82.784 147.076, 91.790 146.325 C 100.858 145.570, 106.169 142.821, 107.845 138.016 C 108.441 136.306, 109.845 133.742, 110.964 132.318 C 112.084 130.895, 113 129.041, 113 128.199 C 113 127.357, 114.968 123.480, 117.373 119.584 C 123.828 109.126, 124.691 103.827, 122.801 86.250 C 122.654 84.882, 120.368 84.524, 119.833 85.786 C 119.650 86.218, 117.981 87.639, 116.125 88.943 C 112.228 91.681, 107.007 91.890, 103.293 89.456 C 101.955 88.580, 99.436 87.822, 97.696 87.772 C 95.956 87.723, 92.434 86.629, 89.871 85.341 C 84.650 82.719, 84 82.570, 84 84 M 65.469 109.050 C 64.519 110.588, 65.820 111.580, 67.104 110.296 C 67.822 109.578, 67.839 109.019, 67.156 108.597 C 66.596 108.251, 65.837 108.455, 65.469 109.050 M 59.500 110 C 59.840 110.550, 60.740 111, 61.500 111 C 62.260 111, 63.160 110.550, 63.500 110 C 63.852 109.431, 62.991 109, 61.500 109 C 60.009 109, 59.148 109.431, 59.500 110 M 65 121.943 C 65 122.461, 64.129 122.717, 63.064 122.512 C 59.928 121.908, 58.654 124.377, 61.004 126.503 C 62.102 127.497, 63 127.960, 63 127.533 C 63 127.105, 63.570 127.229, 64.268 127.807 C 65.179 128.564, 66.165 128.384, 67.778 127.167 C 69.871 125.589, 69.916 125.326, 68.454 123.238 C 66.850 120.948, 65 120.254, 65 121.943 M 59.750 139.115 C 58.237 140.244, 57 141.957, 57 142.923 C 57 146.533, 66.424 148.433, 69.429 145.429 C 71.535 143.322, 71.408 141.408, 69 139 C 66.461 136.461, 63.254 136.501, 59.750 139.115" stroke="none" fill="black" fill-rule="evenodd"/>
</svg>