<svg xmlns="http://www.w3.org/2000/svg" width="256" height="256" viewBox="0 0 256 256" version="1.1">
	<path d="M 113.776 31.750 C 110.403 35.596, 109 39.979, 108.988 46.700 C 108.974 54.663, 107.164 62.228, 103.345 70.281 C 100.780 75.688, 100.529 75.922, 99.448 73.902 C 98.812 72.715, 98.231 67.468, 98.156 62.243 C 98.029 53.399, 98.234 52.341, 101.128 46.911 C 104.825 39.976, 104.492 36.903, 99.723 33.926 C 97.208 32.356, 95.511 32.047, 92 32.520 C 89.525 32.853, 75.575 33.434, 61 33.813 C 37.870 34.413, 34.164 34.728, 31.854 36.297 C 29.171 38.119, 27.757 41.204, 28.600 43.399 C 29.722 46.325, 44.044 51.367, 44.799 49.103 C 45.298 47.605, 51.403 46.665, 55.562 47.446 C 59.818 48.244, 59.923 50.625, 55.806 52.936 C 53.387 54.293, 52.639 54.265, 48.156 52.653 C 44.016 51.164, 42.845 51.080, 41.136 52.147 C 37.841 54.205, 35.591 59.247, 36.472 62.598 C 37.673 67.166, 37.469 72.213, 35.939 75.788 C 34.714 78.652, 34.729 79.426, 36.051 81.781 C 36.886 83.269, 38.421 84.650, 39.464 84.851 C 40.506 85.051, 41.953 85.811, 42.681 86.538 C 43.562 87.420, 44.918 87.607, 46.751 87.101 C 48.263 86.684, 50.850 86.500, 52.500 86.693 C 61.662 87.765, 68.721 86.108, 70.797 82.399 C 71.283 81.529, 71.242 78.178, 70.701 74.681 C 70.049 70.468, 70.098 66.748, 70.852 63 C 71.919 57.699, 71.588 53.636, 69.913 51.466 C 68.567 49.724, 70.334 48.170, 75.120 46.890 C 81.079 45.297, 82.662 46.030, 84.002 51.006 C 85.701 57.316, 84.583 88.846, 82.589 90.840 C 80.586 92.843, 70.179 93.578, 64.722 92.103 C 62.400 91.475, 54.351 90.857, 46.836 90.730 C 33.599 90.507, 33.091 90.576, 30.586 92.924 C 27.407 95.905, 26.874 102.550, 29.750 103.355 C 30.712 103.624, 38.025 104.134, 46 104.489 C 61.553 105.180, 68.369 106.376, 67.741 108.306 C 67.528 108.963, 65.464 110.552, 63.155 111.837 C 59.256 114.007, 58.606 114.084, 54.034 112.912 C 48.402 111.469, 42.525 112.657, 39.665 115.818 C 37.180 118.564, 36.062 126.371, 37.102 133.714 C 37.814 138.742, 38.591 140.631, 40.753 142.591 C 43.244 144.848, 44.013 145.014, 49 144.365 C 52.025 143.972, 58.274 143.542, 62.887 143.410 C 74.076 143.090, 74.685 142.447, 75.592 130 C 76.523 117.209, 76.393 114.494, 74.684 111.069 C 73.283 108.260, 73.328 108.110, 75.864 107.141 C 81.637 104.936, 82.602 104.947, 84.686 107.241 C 86.632 109.383, 87.560 116.677, 87.199 127 C 87.151 128.375, 87.075 133.202, 87.030 137.727 C 86.950 145.760, 86.866 146.034, 83.474 149.328 C 81.563 151.184, 80 153.184, 80 153.773 C 80 155.487, 86.737 157.236, 91.307 156.709 C 105.371 155.086, 109.457 153.949, 112.830 150.721 C 114.682 148.950, 117.208 145.239, 118.444 142.476 C 119.679 139.712, 123.010 135.070, 125.845 132.159 C 128.680 129.248, 131 126.447, 131 125.933 C 131 124.386, 133.191 124.883, 134.599 126.750 C 135.325 127.712, 139.136 133.225, 143.067 139 C 150.821 150.393, 155.739 155, 160.142 155 C 162.377 155, 163.112 154.429, 163.684 152.250 C 164.886 147.671, 163.108 142.108, 159.190 138.190 C 158.253 137.253, 155.532 133.392, 153.143 129.609 C 148.302 121.943, 145.014 118.564, 140.368 116.478 C 138.059 115.441, 137.076 114.209, 136.626 111.786 C 136.071 108.795, 135.695 92.859, 135.930 82.216 C 136.003 78.864, 135.460 77.369, 133.432 75.341 C 131.183 73.092, 130.268 72.828, 126.498 73.345 L 122.156 73.940 122.489 70.359 C 122.672 68.390, 123.303 66.297, 123.891 65.709 C 125.089 64.511, 138.005 63.728, 142.250 64.596 C 144.838 65.126, 145 65.475, 145 70.514 C 145 73.460, 145.498 77.137, 146.107 78.685 C 146.716 80.233, 147.503 83.739, 147.857 86.476 C 148.408 90.744, 148.893 91.591, 151.255 92.421 C 154.841 93.682, 155.881 92.588, 157.510 85.840 C 158.219 82.903, 159.536 77.800, 160.436 74.500 C 162.765 65.966, 161.717 54.626, 158.282 51.191 C 156.047 48.956, 155.291 48.794, 149.666 49.339 C 127.521 51.489, 128.386 51.519, 125.574 48.485 C 123.345 46.080, 123 44.816, 123 39.054 C 123 35.212, 122.493 31.893, 121.800 31.200 C 120.033 29.433, 115.537 29.741, 113.776 31.750 M 46.556 67.250 C 43.305 70.113, 43.988 73.211, 48.482 75.989 C 52.466 78.451, 53.570 78.490, 55.918 76.250 C 59.107 73.207, 59.457 70.116, 56.920 67.415 C 54.052 64.362, 49.911 64.296, 46.556 67.250 M 118.076 79.250 C 117.303 80.487, 116.811 81.500, 116.983 81.500 C 117.155 81.500, 116.283 83.485, 115.045 85.911 C 112.939 90.040, 112.876 90.706, 114.067 96.317 C 115.334 102.284, 115.327 102.322, 112.614 104.656 C 111.115 105.945, 109.035 107, 107.991 107 C 105.066 107, 101.098 109.116, 100.502 110.994 C 100.207 111.924, 99.739 117.143, 99.463 122.592 C 99.186 128.041, 98.887 133.625, 98.797 135 C 98.610 137.874, 99.810 142.015, 100.817 141.968 C 102.944 141.869, 114 128.198, 114 125.667 C 114 123.562, 117.616 115.356, 118.890 114.568 C 120.984 113.274, 122.121 105.593, 122.059 93.165 C 122.024 86.199, 121.921 79.713, 121.831 78.750 C 121.603 76.318, 119.753 76.564, 118.076 79.250 M 97.500 83 C 97.151 84.100, 96.515 85, 96.087 85 C 94.674 85, 95.563 90.322, 97.142 91.318 C 97.994 91.855, 99.885 91.995, 101.345 91.628 C 104.594 90.813, 104.930 87.375, 102.060 84.295 C 100.993 83.150, 100.393 81.940, 100.727 81.606 C 101.060 81.273, 100.614 81, 99.734 81 C 98.854 81, 97.849 81.900, 97.500 83 M 53 120.828 C 50.288 122.128, 49.433 123.193, 49.201 125.558 C 48.970 127.920, 49.422 128.861, 51.201 129.721 C 55.180 131.645, 57.802 131.827, 59.944 130.327 C 62.541 128.507, 62.027 124.550, 58.781 121.378 C 56.568 119.216, 56.396 119.200, 53 120.828" stroke="none" fill="black" fill-rule="evenodd"/>
</svg>