<svg xmlns="http://www.w3.org/2000/svg" width="256" height="256" viewBox="0 0 256 256" version="1.1">
	<path d="M 115 30.776 C 112.354 31.631, 110 34.251, 110 36.341 C 110 37.458, 109.372 41.101, 108.605 44.436 C 107.838 47.771, 106.697 52.975, 106.069 56 C 104.659 62.805, 99.296 72, 96.739 72 C 95.728 72, 93.518 71.285, 91.827 70.411 C 88.668 68.777, 86.786 68.837, 74.500 70.967 C 71.200 71.540, 65.169 71.713, 61.098 71.352 C 51.985 70.545, 50 68.962, 50 62.500 C 50 56.900, 52.188 54.478, 58.144 53.486 C 62.859 52.700, 67.288 50.701, 76.250 45.313 C 80.747 42.609, 82 41.321, 82 39.403 C 82 36.508, 78.626 34.841, 74.324 35.611 C 66.065 37.090, 61.999 38.390, 57.221 41.079 C 54.318 42.713, 49.508 44.960, 46.533 46.074 C 40.680 48.263, 40.322 48.837, 38.150 59.500 C 35.850 70.791, 35.891 72.507, 38.617 78.639 C 41.103 84.232, 41.199 85.094, 40.712 97.500 C 40.254 109.163, 37.861 124.396, 33.877 141 C 31.899 149.243, 31.702 154.508, 33.321 155.851 C 35.266 157.466, 39.253 156.424, 41.896 153.611 C 44.674 150.654, 48.091 137.649, 49.046 126.400 C 49.471 121.394, 50.626 115.094, 51.613 112.400 C 52.861 108.992, 53.421 104.543, 53.454 97.790 C 53.510 86.054, 54.514 84.445, 61.690 84.600 C 68.976 84.757, 70.515 88.435, 67.480 98.440 C 66.278 102.403, 66.193 104.551, 67.053 109.290 C 68.464 117.072, 68.493 135.579, 67.101 139.993 C 64.425 148.483, 67.349 155.030, 73.899 155.216 C 79.529 155.376, 79.737 154.455, 79.876 128.729 C 80.012 103.453, 80.734 90.477, 82.155 87.753 C 82.657 86.793, 84.739 85.120, 86.783 84.037 C 88.828 82.953, 91.812 80.702, 93.417 79.034 C 96.241 76.096, 100.285 75.034, 101.452 76.923 C 102.927 79.309, 108.068 79.150, 112.448 76.584 C 116.456 74.234, 117 74.142, 118.428 75.571 C 120.764 77.906, 120.900 82.832, 118.953 94.500 C 117.750 101.706, 113.441 111.992, 110.989 113.506 C 110.539 113.785, 108.931 117.254, 107.418 121.215 C 104.506 128.836, 96.807 140, 94.464 140 C 92.190 140, 90.737 143.977, 91.273 148.733 C 91.887 154.174, 92.669 155.012, 97.773 155.696 C 101.755 156.231, 101.819 156.187, 105.553 150.367 C 107.624 147.140, 110.610 141.750, 112.188 138.389 C 113.767 135.029, 116.395 131.088, 118.029 129.632 C 119.663 128.176, 121 126.538, 121 125.992 C 121 125.447, 121.637 125, 122.415 125 C 123.977 125, 129.699 119.369, 129.165 118.358 C 128.980 118.009, 129.205 117.448, 129.665 117.112 C 132.241 115.225, 133.005 111.906, 131.886 107.460 C 131.259 104.970, 130.966 101.260, 131.235 99.216 C 131.504 97.172, 131.414 93.113, 131.034 90.195 C 130.549 86.466, 130.754 84.100, 131.724 82.231 C 133.446 78.912, 132.603 73.386, 129.866 70.050 C 128.386 68.247, 126.884 67.606, 124.178 67.623 C 119.870 67.649, 118.801 66.531, 120.199 63.464 C 121.355 60.925, 125.887 60, 137.171 60 C 145.385 60, 146.183 60.990, 143.673 68.057 C 141.468 74.266, 141.563 77.174, 144.073 80.365 C 146.847 83.892, 148.136 83.698, 152.258 79.136 C 157.757 73.050, 161.310 58.498, 159.003 51.510 C 157.240 46.167, 154.236 45.516, 140.200 47.432 C 123.468 49.716, 121.309 48.675, 120.803 38.072 C 120.551 32.781, 120.166 31.602, 118.500 31.006 C 117.400 30.613, 115.825 30.510, 115 30.776 M 133.771 120.250 C 131.855 123.205, 132.451 129.772, 134.876 132.424 C 135.920 133.566, 137.687 136.320, 138.803 138.544 C 141.758 144.437, 152.476 154.679, 156.472 155.429 C 161.734 156.416, 163.305 155.309, 162.729 151.016 C 162.302 147.830, 156.243 137.738, 154.205 136.818 C 153.175 136.353, 148 128.214, 148 127.059 C 148 125.194, 139.593 118, 137.414 118 C 136.213 118, 134.574 119.013, 133.771 120.250" stroke="none" fill="black" fill-rule="evenodd"/>
</svg>