<svg xmlns="http://www.w3.org/2000/svg" width="256" height="256" viewBox="0 0 256 256" version="1.1">
	<path d="M 97.006 33.250 C 96.482 34.487, 95.352 38.322, 94.494 41.771 C 93.090 47.417, 93.087 48.490, 94.467 52.555 C 96.440 58.365, 96.401 60.973, 94.296 64.027 C 91.691 67.807, 89.823 68.929, 86 69.012 C 84.075 69.054, 80.700 69.736, 78.500 70.529 C 72.666 72.631, 71.238 72.362, 69.404 68.814 C 68.115 66.321, 67.903 64.199, 68.433 59.064 C 70.397 40.011, 70.447 41.356, 67.672 38.581 C 65.650 36.559, 64.630 36.200, 62.807 36.871 C 60.290 37.796, 60.171 38.106, 56.995 52 C 54.421 63.262, 53.170 64.994, 47.595 65.015 C 42.337 65.035, 41.167 65.842, 39.505 70.600 C 38.401 73.761, 38.383 74.869, 39.407 76.445 C 41.720 80.004, 43.450 80.451, 49.391 79.026 C 54.264 77.857, 55.458 77.888, 58.739 79.265 C 60.807 80.133, 63.980 81.442, 65.789 82.172 C 69.228 83.560, 70.804 86.747, 69.340 89.348 C 68.878 90.169, 64.981 93.841, 60.681 97.509 C 51.644 105.216, 45.676 113.690, 45.335 119.301 C 45.035 124.235, 46.448 124.706, 53.153 121.907 C 59.077 119.434, 63.139 116.117, 66.098 111.336 C 67.176 109.596, 70.275 106.749, 72.985 105.009 C 78.415 101.525, 79.077 100.324, 78.844 94.380 C 78.568 87.333, 83.128 82.108, 88.630 83.167 C 90.806 83.586, 94.403 94.470, 96.508 107 C 97.294 111.675, 98.621 117.750, 99.457 120.500 C 101.832 128.307, 101.490 131.410, 97.923 134.411 C 95.319 136.603, 93.870 137, 88.482 137 C 84.982 137, 81.858 137.421, 81.540 137.936 C 81.221 138.451, 78.494 140.079, 75.479 141.554 C 70.845 143.821, 69.121 144.153, 64.321 143.697 C 56.537 142.959, 51.371 145.035, 50.439 149.276 C 49.888 151.786, 50.190 152.735, 52.005 154.205 C 55.304 156.876, 58.576 157.402, 64.355 156.190 C 67.185 155.596, 73.141 154.461, 77.591 153.668 C 82.529 152.788, 87.266 151.226, 89.748 149.659 C 92.228 148.094, 95.509 147.011, 98.157 146.885 C 104.901 146.563, 108.144 144.257, 111.573 137.343 C 112.696 135.081, 114.922 133.334, 119.427 131.183 C 125.589 128.239, 130 124.123, 130 121.317 C 130 119.541, 136.374 109.396, 139.755 105.791 C 142.136 103.252, 142.254 102.646, 141.645 96.089 L 140.995 89.095 144.473 88.135 C 146.386 87.607, 148.837 87.406, 149.919 87.689 C 151.184 88.020, 152.796 87.295, 154.430 85.661 C 156.522 83.569, 156.902 82.387, 156.574 78.984 C 155.938 72.388, 151.172 69.924, 142.792 71.859 C 136.713 73.262, 130.971 73.320, 127.531 72.012 C 126.101 71.468, 122.577 70.819, 119.698 70.570 C 112.548 69.949, 111.404 69.371, 109.536 65.434 C 108.378 62.994, 108.198 61.498, 108.904 60.179 C 111.174 55.937, 112.806 55.501, 126.481 55.478 C 137.321 55.460, 140.128 55.146, 142.327 53.705 C 145.385 51.702, 146.081 46.629, 143.437 45.614 C 138.670 43.785, 127.961 41.998, 121.688 41.985 C 112.925 41.967, 110.199 40.697, 107.180 35.223 C 105.141 31.526, 104.420 31, 101.404 31 C 98.778 31, 97.730 31.536, 97.006 33.250 M 108.621 87.250 C 106.144 91.162, 105.737 95.690, 107.408 100.752 C 108.780 104.908, 109.757 110.841, 109.943 116.143 C 110.016 118.249, 112.640 119.263, 114.894 118.057 C 115.857 117.542, 118.779 113.606, 121.389 109.310 C 126.378 101.097, 130.101 95.651, 132.652 92.832 C 134.809 90.449, 133.515 87.375, 129.810 86.084 C 128.100 85.488, 122.954 85, 118.374 85 C 110.827 85, 109.913 85.211, 108.621 87.250" stroke="none" fill="black" fill-rule="evenodd"/>
</svg>