<svg xmlns="http://www.w3.org/2000/svg" width="256" height="256" viewBox="0 0 256 256" version="1.1">
	<path d="M 55.388 27.119 C 53.411 27.670, 51.311 29.442, 49.633 31.978 C 47.985 34.468, 45.097 36.931, 41.958 38.522 C 35.835 41.624, 34.251 44.492, 35.757 49.747 C 36.349 51.811, 36.622 57.325, 36.364 62 C 34.447 96.754, 34.462 97.019, 38.589 101.923 C 40.926 104.701, 41.736 105, 46.915 105 C 51.597 105, 53.024 105.413, 54.677 107.250 C 57.782 110.700, 58.073 112.553, 56.483 118.767 C 54.956 124.735, 54.814 126.723, 55.424 133.658 C 55.673 136.488, 55.189 138.805, 53.910 140.908 C 51.898 144.216, 50.429 144.661, 47.938 142.718 C 45.373 140.718, 45.057 138.470, 46.548 132.841 C 47.326 129.904, 47.763 126.825, 47.518 126 C 47.272 125.175, 46.806 122.925, 46.482 121 C 45.123 112.942, 40.680 110.839, 36.600 116.323 C 34.772 118.781, 34.481 120.659, 34.356 130.823 C 34.278 137.246, 33.884 145.087, 33.483 148.248 C 32.301 157.551, 33.255 158.005, 47.500 154.929 C 50.250 154.335, 55.650 153.494, 59.500 153.060 C 68.087 152.093, 79.401 149.566, 84.284 147.526 C 90.151 145.075, 91.317 140.408, 87.227 135.750 C 85.123 133.354, 81.744 133.555, 76.410 136.395 C 72.308 138.578, 67.305 138.934, 68.528 136.955 C 68.805 136.506, 68.575 135.856, 68.016 135.510 C 66.390 134.505, 66.883 129.710, 68.881 127.112 C 70.506 124.998, 71.163 124.820, 74.608 125.561 C 83.084 127.384, 87 125.457, 87 119.464 C 87 113.884, 81.100 111.097, 76.559 114.532 C 71.716 118.195, 67.192 114.999, 67.885 108.403 C 68.046 106.866, 71.525 103, 72.747 103 C 73.304 103, 75.337 104.800, 77.265 107 C 79.194 109.200, 81.220 111, 81.767 111 C 82.315 111, 83.988 109.394, 85.485 107.431 C 87.532 104.747, 88.049 103.198, 87.572 101.181 C 86.409 96.272, 86.488 95.579, 88.247 95.216 C 89.376 94.982, 90.326 95.727, 90.932 97.322 C 91.776 99.542, 96.843 103, 99.252 103 C 99.772 103, 101.542 101.561, 103.186 99.801 C 105.792 97.011, 106.842 96.596, 111.406 96.551 C 115.141 96.515, 117.149 97.010, 118.421 98.280 C 121.082 100.938, 121.050 105.604, 118.354 108.137 C 116.305 110.062, 115.673 110.155, 111.604 109.130 C 100.402 106.310, 99.347 107.790, 99.223 126.500 C 99.112 143.418, 99.733 145, 106.488 145 C 112.232 145, 113 143.547, 113 132.677 C 113 126.098, 113.390 123.740, 114.759 122.050 C 118.844 117.005, 122.610 123.315, 121.396 133.170 C 120.169 143.131, 120.558 147.533, 123.119 152.698 C 126.861 160.245, 132.177 159.829, 133.519 151.885 C 133.891 149.685, 135.212 146.702, 136.455 145.257 C 138.433 142.958, 139.377 142.660, 144.014 142.871 C 152.493 143.258, 154.454 141.936, 156.913 134.170 C 159.403 126.306, 159.782 119.899, 158.065 114.697 C 156.587 110.217, 153.117 108.446, 145.172 108.114 C 139.184 107.863, 134.602 106.453, 135.429 105.115 C 135.731 104.626, 135.333 103.691, 134.545 103.037 C 132.549 101.381, 134.559 97.149, 137.719 96.356 C 141.175 95.488, 147.682 96.754, 150.087 98.762 C 151.232 99.718, 153.368 101.512, 154.834 102.749 C 158.013 105.430, 158.836 105.504, 161.873 103.377 C 163.933 101.934, 164.114 101.240, 163.507 97.127 C 162.641 91.257, 159.780 86.566, 156.151 85.063 C 153.630 84.018, 147.258 83.750, 133 84.088 C 130.525 84.146, 123.100 84.068, 116.500 83.915 C 104.133 83.627, 95.764 85.143, 90.432 88.637 C 88.333 90.012, 88.055 89.970, 87.072 88.134 C 86.482 87.033, 86 85.484, 86 84.693 C 86 83.902, 85.106 81.234, 84.014 78.764 C 82.124 74.493, 82.107 74.037, 83.652 69.387 C 84.545 66.699, 86 63.667, 86.885 62.648 C 88.538 60.745, 88.437 60.746, 100.534 62.632 C 102.233 62.897, 104.875 62.424, 106.534 61.559 C 110.122 59.688, 115.013 59.548, 117.290 61.250 C 120.352 63.539, 117.698 65.217, 110.165 65.756 C 104.427 66.167, 102.687 66.704, 100.887 68.621 C 99.031 70.596, 98.848 71.371, 99.764 73.381 C 100.991 76.074, 106.116 79, 109.607 79 C 110.871 79, 113.084 78.463, 114.525 77.807 C 116.288 77.003, 117.365 76.949, 117.822 77.641 C 118.648 78.892, 127 79.107, 127 77.876 C 127 76.832, 138.351 76.684, 139.381 77.715 C 140.409 78.743, 145 78.850, 145 77.846 C 145 77.381, 145.735 77, 146.633 77 C 149.091 77, 151.985 73.091, 152.115 69.597 C 152.179 67.894, 152.335 66.050, 152.463 65.500 C 152.591 64.950, 152.764 63.987, 152.848 63.360 C 152.931 62.733, 155.043 61.260, 157.541 60.086 C 160.038 58.912, 162.328 57.308, 162.630 56.522 C 163.386 54.551, 161.178 51.680, 155.670 47.474 C 151.262 44.109, 151 43.641, 151 39.143 C 151 33.908, 148.683 30.376, 144.722 29.574 C 139.694 28.555, 120.555 27.990, 112.849 28.633 C 106.126 29.194, 104.160 29.749, 102.294 31.616 C 99.337 34.572, 99.397 36.537, 102.532 39.442 C 105.010 41.739, 105.376 41.778, 119.541 41.247 C 132.545 40.761, 134.220 40.889, 136.009 42.508 C 138.670 44.916, 138.529 45.675, 135.085 47.456 C 132.710 48.684, 131.115 48.768, 126.480 47.912 C 123.316 47.327, 118.950 47.197, 116.645 47.620 C 114.365 48.038, 110.250 48.271, 107.500 48.137 C 104.750 48.004, 100.250 48.588, 97.500 49.436 C 89.657 51.855, 88.526 51.573, 85.522 46.448 C 82.484 41.264, 79.502 39.736, 74.105 40.599 C 69.435 41.346, 65.668 38.434, 63.769 32.609 C 62.161 27.676, 59.542 25.961, 55.388 27.119 M 52.465 49.952 C 51.346 50.405, 49.817 51.516, 49.067 52.419 C 47.896 53.831, 47.971 54.265, 49.602 55.498 C 50.743 56.361, 52.696 56.726, 54.500 56.413 C 58.517 55.716, 60.743 55.740, 65.506 56.532 C 68.814 57.082, 69.839 56.835, 71.397 55.113 C 73.271 53.043, 73.255 53.016, 68.892 51.037 C 64.362 48.981, 56.191 48.442, 52.465 49.952 M 57.250 68.744 C 52.712 68.929, 49 69.428, 49 69.852 C 49 70.276, 49.855 71.540, 50.899 72.662 C 52.409 74.282, 54.506 74.817, 61.114 75.270 C 70.424 75.908, 73.103 75.108, 72.273 71.936 C 71.781 70.056, 67.920 67.688, 66.185 68.204 C 65.808 68.315, 61.788 68.559, 57.250 68.744 M 49.704 84.334 C 47.776 85.885, 47.040 89.320, 48.192 91.379 C 48.973 92.774, 50.150 92.938, 55.483 92.391 C 60.990 91.827, 62.323 92.037, 65.422 93.952 C 67.390 95.168, 69 96.576, 69 97.082 C 69 98.784, 71.665 98.017, 71.888 96.250 C 72.660 90.136, 72.137 85.821, 70.477 84.607 C 68.172 82.921, 51.727 82.705, 49.704 84.334 M 135.507 119.992 C 133.303 122.427, 133.294 129.734, 135.489 133.978 C 137.273 137.428, 138.886 137.782, 141.091 135.207 C 146.259 129.171, 145.923 123.076, 140.240 119.773 C 137.390 118.116, 137.197 118.125, 135.507 119.992" stroke="none" fill="black" fill-rule="evenodd"/>
</svg>