<svg xmlns="http://www.w3.org/2000/svg" width="256" height="256" viewBox="0 0 256 256" version="1.1">
	<path d="M 102.302 33.020 C 97.928 34.765, 96.893 38.976, 95.957 58.847 C 95.475 69.091, 95.327 78.453, 95.627 79.651 C 95.928 80.850, 95.450 85.131, 94.566 89.165 C 92.971 96.436, 92.895 119, 94.440 126.500 C 95.449 131.403, 94.118 132.209, 83.176 133.317 C 74.451 134.201, 72.833 134.121, 70.658 132.696 C 67.620 130.705, 67.325 127.814, 66.239 89.331 C 65.832 74.938, 65.275 62.967, 65 62.728 C 61.563 59.748, 57.511 60.351, 55.107 64.200 C 52.930 67.686, 52.467 96.231, 54.416 106.834 C 56.141 116.225, 55.915 128.422, 53.946 132.100 C 52.922 134.013, 52.269 134.130, 46.046 133.505 C 39.296 132.827, 39.251 132.839, 37.064 135.910 C 32.138 142.828, 37.327 148.667, 46.746 146.802 C 49.361 146.284, 52.400 145.919, 53.500 145.990 C 58.644 146.321, 88.514 146.867, 118 147.168 C 153.129 147.527, 155.666 147.222, 157.870 142.385 C 159.566 138.664, 159.358 138.227, 154.750 135.829 C 150.713 133.728, 149.468 133.629, 129.920 133.866 C 113.136 134.068, 109.122 133.852, 108.161 132.694 C 106.462 130.647, 105.381 92.813, 106.867 87.409 C 108.876 80.099, 109.777 79.770, 128.216 79.605 C 145.297 79.452, 149.362 78.586, 150.548 74.848 C 151.359 72.295, 150.261 69.318, 148.212 68.510 C 144.882 67.199, 123.591 66.966, 118.730 68.189 C 111.468 70.015, 110.732 68.816, 109.867 53.749 C 109.480 47.012, 109.126 40.513, 109.081 39.306 C 109.037 38.099, 107.987 35.994, 106.750 34.628 C 104.972 32.665, 104.039 32.327, 102.302 33.020" stroke="none" fill="black" fill-rule="evenodd"/>
</svg>