<svg xmlns="http://www.w3.org/2000/svg" width="256" height="256" viewBox="0 0 256 256" version="1.1">
	<path d="M 116.280 29.087 C 115.059 29.541, 113.838 30.945, 113.566 32.207 C 113.295 33.468, 112.357 38.188, 111.482 42.695 C 109.652 52.118, 105.544 65.240, 103.398 68.515 C 100.777 72.515, 100.139 76.424, 101.556 79.795 C 103.976 85.550, 110.639 84.962, 115.520 78.562 C 121.047 71.317, 123.194 75.289, 122.378 91.246 C 121.817 102.203, 119.951 109.976, 116.606 115.282 C 115.837 116.502, 113.305 121.868, 110.980 127.207 C 108.655 132.546, 105.860 137.721, 104.770 138.707 C 103 140.309, 100.964 140.470, 85.644 140.221 C 76.215 140.068, 67.600 139.765, 66.500 139.548 C 65.400 139.331, 61.720 139.119, 58.321 139.077 C 51.047 138.986, 49 137.502, 49 132.319 L 49 128.781 52.750 129.450 C 60.947 130.912, 67.226 131.174, 68.302 130.098 C 68.906 129.494, 70.017 129, 70.771 129 C 72.680 129, 75.634 126.026, 73.821 125.930 C 73.095 125.891, 73.400 125.473, 74.500 125 C 75.600 124.527, 75.911 124.109, 75.191 124.070 C 74.463 124.031, 74.199 123.488, 74.595 122.845 C 75.021 122.156, 74.871 121.961, 74.224 122.362 C 73.627 122.731, 72.856 122.575, 72.510 122.016 C 72.165 121.457, 72.601 121, 73.480 121 C 74.793 121, 74.849 120.754, 73.795 119.625 C 73.088 118.869, 71.934 118.472, 71.229 118.743 C 69.780 119.298, 65 114.585, 65 112.601 C 65 110.659, 68.506 107, 70.367 107 C 72.248 107, 72.440 108.309, 70.965 111.066 C 70.220 112.458, 70.253 113, 71.081 113 C 71.737 113, 72.010 113.853, 71.716 114.979 C 71.078 117.418, 73.944 117.265, 76.769 114.709 C 78.254 113.365, 78.895 113.276, 79.960 114.264 C 81.020 115.247, 81.149 115.244, 80.588 114.250 C 80.109 113.402, 80.651 113, 82.274 113 C 83.658 113, 84.667 112.410, 84.667 111.600 C 84.667 110.675, 83.514 110.200, 81.267 110.200 C 79.397 110.200, 77.597 109.930, 77.267 109.600 C 76.937 109.270, 77.609 109, 78.760 109 C 79.913 109, 81.059 108.214, 81.311 107.250 C 81.746 105.583, 81.774 105.583, 81.884 107.250 C 81.964 108.461, 82.846 109.003, 84.750 109.011 C 86.263 109.017, 89.075 109.270, 91 109.573 C 93.868 110.024, 95.017 109.634, 97.364 107.416 C 99.897 105.020, 100.169 104.193, 99.723 100.233 C 99.359 97.008, 98.426 95.023, 96.383 93.129 C 94.824 91.683, 93.413 90.646, 93.249 90.825 C 93.085 91.004, 92.399 90.955, 91.725 90.717 C 90.826 90.400, 90.985 89.442, 92.322 87.116 C 94.872 82.681, 95.395 75.665, 93.455 71.914 C 92.194 69.474, 92.103 68.219, 92.992 65.525 C 93.866 62.877, 93.784 61.418, 92.601 58.588 C 90.653 53.926, 87.070 52.211, 82.630 53.817 C 78.055 55.471, 70.890 55.291, 67.154 53.427 C 60.651 50.183, 63.393 49.033, 81.215 47.530 C 95.951 46.287, 98.318 45.347, 99.273 40.354 C 99.598 38.651, 99.008 36.959, 97.463 35.164 C 95.535 32.924, 94.401 32.516, 90.335 32.603 C 87.676 32.660, 82.575 33.435, 79 34.326 C 75.425 35.217, 68.900 36.155, 64.500 36.410 C 39.402 37.866, 35.208 38.150, 32.262 38.596 C 26.063 39.534, 25.127 46.132, 29.869 55.456 C 32.642 60.907, 32.851 62.008, 32.339 68.456 C 31.455 79.583, 31.767 99.673, 32.977 109.500 C 33.586 114.450, 34.477 122.397, 34.956 127.161 C 36.247 139.993, 40.669 148.239, 47.863 151.233 C 49.313 151.836, 60.625 152.683, 73 153.114 C 85.375 153.545, 97.986 154.193, 101.025 154.554 C 106.525 155.207, 106.572 155.190, 111.676 150.602 C 115.256 147.382, 117.345 144.483, 118.603 140.983 C 119.594 138.228, 122.045 133.989, 124.049 131.563 C 126.054 129.137, 128.268 125.768, 128.968 124.076 C 130.305 120.849, 134 119.721, 134 122.540 C 134 124.245, 136.544 129.149, 140.983 136 C 142.587 138.475, 144.612 141.850, 145.483 143.500 C 150.452 152.914, 158.870 157.092, 161.099 151.250 C 162.371 147.914, 160.951 142.655, 156.965 135.945 C 155.476 133.440, 153.913 130.300, 153.490 128.968 C 152.202 124.909, 146.735 118.304, 142.327 115.480 C 136.922 112.018, 135.837 107.722, 135.559 88.679 C 135.283 69.780, 134.643 68.514, 125 67.770 C 122.065 67.544, 121.451 67.083, 121.199 64.914 C 120.700 60.621, 122.976 59.726, 134.505 59.679 C 140.261 59.655, 145.277 59.943, 145.652 60.319 C 146.027 60.694, 145.785 63.588, 145.113 66.750 C 142.621 78.482, 142.611 78.272, 145.831 81.347 C 147.990 83.409, 149.390 84.011, 150.906 83.530 C 152.058 83.164, 153 82.290, 153 81.588 C 153 80.885, 153.872 79.521, 154.938 78.556 C 158.746 75.110, 162.286 55.513, 160.127 49.834 C 158.567 45.731, 154.261 44.569, 145.459 45.879 C 141.311 46.495, 135.487 47, 132.516 47 C 125.668 47, 124 45.022, 124 36.900 C 124 29.612, 121.544 27.127, 116.280 29.087 M 48.784 52.750 C 47.945 53.712, 46.349 56.975, 45.238 60 C 43.411 64.972, 43.335 66.125, 44.442 72.009 C 45.115 75.589, 45.445 79.864, 45.175 81.509 C 44.198 87.456, 45.278 106.171, 46.826 110.123 C 47.544 111.955, 47.528 113.072, 46.773 113.827 C 44.590 116.010, 46.161 123.487, 49.432 126.479 C 51.210 128.106, 53 128.128, 53 126.524 C 53 125.712, 53.898 123.575, 54.996 121.774 C 57.164 118.218, 57.637 113.512, 55.932 112.458 C 55.344 112.095, 55.101 111.180, 55.390 110.426 C 55.680 109.671, 54.810 107.740, 53.458 106.133 C 50.150 102.201, 50.345 100.751, 54.750 96.544 C 60.605 90.952, 64.264 90.871, 69.993 96.208 C 71.108 97.247, 74.153 98.347, 76.760 98.654 C 81.067 99.160, 81.796 98.927, 84.741 96.105 C 86.523 94.397, 88.436 93, 88.991 93 C 89.546 93, 90 92.383, 90 91.629 C 90 89.986, 83.263 88.884, 70.933 88.511 C 66.222 88.368, 61.453 87.961, 60.335 87.606 C 56.406 86.359, 55.005 80.053, 57.103 73.052 C 57.977 70.133, 57.886 68.430, 56.661 64.822 C 55.132 60.319, 55.406 56.107, 57.308 54.851 C 57.849 54.494, 58.015 53.481, 57.677 52.601 C 56.829 50.390, 50.753 50.492, 48.784 52.750 M 70.629 66.481 C 68.346 68.210, 69.068 72.343, 72.248 75.750 C 74.921 78.613, 77.251 78.599, 80.379 75.699 C 84.099 72.252, 84.693 68.599, 81.858 66.613 C 79.035 64.636, 73.157 64.566, 70.629 66.481 M 87.301 116.851 C 88.770 117.431, 88.446 117.798, 85.535 118.851 C 83.574 119.560, 82.227 120.559, 82.543 121.070 C 82.859 121.582, 82.472 122, 81.681 122 C 80.891 122, 79.685 122.675, 79 123.500 C 77.996 124.709, 78.021 125.003, 79.128 125.015 C 80.206 125.027, 80.178 125.239, 79 126 C 77.718 126.828, 77.754 126.972, 79.250 126.985 C 80.213 126.993, 81 127.340, 81 127.756 C 81 128.172, 83.287 129.561, 86.082 130.843 C 90.421 132.834, 91.580 133.002, 94.010 131.996 C 100.797 129.184, 101.535 124.381, 96.026 118.872 C 93.822 116.668, 92.264 116.016, 89.327 116.070 C 86.741 116.118, 86.084 116.371, 87.301 116.851" stroke="none" fill="black" fill-rule="evenodd"/>
</svg>