<svg xmlns="http://www.w3.org/2000/svg" width="256" height="256" viewBox="0 0 256 256" version="1.1">
	<path d="M 116 30.675 C 113.216 31.705, 112 34.359, 112 39.408 C 112 44.622, 109.694 52.278, 107.256 55.161 C 105.870 56.800, 105.207 60.095, 102.816 77.248 C 101.437 87.138, 101.908 88.364, 107.030 88.218 C 111.260 88.098, 114.598 85.723, 115.323 82.318 C 115.652 80.768, 116.833 78.037, 117.946 76.250 C 119.829 73.228, 120.353 73, 125.426 73 C 128.427 73, 131.165 72.543, 131.510 71.984 C 131.856 71.425, 132.526 71.207, 133 71.500 C 133.474 71.793, 134.132 71.595, 134.463 71.060 C 134.794 70.525, 135.837 70.341, 136.782 70.651 C 145.605 73.544, 148.190 76.821, 146.134 82.505 C 143.962 88.513, 148.606 94.371, 154.629 93.220 C 155.899 92.977, 157.417 92.203, 158 91.500 C 159.791 89.342, 162.055 76.293, 162.283 66.818 C 162.497 57.938, 162.464 57.799, 159.500 55.347 C 156.802 53.116, 155.896 52.927, 150.500 53.472 C 132.709 55.267, 128.462 55.290, 125.209 53.608 C 122.476 52.195, 122 51.401, 122 48.258 C 122 46.228, 122.745 42.616, 123.656 40.231 C 125.245 36.071, 125.231 35.785, 123.306 33.197 C 121.296 30.495, 118.809 29.637, 116 30.675 M 49.030 34.239 C 47.672 34.948, 46.048 36.647, 45.421 38.014 C 42.232 44.976, 40.002 48.797, 34.704 56.387 C 29.786 63.434, 28.855 65.470, 28.558 69.845 C 28.325 73.259, 28.594 74.999, 29.354 74.999 C 29.984 74.998, 34.762 72.378, 39.970 69.177 C 48.525 63.919, 49.515 62.997, 50.211 59.646 C 50.635 57.605, 51.712 54.487, 52.603 52.718 C 54.627 48.699, 59.960 43, 61.696 43 C 62.413 43, 63 41.906, 63 40.568 C 63 35.827, 53.891 31.699, 49.030 34.239 M 79 33.722 C 75.596 35.001, 72 38.261, 72 40.068 C 72 41.131, 73.789 43.789, 75.975 45.975 C 78.161 48.161, 80.260 51.198, 80.641 52.725 C 82.050 58.379, 84.495 61.484, 87.796 61.811 C 91.946 62.222, 100 58.649, 100 56.397 C 100 55.454, 98.088 52.166, 95.750 49.091 C 93.412 46.016, 90.761 41.872, 89.858 39.883 C 87.356 34.369, 83.340 32.091, 79 33.722 M 57.820 61.750 C 55.845 63.877, 55.430 65.075, 55.990 67.039 C 57.525 72.422, 54.888 79.143, 50.684 80.563 C 45.678 82.254, 38 92.030, 38 96.713 C 38 97.700, 39.306 99.739, 40.903 101.246 C 44.696 104.827, 45.772 112.845, 44.694 129.500 C 44.587 131.150, 44.876 137.225, 45.335 143 C 46.508 157.753, 49.264 160.288, 60.009 156.497 C 62.353 155.670, 69.497 154.720, 75.885 154.386 C 82.273 154.053, 89.166 153.432, 91.201 153.007 C 94.152 152.391, 95.231 152.598, 96.525 154.027 C 100.712 158.654, 107.195 157.191, 111.219 150.711 C 118.765 138.561, 120.560 136.299, 124.680 133.750 C 127.124 132.238, 130.057 131, 131.197 131 C 133.737 131, 137.323 134.737, 140.138 140.316 C 145.599 151.139, 153.167 157, 159.598 155.386 C 161.615 154.880, 162 154.165, 162 150.922 C 162 146.851, 159.121 140.574, 156.037 137.921 C 155.028 137.053, 152.821 133.607, 151.132 130.262 C 148.245 124.543, 141.568 116.790, 137.518 114.457 C 135.813 113.474, 135.781 112.657, 136.965 100.457 C 138.865 80.890, 138.971 81.671, 133.968 78.360 L 129.936 75.692 127.968 77.804 C 126.886 78.966, 126 80.348, 126 80.875 C 126 81.402, 125.546 81.985, 124.990 82.170 C 123.597 82.634, 123.070 85.923, 122.606 97.052 C 122.233 106.008, 121.944 107.100, 117.973 114.552 C 115.643 118.923, 112.877 123.625, 111.826 125 C 110.774 126.375, 107.468 131.325, 104.479 136 C 96.507 148.467, 96.404 148.580, 94.416 146.930 C 93.022 145.773, 92.846 144.253, 93.326 137.525 C 93.641 133.111, 94.356 127.158, 94.915 124.294 C 95.474 121.431, 96.039 117.490, 96.171 115.535 C 96.334 113.103, 97.449 110.880, 99.705 108.489 C 103.428 104.541, 103.601 103.385, 101.514 96.358 C 100.360 92.472, 99.189 90.810, 96.277 88.926 C 94.214 87.591, 91.926 85.246, 91.192 83.714 C 90.458 82.183, 86.571 77.655, 82.555 73.652 C 78.539 69.649, 74.939 65.384, 74.556 64.176 C 73.642 61.296, 69.065 59, 64.237 59 C 61.309 59, 59.756 59.665, 57.820 61.750 M 69.750 83.689 C 68.787 83.941, 68 84.672, 68 85.315 C 68 85.957, 66.406 88.797, 64.459 91.625 C 62.095 95.057, 60.016 96.951, 58.209 97.322 C 56.719 97.627, 54.939 98.796, 54.253 99.920 C 52.808 102.288, 52.371 102.143, 66.280 103.935 C 73.989 104.928, 75.513 104.858, 78.780 103.365 C 84.780 100.622, 86 99.128, 86 94.519 C 86 89.725, 83.828 87.151, 77.628 84.596 C 73.691 82.974, 72.857 82.877, 69.750 83.689 M 62.726 117.589 C 59.085 119.972, 58.951 120.263, 58.960 125.780 C 58.982 139.329, 58.748 138.579, 63.590 140.602 C 68.124 142.497, 74.049 142.326, 76.601 140.228 C 79.347 137.971, 82 130.985, 82 126.015 C 82 123.028, 81.246 121.211, 78.896 118.535 C 76.157 115.415, 75.248 115.007, 71.146 115.059 C 67.964 115.099, 65.311 115.896, 62.726 117.589 M 130.813 129.683 C 131.534 129.972, 132.397 129.936, 132.729 129.604 C 133.061 129.272, 132.471 129.036, 131.417 129.079 C 130.252 129.127, 130.015 129.364, 130.813 129.683" stroke="none" fill="black" fill-rule="evenodd"/>
</svg>