<svg xmlns="http://www.w3.org/2000/svg" width="256" height="256" viewBox="0 0 256 256" version="1.1">
	<path d="M 105.873 32.973 C 102.357 36.489, 102.939 38.563, 108.388 41.931 C 117.884 47.800, 112.337 54.925, 99.311 53.591 C 95.807 53.232, 91.265 53.375, 89.219 53.910 C 87.174 54.445, 83.345 55.422, 80.712 56.082 C 75.687 57.341, 72 60.765, 72 64.175 C 72 65.222, 72.909 67.862, 74.020 70.040 C 75.891 73.706, 76.353 74, 80.248 74 C 84.112 74, 84.928 74.504, 90.228 80.161 C 93.403 83.549, 96 86.887, 96 87.577 C 96 88.268, 96.371 88.983, 96.824 89.167 C 98.479 89.837, 104.818 106.656, 105.446 112.047 C 106.077 117.456, 106.005 117.674, 102.558 120.811 C 100.613 122.580, 97.555 124.836, 95.761 125.824 C 93.968 126.812, 91.150 129.776, 89.500 132.410 C 87.850 135.045, 85.037 139.451, 83.250 142.201 C 79.614 147.795, 79.332 149.201, 81.491 150.992 C 83.063 152.297, 90.957 151.628, 94.149 149.920 C 95.056 149.435, 98.061 146.193, 100.828 142.717 C 107.347 134.524, 114.062 130.626, 119.210 132.048 C 121.167 132.588, 123.833 133.823, 125.134 134.791 C 126.435 135.760, 128.625 137.147, 130 137.873 C 131.375 138.600, 133.860 141.051, 135.523 143.321 C 138.770 147.754, 151.258 155, 155.651 155 C 157.702 155, 158 154.521, 158 151.223 C 158 147.405, 156.644 144.748, 152.637 140.712 C 151.429 139.496, 149.777 137.600, 148.966 136.500 C 147.206 134.113, 142.243 130.530, 139.481 129.652 C 137.178 128.920, 132 124.334, 132 123.027 C 132 122.536, 131.212 121.885, 130.249 121.579 C 127.259 120.630, 125.801 115.852, 126.944 110.751 C 128.367 104.400, 129.847 100.808, 131.992 98.500 C 133.014 97.400, 134.810 94.025, 135.984 91 C 137.157 87.975, 138.991 83.670, 140.059 81.434 C 141.126 79.198, 142 76.453, 142 75.333 C 142 69.012, 144.872 66.047, 151.027 66.014 C 154.350 65.996, 158 63.371, 158 60.999 C 158 59.961, 156.933 57.871, 155.629 56.355 C 153.670 54.077, 152.183 53.496, 147.071 53.007 C 143.668 52.681, 138.161 52.866, 134.831 53.416 C 127.894 54.564, 126.742 53.795, 125.515 47.198 C 122.825 32.738, 113.130 25.716, 105.873 32.973 M 38.404 39.329 C 35.073 42.194, 35.603 45.901, 39.752 48.761 C 42.882 50.918, 54.616 55, 57.686 55 C 60.240 55, 65 51.351, 65 49.392 C 65 46.290, 61.343 42.604, 55.543 39.860 C 47.925 36.256, 42.183 36.078, 38.404 39.329 M 112 66.625 C 101.168 68.902, 100.999 68.965, 101.032 70.769 C 101.049 71.721, 101.677 73.308, 102.426 74.296 C 103.175 75.285, 103.547 77.018, 103.251 78.149 C 102.955 79.280, 103.154 80.496, 103.693 80.852 C 104.231 81.209, 106.297 84.059, 108.283 87.186 C 114.162 96.444, 119.314 97.345, 122.499 89.671 C 123.450 87.377, 125.303 83.166, 126.615 80.313 C 129.795 73.397, 129.768 68.733, 126.535 66.615 C 123.674 64.740, 120.955 64.742, 112 66.625 M 38.250 75.958 C 32.235 78.804, 31.304 80.022, 32.587 83.367 C 33.440 85.588, 41.259 87.738, 50.850 88.387 C 59.099 88.946, 59.237 88.917, 62.170 85.984 C 64.430 83.724, 64.975 82.475, 64.451 80.757 C 63.288 76.941, 61.011 75.168, 55.852 74.062 C 48.193 72.419, 45.005 72.763, 38.250 75.958 M 52.916 133.750 C 50.454 135.262, 46.718 137.384, 44.614 138.464 C 36.634 142.562, 30.655 152.812, 34.573 155.677 C 37.972 158.162, 42.694 156.716, 50.056 150.932 C 52.012 149.396, 55.520 147.376, 57.850 146.443 C 62.381 144.630, 66 139.392, 66 134.647 C 66 130.130, 59.529 129.687, 52.916 133.750" stroke="none" fill="black" fill-rule="evenodd"/>
</svg>