<svg xmlns="http://www.w3.org/2000/svg" width="256" height="256" viewBox="0 0 256 256" version="1.1">
	<path d="M 113.255 31.218 C 110.716 32.443, 108.981 37.450, 109.733 41.384 C 110.891 47.443, 105.572 53, 98.613 53 C 94.576 53, 83.729 56.061, 80.248 58.183 C 76.665 60.367, 76.325 61.347, 75.662 71.397 C 75.103 79.869, 76.240 83.443, 79.990 84.996 C 84.775 86.978, 87.602 84.722, 93.025 74.598 C 95.647 69.702, 98.497 65.301, 99.358 64.819 C 102.049 63.314, 105.740 64.958, 107.113 68.274 C 108.516 71.661, 108.466 82.721, 107.026 87.500 C 106.528 89.150, 104.901 94.550, 103.410 99.500 C 101.918 104.450, 100.184 109.175, 99.556 110 C 98.927 110.825, 96.215 117.125, 93.528 124 C 90.841 130.875, 87.879 137.400, 86.946 138.500 C 84.927 140.880, 83 144.477, 83 145.863 C 83 147.703, 86.123 150, 88.624 150 C 89.989 150, 92.593 148.988, 94.411 147.750 C 101.175 143.145, 105.692 135.797, 108.399 125 C 111.048 114.431, 111.848 113, 115.102 113 C 117.416 113, 118.072 113.525, 118.537 115.750 C 119.542 120.552, 121.930 130.252, 124.009 137.973 C 125.630 143.992, 126.833 146.273, 130.191 149.695 C 136.325 155.945, 139.664 157.265, 145.931 155.921 C 153.624 154.271, 155.639 151.073, 158.690 135.669 C 159.790 130.113, 155.030 125.827, 151.585 129.272 C 150.885 129.972, 149.139 132.404, 147.704 134.677 L 145.096 138.809 140.826 137.850 C 138.478 137.322, 136.442 136.776, 136.302 136.636 C 136.162 136.496, 135.326 131.524, 134.444 125.587 C 133.562 119.651, 131.976 112.778, 130.920 110.314 C 128.727 105.197, 128.489 101.215, 130.159 97.550 C 131.039 95.619, 131.037 94.067, 130.151 91.109 C 129.198 87.929, 128.157 86.824, 124.492 85.101 C 120.519 83.234, 120.002 82.615, 120.015 79.745 C 120.037 75.026, 122.321 69.196, 125.445 65.887 C 127.766 63.427, 128.934 63.001, 133.335 63.004 C 136.736 63.006, 139.621 63.691, 141.784 65.009 C 145.306 67.157, 145.516 67.528, 146.467 73.248 C 146.931 76.038, 147.830 77.378, 149.989 78.494 C 153.064 80.084, 157.060 79.330, 158.578 76.873 C 159.640 75.156, 159.081 56.019, 157.905 53.823 C 157.382 52.845, 155.609 51.698, 153.964 51.273 C 150.077 50.268, 138.021 50.321, 130.852 51.375 C 125.747 52.125, 124.992 51.992, 122.986 49.986 C 120.722 47.722, 120.655 46.028, 122.491 37.500 C 122.981 35.226, 122.627 33.955, 121.030 32.250 C 118.740 29.805, 116.736 29.539, 113.255 31.218 M 38.750 36.975 C 33.353 41.234, 35.821 45.629, 45.202 48.467 C 47.566 49.182, 51.662 50.821, 54.303 52.109 C 58.700 54.252, 59.329 54.325, 61.723 52.975 C 65.587 50.797, 66.728 46.471, 64.316 43.146 C 61.557 39.344, 53.571 35.668, 47.054 35.202 C 42.487 34.875, 41.011 35.190, 38.750 36.975 M 40.030 73.530 C 33.500 76.463, 31.198 80.259, 34.358 82.882 C 35.105 83.502, 39.173 84.893, 43.399 85.974 C 47.625 87.055, 51.753 88.610, 52.573 89.430 C 54.277 91.134, 60.275 92.492, 62.434 91.664 C 67.135 89.860, 68.648 81.383, 64.968 77.466 C 60.875 73.109, 46.142 70.783, 40.030 73.530 M 115.648 102.526 C 116.125 103.769, 116.535 103.821, 117.867 102.808 C 118.765 102.125, 119.688 101.439, 119.917 101.283 C 120.146 101.127, 119.147 101, 117.698 101 C 115.747 101, 115.215 101.396, 115.648 102.526 M 114.447 106.750 C 114.595 107.713, 114.218 108.831, 113.608 109.235 C 112.848 109.739, 112.911 109.974, 113.809 109.985 C 114.529 109.993, 114.840 110.450, 114.500 111 C 113.612 112.437, 115.917 112.235, 117.345 110.750 C 118.007 110.063, 118.522 108.825, 118.490 108 C 118.459 107.175, 118.898 106.169, 119.467 105.765 C 120.035 105.361, 119.077 105.024, 117.338 105.015 C 114.887 105.003, 114.238 105.393, 114.447 106.750 M 57.870 131.967 C 56.423 132.405, 53.948 133.652, 52.370 134.738 C 50.791 135.824, 46.868 138.240, 43.651 140.106 C 32.979 146.298, 29.179 153.106, 34.462 156.567 C 37.660 158.663, 41.783 157.385, 48.859 152.105 C 51.683 149.998, 55.974 147.518, 58.394 146.594 C 63.093 144.799, 65.598 140.958, 65.201 136.156 C 64.815 131.492, 62.955 130.429, 57.870 131.967" stroke="none" fill="black" fill-rule="evenodd"/>
</svg>