<svg xmlns="http://www.w3.org/2000/svg" width="256" height="256" viewBox="0 0 256 256" version="1.1">
	<path d="M 111.752 30.757 C 110.042 31.817, 108.779 33.660, 108.408 35.637 C 107.811 38.821, 108.426 54.447, 109.576 65.285 C 110.017 69.445, 109.741 72.189, 108.595 75.055 C 107.718 77.247, 107 80.381, 107 82.020 C 107 86.047, 103.854 89, 99.565 89 C 94.092 89, 91.185 90.639, 88.140 95.441 C 82.994 103.554, 81.875 118.113, 84.945 137 C 86.814 148.501, 88.123 152.973, 90.007 154.293 C 92.956 156.358, 142.161 154.794, 148.297 152.439 C 150.830 151.468, 152.776 147.712, 153.492 142.417 C 153.858 139.713, 154.847 135.025, 155.689 132 C 156.724 128.285, 157.035 124.391, 156.645 120 C 156.319 116.319, 156.635 110.247, 157.373 106 C 158.256 100.927, 158.362 97.789, 157.703 96.304 C 156.437 93.452, 150.553 91.155, 140.233 89.484 C 130.077 87.840, 123.241 85.335, 122.494 82.982 C 121.365 79.425, 124.216 68.019, 126.824 65.659 C 129.561 63.182, 134.320 62.937, 146.386 64.651 C 159.256 66.479, 162 65.838, 162 61.007 C 162 57.267, 157.786 54.360, 151.033 53.440 C 148.540 53.101, 145.150 52.524, 143.500 52.158 C 141.850 51.792, 137.800 51.722, 134.500 52.003 C 123.163 52.967, 120.788 50.510, 121.729 38.792 C 122.209 32.802, 122.065 32.159, 119.903 30.644 C 116.957 28.581, 115.223 28.605, 111.752 30.757 M 40.250 34.436 C 37.624 35.622, 37 36.484, 37 38.926 C 37 42.518, 40.127 44.507, 48.177 46.034 C 51.024 46.574, 55.803 48.137, 58.798 49.508 C 65.380 52.521, 69.332 52.668, 72 50 C 74.703 47.297, 74.518 45.612, 71.213 42.839 C 62.045 35.145, 47.451 31.184, 40.250 34.436 M 43.207 67.555 C 39.490 69.118, 36.730 73.069, 37.173 76.192 C 37.449 78.138, 38.543 78.753, 44.147 80.111 C 47.803 80.997, 52.783 82.685, 55.213 83.861 C 63.889 88.061, 68.104 85.986, 68.379 77.380 C 68.494 73.795, 68.281 73.529, 64 71.924 C 49.813 66.606, 46.914 65.996, 43.207 67.555 M 111.850 100.933 C 103.176 101.395, 100.766 101.871, 98.866 103.500 C 93.808 107.835, 93.704 108.674, 97.214 116.763 C 98.255 119.161, 98.428 121.678, 97.869 126.263 C 96.875 134.411, 97.728 139.784, 100.229 141.122 C 101.444 141.773, 108.218 142.044, 118.025 141.836 C 138.157 141.409, 138.343 141.302, 142.220 127.901 C 143.716 122.731, 145.230 115.979, 145.583 112.898 C 146.196 107.552, 146.094 107.203, 143.362 105.260 C 139.632 102.606, 130.589 99.951, 126.068 100.183 C 124.106 100.284, 117.707 100.621, 111.850 100.933 M 64.500 129.794 C 60.743 130.624, 43.093 141.298, 39.043 145.190 C 34.112 149.927, 33.578 154.022, 37.551 156.625 C 40.020 158.243, 40.315 158.180, 46.801 154.665 C 50.485 152.667, 56.504 149.604, 60.175 147.857 C 66.121 145.028, 67.033 144.202, 68.526 140.292 C 69.921 136.639, 69.996 135.405, 68.971 132.930 C 67.534 129.460, 67.169 129.204, 64.500 129.794" stroke="none" fill="black" fill-rule="evenodd"/>
</svg>