<svg xmlns="http://www.w3.org/2000/svg" width="256" height="256" viewBox="0 0 256 256" version="1.1">
	<path d="M 32.250 32.691 C 28.275 34.736, 27.981 37.808, 31.442 41.145 C 33.149 42.792, 36.379 43.997, 42.192 45.155 C 46.761 46.065, 52.615 47.628, 55.200 48.629 C 59.749 50.390, 60.074 50.389, 65.302 48.612 L 70.704 46.776 75.033 49.638 C 78.815 52.139, 80.127 52.459, 85.431 52.177 C 104.591 51.156, 129.877 53.354, 133.854 56.386 C 134.599 56.953, 135.669 58.561, 136.232 59.959 C 137.539 63.205, 137.309 120.435, 135.970 125.104 C 135.437 126.965, 135 130.558, 135 133.088 C 135 138.123, 133.361 140.380, 128.894 141.494 C 124.609 142.563, 120 147.449, 120 150.921 C 120 154.487, 122.762 156.675, 129.230 158.231 C 141.166 161.102, 146.308 156.942, 147.522 143.433 C 147.861 139.667, 148.377 136.199, 148.670 135.726 C 148.962 135.252, 149.298 117.091, 149.416 95.367 L 149.631 55.869 154.815 50.897 C 159.064 46.823, 160 45.314, 160 42.535 C 160 40.064, 159.286 38.583, 157.365 37.073 C 154.029 34.448, 152.593 34.488, 141.044 37.521 C 135.844 38.887, 130.686 39.718, 129.583 39.368 C 127.807 38.804, 114.508 38.281, 86.796 37.687 L 78.093 37.500 74.291 41.214 C 70.033 45.374, 70.092 45.383, 62.062 39.300 C 54.947 33.910, 49.117 31.582, 42 31.288 C 37.451 31.100, 34.524 31.521, 32.250 32.691 M 38 66.913 C 33.030 67.443, 32.471 67.746, 32.203 70.052 C 31.779 73.692, 34.574 75.758, 43.125 78.125 C 47.181 79.248, 52.315 81.022, 54.533 82.068 C 58.107 83.752, 62.350 83.983, 63.762 82.571 C 64.033 82.300, 64.302 80.275, 64.359 78.070 C 64.479 73.505, 63.348 72.278, 55.500 68.455 C 50.476 66.008, 48.288 65.815, 38 66.913 M 102.500 67.992 C 100.300 68.475, 94.830 68.612, 90.345 68.295 C 82.536 67.744, 82.079 67.830, 79.595 70.314 C 76.693 73.216, 76.355 76.143, 78.348 81.128 C 79.138 83.105, 79.745 88.787, 79.815 94.866 C 79.941 105.823, 81.669 111.580, 86.011 115.510 C 87.898 117.218, 88.121 117.186, 91.964 114.642 C 95.648 112.204, 96.775 112, 106.528 112 C 119.265 112, 121.869 110.938, 124.888 104.515 C 127.335 99.309, 127.231 93.282, 124.607 88.207 C 122.684 84.488, 122.419 81.923, 123.393 76.431 C 123.964 73.212, 123.726 71.883, 122.251 70.062 C 120.690 68.134, 119.260 67.708, 113.444 67.437 C 109.625 67.259, 104.700 67.508, 102.500 67.992 M 92.009 82.489 C 90.398 84.430, 91.441 90.019, 94.026 93.306 C 95.112 94.686, 96 96.480, 96 97.291 C 96 99.103, 99.962 99.959, 104.281 99.080 C 106.655 98.597, 107.929 97.520, 109.135 94.979 C 111.012 91.024, 111.381 84.164, 109.818 82.281 C 108.230 80.367, 93.628 80.538, 92.009 82.489 M 56 132.697 C 50.539 134.660, 33.181 147.549, 30.510 151.625 C 28.870 154.127, 28.883 154.364, 30.779 156.873 C 33.396 160.334, 39.016 160.357, 44.102 156.928 C 59.406 146.611, 62.993 143.554, 63.602 140.307 C 64.614 134.913, 63.415 131.987, 60.231 132.079 C 58.729 132.122, 56.825 132.400, 56 132.697" stroke="none" fill="black" fill-rule="evenodd"/>
</svg>