<svg xmlns="http://www.w3.org/2000/svg" width="256" height="256" viewBox="0 0 256 256" version="1.1">
	<path d="M 45 33.820 C 40.891 35.682, 39 37.653, 39 40.072 C 39 43.159, 41.196 44.447, 49.082 45.984 C 52.152 46.582, 56.313 47.956, 58.328 49.036 C 62.056 51.034, 66.599 51.563, 68.615 50.235 C 70.465 49.016, 71.182 45.209, 69.984 42.970 C 69.364 41.811, 66.119 39.094, 62.773 36.932 C 57.643 33.616, 55.891 33.011, 51.595 33.070 C 48.793 33.109, 45.825 33.446, 45 33.820 M 85.774 35.960 C 84.252 37.159, 82.651 39.740, 82.149 41.804 C 81.204 45.687, 81.453 75.839, 82.542 89.500 C 83.412 100.406, 78.063 135.281, 73.908 145.797 C 72.676 148.915, 72.767 152.394, 74.161 155.453 C 75.050 157.406, 76.063 158, 78.506 158 C 80.291 158, 82.359 157.231, 83.214 156.250 C 85.632 153.473, 90.347 137.622, 91.467 128.500 C 91.805 125.750, 92.785 118.775, 93.645 113 C 94.505 107.225, 95.167 97.707, 95.115 91.848 C 95.034 82.806, 95.306 80.844, 96.909 78.864 C 98.671 76.688, 99.091 76.609, 103.149 77.689 C 106.327 78.534, 110.735 78.576, 119.500 77.844 C 126.100 77.292, 135.130 77.119, 139.568 77.458 C 152.835 78.472, 153.953 76.607, 154.499 52.532 C 154.648 45.950, 154.542 39.971, 154.264 39.245 C 153.985 38.520, 152.428 37.238, 150.802 36.398 C 148.363 35.137, 146.677 35.051, 141.145 35.910 C 136.885 36.570, 132.449 36.619, 128.971 36.044 C 125.962 35.546, 117.875 35.182, 111 35.236 C 104.125 35.290, 96.250 34.992, 93.500 34.573 C 89.204 33.920, 88.116 34.115, 85.774 35.960 M 97.338 48.995 C 94.839 50.007, 93.727 52.854, 93.727 58.238 C 93.727 64.111, 98.513 68.087, 101.721 64.879 C 103.486 63.114, 120.278 62.571, 129.705 63.973 C 137.108 65.074, 138.387 65.041, 139.716 63.713 C 142.766 60.663, 140.989 51.177, 137.022 49.331 C 134.754 48.275, 99.843 47.980, 97.338 48.995 M 40.911 69.281 C 39.050 70.535, 37.081 72.829, 36.536 74.378 C 35.267 77.986, 37.129 79.494, 43.973 80.402 C 46.688 80.762, 50.843 81.739, 53.205 82.573 C 60.043 84.987, 66 82.377, 66 76.967 C 66 73.559, 64.775 72.547, 56.920 69.469 C 49.095 66.402, 45.250 66.357, 40.911 69.281 M 106.571 84.571 C 105.707 85.436, 104.966 86.448, 104.923 86.821 C 104.796 87.955, 104.182 90.332, 103.135 93.750 C 102.588 95.537, 102.473 97, 102.881 97 C 104.001 97, 106.060 116.408, 105.904 125.500 C 105.716 136.489, 107.107 140.747, 113.264 148.028 C 119.455 155.349, 122.759 157.206, 133.815 159.582 C 142.029 161.347, 142.155 161.344, 148.799 159.177 C 152.485 157.976, 156.011 156.657, 156.636 156.247 C 157.787 155.490, 161 138.996, 161 133.847 C 161 130.445, 157.118 127.503, 153.747 128.349 C 150.666 129.122, 148 133.962, 148 138.782 C 148 144.295, 146.248 145.415, 137.562 145.455 C 131.337 145.484, 129.766 145.111, 126.217 142.762 C 122.931 140.588, 121.979 139.273, 121.514 136.268 C 121.194 134.196, 120.272 129.919, 119.466 126.765 C 117.503 119.086, 117.621 116.133, 120.051 112.148 C 121.983 108.980, 122.299 108.842, 125.798 109.648 C 131.328 110.921, 143.644 110.541, 145.451 109.041 C 147.664 107.204, 147.368 104.689, 144.585 101.686 C 141.256 98.094, 137.849 97.487, 130.654 99.202 C 127.269 100.009, 123.749 100.476, 122.832 100.239 C 121.213 99.822, 117 91.525, 117 88.753 C 117 86.480, 113.088 83, 110.532 83 C 109.218 83, 107.436 83.707, 106.571 84.571 M 51.885 135.607 C 39.985 143.711, 37.719 145.717, 35.812 149.835 C 34.267 153.172, 34.259 153.628, 35.717 155.240 C 39.523 159.446, 51.362 156.186, 59.241 148.762 C 64.091 144.192, 64.921 142.853, 65.552 138.582 C 67.017 128.655, 63.286 127.843, 51.885 135.607" stroke="none" fill="black" fill-rule="evenodd"/>
</svg>