<svg xmlns="http://www.w3.org/2000/svg" width="256" height="256" viewBox="0 0 256 256" version="1.1">
	<path d="M 96.094 31.608 C 94.406 33.754, 94.128 35.215, 94.523 39.858 C 94.787 42.961, 95.242 49.221, 95.533 53.769 C 95.825 58.317, 96.499 63.182, 97.031 64.581 C 98.710 68.997, 99.446 83.758, 98.070 85.416 C 95.501 88.511, 94.362 96.991, 94.095 114.997 C 93.793 135.383, 93.135 138.343, 88.113 141.919 C 83.569 145.155, 83.950 148.336, 89.518 153.671 C 97.351 161.177, 102.967 159.216, 107.069 147.543 C 108.901 142.333, 109.037 140.328, 108.428 127.625 C 108.055 119.856, 107.598 113.233, 107.413 112.906 C 106.390 111.108, 109.360 104.865, 111.851 103.577 C 114.333 102.294, 114.920 102.347, 117.696 104.104 C 119.393 105.179, 121.376 107.507, 122.104 109.279 C 123.453 112.566, 124.270 113.794, 127.107 116.798 C 127.991 117.734, 130.159 120.522, 131.925 122.994 C 133.691 125.465, 136.652 128.737, 138.504 130.264 C 142.183 133.297, 149.565 136.943, 152.095 136.978 C 154.409 137.010, 157 133.745, 157 130.798 C 157 127.937, 150.388 118.308, 147.849 117.472 C 146.942 117.173, 145.932 115.863, 145.605 114.562 C 145.278 113.260, 142.810 110.614, 140.120 108.682 C 137.430 106.749, 133.752 103.330, 131.947 101.084 C 130.142 98.838, 127.852 97, 126.858 97 C 124.007 97, 122.197 92.241, 122.894 86.577 C 123.446 82.091, 123.855 81.465, 127.500 79.528 C 129.700 78.359, 133.607 75.850, 136.182 73.951 C 138.757 72.053, 142.047 69.671, 143.492 68.658 C 144.938 67.645, 146.850 65.286, 147.742 63.416 C 149.314 60.119, 149.289 59.936, 146.932 57.398 C 145.594 55.959, 143.600 54.432, 142.500 54.006 C 139.528 52.854, 135.334 55.757, 133.098 60.515 C 130.806 65.391, 129.761 66.312, 124.500 68.094 C 116.467 70.816, 111.006 68.206, 110.994 61.639 C 110.991 59.913, 110.495 56.723, 109.892 54.551 C 109.289 52.379, 108.656 47.654, 108.486 44.051 C 108.315 40.448, 108.136 36.692, 108.088 35.705 C 107.958 33.044, 103.453 29, 100.618 29 C 99.144 29, 97.317 30.053, 96.094 31.608 M 71.950 59.010 C 68.732 60.287, 63.815 60.936, 55.154 61.227 C 43.555 61.616, 42.770 61.775, 40.302 64.244 C 37.921 66.625, 37.803 67.110, 38.939 69.853 C 39.623 71.505, 40.712 73.059, 41.358 73.307 C 42.004 73.555, 47.926 73.447, 54.516 73.068 C 61.107 72.688, 66.709 72.540, 66.965 72.737 C 67.757 73.350, 67.043 83.125, 65.895 87.389 C 64.829 91.350, 63.209 95.275, 58.353 105.661 C 56.104 110.471, 51.964 114.887, 45.493 119.376 C 40.541 122.812, 37.566 132.453, 40.035 137.066 C 41.544 139.885, 45.020 139.442, 50.347 135.750 C 52.926 133.963, 57.123 131.367, 59.674 129.981 C 66.009 126.541, 67.524 124.095, 70.502 112.500 C 72.233 105.761, 73.986 101.359, 75.878 99 C 78.777 95.386, 80.613 89.186, 81.359 80.500 C 81.595 77.750, 82.284 74.239, 82.889 72.698 C 83.869 70.204, 84.480 64.587, 84.127 61.321 C 83.907 59.287, 80.949 56.996, 78.679 57.102 C 77.480 57.159, 74.453 58.017, 71.950 59.010" stroke="none" fill="black" fill-rule="evenodd"/>
</svg>