<svg xmlns="http://www.w3.org/2000/svg" width="256" height="256" viewBox="0 0 256 256" version="1.1">
	<path d="M 88.063 28.163 C 86.954 29.353, 85.551 31.831, 84.944 33.671 C 84.337 35.510, 83.005 37.462, 81.986 38.008 C 80.966 38.553, 75.805 39, 70.516 39 C 63.877 39, 59.993 39.470, 57.967 40.517 C 54.240 42.444, 51.626 47.382, 52.369 51.093 C 52.678 52.642, 52.276 56.067, 51.475 58.704 C 49.910 63.857, 50.294 79.586, 52.132 85.647 C 53.631 90.586, 60.264 92.245, 79.165 92.408 C 85.031 92.459, 90.157 92.826, 90.557 93.225 C 90.957 93.624, 91.413 96.999, 91.571 100.725 C 91.730 104.451, 92.183 108.625, 92.578 110 C 93.322 112.590, 93.437 115.989, 92.983 122 C 92.837 123.925, 93.068 127.852, 93.496 130.727 C 94.007 134.163, 93.843 137.490, 93.017 140.440 C 91.888 144.471, 91.291 145.103, 87.130 146.671 C 79.715 149.467, 78.320 152.411, 82.455 156.545 C 84.463 158.554, 85.871 158.990, 90.205 158.944 C 97.511 158.866, 102.200 157.077, 103.786 153.764 C 104.506 152.260, 105.327 147.085, 105.611 142.264 C 106.387 129.068, 106.413 129, 110.738 129 C 113.682 129, 115.180 129.755, 118.067 132.694 C 120.062 134.726, 124.193 137.763, 127.245 139.444 C 130.298 141.125, 135.302 144.241, 138.364 146.369 C 145.559 151.369, 151.693 152.319, 154.855 148.925 C 157.261 146.343, 157.522 144.240, 155.883 140.642 C 154.749 138.154, 138.456 129, 135.162 129 C 132.399 129, 129 124.032, 129 119.993 C 129 115.436, 132.841 111.049, 139.352 108.168 C 144.113 106.063, 145.941 103.752, 145.419 100.500 C 145.243 99.400, 144.598 86.862, 143.987 72.637 C 143.301 56.662, 142.432 46.063, 141.716 44.916 C 139.818 41.878, 136.305 41.120, 119.784 40.188 C 102.862 39.233, 101 38.616, 101 33.966 C 101 30.618, 96.051 26, 92.462 26 C 91.151 26, 89.171 26.973, 88.063 28.163 M 64.750 52.027 C 62.608 53.340, 62.478 56.322, 64.491 57.993 C 65.546 58.868, 73.369 59.395, 91.241 59.794 C 130.205 60.664, 130.325 60.653, 129.813 56.215 C 129.543 53.872, 128.815 53.326, 124.500 52.229 C 121.208 51.393, 116.768 51.183, 111.500 51.615 C 107.100 51.977, 103.050 52.188, 102.500 52.085 C 97.735 51.196, 66.185 51.147, 64.750 52.027 M 67.009 73.289 C 64.145 74.739, 63.293 77.443, 65.037 79.545 C 65.995 80.699, 67.938 80.863, 74.592 80.351 C 79.938 79.940, 83.405 80.090, 84.222 80.768 C 87.051 83.111, 122.983 81.725, 127.867 79.085 C 129.945 77.961, 130.055 77.626, 128.769 76.340 C 127.684 75.255, 123.059 74.651, 110.902 74.005 C 74.345 72.063, 69.581 71.986, 67.009 73.289 M 108.250 94.119 C 104.908 95.084, 104.252 96.728, 106 99.764 C 106.549 100.719, 107.455 102.781, 108.012 104.347 C 108.568 105.912, 109.919 107.427, 111.012 107.713 C 112.105 107.999, 113 108.631, 113 109.117 C 113 110.939, 119.242 109.908, 122.785 107.500 C 124.809 106.125, 126.035 105, 125.510 105 C 124.985 105, 125.668 104.222, 127.027 103.272 C 133.215 98.947, 134.364 96.764, 131.800 94.200 C 130.363 92.763, 113.152 92.703, 108.250 94.119 M 72 101.058 C 70.625 101.449, 63.365 101.529, 55.866 101.234 C 42.601 100.714, 42.199 100.759, 41.061 102.886 C 40.418 104.088, 40.097 106.293, 40.348 107.786 C 40.809 110.524, 41.996 114, 42.470 114 C 42.612 114, 45.151 113.536, 48.114 112.969 C 51.076 112.402, 55.848 112.227, 58.718 112.580 C 65.583 113.425, 66.132 115.187, 61.919 122.851 C 59.295 127.624, 57.670 129.270, 53.101 131.783 C 43.327 137.159, 37.536 145.367, 38.655 152.260 C 39.022 154.523, 39.818 156, 40.671 156 C 43.312 156, 49.489 152.179, 56.679 146.096 C 60.628 142.755, 66.028 139.172, 68.679 138.133 C 72.821 136.509, 73.954 135.416, 76.721 130.371 C 78.492 127.142, 79.965 123.150, 79.993 121.500 C 80.021 119.850, 80.916 116.579, 81.981 114.232 C 84.264 109.203, 84.262 109.252, 82.261 105.865 C 80.251 102.462, 75.267 100.127, 72 101.058" stroke="none" fill="black" fill-rule="evenodd"/>
</svg>