<svg xmlns="http://www.w3.org/2000/svg" width="256" height="256" viewBox="0 0 256 256" version="1.1">
	<path d="M 42.250 33.932 C 36.392 37.606, 38.873 42.265, 47.570 43.924 C 50.281 44.441, 55.066 45.849, 58.202 47.053 C 64.612 49.513, 68.319 49.141, 70.073 45.863 C 71.487 43.222, 69.452 40.209, 63.192 35.677 C 59.584 33.065, 57.798 32.505, 52.192 32.226 C 46.799 31.958, 44.869 32.289, 42.250 33.932 M 83.578 40.515 C 77.333 46.303, 84.223 50.872, 99.327 50.956 C 106.702 50.997, 107.331 51.177, 110.221 54.067 L 113.288 57.134 112.698 68.817 C 112.373 75.243, 111.546 83.061, 110.860 86.192 C 109.793 91.056, 109.866 93.239, 111.362 101.192 C 112.692 108.258, 112.947 112.788, 112.422 120 C 111.568 131.745, 110.985 133, 106.382 133 C 104.431 133, 99.759 134.350, 96 136 C 91.425 138.008, 87.529 139, 84.217 139 C 80.726 139, 78.494 139.610, 76.635 141.073 C 72.955 143.967, 73.280 146.431, 77.613 148.487 C 81.875 150.509, 91.385 150.180, 105 147.538 C 109.971 146.574, 114.953 146.172, 117 146.569 C 122.570 147.652, 150.755 147.069, 153.507 145.815 C 154.863 145.197, 156.625 143.695, 157.424 142.476 C 158.706 140.518, 158.679 139.869, 157.188 136.894 C 154.206 130.946, 151.805 130.467, 135.489 132.564 C 127.337 133.612, 126.275 132.126, 124.370 117 C 121.886 97.277, 124.154 61.417, 128.138 57.433 C 128.986 56.585, 133.227 55.005, 137.562 53.922 C 149.082 51.043, 152.434 49.174, 152.800 45.425 C 153.066 42.709, 152.656 42.156, 149.300 40.696 C 146.117 39.312, 143.064 39.129, 130.500 39.570 C 109.277 40.316, 99.532 40.153, 96.499 39 C 91.709 37.178, 86.522 37.787, 83.578 40.515 M 44.378 66.437 C 37.826 69.289, 35.947 75.887, 40.950 78.474 C 42.573 79.313, 44.372 80, 44.948 80 C 45.524 80, 48.852 81.350, 52.344 83 C 55.836 84.650, 59.536 86, 60.565 86 C 63.703 86, 67.138 81.081, 66.798 77.077 C 66.517 73.773, 66.025 73.335, 58.052 69.288 C 48.655 64.518, 48.745 64.537, 44.378 66.437 M 60.919 130.326 C 43.250 139.627, 35.178 147.142, 36.682 152.893 C 37.756 156.999, 44.415 155.388, 58.730 147.556 C 65.818 143.678, 65.957 143.526, 67.017 138.419 C 68.055 133.416, 67.559 128, 66.061 128 C 65.664 128, 63.350 129.047, 60.919 130.326" stroke="none" fill="black" fill-rule="evenodd"/>
</svg>