<svg xmlns="http://www.w3.org/2000/svg" width="256" height="256" viewBox="0 0 256 256" version="1.1">
	<path d="M 60.218 30.750 C 59.115 31.712, 57.469 34.525, 56.559 37 C 55.648 39.475, 52.204 45.100, 48.906 49.500 C 34.999 68.048, 30.338 78.546, 34.481 81.984 C 35.296 82.660, 38.710 83.538, 42.069 83.934 C 47.794 84.609, 48.475 84.979, 52.953 89.849 L 57.729 95.045 62.448 93.022 C 67.525 90.846, 72.502 90.386, 73.500 92 C 73.840 92.550, 74.961 93, 75.992 93 C 78.658 93, 79.574 96.708, 77.480 99.023 C 76.239 100.394, 75.722 102.979, 75.568 108.584 C 75.350 116.560, 74.041 119, 69.983 119 C 67.072 119, 64 114.680, 64 110.587 C 64 106.609, 61.758 100.874, 59.456 98.963 C 55.746 95.885, 52 100.984, 52 109.112 C 52 113.483, 49.892 120.582, 46.914 126.236 C 45.380 129.151, 45.764 129.310, 52.889 128.713 C 59.380 128.168, 59.748 128.248, 59.264 130.099 C 58.981 131.179, 58.008 132.461, 57.100 132.947 C 56.192 133.432, 53.719 136.343, 51.603 139.415 C 48.653 143.698, 47.169 145, 45.238 145 C 41.935 145, 40.071 147.607, 40.032 152.282 C 40.006 155.306, 40.451 156.232, 42.250 156.901 C 44.871 157.875, 45.010 157.834, 55.500 153.004 C 59.900 150.977, 64.175 148.503, 65 147.505 C 67.085 144.981, 66.797 137.157, 64.473 133.224 C 62.614 130.076, 62.615 130.001, 64.542 128.544 C 66.774 126.856, 71 126.500, 71 128 C 71 128.550, 71.675 129, 72.500 129 C 74.339 129, 74.346 129.237, 72.621 133.364 C 71.454 136.157, 71.452 137.266, 72.606 140.582 C 73.356 142.737, 73.919 147.016, 73.857 150.091 C 73.710 157.463, 75.893 161, 80.592 161 C 85.253 161, 87.206 157.756, 87.371 149.740 C 87.486 144.157, 87.727 143.468, 89.658 143.192 C 90.845 143.023, 94.083 144.070, 96.853 145.518 C 106.387 150.503, 119.422 152.607, 121.944 149.567 C 122.890 148.428, 122.710 147.710, 121.067 146.067 C 119.930 144.930, 119 143.583, 119 143.073 C 119 141.568, 114.142 138.190, 110.980 137.496 C 109.371 137.142, 106.888 135.468, 105.464 133.775 C 102.395 130.128, 103.320 129.039, 109.507 129.015 C 111.710 129.007, 114.985 128.578, 116.785 128.062 C 122.837 126.326, 125.471 128.186, 129.925 137.340 C 137.156 152.202, 150.254 160.934, 156.791 155.250 C 159.557 152.845, 162.366 143.640, 161.660 139.291 C 160.699 133.368, 156.481 131.495, 152 135 C 150.625 136.076, 148.354 136.966, 146.953 136.978 C 144.600 136.998, 144.089 136.106, 140.244 125.250 C 136.813 115.564, 135.978 111.743, 135.493 103.500 C 134.522 86.995, 133.193 84.009, 123.362 76.238 C 121.788 74.994, 120.950 74.066, 121.500 74.177 C 123.505 74.582, 134.074 70.576, 135.679 68.802 C 137.221 67.098, 137.179 66.819, 135.025 64.527 C 131.380 60.647, 119.661 58.415, 110.043 59.768 C 105.894 60.352, 96.049 60.878, 88.164 60.938 C 71.533 61.062, 66.749 62.288, 67.740 66.169 C 68.449 68.949, 70.979 71.334, 74.972 72.988 C 77.494 74.033, 77.734 74.453, 76.729 76.063 C 75.171 78.558, 68.375 79.864, 58 79.664 L 49.500 79.500 49.184 76.216 C 48.858 72.830, 49.813 71.600, 58.847 63.766 C 60.581 62.262, 62 60.382, 62 59.587 C 62 55.633, 64.420 55.091, 82.778 54.941 C 114.280 54.682, 121.310 54.438, 132.500 53.218 C 148.936 51.426, 149.999 51.166, 150.953 48.695 C 152.615 44.395, 150.258 43.600, 133.750 42.895 C 125.378 42.537, 118.071 42.391, 117.514 42.571 C 116.956 42.750, 108.643 43.137, 99.040 43.431 C 75.675 44.145, 72 43.029, 72 35.221 C 72 29.634, 64.678 26.855, 60.218 30.750 M 83 76.250 C 83 77.729, 83.968 78.001, 89.250 78.009 C 92.688 78.013, 97.750 78.260, 100.500 78.557 C 106.153 79.166, 109.293 77.893, 107.228 75.828 C 106.371 74.971, 102.326 74.561, 94.486 74.536 C 84.200 74.504, 83 74.683, 83 76.250 M 98.676 93.623 C 98.579 93.691, 95.669 94.014, 92.209 94.340 C 84.346 95.081, 83.370 95.646, 85.633 98.147 C 87.636 100.360, 88.236 102.398, 87.946 106 C 87.261 114.514, 87.256 114.500, 90.905 114.500 C 94.540 114.500, 94.878 113.936, 95.295 107.176 C 95.462 104.467, 96.240 103.404, 99.500 101.431 C 104.394 98.469, 105.982 98.411, 109.365 101.073 C 112.202 103.304, 112.892 107.368, 110.661 108.700 C 105.924 111.530, 107.638 117.466, 113.510 118.568 C 120.640 119.905, 124.256 115.941, 121.633 109.663 C 120.791 107.648, 120.359 106, 120.673 106 C 120.988 106, 120.750 105.404, 120.146 104.676 C 119.078 103.389, 119.179 101.132, 120.449 97.937 C 120.806 97.038, 120.290 95.667, 119.233 94.711 C 117.754 93.372, 115.588 93.092, 108.124 93.274 C 103.024 93.398, 98.773 93.556, 98.676 93.623 M 61.079 130.583 C 61.127 131.748, 61.364 131.985, 61.683 131.188 C 61.972 130.466, 61.936 129.603, 61.604 129.271 C 61.272 128.939, 61.036 129.529, 61.079 130.583 M 88.217 131.424 C 87.360 133.303, 87.419 134.103, 88.478 134.981 C 90.414 136.588, 94 134.171, 94 131.259 C 94 128.024, 89.710 128.146, 88.217 131.424" stroke="none" fill="black" fill-rule="evenodd"/>
</svg>