<svg xmlns="http://www.w3.org/2000/svg" width="256" height="256" viewBox="0 0 256 256" version="1.1">
	<path d="M 36.637 31.108 C 32.235 37.392, 35.877 41.843, 48.758 45.921 C 54.116 47.617, 59.668 49.004, 61.095 49.002 C 63.919 49, 67 46.272, 67 43.775 C 67 39.820, 50.737 30.222, 42.387 29.250 C 38.909 28.845, 38.021 29.132, 36.637 31.108 M 84.750 39.141 C 81.359 42.476, 81.146 46.413, 84.250 48.380 C 86.127 49.570, 90.809 49.688, 112.500 49.091 C 141.700 48.288, 144.279 47.753, 144.803 42.386 C 145.271 37.594, 142.790 37.149, 113.500 36.771 L 87.500 36.435 84.750 39.141 M 36.257 70.708 C 33.016 72.841, 32.013 74.135, 32.007 76.191 C 31.998 79.611, 32.458 79.861, 40.686 80.898 C 44.434 81.370, 49.242 82.486, 51.372 83.378 C 56.546 85.545, 59.578 85.422, 62.057 82.943 C 63.550 81.450, 64.030 79.873, 63.807 77.193 C 63.530 73.865, 63.005 73.255, 58.500 71.021 C 55.107 69.338, 51.411 68.441, 47 68.229 C 41.276 67.954, 39.994 68.249, 36.257 70.708 M 145.500 71.991 C 143.300 72.398, 139.475 73.495, 137 74.429 C 134.525 75.362, 129.800 76.114, 126.500 76.099 C 123.200 76.084, 117.575 76.543, 114 77.118 C 105.902 78.422, 92.905 78.321, 87.681 76.914 C 81.877 75.351, 79 76.362, 79 79.963 C 79 84.582, 82.650 87.911, 88.500 88.627 C 96.026 89.549, 97.733 91.019, 98.511 97.245 C 99.312 103.656, 97.473 111.707, 92.283 124.500 C 88.754 133.198, 85.456 139.129, 83.749 139.846 C 83.296 140.036, 81.593 141.313, 79.963 142.685 C 77.819 144.489, 77.004 146.052, 77.015 148.339 C 77.040 153.437, 78.299 154.526, 83.895 154.292 C 92.636 153.926, 95.602 152, 99.119 144.402 C 103.612 134.694, 107.765 122.771, 108.566 117.277 C 108.949 114.650, 110.079 110.878, 111.077 108.896 C 112.086 106.892, 113.026 102.510, 113.194 99.029 C 113.526 92.140, 115.656 89.210, 119.022 91.012 C 120.384 91.741, 120.776 93.524, 120.938 99.714 C 121.448 119.316, 122.735 129.388, 125.759 137.472 C 130.655 150.556, 138.045 155.316, 150.550 153.440 C 156.277 152.581, 157.578 151.257, 159.637 144.189 C 163.060 132.437, 160.787 124.593, 154.299 125.764 C 150.482 126.452, 149.485 127.405, 149.220 130.618 C 148.884 134.674, 146.329 138, 143.550 138 C 140.583 138, 137.004 133.699, 136.988 130.115 C 136.982 128.677, 136.312 125.025, 135.500 122 C 133.739 115.438, 133.682 107.051, 135.334 97.500 C 136.464 90.966, 136.776 90.388, 140.022 88.812 C 141.935 87.883, 145.525 86.815, 148 86.439 C 152.900 85.695, 156.357 83.371, 155.579 81.345 C 155.309 80.641, 155.518 79.798, 156.044 79.473 C 157.844 78.360, 157.001 75.146, 154.365 73.073 C 151.552 70.860, 151.586 70.864, 145.500 71.991 M 57.734 131.088 C 49.484 133.032, 40.254 139.618, 35.895 146.670 C 34.128 149.528, 33.943 150.579, 34.852 152.574 C 36.525 156.247, 40.630 155.728, 47.402 150.984 C 50.555 148.775, 54.966 146.412, 57.204 145.734 C 62.683 144.072, 66.498 138.490, 66.118 132.691 C 66.053 131.696, 65.581 131.141, 65.069 131.457 C 64.557 131.774, 63.856 131.575, 63.510 131.016 C 62.804 129.874, 62.893 129.873, 57.734 131.088" stroke="none" fill="black" fill-rule="evenodd"/>
</svg>