<svg xmlns="http://www.w3.org/2000/svg" width="256" height="256" viewBox="0 0 256 256" version="1.1">
	<path d="M 114.571 33.571 C 113.321 34.822, 113 37.548, 113 46.937 C 113 57.216, 112.743 59.057, 111 61.273 C 109.900 62.671, 109 64.298, 109 64.887 C 109 66.301, 101.157 70.274, 99.570 69.665 C 98.437 69.230, 95.021 60.178, 93.611 53.873 C 93.288 52.428, 91.839 50.469, 90.391 49.521 C 87.885 47.878, 87.672 47.885, 85.921 49.648 C 84.474 51.106, 83.936 53.775, 83.398 62.179 L 82.715 72.858 78.857 76.514 C 76.736 78.524, 75 80.640, 75 81.216 C 75 82.757, 79.022 89, 80.014 89 C 80.949 89, 82.268 92.362, 82.565 95.500 C 82.669 96.600, 83.225 102, 83.801 107.500 C 84.377 113, 84.877 119.370, 84.913 121.656 C 84.949 123.942, 85.393 126.904, 85.900 128.237 C 86.407 129.570, 87.596 133.775, 88.542 137.581 C 90.082 143.774, 92.470 148.578, 95.467 151.511 C 96.815 152.830, 108.513 156.774, 113 157.422 C 114.925 157.700, 122.627 157.982, 130.115 158.049 C 142.790 158.162, 144.067 157.998, 148.615 155.674 C 155.362 152.226, 157.811 149.640, 158.484 145.254 C 158.800 143.189, 159.496 140.118, 160.030 138.429 C 162.054 132.022, 160.411 126, 156.640 126 C 154.230 126, 150.838 129.692, 148 135.406 C 145.755 139.926, 144.889 140.677, 139.500 142.785 C 134.092 144.901, 133.007 145.017, 128.500 143.958 C 118.429 141.591, 114.391 140.941, 109.328 140.869 C 100.152 140.738, 98.252 136.498, 97.290 114 C 96.743 101.235, 98.371 82.007, 100.088 80.946 C 100.761 80.530, 102.929 80.371, 104.906 80.593 C 114.074 81.623, 114.838 82.760, 112.980 92.604 C 111.519 100.347, 112.773 104.654, 116.781 105.660 C 120.048 106.480, 121.895 105.248, 124.637 100.419 C 126.442 97.242, 126.768 95.458, 126.361 91 C 126.085 87.975, 125.436 84.180, 124.918 82.568 C 124.120 80.082, 124.468 78.825, 127.199 74.318 C 128.972 71.394, 131.168 68.764, 132.079 68.475 C 134.638 67.663, 140.259 67.623, 142.696 68.401 C 146.893 69.738, 146.692 82.695, 142.365 89.715 C 140.380 92.935, 140.677 95.773, 143.503 100.596 C 146.170 105.146, 148.692 106.545, 152.502 105.589 C 154.422 105.107, 155.040 104.025, 155.837 99.749 C 156.375 96.862, 156.879 92.333, 156.957 89.685 C 157.035 87.037, 157.471 83.887, 157.925 82.685 C 158.379 81.483, 158.832 75.623, 158.932 69.662 C 159.141 57.225, 158.236 54.893, 152.460 52.987 C 147.788 51.445, 141.643 52.401, 136.148 55.526 C 133.754 56.887, 131.054 57.986, 130.148 57.969 C 126.511 57.899, 123.076 49.325, 123.024 40.184 C 123.011 37.811, 122.534 34.998, 121.965 33.934 C 120.712 31.594, 116.744 31.399, 114.571 33.571 M 40.465 34.952 C 37.754 36.051, 36.269 37.977, 35.848 40.946 C 35.582 42.816, 36.310 43.941, 38.941 45.725 C 40.833 47.008, 43.533 48.302, 44.941 48.600 C 46.348 48.898, 49.610 49.785, 52.188 50.571 C 58.625 52.533, 62.357 52.368, 64.477 50.026 C 68.210 45.900, 62.246 39.200, 51.632 35.596 C 46.495 33.852, 43.591 33.685, 40.465 34.952 M 39.875 72.828 C 32.276 75.575, 30.018 78.875, 33.414 82.272 C 35.612 84.469, 58.708 85.421, 61.733 83.439 C 66.089 80.585, 64.482 75.749, 58.266 72.999 C 52.841 70.600, 46.207 70.538, 39.875 72.828 M 57.141 131.367 C 53.413 134.869, 48.806 138.473, 46.905 139.375 C 45.004 140.277, 41.073 143.093, 38.170 145.632 C 33.642 149.593, 32.935 150.691, 33.196 153.357 C 33.663 158.127, 37.370 158.985, 45.259 156.149 C 53.352 153.239, 63.452 146.629, 65.897 142.642 C 69.723 136.405, 69.456 125, 65.485 125 C 64.625 125, 60.870 127.865, 57.141 131.367" stroke="none" fill="black" fill-rule="evenodd"/>
</svg>