<svg xmlns="http://www.w3.org/2000/svg" width="256" height="256" viewBox="0 0 256 256" version="1.1">
	<path d="M 93.407 28.102 C 91.853 29.820, 91.556 31.467, 91.786 37.114 C 92.043 43.415, 91.838 44.253, 89.463 46.628 C 87.228 48.863, 86.295 49.143, 82.892 48.599 C 80.490 48.215, 76.558 48.578, 72.924 49.520 C 69.622 50.375, 62.777 51.241, 57.711 51.443 C 46.521 51.890, 41.098 53.560, 39.068 57.183 C 37.715 59.597, 37.735 60.221, 39.266 63.433 C 41.324 67.748, 40.999 67.732, 60 64.483 C 67.975 63.120, 75.933 62.003, 77.685 62.002 C 79.437 62.001, 81.934 61.595, 83.236 61.101 C 84.537 60.606, 86.764 60.423, 88.185 60.695 C 92.895 61.595, 98.567 77.075, 96.907 84.500 C 96.538 86.150, 96.183 89.616, 96.118 92.203 C 96 96.895, 94.343 102, 92.937 102 C 92.529 102, 91.725 103.350, 91.150 105 C 90.365 107.251, 89.482 108, 87.611 108 C 86.240 108, 84.873 107.604, 84.575 107.121 C 83.271 105.012, 79.842 105.262, 76.974 107.676 C 75.338 109.052, 74 110.594, 74 111.103 C 74 112.126, 67.916 117.924, 66.794 117.971 C 66.406 117.987, 63.798 119.350, 61 121 C 58.202 122.650, 55.094 124, 54.093 124 C 52.211 124, 45.063 129.173, 43.760 131.478 C 41.274 135.875, 42.928 142, 46.601 142 C 47.856 142, 49.192 141.499, 49.570 140.887 C 50.871 138.781, 58.571 136.100, 65.293 135.411 L 72.024 134.721 75.463 129.111 C 77.354 126.025, 80.273 122.224, 81.950 120.665 C 83.628 119.106, 85 117.470, 85 117.030 C 85 116.590, 86.138 115.484, 87.529 114.573 C 89.807 113.081, 90.212 113.069, 91.598 114.456 C 93.866 116.723, 95 121.631, 95 129.178 C 95 140.665, 92.123 145.031, 84.361 145.319 C 79.791 145.489, 79.520 145.650, 79.836 148 C 80.276 151.266, 80.439 151.408, 88.435 155.503 C 96.414 159.589, 98.892 159.822, 101.731 156.750 C 105.154 153.046, 110.417 140.859, 110.260 137 C 110.181 135.075, 109.814 128.661, 109.445 122.748 C 108.874 113.609, 109.025 111.611, 110.449 109.437 C 111.685 107.551, 112.831 106.961, 114.813 107.190 C 116.958 107.437, 118.114 108.685, 120.540 113.371 C 122.211 116.600, 124.780 120.200, 126.247 121.371 C 127.714 122.542, 130.670 124.850, 132.816 126.500 C 134.961 128.150, 137.948 131.129, 139.452 133.120 C 142.225 136.789, 148.353 139.569, 151.231 138.465 C 152.811 137.858, 156 131.818, 156 129.431 C 156 126.569, 152.595 122.755, 148.455 120.981 C 146.166 120, 142.765 117.879, 140.897 116.267 C 139.029 114.656, 136.790 113.080, 135.922 112.766 C 135.054 112.452, 133.627 110.714, 132.750 108.904 C 131.266 105.838, 131.285 105.362, 133.031 101.939 C 134.062 99.918, 137.148 95.811, 139.889 92.812 C 142.629 89.814, 145.176 86.145, 145.549 84.661 C 147.037 78.730, 140.606 71.535, 136.014 73.993 C 133.635 75.266, 132.481 77.357, 131.596 82 C 130.583 87.310, 127.013 91.055, 122.367 91.678 C 118.804 92.156, 118.074 91.841, 114.714 88.382 C 111.621 85.198, 111 83.854, 111 80.344 C 111 78.027, 110.615 75.088, 110.145 73.815 C 109.675 72.542, 109.006 69.661, 108.659 67.413 C 108.052 63.476, 108.147 63.290, 111.264 62.334 C 114.961 61.199, 128.859 61.545, 137 62.974 C 140.025 63.505, 145.139 63.827, 148.364 63.688 C 153.141 63.483, 154.582 63, 156.137 61.079 C 159.575 56.834, 156.927 52.678, 147.628 47.721 C 144.060 45.819, 140.612 43.038, 139.075 40.823 C 137.659 38.781, 135.375 36.625, 134 36.032 C 132.625 35.439, 129.974 33.389, 128.110 31.477 C 124.218 27.486, 120.806 27.011, 118.604 30.155 C 116.710 32.859, 117.600 34.692, 123.598 40.440 L 128.015 44.672 125.461 45.836 C 122.294 47.279, 108.558 47.369, 105.934 45.965 C 104.295 45.088, 104 43.824, 104 37.687 C 104 29.189, 102.390 26, 98.098 26 C 96.535 26, 94.474 26.923, 93.407 28.102 M 58 83.026 C 58 83.488, 57.101 84.151, 56.002 84.499 C 54.904 84.848, 53.721 86.265, 53.374 87.648 C 52.859 89.697, 53.543 90.977, 57.072 94.573 C 61.729 99.318, 65.613 100.670, 71.444 99.577 C 75.703 98.777, 76.849 96.004, 74.311 92.631 C 70.771 87.926, 58 80.406, 58 83.026" stroke="none" fill="black" fill-rule="evenodd"/>
</svg>