<svg xmlns="http://www.w3.org/2000/svg" width="256" height="256" viewBox="0 0 256 256" version="1.1">
	<path d="M 44.643 33.028 C 41.343 34.017, 38 36.771, 38 38.500 C 38 40.770, 41.701 43.018, 48.583 44.928 C 52.387 45.984, 57.592 47.650, 60.149 48.630 C 64.047 50.124, 65.058 50.197, 66.399 49.083 C 68.891 47.015, 68.311 44.351, 64.436 40.061 C 58.404 33.384, 51.564 30.954, 44.643 33.028 M 95.715 34.389 C 94.297 35.703, 92.623 38.687, 91.994 41.021 C 91.366 43.355, 90.481 45.993, 90.028 46.882 C 89.576 47.772, 88.377 50.525, 87.366 53 C 86.354 55.475, 83.495 59.586, 81.013 62.136 C 78.531 64.686, 75.043 68.490, 73.262 70.589 C 70.362 74.007, 70.166 74.618, 71.381 76.452 C 72.876 78.711, 90.373 87.830, 93.412 87.934 C 94.464 87.970, 97.614 87.360, 100.412 86.579 C 103.210 85.797, 108.200 84.759, 111.500 84.272 C 118.453 83.247, 142.270 83.398, 149.310 84.512 C 159.776 86.169, 162.103 80.560, 154.500 72 C 152.025 69.213, 150 66.349, 150 65.636 C 150 64.922, 146.644 61.084, 142.542 57.106 C 135.644 50.418, 134.800 49.898, 131.310 50.187 C 128.237 50.442, 127.360 51.005, 126.586 53.220 C 125.842 55.348, 126.016 56.360, 127.387 57.875 C 129.430 60.133, 132.245 68.795, 131.387 70.183 C 131.035 70.753, 127.306 70.861, 122.095 70.454 C 115.430 69.932, 111.739 70.174, 106.340 71.487 C 99.806 73.074, 99.057 73.081, 96.144 71.575 C 94.190 70.564, 93 69.183, 93 67.925 C 93 65.093, 95.527 60.518, 98.295 58.338 C 101.430 55.870, 103.628 52.198, 104.362 48.204 C 104.696 46.391, 106.101 43.424, 107.484 41.610 C 110.561 37.576, 110.601 36.638, 107.811 34.039 C 104.723 31.162, 99.018 31.327, 95.715 34.389 M 40.500 67.945 C 37.311 69.251, 34.811 72.638, 35.170 75.168 C 35.423 76.958, 36.545 77.816, 40 78.861 C 42.475 79.610, 46.750 81.120, 49.500 82.216 C 61.200 86.882, 65.351 85.908, 66.582 78.209 C 67.341 73.466, 66.819 73.061, 55.176 69.366 C 47.417 66.903, 43.882 66.561, 40.500 67.945 M 88.154 94 C 86.504 95.650, 84.514 97, 83.732 97 C 82.950 97, 81.538 97.853, 80.595 98.895 C 79.208 100.428, 78.921 102.478, 79.093 109.645 C 79.210 114.515, 79.072 120.750, 78.786 123.500 C 78.500 126.250, 78.630 128.964, 79.074 129.531 C 79.518 130.098, 80.087 131.693, 80.337 133.076 C 80.588 134.459, 81.702 138.720, 82.812 142.545 C 83.923 146.370, 85.123 150.929, 85.479 152.676 C 86.335 156.875, 90.198 159.415, 94.363 158.518 C 96.088 158.147, 102 157.475, 107.500 157.026 C 113 156.577, 120.783 155.870, 124.795 155.456 C 129.841 154.935, 133.815 155.116, 137.681 156.043 C 143.001 157.320, 143.353 157.283, 144.982 155.270 C 147.592 152.048, 148.791 134.975, 148.136 110.368 C 147.923 102.364, 145.856 99.633, 138.757 97.974 C 135.866 97.299, 132.665 96.015, 131.645 95.123 C 130.087 93.761, 127.368 93.529, 114.710 93.680 C 103.304 93.816, 98.956 93.512, 96.865 92.430 C 92.898 90.379, 91.529 90.625, 88.154 94 M 93.914 111.410 C 91.126 114.394, 91.068 114.680, 91.489 123.483 C 91.989 133.934, 94.853 141.694, 98.397 142.200 C 100.666 142.524, 113.355 141.552, 124.268 140.219 C 127.990 139.764, 131.712 138.716, 132.539 137.890 C 133.507 136.921, 134.194 133.743, 134.473 128.944 C 134.710 124.850, 135.570 119.394, 136.383 116.820 C 137.857 112.157, 137.853 112.133, 135.181 110.320 C 132.847 108.736, 130.185 108.491, 114.635 108.427 L 96.770 108.354 93.914 111.410 M 54.946 134.021 C 46.930 138.272, 33.598 149.606, 32.736 152.902 C 32.114 155.280, 34.234 158.566, 36.828 159.245 C 39.605 159.971, 43.856 157.869, 50.417 152.524 C 53.620 149.916, 58.159 146.933, 60.504 145.895 C 65.402 143.729, 68.310 138.883, 67.811 133.720 C 67.363 129.080, 64.120 129.156, 54.946 134.021" stroke="none" fill="black" fill-rule="evenodd"/>
</svg>