<svg xmlns="http://www.w3.org/2000/svg" width="256" height="256" viewBox="0 0 256 256" version="1.1">
	<path d="M 110.574 31.919 C 109.454 33.155, 108.965 34.759, 109.307 36.068 C 110.071 38.988, 108.204 42.710, 105.628 43.402 C 104.458 43.716, 98.775 43.981, 93 43.992 C 87.225 44.003, 79.890 44.439, 76.699 44.962 C 69.648 46.117, 67.704 45.471, 60 39.419 C 54.223 34.880, 47.191 32, 41.888 32 C 38.089 32, 34.161 33.919, 33.464 36.114 C 32.401 39.462, 34.796 41.769, 41.732 44.077 C 45.446 45.313, 50.863 47.376, 53.771 48.662 C 56.678 49.948, 60.866 51, 63.077 51 C 65.288 51, 68.985 51.912, 71.292 53.027 C 73.600 54.142, 77.291 55.329, 79.494 55.664 C 86.703 56.762, 88.632 59.159, 86.012 63.764 C 84.994 65.552, 82.088 72.839, 79.001 81.345 C 77.823 84.593, 75.720 87.513, 72.622 90.206 C 70.080 92.415, 68 94.847, 68 95.611 C 68 97.960, 71.848 101, 74.820 101 C 80.869 101, 85.128 110.314, 83.165 119.252 C 82.531 122.138, 81.897 130.650, 81.756 138.167 C 81.521 150.714, 81.672 152.065, 83.602 154.667 C 86.791 158.965, 90.419 159.895, 93.329 157.160 C 95.804 154.836, 95.833 154.431, 94.412 142.288 C 94.044 139.150, 94.449 133.381, 95.428 127.788 C 96.527 121.514, 96.765 117.526, 96.160 115.500 C 95.463 113.163, 95.718 111.672, 97.317 108.750 C 99.650 104.486, 101.219 104.174, 108.258 106.572 C 112.068 107.871, 112.989 108.676, 113.542 111.190 C 113.910 112.865, 115.495 117.351, 117.065 121.158 C 120.905 130.471, 120.252 132.344, 110.943 138.713 C 108.436 140.428, 104.776 143.613, 102.808 145.791 C 98.321 150.757, 98.568 154.350, 103.560 156.730 C 108.035 158.864, 112.128 157.127, 116.045 151.434 C 119.945 145.765, 123.227 143.306, 127.959 142.507 C 131.313 141.940, 132.616 142.332, 137.275 145.313 C 140.255 147.219, 144.821 150.403, 147.423 152.389 C 156.632 159.419, 163.829 155.764, 159.352 146.330 C 158.434 144.394, 155.861 141.689, 153.596 140.276 C 151.343 138.871, 147.490 135.759, 145.032 133.361 C 142.575 130.962, 140.204 129, 139.763 129 C 139.322 129, 139.190 127.987, 139.470 126.750 C 139.750 125.513, 140.461 122.025, 141.050 119 C 142.025 113.992, 149.150 98.199, 150.976 97 C 152.270 96.150, 156.676 86.672, 157.300 83.395 C 158.579 76.682, 152.517 73, 140.187 73 C 131.196 73, 129.443 71.899, 127.960 65.323 C 127.323 62.497, 127.474 60.926, 128.540 59.299 C 129.931 57.176, 130.402 57.119, 141.807 57.692 C 151.890 58.199, 154.012 58.038, 156.208 56.599 C 159.810 54.239, 160.312 50.474, 157.466 47.164 C 155.229 44.561, 154.850 44.489, 140.838 44 C 125.221 43.455, 122.362 42.603, 121.469 38.221 C 121.163 36.725, 120.356 34.375, 119.676 33 C 118.033 29.682, 113.125 29.099, 110.574 31.919 M 104.739 58.924 C 102.670 59.345, 100.761 59.905, 100.497 60.170 C 100.232 60.434, 99.867 63.136, 99.684 66.173 C 99.473 69.689, 98.609 72.751, 97.307 74.598 C 93.472 80.038, 91.114 85.566, 92.009 87.015 C 92.482 87.779, 92.665 88.733, 92.417 89.134 C 92.169 89.535, 92.871 90.497, 93.977 91.271 C 95.083 92.046, 95.690 92.977, 95.327 93.340 C 94.964 93.703, 95.668 94, 96.892 94 C 98.121 94, 98.841 93.552, 98.500 93 C 98.160 92.450, 98.499 92, 99.252 92 C 101.338 92, 110 83.099, 110 80.956 C 110 80.372, 111.112 78.258, 112.471 76.258 C 115.924 71.176, 117.833 62.405, 115.906 60.477 C 114.036 58.608, 109.442 57.969, 104.739 58.924 M 40.607 65.814 C 36.588 66.767, 35.231 69.195, 36.937 72.383 C 38.435 75.182, 42.064 76.828, 52.685 79.526 C 61.091 81.662, 63.316 80.811, 62.801 75.660 C 62.162 69.272, 49.574 63.687, 40.607 65.814 M 129.573 84.714 C 126.830 85.427, 123.951 89.231, 125.103 90.622 C 127.208 93.163, 142 92.675, 142 90.064 C 142 86.518, 134.708 83.379, 129.573 84.714 M 118.750 97.662 C 119.438 97.940, 120.563 97.940, 121.250 97.662 C 121.938 97.385, 121.375 97.158, 120 97.158 C 118.625 97.158, 118.063 97.385, 118.750 97.662 M 118.250 100.496 C 115.984 103.069, 116.791 105.680, 120.250 106.967 C 122.037 107.633, 124.761 108.852, 126.302 109.676 C 129.603 111.441, 132 110.815, 132 108.186 C 132 106.154, 129.064 103, 127.171 103 C 126.527 103, 126 102.550, 126 102 C 126 101.450, 125.073 101, 123.941 101 C 122.809 101, 122.160 100.550, 122.500 100 C 123.457 98.452, 119.659 98.895, 118.250 100.496 M 51.826 124.726 C 50.986 125.702, 48.271 129.677, 45.793 133.560 C 43.020 137.903, 39.358 142.035, 36.273 144.300 C 33.516 146.324, 30.534 149.447, 29.647 151.240 C 28.110 154.349, 28.132 154.581, 30.128 156.250 C 32.661 158.367, 33.335 158.361, 38.711 156.177 C 48.655 152.137, 61 138.875, 61 132.231 C 61 129.165, 59.026 125.267, 57.128 124.584 C 56.233 124.262, 55.017 123.763, 54.427 123.475 C 53.837 123.187, 52.667 123.750, 51.826 124.726" stroke="none" fill="black" fill-rule="evenodd"/>
</svg>