<svg xmlns="http://www.w3.org/2000/svg" width="256" height="256" viewBox="0 0 256 256" version="1.1">
	<path d="M 94.535 31.351 C 92.262 33.013, 92.223 38.055, 94.457 41.235 C 95.333 42.481, 96.518 45.232, 97.090 47.349 C 97.959 50.563, 97.846 51.512, 96.410 53.099 C 95.439 54.173, 93.343 55.010, 91.595 55.022 C 87.405 55.052, 80.419 58.348, 79.025 60.953 C 77.555 63.701, 78.337 65.991, 81.920 69.423 C 84.286 71.691, 85.375 72.077, 87.862 71.530 C 89.536 71.163, 92.129 69.899, 93.625 68.723 C 95.776 67.031, 97.504 66.633, 101.909 66.818 C 110.594 67.181, 114.980 68.667, 115.106 71.289 C 115.575 81.081, 114.189 82.598, 103.937 83.506 C 94.712 84.322, 91 86.458, 91 90.950 C 91 95.413, 93.300 96.500, 102.745 96.500 C 112.976 96.500, 114.545 97.751, 114.833 106.144 C 115.121 114.518, 113.714 115.423, 103.625 113.348 C 97.226 112.033, 96.542 112.068, 93.140 113.885 C 91.138 114.954, 87.847 116.577, 85.828 117.492 C 81.771 119.329, 78.419 125.595, 79.564 129.203 C 80.098 130.883, 80.771 131.097, 83.848 130.566 C 88.184 129.818, 98.335 128.390, 106 127.448 C 110.629 126.880, 111.887 127.086, 113.944 128.753 C 116.288 130.652, 116.379 131.170, 116.179 141.450 C 115.936 153.900, 117.190 159.310, 120.685 160.902 C 123.593 162.227, 127.631 161.403, 128.430 159.321 C 129.224 157.252, 129.230 139.462, 128.438 134.131 C 128.023 131.336, 128.245 128.911, 129.055 127.397 C 130.318 125.038, 130.362 125.033, 143.661 125.670 C 155.672 126.246, 157.199 126.130, 159 124.500 C 161.319 122.402, 161.700 116.826, 159.641 115.117 C 154.662 110.985, 136.609 108.356, 134.086 111.397 C 131.475 114.542, 127 110.186, 127 104.500 C 127 100.805, 129.114 96.998, 131.421 96.537 C 132.565 96.308, 136.346 95.909, 139.824 95.649 C 147.052 95.109, 150.267 93.018, 149.797 89.163 C 149.351 85.498, 143.881 83, 136.301 83 C 131.164 83, 129.889 82.660, 129.035 81.066 C 127.348 77.912, 127.760 72.194, 129.750 71.167 C 130.713 70.670, 137.076 70.216, 143.892 70.158 C 157.667 70.042, 160 69.128, 160 63.845 C 160 60.105, 157.019 57.258, 152.306 56.498 C 144.992 55.319, 144.335 55.030, 143.171 52.477 C 141.564 48.949, 141.695 46.882, 143.845 41.833 C 146.446 35.724, 144.621 32.102, 138.905 32.032 C 135.199 31.986, 133.252 34.679, 132.043 41.524 C 131.462 44.811, 130.799 48.175, 130.570 49 C 130.341 49.825, 130.119 50.826, 130.077 51.224 C 129.929 52.623, 124.065 55, 120.800 54.985 C 114.528 54.957, 112.749 53.213, 111.370 45.740 C 109.111 33.497, 101.037 26.596, 94.535 31.351 M 42.500 33.664 C 36.744 35.199, 34 37.244, 34 40 C 34 43.153, 36.992 44.993, 45.500 47.073 C 49.964 48.164, 53.622 49.799, 60.386 53.728 C 64.326 56.017, 69.611 52.599, 68.390 48.552 C 67.531 45.707, 64.431 42.448, 58.104 37.738 C 52.723 33.732, 47.427 32.350, 42.500 33.664 M 40.099 67.485 C 33.166 68.620, 30.665 70.661, 32.548 73.646 C 33.119 74.551, 36.832 76.346, 40.800 77.634 C 44.767 78.922, 50.310 81.556, 53.119 83.488 C 55.927 85.420, 59.199 87, 60.390 87 C 64.994 87, 67.689 79.809, 64.607 75.749 C 63.107 73.772, 52.823 68.057, 49.008 67.079 C 47.629 66.725, 43.619 66.908, 40.099 67.485 M 45.497 137.190 C 38.086 144.378, 34.707 148.402, 34.032 150.847 C 33.506 152.753, 33.310 154.692, 33.597 155.156 C 34.482 156.589, 43.931 156.087, 47.120 154.438 C 48.782 153.579, 52.820 150.838, 56.095 148.348 C 63.171 142.966, 65.733 138.183, 63.903 133.767 C 62.878 131.291, 58.246 127, 56.598 127 C 56.272 127, 51.277 131.586, 45.497 137.190" stroke="none" fill="black" fill-rule="evenodd"/>
</svg>