<svg xmlns="http://www.w3.org/2000/svg" width="256" height="256" viewBox="0 0 256 256" version="1.1">
	<path d="M 114 31.586 C 109.875 32.325, 102.508 33.240, 97.628 33.618 C 86.957 34.445, 84.255 36.181, 82.980 43.029 C 82.232 47.051, 82.605 64.793, 83.498 67.644 C 83.695 68.274, 83.514 71.313, 83.095 74.398 C 82.643 77.731, 82.817 83.556, 83.524 88.753 C 85.181 100.923, 84.131 107.419, 77.055 128.766 C 70.274 149.224, 69.702 153.793, 73.455 157.545 C 76.344 160.435, 77.744 160.568, 80.633 158.228 C 83.674 155.765, 85 152.719, 85 148.199 C 85 146.036, 85.854 142.069, 86.898 139.383 C 87.942 136.698, 89.456 132.250, 90.263 129.500 C 92.106 123.219, 95.402 121.050, 103.389 120.866 C 108.075 120.758, 109.526 121.145, 111.544 123.042 C 112.895 124.311, 113.969 126.058, 113.932 126.924 C 113.894 127.791, 111.199 130.750, 107.942 133.500 C 93.021 146.099, 90.032 155.400, 99.721 159.084 C 103.788 160.630, 106.245 158.821, 114.215 148.405 C 119.134 141.976, 122.148 139.503, 126.346 138.449 C 128.452 137.921, 129.690 138.587, 133.400 142.245 C 139.369 148.129, 151.728 156.582, 155.586 157.418 C 157.820 157.902, 159.273 157.592, 160.851 156.293 L 163.031 154.500 160.902 150.232 C 159.731 147.885, 157.411 144.960, 155.747 143.732 C 154.082 142.505, 149.913 138.688, 146.483 135.250 C 142.147 130.905, 139.481 129, 137.739 129 C 134.987 129, 133.359 125.722, 135.353 124.195 C 137.998 122.169, 144.777 120.371, 148.498 120.709 C 155.570 121.351, 159.640 117.110, 155.059 113.872 C 153.792 112.976, 153.031 111.112, 152.865 108.500 C 152.725 106.300, 152.023 103.612, 151.305 102.527 C 149.579 99.919, 149.655 96.938, 151.514 94.283 C 156.358 87.368, 156.341 62.916, 151.490 59.369 C 149.021 57.563, 140.814 55.375, 133 54.439 C 125.108 53.493, 107.180 53.527, 100.975 54.500 C 96.790 55.157, 96.346 55.015, 95.061 52.615 C 93.830 50.314, 93.879 49.791, 95.491 48.010 C 96.898 46.455, 98.576 45.999, 102.905 45.994 C 105.982 45.991, 111.058 45.569, 114.184 45.057 C 117.310 44.545, 124.735 43.816, 130.684 43.437 C 142.316 42.696, 145.018 41.898, 144.968 39.215 C 144.844 32.492, 129.728 28.769, 114 31.586 M 39.500 34.195 C 36.775 35.740, 36.033 37.024, 36.015 40.224 C 35.995 43.912, 39.876 45.805, 52.415 48.223 C 63.789 50.415, 66.694 50.067, 67.615 46.398 C 69.148 40.288, 58.186 32.977, 47.571 33.030 C 44.232 33.047, 40.600 33.571, 39.500 34.195 M 40 67.820 C 36.245 69.522, 33 72.383, 33 73.993 C 33 76.770, 35.370 78.062, 42.259 79.037 C 45.776 79.535, 50.644 80.846, 53.077 81.949 C 58.037 84.200, 61.210 84.493, 64.066 82.965 C 66.619 81.598, 66.739 74.973, 64.250 72.738 C 59.594 68.557, 44.935 65.584, 40 67.820 M 97.247 68.539 C 94.505 70.460, 94.268 74.907, 96.750 77.863 C 98.751 80.246, 99.849 80.339, 122.810 80.063 C 136.715 79.896, 138.307 79.693, 140.147 77.853 C 142.150 75.850, 142.102 71.776, 140.052 69.672 C 138.338 67.915, 131.082 67.138, 115.593 67.053 C 102.463 66.981, 99.080 67.255, 97.247 68.539 M 96.557 94.223 C 94.597 97.020, 94.560 101.399, 96.470 104.314 C 97.839 106.403, 98.582 106.543, 107.220 106.334 C 112.324 106.211, 116.864 106.086, 117.309 106.055 C 117.754 106.025, 117.859 105.581, 117.543 105.069 C 117.226 104.557, 117.425 103.856, 117.984 103.510 C 119.401 102.634, 119.259 94.659, 117.800 93.200 C 117.040 92.440, 113.213 92, 107.357 92 C 98.939 92, 97.974 92.198, 96.557 94.223 M 132.615 95.465 C 130.920 98.051, 130.475 102.142, 131.750 103.417 C 132.162 103.829, 132.500 104.643, 132.500 105.224 C 132.500 109.022, 141.044 108.359, 141.603 104.518 C 141.761 103.428, 142.362 102.379, 142.938 102.187 C 143.659 101.947, 143.665 101.242, 142.957 99.919 C 142.392 98.864, 142.240 98, 142.620 98 C 143 98, 142.004 96.876, 140.406 95.501 C 136.741 92.350, 134.662 92.340, 132.615 95.465 M 55.450 130.611 C 52.650 132.063, 42.387 140.717, 36.433 146.647 C 33.041 150.025, 31.643 154.243, 33.349 155.949 C 36.282 158.882, 49.885 155.314, 55.349 150.178 C 58.789 146.944, 63.006 138.597, 62.985 135.063 C 62.955 130.177, 59.837 128.335, 55.450 130.611" stroke="none" fill="black" fill-rule="evenodd"/>
</svg>