<svg xmlns="http://www.w3.org/2000/svg" width="256" height="256" viewBox="0 0 256 256" version="1.1">
	<path d="M 116.973 28.873 C 114.155 31.692, 114.008 32.214, 114.605 37.297 C 115.184 42.219, 115.027 42.868, 112.899 44.359 C 109.997 46.391, 104.632 46.489, 102.689 44.546 C 101.672 43.529, 101.387 41.750, 101.739 38.622 C 102.172 34.783, 101.880 33.789, 99.667 31.576 C 96.436 28.345, 93.993 28.314, 91.031 31.467 C 89.390 33.213, 88.587 35.479, 88.283 39.217 C 87.766 45.585, 86.879 48.209, 81.894 58.135 C 75.963 69.945, 74.291 79.454, 77.518 83.020 C 78.828 84.468, 79.025 85.952, 78.482 90.298 C 77.820 95.594, 78.830 99.540, 81.251 101.122 C 81.775 101.464, 83.845 101.290, 85.852 100.737 C 90.132 99.556, 94.909 99.367, 97.301 100.285 C 99.665 101.192, 99.500 108.920, 96.966 116 C 95.883 119.025, 93.805 125.013, 92.348 129.306 C 89.729 137.020, 87.205 140.626, 81.648 144.589 C 79.387 146.202, 78.684 147.622, 78.253 151.445 L 77.710 156.267 83.605 155.536 C 86.847 155.134, 90.917 154.216, 92.650 153.495 C 97.279 151.571, 107 137.853, 107 133.245 C 107 132.226, 108.442 129.166, 110.205 126.446 C 112.976 122.170, 113.466 120.420, 113.821 113.535 C 114.306 104.115, 115.950 101.079, 120.589 101.031 C 124.956 100.987, 125.819 103.605, 125.924 117.222 C 125.973 123.542, 126.451 132.173, 126.988 136.403 C 127.941 143.920, 128.084 144.213, 133.349 149.395 C 140.626 156.556, 148.859 158.757, 156.473 155.576 C 165.652 151.741, 167.681 130, 158.860 130 C 157.841 130, 155.362 132.192, 153.265 134.947 C 149.253 140.219, 147.150 141.500, 144.096 140.531 C 141.746 139.785, 138.929 134.080, 139.048 130.306 C 139.097 128.763, 138.811 122.380, 138.412 116.122 C 137.696 104.890, 137.718 104.721, 140.093 102.895 C 141.841 101.551, 144.230 101.038, 148.816 101.022 C 156.037 100.997, 158.705 99.906, 160.023 96.439 C 161.222 93.286, 159.821 89.584, 156.640 87.500 C 154.492 86.092, 152.901 86.034, 143.696 87.025 C 127.294 88.791, 124.918 86.550, 126.390 70.709 C 127.305 60.874, 127.569 60.669, 138.549 61.314 C 148.738 61.912, 152.296 60.872, 152.830 57.143 C 153.571 51.969, 146.817 48, 137.272 48 C 127.292 48, 126 46.808, 126 37.598 C 126 31.896, 125.619 29.983, 124.250 28.807 C 120.794 25.839, 119.999 25.847, 116.973 28.873 M 39.600 33.478 C 35.521 34.931, 34.041 36.420, 34.015 39.095 C 33.990 41.732, 37.128 43.671, 44.273 45.434 C 47.998 46.353, 52.885 47.754, 55.133 48.547 C 58.766 49.829, 59.598 49.810, 62.610 48.381 C 66.867 46.360, 67.030 43.574, 63.140 39.315 C 57.011 32.604, 48.190 30.417, 39.600 33.478 M 101.500 60.386 C 97.965 61.926, 96.806 63.281, 94.984 68 C 94.240 69.925, 91.945 74.130, 89.884 77.345 C 87.822 80.559, 86.370 83.800, 86.656 84.547 C 87.356 86.371, 93.563 87.127, 104.801 86.758 C 111.631 86.534, 114.364 86.061, 115.087 84.977 C 116.406 83.001, 115.294 71.646, 113.229 66 C 110.686 59.047, 107.772 57.652, 101.500 60.386 M 38.373 69.856 C 36.104 70.921, 33.937 72.293, 33.559 72.905 C 32.077 75.302, 34.098 77.787, 38.413 78.874 C 45.647 80.695, 51.312 83.594, 55 87.361 C 56.925 89.328, 59.262 90.951, 60.193 90.968 C 62.337 91.008, 64.812 87.518, 65.593 83.355 C 67.423 73.600, 49.422 64.673, 38.373 69.856 M 50.562 135.874 C 43.244 140.840, 34.071 149.684, 32.818 152.979 C 32.035 155.037, 32.267 155.798, 34.136 157.311 C 38.313 160.694, 48.011 156.947, 57.878 148.140 C 62.857 143.696, 63.085 143.268, 63.288 138 L 63.500 132.500 59.956 132.202 C 57.182 131.969, 55.140 132.767, 50.562 135.874" stroke="none" fill="black" fill-rule="evenodd"/>
</svg>