<svg xmlns="http://www.w3.org/2000/svg" width="256" height="256" viewBox="0 0 256 256" version="1.1">
	<path d="M 37.250 34.973 C 33.881 36.502, 33 37.426, 33 39.428 C 33 42.421, 35.658 44.356, 42 45.979 C 49.248 47.835, 56.408 50.225, 57.681 51.213 C 59.115 52.327, 64.278 52.564, 65.856 51.589 C 69.322 49.447, 64.974 42.623, 56.053 36.201 C 52.434 33.596, 50.666 33.004, 46.553 33.022 C 43.742 33.034, 39.614 33.900, 37.250 34.973 M 83.388 33.651 C 78.601 34.676, 76.176 38.948, 74.888 48.628 C 73.755 57.135, 73.806 57.983, 75.636 61.127 C 77.281 63.955, 78.251 64.548, 81.636 64.800 C 86.802 65.183, 88.199 63.551, 89.500 55.613 C 90.884 47.171, 91.561 46.930, 110.500 48.139 C 118.750 48.666, 129.100 49.412, 133.500 49.798 L 141.500 50.500 142.598 53.899 C 144.519 59.842, 148.260 63.237, 153.023 63.362 C 156.321 63.448, 157.615 62.959, 159.173 61.035 C 160.932 58.862, 161.072 57.671, 160.464 50.049 C 159.848 42.322, 157.791 35.132, 156.136 34.918 C 155.786 34.873, 143.800 34.674, 129.500 34.477 C 115.200 34.280, 99.450 33.912, 94.500 33.659 C 89.550 33.405, 84.549 33.402, 83.388 33.651 M 103.233 55.782 C 101.595 57.313, 99.920 60.125, 99.512 62.032 C 98.564 66.457, 97.688 67.492, 91.543 71.455 C 81.723 77.788, 80.945 80.950, 88.053 85.654 C 92.951 88.895, 95.556 88.346, 100.619 83.003 C 102.705 80.801, 104.916 79, 105.532 79 C 107.434 79, 111 74.494, 111 72.090 C 111 69.789, 113.860 63.784, 115.250 63.167 C 116.897 62.434, 115.850 58.453, 113.313 55.805 C 109.916 52.259, 107.012 52.252, 103.233 55.782 M 120.180 55.839 C 117.204 58.496, 115.810 63, 117.964 63 C 119.666 63, 124 70.370, 124 73.265 C 124 76.751, 128.394 85.605, 130.749 86.865 C 131.712 87.381, 134.750 88.115, 137.500 88.497 C 140.250 88.879, 145.051 89.826, 148.168 90.602 C 156.742 92.735, 160 90.910, 160 83.974 C 160 79.285, 156.248 75.882, 150.467 75.325 C 144.299 74.731, 140.169 73.275, 137.250 70.664 C 135.494 69.093, 135 67.571, 135 63.727 C 135 59.507, 134.555 58.387, 131.894 55.901 C 127.915 52.184, 124.296 52.165, 120.180 55.839 M 38.578 69.062 C 27.202 71.900, 31.641 76.290, 54.500 84.808 C 61.780 87.520, 62.657 87.649, 64.250 86.239 C 66.281 84.441, 66.515 79.551, 64.735 76.117 C 61.797 70.448, 47.971 66.719, 38.578 69.062 M 114.756 92.380 C 112.965 93.584, 111.353 95.591, 111.173 96.841 C 110.622 100.668, 106.810 101.624, 102.030 99.133 C 96.779 96.396, 95.810 96.480, 88 100.356 C 82.041 103.313, 81.518 103.828, 81.721 106.541 C 82.057 111.042, 85.195 112.981, 92.361 113.115 C 95.737 113.178, 99.287 113.150, 100.250 113.052 C 102.986 112.774, 102.302 115.510, 99.250 117.049 C 97.737 117.811, 94.662 120.250, 92.414 122.468 C 90.167 124.685, 85.520 129.200, 82.087 132.500 C 73.430 140.822, 71.250 145.303, 74.535 148.029 C 76.931 150.018, 81.561 149.394, 88.500 146.147 C 93.528 143.794, 95.873 141.879, 99.598 137.082 C 103.290 132.328, 104.906 131, 107 131 C 110.844 131, 112 134.382, 112 145.624 C 112 154.873, 112.088 155.242, 114.990 158.144 C 118.938 162.092, 122.668 161.763, 125.303 157.234 C 127.156 154.049, 127.158 153.744, 125.398 145.037 C 123.672 136.496, 123.670 136.022, 125.361 134.153 C 128.979 130.156, 133.253 131.238, 138.078 137.372 C 139.302 138.928, 142.260 141.040, 144.652 142.065 C 147.043 143.090, 149 144.323, 149 144.804 C 149 145.781, 154.023 148.310, 154.673 147.660 C 154.901 147.432, 155.306 145.953, 155.573 144.373 C 155.840 142.793, 156.278 140.879, 156.548 140.120 C 157.829 136.507, 146.529 122.736, 141.302 121.542 C 139.761 121.190, 137.398 119.991, 136.050 118.879 C 133.056 116.406, 134.148 113.860, 138.595 112.946 C 142.834 112.075, 149.667 107.460, 149.667 105.469 C 149.667 102.958, 142.464 100.048, 136.184 100.022 C 130.816 100, 126.530 98.570, 127.436 97.103 C 128.131 95.979, 122.948 91.379, 120.256 90.731 C 118.868 90.397, 116.772 91.025, 114.756 92.380 M 51.406 136.499 C 49.807 137.873, 48.124 138.998, 47.666 138.999 C 46.179 139.001, 35.103 148.176, 32.555 151.516 C 30.115 154.716, 30.107 154.787, 32.015 156.514 C 36.095 160.206, 49.356 155.966, 58.121 148.169 C 62.515 144.259, 62.707 143.868, 62.037 140.202 C 61.649 138.081, 61.006 135.818, 60.607 135.173 C 59.370 133.171, 54.450 133.880, 51.406 136.499" stroke="none" fill="black" fill-rule="evenodd"/>
</svg>