<svg xmlns="http://www.w3.org/2000/svg" width="256" height="256" viewBox="0 0 256 256" version="1.1">
	<path d="M 47.275 32.054 C 40.371 33.516, 36.904 38.015, 40.428 40.940 C 42.389 42.568, 62.884 47.843, 65.049 47.277 C 68.211 46.450, 68.064 42.142, 64.744 38.361 C 63.084 36.470, 60.946 34.506, 59.992 33.996 C 56.863 32.321, 50.560 31.359, 47.275 32.054 M 91.173 33.803 C 89.703 35.344, 87.265 38.831, 85.755 41.553 C 84.245 44.274, 80.757 49.338, 78.005 52.807 C 72.411 59.856, 71.881 62.587, 75.329 66.596 C 78.394 70.160, 80.982 69.454, 87.553 63.262 C 90.942 60.068, 93.427 56.526, 95.100 52.507 C 97.004 47.931, 98.587 45.847, 101.796 43.691 C 107.414 39.918, 107.207 36.963, 101.027 32.704 C 97.456 30.242, 94.225 30.603, 91.173 33.803 M 122.200 32.200 C 120.469 33.931, 120.784 38.177, 122.816 40.500 C 124.765 42.728, 130.237 47.001, 136.923 51.514 C 139.355 53.156, 143.462 56.592, 146.049 59.148 C 151.490 64.527, 153.912 66, 157.312 66 C 160.663 66, 162.243 63.817, 161.380 60.378 C 160.226 55.778, 142.874 40.075, 130.899 32.792 C 127.492 30.721, 123.923 30.477, 122.200 32.200 M 110 52.714 C 105.463 54.334, 100 61.909, 100 66.579 C 100 69.888, 91.063 80.670, 84.119 85.740 C 72.990 93.866, 70.323 101.929, 76.545 108.643 C 77.895 110.100, 79 111.676, 79 112.146 C 79 112.616, 79.884 113, 80.965 113 C 84.527 113, 85.032 115.584, 86.826 143 C 87.646 155.529, 89.109 159.309, 93.573 160.429 C 94.930 160.770, 96.954 160.560, 98.069 159.963 C 99.185 159.366, 104.688 158.467, 110.299 157.966 C 115.909 157.464, 123.200 156.374, 126.500 155.542 C 129.800 154.711, 134.862 154.024, 137.750 154.016 C 144.023 153.997, 146.957 151.712, 147.081 146.750 C 147.126 144.963, 147.324 142.375, 147.521 141 C 147.719 139.625, 148.192 133.325, 148.573 127 C 149.360 113.931, 150.516 110.824, 157.067 104.159 C 163.738 97.370, 162.495 91.355, 153.525 87.012 C 150.677 85.634, 148.334 83.605, 147.329 81.648 C 145.383 77.857, 141.428 74, 139.487 74 C 138.712 74, 135.592 71.975, 132.553 69.500 C 129.514 67.025, 126.572 65, 126.014 65 C 125.456 65, 125 64.421, 125 63.712 C 125 61.968, 115.995 53.341, 113.500 52.695 C 112.400 52.411, 110.825 52.419, 110 52.714 M 42.273 67.113 C 38.540 68.192, 36.577 71.180, 37.414 74.512 C 37.852 76.258, 39.309 77.255, 43.249 78.507 C 46.137 79.425, 50.846 81.112, 53.714 82.257 C 58.254 84.069, 59.444 84.184, 62.919 83.142 C 65.115 82.485, 67.606 81.251, 68.455 80.402 C 72.158 76.699, 68.530 70.577, 61.952 69.427 C 60.053 69.095, 56.803 68.188, 54.730 67.412 C 50.494 65.826, 47.016 65.742, 42.273 67.113 M 108.700 78.250 C 103.746 85.986, 95.472 95.608, 92.021 97.647 C 90.359 98.628, 89 100.025, 89 100.750 C 89 101.789, 90.854 101.934, 97.750 101.436 C 111.092 100.472, 116.884 100.796, 125.463 102.991 C 135.663 105.599, 140.597 105.622, 141.965 103.066 C 143.451 100.288, 143.345 99.868, 139.769 94.421 C 134.226 85.979, 131.019 82.626, 123.027 76.912 C 115.339 71.417, 112.931 71.642, 108.700 78.250 M 103.339 116.935 C 99.331 119.379, 98.857 120.983, 99.167 131.079 C 99.372 137.789, 99.785 139.653, 101.398 141.156 C 104.006 143.586, 111.018 143.574, 118.126 141.129 C 121.656 139.914, 125.191 139.420, 128.199 139.720 C 134.033 140.302, 134.608 139.317, 134.802 128.404 C 134.986 117.979, 134.329 117.104, 125.462 115.962 C 113.855 114.467, 106.883 114.774, 103.339 116.935 M 54.366 134.757 C 41.291 148.488, 37 153.371, 37 154.518 C 37 154.919, 39.410 155.048, 42.355 154.804 C 46.441 154.465, 49.224 153.392, 54.105 150.274 C 63.554 144.239, 65.708 141.696, 68.058 133.806 C 69.973 127.376, 70.010 126.664, 68.542 124.424 C 67.669 123.091, 66.852 122.003, 66.727 122.007 C 66.602 122.011, 61.040 127.749, 54.366 134.757" stroke="none" fill="black" fill-rule="evenodd"/>
</svg>