<svg xmlns="http://www.w3.org/2000/svg" width="256" height="256" viewBox="0 0 256 256" version="1.1">
	<path d="M 90.056 32.944 C 88.986 34.014, 87.803 36.601, 87.426 38.694 C 87.049 40.787, 85.287 44.300, 83.511 46.500 C 77.853 53.509, 74.846 60.605, 74.664 67.377 L 74.500 73.482 80.500 75.375 C 83.800 76.416, 86.653 77.666, 86.839 78.152 C 87.026 78.638, 87.832 79.690, 88.632 80.489 C 90.503 82.360, 90.198 89.892, 88.154 92.283 C 86.953 93.689, 85.748 93.935, 82.476 93.444 C 73.470 92.094, 73.041 99.603, 81.888 103.716 C 83.874 104.640, 85.839 105.869, 86.253 106.448 C 86.667 107.027, 86.721 111.173, 86.373 115.662 C 85.550 126.268, 86.100 128.126, 90.855 130.798 C 94.179 132.666, 96.314 133, 104.948 133 C 114.673 133, 123.461 134.723, 126.750 137.275 C 128.870 138.920, 128.141 142.056, 125 144.813 C 121.348 148.017, 121.031 151.890, 124.250 153.981 C 134.945 160.930, 139.485 159.093, 141.987 146.803 C 143.270 140.504, 145.505 134.576, 147.462 132.285 C 150.532 128.690, 151 127.997, 151 127.042 C 151 126.469, 150.608 126, 150.129 126 C 149.650 126, 148.944 122.811, 148.560 118.913 C 147.929 112.505, 148.084 111.499, 150.181 108.420 C 151.456 106.546, 152.897 105.011, 153.383 105.007 C 153.868 105.003, 155.112 104.024, 156.146 102.831 C 158.237 100.421, 157.863 97.727, 154.990 94.500 C 154.010 93.400, 152.890 90.025, 152.501 87 C 151.846 81.911, 149.376 70.985, 148.765 70.476 C 145.602 67.835, 140.952 66.961, 129.767 66.904 C 123.020 66.870, 115.925 67.098, 114 67.410 C 104.196 69.001, 96.952 69.223, 94.048 68.020 C 90.579 66.583, 90.597 66.625, 92.163 63.684 C 94.543 59.216, 95.658 58.973, 113 59.135 C 133.158 59.324, 151.676 57.604, 154.214 55.306 C 155.196 54.417, 156 52.465, 156 50.967 C 156 45.739, 154.800 45.500, 128.556 45.500 C 100.612 45.500, 99.702 45.267, 98.707 37.854 C 97.849 31.452, 93.829 29.171, 90.056 32.944 M 45.500 34.234 C 42.626 35.898, 41.411 37.315, 41.184 39.267 C 40.827 42.343, 40.781 42.317, 53.819 46.397 C 63.495 49.425, 66.542 49.636, 67.423 47.341 C 68.286 45.092, 64.116 37.051, 60.864 34.692 C 56.706 31.675, 50.251 31.483, 45.500 34.234 M 41.248 67.706 C 40.009 67.945, 38.536 68.998, 37.975 70.047 C 36.463 72.873, 38.532 75.455, 44.439 78.112 C 47.223 79.364, 50.942 81.433, 52.704 82.710 C 57.991 86.541, 61.152 86.661, 64.967 83.177 C 67.640 80.736, 68.136 79.679, 67.606 77.564 C 67.088 75.501, 65.208 74.130, 58.576 70.979 C 50.597 67.189, 47.234 66.553, 41.248 67.706 M 126.023 80.977 C 123.957 83.043, 124.118 84.576, 126.850 88.841 C 128.822 91.920, 132.335 93.203, 135.500 92 C 137.652 91.182, 138 90.427, 138 86.581 C 138 83.098, 137.510 81.770, 135.777 80.557 C 132.725 78.419, 128.395 78.605, 126.023 80.977 M 106.136 82.145 C 100.399 84.268, 99.429 89.953, 104.368 92.516 C 111.786 96.365, 116.969 92.224, 115.129 83.918 C 114.846 82.642, 108.288 81.349, 106.136 82.145 M 102.827 107.674 C 101.285 108.082, 99 112.731, 99 115.461 C 99 117.946, 103.089 121, 106.417 121 C 112.668 121, 113.949 116.319, 109.357 110.250 C 106.949 107.067, 106.217 106.778, 102.827 107.674 M 125 107.706 C 124.175 108.008, 122.508 109.156, 121.296 110.258 L 119.093 112.262 122.296 114.574 C 124.058 115.845, 126.996 117.653, 128.823 118.592 C 132.026 120.236, 132.221 120.223, 134.198 118.246 C 138.452 113.992, 135.540 106.927, 129.595 107.079 C 127.893 107.122, 125.825 107.405, 125 107.706 M 56 131.730 C 54.625 132.624, 50.800 135.893, 47.500 138.994 C 44.200 142.095, 39.819 145.858, 37.763 147.357 C 32.920 150.888, 31.420 153.596, 33.152 155.683 C 35.161 158.104, 44.698 156.890, 49.598 153.588 C 51.744 152.142, 55.496 149.623, 57.935 147.990 C 63.443 144.302, 63.969 143.475, 63.971 138.500 C 63.975 129.986, 61.680 128.037, 56 131.730" stroke="none" fill="black" fill-rule="evenodd"/>
</svg>