<svg xmlns="http://www.w3.org/2000/svg" width="256" height="256" viewBox="0 0 256 256" version="1.1">
	<path d="M 113.412 31.497 C 110.737 34.172, 110.697 34.682, 112.566 42.301 C 113.453 45.920, 109.911 50, 105.881 50 C 102.325 50, 97.913 46.197, 96.459 41.878 C 95.529 39.115, 94.811 38.500, 92.520 38.500 C 90.757 38.500, 89.307 39.240, 88.609 40.496 C 87.999 41.593, 86.600 43.842, 85.500 45.492 C 77.983 56.768, 74.748 64.636, 74.804 71.500 C 74.831 74.800, 74.878 80.508, 74.907 84.185 C 74.954 89.982, 75.301 91.210, 77.516 93.425 C 78.921 94.830, 81.067 96.181, 82.285 96.427 C 83.503 96.673, 100.983 97.110, 121.129 97.399 C 155.448 97.892, 157.860 97.812, 159.379 96.134 C 161.532 93.755, 161.427 90.749, 159.090 87.861 C 157.285 85.630, 156.398 85.472, 143 85 C 128.849 84.501, 128.815 84.494, 126.327 81.598 C 123.540 78.353, 123.643 74.781, 126.731 67.645 C 128.356 63.889, 128.502 63.806, 132.449 64.404 C 144.918 66.294, 149.632 66.296, 151.835 64.409 C 154.470 62.153, 154.648 57.896, 152.200 55.681 C 148.622 52.443, 141.929 50.851, 134.760 51.532 C 128.181 52.158, 127.944 52.098, 124.901 49.055 C 122.594 46.748, 121.941 45.360, 122.392 43.719 C 124.169 37.245, 124.157 34.417, 122.342 32.311 C 119.295 28.775, 116.398 28.511, 113.412 31.497 M 41.872 33.006 C 37.308 35.417, 36.602 37.224, 39.021 40.299 C 40.356 41.996, 42.669 43.071, 46.715 43.874 C 49.897 44.505, 54.907 46.141, 57.849 47.511 C 66.772 51.663, 70.711 50.191, 68.862 43.395 C 66.276 33.886, 51.193 28.080, 41.872 33.006 M 100 64.820 C 96.450 66.429, 90.217 71.082, 86.655 74.783 C 79.598 82.116, 83.432 84.730, 99.480 83.527 C 107.391 82.934, 109.451 82.433, 111.057 80.708 C 113.083 78.534, 113.023 77.438, 110.527 71 C 109.780 69.075, 108.921 66.713, 108.616 65.750 C 108.045 63.944, 103.110 63.411, 100 64.820 M 42.984 70.857 C 41.068 71.878, 38.833 73.885, 38.018 75.316 C 36.652 77.714, 36.702 78.073, 38.654 79.893 C 39.820 80.978, 42.512 82.182, 44.637 82.568 C 46.762 82.953, 50.585 84.783, 53.134 86.634 C 60.358 91.881, 65.003 90.969, 68.988 83.522 C 71.073 79.626, 66.999 75.154, 58.252 71.737 C 49.981 68.507, 47.647 68.372, 42.984 70.857 M 95.887 103.772 C 89.561 104.027, 87.924 104.453, 86.202 106.290 C 84.241 108.382, 84.176 109.114, 84.990 120 C 85.556 127.578, 86.564 133.313, 87.945 136.816 C 89.628 141.082, 89.919 143.354, 89.417 148.316 C 88.866 153.762, 89.060 154.839, 91.041 157.342 C 93.442 160.377, 94.487 160.447, 103.500 158.178 C 105.700 157.624, 116.050 156.864, 126.500 156.488 C 140.037 156.001, 146.133 155.404, 147.703 154.410 C 150.102 152.891, 150.602 150.814, 151.531 138.500 C 153.294 115.118, 153.435 111.737, 152.696 110.420 C 152.254 109.631, 150.229 108.143, 148.196 107.113 C 145.201 105.595, 141.275 105.122, 127.500 104.620 C 118.150 104.279, 108.925 103.880, 107 103.733 C 105.075 103.586, 100.074 103.604, 95.887 103.772 M 111 116.649 C 105.311 117.506, 100.975 119.178, 100.072 120.865 C 98.933 122.994, 98.492 137.752, 99.494 140.223 C 100.804 143.452, 106.706 143.646, 126.870 141.126 C 136.523 139.920, 137.682 138.706, 138.446 129 C 139.260 118.655, 138.561 117.899, 127.272 116.910 C 117.946 116.094, 115.001 116.046, 111 116.649 M 66.500 125.218 C 65.400 125.854, 63.716 127.370, 62.758 128.586 C 61.799 129.802, 55.880 134.493, 49.604 139.011 C 36.801 148.228, 33.245 152.674, 36.263 155.691 C 38.567 157.995, 43.548 157.789, 49 155.164 C 55.039 152.257, 69.195 141.571, 70.735 138.757 C 72.321 135.860, 72.364 126.764, 70.800 125.200 C 69.346 123.746, 69.043 123.747, 66.500 125.218" stroke="none" fill="black" fill-rule="evenodd"/>
</svg>