<svg xmlns="http://www.w3.org/2000/svg" width="256" height="256" viewBox="0 0 256 256" version="1.1">
	<path d="M 112.028 31.112 C 108.736 32.427, 108.034 33.732, 108.015 38.566 C 108.001 42.277, 107.643 42.832, 103.907 44.932 C 100.869 46.639, 97.619 47.370, 91.309 47.764 C 84.209 48.206, 82.324 48.698, 79.902 50.736 C 75.882 54.118, 76.249 56.623, 81.500 61.655 C 84.391 64.424, 86 66.826, 86 68.371 C 86 69.879, 84.321 72.480, 81.500 75.341 C 74.842 82.094, 75.790 87.011, 84.541 91.124 C 89.369 93.394, 90.397 95.266, 89.527 100.206 C 89.209 102.018, 88.785 108.900, 88.587 115.500 C 88.194 128.569, 87.357 131.476, 82.345 137.193 C 75.317 145.210, 75.876 157.835, 83.265 157.968 C 86.879 158.033, 91.758 151.692, 96.320 141 L 100.800 130.500 100.543 111.839 L 100.287 93.178 102.893 92.553 C 107.370 91.480, 138 90.800, 138 91.774 C 138 92.274, 139.688 92.685, 141.750 92.687 C 143.813 92.689, 148.667 93.034, 152.538 93.454 C 158.499 94.100, 159.787 93.962, 160.959 92.550 C 162.151 91.113, 162.049 90.281, 160.225 86.526 C 159.061 84.130, 157.184 81.876, 156.054 81.517 C 154.924 81.159, 154 80.487, 154 80.024 C 154 79.562, 151.952 77.076, 149.449 74.501 C 145.208 70.138, 144.918 69.501, 145.199 65.176 L 145.500 60.534 150.878 59.517 C 154.663 58.801, 156.710 57.818, 157.785 56.198 C 159.184 54.091, 159.143 53.668, 157.310 51.198 C 153.954 46.677, 151.808 46.151, 139.099 46.737 C 129.330 47.187, 126.894 46.997, 124.131 45.568 C 120.919 43.907, 120.849 43.734, 121.490 39.076 C 122.004 35.338, 121.788 33.931, 120.502 32.645 C 119.598 31.740, 118.476 31, 118.010 31 C 117.545 31, 116.564 30.803, 115.832 30.563 C 115.099 30.322, 113.388 30.569, 112.028 31.112 M 36.315 32.947 C 33.382 34.209, 31.811 37.398, 32.591 40.506 C 33.375 43.631, 34.733 44.349, 43 46.003 C 46.575 46.719, 51.340 48.361, 53.588 49.652 C 58.313 52.366, 63.173 52.684, 65.429 50.429 C 67.564 48.293, 67.417 47.079, 64.510 42.800 C 59.829 35.912, 43.051 30.048, 36.315 32.947 M 119.500 61.060 C 108.528 61.804, 106.186 62.715, 102.148 67.813 C 98.877 71.943, 98.137 75.737, 100.200 77.800 C 102.101 79.701, 114.075 79.216, 123.373 76.861 C 130.777 74.987, 131.878 74.420, 132.289 72.270 C 132.547 70.921, 132.256 68.489, 131.643 66.864 C 130.765 64.540, 130.814 63.733, 131.871 63.080 C 132.992 62.387, 132.990 62.111, 131.857 61.403 C 130.139 60.331, 130.234 60.333, 119.500 61.060 M 42 69.704 C 41.175 70.004, 39.040 71.129, 37.256 72.203 C 34.542 73.837, 34.179 74.466, 35.032 76.059 C 35.592 77.106, 38.627 79.143, 41.775 80.584 C 44.924 82.025, 49.795 84.284, 52.600 85.602 C 59.290 88.747, 61.610 88.671, 63.337 85.250 C 64.101 83.737, 64.602 82.050, 64.450 81.500 C 64.299 80.950, 63.910 79.295, 63.587 77.823 C 62.741 73.972, 53.760 68.973, 47.878 69.079 C 45.470 69.122, 42.825 69.404, 42 69.704 M 137.279 96.650 C 132.578 98.594, 130.635 102.017, 131.812 106.280 C 132.332 108.164, 132.593 111.009, 132.393 112.603 C 131.690 118.186, 131.714 132.547, 132.434 137.500 C 134.097 148.928, 136.238 151.744, 147.255 156.995 C 154.658 160.523, 157.537 160.486, 160.950 156.823 C 164.905 152.578, 160.457 145, 154.010 145 C 146.949 145, 144.889 137.210, 143.904 106.786 C 143.770 102.626, 143.081 99.167, 142.094 97.694 C 140.605 95.474, 140.287 95.405, 137.279 96.650 M 110.774 98.744 C 107.163 100.983, 106.970 101.726, 108.040 109.276 C 108.542 112.820, 108.929 118.820, 108.901 122.610 C 108.810 134.832, 111.165 148.747, 113.896 152.120 C 116.059 154.791, 120.332 154.117, 122.093 150.827 C 122.738 149.620, 123.378 142.917, 123.549 135.556 C 123.717 128.340, 123.941 122.001, 124.046 121.468 C 124.151 120.936, 124.184 116.317, 124.118 111.205 C 124.011 102.751, 123.778 101.687, 121.545 99.455 C 118.666 96.575, 114.694 96.313, 110.774 98.744 M 57.422 132.804 C 44.779 138.061, 32.770 147.083, 31.458 152.311 C 30.585 155.789, 33.202 159.002, 36.905 158.996 C 39.820 158.992, 43.094 157.173, 51.048 151.139 C 54.047 148.864, 57.883 146.544, 59.574 145.982 C 61.580 145.316, 63.231 143.740, 64.324 141.447 C 66.479 136.927, 66.441 134.709, 64.171 132.655 C 62.009 130.698, 62.514 130.687, 57.422 132.804" stroke="none" fill="black" fill-rule="evenodd"/>
</svg>