<svg xmlns="http://www.w3.org/2000/svg" width="256" height="256" viewBox="0 0 256 256" version="1.1">
	<path d="M 104.500 31.131 C 103.400 31.678, 100.251 36.710, 97.503 42.313 C 93.733 49.999, 90.825 54.271, 85.663 59.711 C 80.190 65.478, 78.714 67.710, 78.292 70.860 C 77.827 74.327, 78.089 75.012, 80.475 76.576 C 83.164 78.338, 83.256 78.317, 91.585 74.015 C 101.450 68.919, 102.597 67.814, 103.542 62.500 C 104.753 55.689, 109.628 52, 117.416 52 C 122.362 52, 128.586 54.479, 129.479 56.805 C 130.221 58.738, 127.599 62.675, 125.027 63.492 C 123.912 63.845, 123 64.561, 123 65.082 C 123 67.212, 116.420 69.993, 111.372 69.996 C 108.441 69.998, 105.844 70.535, 105.309 71.250 C 103.935 73.084, 103.727 79.152, 104.930 82.316 C 106.344 86.035, 104.990 87.967, 98.631 91.302 C 95.809 92.782, 90.909 96.357, 87.743 99.246 C 83.071 103.509, 81.986 105.090, 81.993 107.628 C 82.002 111.717, 83.289 112.591, 90.487 113.400 C 93.779 113.770, 96.922 114.522, 97.471 115.071 C 98.020 115.620, 98.340 118.962, 98.183 122.497 C 97.986 126.926, 98.556 131.038, 100.016 135.713 C 101.678 141.033, 101.997 143.846, 101.491 148.726 C 100.881 154.609, 100.996 155.092, 103.569 157.476 C 106.774 160.447, 106.954 160.468, 111.782 158.433 C 114.477 157.297, 120.528 156.704, 133.770 156.278 C 145.334 155.907, 152.633 155.258, 153.654 154.511 C 155.798 152.943, 157.111 141.107, 157.459 120.194 C 157.814 98.829, 158.312 99.537, 142.837 99.399 C 132.707 99.309, 127.263 98.835, 120.330 97.439 C 117.655 96.900, 116.189 91.682, 118.075 89.410 C 118.764 88.580, 121.274 87.014, 123.654 85.930 C 126.710 84.538, 128.565 82.813, 129.973 80.054 C 131.068 77.906, 134.177 74.283, 136.882 72.003 C 140.569 68.893, 142.066 66.796, 142.866 63.616 C 143.454 61.284, 145.074 57.697, 146.467 55.644 C 149.978 50.470, 149.775 47.446, 145.750 44.979 C 143.030 43.311, 140.907 43.011, 132.740 43.139 C 121.879 43.309, 119.014 42.050, 118.985 37.095 C 118.976 35.668, 118.639 34.005, 118.235 33.400 C 116.134 30.254, 108.722 29.029, 104.500 31.131 M 45.398 32.326 C 34.923 36.291, 35.860 39.178, 49.101 43.736 C 59.690 47.382, 62.586 47.679, 65.777 45.443 C 68.800 43.326, 68.569 40.718, 65.001 36.654 C 60.594 31.635, 52.150 29.771, 45.398 32.326 M 39.321 67.189 C 38.123 67.768, 36.592 69.570, 35.920 71.192 C 34.857 73.760, 34.945 74.370, 36.599 75.899 C 37.667 76.886, 41.597 78.154, 45.570 78.794 C 49.459 79.420, 53.959 80.619, 55.570 81.460 C 57.182 82.300, 59.440 82.990, 60.589 82.994 C 64.369 83.005, 66.570 74.548, 63.459 71.966 C 57.443 66.973, 44.901 64.491, 39.321 67.189 M 117.771 110.049 C 111.320 110.505, 105.245 111.341, 104.271 111.908 C 102.781 112.776, 102.996 112.944, 105.629 112.970 C 108.102 112.994, 108.981 113.576, 109.827 115.750 C 112.200 121.854, 112.963 126.795, 112.411 132.500 C 111.498 141.938, 112.364 142.571, 125.674 142.189 C 142.770 141.699, 145.166 139.421, 144.754 124.057 L 144.500 114.614 140 112.318 C 134.100 109.307, 131.722 109.065, 117.771 110.049 M 53.348 133.093 C 49.333 134.256, 35.508 147.103, 34.184 150.901 C 32.851 154.727, 34.238 156, 39.740 156 C 43.907 156, 51.170 153.152, 52.503 150.995 C 52.854 150.427, 55.342 148.847, 58.031 147.484 C 62.120 145.412, 63.094 144.364, 63.977 141.086 C 65.484 135.489, 63.767 131.968, 59.589 132.090 C 57.890 132.140, 55.082 132.591, 53.348 133.093" stroke="none" fill="black" fill-rule="evenodd"/>
</svg>