<svg xmlns="http://www.w3.org/2000/svg" width="256" height="256" viewBox="0 0 256 256" version="1.1">
	<path d="M 107.804 31.487 C 104.426 33.783, 103.117 33.996, 90.822 34.260 C 78.046 34.533, 77.326 34.662, 73.250 37.405 C 70.912 38.979, 69 40.656, 69 41.133 C 69 43.235, 63.427 41.669, 57.433 37.884 C 49.923 33.141, 44.461 32.494, 37.196 35.487 C 33.301 37.092, 32.921 37.552, 33.196 40.336 C 33.473 43.135, 34.077 43.618, 39.908 45.700 C 43.432 46.958, 48.785 49.381, 51.804 51.084 C 58.105 54.641, 59.798 54.272, 65.146 48.181 C 67.972 44.963, 68.359 44.827, 72.805 45.493 C 81.260 46.761, 84.390 47.005, 93.500 47.104 C 101.770 47.194, 105 48.011, 105 50.015 C 105 51.414, 101.595 52.215, 94.500 52.486 C 90.650 52.633, 85.250 53.607, 82.500 54.652 C 78.171 56.296, 77.460 56.957, 77.201 59.581 C 76.929 62.336, 77.354 62.824, 81.866 64.937 C 86.971 67.328, 87.923 67.351, 101.652 65.399 C 105.244 64.888, 105.893 65.086, 106.458 66.867 C 108.007 71.749, 103.092 75.293, 96.445 74.087 C 94.275 73.693, 88.450 73.519, 83.500 73.699 C 76.454 73.957, 73.912 74.459, 71.790 76.014 C 70.300 77.106, 68.050 77.992, 66.790 77.982 C 64.477 77.963, 56.190 72.926, 54.817 70.703 C 54.312 69.886, 50.616 69.500, 43.287 69.500 L 32.500 69.500 32.203 72.052 C 31.814 75.386, 33.968 77.126, 42 79.966 C 45.575 81.231, 51.401 84.008, 54.946 86.138 C 61.780 90.244, 63.288 90.325, 68.001 86.841 C 70.375 85.086, 72.899 84.962, 106.521 84.953 C 126.876 84.947, 145.854 85.410, 150.223 86.021 C 158.938 87.237, 162.010 86.374, 161.985 82.715 C 161.966 79.940, 161.257 78.929, 157.500 76.319 C 154.107 73.961, 149.081 73.134, 137.500 73.029 C 131.216 72.971, 128.964 72.543, 127 71.032 C 123.158 68.076, 125.577 66.558, 134.279 66.462 C 138.708 66.414, 142.997 65.729, 145.372 64.692 C 147.502 63.761, 150.089 63, 151.122 63 C 152.457 63, 153 62.279, 153 60.510 C 153 58.405, 151.955 57.545, 146.250 54.953 C 140.127 52.171, 138.850 51.940, 132.500 52.468 C 127.059 52.920, 125.065 52.708, 123.545 51.515 C 121.690 50.058, 121.679 49.892, 123.327 48.245 C 124.715 46.857, 126.508 46.565, 132.281 46.786 C 145.667 47.300, 158 44.478, 158 40.901 C 158 40.467, 156.931 38.869, 155.624 37.349 C 153.254 34.594, 153.221 34.588, 141.539 34.843 C 129.353 35.110, 124.401 34.188, 120.115 30.855 C 116.823 28.295, 112.149 28.535, 107.804 31.487 M 88.217 90.658 C 86.366 91.295, 84.589 92.078, 84.269 92.398 C 83.420 93.247, 81.925 101.645, 81.492 108 C 81.285 111.025, 80.415 119.112, 79.558 125.970 C 77.444 142.891, 77.523 146.523, 80.061 149.061 C 83.464 152.464, 86.131 151.218, 89.500 144.655 C 93.706 136.460, 95.229 135.864, 112.345 135.705 C 128.905 135.552, 133.014 136.230, 132.290 138.999 C 132.018 140.041, 130.563 141.157, 129.042 141.491 C 122.497 142.928, 122.945 150.680, 129.841 155.312 C 135.184 158.901, 138.277 159.356, 141.278 156.996 C 143.990 154.863, 146.580 146.656, 146.106 141.700 C 145.959 140.159, 146.317 138.324, 146.901 137.620 C 148.087 136.190, 148.344 125.499, 147.625 107.468 C 147.091 94.078, 146.921 92.802, 145.532 91.806 C 142.465 89.608, 94.088 88.639, 88.217 90.658 M 97.872 101.128 C 97.089 103.414, 97.578 106.009, 98.889 106.516 C 101.391 107.485, 132.335 107.065, 133.351 106.049 C 134.939 104.461, 126.960 103.122, 114.500 102.885 C 107.294 102.748, 102.206 102.226, 101.765 101.578 C 101.285 100.873, 101.025 100.975, 101.015 101.872 C 101.003 102.979, 100.709 103.004, 99.500 102 C 98.675 101.315, 97.943 100.923, 97.872 101.128 M 97.367 120.402 C 95.436 122.555, 97.645 125.126, 100.805 124.402 C 102.287 124.062, 110.215 123.712, 118.423 123.624 C 129.231 123.508, 133.459 123.124, 133.756 122.232 C 134.366 120.402, 132.991 120.213, 115 119.653 C 102.434 119.261, 98.230 119.440, 97.367 120.402 M 48.977 136.059 C 45.964 138.842, 41.250 142.942, 38.500 145.171 C 35.750 147.400, 32.686 150.496, 31.691 152.050 C 29.904 154.841, 29.912 154.896, 32.271 156.442 C 35.739 158.714, 41.808 156.617, 50.898 150.005 C 56.573 145.878, 58.639 143.674, 60.157 140.134 C 61.780 136.347, 61.904 135.189, 60.886 133.288 C 58.852 129.487, 55.162 130.346, 48.977 136.059" stroke="none" fill="black" fill-rule="evenodd"/>
</svg>