<svg xmlns="http://www.w3.org/2000/svg" width="256" height="256" viewBox="0 0 256 256" version="1.1">
	<path d="M 38.329 32.410 C 32.041 35.239, 32.180 40.924, 38.602 43.607 C 40.601 44.442, 46.476 45.836, 51.659 46.704 C 61.860 48.414, 64.917 47.893, 66.946 44.100 C 67.848 42.415, 67.425 41.481, 64.258 38.155 C 60.248 33.943, 56.119 32.359, 46.888 31.490 C 43.367 31.159, 40.401 31.478, 38.329 32.410 M 84.648 35.007 L 81.872 38.306 82.186 60.949 C 82.449 79.930, 82.767 83.999, 84.147 86.105 C 87.106 90.616, 91.577 90.934, 135.114 89.735 C 151.418 89.285, 150.445 90.855, 150.724 64.572 C 150.853 52.458, 150.522 42.225, 149.944 40.500 C 147.766 33.997, 145.661 33.581, 108.962 32.401 L 87.423 31.708 84.648 35.007 M 98 44.694 C 97.175 44.989, 95.938 45.939, 95.250 46.806 C 93.675 48.792, 93.624 57.961, 95.166 61.685 C 96.654 65.276, 96.698 65.756, 95.939 70.138 C 95.561 72.321, 95.805 74.702, 96.549 76.092 C 97.769 78.371, 98.069 78.410, 115.372 78.527 C 125.043 78.592, 133.528 78.282, 134.228 77.838 C 134.927 77.394, 135.107 77.024, 134.628 77.015 C 134.148 77.007, 134.247 76.408, 134.848 75.684 C 135.621 74.751, 135.638 73.271, 134.903 70.611 C 134.072 67.600, 134.177 66.379, 135.433 64.462 C 137.592 61.167, 137.551 50.232, 135.368 47.114 C 133.892 45.008, 133.132 44.822, 127.472 45.183 C 124.028 45.402, 120.501 46.169, 119.636 46.887 C 118.220 48.062, 118.307 48.672, 120.503 53.005 C 121.844 55.652, 124.980 59.488, 127.471 61.530 C 132.369 65.543, 132.971 67.582, 130.250 70.935 C 128.523 73.062, 128.415 73.069, 122.105 71.451 C 116.388 69.984, 115.311 69.967, 111.936 71.293 C 108.435 72.668, 107.919 72.630, 104.830 70.762 C 99.551 67.570, 99.239 65.795, 103.184 61.399 C 104.221 60.243, 106.606 56.868, 108.484 53.899 C 112.270 47.913, 112.052 47.112, 106.101 45.131 C 102.498 43.932, 100.442 43.821, 98 44.694 M 40.754 66.555 C 34.966 68.388, 31.818 72.247, 34.182 74.610 C 35.002 75.430, 38.394 76.736, 41.721 77.512 C 45.048 78.288, 50.500 79.868, 53.837 81.023 C 60.800 83.433, 62.988 82.858, 64.958 78.102 C 66.548 74.262, 64.547 71.412, 58.076 68.299 C 51.828 65.295, 46.442 64.752, 40.754 66.555 M 102 94.769 C 100.625 94.956, 97.475 95.709, 95 96.443 C 92.525 97.176, 88.475 97.851, 86 97.942 C 83.525 98.033, 81.051 98.555, 80.501 99.102 C 79.212 100.387, 79.513 108.221, 80.956 110.917 C 81.569 112.063, 81.670 113, 81.182 113 C 80.693 113, 79.768 116.180, 79.126 120.066 C 78.236 125.454, 78.237 128.058, 79.128 131.033 C 80.598 135.939, 78.425 142.400, 73.970 146.369 C 70.871 149.131, 69.761 154.818, 72.250 155.183 C 72.938 155.284, 82.950 155.453, 94.500 155.560 C 106.050 155.666, 120.450 156.072, 126.500 156.462 C 137.519 157.172, 148.932 157.195, 152.563 156.515 C 153.628 156.316, 155.255 156.119, 156.179 156.077 C 161.207 155.847, 162.032 149.836, 157.676 145.169 C 155.681 143.033, 155.498 141.782, 155.477 130.169 C 155.419 97.863, 155.883 98.947, 141.685 98.012 C 134.479 97.538, 131.580 96.930, 130.089 95.580 C 128.532 94.172, 127.165 93.920, 123.800 94.422 C 113.151 96.011, 111.097 96.125, 107.901 95.303 C 106.030 94.822, 103.375 94.581, 102 94.769 M 93 110 C 93 110.550, 92.352 111, 91.559 111 C 89.356 111, 88.776 112.714, 90.126 115.229 C 90.797 116.478, 91.459 120.363, 91.598 123.862 C 91.737 127.362, 92.310 131.412, 92.872 132.862 C 93.434 134.313, 94.094 137.196, 94.339 139.268 C 94.816 143.301, 96.476 146, 98.479 146 C 99.323 146, 99.724 144.022, 99.748 139.750 C 99.809 128.941, 100.730 115.577, 101.551 113.586 C 102.107 112.236, 101.995 111.885, 101.170 112.395 C 100.526 112.793, 100 112.641, 100 112.059 C 100 111.477, 99.127 111, 98.059 111 C 96.991 111, 95.840 110.550, 95.500 110 C 95.160 109.450, 94.459 109, 93.941 109 C 93.423 109, 93 109.450, 93 110 M 129.500 110.632 C 127.300 111.451, 122.704 112.111, 119.286 112.098 C 115.868 112.085, 112.832 112.462, 112.540 112.936 C 112.247 113.409, 112.465 117.780, 113.023 122.648 C 113.582 127.517, 114.168 134.315, 114.325 137.755 C 114.650 144.875, 116.150 147.457, 117.976 144.045 C 118.615 142.851, 119.076 140.441, 119.002 138.687 C 118.927 136.934, 118.893 132.866, 118.925 129.648 C 118.958 126.429, 118.579 123.070, 118.082 122.182 C 117.470 121.089, 117.802 119.348, 119.110 116.784 C 120.913 113.251, 121.339 113, 125.545 113 C 131.323 113, 131.641 113.811, 132.571 130.916 C 133.181 142.148, 133.552 144.225, 135.095 145.051 C 136.478 145.791, 137.387 145.501, 138.952 143.821 C 141.081 141.536, 141.232 140.418, 141.525 124.878 C 141.615 120.136, 141.963 115.539, 142.299 114.664 C 142.700 113.617, 141.930 112.374, 140.050 111.036 C 136.720 108.664, 134.960 108.597, 129.500 110.632 M 56 129.713 C 53.768 130.609, 47.159 135.783, 40.186 142.094 C 30.088 151.232, 29.616 157, 38.965 157 C 46.942 157, 58.536 148.750, 63.081 139.840 C 65.970 134.177, 64.833 129.591, 60.468 129.306 C 58.836 129.199, 56.825 129.382, 56 129.713" stroke="none" fill="black" fill-rule="evenodd"/>
</svg>