<svg xmlns="http://www.w3.org/2000/svg" width="256" height="256" viewBox="0 0 256 256" version="1.1">
	<path d="M 39.500 32.794 C 35.647 34.109, 34.424 35.035, 34.170 36.832 C 33.663 40.407, 36.468 42.618, 43.289 44.022 C 46.705 44.726, 50.816 45.961, 52.424 46.766 C 55.900 48.508, 62.569 48.603, 64.573 46.939 C 68.381 43.779, 63.854 36.152, 56.231 32.885 C 50.852 30.579, 46.067 30.553, 39.500 32.794 M 85.500 36.755 C 83.850 36.929, 81.449 37.601, 80.165 38.250 C 75.575 40.568, 75.199 42.893, 75.598 66.500 C 76.428 115.560, 76.653 111.719, 71.934 129 C 69.606 137.525, 67.093 145.388, 66.350 146.473 C 63.926 150.013, 64.650 154.614, 68.006 157.004 C 69.659 158.181, 71.790 158.994, 72.742 158.811 C 75.300 158.319, 78.657 151.504, 81.051 141.944 C 82.213 137.300, 84.336 129.675, 85.768 125 C 87.795 118.380, 88.418 114.067, 88.583 105.500 C 88.798 94.365, 88.923 69.973, 88.804 62.338 C 88.643 52.016, 90.608 50, 100.828 50 C 109.127 50, 114.883 51.213, 116.164 53.232 C 118.781 57.354, 115.886 65, 111.709 65 C 108.906 65, 99.346 68.957, 97.766 70.771 C 96.913 71.750, 96.411 73.800, 96.608 75.500 C 96.799 77.150, 97.155 85.170, 97.399 93.323 C 97.802 106.791, 98.055 108.459, 100.171 111.574 C 102.971 115.696, 104.564 116.315, 109.635 115.250 C 118.550 113.379, 119.751 115.412, 119.969 132.752 C 120.095 142.732, 120.025 143.073, 117.342 145.559 C 114.628 148.074, 113.011 153, 114.898 153 C 115.430 153, 116.120 153.803, 116.431 154.784 C 117.368 157.735, 122.737 160.304, 126.643 159.670 C 132.625 158.700, 133.872 156.004, 133.740 144.328 C 133.623 133.952, 134.501 131, 137.704 131 C 140.614 131, 148.172 138.397, 151.014 144.028 C 155.293 152.505, 160.305 154.936, 162.795 149.742 C 163.938 147.356, 163.831 145.941, 161.999 139.264 C 159.519 130.225, 156.845 125.488, 153.141 123.573 C 150.855 122.391, 149.907 122.408, 146.488 123.692 C 139.148 126.448, 137.031 126.485, 135.181 123.891 C 132.240 119.768, 131.923 117.111, 134.227 115.878 C 136.132 114.859, 143.455 115.089, 148.648 116.332 C 150.055 116.669, 151.478 116.096, 152.773 114.673 C 156.324 110.771, 157.204 108.172, 156.153 104.701 C 154.829 100.329, 154.844 84.329, 156.176 79.841 C 156.773 77.828, 156.971 75.021, 156.615 73.603 C 155.845 70.536, 150.203 67.356, 143.842 66.402 C 137.715 65.485, 133.297 63.234, 132.613 60.683 C 131.677 57.194, 131.908 53.175, 133.087 52.446 C 133.684 52.077, 139.310 51.460, 145.588 51.076 C 155.199 50.488, 157.239 50.071, 158.495 48.439 C 160.589 45.718, 159.945 42.025, 157 39.859 C 154.738 38.196, 151.449 37.966, 122.500 37.449 C 104.900 37.135, 90.050 36.779, 89.500 36.658 C 88.950 36.538, 87.150 36.581, 85.500 36.755 M 31.014 66.500 C 31.056 72.648, 33.928 74.967, 44.110 77.079 C 47.075 77.693, 51.075 79.110, 53 80.227 C 60.816 84.763, 64.482 84.281, 65.551 78.578 C 66.421 73.944, 64.217 70.943, 57.417 67.502 C 52.435 64.982, 50.773 64.679, 41.428 64.595 C 31.631 64.506, 31.001 64.621, 31.014 66.500 M 112.689 79.033 C 110.338 82.390, 112.438 85.369, 116.500 84.439 C 118.150 84.061, 123.689 83.646, 128.810 83.516 C 139.066 83.256, 140.899 82.440, 138.832 79.052 C 137.664 77.138, 136.885 76.936, 132.500 77.414 C 126.124 78.109, 124.523 78.107, 118.871 77.398 C 114.860 76.895, 114.034 77.114, 112.689 79.033 M 114.116 95.750 C 110.093 99.093, 114.494 104.247, 119.906 102.530 C 120.861 102.227, 124.491 102.368, 127.972 102.845 C 134.065 103.678, 143.213 102.489, 141.330 101.108 C 140.873 100.774, 140.500 99.857, 140.500 99.072 C 140.500 97.129, 135.548 95.909, 129.507 96.364 C 126.761 96.570, 122.767 96.123, 120.631 95.370 C 115.907 93.703, 116.630 93.661, 114.116 95.750 M 100.773 121.107 C 99.942 121.572, 98.653 123.426, 97.909 125.226 C 97.164 127.027, 95.511 129.469, 94.235 130.654 C 87.778 136.649, 90.005 147, 97.751 147 C 101.549 147, 107 143.695, 107 141.392 C 107 140.583, 107.900 138.156, 109 136 C 111.763 130.585, 111.587 126.449, 108.472 123.562 C 105.473 120.782, 102.849 119.945, 100.773 121.107 M 41.057 140.874 C 34.763 147.268, 29.447 153.034, 29.244 153.686 C 29.042 154.339, 30.017 155.620, 31.411 156.534 C 33.391 157.831, 35.103 158.039, 39.223 157.482 C 45.515 156.633, 47.076 155.890, 53.109 150.878 C 57.493 147.236, 57.751 146.736, 58.376 140.634 C 58.745 137.034, 58.598 133.073, 58.041 131.609 C 56.227 126.837, 53.302 128.433, 41.057 140.874" stroke="none" fill="black" fill-rule="evenodd"/>
</svg>