<svg xmlns="http://www.w3.org/2000/svg" width="256" height="256" viewBox="0 0 256 256" version="1.1">
	<path d="M 36.984 33.869 C 34.292 35.312, 33.500 36.368, 33.500 38.510 C 33.500 40.034, 34.175 41.608, 35 42.007 C 51.668 50.069, 53.911 50.751, 58.276 49.088 C 59.802 48.506, 61.315 47.344, 61.637 46.505 C 62.460 44.359, 57.949 38.817, 52.371 35.122 C 46.863 31.474, 42.164 31.091, 36.984 33.869 M 90.500 36 C 88.300 37.018, 84.311 37.885, 81.636 37.926 C 76.208 38.009, 69.878 41.011, 67.508 44.628 C 66.203 46.619, 66.225 47.786, 67.702 54.809 C 69.162 61.753, 69.204 63.620, 68.040 69.787 C 66.812 76.299, 66.903 79.401, 68.517 86 C 70.473 93.998, 70.233 100.620, 67.767 106.726 C 66.248 110.485, 65.616 113.365, 66.130 114.177 C 66.592 114.905, 66.976 116.700, 66.985 118.167 C 66.993 119.633, 67.386 120.983, 67.857 121.167 C 68.329 121.350, 69.791 124.875, 71.107 129 C 73.099 135.242, 73.891 136.555, 75.832 136.830 C 77.115 137.012, 78.932 136.467, 79.869 135.618 C 82.671 133.083, 88.659 131.001, 92.705 131.156 C 94.792 131.236, 97.517 130.977, 98.761 130.580 C 101.447 129.723, 104.334 124.629, 103.545 122.141 C 103.237 121.173, 102.761 115.297, 102.485 109.083 C 102.210 102.868, 101.769 97.436, 101.506 97.010 C 100.473 95.338, 105.137 91.203, 109.224 90.167 C 115.121 88.672, 120.549 83.219, 121.393 77.942 C 121.752 75.696, 122.750 72.785, 123.611 71.472 L 125.175 69.084 127.705 71.614 C 130.087 73.997, 130.243 74.795, 130.386 85.338 C 130.521 95.330, 130.831 97.133, 133.268 102.116 C 137.465 110.694, 137.125 112.017, 129.072 118.442 C 125.262 121.483, 121.868 124.839, 121.531 125.902 C 120.887 127.931, 111.459 137, 109.994 137 C 107.626 137, 106 140.439, 106 145.449 C 106 154.119, 108.085 154.704, 117 148.535 C 124.179 143.566, 126.301 141.541, 129.112 136.972 C 130.820 134.197, 134.174 130.840, 137.338 128.739 C 142.008 125.638, 145.955 120.458, 146.017 117.349 C 146.039 116.245, 153.870 107.905, 156.833 105.829 C 158.344 104.771, 159.158 103.155, 159.216 101.097 C 159.330 97.085, 159.115 96.917, 153.441 96.597 C 149.536 96.376, 148.173 95.758, 145.841 93.148 C 143.324 90.331, 142.373 87.509, 142.946 84.555 C 143.588 81.249, 142.886 66.567, 142.037 65.545 C 141.298 64.654, 141.591 63.775, 143.075 62.433 C 145.112 60.589, 145.185 60.611, 148.071 63.916 C 150.191 66.345, 151 68.305, 151 71.016 C 151 74.949, 155.287 87.630, 157.323 89.720 C 158.900 91.339, 162.992 90.202, 163.032 88.133 C 163.049 87.235, 163.690 85.674, 164.455 84.664 C 166.100 82.493, 165.790 79.675, 162.265 64.713 C 159.356 52.371, 157.934 50.591, 150.124 49.517 C 143.122 48.554, 139.508 46.003, 137.873 40.869 C 136.403 36.255, 132.564 33.186, 129.657 34.301 C 128.469 34.757, 128 36.157, 128 39.246 C 128 44.005, 125.809 47.997, 123.193 48.006 C 119.924 48.016, 114.372 50.005, 112.350 51.889 C 110.823 53.311, 110.137 55.613, 109.637 60.992 C 108.915 68.767, 107.718 72, 105.562 72 C 104.459 72, 104.215 69.038, 104.304 56.750 C 104.427 39.691, 103.875 37.682, 98.452 35.415 C 96.589 34.637, 94.937 34.033, 94.782 34.074 C 94.627 34.115, 92.700 34.982, 90.500 36 M 84.473 46.670 C 80.856 50.287, 79.939 57.040, 82.557 60.777 C 86.037 65.747, 91 61.426, 91 53.426 C 91 49.019, 90.629 47.987, 88.557 46.629 C 86.312 45.158, 85.981 45.162, 84.473 46.670 M 28.486 65.929 C 29.043 68.821, 32.778 72.100, 36.770 73.202 C 38.721 73.741, 41.933 75.234, 43.909 76.519 C 52.774 82.289, 63.287 78.665, 58.569 71.465 C 55.581 66.905, 52.534 65.674, 45.755 66.288 C 41.534 66.671, 38.493 66.397, 36.165 65.424 C 31.159 63.333, 28.026 63.539, 28.486 65.929 M 83.356 74.382 C 78.652 79.754, 77.831 86.529, 81.382 90.658 C 83.540 93.166, 84.017 93.313, 86.434 92.212 C 89.511 90.810, 92 85.617, 92 80.600 C 92 77.918, 91.344 76.669, 89.096 75.068 C 85.745 72.682, 84.930 72.585, 83.356 74.382 M 82.744 104.750 C 79.058 110.220, 78.459 115.042, 81.056 118.345 C 85.405 123.873, 91 120.354, 91 112.089 C 91 108.021, 87.773 101.028, 85.886 101.007 C 85.548 101.003, 84.135 102.688, 82.744 104.750 M 51.117 116.105 C 49.119 118.249, 48.875 118.792, 44.973 129.766 C 43.747 133.212, 41.002 138.465, 38.872 141.439 C 35.086 146.727, 34.181 150.160, 35.872 152.827 C 37.861 155.965, 51.803 148.333, 55.445 142.114 C 56.791 139.815, 59.110 120.035, 58.419 116.750 C 57.699 113.323, 54.012 112.997, 51.117 116.105" stroke="none" fill="black" fill-rule="evenodd"/>
</svg>