<svg xmlns="http://www.w3.org/2000/svg" width="256" height="256" viewBox="0 0 256 256" version="1.1">
	<path d="M 40.350 34.449 C 34.601 36.950, 33.935 41.881, 38.994 44.497 C 40.500 45.276, 44.535 46.365, 47.959 46.916 C 51.384 47.468, 56.137 49.062, 58.521 50.459 C 64.708 54.086, 69 53.467, 69 48.950 C 69 46.136, 63.144 39.047, 58.263 35.952 C 53.005 32.617, 45.925 32.023, 40.350 34.449 M 86.308 34.237 C 83.197 35.680, 82.937 36.864, 82.297 52.500 C 81.672 67.799, 80.859 70.540, 75.902 74.070 C 71.893 76.925, 69.793 81.792, 70.903 85.660 C 72.342 90.679, 75.808 96.660, 78.706 99.124 C 83.226 102.967, 84.175 107.293, 83.443 120.693 C 83.088 127.187, 81.943 136.049, 80.899 140.387 C 78.324 151.083, 78.376 156.596, 81.067 158.036 C 83.905 159.555, 87.602 157.037, 89.635 152.201 C 93.759 142.390, 94.399 141.519, 98 140.823 C 99.925 140.451, 104.200 139.621, 107.500 138.978 C 121.379 136.276, 123.653 135.984, 126.694 136.513 C 132.456 137.517, 131.946 144.194, 126.007 145.498 C 123.915 145.958, 122.807 146.920, 122.371 148.657 C 120.363 156.659, 133.832 162.489, 140.694 156.587 L 143.500 154.173 143.575 130.337 C 143.626 114.115, 144.025 105.802, 144.825 104.316 C 145.471 103.114, 146 100.977, 146 99.566 C 146 97.104, 146.237 97, 151.845 97 C 160.132 97, 161.007 95.786, 160.284 85.288 C 159.650 76.072, 157.875 73, 153.184 73 C 151.677 73, 149.445 72.299, 148.223 71.443 C 146.145 69.988, 145.992 69.091, 145.882 57.693 C 145.738 42.890, 145.220 40.243, 142 37.865 C 137.854 34.802, 123.842 32.988, 105.279 33.110 C 96.050 33.171, 87.514 33.678, 86.308 34.237 M 96.979 46.203 C 95.891 46.606, 94.961 47.513, 94.913 48.218 C 94.866 48.923, 94.714 52.200, 94.576 55.500 C 94.437 58.800, 93.972 63.378, 93.541 65.674 C 92.845 69.378, 93.047 70.138, 95.333 72.424 C 98.629 75.719, 100.969 75.677, 104.820 72.250 C 107.810 69.589, 107.873 69.363, 106.754 65.272 C 104.929 58.596, 106.424 55.765, 112.523 54.348 C 115.261 53.712, 119.892 53.149, 122.816 53.096 C 131.026 52.948, 134.927 49.637, 130 47 C 127.703 45.771, 99.958 45.101, 96.979 46.203 M 120.250 68.220 C 119.013 68.817, 118 69.579, 118 69.912 C 118 71.355, 122.645 73.211, 127.514 73.714 C 132.288 74.206, 132.848 74.053, 133.474 72.081 C 134.547 68.701, 132.383 66.991, 127.128 67.068 C 124.582 67.105, 121.487 67.624, 120.250 68.220 M 39 71.309 C 36.525 72.601, 34.360 74.382, 34.189 75.267 C 33.685 77.868, 37.500 80.800, 43.711 82.585 C 46.895 83.500, 51.276 85.543, 53.447 87.125 C 57.977 90.425, 60.853 90.741, 63.680 88.250 C 67.290 85.068, 67.225 82.183, 63.459 78.526 C 58.760 73.963, 51.992 70.169, 47.377 69.512 C 44.477 69.100, 42.366 69.552, 39 71.309 M 91.595 84.767 C 90.547 85.009, 88.536 86.276, 87.126 87.584 C 82.771 91.623, 85.118 92.436, 101.781 92.660 C 109.876 92.769, 117.850 92.842, 119.500 92.823 C 121.150 92.804, 124.075 92.767, 126 92.741 C 127.925 92.716, 133.298 93.204, 137.939 93.825 C 142.580 94.447, 146.571 94.762, 146.808 94.525 C 147.045 94.289, 146.510 93.367, 145.619 92.476 C 144.729 91.586, 144 90.489, 144 90.038 C 144 88.660, 137.177 87.840, 122 87.393 C 114.025 87.158, 106.375 86.529, 105 85.994 C 102.059 84.849, 94.315 84.141, 91.595 84.767 M 114.290 105.799 C 113.404 106.363, 113.671 107.281, 115.290 109.235 C 117.608 112.033, 127.903 120, 129.200 120 C 130.810 120, 132.833 115.342, 132.570 112.241 C 132.099 106.681, 129.659 104.998, 122.095 105.015 C 118.468 105.024, 114.956 105.377, 114.290 105.799 M 100 106.795 C 96.876 107.846, 95.880 112.875, 98.340 115.173 C 99.361 116.126, 99.447 117.339, 98.704 120.267 C 98.022 122.956, 98.074 124.868, 98.880 126.635 C 99.936 128.954, 100.403 129.110, 104.600 128.541 C 111.628 127.587, 112.435 126.168, 108.171 122.263 C 106.212 120.468, 104.277 119, 103.872 119 C 101.905 119, 101.920 114.599, 103.896 111.926 C 106.052 109.010, 106.580 107.059, 105.250 106.923 C 104.838 106.881, 103.825 106.722, 103 106.569 C 102.175 106.415, 100.825 106.517, 100 106.795 M 62.565 122.578 C 61.697 123.446, 60.559 124.956, 60.035 125.935 C 58.120 129.512, 52.314 135.834, 42.179 145.376 C 36.124 151.077, 35.129 155.011, 39.750 154.984 C 50.388 154.924, 62.538 148.044, 65.330 140.500 C 67.337 135.077, 68.187 128.516, 67.416 124.404 C 66.724 120.717, 65.054 120.088, 62.565 122.578" stroke="none" fill="black" fill-rule="evenodd"/>
</svg>