<svg xmlns="http://www.w3.org/2000/svg" width="256" height="256" viewBox="0 0 256 256" version="1.1">
	<path d="M 91.010 31.990 C 86.543 36.823, 85.804 37.224, 79.863 38.050 C 76.363 38.536, 71.660 39.223, 69.410 39.577 C 65.849 40.137, 64.880 39.845, 61.910 37.316 C 54.130 30.691, 49.780 29.300, 42.388 31.076 C 33.218 33.279, 29.940 37.590, 35.750 39.807 C 49.091 44.898, 56.983 46.943, 63.075 46.888 C 66.692 46.855, 71.431 47.308, 73.608 47.894 C 75.785 48.481, 80.462 48.919, 84.003 48.869 C 91.879 48.759, 93.174 50.155, 93.525 59.135 C 93.821 66.728, 95.914 69.753, 102.274 71.783 C 106.030 72.982, 107 73.745, 107 75.504 C 107 77.628, 106.511 77.745, 94.750 78.429 C 81.352 79.208, 78.154 80.192, 76.273 84.117 C 74.707 87.383, 73.772 127.325, 75.093 134.500 C 75.600 137.250, 76.225 140.592, 76.483 141.926 C 76.742 143.260, 76.498 144.900, 75.942 145.570 C 75.386 146.240, 74.665 149.030, 74.341 151.770 C 73.842 155.979, 74.078 157.078, 75.861 158.861 C 77.635 160.635, 78.360 160.793, 80.418 159.856 C 83.385 158.504, 84.854 155.145, 85.384 148.500 C 85.877 142.320, 89.799 133.016, 91.937 132.956 C 92.797 132.931, 91.925 131.971, 90 130.822 L 86.500 128.732 86.312 115.714 C 86.209 108.555, 85.867 101.078, 85.552 99.099 C 84.722 93.888, 86.013 92.584, 92.196 92.384 C 95.113 92.290, 99.637 91.879, 102.248 91.471 L 106.996 90.729 107.691 94.114 C 108.074 95.976, 108.384 99.188, 108.380 101.250 C 108.377 103.312, 108.730 105, 109.164 105 C 109.599 105, 109.915 107.799, 109.866 111.221 C 109.803 115.712, 109.331 117.769, 108.167 118.620 C 105.440 120.614, 102.601 114.843, 102.527 107.157 C 102.478 102.096, 102.077 100.529, 100.542 99.407 C 97.294 97.032, 94.165 97.680, 92.045 101.166 C 90.391 103.887, 90.299 104.695, 91.394 106.916 C 92.094 108.337, 92.510 111.300, 92.318 113.500 C 91.608 121.629, 91.756 123.132, 93.608 126.574 C 95.200 129.532, 95.897 129.996, 98 129.498 C 99.375 129.172, 101.719 128.027, 103.210 126.953 C 107.661 123.745, 109.763 124.365, 110.996 129.250 C 111.586 131.588, 112.503 134.534, 113.034 135.797 C 114.300 138.808, 114.260 143.186, 112.934 146.674 C 109.510 155.680, 118.498 164.248, 124.028 157.250 C 125.990 154.768, 126.137 153.755, 125.542 146.860 C 124.889 139.306, 124.913 139.198, 127.691 137.241 C 130.293 135.408, 133.066 134.217, 135.500 133.889 C 136.050 133.815, 138.340 133.200, 140.590 132.523 C 146.352 130.789, 148.197 132.325, 148.779 139.345 C 149.200 144.421, 149.082 144.763, 146.712 145.357 C 143.199 146.239, 141.402 151.439, 143.503 154.646 C 147.359 160.531, 158.902 162.128, 160.793 157.038 C 161.182 155.993, 161.120 143.744, 160.655 129.818 C 160.191 115.893, 159.846 100.675, 159.888 96 C 159.986 85.340, 158.846 82.209, 154.639 81.578 C 140.977 79.530, 140.115 79.495, 130.407 80.595 C 126.333 81.056, 124.959 80.816, 123.534 79.391 C 121.825 77.683, 121.862 77.515, 124.432 75.305 C 126.572 73.464, 128.294 73, 132.988 73 C 139.833 73, 139.783 73.074, 140.398 62.168 C 140.936 52.649, 142.096 51.354, 150.574 50.814 C 155.423 50.506, 157.563 49.881, 159.126 48.319 C 163.451 43.993, 158.233 39.027, 149.300 38.968 C 144.031 38.933, 142.549 38.099, 139.145 33.250 C 137.867 31.429, 135.985 30, 134.866 30 C 132.123 30, 129 31.797, 129 33.375 C 129 35.787, 123.970 37, 113.972 37 L 104.039 37 101.769 32.250 C 98.663 25.749, 96.818 25.704, 91.010 31.990 M 111.500 50.999 C 106.460 51.719, 105 52.623, 105 55.024 C 105 58.146, 108.618 59.323, 116.089 58.628 C 119.798 58.284, 123.510 57.741, 124.339 57.423 C 126.499 56.594, 127.292 53.854, 125.787 52.417 C 124.233 50.934, 116.989 50.215, 111.500 50.999 M 43.500 64.006 C 42.400 64.480, 39.813 65.143, 37.750 65.480 C 31.023 66.576, 33.965 70.665, 44.929 75.461 C 52.366 78.714, 58.149 79.080, 61.021 76.481 C 64.694 73.157, 62.567 67.306, 56.901 65.152 C 53.059 63.692, 45.690 63.061, 43.500 64.006 M 125.040 94.452 C 124.292 95.353, 124.131 96.777, 124.616 98.202 C 125.045 99.466, 125.307 100.838, 125.198 101.250 C 124.899 102.383, 130.790 102.150, 131.500 101 C 131.840 100.450, 133.597 100, 135.404 100 C 139.872 100, 142.747 103.216, 143.225 108.750 C 143.421 111.017, 145.757 110.050, 146.245 107.500 C 146.508 106.125, 146.319 105, 145.826 105 C 145.333 105, 145.395 104.130, 145.965 103.066 C 147.551 100.101, 147.205 97.205, 145 95 C 143.318 93.318, 141.667 93, 134.622 93 C 128.519 93, 125.918 93.394, 125.040 94.452 M 124.348 107.250 C 123.812 108.487, 123.268 111.300, 123.138 113.500 C 122.949 116.712, 123.343 117.771, 125.140 118.876 C 127.145 120.110, 127.564 120.022, 129.177 118.030 C 131.151 115.592, 131.082 107.861, 129.081 107.194 C 128.479 106.993, 128.242 106.418, 128.553 105.915 C 128.864 105.412, 128.264 105, 127.220 105 C 126.175 105, 124.883 106.013, 124.348 107.250 M 144 114 C 144 114.550, 144.450 115, 145 115 C 145.550 115, 146 114.550, 146 114 C 146 113.450, 145.550 113, 145 113 C 144.450 113, 144 113.450, 144 114 M 106.813 121.683 C 107.534 121.972, 108.397 121.936, 108.729 121.604 C 109.061 121.272, 108.471 121.036, 107.417 121.079 C 106.252 121.127, 106.015 121.364, 106.813 121.683 M 124.607 126.582 C 123.693 128.964, 123.736 129, 127.508 129 C 130.767 129, 130.928 128.857, 129.768 127 C 128.273 124.606, 125.453 124.378, 124.607 126.582 M 48.517 133.250 C 45.334 136.688, 40.369 142.014, 37.484 145.088 C 29.535 153.554, 29.300 157.215, 36.617 158.588 C 41.559 159.515, 44.821 157.756, 52.166 150.201 C 59.772 142.378, 61.755 137.519, 60.001 131.003 C 58.388 125.013, 55.647 125.550, 48.517 133.250" stroke="none" fill="black" fill-rule="evenodd"/>
</svg>