<svg xmlns="http://www.w3.org/2000/svg" width="256" height="256" viewBox="0 0 256 256" version="1.1">
	<path d="M 86.988 31.005 C 83.512 32.393, 82.214 34.857, 81.094 42.190 C 79.925 49.851, 80.350 66.507, 81.807 70.139 C 82.656 72.255, 82.482 73.495, 80.933 76.386 C 78.130 81.615, 78.164 97.117, 80.989 101.750 C 82.079 103.537, 83.652 105, 84.485 105 C 85.434 105, 86 105.934, 86 107.500 C 86 108.875, 85.559 110, 85.020 110 C 84.482 110, 83.152 111.742, 82.066 113.871 C 79.692 118.524, 80.668 120.414, 85.948 121.391 C 90.506 122.235, 94 124.611, 94 126.868 C 94 127.870, 94.904 129.508, 96.009 130.508 C 98.522 132.782, 100.459 139.034, 99.650 142.258 C 99.140 144.291, 97.755 145.078, 91.339 146.983 C 83.301 149.369, 79 152.484, 79 155.919 C 79 158.945, 82.039 160, 90.753 160 C 101.640 160, 108.041 157.920, 112.983 152.777 L 116.966 148.632 126.733 152.375 C 132.105 154.434, 140.004 156.636, 144.287 157.268 C 151.075 158.271, 152.422 158.208, 154.787 156.781 C 158.422 154.587, 158.890 150.629, 155.756 148.576 C 153.479 147.084, 143.866 143.432, 139.281 142.318 C 133.051 140.804, 134.850 134.147, 143.895 125.243 C 148.841 120.373, 149.196 119.726, 148.165 117.463 C 146.504 113.818, 141.230 111.011, 136 110.988 C 133.525 110.978, 130.860 110.564, 130.078 110.069 C 128.082 108.806, 134.637 107.338, 143.417 107.081 C 150.192 106.883, 154.521 105.487, 156.773 102.773 C 157.565 101.820, 157.666 98.387, 157.113 91.253 C 156.443 82.599, 155.917 80.473, 153.569 76.926 C 151.427 73.688, 150.987 72.174, 151.595 70.130 C 152.877 65.823, 152.229 39.250, 150.768 36.201 C 148.396 31.254, 146.034 30.853, 116.676 30.411 C 99.840 30.158, 88.544 30.384, 86.988 31.005 M 38.500 33.325 C 33.970 35.391, 32.492 37.589, 33.759 40.371 C 35.144 43.411, 39.493 45.376, 50.741 48.048 C 59.467 50.120, 60.124 50.149, 62.540 48.565 C 65.267 46.779, 65.234 44.788, 62.403 40.296 C 58.632 34.311, 45.032 30.345, 38.500 33.325 M 93.967 44.540 C 92.979 45.730, 92.898 48.238, 93.609 55.579 C 94.297 62.691, 94.220 65.634, 93.300 67.289 C 91.698 70.171, 91.674 73.678, 93.250 74.666 C 93.938 75.097, 97.425 75.373, 101 75.280 C 104.575 75.187, 108.988 75.507, 110.807 75.991 C 113.036 76.584, 115.545 76.439, 118.504 75.549 C 120.919 74.822, 123.143 74.476, 123.447 74.780 C 123.751 75.085, 124 74.808, 124 74.167 C 124 73.525, 123.070 73, 121.934 73 C 120.798 73, 118.950 72.509, 117.828 71.908 C 116.355 71.120, 114.585 71.119, 111.466 71.904 C 106.724 73.098, 104 72.547, 104 70.393 C 104 69.627, 103.550 69, 103 69 C 101.842 69, 101.635 63.698, 102.750 62.583 C 103.162 62.171, 103.553 59.764, 103.617 57.234 C 103.791 50.381, 105.653 49.295, 116.607 49.652 C 127.171 49.997, 130.817 51.269, 131.582 54.877 C 132.607 59.710, 133.943 62, 135.729 61.985 C 136.792 61.975, 137.071 61.676, 136.427 61.235 C 135.529 60.619, 135.185 55.049, 135.996 54.250 C 136.136 54.112, 136.345 53.663, 136.461 53.250 C 136.578 52.837, 136.936 51.825, 137.257 51 C 138.577 47.612, 138.687 46.416, 137.830 44.750 C 137.016 43.168, 134.928 43, 116.087 43 C 98.541 43, 95.043 43.244, 93.967 44.540 M 37.301 67.735 C 31.807 68.122, 30.175 69.824, 31.449 73.840 C 32.177 76.132, 34.003 76.989, 46.500 80.900 C 60.959 85.425, 62.959 85.076, 63.294 77.972 L 63.500 73.618 57.163 70.309 C 50.677 66.923, 50.039 66.840, 37.301 67.735 M 130.500 71 C 129.505 72.100, 127.860 73, 126.845 73 C 125.830 73, 125 73.450, 125 74 C 125 74.550, 125.338 74.918, 125.750 74.818 C 126.162 74.718, 128.372 75.227, 130.659 75.949 C 134.705 77.226, 138.062 76.954, 140.880 75.119 C 142.023 74.376, 141.937 73.778, 140.380 71.642 C 138.025 68.412, 133.130 68.094, 130.500 71 M 91.674 85.469 C 90.753 86.390, 90 87.911, 90 88.849 C 90 91.166, 93.520 94.018, 96.261 93.921 C 97.607 93.874, 97.945 93.622, 97.108 93.290 C 96.193 92.928, 96.793 92.286, 98.858 91.418 C 103.841 89.323, 102.695 85.312, 96.843 84.362 C 94.333 83.955, 92.876 84.267, 91.674 85.469 M 111.250 84.706 C 108.029 85.326, 108.410 88.419, 112.148 91.991 C 113.880 93.646, 115.643 95, 116.067 95 C 117.892 95, 119.944 93.718, 119.435 92.895 C 119.131 92.403, 119.246 91.993, 119.691 91.985 C 124.337 91.897, 122.688 85.588, 117.761 84.602 C 116.105 84.271, 114.469 84.061, 114.125 84.136 C 113.781 84.211, 112.487 84.467, 111.250 84.706 M 133.306 87.568 C 131.428 89.286, 130.914 90.306, 131.750 90.651 C 132.438 90.935, 133.014 91.692, 133.031 92.333 C 133.049 92.975, 134.224 94.347, 135.644 95.382 C 138.049 97.135, 138.450 97.156, 141.527 95.688 C 146.298 93.413, 147.005 90.215, 143.378 87.313 C 139.640 84.322, 136.773 84.395, 133.306 87.568 M 97.502 105.832 C 97.134 106.199, 95.971 106.556, 94.917 106.625 C 91.062 106.876, 90.888 107.031, 92.568 108.711 C 93.866 110.009, 96.354 110.485, 102.889 110.688 C 107.625 110.834, 113.075 111.031, 115 111.125 C 118.519 111.297, 122.814 110.520, 123.802 109.531 C 124.094 109.239, 123.385 109, 122.226 109 C 121.066 109, 119.840 108.550, 119.500 108 C 118.686 106.682, 114.296 106.713, 113.474 108.042 C 112.768 109.185, 104 109.064, 104 107.911 C 104 106.870, 98.291 105.043, 97.502 105.832 M 112.500 124.250 C 107.368 127.457, 111.951 132.792, 118.746 131.523 C 120.811 131.137, 123.063 130.356, 123.750 129.788 C 125.574 128.281, 125.277 125.216, 123.250 124.621 C 118.580 123.249, 114.337 123.103, 112.500 124.250 M 55.359 132.497 C 52.687 134.420, 49.375 136.771, 48 137.722 C 41.984 141.879, 35.060 148.476, 33.352 151.678 C 31.503 155.147, 31.503 155.154, 33.861 157.076 C 36.771 159.448, 38.397 159.458, 43.500 157.136 C 47.492 155.319, 62.986 143.437, 63.016 142.169 C 63.025 141.801, 64.375 139.977, 66.016 138.114 C 73.443 129.688, 65.257 125.374, 55.359 132.497" stroke="none" fill="black" fill-rule="evenodd"/>
</svg>