<svg xmlns="http://www.w3.org/2000/svg" width="256" height="256" viewBox="0 0 256 256" version="1.1">
	<path d="M 95.142 33.547 C 94.040 34.948, 92.824 37.526, 92.439 39.277 C 92.055 41.028, 90.336 44.364, 88.620 46.689 C 86.904 49.015, 84.375 52.543, 83 54.528 C 81.625 56.513, 79.564 59.344, 78.420 60.819 C 77.275 62.294, 75.613 65.748, 74.726 68.495 C 73.206 73.203, 73.217 73.606, 74.921 75.495 C 77.141 77.956, 82.407 87, 81.620 87 C 81.306 87, 81.551 88.237, 82.163 89.750 C 82.776 91.263, 83.383 96.688, 83.512 101.806 C 83.801 113.266, 85.779 118.473, 90.387 119.899 C 92.099 120.429, 97.775 121.165, 103 121.533 C 108.225 121.902, 114.525 122.628, 117 123.146 C 119.475 123.664, 122.063 124.144, 122.750 124.211 C 125.252 124.456, 123.909 126.567, 120.250 128.140 C 117.465 129.338, 114.562 129.626, 108.970 129.259 C 99.090 128.611, 98.021 129.628, 99.963 137.831 C 100.701 140.949, 101.501 146.086, 101.741 149.247 C 102.096 153.921, 102.653 155.368, 104.724 156.997 C 107.967 159.548, 111.451 159.549, 114 157 C 116.378 154.622, 116.515 152.169, 114.537 147.434 C 112.937 143.605, 114.084 139, 116.637 139 C 119.013 139, 121.714 144.288, 121.923 149.349 C 122.062 152.684, 127.773 157, 132.049 157 C 138.686 157, 140.356 151.366, 135.358 145.843 C 134.018 144.363, 134.034 143.836, 135.500 141.001 C 136.902 138.289, 137.531 137.916, 139.763 138.477 C 142.849 139.251, 145.348 141.898, 146.889 146.025 C 147.500 147.661, 148.469 150.264, 149.042 151.809 C 150.852 156.688, 158.802 159.798, 161.800 156.800 C 163.929 154.671, 163.113 149.094, 159.809 143.196 C 158.054 140.063, 155.785 135.794, 154.766 133.709 C 152.429 128.927, 147.627 125.811, 144.453 127.018 C 134.108 130.951, 118.204 127.058, 128.015 122.994 C 131.175 121.685, 141.875 122.327, 145.030 124.016 C 147.264 125.212, 152.824 121.722, 153.369 118.781 C 155.304 108.328, 155.686 103.294, 155.136 95.500 C 154.786 90.550, 154.919 83.174, 155.431 79.110 L 156.362 71.720 152.559 68.234 C 148.858 64.843, 148.589 64.765, 142.628 65.360 C 136.141 66.008, 134.961 65.656, 133.277 62.575 C 132.502 61.158, 132.631 59.556, 133.764 56.498 C 136.829 48.229, 133.592 44.732, 121.913 43.692 C 113.490 42.942, 110.260 41.460, 109.499 37.997 C 107.963 31.002, 99.264 28.306, 95.142 33.547 M 40.250 33.584 C 37.635 34.728, 37 35.584, 37 37.968 C 37 41.606, 38.418 42.435, 48.101 44.455 C 58.053 46.531, 63.279 46.454, 65.318 44.201 C 66.822 42.539, 66.815 42.142, 65.223 38.951 C 62.826 34.149, 58.028 31.984, 50 32.083 C 46.425 32.127, 42.038 32.803, 40.250 33.584 M 101.115 57.893 C 98.352 60.473, 97.985 61.277, 99.004 62.505 C 99.983 63.685, 101.711 63.861, 107.369 63.359 C 115.148 62.669, 118 61.657, 118 59.587 C 118 57.278, 115.334 55.890, 109.799 55.319 C 104.843 54.807, 104.220 54.992, 101.115 57.893 M 38.250 67.119 C 35.910 67.794, 35 68.647, 35 70.161 C 35 72.589, 38.311 75.789, 41.703 76.640 C 42.986 76.962, 47.013 78.750, 50.650 80.613 C 54.288 82.476, 58.275 84, 59.510 84 C 61.733 84, 64.461 81.794, 63.467 80.800 C 63.184 80.517, 63.638 79.716, 64.476 79.020 C 65.314 78.324, 66 76.754, 66 75.531 C 66 73.784, 64.476 72.524, 58.897 69.654 C 51.391 65.792, 45.394 65.056, 38.250 67.119 M 96.466 79.444 C 93.352 82.330, 93.766 85.117, 97.566 86.848 C 100.711 88.281, 110.469 88.355, 113.066 86.965 C 115.399 85.716, 115.568 82.256, 113.443 79.223 C 112.111 77.320, 110.966 77, 105.495 77 C 100.102 77, 98.691 77.382, 96.466 79.444 M 130.228 78.256 C 127.669 79.461, 126.207 83.607, 127.786 85.186 C 129.166 86.566, 137.160 87.318, 138.773 86.220 C 140.789 84.848, 141.008 81.311, 139.176 79.722 C 136.788 77.651, 132.875 77.010, 130.228 78.256 M 96.554 100.337 C 95.059 101.430, 94.901 102.203, 95.689 104.568 C 96.919 108.256, 102.333 109.816, 108.004 108.117 C 112.144 106.877, 114.098 103.028, 111.921 100.404 C 110.385 98.554, 99.060 98.504, 96.554 100.337 M 128.228 100.230 C 124.750 101.906, 124.192 105.861, 127.107 108.177 C 131.580 111.732, 143 108.677, 143 103.926 C 143 100.115, 133.433 97.722, 128.228 100.230 M 81.954 131.250 C 78.595 134.809, 77.286 138.044, 76.530 144.653 C 75.669 152.183, 76.858 155, 80.900 155 C 84.337 155, 88.560 151.870, 89.303 148.773 C 90.072 145.566, 93 132.537, 93 132.322 C 93 132.223, 92.293 131.436, 91.429 130.571 C 89.135 128.278, 84.442 128.614, 81.954 131.250 M 55.500 131.652 C 53.850 132.517, 50.475 135.119, 48 137.434 C 45.525 139.750, 41.135 143.568, 38.245 145.920 C 29.872 152.731, 30.219 158.515, 38.979 158.172 C 50.770 157.710, 67.747 140.325, 64.140 132.407 C 62.855 129.588, 59.927 129.332, 55.500 131.652" stroke="none" fill="black" fill-rule="evenodd"/>
</svg>