<svg xmlns="http://www.w3.org/2000/svg" width="256" height="256" viewBox="0 0 256 256" version="1.1">
	<path d="M 92.484 29.750 C 76.195 39.302, 73.524 41.310, 73.184 44.257 L 72.867 47 81.811 47 C 92.161 47, 93.134 47.629, 93.967 54.863 C 94.475 59.286, 94.747 59.627, 99.842 62.252 C 105.649 65.245, 109.499 69.073, 107.774 70.140 C 107.200 70.495, 103.699 70.561, 99.996 70.288 C 92.641 69.745, 85.855 71.909, 81.201 76.281 C 79.152 78.206, 78.956 79.048, 79.553 83.385 C 80.476 90.099, 82.656 94.985, 84.763 95.068 C 85.719 95.106, 90.134 95.080, 94.576 95.011 C 103.499 94.871, 107.249 96.057, 108.825 99.516 C 109.752 101.549, 109.529 101.952, 106.877 103.051 C 104.581 104.002, 102.671 104.031, 98.691 103.176 C 88.040 100.888, 86.443 100.853, 84.625 102.862 C 83.684 103.902, 82.670 106.270, 82.370 108.126 C 81.937 110.813, 82.309 111.953, 84.199 113.724 C 86.390 115.776, 86.992 115.866, 92.036 114.895 C 103.432 112.702, 105.413 112.694, 107.350 114.834 C 108.802 116.439, 108.939 117.245, 108.045 118.917 C 107.174 120.543, 105.965 121, 102.530 121 C 100.110 121, 96.863 120.496, 95.315 119.879 C 93.767 119.263, 91.375 118.590, 90 118.384 C 87.098 117.948, 76.096 122.703, 74.228 125.201 C 71.029 129.477, 69.875 130.008, 64.175 129.824 C 56.222 129.568, 50.584 133.273, 41.746 144.562 C 34.296 154.079, 35.700 156.882, 46.384 153.820 C 50.368 152.679, 63 144.364, 63 142.884 C 63 142.482, 64.165 140.769, 65.589 139.077 C 67.814 136.432, 68.848 136, 72.954 136 C 76.216 136, 78.536 135.366, 80.273 134 C 84.495 130.679, 92.265 131.468, 95.262 135.524 C 96.988 137.860, 96.958 137.978, 93.769 141.454 C 91.978 143.404, 90.018 145, 89.412 145 C 87.386 145, 85.102 148.511, 84.441 152.641 C 83.847 156.357, 84.002 156.784, 86.144 157.319 C 88.969 158.025, 94.370 156.903, 98.531 154.746 C 101.912 152.994, 109.057 145.401, 113.240 139.117 C 115.269 136.070, 116.650 135, 118.556 135 C 122.715 135, 124.771 136.701, 125.491 140.737 C 126.001 143.593, 127.260 145.382, 130.714 148.157 C 136.632 152.913, 142.433 154.547, 149.274 153.387 C 153.936 152.596, 154.500 152.232, 154.500 150.013 C 154.500 148.257, 153.650 147.120, 151.605 146.139 C 150.012 145.376, 147.106 143.008, 145.146 140.876 C 143.186 138.744, 140.946 137, 140.169 137 C 139.026 137, 138.993 136.713, 140 135.500 C 140.685 134.675, 140.852 133.986, 140.372 133.970 C 138.443 133.902, 143.373 131.793, 148.710 130.403 C 155.215 128.709, 156.776 127.688, 156.604 125.241 C 156.372 121.941, 154.482 120.365, 148.554 118.531 L 142.608 116.691 145.929 113.918 C 149.978 110.538, 150.373 106.530, 146.931 103.743 C 144.934 102.126, 143.604 101.960, 137.333 102.548 C 128.489 103.377, 125 102.667, 125 100.040 C 125 98.983, 125.547 97.780, 126.215 97.367 C 127.430 96.616, 138.728 96.580, 142.500 97.316 C 145.532 97.907, 149.779 96.097, 152.006 93.265 C 154.201 90.474, 154.804 81.371, 153.015 78.028 C 151.044 74.346, 142.958 70.734, 136.214 70.524 C 128.234 70.275, 126.222 68.641, 131.291 66.523 C 133.296 65.685, 135.339 65, 135.832 65 C 136.324 65, 137.955 63.773, 139.455 62.272 C 141.754 59.973, 142.091 58.968, 141.596 55.877 C 140.723 50.413, 143.408 47.512, 149.127 47.740 C 154.025 47.935, 158 45.879, 158 43.151 C 158 40.581, 154.093 37.336, 150 36.507 C 148.075 36.117, 144.436 34.493, 141.912 32.899 C 136.462 29.455, 134.371 29.325, 128.366 32.061 C 124.191 33.963, 120.348 34.372, 109.388 34.082 C 107.529 34.033, 104.754 32.791, 102.500 31 C 98.138 27.533, 96.593 27.341, 92.484 29.750 M 42.485 32.754 C 37.073 35.108, 36 35.884, 36 37.448 C 36 40.521, 39.689 43.196, 45.909 44.633 C 49.406 45.441, 54.436 47.201, 57.087 48.544 C 60.965 50.509, 62.418 50.792, 64.528 49.989 C 69.116 48.245, 71.957 44, 68.537 44 C 67.732 44, 64.143 41.259, 60.561 37.908 C 53.077 30.908, 49.245 29.815, 42.485 32.754 M 113 51.631 C 113 52.950, 113.700 53.148, 116.664 52.667 C 122.518 51.717, 123.186 50, 117.700 50 C 114.021 50, 113 50.354, 113 51.631 M 38.500 66.892 C 35.282 67.381, 34.435 67.959, 34.168 69.848 C 33.667 73.387, 37.567 76.786, 44.632 78.968 C 48.068 80.029, 52.688 81.821, 54.900 82.949 C 59.955 85.528, 62.054 85.530, 64.811 82.961 C 68.894 79.158, 66.858 74.212, 59.863 70.936 C 57.153 69.667, 54.446 68.037, 53.846 67.314 C 52.713 65.949, 45.931 65.762, 38.500 66.892 M 100.166 80.482 C 96.242 82.644, 95.729 83.586, 97.507 85.364 C 98.407 86.264, 100.011 87.056, 101.071 87.125 C 102.132 87.194, 103.563 87.330, 104.250 87.427 C 106.516 87.748, 110 85.709, 110 84.062 C 110 81.989, 106.496 78.971, 104.239 79.098 C 103.282 79.152, 101.450 79.775, 100.166 80.482 M 125.713 81.621 C 124.315 83.018, 125.009 86, 126.750 86.077 C 127.713 86.119, 129.400 86.329, 130.500 86.544 C 133.935 87.215, 136.143 86.017, 135.808 83.664 C 135.552 81.862, 134.741 81.450, 130.963 81.204 C 128.467 81.041, 126.105 81.229, 125.713 81.621 M 127.352 114.993 C 126.171 115.470, 124.921 116.319, 124.574 116.880 C 123.267 118.996, 131.472 121.195, 133.417 119.250 C 133.829 118.838, 134.579 118.444, 135.083 118.375 C 135.588 118.306, 136.450 118.194, 137 118.125 C 138.595 117.926, 138.156 115.274, 136.418 114.607 C 134.238 113.770, 129.929 113.954, 127.352 114.993" stroke="none" fill="black" fill-rule="evenodd"/>
</svg>