<svg xmlns="http://www.w3.org/2000/svg" width="256" height="256" viewBox="0 0 256 256" version="1.1">
	<path d="M 92.536 30.961 C 91.246 32.385, 90.930 33.820, 91.377 36.211 C 93.207 45.989, 93.200 46.466, 91.193 48.591 C 89.488 50.396, 87.613 50.768, 77.500 51.310 C 68.422 51.797, 65.170 51.622, 63.068 50.535 C 58.102 47.967, 57.541 46.583, 59 40.500 C 60.463 34.401, 59.765 32.660, 55.421 31.569 C 52.297 30.785, 46.290 33.511, 45.474 36.083 C 45.144 37.123, 45.178 40.005, 45.550 42.488 C 46.045 45.789, 45.770 47.964, 44.527 50.585 C 42.150 55.593, 43.193 57.970, 49.511 61.949 C 55.869 65.952, 58.906 66.566, 64.545 64.987 C 67.680 64.110, 70.121 64.140, 75.064 65.118 C 79.009 65.898, 92.141 66.519, 109 66.721 C 124.125 66.903, 137.978 67.071, 139.784 67.094 C 145.427 67.168, 148.926 64.971, 150.101 60.616 C 150.678 58.479, 150.869 55.615, 150.527 54.250 C 150.184 52.886, 149.894 48.668, 149.882 44.878 C 149.864 38.991, 149.493 37.551, 147.341 34.994 C 144.311 31.393, 142.015 31.223, 138.400 34.333 C 135.898 36.485, 135.777 36.922, 136.844 39.982 C 138.554 44.888, 138.279 46.812, 135.463 49.628 C 132.983 52.108, 132.649 52.158, 120.872 51.833 C 109.413 51.516, 108.719 51.377, 106.797 49 C 105.051 46.841, 104.864 45.629, 105.430 40.110 C 106.016 34.385, 105.853 33.473, 103.868 31.359 C 101.023 28.331, 95.104 28.123, 92.536 30.961 M 51.153 74.139 C 46.653 75.804, 42.792 91.239, 43.975 102.840 C 44.809 111.028, 44.004 115.975, 38.986 133.500 C 34.370 149.622, 33.835 153.771, 36.162 155.401 C 38.635 157.133, 42.328 156.345, 44.984 153.517 C 46.163 152.262, 48.427 147.020, 50.016 141.868 C 51.605 136.716, 53.626 130.510, 54.507 128.079 C 55.595 125.075, 56.260 118.864, 56.580 108.715 C 56.839 100.497, 57.486 92.960, 58.018 91.967 C 60.091 88.092, 70.416 87.080, 92.755 88.560 C 106.008 89.439, 106.942 90.030, 104.960 96.282 C 104.224 98.602, 103.547 102.325, 103.454 104.556 C 103.148 111.901, 101.930 117.468, 100.160 119.603 C 98.134 122.048, 94.519 124.152, 92.739 123.923 C 88.621 123.392, 88.183 123.883, 89.200 127.892 C 90.683 133.733, 88.439 136.568, 81.171 138.037 C 75.138 139.256, 72.172 140.777, 67.750 144.918 C 64.236 148.209, 64.195 151.922, 67.636 155.364 C 70.773 158.501, 72.716 158.634, 78.305 156.093 C 80.612 155.045, 84.975 153.085, 88 151.738 C 92.879 149.565, 98.638 145, 96.500 145 C 96.055 145, 96.547 144.047, 97.595 142.881 C 99.760 140.474, 111.096 135, 113.917 135 C 114.944 135, 117.970 136.961, 120.642 139.359 C 123.314 141.756, 127.300 144.657, 129.500 145.806 C 131.700 146.955, 135.525 149.268, 138 150.945 C 144.717 155.496, 151.579 157.563, 154.602 155.945 C 156.504 154.927, 157 153.855, 157 150.757 C 157 147.450, 156.271 146.102, 152.250 141.964 C 148.553 138.160, 145.960 136.553, 140.556 134.718 C 135.054 132.851, 133.298 131.748, 132.104 129.407 C 130.691 126.639, 123.581 122, 120.752 122 C 117.866 122, 116.752 117.723, 116.801 106.828 C 116.828 100.886, 116.434 95.768, 115.925 95.454 C 115.416 95.139, 115 93.717, 115 92.293 L 115 89.704 123.175 90.334 C 128.773 90.766, 133.106 90.525, 136.925 89.569 C 139.991 88.801, 144.975 87.906, 148 87.580 C 156.706 86.639, 160.128 81.141, 154.933 76.439 C 152.748 74.462, 141.259 72.990, 137.850 74.251 C 136.598 74.714, 126.108 74.851, 114.537 74.554 C 72.773 73.484, 53.269 73.356, 51.153 74.139 M 133.732 103.194 C 133.472 103.912, 133.876 106.016, 134.629 107.870 C 135.806 110.768, 135.784 111.869, 134.470 115.739 C 133.051 119.919, 133.069 120.333, 134.721 121.587 C 136.883 123.227, 137.600 123.285, 139.984 122.008 C 142.194 120.826, 143.600 115.428, 142.152 113.684 C 141.589 113.005, 140.987 110.211, 140.814 107.475 C 140.513 102.705, 140.371 102.487, 137.352 102.194 C 135.433 102.008, 134.019 102.398, 133.732 103.194 M 75.200 105.200 C 74.540 105.860, 74 108.513, 74 111.096 C 74 115.206, 74.434 116.174, 77.479 118.847 C 80.466 121.470, 87.380 124.008, 88.437 122.870 C 89.006 122.258, 84.301 109.109, 82.567 106.461 C 80.836 103.820, 77.202 103.198, 75.200 105.200" stroke="none" fill="black" fill-rule="evenodd"/>
</svg>