<svg xmlns="http://www.w3.org/2000/svg" width="256" height="256" viewBox="0 0 256 256" version="1.1">
	<path d="M 53.059 34.941 C 51.726 36.274, 50.992 38.322, 50.976 40.750 C 50.963 42.813, 50.518 46.300, 49.987 48.500 C 49.104 52.154, 48.803 54.046, 47.573 63.658 C 46.627 71.054, 42.767 72.902, 41.572 66.532 C 40.217 59.308, 33.646 55.497, 29.571 59.571 C 27.870 61.273, 27.430 66.530, 28.913 67.446 C 29.415 67.757, 30.121 69.755, 30.481 71.887 C 30.848 74.059, 32.950 78.235, 35.260 81.382 C 38.558 85.874, 39.943 87, 42.169 87 C 44.034 87, 45.493 87.824, 46.587 89.492 C 49.186 93.459, 46.859 103.791, 41.631 111.500 C 36.198 119.511, 35.004 120.711, 31.626 121.558 L 28.752 122.279 29.417 128.769 C 30.101 135.446, 31.798 139.794, 35.106 143.344 C 36.148 144.462, 37 145.742, 37 146.189 C 37 147.811, 41.600 146.948, 43.255 145.015 C 45.021 142.953, 45.560 141.210, 46.500 134.534 C 46.807 132.352, 48.057 129.453, 49.279 128.092 C 55.117 121.586, 55.952 121, 59.387 121 C 62.652 121, 63.723 122.047, 64.500 126 C 65.427 130.716, 72.846 135.818, 76.903 134.531 C 80.906 133.260, 80.730 122.979, 76.669 120.842 C 75.476 120.214, 74.245 119.312, 73.932 118.836 C 73.620 118.361, 71.108 117.921, 68.349 117.859 C 65.430 117.793, 63.297 117.277, 63.247 116.623 C 63.199 116.005, 62.905 114.600, 62.594 113.500 C 59.698 103.285, 59.067 100.359, 59.477 99.035 C 59.739 98.191, 60.229 95.700, 60.567 93.500 C 60.905 91.300, 61.843 88.759, 62.652 87.853 C 64.273 86.038, 71.239 84, 75.820 84 C 79.464 84, 80.552 82.608, 80.900 77.500 C 81.050 75.300, 82.034 70.927, 83.086 67.782 C 85.306 61.149, 85.435 59.049, 83.839 55.547 C 81.316 50.008, 74.030 53.498, 71.927 61.252 C 69.880 68.803, 68.823 70.921, 66.781 71.570 C 65.628 71.935, 64.221 71.631, 63.468 70.853 C 60.698 67.991, 60.052 54.165, 62.175 43.176 C 63.614 35.725, 62.790 33.649, 58.208 33.191 C 56.119 32.982, 54.451 33.549, 53.059 34.941 M 100.500 35.928 C 95 36.250, 89.934 36.876, 89.243 37.320 C 87.294 38.571, 84.950 43.706, 85.579 45.345 C 86.635 48.097, 91.476 48.908, 110.500 49.520 C 147.720 50.718, 152.278 50.605, 156.076 48.395 C 160.194 45.998, 160.972 42.419, 158.134 38.922 C 156.256 36.608, 155.616 36.495, 143.834 36.395 C 137.050 36.337, 126.775 36.077, 121 35.816 C 115.225 35.556, 106 35.607, 100.500 35.928 M 114 60.684 C 102.543 61.339, 102.093 61.556, 99.238 67.791 C 97.459 71.677, 96.673 75.039, 96.738 78.480 C 96.791 81.241, 96.860 88.225, 96.891 94 C 96.923 100.025, 97.598 106.971, 98.474 110.299 C 99.313 113.488, 100 117.665, 100 119.581 C 100 123.815, 102.037 128.889, 104.681 131.241 C 106.399 132.769, 109.107 132.990, 126.786 133.045 C 139.004 133.082, 147.701 132.695, 148.885 132.061 C 151.865 130.467, 152.300 126.546, 152.500 99.500 L 152.684 74.500 150.165 70.690 C 148.779 68.595, 146.783 66.419, 145.730 65.856 C 141.712 63.705, 127.326 60.049, 123.500 60.206 C 121.300 60.296, 117.025 60.511, 114 60.684 M 114.302 75.018 C 111.877 75.988, 109 80.795, 109 83.878 C 109 84.965, 110.237 86.838, 111.750 88.039 C 114.159 89.952, 115.333 90.154, 121.219 89.672 C 124.914 89.369, 129.327 89.520, 131.026 90.007 C 136.328 91.528, 137.909 89.969, 138.636 82.500 C 139.247 76.228, 137.973 75.413, 126.500 74.732 C 121 74.406, 115.511 74.535, 114.302 75.018 M 111.923 105.923 C 109.767 108.080, 109 109.798, 109 112.474 C 109 117.701, 112.498 118.941, 126.317 118.615 C 135.539 118.398, 137.216 118.096, 138.475 116.431 C 140.241 114.097, 140.276 113.534, 138.951 108.762 C 137.747 104.428, 135.705 103.112, 131.500 103.959 C 129.850 104.291, 126.475 104.239, 124 103.841 C 116.436 102.628, 114.965 102.881, 111.923 105.923 M 85.940 142.218 C 82.299 143.565, 84.431 152.171, 88.815 153.823 C 92.018 155.029, 104.379 155.466, 135.839 155.486 C 159.168 155.500, 159.179 155.499, 161.089 153.139 C 162.140 151.841, 163 149.758, 163 148.512 C 163 143.898, 161.277 143.548, 134.600 142.739 C 94.593 141.527, 88 141.456, 85.940 142.218" stroke="none" fill="black" fill-rule="evenodd"/>
</svg>