<svg xmlns="http://www.w3.org/2000/svg" width="256" height="256" viewBox="0 0 256 256" version="1.1">
	<path d="M 61.875 29.900 C 60.046 31.381, 59.553 32.721, 59.638 35.974 C 59.698 38.269, 60.254 40.654, 60.874 41.274 C 62.939 43.339, 62.175 47.655, 59.426 49.457 C 57.360 50.810, 55.595 51.009, 50.490 50.462 C 44.546 49.825, 43.960 49.949, 41.564 52.345 C 38.440 55.469, 38.359 56.935, 41.147 59.928 C 43.176 62.105, 43.744 62.192, 51.397 61.493 C 59.251 60.777, 67.404 60.755, 73.427 61.434 C 79.124 62.076, 80.843 68.467, 76.530 72.969 C 75.171 74.387, 72.527 78.687, 70.654 82.524 C 66.860 90.297, 58.860 100.592, 55.877 101.539 C 54.809 101.878, 50.350 105.646, 45.968 109.912 C 39.062 116.634, 38.002 118.124, 38.014 121.084 C 38.038 127.096, 38.918 128.659, 42.963 129.871 C 45.053 130.497, 47.239 131.584, 47.822 132.286 C 49.593 134.419, 49.955 138.890, 48.817 144.559 C 47.899 149.126, 47.987 150.331, 49.390 152.473 C 53.260 158.379, 62.114 152.790, 61.044 145.117 C 60.938 144.356, 62.122 140.424, 63.676 136.379 C 66.175 129.870, 66.798 129.023, 69.089 129.012 C 72.279 128.997, 73.530 131.453, 75.061 140.738 C 76.883 151.781, 76.980 152.077, 79.537 154.447 C 82.630 157.313, 86.754 156.776, 88.061 153.338 C 88.563 152.019, 88.704 146.790, 88.375 141.719 C 87.898 134.378, 87.290 131.741, 85.388 128.771 C 84.075 126.721, 83 124.621, 83 124.105 C 83 123.589, 82.438 122.965, 81.750 122.718 C 79.733 121.994, 84.801 118.131, 89.387 116.896 C 92.629 116.023, 94.630 116.125, 99.214 117.400 C 102.380 118.280, 107.700 119, 111.036 119 C 117.013 119, 117.123 119.051, 118.551 122.468 C 119.348 124.375, 120 127.905, 120 130.313 C 120 135.257, 121.420 137.024, 127.399 139.522 C 130.982 141.019, 131.182 141.325, 130.537 144.311 C 128.842 152.155, 128.890 152.716, 131.520 155.841 C 134.908 159.868, 139.750 160.851, 143.956 158.367 C 146.488 156.871, 147.421 155.257, 149.069 149.519 C 150.178 145.658, 152.447 139.350, 154.110 135.500 C 156.080 130.942, 157.333 126.058, 157.703 121.500 C 158.016 117.650, 158.700 113.956, 159.224 113.291 C 160.503 111.668, 159.297 106.578, 157.179 104.662 C 156.239 103.811, 153.499 102.673, 151.090 102.131 C 148.680 101.590, 146.316 100.552, 145.836 99.824 C 145.356 99.096, 145.050 95.350, 145.157 91.500 C 145.415 82.225, 144.854 80.942, 139.257 78 L 134.500 75.500 134.413 69.500 C 134.325 63.412, 131.468 55.025, 128.952 53.471 C 128.251 53.037, 122.695 52.111, 116.605 51.412 C 102.847 49.832, 101.584 48.797, 102.588 39.924 C 103.189 34.615, 103.034 33.943, 100.666 31.575 C 94.955 25.864, 89.402 30.418, 91.100 39.419 C 92.223 45.369, 89.694 50.205, 84.834 51.406 C 77.285 53.271, 71.071 47.725, 73.036 40.875 C 74.549 35.599, 74.192 33.101, 71.545 30.455 C 68.605 27.514, 65.072 27.312, 61.875 29.900 M 97.650 67.844 C 96.151 69.408, 94.661 72.317, 94.337 74.308 C 93.814 77.531, 94.045 78.063, 96.435 79.152 C 98.534 80.109, 100.378 80.115, 104.890 79.184 C 108.064 78.528, 112.667 78.267, 115.119 78.603 C 120.550 79.347, 122.523 77.656, 121.524 73.110 C 120.668 69.213, 119.361 68.245, 112.570 66.476 C 103.998 64.244, 100.820 64.535, 97.650 67.844 M 93.414 92.019 C 85.795 92.649, 75 97.029, 75 99.490 C 75 100.229, 74.481 101.006, 73.846 101.218 C 73.211 101.430, 78.550 102.151, 85.710 102.822 C 92.870 103.493, 99.382 103.791, 100.181 103.484 C 100.980 103.178, 106.553 102.779, 112.567 102.597 C 132.347 102.001, 130.753 102.253, 130.620 99.750 C 130.442 96.413, 126.119 93.009, 122 92.964 C 117.608 92.915, 102.840 91.980, 101.500 91.667 C 100.950 91.538, 97.311 91.696, 93.414 92.019 M 66.500 114.995 C 65.400 115.473, 63.155 116.973, 61.511 118.328 L 58.522 120.793 62.457 124.396 C 64.620 126.378, 67.243 128, 68.286 128 C 70.587 128, 77.949 122.952, 77.979 121.354 C 78.006 119.882, 71.316 113.980, 69.715 114.063 C 69.047 114.098, 67.600 114.518, 66.500 114.995 M 131.164 117.540 C 130.240 119.567, 130.326 120.830, 131.588 123.790 C 132.458 125.830, 133.181 130.313, 133.196 133.750 C 133.210 137.188, 133.368 140, 133.546 140 C 136.856 140, 141.455 134.631, 142.434 129.623 C 142.554 129.005, 143.254 126.582, 143.989 124.237 C 145.250 120.212, 145.194 119.836, 142.988 117.487 C 139.611 113.893, 132.812 113.923, 131.164 117.540 M 98.838 126.079 C 94.551 128.278, 92.870 133.629, 95.301 137.333 C 101.517 146.803, 107.325 148.536, 109.925 141.696 C 110.813 139.360, 110.475 137.863, 107.738 132.015 C 105.957 128.210, 104.036 124.902, 103.470 124.664 C 102.903 124.426, 100.819 125.063, 98.838 126.079" stroke="none" fill="black" fill-rule="evenodd"/>
</svg>