<svg xmlns="http://www.w3.org/2000/svg" width="256" height="256" viewBox="0 0 256 256" version="1.1">
	<path d="M 60.002 27.293 C 58.628 27.988, 56.603 30.067, 55.502 31.912 C 54.401 33.757, 51.419 37.569, 48.875 40.383 C 46.332 43.197, 43.339 47.300, 42.225 49.500 C 41.111 51.700, 38.764 55.299, 37.011 57.499 C 33.140 62.355, 30.110 68.783, 29.873 72.642 C 29.458 79.404, 34.880 90.958, 39.008 92.107 C 40.378 92.489, 44.507 92.845, 48.183 92.900 C 53.881 92.985, 54.956 93.287, 55.484 94.950 C 56.196 97.194, 54.337 101.185, 50.568 105.500 C 47.306 109.235, 46.609 111.842, 47.281 117.801 C 47.930 123.560, 45.796 129.605, 39.938 138.595 C 36.381 144.055, 35.832 145.576, 36.323 148.606 C 37.151 153.707, 38.612 155, 43.543 155 C 47.316 155, 48.403 154.439, 52.421 150.421 C 54.939 147.903, 57 144.965, 57 143.893 C 57 142.820, 58.329 139.310, 59.954 136.092 C 61.578 132.874, 62.628 129.962, 62.287 129.620 C 61.946 129.279, 62.224 129, 62.906 129 C 63.681 129, 63.368 128.013, 62.073 126.365 C 59.356 122.911, 59.458 120.578, 62.500 116.589 C 63.875 114.786, 65 112.791, 65 112.156 C 65 111.520, 65.348 111, 65.773 111 C 66.198 111, 67.390 109.432, 68.422 107.515 C 69.454 105.598, 73.165 101.278, 76.667 97.915 C 80.959 93.793, 84.070 89.656, 86.205 85.228 C 87.949 81.613, 91.007 77.181, 93.003 75.379 C 94.998 73.576, 97.483 70.518, 98.525 68.584 C 100.935 64.109, 104.092 63.386, 111.089 65.706 L 116.500 67.500 116.293 73.399 C 116.046 80.443, 114.541 83.870, 107.872 92.570 C 105.106 96.180, 102.183 100.566, 101.378 102.317 C 100.572 104.067, 98.807 107.029, 97.456 108.898 C 93.190 114.799, 94.556 118.254, 101.214 118.402 C 105.851 118.505, 105.347 118.881, 114.250 108.696 C 115.213 107.595, 116 106.158, 116 105.502 C 116 104.846, 116.921 103.476, 118.047 102.458 C 119.173 101.439, 121.935 97.881, 124.185 94.553 C 129.927 86.060, 131.506 84.675, 133.810 86.114 C 134.827 86.749, 136.934 89.346, 138.491 91.884 C 148.610 108.385, 151.546 112.128, 156.182 114.441 C 159.559 116.126, 160.942 114.871, 161.206 109.881 C 161.437 105.515, 158.980 99.977, 153.736 93.045 C 149.753 87.781, 144.994 79.023, 143.581 74.355 C 142.507 70.805, 145.327 69, 151.949 69 C 155.391 69, 158.164 68.491, 158.760 67.750 C 160.595 65.469, 158.916 60.146, 155.233 56.569 C 151.760 53.196, 151.554 53.137, 144.643 53.547 C 136.140 54.051, 133.406 52.682, 132.420 47.425 C 131.885 44.571, 132.213 43.204, 134.019 40.760 C 136.651 37.200, 136.135 35.741, 131.008 32.250 C 127.376 29.776, 121.843 29.279, 120.185 31.277 C 119.593 31.990, 119.179 36.438, 119.246 41.355 C 119.380 51.110, 118.896 51.958, 113.184 51.985 C 109.509 52.002, 105.666 50.349, 106.446 49.087 C 106.723 48.640, 105.457 46.548, 103.633 44.438 L 100.317 40.602 86.691 39.905 C 71.713 39.138, 70 38.444, 70 33.144 C 70 31.095, 69.165 29.488, 67.365 28.073 C 64.310 25.670, 63.402 25.573, 60.002 27.293 M 140.250 34.745 C 136.182 36.770, 136.161 38.145, 140.150 41.137 C 141.882 42.437, 144.717 44.983, 146.449 46.796 C 149.898 50.404, 152.434 50.357, 153.607 46.662 C 154.926 42.508, 154.153 38.769, 151.376 35.871 C 148.254 32.612, 145.164 32.300, 140.250 34.745 M 64.383 51.607 C 62.669 52.440, 60.777 54.194, 60.179 55.506 C 59.133 57.801, 59.270 57.914, 63.796 58.502 C 66.383 58.838, 71.296 59.824, 74.714 60.695 C 80.476 62.162, 81.116 62.154, 83.518 60.580 C 86.228 58.804, 88.048 55.318, 87.296 53.340 C 86.249 50.585, 69.149 49.291, 64.383 51.607 M 54.446 60.348 C 50.199 62.730, 43.832 68.907, 42.078 72.346 C 38.515 79.336, 40.996 82, 51.068 82 C 53.652 82, 55.309 82.600, 56.193 83.857 C 57.695 85.989, 61.585 87.511, 64.500 87.105 C 67.611 86.672, 71.909 82, 72.604 78.297 C 73.353 74.305, 69.899 68.553, 65.023 65.672 C 63.360 64.690, 62 63.430, 62 62.872 C 62 61.380, 59.348 58.985, 57.821 59.098 C 57.095 59.152, 55.576 59.714, 54.446 60.348 M 105.625 124.639 C 105.246 125.815, 103.863 127.935, 102.552 129.350 C 99.614 132.520, 100.041 134.891, 104.634 140.914 C 107.063 144.100, 108 146.365, 108 149.053 C 108 153.875, 110.553 156.909, 115.242 157.660 C 120.486 158.500, 122.057 156.921, 121.534 151.339 C 121.048 146.149, 119.289 140.333, 117.358 137.527 C 116.611 136.443, 116 134.771, 116 133.812 C 116 131.682, 110.297 125, 108.480 125 C 107.758 125, 106.975 124.438, 106.740 123.750 C 106.493 123.025, 106.024 123.398, 105.625 124.639 M 140.500 124.778 C 137.363 125.431, 133 130.109, 133 132.819 C 133 136.494, 136.127 140.796, 144.028 147.989 C 147.948 151.558, 151.683 154.813, 152.328 155.224 C 154.513 156.614, 158.909 156.038, 159.874 154.236 C 160.973 152.181, 158.750 145.999, 156.448 144.711 C 155.651 144.265, 155 143.430, 155 142.855 C 155 142.279, 154.155 140.614, 153.122 139.154 C 152.089 137.694, 150.929 134.613, 150.544 132.308 C 150.159 130.002, 149.302 127.665, 148.639 127.115 C 146.679 125.489, 142.647 124.331, 140.500 124.778 M 75.607 131.483 C 74 132.711, 73.802 133.790, 74.298 138.600 C 75.242 147.741, 81.139 152.393, 86.777 148.443 C 90.539 145.808, 89.500 134.382, 85.298 132.179 C 81.728 130.308, 77.538 130.007, 75.607 131.483" stroke="none" fill="black" fill-rule="evenodd"/>
</svg>