<svg xmlns="http://www.w3.org/2000/svg" width="256" height="256" viewBox="0 0 256 256" version="1.1">
	<path d="M 56.605 29.042 C 54.700 30.715, 52.869 33.320, 52.537 34.830 C 52.205 36.341, 48.681 40.933, 44.703 45.038 C 38.987 50.937, 36.876 53.992, 34.628 59.622 C 31.492 67.478, 31.636 72.432, 35.032 73.510 C 38.001 74.452, 40.456 72.550, 46.148 64.894 C 52.821 55.920, 56.273 54.230, 59.924 58.149 L 61.927 60.298 59.463 63.226 C 56.715 66.492, 56.793 66.292, 56.556 70.666 C 56.278 75.788, 54.560 77, 47.578 77 C 44.106 77, 40.874 77.526, 40.200 78.200 C 38.597 79.803, 38.677 84.176, 40.351 86.465 C 41.566 88.127, 42.177 88.193, 46.444 87.118 C 49.052 86.462, 51.996 86.181, 52.986 86.495 C 57.942 88.069, 58.753 104.456, 54 107 C 52.989 107.541, 50.084 107.699, 47.545 107.351 C 43.592 106.809, 42.575 107.051, 40.464 109.034 C 36.198 113.042, 37.613 117.886, 43.721 120.178 C 46.450 121.202, 51.530 121.544, 62 121.408 C 71.632 121.283, 76.972 121.602, 77.906 122.360 C 78.833 123.111, 83.378 123.398, 91.245 123.202 C 97.808 123.038, 104.601 123.342, 106.339 123.877 C 110.861 125.270, 123.389 125.856, 128.445 124.911 C 130.814 124.469, 134.045 124.494, 135.626 124.967 C 137.207 125.441, 137.911 125.867, 137.191 125.914 C 136.471 125.961, 136.123 126.390, 136.417 126.866 C 136.712 127.343, 136.063 128.538, 134.976 129.521 C 133.889 130.505, 133 132.344, 133 133.608 C 133 136.192, 134.957 141, 136.009 141 C 136.664 141, 138.387 144.689, 141.013 151.717 C 141.674 153.486, 142.774 155.397, 143.457 155.964 C 145.289 157.484, 155.082 159.138, 158.205 158.454 C 163.211 157.357, 162.635 151.264, 157.029 146.027 C 153.253 142.500, 147.185 130.484, 147.733 127.618 C 147.980 126.323, 149.456 124.864, 151.326 124.065 C 158.279 121.094, 159.735 117.476, 155.927 112.635 C 154.206 110.446, 153.047 110, 149.082 110 C 143.612 110, 142.040 108.681, 140.082 102.444 C 138.934 98.788, 139.026 97.923, 141.019 93.684 C 143.339 88.747, 145.490 87.506, 150.236 88.366 C 153.320 88.926, 155.133 87.222, 154.406 84.448 C 153.847 82.311, 148.478 78.412, 144.820 77.486 C 140.131 76.300, 137.820 73.579, 137.256 68.582 C 136.956 65.919, 136.123 63.601, 135.360 63.308 C 133.367 62.543, 133.698 60.359, 136.154 58.071 C 137.543 56.777, 140.396 55.828, 144.191 55.399 C 148.412 54.921, 150.466 54.173, 151.462 52.750 C 153.402 49.981, 151.579 46.342, 147.603 45.049 C 145.735 44.442, 130.365 44.070, 109 44.113 C 86.512 44.160, 72.514 43.803, 70.811 43.141 C 67.071 41.687, 65.847 39.021, 67.028 34.901 C 68.261 30.603, 67.586 28.588, 64.434 27.152 C 60.885 25.535, 60.491 25.630, 56.605 29.042 M 65.250 58.220 C 63.102 59.257, 62.078 62, 63.839 62 C 65.193 62, 67 66.817, 67 70.425 C 67 75.759, 72.571 78.307, 78.046 75.476 C 80.915 73.992, 81.050 73.651, 80.615 68.966 C 80.362 66.247, 80.570 63.765, 81.078 63.452 C 83.058 62.228, 81.838 59.830, 78.532 58.449 C 74.507 56.767, 68.478 56.663, 65.250 58.220 M 113.229 59.594 C 111.777 60.672, 111.701 61.207, 112.750 62.926 C 113.438 64.052, 114 66.934, 114 69.331 C 114 72.284, 114.590 74.224, 115.829 75.345 C 118.100 77.401, 123.176 77.478, 126.973 75.514 C 129.703 74.102, 129.795 73.840, 128.819 70.264 C 128.254 68.194, 127.350 65.957, 126.810 65.294 C 126.270 64.630, 126.087 63.669, 126.403 63.157 C 128.127 60.368, 116.442 57.208, 113.229 59.594 M 94.879 60.214 L 90.259 61.169 89.585 67.748 C 88.839 75.027, 89.009 75.310, 95.153 77.013 C 98.792 78.021, 103.159 77.169, 104.367 75.215 C 104.676 74.716, 104.565 72.008, 104.120 69.197 C 103.600 65.908, 103.684 63.716, 104.356 63.044 C 106.879 60.521, 101.364 58.874, 94.879 60.214 M 71.250 88.773 C 70.013 88.975, 68.960 89.445, 68.912 89.820 C 67.603 99.943, 68.561 105.159, 72.072 107.038 C 76.551 109.436, 83.773 101.928, 82.369 96.334 C 81.241 91.840, 75.674 88.054, 71.250 88.773 M 97.514 92.309 C 91.631 95.837, 90.656 99.709, 94.290 105.102 C 96.030 107.685, 97.290 108.500, 99.540 108.500 C 102.020 108.500, 102.701 107.933, 103.738 105 C 105.278 100.648, 104.486 94.092, 102.211 92.364 C 100.154 90.800, 100.031 90.799, 97.514 92.309 M 118 92.796 C 116.560 93.472, 116.298 94.049, 115.412 98.500 C 114.906 101.044, 116.676 106.486, 118.503 108.002 C 120.852 109.952, 126.825 107.172, 128.679 103.265 C 130.164 100.134, 130.125 99.805, 127.870 96.494 C 126.567 94.580, 125.050 93.004, 124.500 92.993 C 123.950 92.982, 122.600 92.775, 121.500 92.533 C 120.400 92.291, 118.825 92.410, 118 92.796 M 47.190 130.271 C 46.610 130.969, 45.340 134.457, 44.366 138.021 C 43.393 141.584, 42.311 144.725, 41.962 145 C 40.938 145.807, 39 152.098, 39 154.614 C 39 159.639, 47.273 160.166, 52.824 155.495 C 54.491 154.092, 56.615 150.578, 57.860 147.165 C 59.044 143.918, 61.172 139.552, 62.590 137.462 C 64.719 134.325, 64.983 133.258, 64.105 131.332 C 63.132 129.195, 62.424 129, 55.644 129 C 50.881 129, 47.869 129.453, 47.190 130.271 M 76.923 131.923 C 73.597 135.249, 73.456 136.638, 75.408 146.871 C 77.178 156.151, 78.468 157.500, 85.572 157.500 C 92.591 157.500, 93.460 156.242, 90.911 149.774 C 89.781 146.907, 89.242 143.884, 89.604 142.441 C 90.761 137.831, 89.135 133.053, 85.696 130.956 C 81.440 128.361, 80.367 128.479, 76.923 131.923 M 104.635 133.073 C 101.490 135.546, 101.384 136.873, 103.930 141.864 C 105.144 144.241, 105.794 147.367, 105.682 150.275 C 105.438 156.585, 106.658 157.512, 115.122 157.443 C 123.547 157.375, 124.498 156.407, 121.743 150.703 C 120.649 148.440, 119.523 144.769, 119.239 142.544 C 117.933 132.284, 111.194 127.913, 104.635 133.073" stroke="none" fill="black" fill-rule="evenodd"/>
</svg>