<svg xmlns="http://www.w3.org/2000/svg" width="256" height="256" viewBox="0 0 256 256" version="1.1">
	<path d="M 126.301 30.198 C 122.131 32.212, 122.494 35.840, 127.992 47.081 C 132.418 56.133, 132.875 57.618, 131.534 58.599 C 129.113 60.369, 117.589 61.226, 114.588 59.858 C 111.575 58.485, 111.535 58.256, 113.441 53.270 C 114.233 51.197, 115.662 46.620, 116.615 43.100 L 118.348 36.700 115.024 33.730 C 111.864 30.906, 111.423 30.800, 106.100 31.567 C 103.020 32.011, 98.113 32.280, 95.195 32.165 C 90.537 31.981, 89.539 32.307, 87.004 34.843 C 81.902 39.944, 85.526 45, 94.283 45 L 99.121 45 98.810 48.689 L 98.500 52.377 91 53.707 C 86.609 54.486, 80.876 54.786, 77.170 54.431 C 73.352 54.065, 69.770 54.267, 68.143 54.941 C 64.948 56.264, 61.333 63.492, 62.914 65.397 C 64.159 66.896, 69.261 66.764, 74.518 65.097 C 77.267 64.225, 79.635 64.109, 82.018 64.729 C 85.230 65.566, 85.506 65.941, 85.574 69.568 C 85.697 76.152, 81.170 77.893, 75.390 73.484 C 71.170 70.265, 67.118 69.476, 62.551 70.983 C 57.896 72.519, 55.861 71.153, 56.928 67.209 C 57.331 65.719, 57.377 63.150, 57.030 61.500 C 56.684 59.850, 56.523 53.650, 56.673 47.723 C 56.915 38.156, 56.727 36.727, 54.996 34.996 C 51.372 31.372, 46.533 34.924, 45.610 41.885 C 45.260 44.524, 44.253 49.342, 43.372 52.591 C 42.492 55.841, 41.642 60.525, 41.484 63 C 41.325 65.475, 41.152 67.870, 41.098 68.321 C 41.044 68.773, 40.352 68.495, 39.559 67.702 C 38.741 66.884, 38.360 65.338, 38.678 64.124 C 40.459 57.312, 29.782 49.172, 24.882 53.606 C 21.490 56.676, 23.045 61.350, 30.002 69 C 32.253 71.475, 35 75.307, 36.108 77.517 C 37.215 79.726, 39.444 82.292, 41.061 83.220 C 42.846 84.245, 44.059 85.809, 44.151 87.203 C 44.604 94.110, 42.310 107.547, 40.341 109.516 C 39.563 110.294, 38.295 112.444, 37.521 114.295 C 35.800 118.415, 34.441 119.568, 30.250 120.464 C 28.254 120.891, 27 121.766, 27 122.733 C 27 125.135, 33.758 136.693, 35.568 137.388 C 39.552 138.916, 41.098 138.030, 43.177 133.029 C 44.315 130.289, 46.086 127.790, 47.121 127.461 C 48.155 127.134, 49 126.514, 49 126.086 C 49 125.657, 49.840 124.337, 50.867 123.153 C 53.642 119.954, 57.466 120.413, 61.350 124.414 C 63.809 126.945, 65.874 128.009, 69.342 128.529 C 74.639 129.323, 77 128.091, 77 124.533 C 77 121.426, 69.389 114.182, 64.836 112.956 C 58.530 111.258, 57 108.228, 57 97.437 C 57 90.236, 57.362 87.781, 58.606 86.537 C 59.704 85.439, 60.589 85.244, 61.404 85.921 C 63.120 87.344, 68.362 87.384, 77.347 86.040 C 84.501 84.970, 85.376 85.027, 87.243 86.683 C 90.088 89.208, 93.036 96.182, 93.171 100.710 C 93.287 104.587, 95.711 112.056, 97.180 113.058 C 98.200 113.755, 99.676 122.258, 100.405 131.641 C 100.886 137.837, 100.688 139.127, 98.907 141.391 C 96.555 144.381, 94.052 144.635, 88 142.500 C 82.610 140.598, 82.334 140.614, 81.747 142.858 C 81.155 145.123, 83.100 150.008, 85.329 151.858 C 87.814 153.920, 108.459 155.642, 119.816 154.735 C 131.207 153.825, 128.398 153.838, 144.657 154.623 L 157.815 155.259 159.407 152.179 C 161.493 148.145, 161.418 146.801, 158.927 143.635 C 157.071 141.274, 156.183 141, 150.396 141 C 142.768 141, 142.234 140.319, 144.328 133.268 C 145.350 129.824, 145.546 127.001, 144.977 123.918 C 144.414 120.867, 144.565 118.572, 145.464 116.500 C 148.828 108.748, 149.131 107.220, 148.262 102.378 C 146.978 95.221, 147.894 93.060, 154.266 88.217 C 158.775 84.790, 160.187 83.028, 161.091 79.698 C 162.093 76.010, 161.980 75.060, 160.159 71.877 C 158.091 68.262, 158.091 68.244, 160.043 64.415 C 161.119 62.304, 162 59.851, 162 58.963 C 162 56.893, 158.406 53.681, 154.254 52.042 C 151.715 51.040, 150.752 49.862, 149.832 46.630 C 148.267 41.138, 146.827 39.566, 138.122 33.847 C 130.293 28.704, 129.743 28.535, 126.301 30.198 M 133 73.669 C 127.920 76.027, 127.004 76.146, 121 75.228 C 113.479 74.078, 101.081 74.743, 99.549 76.379 C 97.527 78.539, 98.108 81.989, 100.598 82.614 C 103.130 83.249, 118.246 82.506, 124.118 81.458 C 126.583 81.018, 128.739 81.331, 130.884 82.440 C 136.832 85.516, 145.568 81.099, 144.245 75.685 C 142.929 70.300, 141.001 69.954, 133 73.669 M 129 94 C 128.175 94.533, 124.710 94.976, 121.299 94.985 C 117.889 94.993, 112.826 95.487, 110.049 96.083 C 105.866 96.980, 105.001 97.537, 105.007 99.333 C 105.011 100.681, 106.325 102.393, 108.483 103.862 C 111.271 105.761, 112.692 106.093, 115.726 105.553 C 117.802 105.183, 122.503 104.766, 126.174 104.626 C 135.459 104.271, 137.730 101.892, 134.839 95.547 C 133.631 92.894, 131.560 92.346, 129 94 M 118.854 118.663 C 113.697 119.539, 112.676 121.954, 113.464 131.411 C 113.887 136.490, 114.708 140.342, 115.508 141.006 C 116.243 141.617, 119.017 141.977, 121.672 141.808 C 126.112 141.525, 126.643 141.208, 128.277 137.866 C 130.834 132.637, 131.711 121.835, 129.713 120.177 C 127.964 118.725, 122.760 118, 118.854 118.663" stroke="none" fill="black" fill-rule="evenodd"/>
</svg>