<svg xmlns="http://www.w3.org/2000/svg" width="256" height="256" viewBox="0 0 256 256" version="1.1">
	<path d="M 110 30.020 C 106.425 30.390, 99.593 30.506, 94.817 30.276 C 85.954 29.849, 82.795 30.640, 80.282 33.913 C 78.469 36.274, 78.747 38.686, 81.080 40.860 C 83.854 43.445, 86.665 43.869, 93.656 42.759 C 101.699 41.481, 105.011 42.789, 104.968 47.225 C 104.919 52.303, 102.694 54.509, 97.974 54.162 C 95.788 54.002, 91.412 53.853, 88.250 53.833 C 73.181 53.734, 70.147 54.363, 67.017 58.228 C 65.501 60.100, 64.872 60.263, 62.801 59.319 C 60.740 58.380, 60.315 57.390, 60.028 52.855 C 59.593 45.989, 59.652 44.416, 60.539 39.228 C 61.121 35.821, 60.907 34.554, 59.480 32.978 C 57.110 30.359, 54.713 30.482, 51.323 33.398 C 48.274 36.021, 47.661 39.397, 46.397 60.500 C 46.068 66, 45.427 70.895, 44.972 71.377 C 43.700 72.728, 39.192 71.209, 38.654 69.248 C 38.390 68.286, 37.890 65.811, 37.541 63.746 C 36.779 59.226, 33.604 56, 29.918 56 C 24.371 56, 24.843 64.542, 31.188 79 C 33.477 84.214, 39.374 90.177, 41.454 89.379 C 43.477 88.603, 44.614 95.412, 43.142 99.484 C 42.514 101.221, 42 103.387, 42 104.297 C 42 105.207, 41.137 107.371, 40.081 109.106 C 39.026 110.842, 38.403 112.885, 38.695 113.649 C 39.350 115.354, 37.166 120.964, 35.055 123 C 32.957 125.024, 32.670 127, 34.475 127 C 35.570 127, 35.800 127.749, 35.368 129.910 C 34.133 136.085, 39.199 144.012, 43.359 142.416 C 44.262 142.069, 45 140.776, 45 139.542 C 45 134.972, 50.147 122.376, 52.858 120.313 C 55.293 118.460, 56.896 118.719, 63.391 122.013 C 66.631 123.656, 70.126 125, 71.157 125 C 73.862 125, 81 122.648, 81 121.757 C 81 120.666, 85.773 120.823, 86.461 121.936 C 86.779 122.451, 87.818 122.836, 88.770 122.790 C 92.495 122.613, 102.493 125.094, 105.717 126.996 C 107.586 128.098, 109.748 129, 110.522 129 C 113.483 129, 115.456 137.982, 112.849 139.593 C 112.216 139.984, 103.704 140.209, 93.934 140.093 C 77.509 139.897, 76.140 140.018, 75.774 141.691 C 75.557 142.686, 75.831 144.625, 76.383 146 C 79.783 154.469, 83.556 155.194, 124.055 155.159 C 158.980 155.130, 161.457 154.825, 163.076 150.365 C 164.167 147.357, 161.719 144.295, 157.221 143.039 C 155.174 142.468, 148.325 141.723, 142 141.382 C 126.610 140.555, 123.911 138.625, 126.952 130.626 C 128.346 126.959, 131.150 125.900, 140.425 125.540 C 148.433 125.230, 152.864 123.982, 153.125 121.965 C 153.194 121.434, 153.336 120.438, 153.441 119.750 C 153.808 117.351, 151.904 114.992, 147.988 112.994 C 143.815 110.865, 141.940 110.652, 135.500 111.575 C 132.039 112.072, 131.049 111.745, 128.153 109.148 L 124.805 106.148 128.653 105.079 C 130.769 104.492, 137.142 104.009, 142.816 104.006 C 158.174 103.997, 159.884 102.612, 160.091 90 C 160.408 70.761, 159.706 59.271, 157.995 55.726 C 156.463 52.549, 154.735 52.008, 146.837 52.230 C 140.556 52.407, 138 51.039, 138 47.500 C 138 44.188, 139.715 43.296, 147.500 42.561 C 158.198 41.551, 162.480 37.284, 158.156 31.944 C 156.234 29.571, 156.044 29.549, 136.359 29.448 C 125.436 29.392, 113.575 29.649, 110 30.020 M 117 46 C 115.404 48.981, 117.373 52, 120.913 52 C 124.328 52, 126.292 49.949, 125.340 47.377 C 123.919 43.536, 118.774 42.686, 117 46 M 63.813 61.683 C 64.534 61.972, 65.397 61.936, 65.729 61.604 C 66.061 61.272, 65.471 61.036, 64.417 61.079 C 63.252 61.127, 63.015 61.364, 63.813 61.683 M 140.428 67.073 C 138.739 67.563, 136.748 69.103, 136.003 70.494 C 134.800 72.743, 134.863 73.185, 136.575 74.480 C 138.616 76.024, 144.708 76.473, 146.671 75.225 C 148.546 74.032, 149.377 69.159, 147.989 67.487 C 146.620 65.837, 144.989 65.748, 140.428 67.073 M 77.200 68.200 C 76.540 68.860, 76 69.982, 76 70.692 C 76 72.012, 72.895 76.081, 69.750 78.885 C 68.787 79.743, 67.992 80.907, 67.982 81.472 C 67.972 82.038, 65.722 83.966, 62.982 85.758 C 58.252 88.850, 57.366 90.423, 57.923 94.739 C 58.011 95.420, 57.597 96.884, 57.004 97.993 C 55.604 100.608, 57.277 107.101, 59.724 108.554 C 60.701 109.134, 63.344 109.726, 65.598 109.870 C 69.689 110.131, 78.841 112.859, 76 112.971 C 74.794 113.019, 74.761 113.196, 75.835 113.877 C 76.570 114.343, 77.132 115.011, 77.085 115.362 C 76.850 117.118, 77.225 117.597, 79.751 118.771 C 81.517 119.591, 82.607 119.680, 82.826 119.021 C 83.014 118.459, 83.804 118, 84.583 118 C 85.362 118, 86 117.622, 86 117.161 C 86 115.421, 91.790 113.701, 100.078 112.979 C 104.796 112.568, 109.746 111.617, 111.078 110.866 C 114.521 108.924, 117 106.827, 117 105.857 C 117 105.027, 109.287 103.362, 107.627 103.834 C 106.352 104.196, 91.025 100.968, 88.449 99.795 C 85.476 98.440, 82.117 91.401, 82.104 86.500 C 82.099 84.300, 81.416 80.050, 80.586 77.055 C 79.523 73.218, 79.387 71.238, 80.125 70.349 C 81.168 69.093, 80.552 67, 79.141 67 C 78.733 67, 77.860 67.540, 77.200 68.200 M 94.750 68.080 C 91.814 69.790, 92.916 77.908, 96.400 80.235 C 97.037 80.660, 97.079 80.976, 96.500 80.985 C 93.927 81.024, 96.202 90.949, 98.817 91.092 C 106.625 91.518, 142.171 91.162, 142.681 90.652 C 143.620 89.713, 142.839 89.191, 139.625 88.608 C 133.332 87.467, 131.010 84.066, 131.361 76.500 C 131.690 69.396, 121.265 64.880, 116.750 70.171 C 115.787 71.299, 115 73.155, 115 74.295 C 115 75.435, 114.060 78.311, 112.911 80.684 C 110.999 84.633, 110.503 85, 107.071 85 C 103.999 85, 103.106 84.528, 102.131 82.388 C 101.458 80.911, 101.307 79.282, 101.784 78.638 C 103.149 76.797, 103.264 70.023, 101.958 68.450 C 100.569 66.776, 97.279 66.607, 94.750 68.080" stroke="none" fill="black" fill-rule="evenodd"/>
</svg>