<svg xmlns="http://www.w3.org/2000/svg" width="256" height="256" viewBox="0 0 256 256" version="1.1">
	<path d="M 64.358 32.748 C 62.957 34.259, 60.263 38.803, 58.370 42.845 C 56.457 46.933, 52.783 52.481, 50.091 55.347 C 40.981 65.049, 42.280 67.586, 55.807 66.515 C 64.426 65.833, 64.689 65.877, 66.243 68.248 C 67.120 69.586, 68.322 72.481, 68.914 74.682 C 69.507 76.882, 70.945 79.541, 72.111 80.591 C 75.302 83.465, 82.648 96.494, 86.067 105.345 L 89.098 113.189 87.201 116.844 C 85.103 120.887, 82.386 121.804, 72 121.976 C 65.222 122.088, 62.831 123.873, 59.564 131.260 C 57.464 136.008, 56.613 136.876, 52.531 138.435 C 44.432 141.528, 40.842 147.666, 44.337 152.446 C 45.749 154.377, 46.542 154.345, 56.393 151.961 C 60.275 151.022, 62.613 149.476, 67.718 144.470 C 71.256 141.001, 76.479 136.974, 79.325 135.522 C 82.763 133.768, 85.339 131.525, 87 128.841 C 90.996 122.384, 99.392 119.021, 102.209 122.750 C 103.527 124.496, 104.923 125.524, 110.393 128.779 C 111.984 129.725, 115.812 132.563, 118.899 135.084 C 130.123 144.248, 142.657 152, 146.251 152 C 149.709 152, 154.001 148.007, 153.996 144.795 C 153.987 139.183, 146.476 133.127, 135.036 129.509 C 133.680 129.080, 130.669 126.827, 128.344 124.502 C 126.020 122.178, 122.122 119.338, 119.684 118.191 C 112.458 114.795, 111.946 113.902, 112.442 105.550 C 112.914 97.575, 114.511 92.818, 118.449 87.656 C 119.852 85.816, 121 83.846, 121 83.278 C 121 82.710, 121.652 81.703, 122.450 81.042 C 124.429 79.399, 128 71.840, 128 69.293 C 128 66.808, 126.059 66.249, 116.802 66.067 C 108.893 65.911, 108.018 66.815, 107.968 75.184 C 107.950 78.264, 107.319 81.317, 106.468 82.441 C 105.661 83.509, 105 84.983, 105 85.718 C 105 87.516, 99.043 93.972, 97.627 93.709 C 97.007 93.594, 96.050 92.755, 95.500 91.845 C 94.950 90.935, 92.441 87.962, 89.925 85.238 C 86.416 81.440, 85.521 79.825, 86.082 78.307 C 87 75.827, 84.448 70.340, 81.471 68.389 C 80.264 67.598, 76.285 66.671, 72.629 66.330 L 65.983 65.709 66.602 61.105 C 67.404 55.137, 71.993 45.164, 75.358 42.076 C 78.675 39.032, 78.687 36.970, 75.411 33.077 C 72.028 29.056, 67.893 28.933, 64.358 32.748 M 117.035 36.780 C 110.950 39.727, 111.848 46.149, 118.761 49.112 C 124.455 51.552, 131.171 57.462, 132.512 61.211 C 134.263 66.108, 142.668 68.940, 150.500 67.273 C 153.873 66.555, 154.550 65.987, 154.822 63.651 C 155.084 61.398, 154.196 60.021, 150.072 56.279 C 147.282 53.749, 145 51.154, 145 50.513 C 145 48.388, 140.555 45.172, 136.609 44.443 C 134.107 43.981, 131.341 42.388, 128.859 39.979 C 124.322 35.576, 121.242 34.743, 117.035 36.780" stroke="none" fill="black" fill-rule="evenodd"/>
</svg>