<svg xmlns="http://www.w3.org/2000/svg" width="256" height="256" viewBox="0 0 256 256" version="1.1">
	<path d="M 60.405 28.105 C 58.881 29.789, 58.500 31.741, 58.500 37.855 C 58.500 47.480, 56.747 51.500, 52.552 51.500 C 49.974 51.500, 49.443 50.955, 48.027 46.858 C 47.145 44.304, 45.805 41.470, 45.049 40.559 C 41.035 35.722, 35.044 43.521, 35.016 53.620 C 35.007 56.986, 34.121 62.491, 33.046 65.855 C 29.170 77.989, 29.814 88, 34.472 88 C 36.320 88, 40.333 82.706, 42.811 76.999 C 45.877 69.938, 48.932 67, 53.210 67 C 55.216 67, 57.538 67.680, 58.369 68.512 C 61.961 72.104, 61.848 89.614, 58.184 97.144 C 55.682 102.286, 53.429 103.565, 45.532 104.325 C 41.595 104.704, 40.001 105.435, 37.845 107.847 C 35.330 110.662, 35.128 111.533, 35.150 119.442 C 35.168 126.084, 35.566 128.477, 36.931 130.163 C 39.292 133.079, 41.410 132.083, 44.089 126.799 C 45.288 124.434, 46.595 122.275, 46.995 122 C 47.394 121.725, 48.442 120.092, 49.323 118.371 C 51.724 113.684, 55.941 112.889, 57.513 116.827 C 58.642 119.652, 59.113 138.147, 58.221 144.577 C 57.077 152.824, 59.027 159.994, 63.063 162.378 C 66.365 164.329, 69.948 163.223, 70.069 160.215 C 70.106 159.272, 70.353 154.675, 70.616 150 C 70.880 145.325, 70.658 135.302, 70.124 127.727 C 68.735 108.027, 69.958 105, 79.306 105 C 82.516 105, 85.192 104.474, 85.818 103.719 C 86.403 103.014, 86.974 99.262, 87.088 95.381 L 87.294 88.324 91.897 85.455 C 97.316 82.078, 97.688 81.628, 99.010 76.858 C 100.191 72.594, 107.387 65.551, 109.667 66.426 C 110.490 66.742, 111.529 67, 111.975 67 C 115.284 67, 112.154 78.812, 107.356 84.430 C 104.994 87.196, 104 89.355, 104 91.720 C 104 95.415, 101.332 101.275, 98.087 104.708 C 96.939 105.923, 96 107.880, 96 109.057 C 96 112.229, 98.692 117.327, 101.192 118.888 C 103.228 120.159, 103.691 119.923, 107.688 115.571 C 110.054 112.993, 112.278 109.673, 112.630 108.192 C 112.981 106.711, 113.820 104.825, 114.493 104 C 115.167 103.175, 116.258 100.250, 116.917 97.500 C 119.047 88.624, 127.487 70.267, 130.202 68.610 C 132.501 67.206, 133.099 68.043, 133.662 73.446 C 134.166 78.289, 132.685 84.422, 130.367 87.086 C 126.866 91.109, 122.990 101.256, 122.359 108.052 C 121.734 114.770, 121.480 115.328, 116.937 119.968 C 114.315 122.646, 112.432 125.098, 112.752 125.418 C 113.072 125.738, 112.808 126, 112.167 126 C 111.525 126, 111 126.627, 111 127.393 C 111 128.159, 110.313 129.050, 109.474 129.372 C 107.564 130.105, 104 138.251, 104 141.883 C 104 147.864, 109.254 148.752, 113.827 143.544 C 115.496 141.644, 119.575 138.024, 122.893 135.501 C 126.211 132.978, 129.760 129.696, 130.781 128.207 C 132.826 125.225, 135 118.476, 135 115.112 C 135 113.926, 136.350 109.979, 138 106.340 C 139.650 102.701, 141 98.668, 141 97.377 C 141 96.087, 142.307 93.569, 143.904 91.782 L 146.807 88.532 147.490 93.082 C 147.865 95.585, 148.057 98.278, 147.916 99.066 C 147.775 99.855, 148.015 102.654, 148.449 105.286 C 149.264 110.232, 147.710 126.877, 145.892 132.670 C 145.345 134.414, 143.345 137.025, 141.448 138.472 C 134.797 143.545, 133.026 151.117, 137.455 155.545 C 140.836 158.927, 144.372 158.631, 150.005 154.496 C 153.718 151.771, 154.933 150.172, 155.471 147.301 C 155.852 145.271, 157.364 141.336, 158.832 138.555 L 161.500 133.500 161.766 103.500 C 161.913 87, 162.138 69.578, 162.266 64.784 C 162.610 51.967, 163.686 52.506, 137.714 52.472 C 126.046 52.456, 115.754 52.086, 114.842 51.650 C 113.929 51.213, 112.630 49.522, 111.955 47.891 C 110.937 45.433, 111.005 44.214, 112.356 40.776 C 113.819 37.052, 113.830 36.390, 112.470 34.314 C 109.243 29.389, 102.620 32.642, 101.515 39.694 C 100.270 47.645, 98.929 50.738, 95.262 54.122 C 90.538 58.483, 87 62.716, 87 64.008 C 87 64.553, 86.523 65, 85.941 65 C 85.359 65, 85.151 64.565, 85.479 64.034 C 86.166 62.923, 82.793 55.881, 80.823 54.313 C 80.095 53.734, 77.856 52.732, 75.847 52.085 C 71.528 50.694, 71.046 49.353, 70.918 38.345 C 70.860 33.380, 70.299 29.674, 69.390 28.250 C 67.534 25.342, 62.972 25.268, 60.405 28.105 M 70.409 67.505 C 70.010 69.096, 70.397 70.957, 71.467 72.589 C 73.161 75.176, 73.399 77.879, 72.623 85.750 C 72.158 90.468, 73.198 91.016, 78.671 88.935 C 84.431 86.745, 85.530 84.412, 85.207 75.059 C 85.046 70.396, 84.709 66.376, 84.457 66.124 C 84.206 65.873, 81.084 65.516, 77.520 65.331 C 71.314 65.010, 71.013 65.102, 70.409 67.505" stroke="none" fill="black" fill-rule="evenodd"/>
</svg>