<svg xmlns="http://www.w3.org/2000/svg" width="256" height="256" viewBox="0 0 256 256" version="1.1">
	<path d="M 51.333 34.718 C 48.280 35.281, 43.798 39.698, 44.180 41.767 C 44.876 45.535, 50.590 46.837, 70.307 47.723 C 91.347 48.668, 91.574 48.756, 90.334 55.500 C 89.585 59.574, 89.533 63.188, 90.050 75.336 C 90.398 83.507, 89.769 84.159, 82 83.689 C 78.975 83.506, 74.991 83.690, 73.146 84.097 C 71.086 84.551, 67.691 84.289, 64.347 83.418 C 57.352 81.596, 57.725 81.548, 54.588 84.685 C 51.257 88.016, 51.478 91.543, 55.191 94.302 C 57.587 96.083, 59.621 96.322, 73.777 96.491 C 82.520 96.595, 90.123 96.958, 90.673 97.298 C 91.958 98.092, 91.742 131.670, 90.444 132.925 C 89.925 133.426, 80.950 134.042, 70.500 134.293 C 53.129 134.711, 43.250 135.416, 42.364 136.303 C 42.175 136.492, 41.744 138.029, 41.406 139.719 C 40.527 144.116, 43.045 146.137, 52.239 148.413 C 58.911 150.065, 60.544 150.153, 64.195 149.060 C 71.727 146.803, 98.104 146.990, 131.571 149.537 C 140.087 150.185, 140.991 150.063, 146.320 147.542 C 150.519 145.555, 152.169 144.176, 152.653 142.247 C 154.443 135.114, 146.196 131.160, 136.443 134.475 C 132.200 135.917, 129.741 136.129, 124.311 135.519 C 120.565 135.098, 114.920 134.681, 111.766 134.593 C 108.612 134.504, 105.524 133.924, 104.904 133.304 C 103.303 131.703, 102.588 103.410, 104.058 99.861 C 105.070 97.416, 105.810 97.085, 111.342 96.606 C 114.729 96.313, 122.096 95.675, 127.714 95.189 C 133.332 94.702, 138.620 93.730, 139.464 93.030 C 141.106 91.668, 141.493 87.325, 140.161 85.226 C 138.987 83.376, 129.083 82.012, 116.773 82.006 C 106.220 82, 106.017 81.956, 104.274 79.295 C 101.956 75.758, 101.033 54.870, 103.085 52.397 C 106.456 48.336, 113.373 46.601, 131 45.397 C 142.121 44.637, 145 43.760, 145 41.132 C 145 38.631, 142.929 37.913, 137.726 38.613 C 134.920 38.990, 130.812 38.447, 125.500 36.994 C 118.384 35.049, 115.511 34.842, 99.500 35.120 C 72.276 35.593, 65.015 35.555, 59 34.909 C 55.975 34.584, 52.525 34.498, 51.333 34.718" stroke="none" fill="black" fill-rule="evenodd"/>
</svg>