<svg xmlns="http://www.w3.org/2000/svg" width="256" height="256" viewBox="0 0 256 256" version="1.1">
	<path d="M 49.500 36.170 C 45.200 37.745, 44 38.929, 44 41.599 C 44 45.603, 47.689 47.001, 61.144 48.099 C 67.940 48.653, 76.200 49.254, 79.500 49.435 C 88.716 49.938, 89.383 50.421, 88.433 55.901 C 87.599 60.711, 87.490 65.193, 87.947 75.933 C 88.153 80.792, 87.845 82.640, 86.688 83.486 C 85.187 84.584, 60.405 84.739, 59.324 83.657 C 58.170 82.504, 52.827 85.435, 51.537 87.928 C 49.688 91.505, 51.385 95.063, 55.460 96.150 C 57.088 96.584, 64.894 97.036, 72.807 97.154 C 91.330 97.430, 90.242 96.042, 89.817 118.846 C 89.643 128.192, 89.184 136.154, 88.797 136.538 C 88.411 136.923, 78.061 137.407, 65.797 137.614 C 46.263 137.943, 43.345 138.200, 42.250 139.686 C 38.804 144.362, 42.207 148.394, 51.900 151.120 C 58.581 152.999, 59.894 153.077, 65.400 151.924 C 73.260 150.278, 113.456 149.993, 121.005 151.530 C 133.577 154.088, 151.272 151.199, 153.088 146.292 C 154.102 143.550, 152.074 139.874, 148.529 138.030 C 144.612 135.993, 142.244 133.149, 141.426 129.500 C 140.240 124.208, 136.187 117.572, 132.570 115 C 130.511 113.535, 129.044 111.638, 129.028 110.419 C 128.991 107.645, 125.252 105.784, 120.510 106.179 C 117.268 106.449, 116.502 106.962, 115.692 109.406 C 114.798 112.104, 115.080 112.623, 119.615 116.643 C 122.302 119.025, 125.434 121.234, 126.576 121.552 C 127.718 121.870, 129.293 123.075, 130.076 124.230 C 131.990 127.053, 134.521 129.667, 135.783 130.125 C 136.903 130.531, 137.304 132.222, 137.118 135.750 C 137.006 137.882, 136.593 137.999, 129.250 137.976 C 124.987 137.963, 119.731 137.542, 117.568 137.040 C 115.316 136.518, 111.693 136.491, 109.090 136.978 C 102.796 138.154, 100.529 136.851, 101.574 132.658 C 102.403 129.331, 102.339 116.348, 101.434 104.378 L 100.895 97.256 118.986 97.143 C 129.055 97.079, 137.917 96.580, 138.971 96.016 C 142.858 93.935, 142.268 87.284, 137.995 84.997 C 136.803 84.359, 128.887 83.683, 119.697 83.433 C 101.852 82.949, 101.628 82.866, 100.395 76.292 C 99.293 70.416, 100.430 54.129, 102.047 52.634 C 106.216 48.779, 115.054 46.984, 130.639 46.828 C 143.280 46.701, 146.006 45.981, 145.985 42.775 C 145.957 38.683, 144.918 38.245, 135.500 38.351 C 129.473 38.419, 124.683 37.878, 121 36.713 C 116.304 35.229, 113.453 35.084, 101.500 35.726 C 83.738 36.680, 65.084 36.706, 58 35.786 C 54.647 35.350, 51.329 35.500, 49.500 36.170" stroke="none" fill="black" fill-rule="evenodd"/>
</svg>