<svg xmlns="http://www.w3.org/2000/svg" width="256" height="256" viewBox="0 0 256 256" version="1.1">
	<path d="M 118.374 28.764 C 115.141 29.285, 110.016 35.450, 102.385 48 C 98.300 54.716, 89.649 66.069, 85.849 69.699 C 81.336 74.010, 76.535 75.849, 70.337 75.641 C 64.021 75.429, 61 73.117, 61 68.494 C 61 62.879, 62.798 59.607, 67.419 56.816 C 70.569 54.914, 71.994 53.302, 72.479 51.095 C 72.850 49.405, 73.569 47.766, 74.077 47.452 C 75.814 46.379, 75.011 42.121, 72.777 40.557 C 69.671 38.381, 68.068 38.577, 60.840 42.019 C 55.013 44.794, 53.691 45.029, 44.500 44.917 C 34.530 44.796, 29.630 45.916, 28.621 48.545 C 27.894 50.441, 30.097 56.823, 31.689 57.434 C 32.450 57.726, 34.969 57.305, 37.286 56.497 C 42.885 54.547, 43.265 54.590, 46.443 57.535 C 48.973 59.879, 49.127 60.461, 48.494 65.285 C 47.650 71.720, 45.803 74.770, 42.237 75.622 C 40.732 75.982, 39.050 76.602, 38.500 77 C 37.950 77.398, 36.275 78.017, 34.779 78.374 C 33.282 78.731, 31.551 79.971, 30.931 81.128 C 29.213 84.340, 31.636 85.998, 38.820 86.526 C 45.350 87.006, 48.687 88.439, 49.541 91.129 C 50.539 94.274, 48.017 115.415, 46.236 118.826 C 44.504 122.145, 44.488 122.151, 39 121.428 C 30.898 120.360, 27.712 120.767, 25.750 123.121 C 23.312 126.048, 23.565 128.656, 26.580 131.670 C 28.863 133.954, 29.695 134.177, 33.830 133.617 C 36.398 133.269, 39.807 132.023, 41.405 130.847 C 43.923 128.995, 44.733 128.863, 47.476 129.855 C 52.064 131.514, 55.510 131.268, 59.210 129.019 C 61.797 127.445, 63.515 127.161, 67.557 127.636 C 71.285 128.074, 73.509 127.788, 75.869 126.568 C 78.823 125.040, 79.057 124.569, 78.688 120.880 C 78.148 115.481, 76.373 113.997, 69.623 113.301 C 66.104 112.937, 64.076 112.290, 64.315 111.606 C 64.527 110.998, 64.076 108.707, 63.312 106.516 C 61.383 100.980, 61.245 92.095, 63.071 90.919 C 63.857 90.413, 66.300 89.510, 68.500 88.912 C 70.700 88.314, 74.486 86.289, 76.914 84.412 C 80.614 81.552, 82.154 81, 86.429 81 C 89.619 81, 92.927 80.251, 95.261 79 C 99.685 76.629, 103.719 76.454, 107.597 78.466 C 109.151 79.272, 111.355 79.698, 112.493 79.412 C 113.632 79.126, 118.150 79.642, 122.532 80.557 C 126.914 81.472, 132.818 82.284, 135.651 82.361 C 140.096 82.481, 141.155 82.118, 143.389 79.711 L 145.977 76.922 151.739 79.959 C 154.907 81.629, 158.533 82.997, 159.795 82.998 C 163.198 83.001, 167.295 78.521, 166.438 75.733 C 166.060 74.505, 165.695 73.482, 165.626 73.461 C 164.809 73.206, 149.921 59.774, 148.090 57.640 C 146.741 56.067, 145.044 54.186, 144.318 53.461 C 143.593 52.736, 142.994 51.773, 142.988 51.321 C 142.981 50.870, 141.293 48.642, 139.238 46.372 C 137.182 44.102, 133.250 39.520, 130.500 36.190 C 125.457 30.084, 122.274 28.134, 118.374 28.764 M 118.158 48.310 C 117.049 49.646, 111.010 63.916, 111.003 65.215 C 110.995 66.901, 115.683 68.137, 125.271 68.980 C 130.911 69.475, 136.308 70.181, 137.263 70.547 C 140.015 71.603, 139.485 65.671, 136.250 59.200 C 131.841 50.382, 121.569 44.200, 118.158 48.310 M 94.678 90.803 C 92.469 93.244, 92.550 96.550, 94.876 98.876 C 97.302 101.302, 107.541 103.087, 121.051 103.440 C 132.126 103.730, 135.145 104.643, 138.304 108.659 C 140.581 111.554, 142.875 111.605, 148.290 108.883 C 156.977 104.516, 157.865 102.085, 152.750 96.672 C 146.147 89.684, 146.324 89.724, 120.114 89.318 C 97.983 88.975, 96.241 89.076, 94.678 90.803 M 137 113.737 C 135.625 113.993, 134.275 114.494, 134 114.851 C 133.444 115.573, 130.029 117.596, 125.554 119.855 C 122.915 121.187, 121.905 121.161, 115.863 119.604 C 108.102 117.605, 105.402 118.354, 104.419 122.779 C 104.086 124.275, 103.668 126.175, 103.489 127 C 103.303 127.861, 105.682 130.534, 109.076 133.277 C 112.327 135.904, 115.845 139.735, 116.893 141.790 C 119.159 146.232, 123.314 150.587, 125.942 151.275 C 126.981 151.546, 128.882 151.237, 130.166 150.588 C 131.943 149.690, 132.434 148.704, 132.225 146.454 C 131.217 135.641, 132.737 130.606, 137.361 129.446 C 140.404 128.682, 143 123.167, 143 117.466 C 143 112.719, 142.880 112.644, 137 113.737" stroke="none" fill="black" fill-rule="evenodd"/>
</svg>