<svg xmlns="http://www.w3.org/2000/svg" width="256" height="256" viewBox="0 0 256 256" version="1.1">
	<path d="M 130.200 32.200 C 129.540 32.860, 129 35.529, 129 38.132 C 129 42.279, 128.618 43.136, 125.909 45.065 C 121.414 48.265, 115.179 48.731, 111.862 46.113 C 110.412 44.968, 108.919 42.787, 108.545 41.266 C 107.586 37.368, 105.222 34, 103.445 34 C 101.429 34, 100.049 37.953, 101.096 40.731 C 101.731 42.418, 101.385 43.603, 99.677 45.589 C 97.822 47.746, 96.229 48.338, 90.763 48.904 C 84.200 49.583, 80 51.775, 80 54.520 C 80 56.557, 83.740 60.624, 87.118 62.260 C 90.082 63.696, 90.709 63.661, 95.611 61.785 C 101.944 59.361, 105.513 59.925, 106.408 63.491 C 107.319 67.119, 106.236 70.229, 103.309 72.391 C 100.904 74.168, 100.580 74.183, 97.970 72.641 C 91.735 68.958, 85.350 72.396, 86.380 78.882 C 86.675 80.741, 86.333 83.666, 85.620 85.382 C 84.906 87.097, 84.288 91.086, 84.245 94.248 C 84.202 97.409, 83.395 102.016, 82.452 104.487 C 80.984 108.330, 80.936 109.218, 82.118 110.642 C 83.076 111.796, 83.547 115.536, 83.652 122.827 C 83.845 136.269, 86.662 151.729, 89.450 154.646 C 91.490 156.781, 91.633 156.788, 120 155.962 C 135.675 155.506, 150.075 155.360, 152 155.636 C 154.115 155.941, 156.214 155.607, 157.305 154.793 C 160.965 152.062, 161.307 148.062, 162.037 99.500 C 162.129 93.364, 161.678 90.451, 160.100 87 C 158.969 84.525, 158.034 81.458, 158.022 80.184 C 157.970 74.654, 153.096 71, 145.772 71 C 141.258 71, 137 68.842, 137 66.554 C 137 65.821, 137.787 64.264, 138.750 63.094 C 140.134 61.410, 142.381 60.733, 149.500 59.851 C 159.110 58.661, 162 57.162, 162 53.368 C 162 49.586, 157.740 47.543, 150.253 47.736 C 144.703 47.878, 143.486 47.577, 141.466 45.557 C 139.367 43.458, 139.236 42.841, 140.212 39.661 C 141.727 34.725, 139.346 31, 134.677 31 C 132.875 31, 130.860 31.540, 130.200 32.200 M 43.913 33.282 C 41.462 35.164, 39.935 38.662, 40.686 40.678 C 41.059 41.680, 42.898 44.828, 44.773 47.674 C 46.973 51.013, 47.960 53.496, 47.554 54.674 C 47.208 55.678, 44.669 58.239, 41.911 60.364 C 33.588 66.777, 31.692 71.433, 34.646 78.204 L 36.262 81.907 40.381 79.833 C 42.646 78.692, 46.376 76.238, 48.668 74.379 C 53.772 70.241, 58.152 69.844, 59.760 73.372 C 60.354 74.676, 61.159 79.401, 61.549 83.871 L 62.258 91.999 57.879 96.048 C 55.471 98.275, 52.021 100.763, 50.214 101.577 C 45.195 103.837, 33.115 116.016, 32.932 119 C 32.570 124.900, 33.123 127.836, 35.005 130.005 C 36.724 131.988, 37.359 132.158, 39.468 131.197 C 40.820 130.580, 43.074 128.259, 44.476 126.038 C 45.878 123.817, 47.372 122, 47.797 122 C 48.221 122, 49.425 120.537, 50.472 118.750 C 53.099 114.262, 54.909 113.069, 59.143 113.032 C 63.146 112.997, 64.001 114.106, 63.999 119.332 C 63.998 123.680, 61.210 136.691, 59.793 138.959 C 58.690 140.726, 50.608 143.964, 47.135 144.032 C 44.560 144.082, 42.156 146.397, 41.912 149.061 C 41.499 153.575, 41.988 154.752, 44.750 155.893 C 48.708 157.527, 64.426 155.830, 67.013 153.488 C 71.830 149.129, 76.257 134.449, 76.402 122.357 C 76.477 116.104, 76.906 113.764, 78.250 112.278 C 80.479 109.812, 80.448 108.874, 77.998 104.722 C 75.472 100.439, 74.583 91.235, 76.056 84.605 C 77.159 79.637, 77.079 79.272, 73.058 71 C 68.681 61.994, 68.533 59.924, 71.914 55.061 C 74.695 51.060, 75.934 46.385, 75.302 42.271 C 74.351 36.080, 71.980 34.580, 67.386 37.265 C 56.065 43.878, 55.021 43.922, 51.954 37.910 C 50.876 35.796, 49.125 33.602, 48.062 33.033 C 45.729 31.784, 45.875 31.776, 43.913 33.282 M 98.376 87.250 C 97.300 90.441, 97.719 96.956, 99.108 98.630 C 100.369 100.149, 103.957 99.555, 105.235 97.615 C 106.124 96.266, 106.201 90.351, 105.370 87.250 C 104.925 85.592, 104.026 85, 101.951 85 C 99.922 85, 98.923 85.629, 98.376 87.250 M 139.661 87.823 C 136.200 91.647, 139.652 99.482, 144.493 98.788 C 146.247 98.536, 146.500 97.745, 146.500 92.500 C 146.500 86.812, 146.367 86.485, 143.948 86.203 C 142.403 86.023, 140.711 86.662, 139.661 87.823 M 118.989 90.250 C 117.827 92.155, 117.006 95.279, 117.004 97.800 C 116.999 102.824, 114.872 107.463, 111.825 109.094 C 110.640 109.728, 107.739 110.208, 105.378 110.161 C 101.927 110.092, 100.699 110.567, 99.111 112.586 C 97.318 114.865, 97.177 116.268, 97.585 127.718 C 97.833 134.659, 98.489 140.885, 99.044 141.553 C 99.719 142.367, 103.595 142.773, 110.776 142.782 C 116.674 142.790, 123.525 143.084, 126 143.436 C 135.179 144.741, 137.751 144.713, 142.046 143.261 C 148.789 140.982, 149.169 140.082, 148.494 128 C 148.172 122.225, 147.443 116.037, 146.876 114.250 C 145.832 110.960, 145.412 110.739, 137.910 109.542 C 134.669 109.025, 131.505 106.634, 129.594 103.258 C 129.208 102.574, 128.440 99.215, 127.889 95.792 C 127.338 92.369, 126.407 88.991, 125.821 88.284 C 123.958 86.039, 121.046 86.877, 118.989 90.250 M 121.500 121.968 C 110.051 122.868, 107.059 124.071, 107.015 127.798 C 106.994 129.625, 111.943 134, 114.032 134 C 114.989 134, 117.060 134.672, 118.636 135.494 C 122.026 137.262, 129.236 137.462, 132.316 135.873 C 133.517 135.253, 136.204 133.004, 138.286 130.874 C 141.438 127.651, 141.897 126.677, 141.031 125.057 C 139.013 121.287, 136.083 120.823, 121.500 121.968" stroke="none" fill="black" fill-rule="evenodd"/>
</svg>