<svg xmlns="http://www.w3.org/2000/svg" width="256" height="256" viewBox="0 0 256 256" version="1.1">
	<path d="M 123.429 30.235 C 120.870 32.247, 120.844 32.404, 121.520 41.425 L 122.206 50.574 118.853 52.368 C 116.184 53.796, 114.938 53.946, 112.745 53.104 C 110.167 52.114, 109.275 50.716, 106.096 42.682 C 105.279 40.618, 104.408 39.949, 102.842 40.182 C 100.470 40.535, 100.560 40.399, 95.541 51.211 C 87.041 69.525, 85.827 74.047, 88.591 77.100 C 91.298 80.092, 96.850 79.293, 100.800 75.343 C 102.870 73.273, 110.491 69.006, 113.829 68.049 C 117.584 66.972, 120.303 68.702, 122.891 73.816 C 126.470 80.886, 126.472 83.374, 122.903 86.943 C 120.292 89.554, 119.225 90.008, 117.102 89.412 C 113.182 88.312, 96.819 88.292, 94.226 89.385 C 91.132 90.688, 90.281 94.547, 92.536 97.040 C 93.821 98.460, 95.612 99, 99.033 99 C 104.500 99, 109.747 100.961, 112.250 103.940 C 114.127 106.175, 114.531 108, 113.148 108 C 112.679 108, 110.262 110.588, 107.777 113.750 C 102.637 120.292, 98.660 125.048, 94.911 129.136 C 86.158 138.682, 88.043 148.865, 98.010 145.879 C 101.469 144.842, 102.782 143.505, 107.754 135.952 C 110.914 131.150, 113.950 126.465, 114.500 125.540 C 116.323 122.473, 119.349 123.192, 121.285 127.151 C 122.848 130.348, 122.932 131.654, 121.960 137.651 C 120.524 146.517, 121.490 156.076, 124.106 158.883 C 126.813 161.789, 130.559 161.602, 132.619 158.459 C 134.075 156.236, 134.196 153.975, 133.577 140.459 L 132.870 125 135.782 125 C 138.190 125, 140.489 126.900, 149.090 136 C 159.828 147.360, 162.822 149.070, 164.965 145.066 C 165.534 144.002, 166 141.891, 166 140.376 C 166 136.304, 158.578 124.595, 150.285 115.584 C 141.478 106.013, 140.856 103.364, 147.250 102.645 C 149.588 102.382, 153.434 102.187, 155.797 102.210 C 162.811 102.281, 165.263 96.743, 160.612 91.335 C 158.299 88.646, 157.889 88.554, 147.639 88.412 C 134.785 88.235, 131.399 86.753, 132.402 81.741 C 133.160 77.948, 137.414 72.224, 140.529 70.805 C 142.306 69.995, 144.017 70.165, 147.804 71.527 C 153.755 73.667, 154.924 73.309, 157.420 68.586 C 158.955 65.681, 159.156 64.223, 158.420 61.322 C 156.983 55.652, 153.315 53.575, 143.994 53.151 C 132.906 52.648, 131.661 50.969, 133.503 39 C 134.074 35.289, 133.831 34.039, 132.122 31.873 C 129.290 28.285, 126.562 27.770, 123.429 30.235 M 69.539 43.153 C 66.080 44.997, 63.541 45.308, 49.539 45.605 C 30.250 46.013, 28.521 46.600, 29.451 52.419 C 30.433 58.558, 31.312 59.109, 39.621 58.790 C 48.761 58.439, 49.552 59.170, 50.382 68.724 C 51.118 77.200, 50.728 77.654, 40.200 80.555 C 33.491 82.404, 31.268 84.797, 31.425 90 C 31.509 92.783, 31.779 92.819, 42.641 91.490 C 48.563 90.765, 48.845 90.833, 50.534 93.411 C 51.929 95.540, 52.267 98.137, 52.195 106.172 C 52.114 115.243, 51.873 116.511, 49.803 118.757 C 46.361 122.490, 42.238 123.979, 38.727 122.755 C 34.802 121.387, 28.490 123.323, 26.381 126.541 C 24.898 128.804, 24.900 129.198, 26.398 131.484 C 28.450 134.616, 31.709 135.443, 38.304 134.506 C 41.162 134.099, 46.532 133.831, 50.239 133.910 C 55.523 134.021, 57.897 133.561, 61.239 131.776 C 64.156 130.218, 67.865 129.342, 73 129 L 80.500 128.500 80.812 124.148 C 81.284 117.581, 79.203 115.797, 71.745 116.374 C 65.434 116.862, 63.945 115.840, 65.832 112.314 C 66.512 111.043, 66.417 109.518, 65.523 107.394 C 62.882 101.112, 62.717 96.630, 65.019 93.703 C 66.307 92.065, 68.121 91, 69.622 91 C 76.115 91, 80.493 85.571, 78.148 80.426 C 76.857 77.593, 75.755 77.469, 69.967 79.512 C 66.034 80.899, 65.527 80.881, 63.773 79.295 C 61.814 77.522, 61.798 76.532, 63.566 66.500 C 64.326 62.183, 66.492 59, 68.669 59 C 69.416 59, 70.809 58.603, 71.764 58.117 C 72.719 57.631, 74.675 56.688, 76.111 56.022 C 79.579 54.413, 81.052 49.617, 79.501 44.985 C 78.059 40.677, 75.178 40.147, 69.539 43.153" stroke="none" fill="black" fill-rule="evenodd"/>
</svg>