<svg xmlns="http://www.w3.org/2000/svg" width="256" height="256" viewBox="0 0 256 256" version="1.1">
	<path d="M 109.978 31.847 C 104.928 35.980, 102.892 36.820, 99.263 36.269 C 94.843 35.597, 91.719 36.524, 88.077 39.589 C 83.652 43.312, 83.962 46.337, 88.934 47.978 C 91.250 48.743, 94.508 49.015, 96.855 48.639 C 101.811 47.847, 103.900 48.607, 105.045 51.619 C 105.749 53.469, 105.444 54.496, 103.604 56.482 C 101.752 58.481, 100.307 59, 96.595 59 C 88.874 59, 81.482 64.078, 83.873 67.740 C 85.227 69.814, 89.127 71.001, 94.684 71.032 C 99.783 71.060, 104 72.531, 104 74.283 C 104 74.592, 102.313 75.384, 100.250 76.043 C 95.774 77.473, 91.593 81.155, 89.955 85.108 C 88.387 88.894, 89.579 100.277, 91.828 102.985 C 93.798 105.358, 101.472 107, 110.589 107 C 114.063 107, 118.032 107.513, 119.409 108.141 L 121.912 109.281 119.490 111.187 C 117.378 112.848, 116.249 112.983, 110.683 112.237 C 103.659 111.296, 95.583 112.536, 90.500 115.335 C 86.729 117.412, 84.068 117.436, 81.187 115.418 C 79.127 113.976, 78.519 113.976, 74.286 115.418 C 69.437 117.071, 63.040 117.540, 62.945 116.250 C 62.535 110.647, 62.849 95.957, 63.417 94.209 C 63.867 92.822, 65.215 91.705, 66.830 91.380 C 68.299 91.084, 70.697 89.809, 72.159 88.547 C 75.147 85.968, 78.388 80.333, 77.246 79.699 C 76.836 79.471, 74.121 79.246, 71.214 79.198 C 64.457 79.088, 62.520 78.442, 60.724 75.702 C 59.437 73.737, 59.478 72.826, 61.080 67.768 C 62.570 63.061, 64.226 60.722, 70.470 54.498 C 78.011 46.981, 78.041 46.930, 76.292 44.612 C 73.832 41.350, 69.815 39.742, 66.882 40.845 C 64.402 41.777, 52.392 43.476, 40.719 44.545 C 35.079 45.061, 33.678 45.562, 32.393 47.523 C 30.997 49.653, 31.003 50.204, 32.450 53.254 C 33.903 56.316, 34.489 56.651, 38.776 56.869 C 45.492 57.211, 47.513 58.879, 48.742 65.095 C 50.329 73.118, 49.048 75.579, 41.458 79.092 C 38.003 80.692, 34.735 82, 34.195 82 C 32.729 82, 31.921 84.838, 32.608 87.576 C 33.181 89.858, 33.511 89.957, 38.524 89.368 C 43.030 88.839, 44.308 89.083, 46.980 90.986 L 50.127 93.227 49.928 103.863 C 49.769 112.392, 49.342 115.147, 47.775 117.763 C 45.079 122.265, 43.365 122.934, 36.192 122.284 C 29.501 121.677, 26.774 122.933, 25.677 127.127 C 24.790 130.519, 30.361 133.261, 36.500 132.454 C 39.250 132.093, 45.550 131.717, 50.500 131.618 C 55.450 131.520, 60.483 130.891, 61.684 130.220 C 62.886 129.549, 66.628 129, 70 129 C 76.625 129, 80 127.799, 80 125.440 C 80 123.745, 84.302 121.795, 86.327 122.572 C 88.073 123.242, 91 129.404, 91 132.409 C 91 136.789, 92.218 140.857, 94.150 142.931 C 95.882 144.789, 97.238 145, 107.482 145 C 118.134 145, 118.989 145.147, 120.443 147.223 C 121.299 148.445, 122 150.236, 122 151.202 C 122 155.179, 125.142 160.819, 127.717 161.465 C 131.189 162.336, 132.026 161.224, 132.666 154.889 C 132.965 151.925, 133.725 148.996, 134.355 148.381 C 136.183 146.594, 144.315 145.001, 151.693 144.985 C 159.389 144.967, 160.469 144.527, 161.873 140.833 C 163.741 135.920, 157.513 131.467, 151.207 133.208 C 143.058 135.459, 132.668 131.515, 136.040 127.451 C 137.213 126.038, 138.753 125.887, 146.458 126.424 C 151.431 126.772, 156.034 126.696, 156.687 126.257 C 158.600 124.972, 159.812 120.679, 158.929 118.315 C 157.655 114.905, 154.289 113.728, 144.576 113.300 C 136.338 112.937, 133 111.985, 133 109.999 C 133 108.510, 139.464 106.604, 144.932 106.482 C 153.752 106.284, 154.574 105.745, 155.867 99.308 C 158.009 88.641, 157.581 86.604, 152 80.904 C 149.250 78.095, 147 75.505, 147.001 75.149 C 147.001 74.792, 142.951 74.584, 138.001 74.686 C 132.459 74.800, 129 74.482, 129 73.857 C 129 73.218, 133.158 72.928, 140.250 73.073 C 154.002 73.354, 158.052 72.599, 161.368 69.137 C 164.795 65.561, 164.025 63.193, 157.921 58.538 C 153.314 55.024, 153 54.499, 153 50.294 C 153 44.685, 150.672 39.627, 147.405 38.139 C 146.030 37.512, 142.340 36.997, 139.203 36.994 C 131.566 36.987, 126.183 35.368, 122.215 31.884 C 118.032 28.211, 114.433 28.200, 109.978 31.847 M 122.250 50.491 C 115.495 53.427, 119.653 56.943, 130.282 57.283 C 135.397 57.447, 137.298 57.131, 138.016 56 C 139.416 53.794, 138.775 52.700, 134.940 50.752 C 130.824 48.660, 126.660 48.574, 122.250 50.491 M 115 74.464 C 116.375 75.230, 117.636 75.482, 117.802 75.024 C 117.967 74.566, 119.430 74.400, 121.052 74.655 C 122.754 74.924, 124 74.672, 124 74.060 C 124 73.432, 121.656 73.014, 118.250 73.035 C 112.798 73.069, 112.630 73.143, 115 74.464 M 108.266 88.737 C 105.551 89.062, 105.065 89.511, 105.232 91.536 C 105.403 93.593, 106.199 94.107, 110.648 95.031 C 114.457 95.821, 117.001 95.808, 120.077 94.979 C 122.733 94.264, 127.333 94.098, 132.520 94.530 C 138.148 94.999, 140.965 94.866, 141.433 94.108 C 141.810 93.499, 141.615 93, 141 93 C 140.385 93, 140.104 92.641, 140.375 92.202 C 141.736 90, 138.517 89.269, 125.500 88.827 C 117.800 88.565, 110.045 88.525, 108.266 88.737 M 108.750 124.162 C 104.437 125.737, 105.013 129.456, 109.960 131.980 C 117.116 135.630, 120.160 134.509, 120.401 128.136 C 120.577 123.465, 115.448 121.716, 108.750 124.162" stroke="none" fill="black" fill-rule="evenodd"/>
</svg>