<svg xmlns="http://www.w3.org/2000/svg" width="256" height="256" viewBox="0 0 256 256" version="1.1">
	<path d="M 92.315 32.012 C 88.341 33.605, 87.775 36.362, 87.846 53.819 C 87.927 73.920, 87.999 74.056, 99.251 75.155 C 117.812 76.967, 121.180 77.856, 115.868 79.542 C 114.379 80.015, 114.107 80.448, 114.967 80.979 C 116.381 81.854, 112.561 82.706, 103.500 83.539 C 95.298 84.292, 89.037 85.953, 85.715 88.256 C 84.182 89.318, 82.247 89.925, 81.413 89.605 C 80.551 89.274, 80.160 89.450, 80.507 90.011 C 80.843 90.555, 81.965 91, 83 91 C 84.035 91, 85.128 91.398, 85.428 91.884 C 85.729 92.370, 87.960 93.701, 90.387 94.842 C 93.839 96.464, 97.002 96.951, 104.900 97.075 C 110.455 97.162, 115 97.631, 115 98.117 C 115 98.603, 114.213 99.035, 113.250 99.079 C 95.388 99.880, 93.641 100.841, 93.189 110.117 C 92.661 120.948, 92.745 127.372, 93.454 130.500 C 94.178 133.688, 93.947 133.967, 87.290 137.985 C 85.525 139.050, 83.128 141.788, 81.964 144.070 C 80.155 147.616, 80.022 148.638, 81.045 151.109 C 82.585 154.827, 84.776 154.814, 92.753 151.040 C 100.476 147.387, 101.830 145.036, 99.993 138.476 C 98.246 132.235, 99.839 130.571, 107.559 130.571 C 114.250 130.571, 114.964 131.404, 114.985 139.237 C 115 144.909, 114.951 145.006, 110.750 147.637 C 104.252 151.707, 104.013 153.032, 108.834 158.250 C 111.900 161.569, 114.866 161.727, 120.736 158.886 C 127.472 155.625, 128.524 153.288, 128.157 142.395 C 127.812 132.154, 128.486 131, 134.812 131 C 138.918 131, 140.552 133.249, 139.380 137.290 C 137.853 142.554, 138.819 144.672, 145.370 150.424 C 153.126 157.233, 156.179 158.565, 158.401 156.109 C 160.595 153.685, 160.407 149.407, 158 147 C 156.900 145.900, 155.640 145, 155.201 145 C 154.761 145, 153.848 143.468, 153.171 141.595 C 152.493 139.722, 150.828 137.462, 149.470 136.572 C 146.345 134.525, 146.353 132.538, 149.500 128.411 C 152.039 125.082, 152.849 119.642, 150.977 118.486 C 150.414 118.138, 150.138 115.751, 150.364 113.177 C 150.842 107.721, 149.035 103.463, 145.808 102.439 C 144.590 102.052, 142.978 101.121, 142.225 100.368 C 141.473 99.616, 139.989 99, 138.929 99 C 137.868 99, 137 98.483, 137 97.851 C 137 97.029, 139.430 96.874, 145.553 97.307 C 150.257 97.639, 155.215 97.488, 156.571 96.973 C 160.055 95.648, 161.385 91.645, 159.532 88.061 C 157.714 84.547, 155.071 83.859, 144.127 84.053 C 131.585 84.274, 130.068 84.178, 126.232 82.912 C 123.682 82.070, 123.124 81.536, 124.130 80.898 C 125.128 80.266, 125.161 80.026, 124.250 80.015 C 123.563 80.007, 123 79.418, 123 78.707 C 123 76.659, 131.215 75, 141.359 75 C 155.063 75, 154.631 75.842, 153.685 51 C 153.403 43.575, 152.883 36.773, 152.531 35.885 C 151.163 32.439, 147.090 31.881, 120.565 31.505 C 106.229 31.302, 93.517 31.530, 92.315 32.012 M 64.321 44.005 C 63.123 44.488, 54.911 45.201, 46.071 45.589 C 34.718 46.088, 29.679 46.682, 28.906 47.613 C 28.243 48.412, 28.078 50.502, 28.487 52.924 C 29.247 57.420, 31.030 58.464, 37.354 58.118 C 43.715 57.769, 45.717 59.845, 46.553 67.653 C 47.242 74.085, 47.161 74.465, 44.632 76.640 C 43.180 77.889, 40.306 79.182, 38.246 79.513 C 28.339 81.106, 27.653 81.621, 27.568 87.543 C 27.482 93.502, 29.388 95.098, 34.225 93.114 C 39.421 90.984, 42.975 90.649, 45.581 92.044 C 47.589 93.118, 48 94.102, 48 97.837 C 48 104.533, 46.139 115.060, 44.302 118.750 L 42.685 122 34.368 122 C 26.122 122, 26.038 122.026, 24.486 125.028 C 23.043 127.817, 23.061 128.298, 24.710 131.132 C 26.481 134.176, 26.573 134.204, 33.235 133.739 C 36.940 133.481, 40.643 132.711, 41.464 132.030 C 42.640 131.054, 44.017 131.045, 47.945 131.987 C 52.170 133, 53.706 132.926, 57.996 131.501 C 61.032 130.493, 65.351 129.934, 68.780 130.105 C 78.155 130.573, 80.923 128.462, 78.029 123.055 C 76.711 120.592, 69.338 117.767, 66.089 118.480 C 61.055 119.586, 59.822 117.422, 59.514 106.937 C 59.106 93.039, 60.591 91.006, 71.374 90.706 C 77.131 90.546, 79.047 90.116, 79.882 88.796 C 80.573 87.703, 80.608 86.876, 79.980 86.487 C 79.441 86.154, 79 84.870, 79 83.632 C 79 82.395, 78.407 80.571, 77.681 79.579 C 76.491 77.951, 75.833 77.892, 70.931 78.975 C 60.652 81.246, 56.600 77.328, 59.371 67.796 C 61.158 61.648, 62.862 59.779, 68.258 58.046 C 72.616 56.647, 74.361 53.988, 74.175 49.031 C 73.975 43.718, 70.029 41.705, 64.321 44.005 M 102.126 44.348 C 101.275 45.373, 101.451 46.098, 102.860 47.374 C 104.464 48.825, 106.910 49.014, 120.999 48.775 C 135.346 48.533, 137.417 48.288, 138.392 46.722 C 140.316 43.633, 137.307 43.031, 119.872 43.015 C 107.130 43.004, 102.983 43.315, 102.126 44.348 M 105.750 59.572 C 105.338 59.991, 105 60.933, 105 61.667 C 105 62.637, 106.701 62.996, 111.250 62.985 C 117.444 62.970, 121.146 61.813, 119.683 60.349 C 118.634 59.301, 106.674 58.633, 105.750 59.572 M 130.740 60.594 C 129.476 61.858, 131.091 63, 134.142 63 C 136.114 63, 137.024 62.565, 136.756 61.750 C 136.303 60.370, 131.824 59.509, 130.740 60.594 M 131 97.893 C 131 99.044, 133.142 99.830, 134.750 99.269 C 136.930 98.509, 136.099 97, 133.500 97 C 132.125 97, 131 97.402, 131 97.893 M 126.555 111.778 C 126.372 111.961, 122.685 112.105, 118.361 112.098 C 110.120 112.085, 103 113.431, 103 115.003 C 103 117.220, 107.745 118, 121.234 118 C 135.317 118, 138 117.447, 138 114.544 C 138 112.325, 128.342 109.991, 126.555 111.778" stroke="none" fill="black" fill-rule="evenodd"/>
</svg>