<svg xmlns="http://www.w3.org/2000/svg" width="256" height="256" viewBox="0 0 256 256" version="1.1">
	<path d="M 99.394 31.521 C 98.264 33.246, 97.907 35.272, 98.265 37.936 C 98.706 41.226, 98.377 42.214, 96.143 44.305 C 94.690 45.666, 91.618 47.723, 89.318 48.876 C 84.435 51.323, 83.648 52.316, 84.490 54.969 C 84.950 56.417, 86.665 57.227, 91.128 58.105 C 100.371 59.923, 100.408 60.003, 100.036 77.453 C 99.943 81.827, 99.597 85.844, 99.266 86.378 C 98.936 86.912, 98.629 93.041, 98.583 99.996 C 98.484 115.024, 97.768 116.466, 90.949 115.376 C 86.161 114.610, 85.039 115.635, 85.015 120.795 C 85.005 122.975, 85.831 124.922, 87.455 126.545 C 90.449 129.539, 91.524 129.582, 96 126.881 C 97.925 125.719, 99.169 125.114, 98.766 125.536 C 98.362 125.957, 98.671 126.797, 99.454 127.401 C 101.858 129.258, 99.012 134.988, 92.173 142.065 C 85.976 148.478, 85.117 150.482, 87.035 154.066 C 88.965 157.671, 95.616 155.970, 102.242 150.178 C 110.417 143.033, 110.474 142.929, 111.332 133.626 C 111.580 130.946, 112.394 128.367, 113.141 127.895 C 114.153 127.257, 133.386 127.264, 135.872 127.904 C 136.077 127.957, 135.698 128.659, 135.029 129.465 C 130.621 134.777, 142.147 153.064, 152.347 156.942 C 158.706 159.359, 163.875 156.622, 162.593 151.515 C 161.888 148.707, 156.396 142.724, 151.181 139.083 C 147.690 136.646, 145.692 132.967, 146.589 130.629 C 146.887 129.852, 149.259 128.958, 151.980 128.597 C 158.510 127.731, 163.270 123.466, 162.816 118.888 C 162.465 115.351, 161.208 114.379, 155.894 113.535 C 150.804 112.728, 148.415 107.453, 149.435 99.272 C 150.271 92.567, 150.271 92.480, 149.446 80 C 148.607 67.320, 149.917 63.250, 155.721 60.500 C 162.882 57.107, 162.281 52.750, 153.859 47.003 C 148.050 43.039, 147 41.445, 147 36.589 C 147 31.987, 143.491 29.331, 139.282 30.749 C 136.955 31.533, 136.506 32.244, 136.536 35.093 C 136.555 36.967, 136.915 39.487, 137.335 40.694 C 138.634 44.424, 134.960 45.840, 123.149 46.162 C 110.799 46.498, 109.903 45.878, 110.270 37.256 C 110.456 32.882, 110.127 31.568, 108.559 30.420 C 105.445 28.142, 101.280 28.642, 99.394 31.521 M 61.825 44.980 C 60.353 45.424, 53.022 46.115, 45.534 46.516 C 29.364 47.382, 27.731 48.163, 28.832 54.500 L 29.527 58.500 36.514 58.801 C 40.356 58.966, 43.946 59.548, 44.492 60.093 C 45.038 60.638, 45.964 64.014, 46.550 67.594 C 47.405 72.821, 47.344 74.491, 46.241 76.066 C 44.497 78.556, 37.807 82, 34.714 82 C 32.138 82, 27.775 86.006, 27.338 88.772 C 26.574 93.609, 30.236 95.585, 34.527 92.652 C 35.612 91.910, 37.896 91.035, 39.601 90.706 C 47.778 89.132, 49.740 92.771, 47.950 106.189 C 46.477 117.232, 44.314 122.598, 41.463 122.282 C 32.404 121.279, 28.109 121.593, 26.105 123.405 C 23.310 125.935, 23.444 129.129, 26.467 131.969 C 28.645 134.015, 29.600 134.218, 34.623 133.699 C 37.752 133.376, 40.632 132.595, 41.023 131.962 C 41.514 131.168, 43.725 131.026, 48.171 131.502 C 52.970 132.016, 55.544 131.800, 58.289 130.653 C 60.633 129.673, 64.533 129.184, 69.017 129.307 C 76.326 129.507, 77.950 128.692, 77.985 124.801 C 78.007 122.273, 71.645 117.896, 67.052 117.280 C 64.840 116.983, 62.567 116.184, 62.002 115.503 C 61.438 114.822, 60.868 109.664, 60.738 104.040 C 60.503 93.931, 60.532 93.789, 63.284 91.593 C 64.815 90.371, 68.304 88.566, 71.038 87.583 C 76.424 85.647, 76.756 85.336, 77.971 81.101 C 79.344 76.314, 78.014 75.437, 71.685 76.956 C 61.655 79.362, 57.823 76.460, 60.038 68.134 C 61.613 62.208, 63.605 59, 65.707 59 C 66.621 59, 69.359 58.036, 71.792 56.859 C 76.045 54.800, 76.193 54.578, 75.638 51.109 C 74.651 44.936, 69.515 42.658, 61.825 44.980 M 115.750 61.080 C 113.870 62.175, 113.463 65.603, 114.936 67.931 C 115.675 69.098, 116.867 69.177, 121.388 68.358 C 125.541 67.605, 127.691 67.671, 129.950 68.621 C 132.493 69.690, 133.206 69.651, 134.484 68.373 C 136.301 66.556, 136.464 62.864, 134.800 61.200 C 133.319 59.719, 118.250 59.624, 115.750 61.080 M 115.272 82.211 C 114.047 82.802, 112.784 84.105, 112.467 85.105 C 111.781 87.266, 113.563 90.997, 115.285 91.007 C 115.953 91.010, 120.660 91.196, 125.745 91.419 C 135.494 91.847, 136.163 91.588, 136.774 87.134 C 137.406 82.538, 134.559 80.993, 125.595 81.068 C 121.143 81.105, 116.497 81.619, 115.272 82.211 M 130.500 103.958 C 129.400 104.408, 125.575 104.560, 122 104.296 C 113.780 103.689, 111.005 105.261, 112.543 109.653 C 113.504 112.398, 113.844 112.524, 122.020 113.174 C 126.684 113.544, 131.729 114.157, 133.232 114.537 C 135.571 115.127, 136.110 114.841, 136.982 112.548 C 138.474 108.622, 138.230 105.895, 136.250 104.392 C 134.256 102.878, 133.316 102.807, 130.500 103.958" stroke="none" fill="black" fill-rule="evenodd"/>
</svg>