<svg xmlns="http://www.w3.org/2000/svg" width="256" height="256" viewBox="0 0 256 256" version="1.1">
	<path d="M 94.704 36.563 C 93.166 37.415, 91.479 39.241, 90.954 40.621 C 89.519 44.396, 89.845 66.412, 91.470 75.500 C 92.257 79.900, 92.652 85.120, 92.347 87.099 C 91.994 89.390, 92.361 91.797, 93.356 93.722 C 94.871 96.651, 95.177 96.759, 103.210 97.188 C 107.769 97.432, 112.850 98.280, 114.500 99.074 C 117.086 100.317, 117.541 101.136, 117.794 105.008 C 117.973 107.739, 117.532 110.260, 116.669 111.440 C 115.334 113.264, 114.906 113.297, 109.498 112 C 104.187 110.725, 103.470 110.768, 100.135 112.560 C 93.664 116.036, 95.005 120.489, 102.832 121.512 C 111.326 122.621, 116.055 124.887, 117.602 128.589 C 119.095 132.164, 119.446 138.804, 118.235 140.573 C 116.743 142.751, 113.819 142.949, 110.192 141.116 C 107.085 139.546, 104.895 139.325, 96.362 139.721 C 90.145 140.009, 85.450 139.776, 84.223 139.119 C 82.491 138.192, 82.050 138.465, 80.936 141.153 C 79.871 143.725, 79.895 144.965, 81.075 148.379 C 82.406 152.227, 82.864 152.591, 88 153.870 C 92.435 154.974, 95.737 155.025, 105.053 154.133 C 111.474 153.518, 117.916 153.389, 119.553 153.842 C 121.174 154.291, 128.575 154.729, 136 154.815 C 143.425 154.902, 151.075 155.210, 153 155.500 C 157.278 156.145, 162.010 154.931, 163.321 152.853 C 164.849 150.431, 163.242 146.172, 160.236 144.672 C 157.337 143.227, 141.860 140.279, 136.039 140.064 C 131.710 139.904, 131.272 139.178, 131.952 133.294 C 132.687 126.934, 134.744 125.938, 146.780 126.117 C 154.410 126.231, 156.411 125.938, 158.030 124.473 C 160.657 122.095, 160.556 118.368, 157.825 116.906 C 155.600 115.716, 146.223 113.666, 137.773 112.524 C 131.894 111.729, 130.278 109.734, 132.245 105.702 C 133.551 103.024, 137.674 101.829, 145.553 101.846 C 149.432 101.855, 153.082 101.555, 153.664 101.181 C 157.895 98.457, 159.500 85.422, 159.500 53.777 C 159.500 34.272, 162.391 35.876, 126.362 35.397 C 101.672 35.069, 97.096 35.237, 94.704 36.563 M 69.500 45.073 C 67.850 45.581, 58.625 46.178, 49 46.400 C 39.375 46.623, 30.712 47.122, 29.750 47.509 C 28.416 48.046, 28 49.383, 28 53.132 C 28 59.057, 29.531 59.984, 38.107 59.254 C 45.330 58.638, 48 59.998, 48 64.292 C 48 66.064, 48.443 69.058, 48.984 70.945 C 50.307 75.556, 48.599 77.318, 40.134 80.076 C 33.176 82.344, 30.059 85.006, 30.022 88.715 C 29.995 91.404, 32.772 93.041, 35.500 91.945 C 36.600 91.502, 39.852 91.109, 42.727 91.070 C 47.225 91.010, 48.180 91.345, 49.574 93.473 C 50.996 95.643, 51.052 97.023, 50.027 104.720 C 48.756 114.271, 46.783 119.510, 43.871 121.069 C 42.837 121.623, 39.840 121.782, 37.160 121.427 C 28.032 120.216, 21.948 125.948, 27 131 C 29.528 133.528, 37.489 133.746, 40.868 131.380 C 42.839 130, 44.005 129.926, 48.757 130.880 C 56.279 132.391, 56.402 132.374, 59.978 129.365 C 62.680 127.091, 63.451 126.885, 65.593 127.860 C 66.958 128.482, 70.421 129.267, 73.288 129.603 C 77.704 130.121, 78.776 129.909, 80.309 128.214 C 82.018 126.323, 82.028 125.905, 80.498 120.640 C 79.042 115.634, 78.554 115.008, 75.689 114.479 C 73.935 114.155, 70.475 114.027, 68 114.195 L 63.500 114.500 62.589 106.688 C 62.041 101.987, 62.041 97.407, 62.589 95.188 C 63.413 91.850, 63.880 91.447, 67.500 90.945 C 75.078 89.894, 78.671 86.332, 77.505 81.025 C 76.701 77.362, 75.327 76.892, 70.453 78.617 C 65.720 80.292, 62.451 79.711, 60.963 76.931 C 60.116 75.348, 60.347 73.342, 61.986 68.045 L 64.104 61.203 69.802 59.351 C 74.948 57.679, 75.622 57.127, 76.757 53.650 C 77.768 50.555, 77.766 49.284, 76.749 47.163 C 75.320 44.180, 73.813 43.746, 69.500 45.073 M 108.295 48.107 C 104.643 49.163, 102 52.371, 102 55.747 C 102 58.703, 104.930 59.753, 111.696 59.222 C 117.900 58.735, 120.662 55.871, 119.041 51.607 C 117.434 47.382, 114.315 46.366, 108.295 48.107 M 135.500 50.155 C 130.487 52.896, 130.299 57.069, 135.077 59.540 C 141.004 62.605, 147.130 60.270, 146.238 55.286 C 145.231 49.662, 140.518 47.410, 135.500 50.155 M 109.500 72.945 C 104.799 74.869, 102.107 80.901, 104.858 83.344 C 106.551 84.847, 113.195 86.985, 116.205 86.994 C 117.142 86.997, 118.999 85.910, 120.331 84.578 C 126.271 78.638, 117.806 69.546, 109.500 72.945 M 134.798 74.712 C 132.493 75.063, 130.029 78.368, 130.939 79.888 C 131.066 80.102, 130.644 80.602, 130.001 80.999 C 129.211 81.487, 129.715 82.417, 131.551 83.861 C 135.056 86.618, 141.978 86.786, 144.345 84.171 C 146.707 81.561, 146.434 77.418, 143.777 75.557 C 141.592 74.026, 140.172 73.892, 134.798 74.712" stroke="none" fill="black" fill-rule="evenodd"/>
</svg>