<svg xmlns="http://www.w3.org/2000/svg" width="256" height="256" viewBox="0 0 256 256" version="1.1">
	<path d="M 83.500 35.131 C 81.300 35.626, 71.650 36.255, 62.055 36.528 C 48.835 36.905, 44.052 37.391, 42.305 38.536 C 39.127 40.618, 39.252 44.989, 42.572 47.875 C 44.972 49.962, 45.495 50.033, 50.424 48.930 C 56.458 47.579, 61.511 48.697, 64.550 52.055 C 66.219 53.900, 66.255 54.901, 65.077 66.767 C 64.382 73.770, 63.208 82.438, 62.467 86.028 C 61.727 89.619, 61.036 95.469, 60.932 99.028 C 60.829 102.588, 59.887 110.225, 58.840 116 C 57.793 121.775, 56.745 129.642, 56.510 133.483 C 56.019 141.514, 54.805 143, 48.732 143 C 41.183 143, 35.573 152.481, 41.519 155.191 C 43.424 156.058, 45.617 156.048, 50.506 155.147 C 54.063 154.491, 58.078 154.232, 59.428 154.571 C 60.777 154.910, 64.946 154.497, 68.691 153.653 C 72.436 152.809, 79.550 151.815, 84.500 151.444 C 97.265 150.488, 106 146.435, 106 141.466 C 106 138.309, 102.466 137.264, 89.298 136.526 C 80.248 136.019, 77.523 136.195, 75.112 137.442 C 69.921 140.126, 68.644 138.713, 69.373 131.093 C 69.720 127.467, 70.193 123.375, 70.424 122 C 70.656 120.625, 71.352 114.550, 71.972 108.500 C 73.971 89.004, 74.007 88.839, 76.838 86.009 C 79.350 83.496, 80.087 83.334, 89.597 83.201 C 97.393 83.091, 100.909 83.505, 105.047 85.017 C 113.461 88.093, 113.474 88.120, 113.682 103.786 C 113.863 117.479, 114.455 122.189, 117.413 133.500 C 118.276 136.800, 119.223 141.142, 119.517 143.149 C 120.288 148.401, 123.084 151.369, 130.748 155.071 C 142.128 160.568, 154.069 159.185, 157.733 151.945 C 159.562 148.332, 159.365 134.967, 157.443 132.223 C 154.139 127.505, 148 130.924, 148 137.482 C 148 141.122, 146.018 142.575, 139.779 143.510 C 136.536 143.997, 134.406 143.744, 132.223 142.615 C 128.121 140.494, 127.605 137.206, 127.412 112 C 127.147 77.258, 125.218 69.277, 116.509 66.888 C 113.161 65.969, 111.470 66.132, 106.009 67.897 C 102.429 69.054, 98.600 69.757, 97.500 69.457 C 96.400 69.158, 91.685 68.821, 87.023 68.707 C 78.875 68.508, 78.510 68.399, 77.633 65.902 C 76.278 62.043, 77.781 56.065, 80.887 52.959 C 85.036 48.811, 92.355 47.643, 106.201 48.922 C 121.807 50.364, 145.691 48.946, 150.224 46.308 C 159.070 41.162, 149.980 32.541, 139.392 36.036 C 134.002 37.814, 101.966 37.396, 95.542 35.462 C 90.176 33.848, 89.305 33.824, 83.500 35.131 M 80.480 101.022 C 78.759 102.924, 78.747 103.247, 80.287 106.477 C 81.188 108.365, 83.382 110.663, 85.163 111.584 C 86.945 112.506, 89.029 113.886, 89.796 114.653 C 90.562 115.419, 92.609 116.772, 94.345 117.660 C 96.080 118.547, 99.189 120.786, 101.253 122.636 C 103.317 124.486, 105.889 126, 106.968 126 C 109.377 126, 110.889 123.249, 110.093 120.315 C 109.423 117.845, 105.472 113, 104.128 113 C 103.642 113, 101.542 110.530, 99.463 107.511 C 97.384 104.492, 94.645 101.342, 93.377 100.511 C 89.938 98.258, 82.723 98.544, 80.480 101.022" stroke="none" fill="black" fill-rule="evenodd"/>
</svg>