<svg xmlns="http://www.w3.org/2000/svg" width="256" height="256" viewBox="0 0 256 256" version="1.1">
	<path d="M 124.250 29.662 C 123.468 29.978, 123 32.176, 123 35.536 C 123 40.730, 121.458 46, 119.939 46 C 119.532 46, 116.791 44.879, 113.849 43.510 C 110.907 42.140, 107.557 41.015, 106.405 41.010 C 103.606 40.997, 101 37.957, 101 34.706 C 101 31.554, 97.902 29.557, 94.383 30.440 C 92.642 30.877, 91.268 32.597, 89.539 36.508 C 87.302 41.567, 86.644 42.186, 80.538 44.983 C 76.914 46.642, 73.521 48, 72.997 48 C 72.473 48, 69.576 46.789, 66.558 45.309 C 61.299 42.730, 60.813 42.669, 54.786 43.833 C 51.329 44.501, 44.354 45, 39.286 44.942 C 34.219 44.884, 29.575 45.145, 28.966 45.521 C 26.591 46.989, 26.284 50.366, 28.226 53.658 C 30.160 56.936, 30.820 57.311, 36.758 58.507 C 40.989 59.358, 42 61.451, 42 69.358 C 42 74.880, 41.614 76.305, 39.411 78.923 C 37.340 81.384, 36.047 82, 32.946 82 C 28.739 82, 26.317 84.594, 26.877 88.500 C 27.421 92.298, 29.593 93.549, 33.311 92.204 C 38.561 90.306, 41.492 90.683, 42.971 93.446 C 44.843 96.944, 43.511 116.374, 41.117 120.500 C 39.450 123.372, 39.079 123.501, 32.438 123.530 C 24.326 123.565, 22.989 124.173, 23.032 127.809 C 23.098 133.393, 27.954 136.542, 34.864 135.482 C 37.414 135.091, 42.827 134.841, 46.893 134.926 C 57.256 135.145, 64.402 133.464, 68.533 129.836 C 73.700 125.300, 72.487 123.360, 62.703 120.516 C 56.545 118.726, 54.413 116.380, 55.612 112.712 C 56.010 111.496, 56.241 107.276, 56.126 103.336 C 55.938 96.901, 56.147 96.010, 58.181 94.586 C 59.426 93.714, 61.409 93, 62.588 93 C 65.624 93, 70.003 89.257, 69.985 86.677 C 69.963 83.662, 69.173 82.826, 63.917 80.262 C 56.483 76.636, 55.468 74.812, 55.844 65.763 C 55.993 62.183, 56.295 61.877, 62.975 58.513 C 66.811 56.581, 70.974 55.002, 72.225 55.004 C 75.601 55.009, 80.860 58.593, 81.555 61.361 C 82.157 63.761, 80.021 69.251, 78 70.500 C 76.169 71.632, 73.885 77.062, 74.468 78.898 C 74.782 79.887, 76.223 81.236, 77.671 81.896 C 80.581 83.222, 93 83.178, 93 81.842 C 93 81.379, 94.575 81, 96.500 81 C 98.425 81, 100 81.477, 100 82.059 C 100 82.641, 100.338 82.918, 100.750 82.673 C 101.162 82.428, 102.977 83.028, 104.782 84.005 L 108.063 85.782 105.032 86.839 C 103.364 87.420, 102 88.369, 102 88.948 C 102 89.527, 100.313 89.993, 98.250 89.985 C 95.721 89.974, 94.949 89.685, 95.879 89.096 C 97.615 87.997, 89.178 87.202, 85.817 88.148 C 84.543 88.507, 83.950 88.866, 84.500 88.945 C 85.050 89.025, 84.152 89.665, 82.504 90.367 C 79.813 91.515, 79.497 92.123, 79.391 96.342 C 79.324 99.053, 78.613 101.771, 77.709 102.770 C 76.567 104.032, 76.184 106.391, 76.291 111.500 C 76.392 116.339, 75.907 119.583, 74.719 122.009 C 73.358 124.789, 73.209 126.242, 74.003 129.009 C 75.085 132.783, 74.262 144.720, 72.859 145.587 C 72.387 145.879, 72 148.518, 72 151.452 C 72 157.117, 72.753 158, 77.582 158 C 81.370 158, 83.610 154.868, 84.968 147.668 C 86.376 140.209, 88 137.853, 92.899 136.169 C 98.115 134.375, 100.656 134.747, 102.927 137.635 C 105.536 140.952, 105.535 142.979, 102.922 147.408 C 100.406 151.671, 101.037 154.358, 104.931 155.971 C 107.268 156.940, 108.353 156.869, 110.834 155.586 C 112.505 154.721, 114.235 153.449, 114.676 152.757 C 115.666 151.207, 117.141 138.760, 116.898 134 C 116.800 132.075, 116.776 128.475, 116.845 126 C 117.080 117.582, 117.090 114.502, 116.888 113 C 116.776 112.175, 116.756 108.286, 116.842 104.357 C 116.960 99.036, 117.383 97.067, 118.500 96.638 C 120.358 95.926, 123.171 96.914, 122.478 98.035 C 121.983 98.836, 121.808 104.893, 122.020 113.855 C 122.076 116.251, 121.888 118.446, 121.601 118.732 C 121.314 119.019, 121.756 120.874, 122.583 122.854 C 123.638 125.378, 123.892 128.013, 123.435 131.676 C 121.569 146.605, 132.606 158.366, 148.500 158.388 C 152.350 158.394, 156.551 157.822, 157.835 157.118 C 161.935 154.871, 164.565 145.533, 161.750 143.216 C 159.606 141.453, 154.533 141.174, 150.433 142.595 C 143.371 145.042, 139.259 145.285, 138.159 143.320 C 137.397 141.958, 137.752 141.033, 139.744 139.187 C 142.023 137.074, 142.906 136.883, 147.645 137.475 C 150.579 137.841, 153.910 137.846, 155.047 137.485 C 157.981 136.554, 159.381 132.335, 157.924 128.816 C 156.806 126.117, 156.473 126, 149.938 126 C 146.187 126, 142.846 126.441, 142.513 126.980 C 142.128 127.601, 141.232 127.537, 140.058 126.804 C 138.516 125.841, 138.430 125.427, 139.543 124.314 C 140.690 123.167, 143.089 122.780, 153.179 122.111 C 158.239 121.776, 159.686 114.471, 155.365 111.073 C 153.916 109.933, 153.241 109, 153.865 109 C 154.489 109, 155 108.380, 155 107.622 C 155 106.865, 155.675 105.685, 156.500 105 C 157.325 104.315, 158 102.933, 158 101.928 C 158 99.524, 151.990 95, 148.795 95 C 147.411 95, 144.227 94.719, 141.719 94.375 L 137.159 93.750 139.534 91.375 C 141.556 89.353, 142.894 89, 148.531 89 C 154.517 89, 155.435 88.719, 158.076 86.078 C 159.683 84.471, 160.755 82.524, 160.458 81.751 C 160.161 80.978, 160.320 79.255, 160.812 77.922 C 161.408 76.305, 161.270 74.503, 160.397 72.500 C 159.678 70.850, 159.070 67.412, 159.045 64.861 C 159.016 61.835, 158.335 59.400, 157.087 57.861 C 155.364 55.734, 154.377 55.500, 147.139 55.500 C 138.845 55.500, 136.406 54.580, 137.974 52.042 C 138.593 51.040, 141.562 50.434, 147.729 50.051 C 157.686 49.432, 162 47.498, 162 43.651 C 162 42.385, 160.837 40.258, 159.416 38.924 C 157.062 36.716, 156.001 36.500, 147.484 36.500 C 138.773 36.500, 137.944 36.321, 135.318 33.872 C 130.690 29.557, 127.510 28.347, 124.250 29.662 M 116.661 53.482 C 114.311 55.832, 113.552 61.612, 115.012 66.035 C 116.563 70.736, 115.756 76.486, 113.028 80.176 C 110.161 84.054, 110.495 86.349, 114.428 89.802 C 116.313 91.457, 117.645 93.022, 117.388 93.279 C 117.131 93.536, 117.838 93.986, 118.959 94.279 C 120.081 94.572, 121.250 94.404, 121.558 93.906 C 121.866 93.408, 121.586 93, 120.937 93 C 120.064 93, 120.086 92.601, 121.020 91.476 C 121.716 90.638, 122.014 89.680, 121.682 89.349 C 120.722 88.389, 123.680 83.440, 126.201 81.788 C 127.468 80.958, 131.787 79.969, 135.798 79.590 C 139.810 79.212, 143.750 78.649, 144.554 78.341 C 146.211 77.705, 147.483 73.702, 146.688 71.629 C 146 69.836, 139.908 68.714, 136.873 69.822 C 135.568 70.298, 132.925 70.594, 131 70.480 C 123 70.006, 122.594 69.547, 122 60.298 C 121.605 54.160, 121.156 52.454, 119.871 52.210 C 118.976 52.039, 117.531 52.612, 116.661 53.482 M 95.400 56.744 C 90.985 59.776, 92.365 66.295, 97.523 66.780 C 99.919 67.005, 100.740 66.536, 101.730 64.374 C 103.919 59.591, 99.322 54.050, 95.400 56.744 M 95.500 99.655 C 94.400 99.888, 92.487 100.294, 91.250 100.558 C 89.527 100.926, 89 101.737, 89 104.019 C 89 105.659, 89.418 107, 89.929 107 C 90.439 107, 91.577 107.720, 92.457 108.600 C 94.791 110.934, 100.657 110.844, 102.436 108.448 C 103.231 107.377, 103.717 105.600, 103.515 104.500 C 103.314 103.400, 103.115 102.235, 103.074 101.911 C 103.006 101.369, 98.167 98.851, 97.703 99.116 C 97.591 99.180, 96.600 99.422, 95.500 99.655 M 139.923 105.750 C 139.881 106.162, 139.696 107.287, 139.512 108.250 C 139.225 109.749, 139.984 110, 144.811 110 L 150.445 110 147.973 108.257 C 146.613 107.299, 145.200 106.511, 144.833 106.507 C 144.467 106.503, 143.829 106.162, 143.417 105.750 C 143.004 105.338, 142.067 105, 141.333 105 C 140.600 105, 139.966 105.338, 139.923 105.750 M 91.250 119.525 C 90.013 120.847, 89 122.319, 89 122.795 C 89 124.975, 97.172 127.265, 100.471 126.011 C 103.423 124.889, 104.161 122.750, 102.690 119.581 C 101.042 116.030, 94.553 115.998, 91.250 119.525" stroke="none" fill="black" fill-rule="evenodd"/>
</svg>