<svg xmlns="http://www.w3.org/2000/svg" width="256" height="256" viewBox="0 0 256 256" version="1.1">
	<path d="M 59.175 31.506 C 57.109 33.245, 55.814 35.618, 54.947 39.256 C 53.497 45.339, 51.960 48.098, 47.196 53.171 C 43.675 56.920, 40.543 65.645, 41.667 68.574 C 42.918 71.835, 38.012 85.028, 32.490 93.250 L 29.971 97 32.235 96.985 C 33.481 96.976, 34.950 96.639, 35.500 96.235 C 38.071 94.346, 43.595 86.075, 47.610 78.101 C 54.063 65.287, 54.761 64.796, 66.684 64.676 C 79.330 64.548, 88.781 67.211, 90.877 71.492 C 92.674 75.160, 93.888 90.456, 92.523 92.233 C 91.747 93.243, 87.437 93.583, 74.691 93.641 C 56.328 93.725, 54.962 94.109, 56.560 98.745 C 58.295 103.776, 63.666 105.444, 78.358 105.513 C 94.941 105.592, 94.217 104.727, 93.387 123.448 C 92.669 139.668, 91.834 141.955, 86.790 141.527 C 84.981 141.374, 74.821 141.109, 64.213 140.939 C 45.964 140.645, 44.818 140.738, 42.904 142.652 C 40.513 145.043, 41.055 148.834, 44.194 151.676 C 45.974 153.287, 48.148 153.500, 62.854 153.500 C 73.987 153.500, 81.061 153.046, 84.214 152.130 C 87.903 151.058, 90.296 150.994, 95.214 151.834 C 105.082 153.519, 140.066 154.264, 145.469 152.904 C 151.324 151.429, 154.351 147.874, 153.408 143.580 C 152.058 137.436, 146.397 135.870, 136.538 138.916 C 128.918 141.269, 122.259 141.486, 113.510 139.667 C 105.682 138.040, 105.029 136.718, 105.030 122.500 C 105.031 110.885, 105.264 109.950, 108.595 108.198 C 110.422 107.237, 124.620 105.471, 136.386 104.741 C 141.617 104.417, 143.895 101.324, 141.277 98.101 C 139.133 95.462, 127.373 93.088, 116.184 93.035 C 106.174 92.987, 105.385 92.418, 104.552 84.645 C 102.966 69.833, 105.712 67.344, 122.500 68.377 C 128 68.716, 135.388 69.279, 138.917 69.628 C 146.075 70.338, 148 69.138, 148 63.964 C 148 59.654, 145.212 58.002, 137.921 57.988 C 134.390 57.982, 129.025 57.312, 126 56.500 C 122.975 55.688, 118.752 55.018, 116.616 55.012 C 114.480 55.005, 111.047 54.495, 108.988 53.878 C 105.899 52.953, 105.047 52.101, 104.122 49.012 C 103.505 46.953, 103 42.998, 103 40.223 C 103 35.817, 102.610 34.850, 99.923 32.589 C 96.506 29.713, 95.730 29.539, 92.955 31.024 C 91.258 31.933, 91.067 33.073, 91.270 41.102 C 91.559 52.498, 91.058 53, 79.381 53 C 71.675 53, 71.012 52.831, 69.073 50.365 C 66.494 47.087, 66.472 44.232, 69 41 C 71.705 37.542, 71.599 32.533, 68.777 30.557 C 65.600 28.331, 62.595 28.628, 59.175 31.506" stroke="none" fill="black" fill-rule="evenodd"/>
</svg>