<svg xmlns="http://www.w3.org/2000/svg" width="256" height="256" viewBox="0 0 256 256" version="1.1">
	<path d="M 84.162 33.963 L 55.824 34.500 53.487 37.219 C 51.360 39.693, 51.199 40.597, 51.703 47.257 C 52.008 51.283, 51.754 56.920, 51.139 59.786 C 50.250 63.933, 50.323 66.270, 51.496 71.248 C 52.307 74.686, 52.977 79.802, 52.985 82.615 C 53.002 88.359, 55.428 92.428, 59.881 94.179 C 61.322 94.746, 67.612 95.148, 73.859 95.073 C 81.167 94.985, 85.714 95.348, 86.609 96.091 C 88.085 97.316, 88.509 102.158, 87.250 103.417 C 86.838 103.829, 86.500 104.692, 86.500 105.333 C 86.500 106.873, 71.173 107.786, 64.500 106.644 C 57.706 105.482, 46.071 106.626, 43.801 108.681 C 41.506 110.757, 41.478 114.663, 43.750 115.823 C 45.958 116.950, 62.334 119.088, 67.029 118.862 C 68.969 118.769, 71.609 119.255, 72.894 119.943 C 74.883 121.008, 75.144 121.727, 74.647 124.789 C 74.326 126.767, 73.433 128.738, 72.663 129.169 C 71.892 129.600, 70.724 131.253, 70.065 132.842 C 68.697 136.146, 57.911 144.311, 53.470 145.404 C 46.997 146.998, 43.214 151.732, 44.456 156.682 C 45.595 161.221, 48.448 161.491, 57.867 157.953 C 64.532 155.449, 67.538 153.660, 71.054 150.105 C 73.559 147.572, 76.934 144.356, 78.554 142.958 C 80.174 141.560, 83.300 137.745, 85.500 134.479 C 94.177 121.600, 99.271 118.690, 115.258 117.478 C 122.634 116.919, 123.973 117.098, 128 119.177 C 131.643 121.057, 132.556 122.075, 132.796 124.521 C 133.247 129.117, 128.651 138.612, 125.083 140.457 C 123.444 141.305, 120.055 143.380, 117.552 145.070 C 113.608 147.731, 113 148.607, 113 151.626 C 113 154.894, 113.346 155.263, 118.586 157.580 C 125.130 160.474, 132.004 161.070, 134.550 158.963 C 136.975 156.957, 140.978 148.110, 140.990 144.731 C 140.996 143.208, 142.096 138.825, 143.436 134.991 C 144.851 130.941, 146.110 124.557, 146.440 119.759 C 147.285 107.477, 147.533 107.653, 128.208 106.851 C 119.569 106.492, 110.198 106.434, 107.384 106.721 C 102.509 107.219, 102.199 107.106, 100.808 104.316 C 99.792 102.281, 99.632 100.750, 100.282 99.293 C 101.164 97.317, 102.168 97.170, 117.859 96.711 C 127.011 96.443, 135.400 95.983, 136.500 95.688 C 137.600 95.394, 139.011 95.119, 139.636 95.077 C 140.261 95.034, 141.529 93.405, 142.454 91.455 C 143.920 88.365, 144.085 84.912, 143.738 64.539 C 143.284 37.933, 142.920 36.520, 136.258 35.541 C 134.191 35.238, 129.998 34.542, 126.940 33.995 C 123.882 33.448, 119.382 33.096, 116.940 33.213 C 114.498 33.329, 99.748 33.667, 84.162 33.963 M 68.500 46.757 C 65.771 47.361, 62 50.983, 62 53 C 62 53.908, 63.049 55.637, 64.332 56.842 C 66.531 58.908, 67.253 58.994, 77.082 58.359 C 88.979 57.590, 92.237 56.134, 91.311 52 C 91.004 50.625, 90.245 48.992, 89.626 48.371 C 88.471 47.214, 72.093 45.963, 68.500 46.757 M 109.085 48.699 C 105.006 50.850, 103.569 54.031, 105.492 56.652 C 106.686 58.280, 108.138 58.472, 117.674 58.265 C 129.594 58.005, 131.698 56.975, 130.474 52 C 129.501 48.047, 128.393 47.530, 120.205 47.205 C 114.275 46.969, 111.713 47.313, 109.085 48.699 M 64.750 73.725 C 58.987 79.770, 62.969 84.285, 73.206 83.314 C 76.339 83.017, 80.368 83.296, 82.344 83.948 C 85.259 84.911, 86.419 84.835, 88.971 83.515 C 90.673 82.635, 91.855 81.575, 91.599 81.160 C 91.342 80.744, 91.511 79.791, 91.975 79.040 C 92.476 78.230, 92.348 77.207, 91.659 76.521 C 88.421 73.297, 84.938 72.146, 76.500 71.514 C 67.512 70.842, 67.496 70.844, 64.750 73.725 M 108.946 72.805 C 107.541 73.187, 105.156 74.483, 103.646 75.683 C 101.209 77.621, 101.046 78.100, 102.197 79.945 C 103.992 82.818, 106.139 83.328, 116.500 83.344 C 126.436 83.358, 131.311 81.794, 131.794 78.435 C 132.350 74.569, 128.836 72.815, 119.803 72.448 C 115.236 72.262, 110.351 72.423, 108.946 72.805" stroke="none" fill="black" fill-rule="evenodd"/>
</svg>