<svg xmlns="http://www.w3.org/2000/svg" width="256" height="256" viewBox="0 0 256 256" version="1.1">
	<path d="M 69.500 27.860 C 67.300 28.859, 63.025 30.474, 60 31.451 C 52.937 33.730, 46.424 37.458, 45.546 39.723 C 44.040 43.608, 41.484 79.808, 42.445 83.636 C 42.845 85.230, 44.311 86.650, 46.503 87.566 C 50.976 89.435, 60.798 89.400, 65.346 87.500 C 70.562 85.320, 73.853 85.636, 80.186 88.922 C 85.472 91.664, 86.078 91.766, 90.074 90.586 C 94.100 89.397, 95.716 89.508, 104.145 91.552 C 107.930 92.469, 113.537 89.533, 115.071 85.829 C 115.761 84.162, 117.339 81.306, 118.578 79.481 C 121.336 75.415, 126.054 60.299, 126.686 53.500 C 127.276 47.150, 129.026 45.658, 134.878 46.518 C 137.286 46.871, 139.842 47.386, 140.558 47.661 C 144.387 49.130, 145.202 63.335, 141.897 71.017 C 139.621 76.308, 137.984 77.691, 130.838 80.358 C 128.274 81.315, 125.930 82.739, 125.630 83.522 C 124.887 85.458, 129.256 90.449, 133.081 92.033 C 137.156 93.721, 145.369 91.817, 149.126 88.312 C 152.442 85.220, 155.414 73.833, 156.919 58.454 C 158.585 41.429, 158.398 37.717, 155.750 35.264 C 153.420 33.105, 151.333 32.983, 113.722 32.808 C 107.051 32.777, 101.666 35.686, 100.096 40.169 C 98.807 43.848, 100.346 45.527, 107 47.702 C 111.875 49.296, 112.539 49.841, 112.847 52.500 C 113.241 55.910, 111.457 64.799, 109.335 70 C 107.491 74.520, 101.625 79, 97.551 79 C 95.569 79, 93.157 77.942, 90.962 76.110 C 87.617 73.317, 87.497 72.973, 87.406 65.947 C 87.315 58.908, 87.195 58.567, 83.671 55.337 C 81.668 53.502, 79.598 52, 79.070 52 C 78.543 52, 76.871 53.067, 75.355 54.371 C 72.612 56.730, 72.605 56.772, 73.780 63.091 C 74.449 66.688, 74.584 69.816, 74.091 70.309 C 71.576 72.824, 58.008 71.040, 57.988 68.191 C 57.981 67.261, 57.757 62.367, 57.491 57.316 L 57.007 48.131 59.913 46.062 C 61.512 44.924, 65.898 43.270, 69.660 42.387 C 83.985 39.025, 83.952 39.038, 84.581 36.535 C 85.483 32.941, 84.179 30.080, 80.661 27.935 C 76.755 25.553, 74.613 25.539, 69.500 27.860 M 33.543 97.931 C 33.226 98.443, 33.425 99.144, 33.984 99.490 C 34.543 99.835, 35 99.416, 35 98.559 C 35 96.802, 34.400 96.544, 33.543 97.931 M 80 98.160 C 78.566 98.753, 74.213 98.954, 69.793 98.631 C 62.128 98.072, 62.076 98.085, 59.972 101.039 C 58.809 102.672, 57.997 105.069, 58.167 106.365 C 58.337 107.661, 57.925 109.386, 57.252 110.197 C 55.626 112.155, 55.394 120.230, 56.421 139 C 57.594 160.416, 59.466 163.335, 69.251 159.007 C 73.697 157.040, 75.937 156.904, 107.077 156.698 C 145.716 156.442, 143.449 157.124, 142.651 146 C 142.395 142.425, 142.634 136.036, 143.183 131.803 C 143.991 125.575, 143.886 123.097, 142.630 118.814 C 141.638 115.430, 141.425 113.175, 142.039 112.561 C 143.112 111.488, 143.341 104.052, 142.379 101.545 C 141.421 99.049, 136.923 97.300, 132.500 97.704 C 130.300 97.905, 123.321 98.249, 116.992 98.468 C 110.662 98.687, 104.220 99.346, 102.676 99.933 C 98.414 101.553, 93.858 101.211, 90.226 98.996 C 86.637 96.808, 83.826 96.579, 80 98.160 M 67.353 111.753 C 66.059 113.150, 65 114.850, 65 115.531 C 65 117.019, 69.312 120, 71.465 120 C 72.309 120, 73 120.385, 73 120.857 C 73 121.328, 76.778 121.665, 81.396 121.606 C 90.387 121.491, 94 119.825, 94 115.794 C 94 113.369, 88.540 111.015, 82.782 110.956 C 80.427 110.932, 76.521 110.531, 74.103 110.064 C 70.120 109.295, 69.484 109.454, 67.353 111.753 M 108.888 114.104 C 105.651 117.129, 105.616 117.247, 107.533 118.690 C 109.659 120.292, 117.309 119.848, 127.977 117.505 C 135.286 115.900, 127.340 111.044, 117.356 111.015 C 112.971 111.002, 111.721 111.458, 108.888 114.104 M 83.090 135.650 C 81.214 136.467, 78.581 136.861, 77.239 136.524 C 73.785 135.657, 68 137.757, 68 139.878 C 68 142.790, 70.181 144, 75.450 144.011 C 78.227 144.017, 82.714 144.693, 85.420 145.514 C 89.834 146.853, 90.587 146.845, 92.735 145.438 C 94.741 144.124, 95.019 143.351, 94.449 140.684 C 93.654 136.973, 90.849 133.965, 88.292 134.082 C 87.306 134.126, 84.965 134.832, 83.090 135.650 M 113.049 135.017 C 107.850 136.241, 105.286 140.886, 108.200 143.800 C 111.024 146.624, 125.900 144.078, 128.750 140.283 C 130.371 138.123, 130.327 137.469, 128.429 135.571 C 126.715 133.858, 119.134 133.585, 113.049 135.017" stroke="none" fill="black" fill-rule="evenodd"/>
</svg>