<svg xmlns="http://www.w3.org/2000/svg" width="256" height="256" viewBox="0 0 256 256" version="1.1">
	<path d="M 89.733 29.750 C 88.866 30.712, 87.840 32.763, 87.455 34.307 C 86.224 39.242, 83.684 40.038, 70.093 39.755 L 57.850 39.500 55.384 42.353 C 53.504 44.529, 52.968 46.191, 53.125 49.353 C 53.238 51.634, 52.724 55.852, 51.982 58.727 C 50.891 62.958, 50.859 65.648, 51.817 72.840 C 52.468 77.728, 53 83.160, 53 84.911 C 53 87.013, 53.840 88.874, 55.469 90.384 C 57.705 92.456, 58.952 92.682, 68.719 92.779 C 83.439 92.925, 98.622 93.803, 104.087 94.824 C 106.584 95.290, 109.498 95.504, 110.563 95.298 C 111.629 95.093, 117.675 94.778, 124 94.600 C 136.871 94.236, 140.646 93.045, 141.406 89.112 C 142.015 85.961, 142.273 63.498, 141.824 52.800 C 141.632 48.231, 140.972 44.571, 140.203 43.800 C 139.301 42.897, 134.057 42.324, 123.014 41.923 C 106.045 41.307, 104 40.702, 104 36.301 C 104 32.575, 98.892 28, 94.732 28 C 92.740 28, 90.651 28.732, 89.733 29.750 M 64.217 53.239 C 63.298 54.346, 63.346 55.093, 64.432 56.582 C 65.717 58.344, 68.016 58.581, 92.665 59.500 C 120.727 60.546, 129.335 59.978, 128.784 57.117 C 128.227 54.228, 118.602 52.686, 109.237 53.984 C 105.792 54.462, 101.698 54.487, 100.140 54.040 C 98.581 53.593, 90.127 52.909, 81.352 52.521 C 68.138 51.935, 65.196 52.058, 64.217 53.239 M 66.970 73.328 C 65.174 74.223, 64.500 75.370, 64.500 77.530 L 64.500 80.500 76 81.065 C 82.325 81.376, 95.375 81.600, 105 81.564 C 123.137 81.495, 128.437 80.473, 127.789 77.171 C 127.206 74.200, 120.620 73.171, 101.341 73.036 C 90.978 72.963, 79.561 72.722, 75.970 72.500 C 71.997 72.254, 68.473 72.579, 66.970 73.328 M 104.452 99.107 C 102.225 99.503, 90.525 100.046, 78.452 100.314 C 55.747 100.818, 51 101.636, 51 105.046 C 51 109.202, 59.120 111.244, 81.990 112.838 C 90.108 113.404, 91.530 113.766, 91.830 115.339 C 92.023 116.351, 91.128 118.299, 89.841 119.669 C 87.921 121.713, 86.872 122.056, 84 121.580 C 72.728 119.712, 71.598 119.755, 68.007 122.196 C 66.086 123.502, 64.361 125.364, 64.174 126.334 C 63.705 128.769, 66.482 132.713, 70.304 135.044 C 73.722 137.128, 82.414 137.757, 83.500 136 C 84.345 134.633, 88.157 134.796, 90.062 136.282 C 92.630 138.285, 93.176 141.082, 91.500 143.641 C 89.590 146.555, 86.289 146.679, 79.483 144.092 C 75.023 142.397, 74.099 142.339, 71.166 143.572 C 68.993 144.486, 64.039 144.948, 56.660 144.924 C 50.497 144.904, 44.709 145.175, 43.797 145.524 C 41.033 146.585, 39.795 151.704, 41.504 155.008 L 42.966 157.836 88.733 157.328 C 113.905 157.049, 138.485 156.851, 143.356 156.889 C 152.800 156.962, 155.493 156.172, 156.488 153.039 C 157.463 149.966, 155.359 147.216, 149.926 144.463 C 145.022 141.978, 144.603 141.938, 128.505 142.455 C 111.816 142.991, 107 142.343, 107 139.560 C 107 137.168, 110.394 135.990, 119.782 135.124 C 130.671 134.119, 134.611 132.443, 134.221 128.980 C 134.068 127.616, 133.880 125.894, 133.804 125.153 C 133.729 124.412, 132.617 123.327, 131.333 122.742 C 130.050 122.157, 129 121.356, 129 120.961 C 129 120.566, 127.725 119.714, 126.166 119.069 C 123.896 118.128, 122.455 118.201, 118.916 119.433 C 112.745 121.582, 109.550 121.378, 106.355 118.629 L 103.599 116.259 106.550 114.764 C 110.243 112.894, 119.809 111.273, 131.500 110.538 C 141.626 109.902, 143.711 108.655, 141.773 104.400 C 140.770 102.200, 139.756 101.565, 137.750 101.882 C 137.338 101.947, 137 101.590, 137 101.090 C 137 100.252, 129.652 99.469, 114.500 98.694 C 111.200 98.525, 106.678 98.711, 104.452 99.107" stroke="none" fill="black" fill-rule="evenodd"/>
</svg>