<svg xmlns="http://www.w3.org/2000/svg" width="256" height="256" viewBox="0 0 256 256" version="1.1">
	<path d="M 120.655 30.829 C 118.646 33.049, 118.596 35.670, 120.500 39 C 122.431 42.378, 122.352 45.566, 120.278 47.989 C 116.291 52.645, 106.890 48.559, 105.585 41.602 C 104.952 38.226, 103.483 37, 100.073 37 C 97.284 37, 95.239 40.086, 94.439 45.500 C 94.033 48.250, 92.461 53.200, 90.946 56.500 C 85.150 69.126, 84.824 74.121, 89.526 78.210 C 92.513 80.807, 92.597 81.748, 90.038 83.967 C 86.788 86.786, 85.691 90.880, 87.462 93.583 C 90.495 98.211, 94.727 99.227, 110.234 99.050 C 125.031 98.881, 143.636 99.501, 152.778 100.466 C 162.094 101.451, 165.257 99.143, 163.606 92.566 C 162.453 87.970, 158.398 86.240, 146.968 85.463 C 141.211 85.072, 135.293 84.137, 133.817 83.385 C 131.494 82.202, 131.245 81.648, 131.960 79.259 C 135.105 68.753, 140.286 64, 148.593 64 C 150.974 64, 152.875 63.216, 154.545 61.545 C 157.566 58.525, 157.587 57.792, 154.750 54.503 C 152.458 51.846, 147.101 50.067, 141.266 50.024 C 139.132 50.008, 136.925 49.011, 134.778 47.093 C 131.869 44.494, 131.519 43.601, 131.467 38.648 C 131.426 34.713, 130.871 32.515, 129.550 31.055 C 127.245 28.508, 122.856 28.396, 120.655 30.829 M 54.591 36.900 C 53.346 38.275, 53.044 39.724, 53.495 42.150 C 54.043 45.100, 53.663 45.942, 50.309 49.198 C 48.214 51.231, 44.034 54.210, 41.019 55.817 C 38.005 57.423, 34.646 59.934, 33.554 61.395 C 31.621 63.985, 31.614 64.223, 33.294 70.776 C 35.738 80.313, 35.609 97.448, 33.029 105.932 C 31.139 112.146, 31.135 112.406, 32.899 113.642 C 33.903 114.345, 35.291 116.288, 35.984 117.960 C 36.676 119.632, 37.549 121, 37.924 121 C 38.299 121, 40.420 122.797, 42.638 124.993 L 46.672 128.987 61.393 128.710 C 77.713 128.404, 77.577 128.461, 78.434 121.500 C 78.704 119.300, 79.227 115.925, 79.595 114 C 81.944 101.720, 79.216 58.013, 75.973 55.962 C 75.163 55.450, 72.222 55.024, 69.439 55.015 C 60.847 54.989, 56.473 48.992, 60.046 42.137 C 61.148 40.022, 61.765 37.552, 61.418 36.646 C 60.564 34.421, 56.705 34.564, 54.591 36.900 M 109.500 65.492 C 106.658 66.751, 93 80.237, 93 81.785 C 93 85.359, 115.737 87.055, 120.972 83.871 C 123.724 82.197, 123.785 81.989, 122.743 77.819 C 122.150 75.443, 120.615 71.821, 119.332 69.770 C 118.049 67.718, 117 65.581, 117 65.020 C 117 63.632, 113.152 63.875, 109.500 65.492 M 56 68.298 C 50.691 72.668, 48.073 80.231, 50.613 83.858 C 53.402 87.839, 63.477 86.715, 65.920 82.150 C 67.580 79.047, 67.268 70.411, 65.429 68.571 C 63.566 66.709, 58.122 66.551, 56 68.298 M 56 93.962 C 55.175 94.427, 52.587 95.372, 50.250 96.063 C 45.644 97.425, 45.359 98.153, 47.052 104.248 C 47.795 106.922, 49.012 108.459, 51.297 109.610 C 53.058 110.498, 55.911 112.562, 57.635 114.197 C 61.997 118.333, 65.077 117.764, 66.830 112.500 C 68.854 106.420, 67.862 99.509, 64.455 95.953 C 61.637 93.012, 58.853 92.356, 56 93.962 M 103.800 102.533 C 103.528 102.806, 100.453 103.424, 96.911 103.918 C 95.240 104.151, 94.194 109.706, 94.082 118.941 C 93.982 127.098, 94.394 130.477, 96.059 135.165 C 98.058 140.796, 98.141 144.922, 96.381 151.183 C 96.112 152.141, 97.112 154.169, 98.704 155.893 L 101.500 158.920 126.984 157.948 C 149.730 157.081, 152.668 156.776, 154.330 155.114 C 156.570 152.874, 157.881 143.245, 158.459 124.793 C 158.806 113.677, 158.630 111.800, 157.050 109.793 C 153.980 105.895, 147.166 104.626, 130.012 104.758 C 121.341 104.824, 112.736 104.389, 110.500 103.770 C 105.283 102.326, 104.206 102.127, 103.800 102.533 M 109.661 118.026 C 107.176 120.003, 106.880 120.799, 107.288 124.393 C 108.173 132.181, 110.674 141.680, 112.066 142.541 C 113.830 143.631, 134.324 143.821, 138.685 142.787 C 144.427 141.426, 146.459 137.262, 145.483 128.854 C 144.389 119.424, 140.971 117.583, 122.354 116.395 C 113.127 115.805, 112.319 115.909, 109.661 118.026" stroke="none" fill="black" fill-rule="evenodd"/>
</svg>