<svg xmlns="http://www.w3.org/2000/svg" width="256" height="256" viewBox="0 0 256 256" version="1.1">
	<path d="M 92.500 23.203 C 91.400 23.832, 89.838 25.281, 89.030 26.423 C 84.550 32.752, 84.161 32.887, 71.872 32.363 C 58.978 31.813, 55.708 32.764, 55.190 37.211 C 54.673 41.644, 57.801 42.776, 72.779 43.576 C 80.083 43.966, 86.323 44.714, 86.647 45.239 C 86.971 45.763, 86.522 46.907, 85.648 47.781 C 84.289 49.139, 83.701 49.178, 81.585 48.046 C 79.934 47.162, 77.679 46.953, 74.806 47.416 C 66.015 48.833, 54.264 49.876, 46.405 49.937 C 36.961 50.010, 34.635 51.499, 35.180 57.121 C 35.450 59.917, 36.089 60.652, 39.297 61.868 C 42.481 63.075, 44.422 63.110, 51.297 62.084 C 56.636 61.288, 61.071 61.169, 64 61.743 C 66.475 62.228, 69.850 62.520, 71.500 62.392 C 84.793 61.357, 86.937 61.825, 86.985 65.771 C 87.009 67.792, 82.348 69.534, 80.662 68.135 C 79.894 67.497, 75.862 66.770, 71.703 66.519 C 64.382 66.078, 64.011 66.166, 60.122 69.282 C 55.688 72.833, 55.109 75.284, 57.861 78.862 C 59.510 81.006, 60.391 81.213, 67.413 81.107 C 71.667 81.043, 75.985 80.543, 77.008 79.996 C 79.667 78.573, 84.180 78.822, 86.418 80.515 C 88.042 81.744, 88.160 82.352, 87.190 84.483 C 86.559 85.867, 85.246 87.040, 84.271 87.090 C 81.479 87.231, 68.436 87.164, 57.433 86.953 C 46.019 86.733, 42.056 88.057, 39.534 92.934 C 38.080 95.746, 38.141 95.941, 41.517 99.317 C 45.589 103.389, 45.913 106.391, 42.978 112.859 C 41.890 115.257, 41 118.046, 41 119.058 C 41 121.237, 46.352 125.558, 50.259 126.533 C 51.777 126.912, 53.249 127.594, 53.530 128.049 C 54.793 130.092, 55.005 136.833, 53.892 139.531 C 53.219 141.164, 52.630 142.800, 52.584 143.167 C 52.401 144.624, 51.050 145.070, 45.671 145.449 C 38.770 145.935, 38 146.385, 38 149.938 C 38 152.091, 38.650 153.007, 40.750 153.815 C 48.606 156.835, 98.592 157.251, 129.772 154.555 C 140.922 153.592, 150.745 153.072, 151.602 153.401 C 156.846 155.413, 161.147 150.119, 158.471 144.944 C 157.030 142.157, 156.613 142, 150.629 142 C 143.144 142, 141.543 140.715, 140.696 134.022 C 140.384 131.558, 139.657 129.386, 139.080 129.193 C 138.503 129.001, 139.450 127.079, 141.183 124.922 C 143.947 121.483, 144.851 121, 148.533 121 C 151.299 121, 153.652 120.275, 155.432 118.875 L 158.134 116.749 155.679 114.125 C 154.329 112.681, 152.932 110.528, 152.574 109.340 C 152.216 108.152, 151.265 106.635, 150.461 105.968 C 147.616 103.606, 148.703 100.192, 153 98 C 156.261 96.336, 157 95.430, 157 93.095 C 157 88.140, 153.703 86.926, 139.191 86.535 C 132.211 86.348, 126.050 86.067, 125.500 85.912 C 124.950 85.757, 119.934 85.984, 114.354 86.416 C 102.700 87.318, 100 86.802, 100 83.677 C 100 80.627, 104.853 78.618, 110.289 79.415 C 119.196 80.722, 128.047 81.192, 129.737 80.448 C 130.707 80.021, 133.525 78.930, 136 78.023 C 140.494 76.375, 140.501 76.364, 141.323 70.297 C 142.457 61.918, 144.589 59.744, 150.857 60.575 C 154.569 61.068, 155.881 60.848, 156.954 59.555 C 159.040 57.042, 155.442 52.779, 150.128 51.468 C 145.434 50.310, 142 45.972, 142 41.198 C 142 34.108, 137.335 32.142, 118.500 31.295 L 105.500 30.711 102.453 27.499 C 99.854 24.760, 95.896 21.926, 94.816 22.030 C 94.642 22.047, 93.600 22.575, 92.500 23.203 M 109 44.796 C 109 45.233, 110.688 45.689, 112.750 45.808 C 114.813 45.928, 117.727 46.278, 119.228 46.587 C 120.728 46.896, 122.978 46.824, 124.228 46.427 C 126.422 45.729, 126.431 45.677, 124.500 44.922 C 121.847 43.885, 109 43.780, 109 44.796 M 106.352 62.003 C 103.459 63.157, 102.439 65.030, 104.122 66.096 C 105.854 67.194, 123.058 67.250, 124.769 66.164 C 126.589 65.009, 122.688 63.286, 116.500 62.512 C 113.750 62.168, 110.825 61.719, 110 61.516 C 109.175 61.312, 107.534 61.531, 106.352 62.003 M 59.500 100.248 C 57.300 100.820, 55.211 101.734, 54.858 102.278 C 54.015 103.578, 54.783 108.236, 56.528 112.414 C 57.893 115.680, 58.103 115.775, 65.503 116.468 C 70.465 116.933, 73.528 116.807, 74.378 116.101 C 76.295 114.510, 75.984 101.233, 74 99.979 C 72.083 98.767, 64.661 98.905, 59.500 100.248 M 91.250 100.262 C 86.483 101.409, 86.021 102.918, 88.117 110.500 C 89.494 115.482, 90.250 115.966, 96.691 115.985 C 103.217 116.004, 103.847 115.176, 104.123 106.204 C 104.332 99.431, 101.035 97.909, 91.250 100.262 M 116.964 100.543 C 115.946 101.770, 115.926 103.055, 116.865 106.793 C 117.515 109.382, 118.183 112.113, 118.348 112.862 C 118.875 115.240, 121.289 115.729, 129.408 115.107 C 135.341 114.652, 137.376 114.125, 137.553 113 C 137.683 112.175, 137.932 111.050, 138.106 110.500 C 138.280 109.950, 138.126 108.098, 137.763 106.385 C 137.245 103.934, 136.134 102.813, 132.563 101.135 C 127.096 98.565, 118.865 98.253, 116.964 100.543 M 70 129.289 C 67.954 130.319, 67.445 131.397, 67.197 135.228 C 66.790 141.516, 69.038 145, 73.501 145 C 76.225 145, 77.016 144.457, 78.232 141.750 C 82.612 132.001, 78.119 125.200, 70 129.289 M 96.519 128.814 C 93.780 128.987, 91.257 129.585, 90.912 130.142 C 89.762 132.003, 90.771 139.720, 92.511 142.377 C 93.796 144.337, 95.070 145, 97.556 145 C 101.499 145, 102.046 144.300, 102.459 138.728 C 102.631 136.402, 103.082 133.323, 103.460 131.886 C 104.285 128.754, 103.435 128.378, 96.519 128.814 M 117.816 128.805 C 115.830 129.038, 114.983 129.819, 114.559 131.810 C 113.868 135.046, 114.502 138.695, 116.085 140.602 C 117.983 142.890, 123.728 142.362, 125.358 139.750 C 129.962 132.373, 126.777 127.751, 117.816 128.805" stroke="none" fill="black" fill-rule="evenodd"/>
</svg>