<svg xmlns="http://www.w3.org/2000/svg" width="256" height="256" viewBox="0 0 256 256" version="1.1">
	<path d="M 89.129 28.068 C 85.738 30.130, 84.819 32.553, 85.228 38.357 C 85.453 41.541, 85.032 42.570, 82.815 44.254 C 79.827 46.524, 65.794 49.939, 59.306 49.976 C 56.369 49.993, 54.380 50.675, 52.672 52.250 C 46.541 57.906, 44.746 85.591, 49.328 103.832 C 50.090 106.864, 50.264 111.830, 49.825 118 C 49.235 126.288, 49.465 128.693, 51.627 136.848 C 52.990 141.989, 54.644 147.068, 55.302 148.135 C 57.116 151.072, 60.490 151.475, 64.219 149.199 C 67.298 147.321, 68.732 147.230, 87.500 147.729 C 103.999 148.167, 108.608 147.975, 113.831 146.630 C 124.457 143.894, 131.150 144.826, 137.665 149.951 C 140.738 152.368, 143.518 151.343, 145.157 147.189 C 145.741 145.710, 146.412 135.950, 146.649 125.500 C 147.155 103.203, 147.799 86.812, 148.633 75.008 C 149.377 64.495, 147.646 53.832, 144.648 50.454 C 142.552 48.093, 142.068 48.026, 124.500 47.672 C 110.113 47.383, 105.848 46.973, 103.250 45.629 C 99.719 43.804, 99.150 41.506, 101.468 38.441 C 103.610 35.610, 103.322 32.651, 100.660 30.150 C 96.902 26.620, 92.744 25.869, 89.129 28.068 M 83.500 59.556 C 80.750 60.329, 77.218 60.970, 75.651 60.981 C 74.084 60.991, 71.279 61.723, 69.416 62.607 C 66.561 63.962, 65.732 65.177, 64.125 70.357 C 63.077 73.736, 61.384 78.677, 60.362 81.338 L 58.503 86.176 61.383 88.653 C 64.262 91.130, 64.269 91.130, 79.882 90.471 C 88.472 90.109, 100.900 89.725, 107.500 89.619 C 137.911 89.130, 136.439 89.707, 136.170 78.383 C 136.067 74.031, 135.232 68.387, 134.306 65.782 C 132.692 61.245, 132.435 61.028, 127.564 60.106 C 118.304 58.354, 89.077 57.989, 83.500 59.556 M 76.936 101.968 C 63.535 103.319, 62.869 104.196, 63.685 119.406 C 64.409 132.931, 65.201 134.491, 70.911 133.652 C 84.540 131.650, 84.339 131.638, 91.747 134.889 C 100.273 138.631, 101.831 138.697, 108.404 135.594 C 111.207 134.271, 115.750 132.886, 118.500 132.516 C 121.250 132.146, 125.750 131.223, 128.500 130.465 L 133.500 129.087 135.356 117.503 L 137.211 105.918 135 104 C 132.990 102.257, 131.229 102.095, 115.644 102.227 C 106.215 102.306, 95.350 102.109, 91.500 101.788 C 87.650 101.467, 81.096 101.548, 76.936 101.968" stroke="none" fill="black" fill-rule="evenodd"/>
</svg>