<svg xmlns="http://www.w3.org/2000/svg" width="256" height="256" viewBox="0 0 256 256" version="1.1">
	<path d="M 59.589 27.077 C 58.165 28.769, 56.958 31.131, 56.908 32.327 C 56.494 42.069, 55.774 48.554, 54.930 50.131 C 53.728 52.377, 50.909 52.521, 47.067 50.535 C 42.920 48.390, 38.400 47.801, 37.258 49.256 C 35.874 51.019, 34.869 57, 35.958 57 C 36.457 57, 37.130 57.788, 37.453 58.750 C 38.121 60.742, 45.968 65, 48.970 65 C 50.898 65, 51.082 65.386, 52.508 72.408 C 53.019 74.923, 50.315 81.313, 49.067 80.541 C 46.793 79.136, 42.974 81.369, 40.537 85.527 C 39.142 87.908, 38 90.508, 38 91.306 C 38 92.103, 37.344 93.299, 36.542 93.965 C 35.587 94.758, 35.283 96.165, 35.660 98.049 C 36.084 100.168, 35.381 102.435, 32.984 106.682 C 29.835 112.262, 29.752 112.702, 30.329 120.869 C 30.862 128.418, 31.220 129.586, 33.768 132.077 C 37.943 136.159, 40.197 133.804, 41.501 124 C 42.620 115.592, 44.628 106.564, 45.914 104.161 C 46.550 102.973, 46.797 102, 46.464 102 C 46.130 102, 46.564 101.294, 47.427 100.430 C 49.848 98.009, 53.509 98.962, 53.457 102 C 53.434 103.375, 53.799 104.769, 54.270 105.098 C 54.740 105.426, 55.162 107.226, 55.208 109.098 C 55.254 110.969, 55.735 112.788, 56.278 113.141 C 58.178 114.375, 58.807 138.747, 57.058 143.348 C 54.015 151.352, 58.857 164, 64.965 164 C 69.117 164, 70.140 157.764, 70.040 133.082 C 69.999 122.952, 69.543 114.154, 69.027 113.532 C 68.510 112.910, 67.803 110.398, 67.454 107.950 C 66.535 101.494, 65.008 97, 63.734 97 C 63.123 97, 63.589 96.100, 64.770 95 C 67.254 92.686, 72.226 92.369, 74.253 94.396 C 75.021 95.163, 76.432 97.842, 77.389 100.349 C 78.346 102.856, 79.962 105.171, 80.980 105.494 C 83.533 106.304, 87.742 105.116, 88.401 103.398 C 89.095 101.589, 87.043 97, 85.540 97 C 84.852 97, 84.538 95.716, 84.747 93.750 C 84.936 91.962, 84.508 88.542, 83.795 86.148 C 82.731 82.579, 81.705 81.372, 78.089 79.438 C 71.795 76.072, 71.978 76.345, 71.069 68.939 C 71.031 68.630, 70.075 67.385, 68.945 66.172 C 67.104 64.196, 67.049 63.808, 68.415 62.442 C 69.781 61.076, 70.281 61.094, 73.220 62.617 C 79.350 65.794, 82.671 66.034, 85.409 63.497 C 86.808 62.200, 87.708 60.415, 87.495 59.358 C 87.289 58.336, 86.868 56.294, 86.559 54.820 C 86.250 53.346, 85.291 51.433, 84.427 50.570 C 82.582 48.725, 77.755 48.512, 75.119 50.158 C 74.099 50.795, 72.545 51.039, 71.665 50.702 C 70.310 50.182, 70.092 48.285, 70.239 38.282 C 70.334 31.788, 70.068 25.919, 69.647 25.238 C 69.226 24.557, 67.374 24, 65.530 24 C 63.014 24, 61.532 24.768, 59.589 27.077 M 103.419 36.033 C 98.136 37.639, 96.710 40.182, 95.987 49.277 C 95.627 53.800, 95.492 59.750, 95.686 62.500 C 96.747 77.549, 96.983 97.401, 96.137 100.466 C 95.449 102.958, 95.560 105.435, 96.522 109.082 C 97.264 111.897, 98.187 122.818, 98.573 133.350 C 99.181 149.948, 99.531 152.866, 101.205 155.250 C 103.597 158.656, 106.268 158.766, 108.379 155.545 C 112.591 149.116, 112.979 149, 130.281 149 C 144.670 149, 146.427 149.190, 148.727 151 C 150.126 152.100, 152.582 153, 154.186 153 C 156.579 153, 157.367 152.366, 158.580 149.462 C 160.673 144.455, 162.005 128.342, 160.994 120.278 C 160.033 112.614, 158.657 87.070, 158.797 79.500 C 159.331 50.587, 159.093 43.081, 157.550 40.097 C 156.669 38.394, 155.173 36.935, 154.224 36.856 C 153.276 36.777, 147.100 36.596, 140.500 36.453 C 133.900 36.310, 123.550 35.946, 117.500 35.644 C 111.450 35.343, 105.113 35.518, 103.419 36.033 M 116.413 48.921 C 111.889 50.034, 111.181 50.686, 110.043 54.786 C 108.098 61.788, 108.962 69.334, 111.849 70.567 C 112.757 70.955, 118.675 71.420, 125 71.601 C 131.325 71.782, 137.400 72.104, 138.500 72.318 C 142.285 73.052, 145.733 71.084, 146.387 67.817 C 147.467 62.416, 147.044 58.584, 144.996 55.225 C 142.222 50.676, 141.599 50.486, 123 48.530 C 121.075 48.327, 118.111 48.504, 116.413 48.921 M 112.232 84.796 C 110.601 85.882, 109 91.477, 109 96.088 C 109 102.002, 111.670 103.581, 120.864 103.103 C 133.890 102.425, 138.420 102.471, 140.699 103.301 C 142.339 103.899, 143.450 103.550, 145.073 101.927 C 146.928 100.072, 147.162 99.016, 146.659 94.770 C 145.915 88.483, 144.666 87, 140.121 87 C 138.122 87, 135.134 86.612, 133.482 86.138 C 128.844 84.808, 113.654 83.849, 112.232 84.796 M 135 114 C 133.625 114.440, 127.943 114.845, 122.372 114.900 C 114.574 114.977, 111.952 115.353, 110.970 116.536 C 110.269 117.381, 109.483 121.376, 109.224 125.413 C 108.799 132.040, 108.972 132.972, 111.010 135.010 C 113.138 137.138, 113.732 137.221, 121.384 136.450 C 125.848 136.001, 133.145 135.700, 137.601 135.780 C 145.200 135.918, 145.781 135.779, 146.986 133.526 C 148.949 129.859, 147.845 116.091, 145.449 114.339 C 143.456 112.882, 138.948 112.736, 135 114" stroke="none" fill="black" fill-rule="evenodd"/>
</svg>