<svg xmlns="http://www.w3.org/2000/svg" width="256" height="256" viewBox="0 0 256 256" version="1.1">
	<path d="M 106.500 31.820 C 105.400 32.052, 103.228 33.313, 101.673 34.621 C 98.290 37.469, 96.540 37.565, 90.833 35.218 C 87.160 33.708, 83.498 33.445, 66.788 33.495 C 48.460 33.549, 46.880 33.698, 44.288 35.625 C 42.755 36.765, 41.360 38.865, 41.189 40.292 C 40.941 42.358, 41.541 43.228, 44.139 44.572 C 46.819 45.958, 48.835 46.127, 55.450 45.521 C 69.176 44.264, 71.162 44.345, 72.349 46.208 C 73.733 48.382, 71.684 56.705, 69.126 59.295 C 67.086 61.362, 61.639 61.943, 54.612 60.842 C 49.731 60.078, 46 61.051, 46 63.089 C 46 63.650, 47.360 65.547, 49.023 67.304 C 54.654 73.256, 54.206 77.793, 47.728 80.450 C 39.427 83.855, 37.220 85.222, 36.118 87.641 C 34.328 91.569, 34.752 95.364, 37.147 96.859 C 39.022 98.031, 40.160 97.851, 46.158 95.436 L 53.023 92.673 55.431 94.935 C 56.756 96.179, 58.371 98.616, 59.021 100.349 C 59.670 102.082, 60.569 104.400, 61.018 105.500 C 62.889 110.080, 64 114.480, 64 117.305 C 64 118.958, 65.057 121.704, 66.348 123.406 C 70.979 129.507, 73.152 141.910, 70.303 145.977 C 68.646 148.344, 68.842 148.339, 53 146.456 C 47.490 145.801, 46.070 146.670, 45.443 151.081 C 44.496 157.735, 44.843 157.834, 72.082 158.696 C 85.512 159.120, 98.975 159.416, 102 159.352 C 147.102 158.406, 148.689 158.314, 152.613 156.398 C 155.842 154.821, 156.500 153.993, 156.500 151.504 C 156.500 148.912, 155.962 148.319, 152.500 147.096 C 150.082 146.242, 144.214 145.647, 137.664 145.591 C 126.966 145.501, 126.795 145.462, 124.304 142.567 C 120.610 138.273, 121.452 132.170, 126.442 127.059 C 129.525 123.902, 130.251 122.299, 131.001 116.992 C 131.492 113.520, 131.845 110.414, 131.785 110.090 C 131.726 109.765, 132.200 108.233, 132.839 106.685 C 133.477 105.137, 134 103.324, 134 102.658 C 134 101.991, 135.367 99.949, 137.038 98.120 L 140.076 94.794 148.804 95.484 C 156.813 96.118, 157.684 96.007, 159.384 94.128 C 162.777 90.379, 159.793 84.963, 152.209 81.102 C 142.574 76.197, 141.613 72.142, 148.500 65.448 C 153.908 60.193, 154.278 57.441, 149.830 55.570 C 146.368 54.115, 141.919 54.868, 139.112 57.385 C 137.164 59.132, 130.929 60.343, 129.400 59.271 C 128.795 58.847, 127.766 57.487, 127.115 56.250 C 125.501 53.187, 126.884 50.890, 132.467 47.358 C 134.947 45.789, 137.176 43.985, 137.420 43.349 C 139.167 38.794, 132.958 34.739, 127.626 36.953 C 120.996 39.705, 118.597 39.461, 115.020 35.668 C 111.504 31.941, 109.725 31.137, 106.500 31.820 M 96.292 46.103 C 92.027 48.233, 83.943 60.065, 84.720 63.039 C 85.450 65.828, 89.396 66.934, 99.184 67.090 C 108.018 67.231, 108.495 67.126, 110.700 64.563 C 114.597 60.032, 113.215 54.379, 106.618 47.860 C 102.974 44.258, 100.745 43.879, 96.292 46.103 M 67.559 80.350 C 64.222 83.687, 64.231 87.450, 67.580 89.644 C 69.917 91.175, 70.928 91.207, 78.330 89.983 C 83.211 89.176, 94.834 88.605, 107.200 88.566 C 129.156 88.496, 130.475 88.221, 130.524 83.700 C 130.572 79.245, 128.805 78.710, 116.200 79.366 C 109.765 79.701, 100.900 80.567, 96.500 81.291 C 89.298 82.477, 88.015 82.432, 83.634 80.848 C 80.958 79.880, 76.822 78.796, 74.443 78.439 C 70.669 77.873, 69.793 78.116, 67.559 80.350 M 97.500 103.221 C 91.450 103.617, 84.004 103.696, 80.953 103.396 C 76.413 102.950, 74.969 103.204, 73.001 104.798 C 70.714 106.650, 70.661 106.944, 71.928 110.781 C 72.924 113.798, 73.895 114.938, 75.779 115.298 C 77.165 115.563, 87.032 115.717, 97.707 115.640 L 117.115 115.500 119.035 113 C 121.405 109.915, 121.549 105.700, 119.346 103.872 C 117.472 102.318, 113.222 102.191, 97.500 103.221 M 90.049 128.017 C 88.151 128.464, 86.013 129.629, 85.299 130.606 C 83.822 132.625, 83.566 142.766, 84.937 144.933 C 86.146 146.843, 99.337 148.249, 104.087 146.974 C 108.162 145.880, 109.493 143.628, 109.897 137.143 C 110.122 133.535, 109.692 132.288, 107.397 129.893 C 104.957 127.346, 103.961 127.012, 99.063 127.102 C 96.003 127.159, 91.947 127.570, 90.049 128.017" stroke="none" fill="black" fill-rule="evenodd"/>
</svg>