<svg xmlns="http://www.w3.org/2000/svg" width="256" height="256" viewBox="0 0 256 256" version="1.1">
	<path d="M 112.795 30.188 C 110.413 32.021, 109.056 36.158, 107.955 44.945 C 106.931 53.123, 105.705 56.969, 102.757 61.250 C 100.037 65.201, 97.587 64.713, 94.006 59.508 C 92.069 56.694, 89.905 54.790, 88.208 54.408 C 79.354 52.418, 78.287 51.926, 77.082 49.280 C 75.251 45.261, 78.333 42.976, 84.740 43.603 C 91.130 44.229, 94.776 43.272, 96.599 40.489 C 97.977 38.387, 97.972 37.847, 96.555 35.106 C 95.688 33.430, 94.196 31.665, 93.240 31.182 C 92.283 30.700, 79.924 30.574, 65.776 30.903 C 41.292 31.471, 39.950 31.602, 37.928 33.626 C 36.760 34.795, 35.887 36.820, 35.990 38.126 C 36.092 39.432, 36.131 53.233, 36.077 68.795 C 36.020 85.095, 36.383 97.847, 36.934 98.877 C 38.072 101.004, 44.316 104.165, 52.233 106.623 C 55.386 107.602, 57.541 108.665, 57.022 108.986 C 54.292 110.673, 51.931 119.190, 51.901 127.460 C 51.883 132.146, 52.125 136.393, 52.438 136.899 C 54.471 140.189, 48.359 144, 41.050 144 C 36.089 144, 36 144.054, 36 147.045 C 36 151.209, 39.906 154.998, 44.205 155.006 C 46.017 155.009, 54.250 155.906, 62.500 157 C 79.147 159.207, 120.387 159.813, 131.500 158.013 C 134.800 157.479, 141.495 156.792, 146.378 156.488 C 156.109 155.880, 158.534 155.043, 159.515 151.952 C 160.831 147.808, 154.504 142.867, 149.170 143.874 C 148.438 144.012, 146.795 143.440, 145.519 142.604 C 143.407 141.221, 143.140 140.112, 142.551 130.292 C 141.632 114.971, 141.953 115.695, 134.771 112.721 C 126.880 109.454, 117.706 108.748, 108.670 110.712 C 103.334 111.872, 100.884 111.956, 97.477 111.098 C 95.077 110.494, 91.706 110, 89.986 110 C 87.205 110, 87.024 109.833, 88.357 108.500 C 89.182 107.675, 90.362 107, 90.978 107 C 93.626 107, 97.816 103.870, 98.427 101.434 C 99.255 98.137, 97.395 92.282, 95.137 91.073 C 94.053 90.493, 91.296 90.659, 87.558 91.528 C 82.560 92.690, 81.182 92.685, 78.339 91.497 C 75.275 90.217, 75.090 89.898, 76.109 87.661 C 77.510 84.586, 80.911 83.014, 86.297 82.951 C 89.826 82.910, 91.141 82.265, 94.500 78.925 C 97.405 76.037, 99.047 75.110, 100.500 75.538 C 101.600 75.862, 104.331 76.373, 106.569 76.673 C 110.229 77.164, 110.907 76.899, 113.319 74.033 C 114.793 72.280, 116 69.981, 116 68.923 C 116 67.865, 116.900 66.100, 118 65 C 119.838 63.162, 121.333 63, 136.500 63 C 151.667 63, 153.162 62.838, 155 61 C 157.571 58.429, 157.542 55.583, 154.921 53.141 C 152.264 50.666, 148.504 50.114, 138.270 50.699 C 123.787 51.525, 120.393 48.973, 121.510 38.099 C 121.827 35.020, 121.706 31.944, 121.243 31.265 C 119.942 29.357, 114.737 28.694, 112.795 30.188 M 52.250 44.033 C 50.635 44.681, 50 45.761, 50 47.861 C 50 52.306, 54.217 53.295, 60.466 50.315 C 64.147 48.560, 64.877 46.941, 62.750 45.253 C 60.831 43.730, 54.763 43.025, 52.250 44.033 M 63.037 64.787 C 55.104 65.005, 52.143 65.466, 50.787 66.692 C 48.451 68.807, 48.522 71.257, 50.983 73.485 C 52.658 75.001, 54.002 75.174, 59.629 74.597 C 63.293 74.222, 68.138 73.491, 70.396 72.973 C 72.653 72.455, 75.737 71.791, 77.250 71.497 C 81.826 70.607, 80.577 65.896, 75.500 64.894 C 74.400 64.677, 68.792 64.629, 63.037 64.787 M 52.367 84.088 C 49.277 84.984, 47.193 88.593, 48.824 90.224 C 50.879 92.279, 58.796 92.653, 64.098 90.945 C 67.069 89.988, 68.980 89.159, 68.344 89.103 C 67.693 89.045, 67.416 88.125, 67.710 87 C 68.112 85.465, 67.741 85, 66.117 85 C 64.952 85, 64 84.550, 64 84 C 64 82.783, 56.679 82.839, 52.367 84.088 M 116.250 90.603 C 111.758 94.369, 110.772 97.736, 113.499 99.999 C 114.535 100.859, 120.853 101.373, 133.942 101.662 C 151.904 102.059, 152.940 101.980, 153.925 100.139 C 155.771 96.691, 153.444 92.398, 148.680 90.464 C 145.351 89.112, 130.735 87.253, 122 87.070 C 121.175 87.053, 118.588 88.643, 116.250 90.603 M 65.250 106.220 C 62.257 107.664, 62.414 108.600, 65.846 109.797 C 69.582 111.099, 77.725 110.158, 78.421 108.345 C 79.523 105.473, 69.988 103.935, 65.250 106.220 M 84.211 108.538 C 83.145 109.746, 83.189 110, 84.461 110 C 85.307 110, 86 109.325, 86 108.500 C 86 106.676, 85.850 106.680, 84.211 108.538 M 66.419 123.090 C 64.943 124.720, 64.482 126.938, 64.318 133.188 C 64.123 140.653, 64.284 141.359, 66.700 143.598 C 69.997 146.653, 74.567 146.756, 76.938 143.828 C 78.381 142.046, 78.625 140.202, 78.297 133.578 C 77.775 123.040, 76.751 121, 71.986 121 C 69.527 121, 67.684 121.692, 66.419 123.090 M 92.343 124.498 C 88.610 126.068, 87.768 127.967, 89.664 130.542 C 90.677 131.918, 90.923 133.844, 90.491 137.021 C 89.681 142.968, 91.113 146.597, 94.525 147.250 C 98.312 147.973, 100.833 147.102, 101.558 144.818 C 102.578 141.605, 102.266 125.866, 101.161 124.761 C 99.596 123.196, 95.715 123.080, 92.343 124.498 M 117.206 124.794 C 115.776 126.224, 114.964 128.818, 114.453 133.595 C 113.754 140.120, 113.827 140.454, 116.420 142.684 C 119.457 145.297, 124.169 145.666, 127.924 143.586 C 130.191 142.331, 130.346 141.709, 130.301 134.048 C 130.275 129.541, 129.786 125.386, 129.214 124.814 C 128.642 124.242, 126.162 123.547, 123.704 123.270 C 120.114 122.865, 118.835 123.165, 117.206 124.794" stroke="none" fill="black" fill-rule="evenodd"/>
</svg>