<svg xmlns="http://www.w3.org/2000/svg" width="256" height="256" viewBox="0 0 256 256" version="1.1">
	<path d="M 50.500 32.555 C 48.300 33.333, 46.403 33.977, 46.285 33.985 C 46.167 33.993, 45.573 34.930, 44.964 36.067 C 43.507 38.789, 45.493 41.828, 50.432 44.433 C 53.557 46.082, 54.578 46.193, 57.369 45.183 C 62.997 43.148, 69 43.883, 69 46.607 C 69 51.006, 61.282 53.452, 55.588 50.858 C 53.572 49.940, 52.600 50.032, 50.617 51.332 C 48.072 52.999, 47.585 54.046, 46.589 60.002 C 46.197 62.340, 44.340 65.265, 41.001 68.803 C 35.603 74.522, 34.743 77.761, 37.557 81.777 C 39.408 84.421, 41.427 84.556, 46.628 82.382 C 49.747 81.078, 52.347 80.898, 60 81.457 C 73.993 82.479, 78.340 85.314, 75.664 91.673 C 74.410 94.652, 70.777 95.338, 66.660 93.375 C 61.465 90.897, 56.756 92.198, 51.151 97.657 C 48.593 100.149, 45.760 102.849, 44.855 103.657 C 42.584 105.688, 41.271 111.722, 42.075 116.438 C 42.969 121.682, 45.968 124, 51.861 124 C 58.040 124, 69.627 126.480, 71.285 128.158 C 73.480 130.378, 73.777 132.220, 72.935 138.400 C 72.056 144.855, 71.489 145.505, 65.334 147.109 C 56.956 149.293, 55.170 154.411, 60.748 160.250 C 64.339 164.010, 69.135 163.935, 75.306 160.021 C 80.724 156.585, 83.991 151.842, 83.996 147.407 C 83.998 145.705, 84.900 141.697, 86 138.500 C 88.824 130.292, 88.824 117.056, 86 114.500 C 84.900 113.505, 84 111.655, 84 110.390 C 84 108.565, 84.704 107.959, 87.413 107.450 C 90.936 106.789, 94.556 107.489, 96.768 109.260 C 97.770 110.062, 97.594 111.023, 95.926 113.850 C 93.993 117.126, 93.917 117.897, 95.016 123.077 C 95.922 127.345, 95.935 129.253, 95.069 130.871 C 93.839 133.169, 94.275 133.774, 101.861 140.313 C 103.656 141.860, 104.972 143.583, 104.786 144.141 C 104.600 144.699, 101.760 146.583, 98.474 148.328 C 93.296 151.078, 92.459 151.925, 92.191 154.688 C 91.948 157.203, 92.428 158.234, 94.466 159.570 C 96.955 161.200, 97.343 161.147, 104.974 158.131 C 109.333 156.409, 113.127 155, 113.405 155 C 113.683 155, 115.619 153.841, 117.706 152.424 C 120.837 150.299, 122.220 149.957, 125.621 150.466 C 127.887 150.806, 131.470 151.965, 133.582 153.042 C 140.052 156.341, 146.328 155.117, 145.269 150.763 C 144.599 148.013, 142.117 145, 140.519 145 C 138.847 145, 134.696 140.343, 134.510 138.258 C 134.272 135.592, 132.951 132.007, 132.183 131.943 C 131.807 131.912, 129.281 131.712, 126.569 131.499 C 123.857 131.287, 119.479 130.595, 116.840 129.962 C 112.756 128.982, 112.092 128.489, 112.381 126.655 C 112.643 124.995, 113.384 124.523, 115.611 124.598 C 122.021 124.816, 126 125.454, 126 126.263 C 126 126.733, 126.437 126.848, 126.972 126.517 C 127.506 126.187, 129.059 126.648, 130.423 127.541 C 135.216 130.682, 141.267 125.867, 141.413 118.796 C 141.540 112.643, 139.528 111.953, 121.426 111.937 C 108.739 111.927, 104.451 111.373, 102.169 109.450 C 101.987 109.297, 102.426 108.120, 103.144 106.836 C 103.863 105.551, 104.977 102.250, 105.621 99.500 C 107.383 91.973, 109.556 86.798, 111.573 85.323 C 114.521 83.167, 124.259 83.629, 127.365 86.073 C 129.605 87.834, 130 88.921, 130.002 93.323 C 130.003 99.308, 132.290 104.471, 136.213 107.346 C 138.698 109.168, 139.391 109.231, 144.466 108.095 C 152.752 106.241, 153.309 104.235, 147.297 97.900 C 141.449 91.737, 139.654 88.515, 140.404 85.528 C 141.062 82.903, 145.553 80.715, 149.079 81.301 C 153.211 81.987, 157.996 80.142, 159.011 77.470 C 160.283 74.125, 159.549 72.691, 154.411 68.481 C 149.509 64.464, 148.960 62.138, 152 58.273 C 155.749 53.507, 153.680 48, 148.140 48 C 146.413 48, 145 48.354, 145 48.786 C 145 49.218, 143.118 51.018, 140.818 52.786 C 130.793 60.491, 121.692 52.241, 130.500 43.433 C 134.607 39.326, 134.711 38.740, 131.811 36.039 C 129.259 33.661, 128.538 33.596, 122.525 35.205 C 118.479 36.287, 117.561 36.185, 113.484 34.205 C 107.448 31.272, 105.002 31.422, 100.500 35 C 98.424 36.650, 96.449 37.999, 96.112 37.998 C 95.776 37.997, 93.025 36.708, 90 35.134 C 84.870 32.465, 83.490 32.234, 69.500 31.707 C 57.952 31.271, 53.579 31.466, 50.500 32.555 M 91.500 44.417 C 85.358 46.312, 83 47.881, 83 50.075 C 83 53.529, 79.289 59.544, 75.316 62.530 C 73.217 64.107, 70.703 66.288, 69.728 67.377 C 67.244 70.152, 68.973 71.554, 73.106 70.113 C 79.605 67.847, 86.119 71.154, 87.894 77.619 C 88.652 80.382, 87.463 85, 85.994 85 C 84.704 85, 85.580 89.498, 87.406 92.250 C 89.725 95.746, 92.130 95.743, 93.836 92.242 C 95.820 88.172, 96.965 84, 96.099 84 C 95.681 84, 94.752 82.905, 94.036 81.567 C 92.850 79.351, 92.991 78.910, 95.617 76.637 C 98.611 74.044, 103.233 72.514, 111.104 71.509 C 113.636 71.186, 116.645 70.048, 117.791 68.980 L 119.875 67.038 117.352 60.769 C 114.426 53.501, 110.619 49.138, 104.703 46.271 C 98.747 43.386, 96.062 43.009, 91.500 44.417 M 61 105.713 C 57.397 107.047, 56.958 108.133, 58.914 110.879 C 60.783 113.505, 67.326 116, 72.340 116 C 74.909 116, 79 112.216, 79 109.841 C 79 106.603, 75.599 104.997, 68.921 105.079 C 65.390 105.122, 61.825 105.408, 61 105.713" stroke="none" fill="black" fill-rule="evenodd"/>
</svg>