<svg xmlns="http://www.w3.org/2000/svg" width="256" height="256" viewBox="0 0 256 256" version="1.1">
	<path d="M 55.500 29.412 L 52.500 31.813 52.397 47.157 C 52.321 58.457, 51.883 63.554, 50.738 66.500 C 49.882 68.700, 48.185 73.067, 46.966 76.204 C 45.748 79.342, 45.002 82.564, 45.310 83.364 C 45.920 84.956, 55.219 88, 59.470 88 C 60.934 88, 63.114 87.474, 64.316 86.830 C 65.517 86.187, 70.100 85.329, 74.500 84.925 C 84.089 84.042, 87 85.245, 87 90.089 C 87 93.270, 85.476 96.946, 83.600 98.286 C 82.995 98.719, 79.765 98.804, 76.423 98.475 C 69.750 97.819, 62.686 99.851, 61.057 102.893 C 60.570 103.803, 60.056 107.011, 59.913 110.023 C 59.770 113.035, 59.231 116.465, 58.715 117.644 C 58.099 119.049, 58.236 122.670, 59.111 128.144 C 59.845 132.740, 60.475 140.325, 60.511 145 C 60.621 159.218, 62.528 161.777, 70.512 158.420 C 73.778 157.047, 77.214 156.800, 89.500 157.053 C 106.641 157.407, 112.135 157.309, 120.321 156.501 C 123.523 156.186, 128.752 156.441, 131.942 157.068 C 141.287 158.907, 142 158.121, 142 145.979 C 142 140.506, 142.537 134.020, 143.194 131.566 C 144.134 128.049, 144.114 125.726, 143.097 120.610 C 142.067 115.428, 142.055 113.364, 143.038 110.386 C 144.098 107.172, 144.022 106.196, 142.488 103.348 C 141.509 101.530, 139.761 99.721, 138.604 99.328 C 137.447 98.936, 129.236 98.697, 120.359 98.798 C 104.632 98.976, 104.181 98.924, 102.802 96.741 C 100.562 93.194, 98 82.522, 98 76.738 C 98 67.339, 94.071 64.882, 85.793 69.106 C 80.424 71.845, 69.562 71.490, 67.379 68.504 C 65.591 66.058, 65.613 60.910, 67.423 58.441 C 68.724 56.667, 69.972 56.521, 81.938 56.749 L 95.030 56.999 96.901 53.922 C 99.214 50.120, 98.658 47.731, 94.682 44.386 C 91.895 42.041, 91.124 41.869, 86.551 42.573 C 80.430 43.517, 77.615 43.526, 72.767 42.616 C 67.282 41.587, 65.783 39.632, 66.551 34.508 C 67.108 30.795, 66.892 30.038, 64.873 28.623 C 61.664 26.376, 59.014 26.599, 55.500 29.412 M 106.110 29.636 C 104.020 31.099, 103.824 31.861, 104.240 36.878 C 104.496 39.962, 104.302 43.946, 103.809 45.731 C 103.169 48.048, 103.354 50.277, 104.456 53.523 C 105.305 56.024, 106.001 61.317, 106.002 65.285 C 106.004 71.413, 106.475 73.404, 109.125 78.500 C 110.841 81.800, 113.110 85.451, 114.168 86.613 C 117.712 90.507, 125.408 92.357, 139.349 92.665 C 156.668 93.048, 159.018 91.852, 158.985 82.668 C 158.968 77.838, 157.391 74.301, 154.366 72.313 C 152.489 71.079, 152.020 71.126, 150.465 72.705 C 144.937 78.318, 137.031 79.593, 127.629 76.389 C 121.569 74.324, 119.702 71.460, 119.602 64.071 C 119.493 56.054, 120.893 54.536, 127.467 55.547 C 144.834 58.217, 155.798 54.858, 153.077 47.702 C 151.773 44.273, 149.983 43.785, 137 43.318 C 130.675 43.091, 124.500 42.696, 123.278 42.440 C 120.117 41.780, 117 38.078, 117 34.986 C 117 31.938, 113.284 28, 110.408 28 C 109.328 28, 107.394 28.736, 106.110 29.636 M 82.214 111.977 C 80.956 112.519, 77.744 112.913, 75.076 112.853 C 69.688 112.732, 68 113.390, 68 115.610 C 68 119.487, 79.243 120.557, 101 118.750 C 104.720 118.442, 110.280 118.774, 114 119.528 C 120.167 120.777, 126.954 120.382, 129.827 118.607 C 131.377 117.649, 131.328 114.330, 129.750 113.312 C 129.063 112.868, 122.425 112.472, 115 112.432 C 107.575 112.392, 97.675 112.051, 93 111.675 C 87.987 111.272, 83.562 111.395, 82.214 111.977 M 109 133.662 C 107.625 133.862, 99.158 134.378, 90.184 134.810 C 77.648 135.414, 73.655 135.932, 72.950 137.048 C 71.618 139.155, 72.241 140.236, 76.080 142.481 C 79.202 144.307, 81.292 144.480, 100.087 144.466 C 118.020 144.453, 121.208 144.210, 124.815 142.584 C 129.936 140.274, 131.143 137.344, 128.016 134.812 C 126.273 133.401, 124.199 133.033, 118.639 133.150 C 114.713 133.232, 110.375 133.463, 109 133.662" stroke="none" fill="black" fill-rule="evenodd"/>
</svg>