<svg xmlns="http://www.w3.org/2000/svg" width="256" height="256" viewBox="0 0 256 256" version="1.1">
	<path d="M 64.174 31.314 C 61.316 34.357, 61.428 37.167, 64.557 40.885 C 67.714 44.637, 68.673 49.790, 66.704 52.429 C 65.539 53.991, 63.486 54.486, 55.883 55.037 C 45.041 55.823, 42.587 56.651, 38.587 60.874 C 36.375 63.210, 35.707 64.826, 35.811 67.591 C 36.055 74.077, 38.481 75.306, 44.790 72.136 C 49.461 69.789, 58.568 67.583, 62.500 67.847 C 67.369 68.173, 68.765 68.926, 69.432 71.587 C 70.378 75.355, 66.838 79.699, 61.700 81.074 C 57.335 82.242, 45.765 89.392, 42.624 92.862 C 41.384 94.233, 41.039 95.583, 41.522 97.178 C 42.375 99.997, 46.905 105, 48.604 105 C 50.332 105, 52.016 113.686, 52.644 125.827 C 53.423 140.878, 51.646 143.961, 43.033 142.506 C 37.730 141.610, 34.990 143.175, 35.605 146.750 C 36.474 151.801, 37.049 152.778, 39.783 153.848 C 46.884 156.628, 104.674 158.678, 122.500 156.782 C 128 156.197, 138.006 155.653, 144.737 155.573 C 158.102 155.414, 159.333 154.942, 159.333 149.978 C 159.333 145.095, 156.031 142.525, 150.040 142.747 C 142.656 143.020, 141.761 141.691, 142.564 131.636 C 143.103 124.883, 142.863 122.468, 141.155 117.427 C 140.024 114.086, 139.137 110.486, 139.185 109.427 C 139.368 105.385, 137.171 102.006, 134.275 101.874 C 118.035 101.134, 108.967 101.200, 106.289 102.078 C 103.598 102.959, 78.872 104.074, 64.500 103.962 C 56.432 103.899, 55.071 102.146, 59.750 97.848 C 64.335 93.636, 68.251 91.392, 73.500 89.970 C 76.250 89.225, 79.048 88.073, 79.718 87.411 C 80.388 86.749, 81.172 83.376, 81.460 79.916 C 82.349 69.248, 81.966 69.612, 91.360 70.500 C 95.837 70.923, 102.546 71.386, 106.270 71.528 C 114.599 71.848, 115.950 72.850, 115.834 78.621 C 115.730 83.827, 117.139 85.729, 123.543 89.022 C 126.016 90.294, 130.047 93.481, 132.500 96.104 L 136.961 100.873 145.903 100.293 C 150.821 99.975, 155.358 99.397, 155.985 99.009 C 157.515 98.064, 157.599 92.427, 156.110 90.632 C 155.453 89.841, 152.573 88.031, 149.708 86.608 C 146.844 85.186, 143.375 83.117, 142 82.011 C 140.625 80.905, 137.475 79.743, 135 79.429 C 127.546 78.482, 123.323 74.078, 125.958 70 C 127.101 68.230, 133.243 68.171, 145.912 69.809 C 156.273 71.149, 158.508 70.356, 157.608 65.658 C 157.275 63.921, 155.920 61.547, 154.598 60.382 C 151.540 57.686, 140.486 55.545, 134.042 56.400 C 129.558 56.995, 129.011 56.830, 126.993 54.272 C 125.203 52.004, 124.915 50.693, 125.409 47.065 C 125.741 44.626, 126.685 41.604, 127.506 40.350 C 128.328 39.096, 129 36.759, 129 35.157 C 129 32.866, 128.362 31.979, 126.019 31.008 C 122.313 29.473, 118.407 30.370, 116.951 33.091 C 116.342 34.229, 115.305 39.511, 114.645 44.830 C 113.455 54.429, 113.421 54.513, 109.973 56.248 C 105.780 58.359, 103.277 58.403, 91.110 56.576 C 81.676 55.159, 79.575 54.014, 80.566 50.828 C 80.852 49.908, 80.551 46.085, 79.897 42.332 C 78.940 36.836, 78.076 34.876, 75.455 32.255 C 71.485 28.285, 67.344 27.940, 64.174 31.314 M 67.600 117.250 C 66.605 118.798, 66.052 123.193, 65.827 131.330 C 65.529 142.099, 65.674 143.287, 67.441 144.580 C 70.153 146.564, 74.612 146.383, 75.582 144.250 C 76.020 143.287, 76.457 140.925, 76.554 139 C 76.651 137.075, 77.238 133.700, 77.859 131.500 C 78.481 129.300, 78.991 125.388, 78.994 122.807 C 78.999 119.087, 78.539 117.791, 76.777 116.557 C 73.504 114.264, 69.316 114.580, 67.600 117.250 M 116.693 116.250 C 114.769 117.674, 114.678 118.894, 115.518 132 C 115.988 139.318, 116.551 141.932, 117.973 143.381 C 120.225 145.677, 123.560 145.063, 127.209 141.683 C 129.594 139.472, 129.769 138.668, 129.886 129.408 C 129.955 123.959, 129.671 119.005, 129.256 118.400 C 127.043 115.177, 119.814 113.940, 116.693 116.250 M 93.245 117.250 C 92.695 117.938, 92.033 124.260, 91.774 131.299 C 91.329 143.391, 91.418 144.179, 93.374 145.549 C 95.833 147.272, 100.596 147.462, 101.576 145.877 C 101.957 145.260, 102.398 139.972, 102.556 134.127 C 102.713 128.282, 103.295 122.320, 103.848 120.877 C 104.555 119.035, 104.518 117.918, 103.727 117.127 C 102.203 115.603, 94.490 115.693, 93.245 117.250" stroke="none" fill="black" fill-rule="evenodd"/>
</svg>