<svg xmlns="http://www.w3.org/2000/svg" width="256" height="256" viewBox="0 0 256 256" version="1.1">
	<path d="M 73.500 32.996 C 69.100 33.442, 63.025 33.663, 60 33.487 C 44.918 32.610, 33.685 39.164, 41.223 44.443 C 43.056 45.728, 46.984 46, 63.675 46 C 85.327 46, 89 46.650, 89 50.479 C 89 54.872, 85.907 62.928, 83.490 64.829 C 82.134 65.896, 76.631 67.740, 71.262 68.928 C 65.893 70.116, 60.398 71.635, 59.050 72.304 C 52.475 75.568, 50.606 86.922, 54.020 102.864 C 55.680 110.621, 56.080 114.887, 55.611 119.860 C 55.266 123.512, 55.442 128.975, 56 132 C 56.559 135.025, 57.463 140.638, 58.009 144.473 C 58.666 149.088, 59.671 152.115, 60.981 153.425 C 62.954 155.398, 62.971 155.398, 65.895 153.235 C 68.597 151.238, 70.444 151.013, 89.165 150.401 C 124.264 149.254, 126.956 149.343, 131.710 151.813 C 136.647 154.378, 137.042 154.421, 139.441 152.667 C 140.898 151.602, 141.447 149.140, 142.172 140.417 C 143.260 127.329, 143.232 130.241, 142.516 104.560 C 142.195 93.043, 142.239 82.918, 142.615 82.060 C 143.490 80.061, 143.184 76.217, 141.885 72.880 C 140.731 69.917, 137.266 68, 133.062 68 C 131.498 68, 128.257 67.110, 125.859 66.022 C 122.607 64.546, 119.296 64.038, 112.821 64.022 C 102.409 63.996, 100.440 62.797, 101.503 57.131 C 102.490 51.872, 104.509 48.545, 107.556 47.156 C 109.388 46.322, 116.117 45.928, 128.381 45.939 C 149.400 45.957, 153 45.227, 153 40.946 C 153 36.148, 149.392 34.617, 136.045 33.750 C 117.455 32.543, 82.168 32.118, 73.500 32.996 M 96 78.606 C 92.425 78.782, 85.088 79.446, 79.695 80.083 C 67.666 81.502, 66.421 82.717, 66.700 92.762 C 66.963 102.238, 68.929 103.518, 77.688 99.918 C 80.292 98.848, 82.766 98.837, 91.188 99.859 C 100.300 100.964, 102.024 100.918, 106 99.470 C 108.475 98.568, 112.525 97.871, 115 97.921 C 126.499 98.156, 130 95.539, 130 86.711 C 130 79.885, 127.416 78.586, 113.500 78.418 C 107.450 78.345, 99.575 78.430, 96 78.606 M 97.235 112.098 C 93.239 112.483, 89.212 113.088, 88.286 113.444 C 87.360 113.799, 83.205 114.352, 79.051 114.674 C 74.898 114.995, 70.946 115.697, 70.270 116.235 C 68.340 117.768, 68.916 132.742, 70.937 133.568 C 73.847 134.758, 84.453 136.143, 94.620 136.660 C 102.531 137.062, 106.937 136.719, 114.812 135.087 C 120.352 133.939, 125.799 133, 126.917 133 C 131.138 133, 133.665 121.748, 130.837 115.542 C 128.795 111.059, 118.731 110.028, 97.235 112.098" stroke="none" fill="black" fill-rule="evenodd"/>
</svg>