<svg xmlns="http://www.w3.org/2000/svg" width="256" height="256" viewBox="0 0 256 256" version="1.1">
	<path d="M 115.500 34.709 C 103.950 36.610, 93.500 38.359, 92.279 38.595 C 89.596 39.113, 87.665 42.368, 88.492 44.976 C 89.529 48.241, 102.657 51.363, 109.803 50.044 C 113.096 49.436, 114.458 49.601, 115.603 50.746 C 117.645 52.788, 116.990 55.187, 113.993 56.642 C 110.145 58.512, 98.102 59.596, 91.474 58.671 C 86.382 57.960, 84.726 58.160, 80.202 60.035 C 77.286 61.244, 74.679 62.012, 74.409 61.743 C 74.140 61.473, 73.560 58.977, 73.120 56.195 C 72.680 53.414, 71.538 49.944, 70.582 48.486 C 68.579 45.428, 62.530 42.565, 60.133 43.540 C 59.235 43.905, 54.450 44.529, 49.500 44.926 C 38.915 45.776, 34.364 47.689, 31.160 52.634 C 28.992 55.980, 28.896 56.698, 29.858 62.373 C 30.429 65.743, 31.141 73.675, 31.442 80 C 31.742 86.325, 32.460 93.075, 33.038 95 C 33.676 97.126, 33.845 102.817, 33.470 109.500 C 32.862 120.310, 32.899 120.572, 35.612 124.693 C 40.004 131.363, 42.777 132.351, 55.579 131.808 C 66.278 131.353, 71.740 129.848, 73.600 126.839 C 74.819 124.866, 75.794 109.769, 74.903 106.662 C 73.676 102.383, 73.986 94.418, 76.204 73.264 C 76.395 71.444, 79.872 70.648, 81.550 72.042 C 82.350 72.706, 85.591 73.782, 88.752 74.433 C 94.204 75.556, 99.682 75.329, 112.083 73.466 C 116.486 72.804, 116.713 72.894, 117.902 75.763 C 118.582 77.404, 118.896 80.267, 118.601 82.124 C 117.218 90.825, 116.978 99.204, 118.003 103.013 C 119.657 109.155, 119.968 114.334, 118.769 115.778 C 117.988 116.719, 115.793 116.883, 110.457 116.400 C 104.583 115.868, 101.874 116.147, 96.196 117.872 C 90.197 119.694, 89.261 120.282, 89.698 121.954 C 90.351 124.448, 93.546 126.511, 98 127.312 C 105.380 128.640, 116.420 132.060, 117.177 133.253 C 118.450 135.256, 118.123 138.206, 116.421 140.087 C 115.035 141.619, 114.455 141.672, 111.671 140.526 C 109.200 139.508, 106.073 139.435, 97.500 140.195 C 83.421 141.442, 81.466 142.318, 81.604 147.323 C 81.730 151.880, 82.625 152.900, 87.450 153.989 C 92.376 155.100, 122.655 155.264, 142.288 154.286 C 158.995 153.454, 159.951 153.132, 159.985 148.321 C 160.021 143.089, 150.632 139.437, 139.338 140.291 C 130.481 140.961, 128.607 139.857, 130.052 134.819 C 130.553 133.071, 131.406 131.367, 131.947 131.033 C 132.488 130.698, 136.142 130.868, 140.066 131.411 C 148.659 132.599, 151.884 131.305, 153.641 125.966 C 155.860 119.220, 150.979 116, 138.532 116 C 134.389 116, 130.983 115.888, 130.962 115.750 C 130.037 109.625, 130.043 107.110, 130.994 102.531 C 131.907 98.131, 132.536 97, 134.071 97 C 135.132 97, 136 97.430, 136 97.955 C 136 98.480, 137.077 99.942, 138.393 101.205 C 147.537 109.976, 149.570 110.696, 154.056 106.749 C 161.882 99.862, 161.877 92.358, 154.040 84.250 C 152.262 82.411, 151.463 80.963, 152.199 80.914 C 152.915 80.867, 152.150 80.424, 150.500 79.930 C 147.078 78.905, 142.920 79.714, 145 81 C 145.906 81.560, 145.650 81.976, 144.098 82.469 C 141.350 83.341, 138.305 86.583, 136.320 90.750 C 135.469 92.537, 134.186 94, 133.469 94 C 130.838 94, 128.891 77.941, 131.035 73.934 C 132.428 71.332, 135.133 71.499, 142.080 74.616 C 147.323 76.969, 148.065 77.078, 149.446 75.697 C 150.291 74.852, 152.673 73.621, 154.741 72.960 C 156.808 72.299, 159.716 70.624, 161.202 69.238 C 163.758 66.854, 163.826 66.563, 162.442 63.888 C 160.180 59.514, 157.413 58.573, 145 57.956 C 132.098 57.314, 129 56.125, 129 51.816 C 129 48.091, 132.351 46, 138.321 46 C 143.649 46, 150 43.535, 150 41.468 C 150 40.750, 150.273 39.452, 150.607 38.583 C 150.994 37.573, 150.053 35.918, 148.001 34.001 C 143.932 30.200, 142.737 30.226, 115.500 34.709 M 47.750 57.368 C 44.434 60.220, 44.238 63.212, 47.189 65.961 C 51.526 70.002, 59 67.204, 59 61.539 C 59 58.605, 55.449 55, 52.561 55.001 C 51.428 55.002, 49.263 56.067, 47.750 57.368 M 49.197 80.087 C 45.705 82.655, 45 83.740, 45 86.551 C 45 90.514, 46.697 91.723, 53.589 92.667 C 57.738 93.236, 58.466 93.039, 60.108 90.904 C 62.575 87.695, 62.610 80.862, 60.171 78.655 C 57.435 76.179, 53.879 76.643, 49.197 80.087 M 94.046 83.754 C 90.897 84.942, 83.297 92.179, 83.549 93.750 C 83.660 94.438, 83.806 95.446, 83.875 95.991 C 84.325 99.560, 96.638 107.067, 102.305 107.228 C 106.106 107.336, 111.002 102.269, 110.996 98.234 C 110.990 93.763, 103.966 84.189, 100.500 83.927 C 99.950 83.885, 98.600 83.706, 97.500 83.529 C 96.400 83.351, 94.846 83.453, 94.046 83.754 M 49.250 105.491 C 46.270 106.786, 46 107.279, 46 111.431 C 46 115.700, 46.227 116.075, 49.960 117.980 C 55.163 120.634, 57.155 120.528, 60.053 117.444 C 63.142 114.156, 63.409 107.503, 60.536 105.403 C 58.112 103.631, 53.446 103.667, 49.250 105.491" stroke="none" fill="black" fill-rule="evenodd"/>
</svg>