<svg xmlns="http://www.w3.org/2000/svg" width="256" height="256" viewBox="0 0 256 256" version="1.1">
	<path d="M 119.896 28.436 C 119.267 29.066, 102.768 29.816, 73 30.568 C 62.388 30.835, 54.604 31.473, 53.223 32.188 C 49.807 33.956, 49.180 37.918, 51.960 40.169 C 53.801 41.660, 56.013 42.001, 63.861 42.006 C 73.400 42.011, 80.388 43.200, 81.505 45.009 C 82.602 46.783, 78.784 50.966, 75.147 51.976 C 73.141 52.533, 68.558 52.991, 64.962 52.994 C 59.268 52.999, 57.991 53.362, 55.064 55.805 C 52.044 58.327, 51.801 58.903, 52.667 61.501 C 53.946 65.337, 57.042 66.023, 64.757 64.180 C 72.819 62.255, 76.403 63.454, 75.392 67.739 C 75.034 69.257, 73.612 71.506, 72.233 72.735 C 69.642 75.043, 67.702 75.050, 61.698 72.776 C 59.708 72.022, 57.824 72.031, 55.198 72.806 C 53.164 73.407, 49.759 73.846, 47.630 73.782 C 44.635 73.693, 43.351 74.209, 41.953 76.063 C 39.418 79.422, 38.897 83.114, 40.587 85.736 L 42.028 87.972 48.633 85.486 C 56.185 82.644, 57.521 82.529, 63.027 84.247 C 67.476 85.636, 68.949 88.265, 66.711 90.822 C 65.902 91.745, 64.445 94.069, 63.472 95.988 C 61.208 100.451, 56.646 104.705, 52.085 106.604 C 41.549 110.993, 35.802 123.829, 42.400 128.235 C 45.554 130.341, 48.602 128.885, 54.244 122.576 C 58.779 117.504, 64.563 113, 66.540 113 C 66.668 113, 67.518 114.571, 68.429 116.491 C 69.801 119.383, 70.059 123.065, 69.930 137.928 C 69.783 154.900, 69.892 156.040, 71.955 158.937 C 74.411 162.386, 76.161 162.689, 80.500 160.417 C 82.802 159.211, 87.923 158.729, 102.500 158.345 C 129.606 157.630, 130.067 157.632, 134.650 158.474 C 138.426 159.168, 138.953 159.001, 140.512 156.623 C 141.772 154.699, 142.040 153.025, 141.526 150.286 C 141.142 148.238, 140.881 135.806, 140.946 122.658 L 141.065 98.753 137.046 94.929 C 133.587 91.639, 132.293 91.063, 127.763 90.803 C 124.868 90.636, 119.350 90.885, 115.500 91.356 C 103.357 92.840, 90.672 92.465, 87.029 90.515 L 84.732 89.286 87.816 87.921 C 89.861 87.016, 90.496 86.299, 89.700 85.793 C 87.707 84.527, 135.673 84.896, 144.813 86.217 C 153.014 87.403, 153.276 87.377, 155.022 85.221 C 158.215 81.278, 155.192 75.094, 148.825 72.547 C 144.983 71.010, 144.454 71.033, 138.781 72.997 C 135.488 74.136, 132.028 74.826, 131.094 74.530 C 126.374 73.032, 108.532 72.089, 104.433 73.121 C 100.580 74.091, 99.682 73.967, 96.543 72.026 C 92.446 69.495, 92.292 68.951, 94.978 66.520 C 96.562 65.086, 97.804 64.880, 101.228 65.483 C 106.064 66.334, 118.283 66.280, 128.105 65.365 C 132.116 64.991, 136.083 65.202, 138.203 65.902 C 144.040 67.828, 147.969 64.679, 146.045 59.618 C 143.923 54.038, 137.314 52.306, 115.430 51.597 C 101.612 51.149, 98.277 50.449, 97.443 47.819 C 96.225 43.982, 98.669 43.264, 116.959 42.083 C 135.027 40.917, 139.035 39.850, 138.968 36.227 C 138.924 33.804, 136.776 31.246, 133.853 30.134 C 130.548 28.878, 120.658 27.674, 119.896 28.436 M 83 107.294 C 83 112.083, 85.362 113.196, 94.392 112.662 C 98.851 112.398, 104.395 111.641, 106.710 110.980 C 109.856 110.081, 111.728 110.058, 114.110 110.888 C 120.894 113.254, 126.048 111.703, 125.252 107.535 C 124.814 105.244, 124.308 105, 120.006 105 C 117.109 105, 114.783 105.557, 114.064 106.423 C 112.891 107.837, 105.769 107.847, 99.204 106.445 C 97.717 106.127, 93.463 105.612, 89.750 105.299 C 83.025 104.733, 83 104.741, 83 107.294 M 113.974 124.531 C 112.923 125.797, 113.032 126.311, 114.602 127.499 C 117.173 129.446, 120.650 129.358, 123.408 127.277 L 125.693 125.553 123.232 124.277 C 119.899 122.547, 115.521 122.668, 113.974 124.531 M 98 126 C 98.825 126.533, 100.400 126.969, 101.500 126.969 C 102.600 126.969, 104.175 126.533, 105 126 C 106.078 125.303, 105.093 125.031, 101.500 125.031 C 97.907 125.031, 96.922 125.303, 98 126 M 84.583 139.555 C 82.286 140.719, 82.257 143.815, 84.527 145.579 C 85.956 146.690, 111.522 146.625, 119.635 145.490 C 124.399 144.824, 127.381 142.235, 125.986 139.977 C 125.231 138.757, 121.728 138.500, 105.869 138.500 C 94.377 138.500, 85.830 138.924, 84.583 139.555" stroke="none" fill="black" fill-rule="evenodd"/>
</svg>