<svg xmlns="http://www.w3.org/2000/svg" width="256" height="256" viewBox="0 0 256 256" version="1.1">
	<path d="M 138.455 33.455 C 136.472 35.437, 135.997 36.927, 135.985 41.205 C 135.960 50.245, 133.266 52.851, 122.167 54.571 C 116.449 55.458, 115.201 53.824, 114.470 44.500 C 113.988 38.338, 113.362 35.983, 111.748 34.250 C 109.162 31.475, 105.885 31.364, 103.525 33.973 C 101.709 35.979, 101.721 36.319, 103.901 45.336 C 105.238 50.869, 102.901 52.967, 95.250 53.100 C 92.087 53.155, 88.375 53.516, 87 53.904 C 82.272 55.237, 80.021 54.007, 76.828 48.348 C 72.921 41.427, 71.066 40.400, 66.435 42.598 C 63.438 44.020, 61.918 44.116, 56.535 43.224 C 47.432 41.716, 41.958 43.191, 37 48.487 C 34.544 51.111, 34.495 51.487, 34.196 69.829 C 34.013 81.054, 34.356 91.092, 35.056 95 C 35.853 99.453, 35.943 104.503, 35.344 111.034 C 34.409 121.211, 34.421 121.266, 40.036 133.750 C 42.615 139.486, 43.885 140.022, 47.727 137 C 49.276 135.781, 51.784 135, 54.146 135 C 56.278 135, 60.022 134.060, 62.466 132.911 C 65.491 131.489, 67.851 131.028, 69.852 131.467 C 73.160 132.194, 79.719 129.896, 80.555 127.717 C 81.435 125.424, 81.276 118.022, 80.123 107.631 C 79.521 102.203, 79.360 97.253, 79.764 96.631 C 80.169 96.009, 80.500 89.382, 80.500 81.904 C 80.500 71.895, 80.860 67.875, 81.863 66.665 C 82.924 65.386, 85.031 65.023, 91.363 65.027 C 95.839 65.030, 101.253 64.984, 103.396 64.925 C 105.538 64.866, 108.351 65.309, 109.646 65.909 C 110.941 66.509, 113.083 67.503, 114.406 68.119 C 115.748 68.742, 117.045 70.402, 117.339 71.869 C 118.052 75.439, 115.078 77.609, 108.549 78.283 C 103.285 78.826, 95.496 82.216, 93.216 84.957 C 90.961 87.666, 89.857 91.340, 89.447 97.500 C 88.844 106.536, 88.953 109.044, 90.037 111.068 C 90.991 112.852, 92.315 113.232, 102 114.503 C 113.642 116.030, 112.180 121.587, 97.003 133.500 C 88.485 140.185, 87 141.804, 87 144.398 C 87 147.374, 90.349 150, 94.146 150 C 96.553 150, 102.387 146.225, 104.168 143.516 C 106.391 140.134, 114.684 131.125, 115.628 131.068 C 117.993 130.925, 119.145 134.167, 120.104 143.670 C 121.223 154.748, 123.375 160.034, 127.343 161.443 C 130.869 162.695, 132.925 160.044, 132.968 154.193 C 132.986 151.824, 133.525 146.708, 134.166 142.824 C 135.054 137.445, 135.054 135.317, 134.166 133.895 C 133.525 132.867, 133 128.941, 133 125.169 C 133 116.629, 134.395 115, 141.706 115 C 147.918 115, 149.224 116.357, 149.703 123.311 C 150.096 129.012, 149.596 129.934, 143.750 134.301 C 139.299 137.626, 138.996 140.123, 142.750 142.542 C 144.262 143.517, 145.860 144.919, 146.300 145.657 C 146.740 146.396, 148.111 147, 149.347 147 C 152.495 147, 161.850 140.014, 162.739 137 C 163.647 133.923, 163.547 123.896, 162.514 114.302 C 161.450 104.423, 159.553 102.640, 150.379 102.892 C 142.892 103.098, 133.028 101.236, 132.358 99.491 C 132.116 98.861, 132.376 97.142, 132.934 95.672 L 133.950 93 145.452 93 C 159.556 93, 159.451 93.104, 160.542 78 C 162.032 57.359, 161.904 56.938, 152.777 52.553 C 146.751 49.658, 145.797 46.416, 149.378 41.005 C 152.463 36.343, 152.199 33.867, 148.434 32.152 C 144.476 30.348, 141.123 30.786, 138.455 33.455 M 57.833 49.750 C 57.650 50.163, 55.819 51.756, 53.763 53.291 C 49.250 56.662, 47.638 59.421, 48.402 62.467 C 49.616 67.303, 61.828 69.165, 65.180 65.026 C 68.214 61.279, 67.379 56.867, 62.576 51.250 C 60.662 49.012, 58.470 48.319, 57.833 49.750 M 134.304 66.956 C 130.651 69.183, 128.860 74.921, 131.009 77.511 C 132.435 79.229, 143.538 79.591, 146 78 C 146.825 77.467, 147.107 77.024, 146.628 77.015 C 146.148 77.007, 146.251 76.402, 146.857 75.672 C 148.295 73.940, 146.718 68.263, 144.288 66.420 C 141.748 64.493, 138.014 64.694, 134.304 66.956 M 55.677 76.978 C 49.986 79.201, 47 82.290, 47 85.953 C 47 89.377, 48.693 91, 52.266 91 C 53.842 91, 56.104 91.520, 57.292 92.156 C 60.214 93.720, 65.914 94.949, 66.423 94.125 C 67.631 92.170, 67.971 84.442, 66.981 81.442 C 66.003 78.478, 62.673 74.901, 61.027 75.047 C 60.737 75.073, 58.330 75.941, 55.677 76.978 M 107.339 92.935 C 103.635 95.194, 102.173 98.647, 104.147 100.478 C 106.175 102.360, 113.706 103.907, 116.788 103.074 C 119.234 102.414, 119.483 101.927, 119.328 98.118 C 119.234 95.795, 118.616 93.243, 117.956 92.447 C 116.270 90.415, 111.080 90.654, 107.339 92.935 M 59 103.584 C 57.075 104.279, 54.332 104.882, 52.905 104.924 C 49.343 105.028, 47 107.951, 47 112.290 C 47 117.106, 49.663 119.455, 56.734 120.875 C 61.910 121.915, 62.542 121.840, 64.561 119.943 C 66.082 118.514, 66.910 116.291, 67.254 112.713 C 68.094 103.971, 65.591 101.203, 59 103.584 M 41.739 146.889 C 41.067 149.460, 42.494 151.760, 43.361 149.502 C 44.268 147.138, 44.152 145, 43.117 145 C 42.631 145, 42.011 145.850, 41.739 146.889" stroke="none" fill="black" fill-rule="evenodd"/>
</svg>