<svg xmlns="http://www.w3.org/2000/svg" width="256" height="256" viewBox="0 0 256 256" version="1.1">
	<path d="M 44.223 30.557 C 42.382 31.846, 42 33.063, 42 37.636 C 42 41.218, 41.107 45.391, 39.459 49.511 C 38.061 53.005, 36.525 58.257, 36.046 61.182 C 35.567 64.107, 34.875 67.686, 34.508 69.137 C 34 71.142, 34.383 72.279, 36.109 73.887 C 38.837 76.428, 39.215 76.453, 43.300 74.360 C 47.174 72.376, 47.727 71.623, 49.078 66.500 C 50.609 60.692, 52.617 58.270, 54.777 59.626 C 56.679 60.821, 57.791 66.865, 57.881 76.500 C 57.931 81.845, 57.653 82.708, 55.331 84.400 C 52.762 86.274, 52.634 86.270, 46.370 84.179 C 39.399 81.851, 37.839 82.056, 33.750 85.834 C 30.387 88.940, 30.288 91.061, 33.339 94.608 C 35.468 97.083, 36.509 97.388, 44.926 97.995 C 51.180 98.446, 54.485 99.121, 55.138 100.081 C 56.679 102.346, 55.403 112.475, 52.959 117.367 C 51.726 119.836, 49.018 123.466, 46.942 125.434 C 44.865 127.402, 41.497 131.996, 39.457 135.643 C 36.107 141.633, 35.802 142.791, 36.299 147.612 C 36.974 154.148, 37.463 155, 40.541 155 C 43.018 155, 45.984 152.352, 53.500 143.432 C 60.200 135.480, 65.103 131, 67.107 131 C 68.512 131, 73.887 134.751, 76.702 137.696 C 77.913 138.963, 80.051 140, 81.452 140 C 83.779 140, 87.882 137.061, 88.083 135.250 C 88.129 134.838, 88.288 133.375, 88.436 132 C 88.743 129.150, 86.214 121, 85.023 121 C 84.588 121, 84.008 120.138, 83.732 119.085 C 83.080 116.589, 79.323 116.050, 75.298 117.874 C 71.106 119.773, 69.894 118.721, 67.650 111.230 C 65.683 104.664, 66.029 100.454, 68.703 98.427 C 71.171 96.555, 72.928 96.669, 77.500 99 C 82.922 101.764, 85.038 101.523, 89.253 97.662 C 91.925 95.215, 92.751 93.764, 92.349 92.227 C 91.267 88.088, 88.256 86.552, 80.456 86.158 C 70.934 85.677, 70.331 84.830, 70.545 72.232 C 70.631 67.135, 71.026 62.640, 71.423 62.244 C 71.820 61.847, 74.520 61.517, 77.423 61.511 C 81.991 61.502, 83.349 60.996, 87.515 57.750 C 92.862 53.584, 96.756 52.968, 99.384 55.872 C 101.018 57.678, 101.393 66.576, 100.967 93.500 C 100.932 95.700, 101.101 106.725, 101.341 118 C 101.751 137.252, 101.657 138.670, 99.788 141.297 C 98.693 142.835, 97.565 145.827, 97.280 147.946 C 96.824 151.347, 97.096 152.016, 99.592 153.650 C 102.192 155.351, 104.603 155.481, 129.450 155.267 C 154.049 155.054, 156.704 154.865, 158.989 153.168 C 162.154 150.816, 162.573 147.227, 160.059 144 L 158.111 141.500 137.216 141.500 C 120.805 141.500, 115.958 141.200, 114.632 140.104 C 113.194 138.916, 113.029 137.424, 113.525 130.104 C 114.492 115.836, 113.956 116.639, 121.977 117.429 C 143.778 119.577, 149.331 118.899, 152.176 113.740 C 155.007 108.607, 156.190 83.460, 153.934 76.397 C 153.355 74.586, 151.810 72.768, 150.221 72.029 C 147.040 70.550, 123.973 68.663, 119.297 69.500 C 116.619 69.979, 115.815 69.648, 114.395 67.480 C 113.460 66.053, 112.485 62.695, 112.228 60.018 C 111.821 55.782, 112.095 54.814, 114.334 52.575 C 116.802 50.107, 117.387 50, 128.414 50 C 150.482 50, 160.854 46.980, 159.292 41.008 C 158.675 38.649, 153.219 34.747, 151.780 35.636 C 151.307 35.929, 139.800 36.302, 126.210 36.466 C 111.123 36.648, 100.408 37.197, 98.697 37.877 C 97.156 38.490, 94.089 40.441, 91.883 42.214 L 87.871 45.438 72.464 45.469 C 57.901 45.498, 56.936 45.379, 54.855 43.299 C 52.810 41.254, 52.744 40.797, 53.929 36.841 C 55.123 32.859, 55.062 32.469, 52.992 30.792 C 50.269 28.588, 47.153 28.504, 44.223 30.557 M 114.157 85.843 C 112.513 87.487, 112.084 89.143, 112.120 93.713 C 112.147 97.118, 112.793 100.479, 113.689 101.877 C 115.105 104.087, 115.646 104.210, 121.356 103.632 C 124.787 103.284, 129.204 103.482, 131.358 104.081 C 136.272 105.447, 140.567 103.861, 141.447 100.355 C 143.354 92.757, 137.371 85, 129.605 85 C 127.226 85, 123.245 84.721, 120.759 84.380 C 117.003 83.866, 115.887 84.113, 114.157 85.843" stroke="none" fill="black" fill-rule="evenodd"/>
</svg>