<svg xmlns="http://www.w3.org/2000/svg" width="256" height="256" viewBox="0 0 256 256" version="1.1">
	<path d="M 108 31.676 C 102.775 31.795, 88.600 32.421, 76.500 33.066 C 55.024 34.211, 50.314 35.065, 48.401 38.161 C 48.001 38.807, 47.733 52.873, 47.804 69.418 C 47.918 95.793, 47.683 100.855, 45.895 110.500 C 43.794 121.828, 39.362 139.019, 35.864 149.402 C 34.127 154.559, 34.059 155.488, 35.327 156.755 C 37.119 158.547, 39.951 157.753, 44.041 154.312 C 47.234 151.625, 49.003 148.739, 51.359 142.370 C 52.146 140.242, 53.707 136.116, 54.826 133.202 C 55.946 130.289, 56.972 125.213, 57.107 121.924 C 57.241 118.635, 57.935 113.144, 58.649 109.722 C 59.363 106.300, 60.120 97.511, 60.332 90.191 C 60.579 81.684, 61.149 76.452, 61.913 75.691 C 62.720 74.887, 67.066 74.537, 75.304 74.614 C 128.787 75.115, 145.745 75.076, 147.327 74.450 C 150.366 73.247, 150.776 70.179, 150.103 53.645 C 149.227 32.112, 150.951 33.414, 121 31.663 C 119.075 31.551, 113.225 31.556, 108 31.676 M 63.912 46.775 C 61.245 48.642, 59.175 53.463, 59.749 56.467 C 60.453 60.148, 63.694 60.892, 76.630 60.345 C 90.059 59.777, 93.576 58.825, 94.402 55.533 C 95.152 52.547, 93.322 47.366, 91.180 46.412 C 90.256 46, 84.219 45.580, 77.764 45.478 C 68.779 45.336, 65.531 45.640, 63.912 46.775 M 111.020 46.224 C 108.054 47.797, 106.035 51.458, 106.015 55.301 C 105.992 59.714, 110.196 60.932, 123.166 60.267 C 129.033 59.967, 134.379 59.384, 135.047 58.971 C 135.878 58.457, 136.049 56.813, 135.589 53.746 C 134.467 46.261, 133.553 45.652, 122.868 45.256 C 116.451 45.019, 112.719 45.324, 111.020 46.224 M 75.156 84.395 C 71.547 87.161, 71.082 87.988, 71.768 90.415 C 72.705 93.726, 73.156 104.744, 73.390 130 C 73.541 146.284, 73.984 154.187, 74.833 155.738 C 76.593 158.955, 80.720 159.711, 84.444 157.498 C 87.127 155.904, 90.428 155.647, 111.500 155.394 C 131.417 155.154, 136.221 155.374, 139.737 156.683 C 143.520 158.093, 144.216 158.100, 146.237 156.756 C 148.264 155.408, 148.516 154.376, 148.651 146.875 C 148.735 142.269, 149.026 126.905, 149.298 112.734 C 149.746 89.456, 149.629 86.763, 148.084 84.855 C 146.409 82.787, 145.658 82.739, 112.093 82.551 C 78.994 82.366, 77.721 82.430, 75.156 84.395 M 86.831 96.750 C 83.182 101.069, 87.066 103.458, 97.500 103.313 C 125.722 102.919, 131.094 102.940, 131.914 103.447 C 133.571 104.471, 137.579 101.936, 137.743 99.759 C 138.067 95.454, 135.903 95.066, 111.405 95.032 C 90.616 95.003, 88.162 95.175, 86.831 96.750 M 86.722 116.023 C 84.890 117.507, 84.897 117.597, 86.977 119.479 C 88.974 121.287, 90.540 121.392, 111.295 121.113 C 123.496 120.948, 134.271 120.390, 135.239 119.872 C 136.950 118.956, 137.756 115.040, 136.250 114.960 C 135.838 114.938, 124.948 114.825, 112.051 114.710 C 92.319 114.533, 88.305 114.741, 86.722 116.023 M 87.189 135.039 C 85.985 136.160, 85 137.500, 85 138.016 C 85 142.032, 100.245 143.813, 124 142.571 C 129.225 142.298, 134.054 142.058, 134.731 142.037 C 135.408 142.017, 136.249 140.857, 136.599 139.460 C 138.174 133.184, 129.958 131.230, 116.360 134.645 C 110.280 136.173, 109.148 136.173, 100.597 134.645 C 89.185 132.607, 89.819 132.588, 87.189 135.039" stroke="none" fill="black" fill-rule="evenodd"/>
</svg>