<svg xmlns="http://www.w3.org/2000/svg" width="256" height="256" viewBox="0 0 256 256" version="1.1">
	<path d="M 90.929 31.953 C 86.080 36.851, 84.572 37.146, 63.345 37.343 C 45.135 37.513, 42.515 38.175, 41.312 42.919 C 40.302 46.899, 43.927 49, 51.804 49 C 70.240 49, 91 51.608, 91 53.925 C 91 55.135, 84.831 57.175, 78.434 58.081 C 69.165 59.393, 63.248 60.996, 61.966 62.541 C 61.364 63.266, 60.704 66.118, 60.498 68.879 C 60.293 71.640, 59.588 74.901, 58.932 76.126 C 57.505 78.793, 58.185 93.609, 59.879 96.775 C 61.288 99.407, 61.350 113.477, 59.965 116.066 C 59.395 117.130, 58.270 118, 57.465 118 C 56.659 118, 56 118.450, 56 119 C 56 119.550, 53.525 120, 50.500 120 C 43.645 120, 41 122.174, 41 127.809 C 41 135.212, 44.681 137.002, 50.865 132.604 C 54.494 130.023, 56.086 129.527, 60.311 129.658 C 67.827 129.892, 69.729 133.306, 66.322 140.451 C 64.631 143.998, 60.590 147.221, 53.827 150.418 C 49.657 152.390, 48.555 154.301, 50.016 157.029 C 51.606 160.002, 56.745 160.369, 65.470 158.133 C 76.223 155.379, 78.161 153.336, 78.478 144.428 C 78.690 138.466, 79.045 137.358, 81.387 135.343 C 83.898 133.183, 84.745 133.068, 95.802 133.382 C 109.690 133.777, 112.721 134.961, 116.547 141.489 C 119.030 145.727, 125.698 152, 127.720 152 C 128.232 152, 129.702 153.118, 130.986 154.485 C 134.953 158.707, 143.163 159.446, 146.228 155.856 C 147.814 153.999, 147.830 153.529, 146.426 150.166 C 144.484 145.515, 139.587 141, 136.485 141 C 132.069 141, 129 138.918, 129 135.923 C 129 134.407, 129.563 132.968, 130.250 132.724 C 130.938 132.481, 135.550 132.465, 140.500 132.690 C 150.990 133.166, 154.322 131.998, 154.822 127.666 C 155.298 123.556, 153.449 122, 148.089 122 C 145.397 122, 141.763 121.154, 139.500 120 C 137.342 118.900, 134.885 117.993, 134.039 117.985 C 133.141 117.976, 132.916 117.663, 133.500 117.235 C 136.948 114.702, 138.059 101.143, 136.510 80.500 C 136.221 76.650, 135.958 71.349, 135.925 68.720 C 135.869 64.319, 135.570 63.754, 132.156 61.598 C 127.535 58.682, 123.803 57.845, 114.423 57.622 C 106.359 57.430, 103.790 56.145, 105.628 53.222 C 106.564 51.735, 109.150 51.422, 124.606 50.927 C 145.452 50.259, 150.368 48.981, 149.819 44.371 C 149.217 39.324, 145.448 37.763, 133.338 37.545 C 106.861 37.067, 109.557 37.538, 104.447 32.500 C 98.650 26.785, 96.147 26.684, 90.929 31.953 M 71.729 71.604 C 68.976 74.357, 75.213 78.424, 80.757 77.491 C 82.816 77.144, 86.975 76.934, 90 77.024 C 99.283 77.300, 102.339 77.206, 106.632 76.510 C 108.905 76.142, 112.381 76.287, 114.358 76.833 C 117.400 77.673, 118.350 77.512, 120.547 75.784 C 125.310 72.038, 122.632 71.522, 96.681 71.188 C 83.359 71.016, 72.130 71.203, 71.729 71.604 M 72.751 87.524 C 72.139 90.725, 72.832 91.115, 78.164 90.563 C 80.549 90.317, 83.287 90.089, 84.250 90.057 C 85.213 90.026, 86 89.475, 86 88.833 C 86 88.192, 85.721 87.945, 85.381 88.286 C 85.040 88.626, 84.075 88.218, 83.236 87.378 C 82.139 86.282, 81.510 86.175, 81 87 C 80.493 87.821, 79.843 87.700, 78.717 86.574 C 76.267 84.124, 73.311 84.595, 72.751 87.524 M 97 88.545 C 97 89.345, 97.787 90.050, 98.750 90.110 C 100.560 90.224, 108.053 90.615, 116.144 91.018 C 121.830 91.301, 123.917 90.311, 121.323 88.560 C 120.179 87.787, 115.314 87.285, 108.250 87.210 C 99.017 87.112, 97 87.351, 97 88.545 M 71.903 101.060 C 69.265 102.690, 77.827 103.634, 94.051 103.500 C 103.154 103.425, 111.142 103.030, 111.801 102.623 C 112.460 102.215, 113 102.306, 113 102.824 C 113 104.416, 117.900 104.825, 119.136 103.336 C 119.768 102.575, 120.097 101.764, 119.868 101.534 C 119.067 100.733, 73.166 100.279, 71.903 101.060 M 82 113.286 C 81.725 113.557, 79.527 114.049, 77.115 114.379 C 74.704 114.709, 72.076 115.522, 71.277 116.185 C 68.749 118.284, 73.147 118.999, 88.840 119.043 C 96.903 119.065, 105.975 119.275, 109 119.511 C 118.622 120.258, 122.398 120.051, 126.500 118.551 C 128.700 117.746, 129.782 117.068, 128.904 117.044 C 128.026 117.020, 125.819 116.258, 124.001 115.351 C 121.393 114.050, 116.658 113.605, 101.597 113.246 C 91.094 112.996, 82.275 113.014, 82 113.286" stroke="none" fill="black" fill-rule="evenodd"/>
</svg>