<svg xmlns="http://www.w3.org/2000/svg" width="256" height="256" viewBox="0 0 256 256" version="1.1">
	<path d="M 44.286 30.250 C 42.831 31.837, 42.095 34.269, 41.790 38.500 C 41.528 42.128, 40.324 46.674, 38.743 50 C 35.677 56.449, 32.686 68.602, 33.431 71.579 C 34.244 74.823, 38 76.070, 41.545 74.272 C 44.958 72.541, 47.943 69.169, 47.983 67 C 47.998 66.175, 49.046 64.205, 50.313 62.622 C 52.073 60.422, 53.126 59.905, 54.777 60.429 C 57.266 61.219, 58.660 65.339, 59.635 74.785 C 60.221 80.462, 60.060 81.308, 57.967 83.535 C 55.335 86.336, 52.718 86.567, 45.467 84.636 C 34.966 81.839, 27.655 89.746, 34.455 96.545 C 36.648 98.738, 37.753 99, 44.832 99 C 53.674 99, 54.741 99.628, 55.674 105.380 C 56.127 108.169, 55.474 110.575, 52.651 116.520 C 50.670 120.690, 47.517 125.992, 45.644 128.301 C 40.878 134.176, 35.222 143.268, 34.470 146.264 C 33.525 150.028, 36.425 155, 39.566 155 C 42.729 155, 47.524 151.506, 50.114 147.315 C 51.207 145.547, 53.667 143.133, 55.581 141.950 C 59.129 139.757, 63 133.613, 63 130.176 C 63 128.279, 67.506 123, 69.125 123 C 70.458 123, 74 126.319, 74 127.569 C 74 128.933, 75.861 130.997, 82.811 137.344 C 87.292 141.436, 88.533 142.084, 90.808 141.516 C 98.557 139.582, 98.994 134.290, 92.020 126.828 C 89.281 123.898, 86.566 120.357, 85.986 118.960 C 84.841 116.201, 78.985 112.827, 72.250 111.044 C 69.912 110.426, 67.932 109.375, 67.849 108.710 C 67.766 108.044, 67.654 106.038, 67.599 104.250 L 67.500 101.001 74.500 101.006 C 78.754 101.010, 82.624 101.598, 84.364 102.506 C 88.667 104.750, 96.667 104.491, 97.965 102.066 C 100.456 97.411, 97.997 90.741, 93.075 88.804 C 91.659 88.246, 87.800 87.570, 84.500 87.301 C 76.207 86.624, 71.592 84.308, 71.170 80.609 C 70.988 79.018, 71.380 77.383, 72.040 76.975 C 72.700 76.568, 73.527 73.594, 73.878 70.367 C 74.506 64.601, 74.567 64.505, 77.435 64.815 C 79.039 64.989, 81.601 65.777, 83.127 66.565 C 87.521 68.838, 88.948 68.329, 91.027 63.750 C 93.594 58.096, 93.488 56.006, 90.470 52.751 C 87.555 49.607, 87.562 49.609, 71.039 47.463 C 64.186 46.573, 57.773 45.414, 56.789 44.887 C 54.693 43.765, 54.515 40.983, 56.236 36.223 C 57.399 33.007, 57.307 32.660, 54.681 30.402 C 51.159 27.372, 46.980 27.311, 44.286 30.250 M 107.500 46.498 C 105.892 47.776, 105.546 49.107, 105.734 53.293 C 105.878 56.485, 105.156 60.959, 103.868 64.856 C 102.028 70.420, 101.906 71.905, 102.883 76.773 C 104.374 84.195, 104.276 88.518, 102.485 94.421 C 101.158 98.797, 101.161 99.961, 102.509 104.921 C 103.377 108.114, 104.188 116.275, 104.404 124 C 104.728 135.598, 105.169 138.584, 107.529 145.196 C 109.041 149.429, 110.897 153.130, 111.654 153.421 C 112.413 153.712, 114.257 152.570, 115.765 150.874 C 119.484 146.693, 122.568 145.261, 129.564 144.470 C 135.226 143.830, 135.747 143.965, 140.850 147.399 C 143.793 149.380, 146.761 151, 147.446 151 C 151.755 151, 153.428 142.137, 154.430 114 C 154.905 100.645, 155.929 87.530, 157.786 71 C 158.746 62.452, 157.514 52.165, 155.150 49 C 153.324 46.555, 152.990 46.499, 139.891 46.460 C 132.526 46.438, 122.675 46.080, 118 45.664 C 110.943 45.037, 109.160 45.179, 107.500 46.498 M 118.596 60.554 C 116.255 62.265, 115.121 77.736, 115.484 103 C 115.713 118.953, 115.952 121.030, 118.189 126.500 L 120.642 132.500 128.071 132.302 C 132.157 132.193, 136.047 132.080, 136.715 132.052 C 139.722 131.924, 140.508 127.284, 141.298 105 C 141.736 92.625, 142.186 77.775, 142.298 72 L 142.500 61.500 134 61.433 C 129.325 61.395, 124.359 60.881, 122.965 60.289 C 121.042 59.473, 119.986 59.537, 118.596 60.554" stroke="none" fill="black" fill-rule="evenodd"/>
</svg>