<svg xmlns="http://www.w3.org/2000/svg" width="256" height="256" viewBox="0 0 256 256" version="1.1">
	<path d="M 110.500 35.057 C 108.300 35.512, 103.231 35.861, 99.235 35.832 C 94.894 35.802, 91.375 36.274, 90.492 37.007 C 87.678 39.342, 86.818 45.804, 87.511 59.398 C 87.878 66.604, 88.305 80.436, 88.460 90.136 C 88.614 99.836, 89.050 108.272, 89.428 108.883 C 91.276 111.873, 89.553 133.689, 86.899 140.907 C 84.616 147.114, 85.076 151.239, 88.302 153.499 C 90.866 155.295, 97.275 155.464, 100.316 153.816 C 101.517 153.165, 106.250 151.626, 110.833 150.396 C 115.417 149.166, 120.029 147.379, 121.083 146.425 C 124.735 143.120, 122.977 137.541, 117.692 135.661 C 116.697 135.307, 113.146 135.940, 109.800 137.067 C 105.344 138.569, 103.420 138.820, 102.608 138.007 C 101.465 136.862, 101.361 116.589, 102.480 113.062 C 103.106 111.091, 105.496 110.409, 115.221 109.429 C 121.064 108.840, 121.665 108.972, 123.870 111.340 C 125.719 113.325, 126.426 115.601, 127.086 121.692 C 127.552 125.986, 128.520 131.123, 129.238 133.106 C 130.540 136.703, 135.443 143.906, 137.445 145.162 C 138.025 145.527, 139.625 146.807, 141 148.008 C 144.710 151.248, 148.456 152.964, 153.233 153.614 C 158.281 154.301, 161.770 152.112, 164.373 146.626 C 166.569 141.998, 166.420 138.803, 163.855 135.543 C 161.546 132.608, 159.545 132.519, 153.320 135.078 C 148.584 137.025, 145.625 135.284, 143.608 129.362 C 142.710 126.728, 140.885 122.981, 139.551 121.036 C 135.893 115.702, 135.426 112.574, 137.913 110.087 C 139.689 108.311, 141.231 107.998, 148.250 107.985 C 157.248 107.968, 158.664 107.511, 159.051 104.500 C 159.710 99.360, 157.069 97.467, 145.697 94.933 C 135.838 92.735, 134.015 91.217, 134.564 85.664 C 135.085 80.403, 136.997 79, 143.644 79 C 155.186 79, 156.258 76.722, 157.409 49.755 C 157.781 41.058, 157.580 38.723, 156.356 37.499 C 153.020 34.163, 151.100 33.818, 142.175 34.953 C 136.171 35.717, 131.191 35.749, 126 35.059 C 117.422 33.918, 116.008 33.918, 110.500 35.057 M 47.271 40.540 C 39.776 42.559, 34.139 46.426, 32.300 50.811 C 31.063 53.761, 30.916 56.203, 31.565 63 C 32.011 67.675, 32.461 75.550, 32.565 80.500 C 32.668 85.450, 33.342 92.279, 34.061 95.675 C 35.118 100.664, 35.132 103.397, 34.136 109.906 C 32.537 120.350, 33.322 124.203, 38.063 129.187 C 41.228 132.514, 42.343 133.094, 44.684 132.632 C 47.466 132.084, 65.940 131.773, 73.291 132.151 C 75.689 132.275, 77.685 131.743, 78.724 130.705 C 80.534 128.894, 80.600 127.469, 81.228 76.706 L 81.572 48.912 78.993 45.823 C 76.655 43.022, 75.885 42.738, 70.756 42.784 C 67.069 42.817, 63.790 42.167, 61.338 40.917 C 56.953 38.682, 54.422 38.614, 47.271 40.540 M 107.623 49.033 C 101.918 50.742, 98.507 57.576, 101.391 61.519 C 102.718 63.334, 104.207 63.521, 119.170 63.749 C 128.151 63.886, 136.610 64.040, 137.966 64.091 C 141.542 64.227, 144.265 60.482, 143.412 56.600 C 142.478 52.346, 140.312 49.317, 137.703 48.618 C 134.375 47.726, 110.908 48.050, 107.623 49.033 M 50.017 54.281 C 46.943 55.842, 45.136 60.403, 46.640 62.803 C 48.018 65.002, 54.843 65.538, 61.836 63.995 C 66.914 62.875, 67.141 62.690, 66.543 60.159 C 65.677 56.492, 62.410 54, 58.471 54 C 56.652 54, 54.564 53.780, 53.832 53.510 C 53.099 53.241, 51.382 53.588, 50.017 54.281 M 62.500 75.732 C 49.711 78.270, 45 80.824, 45 85.219 C 45 89.170, 46.886 91, 50.959 91 C 53.098 91, 57.185 91.540, 60.042 92.199 C 64.725 93.280, 65.366 93.219, 66.564 91.581 C 68.301 89.206, 67.820 78.342, 65.901 76.605 C 65.130 75.907, 63.600 75.514, 62.500 75.732 M 107.826 78.724 C 103.417 79.189, 102.638 80.067, 101.123 86.276 C 100.271 89.769, 100.253 91.604, 101.056 93.105 C 102.067 94.993, 102.763 95.105, 109.827 94.515 C 121.144 93.568, 122.073 92.904, 121.619 86.083 C 121.110 78.427, 119.382 77.504, 107.826 78.724 M 54.726 103.418 C 47.785 104.897, 47.048 105.540, 46.514 110.586 C 45.918 116.223, 46.695 118, 49.757 118 C 51.200 118, 54.960 118.533, 58.115 119.185 C 65.800 120.772, 67 119.775, 67 111.806 C 67 103.045, 64.498 101.336, 54.726 103.418" stroke="none" fill="black" fill-rule="evenodd"/>
</svg>