<svg xmlns="http://www.w3.org/2000/svg" width="256" height="256" viewBox="0 0 256 256" version="1.1">
	<path d="M 111.871 31.508 C 109.556 32.766, 106 39.167, 106 42.075 C 106 43.076, 103.143 49.985, 100.696 54.901 C 100.038 56.222, 97.860 58.388, 95.854 59.715 C 91.757 62.427, 90.814 65.247, 92.411 70.007 C 93.302 72.660, 94.456 73.604, 98.750 75.195 C 103.414 76.923, 105.734 79, 103 79 C 102.450 79, 102 79.642, 102 80.427 C 102 81.212, 100.463 83.125, 98.585 84.677 C 91.691 90.374, 90.395 93.019, 89.302 103.612 C 88.928 107.239, 89.266 109.757, 90.464 112.282 C 92.100 115.730, 92.080 115.964, 89.841 119.855 L 87.530 123.871 89.848 126.338 C 91.188 127.765, 93.713 129.015, 95.833 129.301 C 97.850 129.574, 101.525 130.325, 104 130.971 C 106.475 131.617, 110.750 131.891, 113.500 131.580 C 120.892 130.745, 121.606 131.682, 122.199 143.007 C 122.725 153.062, 124.447 158.098, 128.010 160.006 C 130.583 161.382, 133.781 159.765, 134.504 156.721 C 134.794 155.500, 134.912 150.140, 134.766 144.810 C 134.582 138.090, 134.883 134.735, 135.748 133.862 C 136.488 133.116, 141.013 132.361, 146.858 132.009 C 157.430 131.371, 162 129.572, 162 126.048 C 162 123.992, 160.007 121.609, 156.893 119.943 C 155.820 119.368, 151.140 118.630, 146.493 118.302 C 136.268 117.581, 134.142 115.768, 134.889 108.411 C 135.066 106.672, 139.727 105, 144.398 105 C 153.085 105, 157.510 101.690, 155.026 97.048 C 153.697 94.565, 150.066 92.675, 143.575 91.088 C 137.735 89.659, 133.600 86.415, 133.241 82.979 C 133.099 81.616, 132.100 79.892, 131.022 79.148 C 129.461 78.072, 129.314 77.543, 130.301 76.556 C 134.098 72.759, 138.327 72.592, 149.500 75.799 C 152.707 76.719, 159.558 75.612, 161.711 73.825 C 163.600 72.257, 163.307 65.561, 161.250 63.286 C 160.287 62.222, 157.352 59.658, 154.726 57.589 C 152.101 55.520, 149.089 52.135, 148.034 50.066 C 145.798 45.683, 141.807 42.745, 138.691 43.188 C 136.705 43.471, 136.500 44.081, 136.499 49.715 C 136.497 58.627, 135.559 59.312, 124.578 58.421 C 115.710 57.701, 112.996 56.473, 113.004 53.179 C 113.010 50.410, 116.479 45.597, 119.587 44.046 C 123.900 41.892, 127 38.888, 127 36.862 C 127 34.566, 120.301 29.988, 117.018 30.040 C 115.633 30.062, 113.317 30.723, 111.871 31.508 M 40.955 44.533 C 35.003 48.925, 34.879 49.605, 35.562 74.241 C 36.221 98.015, 36.242 101.756, 35.790 115 C 35.486 123.905, 36.533 127.451, 41.081 132.918 L 43.093 135.336 48.664 133.580 C 52.212 132.462, 58.120 131.738, 64.927 131.589 C 70.807 131.460, 76.161 131.019, 76.824 130.609 C 77.486 130.199, 78.979 128.002, 80.140 125.725 C 81.883 122.308, 82.067 121.055, 81.193 118.543 C 80.558 116.719, 80.374 111.894, 80.734 106.500 C 81.063 101.550, 81.479 88.289, 81.656 77.031 C 81.952 58.316, 81.802 56.087, 79.910 51.031 C 76.565 42.090, 72.840 39.978, 67.635 44.073 C 64.555 46.495, 64.456 47.461, 66.613 54.055 C 68.427 59.602, 67.847 65.461, 65.391 66.403 C 61.321 67.965, 51.219 66.173, 48.997 63.496 C 47.396 61.568, 48.485 57.399, 51.158 55.217 C 61.167 47.048, 61.681 46.453, 60.676 44.201 C 59.788 42.210, 58.963 42, 52.041 42 C 45.422 42, 43.925 42.342, 40.955 44.533 M 113.250 74.697 C 112.013 74.940, 111 75.558, 111 76.070 C 111 76.581, 110.100 77, 109 77 C 106.733 77, 106.437 78.037, 108.200 79.800 C 109.133 80.733, 109.078 81.003, 107.950 81.015 C 106.985 81.026, 106.873 81.276, 107.616 81.765 C 108.229 82.169, 109.672 84.356, 110.822 86.625 C 113.019 90.959, 115.882 92.327, 119.755 90.895 C 121.258 90.339, 122.170 88.600, 123.073 84.564 C 123.758 81.504, 124.697 79, 125.159 79 C 125.622 79, 126 78.550, 126 78 C 126 77.450, 125.362 77, 124.583 77 C 123.804 77, 123.017 76.564, 122.833 76.031 C 122.441 74.892, 116.478 74.061, 113.250 74.697 M 56.942 77.283 C 55.049 77.767, 52.494 79.098, 51.265 80.241 C 48.715 82.614, 47.223 88.623, 48.794 90.194 C 49.934 91.334, 56.112 92.889, 62.653 93.682 C 66.252 94.119, 66.897 93.900, 67.486 92.043 C 68.516 88.798, 68.301 81.431, 67.111 79.208 C 65.853 76.857, 61.689 76.069, 56.942 77.283 M 54.065 104.589 C 48.886 106.214, 48.031 107.264, 48.031 112 C 48.031 116.628, 48.825 117.668, 53 118.502 C 65.269 120.954, 66.949 120.159, 67.134 111.809 C 67.328 103.048, 64.304 101.377, 54.065 104.589 M 108.680 106.099 C 104.441 107.096, 102 109.044, 102 111.429 C 102 112.293, 101.550 113, 101 113 C 99.299 113, 99.900 116.878, 101.750 117.839 C 102.713 118.339, 106.976 118.961, 111.224 119.222 C 120.557 119.795, 123 118.321, 123 112.116 C 123 105.553, 118.694 103.744, 108.680 106.099" stroke="none" fill="black" fill-rule="evenodd"/>
</svg>