<svg xmlns="http://www.w3.org/2000/svg" width="256" height="256" viewBox="0 0 256 256" version="1.1">
	<path d="M 118 30.500 C 115.276 33.275, 112.693 35, 111.260 35 C 109.982 35, 107.488 35.605, 105.718 36.345 C 99.686 38.866, 99.518 39.492, 99.371 59.901 C 99.205 82.985, 99.357 81.338, 97.134 84.082 L 95.269 86.386 90.954 82.693 C 88.582 80.662, 85.934 78.969, 85.070 78.931 C 84.207 78.894, 80.669 78.777, 77.208 78.673 C 70.603 78.474, 69.045 77.472, 69.015 73.405 C 68.990 69.979, 72.520 67.581, 77.182 67.856 C 83.520 68.230, 87.003 67.123, 88.035 64.407 C 90.092 58.997, 84.836 53.575, 77.489 53.527 C 72.152 53.492, 69.815 51.655, 70.630 48.136 C 71.593 43.975, 73.381 43.181, 80.501 43.752 C 88.930 44.429, 92.541 42.455, 91.589 37.693 C 90.572 32.610, 86.367 29, 81.462 29 C 79.172 29, 75.994 29.439, 74.399 29.976 C 72.805 30.513, 64.898 31.076, 56.829 31.226 C 42.863 31.487, 42.033 31.617, 39.579 33.924 C 36.337 36.972, 36.258 40.468, 39.385 42.517 C 41.237 43.730, 43.212 43.932, 48.224 43.418 C 52.421 42.988, 55.433 43.161, 56.839 43.914 C 60.034 45.624, 59.661 50.080, 55.994 54.007 C 53.215 56.981, 52.651 57.175, 48.547 56.559 C 44.877 56.009, 43.759 56.241, 42.101 57.899 C 37.750 62.250, 41.650 66.919, 49.677 66.968 C 54.059 66.995, 55.173 67.405, 56.927 69.635 C 59.697 73.155, 59.619 77.366, 56.750 79.240 C 55.483 80.068, 51.034 80.932, 46.567 81.217 C 39.594 81.662, 38.365 82.037, 36.400 84.321 C 30.775 90.861, 40.794 96.853, 50.685 92.865 C 52.367 92.186, 60.943 91.659, 72 91.553 C 87.987 91.401, 90.875 91.131, 93.264 89.565 C 95.992 87.775, 96.080 87.787, 100.193 90.509 L 104.358 93.266 127.929 93.158 C 150.465 93.056, 151.574 92.961, 153.192 90.987 C 154.666 89.188, 154.841 86.711, 154.555 71.711 C 154.374 62.245, 154.675 52.250, 155.223 49.500 C 157.032 40.429, 153.712 36.514, 142.919 34.988 C 137.547 34.229, 136.114 33.547, 132.555 30.054 C 126.867 24.472, 123.825 24.565, 118 30.500 M 129.894 46.440 C 129.652 46.682, 126.436 46.977, 122.747 47.097 C 117.778 47.258, 115.517 47.801, 114.020 49.196 C 111.847 51.221, 111.347 54.478, 113.048 55.530 C 113.625 55.886, 119.137 56.351, 125.298 56.563 C 136.526 56.950, 142 55.963, 142 53.553 C 142 50.454, 131.845 44.488, 129.894 46.440 M 113.681 71.800 C 111.688 74.002, 111.518 76.969, 113.250 79.299 C 114.296 80.705, 116.516 80.996, 126.824 81.078 C 140.061 81.183, 142.392 80.427, 142.731 75.916 C 143.060 71.559, 140.654 70.666, 127.573 70.292 C 116.679 69.980, 115.180 70.143, 113.681 71.800 M 42.759 100.250 C 40.437 103.802, 39.873 106.535, 40.902 109.243 C 42.074 112.324, 47.150 113.541, 51.910 111.881 C 54.434 111.002, 56.082 111.037, 59.106 112.035 C 64.545 113.830, 65.015 114.822, 62.791 119.814 C 60.934 123.980, 53.571 130, 50.331 130 C 47.112 130, 40.023 134.543, 38.327 137.692 C 36.679 140.752, 36.654 141.292, 38.043 143.768 C 40.695 148.493, 45.514 148.047, 51.551 142.517 C 55.676 138.739, 58.938 138.081, 61.389 140.532 C 62.849 141.992, 63.233 143.499, 64.400 152.356 C 65.471 160.474, 69.451 162.749, 77.128 159.630 C 79.442 158.690, 87.874 158.040, 104 157.557 C 116.925 157.170, 128.625 156.968, 130 157.107 C 136.809 157.797, 140.783 157.360, 142.399 155.744 C 143.901 154.242, 143.988 153.142, 143.104 146.766 C 142.538 142.682, 142.438 136.997, 142.877 133.784 C 143.603 128.453, 143.477 127.873, 140.990 125.151 C 137.494 121.323, 133.964 120.914, 107 121.216 C 88.112 121.428, 85.105 121.244, 82.250 119.703 C 80.463 118.738, 79 117.499, 79 116.950 C 79 113.927, 93.368 112.681, 124.790 112.979 C 151.809 113.235, 155.024 112.719, 154.968 108.129 C 154.884 101.185, 149.459 99.781, 122.500 99.726 C 117.836 99.717, 102.728 101.050, 101.933 101.541 C 101.542 101.783, 99.034 101.505, 96.361 100.922 C 89.094 99.340, 83.355 99.219, 78.159 100.539 C 71.483 102.236, 55.261 101.691, 51.500 99.645 C 47.363 97.394, 44.497 97.592, 42.759 100.250 M 114.500 134.057 C 112.300 134.512, 106.675 134.926, 102 134.977 C 93.073 135.075, 81.527 137.073, 79.777 138.823 C 78.022 140.578, 79.791 144.909, 82.545 145.601 C 89.807 147.423, 123.968 145.732, 127.750 143.363 C 129.117 142.507, 130 140.963, 130 139.428 C 130 137.426, 129.119 136.502, 125.750 134.973 C 121.133 132.877, 120.467 132.823, 114.500 134.057" stroke="none" fill="black" fill-rule="evenodd"/>
</svg>