<svg xmlns="http://www.w3.org/2000/svg" width="256" height="256" viewBox="0 0 256 256" version="1.1">
	<path d="M 118.035 31.682 C 116.875 33.157, 116.189 35.049, 116.510 35.887 C 116.831 36.724, 117.349 39.270, 117.661 41.543 C 118.157 45.160, 117.900 45.933, 115.604 47.740 C 114.161 48.875, 109.640 50.547, 105.557 51.455 C 101.475 52.363, 96.990 54.007, 95.591 55.107 C 90.920 58.781, 90.253 65.416, 90.973 101 C 91.113 107.925, 90.569 112.939, 88.966 119.500 C 86.694 128.798, 85.648 131, 83.503 131 C 81.646 131, 81.574 129.376, 82.068 98.736 C 82.318 83.292, 82.274 82.921, 79.915 80.409 C 77.360 77.689, 76.443 77.665, 68.375 80.101 C 63.650 81.528, 58.677 80.134, 56.945 76.897 C 55.023 73.306, 65.268 57, 69.446 57 C 69.797 57, 72.073 55.538, 74.503 53.750 C 79.231 50.272, 80.227 47.060, 77.663 43.554 C 76.549 42.031, 75.421 41.821, 70.913 42.298 C 67.936 42.614, 64.150 43.178, 62.500 43.554 C 60.850 43.929, 53.859 44.314, 46.965 44.409 C 36.271 44.556, 34.037 44.869, 31.747 46.541 C 28.579 48.853, 28.495 49.299, 30.615 52.535 C 31.940 54.558, 33.061 55.006, 36.865 55.032 C 41.446 55.063, 43.247 55.899, 45.821 59.188 C 46.923 60.596, 46.870 61.839, 45.502 66.688 C 41.024 82.560, 39.565 85.971, 35.296 90.555 C 31.605 94.518, 31 95.779, 31 99.502 C 31 103.514, 31.277 103.971, 34.741 105.668 C 39.671 108.082, 42.705 113.683, 43.569 121.968 C 44.307 129.038, 45.657 132.475, 48.820 135.337 C 51.804 138.038, 58 138.568, 62.364 136.497 C 65.939 134.801, 66.108 134.817, 71.495 137.368 C 78.100 140.495, 80.976 143.585, 83.084 149.816 C 86.094 158.713, 93.188 157.677, 94.596 148.135 C 94.972 145.586, 96.341 139.933, 97.640 135.574 C 98.938 131.214, 100 126.383, 100 124.838 C 100 120.291, 102.305 113, 103.743 113 C 107.712 113, 115.204 120.306, 118.612 127.500 C 122.331 135.350, 121.897 136.577, 114.500 139.123 C 109.110 140.978, 103.056 147.579, 103.665 150.936 C 104.744 156.886, 108.270 157.508, 113.747 152.716 C 124.084 143.672, 133 138.640, 133 141.851 C 133 142.318, 135.137 144.113, 137.750 145.839 C 140.363 147.564, 144.447 150.557, 146.828 152.488 C 153.626 158.005, 160.107 157.204, 160.288 150.826 C 160.416 146.316, 157.792 142.934, 151 138.854 C 147.975 137.037, 145.275 135.281, 145 134.952 C 144.725 134.623, 143.656 134.042, 142.623 133.660 C 140.987 133.055, 140.835 132.301, 141.436 127.774 C 142.135 122.501, 145.675 113, 146.939 113 C 147.964 113, 155.339 96.304, 155.553 93.500 C 155.699 91.589, 152.968 87.053, 151.055 86.030 C 149.997 85.463, 146.612 85, 143.534 85 C 132.189 85, 128.470 81.191, 130.901 72.059 C 132.645 65.506, 134.551 62.997, 137.773 63.015 C 141.664 63.037, 142.497 63.868, 144.385 69.606 C 145.309 72.415, 147.168 75.749, 148.517 77.016 C 150.962 79.313, 150.977 79.314, 155.045 77.480 C 157.287 76.469, 159.589 74.768, 160.161 73.699 C 161.102 71.941, 160.801 66.150, 159.356 58.179 C 158.232 51.978, 153.742 49.917, 142.079 50.246 C 133.999 50.474, 132.852 50.278, 130.905 48.339 C 129.109 46.552, 128.758 45.121, 128.873 40.050 C 128.992 34.769, 128.671 33.580, 126.551 31.460 C 123.365 28.274, 120.661 28.344, 118.035 31.682 M 107.273 65.960 C 104.597 68.454, 102.019 76.647, 102.734 80.387 C 103.518 84.488, 107.075 86.343, 113.051 85.769 C 121.673 84.941, 122.804 81.303, 117.644 71 C 113.977 63.679, 111.180 62.320, 107.273 65.960 M 60.275 90.971 C 55.813 92.031, 51.998 94.710, 52.012 96.773 C 52.018 97.723, 52.688 100.975, 53.500 104 C 54.312 107.025, 55 111.075, 55.029 113 C 55.059 114.925, 56.076 118.525, 57.291 121 C 59.076 124.637, 60.076 125.565, 62.500 125.838 C 64.150 126.024, 65.184 125.858, 64.798 125.469 C 64.411 125.080, 64.679 124.178, 65.393 123.464 C 66.130 122.727, 66.951 118.562, 67.292 113.833 C 67.623 109.250, 68.458 103.080, 69.148 100.122 C 70.386 94.814, 70.367 94.712, 67.646 92.372 C 66.129 91.067, 64.576 90.046, 64.194 90.102 C 63.812 90.159, 62.049 90.550, 60.275 90.971 M 119.835 98.668 C 115.585 99.807, 117.004 105.262, 122.652 109.501 C 124.768 111.090, 126.860 112.977, 127.300 113.695 C 128.899 116.305, 131.790 115.034, 134.405 110.572 C 137.298 105.636, 137.676 102.533, 135.634 100.491 C 134.269 99.126, 122.983 97.824, 119.835 98.668" stroke="none" fill="black" fill-rule="evenodd"/>
</svg>