<svg xmlns="http://www.w3.org/2000/svg" width="256" height="256" viewBox="0 0 256 256" version="1.1">
	<path d="M 109 31.924 C 100.615 32.669, 97.500 33.936, 94.349 37.883 L 92.197 40.578 94.323 45.039 C 96.149 48.870, 96.418 51.053, 96.224 60.500 C 96.100 66.550, 95.492 73.690, 94.872 76.367 C 94.202 79.259, 94.035 83.520, 94.461 86.867 C 95.436 94.521, 95.464 97.794, 94.597 102.500 C 94.061 105.412, 94.266 107.044, 95.351 108.500 C 96.749 110.376, 98.005 110.500, 115.671 110.500 C 126.027 110.500, 137.988 110.904, 142.250 111.397 C 149.341 112.217, 150 112.484, 150 114.532 C 150 115.867, 148.891 117.502, 147.250 118.584 C 143.317 121.179, 106.820 122.658, 101.507 120.439 C 98.124 119.025, 96.363 119.161, 88.500 121.445 C 85.504 122.315, 83.876 120.707, 83.903 116.904 C 84.144 83.042, 83.947 81.380, 79.424 78.959 C 77.490 77.924, 75.714 77.886, 70.922 78.777 C 66.268 79.643, 64.011 79.618, 61.182 78.671 C 57.758 77.524, 57.515 77.179, 57.717 73.743 C 58 68.929, 60.929 63.306, 66.126 57.595 C 69.764 53.597, 70.828 53, 74.309 53 C 78.869 53, 84.152 49.581, 86.364 45.198 C 87.928 42.099, 87.574 40.411, 84.698 37.250 C 82.027 34.314, 78.337 34.394, 72.764 37.508 C 70.295 38.888, 65.626 40.486, 62.388 41.060 C 59.150 41.634, 54.373 42.788, 51.772 43.624 C 49.172 44.461, 46.472 44.788, 45.772 44.351 C 44.355 43.466, 44.080 43.390, 38.703 42.413 C 35.571 41.844, 34.558 42.097, 32.914 43.862 C 31.819 45.038, 30.520 46, 30.028 46 C 29.537 46, 28.833 46.950, 28.465 48.112 C 27.340 51.656, 30.143 53.373, 37.164 53.440 C 43.071 53.497, 43.468 53.657, 45.253 56.703 C 47.098 59.853, 47.093 60.076, 44.949 70.203 C 41.624 85.904, 40.197 90.010, 35.928 96.159 C 29.914 104.822, 30.620 108.379, 39.110 112.207 C 42.113 113.560, 42.913 114.597, 43.860 118.360 C 44.487 120.849, 45 124.090, 45 125.563 C 45 128.945, 49.768 136.504, 52.797 137.924 C 56.087 139.465, 58.058 139.262, 61.774 136.996 C 65.833 134.522, 66.630 134.519, 71.693 136.966 C 73.930 138.047, 76.786 138.734, 78.039 138.492 C 79.628 138.187, 81.481 139.105, 84.161 141.527 C 86.353 143.507, 89.063 145, 90.464 145 C 93.149 145, 96.975 141.546, 97.042 139.061 C 97.065 138.203, 97.898 135.971, 98.894 134.102 C 100.694 130.724, 100.715 130.716, 102.602 132.696 C 103.646 133.791, 105.267 136.107, 106.203 137.843 C 108.612 142.307, 112.606 142.178, 116.864 137.500 C 120.443 133.567, 120.730 133.481, 123.441 135.532 C 124.509 136.339, 126.838 137, 128.618 137 C 131.134 137, 132.533 136.176, 134.903 133.301 C 137.472 130.184, 138.537 129.619, 141.671 129.708 C 147.573 129.875, 149.480 134.266, 146.831 141.591 C 145.825 144.374, 145.060 144.914, 141.335 145.472 C 135.986 146.275, 134.843 149.108, 137.496 154.990 C 140.087 160.736, 143.534 161.815, 149.668 158.800 C 153.492 156.920, 154.977 155.433, 156.787 151.673 C 161.024 142.873, 163.064 129.875, 162.719 113.869 C 162.464 102.033, 162.403 101.744, 159.669 99.392 C 157.115 97.195, 156.222 97.031, 149.138 97.456 C 142.596 97.848, 140.880 97.605, 138.058 95.889 L 134.719 93.858 137.474 92.429 C 138.989 91.643, 142.116 91, 144.423 91 C 146.730 91, 149.421 90.412, 150.404 89.694 C 154.709 86.546, 149.210 79.887, 141.184 78.531 C 139.010 78.164, 136.886 77.047, 136.165 75.892 C 135.090 74.171, 135.236 73.620, 137.207 71.964 C 138.468 70.904, 141.876 69.268, 144.779 68.327 C 150.468 66.484, 152.445 63.446, 149.929 60.414 C 148.386 58.555, 142.580 55.543, 138.779 54.630 C 135.040 53.732, 133.664 50.925, 135.604 48.155 C 136.863 46.357, 138.104 46, 143.089 46 C 154.070 46, 159.506 41.473, 155.629 35.557 C 153.849 32.840, 148.889 31.717, 140.500 32.132 C 137.750 32.267, 131.225 32.126, 126 31.818 C 120.775 31.510, 113.125 31.558, 109 31.924 M 111.750 46.532 C 108 48.621, 107.821 53.666, 111.464 54.580 C 114.402 55.318, 121.382 52.209, 121.749 50 C 122.409 46.020, 116.405 43.938, 111.750 46.532 M 111.387 68.688 C 108.144 69.325, 106.550 73.665, 108.478 76.607 C 111.440 81.128, 120.456 81.005, 123.472 76.403 C 124.966 74.122, 124.983 73.623, 123.637 71.568 C 122.811 70.308, 120.699 68.990, 118.943 68.639 C 115.647 67.979, 114.968 67.984, 111.387 68.688 M 59.502 90.583 C 53.176 92.931, 52.367 94.186, 53.779 99.462 C 54.437 101.922, 55.249 106.537, 55.584 109.717 C 55.919 112.898, 57.387 117.861, 58.847 120.748 C 61.037 125.080, 61.960 125.996, 64.139 125.998 C 66.543 126, 66.917 125.444, 68.342 119.750 C 69.202 116.313, 70.162 110.163, 70.475 106.085 C 70.788 102.007, 71.287 97.704, 71.584 96.522 C 72.259 93.832, 69.380 90.259, 66 89.592 C 64.625 89.321, 61.701 89.766, 59.502 90.583 M 110.200 92.200 C 108.506 93.894, 108.710 96.675, 110.582 97.393 C 111.452 97.727, 114.305 98, 116.921 98 C 120.929 98, 121.846 97.634, 122.737 95.677 C 123.606 93.771, 123.458 93.142, 121.912 92.177 C 119.458 90.644, 111.740 90.660, 110.200 92.200" stroke="none" fill="black" fill-rule="evenodd"/>
</svg>