<svg xmlns="http://www.w3.org/2000/svg" width="256" height="256" viewBox="0 0 256 256" version="1.1">
	<path d="M 66.500 35.887 C 63.200 36.846, 59.045 38.396, 57.267 39.332 C 55.489 40.268, 52.024 41.309, 49.567 41.646 C 43.802 42.436, 40.777 45.142, 41.576 48.796 C 42.786 54.331, 42.703 54.272, 48.598 53.783 C 53.603 53.368, 54.320 53.559, 55.708 55.677 C 57.623 58.599, 56.732 65.721, 54.211 67.636 C 53.270 68.351, 50.795 68.951, 48.710 68.968 C 44.319 69.005, 37.512 72.175, 36.081 74.849 C 35.380 76.159, 35.504 77.275, 36.512 78.713 C 37.970 80.795, 41.194 81.805, 48.966 82.614 C 53.822 83.120, 55.251 84.402, 54.414 87.500 C 53.543 90.726, 51.729 94, 50.813 94 C 50.347 94, 48.457 95.553, 46.614 97.451 C 43.107 101.062, 30.999 123.808, 31.001 126.782 C 31.003 129.119, 35.339 134, 37.414 134 C 39.823 134, 43.436 129.437, 46.521 122.500 C 51.180 112.022, 52.729 109.508, 54.716 109.203 C 56.128 108.987, 57.114 109.937, 58.347 112.703 C 59.711 115.762, 60.047 119.709, 60.073 133 C 60.091 142.075, 60.016 150.710, 59.906 152.189 C 59.616 156.095, 61.770 160.574, 64.547 161.840 C 66.565 162.759, 67.376 162.575, 69.501 160.719 C 73.260 157.436, 73.917 149.850, 72.837 122.239 C 72.594 116.045, 72.688 110.505, 73.045 109.927 C 73.478 109.227, 75.751 109.569, 79.845 110.948 C 86.767 113.280, 89.068 112.665, 91.016 107.962 C 93.822 101.186, 82.457 90.413, 74.587 92.389 C 73.020 92.782, 71.705 92.332, 70.485 90.984 C 69.462 89.853, 69.187 89, 69.845 89 C 70.480 89, 71 88.109, 71 87.019 C 71 85.115, 71.509 84.870, 78.270 83.528 C 79.244 83.335, 81.848 83.887, 84.058 84.755 C 87.864 86.250, 88.220 86.227, 90.788 84.321 C 92.280 83.214, 93.904 80.715, 94.399 78.767 C 95.153 75.794, 94.930 74.710, 93.004 72.005 L 90.710 68.784 81.579 69.468 C 71.313 70.238, 69.252 69.264, 68.867 63.456 C 68.338 55.484, 72.709 49.341, 79.594 48.379 C 81.742 48.079, 84.784 47.347, 86.354 46.752 C 88.923 45.779, 89.152 45.323, 88.644 42.192 C 88.333 40.279, 87.083 37.653, 85.865 36.357 C 84.032 34.405, 82.694 34.012, 78.076 34.071 C 75.009 34.110, 69.800 34.927, 66.500 35.887 M 116.057 41.169 C 112.148 45.365, 108.049 60.184, 106.858 74.431 C 106.349 80.519, 105.296 87.975, 104.518 91 C 95.917 124.425, 94.471 128.786, 90.594 133 C 89.328 134.375, 88.032 136.246, 87.713 137.159 C 87.135 138.812, 91.707 147.083, 93.973 148.483 C 96.166 149.839, 105.990 149.153, 107.612 147.531 C 110.391 144.752, 112.293 144.500, 130.500 144.500 L 148.500 144.500 152.339 148 C 158.103 153.255, 158.528 153.350, 161.347 149.999 C 163.448 147.503, 163.800 146.227, 163.443 142.412 C 163.206 139.890, 162.200 136.628, 161.208 135.163 C 158.745 131.530, 157 127.300, 157 124.964 C 157 123.223, 153.112 114.651, 147.265 103.500 C 146.112 101.300, 144.577 98.212, 143.855 96.638 C 141.366 91.212, 134.148 90.879, 131.465 96.068 C 129.328 100.201, 129.623 101.711, 133.311 105.508 C 135.546 107.810, 137.383 111.344, 138.963 116.384 C 141.036 122.992, 141.153 124.217, 139.980 127.047 L 138.656 130.245 131.578 129.624 C 125.221 129.066, 124.057 129.257, 120.148 131.501 C 112.590 135.841, 109 134.522, 109 127.407 C 109 123.186, 113.972 101.847, 115.766 98.369 C 116.297 97.341, 116.974 93.114, 117.271 88.976 C 117.568 84.838, 118.531 79.213, 119.411 76.476 C 120.290 73.739, 121.477 67.900, 122.047 63.500 C 122.618 59.100, 123.340 53.783, 123.653 51.685 C 124.316 47.244, 121.589 39, 119.456 39 C 118.698 39, 117.169 39.976, 116.057 41.169" stroke="none" fill="black" fill-rule="evenodd"/>
</svg>