<svg xmlns="http://www.w3.org/2000/svg" width="256" height="256" viewBox="0 0 256 256" version="1.1">
	<path d="M 117.345 30.596 C 115.939 32.743, 115.813 34.017, 116.622 37.962 C 118.309 46.202, 115.918 48.425, 104.412 49.312 C 95.183 50.023, 92.478 51.843, 90.491 58.679 C 89.384 62.486, 89.034 66.065, 89.436 69.441 C 90.964 82.247, 91.062 92.637, 89.704 97.718 C 88.344 102.808, 88.376 103.036, 90.999 106.999 C 96.781 115.732, 100.080 117.478, 107.891 115.942 C 114.639 114.614, 117.502 115.559, 119.048 119.626 C 120.328 122.992, 120.251 132.720, 118.867 142.625 C 117.791 150.324, 117.850 150.962, 119.992 154.772 C 122.707 159.603, 125.996 161.455, 128.548 159.589 C 130.564 158.115, 132.185 143.175, 131.813 129.500 C 131.693 125.100, 131.933 120.515, 132.345 119.312 C 133.422 116.172, 138.338 114.920, 148.375 115.230 C 161.044 115.622, 160.991 115.719, 160.975 92.500 C 160.968 82.600, 161.032 70.872, 161.117 66.438 C 161.398 51.797, 157.215 47.276, 144.490 48.469 C 139.118 48.972, 136.374 48.765, 133.721 47.657 C 129.293 45.807, 128.090 43.633, 128.312 37.890 C 128.542 31.929, 126.035 28, 122 28 C 119.924 28, 118.541 28.771, 117.345 30.596 M 55.750 30.572 C 53.488 31.799, 53 32.744, 53 35.897 C 53 38.216, 53.790 40.735, 55 42.273 C 57.302 45.200, 57.611 49.248, 55.655 50.872 C 53.168 52.936, 48.414 53.265, 45.188 51.597 C 40.964 49.413, 38.733 49.590, 36.174 52.314 C 33.319 55.354, 33.352 60.169, 36.250 63.386 C 38.323 65.687, 38.893 65.817, 43.500 65.034 C 46.250 64.566, 48.950 64.076, 49.500 63.945 C 50.050 63.814, 52.380 64.050, 54.677 64.469 C 60.535 65.539, 61.938 68.949, 59.412 75.974 C 57.616 80.969, 52.362 86, 48.942 86 C 46.478 86, 32.282 101.440, 31.509 104.961 C 30.715 108.574, 32.544 114, 34.556 114 C 37.504 114, 40.871 111.976, 41.530 109.807 C 42.420 106.882, 49.247 100.242, 49.766 101.797 C 49.977 102.431, 50.100 103.202, 50.039 103.511 C 49.978 103.819, 50.557 104.700, 51.325 105.468 C 52.826 106.969, 55 121.361, 55 129.799 C 55 132.639, 54.478 138.009, 53.841 141.731 C 52.387 150.214, 53.201 154.680, 56.948 158.782 C 60.950 163.163, 63.676 162.998, 65.705 158.250 C 67.756 153.449, 67.901 127.080, 65.942 115.017 C 64.708 107.421, 64.739 106.664, 66.336 105.496 C 67.611 104.564, 69.185 104.479, 72.285 105.177 C 76.488 106.123, 82.931 105.542, 83.077 104.205 C 83.119 103.817, 83.309 102.678, 83.499 101.673 C 83.690 100.668, 83.025 99.025, 82.022 98.022 C 81.018 97.018, 79.881 95.141, 79.495 93.849 C 79.108 92.557, 78.185 90.535, 77.443 89.357 C 75.066 85.580, 75.804 70.424, 78.639 64.800 C 81.668 58.791, 80.102 54.422, 73.541 50.577 C 68.291 47.500, 66.987 45.521, 67.711 41.732 C 68.385 38.205, 66.415 33.472, 63.230 30.966 C 60.275 28.642, 59.393 28.595, 55.750 30.572 M 135.572 62.250 C 132.680 64.811, 131.779 70.823, 133.902 73.382 C 135.481 75.284, 141.071 76.450, 144.493 75.591 C 146.836 75.003, 147 74.551, 147 68.681 C 147 65.129, 146.479 61.879, 145.800 61.200 C 143.825 59.225, 138.352 59.787, 135.572 62.250 M 106.635 63.073 C 104.738 64.565, 104 66.071, 104 68.450 C 104 72.393, 105.091 73.428, 110.884 74.977 C 119.131 77.182, 121.885 74.513, 118.807 67.297 C 115.983 60.679, 111.608 59.160, 106.635 63.073 M 111.258 88.705 C 108.014 89.330, 103 94.726, 103 97.592 C 103 100.859, 108.197 103.991, 113.628 103.996 C 118.613 104.001, 119.871 102.677, 120.324 96.950 C 120.601 93.444, 120.217 92.126, 118.380 90.289 C 116.101 88.010, 115.525 87.882, 111.258 88.705 M 135.073 91.265 C 133.315 92.160, 132.574 93.456, 132.384 95.971 C 132.042 100.501, 133.126 101.642, 138.545 102.455 C 144.068 103.283, 146.624 102.544, 147.310 99.923 C 147.974 97.384, 146.439 91.896, 144.768 90.836 C 142.880 89.637, 137.831 89.861, 135.073 91.265" stroke="none" fill="black" fill-rule="evenodd"/>
</svg>