<svg xmlns="http://www.w3.org/2000/svg" width="256" height="256" viewBox="0 0 256 256" version="1.1">
	<path d="M 112.500 30.072 C 110.850 30.637, 100.275 31.523, 89 32.041 C 77.725 32.558, 67.600 33.176, 66.500 33.414 C 65.400 33.652, 61.997 33.881, 58.939 33.923 C 54.748 33.981, 52.823 34.516, 51.129 36.094 C 49.109 37.976, 49.024 38.407, 50.293 40.344 C 52.806 44.184, 56.004 44.910, 72.317 45.347 C 89.338 45.803, 91 46.315, 91 51.099 C 91 55.449, 87.354 57.442, 82.022 56.006 C 76.980 54.648, 63.548 56.481, 60.612 58.927 C 57.437 61.572, 55.999 66.522, 56.024 74.718 C 56.054 84.700, 57.296 89.931, 60.190 92.263 C 62.262 93.933, 63.913 94.076, 76.213 93.658 C 89.040 93.221, 89.965 93.314, 90.530 95.096 C 90.863 96.143, 91.566 97, 92.093 97 C 92.620 97, 92.383 98.293, 91.566 99.873 C 89.914 103.067, 86.606 104.395, 83.904 102.949 C 82.929 102.427, 79.206 102, 75.631 102 C 72.055 102, 67.863 101.488, 66.315 100.863 C 62.117 99.168, 46.366 97.321, 43.896 98.234 C 41.856 98.989, 41.778 99.456, 42.395 107.265 C 42.753 111.794, 43.267 123.600, 43.539 133.500 C 44.070 152.847, 44.983 157.677, 48.350 158.954 C 51.488 160.144, 55.833 157.266, 56.938 153.264 C 57.484 151.284, 57.470 143.358, 56.903 133.338 C 56.384 124.188, 56.229 115.855, 56.557 114.821 C 57.108 113.084, 58.265 112.954, 71.827 113.108 C 89.174 113.305, 91 113.960, 91 119.984 C 91 122.747, 90.347 124.530, 88.811 125.961 C 86.514 128.101, 84 128.668, 84 127.045 C 84 125.568, 77.783 124.752, 74.895 125.850 C 70.918 127.362, 69 129.825, 69 133.420 C 69 136.286, 69.511 136.927, 73.082 138.537 C 77.460 140.511, 77.202 140.532, 96.500 136.660 C 109.257 134.101, 115.696 133.771, 121.303 135.388 C 124.161 136.212, 127.625 137.036, 129 137.219 C 130.375 137.401, 132.063 137.903, 132.750 138.334 C 134.482 139.420, 134.314 142.995, 132.435 145.072 C 131.141 146.502, 131.059 147.504, 131.961 150.856 C 134.246 159.343, 142.412 162.648, 146.289 156.655 C 150.077 150.800, 152.504 120.299, 149.940 110.777 C 148.716 106.230, 144.259 103.009, 139.184 103.004 C 137.361 103.002, 134.963 102.516, 133.857 101.924 C 131.619 100.726, 127.348 100.648, 115.500 101.591 C 108.451 102.151, 107.210 101.992, 105.060 100.250 L 102.620 98.274 105.060 96.887 C 106.765 95.918, 111.113 95.499, 119.500 95.497 C 132.400 95.494, 136.726 94.249, 139.072 89.865 C 140.418 87.351, 140.453 78.502, 139.138 73.247 C 138.622 71.186, 137.925 68.276, 137.589 66.780 C 136.018 59.798, 126.119 55.379, 114.491 56.469 C 107.880 57.088, 106.951 56.951, 105.078 55.078 C 102.255 52.255, 102.342 47.469, 105.250 45.601 C 106.487 44.807, 109.975 43.874, 113 43.529 C 122.975 42.391, 135.141 39.716, 136.493 38.365 C 138.546 36.312, 137.161 33.304, 133.325 31.484 C 129.128 29.492, 116.657 28.646, 112.500 30.072 M 69.230 69.656 C 66.389 72.011, 65.417 76.881, 67.285 79.401 C 68.338 80.822, 70.562 81.488, 76.097 82.039 C 80.169 82.445, 84.400 83.073, 85.500 83.436 C 91.276 85.341, 93.683 75.704, 88.537 71.278 C 86.823 69.804, 84.585 68.996, 82.194 68.989 C 80.162 68.983, 76.915 68.716, 74.977 68.395 C 72.392 67.967, 70.862 68.303, 69.230 69.656 M 107.256 70.029 C 106.022 70.525, 104.141 72.365, 103.075 74.118 C 101.245 77.126, 101.231 77.438, 102.818 79.685 C 104.407 81.935, 104.999 82.051, 113.527 81.783 C 120.784 81.556, 123.039 81.108, 125.027 79.500 C 130.111 75.388, 127.762 71.662, 119.044 70.008 C 112.736 68.812, 110.272 68.816, 107.256 70.029 M 127.223 114.557 C 124.341 116.575, 124.419 118.709, 127.580 124.365 C 130.377 129.368, 130.949 129.912, 134.040 130.508 C 135.504 130.790, 136.359 130.185, 137.043 128.386 C 138.112 125.576, 138.328 117.019, 137.393 114.582 C 136.593 112.496, 130.187 112.481, 127.223 114.557 M 104.783 116.250 C 102.893 117.727, 103.977 121.670, 106.543 122.655 C 110.079 124.012, 116.822 117.770, 113.853 115.888 C 111.842 114.614, 106.609 114.822, 104.783 116.250" stroke="none" fill="black" fill-rule="evenodd"/>
</svg>