<svg xmlns="http://www.w3.org/2000/svg" width="256" height="256" viewBox="0 0 256 256" version="1.1">
	<path d="M 54.354 29.555 C 52.201 31.708, 51.905 32.677, 52.472 35.702 C 52.842 37.677, 53.837 40.348, 54.683 41.639 C 56.707 44.728, 55.659 48.743, 52.446 50.207 C 50.447 51.117, 49.245 51.010, 46.440 49.673 C 42.300 47.699, 36.650 47.485, 35.260 49.250 C 32.846 52.315, 32.965 55.805, 35.589 58.923 C 37.969 61.752, 38.680 62, 44.398 62 C 48.319 62, 51.335 62.543, 52.559 63.468 C 53.626 64.276, 55.239 64.951, 56.143 64.968 C 57.047 64.986, 58.075 65.753, 58.428 66.674 C 59.379 69.151, 58.003 76.973, 55.872 81.204 C 54.364 84.198, 53.287 85.034, 50.253 85.566 C 47.394 86.067, 44.782 87.910, 39.288 93.299 C 30.531 101.891, 28.574 107.574, 32.761 112.264 C 34.933 114.698, 37.787 113.640, 41.833 108.903 C 45.528 104.576, 50.182 103.541, 51.510 106.750 C 53.012 110.380, 53.314 133.030, 51.937 138.842 C 50.090 146.642, 50.634 151.650, 53.850 156.452 C 56.080 159.781, 57.212 160.555, 60.227 160.807 C 63.731 161.101, 63.939 160.941, 64.953 157.174 C 65.537 155.008, 65.979 148.569, 65.937 142.867 C 65.895 137.165, 66.019 129.800, 66.213 126.500 C 66.406 123.200, 66.213 119.115, 65.783 117.422 C 64.229 111.304, 64.205 107.440, 65.702 104.250 C 67.531 100.355, 70.718 99.951, 75.086 103.061 C 77.070 104.474, 79.162 105.024, 81.740 104.811 C 84.978 104.543, 85.543 104.129, 85.809 101.824 C 86.122 99.119, 83.051 93.321, 78.253 87.556 C 74.692 83.277, 74.190 81.217, 75.023 74.298 C 75.659 69.025, 76.269 67.641, 79.103 65.053 C 82.861 61.621, 87.943 60.372, 96.224 60.844 C 100.969 61.115, 102.380 65.523, 101.538 77.441 C 101.148 82.973, 100.529 92, 100.164 97.500 C 99.635 105.473, 99.027 108.260, 97.168 111.250 C 95.886 113.313, 94.254 115, 93.541 115 C 91.421 115, 89.691 117.854, 89.786 121.195 C 89.911 125.562, 92.892 128.199, 97.892 128.364 C 101.573 128.486, 101.999 128.760, 102 131.008 C 102 134.105, 97.518 142.745, 94.396 145.665 C 91.169 148.683, 90.410 152.450, 92.413 155.507 C 94.373 158.499, 95.898 158.606, 100.790 156.097 C 107.698 152.554, 112.990 144.842, 112.996 138.309 C 112.998 136.004, 112.550 133.840, 112 133.500 C 110.522 132.587, 110.784 130.358, 112.582 128.561 C 113.825 127.318, 116.236 127.004, 123.832 127.096 C 134.643 127.226, 138.010 127.758, 135.977 129.014 C 132.572 131.119, 136.990 142.983, 143.466 149.125 C 150.571 155.863, 157.093 157.764, 160.435 154.072 C 161.637 152.744, 161.955 151.420, 161.455 149.822 C 160.346 146.270, 153.283 138.288, 150.668 137.632 C 148.161 137.002, 145.729 132.871, 146.572 130.673 C 146.857 129.930, 149.425 128.784, 152.278 128.125 C 158.463 126.697, 163 122.809, 163 118.935 C 163 115.507, 161.036 113.895, 156.551 113.642 C 154.405 113.521, 152.107 112.551, 150.749 111.193 C 148.564 109.008, 148.502 108.383, 148.569 89.222 C 148.649 66.135, 149.339 63.398, 155.924 60.039 C 158.399 58.776, 160 57.256, 160 56.170 C 160 54.047, 155 48.707, 149.750 45.223 C 146.369 42.979, 146 42.304, 146 38.367 C 146 31.289, 140.565 27.746, 135.537 31.548 C 133.766 32.887, 133.702 33.348, 134.888 36.266 C 138.577 45.342, 137.011 46.935, 124.070 47.265 C 115.351 47.487, 114.718 47.363, 112.857 45.069 C 111.330 43.185, 111.029 41.786, 111.524 38.861 C 112.360 33.908, 111.525 31.560, 108.424 30.147 C 103.824 28.051, 100 31.776, 100 38.352 C 100 43.845, 99.189 44.869, 91.730 48.801 C 87.871 50.836, 83.867 52.997, 82.832 53.605 C 81.413 54.437, 79.822 54.338, 76.366 53.200 C 70.716 51.340, 68.011 47.395, 68 41 C 67.995 38.238, 67.188 35.148, 65.909 33 C 61.965 26.373, 58.553 25.356, 54.354 29.555 M 118.750 61.816 C 114.441 62.312, 112.846 66.678, 115.811 69.859 C 116.845 70.968, 117.648 71.026, 119.608 70.133 C 122.716 68.717, 128.512 68.669, 131.070 70.038 C 132.679 70.898, 133.200 70.656, 134.131 68.611 C 134.749 67.256, 134.981 65.060, 134.647 63.730 C 134.083 61.482, 133.602 61.320, 127.770 61.407 C 124.322 61.458, 120.262 61.642, 118.750 61.816 M 114.428 84.750 C 113.191 87.502, 113.176 89.901, 114.387 90.902 C 114.999 91.408, 119.662 91.953, 124.748 92.113 C 134.632 92.424, 136.419 91.755, 136.471 87.729 C 136.523 83.718, 134.733 83, 124.678 83 C 116.631 83, 115.096 83.262, 114.428 84.750 M 123 104.721 C 115.908 104.983, 114.218 105.372, 112.796 107.072 C 111.412 108.725, 111.304 109.572, 112.218 111.580 C 113.305 113.965, 113.593 114.030, 120.422 113.432 C 124.621 113.064, 128.615 113.245, 130.241 113.878 C 133.043 114.967, 136.376 114.417, 135.505 113.009 C 135.239 112.578, 135.629 111.723, 136.371 111.107 C 138.316 109.493, 137.204 105.289, 134.651 104.604 C 133.468 104.287, 132.275 104.113, 132 104.217 C 131.725 104.322, 127.675 104.548, 123 104.721" stroke="none" fill="black" fill-rule="evenodd"/>
</svg>