<svg xmlns="http://www.w3.org/2000/svg" width="256" height="256" viewBox="0 0 256 256" version="1.1">
	<path d="M 90.073 26.635 C 88.915 28.107, 88 30.745, 88 32.612 C 88 38.108, 84.867 39.432, 73.735 38.642 C 68.691 38.284, 59.676 38.288, 53.701 38.651 C 39.409 39.519, 38.524 40.186, 38.432 50.162 C 38.395 54.198, 37.994 60.995, 37.543 65.267 C 36.824 72.057, 36.947 73.284, 38.516 75.017 C 40.859 77.607, 42.846 77.514, 46.431 74.645 C 49.157 72.464, 49.402 71.696, 49.934 63.691 C 50.586 53.870, 51.539 52.553, 58.804 51.425 C 62.772 50.809, 70.446 51.363, 75.656 52.641 C 79.407 53.561, 79.085 56.643, 74.280 65.804 C 71.772 70.587, 68.874 75.707, 67.840 77.182 C 65.378 80.696, 54.685 86, 50.063 86 C 45.862 86, 42 88.338, 42 90.882 C 42 91.855, 43.162 93.742, 44.581 95.076 C 46.810 97.169, 48.096 97.492, 54.010 97.445 C 60.395 97.393, 61.262 97.106, 66.838 93.195 C 70.127 90.888, 73.264 89, 73.809 89 C 75.545 89, 85.016 77.902, 87.554 72.894 C 88.899 70.239, 90 66.723, 90 65.080 C 90 63.438, 90.496 61.005, 91.103 59.673 C 92.614 56.358, 99.359 52.665, 102.254 53.569 C 105.319 54.525, 105.967 55.782, 105.985 60.812 C 105.999 64.975, 108.160 73.659, 110.072 77.236 C 110.582 78.191, 111 79.791, 111 80.790 C 111 83.739, 115.751 92.382, 118.220 93.924 C 119.844 94.939, 123.233 95.293, 129.998 95.157 C 140.297 94.949, 155.465 93.448, 157.028 92.483 C 158.764 91.410, 158.056 87.401, 155.750 85.241 C 152.465 82.164, 148.988 81.120, 139.745 80.435 C 128.007 79.566, 122.848 77.749, 120.744 73.744 C 118.446 69.369, 117.378 58.030, 118.983 55.032 C 120.172 52.810, 120.498 52.761, 129.854 53.413 C 141.417 54.217, 143 55.391, 143 63.160 C 143 72.354, 147.469 76.705, 154.093 73.961 L 157.147 72.696 156.548 65.098 C 156.219 60.919, 155.785 54.972, 155.584 51.883 C 155.384 48.794, 154.915 45.306, 154.542 44.132 C 153.132 39.689, 147.411 38.651, 125.868 38.927 C 116.239 39.051, 107.525 38.680, 105.172 38.046 C 101.251 36.990, 101.113 36.814, 101.265 33.015 C 101.381 30.099, 100.803 28.419, 99.037 26.539 C 95.970 23.274, 92.688 23.309, 90.073 26.635 M 74.564 101.158 C 71.779 102.070, 68.269 103.089, 66.765 103.423 C 64.890 103.839, 63.821 104.866, 63.364 106.687 C 62.059 111.885, 71.248 116.504, 78.124 114.107 C 82.386 112.621, 89.509 112.703, 90.795 114.253 C 92.365 116.145, 91.089 139.681, 89.337 141.135 C 88.381 141.929, 86.241 142.004, 82.234 141.385 C 75.431 140.335, 45.572 142.004, 44.072 143.519 C 43.517 144.079, 42.800 146.191, 42.479 148.211 C 41.324 155.478, 42.644 155.613, 111.254 155.252 C 147.273 155.063, 155 153.511, 155 146.464 C 155 141.083, 146.319 138.652, 131.968 140.013 C 120.621 141.090, 108.401 140.259, 106.418 138.275 C 105.638 137.495, 104.948 135.202, 104.885 133.179 C 104.459 119.507, 104.420 119.815, 106.832 117.917 C 108.115 116.908, 110.140 115.798, 111.332 115.451 C 115.710 114.175, 126.565 109.770, 128.750 108.382 C 132.271 106.147, 131.541 103.625, 126.669 101.191 C 122.583 99.151, 121.130 99.042, 100.983 99.264 C 84.291 99.449, 78.521 99.862, 74.564 101.158" stroke="none" fill="black" fill-rule="evenodd"/>
</svg>