<svg xmlns="http://www.w3.org/2000/svg" width="256" height="256" viewBox="0 0 256 256" version="1.1">
	<path d="M 90.655 30.829 C 88.598 33.101, 88.543 36.971, 90.500 41.654 C 92.522 46.494, 92.419 50.710, 90.250 51.848 C 87.147 53.476, 72.025 55, 58.976 55 C 47.636 55, 45.986 55.223, 43.635 57.073 C 40.006 59.927, 39.910 66.636, 43.440 70.694 L 45.881 73.500 50.861 70.737 C 55.338 68.253, 56.851 67.968, 65.820 67.915 C 72.261 67.878, 76.521 68.308, 77.837 69.130 C 79.399 70.106, 80.418 70.137, 82.188 69.265 C 83.460 68.638, 85.484 67.851, 86.687 67.515 C 90.408 66.477, 102.546 66.799, 107.135 68.058 C 109.536 68.717, 116.423 69.238, 122.441 69.218 C 130.919 69.188, 134.472 69.609, 138.228 71.090 C 144.545 73.580, 146.168 73.501, 149.354 70.548 C 153.207 66.977, 153.018 61.753, 148.894 57.901 C 147.186 56.306, 145.049 54.958, 144.144 54.906 C 143.240 54.855, 133.923 54.891, 123.440 54.987 C 100.951 55.193, 101.283 55.332, 102.936 46.387 C 104.513 37.859, 104.299 36.410, 100.896 32.535 C 97.374 28.523, 93.349 27.852, 90.655 30.829 M 68.921 77.182 C 67.040 78.321, 65.145 79.758, 64.711 80.376 C 63.778 81.706, 64.839 95.804, 66.042 98.069 C 66.501 98.931, 68.045 105.456, 69.473 112.569 C 72.812 129.198, 72.658 128.772, 75.949 130.474 C 78.484 131.785, 78.915 131.752, 80.379 130.134 C 82.482 127.810, 82.518 115.142, 80.437 109.500 C 78.267 103.617, 76.040 90.399, 76.018 83.285 C 75.995 75.510, 74.217 73.980, 68.921 77.182 M 119.201 79.028 C 118.004 80.143, 116.773 82.280, 116.466 83.778 C 116.159 85.275, 115.266 89.200, 114.480 92.500 C 113.694 95.800, 112.765 100.300, 112.414 102.500 C 110.886 112.097, 104.364 131.128, 101.571 134.140 C 98.179 137.798, 88.034 138.942, 81.412 136.413 C 77.028 134.739, 76.706 134.742, 73.746 136.491 C 71.295 137.939, 68.775 138.284, 61.578 138.158 C 51.553 137.982, 45.439 139.388, 41.558 142.763 C 38.518 145.406, 38.364 146.993, 40.851 150.065 C 42.650 152.286, 43.183 152.350, 59.601 152.316 C 68.896 152.297, 80.325 151.899, 85 151.432 C 94.398 150.493, 120.864 150.343, 131 151.171 C 138.715 151.801, 152.049 150.064, 154.361 148.128 C 156.667 146.196, 156.397 142.717, 153.750 140.260 C 150.636 137.368, 144.356 136.702, 131.703 137.919 C 123.431 138.715, 120.449 138.673, 118.953 137.739 C 116.642 136.295, 116.437 132.843, 118.444 129.154 C 120.158 126.005, 122.847 115.798, 124.091 107.719 C 124.580 104.540, 125.715 100.518, 126.613 98.782 C 127.535 96.999, 128.464 92.105, 128.750 87.532 C 129.249 79.522, 129.227 79.424, 126.580 78.219 C 122.911 76.546, 121.724 76.677, 119.201 79.028" stroke="none" fill="black" fill-rule="evenodd"/>
</svg>