<svg xmlns="http://www.w3.org/2000/svg" width="256" height="256" viewBox="0 0 256 256" version="1.1">
	<path d="M 86.313 32.750 L 81.944 37.500 64.003 37.162 C 45.348 36.811, 39.816 37.595, 38.098 40.830 C 37.610 41.749, 36.891 46.368, 36.500 51.095 C 35.794 59.635, 35.807 59.703, 38.530 61.845 C 43.376 65.657, 45.455 64.805, 48.015 57.961 C 49.257 54.640, 51.212 51.265, 52.359 50.461 C 55.531 48.240, 68.132 48.477, 71.016 50.812 C 76.909 55.584, 67.226 63.249, 51.182 66.514 C 47.443 67.275, 46.038 69.523, 48.113 71.427 C 48.876 72.126, 52.103 73.725, 55.284 74.979 C 65.096 78.848, 64.554 82.194, 53.886 83.609 C 50.295 84.086, 47.830 85.079, 46.203 86.706 C 43.916 88.993, 43.843 89.473, 44.585 97.301 C 45.783 109.932, 45.339 115.177, 42.535 121.517 C 41.141 124.670, 40 127.878, 40 128.646 C 40 130.379, 43.120 131.700, 49.027 132.467 C 55.357 133.290, 56.639 135.595, 53.410 140.348 C 50.432 144.729, 48.225 146, 43.589 146 C 39.469 146, 36.704 149.153, 37.651 152.772 C 38.386 155.582, 41.482 155.644, 49 153 C 52.025 151.936, 55.783 151.051, 57.350 151.033 C 61.040 150.990, 67 145.209, 67 141.671 C 67 139.028, 69.301 136.004, 71.321 135.994 C 71.970 135.990, 73.848 135.285, 75.495 134.426 C 78.416 132.903, 78.558 132.941, 81.245 135.948 C 84.845 139.978, 84.772 143.592, 81 148 C 77.287 152.339, 77.089 156.173, 80.465 158.385 C 85.369 161.598, 89.377 160.081, 92.259 153.918 C 93.962 150.278, 94.299 148.319, 95.520 135 C 96.014 129.604, 96.763 126.895, 98.189 125.344 L 100.171 123.189 105.593 125.671 C 110.452 127.896, 112.504 128.179, 125.347 128.394 C 138.287 128.611, 139.978 128.848, 142.765 130.833 C 145.457 132.750, 145.747 133.394, 145.036 135.876 C 144.587 137.441, 143.733 139.630, 143.139 140.740 C 141.937 142.987, 135.284 146, 131.527 146 C 127.982 146, 124.130 148.014, 123.425 150.237 C 122.590 152.866, 125.793 156.084, 132.525 159.381 C 139.095 162.598, 141.315 162.235, 147.304 156.964 C 150.988 153.721, 152.058 151.856, 154.272 144.816 C 159.326 128.746, 160.078 125.335, 159.121 122.818 C 157.257 117.916, 155.756 117.503, 139.596 117.450 C 127.129 117.410, 123.847 117.085, 120.750 115.587 C 116.619 113.588, 115.589 109.879, 118.750 108.389 C 119.713 107.936, 126.724 107.550, 134.331 107.532 C 151.494 107.492, 151.421 107.547, 152.459 93.711 C 153.147 84.535, 153.098 84.226, 150.080 78.649 C 148.386 75.517, 147 72.351, 147 71.614 C 147 69.378, 142.294 65.402, 138.281 64.247 C 136.202 63.649, 131.908 62.641, 128.740 62.007 C 123.058 60.870, 117 57.061, 117 54.627 C 117 51.894, 122.967 49.814, 130.580 49.892 C 138.539 49.974, 142.170 51.261, 146.414 55.505 C 149.441 58.532, 153.289 58.711, 156.047 55.953 C 159.013 52.987, 158.327 43.061, 154.898 39.346 L 152.500 36.747 132.906 37.304 C 122.129 37.609, 111.612 37.476, 109.534 37.008 C 107.456 36.539, 104.348 34.825, 102.628 33.198 C 95.537 26.493, 92.154 26.400, 86.313 32.750 M 92.110 49.662 C 89.621 50.927, 88.066 52.863, 86.262 56.943 C 84.911 59.999, 83.510 62.725, 83.150 63 C 81.376 64.352, 76 74.410, 76 76.375 C 76 80.832, 78.039 82.097, 85.672 82.373 C 90.388 82.544, 93.683 83.218, 95.445 84.372 C 98.165 86.154, 98.298 87.301, 96.561 94 C 95.556 97.876, 97.654 117.163, 99.187 118.146 C 101.868 119.866, 103.682 116.004, 106.538 102.500 C 106.968 100.463, 115.061 95.419, 120.324 93.908 C 121.937 93.445, 125.449 93.559, 128.509 94.173 C 135.465 95.570, 139 94.720, 139 91.650 C 139 88.317, 135.174 86.579, 129.560 87.363 C 127.052 87.713, 123.002 88.281, 120.560 88.623 C 114.912 89.416, 111.349 88.520, 109.980 85.963 C 109.117 84.349, 109.436 82.969, 111.590 79.011 L 114.278 74.073 112.161 69.154 C 110.997 66.448, 109.746 61.691, 109.381 58.584 C 108.828 53.878, 108.232 52.589, 105.812 50.866 C 101.821 48.024, 96.287 47.538, 92.110 49.662 M 62.546 91.949 C 61.519 93.084, 60.864 94.122, 61.089 94.256 C 64.321 96.176, 65.995 96.530, 68.911 95.911 C 72.526 95.143, 75 95.629, 75 97.107 C 75 97.598, 76.463 97.948, 78.250 97.884 C 80.038 97.820, 80.689 97.558, 79.697 97.300 C 78.283 96.934, 78.143 96.533, 79.046 95.444 C 80.982 93.112, 78.026 91.343, 70.917 90.582 C 65.114 89.960, 64.213 90.107, 62.546 91.949 M 75.500 103 C 75.151 104.100, 74.247 105, 73.492 105 C 71.246 105, 70.753 106.896, 72.536 108.679 C 73.516 109.659, 75.903 110.375, 78.350 110.421 C 82.482 110.500, 82.499 110.485, 82.279 107 C 81.916 101.245, 81.778 101, 78.901 101 C 77.013 101, 75.933 101.635, 75.500 103 M 63.191 105.850 C 61.921 106.207, 60.909 106.927, 60.941 107.450 C 60.995 108.317, 61.931 108.403, 68 108.100 C 69.100 108.045, 70 107.523, 70 106.941 C 70 106.359, 69.581 106.141, 69.069 106.457 C 68.557 106.774, 67.856 106.575, 67.510 106.016 C 66.823 104.904, 66.582 104.895, 63.191 105.850 M 77.813 113.683 C 78.534 113.972, 79.397 113.936, 79.729 113.604 C 80.061 113.272, 79.471 113.036, 78.417 113.079 C 77.252 113.127, 77.015 113.364, 77.813 113.683 M 75.500 116.309 C 74.400 116.964, 73.275 117.725, 73 118 C 72.018 118.982, 70 118.982, 70 118 C 70 117.450, 68.083 117, 65.741 117 C 62.485 117, 61.169 117.499, 60.158 119.118 C 59.431 120.283, 59.210 121.587, 59.668 122.015 C 60.988 123.252, 77.099 124.017, 79.113 122.939 C 80.218 122.348, 80.688 121.351, 80.317 120.384 C 79.982 119.512, 80.337 118.400, 81.104 117.914 C 82.212 117.213, 82.126 117.027, 80.691 117.015 C 79.696 117.007, 79.160 116.550, 79.500 116 C 80.332 114.654, 77.973 114.836, 75.500 116.309" stroke="none" fill="black" fill-rule="evenodd"/>
</svg>