<svg xmlns="http://www.w3.org/2000/svg" width="256" height="256" viewBox="0 0 256 256" version="1.1">
	<path d="M 87.390 29.654 C 85.250 31.113, 81.025 33.415, 78 34.768 C 72.747 37.117, 71.983 37.191, 61 36.401 C 42.588 35.079, 39.511 35.228, 36.323 37.599 C 32.529 40.420, 32.297 43.908, 35.556 49.176 C 41.013 58.001, 45.927 59.523, 47.883 52.996 C 49.370 48.034, 51.736 46.460, 59.899 45.001 C 67.282 43.682, 70.005 44.125, 71.735 46.925 C 72.783 48.622, 72.632 49.285, 70.735 51.313 C 68.957 53.214, 66.777 53.934, 60.066 54.840 C 55.427 55.466, 51.287 56.536, 50.866 57.217 C 49.544 59.356, 54.286 66.339, 59.376 69.750 C 63.405 72.450, 65.171 73, 69.813 73 C 76.601 73, 75.718 75.053, 68.741 75.492 C 66.296 75.646, 63.441 76.030, 62.397 76.347 C 58 77.679, 54.493 77.852, 49.827 76.967 C 40.984 75.290, 33.891 80.171, 37.924 85.157 C 39.512 87.120, 41.010 87.581, 47.160 88 L 54.500 88.500 54.500 97.819 C 54.500 105.966, 54.751 107.328, 56.500 108.652 C 60.131 111.401, 71.307 108.924, 69.375 105.798 C 69.104 105.359, 69.684 105, 70.663 105 C 72.100 105, 71.966 104.672, 69.973 103.308 C 64.426 99.513, 64.591 97, 70.385 97 C 73.923 97, 75.077 97.469, 76.359 99.425 C 77.272 100.819, 77.525 101.992, 76.952 102.183 C 76.404 102.365, 75.721 103.806, 75.435 105.384 C 75.047 107.522, 75.435 108.616, 76.958 109.683 C 78.081 110.470, 79 111.965, 79 113.005 C 79 114.834, 74.992 120, 73.573 120 C 73.190 120, 70.542 118.953, 67.688 117.673 C 56.438 112.628, 49.968 111.924, 47.058 115.430 C 43.778 119.382, 41.902 135.675, 44.304 139.341 C 46.125 142.120, 50.067 143.146, 55 142.125 C 57.432 141.622, 59.953 141.950, 63.261 143.200 C 65.879 144.190, 70.413 145, 73.336 145 C 77.599 145, 79.082 145.458, 80.826 147.314 C 82.022 148.587, 83 150.166, 83 150.823 C 83 151.480, 84.185 153.347, 85.633 154.972 C 90.189 160.086, 94.652 160.776, 123.500 160.830 C 149.453 160.878, 149.507 160.874, 153.250 158.425 C 157.088 155.914, 158.040 153.108, 155.711 151.175 C 153.604 149.427, 146.722 148.281, 143.521 149.145 C 134.725 151.521, 129 151.069, 129 147.999 C 129 147.017, 129.712 145.941, 130.582 145.607 C 133.535 144.474, 140.061 144.994, 142.438 146.551 C 144.663 148.009, 144.963 147.946, 147.403 145.506 C 148.831 144.078, 150.006 142.367, 150.014 141.705 C 150.022 141.042, 150.179 136.450, 150.364 131.500 C 150.969 115.238, 149.775 114.211, 130.835 114.706 C 118.905 115.018, 116.879 114.848, 116.358 113.491 C 116.025 112.624, 115.999 111.667, 116.300 111.366 C 116.602 111.065, 122.620 110.859, 129.674 110.908 C 136.728 110.957, 143.175 110.564, 144 110.035 C 145.092 109.334, 145.500 107.222, 145.500 102.263 C 145.500 96.583, 145.127 95.052, 143.250 93.038 C 142.012 91.710, 141 90.330, 141 89.972 C 141 88.771, 146.060 87, 149.490 87 C 153.706 87, 156.486 83.777, 154.872 80.761 C 153.110 77.469, 147.190 75.648, 137.500 75.416 C 132.550 75.298, 126.813 75.156, 124.750 75.101 C 119.752 74.967, 119.908 73, 124.917 73 C 127.071 73, 128.983 72.591, 129.167 72.090 C 129.350 71.590, 130.850 70.959, 132.500 70.688 C 137.239 69.909, 139 68.921, 139 67.039 C 139 64.879, 142.521 60.987, 146.715 58.509 C 148.452 57.483, 150.141 55.573, 150.470 54.263 C 150.799 52.953, 152.872 49.925, 155.076 47.533 C 158.304 44.031, 158.960 42.690, 158.447 40.645 C 157.031 35.002, 149.920 33.179, 138.082 35.425 C 122.336 38.412, 114.535 37.295, 100.609 30.060 C 93.423 26.327, 92.315 26.293, 87.390 29.654 M 126.465 45.008 C 125.346 45.431, 123.786 46.553, 122.998 47.503 C 121.728 49.033, 121.829 49.443, 123.880 51.104 C 125.153 52.134, 127.917 53.494, 130.022 54.125 C 133.322 55.113, 134.308 55.004, 137.172 53.332 C 138.999 52.265, 140.620 50.733, 140.775 49.928 C 141.381 46.783, 131.114 43.253, 126.465 45.008 M 91.500 46.461 C 89.850 47.221, 85.827 50.804, 82.560 54.422 C 79.292 58.040, 76.086 61, 75.435 61 C 74.783 61, 74.250 62.055, 74.250 63.344 C 74.250 65.099, 75.098 65.995, 77.625 66.909 C 79.481 67.580, 81 68.550, 81 69.065 C 81 69.579, 81.675 70, 82.500 70 C 83.325 70, 84 69.603, 84 69.117 C 84 68.632, 86.368 67.076, 89.263 65.660 C 94.054 63.316, 95.089 63.164, 100.812 63.973 C 105.377 64.619, 107.921 64.516, 110.104 63.599 C 112.802 62.464, 112.943 62.197, 111.481 60.984 C 109.536 59.370, 106 52.679, 106 50.612 C 106 48.296, 101.036 44.996, 97.615 45.039 C 95.902 45.061, 93.150 45.700, 91.500 46.461 M 68.479 88.854 C 66.522 90.811, 74.156 91.838, 77 90 C 78.248 89.193, 78.165 89.014, 76.500 88.934 C 75.400 88.881, 73.241 88.746, 71.702 88.634 C 70.163 88.521, 68.713 88.621, 68.479 88.854 M 115.813 89.683 C 116.534 89.972, 117.397 89.936, 117.729 89.604 C 118.061 89.272, 117.471 89.036, 116.417 89.079 C 115.252 89.127, 115.015 89.364, 115.813 89.683 M 96.500 100.806 C 95.400 101.031, 93.970 101.645, 93.321 102.171 C 91.726 103.464, 91.824 113.644, 93.471 117.584 C 94.674 120.465, 94.578 121.133, 92.442 124.716 C 90.633 127.748, 90.266 129.347, 90.863 131.580 C 91.608 134.366, 91.012 139.694, 89.573 143.107 C 89.072 144.297, 89.753 145.032, 92.198 145.940 C 94.014 146.615, 96.400 147.667, 97.500 148.278 C 100.490 149.939, 117.151 149.992, 118.798 148.345 C 121.046 146.097, 119.147 145, 113.009 145 C 107.722 145, 106.938 144.722, 105.147 142.207 C 102.894 139.042, 101.932 133.534, 103.081 130.377 C 103.545 129.103, 103.253 126.512, 102.352 123.896 C 101.006 119.989, 101.013 119.197, 102.417 116.252 C 103.873 113.199, 103.889 109.891, 102.482 103.369 C 101.991 101.097, 99.757 100.139, 96.500 100.806 M 119 101 C 116.650 101.753, 116.698 101.807, 119.809 101.900 C 121.781 101.960, 122.868 101.596, 122.500 101 C 122.160 100.450, 121.796 100.045, 121.691 100.100 C 121.586 100.155, 120.375 100.560, 119 101 M 71.250 122.226 C 71.495 123.428, 73.513 126, 74.210 126 C 74.405 126, 74.657 124.875, 74.771 123.500 C 74.928 121.602, 74.499 121, 72.989 121 C 71.895 121, 71.112 121.552, 71.250 122.226 M 67.112 128.644 C 65.928 129.981, 65.928 130.340, 67.112 131.090 C 68.841 132.185, 69.161 132.184, 70.912 131.075 C 72.112 130.316, 72.085 129.942, 70.734 128.591 C 68.821 126.678, 68.853 126.678, 67.112 128.644 M 130.750 127.752 C 129.787 127.969, 129 128.821, 129 129.645 C 129 131.254, 131.325 134, 132.688 134 C 133.527 134, 136.412 129.964, 135.819 129.620 C 135.644 129.518, 134.825 128.967, 134 128.396 C 133.175 127.825, 131.713 127.535, 130.750 127.752 M 118.532 128.949 C 118.169 129.535, 118.513 130.260, 119.296 130.560 C 121.378 131.359, 126.097 130.549, 125.784 129.446 C 125.399 128.093, 119.318 127.676, 118.532 128.949 M 73 130.559 C 73 131.416, 73.450 131.840, 74 131.500 C 74.550 131.160, 75 130.459, 75 129.941 C 75 129.423, 74.550 129, 74 129 C 73.450 129, 73 129.702, 73 130.559" stroke="none" fill="black" fill-rule="evenodd"/>
</svg>