<svg xmlns="http://www.w3.org/2000/svg" width="256" height="256" viewBox="0 0 256 256" version="1.1">
	<path d="M 39.559 30.132 L 36.848 32.265 37.373 46.674 C 37.898 61.082, 37.899 61.084, 41.135 65.171 C 45.990 71.301, 49.449 72.429, 63.500 72.467 C 70.100 72.485, 76.152 72.920, 76.950 73.432 C 78.755 74.593, 83 74.839, 83 73.783 C 83 73.352, 83.649 73, 84.443 73 C 89.272 73, 89.701 62.276, 85.070 57.306 L 83.063 55.151 79.062 57.084 C 74.611 59.235, 73.698 59.321, 63 58.609 C 58.875 58.335, 54.970 58.086, 54.321 58.055 C 52.935 57.990, 50 55.236, 50 54 C 50 53.529, 50.722 52.421, 51.605 51.538 C 52.964 50.179, 54.911 50.026, 64.338 50.538 C 70.459 50.871, 75.943 51.537, 76.524 52.020 C 77.106 52.503, 78.993 53.146, 80.717 53.450 C 83.381 53.920, 84.277 53.498, 86.676 50.647 C 88.229 48.802, 90.666 46.546, 92.092 45.635 C 94.469 44.114, 95.049 44.107, 99.092 45.542 C 102.388 46.712, 105.326 46.938, 110.739 46.437 C 117.719 45.791, 118.010 45.852, 118.854 48.134 C 120.626 52.924, 117.403 55.979, 109.048 57.431 C 107.150 57.761, 104.593 58.973, 103.367 60.125 C 101.235 62.128, 101.207 62.366, 102.718 65.535 C 104.197 68.636, 104.159 69.291, 102.132 75.675 C 100.080 82.140, 100.021 83.291, 101.010 97.500 C 103.050 126.802, 103.409 129.697, 105.252 131.730 C 106.216 132.793, 106.703 133.963, 106.336 134.331 C 105.968 134.699, 106.192 135, 106.833 135 C 108.088 135, 108.501 138.988, 107.250 139.018 C 106.838 139.027, 104.137 141.233, 101.250 143.920 C 95.227 149.524, 94.539 152.630, 98.455 156.545 C 102.351 160.442, 105.295 159.749, 111.594 153.449 C 116.545 148.498, 117.117 147.500, 116.886 144.199 C 116.744 142.165, 116.178 139.903, 115.628 139.174 C 114.929 138.246, 115.059 137.568, 116.064 136.915 C 119.097 134.945, 122.450 134.777, 127.427 136.345 C 132.151 137.835, 132.768 138.391, 134.658 142.864 C 136.302 146.754, 137.723 148.324, 141.612 150.543 C 144.300 152.077, 147.400 154.115, 148.500 155.071 C 149.600 156.027, 152.467 157.390, 154.871 158.100 C 158.854 159.275, 159.365 159.222, 160.621 157.503 C 162.766 154.571, 162.298 150.208, 159.545 147.455 C 158.195 146.105, 156.348 145, 155.439 145 C 153.901 145, 146.319 139.716, 144.842 137.615 C 143.664 135.940, 146.261 133.238, 150.178 132.065 C 156.894 130.053, 157.314 128.513, 157.236 106.193 C 157.199 95.362, 156.956 80.898, 156.698 74.052 C 156.158 59.729, 155.596 58.744, 147.286 57.551 C 135.248 55.824, 131.812 53.652, 134.098 49.216 C 136.136 45.260, 136.737 45.032, 145.203 45.015 C 149.440 45.007, 154.063 44.473, 155.477 43.829 C 159.991 41.772, 159.730 35.531, 155.025 33.013 C 153.879 32.400, 143.425 31.915, 129.298 31.820 C 103.052 31.643, 101.289 31.977, 97.053 37.926 C 94.077 42.104, 91.657 42.572, 87.235 39.822 C 84.221 37.948, 82.052 37.490, 76 37.451 C 54.874 37.312, 55.566 37.443, 50 32.500 C 47.213 30.025, 44.334 28, 43.601 28 C 42.869 28, 41.050 28.960, 39.559 30.132 M 121.798 69.850 C 114.292 70.578, 112.468 71.745, 113.349 75.255 C 114.170 78.525, 117.491 79.814, 125.240 79.874 C 128.833 79.902, 132.161 80.034, 132.636 80.169 C 133.111 80.304, 135.403 80.092, 137.729 79.699 C 141 79.145, 142.293 78.333, 143.442 76.113 C 144.803 73.480, 144.768 73.100, 143.011 71.510 C 140.796 69.506, 132.242 68.836, 121.798 69.850 M 78 79.220 C 75.525 79.663, 70.543 80.204, 66.929 80.424 C 63.315 80.644, 58.647 81.538, 56.557 82.412 C 54.466 83.285, 51.551 84, 50.078 84 C 47.199 84, 45 85.602, 45 87.700 C 45 88.415, 45.845 89, 46.878 89 C 49.356 89, 55.679 91.671, 56.555 93.088 C 56.935 93.703, 57.328 96.748, 57.429 99.853 C 57.663 107.062, 56.031 108.563, 49.183 107.438 C 40.646 106.035, 36.669 108.022, 37.201 113.424 C 37.433 115.772, 38.396 116.951, 41.495 118.684 C 47.851 122.238, 47.300 125.968, 39.634 131.267 C 33.046 135.822, 29.775 155, 35.586 155 C 37.305 155, 42.155 150.306, 47.806 143.173 C 51.141 138.964, 53.904 137.950, 55.769 140.250 C 56.326 140.938, 57.059 145.325, 57.397 150 C 58.084 159.496, 59.977 163.294, 64.282 163.810 C 67.940 164.249, 69.100 161.448, 69.439 151.360 C 69.596 146.694, 70.190 142.410, 70.760 141.840 C 71.466 141.134, 74.132 141.118, 79.148 141.791 C 88.696 143.073, 91.374 142.008, 91.810 136.757 C 92.043 133.941, 91.554 132.446, 89.810 130.651 C 88.539 129.343, 86.876 127.219, 86.114 125.932 C 84.835 123.772, 84.960 123.394, 87.723 121.045 C 93.339 116.273, 94.612 110.612, 90.902 106.902 C 88.720 104.720, 87.670 104.709, 78.362 106.773 C 75.351 107.441, 73.581 107.334, 71.862 106.381 C 70.563 105.660, 69.907 105.055, 70.405 105.035 C 70.903 105.016, 70.643 104.213, 69.829 103.250 C 69.014 102.287, 68.236 99.604, 68.100 97.288 C 67.879 93.533, 68.125 93.007, 70.357 92.447 C 71.735 92.101, 75.325 92.534, 78.335 93.409 C 85.449 95.477, 87.314 95.415, 89.464 93.040 C 91.876 90.374, 90.894 87.087, 86.252 82.291 C 82.634 78.554, 82.340 78.444, 78 79.220 M 116.198 92.500 C 114.491 93.506, 114.005 96.580, 115.237 98.575 C 115.964 99.751, 141.540 99.794, 142.712 98.621 C 144.182 97.152, 143.930 93.667, 142.264 92.401 C 140.166 90.808, 118.933 90.889, 116.198 92.500 M 114.518 112.610 C 112.383 114.172, 112.631 116.979, 115.141 119.650 C 117.214 121.856, 117.683 121.910, 129.891 121.335 C 143.381 120.699, 146 119.742, 146 115.452 C 146 114.221, 145.213 112.894, 144.250 112.503 C 141.274 111.295, 116.193 111.385, 114.518 112.610 M 73.805 120.786 C 72.746 120.998, 72.332 121.702, 72.701 122.664 C 73.026 123.510, 72.663 124.600, 71.896 125.086 C 70.908 125.711, 71.377 125.969, 73.500 125.969 C 75.802 125.969, 76.151 125.744, 75 125 C 73.667 124.138, 73.667 124.016, 75 123.897 C 75.825 123.823, 76.838 123.816, 77.250 123.882 C 77.662 123.947, 78 123.523, 78 122.941 C 78 122.359, 78.419 122.141, 78.931 122.457 C 79.443 122.774, 80.113 122.626, 80.421 122.128 C 81.028 121.146, 76.545 120.236, 73.805 120.786" stroke="none" fill="black" fill-rule="evenodd"/>
</svg>