<svg xmlns="http://www.w3.org/2000/svg" width="256" height="256" viewBox="0 0 256 256" version="1.1">
	<path d="M 51.410 28.149 C 49.323 29.161, 43.902 37.654, 39.564 46.708 C 34.974 56.286, 35.353 68, 40.253 68 C 44.049 68, 47.040 65.098, 49.966 58.576 C 53.285 51.177, 56.599 48.540, 60.704 50.028 C 68.040 52.687, 70.871 56.053, 72.453 64 C 73.656 70.047, 73.904 70.469, 77.069 71.870 C 81.154 73.678, 82.592 72.228, 82.196 66.701 C 81.405 55.651, 80.961 56.790, 87.393 53.373 C 95.741 48.937, 96.704 46.280, 91.850 41.070 C 89.854 38.926, 89.222 38.828, 81.551 39.467 C 74.835 40.027, 72.722 39.835, 69.699 38.394 C 67.676 37.429, 65.760 35.818, 65.441 34.814 C 65.122 33.810, 63.728 31.642, 62.342 29.995 C 59.663 26.811, 55.588 26.123, 51.410 28.149 M 107.743 30.397 C 106.776 31.131, 105.367 33.784, 104.612 36.293 C 103.857 38.802, 102.173 42.350, 100.870 44.178 C 98.882 46.965, 98.500 48.709, 98.503 55 C 98.506 63.087, 100.284 67.321, 104.201 68.564 C 106.904 69.422, 108.395 67.644, 110.542 61 C 112.629 54.542, 114.210 53.075, 119.128 53.032 C 123.608 52.993, 125.096 54.675, 125.756 60.524 C 126.036 63.011, 126.656 65.287, 127.133 65.582 C 127.610 65.877, 128 67.567, 128 69.337 C 128 72.401, 127.715 72.641, 122.104 74.307 C 118.386 75.411, 114.785 75.832, 112.354 75.448 C 109.761 75.039, 107.518 75.355, 105.500 76.414 C 102.124 78.185, 84.583 78.654, 82.034 77.042 C 81.227 76.532, 80.102 76.487, 79.534 76.943 C 78.570 77.715, 72.808 80.165, 65.283 83.002 C 61.952 84.258, 60.532 86.616, 61.533 89.225 C 62.192 90.944, 69.950 92.286, 79.982 92.416 C 86.038 92.494, 86.551 92.682, 87.794 95.266 C 88.526 96.787, 88.841 98.925, 88.495 100.017 C 87.310 103.751, 84.163 104.475, 68 104.736 C 59.475 104.874, 50.925 105.167, 49 105.387 C 47.075 105.608, 44.764 105.836, 43.865 105.894 C 41.155 106.070, 38.609 110.847, 39.815 113.494 C 40.723 115.485, 41.843 115.822, 49.669 116.454 C 54.526 116.846, 61.650 117.267, 65.500 117.390 C 72.657 117.618, 77 119.099, 77 121.313 C 77 122.874, 74.061 127.232, 72.274 128.320 C 71.534 128.771, 70.243 130.796, 69.406 132.820 C 67.647 137.070, 59.695 143.782, 52.908 146.744 C 50.382 147.846, 47.267 150.221, 45.985 152.021 C 43.847 155.024, 43.775 155.509, 45.109 157.897 C 46.982 161.251, 51.284 161.644, 59.985 159.257 C 66.105 157.578, 66.743 157.112, 71.298 150.989 C 73.954 147.420, 77.399 143.150, 78.955 141.500 C 81.785 138.500, 86.164 130.734, 85.849 129.274 C 85.758 128.848, 86.027 127.712, 86.448 126.750 C 87.055 125.362, 88.459 125, 93.227 125 C 99.048 125, 99.377 125.143, 103.553 129.502 C 105.925 131.978, 108.122 134.790, 108.434 135.752 C 109.511 139.072, 129.312 154.805, 136 157.655 C 139.968 159.346, 145.001 158.884, 148.647 156.496 L 151.082 154.900 145.605 148.700 C 142.116 144.751, 138.018 141.411, 134.314 139.500 C 131.116 137.850, 126.705 134.813, 124.510 132.750 C 122.316 130.688, 119.953 129, 119.260 129 C 118.567 129, 117.996 128.662, 117.991 128.250 C 117.987 127.838, 116.413 125.844, 114.494 123.820 L 111.006 120.140 113.638 118.070 C 115.970 116.236, 117.707 115.992, 128.885 115.927 C 149.676 115.807, 154.406 114.584, 153.756 109.500 C 153.564 108.003, 152.494 107.344, 149.500 106.878 C 135.991 104.779, 129.964 103.756, 125.814 102.860 C 123.236 102.303, 117.161 101.986, 112.314 102.156 C 107.466 102.326, 102.938 102.108, 102.250 101.673 C 100.635 100.651, 100.699 96.980, 102.371 94.778 C 104.918 91.425, 114.088 88.020, 120.601 88.010 C 123.956 88.004, 128.107 87.510, 129.824 86.912 C 133.824 85.517, 136.983 80.417, 136.953 75.401 C 136.941 73.255, 137.219 67.774, 137.572 63.220 C 138.178 55.414, 138.377 54.856, 141.058 53.470 C 142.621 52.662, 145.836 51.993, 148.200 51.985 C 153.457 51.966, 154.642 51.274, 155.539 47.700 C 156.041 45.700, 155.736 44.365, 154.452 42.947 C 152.804 41.126, 151.514 40.994, 137.750 41.237 L 122.835 41.500 120.417 38.694 C 119.088 37.151, 118 35.039, 118 34.001 C 118 30.029, 111.320 27.682, 107.743 30.397" stroke="none" fill="black" fill-rule="evenodd"/>
</svg>