<svg xmlns="http://www.w3.org/2000/svg" width="256" height="256" viewBox="0 0 256 256" version="1.1">
	<path d="M 50.543 34.250 C 47.112 37.256, 39.521 50.805, 36.402 59.493 C 34.677 64.297, 32.573 67.844, 29.712 70.773 C 26.246 74.322, 25.729 75.338, 26.661 76.773 C 28.263 79.239, 31.980 78.477, 35.500 74.962 C 37.150 73.314, 41.073 70.311, 44.219 68.290 C 48.338 65.641, 50.357 63.565, 51.438 60.864 C 53.052 56.829, 59.084 52, 62.510 52 C 67.690 52, 71.640 58.653, 69.755 64.203 C 69.030 66.338, 67.743 67.224, 63.622 68.421 C 57.474 70.209, 54.567 72.987, 52.489 79.060 C 51.545 81.818, 48.906 85.584, 45.524 89 C 42.529 92.025, 40.061 95.007, 40.039 95.628 C 40.018 96.248, 39.375 97.274, 38.611 97.908 C 36.663 99.525, 36.102 103.419, 37.535 105.378 C 38.722 107.002, 40.769 107.047, 44.293 105.527 C 45.279 105.101, 46.190 104.921, 46.316 105.126 C 51.122 112.929, 51.195 113.583, 50.710 144.500 C 50.624 150.001, 52.054 156.474, 53.886 158.875 C 56.182 161.886, 60.462 161.984, 63.347 159.092 C 65.346 157.089, 65.497 155.951, 65.463 143.217 C 65.441 135.338, 64.865 127.257, 64.108 124.230 C 63.028 119.910, 63.022 117.796, 64.073 112.507 C 65.079 107.449, 65.101 104.951, 64.178 100.951 C 62.481 93.598, 62.722 88.466, 64.972 84.055 C 67.677 78.752, 71.710 75.710, 74.955 76.525 C 78.515 77.418, 78.533 77.491, 76.406 82.207 C 74.108 87.305, 74.108 87.309, 75.598 93.190 C 76.252 95.769, 76.649 98.019, 76.480 98.190 C 76.311 98.360, 75.875 101.650, 75.511 105.500 C 75.146 109.350, 74.435 114.075, 73.930 116 C 73.425 117.925, 73.009 122.468, 73.006 126.095 C 72.999 133.938, 74.762 136.338, 80.150 135.820 C 84.183 135.433, 85.629 132.918, 86.819 124.216 C 87.272 120.904, 88.407 117.028, 89.341 115.603 C 91.132 112.869, 96.353 110.204, 101.691 109.299 C 104.495 108.823, 105.134 109.166, 106.962 112.129 C 108.106 113.983, 109.325 116.625, 109.672 118 C 110.019 119.375, 111.652 122.480, 113.302 124.899 C 115.483 128.099, 116.041 129.712, 115.345 130.814 C 114.819 131.648, 110.814 134.226, 106.444 136.543 C 102.075 138.861, 97.287 141.940, 95.805 143.387 C 93.394 145.740, 93.223 146.343, 94.186 149.103 C 95.539 152.984, 100.592 156.256, 104 155.458 C 105.375 155.136, 108.750 152.724, 111.500 150.098 C 119.670 142.297, 121.828 141, 126.635 141 C 129.434 141, 131.651 141.628, 132.815 142.750 C 140.031 149.709, 147.671 154, 152.845 154 C 156.020 154, 157.399 152.769, 158.290 149.143 C 159.259 145.197, 157.339 142.232, 151.791 139.110 C 148.881 137.472, 145.956 135.652, 145.292 135.066 C 144.628 134.480, 143.831 134, 143.522 134 C 143.213 134, 141.169 132.869, 138.980 131.487 C 135.576 129.339, 135 128.468, 135 125.474 C 135 123.548, 135.383 121.191, 135.852 120.236 C 137.732 116.403, 141.086 109.144, 143.932 102.749 C 147.010 95.833, 147.172 95.693, 156.159 92.169 C 158.635 91.198, 158.759 90.864, 157.958 87.313 C 156.817 82.252, 153.883 80.030, 148.139 79.876 C 145.588 79.807, 140.575 79.695, 137 79.626 C 129.363 79.478, 120.976 76.018, 114.860 70.493 C 112.734 68.572, 110.546 67, 109.997 67 C 109.449 67, 109 65.910, 109 64.577 C 109 61.100, 114.421 56, 118.117 56 C 121.176 56, 126.996 59.561, 127.006 61.438 C 127.009 62.022, 127.491 64.227, 128.077 66.338 C 128.968 69.547, 129.908 70.523, 133.821 72.296 C 139.447 74.845, 140.111 74.923, 141.855 73.240 C 143.327 71.820, 143.042 68.394, 140.849 61.148 C 139.598 57.015, 139.649 56.703, 141.857 54.915 C 143.586 53.515, 145.528 53.092, 149.437 53.266 C 155.541 53.538, 158 52.035, 158 48.033 C 158 42.624, 155.775 41.902, 141.345 42.633 C 125.058 43.457, 119.583 42.350, 116 37.506 C 112.733 33.091, 109.595 31.611, 106.972 33.249 C 105.888 33.927, 104.944 35.498, 104.875 36.741 C 104.806 37.983, 104.638 39.450, 104.500 40 C 104.362 40.550, 104.194 41.406, 104.125 41.902 C 104.056 42.398, 102.711 43.254, 101.136 43.803 C 98.879 44.590, 97.342 44.380, 93.886 42.812 C 90.144 41.115, 88.248 40.918, 80.968 41.470 C 70.912 42.231, 68.308 41.460, 62.333 35.953 C 57.402 31.408, 54.299 30.960, 50.543 34.250 M 84.250 55.662 C 82.526 56.358, 82.685 61.171, 84.588 65.927 C 86.069 69.630, 86.053 70.115, 84.338 73.197 C 83.327 75.014, 82.099 76.791, 81.608 77.147 C 81.118 77.502, 81.793 79.264, 83.108 81.062 C 84.424 82.860, 86.403 86.169, 87.507 88.416 C 88.959 91.369, 90.205 92.572, 92.007 92.759 C 94.814 93.050, 99.303 91.023, 99.223 89.500 C 99.194 88.950, 99.647 87.926, 100.229 87.224 C 100.812 86.522, 101.372 84.041, 101.473 81.712 C 101.575 79.382, 103.015 74.650, 104.673 71.195 L 107.687 64.914 105.094 63.069 C 100.804 60.017, 89.789 54.995, 87.573 55.079 C 86.433 55.122, 84.938 55.385, 84.250 55.662 M 119 94.164 C 119 94.624, 118.311 95, 117.469 95 C 116.626 95, 115.680 95.670, 115.366 96.488 C 114.477 98.807, 116.952 107.646, 119.013 109.512 C 122.272 112.462, 129.796 109.286, 129.701 105 C 129.683 104.175, 130.470 101.810, 131.451 99.743 C 134.006 94.362, 132.489 92.841, 124.839 93.117 C 121.627 93.233, 119 93.704, 119 94.164" stroke="none" fill="black" fill-rule="evenodd"/>
</svg>