<svg xmlns="http://www.w3.org/2000/svg" width="256" height="256" viewBox="0 0 256 256" version="1.1">
	<path d="M 109.280 29.045 C 108.059 29.523, 106.865 30.945, 106.626 32.207 C 105.014 40.729, 104.370 42.235, 101.660 43.829 C 98.919 45.442, 98.762 45.421, 97.160 43.215 C 91.695 35.691, 93.396 36.189, 76.294 37.111 L 69.087 37.500 64.756 33.250 C 61.281 29.841, 59.713 29, 56.829 29 C 52.079 29, 47.144 34.378, 42.458 44.661 C 35.072 60.869, 35.657 66.580, 44.564 65.224 C 45.965 65.011, 47.860 62.595, 50.464 57.705 C 55.500 48.245, 56.672 47, 60.536 47 C 62.845 47, 64.649 47.907, 66.881 50.190 C 68.597 51.944, 70 53.920, 70 54.581 C 70 55.241, 70.890 57.743, 71.978 60.141 C 73.066 62.538, 73.963 65.175, 73.971 66 C 73.994 68.213, 68.260 71.603, 62.081 73.030 C 57.156 74.167, 56.832 74.404, 58.523 75.640 C 59.545 76.388, 61.864 77, 63.676 77 C 66.704 77, 77.004 82.246, 77.833 84.211 C 78.017 84.645, 80.128 85, 82.524 85 C 87.471 85, 88.591 86.028, 86.960 89.074 C 86.016 90.838, 85.248 91.082, 82.346 90.537 C 80.139 90.123, 77.035 90.492, 73.863 91.545 C 71.112 92.459, 67.880 92.975, 66.681 92.692 C 65.481 92.409, 63.533 91.947, 62.352 91.666 C 59.436 90.971, 56.673 94.200, 54.524 100.813 C 52.653 106.570, 52.127 113.916, 53.280 118.183 C 54.143 121.380, 56.507 122.276, 63.892 122.210 C 67.051 122.182, 70.238 122.753, 71.380 123.554 C 73.821 125.263, 74.601 129, 72.518 129 C 71.709 129, 70.250 130.537, 69.274 132.416 C 67.368 136.085, 60.139 141.793, 53.239 145.076 C 50.896 146.191, 48.221 148.259, 47.295 149.673 C 45.700 152.107, 45.711 152.315, 47.497 153.621 C 49.723 155.250, 60.774 155.468, 66.098 153.989 C 68.454 153.335, 71.069 151.353, 73.676 148.245 C 80.207 140.461, 85 132.928, 85 130.447 C 85 129.166, 85.520 127.797, 86.155 127.405 C 86.870 126.962, 87.038 127.130, 86.595 127.845 C 86.187 128.507, 86.477 129, 87.274 129 C 88.040 129, 88.706 129.563, 88.753 130.250 C 88.883 132.135, 89.697 135.176, 90.911 138.315 C 91.510 139.863, 92.007 144.588, 92.015 148.815 C 92.032 157.646, 93.371 161.055, 97.376 162.463 C 99.782 163.310, 100.478 163.127, 101.995 161.255 C 103.572 159.306, 103.748 157.177, 103.500 142.987 C 103.281 130.496, 103.521 126.622, 104.577 125.566 C 105.504 124.639, 110.237 123.978, 119.503 123.482 C 131.940 122.816, 133.244 122.911, 135.135 124.622 C 137.574 126.830, 137.289 132.103, 134.499 136.362 C 132.990 138.665, 132.095 139, 127.456 139 C 122.415 139, 119 140.625, 119 143.024 C 119 145.875, 122.048 149.487, 126.926 152.418 C 136.474 158.154, 139.481 158.207, 142.866 152.698 C 147.699 144.831, 151.891 123.037, 149.767 116.816 C 148.048 111.781, 142.680 109.780, 136.325 111.805 C 134.579 112.362, 132.854 112.521, 132.492 112.159 C 132.131 111.797, 126.230 111.461, 119.379 111.413 C 111.363 111.356, 106.510 110.910, 105.762 110.162 C 104.879 109.279, 104.903 109, 105.859 109 C 106.551 109, 106.840 108.550, 106.500 108 C 106.160 107.450, 106.471 106.967, 107.191 106.926 C 107.911 106.885, 109.400 106.705, 110.500 106.526 C 113.471 106.042, 127.653 104.804, 134.405 104.438 C 141.813 104.038, 143.271 102.682, 143.109 96.348 C 142.828 85.366, 141.336 73.109, 140.099 71.619 C 138.641 69.863, 138.959 66.560, 141.395 58.134 C 143.309 51.518, 144.285 50.299, 148.319 49.493 C 158.486 47.461, 161.431 44.832, 158.519 40.388 C 156.099 36.696, 153.505 36.226, 142.500 37.487 C 130.432 38.870, 125.477 37.807, 120.094 32.676 C 116.122 28.891, 112.652 27.725, 109.280 29.045 M 91.548 49.592 C 86.831 51.314, 86.632 51.594, 83.905 60.350 C 81.246 68.888, 81.838 69.699, 91.868 71.251 C 97.816 72.172, 99.904 72.093, 104.261 70.781 C 107.367 69.845, 113.524 69.166, 119.385 69.112 C 129.049 69.023, 132 68.179, 132 65.502 C 132 64.813, 130.889 61.738, 129.532 58.669 C 125.113 48.677, 118.756 47.286, 114.909 55.469 C 111.294 63.160, 108.184 64.265, 103.300 59.593 C 101.521 57.892, 99.488 54.734, 98.783 52.577 C 97.264 47.930, 96.717 47.704, 91.548 49.592 M 110.500 82.940 C 103.862 84.593, 103.034 85.141, 103.249 87.737 C 103.567 91.586, 106.339 92.235, 118.535 91.320 C 129.304 90.512, 129.467 90.463, 129.484 88 C 129.496 86.041, 128.743 85.230, 126 84.252 C 121.399 82.612, 114.247 82.006, 110.500 82.940 M 67.520 103.610 C 66.407 105.308, 66.031 107.144, 66.445 108.860 C 66.794 110.312, 67.137 112.063, 67.207 112.750 C 67.276 113.438, 67.821 114.052, 68.417 114.115 C 70.431 114.329, 73.497 113.798, 74 113.147 C 74.275 112.791, 75.868 112.012, 77.539 111.416 C 80.609 110.322, 85 111.344, 85 113.153 C 85 113.619, 85.477 114, 86.059 114 C 86.641 114, 86.871 113.601, 86.570 113.113 C 86.269 112.626, 86.646 111.709, 87.408 111.077 C 88.903 109.835, 88.404 105.992, 86.588 104.765 C 85.989 104.361, 83.899 104.024, 81.941 104.015 C 79.984 104.007, 77.509 103.339, 76.441 102.532 C 73.325 100.175, 69.465 100.642, 67.520 103.610" stroke="none" fill="black" fill-rule="evenodd"/>
</svg>