<svg xmlns="http://www.w3.org/2000/svg" width="256" height="256" viewBox="0 0 256 256" version="1.1">
	<path d="M 109.345 27.564 C 107.855 29.054, 107 31.084, 107 33.134 C 107 37.713, 104.914 42.892, 102.801 43.563 C 101.810 43.878, 101 44.587, 101 45.139 C 101 46.353, 99.451 44.773, 95.632 39.662 L 92.764 35.824 82.632 36.512 L 72.500 37.200 68 33.255 C 65.525 31.085, 62.517 28.790, 61.316 28.155 C 55.597 25.131, 49.912 27.937, 43.894 36.752 C 38.844 44.151, 36.462 50.478, 35.447 59.193 C 35.020 62.860, 34.111 65.495, 32.892 66.598 C 31.851 67.540, 31 68.722, 31 69.226 C 31 69.730, 30.325 70.818, 29.500 71.643 C 28.675 72.468, 28 73.561, 28 74.071 C 28 76.070, 31.005 74.782, 38.100 69.745 C 44.370 65.292, 45.958 63.546, 48.500 58.313 C 52.828 49.400, 55.397 47, 60.603 47 C 64.060 47, 65.527 47.631, 68.429 50.368 C 72.112 53.841, 72.743 56.433, 72.213 65.911 C 72.108 67.787, 72.523 69.925, 73.134 70.661 C 74.877 72.762, 80.697 72.303, 83.127 69.873 C 84.998 68.002, 85.190 66.952, 84.722 61.129 C 84.430 57.489, 84.595 53.757, 85.088 52.836 C 86.023 51.089, 90.218 49.436, 95.718 48.646 L 98.935 48.185 101.468 56.487 C 102.860 61.053, 104 65.477, 104 66.318 C 104 67.159, 105.171 69.238, 106.601 70.938 C 108.033 72.639, 108.946 74.698, 108.633 75.515 C 108.319 76.332, 108.611 77.018, 109.281 77.040 C 109.952 77.062, 109.228 77.769, 107.674 78.612 C 105.981 79.529, 102.775 80.065, 99.674 79.947 C 91.190 79.626, 90.185 79.851, 89.378 82.250 C 88.339 85.344, 88.011 87.155, 88.067 89.500 C 89.049 130.346, 89.441 136.537, 91.110 137.568 C 91.600 137.871, 92 141.445, 92 145.512 C 92 153.444, 93.289 157.639, 95.989 158.497 C 96.916 158.791, 99.779 158.100, 102.352 156.962 C 107.716 154.590, 123.966 152.898, 141.782 152.857 C 155.398 152.826, 155.254 152.956, 157.033 139 C 158.249 129.458, 158.586 104.154, 157.630 94.127 C 156.800 85.424, 149.877 80, 139.598 80 C 134.449 80, 133.770 79.697, 128.403 75 C 125.260 72.250, 122.145 70, 121.479 70 C 120.814 70, 119.034 69.028, 117.523 67.839 C 115.070 65.910, 114.825 65.178, 115.227 60.992 C 115.682 56.253, 117.967 52.158, 121.346 50.027 C 122.797 49.112, 123.920 49.209, 126.596 50.479 C 128.468 51.367, 130.025 52.410, 130.055 52.797 C 130.085 53.184, 130.237 55.300, 130.394 57.500 C 130.863 64.081, 133.354 68.699, 136.849 69.467 C 142.475 70.703, 143.879 68.949, 144.208 60.272 C 144.534 51.675, 144.044 52.244, 154.500 48.321 C 160.686 46, 161.782 42.546, 157.420 39.116 C 154.983 37.199, 153.463 37, 141.236 37 L 127.742 37 122.614 31.663 C 116.437 25.234, 112.799 24.110, 109.345 27.564 M 62.165 75.135 C 60.981 75.573, 59.088 77.409, 57.959 79.215 C 56.297 81.873, 56.011 83.542, 56.459 87.956 C 56.763 90.957, 57.347 93.736, 57.756 94.132 C 58.599 94.949, 67.787 91.263, 70.465 89.033 C 71.879 87.856, 72.113 86.600, 71.648 82.677 C 71.330 79.988, 70.590 77.211, 70.004 76.505 C 68.591 74.803, 64.837 74.146, 62.165 75.135 M 130.710 92.623 C 130.295 93.039, 126.705 93.294, 122.732 93.190 C 114.895 92.985, 104.250 94.554, 102.250 96.210 C 100.363 97.772, 100.751 101.796, 102.900 102.947 C 103.946 103.506, 109.233 103.918, 114.650 103.861 C 121.156 103.794, 125.863 104.266, 128.513 105.252 C 130.720 106.073, 134.449 107.069, 136.798 107.466 C 141.878 108.324, 144 107.009, 144 103 C 144 99.966, 141.403 93.030, 140.237 92.949 C 139.831 92.921, 137.692 92.666, 135.483 92.383 C 133.274 92.099, 131.126 92.207, 130.710 92.623 M 52.410 96.609 C 51.909 96.728, 50.271 97.096, 48.768 97.427 C 45.741 98.094, 43 102.371, 43 106.427 C 43 111.868, 54.175 115.030, 59.250 111.025 C 62.440 108.508, 62.650 106.515, 60.301 101.091 C 58.705 97.407, 55.859 95.791, 52.410 96.609 M 108.500 118.175 C 104.180 119.814, 101.247 123.681, 100.746 128.398 C 99.826 137.060, 102.582 138.096, 124.940 137.492 C 137.333 137.158, 141.729 136.699, 142.798 135.630 C 144.684 133.745, 143.469 124.469, 141.015 122.015 C 137.866 118.866, 114.085 116.057, 108.500 118.175 M 69.978 123.250 C 68.823 124.487, 67.047 127.374, 66.033 129.664 C 64.030 134.187, 61.592 136, 57.516 136 C 50.513 136, 43.902 143.134, 43.214 151.435 C 42.808 156.333, 42.951 156.771, 45.138 157.317 C 53.332 159.365, 67.046 150.336, 68.308 142.061 C 68.536 140.567, 69.935 138.968, 71.964 137.880 C 73.772 136.910, 76.094 134.730, 77.125 133.034 C 81.881 125.214, 75.850 116.959, 69.978 123.250" stroke="none" fill="black" fill-rule="evenodd"/>
</svg>