<svg xmlns="http://www.w3.org/2000/svg" width="256" height="256" viewBox="0 0 256 256" version="1.1">
	<path d="M 52.030 29.250 C 47.577 32.318, 38.544 49.904, 35.799 60.848 C 34.586 65.686, 32.716 70.373, 31.352 71.993 C 27.313 76.793, 29.067 79.177, 33.298 74.636 C 34.509 73.336, 37.750 71.126, 40.500 69.725 C 47.045 66.390, 49.542 63.925, 51.058 59.298 C 51.743 57.209, 53.414 54.038, 54.770 52.250 C 57.760 48.312, 61.251 48, 65.974 51.250 C 68.615 53.067, 69.710 54.991, 71.664 61.250 C 74.048 68.884, 74.134 69, 77.419 69 C 82.044 69, 83.393 66.930, 83.229 60.090 C 83.093 54.442, 83.160 54.294, 86.579 52.664 C 88.498 51.749, 90.615 50.986, 91.284 50.968 C 91.953 50.951, 93.753 49.834, 95.285 48.486 C 97.980 46.115, 98.019 45.938, 96.514 43.027 C 94.280 38.706, 90.698 36.640, 86.752 37.394 C 74.114 39.810, 67.985 38.806, 65.451 33.906 C 63.735 30.586, 59.353 27, 57.013 27 C 56.069 27, 53.826 28.012, 52.030 29.250 M 109.072 28.928 C 108.007 29.993, 106.840 33.014, 106.465 35.678 C 106.092 38.330, 104.944 41.972, 103.914 43.772 C 101.257 48.414, 100.748 56.360, 102.664 63.250 C 103.544 66.412, 104.654 69, 105.132 69 C 105.609 69, 106 69.675, 106 70.500 C 106 71.325, 106.505 72, 107.122 72 C 107.915 72, 107.891 72.427, 107.041 73.451 C 105.147 75.732, 98.247 76.236, 89 74.767 C 80.963 73.491, 80.010 73.543, 71.500 75.720 C 61.375 78.311, 58.426 80.645, 60.241 84.630 C 60.808 85.873, 61.997 87.182, 62.885 87.539 C 64.944 88.366, 74.029 89.988, 80.500 90.682 C 83.250 90.977, 85.725 91.563, 86 91.983 C 87.025 93.550, 95.999 93.879, 100.234 92.506 C 104.322 91.180, 112.847 89.820, 116 89.991 C 116.825 90.035, 120.747 90.246, 124.715 90.458 C 132.566 90.879, 136.388 89.718, 137.755 86.500 C 138.707 84.256, 138.704 83.971, 137.670 78.806 C 137.202 76.471, 136.228 74.890, 135.019 74.506 C 133.137 73.909, 125.193 74.481, 119.684 75.611 C 115.492 76.470, 111 74.281, 111 71.379 C 111 70.070, 111.379 69, 111.842 69 C 112.305 69, 113.516 66.251, 114.533 62.892 C 115.550 59.533, 117.229 55.708, 118.264 54.392 C 120.493 51.558, 124.814 51.180, 125.594 53.750 C 128.433 63.100, 133.184 71.817, 135.510 71.945 C 136.066 71.975, 137.753 70.857, 139.260 69.460 C 141.732 67.168, 142 66.250, 142 60.082 C 142 55.804, 142.468 52.876, 143.250 52.261 C 143.938 51.719, 146.721 50.986, 149.435 50.632 C 155.719 49.811, 159 47.695, 159 44.462 C 159 40.920, 153.680 37.721, 149 38.448 C 147.075 38.747, 141.870 39.278, 137.432 39.629 C 128.051 40.371, 122.422 38.530, 121.380 34.378 C 120.646 31.454, 115.541 27, 112.923 27 C 111.865 27, 110.132 27.868, 109.072 28.928 M 94 95.969 C 94 96.501, 94.675 96.678, 95.500 96.362 C 96.325 96.045, 97 95.609, 97 95.393 C 97 95.177, 96.325 95, 95.500 95 C 94.675 95, 94 95.436, 94 95.969 M 85.500 98.252 C 82.200 98.762, 77.828 99.876, 75.784 100.726 C 73.113 101.838, 71.005 102.041, 68.284 101.447 C 63.484 100.399, 53.591 100.324, 48.861 101.299 C 44.889 102.118, 42.546 105.762, 43.168 110.155 C 43.488 112.413, 43.834 112.502, 52.500 112.541 C 63.413 112.592, 69.655 113.658, 70.399 115.598 C 71.903 119.516, 69.632 126.268, 64.602 132.837 C 60.356 138.382, 58.299 140.087, 52.343 143 C 43.652 147.250, 41.320 149.268, 40.434 153.300 C 39.869 155.875, 40.203 156.778, 42.433 158.696 C 45.731 161.533, 47.404 161.557, 56.392 158.896 C 64.748 156.422, 65.171 156.122, 69.592 149.543 C 71.457 146.770, 74.970 141.879, 77.400 138.677 C 79.830 135.474, 82.563 130.576, 83.473 127.793 C 88.851 111.350, 89.138 111.008, 97.500 111.045 C 104.512 111.077, 105.108 112.188, 105.436 125.814 C 105.761 139.324, 107.163 143.542, 113.566 150.263 C 117.839 154.748, 120.401 156.112, 128.947 158.450 C 135.863 160.342, 142.624 160.089, 151 157.622 C 155.783 156.214, 157.987 153.480, 157.950 149 C 157.916 144.919, 155.210 134.781, 153.770 133.342 C 151.642 131.213, 148.393 134.138, 147.638 138.864 C 147.114 142.139, 146.478 142.986, 143.855 143.901 C 135.878 146.682, 126.215 144.337, 121.059 138.370 C 119.006 135.994, 118.549 134.238, 118.186 127.328 C 117.570 115.582, 118.003 114.492, 124.097 112.468 C 128.955 110.854, 129.992 110.837, 143 112.151 C 143.825 112.234, 144.725 112.638, 145 113.048 C 145.515 113.816, 148.346 114.318, 151.009 114.115 C 153.152 113.952, 154.974 110.617, 154.309 108.075 C 152.864 102.547, 134.278 98.077, 117 99.102 C 106.148 99.746, 97.905 99.458, 97.184 98.409 C 96.307 97.135, 93.004 97.091, 85.500 98.252" stroke="none" fill="black" fill-rule="evenodd"/>
</svg>