<svg xmlns="http://www.w3.org/2000/svg" width="256" height="256" viewBox="0 0 256 256" version="1.1">
	<path d="M 108.782 28.750 C 107.942 29.712, 106.694 32.896, 106.009 35.825 C 105.080 39.803, 104.155 41.428, 102.357 42.247 C 100.243 43.210, 99.520 42.928, 96.416 39.922 C 93.018 36.633, 92.641 36.517, 86.691 36.944 C 83.286 37.188, 77.459 37.413, 73.741 37.444 C 67.028 37.500, 66.957 37.472, 63.241 33.277 C 58.685 28.133, 55.613 27.268, 51.321 29.921 C 48.223 31.834, 41.685 40.717, 38.069 47.923 C 36.378 51.295, 34.636 63.302, 35.686 64.352 C 36.961 65.628, 42.441 62.303, 46.493 57.796 C 48.972 55.039, 51 52.453, 51 52.049 C 51 51.645, 52.501 50.507, 54.335 49.519 C 58.680 47.179, 66.228 48.138, 69.542 51.451 C 71.556 53.465, 71.772 54.451, 71.329 59.621 C 70.740 66.503, 68.615 69, 63.344 69 C 58.553 69, 55.472 72.352, 54.553 78.563 C 53.584 85.113, 51.764 87, 46.416 87 C 41.949 87, 39.613 88.494, 38.475 92.078 C 37.568 94.936, 40.230 97.584, 45.908 99.470 C 52.786 101.754, 54.516 105.160, 54.438 116.259 C 54.362 127.148, 52.820 129.736, 45.073 131.982 C 37.139 134.281, 30.807 142.561, 35.582 144.393 C 38.564 145.538, 43.556 144.999, 46.027 143.267 C 47.440 142.277, 51.362 141.271, 55.172 140.921 C 60.377 140.443, 62.538 139.725, 64.999 137.654 C 67.612 135.456, 69.140 135, 73.902 135 C 78.619 135, 80.042 134.584, 81.826 132.686 C 87.191 126.975, 82.313 120.879, 73.088 121.766 L 68.215 122.234 67.718 118.367 C 66.554 109.321, 66.888 102.781, 68.611 100.878 C 70.403 98.898, 73.951 98.392, 75.550 99.889 C 77.527 101.740, 88.298 104.125, 91.880 103.506 C 96.243 102.752, 97.733 101.649, 101 96.757 C 102.375 94.698, 104.025 93.011, 104.667 93.007 C 105.308 93.003, 106.021 92.438, 106.250 91.750 C 106.554 90.839, 109.086 90.593, 115.583 90.844 C 120.488 91.034, 125.625 91.223, 127 91.264 C 128.375 91.305, 132.730 91.065, 136.677 90.730 C 141.709 90.302, 144.153 90.480, 144.854 91.324 C 145.443 92.033, 145.747 98.267, 145.594 106.514 C 145.397 117.218, 144.946 121.248, 143.675 123.687 C 142.762 125.439, 141.614 127.121, 141.124 127.423 C 140.634 127.726, 139.931 130.342, 139.560 133.237 C 138.768 139.429, 137.710 141.079, 133 143.467 C 125.219 147.411, 124.673 150.644, 130.785 156.580 C 135.577 161.233, 140.206 161.288, 145.353 156.750 C 148.449 154.021, 149.202 152.538, 150.051 147.500 C 150.607 144.200, 151.579 140.375, 152.213 139 C 154.970 133.012, 156.116 129.033, 157.108 122 C 158.733 110.478, 159.553 95.299, 159 87.008 C 158.524 79.880, 158.355 79.446, 155.500 78.055 C 152.130 76.412, 133.432 76.078, 121.695 77.449 C 115.397 78.186, 114.707 78.074, 112.445 75.948 C 109.123 72.828, 109.176 67.075, 112.587 60.492 C 117.004 51.967, 122.079 49.231, 127.850 52.265 C 129.891 53.337, 130.220 54.296, 130.350 59.546 C 130.546 67.437, 132.739 71, 137.402 71 C 142.048 71, 143.712 67.085, 142.324 59.424 C 141.109 52.720, 142.179 51.443, 149.866 50.423 C 156.821 49.501, 160.588 46.480, 159.616 42.605 C 158.861 39.599, 153.163 36.496, 150.151 37.452 C 149.215 37.749, 144.861 38.449, 140.475 39.007 C 130.513 40.274, 122.362 38.289, 121.374 34.355 C 120.604 31.287, 115.477 27, 112.578 27 C 111.331 27, 109.622 27.788, 108.782 28.750 M 86.655 52.829 C 85.745 53.835, 85 55.732, 85 57.045 C 85 60.352, 81.907 68.247, 80.042 69.703 C 79.194 70.365, 76.662 71.193, 74.415 71.542 C 69.294 72.339, 68.658 72.761, 66.640 76.700 C 64.231 81.401, 64.572 84.719, 67.750 87.516 C 70.128 89.610, 71.515 89.941, 78.010 89.968 C 84.627 89.996, 85.836 89.707, 88.173 87.540 C 89.633 86.187, 91.754 82.600, 92.888 79.569 C 94.022 76.538, 96.312 71.646, 97.975 68.698 C 101.190 63.002, 101.653 59.848, 99.937 55.335 C 98.561 51.715, 97.373 51.034, 92.405 51.015 C 89.693 51.005, 87.751 51.618, 86.655 52.829 M 107.033 102.781 C 103.631 104.429, 102.846 107.360, 104.751 111.302 C 106.562 115.050, 109.545 116.012, 114.485 114.442 C 116.693 113.741, 119.664 112.914, 121.088 112.605 C 127.150 111.289, 131.186 105.009, 127.750 102.236 C 125.870 100.719, 110.453 101.124, 107.033 102.781 M 104.223 122.557 C 101.322 124.588, 101.397 128.085, 104.401 130.907 C 106.113 132.515, 108.768 133.417, 113.651 134.050 C 117.418 134.538, 122.072 135.402, 123.993 135.969 C 125.915 136.536, 128.087 137, 128.820 137 C 131.022 137, 136.063 131.329, 135.399 129.599 C 134.352 126.869, 128.500 124.002, 123.882 123.956 C 121.472 123.932, 117.700 123.264, 115.500 122.471 C 110.313 120.602, 106.977 120.628, 104.223 122.557" stroke="none" fill="black" fill-rule="evenodd"/>
</svg>