<svg xmlns="http://www.w3.org/2000/svg" width="256" height="256" viewBox="0 0 256 256" version="1.1">
	<path d="M 110 27.964 C 107.396 28.607, 105.168 33.106, 105.056 37.945 C 104.992 40.755, 100.405 46, 98.014 46 C 97.077 46, 95.868 44.523, 95.127 42.475 C 93.119 36.921, 90.257 35.614, 82.248 36.590 C 75.976 37.354, 74.168 37.431, 69.859 37.119 C 68.956 37.054, 66.040 35.200, 63.377 33 C 59.647 29.917, 57.683 29, 54.815 29 C 48.541 29, 46.250 30.773, 41.339 39.429 C 35.655 49.447, 34.884 54.241, 38.048 59.872 C 40.090 63.505, 40.208 64.361, 39.156 67.875 C 38.410 70.364, 38.303 72.671, 38.864 74.155 C 40.600 78.748, 41.489 95.921, 41.494 125 C 41.499 151.769, 41.667 154.746, 43.303 157.155 C 45.710 160.700, 49.632 161.642, 52.228 159.299 C 54.003 157.697, 54.136 156.790, 53.449 151 C 52.514 143.126, 52.513 137.871, 53.441 123.500 C 54.241 111.120, 55.085 108.072, 58.279 106.014 C 61.851 103.712, 84 103.814, 84 106.132 C 84 106.609, 82.647 107, 80.993 107 C 78.286 107, 73.534 110.690, 73.485 112.830 C 73.476 113.199, 73.063 114.143, 72.566 114.928 C 71.112 117.225, 71.272 141.668, 72.750 143.149 C 73.438 143.837, 74 145.221, 74 146.225 C 74 149.597, 78.598 150.318, 88.500 148.498 C 93.450 147.588, 101.415 146.879, 106.199 146.923 C 113.929 146.995, 119.853 145.785, 120.078 144.089 C 120.597 140.185, 120.700 115.333, 120.201 114.550 C 119.832 113.973, 119.524 113.126, 119.515 112.669 C 119.507 112.212, 118.375 111.215, 117 110.454 C 115.625 109.693, 115.118 109.055, 115.872 109.035 C 116.917 109.008, 116.975 108.675, 116.114 107.637 C 115.203 106.539, 115.437 106.361, 117.316 106.720 C 118.599 106.965, 122.316 106.629, 125.575 105.971 C 137.101 103.647, 136.730 103.639, 139.350 106.260 C 141.056 107.965, 141.732 109.621, 141.536 111.614 C 138.545 142.058, 138.030 143.638, 130.510 145.441 C 124.507 146.881, 125.191 151.153, 132.194 155.954 C 137.973 159.917, 139.447 160.021, 144.417 156.819 C 148.406 154.249, 148.825 153.168, 151.897 137.500 C 153.482 129.413, 153.751 125.013, 153.304 114.500 C 153 107.350, 152.854 94.906, 152.980 86.847 L 153.208 72.194 148.157 68.347 C 142.315 63.898, 141.586 62.410, 142.525 56.852 C 143.408 51.626, 145.725 49.383, 151.144 48.510 C 159.193 47.213, 161.786 43.995, 158.529 39.345 C 156.522 36.480, 153.596 36.109, 143.984 37.502 C 139.099 38.211, 134.107 38.367, 131.641 37.889 C 129.363 37.448, 127.219 37.068, 126.876 37.044 C 126.533 37.020, 124.292 35.208, 121.896 33.018 C 116.942 28.489, 113.607 27.072, 110 27.964 M 54.134 48.618 C 51.813 50.245, 45 60.099, 45 61.831 C 45 62.977, 49.637 64.850, 53 65.063 C 59.888 65.499, 66.816 64.855, 68.503 63.621 C 70.222 62.365, 70.274 61.858, 69.094 57.921 C 67.540 52.734, 62.147 47, 58.823 47 C 57.515 47, 55.405 47.728, 54.134 48.618 M 93.500 48.663 C 88.216 49.802, 84.023 52.432, 82.553 55.529 C 79.738 61.462, 80.395 63.366, 86.500 66.962 C 88.700 68.258, 91.690 70.411, 93.145 71.746 C 95.431 73.844, 95.673 74.604, 94.925 77.337 C 94.448 79.077, 93.849 84.325, 93.593 89 C 93.337 93.675, 92.466 99.299, 91.658 101.497 C 89.916 106.235, 90.222 107, 93.859 107 C 95.367 107, 97.093 107.493, 97.695 108.095 C 98.489 108.889, 100.376 108.836, 104.546 107.902 C 109.402 106.815, 109.977 106.469, 108.222 105.686 C 105.373 104.415, 101.721 95.604, 101.440 89.322 C 101.312 86.474, 100.888 81.822, 100.498 78.983 C 99.843 74.225, 100.036 73.478, 102.966 69.397 L 106.145 64.971 102.059 60.330 C 99.406 57.316, 97.758 54.341, 97.359 51.844 C 97.021 49.730, 96.464 48.052, 96.122 48.116 C 95.780 48.180, 94.600 48.426, 93.500 48.663 M 116.675 51.122 C 114.727 52.255, 111 60.004, 111 62.922 C 111 65.746, 115.466 67.221, 120.175 65.953 C 129.381 63.474, 130.789 61.361, 127.490 54.980 C 125.100 50.358, 120.692 48.786, 116.675 51.122 M 64.500 76 C 63.400 76.473, 61.263 76.891, 59.750 76.930 C 57.545 76.986, 57 77.469, 57 79.366 C 57 81.581, 57.254 81.685, 61 81 C 63.200 80.598, 65 80.658, 65 81.134 C 65 81.610, 65.675 82, 66.500 82 C 67.325 82, 68 81.586, 68 81.079 C 68 80.573, 69.345 79.864, 70.989 79.503 C 75.052 78.610, 75.658 77.201, 72.495 75.998 C 69.401 74.822, 67.241 74.822, 64.500 76 M 129.750 76.162 C 126.106 77.493, 126.276 78.670, 130.250 79.609 C 133.983 80.491, 135.950 80.262, 137.818 78.726 C 138.871 77.860, 138.670 77.385, 136.818 76.357 C 134.095 74.846, 133.405 74.827, 129.750 76.162 M 117 78.031 C 117 78.599, 118.575 78.957, 120.500 78.827 C 122.425 78.697, 124 78.233, 124 77.796 C 124 77.358, 122.425 77, 120.500 77 C 118.575 77, 117 77.464, 117 78.031 M 65.500 88 C 65.160 88.550, 63.109 89, 60.941 89 C 58.773 89, 57 89.450, 57 90 C 57 90.550, 57.693 91, 58.540 91 C 59.387 91, 61.844 91.900, 64 93 C 67.890 94.984, 74.580 95.645, 76.500 94.235 C 77.050 93.831, 77.628 92.563, 77.784 91.419 C 78.009 89.771, 77.256 89.094, 74.168 88.169 C 69.387 86.736, 66.318 86.676, 65.500 88 M 115.215 88.241 C 113.387 90.444, 115.277 92.095, 118.816 91.387 C 122.213 90.707, 123.203 89, 120.200 89 C 119.210 89, 117.931 88.531, 117.358 87.958 C 116.634 87.234, 115.978 87.321, 115.215 88.241 M 130.748 88.845 L 127.005 90.270 129.155 92.135 C 130.338 93.161, 132.760 94, 134.536 94 C 137.117 94, 137.856 93.535, 138.208 91.691 C 138.859 88.289, 135.538 87.022, 130.748 88.845 M 88.430 117.886 C 88.731 118.374, 88.083 119.007, 86.989 119.293 C 84.192 120.024, 84.517 121.559, 87.750 122.888 C 89.543 123.625, 91.574 123.708, 93.584 123.127 C 95.487 122.577, 97.338 122.610, 98.417 123.213 C 100.313 124.275, 106.594 123.466, 107.471 122.048 C 107.768 121.566, 106.659 120.574, 105.006 119.842 C 103.353 119.110, 102 118.172, 102 117.756 C 102 117.340, 100.875 117, 99.500 117 C 98.125 117, 97 117.466, 97 118.035 C 97 118.749, 96.399 118.749, 95.066 118.035 C 92.704 116.771, 87.671 116.658, 88.430 117.886 M 87.250 132.706 C 81.741 133.767, 86.541 137, 93.625 137 C 96.520 137, 96.799 134.498, 94.066 133.035 C 92.096 131.981, 91.230 131.939, 87.250 132.706 M 97 135.021 C 97 137.257, 101.003 139.596, 103.313 138.710 C 104.251 138.350, 104.581 137.258, 104.260 135.579 C 103.846 133.412, 103.226 133, 100.383 133 C 97.655 133, 97 133.391, 97 135.021" stroke="none" fill="black" fill-rule="evenodd"/>
</svg>