<svg xmlns="http://www.w3.org/2000/svg" width="256" height="256" viewBox="0 0 256 256" version="1.1">
	<path d="M 55.043 26.764 C 53.382 28.109, 52.609 30.354, 51.784 36.235 C 51.056 41.420, 50.051 44.642, 48.711 46.080 L 46.719 48.218 45.066 44.643 C 41.037 35.931, 35.006 33.348, 32.529 39.275 C 30.952 43.051, 31.535 46.640, 34.690 52.567 C 37.333 57.534, 38.528 58.569, 42.941 59.708 C 45.226 60.298, 46.963 61.637, 48.112 63.694 C 49.781 66.681, 49.770 66.870, 47.803 68.981 C 46.578 70.296, 45.013 70.975, 43.888 70.681 C 40.463 69.785, 35.686 74.077, 34.183 79.399 C 32.895 83.959, 32.938 84.382, 34.879 86.324 C 36.814 88.258, 37.278 88.307, 42.077 87.077 C 46.845 85.855, 47.348 85.903, 49.211 87.766 C 50.835 89.391, 51.087 90.525, 50.541 93.755 C 49.807 98.102, 47.238 100, 42.089 100 C 39.312 100, 34 104.143, 34 106.310 C 34 106.880, 31.975 111.537, 29.500 116.659 C 27.025 121.781, 25 126.907, 25 128.051 C 25 130.817, 26.571 133.621, 28.545 134.379 C 32.056 135.726, 38.570 130.311, 40.050 124.815 C 40.615 122.717, 41.510 121, 42.039 121 C 42.567 121, 43 120.319, 43 119.486 C 43 116.778, 45.223 114.246, 47.157 114.751 C 48.170 115.016, 49.037 115.518, 49.081 115.867 C 49.126 116.215, 49.370 117.850, 49.624 119.500 C 49.879 121.150, 50.179 130.004, 50.293 139.176 C 50.482 154.368, 50.687 156.104, 52.599 158.676 C 55.429 162.484, 60.666 163.094, 63.078 159.897 C 64.570 157.919, 64.718 155.654, 64.279 141.570 C 64.004 132.731, 63.224 122.468, 62.546 118.763 C 61.446 112.753, 61.494 111.863, 62.985 110.513 C 63.905 109.681, 65.258 109, 65.993 109 C 68.998 109, 74.684 112.383, 76.242 115.099 C 78.157 118.436, 81 118.975, 81 116 C 81 114.900, 80.924 113.888, 80.831 113.750 C 80.738 113.612, 81.217 112.464, 81.895 111.197 C 82.934 109.254, 82.790 108.198, 80.973 104.443 C 78.664 99.675, 77.686 99.190, 69.524 98.761 C 65.411 98.545, 64.342 98.085, 63.360 96.107 C 62.494 94.362, 62.464 93.076, 63.247 91.357 C 64.217 89.229, 64.960 89, 70.911 88.996 C 75.731 88.994, 78.379 88.457, 80.774 86.996 C 84.914 84.472, 88.001 84.473, 92.500 87 C 94.458 88.100, 96.691 89, 97.461 89 C 99.079 89, 98.334 92.519, 95.593 97.820 C 94.336 100.250, 93.857 104.460, 93.609 115.262 C 93.428 123.093, 92.700 134.799, 91.991 141.275 C 90.515 154.762, 91.193 158, 95.495 158 C 98.218 158, 99.773 155.432, 101.891 147.440 C 102.482 145.207, 104.135 142.282, 105.564 140.940 C 108.092 138.565, 108.583 138.500, 124.030 138.500 C 134.085 138.500, 140.296 138.897, 140.983 139.583 C 142.627 141.226, 141.103 143.940, 138.140 144.647 C 136.688 144.993, 134.938 145.719, 134.250 146.260 C 132.460 147.671, 132.768 152.142, 134.825 154.603 C 138.883 159.458, 144.885 160.317, 150.948 156.909 C 154.040 155.172, 154.898 153.946, 156.025 149.659 C 156.771 146.822, 157.280 143.600, 157.156 142.500 C 157.031 141.400, 157.368 137.419, 157.903 133.653 C 158.540 129.171, 158.536 125.909, 157.889 124.209 C 157.346 122.780, 156.774 116.827, 156.617 110.979 C 156.461 105.131, 156.021 99.843, 155.640 99.227 C 154.323 97.096, 145.493 91.653, 143.500 91.744 C 137.395 92.022, 128.245 91.988, 126.563 91.681 C 125.498 91.487, 122.573 91.716, 120.063 92.190 C 115.279 93.094, 107 91.462, 107 89.615 C 107 89.093, 107.282 88.949, 107.627 89.294 C 107.972 89.639, 109.802 89.274, 111.694 88.483 C 114.234 87.422, 116.654 87.254, 120.944 87.841 C 124.139 88.278, 127.818 88.241, 129.120 87.760 C 130.551 87.230, 133.144 87.302, 135.686 87.942 C 137.996 88.524, 144.117 89, 149.288 89 C 157.127 89, 158.965 88.696, 160.345 87.171 C 162.501 84.789, 162.432 83.416, 159.983 79.976 C 157.373 76.311, 153.079 74.960, 143.913 74.922 C 134.480 74.883, 133 74.425, 133 71.545 C 133 69.354, 133.558 69.157, 143.024 67.997 C 151.255 66.989, 153.312 66.392, 154.524 64.662 C 155.851 62.768, 155.809 62.364, 154.102 60.658 C 151.490 58.045, 142.684 55.665, 133.750 55.157 C 132.145 55.065, 131 54.422, 131 53.611 C 131 52.542, 133.757 52.055, 142.925 51.504 C 153.587 50.864, 155.080 50.543, 157.020 48.479 C 159.645 45.685, 159.045 42.915, 155.281 40.449 C 153.033 38.975, 151.126 38.811, 142.459 39.341 C 131.222 40.029, 129.988 39.523, 128.594 33.664 C 128.222 32.104, 126.791 29.700, 125.413 28.322 C 123.127 26.036, 122.715 25.943, 120.704 27.262 C 119.492 28.057, 117.800 30.874, 116.944 33.523 C 116.088 36.171, 114.621 38.607, 113.684 38.936 C 112.747 39.264, 108.357 39.104, 103.928 38.579 C 98.200 37.901, 94.216 37.968, 90.127 38.813 C 86.966 39.466, 82.695 40, 80.636 40 C 78.362 40, 74.827 41.149, 71.634 42.925 C 68.601 44.613, 65.854 45.528, 65.141 45.087 C 64.343 44.594, 63.901 41.702, 63.891 36.912 C 63.870 26.082, 60.566 22.292, 55.043 26.764 M 83.661 51.822 C 82.747 52.832, 82 54.004, 82 54.428 C 82 54.851, 81.247 56.786, 80.326 58.726 L 78.651 62.255 71.826 61.620 C 65.448 61.028, 65 61.118, 65 62.993 C 65 64.097, 64.520 65, 63.934 65 C 63.347 65, 63.010 66.237, 63.184 67.750 C 63.474 70.270, 63.947 70.555, 68.843 71.152 C 74.510 71.844, 79.315 75.221, 81.076 79.750 C 82.258 82.790, 84.582 82.584, 86.704 79.250 C 87.666 77.737, 88.914 76.172, 89.477 75.771 C 90.040 75.370, 95.473 75.321, 101.552 75.662 C 113.859 76.353, 117 75.521, 117 71.572 C 117 68.324, 115.069 67.847, 104.987 68.609 C 96.942 69.216, 96.102 69.102, 94.133 67.133 C 90.653 63.653, 91.406 61.352, 96.959 58.506 C 98.862 57.530, 103.759 56.358, 107.842 55.900 C 116.124 54.971, 117.021 54.554, 114.940 52.599 C 113.946 51.664, 109.142 51.050, 99.411 50.616 C 86.546 50.041, 85.178 50.146, 83.661 51.822 M 111.078 106.658 C 108.792 108.259, 108.776 108.363, 110.595 109.693 C 112.068 110.770, 115.205 110.940, 124.989 110.475 C 139.843 109.768, 142 109.402, 142 107.588 C 142 105.390, 139.609 105, 126.141 105 C 115.937 105, 112.980 105.325, 111.078 106.658 M 109.250 122.220 C 106.349 123.620, 106.365 125.803, 109.283 126.535 C 111.392 127.064, 124.939 125.395, 125.839 124.494 C 126.057 124.276, 124.945 123.830, 123.368 123.503 C 121.791 123.176, 118.873 122.480, 116.884 121.955 C 112.556 120.812, 112.140 120.827, 109.250 122.220 M 131.500 122.529 C 129.300 123.321, 127.275 124.022, 127 124.085 C 125.147 124.510, 132.535 125.819, 137.250 125.900 C 142.743 125.996, 143 125.888, 143 123.500 C 143 121.270, 142.595 121.005, 139.250 121.044 C 137.188 121.068, 133.700 121.736, 131.500 122.529" stroke="none" fill="black" fill-rule="evenodd"/>
</svg>