<svg xmlns="http://www.w3.org/2000/svg" width="256" height="256" viewBox="0 0 256 256" version="1.1">
	<path d="M 56.492 26.009 C 55.084 27.565, 54.479 30.665, 53.808 39.759 C 52.795 53.488, 52.664 54, 50.154 54 C 47.474 54, 46.195 52.102, 45.405 46.950 C 44.444 40.689, 42.401 37.139, 39.313 36.364 C 33.640 34.940, 31.293 42.871, 34.696 51.967 C 38.332 61.686, 40.425 64.372, 45.933 66.392 C 52.610 68.840, 52.635 71.447, 45.982 71.609 C 38.395 71.793, 36.362 73.176, 34.364 79.516 C 32.019 86.954, 32.965 88.548, 39.617 88.368 C 42.303 88.295, 45.720 87.909, 47.212 87.509 C 51.261 86.423, 53.259 88.892, 52.665 94.247 C 52.406 96.586, 51.877 99.287, 51.490 100.250 C 50.735 102.128, 49 102.651, 49 101 C 49 100.450, 48.325 100, 47.500 100 C 46.675 100, 45.993 100.563, 45.985 101.250 C 45.974 102.108, 45.739 102.158, 45.235 101.407 C 44.246 99.936, 38.401 102.353, 37.187 104.735 C 36.693 105.706, 35.769 108.629, 35.135 111.231 C 34.500 113.833, 33.089 117.433, 32 119.231 C 26.251 128.717, 25.916 131.291, 29.840 135.816 C 33.894 140.490, 39.319 137.524, 42.307 129 C 47.229 114.960, 48.324 113, 51.247 113 C 52.211 113, 52.595 114.150, 52.502 116.750 C 52.427 118.813, 52.807 122.075, 53.345 124 C 53.883 125.925, 54.363 134.539, 54.411 143.143 C 54.490 156.995, 54.716 159.025, 56.387 160.873 C 58.451 163.157, 64.649 164.771, 65.990 163.375 C 67.132 162.187, 67.465 135.878, 66.498 123.362 C 65.582 111.512, 65.991 110.918, 74.604 111.591 C 78.810 111.919, 80.030 111.624, 81.587 109.904 C 83.380 107.923, 83.386 107.755, 81.716 106.534 C 80.749 105.827, 78.280 104.975, 76.229 104.640 C 70.953 103.778, 66 99.276, 66 95.342 C 66 91.141, 67.908 89.855, 75.272 89.093 C 78.712 88.737, 82.633 87.670, 83.986 86.723 C 89.257 83.031, 95.762 85.866, 98.664 93.119 C 99.520 95.258, 101.418 98.018, 102.883 99.254 C 109.274 104.646, 110.623 110.394, 107.113 117.278 C 106.076 119.313, 104.913 122.671, 104.529 124.739 C 103.754 128.921, 100.923 134.147, 97.282 138.116 C 92.573 143.250, 93.825 152, 99.269 152 C 102.415 152, 116.256 137.290, 117.955 132.141 C 118.745 129.743, 120.610 126.249, 122.098 124.376 C 124.501 121.353, 124.688 120.594, 123.769 117.600 C 121.485 110.159, 125.096 103.726, 132.840 101.439 C 137.152 100.166, 137.987 100.530, 139.319 104.263 C 140.221 106.793, 138.399 119.805, 135.830 129.179 C 133.848 136.409, 133.249 137.449, 129.814 139.617 C 126.577 141.661, 126 142.556, 126 145.535 C 126 148.258, 126.925 150.049, 130.127 153.522 C 134.876 158.674, 137.984 159.246, 142.210 155.745 C 144.501 153.846, 145.318 151.649, 147.503 141.500 C 148.924 134.900, 150.294 127.250, 150.547 124.500 C 150.800 121.750, 151.748 112.858, 152.653 104.739 L 154.299 89.979 158.650 85.969 C 165.181 79.949, 164.978 78.654, 153.887 55.500 C 151.380 50.267, 148.016 45.362, 144.161 41.321 C 137.838 34.689, 135.408 33.679, 125.500 33.560 C 120.648 33.502, 120.491 33.590, 120.203 36.535 C 119.668 41.993, 121.277 44.318, 127.112 46.517 C 132.197 48.433, 132.908 49.157, 139.750 59.375 C 146.629 69.649, 146.999 70.491, 146.985 75.851 C 146.976 78.958, 146.639 81.965, 146.235 82.533 C 145.831 83.101, 143.250 84.934, 140.500 86.606 C 135.543 89.620, 135.383 89.645, 122 89.510 C 106.501 89.354, 101 87.851, 101 83.774 C 101 82.493, 101.780 80.332, 102.734 78.973 C 105.681 74.769, 108 69.678, 108 67.411 C 108 66.219, 108.675 63.629, 109.500 61.654 C 111.771 56.218, 111.484 46.896, 108.961 44.189 C 107.840 42.985, 106.040 42, 104.961 42 C 102.657 42, 99 45.358, 99 47.474 C 99 48.285, 97.464 51.997, 95.586 55.724 C 93.709 59.451, 91.417 64.168, 90.493 66.206 C 88.828 69.880, 82.541 74.684, 81.532 73.052 C 80.974 72.148, 77.305 72.283, 69.959 73.477 C 65.795 74.153, 65.328 74.016, 64.328 71.820 C 63.440 69.872, 63.593 68.986, 65.146 67.069 C 66.823 64.996, 67.825 64.733, 73.426 64.887 C 79.720 65.060, 79.826 65.018, 81.996 61.506 C 86.234 54.649, 88.481 40.881, 85.800 38.200 C 84.076 36.476, 79.855 36.761, 77.335 38.772 C 74.879 40.733, 71 47.320, 71 49.530 C 71 50.339, 70.427 51, 69.727 51 C 68.036 51, 66 41.957, 66 34.443 C 66 27.614, 64.131 24, 60.598 24 C 59.340 24, 57.492 24.904, 56.492 26.009" stroke="none" fill="black" fill-rule="evenodd"/>
</svg>