<svg xmlns="http://www.w3.org/2000/svg" width="256" height="256" viewBox="0 0 256 256" version="1.1">
	<path d="M 95 25.765 C 92.136 26.712, 89.986 29.338, 88.962 33.142 C 87.554 38.371, 85.253 39.358, 76.093 38.662 C 71.917 38.344, 64.581 37.778, 59.791 37.404 C 47.349 36.431, 41.986 39.113, 43.591 45.506 C 44.554 49.343, 46.827 49.999, 59.184 50.007 C 70.677 50.014, 88.583 52.138, 90.009 53.663 C 91.502 55.260, 89.161 58.696, 85.346 60.506 C 81.082 62.530, 69.862 63.011, 54.915 61.811 C 47.483 61.214, 45.911 61.376, 43.219 63.013 C 38.920 65.627, 37.485 68.284, 35.555 77.194 C 33.690 85.805, 34.230 91.517, 37.051 93.027 C 39.841 94.520, 45.292 94.184, 47.899 92.359 C 50.012 90.878, 50.182 90.202, 49.625 85.465 C 49.121 81.179, 49.358 79.779, 50.914 77.856 C 52.659 75.699, 53.707 75.471, 63.311 75.162 C 74.548 74.800, 78 75.708, 78 79.025 C 78 80.900, 71.699 86.244, 66 89.202 C 62.727 90.901, 61.447 92.204, 61.476 93.807 C 61.503 95.297, 65.893 98.944, 67.699 98.978 C 68.359 98.990, 70.083 100.553, 71.531 102.452 C 73.999 105.687, 74.081 106.133, 72.845 109.553 C 71.340 113.713, 68.298 116.121, 62.413 117.810 C 58.348 118.976, 55.813 121.053, 54.745 124.091 C 53.973 126.285, 55.104 127.801, 59.003 129.797 C 64.072 132.391, 64.388 134.792, 60.387 140.307 C 57.655 144.071, 56.395 145, 54.025 145 C 50.337 145, 48.449 147.864, 50.389 150.517 C 51.486 152.018, 52.639 152.214, 57.453 151.717 C 60.618 151.390, 63.947 150.455, 64.853 149.639 C 66.662 148.009, 74.549 145.038, 77.129 145.015 C 79.448 144.994, 81.466 139.426, 81.484 133 L 81.500 127.500 85.565 127.202 C 88.872 126.959, 90.131 127.404, 92.315 129.588 C 94.674 131.947, 95 133.057, 95 138.734 L 95 145.196 90.009 149.848 C 85.325 154.213, 85.095 154.654, 86.283 157 C 88.165 160.719, 93.838 163.442, 98.047 162.645 C 103.698 161.576, 107.048 158.195, 107.611 152.994 C 108.235 147.232, 110.079 141, 111.160 141 C 112.346 141, 112.203 137.539, 110.897 134.674 C 109.310 131.190, 111.185 128.244, 115.505 127.433 C 117.419 127.074, 119.759 127.077, 120.706 127.441 C 122.144 127.993, 121.694 128.795, 117.964 132.328 C 113.212 136.827, 111.849 141, 115.130 141 C 116.159 141, 117 141.388, 117 141.863 C 117 142.337, 120.037 144.200, 123.750 146.002 C 127.463 147.804, 131.324 149.994, 132.331 150.867 C 136.086 154.126, 141.160 155.814, 144.405 154.884 C 146.100 154.398, 147.586 154, 147.708 154 C 147.830 154, 148.386 153.147, 148.944 152.104 C 149.774 150.554, 149.279 149.480, 146.230 146.217 C 144.178 144.023, 140.475 140.979, 138 139.454 C 135.525 137.930, 132.838 135.741, 132.030 134.591 C 131.221 133.441, 129.625 131.559, 128.483 130.408 L 126.407 128.316 132.230 127.113 C 137.296 126.067, 138.262 126.119, 139.656 127.513 C 140.537 128.394, 141.912 128.864, 142.711 128.558 C 143.510 128.251, 144.352 128, 144.582 128 C 144.812 128, 144.996 126.763, 144.990 125.250 C 144.985 123.621, 143.548 120.697, 141.466 118.079 C 139.534 115.648, 137.682 112.580, 137.351 111.263 C 136.756 108.892, 130.268 104, 127.719 104 C 126.993 104, 125.089 106.072, 123.488 108.605 C 120.274 113.690, 118.432 114.731, 112.500 114.816 C 110.300 114.848, 106.286 115.371, 103.580 115.979 C 98.106 117.209, 93.439 116.586, 92.646 114.520 C 91.982 112.788, 95.222 109, 97.367 109 C 98.265 109, 99 108.550, 99 108 C 99 107.450, 100.712 107, 102.804 107 C 106.771 107, 112.999 103.650, 118.252 98.690 C 119.765 97.261, 122.584 95.342, 124.515 94.426 L 128.026 92.760 124.263 88.881 C 120.912 85.426, 119.969 85.002, 115.650 85.001 C 110.607 85, 110.494 85.078, 102.227 94.250 C 101.268 95.315, 99.207 96, 96.965 96 C 94.938 96, 91.235 96.280, 88.737 96.623 C 84.819 97.160, 84.140 96.987, 83.805 95.373 C 83.444 93.636, 89.249 87, 91.128 87 C 91.836 87, 93.518 82.844, 93.081 82.174 C 92.642 81.501, 97.615 77.777, 100.500 76.619 C 102.400 75.856, 108.832 75.446, 118.039 75.500 C 130.649 75.574, 133.103 75.857, 136.539 77.639 C 139.047 78.940, 140.683 80.575, 141 82.097 C 141.275 83.418, 142.400 86.393, 143.500 88.707 C 145.311 92.518, 145.982 93.017, 150.611 93.999 C 157.639 95.491, 161 93.992, 161 89.366 C 161 82.785, 156.913 69.665, 153.885 66.527 L 151.016 63.555 131.758 62.734 C 121.166 62.283, 110.746 61.590, 108.602 61.195 C 101.438 59.875, 101.143 54.706, 108.096 52.343 C 110.060 51.676, 118.416 51.139, 127.852 51.074 C 143.536 50.966, 147.437 50.337, 149.193 47.634 C 150.007 46.379, 148.505 44.350, 145.582 42.755 C 144.437 42.130, 139.900 41.282, 135.500 40.871 C 110.204 38.507, 105.608 37.919, 104.368 36.890 C 103.615 36.266, 103 34.539, 103 33.052 C 103 29.315, 98.011 24.771, 95 25.765" stroke="none" fill="black" fill-rule="evenodd"/>
</svg>