<svg xmlns="http://www.w3.org/2000/svg" width="256" height="256" viewBox="0 0 256 256" version="1.1">
	<path d="M 55.327 29.971 C 51.824 32.130, 50.093 34.178, 46.604 40.290 C 45.100 42.924, 42.580 46.548, 41.004 48.342 C 36.321 53.676, 36.449 58.380, 41.552 68.549 L 45.811 77.035 42.906 79.941 C 41.308 81.539, 40 83.228, 40 83.694 C 40 84.160, 37.962 85.655, 35.471 87.016 C 32.980 88.377, 29.904 91.067, 28.637 92.995 L 26.332 96.500 29.001 98.690 C 31.725 100.924, 33.523 101.524, 40.399 102.489 C 44.817 103.109, 48.997 107.125, 48.999 110.750 C 48.999 111.987, 49.450 113, 50 113 C 50.550 113, 51 114.136, 51 115.525 C 51 118.895, 47.634 120.158, 42.386 118.758 C 38.573 117.740, 32.758 118.226, 30.349 119.765 C 28.152 121.167, 28.034 127.343, 30.072 134.216 C 32.073 140.960, 34.597 144, 38.197 144 C 40.239 144, 43.102 139.019, 43.946 134 C 44.464 130.914, 44.886 130.500, 47.517 130.500 L 50.500 130.500 50.218 143.566 C 49.960 155.488, 50.107 156.787, 51.900 158.410 C 54.271 160.556, 58.662 159.895, 61.865 156.911 C 63.758 155.148, 64.013 153.763, 64.118 144.711 C 64.184 139.095, 64.176 133.988, 64.100 133.362 C 64.025 132.737, 64.409 131.053, 64.954 129.621 C 65.835 127.303, 66.209 127.138, 68.362 128.119 C 70.644 129.159, 73 132.757, 73 135.203 C 73 135.812, 74.148 137.816, 75.551 139.656 C 77.436 142.127, 78.878 143, 81.076 143 C 85.842 143, 86.766 138.748, 84.552 127 C 82.899 118.230, 82.839 111.321, 84.383 107.626 C 86.166 103.359, 86.508 98.432, 85.084 97.552 C 84.580 97.240, 84.301 95.301, 84.464 93.243 C 84.627 91.185, 84.383 88.507, 83.921 87.292 C 82.789 84.314, 76.005 81, 71.040 81 C 67.624 81, 67 81.319, 67 83.066 C 67 84.202, 66.534 86.002, 65.965 87.066 C 65.251 88.399, 65.251 89, 65.965 89 C 66.534 89, 67.003 89.563, 67.006 90.250 C 67.018 93.140, 69.226 99.139, 70.871 100.757 C 73.604 103.443, 76.724 108.282, 77.154 110.500 C 77.522 112.403, 76.076 114.163, 68.744 120.734 L 66.250 122.969 63.625 119.181 C 60.457 114.609, 60.232 109.680, 63 105.500 C 65.492 101.737, 65.570 98.316, 63.181 97.557 C 60.809 96.805, 57.624 92.434, 56.120 87.871 C 55.463 85.875, 54.067 83.466, 53.019 82.517 C 51.453 81.100, 51.324 80.454, 52.297 78.896 C 52.948 77.853, 54.581 77, 55.925 77 C 58.797 77, 67 73.231, 67 71.911 C 67 69.845, 67.212 69.403, 69.235 67.250 C 70.397 66.013, 72.058 64.984, 72.924 64.964 C 74.887 64.918, 80 58.324, 80 55.839 C 80 53.696, 76.613 50, 74.649 50 C 71.270 50, 67.308 52.339, 65.206 55.574 C 63.052 58.891, 62.626 59.088, 58.214 58.803 C 54.146 58.541, 53.329 58.109, 52.124 55.584 C 50.795 52.800, 50.874 52.550, 53.875 50.084 C 55.604 48.663, 57.014 46.999, 57.009 46.388 C 57.004 45.776, 58.360 43.563, 60.023 41.472 C 63.626 36.938, 64.546 33.888, 63.117 31.218 C 61.622 28.425, 58.616 27.944, 55.327 29.971 M 110.571 31.776 C 106.979 32.595, 104.004 37.077, 103.994 41.684 C 103.984 47.002, 101.883 52.065, 97.409 57.559 C 94.613 60.991, 91.812 66.086, 89.964 71.099 C 85.470 83.286, 85.932 85.876, 93.452 90.633 C 98.315 93.710, 99.550 96.522, 98.196 101.442 C 97.751 103.061, 97.707 106.745, 98.099 109.630 C 99.120 117.156, 99.126 130.076, 98.109 133.621 C 97.521 135.670, 97.682 137.926, 98.604 140.577 C 99.355 142.735, 99.977 145.895, 99.985 147.601 C 100.004 151.625, 101.794 156.707, 103.411 157.327 C 105.207 158.017, 106.473 156.983, 108.371 153.280 C 110.966 148.215, 112.892 147.680, 125.908 148.414 C 132.284 148.773, 142.553 149.248, 148.729 149.468 C 159.884 149.867, 159.971 149.852, 162.035 147.228 C 166.206 141.926, 162.175 135.896, 154.172 135.465 C 146.321 135.042, 143.387 134.092, 142.016 131.529 C 139.269 126.397, 143.849 121, 150.950 121 C 152.675 121, 154.876 120.124, 156.017 118.983 C 157.894 117.106, 157.928 116.761, 156.507 114.013 C 154.690 110.500, 152.198 109, 148.177 109 C 142.013 109, 137.997 102.003, 141.913 98.087 C 143.550 96.450, 145.253 96, 149.809 96 C 155.756 96, 158.240 94.879, 159.350 91.694 C 160.331 88.883, 156.112 85.394, 150.760 84.591 C 146.155 83.901, 139.997 80.545, 139.270 78.329 C 139.059 77.686, 140.198 75.691, 141.802 73.896 C 144.357 71.036, 145.541 70.548, 151.391 69.942 C 155.208 69.547, 158.814 68.573, 159.816 67.666 C 162.628 65.121, 162.451 60.360, 159.432 57.341 C 157.093 55.002, 156.288 54.794, 151.495 55.288 C 144.179 56.043, 143.260 55.092, 142.809 46.299 C 142.506 40.382, 142.013 38.643, 140.046 36.549 C 137.115 33.430, 133.977 33.323, 128.911 36.170 C 125.222 38.244, 125.145 38.389, 127.178 39.420 C 129.866 40.783, 132.722 44.707, 133.542 48.163 C 134.010 50.139, 133.606 51.394, 131.975 53.025 C 130.073 54.927, 128.961 55.165, 123.739 54.788 C 116.625 54.273, 114.043 52.067, 114.769 47.123 C 115.217 44.067, 120.451 39, 123.161 39 C 125.271 39, 119.816 34.208, 116 32.710 C 114.075 31.955, 111.632 31.534, 110.571 31.776 M 110.527 73.193 C 106.773 76.846, 106.351 77.676, 107.247 79.643 C 108.821 83.097, 113.187 84.168, 120.761 82.958 C 127.906 81.817, 131.588 78.968, 129.928 75.865 C 127.920 72.114, 122.892 69, 118.841 69 C 115.489 69, 114.133 69.684, 110.527 73.193 M 113.315 96.973 C 109.628 98.516, 108.846 101.217, 111.042 104.829 C 112.911 107.902, 113.186 108, 119.926 108 C 127.093 108, 128.723 107.159, 128.162 103.750 C 128.004 102.787, 128.385 102, 129.009 102 C 129.698 102, 129.561 101.418, 128.661 100.518 C 127.846 99.703, 127.026 98.610, 126.839 98.089 C 126.357 96.741, 115.927 95.881, 113.315 96.973 M 114.768 122.156 C 112.748 122.894, 111.752 124.205, 110.951 127.182 C 109.688 131.871, 110.224 133.965, 112.719 134.088 C 113.698 134.136, 116.975 134.329, 120 134.517 C 123.025 134.704, 126.779 134.620, 128.342 134.329 C 131.075 133.821, 131.163 133.626, 130.630 129.270 C 129.858 122.973, 127.783 120.981, 122.095 121.079 C 119.568 121.122, 116.270 121.607, 114.768 122.156" stroke="none" fill="black" fill-rule="evenodd"/>
</svg>