<svg xmlns="http://www.w3.org/2000/svg" width="256" height="256" viewBox="0 0 256 256" version="1.1">
	<path d="M 51.261 31.699 C 48.820 34.283, 45.448 38.446, 43.768 40.949 C 42.088 43.452, 39.653 46.531, 38.357 47.790 C 34.762 51.284, 35.450 59.035, 39.769 63.695 C 41.332 65.383, 42.471 68.002, 42.762 70.579 C 43.178 74.272, 42.825 75.188, 39.615 78.741 C 37.627 80.942, 36 83.138, 36 83.621 C 36 84.105, 34.488 85.707, 32.639 87.182 C 30.791 88.657, 28.342 91.451, 27.197 93.391 L 25.115 96.919 28.284 99.586 C 31.209 102.047, 31.959 102.210, 38.019 101.702 C 44.450 101.163, 44.652 101.220, 47.865 104.506 C 50.832 107.541, 51.022 108.082, 49.858 110.180 C 49.150 111.456, 48.555 113.380, 48.535 114.455 C 48.491 116.902, 45.078 117.886, 38.888 117.237 C 36.351 116.972, 32.638 117.295, 30.636 117.955 C 27.174 119.098, 27.019 119.338, 27.465 122.885 C 28.538 131.427, 30.997 139.450, 33.203 141.607 C 36.702 145.026, 39.024 144.984, 40.890 141.465 C 42.459 138.508, 42.782 137.557, 43.571 133.573 C 44.188 130.461, 45.620 129.706, 49.518 130.437 C 52.720 131.038, 53.112 131.416, 52.611 133.415 C 52.295 134.674, 51.758 137.458, 51.418 139.602 C 51.078 141.746, 50.485 144.175, 50.101 145 C 48.927 147.521, 49.669 156.176, 51.139 157.107 C 53.433 158.561, 58.660 158.096, 60.959 156.235 C 63.199 154.421, 63.359 153.124, 63.878 132.671 L 64 127.841 67.250 128.515 C 69.037 128.885, 72.099 130.271, 74.054 131.594 C 79.336 135.170, 84.862 134.403, 83.774 130.244 C 83.492 129.166, 83.647 127.596, 84.118 126.754 C 84.968 125.235, 83.962 120.825, 81.705 116.168 C 80.706 114.108, 80.045 113.892, 76.037 114.322 C 73.542 114.590, 70.237 115.134, 68.694 115.532 C 65.025 116.477, 59.328 113.498, 58.720 110.316 C 58.477 109.042, 58.609 108, 59.013 108 C 59.418 108, 61.863 105.975, 64.446 103.500 C 69.074 99.066, 71 98.037, 71 100 C 71 100.550, 71.493 101, 72.096 101 C 72.698 101, 74.395 101.857, 75.865 102.904 C 78.938 105.092, 86.778 106.523, 90.530 105.582 L 93.085 104.941 89.543 100.617 C 87.303 97.884, 85.998 95.228, 85.994 93.397 C 85.986 88.815, 84.069 83.107, 82.206 82.113 C 81.268 81.612, 78.001 80.891, 74.948 80.511 C 69.220 79.797, 67.153 80.751, 66.625 84.349 C 66.193 87.290, 63.738 89, 59.949 89 C 56.410 89, 53.172 87.137, 52.875 84.929 C 52.806 84.418, 52.666 83.438, 52.564 82.750 C 52.461 82.063, 52.781 80.957, 53.275 80.294 C 53.768 79.630, 53.932 78.700, 53.639 78.226 C 53.346 77.752, 55.566 76.119, 58.572 74.597 C 62.060 72.830, 64.610 70.722, 65.620 68.767 C 67.733 64.682, 70.621 61.903, 75.750 59.020 C 78.670 57.379, 80 55.966, 80 54.504 C 80 51.927, 76.571 48.029, 74.211 47.923 C 73.270 47.881, 71.704 47.695, 70.731 47.509 C 69.731 47.318, 66.695 49.107, 63.743 51.626 C 57.279 57.145, 54.526 57.971, 51.775 55.220 L 49.732 53.177 52.191 50.718 C 53.544 49.366, 55.233 46.851, 55.946 45.130 C 56.659 43.408, 57.577 42, 57.985 42 C 59.327 42, 64 34.439, 64 32.268 C 64 29.386, 61.408 27, 58.278 27 C 56.502 27, 54.318 28.463, 51.261 31.699 M 123.642 31.692 C 123.446 31.888, 116.267 32.053, 107.688 32.059 L 92.091 32.069 90.045 34.670 C 85.635 40.276, 88.585 44.621, 98.399 46.976 C 103.355 48.165, 104.655 48.118, 109.772 46.569 C 114.968 44.996, 116.100 44.963, 121.025 46.242 C 125.340 47.363, 127.136 47.416, 129.500 46.494 C 131.611 45.670, 135.018 45.577, 141 46.179 C 152.923 47.379, 152.812 47.390, 157.121 44.539 C 161.678 41.523, 162.270 37.884, 158.901 33.602 L 156.803 30.934 140.400 31.135 C 131.379 31.245, 123.837 31.496, 123.642 31.692 M 97.079 56.750 C 95.370 61.013, 93.036 66.374, 91.893 68.664 C 89.417 73.621, 89.786 78.867, 92.908 83.089 C 94.058 84.645, 95 86.365, 95 86.910 C 95 87.455, 95.589 88.260, 96.309 88.700 C 97.029 89.140, 98.249 91.075, 99.021 93 C 99.792 94.925, 101.414 97.578, 102.625 98.896 C 105.503 102.029, 104.740 103.641, 99.122 106.287 C 95.560 107.965, 94.959 108.553, 96.500 108.852 C 97.600 109.065, 100.651 111.039, 103.281 113.238 C 106.242 115.715, 109.254 117.331, 111.195 117.484 C 112.919 117.620, 114.931 118.552, 115.665 119.556 C 117.416 121.951, 117.482 135.365, 115.750 136.766 C 115.063 137.322, 111.350 138.040, 107.500 138.360 C 103.650 138.681, 98.971 139.141, 97.101 139.383 C 89.767 140.329, 86.824 143.961, 88.732 149.707 C 89.603 152.329, 90.174 152.570, 98.080 153.645 C 102.771 154.283, 112.036 154.568, 119 154.289 C 125.875 154.014, 137.344 154.269, 144.486 154.855 C 159.599 156.096, 162.005 155.391, 161.993 149.727 C 161.988 147.199, 161.270 146.012, 158.676 144.246 C 155.448 142.049, 140.179 138.065, 134.817 138.022 C 133.149 138.008, 131.929 137.338, 131.591 136.250 C 130.693 133.358, 130.117 125.269, 130.661 123.189 C 131.255 120.917, 134.952 119.006, 138.797 118.985 C 142.615 118.963, 149.737 116.697, 151.435 114.963 C 153.805 112.544, 154.345 108.488, 152.539 106.681 C 150.672 104.815, 144.814 103.020, 140.500 102.992 C 138.850 102.981, 136.490 102.702, 135.255 102.371 C 133.185 101.816, 133.057 101.363, 133.622 96.561 C 134.275 90.999, 132.581 86.139, 128.852 82.883 C 127.833 81.993, 127 80.554, 127 79.684 C 127 76.806, 132.178 61.532, 133.758 59.750 C 134.612 58.788, 134.903 57.993, 134.405 57.985 C 133.907 57.976, 134.175 57.533, 135 57 C 135.961 56.379, 136.059 56.025, 135.274 56.015 C 134.600 56.007, 132.615 54.425, 130.864 52.500 C 126.870 48.112, 124.166 48.072, 120.277 52.345 C 116.706 56.269, 115.552 59.275, 115.900 63.744 C 116.039 65.529, 115.517 68.261, 114.741 69.817 C 113.113 73.081, 113.201 74.472, 115.334 79.123 C 116.186 80.980, 117.396 84.484, 118.023 86.910 C 119.337 91.991, 121.306 95.393, 125.119 99.170 L 127.814 101.840 124.775 103.312 C 119.095 106.063, 111.085 101.597, 112.907 96.695 C 114.304 92.938, 113.290 90.739, 108.058 86.176 C 105.276 83.750, 103 80.930, 103 79.909 C 103 78.889, 103.852 76.129, 104.894 73.777 C 110.784 60.475, 111.201 59.194, 110.559 56.383 C 109.546 51.941, 106.607 49, 103.183 49 C 100.380 49, 99.987 49.499, 97.079 56.750 M 146.833 49.787 C 146.650 50.220, 144.318 51.840, 141.651 53.387 C 136.803 56.200, 136.803 56.200, 137.446 60.490 C 137.980 64.052, 137.671 65.396, 135.622 68.415 C 133.628 71.354, 133.318 72.622, 134.007 75.026 C 134.477 76.662, 134.655 78, 134.405 78 C 133.137 78, 137.731 84.875, 140.701 87.423 C 142.575 89.031, 145.282 92.744, 146.716 95.673 C 148.151 98.603, 149.927 101, 150.662 101 C 151.398 101, 152 101.450, 152 102 C 152 102.550, 153.145 103, 154.545 103 C 157.764 103, 162 98.842, 162 95.683 C 162 92.755, 157.181 86.487, 152.465 83.282 C 149.080 80.982, 149 80.771, 149 74.099 C 149 68.965, 149.461 66.678, 150.859 64.885 C 153.587 61.385, 156 56.371, 156 54.205 C 156 53.163, 155.177 51.565, 154.171 50.655 C 152.294 48.956, 147.429 48.381, 146.833 49.787" stroke="none" fill="black" fill-rule="evenodd"/>
</svg>