<svg xmlns="http://www.w3.org/2000/svg" width="256" height="256" viewBox="0 0 256 256" version="1.1">
	<path d="M 57.318 31.250 C 55.628 33.038, 52.842 37.484, 51.128 41.131 C 49.414 44.779, 46.846 48.526, 45.422 49.459 C 42.641 51.282, 39.759 57.052, 39.753 60.810 C 39.750 63.471, 42.697 70.690, 44.824 73.229 C 47.161 76.020, 44.568 83.810, 40.608 85.894 C 36.670 87.966, 29.024 96.023, 29.011 98.115 C 29.005 99.003, 29.933 100.916, 31.073 102.365 C 32.882 104.666, 33.875 105, 38.894 105 C 43.944 105, 51.804 107.426, 51.855 109 C 51.932 111.377, 53.594 113, 55.952 113 C 58.720 113, 62.569 109.903, 61.336 108.669 C 60.968 108.301, 61.222 108, 61.900 108 C 62.578 108, 64.566 106.937, 66.317 105.638 C 71.067 102.113, 73.388 101.878, 76.348 104.622 C 77.759 105.930, 79.350 107, 79.884 107 C 80.418 107, 81.747 108.134, 82.837 109.520 L 84.819 112.039 81.245 116.020 C 79.280 118.209, 76.840 120, 75.822 120 C 74.054 120, 70.054 118.176, 69 116.890 C 68.243 115.965, 62.235 113, 61.119 113 C 60.580 113, 59.995 114.008, 59.820 115.241 C 59.353 118.511, 54.522 120.550, 50.046 119.365 C 47.351 118.651, 45.018 118.870, 40.325 120.277 C 35.147 121.830, 33.987 122.599, 33.135 125.042 C 32.568 126.668, 32.505 128.194, 32.992 128.495 C 33.473 128.792, 34.372 131.474, 34.991 134.456 C 36.133 139.960, 39.200 145.504, 42.095 147.303 C 42.973 147.849, 44.885 147.995, 46.345 147.628 C 48.692 147.039, 49.002 146.470, 49.015 142.731 C 49.029 138.736, 50.541 133.022, 52.317 130.250 C 53.631 128.200, 58.464 128.800, 60.818 131.307 C 63.771 134.449, 64.706 141.734, 62.664 145.682 C 61.271 148.377, 61.265 148.933, 62.608 150.851 C 64.289 153.250, 69.120 153.783, 70.770 151.750 C 71.328 151.063, 72.758 146.900, 73.947 142.500 C 77.161 130.616, 77.934 128.995, 80.371 129.035 C 81.542 129.055, 83.625 129.714, 85 130.500 C 86.375 131.286, 88.294 131.945, 89.265 131.965 C 91.236 132.004, 94.990 126.531, 94.996 123.610 C 95.002 120.810, 90.847 113, 89.353 113 C 88.512 113, 88.923 111.729, 90.530 109.360 C 92.656 106.227, 93.504 103.462, 93.146 100.832 C 93.096 100.465, 92.861 98.094, 92.625 95.565 C 92.068 89.602, 88.120 81.611, 85.500 81.143 C 82.975 80.692, 75 74.264, 75 72.680 C 75 71.062, 80.483 66, 82.236 66 C 84.526 66, 88 61.592, 88 58.686 C 88 51.613, 79.704 49.780, 73.360 55.451 C 70.364 58.129, 68.287 59.055, 64.078 59.587 C 52.849 61.008, 52.685 56.048, 63.594 45.003 C 69.595 38.928, 71 36.917, 71 34.408 C 71 27.510, 62.674 25.588, 57.318 31.250 M 140.500 41.945 C 132.966 43.573, 128.111 43.690, 107.328 42.739 C 100.221 42.414, 97.276 46.765, 100.449 52.901 C 102.661 57.179, 106.213 59, 112.342 59 C 115.481 59, 118.169 59.525, 118.740 60.250 C 120.786 62.846, 121.751 74.658, 121.212 90.500 C 121.080 94.350, 120.966 105.361, 120.958 114.970 C 120.939 135.878, 120.547 136.997, 113.227 137.006 C 108.567 137.011, 102.563 138.296, 100.385 139.754 C 98.482 141.027, 97.926 144.516, 99.321 146.424 C 100.931 148.626, 113.297 151.447, 120.500 151.255 C 123.250 151.181, 127.750 151.046, 130.500 150.955 C 133.250 150.863, 140.327 151.119, 146.227 151.524 C 158.424 152.361, 162 151.202, 162 146.411 C 162 139.655, 158.445 137.692, 145 137.023 L 134.500 136.500 133.631 123 C 132.445 104.556, 132.443 104.169, 133.392 81.277 C 133.990 66.852, 134.600 60.747, 135.520 59.984 C 136.229 59.395, 139.440 58.355, 142.655 57.672 C 155.573 54.928, 162.018 47.927, 156.608 42.517 C 153.673 39.582, 151.751 39.514, 140.500 41.945 M 65 76.357 C 61.503 77.424, 56.664 81.330, 57.636 82.302 C 57.919 82.585, 58.256 83.420, 58.386 84.158 C 59.073 88.062, 60.308 90, 62.109 90 C 63.195 90, 65.050 90.900, 66.230 92 C 69.618 95.156, 71.518 94.526, 73.018 89.750 C 74.437 85.229, 74.391 81.714, 72.905 81.167 C 72.407 80.983, 72 79.617, 72 78.129 C 72 75.051, 70.514 74.674, 65 76.357" stroke="none" fill="black" fill-rule="evenodd"/>
</svg>