<svg xmlns="http://www.w3.org/2000/svg" width="256" height="256" viewBox="0 0 256 256" version="1.1">
	<path d="M 52.827 30.185 C 51.191 31.937, 48.920 35.199, 47.782 37.435 C 44.539 43.802, 40.947 48, 38.742 48 C 36.878 48, 36.764 48.466, 37.270 54.036 C 37.650 58.231, 38.549 61.051, 40.220 63.286 C 41.541 65.053, 43.228 68.001, 43.968 69.835 C 46.321 75.668, 46.947 75.909, 58.249 75.323 C 64.189 75.015, 68.794 74.320, 69.200 73.668 C 69.584 73.050, 69.642 70.670, 69.328 68.378 C 68.707 63.844, 69.654 63.032, 76.085 62.587 C 79.355 62.361, 83 59.436, 83 57.038 C 83 54.480, 77.956 49, 75.605 49.004 C 73.244 49.008, 67 52.506, 67 53.825 C 67 55.203, 62.186 57, 58.492 57 C 56.245 57, 54.365 56.235, 52.993 54.762 L 50.908 52.524 53.963 50.012 C 55.643 48.630, 57.014 46.939, 57.009 46.253 C 57.004 45.567, 58.515 43.317, 60.367 41.253 C 64.507 36.639, 65.477 33.771, 63.906 30.788 C 61.333 25.903, 57.045 25.670, 52.827 30.185 M 120.320 29.077 C 117.640 30.069, 115 33.808, 115 36.612 C 115 40.425, 111.872 42.879, 105.011 44.449 C 98.072 46.037, 96 47.789, 96 52.069 C 96 56.208, 98.182 57.372, 104.544 56.624 C 111.933 55.755, 114.576 56.562, 116.057 60.139 C 117.001 62.416, 117.019 63.992, 116.137 66.937 C 114.922 70.992, 113.229 71.961, 107.315 71.986 C 105.563 71.994, 102.914 72.462, 101.427 73.028 C 98.375 74.188, 94.035 77.988, 94.034 79.500 C 94.034 80.441, 103.471 85.019, 105.383 85.006 C 106.340 84.999, 110.020 88.929, 109.969 89.903 C 109.854 92.088, 97.665 97, 92.357 97 C 89.269 97, 86 93.264, 86 89.735 C 86 86.362, 81.212 81, 78.199 81 C 77.124 81, 75.695 80.337, 75.022 79.526 C 73.080 77.187, 67.119 76.452, 65.249 78.322 C 63.953 79.618, 63.900 80.175, 64.952 81.442 C 65.655 82.290, 66.349 84.225, 66.494 85.742 C 66.638 87.259, 67.261 89.767, 67.878 91.315 C 68.495 92.863, 69.001 94.438, 69.001 94.815 C 69.002 95.192, 70.014 96.634, 71.251 98.020 C 75.488 102.767, 80.093 105.948, 84.295 107.031 C 86.608 107.627, 90.875 109.213, 93.777 110.557 C 96.680 111.901, 99.605 113.014, 100.277 113.031 C 102.407 113.086, 104.716 117.353, 105.959 123.527 C 106.620 126.812, 107.599 131.481, 108.133 133.903 C 108.668 136.324, 109.101 141.049, 109.095 144.403 C 109.072 158.034, 110.988 160.545, 118.403 156.602 C 124.743 153.231, 131.061 152.597, 139.815 154.451 C 153.595 157.369, 155.234 156.495, 154.307 146.725 C 154.010 143.595, 154.275 138.213, 154.895 134.767 C 155.515 131.320, 156.130 122.680, 156.261 115.568 L 156.500 102.636 153 100.568 C 150.308 98.978, 147.707 98.485, 141.735 98.435 C 133.209 98.364, 131.422 97.440, 132.385 93.601 C 133.425 89.458, 137 86.760, 140.500 87.477 C 142.150 87.815, 147.100 88.352, 151.500 88.670 C 158.484 89.175, 159.806 88.999, 161.907 87.288 C 163.605 85.905, 164.287 84.373, 164.222 82.087 C 164.094 77.614, 161.943 74.729, 157.109 72.549 C 153.763 71.040, 153 70.193, 153 67.986 C 153 66.495, 154.312 63.625, 155.915 61.607 C 158.004 58.979, 159.159 55.987, 159.992 51.048 C 161.321 43.169, 160.482 40.410, 156.448 39.398 C 154.381 38.879, 153.204 39.577, 149.568 43.482 C 146.516 46.758, 144.621 48.037, 143.341 47.683 C 142.328 47.404, 139.025 46.626, 136 45.956 C 128.513 44.298, 127.928 43.661, 128.132 37.397 C 128.367 30.201, 125.509 27.158, 120.320 29.077 M 131.481 59.390 C 129.848 60.584, 129.747 61.150, 130.768 63.390 C 131.422 64.826, 132.610 66, 133.407 66 C 134.987 66, 138 63.376, 138 62 C 138 60.951, 135.137 58, 134.120 58 C 133.714 58, 132.527 58.626, 131.481 59.390 M 40.143 82.011 C 38.554 83.600, 35.430 85.850, 33.201 87.012 C 30.623 88.356, 28.475 90.484, 27.301 92.857 L 25.455 96.588 28.769 98.294 C 30.695 99.286, 34.356 100, 37.514 100 C 42.497 100, 43.317 100.343, 47.429 104.148 C 50.812 107.279, 51.700 108.692, 51.049 109.909 C 50.574 110.796, 50.411 112.701, 50.687 114.143 C 51.350 117.609, 50.007 118.276, 42.641 118.138 C 39.263 118.075, 34.700 118.648, 32.500 119.412 C 29.107 120.590, 28.452 121.279, 28.182 123.956 C 27.574 130.001, 36.974 145, 41.370 145 C 42.058 145, 43.150 142.283, 43.883 138.750 C 44.595 135.313, 45.353 131.927, 45.566 131.227 C 46.176 129.231, 48.892 128.630, 51.642 129.883 C 54.054 130.982, 54.128 131.278, 53.474 137.238 C 53.067 140.943, 52.027 144.421, 50.896 145.859 C 49.853 147.185, 49 149.307, 49 150.576 C 49 151.844, 48.550 153.160, 48 153.500 C 46.326 154.535, 46.931 156.404, 49.560 158.318 C 51.604 159.807, 53.075 160.010, 57.660 159.437 C 66.617 158.318, 67.108 157.376, 66.530 142.432 C 66.263 135.529, 65.824 129.524, 65.554 129.088 C 65.285 128.651, 65.710 127.441, 66.500 126.397 C 67.290 125.354, 67.951 123.713, 67.968 122.750 C 67.988 121.660, 68.777 121, 70.059 121 C 71.191 121, 71.840 121.450, 71.500 122 C 71.160 122.550, 71.471 123.007, 72.191 123.015 C 73.142 123.026, 73.090 123.296, 72 124 C 71 124.646, 70.917 124.974, 71.750 124.985 C 72.438 124.993, 73 125.900, 73 127 C 73 128.100, 73.415 129, 73.922 129 C 74.430 129, 75.340 130.500, 75.945 132.334 C 77.489 137.012, 82.841 144, 84.879 144 C 88.561 144, 90.320 128.843, 87.415 122.151 C 84.372 115.140, 83.141 113.500, 80.698 113.196 C 78.244 112.890, 76.766 113.928, 74.029 117.877 C 71.691 121.252, 68.194 120.532, 63.695 115.750 C 59.210 110.982, 58.273 107.635, 60.898 105.758 C 64.031 103.517, 64.939 98.914, 62.920 95.500 C 61.945 93.850, 61.113 91.713, 61.073 90.750 C 61.033 89.787, 60.644 89, 60.208 89 C 59.773 89, 57.784 87.460, 55.789 85.578 C 48.460 78.666, 44.411 77.742, 40.143 82.011 M 119.060 111.250 C 117.862 114.326, 119.691 115.567, 127.399 116.909 C 137.077 118.594, 140.751 118.360, 141.497 116.009 C 141.845 114.914, 141.820 113.518, 141.442 112.907 C 140.060 110.669, 133.889 109, 127 109 C 120.600 109, 119.853 109.212, 119.060 111.250 M 119.404 130.765 C 117.145 132.280, 116.962 136.582, 119.061 138.835 C 121.876 141.856, 133.907 141.964, 138.750 139.011 C 142.915 136.471, 143.260 132.429, 139.435 130.975 C 136.456 129.843, 121.021 129.681, 119.404 130.765" stroke="none" fill="black" fill-rule="evenodd"/>
</svg>