<svg xmlns="http://www.w3.org/2000/svg" width="256" height="256" viewBox="0 0 256 256" version="1.1">
	<path d="M 58.500 27.960 C 56.166 28.910, 53.165 32.797, 50.049 38.905 C 48.830 41.294, 46.483 45.105, 44.833 47.374 C 38.193 56.509, 37.332 63.299, 41.787 71.419 C 43.320 74.214, 44.419 77.475, 44.228 78.667 C 43.857 80.994, 40.863 84.384, 36.586 87.322 C 35.127 88.324, 32.759 90.918, 31.324 93.086 C 28.756 96.967, 28.745 97.061, 30.605 99.116 C 33.642 102.472, 37.748 104.111, 44.201 104.543 C 47.518 104.766, 50.769 105.393, 51.425 105.938 C 52.082 106.483, 54.457 107.160, 56.703 107.442 C 59.981 107.854, 61.549 107.442, 64.644 105.356 C 66.765 103.926, 68.650 102.361, 68.833 101.878 C 69.017 101.395, 70.617 101, 72.390 101 C 74.989 101, 76.641 102.066, 80.911 106.500 C 83.824 109.525, 86.588 112, 87.053 112 C 87.518 112, 89.112 110.408, 90.596 108.463 C 93.105 105.173, 93.211 104.648, 92.107 100.963 C 91.454 98.783, 90.561 97, 90.122 97 C 89.683 97, 89.267 95.471, 89.196 93.603 C 89.126 91.735, 88.964 89.822, 88.836 89.353 C 88.708 88.884, 88.948 87.487, 89.369 86.250 C 90.011 84.364, 90.862 84, 94.632 84 C 98.700 84, 99.585 83.533, 103.897 79.106 C 111.843 70.948, 115.540 69.531, 128.780 69.571 C 139.631 69.603, 140.160 69.706, 142.713 72.258 C 146.167 75.713, 146.769 83.156, 144.593 95.500 C 143.720 100.450, 143.005 106.943, 143.003 109.930 C 143.001 112.916, 142.143 118.091, 141.096 121.430 C 140.049 124.768, 138.613 129.457, 137.904 131.848 C 136.532 136.477, 134.326 138, 128.992 138 C 125.953 138, 123 141.029, 123 144.146 C 123 149.226, 134.565 156.666, 140.690 155.526 C 145.941 154.548, 148.365 150.519, 151.305 137.876 C 152.760 131.619, 154.200 123.633, 154.505 120.128 C 154.810 116.624, 155.437 113.024, 155.898 112.128 C 157.014 109.961, 158.373 99.069, 158.534 91 C 158.605 87.425, 159.074 80.450, 159.576 75.500 C 160.884 62.615, 160.694 59.424, 158.475 56.972 C 156.816 55.139, 155.834 54.925, 151.522 55.452 C 135.560 57.406, 129.110 57.089, 118.242 53.820 C 112.862 52.201, 111.312 46.115, 114.750 40.100 C 116.892 36.352, 115.662 33.662, 111.585 33.177 C 107.484 32.690, 104.191 35.365, 103.502 39.742 C 102.968 43.142, 102.386 45.625, 100.433 52.861 C 100.082 54.159, 98.305 56.871, 96.483 58.887 C 92.964 62.782, 89.717 72.357, 89.576 79.250 C 89.534 81.313, 89.275 83.048, 89 83.106 C 88.725 83.164, 86.637 82.710, 84.360 82.097 C 81.027 81.200, 79.879 80.252, 78.477 77.241 C 77.519 75.183, 76.570 73.207, 76.369 72.848 C 76.168 72.490, 77.803 69.802, 80.002 66.875 C 84.622 60.726, 84.975 57.884, 81.545 54.455 C 77.858 50.767, 73.824 51.177, 70.169 55.611 C 64.957 61.935, 54 62.408, 54 56.309 C 54 54.868, 55.125 52.214, 56.500 50.411 C 57.875 48.608, 59 46.813, 59 46.420 C 59 46.028, 61.025 43.543, 63.500 40.897 C 68.367 35.693, 68.971 33.345, 66.250 30.198 C 64.112 27.725, 61.166 26.874, 58.500 27.960 M 66.135 75.555 C 64.285 76.350, 62.021 77, 61.106 77 C 60.191 77, 58.793 77.900, 58 79 C 57.207 80.100, 55.689 81, 54.626 81 C 52.841 81, 52.870 81.152, 55 83 C 56.268 84.100, 57.017 85, 56.663 85 C 56.309 85, 56.790 85.900, 57.732 87 C 58.942 88.413, 60.682 89, 63.663 89 C 65.984 89, 68.165 89.457, 68.510 90.016 C 68.856 90.575, 69.564 90.769, 70.085 90.447 C 70.606 90.125, 70.805 89.494, 70.527 89.044 C 70.249 88.595, 70.692 87.671, 71.511 86.991 C 73.243 85.553, 73.526 81, 71.883 81 C 71.268 81, 70.996 80.123, 71.278 79.046 C 71.559 77.972, 71.274 76.422, 70.644 75.602 C 69.639 74.292, 69.090 74.286, 66.135 75.555 M 104.750 87.080 C 103.505 87.805, 103 89.363, 103 92.478 C 103 98.605, 105.719 101.040, 115.454 103.632 C 123.504 105.776, 126.845 105.465, 127.589 102.502 C 127.934 101.128, 127.977 99.381, 127.684 98.619 C 127.140 97.202, 109.063 85.975, 107.413 86.030 C 106.911 86.047, 105.713 86.519, 104.750 87.080 M 53.282 111.585 C 52.209 112.399, 51.997 112.949, 52.750 112.968 C 53.438 112.986, 54 113.734, 54 114.631 C 54 115.939, 53.301 116.148, 50.464 115.688 C 47.109 115.143, 41.320 116.558, 36.295 119.152 C 33.071 120.816, 30.514 126.678, 31.839 129.371 C 32.415 130.542, 33.194 133.515, 33.570 135.978 C 34.705 143.417, 38.148 147.062, 42.062 144.967 C 44.245 143.799, 46.722 139.464, 47.240 135.906 C 47.966 130.923, 49.824 129, 53.913 129 C 56.026 129, 58.250 129.596, 58.855 130.325 C 59.459 131.053, 60.043 135.115, 60.153 139.350 C 60.336 146.440, 60.531 147.095, 62.619 147.619 C 65.226 148.274, 67.155 147.383, 66.829 145.675 C 66.706 145.029, 68.044 142.274, 69.803 139.554 C 71.561 136.834, 73 134.262, 73 133.839 C 73 133.416, 73.865 132.608, 74.922 132.042 C 76.491 131.202, 77.362 131.563, 79.668 134.007 C 82.950 137.484, 86.173 137.827, 89 135 C 91.366 132.634, 91.492 131.530, 89.593 129.789 C 88.388 128.684, 88.410 128.250, 89.752 126.746 C 91.259 125.058, 91.728 115.986, 90.418 113.867 C 89.270 112.009, 82.571 113.026, 78.817 115.627 C 75.398 117.996, 74.731 118.131, 72.013 117.005 C 70.356 116.319, 69 115.402, 69 114.967 C 69 114.532, 67.191 113.870, 64.980 113.497 C 62.769 113.123, 60.407 112.296, 59.730 111.659 C 58 110.029, 55.372 109.999, 53.282 111.585" stroke="none" fill="black" fill-rule="evenodd"/>
</svg>