<svg xmlns="http://www.w3.org/2000/svg" width="256" height="256" viewBox="0 0 256 256" version="1.1">
	<path d="M 54.646 31.006 C 52.763 32.659, 50.444 35.697, 49.493 37.756 C 48.543 39.815, 46.205 43.133, 44.298 45.129 C 41.561 47.993, 40.164 48.708, 37.665 48.525 C 35.924 48.397, 35.323 48.488, 36.328 48.726 C 37.758 49.065, 38.094 49.958, 37.872 52.830 C 37.479 57.906, 38.885 64.742, 40.446 65.341 C 41.159 65.615, 42.045 67.045, 42.416 68.520 C 43.284 71.978, 46.998 77, 48.688 77 C 49.410 77, 50 77.465, 50 78.034 C 50 79.207, 53.077 78.854, 57.500 77.172 C 63.843 74.761, 65.516 73.379, 66.796 69.495 C 68.249 65.085, 68.674 64.713, 75 62.310 C 82.805 59.345, 84.338 55.797, 79.549 51.783 C 75.678 48.540, 70.552 49.866, 65.929 55.307 C 63.740 57.884, 62.658 58.333, 58.646 58.333 C 53.597 58.333, 52.607 57.764, 51.547 54.255 C 50.989 52.410, 51.504 51.635, 54.434 49.906 C 56.395 48.749, 58 47.380, 58 46.863 C 58 46.346, 59.760 44.091, 61.912 41.851 C 67.178 36.371, 67.556 34.402, 64.019 30.865 C 60.401 27.247, 58.901 27.270, 54.646 31.006 M 92.367 38.283 C 89.718 40.367, 89.257 44.139, 91.432 45.943 C 92.219 46.597, 95.904 47.562, 99.621 48.089 C 103.338 48.615, 106.592 49.258, 106.852 49.518 C 107.112 49.778, 107.266 51.555, 107.194 53.467 C 107.010 58.359, 102.936 65.850, 98.105 70.177 C 93.432 74.363, 92.786 77.791, 96.091 80.870 C 98.905 83.492, 99.353 89.097, 97.381 97 C 95.896 102.952, 95.892 103.948, 97.344 108.811 C 98.671 113.260, 98.765 115.870, 97.922 124.896 C 96.779 137.144, 97.440 141.569, 101.338 147.744 C 104.530 152.800, 107.019 154.529, 115.577 157.635 C 125.046 161.072, 138.992 160.985, 149.729 157.420 C 154.003 156.001, 158.340 154.024, 159.367 153.026 C 162.125 150.344, 163.600 134.538, 161.633 128.728 C 160.322 124.855, 160.186 112.126, 161.434 110.107 C 161.688 109.695, 161.469 103.705, 160.945 96.795 C 160.006 84.389, 159.067 80.914, 154.839 74.204 L 152.762 70.907 155.989 63.219 C 158.875 56.345, 159.153 54.842, 158.626 49.016 C 158.301 45.432, 158.027 42.180, 158.018 41.789 C 158.008 41.398, 157.002 40.148, 155.781 39.011 C 153.945 37.300, 152.350 36.962, 146.531 37.052 C 142.664 37.111, 129.428 36.994, 117.117 36.791 C 96.477 36.450, 94.550 36.566, 92.367 38.283 M 129.228 50.230 C 127.979 50.832, 126.706 52.489, 126.400 53.913 C 125.502 58.094, 124.209 60.185, 118.961 65.948 C 113.387 72.069, 112.819 74.505, 116.569 76.213 C 119.373 77.491, 129.408 75.992, 131.403 73.997 C 131.970 73.430, 132.341 70.831, 132.227 68.220 C 132.026 63.594, 132.134 63.404, 136.480 60.779 C 142.053 57.413, 143.427 53.574, 140.040 50.831 C 137.542 48.808, 132.733 48.541, 129.228 50.230 M 40.372 83.289 C 39.202 84.505, 36.727 86.581, 34.872 87.902 C 33.018 89.223, 30.556 91.739, 29.402 93.492 L 27.304 96.680 30.625 99.840 C 32.452 101.578, 34.971 103.058, 36.223 103.129 C 43.809 103.559, 48.179 104.863, 49.570 107.114 C 49.991 107.794, 50.483 110.309, 50.663 112.702 C 50.945 116.448, 50.679 117.171, 48.746 117.905 C 47.510 118.374, 44.148 118.531, 41.273 118.254 C 37.534 117.893, 35.006 118.244, 32.388 119.486 L 28.729 121.223 29.306 127.861 C 29.624 131.513, 30.382 135.900, 30.991 137.612 C 32.034 140.541, 35.430 143, 38.432 143 C 40.288 143, 43.275 138.181, 43.943 134.109 C 44.627 129.942, 47.133 128.036, 49.426 129.939 C 51.057 131.292, 51.123 138.294, 49.631 151.698 C 49.103 156.442, 49.279 157.074, 51.647 158.937 C 54.800 161.417, 58.532 160.856, 61.676 157.431 C 63.677 155.252, 63.856 153.990, 63.898 141.836 C 63.938 130.006, 64.152 128.404, 65.931 126.624 C 67.916 124.639, 67.927 124.643, 71.460 128.389 C 73.407 130.453, 75 132.916, 75 133.861 C 75 135.869, 82.940 145.005, 83.125 143.210 C 83.194 142.544, 83.343 141.662, 83.457 141.250 C 83.570 140.838, 84.009 139.277, 84.432 137.782 C 85.257 134.864, 83.769 126.944, 81.232 120.750 C 79.511 116.548, 79.185 116.393, 76.441 118.468 C 75.374 119.276, 72.475 119.934, 70 119.930 C 65.885 119.925, 65.265 119.584, 62.750 115.949 C 59.301 110.963, 59.300 109.002, 62.744 104.827 C 67.998 98.456, 68.599 98.405, 75.323 103.750 C 81.944 109.013, 86.883 104.222, 85.581 93.800 C 84.557 85.607, 82.191 82.406, 76.530 81.557 C 71.448 80.795, 69 81.939, 69 85.075 C 69 87.217, 66.963 92, 66.051 92 C 63.889 92, 57.005 87.581, 53.020 83.635 C 51.936 82.561, 49.305 81.623, 46.818 81.424 C 43.387 81.149, 42.063 81.533, 40.372 83.289 M 114.911 89.357 C 112.255 90.681, 110.367 94.907, 111.320 97.392 C 111.663 98.286, 113.134 99.560, 114.589 100.223 C 116.982 101.313, 117.468 101.158, 119.672 98.595 C 124.379 93.123, 120.900 86.371, 114.911 89.357 M 137.693 88.700 C 136.699 88.958, 135.473 90.256, 134.968 91.584 C 133.083 96.543, 137.589 102, 143.570 102 C 147.553 102, 149.109 99.037, 147.771 94.001 C 146.355 88.669, 143.536 87.186, 137.693 88.700 M 116.225 111.709 C 111.988 112.522, 110.773 116.052, 110.668 127.852 C 110.562 139.694, 111.855 143.523, 116.263 144.427 C 129.278 147.094, 132.314 147.347, 137.703 146.217 C 146.705 144.328, 150.141 142.039, 153.176 135.907 C 154.648 132.933, 156.390 129.898, 157.048 129.162 C 157.977 128.121, 157.956 127.287, 156.953 125.412 C 156.243 124.085, 155.288 123, 154.831 123 C 154.374 123, 154 122.416, 154 121.703 C 154 120.990, 152.313 118.789, 150.250 116.813 C 147.179 113.870, 145.308 113.019, 139.918 112.110 C 133.538 111.034, 120.860 110.819, 116.225 111.709" stroke="none" fill="black" fill-rule="evenodd"/>
</svg>