<svg xmlns="http://www.w3.org/2000/svg" width="256" height="256" viewBox="0 0 256 256" version="1.1">
	<path d="M 55.069 28.250 C 53.833 29.488, 49.883 34.325, 46.292 39 C 42.702 43.675, 39.303 47.791, 38.740 48.146 C 38.178 48.502, 37.705 51.203, 37.689 54.149 C 37.665 58.771, 38.089 59.974, 40.785 62.925 C 42.763 65.091, 44.306 68.198, 44.992 71.396 L 46.075 76.447 39.287 82.701 C 35.554 86.140, 32.208 88.965, 31.851 88.977 C 30.747 89.016, 27.289 96.426, 27.748 97.771 C 28.446 99.819, 33.278 101.842, 39.094 102.520 C 42.067 102.866, 45.625 103.667, 47 104.299 C 50.310 105.820, 54.539 109, 53.251 109 C 52.691 109, 51.998 109.900, 51.710 111 C 51.423 112.100, 51.547 113, 51.987 113 C 52.426 113, 53.084 113.776, 53.447 114.724 C 54.588 117.696, 51.392 119.010, 44.718 118.313 C 39.580 117.776, 38.116 118.025, 34.367 120.073 C 29.094 122.953, 28.892 124.558, 32.585 134.223 C 35.037 140.640, 38.662 145, 41.546 145 C 43.066 145, 47 137.258, 47 134.266 C 47 130.293, 48.101 129, 51.485 129 C 55.195 129, 57.427 131.044, 56.619 133.702 C 56.318 134.691, 55.820 137.075, 55.513 139 C 55.206 140.925, 54.479 143.691, 53.899 145.147 C 51.977 149.964, 56.609 156.022, 62.184 155.985 C 66.497 155.956, 67.439 154.538, 67.283 148.309 C 67.126 142.060, 68.534 132.234, 70.235 127.698 C 71.598 124.063, 69.660 117.727, 65.806 113.215 C 64.263 111.409, 63 109.459, 63 108.884 C 63 108.308, 64.609 105.873, 66.575 103.474 C 69.915 99.398, 70.326 99.187, 72.825 100.266 C 74.296 100.901, 76.573 102.226, 77.885 103.210 C 83.274 107.255, 92.164 104.142, 90.419 98.822 C 90 97.545, 89.768 94.813, 89.905 92.750 C 90.048 90.585, 89.698 89, 89.076 89 C 88.484 89, 88 88.142, 88 87.093 C 88 85.119, 78.661 75.999, 76.642 76.001 C 76.014 76.002, 74.263 77.067, 72.750 78.368 C 70.767 80.073, 69.996 81.677, 69.985 84.116 C 69.963 88.832, 68.572 90.816, 66.281 89.399 C 65.301 88.794, 63.443 88.460, 62.150 88.658 C 59.724 89.030, 55.050 85.540, 55.017 83.333 C 55.008 82.692, 54.438 81.940, 53.750 81.662 C 52.789 81.274, 52.802 81.140, 53.809 81.079 C 54.529 81.036, 54.840 80.550, 54.500 80 C 54.160 79.450, 54.385 79, 55 79 C 55.615 79, 55.883 78.619, 55.595 78.154 C 55.308 77.689, 57.326 76.253, 60.080 74.963 C 63.518 73.352, 66.188 71.086, 68.598 67.731 C 70.528 65.044, 73.478 62.092, 75.153 61.172 C 83.570 56.548, 85.260 52.472, 80.582 48.077 C 77.184 44.885, 73.208 46.001, 67.665 51.704 C 63.841 55.638, 62.544 56.337, 58.322 56.743 C 53.866 57.171, 53.317 56.990, 52.299 54.757 C 51.346 52.665, 51.538 51.882, 53.590 49.494 C 54.915 47.951, 56 46.198, 56 45.597 C 56 44.997, 58.250 42.437, 61 39.909 C 65.233 36.017, 66 34.756, 66 31.691 C 66 29.135, 65.431 27.766, 64.066 27.035 C 60.948 25.367, 57.482 25.835, 55.069 28.250 M 104.255 34.076 C 100.658 35.161, 97.653 38.927, 98.170 41.701 C 98.355 42.690, 100.080 44.302, 102.003 45.283 C 104.848 46.733, 106.860 46.943, 112.788 46.412 C 118.939 45.860, 120.378 46.032, 122.018 47.516 C 124.568 49.824, 125.304 54.337, 124.129 60.468 C 123.513 63.683, 123.531 67.448, 124.181 71.138 C 125.954 81.201, 122.283 84.931, 113.906 81.579 C 106.574 78.645, 97.948 80.399, 94.868 85.449 C 91.800 90.480, 92.381 92.598, 97.349 94.495 C 100.913 95.857, 103.076 95.996, 109.344 95.266 C 117.851 94.276, 121.643 95.225, 124.291 99.005 C 125.589 100.859, 125.763 103.971, 125.369 118.357 C 124.889 135.897, 123.591 142, 120.343 142 C 119.604 142, 119 142.420, 119 142.933 C 119 143.446, 118.100 144.151, 117 144.500 C 114.308 145.354, 114.478 148.145, 117.415 151.314 C 122.631 156.942, 131.751 155.564, 135.339 148.605 C 137.167 145.059, 137.340 142.865, 137.270 124.108 C 137.228 112.777, 137.614 102.722, 138.127 101.763 C 139.668 98.884, 144.357 97.099, 152.541 96.278 C 161.857 95.343, 163.315 93.982, 160.755 88.613 C 158.791 84.495, 154.798 83.023, 145.500 82.990 C 137.007 82.961, 136.447 82.403, 136.767 74.282 C 136.913 70.552, 137.138 64.495, 137.267 60.822 C 137.558 52.487, 139.785 49.051, 146.089 47.215 C 157.457 43.903, 160.852 39.407, 155.305 35.007 C 152.631 32.886, 151.962 32.817, 141 33.529 C 128.896 34.314, 127.038 34.317, 115 33.565 C 110.875 33.308, 106.040 33.537, 104.255 34.076 M 80.227 113.782 C 79.526 114.258, 78.758 115.514, 78.521 116.573 C 78.283 117.633, 77.707 119.817, 77.241 121.427 C 76.567 123.761, 76.980 125.517, 79.279 130.082 C 82.699 136.874, 85.331 138.114, 88.856 134.595 C 90.911 132.543, 91.231 131.209, 91.356 124.174 C 91.443 119.325, 91.050 115.654, 90.371 114.974 C 88.899 113.498, 81.863 112.671, 80.227 113.782" stroke="none" fill="black" fill-rule="evenodd"/>
</svg>