<svg xmlns="http://www.w3.org/2000/svg" width="256" height="256" viewBox="0 0 256 256" version="1.1">
	<path d="M 55.103 27.711 C 52.977 28.553, 48.111 34.434, 44.293 40.774 C 40.367 47.294, 39.615 47.921, 35.500 48.101 C 33.850 48.173, 33.233 48.427, 34.130 48.666 C 35.207 48.953, 36.141 51.039, 36.884 54.815 C 37.519 58.044, 38.985 61.610, 40.254 63.015 C 42.729 65.753, 44.257 68.697, 45.957 74 C 46.959 77.123, 46.848 77.688, 44.929 79.250 C 43.746 80.213, 42.179 81, 41.446 81 C 40.713 81, 39.525 81.839, 38.807 82.864 C 38.088 83.889, 35.928 85.682, 34.008 86.850 C 32.087 88.018, 29.361 90.667, 27.950 92.737 L 25.386 96.500 28.890 99.297 C 32.062 101.830, 32.891 102.033, 37.636 101.440 C 42.702 100.807, 43.006 100.910, 46.689 104.512 C 48.785 106.561, 50.334 108.747, 50.130 109.369 C 49.927 109.991, 49.799 111.918, 49.846 113.650 C 49.954 117.643, 47.479 118.403, 37.430 117.461 C 33.477 117.091, 29.251 117.103, 28.038 117.488 C 26.027 118.126, 25.873 118.688, 26.297 123.844 C 26.954 131.842, 28.816 138.524, 30.920 140.427 C 33.735 142.975, 37.563 140.954, 40.198 135.529 C 41.406 133.044, 43.188 130.758, 44.159 130.449 C 46.832 129.601, 50.205 131.779, 49.527 133.916 C 49.214 134.902, 48.893 139.889, 48.813 144.997 C 48.690 152.941, 48.933 154.478, 50.496 155.621 C 52.298 156.938, 55.710 156.639, 59.189 154.859 C 61.440 153.707, 62.423 146.640, 61.677 136.966 C 61.174 130.444, 61.348 128.998, 62.790 127.708 C 64.349 126.313, 64.986 126.569, 70 130.604 C 73.025 133.039, 76.726 135.811, 78.226 136.765 C 79.824 137.783, 81.983 140.878, 83.447 144.250 C 86.186 150.560, 89.268 152.005, 90.912 147.750 C 94.974 137.235, 95.222 136.887, 98.386 137.200 C 101.637 137.521, 101.984 138.332, 103.398 148.916 C 104.226 155.116, 106.448 158.199, 109.809 157.810 C 112.252 157.528, 114.093 155.171, 116.268 149.543 C 116.472 149.016, 117.705 149.578, 119.008 150.793 C 121.561 153.171, 128.335 153.885, 129.559 151.904 C 129.971 151.237, 131.657 151.052, 133.868 151.431 C 135.866 151.773, 139.750 152.435, 142.500 152.900 C 145.250 153.366, 149.926 154.516, 152.891 155.454 C 158.082 157.098, 158.353 157.091, 160.177 155.267 C 161.622 153.822, 162.202 151.374, 162.623 144.937 C 163.305 134.505, 160.686 104.071, 158.853 101.136 C 156.584 97.503, 149.156 96.149, 133.500 96.515 C 125.800 96.695, 118.037 97.130, 116.250 97.481 C 114.139 97.896, 113 97.728, 113 97.001 C 113 96.386, 112.543 96.165, 111.984 96.510 C 109.251 98.199, 105.999 97.904, 103.682 95.757 C 101.487 93.722, 101.399 93.351, 102.801 92.041 C 104.093 90.834, 108.468 90.632, 128.430 90.860 C 152.089 91.130, 152.540 91.097, 154.868 88.919 C 157.111 86.819, 157.203 86.251, 156.623 78.101 C 156.286 73.371, 156.030 66.963, 156.054 63.862 C 156.089 59.276, 155.638 57.690, 153.635 55.362 L 151.174 52.500 128.847 52.210 C 116.567 52.051, 106.107 51.507, 105.603 51.003 C 103.990 49.390, 106.761 47.372, 112.237 46.172 C 121.388 44.167, 133.272 42.138, 140 41.433 C 149.297 40.460, 151 39.636, 151 36.114 C 151 31.831, 146.120 27.999, 140.673 28.003 C 132.989 28.009, 94.237 36.335, 92.142 38.429 C 90.385 40.186, 89.446 49.769, 89.930 61 C 90.821 81.684, 90.297 96.565, 88.597 98.848 C 86.911 101.111, 86.888 104.197, 88.548 105.411 C 90.435 106.792, 91.040 112.348, 89.754 116.500 C 89.243 118.150, 88.789 120.061, 88.746 120.746 C 88.702 121.431, 87.893 122.692, 86.947 123.548 C 85.372 124.973, 85.051 124.868, 83.132 122.302 C 76.939 114.022, 72.141 111.977, 68.457 116.047 C 67.318 117.306, 65.644 117.980, 64.112 117.797 C 62.059 117.553, 61.409 116.672, 60.429 112.811 C 59.400 108.760, 59.462 107.875, 60.885 106.311 C 61.790 105.315, 63.537 103.202, 64.766 101.615 C 65.995 100.028, 67 99.241, 67 99.865 C 67 100.489, 67.338 100.895, 67.750 100.767 C 68.162 100.639, 71.098 101.359, 74.273 102.368 C 79.497 104.026, 80.267 104.055, 82.376 102.673 C 84.685 101.160, 84.693 101.086, 83.249 94.823 C 80.975 84.959, 79.119 81.874, 74.517 80.303 C 69.511 78.594, 65 79.436, 65 82.079 C 65 83.136, 65.076 84.112, 65.169 84.250 C 65.262 84.388, 64.796 85.513, 64.134 86.750 C 63.472 87.988, 63.286 89, 63.721 89 C 64.654 89, 67.309 97.025, 66.608 97.725 C 66.345 97.989, 65.100 97.483, 63.842 96.602 C 62.584 95.721, 61.898 95, 62.317 95 C 63.158 95, 62.041 93.572, 57.412 88.730 C 52.159 83.237, 50.572 79.012, 53.750 78.985 C 54.991 78.974, 55.138 78.740, 54.257 78.180 C 53.448 77.666, 54.726 76.774, 57.912 75.629 C 62.589 73.947, 65.627 71.661, 66.056 69.500 C 66.584 66.844, 67.551 65.761, 71.428 63.489 C 78.081 59.590, 80.258 56.809, 79.080 53.712 C 77.893 50.588, 75.191 49, 71.066 49 C 68.137 49, 66.642 50.053, 62.760 54.850 C 60.427 57.732, 54.049 57.817, 51.500 55 C 49.753 53.070, 49.753 52.930, 51.500 51 C 52.495 49.900, 53.915 49, 54.655 49 C 55.414 49, 56 47.937, 56 46.559 C 56 45.216, 56.407 43.866, 56.905 43.559 C 58.649 42.481, 63.382 33.481, 63.236 31.519 C 62.981 28.076, 58.948 26.188, 55.103 27.711 M 126 66.095 C 123.525 66.471, 118.257 66.811, 114.294 66.853 C 110.331 66.894, 106.204 67.480, 105.124 68.155 C 102.082 70.054, 101.947 73.463, 104.792 76.532 L 107.278 79.213 122.389 78.512 C 133.605 77.991, 138.249 77.384, 140.404 76.155 C 142.001 75.245, 143.277 74.050, 143.239 73.500 C 143.201 72.950, 143.648 71.924, 144.232 71.221 C 145.014 70.278, 144.672 69.279, 142.932 67.428 C 140.425 64.759, 136.732 64.468, 126 66.095 M 114.923 109.750 C 114.881 110.162, 114.696 111.287, 114.512 112.250 C 114.328 113.213, 114.700 114.018, 115.338 114.041 C 115.977 114.064, 119.425 114.285, 123 114.532 C 126.575 114.780, 131.750 115.126, 134.500 115.301 C 137.250 115.476, 140.535 116.183, 141.799 116.871 C 145.276 118.764, 149.436 117.949, 149.813 115.302 C 150.359 111.465, 148.292 109, 144.530 109 C 142.660 109, 139.893 109.470, 138.381 110.045 C 136.410 110.795, 134.835 110.760, 132.815 109.923 C 130.890 109.126, 129.603 109.079, 128.749 109.774 C 128.062 110.334, 125.796 111.257, 123.714 111.825 C 120.405 112.729, 119.777 112.616, 118.724 110.929 C 117.542 109.037, 115.074 108.271, 114.923 109.750 M 98.501 128.002 C 98.783 128.457, 98.447 129.081, 97.756 129.388 C 97.065 129.696, 97.530 129.847, 98.790 129.724 C 101.533 129.456, 102.225 127.797, 99.745 127.433 C 98.780 127.291, 98.220 127.548, 98.501 128.002 M 142.102 132.681 C 138.504 135.137, 135.522 135.654, 134.500 134 C 134.160 133.450, 129.867 133, 124.960 133 C 114.902 133, 114.566 133.295, 115.254 141.500 C 115.530 144.802, 115.930 145.454, 117.544 145.235 C 118.620 145.089, 122.788 144.946, 126.808 144.917 C 132.189 144.877, 134.260 144.486, 134.665 143.432 C 135.408 141.494, 141.722 141.579, 143.696 143.553 C 146.260 146.117, 149.331 144.968, 150.106 141.155 C 150.982 136.846, 149.458 131.347, 147.234 130.793 C 146.280 130.556, 143.971 131.405, 142.102 132.681" stroke="none" fill="black" fill-rule="evenodd"/>
</svg>