<svg xmlns="http://www.w3.org/2000/svg" width="256" height="256" viewBox="0 0 256 256" version="1.1">
	<path d="M 54.317 30.750 C 52.418 32.813, 48.570 37.875, 45.767 42 C 42.963 46.125, 40.224 49.795, 39.680 50.155 C 38.235 51.111, 38.366 62.998, 39.860 66.500 C 40.564 68.150, 41.178 69.725, 41.224 70 C 41.269 70.275, 41.867 71.831, 42.551 73.459 C 43.631 76.029, 43.513 76.979, 41.647 80.689 C 40.466 83.038, 38.825 85.206, 38 85.506 C 36.347 86.108, 32.765 89.237, 29.164 93.225 C 25.027 97.807, 29.028 101.818, 39 103.087 C 44.416 103.776, 47.066 104.682, 52 107.528 C 53.715 108.517, 53.987 108.975, 52.867 108.985 C 51.968 108.993, 50.998 109.900, 50.710 111 C 50.423 112.100, 50.626 113, 51.163 113 C 51.700 113, 51.995 114.013, 51.820 115.250 C 51.532 117.273, 50.795 117.557, 44.500 118.068 C 38.894 118.522, 32.519 120.510, 30.178 122.533 C 29.254 123.331, 29.050 128.913, 29.925 129.454 C 30.484 129.799, 31.240 132.329, 31.604 135.076 C 32.424 141.256, 35.169 145, 38.880 145 C 41.091 145, 41.940 144.264, 43.308 141.164 C 44.238 139.054, 45 136.424, 45 135.319 C 45 131.100, 51.848 128.119, 53.747 131.512 C 54.212 132.343, 54.263 136.476, 53.860 140.696 C 53.407 145.430, 53.515 149.094, 54.140 150.262 C 54.698 151.304, 54.921 152.763, 54.636 153.505 C 53.885 155.464, 56.066 156.874, 60.289 157.159 C 65.374 157.501, 66.802 155.276, 66.787 147.028 C 66.754 128.586, 66.681 129, 69.961 129 C 72.961 129, 76.490 131.817, 77.508 135.025 C 79.146 140.186, 89.323 139.360, 90.507 133.969 C 90.860 132.363, 90.789 130.475, 90.349 129.774 C 89.910 129.073, 89.690 127.648, 89.862 126.607 C 90.282 124.058, 87.317 117.679, 85.054 116.266 C 83.662 115.397, 82.099 115.467, 78.456 116.563 C 72.092 118.479, 70.323 118.379, 67.728 115.961 C 66.525 114.840, 64.518 113.666, 63.270 113.353 C 61.911 113.012, 61 112.024, 61 110.892 C 61 109.851, 60.438 108.964, 59.750 108.921 C 59.063 108.878, 59.829 108.360, 61.454 107.770 C 63.078 107.180, 66.429 105.416, 68.900 103.849 C 74.190 100.494, 75.665 100.348, 78.436 102.906 C 79.571 103.955, 82.809 105.490, 85.632 106.317 C 90.466 107.735, 90.954 107.706, 94.040 105.830 C 96.731 104.193, 97.978 104.005, 101.021 104.777 C 103.722 105.463, 105.371 105.359, 107.113 104.394 C 108.426 103.666, 110.287 103.055, 111.250 103.035 C 112.213 103.016, 113 102.550, 113 102 C 113 100.055, 117.845 100.936, 118.500 103 C 118.849 104.100, 119.727 105, 120.451 105 C 122.095 105, 122.990 109.267, 121.793 111.405 C 121.281 112.320, 121.277 113, 121.784 113 C 122.269 113, 122.715 113.563, 122.774 114.250 C 124.241 131.315, 124.219 134.035, 122.569 139.080 C 121.624 141.967, 119.820 145.140, 118.559 146.133 C 115.551 148.499, 116.204 152.013, 120.497 156.566 C 124.499 160.809, 127.685 160.982, 131.351 157.156 C 134.129 154.256, 134.328 153.619, 135.457 144 C 135.812 140.975, 136.828 135.463, 137.715 131.750 C 139.073 126.067, 139.657 125.005, 141.414 125.032 C 144.516 125.079, 148.250 128.853, 152.847 136.591 C 158.439 146.001, 158.225 145.733, 160.695 146.457 C 162.612 147.018, 162.980 146.621, 163.598 143.330 C 164.407 139.020, 160.664 122.621, 157.795 117.904 C 155.850 114.705, 151.391 113.111, 145.760 113.603 C 142.834 113.858, 141.474 113.383, 139.510 111.419 C 136.329 108.238, 136.338 106.622, 139.547 105.161 C 142.769 103.693, 144.941 103.703, 152.292 105.221 C 157.790 106.357, 158.307 106.304, 159.680 104.471 C 160.698 103.112, 160.982 101.175, 160.595 98.233 C 159.874 92.752, 157.819 88.844, 152.788 83.386 C 149.575 79.900, 148.065 79, 145.432 79 C 143.609 79, 141.916 79.338, 141.669 79.750 C 141.422 80.162, 141.577 82.750, 142.013 85.500 C 142.450 88.250, 142.439 90.888, 141.991 91.363 C 139.350 94.155, 124.730 90.902, 124.223 87.410 C 124.070 86.359, 124.975 84.375, 126.232 83 C 127.490 81.625, 129.240 79.372, 130.122 77.994 C 131.154 76.382, 133.388 75.044, 136.387 74.242 C 140.499 73.142, 141.514 72.273, 145.023 66.843 C 149.570 59.808, 149.806 58.294, 146.927 54.635 C 143.707 50.541, 140.159 51.111, 135.316 56.500 C 131.559 60.682, 130.923 61, 126.328 61 C 123.608 61, 120.509 60.362, 119.443 59.582 C 117.529 58.183, 117.532 58.125, 119.597 55.332 C 120.748 53.774, 122.409 51.150, 123.287 49.500 C 124.165 47.850, 126.034 45.193, 127.441 43.594 C 130.697 39.897, 130.674 37.530, 127.354 34.452 C 124.272 31.596, 123.810 31.530, 120.166 33.414 C 117.931 34.570, 116.890 36.522, 114.471 44.091 C 112.817 49.267, 110.141 55.150, 108.406 57.426 C 103.850 63.403, 102 67.454, 102 71.450 C 102 75.982, 104.504 78.505, 109.848 79.360 C 114.852 80.160, 115.330 82.329, 110.789 83.632 C 107.855 84.473, 103.034 89.403, 97.706 97.010 C 95.440 100.245, 92.997 98.850, 91.198 93.296 C 89.429 87.831, 85.179 83.968, 80.205 83.301 C 76.371 82.786, 76.058 82.955, 73.407 86.962 C 70.994 90.607, 70.289 91.071, 68.064 90.472 C 66.654 90.093, 63.839 89.820, 61.809 89.864 C 58.971 89.927, 57.973 89.489, 57.491 87.973 C 57.147 86.888, 56.371 86, 55.766 86 C 55.161 86, 54.951 85.716, 55.298 85.369 C 55.645 85.021, 55.508 83.950, 54.994 82.988 C 53.766 80.693, 56.868 77, 60.023 77 C 61.281 77, 63.786 75.875, 65.589 74.500 C 67.392 73.125, 69.331 72, 69.898 72 C 70.465 72, 71.462 71.006, 72.112 69.791 C 73.651 66.914, 76.604 64.529, 81.250 62.408 C 84.415 60.963, 84.998 60.213, 84.985 57.598 C 84.965 53.672, 84.284 52.681, 80.147 50.561 C 75.997 48.433, 73.073 49.421, 68 54.663 C 64.188 58.602, 59.483 61, 55.567 61 C 50.905 61, 49.287 53.529, 53.255 50.323 C 54.495 49.320, 56.240 47.363, 57.132 45.973 C 58.024 44.583, 60.384 41.816, 62.377 39.823 C 66.724 35.476, 67.279 31.009, 63.777 28.557 C 60.340 26.149, 58.068 26.676, 54.317 30.750 M 97.559 111.532 C 95.652 112.974, 95.655 113, 97.702 113 C 100.077 113, 101 114.773, 101 119.338 C 101 121.085, 101.419 123.973, 101.930 125.757 C 102.632 128.205, 102.548 129, 101.585 129 C 100.884 129, 99.494 129.901, 98.498 131.003 C 96.912 132.755, 96.834 133.503, 97.878 136.986 C 99.263 141.609, 101.916 143.397, 106.046 142.490 C 109.185 141.800, 112.996 137.762, 113.006 135.115 C 113.010 134.227, 113.688 132.204, 114.514 130.621 C 116.073 127.631, 116.771 118.056, 115.571 116.115 C 114.515 114.406, 104.606 109.996, 101.904 110.032 C 100.582 110.049, 98.626 110.724, 97.559 111.532" stroke="none" fill="black" fill-rule="evenodd"/>
</svg>