<svg xmlns="http://www.w3.org/2000/svg" width="256" height="256" viewBox="0 0 256 256" version="1.1">
	<path d="M 52.451 30.483 C 50.644 32.399, 47.711 36.561, 45.934 39.733 C 44.156 42.905, 41.569 46.728, 40.184 48.229 C 36.684 52.022, 36.692 58.596, 40.201 63.197 C 42.536 66.258, 44.399 71.390, 44.474 74.969 C 44.504 76.407, 43.309 77.871, 34.650 87 C 28.120 93.885, 26.961 96.124, 28.468 98.940 C 30.409 102.567, 33.784 103.878, 39.627 103.275 C 44.129 102.810, 45.132 103.052, 47.291 105.120 C 48.923 106.683, 50.004 109.109, 50.440 112.187 C 51.024 116.313, 50.849 117.010, 48.977 118.012 C 47.660 118.717, 45.260 118.878, 42.675 118.434 C 36.045 117.296, 31.774 117.782, 29.638 119.918 C 27.805 121.751, 27.742 122.520, 28.693 131.453 C 29.870 142.500, 31.488 145.284, 36.449 144.799 C 39.017 144.547, 39.703 143.877, 40.784 140.567 C 41.491 138.403, 42.188 135.928, 42.333 135.067 C 42.909 131.659, 45.135 129, 47.413 129 C 50.532 129, 52.349 131.326, 51.447 134.167 C 51.052 135.411, 50.600 138.157, 50.443 140.268 C 50.285 142.379, 49.712 144.645, 49.169 145.303 C 47.470 147.363, 48.999 155.929, 51.284 157.152 C 53.687 158.438, 62.075 157.497, 63.108 155.826 C 63.501 155.189, 63.587 148.960, 63.298 141.984 C 62.736 128.418, 63.071 127.421, 67.782 128.653 C 69.703 129.156, 72 132.808, 72 135.360 C 72 137.497, 77.466 142, 80.061 142 C 81.783 142, 82.880 141.168, 83.750 139.202 C 85.549 135.139, 85.511 132.244, 83.572 125.500 C 81.057 116.756, 80.157 111.979, 81.139 112.586 C 81.613 112.879, 82 112.067, 82 110.782 C 82 109.496, 82.618 107.557, 83.372 106.473 C 84.127 105.388, 85.063 103.037, 85.452 101.250 C 86.262 97.525, 88.551 97.004, 92.561 99.632 C 94.302 100.773, 94.871 101.833, 94.451 103.155 C 93.493 106.173, 93.204 119.066, 93.978 124.206 C 94.368 126.795, 94.302 129.298, 93.831 129.769 C 93.360 130.240, 93.249 131.993, 93.583 133.666 C 94.103 136.263, 94.813 136.849, 98.447 137.681 C 101.218 138.315, 103.539 138.312, 105.101 137.673 C 106.420 137.134, 112.190 136.649, 117.923 136.596 L 128.345 136.500 130.167 133.500 C 131.613 131.120, 131.991 128.398, 131.995 120.327 C 132 110.930, 131.809 109.927, 129.500 107.182 C 128.125 105.548, 126.993 103.601, 126.985 102.856 C 126.973 101.811, 126.747 101.844, 126 103 C 125.318 104.055, 125.026 104.118, 125.015 103.215 C 125.004 102.255, 124.511 102.191, 123.066 102.965 C 118.847 105.223, 105 103.569, 105 100.807 C 105 98.269, 116.076 97.790, 120.649 100.130 C 122.641 101.150, 125.992 100.993, 133.500 99.528 C 138.347 98.582, 139.244 99.912, 139.306 108.136 C 139.387 118.851, 138.331 136.182, 137.457 138.500 C 136.507 141.020, 132.132 145, 130.313 145 C 128.302 145, 127.669 147.512, 129.036 150.067 C 130.498 152.799, 134.855 156.730, 137.360 157.576 C 140.159 158.522, 146.692 155.159, 147.941 152.131 C 149.764 147.707, 151.724 134.352, 151.970 124.677 C 152.098 119.630, 152.495 112.366, 152.852 108.535 C 153.461 101.987, 153.709 101.430, 156.998 99.218 C 163.065 95.137, 163.228 92.607, 157.821 86.449 C 155.187 83.449, 154.901 82.544, 155.490 79.057 C 155.860 76.872, 155.858 74.129, 155.488 72.961 C 154.702 70.487, 146.523 65, 143.620 65 C 140.317 65, 133 60.970, 133 59.151 C 133 56.317, 136.699 54.965, 145.638 54.530 C 155.205 54.064, 158 52.588, 158 48 C 158 42.897, 154.960 41.500, 143.859 41.500 C 132.802 41.500, 132.042 41.081, 132.015 34.973 C 131.994 30.128, 129.707 27.098, 126.350 27.467 C 123.264 27.806, 120.054 31.500, 120.022 34.750 C 120.010 35.987, 119.050 37.950, 117.889 39.111 C 115.943 41.057, 115.068 41.172, 106.639 40.584 C 95.689 39.821, 92.663 40.885, 92.195 45.665 C 91.774 49.962, 95.759 52.680, 103.993 53.712 C 111.052 54.596, 113.422 56.581, 110.961 59.547 C 110.178 60.490, 106.477 63.278, 102.737 65.742 C 95.348 70.610, 92.711 74.359, 93.191 79.314 C 93.423 81.707, 92.818 83.184, 90.759 85.250 C 87.478 88.542, 84.976 88.736, 82.407 85.898 C 79.450 82.630, 75.513 81, 70.575 81 C 66.577 81, 65.874 81.343, 64.526 83.950 C 63.687 85.573, 62.213 87.359, 61.250 87.920 C 59.624 88.867, 59.636 88.941, 61.417 88.970 C 62.471 88.986, 63.056 89.277, 62.718 89.616 C 61.864 90.470, 56.265 88.408, 54.416 86.559 C 52.287 84.430, 51.757 81, 53.557 81 C 54.820 81, 55.396 79.890, 55.168 77.898 C 55.130 77.567, 57.226 76.299, 59.827 75.081 C 63.042 73.575, 65.187 71.704, 66.528 69.236 C 67.889 66.731, 70.116 64.810, 73.711 63.041 C 76.578 61.631, 79.447 59.953, 80.088 59.312 C 81.803 57.597, 80.365 53.285, 77.439 51.368 C 75.294 49.963, 74.307 49.891, 70.955 50.895 C 68.780 51.547, 67 52.538, 67 53.096 C 67 53.655, 64.935 55.026, 62.411 56.142 C 57.192 58.451, 53.618 58.022, 51.939 54.886 C 51.002 53.135, 51.240 52.359, 53.410 50.094 C 54.835 48.607, 56 46.994, 56 46.510 C 56 46.025, 57.800 43.494, 60 40.885 C 64.345 35.732, 65.209 31.352, 62.429 28.571 C 59.805 25.948, 56.050 26.668, 52.451 30.483 M 118.460 74.369 C 114.060 76.006, 104.924 82.068, 105.487 82.979 C 107.831 86.772, 144 85.978, 144 82.134 C 144 80.609, 133.225 75.124, 128.201 74.090 C 122.206 72.857, 122.553 72.847, 118.460 74.369 M 64.214 99.681 C 64.092 101.156, 63.254 103.490, 62.351 104.868 C 61.448 106.246, 60.635 108.302, 60.544 109.437 C 60.335 112.058, 63.654 118.930, 65.464 119.625 C 68.249 120.693, 77 113.403, 77 110.015 C 77 108.200, 66.880 97, 65.240 97 C 64.798 97, 64.336 98.207, 64.214 99.681 M 107.250 115.088 C 104.441 116.146, 104.419 117.940, 107.148 123.290 C 108.329 125.605, 109.117 127.725, 108.898 128 C 108.679 128.275, 110.583 128.635, 113.128 128.800 L 117.756 129.100 117.441 124.800 C 117.268 122.435, 117.098 119.518, 117.063 118.317 C 116.977 115.360, 111.399 113.524, 107.250 115.088" stroke="none" fill="black" fill-rule="evenodd"/>
</svg>