<svg xmlns="http://www.w3.org/2000/svg" width="256" height="256" viewBox="0 0 256 256" version="1.1">
	<path d="M 55.448 26.958 C 54.319 27.415, 50.972 31.324, 48.009 35.645 C 42.538 43.624, 38.634 48, 36.985 48 C 36.483 48, 36.114 50.058, 36.165 52.574 C 36.234 55.997, 37.070 58.332, 39.489 61.848 C 41.267 64.432, 43.009 67.549, 43.361 68.773 C 43.712 69.998, 44.268 71.941, 44.596 73.090 C 45.070 74.754, 43.484 76.846, 36.825 83.340 C 32.223 87.828, 27.669 92.738, 26.705 94.250 C 24.955 96.998, 24.957 97.003, 28.227 99.015 C 30.758 100.573, 32.978 100.982, 38.024 100.822 C 44.338 100.621, 44.668 100.735, 48.285 104.352 C 51.349 107.415, 51.840 108.430, 51.011 109.979 C 50.455 111.018, 50 112.782, 50 113.899 C 50 116.899, 47.136 117.928, 39.151 117.797 C 28.067 117.615, 26.350 120.305, 29.403 133.068 C 31.194 140.554, 32.562 142.852, 35.698 143.639 C 38.970 144.460, 41.627 141.587, 42.595 136.179 C 43.285 132.324, 45.525 129, 47.432 129 C 48.050 129, 49.539 129.689, 50.741 130.531 C 52.610 131.840, 52.777 132.457, 51.892 134.781 C 50.489 138.470, 50.004 154.196, 51.246 155.750 C 52.623 157.474, 61.456 157.361, 62.916 155.601 C 64.097 154.178, 65.138 147.086, 64.357 145.788 C 64.121 145.396, 63.762 141.346, 63.559 136.788 C 63.212 129.021, 63.928 126, 66.114 126 C 67.374 126, 73 132.089, 73 133.453 C 73 135.819, 78.996 144, 80.730 144 C 81.813 144, 83.338 142.347, 84.648 139.750 C 87.762 133.577, 87.993 132.437, 86.552 130.365 C 85.839 129.339, 84.931 126.925, 84.534 125 C 83.384 119.426, 79.206 114, 76.064 114 C 74.599 114, 72.965 114.435, 72.434 114.966 C 70.655 116.745, 64.904 116.579, 63.863 114.719 C 63.334 113.774, 62.278 113, 61.518 113 C 60.757 113, 59.849 112.100, 59.500 111 C 59.151 109.900, 58.358 109, 57.738 109 C 57.119 109, 58.161 107.857, 60.056 106.460 C 64.045 103.519, 68 99.143, 68 97.670 C 68 97.110, 69.013 97.562, 70.250 98.675 C 73.498 101.595, 81.153 104.995, 84.566 105.032 C 86.180 105.049, 88.181 105.612, 89.014 106.282 C 91.528 108.305, 94.128 112.984, 93.396 114.168 C 93.019 114.779, 92.760 118.226, 92.821 121.827 C 92.883 125.429, 92.439 128.971, 91.835 129.699 C 90.262 131.594, 93.424 139.392, 96.611 141.481 C 99.972 143.683, 102.861 143.090, 105.400 139.676 C 107.103 137.385, 107.521 135.305, 107.610 128.676 C 107.671 124.179, 108.137 118.925, 108.647 117 C 109.517 113.710, 109.848 113.482, 114.165 113.200 C 117.246 112.999, 119.251 113.394, 120.257 114.400 C 122.441 116.583, 123.279 125.697, 122.477 138.535 C 121.536 153.582, 123.392 159, 129.485 159 C 131.633 159, 133.999 153.126, 134.004 147.782 C 134.006 145.236, 134.836 142.142, 136.050 140.149 C 137.980 136.984, 138.326 136.834, 142.296 137.431 C 154.266 139.232, 154.389 139.227, 157.931 136.826 C 163.403 133.115, 163.943 130.387, 161.941 116.540 C 160.415 105.981, 159.905 104.315, 157.588 102.322 C 155.179 100.250, 154.308 100.116, 146.948 100.684 C 137.324 101.426, 133.729 100.120, 134.202 96.056 C 134.449 93.941, 135.265 93.316, 138.935 92.431 C 141.965 91.700, 144.752 91.678, 147.735 92.361 C 151.900 93.314, 152.249 93.213, 155.295 90.167 L 158.488 86.973 158.488 66.895 L 158.488 46.817 155.602 44.334 C 153.119 42.199, 152.071 41.937, 148.108 42.461 C 145.374 42.822, 141.676 42.531, 139.016 41.746 C 134.451 40.397, 133.174 38.865, 131.335 32.531 C 130.861 30.898, 129.273 28.888, 127.805 28.064 C 123.741 25.783, 120.040 27.545, 116.964 33.223 C 115.570 35.798, 114.155 38.179, 113.820 38.513 C 113.485 38.848, 110.430 39.515, 107.030 39.996 C 103.630 40.476, 99.757 41.584, 98.424 42.458 C 95.606 44.304, 95.196 48.407, 97.500 51.696 C 99.086 53.961, 98.675 56.359, 96.208 59.233 C 95.046 60.587, 94.890 62.226, 95.495 66.733 C 95.921 69.905, 96.180 74.924, 96.070 77.886 C 95.676 88.518, 98.708 91.431, 109.871 91.145 C 118.075 90.935, 120 91.852, 120 95.967 C 120 100.486, 117.365 102.010, 111.500 100.881 C 108.750 100.352, 102.710 99.710, 98.077 99.453 C 93.444 99.197, 89.496 98.829, 89.303 98.636 C 89.110 98.444, 88.120 95.282, 87.101 91.610 C 85.118 84.457, 82.773 81, 79.904 81 C 78.922 81, 77.851 80.567, 77.524 80.038 C 77.143 79.422, 76.019 79.422, 74.399 80.038 C 73.008 80.567, 70.760 81, 69.404 81 C 67.927 81, 66.720 81.703, 66.396 82.750 C 65.313 86.257, 64.294 87.411, 61.662 88.115 C 59.863 88.596, 58.508 88.365, 57.560 87.417 C 56.780 86.638, 55.646 86, 55.039 86 C 53.559 86, 52.237 82.212, 52.761 79.471 C 53.063 77.889, 54.368 76.905, 57.342 76.014 C 66.329 73.321, 66.946 72.915, 68.004 68.984 C 69.129 64.806, 70.399 64, 75.859 64 C 81.322 64, 84.355 61.524, 83.588 57.689 C 82.873 54.117, 80.432 51.127, 77.229 49.902 C 74.596 48.895, 67.471 51.331, 66.629 53.525 C 65.951 55.290, 58.429 57.324, 55.395 56.563 C 54.109 56.240, 52.628 55.173, 52.103 54.192 C 51.061 52.245, 52.152 50.489, 59.610 42.115 C 65.384 35.632, 66.355 33.535, 64.872 30.750 C 62.554 26.398, 59.682 25.243, 55.448 26.958 M 112.750 52.133 C 110.138 52.875, 109 53.765, 109 55.064 C 109 57.728, 112.037 59, 118.393 59 C 121.432 59, 127.247 59.495, 131.315 60.100 C 137.595 61.034, 139.173 60.962, 141.768 59.620 C 145.476 57.702, 145.157 54.397, 141.113 52.840 C 137.330 51.383, 117.158 50.880, 112.750 52.133 M 110.703 72.775 C 108.685 75.006, 109.300 77.555, 112.235 79.126 C 114.953 80.580, 137.383 80.262, 141.117 78.717 C 143.862 77.581, 143.959 77.361, 142.577 75.401 C 141.280 73.560, 139.711 73.220, 129.799 72.631 C 123.585 72.262, 117.140 71.708, 115.477 71.400 C 113.261 70.989, 111.988 71.356, 110.703 72.775 M 136.899 115.189 C 135.108 118.536, 135.588 126.988, 137.689 129.089 C 139.052 130.452, 147.955 129.211, 148.116 127.636 C 149.322 115.842, 148.137 113, 142.012 113 C 138.980 113, 137.800 113.505, 136.899 115.189" stroke="none" fill="black" fill-rule="evenodd"/>
</svg>