<svg xmlns="http://www.w3.org/2000/svg" width="256" height="256" viewBox="0 0 256 256" version="1.1">
	<path d="M 54.705 28.390 C 53.492 29.705, 50.025 34.002, 47 37.940 C 43.975 41.878, 40.487 46.226, 39.250 47.602 C 37.173 49.911, 36.436 53.461, 36.988 58.491 C 37.109 59.586, 38.515 61.732, 40.114 63.259 C 41.713 64.787, 43.182 67.266, 43.379 68.769 C 43.576 70.271, 44.063 72.272, 44.462 73.215 C 45.198 74.955, 41.733 81, 39.999 81 C 39.524 81, 38.875 81.820, 38.557 82.822 C 38.238 83.824, 36.248 85.616, 34.133 86.805 C 32.019 87.993, 29.128 90.720, 27.709 92.864 C 25.140 96.746, 25.137 96.770, 27.092 98.869 C 29.680 101.647, 33.012 102.392, 39.459 101.634 C 44.574 101.033, 44.907 101.146, 48.990 104.878 C 51.709 107.364, 52.813 108.998, 52.080 109.451 C 51.384 109.880, 51.176 111.420, 51.546 113.392 C 52.533 118.652, 49.620 120.011, 40.107 118.730 C 38.241 118.479, 34.979 118.955, 32.857 119.788 C 27.930 121.724, 27.670 123.887, 31.093 134.447 C 33.163 140.832, 36.306 145, 39.052 145 C 40.731 145, 42.806 143.222, 42.855 141.741 C 43.036 136.257, 44.544 131.690, 46.622 130.328 C 48.787 128.910, 49.228 128.920, 51.550 130.441 C 53.188 131.514, 53.911 132.717, 53.573 133.806 C 51.279 141.194, 51.130 153.558, 53.309 155.737 C 55.364 157.793, 61.988 159.077, 64.261 157.860 C 66.029 156.914, 66.106 155.971, 65.443 143.444 C 64.826 131.807, 64.937 129.961, 66.288 129.443 C 68.703 128.516, 72.028 130.824, 73.559 134.488 C 74.996 137.927, 79.318 142, 81.531 142 C 82.224 142, 84.536 139.934, 86.667 137.408 C 89.339 134.244, 91.313 132.814, 93.022 132.807 C 101.231 132.772, 117.298 134.497, 118.766 135.571 C 120.189 136.611, 120.500 138.454, 120.500 145.843 C 120.500 153.425, 120.832 155.294, 122.599 157.674 C 124.960 160.853, 129.062 161.835, 130.871 159.655 C 131.531 158.860, 132.553 154, 133.141 148.855 C 133.760 143.452, 134.816 138.866, 135.643 138 C 136.701 136.891, 139.473 136.481, 146.287 136.428 C 151.354 136.388, 156.444 136.042, 157.598 135.659 C 161.457 134.377, 162.768 127.339, 159.717 124.288 C 158.949 123.521, 154.254 122.924, 147.078 122.683 C 136.610 122.332, 135.506 122.108, 133.798 119.998 C 132.773 118.733, 132.085 117.246, 132.269 116.694 C 132.976 114.573, 141.430 112.895, 148.696 113.433 C 154.388 113.854, 156.217 113.640, 157.446 112.411 C 159.347 110.510, 159.216 111.749, 159.489 93 C 159.612 84.475, 160.056 75.634, 160.475 73.354 C 161.061 70.156, 160.826 68.513, 159.444 66.175 C 157.353 62.635, 155.630 62.034, 147.500 62.008 C 136.104 61.972, 130.158 58.720, 134.725 55.022 C 136.965 53.208, 146.840 52.909, 154.640 54.419 C 158.159 55.100, 159.096 54.904, 160.890 53.110 C 162.228 51.772, 163 49.727, 163 47.523 C 163 41.935, 159.903 40.574, 147.095 40.534 C 141.268 40.515, 135.931 40.132, 135.235 39.682 C 134.539 39.232, 133.339 37.354, 132.568 35.509 C 130.770 31.205, 126.839 28.573, 123.472 29.418 C 119.832 30.331, 119.120 33.305, 120.098 43.506 C 120.572 48.453, 120.707 53.745, 120.397 55.267 C 119.763 58.381, 115.695 60.969, 111.300 61.054 C 106.258 61.152, 99.679 64.353, 97.318 67.856 C 95.330 70.806, 95.083 72.420, 95.099 82.338 C 95.109 88.477, 94.641 95.072, 94.059 96.993 C 92.376 102.546, 92.766 104.311, 96.668 108.790 C 100.301 112.961, 100.398 113, 107.102 113 C 113.998 113, 118.902 114.224, 120.159 116.257 C 120.544 116.880, 119.995 118.602, 118.940 120.085 C 117.056 122.729, 116.863 122.770, 108.615 122.256 C 103.559 121.940, 98.925 122.179, 96.985 122.855 C 92.758 124.329, 87.848 122.108, 84.945 117.411 C 82.803 113.946, 81.293 113.611, 77.423 115.742 C 74.381 117.417, 69.822 117.841, 67.250 116.688 C 66.013 116.133, 65 115.373, 65 115 C 65 114.627, 63.884 113.812, 62.520 113.191 C 60.901 112.453, 60.243 111.529, 60.627 110.530 C 60.960 109.663, 60.676 109, 59.972 109 C 59.289 109, 60.028 107.996, 61.615 106.768 C 63.202 105.541, 64.636 104.232, 64.803 103.861 C 64.969 103.489, 65.972 102.185, 67.032 100.963 C 68.091 99.742, 68.716 98.350, 68.420 97.871 C 67.273 96.015, 68.956 97.177, 73.624 101.462 C 79.085 106.477, 81.274 107.195, 85.250 105.276 C 88.291 103.808, 88.469 102.745, 86.985 94.921 C 85.650 87.880, 82.584 81.747, 79.767 80.483 C 77.641 79.528, 72.149 80.518, 70.517 82.150 C 69.784 82.883, 68.804 86.977, 68.838 89.169 C 68.867 91.059, 65.727 92.682, 65.186 91.057 C 64.992 90.476, 63.576 90, 62.039 90 C 58.850 90, 57.286 88.483, 56.057 84.199 C 55.071 80.760, 57.852 75, 60.499 75 C 62.905 75, 70.597 70.054, 68.321 69.970 C 67.870 69.953, 68.287 69.481, 69.250 68.920 C 70.213 68.359, 71 67.300, 71 66.566 C 71 65.833, 73.491 64.221, 76.534 62.986 C 84.575 59.723, 86.394 54.666, 81.343 49.616 C 75.952 44.225, 69.678 45.038, 66.632 51.523 C 64.315 56.456, 63.538 56.966, 58.307 56.985 C 55.160 56.996, 53.744 56.472, 52.632 54.885 C 50.882 52.387, 51.442 50.312, 54.092 49.471 C 55.142 49.138, 56 48.181, 56 47.346 C 56 46.510, 58.475 43.371, 61.500 40.370 C 67.618 34.301, 68.325 31.593, 64.686 28.174 C 61.625 25.299, 57.473 25.389, 54.705 28.390 M 112.869 74.440 C 109.042 76.621, 108.629 78.720, 111.468 81.558 C 113.649 83.740, 114.544 83.952, 119.707 83.514 C 122.893 83.243, 129.772 82.804, 134.993 82.538 C 142.433 82.159, 144.759 81.683, 145.743 80.336 C 147.658 77.718, 147.318 77.033, 143.250 75.307 C 137.820 73.003, 116.459 72.393, 112.869 74.440 M 113.250 96.129 C 109.545 97.187, 109.255 98.016, 111.786 100.307 C 113.253 101.634, 116.311 101.947, 128.860 102.053 C 142.634 102.170, 144.281 102, 145.512 100.341 C 147.913 97.105, 145.055 95.498, 137.226 95.681 C 133.527 95.768, 128.094 95.892, 125.153 95.956 C 122.212 96.020, 119.062 95.877, 118.153 95.637 C 117.244 95.397, 115.037 95.619, 113.250 96.129" stroke="none" fill="black" fill-rule="evenodd"/>
</svg>