<svg xmlns="http://www.w3.org/2000/svg" width="256" height="256" viewBox="0 0 256 256" version="1.1">
	<path d="M 67.718 23.845 C 64.336 25.181, 62.014 30.152, 62.007 36.068 C 61.998 43.077, 59.662 51.092, 56.900 53.586 C 52.646 57.428, 48.138 65.371, 48.668 68.092 C 49.189 70.767, 48.612 71.625, 43.256 76.131 C 38.922 79.778, 37.275 82.854, 36.502 88.746 C 35.920 93.180, 36.079 94.093, 37.534 94.651 C 39.612 95.449, 51.254 91.863, 59.485 87.889 C 62.777 86.300, 66.377 85.002, 67.485 85.004 C 70.395 85.009, 76.254 88.831, 75.574 90.280 C 75.259 90.951, 74.727 92.273, 74.393 93.217 C 74.058 94.161, 72.926 95.206, 71.878 95.539 C 70.829 95.872, 70.210 96.531, 70.502 97.003 C 70.794 97.475, 70.578 98.143, 70.022 98.487 C 67.032 100.334, 67.199 102.608, 70.612 106.533 C 77.291 114.215, 75.976 117.409, 64.819 120.600 C 61.694 121.494, 58.168 123.257, 56.983 124.518 L 54.829 126.811 58.646 129.406 C 60.746 130.833, 62.963 132, 63.572 132 C 64.181 132, 65.144 133.020, 65.711 134.266 C 66.596 136.208, 66.196 137.149, 62.900 140.863 C 60.362 143.722, 57.618 145.619, 54.826 146.443 C 49.855 147.911, 47.988 150.166, 49.606 152.750 C 51.921 156.447, 63.079 155.074, 70.451 150.185 C 72.678 148.708, 75.731 146.865, 77.235 146.089 C 79.162 145.095, 80.162 143.619, 80.622 141.089 C 81.702 135.146, 84.997 129, 87.103 129 C 90.636 129, 93.855 132.986, 95.078 138.875 L 96.237 144.460 92.119 148.007 C 87.511 151.976, 86.893 154.893, 90 158 C 93.829 161.829, 103.792 159.991, 107.439 154.783 C 108.317 153.530, 109 150.495, 109 147.849 C 109 144.999, 109.592 142.551, 110.500 141.643 C 111.325 140.818, 112 139.505, 112 138.726 C 112 137.400, 115.014 134, 116.189 134 C 116.482 134, 116.988 136.250, 117.314 138.999 C 118.042 145.147, 120.414 148.576, 125 150.110 C 126.925 150.754, 130.722 152.342, 133.437 153.640 C 144.050 158.713, 153.568 154.640, 146.537 148.035 C 145.183 146.763, 143.202 145.222, 142.135 144.611 C 134.635 140.318, 127 134.337, 127 132.756 C 127 129.432, 131.770 128.707, 142.238 130.439 C 146.271 131.107, 147.077 130.963, 147.648 129.476 C 148.585 127.033, 147.011 124.959, 142.430 122.598 C 140.268 121.485, 136.312 118.430, 133.638 115.810 C 129.105 111.369, 128.817 110.791, 129.387 107.273 C 130.269 101.820, 130.272 102.062, 129.264 95.280 C 128.216 88.233, 128.826 87, 133.358 87 C 135.289 87, 138.158 88.422, 141.628 91.099 C 147.673 95.762, 152.788 97.319, 157.114 95.810 C 162.505 93.931, 162.895 90.373, 158.739 81 C 157.642 78.525, 156.438 76.275, 156.064 76 C 153.627 74.208, 152.255 70.516, 152.725 67.015 L 153.240 63.175 145.480 58.837 C 131.519 51.034, 128.381 46.796, 129.659 37.471 C 130.133 34.011, 129.852 32.852, 128.120 31.120 C 124.475 27.475, 120 28.925, 120 33.750 C 120 36.686, 117.322 42, 115.842 42 C 115.234 42, 113.226 41.067, 111.380 39.926 C 109.534 38.785, 105.431 37.429, 102.262 36.913 C 99.093 36.397, 95.043 35.705, 93.263 35.376 C 88.785 34.547, 85.605 35.530, 81.715 38.945 C 77.091 43.005, 75.743 41.804, 74.926 32.897 C 74.440 27.587, 73.779 25.312, 72.441 24.333 C 70.421 22.856, 70.261 22.840, 67.718 23.845 M 42.033 34.315 C 38.851 35.927, 35.596 40.504, 36.309 42.364 C 37.818 46.296, 46.747 49.110, 49.376 46.481 C 54.094 41.764, 47.827 31.380, 42.033 34.315 M 147.115 38.580 C 144.586 41.796, 144.572 41.945, 146.557 44.777 C 148.770 47.937, 153.453 47.764, 155.629 44.443 C 157.217 42.020, 157.200 41.744, 155.302 39.193 C 152.554 35.499, 149.707 35.286, 147.115 38.580 M 78.309 49.636 C 77.199 52.530, 79.431 54.482, 84.214 54.799 C 87.975 55.049, 88.942 55.546, 90.041 57.799 C 91.722 61.247, 91.822 62.111, 90.787 64.240 C 90.058 65.737, 85.045 69.041, 83.500 69.041 C 82.295 69.041, 77.254 66.011, 76.055 64.566 C 74.520 62.716, 69.169 62.550, 66.913 64.282 C 64.118 66.428, 62.820 69.796, 63.965 71.935 C 64.896 73.674, 66.160 73.872, 76.410 73.885 C 83.503 73.893, 90.115 74.493, 93.889 75.471 C 99.271 76.866, 100.358 76.877, 103.479 75.573 C 107.324 73.967, 107.982 71.680, 105.532 68.441 C 104.724 67.374, 104.049 65.442, 104.032 64.150 C 103.996 61.479, 109.921 55, 112.400 55 C 115.533 55, 113.927 52.897, 109.250 50.876 C 102.135 47.800, 98.736 47.535, 92.983 49.603 C 88.100 51.359, 87.701 51.365, 84.843 49.725 C 81.078 47.564, 79.115 47.537, 78.309 49.636 M 126 66.906 C 124.076 67.953, 122.159 68.598, 121.741 68.340 C 120.373 67.495, 117 69.101, 117 70.599 C 117 72.357, 117.989 72.774, 126.139 74.453 C 133.060 75.880, 137.357 75.070, 138.982 72.033 C 139.690 70.711, 139.363 69.750, 137.663 68.153 C 134.411 65.098, 130.161 64.644, 126 66.906 M 97.248 93.674 C 94.909 96.234, 93.109 98.419, 93.248 98.529 C 94.637 99.631, 98.250 101, 99.769 101 C 102.428 101, 113.811 97.170, 116.617 95.331 C 118.670 93.986, 118.772 93.629, 117.474 92.331 C 116.663 91.520, 116 90.439, 116 89.929 C 116 89.418, 112.737 89.004, 108.750 89.009 L 101.500 89.019 97.248 93.674 M 105.788 113.348 C 98.369 116.143, 97.068 117.431, 100.052 119.028 C 102.318 120.241, 114.682 119.903, 118.115 118.534 C 120.011 117.778, 121.884 114.042, 121.265 112.250 C 120.597 110.316, 112.264 110.907, 105.788 113.348" stroke="none" fill="black" fill-rule="evenodd"/>
</svg>