<svg xmlns="http://www.w3.org/2000/svg" width="256" height="256" viewBox="0 0 256 256" version="1.1">
	<path d="M 49.923 31.084 C 47.849 33.330, 44.971 37.584, 43.526 40.537 C 41.533 44.610, 40.110 46.193, 37.635 47.087 L 34.371 48.268 35.083 53.512 C 35.744 58.387, 37.699 62.643, 40.737 65.821 C 41.432 66.548, 42 68.386, 42 69.905 C 42 71.424, 42.338 73.004, 42.750 73.417 C 44.178 74.845, 43.493 76.513, 40.254 79.493 C 38.464 81.139, 36.997 82.939, 36.992 83.493 C 36.988 84.047, 35.245 85.493, 33.118 86.708 C 30.793 88.035, 28.479 90.476, 27.315 92.828 L 25.379 96.741 28.299 99.456 C 31.013 101.980, 31.629 102.123, 37.059 101.493 C 42.883 100.817, 42.908 100.825, 46.199 104.590 C 48.015 106.666, 49.345 108.845, 49.155 109.432 C 48.966 110.020, 48.741 112.065, 48.655 113.978 C 48.442 118.758, 44.808 120.119, 39.115 117.552 C 34.151 115.313, 26.065 116.083, 25.894 118.811 C 25.436 126.111, 28.611 139.722, 31.080 141.043 C 34.163 142.693, 37.871 140.466, 39.893 135.749 C 42.305 130.124, 44.238 128.522, 46.897 129.945 C 48.710 130.915, 48.877 131.783, 48.496 138.264 C 48.262 142.244, 48.019 145.950, 47.956 146.500 C 47.616 149.482, 49.075 156.437, 50.198 157.186 C 52.208 158.526, 57.304 157.231, 59.252 154.884 C 60.747 153.083, 60.959 151.035, 60.699 140.887 L 60.393 129 63.625 129 C 67.178 129, 69.697 130.945, 70.552 134.349 C 71.178 136.847, 75.586 139.123, 80.913 139.700 C 85.073 140.151, 90.737 145, 87.103 145 C 85.741 145, 85.171 145.623, 85.275 147 C 85.358 148.100, 85.950 149, 86.590 149 C 87.231 149, 88.315 149.675, 89 150.500 C 90.951 152.850, 93.729 152.267, 95.590 149.118 C 96.526 147.532, 98.655 145.620, 100.321 144.868 C 103.561 143.404, 104.099 142.699, 106.700 136.500 C 109.618 129.546, 109.183 129.037, 100.301 129.015 C 94.652 129.001, 93.845 129.275, 91.213 132.091 C 88.520 134.972, 88.212 135.069, 86.662 133.519 C 85.748 132.605, 85 131.207, 85 130.413 C 85 128.468, 78.968 117.794, 77.043 116.333 C 76.198 115.691, 75.054 115.503, 74.503 115.915 C 73.951 116.328, 71.419 116.771, 68.875 116.900 C 65.162 117.089, 63.732 116.656, 61.625 114.703 C 58.401 111.715, 58.256 108.059, 61.250 105.250 C 64.787 101.931, 66 100.208, 66 98.503 C 66 97.201, 66.386 97.282, 68.189 98.961 C 69.392 100.082, 70.790 101, 71.295 101 C 73.172 101, 76.517 106.543, 77 110.455 L 77.500 114.500 83.391 114.670 C 86.632 114.763, 89.557 115.213, 89.891 115.670 C 91.793 118.264, 97.316 119.935, 105.443 120.374 C 114.665 120.872, 116.169 121.475, 115.997 124.601 C 115.844 127.390, 115.938 132.197, 116.384 144.365 C 116.891 158.218, 118.139 160.351, 125.999 160.807 L 131.296 161.115 130.522 151.807 C 130.096 146.688, 129.863 141.375, 130.004 140 C 130.145 138.625, 130.314 136.488, 130.380 135.250 C 130.446 134.012, 130.865 133, 131.310 133 C 132.395 133, 131.438 127.233, 130.083 125.599 C 129.287 124.640, 129.510 123.849, 130.941 122.554 C 132.527 121.118, 133.470 120.987, 136.187 121.822 C 140.609 123.182, 152.825 123.206, 156.217 121.861 C 161.361 119.823, 161.088 113.244, 155.723 109.973 C 153.950 108.892, 151.713 108.006, 150.750 108.004 C 148.650 107.999, 148.419 106.160, 150.423 105.391 C 153.153 104.343, 152.860 102.104, 149.397 97.568 C 147.478 95.056, 146.209 93, 146.577 93 C 146.944 93, 146.700 92.343, 146.033 91.540 C 145.028 90.329, 145.177 90.149, 146.911 90.483 C 148.060 90.704, 149 90.461, 149 89.943 C 149 89.424, 149.852 89, 150.894 89 C 151.936 89, 154.111 87.762, 155.727 86.250 C 158.591 83.570, 158.643 83.348, 157.777 77.500 C 156.668 70.004, 156.632 67.696, 157.535 61.770 C 158.089 58.134, 157.871 56.452, 156.594 54.503 C 155.060 52.162, 154.395 51.978, 147.971 52.110 C 140.371 52.266, 138 51.166, 138 47.485 C 138 44.602, 139.643 44, 147.517 44 C 157.517 44, 161.248 41.508, 159.500 35.999 C 158.250 32.061, 155.565 31.677, 127.003 31.353 C 111.876 31.181, 97.914 30.817, 95.975 30.544 C 90.863 29.825, 86 32.965, 86 36.985 C 86 38.718, 86.896 40.896, 88.107 42.107 C 90.010 44.010, 90.918 44.149, 97.464 43.536 C 103.474 42.972, 104.994 43.137, 106.357 44.500 C 108.420 46.563, 108.443 48.414, 106.429 50.429 C 104.644 52.213, 101.918 52.410, 97.311 51.089 C 91.488 49.419, 83.132 52.744, 83.032 56.772 C 83.014 57.472, 84.854 60.056, 87.119 62.513 C 90.373 66.043, 91.090 67.456, 90.535 69.241 C 90.149 70.483, 89.603 73.586, 89.324 76.136 C 88.839 80.550, 89.031 80.997, 93.351 85.506 C 97.742 90.089, 97.837 90.319, 96.308 92.653 C 95.144 94.429, 94.873 96.485, 95.282 100.445 C 95.819 105.650, 95.743 105.864, 92.937 107.026 C 87.419 109.312, 85.846 107.233, 83.942 95.145 C 82.415 85.448, 79.623 82.116, 72.015 80.913 C 65.892 79.945, 64.528 80.611, 63.651 84.996 C 62.806 89.219, 58.812 90.085, 55.493 86.765 C 53.161 84.434, 52.481 82.436, 52.842 78.986 C 53.005 77.422, 59.147 74.321, 64.006 73.349 C 66.242 72.902, 66.881 72.123, 67.342 69.279 C 67.750 66.763, 69.272 64.515, 72.685 61.381 C 75.309 58.971, 77.804 57, 78.228 57 C 79.135 57, 79.221 53.424, 78.387 50.317 C 78.065 49.116, 76.216 47.381, 74.279 46.462 C 69.628 44.255, 66.413 45.682, 64.169 50.948 C 62.248 55.456, 58.012 57.907, 53.613 57.058 C 49.152 56.196, 48.454 52.817, 52.070 49.595 C 53.682 48.159, 55 46.525, 55 45.963 C 55 45.401, 56.800 42.664, 59 39.881 C 63.511 34.174, 64.035 30.838, 60.777 28.557 C 57.039 25.938, 54.025 26.640, 49.923 31.084 M 120.380 47.452 C 119.668 49.308, 120.707 51, 122.559 51 C 124.117 51, 124.345 50.064, 123.393 47.582 C 122.634 45.603, 121.115 45.538, 120.380 47.452 M 100.500 64.773 C 99.950 65.173, 98.869 66.304, 98.098 67.286 C 96.854 68.869, 97.018 69.409, 99.535 72.036 C 102.723 75.364, 105.741 75.875, 106.706 73.250 C 107.060 72.287, 107.918 71.156, 108.614 70.734 C 109.555 70.164, 109.263 69.354, 107.471 67.562 C 104.726 64.817, 101.961 63.711, 100.500 64.773 M 137.591 67.504 C 135.011 69.723, 134.810 70.289, 135.819 72.503 C 137.336 75.832, 142.987 76.004, 145.961 72.811 C 148.780 69.786, 148.474 68.603, 144.264 66.250 C 141.250 64.566, 140.940 64.624, 137.591 67.504 M 118.683 68.705 L 115.865 69.146 118.484 71.573 C 119.995 72.973, 122.245 73.967, 123.802 73.921 C 125.286 73.878, 125.914 73.607, 125.197 73.320 C 124.224 72.930, 124.350 72.464, 125.695 71.481 C 126.686 70.756, 127.272 69.938, 126.996 69.663 C 126.108 68.774, 121.577 68.252, 118.683 68.705 M 108.500 88.174 C 106.850 88.779, 105.288 89.462, 105.029 89.691 C 104.133 90.486, 107.511 91.969, 110.250 91.985 C 111.763 91.993, 113 92.478, 113 93.063 C 113 94.270, 117.177 93.941, 118.114 92.660 C 118.452 92.198, 121.734 91.753, 125.408 91.671 C 130.357 91.560, 132.330 91.907, 133.028 93.011 C 133.546 93.830, 133.976 93.994, 133.985 93.375 C 133.993 92.756, 135.434 91.963, 137.188 91.612 C 142.711 90.508, 138.988 89.158, 129 88.643 C 123.775 88.374, 117.700 87.911, 115.500 87.614 C 113.300 87.317, 110.150 87.569, 108.500 88.174 M 111 105.893 C 111 107.216, 114.012 108.131, 116.141 107.455 C 119.222 106.477, 118.235 105, 114.500 105 C 112.575 105, 111 105.402, 111 105.893 M 127.250 105.706 C 124.595 106.217, 124.227 108.565, 126.750 108.896 C 129.905 109.309, 139.253 109.080, 139.756 108.578 C 140.026 108.307, 139.981 107.392, 139.655 106.543 C 139.071 105.020, 132.953 104.607, 127.250 105.706 M 141.079 107.583 C 141.127 108.748, 141.364 108.985, 141.683 108.188 C 141.972 107.466, 141.936 106.603, 141.604 106.271 C 141.272 105.939, 141.036 106.529, 141.079 107.583 M 135.238 129.832 C 133.858 130.708, 134.607 137, 136.091 137 C 137.089 137, 143.637 142.787, 149.423 148.781 C 154.598 154.144, 158.880 154.929, 160.377 150.791 C 161.165 148.613, 160.882 147.150, 158.928 143.312 C 157.593 140.688, 155.713 137.744, 154.750 136.771 C 153.787 135.797, 153 133.923, 153 132.607 C 153 131.291, 152.288 129.941, 151.418 129.607 C 149.111 128.721, 136.716 128.894, 135.238 129.832" stroke="none" fill="black" fill-rule="evenodd"/>
</svg>