<svg xmlns="http://www.w3.org/2000/svg" width="256" height="256" viewBox="0 0 256 256" version="1.1">
	<path d="M 39.326 33.396 C 35.222 36.926, 36.768 40.668, 43.705 44 C 46.567 45.375, 48.930 46.966, 48.955 47.536 C 48.980 48.106, 50.787 50.581, 52.972 53.036 C 59.135 59.963, 58.325 64.101, 50.048 67.977 C 45.123 70.284, 42.896 73.405, 44.417 75.866 C 45.730 77.990, 50.855 78.118, 55.671 76.148 C 58.327 75.061, 62.023 73.907, 63.884 73.584 C 67.815 72.901, 71 69.686, 71 66.401 C 71 65.140, 69.200 60.629, 67 56.378 C 64.800 52.126, 63 48.078, 63 47.381 C 63 45.080, 67.344 43, 72.151 43 C 79.234 43, 80 44.269, 80 56.006 C 80 68.073, 79.179 70.582, 74.927 71.516 C 72.583 72.031, 72.102 72.451, 73.117 73.093 C 74.226 73.796, 74.237 73.972, 73.171 73.985 C 71.572 74.003, 72.578 80.060, 74.376 81.235 C 74.994 81.639, 75.130 81.976, 74.679 81.985 C 73.475 82.007, 76.670 85, 77.897 85 C 78.469 85, 78.706 85.601, 78.424 86.337 C 78.096 87.192, 76.758 87.532, 74.706 87.281 C 68.023 86.464, 48.378 86.378, 45.570 87.154 C 42.245 88.073, 41.037 89.536, 41.015 92.672 C 40.999 95.047, 42.793 95.812, 53.500 97.992 C 66.743 100.689, 68.531 102.124, 66.378 108.324 C 65.156 111.842, 63.950 113.053, 58.722 116.008 C 52.867 119.317, 52.468 119.780, 51.660 124.205 C 50.862 128.571, 50.327 129.216, 43.888 133.576 C 37.279 138.050, 34.887 141.391, 36.465 143.943 C 37.223 145.170, 55.619 145.249, 73 144.100 C 89.074 143.037, 91.982 144.373, 92.014 152.832 C 92.041 160.144, 94.403 163, 100.426 163 C 103.286 163, 105.519 158.346, 104.678 154.139 C 103.176 146.631, 109.082 144.777, 135.500 144.464 C 146.500 144.333, 155.852 144.176, 156.282 144.113 C 157.795 143.894, 158.732 139.507, 157.735 137.318 C 155.845 133.169, 149.335 132.090, 132 133.053 C 130.075 133.160, 124.225 132.754, 119 132.151 C 113.775 131.548, 109.388 131.042, 109.250 131.027 C 108.395 130.934, 109.225 127.058, 110.289 126.175 C 112.980 123.942, 120.323 123.097, 128.319 124.099 C 136.473 125.122, 139 124.467, 139 121.334 C 139 120.552, 136.569 117.502, 133.598 114.554 C 123.441 104.478, 124.976 101.441, 139.733 102.423 C 150.756 103.157, 153 102.262, 153 97.131 C 153 94.657, 152.046 92.687, 149.467 89.832 C 146.535 86.586, 146.153 85.680, 147.217 84.496 C 147.923 83.711, 148.950 82.473, 149.500 81.744 C 150.050 81.015, 151.367 79.413, 152.427 78.185 C 154.141 76.199, 154.392 73.990, 154.700 58.226 C 155.103 37.606, 154.733 34.468, 151.707 32.829 C 150.244 32.037, 142.178 31.533, 127.768 31.332 L 106.036 31.030 102.398 34.224 C 98.303 37.819, 96.130 38.502, 95.339 36.441 C 95.043 35.671, 93.331 34.131, 91.533 33.020 C 88.500 31.146, 86.596 31, 65.188 31 C 42.282 31, 42.091 31.018, 39.326 33.396 M 97.069 42.771 C 95.786 44.145, 95.430 46.933, 93.656 69.500 C 93.280 74.293, 94.581 78.625, 96.633 79.413 C 97.455 79.728, 97.867 80.407, 97.549 80.921 C 97.003 81.805, 100.085 83.312, 102.704 83.441 C 103.366 83.473, 104.491 84.206, 105.204 85.069 C 105.917 85.932, 108.413 87.463, 110.750 88.471 C 114.767 90.203, 115.280 90.213, 120.115 88.652 C 122.928 87.743, 126.491 87, 128.033 87 C 129.575 87, 131.548 86.727, 132.418 86.393 C 134.095 85.749, 134.658 81, 133.057 81 C 132.539 81, 132.300 80.036, 132.527 78.858 C 132.923 76.801, 132.694 76.742, 126.720 77.366 C 116.450 78.437, 112.550 79.138, 111.550 80.093 C 110.378 81.212, 102 81.305, 102 80.200 C 102 79.760, 102.540 78.860, 103.200 78.200 C 103.860 77.540, 104.073 77, 103.674 77 C 101.610 77, 106.586 70.701, 109.795 69.252 C 114.799 66.993, 117 65.047, 117 62.884 C 117 60.683, 113.235 57, 110.986 57 C 108.766 57, 105 52.835, 105 50.381 C 105 49.286, 103.532 46.788, 101.737 44.829 C 98.862 41.690, 98.307 41.445, 97.069 42.771 M 122.482 45.030 C 120.677 47.950, 133.519 63.351, 137.309 62.812 C 141.779 62.176, 142.609 48.381, 138.364 45.277 C 136.267 43.743, 123.400 43.543, 122.482 45.030 M 103.500 102.174 C 99.773 103.430, 96.586 103.717, 90.981 103.299 C 79.511 102.445, 79.077 103.671, 85.712 118.169 C 85.881 118.538, 85.275 119.582, 84.366 120.491 C 82.996 121.861, 81.487 122.029, 75.551 121.473 C 68.763 120.837, 68.223 120.942, 65.195 123.490 C 63.438 124.968, 62 126.836, 62 127.640 C 62 129.251, 68.542 132.401, 70.008 131.495 C 70.514 131.182, 73.597 131.618, 76.858 132.463 C 84.778 134.516, 85.026 134.482, 89.026 130.829 C 91.725 128.364, 93.609 127.569, 97.499 127.254 C 104.876 126.657, 105.021 126.562, 103.996 122.985 C 102.774 118.726, 104.136 115.707, 108.420 113.180 C 110.389 112.018, 112 110.432, 112 109.656 C 112 108.880, 112.612 107.737, 113.360 107.116 C 114.110 106.494, 114.515 104.913, 114.262 103.593 C 113.661 100.447, 110.039 99.970, 103.500 102.174" stroke="none" fill="black" fill-rule="evenodd"/>
</svg>