<svg xmlns="http://www.w3.org/2000/svg" width="256" height="256" viewBox="0 0 256 256" version="1.1">
	<path d="M 80.830 29.774 C 79.362 30.742, 77.021 32.764, 75.628 34.267 C 72.691 37.436, 72.044 37.507, 64.339 35.500 C 61.171 34.675, 54.910 34, 50.425 34 C 43.636 34, 41.819 34.354, 39.580 36.115 C 34.398 40.192, 38.383 45.390, 47.500 46.445 C 50.250 46.764, 54.664 47.520, 57.308 48.126 C 60.983 48.968, 63.196 48.925, 66.698 47.945 C 70.827 46.789, 71.409 46.838, 72.586 48.448 C 73.675 49.938, 73.632 50.631, 72.331 52.617 C 70.479 55.444, 68.246 55.622, 64.148 53.270 C 61.271 51.619, 60.874 51.629, 55.441 53.475 C 45.414 56.884, 43.214 60.053, 46.501 66.354 C 48.287 69.780, 48.010 70.357, 43.771 72.034 C 38.211 74.234, 31 79.256, 31 80.928 C 31 84.161, 34.658 85.142, 44.324 84.502 C 49.475 84.160, 54.098 84.302, 54.863 84.825 C 57.127 86.374, 54.128 90.905, 49 93.681 C 43.613 96.598, 40 100.378, 40 103.096 C 40 104.187, 40.900 106.844, 42 109 C 43.100 111.156, 44 114.042, 44 115.413 C 44 119.652, 46.109 122.826, 49.942 124.360 C 54.571 126.212, 56.350 128.322, 55.512 130.963 C 54.741 133.390, 50.132 136, 46.615 136 C 39.924 136, 36.923 139.810, 40.829 143.345 C 42.266 144.646, 44.735 145, 52.361 145 C 62.489 145, 68.508 143.447, 69.621 140.545 C 69.947 139.695, 70.841 139, 71.607 139 C 72.373 139, 73 138.550, 73 138 C 73 135.586, 74.619 137.339, 75.757 140.984 C 77.503 146.580, 77.377 147.265, 74 150.500 C 68.256 156.003, 71.238 160.787, 79.690 159.629 C 86.287 158.725, 87.888 157.436, 90.981 150.542 C 92.538 147.073, 94.327 143.916, 94.959 143.526 C 95.592 143.134, 96.966 143.808, 98.026 145.030 C 99.769 147.039, 100.528 147.181, 106.223 146.556 C 109.675 146.178, 116.550 145.511, 121.500 145.075 C 126.450 144.639, 131.462 143.954, 132.637 143.554 C 136.504 142.237, 136.410 144.982, 132.465 148.596 L 128.714 152.032 132.778 156.016 C 136.130 159.301, 137.535 160, 140.787 160 C 146.624 160, 150 156.973, 150 151.738 C 150 149.473, 150.434 145.118, 150.964 142.060 C 153.597 126.875, 153.952 122.531, 153.358 112.812 L 152.717 102.345 149.350 100.038 C 145.989 97.735, 131.177 94.773, 124.500 95.069 C 118.897 95.318, 117.958 95.003, 116.810 92.483 C 114.296 86.965, 120.522 86.192, 144.474 89.049 C 155.523 90.367, 158.610 90.247, 160.429 88.429 C 162.625 86.232, 162.387 83.516, 159.750 80.704 C 155.668 76.351, 153.060 75.668, 137.690 74.930 C 124.935 74.317, 122.685 73.961, 121.472 72.359 C 120.697 71.337, 120.049 70.211, 120.032 69.858 C 119.970 68.617, 125.594 67.707, 134.689 67.488 C 144.634 67.247, 147.014 66.150, 146.984 61.821 C 146.975 60.545, 145.623 57.974, 143.979 56.109 C 140.507 52.170, 141.066 50.766, 146.830 48.940 C 155.252 46.272, 157.170 42.852, 152.365 39.073 C 149.994 37.208, 148.366 36.999, 136.115 36.989 L 122.500 36.979 117.500 33 C 111.922 28.561, 109.336 28.097, 105.861 30.912 C 103.609 32.736, 103.504 33.372, 103.594 44.662 C 103.646 51.173, 103.836 59.200, 104.016 62.500 C 104.196 65.800, 104.114 73.981, 103.833 80.680 C 103.394 91.194, 102.966 93.584, 100.704 98.155 L 98.083 103.450 101.597 107.960 C 104.068 111.131, 104.922 113.068, 104.474 114.485 C 102.815 119.742, 102.825 121.149, 104.532 123.035 C 105.510 124.116, 107.028 125.010, 107.905 125.022 C 111.352 125.069, 118 128.893, 118 130.829 C 118 133.863, 115.515 135.200, 107.217 136.630 C 101.591 137.599, 99.019 138.545, 97.725 140.121 C 96.749 141.310, 95.661 141.995, 95.308 141.642 C 94.955 141.289, 95.036 141, 95.488 141 C 95.940 141, 95.605 140.212, 94.743 139.250 C 92.848 137.134, 92.327 132.766, 93.387 127.886 C 93.927 125.397, 93.678 122.818, 92.586 119.601 C 90.544 113.588, 90.549 107.594, 92.597 105.546 C 94.809 103.334, 93.926 101.767, 88.348 98.002 C 84.573 95.454, 82.025 94.595, 76.519 94.013 C 72.658 93.605, 70.287 93.210, 71.250 93.136 C 72.213 93.061, 73 92.712, 73 92.360 C 73 92.008, 72.213 91.123, 71.250 90.392 C 69.683 89.203, 69.850 89.060, 72.849 89.032 C 75.280 89.009, 76.992 88.150, 79.095 85.898 C 80.689 84.192, 81.743 82.392, 81.437 81.898 C 81.132 81.404, 81.328 81, 81.874 81 C 82.419 81, 83.151 80.100, 83.500 79 C 83.849 77.900, 84.779 77, 85.567 77 C 86.552 77, 87.007 75.827, 87.024 73.250 C 87.037 71.188, 87.484 67.700, 88.017 65.500 C 88.550 63.300, 89.265 55.087, 89.607 47.248 C 90.139 35.031, 89.994 32.640, 88.591 30.498 C 86.663 27.557, 84.499 27.355, 80.830 29.774 M 121.250 48.664 C 119.662 49.303, 119.633 52.233, 121.200 53.800 C 123.630 56.230, 134 54.500, 134 51.665 C 134 49.620, 124.460 47.374, 121.250 48.664 M 64.500 68.216 C 60.409 69.659, 60.399 69.685, 63.108 71.942 C 66.228 74.540, 67.192 74.489, 69.920 71.585 C 72.176 69.184, 72.177 69.165, 70.160 68.085 C 69.044 67.488, 67.989 67.036, 67.816 67.079 C 67.642 67.122, 66.150 67.634, 64.500 68.216 M 74.813 92.683 C 75.534 92.972, 76.397 92.936, 76.729 92.604 C 77.061 92.272, 76.471 92.036, 75.417 92.079 C 74.252 92.127, 74.015 92.364, 74.813 92.683 M 64.434 108.369 C 62.748 108.991, 60.311 110.205, 59.019 111.066 L 56.669 112.632 60.805 115.566 C 63.662 117.593, 65.395 119.814, 66.410 122.750 C 67.218 125.088, 67.650 127, 67.371 127 C 66.787 127, 70.784 132.831, 72.768 134.872 C 75.761 137.952, 79.516 128.520, 78.632 120.141 C 77.892 113.136, 77 109.862, 75.391 108.250 C 73.895 106.752, 68.666 106.809, 64.434 108.369 M 115.503 110.991 C 114.666 113.626, 115.418 114.660, 119.818 116.923 C 124.503 119.333, 128.919 123.964, 129.504 127.081 C 129.753 128.411, 130.932 130.299, 132.122 131.277 C 134.015 132.829, 134.553 132.878, 136.394 131.660 C 138.194 130.470, 138.573 128.991, 139 121.494 C 139.703 109.156, 139.548 109, 126.511 109 C 117.029 109, 116.080 109.172, 115.503 110.991" stroke="none" fill="black" fill-rule="evenodd"/>
</svg>