<svg xmlns="http://www.w3.org/2000/svg" width="256" height="256" viewBox="0 0 256 256" version="1.1">
	<path d="M 58.923 27.923 C 56.804 30.042, 56 31.811, 56 34.350 C 56 39.592, 52.394 42.041, 44.927 41.873 C 37.879 41.713, 32.658 44.269, 32.203 48.101 C 31.704 52.299, 34.962 54.285, 42.081 54.124 C 45.455 54.048, 48.576 53.762, 49.017 53.489 C 50.415 52.626, 52.784 54.065, 53.316 56.102 C 54.038 58.860, 50.722 60.649, 43.647 61.321 C 37.069 61.946, 34.612 63.615, 32.976 68.572 C 32.143 71.096, 32.181 72.459, 33.131 74.201 C 33.836 75.495, 34.522 81.089, 34.700 87 C 35.031 97.998, 35.940 104.309, 37.978 109.750 C 39.024 112.543, 39.709 113.024, 42.848 113.171 C 49.334 113.475, 50.472 113.624, 52.173 114.396 C 54.942 115.652, 54.966 117.557, 52.252 120.484 C 49.826 123.101, 49.323 123.226, 43.456 122.678 C 35.662 121.950, 30.373 123.302, 29.361 126.281 C 26.936 133.423, 34.207 137.896, 44.790 135.770 C 49.040 134.917, 50.477 134.930, 50.775 135.824 C 50.990 136.471, 51.804 137, 52.583 137 C 54.189 137, 54.186 136.987, 54.553 146.500 C 54.904 155.599, 56.780 161.128, 60.050 162.695 C 66.977 166.015, 69.511 160.485, 67.702 146 C 66.625 137.373, 67.202 137.023, 82.086 137.283 C 94.244 137.496, 94.639 137.433, 101.253 134.250 C 104.967 132.463, 108.631 131, 109.396 131 C 111.268 131, 112 133.227, 112 138.927 C 112 143.811, 110.647 145.930, 106.607 147.372 C 105.566 147.743, 104.999 148.333, 105.348 148.682 C 105.697 149.030, 105.514 149.881, 104.941 150.571 C 103.426 152.397, 106.328 158.737, 109.299 160.090 C 111.280 160.993, 112.592 160.734, 116.780 158.612 C 119.573 157.196, 122.191 155.500, 122.598 154.842 C 123.005 154.184, 123.429 151.138, 123.540 148.073 C 123.652 145.008, 123.801 142.172, 123.871 141.770 C 124.028 140.882, 131.481 137, 133.030 137 C 133.640 137, 136.102 135.650, 138.500 134 C 140.898 132.350, 143.304 131, 143.847 131 C 144.389 131, 145.035 130.438, 145.282 129.750 C 146.246 127.066, 150 133.177, 150 137.431 C 150 142.740, 148.105 145.352, 143.184 146.827 C 138.584 148.205, 137.235 151.184, 139.586 154.772 C 142.707 159.536, 152.495 160.595, 157.367 156.696 C 160.035 154.561, 160.277 153.771, 160.867 145.269 C 161.493 136.240, 161.539 130.953, 161.180 109.500 C 161.079 103.450, 161.149 97.629, 161.334 96.563 C 161.520 95.498, 161.276 92.573, 160.793 90.063 C 159.392 82.791, 159.750 72.137, 161.565 67.089 C 164.371 59.287, 162.297 56.283, 145.970 44.500 C 144.445 43.400, 141.195 40.813, 138.746 38.750 C 136.297 36.688, 133.945 35, 133.518 35 C 133.091 35, 130.856 32.975, 128.551 30.500 C 124.152 25.776, 120.968 24.840, 117.622 27.287 C 115.616 28.754, 107.504 40.025, 103.017 47.581 C 101.358 50.376, 98.762 53.278, 97.250 54.032 C 95.737 54.785, 93.150 56.600, 91.500 58.066 C 87.750 61.398, 83.055 63, 77.039 63 C 71.949 63, 68 60.415, 68 57.083 C 68 53.762, 70.839 52.554, 78.710 52.526 C 85.333 52.503, 86.392 52.233, 88.088 50.139 C 90.616 47.018, 90.565 41.821, 87.984 39.485 C 86.156 37.831, 85.358 37.773, 79.469 38.858 C 70.583 40.495, 68.469 39.379, 68.954 33.305 C 69.143 30.930, 67.372 26.948, 65.600 25.765 C 63.585 24.420, 61.873 24.973, 58.923 27.923 M 119.349 48.750 C 117.944 50.263, 115.881 53.300, 114.765 55.500 C 113.649 57.700, 111.220 61.189, 109.368 63.253 C 105.674 67.369, 105.385 68.258, 107.250 69.765 C 110.034 72.014, 146.056 73.411, 148.836 71.378 C 151.239 69.621, 147.892 61.906, 143.197 58.381 C 141.164 56.854, 137.250 53.449, 134.500 50.815 C 130.334 46.823, 128.867 46.023, 125.702 46.012 C 122.836 46.003, 121.278 46.674, 119.349 48.750 M 60.041 73.251 C 45.394 75.157, 43.901 79.923, 57.095 82.654 C 61.166 83.496, 64.722 84.521, 64.998 84.931 C 65.814 86.142, 69.952 86.887, 70.544 85.930 C 71.717 84.031, 71.919 78.368, 70.904 75.845 C 69.575 72.540, 68.137 72.197, 60.041 73.251 M 87.112 77.790 C 86.585 78.775, 86.007 83.162, 85.827 87.540 C 85.529 94.796, 85.667 95.500, 87.391 95.500 C 88.431 95.500, 89.781 94.600, 90.391 93.500 C 91.001 92.400, 91.725 91.275, 92 91 C 94.960 88.040, 95.058 82.605, 92.231 78.250 C 90.472 75.540, 88.415 75.356, 87.112 77.790 M 125.500 82.814 C 122.592 83.421, 121.965 85.031, 123.488 87.976 C 125.183 91.255, 128.330 92.928, 133.796 93.458 C 136.787 93.747, 139.169 94.820, 141.636 96.985 C 146.044 100.856, 147.785 99.881, 147.305 93.811 C 146.890 88.556, 146.324 87.982, 140.871 87.278 C 138.467 86.968, 135.375 85.947, 134 85.009 C 131.009 82.969, 128.214 82.247, 125.500 82.814 M 105.245 86.447 C 102.504 88.754, 102.289 89.348, 103.022 92.597 C 103.468 94.575, 104.883 97.387, 106.166 98.847 C 107.450 100.306, 108.610 101.685, 108.744 101.911 C 108.878 102.136, 109.868 101.524, 110.944 100.550 C 112.551 99.097, 112.882 97.546, 112.793 91.890 C 112.733 88.100, 112.342 85, 111.924 85 C 111.506 85, 110.515 84.751, 109.722 84.447 C 108.929 84.142, 106.914 85.043, 105.245 86.447 M 64.500 92.697 C 62.300 93.502, 58.250 94.396, 55.500 94.683 C 52.750 94.970, 49.707 95.965, 48.737 96.893 C 47.182 98.383, 47.143 98.813, 48.407 100.541 C 49.689 102.291, 50.975 102.485, 60.481 102.356 C 66.333 102.277, 71.318 102.016, 71.558 101.775 C 72.157 101.176, 72.373 96.826, 71.893 95.024 C 71.498 93.540, 69.421 90.899, 68.821 91.117 C 68.645 91.181, 66.700 91.892, 64.500 92.697 M 86.629 104.103 C 86.288 105.809, 86.258 107.609, 86.563 108.103 C 86.868 108.596, 86.641 109, 86.059 109 C 85.477 109, 85 109.686, 85 110.525 C 85 112.801, 81.235 113.765, 74.384 113.244 C 68.885 112.826, 68.108 113.007, 66.682 115.044 C 65.654 116.511, 65.396 117.872, 65.949 118.905 C 66.419 119.782, 66.773 120.725, 66.737 121 C 66.700 121.275, 67.303 122.513, 68.076 123.750 C 69.613 126.212, 72.894 126.706, 74.832 124.768 C 75.603 123.997, 79.508 123.478, 85.282 123.380 C 90.352 123.294, 95.850 122.792, 97.500 122.264 C 100.581 121.279, 103.492 121.352, 108.172 122.530 C 110.433 123.100, 111.059 122.766, 112.245 120.352 C 113.768 117.254, 113.582 115.174, 111.358 110.398 C 109.926 107.325, 109.845 107.298, 102.555 107.398 C 95.501 107.496, 95.069 107.366, 92.090 104.250 C 88.230 100.213, 87.412 100.191, 86.629 104.103 M 141.500 108 C 140.400 108.473, 136.964 108.891, 133.865 108.930 C 129.020 108.990, 128.004 109.346, 126.615 111.465 C 124.615 114.517, 124.548 118.008, 126.439 120.559 C 127.664 122.211, 128.183 122.314, 129.926 121.250 C 132.715 119.547, 137.479 119.679, 141.117 121.560 C 146.562 124.376, 148.095 122.933, 148.301 114.797 C 148.360 112.488, 147.698 110.324, 146.543 109.047 C 144.501 106.791, 144.374 106.765, 141.500 108" stroke="none" fill="black" fill-rule="evenodd"/>
</svg>