<svg xmlns="http://www.w3.org/2000/svg" width="256" height="256" viewBox="0 0 256 256" version="1.1">
	<path d="M 42.070 30.595 C 38.945 33.224, 38.819 33.590, 39.548 37.931 C 39.971 40.444, 40.237 45.949, 40.141 50.164 C 39.977 57.363, 40.127 57.955, 42.618 59.914 C 44.076 61.061, 45.776 62, 46.395 62 C 48.947 62, 53 67.090, 52.997 70.290 C 52.993 73.741, 47.974 81.946, 42.250 87.856 C 37.466 92.796, 37.766 96.357, 43.188 98.977 C 45.491 100.089, 47.936 101, 48.620 101 C 49.305 101, 50.151 101.900, 50.500 103 C 50.849 104.100, 51.554 105, 52.067 105 C 53.768 105, 53.034 107.891, 50.807 109.965 C 49.601 111.089, 46.674 112.948, 44.303 114.095 C 39.586 116.379, 38.499 118.627, 39.394 124.253 C 39.770 126.620, 39.307 129.059, 37.947 131.873 C 34.996 137.981, 34.594 141.375, 36.024 148.111 C 37.583 155.460, 38.974 157, 44.052 157 C 47.448 157, 48.049 156.651, 48.627 154.349 C 48.993 152.891, 48.806 150.919, 48.212 149.968 C 47.585 148.964, 47.362 145.983, 47.681 142.869 C 48.314 136.698, 48.307 136.452, 47.417 132.715 C 46.606 129.309, 48.788 126.555, 53.541 124.986 C 56.101 124.142, 58.035 124.240, 62.170 125.426 C 65.180 126.289, 69.458 126.745, 72 126.474 C 77.498 125.887, 82.772 127.660, 80.638 129.378 C 79.387 130.384, 78.105 135.145, 77.662 140.428 C 77.558 141.660, 79.025 143.436, 81.725 145.350 C 85.313 147.893, 86.309 148.180, 88.335 147.257 C 91.808 145.675, 93.412 138.688, 91.648 132.826 C 90.536 129.131, 90.548 127.792, 91.722 124.463 C 92.876 121.190, 92.904 119.455, 91.880 114.500 C 91.199 111.200, 89.935 107.952, 89.071 107.282 C 85.338 104.387, 78.880 106.625, 76.501 111.639 C 74.873 115.069, 74.328 115.368, 70.063 115.169 C 61.571 114.771, 63.867 103.461, 72.935 101.017 C 76.194 100.138, 78.598 98.597, 84.238 93.770 C 86.041 92.227, 86.123 91.710, 84.993 88.982 C 82.684 83.409, 76.470 82.126, 70.864 86.065 C 69.014 87.364, 67.350 88.782, 67.167 89.214 C 66.983 89.646, 65.123 90, 63.033 90 C 59.760 90, 59.166 89.649, 58.748 87.464 C 58.428 85.786, 58.845 84.518, 59.983 83.714 C 62.484 81.948, 65 76.575, 65 73.002 C 65 69.412, 69.084 64.997, 72.396 65.006 C 73.553 65.009, 77.185 65.451, 80.467 65.989 C 83.748 66.526, 89.623 67.027, 93.521 67.103 C 97.582 67.182, 101.375 67.801, 102.404 68.553 C 104.224 69.885, 104.905 75.727, 103.503 77.995 C 103.120 78.615, 102.590 80.496, 102.325 82.176 C 102.036 84.009, 100.278 86.719, 97.922 88.959 C 94.925 91.810, 93.981 93.494, 93.918 96.095 C 93.873 97.968, 93.639 100.687, 93.399 102.137 C 93.049 104.249, 93.427 104.890, 95.297 105.360 C 100.828 106.748, 104.540 112.385, 103.176 117.325 C 102.039 121.444, 102.520 127.734, 105.090 142.328 C 105.822 146.487, 105.801 148.535, 105.015 149.482 C 103.765 150.988, 104.534 155.372, 106.642 158.750 C 108.356 161.496, 111.069 161.602, 115.864 159.111 C 121.151 156.364, 131.560 154.745, 137.104 155.806 C 139.636 156.291, 142.786 156.570, 144.104 156.427 C 145.422 156.284, 149.055 156.129, 152.179 156.083 C 158.874 155.985, 161 154.387, 161 149.452 C 161 144.786, 157.619 142.551, 152 143.500 C 147.635 144.238, 143 142.228, 143 139.597 C 143 138.851, 145.025 136.582, 147.500 134.554 C 149.975 132.525, 152 130.268, 152 129.537 C 152 128.805, 150.425 126.824, 148.500 125.134 C 146.232 123.143, 145 121.171, 145 119.531 C 145 118.139, 145.350 117, 145.777 117 C 146.205 117, 148.001 115.678, 149.770 114.063 C 153.888 110.301, 153.251 108.674, 146.334 105.287 C 141.640 102.989, 140.944 102.280, 141.202 100.064 C 141.491 97.581, 141.751 97.491, 149.453 97.204 C 153.827 97.042, 157.989 96.424, 158.703 95.832 C 162.428 92.740, 157.685 85, 152.066 85 C 146.350 85, 141.605 82.308, 139.743 78.010 C 137.399 72.600, 138.646 69.470, 143.702 68.066 C 145.791 67.486, 148.052 67.009, 148.727 67.006 C 149.402 67.003, 150.647 65.942, 151.494 64.649 C 152.681 62.837, 153.010 59.572, 152.926 50.413 C 152.813 37.923, 152.277 35.754, 148.851 33.920 C 146.763 32.803, 132.120 31.867, 112 31.566 C 98.077 31.357, 54.578 29.170, 49.430 28.420 C 45.960 27.914, 44.874 28.235, 42.070 30.595 M 57.823 41.659 C 53.641 42.377, 52.744 44.144, 54.469 48.271 C 55.913 51.727, 56.113 51.829, 62.127 52.160 C 69.403 52.561, 73.549 51.084, 75.177 47.512 C 77.009 43.490, 74.466 41.642, 66.762 41.398 C 63.318 41.289, 59.295 41.406, 57.823 41.659 M 94 43.988 C 88.673 44.484, 88.490 44.600, 88.191 47.688 C 87.812 51.604, 90.921 54.013, 97.264 54.722 C 102.353 55.290, 107 52.314, 107 48.486 C 107 44.672, 102.684 43.178, 94 43.988 M 120.750 45.080 C 118.605 46.329, 118.462 50.309, 120.501 52 C 124.186 55.059, 136.015 54.009, 137.360 50.505 C 138.248 48.190, 136.880 45.202, 134.658 44.606 C 131.201 43.679, 122.656 43.970, 120.750 45.080 M 118.500 68.843 C 115.919 69.416, 115.457 70.018, 115.196 73.155 C 114.797 77.932, 116.177 83.078, 118.199 84.354 C 119.316 85.059, 121.075 84.995, 123.907 84.146 C 127.256 83.143, 128 82.473, 128 80.460 C 128 79.107, 128.563 77.993, 129.250 77.985 C 130.083 77.974, 130 77.646, 129 77 C 128 76.354, 127.917 76.026, 128.750 76.015 C 130.094 75.999, 130.523 70.442, 129.242 69.650 C 127.665 68.675, 121.382 68.203, 118.500 68.843 M 117 98.048 C 117 98.571, 116.298 99, 115.441 99 C 114.584 99, 114.160 99.450, 114.500 100 C 114.840 100.550, 114.555 101, 113.868 101 C 113.180 101, 113.491 101.661, 114.559 102.468 C 116.899 104.239, 119.230 104.341, 124.411 102.903 C 126.926 102.205, 127.877 101.542, 127.076 101.047 C 126.390 100.623, 125.980 99.920, 126.165 99.484 C 126.349 99.047, 125.600 98.523, 124.500 98.319 C 118.728 97.246, 117 97.183, 117 98.048 M 116.229 116.837 C 115.530 117.281, 115.122 118.736, 115.323 120.072 C 115.625 122.083, 116.343 122.555, 119.499 122.820 C 125.409 123.315, 128 122.336, 128 119.606 C 128 117.767, 127.314 117.113, 124.875 116.625 C 120.691 115.788, 117.769 115.860, 116.229 116.837 M 59.509 133.735 C 56.676 137.137, 56.518 137.802, 56.509 146.360 L 56.500 155.395 59.898 157.697 C 64.218 160.625, 67.076 160.613, 69.854 157.655 C 71.634 155.760, 72.118 153.888, 72.375 147.905 C 72.716 139.937, 71.890 137.357, 67.525 132.750 C 64.189 129.229, 63.156 129.356, 59.509 133.735 M 117.200 136.200 C 115.454 137.946, 115.731 140.788, 117.750 141.850 C 120.999 143.558, 129.947 144.289, 131.530 142.975 C 133.524 141.320, 133.384 138.012, 131.250 136.392 C 129.058 134.728, 118.812 134.588, 117.200 136.200" stroke="none" fill="black" fill-rule="evenodd"/>
</svg>