<svg xmlns="http://www.w3.org/2000/svg" width="256" height="256" viewBox="0 0 256 256" version="1.1">
	<path d="M 53.912 31.363 C 50.358 35.269, 49.357 35.787, 44.368 36.302 C 35.189 37.249, 32.050 42.231, 38.250 46.011 C 40.038 47.101, 42.400 48.010, 43.500 48.032 C 44.600 48.053, 46.559 48.658, 47.854 49.376 C 50.139 50.644, 50.066 50.719, 45.354 51.965 C 31.153 55.718, 27 57.583, 27 60.204 C 27 63.891, 31.699 68.747, 36.740 70.270 C 37.952 70.637, 37.094 72.138, 34.511 74.170 C 33.195 75.205, 31.840 76.929, 31.500 78 C 30.851 80.046, 33.616 87, 35.079 87 C 35.547 87, 36.433 87.941, 37.049 89.091 C 38.226 91.291, 36.677 97, 34.902 97 C 33.277 97, 30.830 101.890, 31.461 103.876 C 31.964 105.462, 33.338 105.984, 38.455 106.532 C 42.451 106.960, 46.132 106.782, 48.340 106.053 C 50.275 105.414, 55.680 104.497, 60.350 104.015 C 69.348 103.087, 74.903 103.962, 82.298 107.471 C 89.136 110.716, 107.051 107.497, 108.574 102.750 C 108.897 101.742, 110.127 101, 111.474 101 C 113.320 101, 113.703 101.421, 113.290 103 C 113.002 104.100, 113.198 105, 113.726 105 C 114.253 105, 114.770 107.812, 114.875 111.250 C 115.041 116.708, 114.743 117.844, 112.524 120.215 C 111.023 121.820, 109.368 122.695, 108.479 122.354 C 106.401 121.556, 104.252 123.578, 103.490 127.047 C 102.037 133.663, 105.637 135.987, 116.506 135.449 C 121.277 135.212, 122.699 134.724, 124.124 132.835 C 126.740 129.367, 128.342 122.540, 127.611 117.971 C 126.724 112.422, 128.110 110.326, 133.237 109.463 C 135.582 109.068, 139.457 107.400, 141.848 105.757 C 145.873 102.991, 146.319 102.890, 147.832 104.403 C 148.965 105.536, 149.466 107.797, 149.466 111.769 C 149.465 118.834, 147.443 122.182, 142.965 122.534 C 138.914 122.853, 138.106 123.805, 138.693 127.563 C 139.228 130.982, 141.763 132.989, 146.267 133.559 C 152.484 134.346, 154.837 139.499, 151.098 144.139 C 149.463 146.168, 147.809 146.645, 139.348 147.531 C 133.932 148.097, 127.925 148.236, 126 147.839 C 124.075 147.442, 116.425 146.937, 109 146.717 C 98.911 146.418, 93.697 145.769, 88.364 144.150 C 80.896 141.883, 80.389 141.343, 79.310 134.534 C 79.051 132.903, 78.467 130.872, 78.011 130.020 C 76.825 127.805, 78.711 125.722, 84.500 122.850 C 89 120.618, 89.531 120.001, 89.810 116.685 C 90.094 113.317, 89.900 113, 87.560 113 C 84.896 113, 84.077 111.539, 86.250 110.662 C 86.938 110.385, 86.008 110.122, 84.184 110.079 C 82.361 110.036, 80.111 110.405, 79.184 110.901 C 78.258 111.396, 76.150 112.024, 74.500 112.295 C 72.850 112.566, 71.050 112.918, 70.500 113.076 C 69.950 113.234, 67.666 112.784, 65.424 112.076 C 61.408 110.807, 48.263 111.048, 39.848 112.546 C 36.920 113.067, 35.780 112.780, 34.098 111.098 C 31.370 108.370, 30.890 108.433, 27.148 112.009 C 23.714 115.291, 23.405 116.601, 25.161 120.453 C 26.250 122.845, 26.768 123, 33.637 123 C 40.271 123, 41.102 123.225, 42.538 125.417 C 43.851 127.422, 43.932 128.575, 43.010 132.167 C 41.039 139.848, 38.947 144.281, 34.881 149.387 C 31.854 153.188, 30.974 155.116, 31.201 157.442 C 31.449 159.980, 31.989 160.556, 34.371 160.828 C 35.950 161.009, 38.213 160.912, 39.400 160.614 C 44.056 159.446, 52.148 149.453, 53.260 143.498 C 54.619 136.223, 57.992 125.621, 59.190 124.857 C 59.910 124.397, 61.099 124.241, 61.832 124.511 C 62.564 124.780, 63.979 125, 64.975 125 C 67.749 125, 68.360 128.016, 66.027 130.190 C 64.912 131.228, 64 132.911, 64 133.930 C 64 140.195, 73.792 152.438, 81.829 156.220 C 87.004 158.656, 91.115 158.978, 124 159.524 C 144.207 159.859, 154.830 158.652, 159.688 155.469 C 162.997 153.301, 164.106 147.755, 163.090 138.465 C 162.611 134.084, 162.095 123.975, 161.945 116 C 160.864 58.693, 160.264 45.844, 158.382 39.693 C 157.573 37.049, 153.841 36, 145.251 36 C 139.567 36, 136.535 36.531, 133.316 38.089 C 125.639 41.806, 128.699 46.891, 139.220 47.902 C 146.381 48.590, 147.959 50.355, 147.985 57.700 C 148.007 64.002, 145.548 64.901, 140.830 60.316 C 137.288 56.875, 136.397 56.620, 130.132 57.259 C 126.369 57.642, 123.710 53.264, 123.853 46.919 C 123.918 44.032, 123.448 41.040, 122.809 40.269 C 118.681 35.296, 106.188 33.699, 95.370 36.760 C 89.319 38.473, 87.999 38.563, 85.918 37.411 C 84.588 36.674, 80.703 36.055, 77.283 36.035 C 71.353 36.002, 70.833 35.793, 66 31.500 C 63.213 29.025, 60.247 27, 59.408 27 C 58.569 27, 56.096 28.963, 53.912 31.363 M 84.202 47.669 C 80.038 50.179, 79.787 50.210, 76.202 48.666 C 70.401 46.168, 67.538 46.156, 66.590 48.627 C 66.246 49.521, 66.478 50.871, 67.105 51.627 C 68.420 53.211, 74.582 53.485, 75.500 52 C 76.467 50.435, 82.309 50.827, 84.882 52.630 C 86.161 53.526, 89.074 54.660, 91.354 55.149 C 93.634 55.638, 98.342 57.492, 101.816 59.269 C 107.983 62.424, 108.165 62.455, 109.566 60.559 C 111.650 57.738, 111.362 52.362, 109 50 C 107.579 48.579, 105.625 47.987, 102.250 47.956 C 99.638 47.932, 95.700 47.264, 93.500 46.471 C 88.549 44.688, 89.311 44.589, 84.202 47.669 M 55 65.683 C 51.242 66.299, 47 68.128, 47 69.130 C 47 70.132, 51.355 75.311, 54.757 78.354 C 56.443 79.862, 56.696 80.575, 55.757 81.171 C 54.808 81.774, 54.867 81.977, 56 81.999 C 56.832 82.016, 56.387 82.588, 55 83.282 C 53.625 83.972, 52.056 85.540, 51.513 86.768 C 50.970 87.995, 50.192 89, 49.784 89 C 48.027 89, 51.562 94.103, 53.690 94.637 C 59.276 96.039, 71 92.852, 71 89.931 C 71 88.533, 67.155 85, 65.633 85 C 64.164 85, 63.549 83.858, 63.882 81.750 C 63.947 81.338, 63.534 81, 62.965 81 C 62.264 81, 62.252 80.397, 62.930 79.131 C 63.480 78.104, 63.682 77.015, 63.379 76.713 C 63.076 76.410, 63.806 75.639, 65 75 C 66.194 74.361, 66.912 73.578, 66.594 73.261 C 66.277 72.944, 66.514 72.086, 67.120 71.355 C 67.727 70.624, 67.940 68.895, 67.593 67.513 C 67.023 65.245, 66.501 65.013, 62.231 65.136 C 59.629 65.211, 56.375 65.457, 55 65.683 M 82.250 66.674 C 79.154 68.834, 79.421 70.321, 83.458 73.400 C 88.316 77.105, 89.087 81.708, 85.613 86.263 L 83.028 89.653 85.041 91.814 C 88.288 95.299, 91.176 95.450, 96.937 92.438 C 101.620 89.989, 102.506 89.835, 105.960 90.870 C 108.067 91.501, 110.468 91.757, 111.297 91.440 C 114.210 90.322, 114.920 82.758, 112.443 79.223 C 111.163 77.395, 109.932 77, 105.514 77 C 100.803 77, 99.733 76.600, 96.813 73.750 C 94.982 71.963, 92.593 69.263, 91.505 67.750 C 89.251 64.618, 85.776 64.215, 82.250 66.674 M 127.091 72.391 C 124.816 75.131, 126.705 97, 129.215 97 C 129.632 97, 131.498 95.336, 133.361 93.303 L 136.749 89.606 141.621 90.721 C 145.002 91.494, 146.877 91.517, 147.747 90.795 C 149.452 89.380, 149.329 82.537, 147.537 79.072 C 145.883 75.872, 144.224 75.010, 139.668 74.978 C 137.926 74.966, 134.614 74.100, 132.310 73.054 C 129.020 71.560, 127.898 71.418, 127.091 72.391" stroke="none" fill="black" fill-rule="evenodd"/>
</svg>