<svg xmlns="http://www.w3.org/2000/svg" width="256" height="256" viewBox="0 0 256 256" version="1.1">
	<path d="M 42.128 30.052 C 38.796 32.094, 38.766 32.179, 39.516 37.309 C 39.933 40.164, 40.325 46.302, 40.387 50.950 L 40.500 59.400 44 61.733 C 53.164 67.844, 53.113 69.803, 43.540 79.423 C 38.611 84.376, 37.008 86.673, 37.032 88.747 C 37.077 92.662, 39.257 95.046, 43.706 96.045 C 47.665 96.935, 62.232 96.665, 72 95.522 C 77.621 94.864, 85.025 96.574, 85.731 98.694 C 86.412 100.737, 79.573 102.501, 71.500 102.365 C 61.408 102.195, 50.935 101.296, 48.597 100.399 C 47.608 100.019, 46.506 100.112, 46.149 100.604 C 45.792 101.097, 44.600 101.999, 43.500 102.609 C 41.892 103.500, 41.463 104.872, 41.312 109.609 C 41.209 112.849, 40.640 117.433, 40.047 119.796 C 39.454 122.159, 39.048 126.434, 39.145 129.296 C 39.242 132.158, 38.550 136.975, 37.607 140 C 34.054 151.394, 35.147 157.939, 40.355 156.458 C 43.288 155.625, 47.991 150.113, 48.697 146.682 C 49.546 142.558, 53.060 140.632, 58.300 141.418 C 61.202 141.853, 63.798 141.564, 66.270 140.532 C 71.124 138.504, 74.326 138.598, 76.345 140.829 C 78.676 143.404, 78.409 144.681, 75.379 145.441 C 71.434 146.431, 70 148.427, 70 152.929 C 70 158.053, 72.679 161, 77.337 161 C 79.994 161, 81.523 160.095, 84.832 156.564 C 88.480 152.673, 89.111 151.292, 89.975 145.314 C 90.517 141.566, 90.972 136.025, 90.986 133 C 91 129.975, 91.490 125.776, 92.075 123.669 C 92.759 121.207, 92.807 118.883, 92.209 117.169 C 91.584 115.375, 91.690 113.106, 92.534 110.250 C 93.224 107.913, 93.579 106, 93.323 106 C 93.067 106, 93.452 105.380, 94.179 104.623 C 94.905 103.865, 96.162 102.290, 96.971 101.123 C 99.200 97.905, 101.201 98.601, 104.452 103.727 C 107.887 109.141, 107.925 111.548, 104.653 116.369 C 102.461 119.600, 102.289 120.750, 102.487 130.886 C 102.641 138.805, 103.132 142.552, 104.236 144.237 C 106.294 147.378, 115.715 154.565, 120.268 156.468 C 125.108 158.490, 137.753 158.452, 144.912 156.393 C 157.210 152.857, 159.335 150.748, 156.058 145.331 L 154.346 142.500 136.477 142.342 C 116.601 142.166, 116 141.960, 116 135.332 C 116 130.675, 119.361 128.533, 124.082 130.179 C 125.961 130.833, 132.373 131.399, 138.331 131.435 C 148.548 131.496, 149.274 131.366, 151.083 129.139 C 154.061 125.472, 153.572 122.596, 149.750 121.296 C 142.312 118.764, 131.540 118.073, 123.709 119.624 C 120.296 120.300, 116 117.742, 116 115.034 C 116 111.335, 119.733 110, 130.073 110 C 135.369 110, 141.006 109.583, 142.601 109.074 C 144.195 108.565, 147.661 107.858, 150.303 107.505 C 154.110 106.995, 155.340 106.349, 156.233 104.388 C 157.191 102.285, 157.029 101.585, 155.146 99.708 C 153.036 97.604, 152.132 97.500, 135.886 97.500 C 120.801 97.500, 118.692 97.298, 117.558 95.749 C 116.854 94.786, 116.500 92.834, 116.772 91.412 L 117.266 88.826 127.883 89.557 C 145.540 90.774, 150.640 90.737, 152.501 89.376 C 154.791 87.701, 153.823 83.731, 150.252 80.164 C 147.628 77.542, 147.372 77.500, 134.043 77.491 C 119.610 77.481, 117.502 76.942, 114.599 72.511 C 113.031 70.118, 113.029 69.828, 114.574 68.283 C 115.975 66.883, 118.745 66.612, 132.366 66.543 C 149.005 66.460, 152.343 65.778, 153.379 62.251 C 153.662 61.288, 153.772 54.696, 153.622 47.601 C 153.376 35.891, 153.158 34.546, 151.254 33.005 C 148.692 30.930, 137.469 30.271, 91.500 29.494 C 73.900 29.197, 56.350 28.736, 52.500 28.470 C 46.632 28.064, 44.955 28.320, 42.128 30.052 M 54.750 42.162 C 51.776 43.248, 51.348 44.893, 53.150 48.316 C 54.877 51.598, 55.902 51.968, 63.295 51.985 C 69.238 51.998, 70.407 51.683, 72.614 49.477 C 77.514 44.577, 73.610 40.986, 63.500 41.094 C 60.200 41.129, 56.263 41.610, 54.750 42.162 M 87.200 44.200 C 85.508 45.892, 85.700 47.349, 87.999 50.271 C 90.524 53.482, 98.434 54.869, 102.622 52.835 C 106.014 51.188, 107.498 46.640, 105.345 44.488 C 103.470 42.612, 89.017 42.383, 87.200 44.200 M 119.666 44.127 C 117.488 45.394, 118.133 49.617, 120.816 51.656 C 122.904 53.244, 133.047 53.391, 136.359 51.882 C 139.276 50.553, 140.339 46.481, 138.301 44.444 C 136.565 42.708, 122.517 42.469, 119.666 44.127 M 65.511 67.398 C 63.381 69.528, 63 70.830, 63 75.979 C 63 81.645, 63.179 82.118, 65.684 83.070 C 68.602 84.179, 72.981 82.933, 75.089 80.392 C 76.568 78.611, 80.456 78.599, 82.227 80.370 C 85.612 83.755, 98.216 87.899, 101.404 86.675 C 102.537 86.241, 103.014 84.997, 102.905 82.769 C 102.816 80.971, 103.077 77.195, 103.484 74.378 C 104.042 70.515, 103.889 69.041, 102.862 68.378 C 100.615 66.929, 88.137 65.291, 77.761 65.082 C 68.567 64.897, 67.883 65.027, 65.511 67.398 M 66.250 113.662 C 65.563 113.940, 65 114.522, 65 114.957 C 65 116.226, 72.435 124, 73.649 124 C 75.054 124, 76.565 122.121, 77.429 119.301 C 78.759 114.957, 71.773 111.434, 66.250 113.662 M 52.161 127.547 C 50.782 130.572, 50.759 131.071, 51.910 132.888 C 52.589 133.960, 53.097 134.009, 54.144 133.104 C 54.890 132.459, 56.343 131.350, 57.373 130.640 C 58.700 129.724, 59.044 128.715, 58.555 127.174 C 57.569 124.066, 53.642 124.295, 52.161 127.547" stroke="none" fill="black" fill-rule="evenodd"/>
</svg>