<svg xmlns="http://www.w3.org/2000/svg" width="256" height="256" viewBox="0 0 256 256" version="1.1">
	<path d="M 66.648 29.250 C 65.293 30.488, 63.215 34.393, 62.031 37.929 C 60.848 41.465, 59.371 45.290, 58.751 46.429 C 58.130 47.568, 57.552 49.362, 57.466 50.415 C 57.156 54.220, 53.616 55.819, 46.726 55.266 C 41.551 54.851, 39.626 55.150, 36.185 56.906 C 32.429 58.822, 32.042 59.347, 32.593 61.777 C 33.549 65.990, 36.561 68, 41.920 68 C 47.748 68, 50.333 69.758, 50.333 73.722 C 50.333 77.092, 45.728 82.987, 44.565 81.106 C 43.702 79.709, 35.505 79.659, 32.934 81.035 C 31.605 81.746, 31 83.132, 31 85.464 C 31 91.401, 35.497 93.961, 42.488 92.003 C 45.784 91.080, 47.275 91.077, 48.975 91.986 C 50.941 93.039, 51.121 93.731, 50.628 98.334 C 49.812 105.953, 49.823 105.921, 47.775 106.571 C 46.735 106.902, 43.772 106.906, 41.192 106.582 C 34.810 105.779, 27.660 109.278, 27.172 113.443 C 26.689 117.558, 27.758 120.788, 29.818 121.442 C 31.456 121.962, 39.909 120.781, 44.194 119.433 C 46.673 118.654, 49.342 123.168, 48.545 126.795 C 48.198 128.377, 46.114 131.658, 43.914 134.086 C 37.839 140.790, 37.178 142.019, 36.157 148.500 C 35.025 155.689, 35.932 158, 39.885 158 C 44.371 158, 55 149.058, 55 145.284 C 55 144.785, 55.799 143.505, 56.776 142.439 C 59.200 139.792, 61.373 132.750, 60.557 130.181 C 58.057 122.302, 74.051 117.951, 85.042 123.521 C 89.608 125.835, 90.243 125.923, 92.759 124.597 C 94.266 123.802, 97.507 121.318, 99.960 119.076 C 104.881 114.579, 105.586 114.373, 108.500 116.575 C 110.279 117.920, 110.493 119.216, 110.438 128.293 C 110.360 141.157, 109.089 144.026, 102.712 145.732 C 99.223 146.665, 98.093 147.494, 97.593 149.485 C 96.722 152.954, 98.240 155.411, 102.501 157.433 C 105.525 158.868, 106.888 158.957, 111.423 158.016 C 114.367 157.405, 117.481 156.125, 118.343 155.173 C 120.042 153.296, 122.986 143.144, 123.022 139.040 C 123.054 135.359, 126.408 128.528, 129.114 126.633 C 130.396 125.735, 131.007 124.998, 130.473 124.996 C 129.938 124.994, 131.067 124.037, 132.982 122.870 C 134.898 121.702, 136.923 120.196, 137.482 119.523 C 139.659 116.904, 145.789 113, 147.723 113 C 149.027 113, 150.190 114.045, 150.963 115.910 C 152.536 119.709, 152.623 136.583, 151.092 141.221 C 150.042 144.403, 149.395 144.926, 145.750 145.542 C 141.411 146.275, 136 150.609, 136 153.350 C 136 155.217, 140.671 159, 142.975 159 C 143.913 159, 148.240 158.099, 152.590 156.999 C 160.789 154.924, 163.867 152.698, 164.148 148.639 C 164.396 145.055, 164.572 143.681, 165.390 138.917 C 165.837 136.314, 165.681 129.400, 165.029 122.917 C 164.397 116.638, 163.706 101.150, 163.493 88.500 C 163.281 75.850, 162.826 59.426, 162.483 52.002 C 161.907 39.554, 161.659 38.242, 159.295 35.143 L 156.732 31.782 147.141 32.501 C 141.866 32.897, 136.503 33.619, 135.222 34.106 C 131.871 35.380, 125 41.106, 125 42.625 C 125 43.335, 127.067 45.127, 129.594 46.608 C 133.841 49.097, 134.598 49.226, 139.610 48.317 C 143.406 47.630, 145.284 47.660, 145.871 48.417 C 148.811 52.214, 150.916 67.647, 149.122 72.250 C 147.501 76.406, 145.425 75.606, 140.748 69.020 C 136.038 62.389, 134.536 61.500, 128.044 61.500 C 122.007 61.500, 120.732 59.114, 121.583 49.411 C 122.107 43.438, 121.882 41.689, 120.155 38.304 C 117.541 33.180, 115.139 32.304, 101.741 31.591 L 90.982 31.018 86.968 35.032 C 83.391 38.609, 83.083 39.288, 84.136 41.273 C 86.747 46.195, 92.676 48.377, 99.044 46.761 C 101.872 46.043, 103.393 46.082, 104.374 46.895 C 107.216 49.254, 108.789 66.297, 106.506 69.991 C 105.256 72.014, 102.852 70.900, 98.590 66.324 C 94.371 61.794, 94.045 61.644, 88.116 61.503 C 82.589 61.371, 81.723 61.050, 79.159 58.179 C 77.599 56.430, 75.815 55, 75.196 55 C 74.577 55, 73.604 54.129, 73.035 53.065 C 71.692 50.556, 73.102 46.787, 77.077 42.260 C 79.280 39.751, 79.904 38.257, 79.415 36.668 C 76.628 27.623, 71.617 24.712, 66.648 29.250 M 38.455 31.455 C 34.544 35.365, 35.671 41.688, 41.155 46.601 C 46.879 51.730, 49.457 49.826, 49.483 40.450 C 49.497 35.163, 49.115 33.757, 47.076 31.583 C 44.040 28.349, 41.597 28.312, 38.455 31.455 M 66.552 71.365 C 63.706 74.002, 63.434 75.663, 65.210 79.561 C 66.396 82.164, 66.557 82.204, 73.204 81.549 C 79.717 80.907, 80.032 80.977, 81.097 83.314 C 83.287 88.121, 78.639 91.649, 71.872 90.316 C 70.427 90.032, 68.308 90.300, 67.163 90.913 C 62.938 93.174, 60.205 102.845, 62.381 107.836 C 63.450 110.289, 64.488 110.343, 73.848 108.429 C 75.798 108.030, 78.818 108.280, 81.082 109.027 C 84.725 110.229, 85.417 110.104, 92.076 107.035 C 97.894 104.353, 99.573 103.957, 101.341 104.851 C 104.395 106.396, 105.466 106.613, 105.730 105.740 C 105.856 105.321, 106.646 103.651, 107.485 102.028 C 109.388 98.349, 109.616 92.789, 108.092 87.250 C 106.929 83.021, 106.899 83, 102.211 82.980 C 98.094 82.963, 96.698 82.333, 91.132 77.980 C 86.805 74.596, 83.828 73, 81.842 73 C 80.235 73, 77.156 72.100, 75 71 C 70.054 68.477, 69.649 68.494, 66.552 71.365 M 123.052 73.437 C 122.026 74.674, 121.782 82.013, 122.042 103.892 C 122.085 107.518, 123.509 111, 124.949 111 C 125.432 111, 127.778 108.979, 130.163 106.508 C 135.757 100.715, 139.493 99.861, 143.712 103.411 C 145.404 104.835, 147.232 106, 147.773 106 C 150.410 106, 152.501 94.788, 150.943 89 C 149.298 82.889, 148.872 82.624, 143.585 84.420 C 137.321 86.546, 134.306 85.668, 132.426 81.169 C 129.763 74.796, 125.110 70.958, 123.052 73.437" stroke="none" fill="black" fill-rule="evenodd"/>
</svg>