<svg xmlns="http://www.w3.org/2000/svg" width="256" height="256" viewBox="0 0 256 256" version="1.1">
	<path d="M 71.035 28.463 C 69.763 29.817, 68.222 31.911, 67.611 33.116 C 65.803 36.681, 61.848 38.844, 56.201 39.355 C 40.433 40.781, 44.428 49.995, 60.816 49.998 C 64.839 49.999, 69.039 50.486, 70.148 51.079 C 72.091 52.119, 72.098 52.210, 70.333 53.548 C 69.325 54.311, 66.170 54.951, 63.321 54.968 C 58.837 54.996, 57.664 55.452, 54.571 58.368 C 50.616 62.098, 50.170 64.027, 52.681 66.538 C 54.255 68.112, 54.239 68.289, 52.431 69.333 C 51.369 69.946, 48.126 71.427, 45.224 72.623 C 36.840 76.079, 35.664 77.702, 38.201 82.316 C 38.862 83.517, 39.464 85.941, 39.538 87.702 C 39.779 93.360, 41.407 94.291, 49.703 93.513 C 56.225 92.902, 57.069 93.024, 57.676 94.665 C 58.049 95.674, 58.808 96.803, 59.363 97.174 C 60.023 97.615, 59.959 98.344, 59.179 99.284 C 57.901 100.825, 51.778 100.814, 49.697 99.267 C 49.039 98.778, 47.938 98.461, 47.250 98.564 C 46.563 98.666, 45.176 98.806, 44.169 98.875 C 43.162 98.944, 41.726 100.144, 40.978 101.541 C 39.790 103.760, 39.849 104.490, 41.442 107.291 C 42.445 109.056, 43.967 111.063, 44.824 111.750 C 46.178 112.836, 46.186 113, 44.881 113 C 42.656 113, 36.819 119.087, 37.455 120.744 C 37.755 121.525, 38 122.773, 38 123.518 C 38 124.263, 41.600 128.448, 46 132.819 C 50.400 137.189, 54 141.472, 54 142.336 C 54 144.041, 58.571 146.462, 63.760 147.507 C 68.226 148.406, 69.997 150.477, 70.015 154.821 C 70.036 159.841, 71.025 161.024, 75.336 161.186 C 82.984 161.474, 87.682 152.580, 84.570 143.708 C 82.928 139.030, 82.940 138.832, 85.105 135.330 C 86.900 132.425, 87.101 131.391, 86.161 129.886 C 84.319 126.936, 84.695 126.702, 90.116 127.421 C 96.174 128.225, 99 126.436, 99 121.799 C 99 119.633, 98.248 118.479, 96.006 117.203 C 94.360 116.267, 93.010 114.965, 93.006 114.311 C 92.998 112.734, 100.808 111.623, 105.878 112.479 C 109.940 113.166, 110.986 114.457, 111.561 119.500 C 111.687 120.600, 112.492 123.300, 113.351 125.500 C 114.210 127.700, 114.932 130.495, 114.956 131.711 C 115.007 134.295, 111.780 137.616, 107.433 139.450 C 104.020 140.891, 97.330 147.496, 96.407 150.335 C 95.576 152.895, 99.657 157, 103.035 157 C 104.512 157, 107.471 155.808, 109.610 154.352 C 115.557 150.303, 119.417 149, 125.468 149 C 129.667 149, 131.482 149.482, 133 151 C 134.100 152.100, 135.648 153, 136.441 153 C 137.234 153, 138.136 153.411, 138.446 153.913 C 139.331 155.345, 146.585 156.246, 151.094 155.484 C 154.516 154.906, 155.420 154.240, 156.594 151.428 C 157.367 149.578, 158 147.184, 158 146.109 C 158 143.698, 153.429 138.090, 151.737 138.427 C 143.994 139.968, 140.662 140.102, 137.961 138.984 C 134.142 137.402, 134.675 134.796, 139.720 130.381 C 142.582 127.877, 143.305 126.504, 143.392 123.416 C 143.538 118.220, 141.095 116.961, 133.529 118.332 C 127.467 119.431, 123 118.238, 123 115.521 C 123 114.685, 123.112 113.991, 123.250 113.980 C 123.388 113.970, 128.317 113.320, 134.205 112.536 C 140.092 111.752, 146.443 111.360, 148.318 111.664 C 152.386 112.324, 156 110.641, 156 108.087 C 156 106.048, 154.411 104.490, 149.280 101.500 C 146.477 99.867, 145.407 98.224, 143.448 92.544 C 140.644 84.414, 140.884 84.045, 149 84 C 155.218 83.965, 156.444 83.417, 157.226 80.319 C 158.166 76.596, 154.237 74.007, 145.890 72.851 C 141.853 72.291, 136.964 72.025, 135.025 72.260 C 133.086 72.494, 130.150 72.263, 128.500 71.747 C 126.850 71.231, 122.350 70.844, 118.500 70.888 C 111.774 70.964, 107.778 69.889, 109.265 68.402 C 109.654 68.013, 113.466 67.591, 117.736 67.465 C 122.006 67.339, 126.767 66.732, 128.315 66.118 C 129.863 65.503, 132.846 65, 134.943 65 C 139.757 65, 141.338 63.316, 139.674 59.961 C 138.692 57.983, 137.574 57.441, 133.976 57.201 C 128.630 56.843, 123.601 53.596, 125.994 52.047 C 126.816 51.515, 131.101 51.133, 135.516 51.197 C 143.664 51.316, 148 50.063, 148 47.587 C 148 45.343, 145.616 44.068, 137.889 42.182 C 130.644 40.414, 130.448 40.282, 127.847 35.439 C 124.508 29.222, 122.270 27, 119.348 27 C 116.854 27, 114.630 29.813, 113.592 34.281 C 112.473 39.099, 107.879 40.992, 97.297 40.996 C 85.763 41.001, 83.543 40.042, 81.550 34.194 C 78.734 25.929, 75.216 24.012, 71.035 28.463 M 81.250 51.788 C 78.522 52.214, 78.410 53.156, 80.829 55.345 C 83.086 57.388, 85.372 57.462, 86.964 55.544 C 89.098 52.973, 86.135 51.025, 81.250 51.788 M 61 67.049 C 58.525 68.062, 57.063 68.916, 57.750 68.946 C 58.438 68.976, 59.112 69.010, 59.250 69.023 C 59.388 69.035, 61.525 69.640, 64 70.368 C 70.124 72.167, 84.349 71.187, 84.778 68.935 C 85.017 67.678, 83.325 67.137, 76.174 66.185 C 65.681 64.788, 66.661 64.732, 61 67.049 M 67.629 81.792 C 67.359 82.228, 63.625 82.695, 59.331 82.831 C 51.865 83.066, 48.746 84.080, 50.400 85.733 C 51.200 86.532, 72.565 86.950, 74.750 86.210 C 76.236 85.706, 76.435 83.054, 75 82.875 C 74.450 82.806, 73.587 82.694, 73.083 82.625 C 72.579 82.556, 71.829 82.162, 71.417 81.750 C 70.432 80.766, 68.248 80.790, 67.629 81.792 M 105.500 84 C 105.160 84.550, 103.814 85, 102.508 85 C 101.013 85, 99.900 85.740, 99.500 87 C 99.151 88.100, 98.226 89, 97.444 89 C 96.662 89, 95.125 89.769, 94.027 90.709 C 91.818 92.600, 84.754 94.961, 81.234 94.985 C 78.085 95.006, 71 97.311, 71 98.315 C 71 98.770, 71.643 99.786, 72.429 100.571 C 73.531 101.674, 77.059 102, 87.872 102 C 100.926 102, 101.986 101.858, 103.341 99.923 C 104.444 98.349, 104.566 97.013, 103.847 94.410 C 103.326 92.520, 103.173 90.529, 103.508 89.987 C 103.844 89.444, 103.529 88.993, 102.809 88.985 C 101.858 88.974, 101.910 88.704, 103 88 C 103.825 87.467, 106.328 87.024, 108.562 87.015 C 111.913 87.003, 113.007 87.518, 114.812 89.960 C 116.190 91.824, 117 94.375, 117 96.853 C 117 102.221, 120.931 103.638, 127.050 100.474 C 130.602 98.637, 130.655 98.188, 127.696 94.990 C 125.528 92.647, 124.781 87.885, 126.338 86.329 C 126.692 85.974, 126.481 85.080, 125.869 84.342 C 124.529 82.728, 106.474 82.425, 105.500 84 M 69.100 114.750 C 69.028 116.360, 68.384 117, 66.833 117 C 63.881 117, 65.024 117.942, 68.306 118.213 C 71.901 118.511, 72.790 121, 69.302 121 C 63.057 121, 69.786 123.085, 78.112 123.729 C 82.579 124.075, 83.847 123.841, 84.330 122.582 C 84.664 121.712, 84.432 121, 83.814 121 C 83.196 121, 83.507 120.097, 84.506 118.994 C 85.504 117.890, 86.136 116.816, 85.911 116.606 C 85.685 116.396, 82.237 115.903, 78.250 115.511 C 72.495 114.944, 70.979 115.076, 70.900 116.149 C 70.845 116.892, 70.440 116.375, 70 115 C 69.232 112.602, 69.195 112.591, 69.100 114.750 M 52.286 115.698 C 51.628 117.411, 53.776 119.996, 55.872 120.015 C 57.289 120.029, 57.305 120.157, 56 121 C 54.523 121.954, 54.756 122.106, 58.155 122.400 C 58.790 122.455, 59.440 121.608, 59.600 120.518 C 59.760 119.428, 60.366 118.378, 60.946 118.185 C 61.525 117.992, 61.964 117.083, 61.921 116.167 C 61.864 114.960, 61.692 114.877, 61.300 115.863 C 60.891 116.892, 60.576 116.931, 60.014 116.023 C 58.960 114.318, 52.913 114.064, 52.286 115.698 M 64.500 136 C 62.977 138.463, 67.336 139.959, 71.444 138.383 C 72.688 137.906, 72.792 137.454, 71.903 136.383 C 70.578 134.787, 65.415 134.520, 64.500 136" stroke="none" fill="black" fill-rule="evenodd"/>
</svg>