<svg xmlns="http://www.w3.org/2000/svg" width="256" height="256" viewBox="0 0 256 256" version="1.1">
	<path d="M 39.255 29.107 C 35.682 30.150, 32.461 34.154, 33.344 36.455 C 33.655 37.263, 36.742 39.345, 40.204 41.081 C 43.667 42.817, 46.679 44.400, 46.898 44.600 C 47.117 44.800, 47.472 46.723, 47.688 48.875 C 48.028 52.282, 47.557 53.390, 44.039 57.455 C 41.735 60.117, 40 63.154, 40 64.526 C 40 68.963, 46.151 70.269, 54 67.500 C 56.338 66.675, 59.670 66, 61.403 66 C 71.238 66, 71.320 56.308, 61.534 50.573 C 59.040 49.111, 57 47.260, 57 46.458 C 57 45.656, 56.438 44.963, 55.750 44.918 C 52.326 44.695, 62.212 41.782, 68.059 41.292 C 74.341 40.765, 74.876 40.883, 76.326 43.114 C 77.727 45.269, 77.726 46.321, 76.321 54 C 75.466 58.675, 74.681 63.244, 74.576 64.153 C 74.471 65.062, 73.151 67.425, 71.642 69.403 C 68.998 72.870, 68.667 73, 62.521 73 C 54.055 73, 53.052 74.068, 52.822 83.321 C 52.724 87.270, 52.728 91.400, 52.832 92.500 C 52.936 93.600, 53.167 97.650, 53.346 101.500 C 53.794 111.169, 53.736 110.958, 56.250 111.969 C 58.014 112.678, 58.116 112.887, 56.724 112.937 C 54.487 113.016, 45.696 121.698, 46.512 123.020 C 46.846 123.559, 47.879 124.032, 48.809 124.070 C 50.188 124.128, 50.130 124.299, 48.500 125 C 46.924 125.677, 47.348 125.875, 50.500 125.935 C 54.712 126.014, 64 123.171, 64 121.802 C 64 121.361, 65.800 121, 68 121 C 70.200 121, 71.918 121.337, 71.818 121.750 C 71.718 122.162, 72.144 124.232, 72.765 126.349 C 73.724 129.620, 73.639 130.463, 72.197 131.963 C 69.187 135.094, 66.272 136.001, 59.316 135.967 C 52.265 135.932, 49.186 134.545, 47.733 130.750 C 47.362 129.781, 46.031 129, 44.750 129 C 42.882 129, 42.188 129.842, 41.145 133.373 C 40.435 135.778, 40 139.265, 40.177 141.123 C 40.460 144.081, 40.883 144.537, 43.587 144.801 C 46.116 145.048, 47.337 144.370, 50.335 141.051 C 53.269 137.804, 54.640 137.023, 57.247 137.116 C 59.036 137.180, 59.779 137.425, 58.897 137.661 C 57.240 138.105, 57.373 142.494, 59.076 143.547 C 60.718 144.562, 58.693 147.095, 54.133 149.728 C 47.303 153.673, 46.634 155.157, 50.039 158.811 C 52.744 161.715, 60.503 161.807, 66.048 159 C 68.222 157.900, 71.776 156.101, 73.948 155.002 C 77.824 153.040, 83 147.418, 83 145.169 C 83 142.473, 90.119 140.934, 99.788 141.539 C 111.071 142.246, 112.946 142.879, 117.634 147.568 C 119.618 149.551, 123.161 151.997, 125.507 153.003 C 127.853 154.009, 131.673 156.031, 133.995 157.497 C 138.670 160.448, 141.695 160.305, 145.025 156.975 C 147.756 154.244, 147.502 152.271, 144 149 C 140.300 145.544, 140.267 145.001, 143.750 144.996 C 147.888 144.991, 153 141.494, 153 138.670 C 153 136.209, 150.577 133.401, 148 132.874 C 147.175 132.705, 143.724 133.168, 140.332 133.903 C 134.063 135.260, 126.738 134.413, 121.560 131.731 C 119.678 130.756, 119.689 130.671, 121.921 128.863 C 124.645 126.657, 132.572 126.358, 139.462 128.201 C 144.946 129.668, 149.357 128.455, 149.803 125.359 C 150.027 123.801, 148.884 122.449, 145.381 120.129 C 142.783 118.408, 139.722 116.970, 138.579 116.934 C 137.435 116.897, 134.025 116.828, 131 116.779 C 127.975 116.730, 124.456 116.140, 123.179 115.468 L 120.858 114.245 124.078 113.122 C 125.849 112.505, 128.975 112, 131.024 112 C 136.815 112, 140.814 110.926, 141.479 109.193 C 141.814 108.322, 142.306 103.085, 142.574 97.555 C 143.350 81.521, 144.025 79.450, 149.464 76.423 C 154.445 73.650, 154.936 71.601, 155.091 52.926 C 155.249 33.860, 154.719 31.514, 150.029 30.533 C 148.134 30.136, 106.863 30.480, 102.827 30.926 C 102.456 30.967, 100.777 32.158, 99.095 33.573 C 95.592 36.521, 93.897 36.289, 88.689 32.151 L 85.203 29.380 66.352 29.205 C 55.983 29.108, 46.375 28.834, 45 28.595 C 43.625 28.356, 41.040 28.586, 39.255 29.107 M 126.500 42.570 C 125.950 42.710, 124.302 43.088, 122.838 43.409 C 120.991 43.815, 120.279 44.531, 120.512 45.747 C 120.696 46.711, 120.881 47.795, 120.923 48.156 C 120.966 48.517, 123.362 50.497, 126.250 52.556 C 129.137 54.615, 131.820 56.835, 132.210 57.490 C 136.534 64.738, 140.187 64.559, 141.998 57.010 C 143.351 51.369, 142.801 45.123, 140.842 43.881 C 140.104 43.413, 138.037 42.945, 136.250 42.840 C 134.463 42.736, 131.762 42.575, 130.250 42.483 C 128.738 42.391, 127.050 42.430, 126.500 42.570 M 90.943 47.210 C 90.114 50.290, 90.104 52.403, 90.905 55.077 C 92.369 59.963, 92.233 63.968, 90.500 67 C 89.714 68.375, 89.055 69.826, 89.035 70.224 C 88.961 71.744, 94.640 73.735, 97.718 73.269 C 102.061 72.612, 103.312 70.951, 102.021 67.557 C 100.466 63.464, 100.727 62.695, 104.560 60.085 C 112.252 54.846, 111.592 50.339, 102.498 45.999 C 93.819 41.857, 92.343 42.012, 90.943 47.210 M 119.335 68.550 C 116.897 69.618, 116.293 70.403, 116.702 71.968 C 117.172 73.766, 118.038 74, 124.206 74 C 130.201 74, 131.431 73.689, 132.975 71.783 C 133.962 70.563, 134.549 68.988, 134.278 68.283 C 133.615 66.553, 123.479 66.734, 119.335 68.550 M 70.250 80.987 C 65.952 82.798, 68.087 90, 72.921 90 C 74.489 90, 77.060 90.672, 78.636 91.494 L 81.500 92.988 77.250 92.994 C 74.912 92.997, 73 93.450, 73 94 C 73 94.550, 72.200 95, 71.223 95 C 68.547 95, 65 97.862, 65 100.022 C 65 102.654, 68.413 104.249, 72.286 103.427 C 74.054 103.052, 78.070 102.538, 81.210 102.286 C 87.443 101.784, 89.127 99.974, 87.020 96.038 C 86.420 94.917, 86.283 93.993, 86.715 93.985 C 87.147 93.976, 86.904 93.592, 86.176 93.130 C 85.107 92.452, 85.169 91.974, 86.498 90.645 C 87.402 89.740, 87.870 89, 87.536 89 C 87.203 89, 87.411 88.100, 88 87 C 88.786 85.531, 88.760 85, 87.902 85 C 87.260 85, 85.993 84.145, 85.086 83.099 C 83.149 80.866, 73.722 79.524, 70.250 80.987 M 106.554 84.536 C 105.074 85.655, 104.886 86.286, 105.771 87.171 C 106.656 88.056, 108.320 87.996, 112.718 86.920 C 116.436 86.010, 117.692 85.389, 116.235 85.181 C 114.990 85.003, 114.229 84.439, 114.544 83.929 C 115.478 82.417, 108.671 82.934, 106.554 84.536 M 107.269 89.693 C 108.242 89.947, 109.592 89.930, 110.269 89.656 C 110.946 89.382, 110.150 89.175, 108.500 89.195 C 106.850 89.215, 106.296 89.439, 107.269 89.693 M 74.813 94.683 C 75.534 94.972, 76.397 94.936, 76.729 94.604 C 77.061 94.272, 76.471 94.036, 75.417 94.079 C 74.252 94.127, 74.015 94.364, 74.813 94.683 M 107.196 96.768 C 106.698 96.934, 106.504 98.184, 106.764 99.546 C 107.335 102.533, 109.529 103.184, 117.236 102.653 C 121.780 102.339, 123.374 101.763, 124.911 99.879 C 126.659 97.737, 126.685 97.479, 125.176 97.293 C 121.796 96.876, 108.074 96.475, 107.196 96.768 M 62 111.060 C 60.075 112.074, 59.089 112.926, 59.809 112.952 C 60.529 112.978, 60.874 113.394, 60.577 113.876 C 60.014 114.786, 66.850 120, 68.604 120 C 70.530 120, 74.984 117.488, 74.992 116.398 C 75.005 114.551, 69.096 108.993, 67.241 109.108 C 66.284 109.168, 63.925 110.046, 62 111.060 M 88.504 113.373 C 86.672 114.713, 86.674 114.760, 88.563 115.292 C 92.081 116.281, 103.296 115.913, 105.417 114.737 C 107.411 113.632, 107.372 113.554, 104.500 112.910 C 99.076 111.693, 90.461 111.942, 88.504 113.373 M 95.535 126.806 C 87.152 127.237, 83.973 130.158, 90.146 131.758 C 93.324 132.581, 105.573 131.760, 106.684 130.649 C 107.543 129.791, 105.248 127.282, 103.217 126.858 C 102.273 126.661, 98.816 126.638, 95.535 126.806" stroke="none" fill="black" fill-rule="evenodd"/>
</svg>