<svg xmlns="http://www.w3.org/2000/svg" width="256" height="256" viewBox="0 0 256 256" version="1.1">
	<path d="M 104.500 32.920 C 96.656 36.575, 94.730 42.945, 100.319 46.750 C 104.211 49.400, 107.373 49.578, 112.500 47.436 C 114.972 46.403, 119.877 45.808, 126.936 45.686 C 135.915 45.530, 138.218 45.817, 141.319 47.481 C 143.350 48.570, 145.305 50.370, 145.663 51.481 C 146.515 54.121, 146.181 61.880, 144.864 70 C 144.284 73.575, 143.692 86.400, 143.548 98.500 C 143.304 118.902, 142.543 133.206, 141.401 138.815 C 140.898 141.285, 134.331 144.938, 130.321 144.978 C 127.546 145.006, 125.073 147.450, 125.510 149.735 C 125.695 150.706, 125.881 151.828, 125.923 152.230 C 126.095 153.866, 136.697 158.982, 139.934 158.991 C 144.052 159.002, 151.521 155.583, 152.579 153.204 C 153.932 150.158, 154.997 137.852, 155.384 120.763 C 155.593 111.558, 156.052 101.208, 156.404 97.763 C 157.808 84.006, 157.987 80.705, 158.460 59.830 C 159.096 31.716, 160.269 33.525, 141.332 33.432 C 133.724 33.395, 122.775 33.055, 117 32.676 C 110.991 32.282, 105.645 32.387, 104.500 32.920 M 75.654 34.134 C 74.581 34.758, 71.652 34.957, 68.654 34.610 C 65.819 34.282, 57.531 34.397, 50.235 34.866 C 39.698 35.542, 36.561 36.087, 34.985 37.514 C 32.185 40.047, 32.451 44.542, 35.585 47.676 C 38.035 50.126, 38.515 50.221, 44.835 49.506 C 48.501 49.091, 56.129 48.599, 61.787 48.412 C 70.941 48.111, 72.289 48.289, 74.037 50.037 C 75.117 51.117, 75.994 53.237, 75.987 54.750 C 75.980 56.263, 76.215 64.475, 76.510 73 C 77.225 93.708, 77.182 111.744, 76.380 127.467 C 75.746 139.912, 75.607 140.547, 72.937 143.217 C 71.163 144.991, 69.094 146, 67.232 146 C 63.960 146, 61.470 148.240, 60.523 152.036 C 60.026 154.031, 60.515 155.128, 62.815 157.178 C 67.301 161.175, 70.812 161.516, 77.233 158.579 C 80.262 157.194, 84.148 154.456, 85.870 152.495 L 89 148.930 89.085 134.215 C 89.131 126.122, 89.316 117.700, 89.497 115.500 C 90.541 102.746, 90.816 78.497, 90.064 65.500 C 89.163 49.926, 89.712 46.186, 93.520 41.978 C 94.804 40.559, 94.430 39.976, 90.123 36.692 C 85.026 32.805, 79.593 31.844, 75.654 34.134 M 106.385 63.227 C 102.006 66.606, 101.067 68.169, 101.032 72.135 C 100.992 76.723, 103.751 78.725, 111.110 79.446 C 114.364 79.765, 116.728 80.549, 117.250 81.482 C 117.717 82.317, 119.202 83, 120.550 83 C 122.790 83, 123 82.611, 123 78.465 C 123 75.970, 122.362 72.933, 121.582 71.715 C 120.801 70.497, 120.014 68.375, 119.832 67 C 119.589 65.172, 118.424 64.044, 115.500 62.806 C 110.257 60.585, 109.779 60.607, 106.385 63.227 M 36.285 68.476 C 33.060 69.878, 31.110 73.750, 32.497 75.995 C 32.874 76.605, 35.894 78.417, 39.209 80.023 C 46.902 83.750, 51.616 87.356, 53.464 90.931 C 57.331 98.407, 65.006 94.494, 64.996 85.051 C 64.991 80.030, 61.736 75.268, 56.741 72.972 C 54.408 71.900, 50.932 70.118, 49.016 69.011 C 44.972 66.677, 40.823 66.503, 36.285 68.476 M 51.401 108.977 C 49.377 111.164, 46.885 113.219, 45.863 113.543 C 44.841 113.868, 43.751 115.341, 43.442 116.817 C 43.132 118.292, 42.466 120.267, 41.960 121.204 C 40.480 123.948, 42.419 124.196, 48.687 122.063 C 51.884 120.976, 56.516 119.912, 58.979 119.700 C 62.643 119.384, 63.780 118.784, 65.224 116.407 C 67.292 113.001, 67.429 111.035, 65.839 107.547 C 64.831 105.333, 64.052 105, 59.880 105 C 55.569 105, 54.706 105.405, 51.401 108.977 M 104.899 106.180 C 104.019 106.906, 102.067 109.170, 100.561 111.210 C 97.465 115.405, 97.636 118.996, 101.142 123.453 C 104.486 127.705, 109.202 126.707, 115.492 120.417 C 117.120 118.789, 119.043 118, 121.383 118 C 123.294 118, 125.528 117.330, 126.347 116.510 C 128.006 114.851, 129.447 109.532, 128.606 108.171 C 128.307 107.688, 124.786 106.989, 120.782 106.617 C 116.777 106.246, 111.925 105.698, 110 105.401 C 107.835 105.066, 105.890 105.364, 104.899 106.180" stroke="none" fill="black" fill-rule="evenodd"/>
</svg>