<svg xmlns="http://www.w3.org/2000/svg" width="256" height="256" viewBox="0 0 256 256" version="1.1">
	<path d="M 61.058 30.653 C 59.277 32.918, 59.010 34.465, 59.235 41.206 C 59.482 48.567, 59.334 49.230, 57.053 50.955 C 55.288 52.290, 52.435 52.905, 46.819 53.160 C 40.001 53.469, 38.706 53.840, 36.409 56.136 C 33.530 59.015, 32.610 64.050, 34.290 67.736 C 35.484 70.357, 39.440 70.781, 42.527 68.618 C 43.612 67.859, 44.844 67.222, 45.264 67.204 C 45.685 67.186, 47.935 66.824, 50.264 66.399 C 55.633 65.422, 56.974 65.685, 59.750 68.261 C 64.440 72.613, 61.525 90.684, 55.825 92.598 C 54.546 93.028, 52.150 93.446, 50.500 93.527 C 45.180 93.791, 41.006 95.120, 40.083 96.845 C 38.948 98.966, 38.545 125.652, 39.537 133 C 40.291 138.586, 42.087 143.181, 44.670 146.134 C 46.215 147.899, 45.864 147.947, 60 144.071 C 74.703 140.041, 77.962 139.575, 82.662 140.832 C 88.653 142.434, 90.773 142.300, 91.842 140.250 C 93.362 137.337, 94.190 123.796, 93.135 119.103 C 92.338 115.560, 92.518 113.523, 94.060 108.603 C 98.560 94.252, 94.835 89.583, 80.104 91.112 C 69.385 92.225, 68.192 90.217, 73.088 79.303 C 77.591 69.267, 82.466 66.363, 86.872 71.093 C 87.976 72.278, 90.224 73.254, 92.054 73.343 C 95.018 73.487, 95.408 73.142, 96.745 69.196 C 98.462 64.125, 97.775 59.012, 95.044 56.540 C 93.815 55.427, 90.147 54.446, 84.814 53.802 C 80.241 53.250, 75.765 52.406, 74.866 51.926 C 72.737 50.790, 71.678 44.976, 72.978 41.558 C 75.624 34.599, 72.471 28, 66.500 28 C 64.061 28, 62.575 28.724, 61.058 30.653 M 112.465 34.961 C 107.229 37.059, 107.087 38.458, 108.591 73 C 108.995 82.272, 108.832 88.942, 108.141 91.500 C 107.546 93.700, 106.848 101.575, 106.590 109 C 106.108 122.891, 104.530 131.080, 101.005 137.991 C 97.229 145.392, 99.004 155.204, 104.228 155.812 C 106.735 156.104, 107.269 155.385, 112.397 144.812 C 116.889 135.551, 117.963 132.321, 118.319 127 C 118.826 119.417, 119.347 117.889, 121.986 116.241 C 123.364 115.380, 124.694 115.314, 126.532 116.012 C 130.564 117.545, 135.236 117.188, 139.764 115 C 142.041 113.900, 144.546 113, 145.330 113 C 147.967 113, 149.267 118.539, 148.820 127.875 C 148.318 138.380, 147.145 140.629, 140.349 144.116 C 136.296 146.196, 135.449 147.120, 135.191 149.743 C 134.549 156.263, 140.397 158.527, 150.196 155.553 C 160.252 152.502, 161.118 150.718, 161.282 132.726 C 161.611 96.632, 160.392 42.387, 159.205 40.273 C 157.094 36.514, 155.023 36.100, 141.367 36.708 C 132.671 37.094, 126.561 36.878, 122.930 36.056 C 119.944 35.379, 116.825 34.672, 116 34.485 C 115.175 34.298, 113.584 34.512, 112.465 34.961 M 124.081 50.919 C 120.674 54.326, 120.175 63.096, 123.181 66.718 C 123.742 67.394, 125.843 68.207, 127.850 68.525 C 129.858 68.843, 134.508 69.834, 138.185 70.728 C 143.693 72.066, 145.146 72.123, 146.435 71.054 C 148.645 69.220, 148.429 60.541, 146.043 55.285 C 143.946 50.667, 143.497 50.472, 132.775 49.536 C 126.946 49.028, 125.788 49.212, 124.081 50.919 M 122.241 84.986 C 120.799 87.295, 120.563 102.762, 121.937 104.932 C 122.703 106.143, 123.509 106.166, 127.171 105.079 C 129.552 104.372, 132.055 103.341, 132.734 102.788 C 133.412 102.235, 136.228 101.658, 138.992 101.507 C 145.613 101.143, 147 99.852, 147 94.052 C 147 87.544, 144.258 85, 137.245 85 C 134.425 85, 131.840 84.550, 131.500 84 C 130.339 82.121, 123.580 82.841, 122.241 84.986 M 67.500 103.068 C 65.850 104.125, 63.085 104.992, 61.356 104.995 C 59.247 104.998, 57.153 105.989, 54.997 108.003 C 52.138 110.674, 51.854 111.421, 52.429 114.753 C 52.785 116.814, 53.332 120.188, 53.643 122.250 C 54.244 126.224, 55.376 126.789, 58.296 124.574 C 60.342 123.022, 63.365 123.525, 67 126.021 C 71.622 129.195, 73.971 129.408, 76.337 126.870 C 78.200 124.871, 78.531 123.228, 78.720 115.025 C 78.926 106.086, 78.790 105.362, 76.514 103.250 C 73.603 100.551, 71.496 100.508, 67.500 103.068" stroke="none" fill="black" fill-rule="evenodd"/>
</svg>