<svg xmlns="http://www.w3.org/2000/svg" width="256" height="256" viewBox="0 0 256 256" version="1.1">
	<path d="M 60.502 29.575 C 58.853 30.435, 56.691 31.874, 55.698 32.774 C 54.410 33.939, 52.254 34.359, 48.196 34.234 C 39.053 33.955, 33.808 37.236, 37.499 40.928 C 39.168 42.597, 47.200 42.943, 52.109 41.557 C 54.046 41.010, 54.874 41.230, 55.327 42.410 C 56.570 45.650, 54.982 47, 49.928 47 C 44.151 47, 42.812 48.688, 42.395 56.500 C 41.862 66.462, 40.428 73.572, 38.237 77.118 C 35.746 81.147, 35.259 88.034, 37.136 92.685 C 37.761 94.233, 38.204 96.731, 38.121 98.235 C 37.907 102.119, 41.149 104.998, 45.750 105.010 C 49.440 105.019, 59.872 109.149, 60.134 110.704 C 60.851 114.944, 60.379 129.541, 59.388 133.803 C 57.469 142.061, 56.066 143.113, 47.983 142.362 C 41.987 141.805, 41.033 141.967, 39.131 143.869 C 36.755 146.245, 36.386 148.986, 38.200 150.800 C 39.822 152.422, 46.984 152.318, 51.128 150.612 C 54.119 149.381, 55.176 149.441, 60.484 151.140 C 65.675 152.801, 70.243 153.099, 94.984 153.389 C 114.502 153.618, 125.162 154.146, 128.768 155.063 C 133.372 156.234, 134.694 156.195, 139.268 154.753 C 142.145 153.846, 146.705 152.855, 149.399 152.551 C 152.094 152.246, 154.906 151.493, 155.649 150.876 C 159.567 147.624, 154.683 142.002, 147.936 141.996 C 145.280 141.994, 142.196 141.197, 140.250 140.011 C 136.750 137.877, 136.806 138.101, 136.506 125 C 136.411 120.875, 135.992 115.684, 135.574 113.465 L 134.813 109.429 140.157 107.127 C 152.236 101.922, 152.477 101.749, 152.821 98 C 152.998 96.075, 153.561 94.073, 154.071 93.550 C 156.586 90.977, 154.216 85.354, 149.195 81.982 C 147.163 80.617, 145.017 79.074, 144.426 78.553 C 142.740 77.066, 143.929 73.443, 147.099 70.405 C 149.256 68.339, 150 66.696, 150 64 C 150 61.250, 150.745 59.665, 153.086 57.437 C 159.514 51.319, 159.152 48.842, 151.326 45.381 C 148.071 43.941, 145.611 42.121, 145.072 40.754 C 144.582 39.514, 143.630 37.020, 142.954 35.212 C 142.278 33.403, 140.880 31.471, 139.847 30.918 C 138.813 30.365, 132.766 29.461, 126.408 28.908 C 115.909 27.997, 114.560 28.073, 111.708 29.739 C 109.567 30.989, 108.198 32.836, 107.409 35.537 C 106.773 37.716, 105.243 41.425, 104.011 43.777 C 102.014 47.588, 101.848 48.895, 102.489 55.777 C 102.885 60.025, 103.640 64.312, 104.168 65.304 C 105.535 67.873, 111.027 70.992, 114.191 70.996 C 117.914 71.001, 118.782 72.948, 116.048 75.162 C 114.800 76.173, 114.063 77, 114.410 77 C 114.758 77, 112.558 79.525, 109.521 82.610 C 106.485 85.696, 104 88.985, 104 89.919 C 104 90.853, 103.375 92.473, 102.610 93.519 C 101.446 95.110, 100.126 95.379, 94.492 95.171 C 90.792 95.034, 86.301 95.406, 84.512 95.996 C 80.518 97.314, 73.185 97.503, 62 96.577 C 49.575 95.547, 49 95.364, 49 92.437 C 49 88.387, 52.803 85.143, 58 84.760 C 60.475 84.577, 62.994 84.122, 63.598 83.749 C 64.844 82.979, 79.208 83.452, 86 84.486 C 89.830 85.070, 90.850 84.842, 92.849 82.955 C 94.789 81.124, 95.061 80.195, 94.413 77.619 C 93.982 75.904, 93.579 72.025, 93.517 69 C 93.447 65.571, 92.737 62.490, 91.631 60.817 C 90.194 58.642, 90.078 57.723, 91.020 55.962 C 91.703 54.687, 91.910 52.333, 91.522 50.264 C 91.024 47.610, 91.418 45.688, 93.119 42.482 C 95.313 38.346, 95.327 38.147, 93.594 35.504 C 91.840 32.827, 91.691 32.794, 84.404 33.477 C 77.210 34.151, 76.877 34.082, 72.802 31.085 C 68.125 27.646, 64.950 27.256, 60.502 29.575 M 120.242 42.491 C 115.269 44.657, 113.216 52.136, 116.750 55.214 C 117.727 56.065, 121.539 57.035, 125.376 57.410 C 133.957 58.248, 136 56.897, 136 50.384 C 136 45.321, 133.185 42, 128.893 42 C 127.392 42, 125.564 41.791, 124.832 41.536 C 124.099 41.282, 122.034 41.711, 120.242 42.491 M 52.101 57.378 C 51.495 58.109, 51.466 59.132, 52.027 60.034 C 52.776 61.238, 53.299 61.277, 54.956 60.250 C 56.065 59.563, 57.654 59, 58.486 59 C 60.612 59, 60.386 57.017, 58.250 56.923 C 57.288 56.881, 55.732 56.699, 54.794 56.518 C 53.855 56.338, 52.643 56.725, 52.101 57.378 M 71.750 56.798 C 70.237 56.982, 69 57.580, 69 58.125 C 69 58.671, 69.384 58.881, 69.853 58.591 C 70.322 58.301, 71.537 58.672, 72.553 59.415 C 73.958 60.443, 74.832 60.497, 76.201 59.643 C 77.190 59.025, 78 58.230, 78 57.876 C 78 56.943, 74.924 56.412, 71.750 56.798 M 126.278 86.795 C 122.649 88.674, 121.049 90.111, 121.033 91.500 C 121.014 93.323, 121.671 93.500, 128.447 93.500 C 137.327 93.500, 138.843 92.526, 136.875 88.081 C 136.125 86.386, 135.208 85, 134.838 85 C 134.467 85, 133.564 84.795, 132.832 84.545 C 132.099 84.295, 129.150 85.308, 126.278 86.795 M 111.500 105.119 C 109.300 105.608, 105.700 106.033, 103.500 106.063 C 101.300 106.093, 98.445 106.692, 97.157 107.394 C 95.080 108.525, 94.983 108.840, 96.304 110.161 C 97.485 111.342, 99.828 111.565, 107.576 111.233 C 118.220 110.777, 122 109.831, 122 107.623 C 122 106.563, 116.228 103.399, 115.601 104.115 C 115.545 104.178, 113.700 104.630, 111.500 105.119 M 115 121.918 C 115 124.645, 116.450 125.999, 119.357 125.985 C 121.511 125.974, 122.071 125.698, 121.137 125.106 C 119.986 124.377, 119.986 124.157, 121.137 123.697 C 122.255 123.250, 122.230 122.961, 121 122.091 C 119.152 120.785, 115 120.665, 115 121.918 M 97.543 124.931 C 97.226 125.443, 97.450 126.160, 98.041 126.525 C 99.562 127.466, 104.204 126.140, 103.482 124.971 C 102.717 123.732, 98.302 123.703, 97.543 124.931 M 80.118 137.884 C 79.035 138.587, 79.350 139.183, 81.580 140.641 C 84.102 142.290, 86.345 142.479, 101.462 142.314 C 123.909 142.070, 122.769 142.140, 121.143 141.110 C 120.104 140.451, 120.070 140.075, 121 139.500 C 121.930 138.925, 121.896 138.549, 120.857 137.890 C 119.119 136.789, 114.274 136.747, 113.607 137.827 C 113.082 138.676, 111.397 138.658, 92.500 137.602 C 86.450 137.264, 80.878 137.391, 80.118 137.884" stroke="none" fill="black" fill-rule="evenodd"/>
</svg>