<svg xmlns="http://www.w3.org/2000/svg" width="256" height="256" viewBox="0 0 256 256" version="1.1">
	<path d="M 57 26.165 C 54.525 26.542, 50.117 26.885, 47.205 26.926 C 43.078 26.984, 41.402 27.507, 39.614 29.295 C 37.369 31.540, 37.325 31.984, 37.551 50.045 C 37.678 60.195, 38.303 75.243, 38.939 83.484 C 39.576 91.726, 39.848 100.051, 39.544 101.984 C 38.361 109.501, 38.778 131.501, 40.199 136.582 C 40.980 139.377, 41.741 144.279, 41.889 147.475 C 42.447 159.515, 48.383 165.275, 52.450 157.724 C 53.930 154.974, 54.129 152.762, 53.685 143.974 C 53.394 138.213, 52.821 131.700, 52.410 129.500 C 51.455 124.376, 51.271 78.396, 52.202 77.464 C 52.589 77.078, 60.959 76.800, 70.802 76.846 L 88.700 76.930 90.897 74.404 C 92.500 72.560, 93.086 70.610, 93.067 67.189 C 93.053 64.610, 93.046 61.150, 93.052 59.500 C 93.059 57.850, 92.937 50.723, 92.782 43.662 C 92.431 27.675, 91.956 27.046, 80.139 26.916 C 75.938 26.869, 70.025 26.527, 67 26.154 C 63.975 25.782, 59.475 25.787, 57 26.165 M 128.660 26.952 C 103.583 27.611, 104.117 27.334, 103.818 39.861 C 102.906 78.120, 102.618 77, 113.367 77 C 117.369 77, 120 77.420, 120 78.059 C 120 78.641, 120.450 78.840, 121 78.500 C 121.550 78.160, 122 78.765, 122 79.843 C 122 82.946, 116.849 84.169, 107.008 83.402 C 102.328 83.037, 97.927 82.284, 97.227 81.728 C 96.028 80.776, 86.924 81.148, 75.856 82.601 C 71.651 83.153, 69 85.081, 69 87.585 C 69 88.247, 70.351 90.299, 72.003 92.144 C 73.655 93.990, 75.402 95.986, 75.884 96.581 C 76.367 97.175, 76.589 98.975, 76.377 100.581 C 76.165 102.186, 75.881 108.375, 75.746 114.332 C 75.502 125.067, 75.472 125.189, 72.414 127.832 C 70.717 129.300, 68.467 131.036, 67.414 131.691 C 65.660 132.783, 65.741 132.887, 68.382 132.941 C 69.967 132.974, 72.884 134.001, 74.864 135.225 C 78.202 137.288, 79.478 137.430, 92.390 137.176 L 106.316 136.903 110.158 140.654 C 112.471 142.913, 114 145.346, 114 146.769 C 114 150.464, 115.826 153, 118.488 153 C 120.420 153, 121.109 152.266, 121.916 149.344 C 122.471 147.333, 122.704 145.331, 122.435 144.894 C 122.165 144.457, 122.969 143.573, 124.222 142.928 C 128.196 140.883, 132 136.705, 132 134.385 C 132 132.745, 130.964 131.688, 128.130 130.437 C 124.328 128.760, 124.230 128.581, 122.610 120.336 C 121.609 115.239, 121.297 111.266, 121.816 110.221 C 122.776 108.289, 122.614 102.659, 121.501 99.250 C 120.916 97.458, 121.147 96.999, 122.633 96.996 C 125.752 96.990, 130.906 93.223, 131.605 90.438 C 132.058 88.634, 131.580 86.597, 130.074 83.918 L 127.885 80.023 131.692 78.381 C 133.787 77.478, 137.149 75.941, 139.165 74.966 C 142.705 73.252, 142.898 73.256, 144.873 75.096 C 146.839 76.928, 146.917 78.077, 146.902 105.033 C 146.885 135.518, 145.939 142.253, 141.208 145.567 C 138.174 147.692, 138.290 152.381, 141.455 155.545 C 144.418 158.509, 145.923 158.590, 150.897 156.053 C 155.055 153.931, 156.550 151.141, 157.353 144 C 157.632 141.525, 158.346 136.800, 158.940 133.500 C 160.497 124.852, 160.202 35.362, 158.600 30.315 C 157.959 28.295, 153.025 25.758, 150.601 26.202 C 149.995 26.312, 140.122 26.650, 128.660 26.952 M 59.674 38.007 C 53.274 38.825, 51.631 39.840, 52.167 42.644 C 52.454 44.145, 53.761 44.616, 59.011 45.105 C 62.580 45.438, 67.525 46.032, 70 46.425 C 73.798 47.027, 74.851 46.810, 76.750 45.030 C 79.511 42.444, 79.529 41.945, 76.961 39.189 C 74.747 36.812, 71.016 36.557, 59.674 38.007 M 129 38.931 C 119.660 39.605, 118 40.213, 118 42.961 C 118 45.936, 123.317 47.156, 132.992 46.402 C 142.046 45.696, 144 44.889, 144 41.853 C 144 40.161, 140.137 37.707, 138.185 38.158 C 137.808 38.246, 133.675 38.593, 129 38.931 M 137.438 58.070 C 135.272 59.094, 132.825 59.968, 132 60.011 C 130.141 60.109, 138.906 64.892, 141.059 64.955 C 141.916 64.980, 143.412 64.419, 144.383 63.709 C 145.888 62.608, 145.970 62.028, 144.938 59.764 C 143.300 56.169, 142.053 55.887, 137.438 58.070 M 65.711 58.852 C 63.557 60.272, 63.216 60.918, 64.211 61.690 C 67.927 64.572, 73.825 65.486, 76.327 63.567 C 78.057 62.242, 78.064 62.027, 76.462 59.583 C 74.400 56.435, 69.847 56.125, 65.711 58.852 M 95.020 94.743 C 87.170 95.434, 85.658 99.105, 93.311 98.890 C 95.615 98.825, 99.275 99.448, 101.444 100.274 C 104.493 101.435, 105.854 101.517, 107.444 100.638 C 110.850 98.753, 111.020 97.654, 108.193 95.789 C 105.559 94.052, 104.152 93.940, 95.020 94.743 M 101 109.933 C 101 110.446, 100.011 111.179, 98.802 111.563 L 96.604 112.261 98.913 114.130 C 100.183 115.159, 102.184 116.032, 103.361 116.070 C 105.443 116.139, 105.447 116.164, 103.500 117 C 101.763 117.746, 101.884 117.869, 104.417 117.930 C 106.021 117.968, 107.037 117.704, 106.675 117.342 C 106.313 116.980, 106.495 116.109, 107.078 115.406 C 107.813 114.520, 107.822 113.535, 107.105 112.195 C 106.536 111.133, 106.355 109.979, 106.702 109.631 C 107.049 109.284, 105.908 109, 104.167 109 C 102.425 109, 101 109.420, 101 109.933 M 91.813 112.683 C 92.534 112.972, 93.397 112.936, 93.729 112.604 C 94.061 112.272, 93.471 112.036, 92.417 112.079 C 91.252 112.127, 91.015 112.364, 91.813 112.683 M 99.629 121.704 C 99.241 122.092, 97.739 122.568, 96.289 122.762 C 87.554 123.932, 89.380 127.431, 99.427 128.778 C 105.501 129.591, 106.241 129.494, 107.483 127.721 C 109.660 124.613, 107.522 121, 103.506 121 C 101.761 121, 100.016 121.317, 99.629 121.704" stroke="none" fill="black" fill-rule="evenodd"/>
</svg>