<svg xmlns="http://www.w3.org/2000/svg" width="256" height="256" viewBox="0 0 256 256" version="1.1">
	<path d="M 83.461 27.701 C 82.487 29.186, 81.753 31.998, 81.829 33.951 C 81.905 35.903, 81.732 38.245, 81.446 39.157 C 80.660 41.656, 73.689 44, 67.045 44 C 59.952 44, 56.521 45.157, 54.959 48.077 C 54.002 49.864, 54.142 50.715, 55.748 52.875 C 57.531 55.274, 58.608 55.589, 68.229 56.527 C 81.036 57.777, 82.351 58.609, 81.502 64.921 C 80.974 68.856, 78.754 74, 77.585 74 C 77.382 74, 72.616 74.922, 66.993 76.049 C 61.370 77.177, 53.764 78.011, 50.091 77.904 C 40.398 77.621, 36.248 80.542, 37.847 86.522 C 38.926 90.553, 41.178 91.696, 45.206 90.256 C 47.018 89.608, 52.325 88.827, 57 88.521 C 61.675 88.215, 66.695 87.721, 68.155 87.424 C 69.615 87.126, 71.104 87.359, 71.464 87.941 C 71.824 88.524, 73.291 89, 74.726 89 C 76.160 89, 77.049 89.284, 76.702 89.631 C 76.355 89.979, 76.506 91.076, 77.038 92.071 C 77.684 93.278, 77.649 94.099, 76.935 94.540 C 76.346 94.904, 76.089 95.790, 76.364 96.507 C 77.184 98.644, 73.589 101.027, 68.279 101.867 C 65.437 102.316, 61.350 103.972, 58.746 105.729 C 56.239 107.421, 53.358 109.088, 52.344 109.434 C 48.818 110.635, 45.038 114.561, 44.417 117.667 C 43.632 121.592, 46.645 125, 50.901 125 C 54.526 125, 63.503 120.910, 66.176 118.041 C 68.774 115.253, 72.204 115.727, 73.109 119 C 73.490 120.375, 73.846 124.650, 73.901 128.500 C 74.075 140.652, 79.392 151.085, 87.304 154.801 C 93.007 157.479, 104.763 159.168, 113.383 158.546 C 117.297 158.264, 124.451 157.782, 129.279 157.474 C 134.108 157.166, 138.829 156.619, 139.772 156.257 C 140.714 155.896, 144.064 153.092, 147.216 150.027 C 152.605 144.786, 152.958 144.150, 153.127 139.379 C 153.352 133.023, 152.713 132, 148.523 132 C 143.453 132, 142.169 132.829, 140.141 137.413 C 138.427 141.290, 137.870 141.701, 132.892 142.770 C 129.926 143.407, 121.089 144.145, 113.253 144.409 C 100.687 144.833, 98.490 144.662, 94.635 142.957 C 92.231 141.893, 89.789 140.451, 89.209 139.752 C 87.870 138.139, 86.624 127.761, 87.454 125.144 C 88.173 122.879, 92.775 121, 97.602 121 C 99.419 121, 101.940 120.592, 103.203 120.094 C 109.298 117.690, 119.381 115, 122.299 115 C 125.633 115, 129 112.280, 129 109.586 C 129 108.821, 127.537 107.672, 125.750 107.031 C 120.352 105.098, 108.481 103.300, 106.427 104.105 C 102.846 105.507, 97.778 105.076, 96.392 103.250 C 94.862 101.235, 94.551 97, 95.933 97 C 96.446 97, 97.129 96.169, 97.451 95.154 C 98.160 92.922, 103.443 91.199, 111.354 90.620 C 114.574 90.384, 117.647 89.753, 118.183 89.217 C 119.212 88.188, 125.312 88.416, 141.147 90.078 C 152.221 91.240, 155.256 90.759, 156.961 87.573 C 158.692 84.339, 157.915 81.010, 154.908 78.773 C 152.706 77.135, 150.606 76.846, 140.908 76.842 C 131.712 76.838, 129.099 76.512, 127.433 75.156 C 124.312 72.618, 123.100 69.906, 124.043 67.564 C 124.499 66.429, 125.147 63.814, 125.481 61.752 C 125.938 58.937, 126.822 57.626, 129.034 56.482 C 130.654 55.645, 132.210 54.971, 132.493 54.986 C 133.966 55.061, 137 52.306, 137 50.894 C 137 50.001, 137.900 48.126, 139 46.727 C 141.340 43.752, 141.623 38.762, 139.548 37.040 C 137.143 35.044, 134.166 36.854, 131.701 41.812 C 128.802 47.642, 125.787 48.248, 117.812 44.600 C 113.548 42.650, 110.731 42.099, 105.098 42.117 C 96.065 42.146, 92.432 40.274, 93.553 36.169 C 95.290 29.813, 92.880 25, 87.960 25 C 86.097 25, 84.668 25.858, 83.461 27.701 M 95.092 58.402 C 90.211 63.598, 91.809 74, 97.490 74 C 103.737 74, 110.915 60.605, 106.427 57.323 C 103.419 55.123, 97.657 55.672, 95.092 58.402" stroke="none" fill="black" fill-rule="evenodd"/>
</svg>