<svg xmlns="http://www.w3.org/2000/svg" width="256" height="256" viewBox="0 0 256 256" version="1.1">
	<path d="M 38.500 31.921 C 37.400 32.384, 35.619 33.743, 34.542 34.941 C 31.765 38.027, 33.395 40.062, 40.596 42.500 C 50.352 45.803, 50.377 45.830, 49.133 52.097 C 48.543 55.069, 47.567 62.225, 46.964 68 C 45.809 79.075, 44.720 81.778, 39.694 86.062 C 37.293 88.108, 36.818 89.138, 37.331 91.182 C 37.955 93.669, 38.289 93.765, 49.237 94.601 C 61.609 95.546, 67 95.359, 68.450 93.934 C 70.259 92.156, 76.018 92.983, 79.953 95.587 C 87.730 100.734, 83.192 104.413, 70.401 103.332 C 64.217 102.809, 62.669 102.989, 61.095 104.414 C 58.630 106.645, 59.686 111.056, 63.065 112.646 C 64.404 113.276, 69.775 114.023, 75 114.305 C 80.225 114.587, 85.972 115.452, 87.772 116.228 L 91.044 117.638 88.740 120.319 C 86.908 122.451, 85.560 123, 82.152 123 C 79.796 123, 76.896 122.480, 75.708 121.844 C 70.631 119.126, 66.874 119.065, 60.168 121.589 C 53.166 124.224, 50.996 125.595, 51.008 127.372 C 51.015 128.454, 55.430 131, 57.298 131 C 57.793 131, 59.616 131.636, 61.349 132.414 C 67.587 135.213, 72.602 136.315, 80.156 136.547 C 84.383 136.677, 88.327 137.084, 88.920 137.451 C 90.922 138.688, 90.095 142.611, 87.545 143.976 C 85.454 145.095, 84.719 145.046, 82.581 143.645 C 79.478 141.612, 73.237 141.558, 66 143.500 C 59.289 145.301, 52.764 145.406, 48.277 143.783 C 44.351 142.363, 41.680 143.496, 41.189 146.791 C 40.628 150.545, 44.335 153, 50.566 153 C 53.627 153, 57.114 153.553, 58.316 154.229 C 61.382 155.954, 146.703 157.069, 153.735 155.476 C 155.078 155.172, 156.227 153.942, 156.616 152.394 C 157.462 149.022, 155.216 146.953, 147.691 144.171 C 142.478 142.243, 141.542 142.164, 138.580 143.402 C 136.764 144.161, 133.303 144.619, 130.889 144.420 C 128.475 144.221, 122.619 143.827, 117.875 143.545 C 113.131 143.264, 108.519 142.753, 107.625 142.410 C 105.057 141.424, 105.712 138.358, 108.750 137.145 C 112.164 135.782, 135.660 135.013, 138.819 136.161 C 144.685 138.291, 149.154 134.132, 146.505 129.009 C 145.649 127.354, 144.841 126, 144.710 126 C 144.579 126, 142.009 125.100, 139 124 C 134.477 122.347, 131.038 122, 119.170 122 C 105.723 122, 104.780 121.875, 104.297 120.029 C 103.463 116.837, 103.789 116.557, 109.781 115.314 C 118.149 113.579, 136.895 106.716, 137.488 105.171 C 137.769 104.439, 137.745 102.832, 137.435 101.598 C 136.524 97.968, 126.951 95.449, 124.267 98.133 C 123.644 98.756, 119.967 99.408, 116.096 99.582 C 112.225 99.756, 108.174 100.372, 107.094 100.949 C 104.587 102.291, 97.443 102.308, 94.957 100.977 C 93.375 100.130, 93.145 99.224, 93.623 95.727 C 93.978 93.135, 93.583 89.370, 92.601 85.994 C 91.507 82.232, 91.270 79.539, 91.852 77.494 C 92.694 74.533, 92.661 73.434, 91.543 67.409 C 91.215 65.643, 91.601 62.806, 92.443 60.791 C 93.331 58.665, 93.687 55.849, 93.340 53.705 C 92.864 50.772, 93.215 49.695, 95.336 47.573 C 99.127 43.782, 102.380 44.173, 104.517 48.677 C 105.999 51.801, 106.159 53.992, 105.575 63.218 C 104.757 76.138, 106.739 86.999, 110.598 90.750 C 112.969 93.055, 119 93.919, 119 91.954 C 119 90.936, 127.563 90.798, 129.366 91.787 C 129.842 92.048, 134.567 92.177, 139.866 92.073 C 152.217 91.832, 154.140 90.758, 153.978 84.196 C 153.913 81.613, 154.104 71.505, 154.401 61.733 C 154.763 49.823, 154.579 43.170, 153.841 41.551 C 151.969 37.443, 147.963 36.483, 138.856 37.962 C 133.735 38.794, 127.799 39.008, 122.132 38.564 C 115.075 38.012, 112.527 38.205, 109.174 39.547 C 106.878 40.466, 105 41.604, 105 42.077 C 105 43.969, 102.307 41.729, 99.973 37.896 C 96.505 32.201, 93.412 30.804, 86.277 31.709 C 83.100 32.113, 79.825 32.413, 79 32.376 C 58.605 31.473, 40.055 31.265, 38.500 31.921 M 64.223 44.557 C 63 45.413, 62 46.709, 62 47.438 C 62 48.720, 68.902 51, 72.782 51 C 75.307 51, 77.516 46.327, 75.907 44.388 C 74.352 42.515, 66.986 42.621, 64.223 44.557 M 119.744 52.731 C 118.238 54.394, 118.077 55.931, 118.607 63.584 C 119.397 75.006, 120.727 76.638, 130 77.561 C 135.800 78.138, 136.809 77.963, 139.369 75.938 C 142.171 73.721, 142.227 73.487, 141.789 65.918 C 141.239 56.411, 139.584 53.470, 134.303 52.616 C 122.638 50.727, 121.549 50.736, 119.744 52.731 M 70.091 60.090 C 66.024 61.716, 65.037 63.898, 66.892 67.160 C 68.877 70.650, 72.288 70.881, 75.592 67.750 C 78.411 65.077, 78.666 62.226, 76.250 60.392 C 74.199 58.835, 73.335 58.793, 70.091 60.090 M 67.913 74.282 C 65.373 76.232, 63.665 80.065, 64.820 81.220 C 65.374 81.774, 67.882 82.458, 70.395 82.741 C 74.119 83.161, 75.088 82.933, 75.634 81.511 C 76.490 79.280, 74.725 74.422, 73.178 74.750 C 72.530 74.888, 72 74.550, 72 74 C 72 72.644, 69.853 72.793, 67.913 74.282" stroke="none" fill="black" fill-rule="evenodd"/>
</svg>