<svg xmlns="http://www.w3.org/2000/svg" width="256" height="256" viewBox="0 0 256 256" version="1.1">
	<path d="M 142.500 29.925 C 136.723 30.294, 132.153 31.169, 129.740 32.369 C 126.048 34.204, 125.894 34.201, 121.240 32.239 C 117.206 30.538, 114.457 30.261, 102.790 30.380 C 95.168 30.458, 88.704 30.960, 88.235 31.510 C 87.770 32.055, 86.154 34.188, 84.644 36.250 C 82.706 38.896, 81.143 40, 79.331 40 C 76.221 40, 69 46.822, 69 49.760 C 69 52.442, 66.202 59, 65.058 59 C 64.555 59, 63.443 58.300, 62.588 57.445 C 61.392 56.249, 61.054 53.770, 61.125 46.695 C 61.257 33.385, 61.226 33.194, 58.635 31.496 C 55.630 29.528, 51.492 30.887, 50.428 34.193 C 50.020 35.462, 49.622 40.100, 49.544 44.500 C 49.407 52.232, 47.374 58.876, 45.341 58.235 C 44.272 57.898, 42.176 52.180, 42.076 49.327 C 41.984 46.695, 37.393 41, 35.363 41 C 33.579 41, 29 45.780, 29 47.643 C 29 48.387, 30.350 51.852, 32 55.344 C 33.650 58.836, 35 62.180, 35 62.774 C 35 64.597, 40.118 67.999, 42.885 68.015 C 46.229 68.035, 47.535 68.946, 48.245 71.754 C 48.691 73.516, 48.313 74.134, 46.516 74.585 C 45.251 74.903, 43.380 75.040, 42.358 74.890 C 39.315 74.443, 36.246 75.919, 33.544 79.130 C 29.472 83.969, 30.118 86.227, 36.500 89.456 C 42.907 92.697, 42.965 92.961, 39.626 103.796 C 38.320 108.033, 36.707 115.038, 36.041 119.363 C 35.376 123.687, 34.195 129.032, 33.416 131.239 C 30.185 140.394, 32.821 149.098, 38.226 147.122 C 40.628 146.244, 40.891 145.821, 46.375 134 C 50.330 125.477, 51.218 120.289, 51.512 104 C 51.741 91.268, 52.294 89, 55.166 89 C 56.240 89, 56.864 89.412, 56.553 89.915 C 56.242 90.418, 56.487 90.996, 57.098 91.199 C 58.244 91.581, 58.409 92.652, 59.533 107 C 59.899 111.675, 60.872 118.200, 61.696 121.500 C 62.662 125.370, 62.972 129.465, 62.571 133.034 C 62.042 137.746, 62.252 138.894, 63.988 140.757 C 65.605 142.492, 66.489 142.750, 68.263 142.003 C 69.493 141.485, 73.200 140.602, 76.500 140.041 C 83.624 138.828, 87 135.777, 87 130.548 C 87 127.976, 86.187 126.493, 83.465 124.104 C 81.521 122.397, 79.249 121, 78.417 121 C 76.262 121, 74.150 115.304, 74.722 111.038 C 75.195 107.513, 71.787 97.993, 69.751 97.151 C 68.723 96.726, 76.033 91.067, 77.661 91.028 C 79.575 90.982, 84 85.021, 84 82.488 C 84 79.278, 82.628 75.975, 80.092 73.081 C 78.926 71.751, 78.171 69.951, 78.413 69.081 C 78.656 68.211, 79.160 65.475, 79.534 63 C 80.382 57.385, 83.745 49.312, 85.519 48.631 C 87.287 47.953, 88.561 49.653, 89.864 54.427 C 90.764 57.722, 90.619 59.072, 88.968 62.804 C 86.124 69.235, 86.404 71.469, 90.365 73.916 C 92.215 75.060, 95.140 76.278, 96.865 76.623 C 99.041 77.058, 100 77.824, 100 79.125 C 100 80.156, 100.450 81, 101 81 C 102.426 81, 102.239 85.361, 100.750 86.850 C 100.063 87.537, 99.462 88.415, 99.416 88.800 C 99.370 89.185, 98.763 90.850, 98.067 92.500 C 97.371 94.150, 96.714 96.017, 96.607 96.649 C 96.271 98.632, 94.047 100.738, 90.920 102.033 C 89.262 102.720, 87.271 104.509, 86.496 106.008 C 84.771 109.343, 85.847 111.193, 91 113.758 C 96.278 116.386, 99.280 122.914, 98.469 130 C 98.122 133.025, 97.899 139.761, 97.973 144.969 C 98.081 152.577, 98.507 155.084, 100.136 157.719 C 102.504 161.551, 103.866 161.727, 109.617 158.943 C 113.515 157.057, 115.664 156.890, 135.683 156.925 C 160.336 156.967, 162.298 156.549, 162.820 151.134 C 163.375 145.384, 161.204 144.107, 151.957 144.740 C 144.063 145.281, 140.991 144.408, 141.006 141.628 C 141.017 139.759, 146.912 137, 150.892 137 C 153.264 137, 155.420 136.257, 156.811 134.961 C 159.437 132.515, 159.434 132.544, 157.322 128.968 C 155.907 126.573, 153.097 124.945, 149.750 124.582 C 149.338 124.537, 148.887 124.062, 148.750 123.527 C 148.613 122.993, 150.692 122.517, 153.371 122.472 C 159.322 122.370, 161.265 120.411, 159.952 115.834 C 159.475 114.169, 158.599 112.222, 158.007 111.508 C 156.741 109.983, 157.008 108.077, 158.750 106.202 C 160.679 104.126, 160.300 96.591, 158.130 93.913 C 156.414 91.793, 155.893 91.687, 151.788 92.627 C 147.924 93.511, 146.647 93.345, 142.408 91.408 C 139.708 90.175, 137.893 89.129, 138.372 89.083 C 140.051 88.923, 136.737 86, 134.878 86 C 133.845 86, 133 85.550, 133 85 C 133 84.450, 132.325 84, 131.500 84 C 130.675 84, 130 84.378, 130 84.839 C 130 85.301, 128.782 86.234, 127.293 86.912 C 125.804 87.591, 123.979 89.013, 123.236 90.073 C 122.257 91.471, 120.699 92, 117.562 92 C 114.024 92, 112.674 91.424, 110.138 88.830 C 106.839 85.456, 107.254 83, 111.122 83 C 112.155 83, 113 82.600, 113 82.111 C 113 81.623, 114.463 80.945, 116.250 80.606 C 118.037 80.267, 120.784 79.319, 122.354 78.500 C 124.245 77.513, 128.409 76.977, 134.689 76.911 C 142.549 76.828, 144.540 77.127, 146.335 78.656 C 149.311 81.191, 152.686 83, 154.439 83 C 157.504 83, 160.913 80.624, 162.157 77.620 C 163.770 73.728, 163.621 41.411, 161.968 36.402 C 160.658 32.434, 156.605 28.927, 153.615 29.175 C 152.452 29.272, 147.450 29.609, 142.500 29.925 M 101.280 43.029 C 98.124 44.286, 97.599 47.824, 99.720 53.547 C 101.077 57.212, 102.137 58.584, 103.794 58.822 C 105.592 59.080, 106.420 58.292, 107.995 54.822 C 109.074 52.445, 109.966 49.574, 109.978 48.441 C 110.024 44.135, 105.529 41.338, 101.280 43.029 M 145 42.767 C 141.960 43.706, 141.177 45.852, 142.258 50.284 C 142.823 52.603, 143.943 55.262, 144.746 56.193 C 146.116 57.780, 146.326 57.774, 148.133 56.091 C 149.298 55.005, 150.290 52.347, 150.644 49.361 C 151.176 44.862, 151.019 44.331, 148.864 43.364 C 147.564 42.781, 145.825 42.512, 145 42.767 M 123.573 48.703 C 122.342 57.176, 122.713 61.158, 124.943 63.388 C 126.911 65.355, 127.146 65.375, 129.756 63.796 C 133.397 61.594, 133.554 60.095, 130.599 55.742 C 129.239 53.737, 127.986 50.392, 127.813 48.307 C 127.604 45.780, 126.962 44.415, 125.885 44.211 C 124.653 43.978, 124.106 45.040, 123.573 48.703 M 64.286 70.250 C 64.260 70.938, 63.934 72.229, 63.562 73.121 C 62.757 75.048, 64.861 76.111, 67.904 75.315 C 70.212 74.711, 70.674 72.074, 68.800 70.200 C 67.227 68.627, 64.346 68.659, 64.286 70.250 M 113 107.399 C 113 109.535, 113.521 109.845, 117.750 110.223 C 120.362 110.456, 123.400 110.304, 124.500 109.887 C 125.600 109.469, 125.938 109.098, 125.250 109.063 C 124.563 109.029, 124 108.100, 124 107 C 124 105.242, 123.333 105, 118.500 105 C 113.362 105, 113 105.158, 113 107.399 M 119.199 122.051 C 115.082 122.946, 114.133 123.840, 116.029 125.039 C 118.732 126.748, 123.846 126.156, 125 124 C 125.589 122.900, 125.942 121.966, 125.785 121.923 C 123.894 121.416, 121.945 121.454, 119.199 122.051 M 118.002 137.714 C 112.827 138.203, 109.996 140.267, 110.716 143.024 C 111.364 145.499, 112.945 145.934, 121.935 146.113 C 128.558 146.245, 129.572 146.012, 131.211 143.988 C 132.869 141.940, 132.900 141.547, 131.522 140.024 C 130.680 139.094, 129.431 138.276, 128.746 138.207 C 128.061 138.137, 126.375 137.902, 125 137.684 C 123.625 137.466, 120.476 137.480, 118.002 137.714" stroke="none" fill="black" fill-rule="evenodd"/>
</svg>