<svg xmlns="http://www.w3.org/2000/svg" width="256" height="256" viewBox="0 0 256 256" version="1.1">
	<path d="M 53.089 30.579 C 51.403 31.997, 47.447 37.735, 44.297 43.329 C 41.147 48.923, 37.317 55.501, 35.785 57.946 C 33.486 61.615, 33 63.517, 33 68.836 L 33 75.280 38.387 74.724 C 41.351 74.418, 45.204 73.429, 46.950 72.526 C 49.641 71.134, 50.955 71.056, 55.575 72.016 C 59.592 72.849, 61.912 72.854, 64.399 72.033 C 69.110 70.479, 76.785 71.857, 84.880 75.712 C 89.439 77.883, 89.991 78.425, 88.497 79.261 C 87.527 79.804, 84.656 80.107, 82.117 79.934 C 79.578 79.761, 69.175 79.593, 59 79.560 L 40.500 79.500 39.500 83.620 C 38.911 86.048, 38.749 93.852, 39.106 102.620 C 39.629 115.460, 39.390 119.420, 37.365 131.500 C 33.736 153.156, 34.341 158.135, 40.417 156.610 C 44.242 155.650, 45.888 153.327, 46.612 147.865 C 47.536 140.898, 50.028 138.680, 56.009 139.502 C 59.885 140.034, 61.499 139.624, 67.509 136.579 C 71.354 134.631, 75.215 133.029, 76.089 133.019 C 79.270 132.981, 81.456 142.609, 78.750 144.740 C 78.063 145.281, 76.247 146.024, 74.715 146.390 C 70.948 147.290, 69.500 151.133, 71.483 154.968 C 73.420 158.713, 77.682 162, 80.600 162 C 84.381 162, 89.603 156.635, 90.922 151.394 C 91.984 147.180, 93.387 124.942, 92.967 119 C 92.869 117.625, 92.825 115.375, 92.869 114 C 93.160 104.783, 93.060 98.727, 92.610 98.277 C 92.322 97.988, 92.966 96.026, 94.043 93.916 C 96.384 89.328, 96.498 86.478, 94.494 82.636 C 93.672 81.060, 93 79.444, 93 79.045 C 93 78.645, 95.144 77.151, 97.765 75.724 L 102.530 73.131 104.245 75.244 C 105.188 76.406, 108.416 79.897, 111.420 83.002 C 117.051 88.823, 117.519 89.046, 135.928 94.652 C 138.364 95.393, 143.581 96, 147.523 96 C 156.960 96, 158.527 94.554, 156.967 87.284 C 155.610 80.955, 153.905 80.105, 141.126 79.395 C 130.808 78.821, 124.253 77.043, 121.584 74.093 C 120.670 73.083, 119.683 69.814, 119.390 66.828 C 118.954 62.395, 119.218 60.952, 120.827 58.965 C 122.761 56.577, 122.889 56.559, 127.649 58.011 C 133.199 59.704, 147.395 60.010, 148.933 58.469 C 149.499 57.902, 150.247 56.014, 150.595 54.273 C 151.158 51.458, 150.857 50.883, 147.864 49.058 C 145.047 47.341, 142.821 47.007, 134.173 47.004 C 124.095 47, 123.776 46.930, 120.923 44.077 C 118.555 41.708, 118 40.296, 118 36.634 C 118 31.546, 115.632 29, 110.900 29 C 105.983 29, 105.500 30.806, 105.500 49.188 C 105.500 63.103, 105.237 66.235, 104 67.019 C 101.658 68.503, 100.597 68.208, 97.440 65.190 C 95.823 63.645, 92.758 61.325, 90.629 60.034 C 86.833 57.733, 86.769 57.596, 87.319 52.953 C 87.952 47.610, 86.867 45.556, 82.934 44.647 C 78.869 43.708, 76 46.351, 76 51.034 C 76 56.867, 73.436 58.180, 63.662 57.354 C 53.755 56.517, 52.173 55.458, 53.991 50.884 C 55.868 46.159, 56.703 45.251, 62.707 41.411 C 69.070 37.340, 69.640 34.558, 64.923 30.589 C 60.995 27.284, 57.009 27.280, 53.089 30.579 M 67 92.612 C 62.875 93.321, 58.038 93.671, 56.250 93.389 C 53.180 92.905, 52.451 93.524, 52.882 96.250 C 52.947 96.662, 52.612 97, 52.139 97 C 51.665 97, 51.502 98.176, 51.777 99.613 C 52.236 102.015, 52.591 102.184, 56.174 101.704 C 61.706 100.961, 65.978 102.454, 69.890 106.497 C 71.755 108.424, 74.048 110, 74.985 110 C 76.980 110, 79.711 107.155, 79.787 105 C 79.816 104.175, 80.102 102.375, 80.423 101 C 81.196 97.689, 79.395 93.495, 76.682 92.291 C 75.217 91.640, 72.038 91.746, 67 92.612 M 105.027 100.471 C 102.884 102.753, 102.756 103.503, 103.368 110.221 C 103.732 114.225, 104.274 122.675, 104.572 129 C 104.870 135.325, 105.331 141.551, 105.597 142.835 C 106.303 146.241, 115.708 155.366, 121.500 158.262 C 129.078 162.051, 140.596 162.801, 149.680 160.095 C 158.315 157.524, 160.220 155.564, 160.725 148.735 C 161.203 142.258, 158.455 137, 154.591 137 C 152.645 137, 151.681 138.005, 149.826 141.965 C 148.547 144.696, 146.817 147.169, 145.983 147.459 C 142.166 148.787, 131.270 148.166, 126.500 146.347 C 122.225 144.717, 121.318 143.887, 120.244 140.623 C 118.194 134.392, 117.665 127.224, 119.014 123.966 C 120.460 120.474, 119.952 120.531, 127.405 123.025 C 138.095 126.601, 151 125.085, 151 120.254 C 151 115.515, 147.318 113.479, 135.468 111.666 C 129.435 110.744, 123.578 109.991, 122.450 109.994 C 119.950 110.001, 118 108.197, 118 105.877 C 118 104.929, 116.835 102.769, 115.411 101.077 C 112.176 97.232, 108.283 97.005, 105.027 100.471 M 53.001 115.833 C 51.464 116.345, 51.753 125.691, 53.324 126.294 C 55.338 127.067, 76.009 125.824, 75.477 124.963 C 75.221 124.548, 75.711 123.941, 76.567 123.613 C 77.677 123.187, 78.033 121.942, 77.811 119.258 L 77.500 115.500 65.751 115.500 C 59.288 115.500, 53.551 115.650, 53.001 115.833" stroke="none" fill="black" fill-rule="evenodd"/>
</svg>