<svg xmlns="http://www.w3.org/2000/svg" width="256" height="256" viewBox="0 0 256 256" version="1.1">
	<path d="M 57.828 32.940 C 37.941 33.651, 37.644 33.844, 36.560 46.788 C 34.921 66.356, 34.923 75.756, 36.568 89.290 C 37.900 100.250, 38.017 104.252, 37.137 108.790 C 36.528 111.931, 35.778 117.875, 35.471 122 C 35.165 126.125, 33.978 134.769, 32.834 141.209 C 31.690 147.649, 31.015 153.598, 31.334 154.429 C 32.141 156.532, 36.665 157.474, 39.581 156.145 C 44.186 154.047, 47.460 141.482, 47.567 125.500 C 47.644 114, 48.739 110.970, 52.785 111.062 C 59.267 111.209, 68.185 113.580, 69.222 115.431 C 70.576 117.851, 69.421 136.787, 67.801 138.740 C 67.159 139.513, 64.941 141.010, 62.873 142.065 C 59.883 143.590, 59.198 144.447, 59.535 146.242 C 60.302 150.333, 62.065 152.471, 66.550 154.750 C 72.328 157.686, 74.564 157.588, 77.913 154.250 C 83.721 148.460, 83.574 148.495, 87.870 151.897 C 92.437 155.514, 98.450 156.020, 106 153.423 C 110.028 152.038, 117.690 147.572, 119.002 145.845 C 119.279 145.481, 121.144 144.876, 123.147 144.500 C 126.732 143.828, 129.455 144.659, 132.172 147.256 C 133.673 148.692, 138.443 151.897, 141.624 153.608 C 142.792 154.236, 146.018 155.332, 148.793 156.043 C 153.245 157.185, 154.140 157.138, 156.419 155.645 C 159.224 153.807, 159.802 150.401, 157.750 147.794 C 157.063 146.920, 152.381 144.048, 147.347 141.411 C 138.521 136.789, 138.172 136.474, 137.554 132.613 C 137.052 129.471, 137.351 128.016, 138.944 125.862 C 141.027 123.044, 146 112.464, 146 110.849 C 146 110.353, 147.463 108.367, 149.250 106.436 C 153.607 101.729, 155.253 97.162, 153.549 94.511 C 151.345 91.082, 145.475 90.159, 129.377 90.710 C 107.529 91.457, 105.571 91.346, 100.433 89.073 C 94.960 86.653, 95 86.659, 95 88.135 C 95 88.760, 93.875 90.313, 92.500 91.588 C 88.348 95.436, 89.169 100.103, 95.200 106.948 C 97.494 109.551, 99.517 113.306, 100.522 116.824 C 101.413 119.946, 103.271 124.231, 104.650 126.347 C 107.316 130.438, 108.587 135.828, 107.286 137.528 C 105.930 139.300, 98.709 141.849, 93.500 142.394 C 90.750 142.681, 87.321 143.202, 85.880 143.550 C 83.639 144.092, 83.124 143.772, 82.323 141.342 C 81.808 139.779, 81.587 132.425, 81.831 125 C 82.953 91.001, 83.191 81.121, 83.016 76 C 82.797 69.613, 82.830 62.108, 83.133 49.500 C 83.252 44.550, 83.039 39.271, 82.660 37.768 C 81.977 35.061, 77.397 31.810, 74.800 32.190 C 74.085 32.294, 66.447 32.632, 57.828 32.940 M 107.500 33.899 C 103.320 35.707, 102.089 38.396, 100.859 48.401 C 99.923 56.014, 99.075 59.059, 97.076 61.976 C 94.554 65.658, 88.764 72.911, 86.217 75.579 C 85.250 76.592, 85.209 77.362, 86.052 78.712 C 87.316 80.735, 94.327 86, 95.758 86 C 97.367 86, 106.112 77.648, 107.702 74.592 C 109.659 70.831, 113 58.767, 113 55.463 C 113 54.054, 113.687 51.573, 114.526 49.950 C 116.005 47.089, 116.273 47, 123.403 47 C 128.096 47, 131.109 47.452, 131.733 48.250 C 133.118 50.019, 134.991 58.187, 135.047 62.693 C 135.127 69.275, 139.048 77.067, 144.264 81.013 C 151.724 86.657, 154.088 87.201, 158.836 84.370 C 161.705 82.659, 163.045 81.072, 163.545 78.793 C 164.151 76.037, 163.817 75.225, 161.066 72.768 C 159.318 71.206, 156.508 69.652, 154.821 69.314 C 150.619 68.474, 147.871 62.292, 148.113 54.226 C 148.312 47.562, 145.674 38.426, 143.166 37.099 C 138.307 34.529, 111.586 32.131, 107.500 33.899 M 57.601 45.524 C 51.454 47.212, 50.037 48.636, 48.505 54.670 C 46.553 62.357, 48.824 66.746, 55.198 67.601 C 57.014 67.844, 60.437 68.549, 62.805 69.167 C 67.789 70.468, 68.791 69.863, 69.915 64.872 C 70.910 60.456, 69.319 45.821, 67.734 44.815 C 66.053 43.747, 63.397 43.933, 57.601 45.524 M 56.213 79.903 C 48.876 80.601, 47.739 81.740, 48.338 87.791 C 48.931 93.770, 51.030 95.601, 59.613 97.624 C 68.077 99.620, 68.927 99.264, 69.951 93.301 C 71.204 86.001, 68.345 78.816, 64.321 79.152 C 63.320 79.236, 59.671 79.574, 56.213 79.903 M 117 104.652 C 112.610 106.098, 111 107.485, 111 109.821 C 111 112.587, 116.664 120.693, 119 121.271 C 119.825 121.475, 122.556 120.631, 125.069 119.396 C 128.794 117.565, 129.857 116.421, 130.819 113.209 C 131.469 111.041, 132 108.735, 132 108.083 C 132 105.422, 121.767 103.082, 117 104.652" stroke="none" fill="black" fill-rule="evenodd"/>
</svg>