<svg xmlns="http://www.w3.org/2000/svg" width="256" height="256" viewBox="0 0 256 256" version="1.1">
	<path d="M 118.235 32.068 C 116.990 32.551, 115.527 34.113, 114.985 35.538 C 113.708 38.897, 113.710 62.197, 114.988 68.934 C 116.768 78.324, 116.625 84.652, 114.580 86.912 C 113.078 88.571, 112.858 89.875, 113.397 93.935 C 113.937 98.005, 113.594 100.025, 111.529 104.931 C 110.138 108.236, 109 111.410, 109 111.984 C 109 112.559, 106.940 117.292, 104.422 122.504 C 101.278 129.009, 98.597 133.045, 95.866 135.383 C 91.840 138.829, 87.969 146.718, 88.547 150.300 C 89.022 153.244, 91.067 155, 94.019 155 C 97.240 155, 100.173 151.970, 108.612 139.928 C 113.898 132.383, 119.374 127, 121.763 127 C 123.883 127, 131.141 134.507, 135.133 140.829 C 140.318 149.038, 147.001 155.550, 151.079 156.366 C 155.830 157.316, 158.296 157.091, 160.374 155.517 C 162.189 154.143, 162.168 153.963, 159.725 149.799 C 158.337 147.435, 155.933 144.150, 154.382 142.500 C 152.831 140.850, 150.031 137.513, 148.161 135.085 C 146.291 132.657, 143.373 129.507, 141.676 128.085 C 139.979 126.663, 137.445 124.213, 136.045 122.640 C 134.645 121.067, 132.488 118.682, 131.250 117.339 C 130.012 115.996, 129 113.998, 129 112.899 C 129 111.800, 128.417 109.686, 127.705 108.200 C 126.237 105.140, 126.319 99.526, 127.857 97.672 C 129.200 96.054, 129.434 88.316, 128.257 84.500 C 127.747 82.850, 127.254 75.650, 127.160 68.500 C 126.894 48.180, 125.339 35.950, 122.691 33.345 C 121 31.681, 119.983 31.390, 118.235 32.068 M 31.540 40.551 C 29.465 42.790, 29.268 43.555, 30.181 45.835 C 31.202 48.384, 33.376 53.864, 36.792 62.500 C 38.049 65.679, 38.387 70.812, 38.437 87.500 C 38.511 112.307, 37.847 121.059, 35.631 124.441 C 30.956 131.576, 35.157 133.947, 53.080 134.289 C 65.877 134.533, 66.215 134.596, 67.556 137.019 C 68.392 138.530, 68.943 142.667, 68.965 147.602 C 68.994 154.342, 69.384 156.275, 71.282 159.102 C 74.088 163.279, 78.290 164.195, 79.998 161.003 C 81.220 158.720, 79.919 140.276, 77.842 130.445 C 76.249 122.905, 77.491 104.163, 80.290 93.500 C 82.009 86.951, 82.418 83.683, 81.790 81.500 C 81.315 79.850, 80.688 74.384, 80.396 69.354 C 79.825 59.496, 80.974 53.120, 84.017 49.251 C 85.469 47.406, 85.654 46.276, 84.924 43.716 C 84.420 41.947, 83.386 40.041, 82.627 39.480 C 81.805 38.873, 71.674 38.353, 57.607 38.196 L 33.967 37.933 31.540 40.551 M 51.054 54.435 C 50.399 55.224, 50.007 57.347, 50.182 59.153 C 50.461 62.033, 50.960 62.545, 54.250 63.318 C 56.413 63.826, 59.587 63.826, 61.750 63.317 C 64.775 62.606, 65.559 61.928, 65.807 59.810 C 66.280 55.773, 62.667 53, 56.934 53 C 54.081 53, 51.779 53.562, 51.054 54.435 M 144.217 57.561 C 140.723 60.008, 139.175 64.019, 138.022 73.613 C 137.434 78.501, 136.442 83.779, 135.817 85.342 C 135.084 87.176, 135.029 88.418, 135.663 88.842 C 136.204 89.204, 136.936 90.287, 137.292 91.250 C 138.397 94.247, 145.995 92.525, 146.006 89.275 C 146.010 88.299, 146.668 86.243, 147.469 84.708 C 148.270 83.172, 149.237 80.252, 149.619 78.218 C 150 76.184, 151.132 72.716, 152.134 70.510 C 154.722 64.814, 154.499 61.367, 151.354 58.452 C 148.257 55.582, 147.225 55.453, 144.217 57.561 M 89.048 61.109 C 86.011 64.434, 85.798 65.846, 87.944 68.432 C 88.690 69.331, 89.585 73.171, 89.932 76.964 C 90.638 84.657, 92.115 86.996, 98.248 90.126 C 100.609 91.331, 102.923 91.806, 104.498 91.411 C 106.591 90.886, 107.002 90.188, 107.013 87.142 C 107.020 85.139, 106.353 80.350, 105.531 76.500 C 104.709 72.650, 103.779 67.791, 103.464 65.702 C 103.030 62.825, 102.117 61.433, 99.696 59.956 C 95.174 57.199, 92.339 57.506, 89.048 61.109 M 56.500 78.340 C 54.850 78.960, 52.712 80.331, 51.750 81.387 C 49.717 83.616, 49.439 88.291, 51.250 89.789 C 52.781 91.056, 65.469 91.946, 67.154 90.905 C 68.643 89.985, 68.963 82.336, 67.642 79.250 C 66.884 77.478, 65.916 77.023, 63.089 77.106 C 61.115 77.165, 58.150 77.720, 56.500 78.340 M 56 103.811 C 51.687 104.452, 50 106.818, 50 112.226 C 50 118.746, 51.410 120, 58.737 120 C 66.116 120, 68.235 118.558, 68.426 113.411 C 68.725 105.344, 65.009 102.472, 56 103.811" stroke="none" fill="black" fill-rule="evenodd"/>
</svg>