<svg xmlns="http://www.w3.org/2000/svg" width="256" height="256" viewBox="0 0 256 256" version="1.1">
	<path d="M 88.501 29.999 C 87.168 31.472, 86.738 33.410, 86.867 37.359 C 86.983 40.930, 86.571 43.111, 85.633 43.889 C 84.159 45.113, 79.719 46.048, 64.127 48.421 C 58.971 49.205, 54.316 50.284, 53.780 50.820 C 53.245 51.355, 52.219 55.180, 51.500 59.321 C 50.078 67.511, 50.986 97.462, 52.973 107.886 C 53.538 110.849, 54.032 118.274, 54.071 124.386 C 54.191 143.179, 55.359 152.803, 57.816 155.261 C 59.780 157.224, 60.322 157.298, 64.724 156.204 C 67.418 155.534, 77.247 154.975, 87.273 154.921 C 97.047 154.869, 106.722 154.351, 108.773 153.771 C 115.529 151.858, 128.892 152.492, 134.375 154.987 C 138.518 156.871, 139.601 157.016, 141.586 155.954 C 144.718 154.278, 144.869 152.663, 145.511 114 C 146.214 71.646, 146.203 64.844, 145.418 56.724 C 144.482 47.031, 144.412 47, 123.325 47 C 112.827 47, 105.142 46.566, 103.657 45.890 C 100.248 44.337, 98.845 40.933, 100.614 38.513 C 102.747 35.596, 102.268 32.356, 99.365 30.073 C 95.984 27.413, 90.873 27.378, 88.501 29.999 M 78 59.975 C 73.325 60.322, 68.717 60.965, 67.761 61.405 C 64.738 62.796, 62.259 75.659, 64.568 77.968 C 65.481 78.881, 76.798 79.130, 114.233 79.063 C 128.819 79.037, 130.117 78.883, 132.048 76.952 C 134.243 74.757, 134.199 73.596, 131.580 64.522 C 130.445 60.588, 130.301 60.486, 124.960 59.849 C 118.223 59.045, 89.497 59.123, 78 59.975 M 69.476 92.324 C 64.515 94.603, 62.418 101.301, 65.750 104.227 C 68.218 106.395, 96.811 107.313, 102.263 105.400 C 106.860 103.787, 110.964 103.603, 122 104.514 C 129.550 105.137, 130.686 105.008, 132.165 103.358 C 133.628 101.726, 133.670 101.035, 132.508 97.676 C 131.780 95.572, 130.878 93.547, 130.502 93.176 C 130.127 92.804, 123.448 92.496, 115.660 92.492 C 107.872 92.487, 94.975 92.135, 87 91.709 C 75.465 91.093, 71.882 91.219, 69.476 92.324 M 103.500 119.530 C 98.550 120.310, 88.453 120.975, 81.062 121.007 C 72.929 121.043, 67.107 121.497, 66.312 122.156 C 65.568 122.773, 65 125.290, 65 127.967 C 65 134.079, 67.008 136, 73.394 136 C 76 136, 78.970 136.449, 79.994 136.997 C 81.019 137.545, 83.461 138.199, 85.421 138.450 C 87.381 138.701, 90.676 139.245, 92.742 139.658 C 97.922 140.694, 97.999 140.695, 102.500 139.713 C 104.700 139.233, 111.795 138.250, 118.267 137.528 C 124.739 136.807, 130.655 135.701, 131.413 135.072 C 133.183 133.604, 134.302 127.650, 133.497 123.985 C 132.957 121.529, 132.191 120.992, 127.917 120.076 C 119.257 118.218, 112.749 118.073, 103.500 119.530" stroke="none" fill="black" fill-rule="evenodd"/>
</svg>