<svg xmlns="http://www.w3.org/2000/svg" width="256" height="256" viewBox="0 0 256 256" version="1.1">
	<path d="M 68.500 30.044 C 66.300 30.507, 61.350 30.917, 57.500 30.956 C 49.026 31.042, 46.369 31.678, 45.405 33.849 C 44.801 35.210, 44.399 43.021, 43.879 63.500 C 43.673 71.648, 45.013 105.612, 45.724 110.250 C 46.209 113.413, 46.319 118.588, 45.969 121.750 C 45.353 127.319, 47.091 147.793, 48.466 151.158 C 49.536 153.777, 53.644 154.790, 66 155.484 C 78.774 156.201, 104.910 156.174, 106.093 155.442 C 106.511 155.184, 115.099 154.952, 125.177 154.926 C 141.472 154.885, 143.971 154.655, 147.754 152.849 C 151.975 150.833, 153.573 148.186, 152.839 144.426 C 152.458 142.480, 146.138 138.848, 143.331 138.962 C 111.549 140.256, 111.945 140.260, 110.068 138.561 C 106.733 135.543, 104.806 120.337, 107.427 117.716 C 109.576 115.567, 115.342 114.013, 121.191 114.006 C 123.771 114.003, 126.160 113.550, 126.500 113 C 126.840 112.450, 127.931 112, 128.924 112 C 134.862 112, 140.799 101.528, 141.494 89.828 C 141.754 85.447, 142.232 81.434, 142.555 80.911 C 143.512 79.363, 140.992 73.066, 138.986 71.992 C 137.966 71.447, 135.331 71, 133.131 71 C 130.930 71, 127.863 70.517, 126.315 69.926 C 124.767 69.335, 121.327 68.689, 118.671 68.489 C 111.639 67.961, 109.511 66.169, 108.207 59.676 C 106.923 53.282, 107.943 48.267, 111.109 45.401 C 112.878 43.800, 115.348 43.416, 126.854 42.949 C 140.944 42.377, 144.397 41.415, 145.342 37.800 C 145.601 36.810, 145.576 35.095, 145.287 33.989 C 144.392 30.568, 138.768 29.985, 102.500 29.558 C 86 29.363, 70.700 29.582, 68.500 30.044 M 67.380 43.925 C 62.219 44.770, 58.195 47.350, 57.492 50.263 C 57.195 51.493, 57.104 55.369, 57.289 58.877 C 57.767 67.936, 58.527 68.355, 73 67.541 C 93.585 66.383, 93.504 66.411, 95.479 59.758 C 96.316 56.941, 97 53.796, 97 52.769 C 97 49.673, 94.314 45.464, 91.528 44.195 C 88.758 42.933, 74.416 42.773, 67.380 43.925 M 107 80.258 C 106.725 80.516, 96.439 80.994, 84.141 81.320 C 59.124 81.983, 57.523 82.392, 56.834 88.299 C 56.405 91.973, 58.157 97.339, 60.222 98.673 C 60.925 99.128, 69.150 99.618, 78.500 99.763 C 87.850 99.907, 97.975 100.100, 101 100.192 C 118.622 100.725, 124.046 99.126, 125.929 92.841 C 127.445 87.782, 126.075 83.821, 122.182 82.014 C 119.445 80.743, 107.906 79.408, 107 80.258 M 60.242 113.950 C 57.153 116.526, 56.316 121.307, 58.396 124.482 C 59.299 125.860, 60.217 128.839, 60.434 131.101 C 60.703 133.888, 61.742 136.165, 63.658 138.165 C 66.255 140.875, 67.018 141.107, 72.993 140.998 C 76.572 140.933, 81.976 141.178, 85.002 141.543 C 92.018 142.389, 94.352 140.384, 94.023 133.790 C 93.905 131.431, 93.773 128.600, 93.729 127.500 C 93.629 124.999, 94.616 119.430, 95.380 118.195 C 96.803 115.891, 92.155 114.090, 82.133 113.062 C 67.348 111.544, 62.910 111.724, 60.242 113.950" stroke="none" fill="black" fill-rule="evenodd"/>
</svg>