<svg xmlns="http://www.w3.org/2000/svg" width="256" height="256" viewBox="0 0 256 256" version="1.1">
	<path d="M 118.203 30.256 C 117.630 30.946, 116.839 32.859, 116.446 34.506 C 115.021 40.474, 113.435 41.273, 104.478 40.527 C 98.505 40.029, 95.329 40.241, 92.104 41.352 C 86.880 43.152, 85.538 42.734, 81 37.897 L 77.500 34.166 56.296 34.716 C 38.043 35.189, 34.669 35.523, 32.046 37.118 C 27.756 39.727, 27.908 43.254, 32.401 45.386 C 34.272 46.274, 36.961 47, 38.378 47 C 42.471 47, 44.584 51.067, 43.216 56.310 C 42.615 58.615, 41.478 63.016, 40.689 66.091 C 39.900 69.166, 38.482 72.861, 37.539 74.301 C 35.704 77.101, 36.108 82.054, 38.314 83.800 C 38.966 84.316, 41.688 84.973, 44.362 85.259 C 50.568 85.923, 52.800 88.151, 53.362 94.242 C 53.704 97.948, 53.355 99.550, 51.765 101.572 C 49.971 103.852, 49.125 104.120, 44.651 103.830 C 39.861 103.519, 39.515 103.660, 38.569 106.318 C 36.938 110.902, 39.490 114.296, 45.377 115.372 C 51.626 116.513, 53.991 120.031, 53.996 128.193 C 54.001 135.091, 52.032 137, 44.912 137 C 39.663 137, 35.915 139.330, 33.428 144.138 C 31.399 148.063, 32.439 150.868, 36.562 152.590 C 39.633 153.873, 40.619 153.778, 47.715 151.512 C 51.997 150.144, 56.625 149.018, 58 149.009 C 59.375 149, 61.973 148.094, 63.774 146.996 C 66.280 145.468, 68.813 145, 74.572 145 C 82.085 145, 82.099 144.995, 83.438 141.810 C 84.464 139.369, 84.512 138.138, 83.640 136.570 C 81.871 133.391, 78.902 131.008, 76.597 130.919 C 65.925 130.506, 66.652 130.786, 65.685 126.716 C 65.076 124.154, 65.166 122.014, 65.964 120.087 C 66.988 117.614, 67.796 117.178, 72.128 116.762 C 76.006 116.389, 77.845 115.573, 80.411 113.086 C 82.979 110.598, 85.016 109.694, 89.605 109.009 C 92.847 108.525, 97.673 107.701, 100.329 107.179 C 107.346 105.798, 113.162 107.463, 116.422 111.784 C 119.539 115.916, 117.608 117.452, 108.895 117.771 C 100.891 118.064, 97.665 120.004, 98.687 123.911 C 99.879 128.470, 104.284 130.687, 112.643 130.936 C 115.568 131.023, 116.127 132.921, 116.591 144.340 C 117.104 156.949, 118.803 161, 123.579 161 C 127.678 161, 128.533 159.588, 129.484 151.250 C 129.876 147.813, 130.629 145, 131.158 145 C 132.174 145, 131.783 141.621, 130.151 136.302 C 128.967 132.443, 130.485 130.690, 134.589 131.178 C 138.769 131.675, 139.761 134.171, 137.470 138.425 C 136.412 140.391, 135.171 142, 134.714 142 C 134.256 142, 134.136 142.412, 134.447 142.915 C 134.758 143.418, 134.447 144.057, 133.756 144.336 C 133.065 144.614, 133.631 144.878, 135.013 144.921 C 136.396 144.964, 139.923 146.688, 142.852 148.750 C 151.308 154.704, 153.968 155.947, 156.359 155.063 C 157.969 154.467, 158.500 153.432, 158.500 150.885 C 158.500 148.046, 157.979 147.258, 155.269 146 C 153.200 145.039, 151.654 143.361, 150.968 141.330 C 150.379 139.586, 149.292 137.657, 148.552 137.043 C 146.941 135.706, 147.577 132.543, 150.221 128.748 C 154.607 122.454, 150.069 117.961, 138.580 117.223 C 128.558 116.580, 127.732 115.550, 131.561 108.470 L 134.480 103.076 130.537 99.038 C 126.009 94.400, 124.383 94.144, 119.034 97.223 C 115.898 99.028, 114.639 99.259, 112.345 98.452 C 108.612 97.139, 108.289 94.680, 111.408 91.316 C 113.446 89.118, 114.753 88.605, 117.986 88.734 C 120.205 88.822, 122.579 89.255, 123.260 89.695 C 123.942 90.134, 126.750 90.550, 129.500 90.617 C 133.862 90.725, 136.787 91.799, 143.239 95.662 C 143.645 95.905, 143.270 97.184, 142.406 98.503 C 140.605 101.251, 141.262 104.516, 143.783 105.356 C 144.727 105.670, 146.736 106.930, 148.246 108.156 C 151.638 110.909, 160.137 111.291, 162.626 108.803 C 164.787 106.642, 163.622 101.778, 160.099 98.247 C 156.635 94.776, 155.738 91.375, 157.210 87.299 C 160.297 78.753, 149.399 73.041, 137.601 77.022 C 133.177 78.515, 129.836 78.197, 126.120 75.932 L 122.739 73.871 124.952 72.321 C 126.646 71.135, 128.610 70.917, 133.332 71.392 C 146.192 72.685, 148.066 72.544, 150.920 70.069 C 152.457 68.736, 153.046 67.266, 152.823 65.319 C 152.353 61.219, 146.579 58.640, 136.812 58.166 C 130.881 57.879, 128.735 57.364, 127.424 55.916 C 126.108 54.462, 125.986 53.722, 126.882 52.642 C 127.764 51.579, 130.916 51.270, 140.133 51.343 C 151.695 51.434, 152.311 51.334, 154.140 49.075 C 155.818 47.003, 155.883 46.454, 154.668 44.606 C 152.497 41.305, 146.507 39.744, 138.261 40.330 C 131.398 40.817, 130.918 40.711, 129.011 38.287 C 127.905 36.881, 127 34.961, 127 34.020 C 127 30.175, 120.558 27.418, 118.203 30.256 M 66.420 50.040 C 65.287 50.460, 63.544 52.085, 62.547 53.651 C 61.551 55.218, 59.035 58.750, 56.957 61.500 C 52.170 67.835, 51.753 70.003, 55 71.680 C 57.949 73.203, 67 73.444, 67 72 C 67 71.450, 67.724 71, 68.609 71 C 69.868 71, 70.127 70.216, 69.798 67.399 C 69.457 64.474, 69.812 63.514, 71.694 62.281 C 74.921 60.167, 77 62.068, 77 67.132 C 77 70.112, 77.722 71.774, 80.096 74.259 C 83.041 77.342, 83.586 77.511, 91.282 77.716 C 98.022 77.897, 99.945 77.579, 102.802 75.813 L 106.231 73.694 103.866 72.382 C 102.564 71.661, 100.791 71.055, 99.924 71.035 C 97.709 70.986, 94 66.774, 94 64.308 C 94 61.391, 96.057 60.029, 101.838 59.115 C 104.601 58.678, 108.018 57.563, 109.431 56.637 C 114.394 53.385, 112.197 52, 102.077 52 C 98.360 52, 93.315 51.397, 90.868 50.661 C 85.776 49.128, 83.795 49.249, 80.693 51.282 C 79.083 52.336, 77.818 52.465, 75.995 51.761 C 70.712 49.718, 68.409 49.305, 66.420 50.040 M 67.118 86.630 C 65.268 87.925, 64.942 89.017, 65.112 93.339 C 65.223 96.177, 65.660 99.454, 66.083 100.619 C 67.060 103.314, 71.425 104.191, 75.433 102.497 C 77.120 101.785, 80.440 100.401, 82.811 99.422 C 86.480 97.907, 89 95.551, 89 93.637 C 89 92.110, 85.447 90, 82.874 90 C 80.505 90, 73.623 87.570, 69.913 85.423 C 69.590 85.236, 68.332 85.779, 67.118 86.630 M 98.153 138.867 C 96.969 139.894, 96 141.594, 96 142.645 C 96 143.696, 95.066 145.356, 93.924 146.333 C 90.004 149.690, 95.318 152.425, 101.185 150.071 C 104.886 148.586, 109 144.445, 109 142.205 C 109 137.338, 102.296 135.274, 98.153 138.867" stroke="none" fill="black" fill-rule="evenodd"/>
</svg>