<svg xmlns="http://www.w3.org/2000/svg" width="256" height="256" viewBox="0 0 256 256" version="1.1">
	<path d="M 101.750 30.080 C 100.564 30.771, 100 32.337, 100 34.939 C 100 39.606, 97.642 42.608, 93.282 43.492 C 90.432 44.070, 89.592 43.665, 85.952 39.951 C 82.066 35.986, 81.615 35.795, 77.671 36.436 C 75.377 36.809, 66.075 37.361, 57 37.662 C 47.925 37.963, 39.714 38.627, 38.753 39.138 C 37.793 39.649, 36.033 41.964, 34.843 44.283 C 30.824 52.116, 30.137 88.143, 33.819 98 C 35.120 101.481, 35.441 105.216, 35.239 114.500 C 34.963 127.181, 36.306 137.840, 38.705 142.011 C 40.314 144.810, 44.235 147, 47.634 147 C 48.864 147, 51.015 147.435, 52.414 147.967 C 55.333 149.077, 58.164 149.188, 70 148.654 C 79.208 148.239, 81.344 147.656, 84.235 144.765 C 86.908 142.092, 90.064 142.927, 92.679 147 C 97.368 154.302, 98.079 155, 100.797 154.978 C 102.284 154.966, 104.625 154.076, 106 153 C 108.680 150.904, 111 150.411, 111 151.939 C 111 153.473, 119.519 154.328, 121.932 153.036 C 123.693 152.094, 124.082 151.011, 124.028 147.190 C 123.930 140.138, 124.306 137, 125.250 137 C 125.717 137, 125.699 136.284, 125.209 135.409 C 124.060 133.355, 125.928 125, 127.537 125 C 128.301 125, 128.969 127.632, 129.375 132.250 C 130.948 150.118, 131.274 152.573, 132.230 153.750 C 133.732 155.600, 142.640 155.381, 143.371 153.476 C 143.692 152.638, 144.978 151.574, 146.227 151.112 C 148.049 150.438, 149.278 150.938, 152.429 153.636 C 157.471 157.951, 161.598 158.188, 163.095 154.250 C 164.421 150.765, 163.611 122.575, 161.968 115 C 160.206 106.877, 158.751 105.644, 151.783 106.368 C 148.638 106.695, 145.376 106.698, 144.533 106.374 C 142.224 105.488, 142.687 102.071, 145.250 101.081 C 146.488 100.603, 148.483 99.349, 149.685 98.295 C 151.665 96.558, 151.872 95.402, 151.898 85.939 C 151.944 69.236, 150.503 67.013, 137.035 63.007 C 129.275 60.699, 127.080 60.701, 114 63.022 C 103.841 64.825, 100.596 64.774, 100.208 62.806 C 99.994 61.718, 101.375 60.119, 104.060 58.342 L 108.245 55.572 130.873 55.293 C 151.081 55.043, 153.766 54.815, 155.986 53.159 C 159.020 50.896, 159.499 46.838, 157.085 43.856 C 155.348 41.712, 154.688 41.643, 135.060 41.573 C 115.043 41.501, 114.806 41.475, 112.913 39.139 C 111.861 37.841, 111 35.773, 111 34.544 C 111 30.193, 105.835 27.701, 101.750 30.080 M 48.881 52.007 C 44.558 54.533, 44.023 64.871, 48.102 67.054 C 50.952 68.580, 55.573 67.300, 57.426 64.472 C 61.971 57.535, 55.521 48.127, 48.881 52.007 M 76.217 54.115 C 75.062 54.543, 73.350 56.062, 72.414 57.492 C 70.923 59.766, 70.883 60.414, 72.097 62.680 C 73.792 65.848, 76.999 68.039, 81.275 68.950 C 83.890 69.508, 84.918 69.197, 86.714 67.306 C 89.202 64.686, 88.974 63.355, 85.085 57.823 C 82.359 53.945, 79.692 52.830, 76.217 54.115 M 92.243 72.955 C 89.839 73.340, 87.351 74.477, 86.525 75.568 C 84.747 77.919, 84.609 83.125, 86.182 88.500 C 87.454 92.848, 87.345 95.841, 85.847 97.669 C 85.320 98.312, 84.986 101.833, 85.105 105.493 C 85.300 111.526, 85.075 112.375, 82.704 114.574 C 80.612 116.513, 78.925 117.027, 74.294 117.136 C 71.107 117.211, 69.512 117.467, 70.748 117.705 C 72.652 118.072, 72.833 118.444, 71.929 120.133 C 71.152 121.584, 71.186 122.520, 72.053 123.564 C 72.709 124.354, 72.895 125, 72.467 125 C 72.040 125, 72.505 125.900, 73.500 127 C 74.526 128.134, 74.810 129, 74.155 129 C 73.520 129, 73 129.450, 73 130 C 73 130.550, 73.693 131, 74.540 131 C 76.639 131, 83.336 134.494, 84.939 136.427 C 88.680 140.934, 91 135.124, 91 121.252 C 91 111.760, 91.147 111.030, 93.413 109.247 C 94.949 108.039, 97.764 107.253, 101.163 107.084 C 104.098 106.937, 107.850 106.712, 109.500 106.584 C 113.471 106.274, 118.873 107.781, 122.154 110.113 C 126.386 113.121, 130.321 112.579, 133.381 108.567 C 138.890 101.344, 135.750 99.563, 119.296 100.576 C 107.042 101.331, 106.260 101.098, 102.977 95.715 C 101.458 93.223, 101.421 92.327, 102.624 87.215 C 104.403 79.654, 104.340 77.615, 102.250 75.198 C 100.039 72.641, 97.610 72.096, 92.243 72.955 M 115.250 76.662 C 113.736 77.273, 113.605 82.393, 115.035 85.066 C 115.956 86.787, 117.211 87, 126.420 87 C 136.305 87, 136.842 86.890, 138.378 84.546 C 140.223 81.730, 139.263 77.699, 136.495 76.636 C 134.565 75.896, 117.096 75.917, 115.250 76.662 M 47.750 83.368 C 45.698 85.133, 45 86.646, 45 89.331 C 45 93.728, 46.936 94.995, 53.684 95.012 C 56.994 95.020, 59.892 95.820, 62.953 97.569 C 68.520 100.751, 71.573 100.221, 72.520 95.907 C 73.813 90.022, 73.292 85.939, 70.926 83.421 C 68.843 81.204, 67.885 81, 59.576 81.001 C 51.476 81.002, 50.204 81.257, 47.750 83.368 M 66.500 111.125 C 64.850 111.649, 60.243 111.797, 56.263 111.455 C 47.582 110.708, 46 111.727, 46 118.069 C 46 122.628, 49.600 131, 51.561 131 C 53.421 131, 60 123.238, 60 121.044 C 60 119.972, 60.536 117.918, 61.191 116.480 C 62.098 114.489, 62.872 114.014, 64.441 114.485 C 69.504 116.007, 74 116.249, 74 114.999 C 74 114.032, 70.080 109.658, 69.597 110.086 C 69.544 110.133, 68.150 110.601, 66.500 111.125 M 124.767 115.250 C 126.096 120.405, 131 120.506, 131 115.378 C 131 113.339, 130.514 113, 127.594 113 C 124.556 113, 124.250 113.244, 124.767 115.250 M 104.557 119.223 C 102.587 122.034, 102.582 126.229, 104.539 132.818 C 106.244 138.561, 108.054 139.390, 110.984 135.772 C 112.384 134.042, 112.691 132.310, 112.357 128.022 C 111.557 117.777, 108.212 114.004, 104.557 119.223 M 144.514 119.339 C 141.287 124.263, 142.937 140, 146.680 140 C 147.471 140, 147.840 140.450, 147.500 141 C 147.160 141.550, 147.299 142, 147.809 142 C 149.085 142, 151.741 131.538, 151.934 125.750 C 152.025 123.010, 151.650 121, 151.046 121 C 150.471 121, 150.053 120.662, 150.118 120.250 C 150.731 116.372, 146.869 115.744, 144.514 119.339" stroke="none" fill="black" fill-rule="evenodd"/>
</svg>