<svg xmlns="http://www.w3.org/2000/svg" width="256" height="256" viewBox="0 0 256 256" version="1.1">
	<path d="M 117.702 33.250 C 115.822 34.649, 113.836 43.263, 113.892 49.779 C 113.964 58.233, 112.422 59.631, 100.564 61.858 C 93.749 63.138, 93.094 63.595, 92.788 67.294 C 92.451 71.364, 88.249 70.963, 85 66.550 C 83.625 64.683, 81.020 62.444, 79.211 61.575 C 76.161 60.110, 75.783 60.124, 74.016 61.770 C 72.098 63.557, 72.049 64.205, 73.455 69.263 C 74.754 73.934, 72.882 75, 63.378 75 C 56.302 75, 54.686 74.686, 52.977 72.977 C 51.422 71.422, 51.185 70.522, 51.955 69.085 C 53.528 66.145, 59.006 61.949, 62.070 61.336 C 63.605 61.029, 65.774 59.928, 66.889 58.889 C 68.004 57.850, 69.399 57, 69.990 57 C 70.580 57, 71.310 56.356, 71.612 55.569 C 72.001 54.554, 74.754 53.935, 81.064 53.441 C 85.961 53.058, 90.376 52.240, 90.876 51.622 C 93.904 47.883, 91.648 41.587, 86.510 39.440 C 83.817 38.314, 78.243 38.136, 58.326 38.539 C 31.372 39.083, 28.694 39.580, 29.202 43.941 C 29.440 45.981, 30.535 46.905, 34.649 48.541 C 41.453 51.246, 43 52.661, 43 56.185 C 43 59.817, 40.250 68.480, 37.820 72.500 C 35.639 76.109, 35.511 79.894, 37.415 84.452 C 39.361 89.107, 42.114 90.350, 48.895 89.632 C 55.926 88.887, 57.872 90.123, 57.361 95.010 C 57.160 96.930, 56.492 99.737, 55.877 101.250 C 54.851 103.770, 54.308 104, 49.379 104 C 45.333 104, 43.504 104.496, 42 106 C 39.721 108.279, 39.432 112.668, 41.392 115.250 C 42.827 117.141, 48.472 117.663, 49.500 116 C 50.427 114.500, 54.586 114.796, 55.967 116.461 C 57.830 118.705, 58.368 125.354, 57.018 129.445 C 55.690 133.470, 52.944 135.094, 48.804 134.303 C 45.342 133.641, 39.702 136.437, 36.006 140.646 C 28.604 149.077, 35.361 154.168, 48.695 150.207 C 52.438 149.095, 57.975 148.212, 61 148.244 C 64.025 148.276, 68.525 147.566, 71 146.666 C 73.941 145.596, 78.720 145.024, 84.791 145.015 L 94.083 145 97.175 149.975 C 100.475 155.283, 102.834 156.708, 105.712 155.132 C 106.696 154.593, 111.006 150.743, 115.292 146.576 C 126.006 136.158, 127.816 136.287, 140.512 148.375 C 148.852 156.315, 152.881 158.204, 156.895 156.056 C 160.301 154.233, 159.273 148.416, 154.832 144.382 C 153.549 143.217, 149.518 139.280, 145.873 135.632 C 142.228 131.985, 138.628 128.986, 137.873 128.969 C 137.118 128.951, 135.668 127.795, 134.652 126.400 C 132.149 122.965, 133.149 118.409, 137.312 114.270 C 143.392 108.227, 153.067 85.246, 154.319 73.874 C 154.584 71.468, 155.307 68.203, 155.926 66.618 C 157.370 62.919, 156.624 60.702, 152.870 57.544 C 149.259 54.506, 143.723 54.176, 137.327 56.619 C 128.827 59.865, 125 55.679, 125 43.138 C 125 37.163, 124.664 35.765, 122.811 34.039 C 120.246 31.649, 119.922 31.599, 117.702 33.250 M 126.827 72.730 C 118.898 79.238, 118.005 81.501, 118.043 95 C 118.068 103.984, 119.228 106, 124.375 106 C 127.388 106, 128.360 105.457, 129.911 102.905 C 130.946 101.204, 132.103 97.332, 132.481 94.303 C 132.988 90.247, 134.070 87.616, 136.585 84.321 C 140.195 79.592, 141.205 73.605, 138.800 71.200 C 136.593 68.993, 130.418 69.783, 126.827 72.730 M 92.207 89.567 C 89.543 91.434, 86.099 91.592, 80 90.129 C 74.755 88.870, 68.308 88.672, 67.685 89.750 C 66.934 91.050, 71.062 102.414, 73.011 104.410 C 74.792 106.234, 75.069 106.245, 79.221 104.660 C 84.629 102.594, 86.846 102.578, 90.846 104.573 C 95.045 106.668, 94.823 108.547, 89.834 113.154 C 85.790 116.887, 85.452 117, 78.334 117 C 71.663 117, 70.776 117.323, 71.085 119.638 C 71.132 119.989, 70.630 120.611, 69.969 121.019 C 69.034 121.597, 69.033 122.569, 69.963 125.389 C 71.522 130.113, 74.189 131.579, 78.200 129.917 C 81.988 128.348, 89.444 128.294, 91.285 129.821 C 92.050 130.457, 93.212 132.763, 93.866 134.946 C 94.520 137.130, 95.455 139.163, 95.944 139.465 C 97.529 140.445, 102.292 137.994, 107.578 133.478 C 111.663 129.988, 112.994 128.082, 113.923 124.393 C 115.612 117.686, 114.490 114.315, 108.647 108.542 C 103.628 103.584, 103.543 103.398, 103.515 97.396 C 103.498 93.745, 102.938 90.630, 102.121 89.646 C 100.392 87.563, 95.129 87.521, 92.207 89.567" stroke="none" fill="black" fill-rule="evenodd"/>
</svg>