<svg xmlns="http://www.w3.org/2000/svg" width="256" height="256" viewBox="0 0 256 256" version="1.1">
	<path d="M 90.986 24.014 C 89.286 25.714, 89.013 27.128, 89.236 33.091 C 89.451 38.842, 89.177 40.391, 87.765 41.427 C 85.638 42.986, 64.933 44.280, 56.407 43.386 C 50.675 42.786, 50.122 42.919, 47.083 45.635 C 42.016 50.162, 41.128 56.582, 41.079 89.040 C 41.042 113.308, 40.813 117.229, 39.159 122.040 C 38.126 125.043, 36.538 131.171, 35.629 135.659 C 34.720 140.146, 33.309 145.096, 32.494 146.659 C 30.633 150.228, 30.581 155.045, 32.379 157.503 C 33.621 159.202, 34.167 159.266, 37.883 158.153 C 40.152 157.473, 42.672 155.903, 43.485 154.664 C 44.297 153.425, 45.898 147.735, 47.044 142.021 C 48.189 136.307, 49.489 130.928, 49.932 130.066 C 51.419 127.173, 52.844 117.873, 53.390 107.500 C 53.564 104.200, 54.025 99.658, 54.414 97.406 C 54.804 95.155, 55.145 85.746, 55.173 76.499 C 55.221 60.231, 55.299 59.610, 57.566 57.343 C 60.135 54.774, 64.862 54.387, 78.250 55.652 C 83.829 56.179, 85 56.599, 85 58.077 C 85 59.880, 81.746 61.579, 80.165 60.602 C 79.050 59.913, 72.075 61.851, 70.552 63.273 C 68.845 64.868, 70.906 68.904, 73.810 69.652 C 75.080 69.979, 78.216 70.010, 80.779 69.721 C 84.146 69.342, 86.566 69.726, 89.501 71.105 C 94.500 73.455, 98.949 79.815, 98.229 83.581 C 97.913 85.235, 97.462 85.747, 96.991 84.985 C 96.460 84.126, 96.056 84.100, 95.566 84.893 C 95.129 85.601, 90.631 86, 83.090 86 C 71.215 86, 65.463 87.056, 65.180 89.290 C 64.461 94.953, 64.468 96.578, 65.217 97.084 C 65.692 97.405, 65.513 99.794, 64.818 102.392 C 63.053 108.990, 64.830 112.116, 71.023 113.306 C 77.395 114.531, 78.844 116.191, 75.699 118.664 C 73.679 120.254, 73.304 121.304, 73.597 124.549 C 74.069 129.778, 72.300 140.565, 70.269 144.846 C 68.841 147.854, 68.817 148.580, 70.071 150.788 C 73.234 156.355, 76.809 156.230, 84.444 150.283 L 89.300 146.500 98.150 146.850 C 104.133 147.087, 107 146.844, 107 146.100 C 107 145.399, 109.630 145.008, 114.250 145.021 L 121.500 145.043 124.252 148.934 C 126.396 151.965, 127.878 152.972, 130.960 153.493 C 138.422 154.754, 140.200 153.102, 142.705 142.573 C 145.101 132.507, 145.305 127.767, 143.593 122.003 C 141.527 115.044, 141.473 115.323, 145.250 113.372 C 150.589 110.613, 150.902 109.622, 150.407 97 C 149.968 85.796, 150.022 85.430, 152.478 82.794 C 153.865 81.305, 155 79.189, 155 78.091 C 155 75.584, 152.957 71, 151.839 71 C 150.325 71, 150.961 68.345, 152.895 66.595 C 154.831 64.843, 155.506 62.555, 156.855 53.186 C 157.594 48.047, 157.513 47.780, 154.391 45.038 C 152.558 43.429, 149.367 41.900, 147.012 41.502 C 142.256 40.699, 140.214 37.645, 142.611 34.921 C 144.656 32.596, 144.307 30.247, 141.658 28.512 C 138.303 26.313, 123.942 25.113, 115.267 26.306 C 108.405 27.250, 107.771 27.165, 102.924 24.651 C 96.809 21.478, 93.689 21.311, 90.986 24.014 M 104.615 37.561 C 103.300 40.988, 105.554 41.471, 121.280 41.134 C 129.651 40.955, 136.695 40.619, 136.933 40.388 C 138.281 39.078, 134.208 37.603, 128.764 37.428 C 125.319 37.317, 118.629 36.903, 113.898 36.507 C 106.193 35.863, 105.224 35.973, 104.615 37.561 M 131.316 56.272 C 128.866 57.366, 128.004 59.661, 128.989 62.470 C 129.482 63.873, 128.901 65.054, 126.885 66.750 C 124.318 68.910, 123.523 69.040, 116.686 68.421 C 112.249 68.019, 108.550 68.152, 107.476 68.754 C 105.809 69.686, 105.847 69.848, 108.004 71.002 C 109.572 71.841, 112.146 72.020, 115.914 71.552 C 123.732 70.581, 127.802 70.846, 131.077 72.540 C 134.917 74.526, 138.346 74.374, 142.972 72.014 C 147.905 69.498, 148.336 68.745, 146.187 66.401 C 145.227 65.356, 144.587 63.786, 144.763 62.913 C 145.611 58.719, 136.223 54.083, 131.316 56.272 M 111.210 84.462 L 108.920 85.724 111.960 86.983 C 113.632 87.676, 115 88.528, 115 88.878 C 115 89.537, 122.144 92, 124.056 92 C 124.654 92, 125.718 91.425, 126.421 90.722 C 127.459 89.684, 127.446 89.206, 126.350 88.182 C 125.263 87.167, 124.988 87.172, 124.937 88.211 C 124.902 88.920, 124.490 88.553, 124.022 87.395 C 123.482 86.057, 121.956 85.086, 119.836 84.730 C 118.001 84.422, 115.825 83.952, 115 83.685 C 114.175 83.418, 112.470 83.768, 111.210 84.462 M 129.813 89.683 C 130.534 89.972, 131.397 89.936, 131.729 89.604 C 132.061 89.272, 131.471 89.036, 130.417 89.079 C 129.252 89.127, 129.015 89.364, 129.813 89.683 M 121.750 93.706 C 122.987 93.944, 125.013 93.944, 126.250 93.706 C 127.487 93.467, 126.475 93.272, 124 93.272 C 121.525 93.272, 120.513 93.467, 121.750 93.706 M 85.228 96.427 C 80.027 98.316, 78.660 100.161, 80.108 103.338 C 81.069 105.447, 82.015 106, 84.661 106 C 86.497 106, 88 105.630, 88 105.179 C 88 104.727, 90.295 104.253, 93.100 104.125 C 95.905 103.997, 99.055 103.358, 100.100 102.705 C 102.673 101.099, 102.643 97, 100.059 97 C 98.991 97, 97.840 96.550, 97.500 96 C 96.682 94.677, 89.343 94.932, 85.228 96.427 M 121 96 C 121 96.550, 120.100 97, 119 97 C 115.644 97, 116.692 99.862, 120.250 100.413 C 131.176 102.105, 134.741 102.117, 135.375 100.466 C 136.385 97.832, 135.187 97, 130.382 97 C 127.637 97, 126.123 96.610, 126.500 96 C 126.861 95.417, 125.844 95, 124.059 95 C 122.377 95, 121 95.450, 121 96 M 100 111.737 C 100 112.362, 98.537 113.014, 96.750 113.187 C 94.368 113.416, 93.422 114.046, 93.207 115.545 C 92.935 117.448, 93.385 117.576, 99.707 117.397 C 103.443 117.291, 107.255 117.083, 108.177 116.935 C 110.319 116.592, 111.387 113, 109.347 113 C 108.465 113, 108.163 113.498, 108.588 114.250 C 109.152 115.250, 109.024 115.250, 107.947 114.250 C 107.206 113.563, 105.655 113, 104.500 113 C 103.345 113, 101.860 112.460, 101.200 111.800 C 100.341 110.941, 100 110.923, 100 111.737 M 115.212 123.179 C 112.854 124.322, 111.180 125.514, 111.494 125.827 C 111.807 126.140, 111.068 126.928, 109.852 127.579 C 107.884 128.632, 108.347 128.843, 114.071 129.501 C 117.801 129.930, 121.657 131.060, 123.256 132.192 C 124.771 133.266, 126.791 133.994, 127.744 133.811 C 129.769 133.421, 130.709 130.056, 129.075 129.046 C 128.458 128.665, 127.756 127.328, 127.514 126.074 C 126.457 120.586, 122.487 119.652, 115.212 123.179 M 90.924 128.282 C 88.611 130.069, 88.018 133.581, 89.639 135.895 C 90.846 137.619, 91.834 137.845, 96.279 137.416 C 101.840 136.880, 104.305 135.168, 105.520 131 C 105.921 129.625, 105.940 128.790, 105.562 129.145 C 105.185 129.500, 102.316 129.179, 99.188 128.431 C 92.301 126.785, 92.848 126.795, 90.924 128.282" stroke="none" fill="black" fill-rule="evenodd"/>
</svg>