<svg xmlns="http://www.w3.org/2000/svg" width="256" height="256" viewBox="0 0 256 256" version="1.1">
	<path d="M 104.562 31.998 C 98.471 33.156, 97.036 35.717, 96.794 45.861 C 96.394 62.652, 96.196 66.553, 95.489 71.601 C 94.810 76.449, 94.918 76.806, 97.675 78.769 C 99.824 80.299, 102.770 80.987, 109.038 81.423 C 123.349 82.419, 149 82.668, 149 81.811 C 149 81.365, 149.649 81, 150.443 81 C 153.879 81, 154.565 77.610, 154.319 61.843 C 154.182 53.103, 154.533 45.078, 155.134 43.197 C 156.511 38.889, 155.572 35.421, 152.480 33.395 C 150.418 32.044, 146.436 31.720, 129.246 31.507 C 117.836 31.365, 106.728 31.586, 104.562 31.998 M 42.500 32.950 C 37.462 35, 37.233 36.032, 36.066 62 C 35.461 75.475, 35.076 92.350, 35.212 99.500 C 35.516 115.472, 33.819 130.520, 30.325 142.839 C 27.346 153.345, 27.748 157.244, 31.872 157.833 C 38.696 158.807, 40.690 155.923, 44.546 139.500 C 46.725 130.220, 47.026 127.166, 46.476 119.970 C 45.575 108.207, 46.541 107.031, 57.500 106.551 C 68.091 106.086, 69.003 106.868, 68.992 116.405 C 68.980 126.935, 67.132 141.150, 65.440 143.732 C 64.623 144.979, 63.350 146, 62.612 146 C 59.883 146, 56 150.086, 56 152.959 C 56 157.098, 60.773 159.161, 67.500 157.929 C 74.083 156.723, 76.645 155.292, 77.909 152.116 C 79.298 148.627, 80.983 137.604, 80.992 131.950 C 81.001 126.521, 82.265 125, 86.766 125 C 88.617 125, 91.114 124.479, 92.316 123.843 C 94.670 122.596, 98 119.152, 98 117.964 C 98 117.562, 98.908 116.996, 100.018 116.706 C 102.190 116.138, 105.384 118.569, 104.450 120.081 C 104.138 120.586, 104.261 121, 104.724 121 C 105.187 121, 105.475 122.237, 105.364 123.750 C 105.253 125.263, 105.126 127.010, 105.081 127.633 C 105.037 128.257, 104.105 129.001, 103.012 129.287 C 99.291 130.260, 97.408 141.265, 100.444 144.301 C 102.833 146.690, 106.214 145.054, 111.500 138.951 C 116.744 132.897, 117.662 132.198, 117.674 134.250 C 117.679 134.938, 117.994 137.558, 118.376 140.074 C 119.018 144.310, 118.883 144.732, 116.535 145.802 C 113.082 147.375, 113.121 151.814, 116.610 154.356 C 119.006 156.102, 119.406 156.117, 123.362 154.606 C 129.201 152.376, 129.719 152.486, 134.616 157 C 140.567 162.486, 144.567 162.681, 149.731 157.737 C 153.352 154.271, 154.791 150.719, 155.519 143.450 C 155.792 140.727, 156.746 136.025, 157.641 133 C 159.578 126.448, 159.674 120.887, 157.985 112.930 C 156.565 106.239, 155.358 105.419, 148.449 106.455 C 142.922 107.284, 137 106.215, 137 104.389 C 137 103.133, 135.771 102.563, 133.750 102.882 C 133.338 102.947, 133 102.594, 133 102.098 C 133 101.068, 143.480 99.762, 146.500 100.415 C 147.600 100.652, 149.587 100.881, 150.917 100.923 C 152.246 100.966, 153.060 101.273, 152.727 101.607 C 152.393 101.940, 152.640 102.769, 153.274 103.449 C 154.177 104.415, 155.253 103.922, 158.214 101.181 C 162.953 96.797, 163.107 93.836, 158.803 89.816 C 156.047 87.241, 155.048 86.901, 151.553 87.346 C 141.211 88.663, 137.606 88.941, 124.810 89.407 C 113.950 89.803, 110.506 89.600, 108.148 88.424 C 106.513 87.608, 102.243 86.667, 98.659 86.333 C 93.182 85.821, 91.487 86.065, 88.040 87.862 C 85.784 89.038, 83.551 90, 83.078 90 C 80.551 90, 80.097 77.243, 82.095 62.401 C 83.065 55.197, 83.063 52.385, 82.085 48.901 C 81.405 46.480, 80.454 42.321, 79.970 39.657 C 78.574 31.966, 78.889 32.090, 60.666 32.115 C 51.775 32.127, 43.600 32.503, 42.500 32.950 M 111.200 44.200 C 109.530 45.870, 109.701 47.428, 111.750 49.223 C 113.111 50.415, 116.229 50.766, 125.774 50.805 C 137.698 50.854, 138.094 50.786, 139.643 48.422 C 140.926 46.464, 140.995 45.698, 139.996 44.495 C 138.384 42.552, 113.106 42.294, 111.200 44.200 M 53.837 45.133 C 49.083 46.874, 46.097 59.016, 49.334 63.442 C 50.112 64.506, 52.718 65.603, 55.584 66.074 C 64.452 67.530, 65.798 67.291, 67.522 63.958 C 68.850 61.389, 68.929 59.726, 68.029 53.256 C 67.443 49.043, 66.410 45.244, 65.732 44.813 C 64.058 43.750, 57.103 43.937, 53.837 45.133 M 111.494 64.009 C 110.441 65.714, 112.058 69.086, 114.333 69.927 C 116.850 70.859, 122.003 69.328, 121.994 67.652 C 121.986 66.206, 116.463 63, 113.978 63 C 112.955 63, 111.837 63.454, 111.494 64.009 M 130.250 66.496 C 128.411 68.584, 128.684 69, 131.893 69 C 134.342 69, 136 67.554, 136 65.418 C 136 64.362, 131.364 65.230, 130.250 66.496 M 51.375 76.994 C 45.078 79.510, 47.026 93, 53.687 93 C 54.995 93, 57.524 93.610, 59.308 94.355 C 63.697 96.189, 66.553 94.985, 67.358 90.960 C 69.382 80.839, 67.049 76.821, 58.913 76.415 C 55.936 76.267, 52.544 76.528, 51.375 76.994 M 81.104 97.250 C 80.108 99.899, 81.700 113.196, 83.118 114.073 C 83.653 114.403, 85.645 114.187, 87.545 113.592 C 90.046 112.809, 91 111.930, 91 110.409 C 91 109.253, 91.722 106.860, 92.604 105.091 C 93.487 103.323, 94.049 101.751, 93.854 101.600 C 90.818 99.238, 83.877 95, 83.045 95 C 82.443 95, 81.570 96.013, 81.104 97.250 M 105 99.903 C 105 100.507, 103.987 101.023, 102.750 101.052 C 101.080 101.090, 101.530 101.522, 104.500 102.731 C 106.700 103.627, 108.831 104.841, 109.235 105.430 C 109.726 106.146, 109.974 106.084, 109.985 105.243 C 109.995 104.416, 111.455 104.021, 114.250 104.090 C 116.588 104.148, 119.400 103.961, 120.500 103.674 C 121.600 103.388, 123.287 103.119, 124.250 103.077 C 128.152 102.906, 125.651 101.147, 120.750 100.616 C 117.862 100.302, 113.138 99.767, 110.250 99.427 C 106.732 99.011, 105 99.169, 105 99.903 M 139.391 116.792 C 137.233 118.192, 135.805 122.275, 136.412 125.312 C 136.863 127.566, 136.235 130.019, 134.045 134.560 C 131.429 139.984, 130.824 144.158, 132.422 145.756 C 132.689 146.023, 134.952 145.934, 137.451 145.560 C 142.745 144.766, 143.771 143.325, 143.551 137 C 143.465 134.503, 144.120 131.094, 145.023 129.340 C 146.352 126.762, 146.860 118.313, 145.738 117.462 C 144.724 116.693, 140.269 116.222, 139.391 116.792 M 119.250 120.768 C 117.311 121.088, 117 121.752, 117 125.570 C 117 130.090, 117.799 130.782, 121.418 129.393 C 122.480 128.986, 123 127.526, 123 124.952 C 123 120.720, 122.555 120.224, 119.250 120.768" stroke="none" fill="black" fill-rule="evenodd"/>
</svg>