<svg xmlns="http://www.w3.org/2000/svg" width="256" height="256" viewBox="0 0 256 256" version="1.1">
	<path d="M 97 27.793 C 93.155 28.992, 91.959 31.208, 92.590 35.966 C 92.928 38.515, 92.771 42.171, 92.241 44.091 C 91.627 46.314, 91.618 51.733, 92.217 59.005 L 93.157 70.427 98.671 78.713 L 104.184 87 124.342 87.009 C 135.429 87.013, 146.806 87.295, 149.625 87.633 C 154.065 88.167, 155.049 87.951, 156.980 86.020 C 159.806 83.194, 159.133 78.496, 155.437 75.243 C 152.952 73.056, 152.338 72.996, 135.686 73.322 C 126.234 73.506, 116.994 73.322, 115.153 72.912 C 110.442 71.863, 106.997 68.334, 107.015 64.576 C 107.047 58.227, 109.791 57.288, 130.487 56.547 C 151.356 55.799, 154.500 54.749, 154.500 48.530 C 154.500 42.487, 152.929 42.077, 132.340 42.742 C 119.271 43.165, 113.949 42.973, 110.915 41.972 C 106.564 40.536, 104.547 38.002, 105.462 35.119 C 106.582 31.592, 100.819 26.602, 97 27.793 M 43.373 31.131 C 39.559 32.183, 37.896 35.689, 37.951 42.564 C 37.973 45.279, 37.800 61.450, 37.567 78.500 C 37.136 110.110, 35.718 124.841, 31.537 141.161 C 29.377 149.593, 29.524 153.675, 32.038 155.020 C 36.404 157.357, 42.322 152.077, 43.511 144.785 C 43.895 142.428, 44.869 138.025, 45.675 135 C 46.481 131.975, 47.514 125.067, 47.971 119.649 C 48.428 114.231, 49.286 109.314, 49.877 108.723 C 50.866 107.734, 53.178 107.262, 66.021 105.423 C 70.165 104.830, 70.657 104.990, 71.917 107.345 C 73.991 111.220, 71.099 139.723, 68.435 141.671 C 67.428 142.407, 65.761 142.741, 64.729 142.414 C 62.513 141.711, 57.350 143.645, 56.663 145.437 C 56.027 147.093, 59.215 154.113, 61.439 155.953 C 63.759 157.874, 72.855 157.644, 76.880 155.562 C 78.577 154.684, 80.599 152.736, 81.372 151.233 C 83.684 146.740, 84.730 134.527, 84.348 116.500 C 83.838 92.369, 83.839 93.195, 84.297 85.500 C 84.527 81.650, 84.329 74.675, 83.859 70 C 83.324 64.678, 83.385 59.398, 84.022 55.879 C 85.318 48.731, 83.867 34.439, 81.618 32.190 C 80.322 30.893, 77.051 30.581, 63.270 30.440 C 54.047 30.346, 45.093 30.657, 43.373 31.131 M 56.060 44.381 C 50.981 45.737, 49.121 48.719, 49.045 55.628 C 48.992 60.500, 50.019 61.529, 55.898 62.500 C 58.317 62.899, 61.776 63.844, 63.586 64.600 C 66.724 65.911, 66.974 65.849, 69.030 63.237 C 70.973 60.770, 71.117 59.761, 70.493 53 C 70.112 48.875, 69.340 44.938, 68.778 44.250 C 67.533 42.728, 62.043 42.785, 56.060 44.381 M 50.401 77.110 C 48.212 79.529, 48.182 87.611, 50.355 89.783 C 51.275 90.703, 53.709 91.540, 55.764 91.644 C 57.819 91.747, 61.408 92.411, 63.741 93.120 C 67.624 94.300, 68.106 94.243, 69.459 92.454 C 70.961 90.467, 71.459 83.315, 70.376 79.275 C 69.730 76.863, 67.811 76.322, 57.740 75.713 C 53.224 75.440, 51.639 75.741, 50.401 77.110 M 119.500 93.024 C 117.850 93.555, 112.675 94.223, 108 94.509 C 103.325 94.795, 98.825 95.247, 98 95.513 C 95.575 96.295, 91.754 102.650, 92.429 104.777 C 92.933 106.364, 95.786 138.987, 96.356 149.685 C 96.450 151.437, 97.568 154.068, 98.841 155.533 C 100.891 157.889, 101.636 158.120, 105.328 157.537 C 107.623 157.175, 119.305 156.569, 131.289 156.190 C 149.037 155.628, 153.253 155.222, 154.023 154 C 154.544 153.175, 154.987 150.025, 155.009 147 C 155.031 143.975, 155.463 139.700, 155.968 137.500 C 156.933 133.301, 157.006 130.147, 156.530 113 C 156.162 99.727, 156.306 100.656, 154.250 98.301 C 150.969 94.542, 146.396 92.947, 139.255 93.069 C 135.540 93.133, 130.250 92.932, 127.500 92.623 C 124.750 92.313, 121.150 92.494, 119.500 93.024 M 109.836 108.378 C 107.867 109.817, 106.699 115.027, 107.920 116.926 C 108.703 118.146, 109.847 118.161, 115.843 117.030 C 122.167 115.836, 126.591 115.944, 134 117.470 C 137.094 118.108, 142.643 116.372, 143.343 114.548 C 144.144 112.462, 142.988 109.221, 141.151 108.403 C 138.280 107.125, 111.579 107.104, 109.836 108.378 M 118.782 128.959 C 109.605 129.602, 107.545 131.074, 107.545 136.986 C 107.545 143.165, 108.427 143.529, 122.804 143.280 C 140.264 142.977, 141.440 142.699, 143.483 138.395 C 145.071 135.048, 145.068 134.732, 143.425 132.917 C 140.285 129.448, 131.639 128.059, 118.782 128.959" stroke="none" fill="black" fill-rule="evenodd"/>
</svg>