<svg xmlns="http://www.w3.org/2000/svg" width="256" height="256" viewBox="0 0 256 256" version="1.1">
	<path d="M 86.305 28.499 C 85.127 29.324, 83.167 31.611, 81.949 33.583 C 79.745 37.149, 79.743 37.197, 81.529 43.096 C 83.063 48.161, 83.130 49.388, 81.993 51.513 C 80.383 54.522, 79.053 54.612, 74.774 52.004 C 72.874 50.845, 69.731 50.006, 67.285 50.004 C 64.041 50.001, 62.814 49.521, 61.956 47.918 C 60.535 45.263, 63.066 43.078, 67.615 43.032 C 71.576 42.991, 76 39.568, 76 36.542 C 76 33.606, 71.630 30.647, 67.549 30.821 C 62.682 31.027, 48.956 37.176, 46.743 40.141 C 45.004 42.472, 44.915 43.213, 45.990 46.469 C 46.917 49.280, 46.945 51.983, 46.107 57.829 C 45.134 64.616, 45.234 66.220, 46.977 71.754 C 49.477 79.692, 48.644 82.450, 43.298 83.934 C 41.209 84.514, 38.761 84.991, 37.857 84.994 C 34.624 85.005, 34.030 90.581, 36.886 94.107 C 38.692 96.338, 38.984 96.382, 43.783 95.152 C 47.572 94.181, 49.786 94.135, 52.855 94.961 C 58.139 96.384, 58.596 97.341, 55.861 101.257 C 52.972 105.394, 52.387 105.792, 47.224 107.137 C 42.127 108.464, 39 112.029, 39 116.512 C 39 120.972, 41.029 122.370, 46.594 121.742 C 49.784 121.383, 52.130 120.343, 54.336 118.314 C 56.076 116.712, 58.737 114.785, 60.250 114.031 C 61.763 113.278, 63 112.288, 63 111.831 C 63 111.374, 63.675 111, 64.500 111 C 65.325 111, 66 110.550, 66 110 C 66 109.450, 66.675 109, 67.500 109 C 68.325 109, 69 108.656, 69 108.236 C 69 107.816, 70.800 106.360, 73 105 C 75.200 103.640, 77 102.256, 77 101.924 C 77 100.779, 85.433 98.541, 89.461 98.616 C 94.616 98.713, 98 99.265, 98 100.008 C 98 101.147, 105.419 101.069, 108.239 99.901 C 110.482 98.972, 111.950 98.994, 115.003 100.001 C 119.371 101.443, 124.574 106.262, 123.550 107.919 C 123.183 108.513, 123.455 109, 124.155 109 C 125.005 109, 124.847 109.582, 123.679 110.750 C 122.410 112.019, 120.170 112.534, 115.526 112.623 C 108.725 112.753, 104.569 111.389, 104.405 108.972 C 104.350 108.162, 104.184 107.050, 104.037 106.500 C 103.890 105.950, 103.709 104.856, 103.635 104.069 C 103.545 103.111, 102.341 102.658, 100 102.701 C 94.479 102.802, 94.002 102.924, 93.964 104.250 C 93.944 104.938, 92.861 106.805, 91.557 108.400 C 89.276 111.190, 88.966 111.272, 83.343 110.574 C 75.067 109.547, 72.903 109.760, 71.392 111.750 C 66.708 117.920, 74.398 125.679, 83.940 124.414 C 88.339 123.830, 89.122 124.031, 91.426 126.335 C 94.547 129.456, 94.584 129.996, 91.873 132.906 C 89.528 135.423, 87.841 135.364, 79.810 132.484 C 75.471 130.928, 74.645 130.922, 68.747 132.401 C 65.241 133.281, 61.253 134, 59.886 134 C 56.516 134, 55 135.761, 55 139.677 C 55 142.067, 55.675 143.396, 57.494 144.588 C 59.641 145.995, 61.691 146.111, 72.244 145.428 C 78.985 144.991, 85.175 144.757, 86 144.907 C 89.053 145.463, 90.983 148.425, 92.146 154.339 C 93.608 161.768, 96.644 165.190, 100.791 164.081 C 102.444 163.639, 103.779 162.410, 104.214 160.928 C 104.607 159.593, 105.507 156.475, 106.214 154 C 107.984 147.807, 111.848 146.001, 124.745 145.341 C 130.110 145.067, 135.695 144.391, 137.155 143.839 C 140.699 142.500, 141.492 139.153, 138.915 136.410 C 136.224 133.545, 123.615 131.301, 117.682 132.632 C 112.726 133.744, 106.145 132.846, 104.922 130.890 C 104.339 129.959, 104.539 129.393, 105.526 129.177 C 106.337 128.999, 107 128.436, 107 127.927 C 107 127.417, 110.597 127, 114.994 127 L 122.987 127 125.991 122.750 C 131.683 114.695, 131.893 114.493, 133.198 115.798 C 133.859 116.459, 134.980 117, 135.689 117 C 136.397 117, 137.878 117.772, 138.980 118.714 C 144.662 123.580, 154.436 124.680, 155.951 120.625 C 157.489 116.508, 154.599 112.200, 147.212 107.598 C 142.047 104.380, 140.059 100.838, 142.064 98.423 C 143.126 97.143, 144.626 96.895, 148.961 97.281 C 162.999 98.531, 166.407 88.370, 153.268 84.436 C 150.391 83.574, 147.802 82.489, 147.515 82.024 C 146.732 80.757, 146.723 78.192, 147.425 57.739 L 148.070 38.979 145.698 36.607 C 141.321 32.230, 126.260 30.473, 121.885 33.830 C 117.890 36.895, 116.101 37.092, 111.874 34.936 C 109.668 33.810, 105.531 32.626, 102.682 32.304 C 99.832 31.981, 95.660 30.656, 93.412 29.359 C 88.574 26.567, 88.991 26.618, 86.305 28.499 M 113.250 42.674 C 110.392 44.668, 110.414 46.341, 113.353 50.317 C 115.458 53.165, 115.710 54.585, 115.742 63.805 C 115.776 73.494, 115.621 74.300, 113.139 77.305 C 111.688 79.062, 110.162 80.650, 109.750 80.833 C 107.797 81.701, 109.286 84.908, 112.309 86.342 C 115.582 87.895, 119.289 87.658, 121.742 85.739 C 122.471 85.169, 125.365 85.062, 128.742 85.480 C 131.909 85.872, 134.178 85.865, 133.785 85.465 C 133.392 85.065, 133.520 83.896, 134.070 82.869 C 134.906 81.308, 134.694 80.977, 132.785 80.858 C 130.040 80.688, 126.945 80.405, 125.285 80.171 C 122.589 79.792, 117 73.760, 117 71.230 C 117 69.820, 117.307 68.974, 117.683 69.350 C 118.059 69.726, 118.943 68.663, 119.647 66.987 C 120.624 64.665, 120.661 63.294, 119.803 61.221 C 119.184 59.724, 118.761 58.129, 118.863 57.676 C 118.966 57.222, 118.588 57.136, 118.025 57.485 C 117.461 57.833, 117 57.523, 117 56.796 C 117 56.069, 117.822 55.030, 118.827 54.487 C 123.113 52.172, 125.662 51.104, 128.180 50.568 C 130.911 49.986, 134 47.556, 134 45.990 C 134 45.513, 131.863 44.846, 129.250 44.509 C 126.638 44.171, 123.022 43.244, 121.216 42.448 C 117.160 40.660, 116.095 40.690, 113.250 42.674 M 100 46.059 C 100 46.641, 100.450 46.840, 101 46.500 C 101.550 46.160, 102 45.684, 102 45.441 C 102 45.198, 101.550 45, 101 45 C 100.450 45, 100 45.477, 100 46.059 M 79.486 56.188 C 74.931 60.159, 72 63.149, 72 63.823 C 72 64.677, 78.393 68, 80.034 68 C 80.565 68, 81.872 67.128, 82.937 66.063 C 84.631 64.369, 84.725 63.710, 83.687 60.813 C 82.195 56.650, 80.764 55.074, 79.486 56.188 M 93.250 61.525 C 92.013 62.847, 91 64.554, 91 65.318 C 91 67.133, 95.532 72.004, 97.202 71.985 C 101.459 71.934, 104.848 63.248, 101.800 60.200 C 99.875 58.275, 95.685 58.925, 93.250 61.525 M 64.500 62 C 64.840 62.550, 65.316 63, 65.559 63 C 65.802 63, 66 62.550, 66 62 C 66 61.450, 65.523 61, 64.941 61 C 64.359 61, 64.160 61.450, 64.500 62 M 63.559 74.872 C 59.518 77.243, 58.549 81.228, 61.369 83.877 C 63.352 85.740, 64.446 85.860, 75.012 85.373 C 89.778 84.692, 88.519 84.684, 95.622 85.510 C 101.971 86.250, 103.541 85.573, 102.396 82.590 C 101.905 81.309, 100.134 81, 93.297 81 C 86.805 81, 84.184 80.580, 82.154 79.214 C 78.964 77.067, 75.666 75.536, 71.101 74.082 C 66.971 72.767, 67.184 72.745, 63.559 74.872" stroke="none" fill="black" fill-rule="evenodd"/>
</svg>