<svg xmlns="http://www.w3.org/2000/svg" width="256" height="256" viewBox="0 0 256 256" version="1.1">
	<path d="M 84.030 30.464 C 82.216 32.649, 80.748 46.427, 81.888 50.558 C 82.996 54.569, 80.580 64.840, 78.326 65.705 C 77.589 65.988, 75.187 64.595, 72.990 62.610 C 69.347 59.319, 68.471 59, 63.069 59 C 55.075 59, 52.524 56.639, 55.163 51.684 C 56.871 48.479, 58.919 47.227, 64.432 46.022 C 67.144 45.428, 69.957 44.451, 70.682 43.849 C 73.962 41.126, 70.709 31.467, 66.123 30.316 C 63.014 29.536, 44.586 38.446, 43.154 41.422 C 42.604 42.565, 41.886 48.937, 41.558 55.583 C 40.989 67.134, 41.079 67.927, 43.601 73.583 C 45.940 78.829, 48.242 90.389, 48.218 96.770 C 48.213 98.018, 47.468 100.602, 46.562 102.512 C 44.987 105.830, 43.677 106.578, 38.109 107.339 C 33.172 108.014, 31.344 114.734, 34.902 119.127 C 36.765 121.428, 37.102 121.470, 51.311 121.143 C 65.566 120.815, 65.898 120.856, 70.447 123.522 C 75.392 126.420, 79.290 126.808, 87 125.171 C 92.647 123.971, 114.001 124.601, 115.409 126.009 C 115.985 126.585, 116.466 129.783, 116.478 133.115 C 116.498 138.478, 116.817 139.445, 119.266 141.552 C 120.787 142.861, 123.801 144.408, 125.963 144.990 C 128.125 145.572, 132.246 148.057, 135.122 150.512 C 142.649 156.937, 149.710 157.917, 151.097 152.730 C 151.693 150.500, 151.157 148.949, 148.348 144.775 C 144.307 138.770, 142.050 136.964, 136.495 135.289 C 130.487 133.479, 126.746 126.235, 130.750 124.166 C 131.713 123.669, 138.125 122.963, 145 122.596 C 156.687 121.974, 157.646 121.767, 159.750 119.410 C 160.988 118.023, 162 115.889, 162 114.667 C 162 111.427, 159.233 108, 156.618 108 C 153.542 108, 150.090 104.100, 149.953 100.470 C 149.891 98.837, 150.539 93.802, 151.392 89.282 C 152.252 84.733, 153.199 72.394, 153.515 61.638 L 154.085 42.210 151.630 39.355 C 149.296 36.641, 148.701 36.483, 139.548 36.152 C 130.716 35.833, 129.460 36.029, 124.353 38.528 C 119.330 40.985, 118.406 41.139, 114.912 40.092 C 112.782 39.454, 108.100 39.012, 104.509 39.111 C 97.319 39.309, 95.654 38.413, 91.886 32.316 C 89.662 28.717, 86.164 27.892, 84.030 30.464 M 115.739 52 C 111.237 54.413, 110.245 54.448, 104.031 52.415 C 100.453 51.245, 98.670 51.106, 97.215 51.885 C 94.235 53.480, 93.841 57.704, 96.395 60.672 C 98.514 63.136, 98.636 63.153, 104.803 61.880 L 111.061 60.587 115.730 65.256 L 120.399 69.925 118.199 75.232 C 115.457 81.849, 115.443 84.022, 118.121 87.426 C 120.229 90.106, 120.254 90.111, 122.371 88.186 C 125.806 85.062, 128.583 84, 133.312 84 C 138.993 84, 140.410 82.388, 139.494 76.965 C 138.658 72.017, 137.199 71.315, 131.032 72.895 C 127.346 73.840, 125.741 73.839, 123.660 72.891 C 119.999 71.223, 120.258 68.227, 124.490 63.283 C 127.677 59.559, 128.266 59.271, 131.284 59.951 C 136.120 61.042, 139.007 59.664, 138.968 56.282 C 138.908 50.992, 137.156 50, 127.875 50 C 121.381 50, 118.622 50.455, 115.739 52 M 78 68.004 C 78 68.735, 77.703 69.036, 77.340 68.673 C 76.977 68.310, 76.093 68.850, 75.376 69.873 C 74.476 71.158, 72.254 71.939, 68.191 72.399 C 61.267 73.182, 58 75.631, 58 80.039 L 58 83 64.632 83 C 70.916 83, 71.437 83.184, 74.565 86.500 C 76.380 88.425, 78.597 90, 79.492 90 C 80.386 90, 80.906 89.656, 80.646 89.236 C 80.387 88.817, 81.485 86.551, 83.087 84.201 C 84.689 81.852, 86 79.461, 86 78.888 C 86 78.315, 84.200 75.333, 82 72.260 C 79.800 69.188, 78 67.273, 78 68.004 M 95.308 76.290 C 91.711 77.379, 90.575 79.264, 91.993 81.790 C 92.830 83.279, 94.860 90.047, 95.580 93.749 C 95.713 94.436, 95.027 95.979, 94.056 97.180 C 92.464 99.146, 91.988 99.238, 89.262 98.108 C 87.597 97.419, 84.973 95.537, 83.430 93.927 C 81.888 92.317, 80.280 91, 79.857 91 C 79.435 91, 77.511 92.071, 75.581 93.380 C 73.556 94.755, 69.764 96.049, 66.607 96.443 C 60.479 97.209, 58.904 98.513, 58.587 103.083 C 58.270 107.666, 60.103 108.992, 65.759 108.272 C 73.835 107.243, 80.821 107.741, 91.151 110.083 C 99.826 112.050, 101.276 112.153, 102.539 110.890 C 103.802 109.627, 103.683 108.877, 101.608 104.997 C 99.566 101.179, 99.437 100.401, 100.692 99.483 C 102.509 98.155, 105.233 84.482, 104.428 80.733 C 103.624 76.989, 99.553 75.006, 95.308 76.290 M 118.303 95.250 C 116.824 98.462, 114.840 107.174, 115.448 107.782 C 116.400 108.734, 135.068 108.332, 136.062 107.338 C 137.239 106.161, 137.610 99.796, 136.597 98.157 C 136.204 97.521, 134.221 96.998, 132.191 96.996 C 130.161 96.994, 127.027 96.094, 125.226 94.996 C 121.012 92.427, 119.577 92.480, 118.303 95.250 M 60.991 135.293 C 55.761 138.746, 48.961 142.595, 45.881 143.845 C 40.928 145.856, 40.126 146.588, 38.939 150.186 C 37.667 154.038, 37.719 154.354, 39.909 156.127 C 41.181 157.157, 43.109 158, 44.194 158 C 48.971 158, 62.800 153.679, 66.580 151.006 C 68.824 149.418, 72.424 147.412, 74.580 146.546 C 78.737 144.877, 83.507 139.078, 83.273 135.976 C 83.198 134.985, 82.125 133.009, 80.888 131.587 C 79.155 129.593, 77.706 129.002, 74.570 129.007 C 71.258 129.012, 68.730 130.182, 60.991 135.293" stroke="none" fill="black" fill-rule="evenodd"/>
</svg>