<svg xmlns="http://www.w3.org/2000/svg" width="256" height="256" viewBox="0 0 256 256" version="1.1">
	<path d="M 115.203 31.256 C 114.630 31.946, 113.846 33.764, 113.462 35.296 C 112.983 37.205, 111.473 38.738, 108.660 40.173 C 101.956 43.594, 99.324 44.025, 94.834 42.442 C 92.587 41.649, 88.801 41, 86.421 41 C 80.289 41, 77.455 39.387, 75.688 34.889 C 74.377 31.550, 73.728 31, 71.101 31 C 68.540 31, 67.709 31.649, 66.011 34.979 C 63.233 40.423, 59.739 42, 50.454 42 C 45.025 42, 41.966 42.498, 39.903 43.716 C 35.022 46.599, 34.872 51.376, 39.565 54.450 C 41.574 55.767, 42.766 55.881, 45.776 55.045 C 50.456 53.746, 56.112 53.712, 59.407 54.965 C 63.212 56.411, 63.645 60.044, 60.627 65.194 C 59.224 67.587, 57.577 71.876, 56.966 74.724 C 56.011 79.177, 54.823 80.955, 48.483 87.419 C 43.504 92.497, 40.771 96.163, 40.061 98.718 C 38.665 103.745, 38.728 107.249, 40.250 109.309 C 41.353 110.802, 42.234 110.871, 47.736 109.896 L 53.973 108.791 59.013 113.011 C 61.785 115.332, 64.491 118.049, 65.027 119.050 C 66.827 122.414, 66.119 126.579, 63.231 129.602 C 61.708 131.196, 59.796 133.412, 58.981 134.527 C 58.167 135.641, 55.203 138.009, 52.395 139.788 C 45.228 144.329, 43.778 146.254, 43.230 151.955 C 42.791 156.522, 42.959 157.024, 45.280 158.082 C 47.415 159.054, 49.234 158.724, 56.974 155.955 L 66.141 152.676 70.186 144.630 C 72.411 140.205, 74.871 134.431, 75.652 131.799 C 76.434 129.166, 78.125 125.997, 79.410 124.756 C 80.694 123.515, 83.371 120.025, 85.358 117 C 87.345 113.975, 90.153 109.828, 91.597 107.785 C 93.489 105.110, 94.433 102.164, 94.972 97.256 C 95.677 90.833, 97.840 84.835, 99.912 83.554 C 101.356 82.662, 102.704 88.760, 102.885 97 C 102.976 101.125, 103.551 106.046, 104.164 107.935 C 104.863 110.091, 105.047 114.875, 104.659 120.782 C 104.312 126.067, 104.527 133.549, 105.149 137.847 C 106.206 145.143, 106.489 145.725, 111.209 150.330 C 113.932 152.987, 118.936 156.474, 122.330 158.079 C 127.749 160.643, 129.596 160.995, 137.500 160.968 C 153.485 160.915, 160.994 156.020, 160.998 145.651 C 161 141.055, 158.480 135.327, 155.832 133.910 C 153.948 132.902, 150.088 133.493, 149.906 134.817 C 149.854 135.193, 149.711 136.850, 149.587 138.500 C 149.208 143.557, 147.281 146.992, 144.775 147.077 C 143.524 147.119, 141.626 147.316, 140.557 147.516 C 139.489 147.716, 134.919 147.161, 130.403 146.282 C 122.579 144.760, 122.091 144.507, 120.081 140.930 C 117.585 136.490, 117.115 132.348, 116.407 108.609 C 115.670 83.867, 116.741 81.842, 128.329 86.063 C 131.723 87.299, 134.876 88.639, 135.335 89.040 C 135.794 89.441, 135.608 93.112, 134.921 97.197 C 133.987 102.754, 133.954 105.428, 134.787 107.818 C 135.787 110.689, 135.646 111.248, 133.385 113.344 C 131.298 115.279, 130.923 116.429, 131.185 120.088 C 131.483 124.256, 131.725 124.578, 135.564 125.905 C 141.939 128.109, 147.011 126.159, 147.578 121.286 C 147.767 119.664, 148.382 117.126, 148.944 115.648 C 149.506 114.170, 150.427 107.682, 150.992 101.230 C 151.557 94.779, 152.217 87.372, 152.460 84.772 C 153.163 77.231, 149.773 74.937, 137.085 74.367 C 132.363 74.155, 126.700 73.351, 124.500 72.581 C 122.300 71.810, 120.050 71.524, 119.500 71.945 C 118.950 72.367, 116.331 73.241, 113.679 73.888 C 108.534 75.144, 101 79.377, 101 81.013 C 101 81.556, 100.298 82, 99.441 82 C 98.584 82, 98.108 81.634, 98.385 81.187 C 98.661 80.740, 97.072 79.196, 94.853 77.758 C 91.078 75.310, 90.260 75.176, 82.159 75.668 C 71.247 76.330, 69.430 75.335, 70.456 69.260 C 71.104 65.427, 71.709 64.811, 79.963 59.578 C 89.002 53.848, 95.234 51.094, 98.152 51.541 C 99.989 51.823, 110.323 59.563, 116.500 65.285 C 118.700 67.323, 120.725 68.978, 121 68.963 C 122.569 68.879, 125.054 65.821, 127.481 60.992 C 128.999 57.971, 130.355 55.369, 130.494 55.209 C 130.634 55.049, 135.719 54.824, 141.796 54.709 C 151.962 54.517, 153.049 54.307, 155.422 52.076 C 158.659 49.032, 158.678 46.985, 155.495 43.995 C 153.002 41.653, 152.936 41.647, 142.398 42.872 C 129.681 44.351, 128.393 43.821, 124.454 35.494 C 122.214 30.759, 121.467 30, 119.050 30 C 117.507 30, 115.776 30.565, 115.203 31.256 M 66.383 89.583 C 60.524 92.474, 59.031 100.406, 63.814 103.231 C 70.489 107.174, 74.169 105.957, 79.104 98.174 C 82.985 92.055, 82.923 89.435, 78.875 88.625 C 73.848 87.620, 69.721 87.936, 66.383 89.583" stroke="none" fill="black" fill-rule="evenodd"/>
</svg>