<svg xmlns="http://www.w3.org/2000/svg" width="256" height="256" viewBox="0 0 256 256" version="1.1">
	<path d="M 68.269 28.282 C 67.043 28.835, 65.108 31.211, 63.970 33.561 C 61.051 39.591, 58.427 41, 50.112 41 C 44.085 41, 42.742 41.347, 40.077 43.589 C 33.336 49.261, 38.604 55.278, 48.430 53.129 C 61.947 50.173, 64.713 51.505, 68.430 62.760 C 70.139 67.934, 73.327 71.073, 75.087 69.313 C 75.566 68.834, 77.039 65.755, 78.360 62.471 C 80.526 57.085, 81.287 56.231, 86.131 53.758 C 89.084 52.250, 92.649 49.754, 94.054 48.212 C 95.530 46.591, 97.007 45.765, 97.554 46.255 C 98.074 46.721, 100.469 48.897, 102.876 51.091 C 105.283 53.285, 108.433 55.693, 109.876 56.444 C 111.632 57.356, 113.091 59.489, 114.285 62.888 C 116.455 69.061, 119.063 70.844, 122.567 68.548 C 124.687 67.159, 125 66.198, 125 61.088 C 125 56.989, 125.527 54.572, 126.750 53.065 C 128.702 50.660, 129.028 50.626, 141.073 51.581 C 151.624 52.417, 154.267 51.405, 153.808 46.706 C 153.255 41.032, 150.347 40.453, 133.393 42.647 C 129.792 43.113, 129.022 42.843, 127.143 40.454 C 125.964 38.956, 125 36.294, 125 34.539 C 125 30.582, 121.230 26.688, 117.864 27.168 C 116.581 27.350, 114.624 28.913, 113.516 30.640 C 112.407 32.367, 109.250 35.292, 106.500 37.140 C 103.750 38.988, 101.275 40.770, 101 41.100 C 99.735 42.619, 96 44.026, 96 42.984 C 96 41.325, 89.561 39, 84.966 39 C 79.751 39, 77.006 37.528, 76.978 34.715 C 76.953 32.249, 74.305 28.562, 72 27.783 C 71.175 27.504, 69.496 27.729, 68.269 28.282 M 91.152 63.848 C 90.136 64.864, 89.015 67.506, 88.661 69.718 C 88.307 71.930, 87.367 74.280, 86.572 74.940 C 85.174 76.101, 78.396 76.715, 59.500 77.396 C 45.066 77.916, 38.400 81.724, 40.988 87.971 L 42.144 90.761 55.322 90.366 C 62.570 90.148, 72.513 89.804, 77.419 89.601 C 85.439 89.269, 86.564 89.447, 88.588 91.366 C 90.832 93.494, 91.347 95.265, 91.100 100 C 90.849 104.810, 89.746 105.383, 80.621 105.444 C 75.207 105.479, 71.644 105.956, 70.850 106.750 C 70.162 107.437, 68.543 108, 67.250 108 C 59.307 108, 55.771 115.314, 56.616 130 C 56.885 134.675, 57.051 141.702, 56.985 145.615 C 56.881 151.757, 57.181 153.077, 59.182 155.265 L 61.500 157.799 93.500 156.918 C 111.100 156.434, 127.368 156.298, 129.651 156.617 C 139.341 157.971, 141 155.054, 141 136.664 C 141 127.845, 140.503 121.558, 139.552 118.365 C 138.756 115.689, 137.868 112.345, 137.579 110.933 C 136.843 107.337, 134.144 106.386, 121 105.095 C 110.677 104.081, 109.270 103.706, 107.250 101.427 C 104.351 98.156, 104.414 96.495, 107.554 93.356 C 110.107 90.802, 110.108 90.802, 123.304 91.440 C 139.283 92.212, 153.260 92.092, 154.167 91.175 C 154.534 90.804, 155.060 89.022, 155.336 87.215 C 155.739 84.572, 155.314 83.441, 153.168 81.433 C 149.704 78.193, 147.470 77.688, 139.268 78.287 C 135.546 78.559, 130.230 78.375, 127.456 77.878 C 124.681 77.381, 118.521 76.833, 113.766 76.660 C 108.769 76.478, 104.484 75.817, 103.613 75.094 C 102.784 74.406, 101.335 71.740, 100.393 69.171 C 97.786 62.063, 94.709 60.291, 91.152 63.848 M 81.416 120.579 C 76.420 121.224, 71.406 122.248, 70.273 122.854 C 67.806 124.174, 66.828 130.875, 68.614 134.214 C 69.258 135.416, 69.573 136.950, 69.314 137.623 C 68.632 139.400, 72.218 140.984, 76.655 140.865 C 78.770 140.809, 84.100 141.304, 88.500 141.965 C 94.147 142.814, 99 142.890, 105 142.221 C 109.675 141.700, 115.636 141.269, 118.246 141.263 C 124.160 141.249, 125.606 140.067, 127.497 133.699 C 129.752 126.105, 129.488 123.697, 126.250 122.313 C 120.393 119.809, 115.442 119.013, 111.951 120.014 C 107.820 121.199, 96.047 121.315, 92.815 120.203 C 91.542 119.765, 86.412 119.934, 81.416 120.579" stroke="none" fill="black" fill-rule="evenodd"/>
</svg>