<svg xmlns="http://www.w3.org/2000/svg" width="256" height="256" viewBox="0 0 256 256" version="1.1">
	<path d="M 71.073 28.728 C 69.383 30.778, 68 33.169, 68 34.041 C 68 34.913, 66.620 36.948, 64.933 38.563 C 63.245 40.178, 60.257 43.975, 58.293 47 C 56.328 50.025, 52.584 54.750, 49.973 57.500 C 42.240 65.644, 39.848 70.239, 40.200 76.277 C 40.495 81.347, 40.564 81.449, 44.300 82.328 C 49.146 83.468, 50.576 85.738, 52.591 95.480 C 54.005 102.317, 54.060 104.798, 53.001 113.993 C 51.782 124.577, 52.713 135.086, 54.994 136.496 C 55.467 136.789, 56.406 138.709, 57.080 140.764 C 57.755 142.819, 59.129 145.082, 60.134 145.793 C 72.970 154.876, 93.728 157.900, 127.573 155.619 C 139.265 154.830, 141.061 154.457, 144.573 152.087 C 146.733 150.630, 148.944 148.439, 149.487 147.219 C 150.030 145.998, 150.818 145, 151.237 145 C 151.657 145, 152 144.209, 152 143.242 C 152 142.275, 153.078 139.458, 154.396 136.982 C 156.746 132.568, 157.346 130.302, 157.115 126.699 C 156.872 122.895, 143.697 120.251, 141.025 123.470 C 140.200 124.464, 140.026 126.554, 140.488 129.912 C 140.864 132.647, 140.892 135.766, 140.549 136.845 C 139.047 141.578, 129.308 143.289, 103.500 143.354 C 89.631 143.389, 86.494 143.090, 79.944 141.109 C 72.601 138.888, 72.331 138.693, 70.337 134.162 C 66.827 126.188, 65.444 120.324, 65.894 115.321 C 66.165 112.306, 69.202 111, 75.946 111 C 79.687 111, 84.592 110.350, 86.845 109.555 C 92.135 107.688, 96.770 107.411, 105.876 108.415 C 109.933 108.862, 119.608 109.341, 127.376 109.479 C 138.837 109.682, 141.830 109.442, 143.250 108.209 C 144.797 106.866, 145 104.576, 145 88.460 C 145 70.647, 144.949 70.197, 142.750 68.795 C 140.363 67.273, 126.137 64.173, 119.601 63.752 C 112.661 63.304, 112.195 58.254, 118.478 51.592 C 121.253 48.649, 122 47.040, 122 44 C 122 37.860, 117.813 35.152, 110.247 36.400 C 95.621 38.812, 89.029 37.890, 86.543 33.082 C 84.521 29.173, 79.334 25, 76.496 25 C 74.999 25, 73.030 26.353, 71.073 28.728 M 78.292 49.034 C 71.798 50.444, 63.280 59.995, 64.430 64.575 C 65.036 66.991, 65.414 67.156, 69.293 66.704 C 76.718 65.839, 95.418 61.892, 98 60.645 C 100.770 59.307, 101.897 54.785, 100.023 52.527 C 97.982 50.069, 83.929 47.809, 78.292 49.034 M 78 78.491 C 65.707 80.394, 65.775 80.347, 64.519 87.766 C 64.180 89.765, 64.565 92.191, 65.509 94.016 C 66.808 96.530, 67.638 96.995, 70.776 96.968 C 72.824 96.951, 75.374 96.276, 76.441 95.468 C 77.579 94.607, 80.569 94, 83.668 94 C 89.860 94, 91.595 92.232, 92.601 84.896 C 93.555 77.934, 90.435 76.565, 78 78.491 M 114.958 78.645 C 110.542 79.422, 106.864 83.153, 106.466 87.258 C 105.897 93.131, 107.512 94, 118.990 94 C 124.405 94, 129.548 93.727, 130.418 93.393 C 131.580 92.947, 132 91.405, 132 87.584 C 132 80.222, 130.566 78.697, 123.384 78.423 C 120.148 78.299, 116.356 78.399, 114.958 78.645 M 32.500 89.383 C 31.149 90.384, 30.827 91.198, 31.508 91.891 C 32.895 93.302, 35.278 91.653, 34.848 89.580 C 34.536 88.075, 34.291 88.055, 32.500 89.383" stroke="none" fill="black" fill-rule="evenodd"/>
</svg>