<svg xmlns="http://www.w3.org/2000/svg" width="256" height="256" viewBox="0 0 256 256" version="1.1">
	<path d="M 73.819 25.750 C 73.629 26.163, 71.763 28.075, 69.674 30 L 65.876 33.500 53.549 33.500 C 42.832 33.500, 40.946 33.749, 39.111 35.405 C 36.577 37.692, 36.402 40.259, 38.653 42.128 C 40.227 43.434, 43.021 43.849, 61.500 45.525 C 66.618 45.989, 70.684 46.963, 72.787 48.230 C 76.687 50.578, 81.750 50.039, 84.518 46.980 C 85.503 45.891, 87.253 44.993, 88.405 44.985 C 89.593 44.976, 90.042 44.651, 89.443 44.235 C 88.084 43.290, 86.327 38.556, 85.509 33.638 C 84.698 28.757, 81.053 25, 77.129 25 C 75.500 25, 74.010 25.337, 73.819 25.750 M 110.227 27.554 C 107.097 29.746, 105.944 32.323, 104.947 39.354 C 102.843 54.193, 111.212 59.702, 119.500 48.933 C 123.050 44.320, 125.416 43.467, 130.634 44.915 C 138.460 47.088, 152.959 45.245, 155.145 41.800 C 156.567 39.558, 156.078 36.380, 154.024 34.522 C 151.963 32.656, 150.153 32.661, 130.920 34.588 C 124.805 35.200, 124.201 35.079, 122.389 32.873 C 117.552 26.987, 113.541 25.233, 110.227 27.554 M 59.034 55.966 C 57.953 57.047, 55.964 60.085, 54.614 62.716 C 53.265 65.347, 49.895 69.891, 47.127 72.813 C 44.359 75.736, 41.808 79.030, 41.457 80.135 C 40.621 82.770, 43.305 85.694, 47.354 86.559 C 49.084 86.928, 51.051 87.674, 51.724 88.216 C 53.003 89.246, 53.178 90.070, 55.115 104.202 C 55.971 110.446, 56.759 113.084, 57.904 113.541 C 60.699 114.657, 64.022 115.069, 63.794 114.271 C 63.674 113.847, 64.137 112.487, 64.823 111.250 C 65.726 109.621, 66.984 109, 69.380 109 C 73.323 109, 76.837 112.083, 74.775 113.734 C 72.889 115.244, 69.592 116.094, 64.010 116.510 C 60.496 116.772, 57.707 117.793, 54.518 119.987 C 49.165 123.670, 47.172 127.112, 46.929 133.096 C 46.694 138.867, 50.476 152.110, 52.744 153.457 C 57.228 156.121, 97.391 158.455, 115.727 157.118 C 127.607 156.251, 130.658 156.321, 134.111 157.539 C 139.179 159.327, 141.111 159.371, 143.333 157.746 C 144.829 156.652, 145.069 154.241, 145.211 138.823 C 145.381 120.366, 145.063 118.790, 140.910 117.471 C 139.148 116.912, 138.057 114.764, 139.750 115.188 C 141.048 115.513, 149.420 113.810, 151.250 112.849 C 155.789 110.465, 151.858 106.695, 141.355 103.360 C 133.489 100.862, 131.429 99.437, 132.929 97.534 C 133.377 96.965, 134.051 93.262, 134.427 89.305 C 135.153 81.662, 135.246 81.891, 129.480 77.125 C 127.405 75.409, 118.949 75.476, 117.845 77.217 C 117.323 78.039, 117.025 78.093, 117.015 77.367 C 117.007 76.743, 116.100 75.998, 115 75.710 C 112.536 75.066, 112.357 73.041, 114.750 72.888 C 115.713 72.826, 120.325 72.814, 125 72.861 C 134.811 72.958, 139.637 71.718, 140.542 68.867 C 141.653 65.368, 138.607 63.319, 131.208 62.586 C 122.541 61.728, 113.894 59.773, 107.014 57.118 C 103.997 55.953, 100.880 55, 100.087 55 C 99.295 55, 96.304 56.613, 93.441 58.585 L 88.236 62.170 80.386 60.851 C 74.416 59.848, 71.782 58.870, 69.386 56.766 C 65.686 53.517, 61.784 53.216, 59.034 55.966 M 65.667 69.667 C 64.452 70.882, 64.976 75.119, 66.534 76.677 C 67.668 77.811, 69.038 78.023, 71.784 77.492 C 73.828 77.096, 79.100 76.690, 83.500 76.588 C 91.719 76.397, 96 75.460, 96 73.852 C 96 73.349, 95.339 72.684, 94.531 72.374 C 92.763 71.695, 83.286 71.597, 80.536 72.229 C 79.456 72.477, 77.684 71.852, 76.598 70.840 C 74.652 69.027, 67.115 68.218, 65.667 69.667 M 66.872 85.900 C 67.626 86.378, 68.040 87.379, 67.792 88.125 C 67.288 89.636, 69.238 92, 70.988 92 C 71.609 92, 71.840 92.450, 71.500 93 C 71.160 93.550, 71.778 94, 72.874 94 C 73.987 94, 75.145 93.118, 75.500 92 C 75.849 90.900, 76.534 90, 77.022 90 C 77.510 90, 76.784 88.875, 75.409 87.500 C 73.633 85.724, 71.836 85.004, 69.205 85.015 C 66.717 85.026, 65.951 85.316, 66.872 85.900 M 113.813 85.683 C 114.534 85.972, 115.397 85.936, 115.729 85.604 C 116.061 85.272, 115.471 85.036, 114.417 85.079 C 113.252 85.127, 113.015 85.364, 113.813 85.683 M 115.813 89.683 C 116.534 89.972, 117.397 89.936, 117.729 89.604 C 118.061 89.272, 117.471 89.036, 116.417 89.079 C 115.252 89.127, 115.015 89.364, 115.813 89.683 M 68.096 99.250 C 67.337 101.284, 67.589 101.530, 70.720 101.816 C 73.166 102.039, 74.571 101.601, 75.503 100.327 C 77.306 97.861, 76.506 97, 72.409 97 C 69.722 97, 68.745 97.510, 68.096 99.250 M 93.250 111.993 C 90.862 112.993, 90.170 116.770, 92.033 118.633 C 95.453 122.053, 86.842 126.726, 76.750 126.926 C 74.280 126.975, 73 127.467, 73 128.368 C 73 129.363, 75.069 129.870, 80.577 130.223 C 88.584 130.737, 91.609 132.373, 92.429 136.633 C 92.920 139.182, 89.550 141.261, 82.090 143.009 C 76.909 144.222, 76.782 144.329, 79.090 145.518 C 84.692 148.405, 118.257 148.060, 126.442 145.032 C 128.305 144.343, 128.233 144.175, 125.478 142.791 C 123.840 141.967, 119.834 141.201, 116.575 141.089 C 110.740 140.886, 107.780 139.922, 105.263 137.406 C 104.226 136.369, 104.420 135.623, 106.294 133.445 C 108.384 131.015, 109.306 130.747, 116.051 130.605 C 128.571 130.341, 129.160 127.222, 116.718 127.070 C 110.072 126.990, 104.629 125.043, 103.110 122.205 C 102.238 120.575, 102.556 119.829, 104.985 117.817 C 107.733 115.540, 108.565 115.409, 118.705 115.644 C 124.642 115.781, 131.412 116.185, 133.750 116.540 C 136.479 116.955, 138 116.808, 138 116.128 C 138 113.558, 133.068 112.678, 117.520 112.471 C 108.709 112.354, 100.150 111.986, 98.500 111.654 C 96.850 111.323, 94.487 111.475, 93.250 111.993 M 63 141.005 L 60.500 141.695 63 142.211 C 65.332 142.693, 65.349 142.737, 63.250 142.864 C 58.981 143.122, 61.011 145, 65.559 145 C 68.344 145, 69.878 144.611, 69.500 144 C 69.160 143.450, 68.207 143, 67.382 143 C 66.557 143, 66.141 142.581, 66.457 142.069 C 67.313 140.684, 65.824 140.226, 63 141.005" stroke="none" fill="black" fill-rule="evenodd"/>
</svg>