<svg xmlns="http://www.w3.org/2000/svg" width="256" height="256" viewBox="0 0 256 256" version="1.1">
	<path d="M 69.733 30.750 C 68.866 31.712, 67.855 33.704, 67.488 35.176 C 66.217 40.271, 63.869 41.313, 52.220 41.952 C 40.453 42.598, 37.360 43.719, 36.360 47.700 C 35.830 49.815, 36.255 50.822, 38.486 52.741 C 40.824 54.752, 42.059 55.066, 46.126 54.685 C 48.795 54.434, 54.233 54.587, 58.212 55.023 C 64.255 55.687, 65.821 56.253, 67.723 58.464 C 70.519 61.715, 70.747 68.944, 68.202 73.642 C 60.059 88.672, 56.421 93.818, 50.275 99 C 42.438 105.606, 36.494 113.226, 35.452 118 C 34.139 124.017, 34.086 128.992, 35.335 129.118 C 38.369 129.427, 40.019 128.266, 47.034 120.888 C 53.810 113.760, 54.751 113.097, 56.391 114.297 C 59.544 116.602, 60.824 124.381, 60.533 139.480 C 60.386 147.170, 60.717 154.820, 61.271 156.480 C 63.421 162.934, 69.044 166.062, 72.029 162.465 C 73.878 160.237, 74.867 146.058, 73.831 136.630 C 73.340 132.159, 72.719 124.900, 72.451 120.500 C 72.184 116.100, 71.512 110.475, 70.958 108 C 70.404 105.525, 69.749 102.415, 69.502 101.088 C 68.861 97.651, 70.946 90.169, 73.657 86.174 C 76.052 82.644, 77.985 76.992, 77.994 73.486 C 78.002 70.913, 81.412 61.546, 83.504 58.353 C 84.387 57.006, 86.529 55.041, 88.264 53.986 C 94.052 50.466, 96.263 50.558, 104.979 54.681 C 111.608 57.816, 113.159 58.990, 113.648 61.236 C 114.636 65.771, 118.505 69.175, 122.260 68.813 C 124.875 68.560, 125.553 68.018, 125.774 66 C 126.519 59.186, 128.236 55.158, 130.653 54.551 C 131.994 54.214, 133.529 54.209, 134.063 54.539 C 134.598 54.869, 138.140 55.130, 141.935 55.118 C 152.613 55.084, 158.882 51.652, 157.600 46.542 C 156.500 42.162, 153.799 41.552, 141.806 42.978 C 132.220 44.118, 130.776 44.083, 128.597 42.656 C 127.252 41.774, 125.862 40.029, 125.507 38.777 C 123.918 33.164, 121.559 30, 118.964 30 C 115.596 30, 113.221 31.902, 112.821 34.920 C 112.478 37.506, 109.601 39.482, 101.935 42.395 C 97.404 44.118, 97.310 44.110, 88.992 41.288 C 81.100 38.612, 80.561 38.245, 79.717 34.973 C 79.223 33.063, 78.355 30.938, 77.787 30.250 C 76.283 28.428, 71.561 28.721, 69.733 30.750 M 102.195 75.489 C 98.879 78.279, 97.891 81.508, 99.256 85.091 C 99.761 86.416, 100.328 89.075, 100.517 91 C 100.705 92.925, 101.397 98.775, 102.054 104 C 102.711 109.225, 103.342 117.100, 103.457 121.500 C 103.669 129.600, 106.799 142.810, 109.216 145.803 C 111.568 148.716, 118.201 154.482, 120.813 155.884 C 125.135 158.205, 135.252 160.182, 139.780 159.590 C 145.320 158.865, 153.267 155.428, 155.777 152.669 C 157.485 150.793, 157.735 149.165, 157.626 140.610 C 157.521 132.366, 157.209 130.536, 155.750 129.615 C 153.008 127.884, 150.864 129.939, 148.525 136.542 C 146.454 142.389, 146.390 142.452, 140.694 144.185 C 135.355 145.811, 134.460 145.823, 127.944 144.351 C 118.501 142.219, 116.838 140.725, 116.356 133.936 C 116.143 130.946, 115.454 124.789, 114.824 120.252 C 113.498 110.705, 114.713 105.073, 118.656 102.490 C 119.945 101.645, 121 101.364, 121 101.866 C 121 103.266, 127.609 104.193, 136.878 104.093 C 146.011 103.994, 152.198 102.609, 155.835 99.850 L 158.170 98.079 155.732 95.641 C 151.277 91.186, 136.182 89.955, 124.071 93.059 C 120.934 93.863, 120.347 93.635, 117.196 90.390 C 114.043 87.144, 113.801 86.470, 114.347 82.486 C 114.891 78.516, 114.674 77.903, 111.895 75.565 C 108.077 72.353, 105.943 72.336, 102.195 75.489" stroke="none" fill="black" fill-rule="evenodd"/>
</svg>