<svg xmlns="http://www.w3.org/2000/svg" width="256" height="256" viewBox="0 0 256 256" version="1.1">
	<path d="M 53.340 32.873 C 44.291 40.115, 41 44.814, 41 50.494 C 41 53.371, 43.443 56, 46.117 56 C 47.203 56, 49.160 54.931, 50.467 53.624 C 56.040 48.051, 58.778 46.793, 64.282 47.279 C 70.457 47.823, 82.200 51.050, 83.208 52.479 C 85.438 55.640, 79.764 63.694, 76.121 62.539 C 74.955 62.168, 74 61.449, 74 60.940 C 74 59.068, 69.576 55.001, 67.570 55.028 C 66.431 55.044, 62.810 56.844, 59.521 59.028 C 55.758 61.529, 52.388 63, 50.426 63 C 46.462 63, 43.744 65.897, 44.175 69.662 C 44.488 72.393, 44.729 72.511, 50.545 72.792 C 57.334 73.121, 61.196 75.538, 62.341 80.178 C 62.952 82.653, 61.250 85.831, 59.179 86.082 C 58.805 86.127, 57.347 86.356, 55.939 86.591 C 54.530 86.826, 51.310 86.396, 48.783 85.635 C 44.838 84.448, 43.770 84.455, 41.227 85.687 C 38.372 87.070, 36 90.604, 36 93.476 C 36 94.367, 38.042 95.240, 41.750 95.934 C 53.555 98.142, 54.409 98.455, 55.901 101.123 C 57.207 103.459, 57.181 104.237, 55.665 108.207 C 54.168 112.126, 53.246 112.997, 48.053 115.395 C 40.697 118.790, 39.652 119.954, 40.934 123.326 C 42.613 127.743, 45.934 129.127, 54.059 128.796 C 61.230 128.504, 61.343 128.457, 62.414 125.330 C 63.999 120.704, 68.475 116.050, 70.765 116.649 C 73.440 117.348, 76.314 122.613, 75.592 125.490 C 75.216 126.986, 72.828 129.175, 69.095 131.442 C 63.690 134.726, 63.093 135.444, 62.006 139.975 C 61.231 143.205, 60.183 145.125, 58.987 145.504 C 57.980 145.824, 55.536 147.878, 53.557 150.069 C 50.463 153.494, 50.116 154.348, 51.083 156.155 C 52.091 158.039, 52.854 158.205, 58.444 157.757 C 65.429 157.196, 69.039 155.290, 71.911 150.647 C 72.981 148.916, 76.412 145.296, 79.533 142.602 C 85.713 137.269, 88.990 132.692, 88.996 129.385 C 89.002 126.006, 92.756 122, 95.918 122 C 100.832 122, 103.336 126.636, 100.890 131.205 C 98.066 136.483, 98.035 138.888, 100.749 142.114 C 103.213 145.042, 103.677 145.191, 108.930 144.755 C 112.255 144.479, 116.609 144.893, 119.734 145.781 C 124.207 147.053, 125.338 147.902, 127.515 151.616 C 130.157 156.124, 133.295 158.554, 135.063 157.461 C 135.625 157.114, 136.793 155.060, 137.658 152.896 C 139.966 147.129, 143.195 145, 149.635 145 C 153.667 145, 155.497 144.503, 157 143 C 158.100 141.900, 159 140.550, 159 140 C 159 139.450, 158.100 138.100, 157 137 C 155.481 135.481, 153.667 135, 149.450 135 C 146.398 135, 142.589 134.322, 140.986 133.493 C 138.331 132.120, 138.108 131.605, 138.490 127.743 C 139.129 121.285, 141.638 119.745, 150.150 120.583 C 156.695 121.228, 157.006 121.160, 157.874 118.878 C 159.078 115.712, 156.856 113.228, 152.113 112.436 C 146.732 111.539, 139.701 109.179, 137.212 107.436 L 135.013 105.896 137.646 103.263 C 140.022 100.887, 141.081 100.612, 148.532 100.441 C 157.565 100.232, 158.745 99.840, 159.952 96.648 C 161.769 91.840, 155.644 87.037, 148.593 87.741 C 145.792 88.020, 143.188 87.620, 141.358 86.629 C 139.786 85.777, 139.048 85.062, 139.719 85.040 C 140.389 85.018, 140.677 84.322, 140.359 83.492 C 140.040 82.663, 140.499 80.887, 141.379 79.545 C 142.682 77.556, 143.950 77.049, 148.239 76.803 C 152.752 76.543, 153.544 76.193, 153.807 74.343 C 154.151 71.929, 153.597 71.352, 146.500 66.746 C 143.156 64.575, 140.755 62.022, 139.250 59.038 C 135.824 52.244, 136.203 50.542, 141.750 47.826 C 147.032 45.240, 148.238 42.431, 145.235 39.712 C 143.897 38.502, 139.917 37.707, 130.940 36.858 C 117.192 35.558, 118.546 35.587, 93.888 36.067 C 77.701 36.383, 76.052 36.252, 73.512 34.455 C 66.836 29.731, 65.293 29.010, 61.840 29.005 C 59.085 29.001, 56.983 29.958, 53.340 32.873 M 94.750 50.080 C 92.959 51.123, 92.406 54.073, 93.750 55.417 C 94.162 55.829, 94.538 56.467, 94.584 56.833 C 94.630 57.200, 95.193 58.769, 95.835 60.319 C 97.471 64.267, 100.599 63.534, 103.601 58.500 C 107.072 52.679, 107.272 52.152, 106.638 50.500 C 105.963 48.740, 97.560 48.443, 94.750 50.080 M 112.169 49.689 C 111.198 50.077, 111.554 50.969, 113.481 52.980 C 114.935 54.498, 116.884 57.260, 117.812 59.117 C 119.640 62.775, 122.158 63.881, 123.935 61.806 C 127.007 58.217, 131.077 50.934, 130.517 50.028 C 129.872 48.984, 114.640 48.703, 112.169 49.689 M 74.077 79.626 C 72.176 81.813, 71.975 82.649, 72.876 84.626 C 73.709 86.455, 74.747 87, 77.397 87 C 83.015 87, 83.946 86.298, 82.947 82.815 C 82.084 79.806, 79.496 77.093, 77.430 77.032 C 76.842 77.014, 75.333 78.182, 74.077 79.626 M 97.798 79.314 C 93.840 82.676, 93.572 85.727, 97.075 87.539 C 99.601 88.845, 100.410 88.855, 103.368 87.620 C 106.259 86.412, 106.687 85.814, 106.261 83.584 C 105.985 82.144, 104.548 80.102, 103.066 79.047 C 100.392 77.143, 100.352 77.145, 97.798 79.314 M 119 80 C 119 80.550, 118.394 81, 117.654 81 C 116.819 81, 116.362 82.042, 116.450 83.750 C 116.571 86.102, 117.075 86.547, 119.934 86.824 C 125.137 87.328, 128 86.269, 128 83.841 C 128 82.675, 127.213 81.123, 126.250 80.392 C 124.195 78.832, 119 78.551, 119 80 M 70.608 102.880 C 68.074 105.680, 69.132 110, 72.352 110 C 73.625 110, 74.984 109.683, 75.371 109.296 C 76.848 107.819, 81.402 107.963, 84.841 109.595 C 90.222 112.148, 95.784 112.413, 102.500 110.436 C 108.767 108.592, 113 108.021, 113 109.021 C 113 110.106, 120.983 110.093, 122.249 109.006 C 122.937 108.415, 124.400 107.302, 125.500 106.532 C 127.397 105.204, 127.247 105.019, 122.603 102.954 C 118.446 101.105, 117.163 100.942, 114.103 101.869 C 110.219 103.046, 80.704 102.813, 75.477 101.563 C 73.109 100.997, 72.054 101.283, 70.608 102.880 M 115.898 121.881 C 114.086 123.349, 113.632 124.603, 113.833 127.583 C 113.974 129.684, 114.575 131.988, 115.167 132.702 C 116.496 134.303, 120.399 134.381, 123.316 132.865 C 126.340 131.293, 126.201 131.530, 126.721 127.029 C 127.167 123.168, 127.021 122.907, 123.627 121.488 C 119.092 119.594, 118.698 119.614, 115.898 121.881" stroke="none" fill="black" fill-rule="evenodd"/>
</svg>