<svg xmlns="http://www.w3.org/2000/svg" width="256" height="256" viewBox="0 0 256 256" version="1.1">
	<path d="M 61.475 33.902 C 59.538 36.598, 57.203 39.092, 56.286 39.444 C 55.369 39.796, 51.630 39.789, 47.978 39.429 C 38.382 38.484, 32.525 41.993, 34.614 47.436 C 35.641 50.113, 39.353 51, 49.532 51 L 58.933 51 64 55.500 C 70.084 60.904, 72.933 61.225, 76.764 56.939 C 78.717 54.754, 81.933 53.080, 88 51.088 C 95.914 48.491, 96.810 48.391, 101 49.638 C 103.475 50.375, 106.758 50.983, 108.294 50.989 C 109.831 50.995, 114.024 51.737, 117.611 52.638 C 122.912 53.970, 124.859 54.059, 128.010 53.115 C 130.142 52.477, 136.299 51.682, 141.693 51.349 C 148.833 50.909, 152.384 50.213, 154.750 48.791 C 158.663 46.438, 158.931 43.656, 155.461 41.383 C 153.331 39.987, 151.356 39.827, 143.183 40.390 C 134.204 41.009, 133.269 40.899, 131.221 38.992 C 130 37.853, 129 35.891, 129 34.630 C 129 31.765, 125.090 29.510, 121.629 30.378 C 120.240 30.727, 118.514 32.247, 117.793 33.756 C 116.614 36.226, 115.835 36.555, 109.992 37.055 C 106.421 37.360, 102.289 38.208, 100.809 38.939 C 98.748 39.956, 97.110 40.021, 93.809 39.217 C 91.439 38.639, 86.191 38.418, 82.147 38.725 C 74.306 39.321, 73.047 38.725, 73.015 34.405 C 73.007 33.253, 72.177 31.565, 71.171 30.655 C 67.935 27.727, 65.270 28.619, 61.475 33.902 M 92.439 68.453 C 90.968 70.697, 90.966 71.370, 92.409 76.334 C 94.535 83.647, 95.812 96.291, 94.716 99.171 C 94.229 100.452, 93.849 105.775, 93.871 111 C 93.894 116.225, 93.578 122.300, 93.170 124.500 C 92.762 126.700, 92.830 130.886, 93.322 133.802 C 94.700 141.967, 93.618 142.682, 80.046 142.580 C 73.401 142.529, 68.656 142.056, 67.976 141.376 C 67.155 140.555, 67.147 139.167, 67.945 136.205 C 69.200 131.544, 69.502 116.894, 68.433 112.488 C 68.034 110.844, 66.874 108.306, 65.854 106.846 C 63.768 103.859, 63.537 101.347, 64.998 97.506 C 66.693 93.047, 66.935 88.191, 65.520 87.017 C 61.617 83.778, 57.617 86.039, 54.695 93.135 C 53.340 96.425, 53.355 96.927, 54.849 98.432 C 56.295 99.888, 56.460 102.540, 56.175 119.797 C 55.907 136.027, 55.571 139.808, 54.270 141.250 C 52.573 143.129, 48.403 143.541, 46.063 142.060 C 43.790 140.622, 37.507 144.361, 35.973 148.066 C 33.723 153.497, 35.250 154.482, 46.118 154.613 C 51.278 154.676, 57.975 154.815, 61 154.923 C 64.025 155.031, 76.625 155.132, 89 155.148 C 101.375 155.163, 117.350 155.474, 124.500 155.838 C 145.314 156.898, 153 155.129, 153 149.279 C 153 142.448, 149.067 140.627, 138.351 142.497 C 130.543 143.859, 111.322 143.872, 107.053 142.517 C 104.924 141.841, 104.894 141.564, 105.470 127.682 C 106.161 111.022, 107.365 107.551, 113.500 104.530 C 116.705 102.952, 119.721 102.541, 128.681 102.460 C 140.344 102.355, 142.314 101.731, 143.337 97.818 C 143.730 96.315, 143.035 94.901, 140.943 92.947 C 137.650 89.871, 133.055 88.969, 119.179 88.676 C 112.365 88.532, 110.611 88.164, 109.493 86.647 C 108.488 85.282, 108.390 84.105, 109.120 82.186 C 111.034 77.149, 107.728 71.943, 100.166 68.085 C 94.984 65.441, 94.394 65.469, 92.439 68.453" stroke="none" fill="black" fill-rule="evenodd"/>
</svg>