<svg xmlns="http://www.w3.org/2000/svg" width="256" height="256" viewBox="0 0 256 256" version="1.1">
	<path d="M 62.173 29.906 C 60.703 31.504, 58.453 34.204, 57.174 35.906 C 54.949 38.865, 54.533 39, 47.613 39 C 39.195 39, 35.646 41.124, 36.193 45.835 C 36.695 50.163, 40.856 51.525, 49.083 50.055 C 56.867 48.663, 58.050 49.048, 64.728 55.142 C 67.053 57.264, 69.552 59, 70.281 59 C 71.010 59, 73.429 57.659, 75.657 56.021 C 77.885 54.382, 82.137 52.527, 85.104 51.899 C 88.072 51.271, 91.745 50.121, 93.268 49.344 C 95.725 48.089, 96.772 48.158, 102.616 49.963 C 106.236 51.081, 109.542 51.783, 109.962 51.523 C 110.383 51.263, 113.918 51.716, 117.817 52.529 C 124.592 53.942, 125.143 53.912, 130.204 51.864 C 133.913 50.363, 137.898 49.679, 143.500 49.581 C 154.105 49.396, 158.542 46.750, 156.051 42.095 C 154.097 38.444, 151.885 37.606, 143.659 37.399 C 139.172 37.287, 135.260 37.151, 134.966 37.097 C 134.672 37.044, 133.618 35.623, 132.624 33.940 C 129.649 28.904, 126.515 28.381, 120.760 31.959 C 117.020 34.284, 114.696 35, 110.894 35 C 107.867 35, 104.361 35.796, 101.936 37.033 C 98.430 38.821, 97.467 38.921, 93.925 37.859 C 90.753 36.909, 88.548 36.922, 83.529 37.919 C 75.473 39.521, 73.432 38.866, 71.935 34.202 C 70.549 29.883, 68.281 27, 66.268 27 C 65.486 27, 63.643 28.308, 62.173 29.906 M 91.190 61.861 C 90.469 62.318, 89.299 64.674, 88.589 67.096 C 87.070 72.276, 84.481 73.962, 78 73.991 C 70.603 74.024, 66.114 75.697, 65.361 78.700 C 64.520 82.049, 65.754 83.952, 70.596 86.779 C 74.502 89.058, 74.909 89.077, 84.341 87.409 C 87.330 86.881, 87.809 87.125, 88.886 89.725 C 89.724 91.747, 89.791 93.420, 89.107 95.219 C 87.740 98.813, 86.504 99.322, 82.417 97.973 C 79.373 96.968, 78.039 97.116, 72.941 99.022 C 68.104 100.831, 65.853 101.122, 60.754 100.595 C 41.367 98.593, 42.333 98.562, 40.574 101.246 C 39.185 103.366, 39.137 104.261, 40.229 107.607 L 41.500 111.500 49 112.119 C 53.125 112.460, 61.592 112.797, 67.816 112.869 C 80.217 113.013, 83 113.852, 83 117.450 C 83 119.198, 81.367 121.058, 76.859 124.447 C 73.424 127.029, 69.884 130.702, 68.825 132.782 C 66.634 137.087, 59.089 143.347, 51.719 146.976 C 48.899 148.364, 45.681 150.758, 44.567 152.296 C 42.703 154.868, 42.662 155.308, 44.052 157.796 C 46.057 161.384, 49.455 161.668, 57.785 158.943 C 64.772 156.657, 68.007 153.932, 78.341 141.627 C 87.439 130.792, 88.585 129.654, 91.702 128.351 C 96.130 126.501, 98.250 126.653, 100.770 129 C 101.950 130.100, 103.385 131, 103.958 131 C 104.531 131, 105 131.451, 105 132.003 C 105 135.458, 129.205 154.645, 137.786 157.991 C 141.545 159.457, 151.322 158.808, 153.569 156.943 C 156.588 154.437, 154.532 150, 150.351 150 C 148.938 150, 147.067 148.643, 145.320 146.352 C 143.789 144.346, 141.179 142.078, 139.519 141.312 C 137.858 140.546, 134.700 138.835, 132.500 137.511 C 130.300 136.186, 127.600 134.681, 126.500 134.166 C 125.400 133.651, 123.643 132.278, 122.595 131.115 C 121.547 129.952, 120.117 129, 119.416 129 C 117.343 129, 109 120.409, 109 118.275 C 109 113.405, 113.785 112.032, 136 110.528 C 141.225 110.175, 146.512 109.677, 147.750 109.424 C 151.325 108.690, 150.516 105.386, 145.952 102.080 C 142.045 99.250, 141.560 99.157, 131.928 99.400 C 126.441 99.538, 119.313 99.107, 116.088 98.443 C 112.863 97.778, 109.161 97.417, 107.862 97.641 C 104.804 98.167, 103.317 97.111, 102.493 93.827 C 101.654 90.486, 104.777 87.037, 108.750 86.917 C 110.263 86.871, 112.400 86.687, 113.500 86.508 C 114.600 86.329, 118.425 85.913, 122 85.582 C 129.494 84.890, 132.618 83.567, 133.347 80.780 C 134.133 77.774, 133.334 76.641, 128.609 74.059 C 125.220 72.208, 122.644 71.666, 116.883 71.593 C 112.822 71.542, 108.539 71.852, 107.364 72.281 C 104.815 73.213, 99 68.892, 99 66.066 C 99 62.519, 94.215 59.943, 91.190 61.861" stroke="none" fill="black" fill-rule="evenodd"/>
</svg>