<svg xmlns="http://www.w3.org/2000/svg" width="256" height="256" viewBox="0 0 256 256" version="1.1">
	<path d="M 48.500 32.879 C 46.300 33.888, 43.229 35.998, 41.676 37.567 C 39.057 40.213, 38.897 40.822, 39.471 45.960 C 39.811 49.007, 39.697 54.288, 39.218 57.695 C 38.539 62.515, 38.759 65.843, 40.206 72.695 C 43.395 87.787, 44.354 98.024, 42.953 102 C 41.738 105.448, 37.511 110.330, 35.023 111.159 C 32.291 112.070, 34.381 121.165, 37.606 122.402 C 38.334 122.682, 45.584 122.983, 53.715 123.071 C 61.847 123.159, 68.990 123.623, 69.588 124.103 C 71.186 125.385, 76.518 125.405, 85 124.162 C 89.125 123.557, 96.683 123.048, 101.795 123.031 C 110.314 123.003, 111.293 123.202, 113.508 125.417 C 115.607 127.516, 115.851 128.471, 115.360 132.667 C 114.604 139.138, 117.004 142.165, 125.286 145.185 C 128.697 146.428, 133.179 148.974, 135.246 150.842 C 140.379 155.479, 145.536 157.195, 149.488 155.583 C 152.769 154.244, 153.302 152.080, 151.355 148 C 149.546 144.208, 142.868 137.744, 138.444 135.500 C 136.275 134.400, 132.812 132.482, 130.750 131.237 C 127.505 129.279, 127.155 128.725, 128.155 127.124 C 129.348 125.213, 138.565 123.442, 151.301 122.676 C 160.584 122.118, 162.939 117.572, 157.828 110.076 C 156.198 107.686, 154.042 103.643, 153.036 101.092 C 151.269 96.609, 151.268 96.168, 153.013 87.960 C 154.464 81.128, 154.760 75.827, 154.525 60.862 C 154.197 40.020, 153.602 37.641, 147.949 34.605 C 142.430 31.641, 135.841 33.022, 130.444 38.274 C 125.605 42.983, 125.860 43.724, 133.483 47.096 C 143.062 51.333, 143.273 57.485, 133.999 62.112 C 129.274 64.470, 128.220 64.674, 126.511 63.563 C 123.645 61.701, 121.822 54.543, 122.597 48.194 C 123.170 43.499, 122.972 42.597, 120.872 40.353 C 117.335 36.571, 115.315 35.785, 108.080 35.374 C 104.461 35.169, 98.666 34.496, 95.201 33.878 C 88.326 32.652, 80.611 33.300, 75.210 35.557 C 70.118 37.684, 67.013 37.311, 62.100 33.982 C 57.031 30.547, 54.101 30.310, 48.500 32.879 M 53.455 48.455 C 48.990 52.920, 50.465 57.738, 56.581 58.665 C 58.736 58.992, 61.863 60.076, 63.530 61.075 C 65.196 62.073, 67.062 62.578, 67.676 62.195 C 69.702 60.934, 71.135 53.484, 69.950 50.368 C 68.509 46.578, 67.415 46.033, 61.205 46.015 C 56.903 46.003, 55.448 46.461, 53.455 48.455 M 83.388 48.431 C 82.541 50.639, 83.791 55.001, 85.269 54.993 C 85.946 54.990, 87.850 54.093, 89.500 53 C 91.150 51.907, 93.400 51.012, 94.500 51.010 C 96.827 51.007, 102.778 54.441, 105.117 57.137 C 108.568 61.112, 109.736 58.126, 107.192 51.836 C 105.868 48.560, 104.843 48.240, 93.246 47.471 C 85.376 46.949, 83.902 47.092, 83.388 48.431 M 104.707 63.606 C 102.678 65.748, 101.013 67.875, 101.009 68.333 C 101.004 68.792, 102.634 70.754, 104.631 72.693 C 106.629 74.633, 107.866 76.508, 107.381 76.860 C 106.897 77.212, 106.359 78.147, 106.188 78.937 C 105.734 81.023, 100.807 84.997, 98.673 84.999 C 97.239 85, 97.525 85.571, 100.009 87.661 C 104.172 91.164, 105.430 94.547, 103.924 98.184 C 102.939 100.561, 102.175 101, 99.025 101 C 94.971 101, 90 97.410, 90 94.482 C 90 92.332, 91.892 88.834, 94.007 87.076 C 95.575 85.772, 95.313 85.373, 90.884 82.326 C 85.693 78.756, 84.067 78.273, 83.884 80.250 C 83.644 82.842, 83.950 91.788, 84.547 99.675 C 85.273 109.244, 85.490 109.428, 94.898 108.420 C 100.556 107.815, 101.873 108.019, 105.663 110.089 C 109.600 112.240, 110.120 112.308, 111.562 110.866 C 113.489 108.939, 114.083 102.884, 112.800 98.239 C 112.162 95.928, 112.249 92.591, 113.066 88.021 C 114.129 82.069, 114.077 80.948, 112.639 78.895 C 111.738 77.608, 110.981 75.193, 110.958 73.527 C 110.934 71.862, 110.349 68.073, 109.656 65.106 L 108.397 59.713 104.707 63.606 M 83.117 63.643 C 81.691 66.771, 81.713 67.982, 83.250 71.293 C 84.720 74.457, 85.302 74.578, 87.989 72.278 C 90.809 69.863, 90.492 66.769, 87.117 63.762 L 84.233 61.192 83.117 63.643 M 127.018 68.989 C 125.719 69.792, 125.409 80.561, 126.578 84.245 C 127.173 86.121, 129.984 86.595, 131.550 85.083 C 132.072 84.578, 134.023 83.933, 135.884 83.649 C 137.745 83.365, 139.714 82.686, 140.259 82.141 C 141.657 80.743, 140.307 74.588, 138.181 72.664 C 135.665 70.386, 128.547 68.044, 127.018 68.989 M 63.960 72.287 C 56.612 75.134, 53 77.869, 53 80.586 C 53 81.951, 54.258 82.446, 60.326 83.472 C 63.502 84.009, 64.403 84.719, 65.628 87.653 C 67.597 92.365, 66.357 96.088, 62.438 97.234 C 56.292 99.031, 53.065 101.202, 53.286 103.388 C 53.585 106.337, 55.897 107.925, 60 108 C 61.925 108.035, 64.374 108.724, 65.441 109.532 C 66.509 110.339, 67.960 111, 68.665 111 C 70.717 111, 72.570 105.883, 72.285 101 C 72.141 98.525, 71.863 92.151, 71.668 86.835 C 71.305 76.940, 69.854 71.333, 67.658 71.333 C 66.977 71.333, 65.313 71.762, 63.960 72.287 M 125.241 94.986 C 124.558 96.079, 124 99.004, 124 101.486 C 124 109.252, 128.487 111.508, 137.211 108.129 C 139.578 107.212, 139.885 106.605, 139.628 103.346 C 139.446 101.041, 138.645 99.209, 137.533 98.557 C 136.542 97.975, 134.490 96.487, 132.972 95.250 C 129.563 92.472, 126.868 92.380, 125.241 94.986 M 71.057 130.943 C 70.264 131.445, 68.378 131.700, 66.868 131.509 C 65.139 131.290, 63.264 131.914, 61.810 133.192 C 55.540 138.705, 51.095 141.787, 47 143.462 C 33.571 148.953, 33.951 160.012, 47.500 158.003 C 55.003 156.891, 65.444 153.272, 67.408 151.102 C 68.363 150.046, 70.350 148.670, 71.822 148.044 C 74.929 146.722, 77.824 143.099, 78.973 139.095 C 79.613 136.862, 79.275 135.648, 77.316 133.145 C 74.748 129.863, 73.473 129.415, 71.057 130.943" stroke="none" fill="black" fill-rule="evenodd"/>
</svg>