<svg xmlns="http://www.w3.org/2000/svg" width="256" height="256" viewBox="0 0 256 256" version="1.1">
	<path d="M 114.297 31.650 C 108.041 40.878, 103.321 42.604, 89.900 40.575 C 78.044 38.781, 77.487 38.546, 75.582 34.531 C 74.132 31.475, 72.276 30, 69.881 30 C 69.355 30, 66.957 32.025, 64.552 34.500 L 60.178 39 49.839 39.004 C 41.297 39.007, 38.935 39.352, 36.250 40.989 C 32.418 43.325, 32.120 45.824, 35.314 48.826 C 37.346 50.734, 38.758 51, 46.864 51 C 56.943 51, 59.906 51.982, 65.252 57.091 C 70.589 62.191, 76.800 62.222, 79.416 57.163 C 81.635 52.872, 83.041 52.131, 91.278 50.905 C 98.316 49.859, 99.233 49.934, 103.283 51.895 C 105.695 53.062, 108.675 55.090, 109.906 56.400 C 112.038 58.670, 112.086 59.075, 110.917 65.015 C 110.209 68.617, 108.735 72.356, 107.426 73.874 C 105.324 76.311, 104.632 76.484, 97.830 76.283 C 87.454 75.976, 81.119 77.556, 79.903 80.756 C 78.775 83.723, 80.679 86.452, 84.555 87.425 C 88.491 88.412, 90.206 93.050, 89.504 100.807 C 89.171 104.488, 89.300 112.329, 89.790 118.230 C 90.639 128.453, 90.939 129.470, 96.118 139.730 C 103.491 154.335, 103.266 154.228, 125.500 153.689 C 134.850 153.462, 144.217 152.735, 146.315 152.073 C 154.237 149.575, 155.780 144.294, 149.468 141.283 C 146.756 139.990, 144.579 139.885, 136.442 140.657 C 124.977 141.745, 112.862 140.689, 108.669 138.237 C 103.762 135.367, 102.778 130.852, 102.631 110.522 L 102.500 92.544 105.373 91.159 C 113.648 87.167, 128.762 86.031, 140.500 88.517 C 151.259 90.796, 155.446 90.520, 157.927 87.365 C 160.268 84.390, 160.497 82.230, 158.718 79.913 C 156.157 76.578, 152.898 75.806, 141.881 75.927 C 129.098 76.067, 125.603 74.844, 124.193 69.737 C 122.641 64.117, 123.990 55.082, 126.719 52.819 C 127.795 51.927, 131.575 51.485, 138.405 51.455 C 150.259 51.402, 154.327 49.987, 154.816 45.743 C 155.369 40.951, 150.296 40.190, 133.709 42.579 C 128.313 43.356, 127.017 42.388, 124.905 36 C 122.500 28.727, 117.632 26.731, 114.297 31.650 M 48.329 69.458 C 46.585 70.216, 44.606 71.867, 43.933 73.125 C 42.896 75.062, 42.977 75.574, 44.458 76.457 C 47.176 78.078, 54.255 82.764, 56.760 84.600 C 58.944 86.202, 59.139 86.132, 62.510 82.558 C 64.430 80.523, 66 77.960, 66 76.863 C 66 69.800, 56.598 65.861, 48.329 69.458 M 43.411 91.181 C 40.092 92.070, 38.002 93.865, 36.896 96.774 C 35.726 99.850, 37.065 102.259, 41.452 104.970 C 48.519 109.338, 55.010 109.719, 57.061 105.886 C 58.256 103.654, 57.267 94.748, 55.567 92.423 C 54.295 90.683, 47.759 90.015, 43.411 91.181 M 66.584 126.842 C 62.932 130.037, 59.612 132.032, 57.214 132.470 C 50.130 133.765, 40.794 140.969, 37.863 147.401 C 36.555 150.273, 38.176 154.414, 41.446 156.557 C 43.873 158.147, 44.249 158.092, 50.241 155.268 C 53.683 153.646, 57.877 151.778, 59.559 151.117 C 62.434 149.988, 64.361 147.568, 67.978 140.544 C 68.815 138.918, 71.290 136.668, 73.477 135.544 C 78.524 132.951, 80.127 129.099, 77.779 125.210 C 75.236 120.998, 72.867 121.343, 66.584 126.842" stroke="none" fill="black" fill-rule="evenodd"/>
</svg>