<svg xmlns="http://www.w3.org/2000/svg" width="256" height="256" viewBox="0 0 256 256" version="1.1">
	<path d="M 62.750 28.750 C 61.329 30.262, 59.229 32.513, 58.083 33.750 C 56.302 35.674, 54.977 36, 48.950 36 C 40.856 36, 36.333 37.826, 35.420 41.461 C 34.587 44.782, 35.420 45.767, 40.134 47.036 C 43.022 47.814, 45.605 47.821, 49.141 47.063 C 51.868 46.478, 54.700 46, 55.435 46 C 56.687 46, 68.907 53.618, 70 55.080 C 70.275 55.448, 71.912 56.055, 73.638 56.429 C 76.276 57.001, 77.200 58.054, 79.435 63.034 C 82.414 69.674, 82.031 71.687, 77.215 74.696 C 75.722 75.629, 72.700 78.287, 70.500 80.603 C 67.382 83.886, 65.508 84.969, 62 85.515 C 53.048 86.909, 45.454 89.241, 43.250 91.274 C 40.703 93.623, 40.325 97.695, 42.392 100.522 C 44.244 103.054, 54.810 103.328, 57.234 100.907 C 58.112 100.030, 60.330 98.755, 62.165 98.073 C 63.999 97.391, 66.281 96.421, 67.236 95.917 C 70.416 94.238, 73.065 94.966, 76.730 98.526 C 78.727 100.466, 81.517 102.301, 82.930 102.604 C 89.855 104.090, 92.083 107.805, 88.171 111.345 C 86.214 113.116, 82.465 113.562, 81.580 112.129 C 81.284 111.650, 79.674 110.985, 78.004 110.651 C 75.722 110.194, 73.537 110.814, 69.233 113.137 C 62.903 116.554, 62.038 117.462, 62.015 120.715 C 61.990 124.368, 65.506 125.500, 76.874 125.500 C 86.878 125.500, 87.319 125.593, 89.208 128.101 C 90.808 130.225, 91.038 131.562, 90.463 135.400 C 89.473 142.001, 87.846 143.323, 81.584 142.611 C 73.512 141.694, 46.620 141.499, 45.247 142.347 C 43.545 143.399, 43.668 150.525, 45.419 152.276 C 46.763 153.620, 51.554 154.144, 75.500 155.566 C 87.726 156.292, 127.155 156.281, 136.500 155.549 C 145.745 154.825, 152.257 152.545, 152.786 149.848 C 152.943 149.045, 152.268 147.472, 151.286 146.351 C 147.410 141.930, 146.508 141.809, 118.630 141.977 C 107.414 142.045, 105.588 141.827, 104.412 140.278 C 101.489 136.425, 103.511 129.859, 108.222 127.908 C 109.851 127.233, 115.080 126.640, 119.842 126.590 L 128.500 126.500 128.804 122.865 C 129.070 119.672, 128.698 118.976, 125.749 117.154 C 123.903 116.013, 119.041 114.572, 114.946 113.952 C 106.228 112.632, 102.742 110.794, 103.189 107.754 C 103.505 105.604, 105.688 104.650, 112.929 103.499 C 117.050 102.844, 120 100.443, 120 97.746 C 120 96.050, 120.559 95.857, 124.366 96.237 C 126.767 96.476, 130.029 97.548, 131.616 98.619 C 133.202 99.690, 136.075 101.265, 138 102.120 C 143.878 104.731, 150.341 101.783, 151.157 96.120 C 151.629 92.848, 148.209 90.519, 139 87.840 C 133.618 86.274, 130.605 84.741, 128.329 82.411 C 126.586 80.625, 123.188 78.292, 120.779 77.226 C 118.370 76.161, 114.846 73.971, 112.949 72.361 C 111.052 70.751, 107.816 68.323, 105.757 66.967 C 103.698 65.610, 102.011 63.998, 102.007 63.385 C 101.980 58.980, 91.668 52.367, 86.603 53.507 C 77.121 55.641, 76 55.736, 76 54.401 C 76 52.446, 79.322 51, 83.812 51 C 85.981 51, 89.484 50.278, 91.595 49.396 C 94.918 48.008, 96.402 47.957, 102.613 49.019 C 106.561 49.695, 110.274 49.949, 110.864 49.584 C 112.397 48.637, 120.702 52.642, 123.227 55.546 C 125.513 58.175, 129 58.856, 129 56.674 C 129 55.112, 132.656 51.637, 135.500 50.496 C 136.600 50.055, 140.958 49.618, 145.183 49.524 C 153.789 49.335, 156.265 48.072, 155.801 44.109 C 155.372 40.456, 151.744 39.032, 142.828 39.015 L 135.156 39 131.732 35 C 127.934 30.563, 124.358 29.784, 121.394 32.750 C 120.057 34.087, 117.848 34.525, 112.041 34.606 C 107.860 34.664, 102.787 35.309, 100.769 36.039 C 97.890 37.080, 96.539 37.111, 94.502 36.183 C 93.074 35.532, 88.359 35, 84.024 35 C 75.573 35, 74.617 34.546, 71.319 28.964 C 69.105 25.216, 66.140 25.142, 62.750 28.750 M 90.183 81.750 L 85.113 85.500 87.522 86.764 C 90.880 88.525, 103.262 88.843, 105.229 87.219 C 106.590 86.094, 106.285 85.453, 102.731 81.969 C 100.504 79.786, 97.910 78, 96.967 78 C 96.025 78, 92.971 79.688, 90.183 81.750" stroke="none" fill="black" fill-rule="evenodd"/>
</svg>