<svg xmlns="http://www.w3.org/2000/svg" width="256" height="256" viewBox="0 0 256 256" version="1.1">
	<path d="M 119.141 31.029 C 116.743 32.113, 113.463 33, 111.851 33 C 110.239 33, 107.156 33.900, 105 35 C 100.323 37.386, 97.227 37.521, 93.364 35.506 C 91.528 34.549, 87.925 34.049, 83.324 34.115 C 78.216 34.187, 75.486 33.753, 73.851 32.608 C 70.435 30.216, 66.823 30.647, 62.428 33.972 C 58.883 36.655, 57.759 36.947, 50.898 36.972 C 42.079 37.004, 36.731 39.601, 36.200 44.108 C 35.951 46.229, 36.572 46.954, 39.942 48.474 C 43.524 50.089, 44.781 50.164, 51.015 49.135 C 59.146 47.792, 61.251 48.489, 66.946 54.415 C 68.842 56.387, 71.300 58, 72.408 58 C 73.517 58, 76.241 56.230, 78.462 54.067 C 82.348 50.283, 82.858 50.096, 92 49.112 C 102.269 48.007, 113.891 48.935, 116.786 51.092 C 117.729 51.794, 119.693 53.734, 121.152 55.402 L 123.804 58.435 121.749 60.218 C 120.557 61.252, 118.105 62, 115.909 62 C 113.827 62, 109.152 62.689, 105.518 63.532 C 101.885 64.375, 98.378 64.733, 97.724 64.329 C 96.656 63.669, 81.803 62.073, 74.706 61.856 C 73.169 61.809, 71.109 62.497, 70.127 63.385 C 69.146 64.273, 67.561 65, 66.606 65 C 65.650 65, 63.960 65.486, 62.850 66.080 C 60.585 67.292, 57.602 73.548, 58.554 75.088 C 58.894 75.638, 58.403 77.262, 57.463 78.697 C 56.087 80.796, 55.879 82.596, 56.395 87.903 C 57.707 101.379, 58.643 106.583, 60.325 109.750 C 61.946 112.803, 62.380 113, 67.453 113 C 75.481 113, 88.314 114.960, 89.808 116.414 C 91.607 118.166, 90.317 122.765, 87.803 123.563 C 86.703 123.911, 83.780 123.424, 81.305 122.479 C 76.774 120.748, 67.718 120.911, 60.453 122.854 C 58.884 123.274, 54.930 123.213, 51.667 122.719 C 46.378 121.919, 45.518 122.038, 43.742 123.813 C 41.329 126.227, 41.181 130.101, 43.373 133.447 C 44.894 135.768, 45.393 135.888, 51.248 135.348 C 55.212 134.982, 60.690 135.372, 66.217 136.412 C 72.355 137.567, 77.260 137.858, 82.793 137.397 L 90.650 136.742 91.746 139.621 C 92.348 141.204, 93.065 145.875, 93.339 150 C 93.613 154.125, 94.108 158.185, 94.438 159.022 C 95.351 161.336, 98.516 162.939, 100.925 162.309 C 103.994 161.507, 105.659 157.590, 106.487 149.230 C 107.343 140.582, 107.892 140.123, 118.973 138.776 C 123.113 138.273, 128.158 137.623, 130.185 137.332 C 132.212 137.040, 135.446 137.322, 137.370 137.957 C 144.716 140.381, 153.572 134.789, 152.812 128.206 C 152.551 125.946, 151.689 125.231, 147.581 123.868 C 143.985 122.676, 141.832 122.488, 139.581 123.171 C 137.886 123.685, 130.063 124.247, 122.196 124.420 C 109.984 124.687, 107.589 124.488, 105.819 123.055 C 102.930 120.715, 104.124 117.425, 108.155 116.619 C 109.857 116.279, 114.288 116, 118 116 C 127.168 116, 130.280 115.247, 134.023 112.122 C 136.787 109.814, 137.337 108.534, 138.164 102.480 C 139.548 92.349, 139.523 72.677, 138.122 69.295 C 137.265 67.225, 135.312 65.726, 130.971 63.808 C 124.544 60.967, 123.296 58.598, 127.403 57.037 C 128.724 56.534, 130.130 55.599, 130.526 54.958 C 132.107 52.400, 139.548 50.044, 146.115 50.022 C 156.665 49.987, 160.858 45.375, 155.548 39.646 C 152.956 36.850, 152.084 36.671, 142.402 36.944 C 136.863 37.100, 135.892 36.800, 131.789 33.669 C 125.719 29.035, 124.236 28.726, 119.141 31.029 M 69.250 75.662 C 67.557 76.345, 67.665 80.477, 69.413 81.928 C 70.191 82.573, 72.778 83.039, 75.163 82.963 C 77.549 82.887, 88.950 83.068, 100.500 83.364 C 117.517 83.800, 121.974 83.634, 124 82.486 C 125.375 81.708, 126.147 81.055, 125.715 81.035 C 125.283 81.016, 125.385 80.150, 125.940 79.111 C 127.696 75.831, 122.832 74.713, 109.925 75.429 C 103.767 75.770, 98.246 76.348, 97.657 76.712 C 96.034 77.715, 79.584 77.173, 76.541 76.016 C 73.721 74.944, 71.320 74.827, 69.250 75.662 M 71 94.756 C 69.380 95.268, 67 97.893, 67 99.168 C 67 99.600, 68.090 100.668, 69.423 101.542 C 71.479 102.889, 75.516 103.115, 96.043 103.036 C 119.628 102.945, 123.289 102.514, 125.235 99.600 C 126.474 97.745, 126.133 97.356, 122.250 96.201 C 119.427 95.361, 115.697 95.407, 107.163 96.389 C 98.045 97.437, 94.719 97.449, 90.163 96.447 C 83.546 94.992, 73.154 94.075, 71 94.756" stroke="none" fill="black" fill-rule="evenodd"/>
</svg>