<svg xmlns="http://www.w3.org/2000/svg" width="256" height="256" viewBox="0 0 256 256" version="1.1">
	<path d="M 119.365 32.346 C 117.715 33.734, 115.046 35.145, 113.433 35.481 C 111.820 35.817, 107.936 36.810, 104.802 37.689 C 100.425 38.915, 97.980 39.063, 94.263 38.328 C 91.159 37.715, 86.658 37.722, 81.719 38.348 C 74.872 39.216, 73.796 39.125, 72.034 37.530 C 70.943 36.544, 69.784 34.896, 69.458 33.868 C 68.889 32.074, 64.008 31.076, 63.993 32.750 C 63.989 33.163, 62.332 34.625, 60.310 36 C 56.980 38.264, 55.668 38.500, 46.401 38.500 C 36.905 38.500, 35.980 38.677, 33.543 40.963 C 30.414 43.898, 30.568 46.626, 34 49.106 C 35.839 50.435, 39.118 51.061, 46.406 51.476 C 51.854 51.787, 57.320 52.594, 58.552 53.270 C 59.784 53.947, 63.819 56.257, 67.519 58.405 C 72.911 61.535, 74.405 62.031, 75.043 60.905 C 78.963 53.991, 80.705 52.464, 86.538 50.830 C 98.603 47.451, 117.302 49.025, 124.903 54.059 C 129.396 57.035, 133.366 57.835, 134.504 55.993 C 135.760 53.961, 141.432 51.788, 147.848 50.879 C 155.735 49.762, 159 47.884, 159 44.462 C 159 40.106, 154.014 38.008, 143.650 38.004 C 134.844 38, 134.782 37.982, 131.244 34.444 C 126.487 29.687, 123.213 29.109, 119.365 32.346 M 120.844 62.847 C 117.753 65.609, 117.505 66.275, 117.570 71.667 C 117.609 74.875, 117.834 79.898, 118.070 82.830 C 118.616 89.598, 117.502 90.495, 107.493 91.341 C 100.407 91.940, 95.238 93.791, 90.750 97.338 C 85.714 101.317, 91.426 103.907, 107 104.704 C 112.775 105, 118.066 105.695, 118.758 106.250 C 119.674 106.984, 119.981 111.137, 119.888 121.531 C 119.818 129.382, 120.021 136.225, 120.339 136.739 C 120.657 137.253, 120.235 138.647, 119.402 139.837 C 118.142 141.636, 116.900 142, 112.031 142 C 105.049 142, 92 144.359, 89.156 146.135 C 85.949 148.138, 85.803 150.825, 88.795 152.783 C 90.973 154.208, 94.062 154.515, 106.960 154.590 C 115.507 154.640, 127 154.987, 132.500 155.361 C 144.997 156.212, 157.908 154.846, 159.631 152.490 C 161.508 149.924, 159.833 146.750, 155.420 144.510 C 152.206 142.879, 149.846 142.567, 142.318 142.775 C 136.504 142.936, 132.889 142.629, 132.462 141.939 C 131.474 140.340, 131.354 108.314, 132.332 107.334 C 132.790 106.875, 138.314 106.222, 144.608 105.882 C 156.955 105.215, 160 103.944, 160 99.456 C 160 93.628, 153.300 90.940, 140.474 91.622 C 128.996 92.233, 128.703 91.923, 129.545 80.053 C 130.293 69.504, 129.356 64.538, 126.056 61.551 C 124.287 59.950, 124.011 60.018, 120.844 62.847 M 72.278 64.463 C 69.155 65.850, 67.612 70.282, 67.782 77.377 C 67.937 83.814, 66.217 88, 63.418 88 C 62.550 88, 62.179 88.481, 62.566 89.107 C 63.439 90.520, 59.656 89.443, 55.500 87.096 C 52.958 85.660, 52.460 84.722, 52.236 80.951 C 51.662 71.255, 50.063 69.791, 43.096 72.578 C 38.327 74.487, 37.223 77.117, 38.971 82.413 C 39.640 84.438, 39.854 87.789, 39.477 90.306 C 38.922 94.008, 39.180 95.098, 41.160 97.399 L 43.500 100.119 51.500 98.950 C 62.599 97.328, 65.109 97.428, 66.665 99.556 C 68.249 101.723, 68.393 105.398, 66.995 108.009 C 66.078 109.722, 65.082 109.836, 55.650 109.302 C 47.209 108.824, 44.471 109.037, 40.740 110.462 C 36.420 112.111, 36.187 112.394, 36.487 115.624 C 36.694 117.847, 38.068 120.440, 40.417 123.040 C 44.736 127.820, 44.740 127.791, 37.866 143.911 C 35.190 150.188, 33 156.134, 33 157.126 C 33 160.338, 36.671 161.397, 41.459 159.569 C 46.510 157.640, 49.296 154.878, 51.631 149.486 C 54.272 143.387, 53.144 129, 50.025 129 C 48.129 129, 48.979 126.349, 51.250 125.176 C 55.019 123.230, 62.118 121, 64.546 121 C 67.733 121, 68.159 123.793, 67.494 140.333 C 66.987 152.932, 67.113 154.444, 68.912 157.331 C 69.998 159.074, 71.822 161.073, 72.966 161.773 C 74.773 162.879, 75.361 162.730, 77.453 160.638 C 79.872 158.219, 82.549 150.697, 81.560 149.097 C 80.532 147.433, 80.856 117.418, 81.966 111.500 C 82.585 108.200, 83.354 104.041, 83.675 102.258 C 83.996 100.476, 83.832 98.451, 83.310 97.758 C 80.876 94.532, 79.720 87.845, 80.336 80.558 C 81.031 72.330, 80.142 68.650, 76.694 65.488 C 74.968 63.906, 74.026 63.687, 72.278 64.463" stroke="none" fill="black" fill-rule="evenodd"/>
</svg>