<svg xmlns="http://www.w3.org/2000/svg" width="256" height="256" viewBox="0 0 256 256" version="1.1">
	<path d="M 70.821 25.327 C 70.095 26.057, 68.090 28.263, 66.366 30.230 C 61.834 35.401, 60.221 35.986, 52.327 35.324 C 44.443 34.663, 38.434 36.661, 37.041 40.407 C 35.960 43.315, 36.745 44.817, 40.310 46.660 C 42.787 47.941, 45.161 48.115, 52.647 47.566 C 64.060 46.728, 67.197 48.026, 70.009 54.750 C 71.307 57.853, 73.821 57.566, 77.625 53.879 C 80.518 51.075, 81.779 50.653, 90.035 49.731 C 97.895 48.854, 100.013 48.954, 104.676 50.424 C 107.675 51.369, 111.561 53.423, 113.313 54.988 L 116.498 57.834 114.149 59.871 C 111.264 62.372, 104.437 63.496, 98.187 62.496 C 95.609 62.084, 90.574 61.610, 86.997 61.443 C 83.421 61.275, 79.291 60.681, 77.820 60.122 C 76.039 59.444, 70.229 59.417, 60.419 60.038 C 43.891 61.086, 41 62.115, 41 66.952 C 41 71.397, 43.145 72.757, 51.235 73.440 C 67.014 74.773, 74.734 75.311, 80 75.446 C 86.895 75.622, 89.984 76.658, 90.057 78.817 C 90.089 79.743, 90.392 84.100, 90.731 88.500 C 91.499 98.465, 91.456 104.046, 90.586 107.513 C 89.953 110.035, 89.650 110.163, 85.706 109.586 C 83.393 109.247, 74.300 108.784, 65.500 108.556 C 56.700 108.328, 48.375 107.947, 47 107.710 C 44.674 107.308, 40.128 108.952, 37.276 111.226 C 35.351 112.760, 38.366 117.583, 42.053 118.869 C 51.041 122.002, 82.226 122.870, 83.978 120.036 C 84.635 118.973, 85.341 118.983, 87.851 120.094 C 91.205 121.579, 92.128 124.201, 90.581 127.854 C 89.695 129.946, 89.134 130.138, 85.542 129.579 C 75.539 128.022, 57.094 128.847, 54.542 130.965 C 53.116 132.148, 53.270 135.883, 54.787 136.927 C 55.245 137.242, 57.168 138.675, 59.060 140.110 C 63.711 143.640, 69.377 144.884, 76.059 143.843 C 89.804 141.702, 89.427 141.707, 91.145 143.648 C 92.248 144.892, 92.916 147.914, 93.182 152.859 C 93.493 158.640, 93.985 160.516, 95.480 161.609 C 100.237 165.088, 103.303 162.442, 104.626 153.717 C 105.908 145.265, 109.846 143.229, 127.087 142.104 C 139.002 141.328, 140.400 141.034, 142.447 138.875 C 144.280 136.942, 144.509 136.077, 143.678 134.226 C 142.580 131.781, 141.120 131.238, 133.769 130.540 C 131.167 130.293, 128.100 129.589, 126.954 128.975 C 125.578 128.239, 121.919 128.090, 116.185 128.538 C 108.441 129.143, 107.316 129.012, 105.801 127.335 C 101.687 122.782, 106.636 121.819, 134 121.844 C 156.046 121.865, 158.486 121.362, 157.830 116.931 C 157.649 115.705, 156.375 113.875, 155 112.866 C 151.143 110.036, 133.755 107.843, 123 108.831 C 117.671 109.320, 109.923 108.921, 107.602 108.039 C 105.641 107.293, 105 106.089, 104.286 101.807 C 103.679 98.162, 103.768 95.560, 104.571 93.500 C 105.811 90.320, 105.826 87.464, 104.630 82.374 C 103.630 78.117, 105.862 75.996, 111.321 76.014 C 120.953 76.045, 122.504 78.653, 116 83.880 C 110.539 88.269, 110.640 91.094, 116.454 96.508 C 118.904 98.789, 122.710 101.196, 124.912 101.856 C 127.114 102.515, 129.170 103.466, 129.480 103.968 C 130.209 105.147, 135.414 103.337, 139.746 100.397 C 141.581 99.152, 145.314 97.392, 148.041 96.486 C 152.025 95.163, 153 94.398, 153 92.594 C 153 87.953, 146.434 84.036, 136.903 82.989 C 131.818 82.431, 129.542 81.656, 127.543 79.802 L 124.901 77.353 128.941 76.019 C 132.176 74.952, 134.597 74.914, 141.079 75.831 C 150.244 77.127, 153.331 76.308, 152.811 72.720 C 152.280 69.056, 144.443 65.065, 135.897 64.106 C 129.079 63.342, 122.872 61.219, 121.644 59.233 C 121.378 58.803, 122.678 56.361, 124.532 53.805 L 127.904 49.160 139.274 49.720 C 149.048 50.201, 151.020 50.033, 153.322 48.525 C 156.513 46.434, 156.723 43.449, 153.917 40.078 C 151.363 37.010, 143.574 36.180, 134.803 38.042 C 128.886 39.297, 128.634 39.266, 126.846 37.058 C 125.831 35.804, 125 34.007, 125 33.064 C 125 30.357, 120.723 27, 117.275 27 C 114.864 27, 113.054 28.149, 109.094 32.192 C 104.367 37.020, 103.676 37.383, 99.255 37.364 C 93.352 37.338, 80.825 31.693, 76.563 27.138 C 73.269 23.619, 72.701 23.439, 70.821 25.327 M 51.490 83.747 C 43.143 86.530, 41.508 87.904, 42.385 91.397 C 43.729 96.751, 49.675 97.841, 64.264 95.406 C 66.427 95.045, 68.574 95.232, 69.313 95.845 C 70.021 96.432, 72.383 97.198, 74.563 97.546 C 79.711 98.369, 82.426 95.810, 81.698 90.821 C 80.598 83.289, 78.877 82.228, 66.990 81.755 C 60.113 81.481, 57.138 81.864, 51.490 83.747" stroke="none" fill="black" fill-rule="evenodd"/>
</svg>