<svg xmlns="http://www.w3.org/2000/svg" width="256" height="256" viewBox="0 0 256 256" version="1.1">
	<path d="M 117.113 33 C 114.271 36.109, 112.726 37, 110.180 37 C 108.378 37, 105.014 37.913, 102.704 39.029 C 98.974 40.831, 97.981 40.924, 93.819 39.857 C 90.118 38.908, 87.617 38.927, 81.921 39.945 C 73.942 41.371, 73.859 41.328, 71.511 34.603 C 70.955 33.010, 69.452 31.324, 68.171 30.856 C 66.295 30.171, 65.421 30.511, 63.671 32.606 C 55.803 42.026, 57.134 41.269, 47.183 41.987 C 34.697 42.887, 30.698 46.549, 36.375 51.882 C 38.506 53.885, 39.616 54.084, 47.200 53.827 C 54.307 53.586, 56.095 53.855, 58.450 55.520 C 65.161 60.264, 66.694 60.990, 70.022 60.995 C 72.398 60.998, 74.677 60.085, 77.022 58.188 C 80.705 55.210, 93.940 49.987, 97.782 49.995 C 99.037 49.998, 101.697 50.682, 103.693 51.516 C 105.689 52.350, 109.321 53.272, 111.764 53.566 C 114.207 53.859, 117.995 54.815, 120.182 55.689 C 123.974 57.207, 124.336 57.179, 128.033 55.102 C 131.556 53.122, 139.863 52.062, 152.295 52.008 C 153.283 52.004, 155.195 50.896, 156.545 49.546 C 158.645 47.446, 158.839 46.740, 157.889 44.656 C 156.199 40.947, 153.361 40.208, 142.905 40.754 C 133.403 41.251, 133.332 41.238, 131.173 38.492 C 129.978 36.973, 129 34.916, 129 33.922 C 129 31.807, 125.385 29, 122.662 29 C 121.621 29, 119.124 30.800, 117.113 33 M 121.587 65.859 C 121.295 66.331, 118.634 67.003, 115.674 67.351 C 112.714 67.698, 108.172 68.921, 105.581 70.067 C 101.315 71.954, 100.400 72.031, 95.904 70.879 C 91.076 69.641, 90.865 69.680, 88.258 72.287 C 85.619 74.927, 85.599 75.044, 87.007 79.734 C 88.436 84.496, 88.555 87.033, 88.098 103 C 87.754 114.999, 88.890 126.013, 91.579 136.773 C 93.945 146.242, 96.533 151.144, 100.199 153.107 C 104.488 155.402, 119.500 157.669, 128.500 157.381 C 133.450 157.222, 138.675 157.072, 140.110 157.046 C 143.507 156.986, 155.139 149.197, 156.701 145.937 C 157.368 144.546, 158.447 140.177, 159.099 136.228 C 160.658 126.792, 160.030 126, 151 126 C 146.215 126, 143.882 126.438, 143 127.500 C 141.987 128.721, 142.037 129, 143.271 129 C 145.118 129, 146 131.088, 146 135.460 C 146 138.135, 145.481 138.956, 143.250 139.809 C 135.737 142.683, 117.505 143.880, 109.500 142.025 C 101.629 140.202, 100.867 137.137, 100.620 106.310 C 100.430 82.612, 99.644 84.314, 111.500 82.719 C 122.066 81.297, 130.130 81.429, 133.500 83.078 C 136.105 84.353, 136.492 85.070, 136.440 88.523 C 136.285 98.833, 134.095 103.889, 129.750 103.968 C 125.911 104.038, 128.148 106.966, 133.182 108.461 C 140.209 110.548, 146.299 110.463, 148.171 108.250 C 151.903 103.839, 152.914 81.851, 149.616 76.817 C 147.274 73.244, 140.871 70, 136.158 70 C 133.467 70, 130.842 69.154, 128.405 67.500 C 124.570 64.898, 122.491 64.397, 121.587 65.859 M 54.189 70.714 C 50.039 71.506, 50.436 73.905, 55.525 78.781 C 59.475 82.566, 60.960 83.369, 63.861 83.287 C 70.597 83.096, 71.500 77.815, 65.658 72.777 C 62.576 70.120, 59.859 69.631, 54.189 70.714 M 39.223 93.557 C 37.562 94.719, 37 96.115, 37 99.071 C 37 102.460, 37.465 103.312, 40.232 104.995 C 44.322 107.482, 53.022 109.462, 56.274 108.646 C 57.642 108.303, 58.985 107.164, 59.259 106.116 C 59.794 104.071, 57.525 98.568, 55.011 95.815 C 51.538 92.012, 43.143 90.811, 39.223 93.557 M 73.320 120.781 C 72.671 121.194, 70.724 124.225, 68.994 127.516 C 65.714 133.756, 63.444 135.400, 59.481 134.406 C 55.886 133.504, 46.119 139.215, 42.561 144.300 C 37.968 150.864, 39.200 159, 44.787 159 C 45.560 159, 48.689 158.274, 51.741 157.387 C 58.023 155.561, 65.479 149.442, 67.615 144.360 C 68.341 142.633, 70.862 139.708, 73.218 137.861 C 75.573 136.013, 78.273 133.601, 79.217 132.501 C 81.709 129.596, 81.424 125.333, 78.545 122.455 C 75.927 119.836, 75.182 119.597, 73.320 120.781" stroke="none" fill="black" fill-rule="evenodd"/>
</svg>