<svg xmlns="http://www.w3.org/2000/svg" width="256" height="256" viewBox="0 0 256 256" version="1.1">
	<path d="M 67.006 29.496 C 65.146 30.868, 63.371 32.369, 63.062 32.831 C 61.569 35.063, 58.120 35.779, 51.337 35.266 C 40.931 34.479, 34.794 37.623, 36.464 42.886 C 37.411 45.870, 41.572 47, 51.613 47 C 61.852 47, 63.755 47.589, 68.725 52.292 C 72.261 55.638, 73.460 55.475, 79.188 50.865 C 81.443 49.050, 83.510 48.633, 92.034 48.274 C 104.878 47.733, 110.653 49.050, 115.117 53.536 C 119.679 58.122, 121.822 57.910, 126.790 52.382 C 129.925 48.892, 131.375 47.945, 132.720 48.508 C 133.699 48.917, 137.902 49.473, 142.060 49.744 C 148.434 50.158, 150.276 49.900, 153.810 48.097 C 158.776 45.563, 159.335 42.602, 155.521 39.020 C 153.133 36.776, 152.626 36.714, 141.543 37.308 L 130.044 37.924 127.130 33.689 C 125.527 31.359, 123.085 28.848, 121.704 28.109 C 119.475 26.916, 118.700 27.030, 114.846 29.113 C 112.456 30.404, 108.743 32.800, 106.595 34.437 C 103.838 36.539, 101.634 37.388, 99.095 37.326 C 94.696 37.219, 78.856 31.746, 75.002 29.001 C 71.436 26.463, 71.088 26.484, 67.006 29.496 M 52.500 59.945 C 51.400 60.396, 49.722 61.630, 48.770 62.688 C 47.232 64.400, 47.202 64.844, 48.503 66.701 C 50.662 69.783, 58.981 75, 61.737 75 C 65.570 75, 68 73.189, 68 70.333 C 68 67.777, 64.611 61.201, 62.553 59.765 C 61.168 58.799, 55.032 58.909, 52.500 59.945 M 95.153 60.847 C 93.997 62.003, 92.749 64.198, 92.380 65.725 C 91.463 69.516, 88.684 73.296, 85.601 74.946 C 84.189 75.702, 82.796 77.067, 82.506 77.980 C 82.217 78.892, 80.409 80.388, 78.490 81.303 C 75.728 82.621, 75.007 83.544, 75.032 85.734 C 75.049 87.255, 75.662 89.288, 76.393 90.251 C 77.124 91.214, 77.516 93.083, 77.263 94.403 C 76.921 96.194, 77.337 96.972, 78.902 97.469 C 81.387 98.258, 81.652 101.214, 79.404 103.079 C 77.457 104.696, 78.247 111.729, 80.567 113.425 C 81.386 114.024, 82.269 116.086, 82.529 118.007 C 82.789 119.928, 83.278 122.967, 83.616 124.759 C 83.973 126.656, 83.749 128.597, 83.080 129.403 C 81.444 131.375, 81.602 138.532, 83.432 145.299 C 84.294 148.488, 85 152.140, 85 153.414 C 85 156.385, 88.612 161, 90.938 161 C 91.924 161, 93.874 160.100, 95.273 159 C 97.301 157.405, 99.402 156.986, 105.658 156.929 C 109.971 156.890, 117.062 156.534, 121.416 156.139 C 127.753 155.563, 130.345 155.770, 134.416 157.177 C 145.458 160.994, 145.855 160.191, 145.089 135.606 C 144.431 114.488, 143.702 117.015, 151.987 111.682 C 153.905 110.448, 155.916 108.179, 156.458 106.640 C 157.308 104.221, 157.107 103.589, 154.971 101.972 C 153.612 100.943, 149.512 99.367, 145.860 98.470 C 137.820 96.495, 133.624 92.857, 134.407 88.542 C 134.865 86.012, 137.426 83.108, 139.265 83.032 C 139.685 83.014, 140.900 81.568, 141.964 79.819 C 143.782 76.829, 143.800 76.470, 142.259 73.861 C 141.357 72.334, 139.467 70.662, 138.059 70.146 C 131.811 67.855, 122.180 65.081, 118.637 64.552 C 116.512 64.234, 113.455 63.036, 111.844 61.889 C 110.031 60.598, 106.692 59.601, 103.084 59.274 C 98.076 58.820, 96.959 59.041, 95.153 60.847 M 108.655 78.829 C 106.351 81.375, 106.566 82.312, 109.904 84.284 C 112.957 86.088, 122 86.673, 122 85.067 C 122 84.554, 122.900 83.849, 124 83.500 C 126.335 82.759, 126.687 81, 124.500 81 C 123.675 81, 122.996 80.662, 122.992 80.250 C 122.978 78.904, 117.685 77, 113.956 77 C 111.694 77, 109.682 77.694, 108.655 78.829 M 87.842 88.852 C 86.327 90.384, 85.228 92.617, 85.236 94.150 C 85.247 96.301, 85.826 96.915, 88.306 97.411 C 89.987 97.747, 92.856 97.742, 94.681 97.400 C 97.479 96.875, 98 96.348, 98 94.042 C 98 90.924, 95.098 87.097, 92.331 86.564 C 91.273 86.360, 89.326 87.352, 87.842 88.852 M 40.250 88.031 C 34.996 90.143, 38.575 99.190, 46.210 103.100 C 51.359 105.737, 58.436 105.643, 60.348 102.913 C 61.938 100.644, 61.468 97.740, 58.623 92.238 C 57.481 90.030, 55.880 88.783, 53.248 88.052 C 48.749 86.803, 43.328 86.794, 40.250 88.031 M 110.277 105.328 C 104.482 107.351, 102.108 108.854, 99.424 112.201 C 96.403 115.969, 101.317 117.091, 109 114.388 C 113.534 112.793, 123.083 113.021, 128.261 114.848 C 131.922 116.140, 134.188 115.183, 133.423 112.669 C 132.448 109.462, 130.009 107.051, 125.574 104.908 C 120.643 102.526, 118.107 102.595, 110.277 105.328 M 60.217 124.269 C 58.998 125.567, 58 127.128, 58 127.738 C 58 128.349, 56.633 129.895, 54.963 131.174 C 44.547 139.153, 45.338 137.706, 43.396 152.331 C 43.182 153.944, 43.651 155.794, 44.486 156.629 C 46.397 158.539, 48.980 157.204, 52.628 152.421 C 54.119 150.467, 57.029 148.005, 59.096 146.951 C 61.163 145.896, 63.174 144.013, 63.564 142.767 C 63.954 141.520, 65.258 139.322, 66.460 137.883 C 67.663 136.443, 69.226 133.869, 69.933 132.162 C 71.055 129.454, 70.975 128.641, 69.310 125.779 C 66.882 121.605, 63.281 121.007, 60.217 124.269 M 97.186 128.606 C 95.092 130.137, 95.129 140.558, 97.236 142.665 C 98.885 144.313, 98.238 144.287, 116 143.430 C 128.144 142.844, 129.676 142.563, 131.255 140.639 C 132.414 139.228, 132.924 137.142, 132.755 134.507 C 132.368 128.457, 129.671 127.513, 112.648 127.467 C 103.547 127.442, 98.244 127.833, 97.186 128.606" stroke="none" fill="black" fill-rule="evenodd"/>
</svg>