<svg xmlns="http://www.w3.org/2000/svg" width="256" height="256" viewBox="0 0 256 256" version="1.1">
	<path d="M 67.434 22.963 C 66.298 23.423, 63.618 26.095, 61.479 28.900 C 57.269 34.420, 57.348 34.388, 48.500 34.102 C 40.738 33.850, 35.702 36.579, 36.186 40.774 C 36.420 42.802, 37.490 43.984, 40.367 45.388 C 43.898 47.113, 44.830 47.164, 51.094 45.982 L 57.955 44.688 63.878 48.344 C 69.843 52.026, 72.410 52.764, 73.442 51.094 C 73.750 50.595, 76.132 49.461, 78.736 48.574 C 83.103 47.086, 83.874 47.089, 88.702 48.607 C 94.674 50.486, 94.661 50.961, 88.454 57.347 C 84.744 61.165, 84.671 61.189, 79.107 60.455 C 70.701 59.346, 44.770 59.946, 43.154 61.287 C 40.666 63.352, 40.073 66.762, 41.084 73.193 C 42.436 81.792, 42.827 82.837, 45.158 84.085 C 46.636 84.875, 47.966 84.842, 50.091 83.962 C 53.040 82.741, 53.350 82.160, 53.059 78.399 C 52.867 75.922, 56.807 73, 60.339 73 C 61.664 73, 64.569 73.642, 66.794 74.427 C 72.096 76.298, 89.376 77.568, 104.928 77.230 C 118.213 76.941, 120.111 77.576, 117.425 81.410 C 115.923 83.555, 115.519 89.765, 116.765 91.556 C 117.535 92.662, 126.355 97, 127.834 97 C 128.305 97, 129.547 97.966, 130.595 99.146 C 134.967 104.072, 140.207 107, 144.650 107 C 148.733 107, 149 106.830, 149 104.240 C 149 102.722, 147.944 100.340, 146.653 98.948 C 145.362 97.556, 143.870 95.110, 143.337 93.512 C 142.375 90.625, 135.009 84.750, 128.250 81.479 C 126.463 80.614, 125 79.414, 125 78.813 C 125 76.797, 128.465 75.064, 132.561 75.032 C 137.212 74.995, 140.583 77.492, 141.657 81.768 C 142.977 87.029, 147.702 89.473, 153.470 87.881 C 157.568 86.749, 158.873 84.627, 157.158 81.881 C 156.521 80.861, 156 79.099, 156 77.964 C 156 75.569, 153.533 70.488, 151.103 67.881 C 148.165 64.727, 142.411 63.001, 134.782 62.985 C 130.777 62.976, 126.928 62.606, 126.228 62.162 C 125.529 61.718, 122.823 61.792, 120.215 62.327 C 113.318 63.740, 106.287 62.427, 103.304 59.170 C 101.959 57.701, 99.990 55.584, 98.929 54.465 C 94.893 50.207, 96.629 49.133, 108 48.852 C 115.113 48.676, 119.274 49.803, 121.162 52.417 C 122.309 54.004, 127.583 53.416, 132.369 51.167 C 135.809 49.550, 138.872 49, 144.442 49 C 156.890 49, 160.919 45.457, 155.094 39.632 C 152.103 36.641, 151.631 36.512, 143.666 36.506 L 135.359 36.500 130.244 31.250 C 127.431 28.362, 124.526 26, 123.787 26 C 122.507 26, 118.057 28.650, 117 30.042 C 115.841 31.568, 111.903 33.002, 108.816 33.022 C 106.992 33.034, 104.375 33.924, 103 35 C 99.936 37.397, 96.726 37.522, 93.445 35.372 C 92.078 34.476, 88.156 33.159, 84.730 32.445 C 80.419 31.546, 78.038 30.474, 77 28.963 C 74.697 25.611, 71.181 21.993, 70.295 22.063 C 69.858 22.098, 68.570 22.503, 67.434 22.963 M 63.237 82.496 C 58.495 84.557, 51 91.914, 51 94.508 C 51 95.708, 51.824 97.435, 52.830 98.346 C 56.210 101.405, 68.373 97.515, 75.854 90.984 C 79.683 87.641, 80.379 85.218, 78.220 82.750 C 76.315 80.571, 67.992 80.430, 63.237 82.496 M 94 88.879 C 94 89.362, 92.665 90.310, 91.033 90.986 C 89.402 91.662, 87.831 92.958, 87.543 93.866 C 87.255 94.773, 83.575 98.662, 79.366 102.508 C 75.157 106.354, 70.307 110.936, 68.589 112.692 C 66.618 114.705, 63.626 116.353, 60.482 117.155 C 57.742 117.854, 53.879 119.793, 51.897 121.463 C 49.915 123.133, 46.652 125.757, 44.647 127.293 C 40.947 130.126, 40.180 132.599, 41.965 135.934 C 43.219 138.278, 47.290 137.563, 50.705 134.398 C 55.054 130.367, 61.362 132.569, 62.456 138.500 C 62.658 139.600, 63.284 143.839, 63.845 147.921 C 65.432 159.472, 69.742 163.456, 75.903 159.069 C 78.571 157.169, 80.219 157, 96.066 157 C 109.285 157, 114.543 157.384, 118.531 158.641 C 121.395 159.544, 124.865 160, 126.242 159.654 C 129.530 158.829, 131.439 154.140, 131.598 146.500 C 131.744 139.437, 132.015 138.245, 134.167 135.172 C 135.693 132.993, 136.203 132.899, 142.920 133.561 C 149 134.160, 150.342 134, 152.026 132.477 C 154.183 130.524, 154.540 127.878, 153.028 125.052 C 151.859 122.869, 141.234 118.468, 135.086 117.621 C 130.667 117.012, 126.597 114.462, 127.559 112.905 C 127.840 112.449, 126.155 111.100, 123.815 109.905 C 117.972 106.925, 109.380 99.332, 107.954 95.889 C 106.184 91.616, 94 85.495, 94 88.879 M 92.447 109.201 C 90.826 110.466, 88.230 112.704, 86.679 114.177 L 83.857 116.853 86.179 118.121 C 89.586 119.983, 106.044 120.513, 108.248 118.833 C 109.871 117.595, 109.726 117.143, 106.214 112.500 C 101.620 106.426, 97.324 105.397, 92.447 109.201 M 105.605 135.113 C 104.013 135.548, 98.838 135.996, 94.105 136.108 C 83.477 136.359, 79.333 137.373, 79.333 139.723 C 79.333 143.718, 81.468 144.263, 98.205 144.544 C 113.936 144.807, 114.328 144.763, 116.639 142.452 C 119.599 139.492, 119.632 137.458, 116.750 135.578 C 114.340 134.006, 110.277 133.836, 105.605 135.113" stroke="none" fill="black" fill-rule="evenodd"/>
</svg>