<svg xmlns="http://www.w3.org/2000/svg" width="256" height="256" viewBox="0 0 256 256" version="1.1">
	<path d="M 64.115 26.250 C 62.502 28.038, 60.280 30.625, 59.179 32 C 57.354 34.277, 56.583 34.476, 50.540 34.226 C 42.798 33.906, 37.886 35.760, 36.101 39.678 C 35.135 41.797, 35.211 42.576, 36.524 44.026 C 38.869 46.618, 45.959 48.159, 50.087 46.975 C 56.631 45.098, 58.975 45.695, 63.382 50.360 C 68.855 56.155, 70.299 58.035, 69.720 58.614 C 68.624 59.709, 55.246 61.181, 50.555 60.723 C 42.561 59.941, 36.476 64.284, 38.988 68.977 C 40.818 72.397, 43.509 73, 56.934 73 C 65.464 73, 70 73.368, 70 74.059 C 70 74.641, 70.508 74.804, 71.130 74.420 C 71.801 74.005, 72.081 74.256, 71.820 75.039 C 71.361 76.417, 70.347 77.055, 65.701 78.894 C 62.015 80.353, 58.860 87.095, 60.105 90.853 C 61.921 96.335, 62.238 96.831, 64.342 97.481 C 68.040 98.623, 80.039 100.031, 91.250 100.639 C 97.162 100.959, 102 101.509, 102 101.861 C 102 102.212, 96.937 102.603, 90.750 102.730 C 84.562 102.856, 75.675 103.228, 71 103.557 C 66.325 103.886, 58.533 104.120, 53.685 104.078 C 48.836 104.035, 43.960 104.486, 42.850 105.080 C 39.463 106.893, 37.880 112.111, 39.028 117.678 C 39.574 120.330, 40.301 123.963, 40.642 125.750 C 41.163 128.485, 41.701 129, 44.030 129 C 46.449 129, 47.028 128.363, 48.611 123.962 C 51.597 115.657, 52.646 115.011, 63.289 114.928 C 68.355 114.889, 76.325 114.645, 81 114.385 C 91.010 113.829, 111.011 113.946, 116 114.588 C 117.925 114.836, 123.550 115.276, 128.500 115.565 C 139.323 116.197, 143.441 117.984, 146.103 123.202 C 148.402 127.709, 150.975 128.118, 153.870 124.438 C 158.709 118.286, 158.748 110.299, 153.956 106.917 C 151.370 105.092, 140.741 103.780, 125 103.341 C 114.528 103.049, 113 102.867, 113 101.913 C 113 100.749, 118.979 99.676, 124.225 99.897 C 130.974 100.182, 136.306 96.897, 135.440 92.988 C 135.198 91.895, 134.804 90.117, 134.565 89.037 C 133.778 85.489, 130.773 79.954, 128.936 78.668 C 127.717 77.814, 127.416 76.945, 128.006 75.990 C 128.642 74.961, 131.697 74.473, 139.190 74.202 C 147.143 73.915, 149.785 73.463, 150.747 72.227 C 152.551 69.910, 150.359 67.013, 144.758 64.312 C 139.252 61.657, 123.877 59.708, 120.063 61.182 C 116.207 62.673, 106.117 61.208, 101.124 58.432 C 96.595 55.915, 91.584 55.246, 90.491 57.014 C 89.240 59.039, 82.435 61.712, 79.500 61.332 C 76.383 60.929, 71 59.049, 71 58.365 C 71 58.149, 72.013 56.421, 73.250 54.526 C 76.952 48.856, 78.483 48.478, 96.871 48.696 C 112.960 48.886, 113.596 48.974, 118.989 51.755 L 124.542 54.619 129.844 51.722 C 134.481 49.187, 136.275 48.804, 144.161 48.662 C 152.328 48.515, 153.357 48.278, 155.088 46.139 C 157.490 43.174, 157.485 43.119, 154.590 39.500 C 152.267 36.596, 151.909 36.497, 143.420 36.393 C 135.426 36.296, 134.484 36.075, 132.770 33.893 C 125.660 24.843, 123.393 24.194, 117.432 29.499 C 114.533 32.079, 112.580 33, 110 33.003 C 108.075 33.005, 105.027 33.906, 103.226 35.004 C 99.144 37.492, 97.797 37.492, 91.239 34.999 C 88.346 33.900, 84.734 33, 83.212 33 C 79.482 33, 76.086 30.450, 74.381 26.369 C 72.440 21.725, 68.243 21.676, 64.115 26.250 M 73 88.500 C 73 89.325, 73.787 90.026, 74.750 90.058 C 75.713 90.089, 78.300 90.306, 80.500 90.539 C 82.700 90.772, 85.365 90.691, 86.423 90.359 C 88.211 89.798, 88.176 89.662, 85.923 88.413 C 82.435 86.481, 73 86.544, 73 88.500 M 71.193 120.968 C 66.373 121.511, 63.010 123.620, 64.803 124.974 C 65.186 125.263, 65.598 126.019, 65.718 126.653 C 65.837 127.287, 67.308 129.309, 68.986 131.146 C 71.690 134.106, 72.575 134.467, 76.768 134.315 C 79.371 134.220, 83.594 133.844, 86.153 133.479 C 90.426 132.868, 90.870 133.006, 91.584 135.157 C 92.748 138.661, 92.066 142.931, 89.535 147.979 C 88.289 150.466, 87.398 153.317, 87.556 154.316 C 88.056 157.485, 93.139 160.997, 97.227 160.999 C 102.569 161.001, 104.204 158.029, 105.010 146.855 C 105.841 135.335, 106.331 134.842, 117.745 134.018 C 122.601 133.668, 127.120 133.044, 127.787 132.632 C 128.466 132.212, 129 129.761, 129 127.062 C 129 122.726, 128.724 122.137, 126.250 121.192 C 123.330 120.077, 80.636 119.903, 71.193 120.968" stroke="none" fill="black" fill-rule="evenodd"/>
</svg>