<svg xmlns="http://www.w3.org/2000/svg" width="256" height="256" viewBox="0 0 256 256" version="1.1">
	<path d="M 61.805 30 L 56.563 35 48.732 35 C 38.867 35, 35 36.711, 35 41.077 C 35 45.835, 40.959 47.735, 53.598 47.005 C 59.496 46.664, 61.422 47.558, 64.563 52.091 C 68.942 58.410, 70.194 58.641, 74.886 53.995 C 77.106 51.798, 79.502 49.967, 80.211 49.927 C 84.913 49.658, 100.501 50.031, 105.500 50.531 C 112.223 51.204, 115.201 52.374, 119.278 55.947 C 123.281 59.455, 124.495 59.301, 128.454 54.785 L 131.984 50.758 142.887 50.129 C 151.616 49.625, 154.211 49.120, 155.896 47.595 C 162.484 41.631, 150.978 34.703, 139.670 37.826 C 135.411 39.001, 130 37.688, 130 35.479 C 130 33.145, 124.914 28, 122.607 28 C 121.389 28, 118.866 29.574, 117 31.500 C 114.893 33.674, 112.640 35.008, 111.054 35.022 C 109.649 35.034, 106.538 35.934, 104.141 37.022 C 98.769 39.459, 98.071 39.464, 91.103 37.098 C 88.021 36.052, 83.596 34.686, 81.270 34.064 C 78.309 33.271, 76.082 31.741, 73.852 28.966 C 72.099 26.785, 69.851 25, 68.856 25 C 67.861 25, 64.688 27.250, 61.805 30 M 87.281 59.649 C 84.961 61.606, 82.036 63.222, 80.781 63.240 C 75.713 63.313, 66.970 62.795, 57.482 61.860 C 41.524 60.288, 38.871 62.366, 38.365 76.828 C 37.967 88.230, 38.539 90.846, 41.599 91.614 C 44.664 92.383, 49.748 90.339, 51.113 87.788 C 51.684 86.722, 51.858 84.117, 51.500 81.998 C 50.926 78.603, 51.154 77.945, 53.416 76.463 C 55.511 75.090, 57.413 74.896, 63.742 75.407 C 68.009 75.752, 75.100 76.300, 79.500 76.625 C 83.900 76.949, 87.775 77.655, 88.112 78.193 C 88.448 78.731, 89.011 79.132, 89.362 79.085 C 91.405 78.812, 92.039 79.128, 91.429 80.115 C 90.972 80.854, 89.179 80.984, 86.120 80.501 C 76.861 79.037, 72.776 79.200, 69.446 81.164 C 66.258 83.045, 64.650 85.960, 65.873 87.641 C 67.796 90.284, 73.905 91.886, 84.360 92.490 C 88.133 92.708, 91.470 93.137, 91.776 93.443 C 93.197 94.863, 90.103 95.338, 78.912 95.416 C 67.392 95.496, 66.731 95.613, 64.871 97.911 C 63.531 99.566, 62.943 101.762, 62.996 104.911 C 63.038 107.435, 62.813 114.450, 62.497 120.500 C 61.858 132.703, 61.922 132.886, 68.409 137.263 C 71.249 139.179, 72.784 139.651, 74.023 138.988 C 74.966 138.483, 87.073 138.209, 101.114 138.374 C 116.118 138.550, 127.400 138.274, 128.700 137.698 C 131.733 136.356, 132.649 132.790, 132.222 124 C 132.021 119.875, 131.848 113.385, 131.839 109.578 C 131.821 102.571, 130.654 99.415, 126.776 95.883 C 124.689 93.982, 124.512 93.007, 126.250 92.983 C 127.914 92.960, 131.967 87.077, 131.377 85.540 C 131.121 84.874, 129.342 83.580, 127.422 82.664 C 124.702 81.367, 120.962 81, 110.466 81 C 97.667 81, 97 80.901, 97 79 C 97 76.774, 98.097 76.681, 124.161 76.680 C 138.393 76.680, 140.655 77.570, 139.596 82.757 C 138.938 85.980, 140.169 87.771, 145.118 90.792 C 149.377 93.391, 152.706 93.595, 155.777 91.443 C 158.406 89.602, 158.839 83.941, 156.500 82 C 155.675 81.315, 155 79.663, 155 78.328 C 155 70.218, 146.402 64.133, 134.815 64.044 C 131.688 64.020, 127.900 63.532, 126.396 62.960 C 124.295 62.162, 122.556 62.319, 118.890 63.637 C 113.037 65.741, 108.758 64.743, 101.120 59.488 C 98.330 57.570, 95.025 56.020, 93.774 56.045 C 92.523 56.070, 89.601 57.691, 87.281 59.649 M 99 93.393 C 99 93.609, 99.675 94.045, 100.500 94.362 C 101.325 94.678, 102 94.501, 102 93.969 C 102 93.436, 101.325 93, 100.500 93 C 99.675 93, 99 93.177, 99 93.393 M 111 93.800 C 111 96.821, 117.086 98.010, 120.250 95.608 C 123.048 93.484, 122.352 93, 116.500 93 C 113.475 93, 111 93.360, 111 93.800 M 77.335 106.779 C 74.842 107.168, 73.808 109.072, 75.023 111.037 C 76.336 113.161, 114.824 113.325, 117.246 111.217 C 120.901 108.035, 117.727 107.148, 102.186 107.009 C 94.109 106.937, 85.700 106.779, 83.500 106.659 C 81.300 106.539, 78.526 106.593, 77.335 106.779 M 99 124.054 C 99 124.451, 95.131 124.795, 90.401 124.820 C 85.672 124.844, 81.547 125.120, 81.234 125.432 C 80.105 126.561, 113.460 126.960, 115.227 125.838 C 115.942 125.385, 113.323 125.024, 109.250 125.015 C 105.263 125.007, 102 124.625, 102 124.167 C 102 123.708, 101.325 123.333, 100.500 123.333 C 99.675 123.333, 99 123.658, 99 124.054 M 44.228 143.179 C 41.811 144.398, 40.404 148.004, 41.367 150.513 C 42.165 152.593, 46.426 154.061, 52.991 154.516 C 94.322 157.383, 132.139 157.964, 146.348 155.952 C 154.731 154.765, 157.897 152.544, 156.071 149.132 C 154.127 145.501, 149.506 143.854, 141.671 144.001 C 135.772 144.111, 109.240 143.647, 69 142.730 C 65.425 142.648, 61.150 142.735, 59.500 142.922 C 57.850 143.109, 54.250 142.986, 51.500 142.648 C 48.484 142.277, 45.599 142.488, 44.228 143.179" stroke="none" fill="black" fill-rule="evenodd"/>
</svg>