<svg xmlns="http://www.w3.org/2000/svg" width="256" height="256" viewBox="0 0 256 256" version="1.1">
	<path d="M 64.223 30.750 L 58.869 36.500 49.185 36.500 C 38.676 36.500, 35.392 37.665, 34.351 41.763 C 34.035 43.008, 34.306 44.664, 34.954 45.444 C 36.800 47.669, 45.752 49.146, 53.039 48.428 L 59.623 47.779 64.372 51.889 C 66.984 54.150, 69.684 56, 70.372 56 C 71.060 56, 72.688 54.988, 73.991 53.750 C 79.489 48.526, 81.027 48.013, 91.236 48.007 C 96.590 48.003, 102.890 48.424, 105.236 48.943 C 116.999 51.545, 123.924 52.017, 128.247 50.511 C 130.815 49.616, 136.263 49.018, 142 49 C 155.178 48.959, 159.199 46.478, 155.944 40.395 C 154.177 37.094, 149.094 35.729, 140.567 36.264 C 133.089 36.733, 130 35.941, 130 33.553 C 130 31.421, 124.747 26, 122.681 26 C 121.650 26, 118.762 27.800, 116.263 30 C 113.763 32.200, 110.994 33.998, 110.109 33.995 C 109.224 33.992, 106.362 34.756, 103.750 35.693 C 99.271 37.298, 98.727 37.297, 94.221 35.677 C 91.593 34.731, 87.060 33.676, 84.149 33.331 C 79.811 32.818, 78.131 32.009, 74.846 28.852 C 72.641 26.733, 70.553 25, 70.207 25 C 69.860 25, 67.167 27.587, 64.223 30.750 M 102.366 54.919 C 100.642 55.970, 97.945 58.556, 96.372 60.665 C 94.799 62.774, 92.859 64.909, 92.061 65.409 C 89.245 67.173, 86 71.315, 86 73.146 C 86 74.873, 87.557 75.496, 90.795 75.064 C 91.506 74.970, 93.644 75.853, 95.545 77.028 C 98.941 79.127, 100.056 81, 97.909 81 C 97.309 81, 94.982 82.571, 92.739 84.491 C 90.496 86.412, 87.398 88.542, 85.855 89.225 C 82.739 90.604, 80.503 94.860, 81.404 97.698 C 82.375 100.758, 90.840 109, 93.011 109 C 93.555 109, 94 109.450, 94 110 C 94 110.550, 95.323 111, 96.941 111 C 98.559 111, 100.160 110.550, 100.500 110 C 101.393 108.555, 107.305 108.771, 109.431 110.326 C 111.732 112.008, 110.779 115.563, 107.821 116.337 C 106.658 116.641, 103.934 116.278, 101.767 115.532 C 98.145 114.284, 97.664 114.336, 95.826 116.174 C 93.901 118.099, 93.850 119.841, 95.588 124.369 C 95.949 125.308, 95.185 126.851, 93.661 128.263 C 92.272 129.550, 91.443 131.051, 91.818 131.599 C 92.734 132.937, 102.781 137, 105.173 137 C 108.553 137, 114.992 140.857, 114.360 142.504 C 114.044 143.327, 112.934 144, 111.893 144 C 110.852 144, 110 144.466, 110 145.035 C 110 145.706, 109.385 145.745, 108.250 145.147 C 107.287 144.638, 103.125 144.004, 99 143.737 C 91.089 143.225, 85.409 141.406, 83.128 138.655 C 82.373 137.745, 81.185 137, 80.489 137 C 79.792 137, 79.285 136.217, 79.361 135.259 C 79.457 134.059, 78.569 133.361, 76.500 133.009 C 74.850 132.729, 72.272 131.667, 70.771 130.649 C 68.434 129.063, 68.122 128.301, 68.595 125.328 C 68.898 123.419, 70.463 119.457, 72.073 116.524 C 73.683 113.590, 75 110.288, 75 109.184 C 75 106.962, 70.264 102.520, 66.755 101.451 C 59.915 99.366, 58.974 93.607, 64.838 89.726 C 66.950 88.329, 69.987 87.035, 71.588 86.851 C 74.686 86.494, 77.542 84.019, 78.562 80.806 C 79.416 78.115, 78.869 77.788, 71.948 76.841 C 62.461 75.544, 61.629 74.816, 62.375 68.465 C 62.720 65.533, 62.562 61.979, 62.026 60.567 C 60.586 56.782, 54.239 56.921, 49.860 60.834 C 46.883 63.494, 46.759 63.871, 47.844 66.983 C 49.407 71.466, 49.460 71.260, 45.500 76 C 43.575 78.304, 42 81.271, 42 82.592 C 42 83.965, 43.500 86.586, 45.500 88.706 C 47.425 90.747, 49 93.222, 49 94.206 C 49 95.190, 47.425 97.665, 45.500 99.706 C 39.223 106.361, 41.558 113, 50.177 113 C 53.645 113, 53.955 113.246, 54.561 116.473 C 55.932 123.779, 51.293 134.009, 46.615 133.997 C 46.002 133.996, 43.594 135.004, 41.264 136.238 C 35.340 139.376, 33.200 145.986, 36.557 150.777 C 39.018 154.292, 43.449 153.677, 50.301 148.870 C 55.962 144.899, 56.418 144.760, 62.109 145.276 C 67.930 145.804, 75.407 148.862, 77.457 151.553 C 78.031 152.306, 81.425 153.385, 85 153.951 C 88.575 154.516, 93.975 155.938, 97 157.110 C 102.124 159.096, 103.627 159.195, 119 158.559 C 148.742 157.329, 154.344 156.620, 157.021 153.747 C 158.109 152.579, 159 150.430, 159 148.972 C 159 145.759, 156.668 144.523, 147.639 142.951 C 142.061 141.979, 140.784 142.061, 137.861 143.578 C 133.910 145.629, 126.765 145.879, 124.553 144.044 C 122.398 142.255, 122.577 141.681, 125.904 139.716 C 128.036 138.457, 131.074 138, 137.323 138 C 142.005 138, 146.548 137.727, 147.418 137.393 C 149.439 136.617, 149.494 131.655, 147.500 130 C 146.589 129.244, 146 127.054, 146 124.423 C 146 118.583, 142.572 114.931, 137.786 115.672 C 135.979 115.952, 134.350 116.590, 134.167 117.090 C 133.580 118.690, 131.414 118.070, 129.141 115.650 C 126.023 112.331, 128.070 110.974, 135.876 111.189 C 145.459 111.453, 147.641 107.457, 141.183 101.469 C 139.172 99.604, 137.417 98.999, 134.010 98.996 C 131.112 98.994, 128.249 98.211, 126 96.807 C 121.114 93.756, 120.191 93.734, 114.223 96.529 C 107.421 99.714, 104.750 99.779, 105.180 96.750 C 105.400 95.205, 107.176 93.602, 110.849 91.633 C 117.655 87.986, 127.507 87.365, 130.534 90.391 C 133.564 93.421, 147.082 99.301, 152.133 99.787 C 155.940 100.153, 157.162 99.838, 158.971 98.029 C 163.946 93.054, 158.233 86.473, 145.825 82.888 C 141.394 81.608, 137.546 79.981, 137.274 79.272 C 137.002 78.564, 137.617 76.795, 138.640 75.341 C 144.669 66.774, 145.141 63.442, 140.734 60.569 C 137.969 58.767, 126.960 56.636, 121.228 56.793 C 118.878 56.857, 114.903 56.030, 112.395 54.955 C 106.774 52.545, 106.261 52.544, 102.366 54.919 M 112.444 69.091 C 112.234 69.431, 113.119 70.702, 114.410 71.916 C 116.673 74.042, 124.163 75.170, 125.715 73.619 C 126.055 73.278, 125.358 73, 124.167 73 C 122.975 73, 122.053 72.662, 122.118 72.250 C 122.496 69.861, 121.535 69.164, 117.413 68.837 C 114.891 68.636, 112.654 68.750, 112.444 69.091 M 130.750 125.662 C 131.438 125.940, 132.563 125.940, 133.250 125.662 C 133.938 125.385, 133.375 125.158, 132 125.158 C 130.625 125.158, 130.063 125.385, 130.750 125.662" stroke="none" fill="black" fill-rule="evenodd"/>
</svg>