<svg xmlns="http://www.w3.org/2000/svg" width="256" height="256" viewBox="0 0 256 256" version="1.1">
	<path d="M 62 31 L 56.431 37 48.792 37 C 42.096 37, 40.785 37.310, 38.173 39.508 C 31.588 45.048, 38.157 49.637, 51.040 48.496 C 59.265 47.768, 59.476 47.860, 67.821 55.750 C 69.930 57.744, 72.393 57.220, 75.984 54.015 C 79.834 50.577, 82.132 50.052, 94.500 49.786 C 104.631 49.568, 109.209 50.280, 116.623 53.227 L 121.746 55.263 127.494 52.631 C 132.381 50.394, 134.625 50, 142.486 50 C 150.324 50, 152.131 49.685, 154.365 47.927 C 157.676 45.323, 157.685 43.594, 154.404 40.313 C 151.891 37.800, 151.517 37.735, 142.636 38.265 C 132.346 38.879, 130.652 38.244, 129.582 33.374 C 128.916 30.340, 125.776 28, 122.371 28 C 121.527 28, 118.915 29.575, 116.565 31.500 C 113.662 33.879, 111.270 35, 109.097 35 C 107.339 35, 104.586 35.680, 102.978 36.511 C 100.598 37.742, 99.262 37.814, 95.778 36.899 C 93.425 36.281, 88.275 35.488, 84.332 35.138 C 80.390 34.787, 76.963 34.275, 76.717 34 C 76.471 33.725, 75.078 31.587, 73.622 29.250 C 72.166 26.913, 70.209 25, 69.272 25 C 68.336 25, 65.063 27.700, 62 31 M 87.500 62.523 C 84.757 64.886, 82.494 65.975, 80.299 65.985 C 78.539 65.993, 74.724 66.509, 71.822 67.132 C 67.777 67.999, 64.260 67.961, 56.759 66.968 L 46.972 65.673 43.326 68.624 C 38.472 72.553, 38.359 74.493, 42.810 77.517 L 46.450 79.991 66.475 79.377 C 85.823 78.785, 86.573 78.834, 88.666 80.843 C 93.239 85.231, 92.580 104.549, 87.770 107.123 C 86.153 107.989, 85.227 107.783, 83.125 106.093 C 81.681 104.931, 78.879 102.897, 76.897 101.571 C 73.870 99.546, 73.191 98.412, 72.652 94.477 C 72.299 91.901, 72.214 89.462, 72.464 89.058 C 73.070 88.078, 65.294 83.757, 62.342 83.433 C 59.767 83.151, 57.275 86.066, 55.019 92 C 54.287 93.925, 52.271 97.075, 50.540 99 C 45.435 104.676, 44.764 105.823, 43.954 110.254 C 42.454 118.456, 47.627 120.924, 52.707 114.431 C 57.944 107.738, 65.098 106.007, 69.467 110.376 C 70.774 111.683, 73.228 113.738, 74.921 114.944 C 76.615 116.150, 78 117.616, 78 118.202 C 78 119.262, 75.901 121.620, 65.804 131.899 C 62.828 134.928, 56.549 139.548, 51.500 142.421 C 43.422 147.018, 42.468 147.868, 42.191 150.710 C 41.948 153.206, 42.433 154.238, 44.480 155.579 C 46.929 157.183, 47.505 157.180, 54.555 155.519 C 59.426 154.372, 63.474 152.667, 66.164 150.629 C 68.435 148.908, 71.240 146.855, 72.397 146.067 C 77.166 142.817, 82.300 137.241, 84.199 133.250 C 85.700 130.094, 86.804 129, 88.488 129 C 92.628 129, 93.467 131.451, 94 145.115 C 94.549 159.177, 95.248 160.901, 100.567 161.288 C 102.992 161.464, 103.790 160.906, 105.276 158 C 106.793 155.034, 106.965 153.020, 106.408 144.800 L 105.750 135.101 108.554 134.397 C 111.925 133.551, 117.296 136.148, 124.518 142.116 C 133.631 149.647, 142.314 154.127, 148.962 154.730 L 155 155.278 155 151.186 C 155 148.935, 154.527 146.057, 153.950 144.789 C 152.595 141.816, 141.777 134.791, 136.564 133.500 C 133.704 132.791, 131.941 131.564, 130.514 129.289 C 129.406 127.522, 127.950 126.060, 127.277 126.039 C 126.604 126.017, 124.129 124.922, 121.777 123.605 C 116.305 120.541, 115.709 117.719, 120.060 115.469 C 121.812 114.563, 124.779 112.287, 126.656 110.411 C 130.698 106.369, 134.161 106.021, 140.117 109.059 C 142.337 110.192, 145.131 110.980, 146.327 110.809 C 151.561 110.064, 147.630 100.872, 140.955 98.250 C 138.780 97.396, 137 96.283, 137 95.777 C 137 95.271, 136.326 94.183, 135.502 93.359 C 134.677 92.534, 133.704 90.669, 133.339 89.214 C 132.973 87.758, 131.848 85.680, 130.837 84.595 C 129.827 83.510, 129 82.334, 129 81.980 C 129 80.106, 134.746 78.712, 142.893 78.611 C 148.198 78.546, 152.373 78.027, 153.050 77.351 C 155.028 75.371, 153.142 72.395, 148.205 69.708 C 142.242 66.463, 139.045 65.873, 134.387 67.159 C 131.451 67.969, 129.938 67.825, 126.865 66.439 C 123.724 65.023, 121.260 64.810, 113.420 65.278 L 103.821 65.850 99.334 62.425 C 96.866 60.541, 94.094 59.017, 93.173 59.038 C 92.253 59.058, 89.700 60.627, 87.500 62.523 M 108.360 80.171 C 106.650 80.999, 105.911 82.891, 104.682 89.582 C 101.671 105.981, 106.458 112.550, 114.560 103.137 C 118.035 99.101, 119.603 81.641, 116.659 79.768 C 115.040 78.738, 110.906 78.939, 108.360 80.171" stroke="none" fill="black" fill-rule="evenodd"/>
</svg>