<svg xmlns="http://www.w3.org/2000/svg" width="256" height="256" viewBox="0 0 256 256" version="1.1">
	<path d="M 66.841 29.543 C 61.104 34.440, 61.629 34.278, 51 34.422 C 43.044 34.530, 39.033 36.201, 36.825 40.327 C 35.902 42.052, 36.177 42.756, 38.584 44.826 C 41.357 47.211, 41.748 47.262, 52.606 46.642 L 63.776 46.004 67.388 49.723 C 69.375 51.768, 71 53.737, 71 54.098 C 71 55.725, 67.748 57.160, 63.520 57.399 C 56.852 57.775, 55.571 59.517, 55.146 68.786 C 54.540 81.977, 54.478 94.351, 55 97.942 C 55.425 100.865, 55.123 101.576, 53 102.654 C 51.625 103.353, 48.792 104.190, 46.705 104.516 C 41.428 105.339, 40.403 108.286, 42.494 116.623 C 43.360 120.077, 43.997 124.388, 43.910 126.202 C 43.822 128.016, 44.101 135.308, 44.530 142.408 C 45.252 154.354, 45.503 155.527, 47.905 158.164 C 50.113 160.589, 50.937 160.893, 53.432 160.203 C 58.422 158.824, 59.993 155.497, 58.959 148.500 C 58.471 145.200, 57.776 138.218, 57.415 132.984 C 56.764 123.543, 56.778 123.457, 59.278 122.119 C 60.809 121.300, 63.308 120.987, 65.649 121.323 C 79.539 123.315, 79.805 123.312, 83.493 121.136 C 86.467 119.382, 87.400 119.233, 89.035 120.254 C 90.116 120.929, 91.068 122.385, 91.151 123.491 C 91.442 127.368, 90.804 131.513, 89.713 132.837 C 88.651 134.126, 87.587 134.091, 79.500 132.507 C 75.611 131.745, 70.451 134.860, 69.779 138.375 C 69.487 139.904, 70.057 142.208, 71.186 144.066 C 73.024 147.088, 73.250 147.167, 78.292 146.538 C 81.157 146.181, 90.867 145.681, 99.870 145.427 C 115.805 144.976, 116.436 145.036, 123.588 147.696 C 129.293 149.817, 131.182 151.025, 132.040 153.097 C 133.618 156.907, 138.074 160.865, 141.574 161.565 C 146.625 162.575, 149.030 159.702, 150.029 151.466 C 150.493 147.635, 151.379 140.450, 151.998 135.500 C 153.155 126.245, 152.713 117.568, 150.842 112.774 C 149.752 109.984, 145.002 108.189, 140.500 108.866 C 132.884 110.012, 129 110.090, 129 109.097 C 129 107.798, 126.815 108.071, 125.765 109.500 C 125.314 110.114, 125.025 110.004, 125.015 109.215 C 125.005 108.333, 124.450 108.198, 123.250 108.783 C 120.429 110.159, 114.022 110.263, 112.450 108.958 C 110.875 107.652, 110.422 105.525, 111.915 106.447 C 112.418 106.758, 113.010 106.469, 113.231 105.806 C 113.535 104.895, 114.985 104.844, 119.138 105.597 C 124.804 106.624, 130.944 105.706, 135.804 103.105 C 140.059 100.828, 140.159 99.552, 138.574 67.718 C 138.283 61.879, 137.492 61.021, 131.345 59.872 C 128.523 59.345, 125.528 57.982, 124.140 56.594 L 121.764 54.218 125.632 50.551 C 128.626 47.712, 130.065 47.008, 132 47.436 C 138.893 48.958, 144.235 49.143, 148.911 48.021 C 155.832 46.361, 157.879 42.542, 154.250 38.061 C 151.572 34.754, 145.501 33.814, 137.125 35.410 L 129.985 36.771 127.369 33.635 C 121.702 26.845, 118.555 26.575, 108.258 32 C 104.083 34.200, 99.729 36.001, 98.583 36.003 C 96.090 36.006, 85.707 32.005, 77.781 27.987 L 72.062 25.087 66.841 29.543 M 82 49.421 C 80.625 50.246, 78.487 51.461, 77.250 52.121 C 71.363 55.261, 77.557 56.934, 96.210 57.241 C 109.717 57.464, 112.153 57.268, 113.578 55.846 C 115.586 53.843, 114.972 52.668, 110.730 50.398 C 106.175 47.961, 85.600 47.261, 82 49.421 M 66.704 69.146 C 64.638 70.302, 64.482 73.325, 66.405 74.921 C 67.178 75.563, 70.577 76.150, 73.959 76.226 C 77.341 76.303, 80.335 76.733, 80.613 77.183 C 81.251 78.215, 86 78.263, 86 77.237 C 86 76.818, 87.013 76.030, 88.250 75.487 C 89.487 74.944, 90.640 73.513, 90.812 72.307 C 91.068 70.508, 90.528 70.020, 87.812 69.589 C 80.900 68.495, 68.339 68.231, 66.704 69.146 M 107.352 69.993 C 103.863 71.401, 103.569 73.024, 106.307 75.762 C 108.510 77.964, 109.743 78.318, 115.284 78.333 C 120.481 78.348, 122.145 77.942, 124.005 76.210 C 125.269 75.033, 126.685 74.305, 127.151 74.594 C 127.618 74.882, 128 74.718, 128 74.228 C 128 73, 124.389 71.372, 118.807 70.084 C 113.324 68.817, 110.325 68.794, 107.352 69.993 M 67.436 88.250 L 67.500 91.500 74 91.581 C 77.575 91.625, 81.544 92.220, 82.820 92.903 C 84.842 93.986, 85.387 93.860, 87.070 91.920 C 89.394 89.239, 89.388 89.753, 87.133 87.153 C 85.155 84.873, 82.529 84.335, 81.500 86 C 81.160 86.550, 79.810 87, 78.500 87 C 77.190 87, 75.840 86.550, 75.500 86 C 75.160 85.450, 73.192 85, 71.127 85 C 67.544 85, 67.375 85.149, 67.436 88.250 M 109.250 88.220 C 106.675 89.462, 106.582 89.866, 108.333 92.169 C 110.073 94.458, 120.947 94.396, 122.718 92.088 C 124.587 89.652, 124.296 89.176, 120.250 88.053 C 115.596 86.760, 112.170 86.812, 109.250 88.220 M 63.635 102.073 C 57.927 106.563, 62.273 109.448, 72.376 107.875 C 78.535 106.916, 79.104 106.999, 82.569 109.353 C 85.224 111.157, 86.828 111.629, 88.370 111.059 C 89.541 110.626, 90.388 109.985, 90.250 109.635 C 90.112 109.286, 90 108.176, 90 107.169 C 90 104.205, 85.714 102.461, 82.105 103.956 C 79.458 105.053, 78.471 104.895, 73.617 102.599 C 67.002 99.469, 66.948 99.466, 63.635 102.073 M 128.385 122.351 C 124.560 126.727, 124.673 129.433, 129.066 138.638 C 131.535 143.812, 132.545 145, 134.474 145 C 136.281 145, 137.110 144.196, 137.961 141.617 C 138.576 139.756, 138.969 137.844, 138.835 137.367 C 138.701 136.890, 138.925 134.131, 139.332 131.236 C 140.297 124.374, 138.233 121.060, 133 121.069 C 131.075 121.073, 128.998 121.650, 128.385 122.351 M 107.250 123.099 C 105.502 123.749, 105 124.720, 105 127.449 C 105 130.326, 105.436 131.071, 107.407 131.566 C 110.666 132.384, 114.003 130.430, 113.985 127.715 C 113.956 123.580, 111.143 121.652, 107.250 123.099" stroke="none" fill="black" fill-rule="evenodd"/>
</svg>