<svg xmlns="http://www.w3.org/2000/svg" width="256" height="256" viewBox="0 0 256 256" version="1.1">
	<path d="M 65.846 27.250 L 61.298 32.500 49.684 33 C 40.344 33.402, 37.723 33.848, 36.295 35.276 C 34.679 36.892, 34.655 37.295, 36.026 39.737 C 38.261 43.720, 44.497 45.268, 55.180 44.491 C 63.094 43.916, 64.044 44.044, 65.930 45.930 C 70.128 50.128, 68.267 53.740, 61.446 54.631 C 54.610 55.524, 53.250 56.433, 51.874 61.025 C 50.790 64.644, 50.207 65.158, 45.657 66.509 C 42.896 67.329, 40.156 68.010, 39.568 68.022 C 38.981 68.034, 37.406 68.886, 36.068 69.914 L 33.636 71.783 36.568 74.359 C 39.179 76.654, 44.722 79.025, 50.500 80.320 C 52.384 80.742, 52.376 80.775, 50.367 80.884 C 46.797 81.078, 45.527 89, 49.066 89 C 50.202 89, 51.917 89.421, 52.878 89.934 C 53.838 90.448, 56.846 91.141, 59.562 91.474 C 62.278 91.806, 67.311 92.428, 70.746 92.855 C 75.242 93.414, 78.153 93.239, 81.138 92.230 C 85.130 90.881, 85.378 90.923, 87.820 93.365 C 90.409 95.955, 90.544 96.872, 91.129 115.832 C 91.206 118.299, 87.967 122.022, 85.792 121.968 C 85.081 121.951, 83.219 120.810, 81.653 119.433 C 78.852 116.969, 78.832 116.875, 80.403 113.563 C 84.005 105.972, 81.558 98, 75.624 98 C 71.238 98, 67.800 101.987, 67.226 107.738 C 66.864 111.373, 67.204 112.477, 69.349 114.622 C 70.755 116.027, 72.285 116.942, 72.750 116.655 C 73.215 116.367, 74.249 116.545, 75.048 117.051 C 76.127 117.734, 75.730 117.994, 73.500 118.066 C 71.850 118.119, 69.195 118.256, 67.601 118.371 C 62.772 118.718, 60.516 116.019, 60.417 109.773 C 60.363 106.412, 59.619 103.164, 58.450 101.184 C 56.763 98.330, 56.086 98, 51.907 98 C 45.177 98, 44.192 99.570, 46.206 107.087 C 47.079 110.344, 47.449 113.223, 47.028 113.483 C 46.607 113.743, 45.975 115.754, 45.624 117.951 C 45.272 120.148, 42.963 127.380, 40.492 134.020 C 35.822 146.573, 34.924 152.862, 37.499 154.999 C 39.500 156.660, 43.763 154.909, 47.633 150.838 C 51.794 146.460, 55.206 145, 61.276 145 C 67.225 145, 68.939 146.257, 72.533 153.256 C 74.870 157.809, 77.417 158.836, 80.182 156.340 C 81.998 154.701, 82.168 153.628, 81.743 146.500 C 81.480 142.100, 80.940 137.733, 80.543 136.794 C 79.584 134.533, 84.092 130, 87.300 130 C 88.614 130, 90.449 130.838, 91.376 131.863 C 93.862 134.610, 94.524 142.677, 92.704 148.027 C 91.867 150.487, 91.591 152.650, 92.091 152.833 C 92.591 153.017, 93 153.726, 93 154.409 C 93 156.320, 97.384 160, 99.659 160 C 103.990 160, 105.069 157.062, 105.292 144.672 C 105.487 133.794, 105.634 133.033, 107.712 132.086 C 110.034 131.027, 117.007 132.668, 115.346 133.881 C 114.017 134.853, 113.653 136.949, 113.415 145 C 113.131 154.574, 114.455 157, 119.964 157 C 124.455 157, 125.521 155.831, 125.134 151.334 C 124.778 147.197, 128.197 144.734, 133.674 145.185 C 136.913 145.452, 137.543 145.884, 137.780 148 C 138.347 153.065, 139.057 154.914, 141.589 157.923 C 143.071 159.685, 145.142 161, 146.434 161 C 149.309 161, 152.237 157.797, 152.094 154.808 C 152.033 153.539, 151.794 146.077, 151.564 138.227 C 151.280 128.530, 150.608 122.334, 149.467 118.901 C 148.270 115.298, 147.978 112.331, 148.449 108.565 C 149.045 103.790, 148.850 102.976, 146.420 100.088 C 143.340 96.427, 139.234 96.156, 137.523 99.500 C 136.960 100.600, 136.062 102.175, 135.528 103 C 134.993 103.825, 134.477 105.020, 134.380 105.656 C 134.098 107.512, 132.064 110.623, 132.030 109.250 C 132.014 108.563, 131.331 108, 130.513 108 C 129.694 108, 127.875 106.179, 126.470 103.952 C 123.810 99.739, 123.142 99.265, 119 98.655 C 113.522 97.848, 109.376 102.240, 111.430 106.673 C 112.018 107.944, 112.838 108.988, 113.250 108.992 C 113.662 108.996, 114 109.498, 114 110.106 C 114 110.714, 115.169 112.600, 116.597 114.298 C 119.559 117.818, 119.256 118.113, 111.286 119.454 C 107.590 120.076, 106.758 119.849, 104.512 117.603 C 102.450 115.541, 102.097 114.503, 102.702 112.271 C 103.115 110.747, 103.371 106.845, 103.271 103.600 C 102.974 93.918, 102.322 94.234, 121.889 94.591 C 137.667 94.878, 139.038 94.758, 141.429 92.877 C 143.136 91.534, 144 89.879, 144 87.950 C 144 84.773, 146.387 82.732, 151.494 81.539 C 155.520 80.598, 157 79.218, 157 76.403 C 157 73.932, 152.806 71, 149.272 71 C 145.982 71, 143.203 68.161, 142.517 64.098 C 141.430 57.669, 140.041 56.564, 132.332 56 C 125.816 55.523, 125.486 55.376, 125.191 52.826 C 124.870 50.053, 128.315 45, 130.527 45 C 131.168 45, 133.078 45.691, 134.771 46.536 C 137.108 47.701, 139.444 47.908, 144.471 47.393 C 155.486 46.264, 158.578 41.899, 152.363 36.250 C 150.453 34.514, 148.703 34.005, 144.694 34.024 C 139.714 34.047, 134.404 34.982, 130.813 36.468 C 129.518 37.003, 128.619 36.158, 126.950 32.833 C 123.992 26.943, 121.111 24, 118.300 24 C 116.812 24, 113.597 26.188, 109.537 29.965 C 106.011 33.246, 102.029 36.206, 100.690 36.542 C 97.472 37.349, 85.317 31.255, 79.559 25.947 C 73.691 20.538, 71.478 20.749, 65.846 27.250 M 79.250 48.944 C 76.192 51.495, 76.424 53.519, 79.941 54.976 C 83.536 56.465, 89.470 54.859, 91.011 51.979 C 93.274 47.751, 83.656 45.268, 79.250 48.944 M 100.250 48.662 C 96.520 50.167, 101.362 55, 106.600 55 C 111.078 55, 112.512 52.927, 109.943 50.169 C 108.014 48.099, 103.417 47.384, 100.250 48.662 M 81.367 67.249 C 81.477 69.514, 81.941 69.978, 84 69.883 C 85.453 69.816, 85.822 69.587, 84.881 69.336 C 83.991 69.098, 82.806 67.913, 82.248 66.702 C 81.283 64.606, 81.240 64.633, 81.367 67.249 M 105 69 C 105 69.550, 106.688 69.993, 108.750 69.985 C 111.539 69.973, 112.116 69.721, 111 69 C 109.029 67.726, 105 67.726, 105 69 M 60.285 78.913 L 57.070 80.711 59.582 81.855 C 62.541 83.203, 68.916 83.340, 70.878 82.096 C 72.492 81.075, 71.529 79, 69.441 79 C 68.648 79, 68 78.550, 68 78 C 68 76.437, 63.829 76.931, 60.285 78.913 M 82.603 78.167 C 82.886 78.625, 81.993 79, 80.618 79 C 79.243 79, 77.816 79.489, 77.446 80.087 C 77.077 80.685, 75.925 80.952, 74.887 80.681 C 73.849 80.409, 73 80.595, 73 81.094 C 73 81.592, 73.805 82, 74.789 82 C 75.772 82, 78.342 82.900, 80.500 84 C 85.327 86.461, 85.230 86.462, 86.819 83.919 C 87.944 82.117, 87.845 81.600, 86.077 80.067 C 84.955 79.094, 84.253 78.080, 84.518 77.815 C 84.783 77.550, 84.345 77.333, 83.544 77.333 C 82.743 77.333, 82.320 77.708, 82.603 78.167 M 106.750 80.327 C 105.787 81.093, 105 82.475, 105 83.397 C 105 84.898, 106.066 85.005, 115.250 84.418 C 124.667 83.816, 128.240 82.907, 126.810 81.477 C 126.505 81.171, 124.735 80.752, 122.877 80.546 C 121.020 80.340, 117.025 79.893, 114 79.553 C 110.031 79.106, 108.013 79.321, 106.750 80.327 M 130.727 116.409 C 129.059 117.674, 129.085 117.789, 131.150 118.329 C 133.905 119.049, 135.078 118.367, 134.349 116.468 C 133.663 114.679, 133.021 114.668, 130.727 116.409 M 59.131 130.874 C 57.110 132.422, 56.932 133.004, 57.916 134.844 C 59.397 137.610, 64.968 137.798, 67.353 135.162 C 68.906 133.447, 68.899 133.222, 67.258 131.781 C 64.346 129.223, 61.677 128.926, 59.131 130.874 M 128.048 129.949 C 127.249 130.455, 126.288 130.678, 125.911 130.445 C 125.535 130.213, 124.993 130.917, 124.707 132.011 C 124.421 133.105, 124.627 134, 125.165 134 C 125.703 134, 126.822 134.679, 127.652 135.509 C 128.482 136.339, 129.575 136.763, 130.081 136.450 C 130.586 136.138, 131 136.359, 131 136.941 C 131 137.523, 131.482 138, 132.071 138 C 134.023 138, 136.400 134.783, 136.602 131.870 C 136.787 129.195, 136.552 129.001, 133.150 129.015 C 131.143 129.024, 128.846 129.444, 128.048 129.949" stroke="none" fill="black" fill-rule="evenodd"/>
</svg>