<svg xmlns="http://www.w3.org/2000/svg" width="256" height="256" viewBox="0 0 256 256" version="1.1">
	<path d="M 61.086 31.089 C 58.286 32.796, 55.852 33.199, 47.540 33.335 C 36.068 33.522, 32 35.136, 32 39.500 C 32 44.328, 41.941 47.173, 51.116 44.972 C 57.418 43.460, 60.300 44.233, 64.676 48.609 L 68.211 52.145 67.583 59.822 C 67.237 64.045, 66.704 71.325, 66.398 76 C 65.770 85.610, 64.826 87, 58.931 87 C 56.904 87, 54.796 86.438, 54.248 85.750 C 53.699 85.063, 53.030 80.077, 52.761 74.671 C 52.221 63.858, 51.183 61.750, 46.400 61.750 C 44.689 61.750, 42.889 62.654, 41.717 64.101 C 40.061 66.146, 39.887 67.561, 40.382 74.976 C 40.694 79.664, 40.933 84.400, 40.913 85.500 C 40.893 86.600, 40.899 88.175, 40.927 89 C 40.955 89.825, 41.010 91.837, 41.050 93.471 C 41.176 98.713, 42.266 99.156, 54.209 98.812 C 66.389 98.462, 67.218 98.871, 66.761 105 C 66.461 109.027, 66.206 109.067, 52.891 107.169 C 46.076 106.198, 44.729 106.295, 39.977 108.101 C 34.442 110.204, 29.721 113, 31.705 113 C 32.338 113, 33.649 114.800, 34.620 117 C 35.591 119.200, 36.636 121.010, 36.942 121.022 C 37.249 121.034, 38.571 121.868, 39.880 122.875 C 42.181 124.644, 42.218 124.886, 40.995 130.103 C 40.299 133.071, 38.934 137.300, 37.963 139.500 C 36.991 141.700, 34.933 146.337, 33.388 149.805 C 31.236 154.636, 30.828 156.506, 31.642 157.805 C 33.282 160.421, 36.368 160.354, 41.836 157.583 C 46.275 155.334, 47.076 154.414, 48.947 149.411 C 51.714 142.016, 52.088 131.860, 49.692 129.212 C 47.020 126.260, 48.586 124.301, 55.438 122.021 C 60.325 120.394, 62.297 120.162, 64.407 120.965 L 67.113 121.993 66.474 136.225 C 66.123 144.053, 65.664 150.734, 65.455 151.072 C 64.777 152.170, 67.032 158.890, 68.609 160.466 C 70.866 162.723, 74.723 162.367, 76.368 159.750 C 77.932 157.260, 82.336 136.889, 82.129 133.101 C 82.057 131.782, 81.604 130.207, 81.122 129.601 C 80.640 128.996, 80.453 126.925, 80.706 125 C 81.682 117.580, 81.935 111.746, 81.816 99.500 C 81.795 97.300, 81.992 93.964, 82.254 92.086 C 82.637 89.338, 82.241 88.251, 80.221 86.513 C 77.996 84.600, 77.803 83.909, 78.524 80.427 C 78.971 78.267, 79.218 76.050, 79.073 75.500 C 78.929 74.950, 78.637 71.036, 78.425 66.802 C 78.213 62.568, 77.775 57.393, 77.450 55.302 C 76.419 48.659, 78.125 47.558, 90.078 47.151 C 101.995 46.746, 110.406 48.150, 116.527 51.567 C 122.209 54.739, 124.206 54.636, 128.401 50.953 C 131.789 47.978, 132.048 47.921, 139.186 48.563 C 147.445 49.306, 154.025 47.975, 157.053 44.947 C 159.470 42.530, 159.477 41.811, 157.119 38.899 C 155.419 36.799, 154.183 36.522, 144.258 36.013 C 133.665 35.470, 133.147 35.337, 129.604 32.225 C 125.319 28.463, 121.674 28.097, 116.198 30.879 C 111.938 33.044, 103.740 35.953, 99.789 36.702 C 98.142 37.014, 95.368 36.388, 92.723 35.108 C 89.802 33.694, 86.415 32.998, 82.434 32.993 C 78.195 32.989, 75.643 32.419, 73.500 31 C 69.639 28.443, 65.376 28.474, 61.086 31.089 M 105.315 58.074 C 103.564 59.196, 101.216 61.663, 100.099 63.557 C 98.979 65.455, 97.259 67, 96.266 67 C 95.275 67, 92.742 68.170, 90.637 69.601 C 86.539 72.385, 86.480 72.754, 88.539 82.626 C 89.072 85.185, 88.770 86.048, 86.873 87.376 C 85.598 88.269, 85.028 89, 85.607 89 C 86.185 89, 86.623 89.998, 86.579 91.217 C 86.525 92.724, 87.700 94.218, 90.250 95.884 C 94.588 98.719, 94.894 100.144, 91.709 102.677 C 89.402 104.513, 89.099 106.848, 90.336 113.250 C 90.853 115.926, 89.566 117.198, 88.767 114.801 C 88.517 114.050, 88.123 114.238, 87.715 115.301 C 87.237 116.545, 87.590 117, 89.031 117 C 90.114 117, 90.947 117.338, 90.882 117.750 C 90.580 119.657, 91.099 121, 92.135 121 C 94.563 121, 97.939 126.002, 97.811 129.409 C 97.685 132.748, 100.743 139.871, 103.752 143.250 C 105.535 145.252, 111.015 145.585, 112.800 143.800 C 115.336 141.264, 112.799 130.628, 109.342 129.301 C 107.175 128.470, 107.779 127.106, 111.250 124.989 C 115.091 122.647, 125.466 122.279, 128.241 124.386 C 129.953 125.686, 129.989 127.308, 128.509 136.650 C 127.936 140.270, 125.503 144.065, 122.939 145.339 C 118.413 147.587, 119.583 155.141, 124.947 158.309 C 128.785 160.577, 130.563 160.446, 135.535 157.532 C 140.621 154.552, 142 150.386, 142 138.008 C 142 125.996, 144.513 122.139, 151.105 124.030 C 155.036 125.157, 159.197 123.432, 159.618 120.500 C 160.432 114.823, 156.968 111.555, 148.674 110.175 C 145.120 109.584, 144.224 108.917, 142.639 105.682 C 141.616 103.592, 139.029 100.724, 136.889 99.308 C 134.750 97.892, 133 96.172, 133 95.485 C 133 94.798, 135.035 92.046, 137.521 89.368 C 140.564 86.092, 141.889 83.875, 141.573 82.588 C 141.258 81.309, 142.244 79.631, 144.551 77.517 C 146.448 75.780, 147.990 73.490, 147.978 72.429 C 147.922 67.630, 140.806 63, 133.485 63 C 130.947 63, 126.762 62.144, 124.185 61.098 C 115.792 57.690, 110.983 56, 109.730 56.017 C 109.053 56.026, 107.067 56.952, 105.315 58.074 M 119 74.917 C 119 75.971, 118.491 77.003, 117.870 77.210 C 117.248 77.417, 119.222 78.431, 122.256 79.462 C 126.995 81.073, 128.211 81.155, 130.886 80.047 C 134.580 78.517, 134.721 77.750, 131.811 75.039 C 128.707 72.147, 119 72.054, 119 74.917 M 103.786 80.553 C 101.022 82.054, 100.930 83.646, 103.415 87 C 104.027 87.825, 104.521 89.625, 104.513 91 C 104.506 92.375, 105.175 93.806, 106 94.180 C 108.175 95.165, 113.274 95.113, 114.892 94.088 C 116.772 92.898, 116.939 85.923, 115.139 83.750 C 114.342 82.787, 114.071 82, 114.536 82 C 115.002 82, 114.509 81.339, 113.441 80.532 C 110.971 78.664, 107.252 78.672, 103.786 80.553 M 116.403 107.252 C 113.608 110.466, 114.453 112, 119.018 112 C 124.813 112, 127.755 110.572, 127.617 107.825 C 127.515 105.798, 126.919 105.462, 122.970 105.204 C 119.250 104.961, 118.076 105.327, 116.403 107.252" stroke="none" fill="black" fill-rule="evenodd"/>
</svg>