<svg xmlns="http://www.w3.org/2000/svg" width="256" height="256" viewBox="0 0 256 256" version="1.1">
	<path d="M 117.238 29.666 C 116.544 29.946, 114.634 32.124, 112.995 34.508 C 109.744 39.232, 104.797 41.605, 100.175 40.656 C 88.441 38.248, 80.468 35.859, 78.651 34.207 C 76.199 31.977, 72.636 30, 71.068 30 C 70.483 30, 68.335 31.575, 66.294 33.500 L 62.583 37 52.542 37.002 C 40.652 37.003, 35.500 38.817, 35.500 43 C 35.500 47.028, 41.080 49.142, 51.727 49.148 C 62.260 49.154, 65.325 50.171, 68.041 54.566 C 69.173 56.398, 70.977 58.175, 72.050 58.516 C 73.122 58.856, 74 59.554, 74 60.067 C 74 62.083, 76.605 60.319, 78.530 57 C 81.154 52.475, 85.643 50.995, 97.010 50.907 C 107.420 50.825, 112 52.549, 112 56.548 C 112 58.431, 110.833 59.794, 107.250 62.096 C 103.130 64.743, 101.903 65.064, 98 64.521 C 95.525 64.177, 89.903 63.752, 85.506 63.578 C 78.479 63.299, 77.240 63.517, 75.273 65.380 C 74.042 66.546, 73.027 68.063, 73.017 68.750 C 73.008 69.438, 72.564 70, 72.031 70 C 71.499 70, 71.285 70.580, 71.558 71.289 C 72.925 74.852, 91.187 76.111, 96.929 73.038 C 99.784 71.510, 104 72.757, 104 75.130 C 104 77.551, 99.609 79.747, 97.780 78.241 C 95.469 76.339, 80.395 78.728, 82.353 80.686 C 82.699 81.032, 82.424 81.989, 81.741 82.811 C 81.059 83.633, 80.434 85.699, 80.353 87.403 C 80.272 89.106, 79.902 95.121, 79.531 100.768 C 79.089 107.509, 79.246 112.216, 79.990 114.469 C 81.557 119.217, 80.182 121.312, 73.493 124.375 C 70.458 125.764, 67.721 127.563, 67.410 128.373 C 66.468 130.829, 70.494 133.808, 75.678 134.491 C 88.217 136.143, 91.463 137.665, 96.557 144.283 C 99.045 147.514, 103.578 148.449, 103.350 145.683 C 103.088 142.513, 109.420 137.201, 114.217 136.565 C 124.804 135.163, 129.072 139.307, 122.873 144.969 C 118.595 148.876, 118.296 151.751, 121.745 155.789 C 127.864 162.952, 136.029 159.836, 137.515 149.772 C 137.943 146.872, 138.355 143.359, 138.431 141.965 C 138.603 138.819, 143.450 132.309, 146.292 131.407 C 150.600 130.040, 151.229 128.509, 149.656 123.213 C 148.506 119.342, 148.401 115.891, 149.128 105.938 C 150.680 84.684, 150.673 84.572, 147.501 80.412 L 144.663 76.691 146.942 74.846 C 148.196 73.831, 149.799 73, 150.504 73 C 151.209 73, 152.059 72.288, 152.393 71.418 C 153.702 68.006, 152.857 65.254, 149.500 62 C 144.822 57.465, 144.729 53.749, 149.250 51.947 C 154.376 49.903, 158 47.028, 158 45.004 C 158 43.982, 156.814 42.212, 155.365 41.073 C 152.173 38.561, 143.766 38.263, 136.639 40.408 C 131.230 42.036, 130.330 41.526, 126.964 34.929 C 124.376 29.857, 121.128 28.099, 117.238 29.666 M 127.991 55.017 C 126.313 58.153, 127.482 60.192, 130.744 59.817 C 133.081 59.548, 133.493 59.044, 133.455 56.500 C 133.399 52.695, 129.762 51.708, 127.991 55.017 M 50.234 63.999 L 46.969 65.990 48.470 69.583 C 49.965 73.161, 54.632 79.620, 57.355 81.880 C 58.514 82.842, 59.564 82.255, 62.889 78.784 C 67.427 74.046, 68.968 70.823, 67.008 70.169 C 66.316 69.939, 65.002 69.002, 64.089 68.089 C 62.049 66.049, 55.588 61.999, 54.382 62.004 C 53.897 62.006, 52.030 62.903, 50.234 63.999 M 129.132 75.885 C 127.256 77.513, 127.178 77.854, 128.561 78.385 C 132.339 79.835, 138 78.704, 138 76.500 C 138 73.599, 132.230 73.199, 129.132 75.885 M 54.951 87.052 C 54.153 87.556, 52.015 87.976, 50.200 87.985 C 43.464 88.016, 39 92.224, 39 98.542 C 39 101.598, 42.011 103.595, 48.824 105.056 C 58.271 107.082, 63.112 102.567, 61.415 93.312 C 60.314 87.308, 58.035 85.100, 54.951 87.052 M 100.066 91.267 C 98.953 94.166, 100.209 95.415, 103.424 94.608 C 105.690 94.040, 105.849 93.731, 104.769 92.001 C 102.927 89.052, 101.030 88.755, 100.066 91.267 M 129 89.929 C 129 90.439, 128.293 91.564, 127.429 92.429 C 126.075 93.782, 126.063 94, 127.345 94 C 128.164 94, 129.013 94.539, 129.233 95.198 C 129.539 96.116, 130.359 96.094, 132.751 95.103 C 135.577 93.933, 135.768 93.584, 134.775 91.405 C 133.707 89.061, 129 87.857, 129 89.929 M 97.732 109.696 C 95.038 111.093, 92.313 113.428, 91.468 115.061 L 89.973 117.953 95.237 120.726 C 100.120 123.300, 101.301 123.493, 111.589 123.401 C 121.135 123.315, 123.338 122.971, 127.429 120.928 C 133.314 117.989, 136.491 113.992, 134.716 111.759 C 134.047 110.918, 132.825 110.024, 132 109.773 C 129.655 109.059, 123.715 111.022, 121.904 113.110 C 121.003 114.150, 119.116 115.096, 117.712 115.212 C 115.051 115.432, 110 113.243, 110 111.870 C 110 110.465, 105.672 106.997, 104.061 107.111 C 103.203 107.172, 100.354 108.335, 97.732 109.696 M 51.898 129.106 C 48.267 132.886, 44 140.381, 44 142.980 C 44 143.580, 43.304 145.132, 42.454 146.429 C 40.398 149.568, 41.477 153.831, 44.522 154.595 C 47.548 155.354, 54.975 152.018, 58.343 148.386 C 59.804 146.811, 61.284 143.942, 61.631 142.011 C 61.979 140.080, 62.422 137.600, 62.615 136.500 C 62.808 135.400, 63.241 133.232, 63.577 131.683 C 63.999 129.737, 63.647 128.268, 62.439 126.933 C 59.644 123.844, 56.289 124.536, 51.898 129.106" stroke="none" fill="black" fill-rule="evenodd"/>
</svg>