<svg xmlns="http://www.w3.org/2000/svg" width="256" height="256" viewBox="0 0 256 256" version="1.1">
	<path d="M 66.348 28.026 C 65.165 28.486, 63.365 30.061, 62.348 31.527 C 57.950 37.866, 57.268 38.227, 51.071 37.508 C 44.293 36.722, 39.053 38.464, 36.507 42.349 C 32.967 47.752, 38.637 50.906, 49.579 49.620 C 54.211 49.075, 55.279 49.279, 57.043 51.043 C 58.491 52.491, 58.897 53.755, 58.411 55.301 C 57.178 59.224, 48.687 69.099, 44.374 71.627 C 38.879 74.847, 36.615 78.325, 37.413 82.317 C 37.775 84.123, 37.357 87.420, 36.403 90.292 L 34.777 95.187 38.389 98.886 C 41.462 102.034, 42 103.259, 42 107.118 C 42 112.553, 44.563 115.481, 50.241 116.529 C 52.299 116.909, 53.725 117.636, 53.410 118.146 C 52.107 120.254, 54.280 127.234, 56.991 129.650 C 60.422 132.706, 60.012 135, 55.367 138.754 C 45.378 146.825, 45.781 146.340, 47.328 148.445 C 48.419 149.928, 50.289 150.487, 55.212 150.801 C 60.577 151.142, 62.614 150.778, 67.287 148.640 C 73.912 145.610, 76.135 142.651, 76.773 136.015 C 77.178 131.796, 77.624 130.984, 80.104 129.957 C 83.295 128.635, 89.286 129.379, 90.731 131.276 C 91.299 132.022, 91.326 137.379, 90.800 145 C 90.234 153.202, 90.288 158.280, 90.956 159.770 C 92.875 164.044, 100.911 165.005, 102.572 161.160 C 102.966 160.247, 103.393 153.278, 103.520 145.674 C 103.647 138.070, 104.163 131.437, 104.666 130.934 C 105.169 130.431, 107.745 129.723, 110.389 129.360 C 115.969 128.595, 116.961 129.476, 116.985 135.211 C 117.003 139.669, 119.298 142.124, 125.276 144.078 C 127.599 144.837, 132.629 147.380, 136.454 149.729 C 143.875 154.287, 148.292 155.137, 149.547 152.250 C 150.724 149.542, 150.048 146.937, 147.160 143.058 C 143.964 138.764, 143.220 138.170, 140 137.332 C 134.399 135.875, 130.215 130, 134.777 130 C 135.755 130, 137.555 129.299, 138.777 128.443 C 140.552 127.201, 141 125.914, 141 122.066 C 141 116.544, 141.934 115.454, 147.500 114.477 C 154.105 113.319, 158.783 109.203, 157.448 105.726 C 157.149 104.945, 153.520 102.611, 149.384 100.540 C 141.520 96.601, 139.733 94.384, 139.825 88.681 C 139.883 85.048, 143.447 78.223, 146.567 75.769 C 149.681 73.319, 149.645 70.920, 146.436 67.106 C 143.647 63.791, 138.782 62.014, 132.473 62.006 C 130.257 62.003, 127.557 61.386, 126.473 60.635 C 122.290 57.740, 120.157 57.727, 117.511 60.582 C 116.032 62.178, 115 64.482, 115 66.186 C 115 68.262, 113.869 70.156, 111 72.885 C 108.800 74.978, 107 77.595, 107 78.701 C 107 79.807, 108.575 82.775, 110.500 85.296 C 112.425 87.817, 114 90.512, 114 91.285 C 114 93.653, 110.130 96.352, 106.727 96.357 C 103.177 96.363, 86.382 93.354, 84.918 92.450 C 83.614 91.643, 83.778 89, 85.133 89 C 86.516 89, 90 85.119, 90 83.579 C 90 82.966, 91.125 80.809, 92.500 78.785 C 94.925 75.216, 95.653 70.864, 94.379 67.545 C 93.221 64.527, 88.434 63, 80.131 63 C 70.673 63, 69 62.493, 69 59.627 C 69 58.141, 70.548 56.454, 73.963 54.219 C 83.757 47.807, 108.594 47.521, 117.720 53.714 L 121.456 56.249 126.126 53.625 C 130.353 51.248, 131.802 51, 141.447 51 C 149.040 51, 152.947 50.562, 155.050 49.474 C 158.783 47.544, 158.926 44.217, 155.416 40.924 C 153.016 38.673, 152.074 38.500, 142.209 38.500 L 131.586 38.500 129.243 35.028 C 127.955 33.119, 126.360 31.213, 125.700 30.794 C 123.375 29.315, 119.122 30.026, 116.327 32.361 C 114.772 33.659, 112.150 34.950, 110.500 35.229 C 108.850 35.508, 105.368 36.566, 102.763 37.579 C 98.667 39.172, 97.413 39.258, 93.499 38.211 C 91.009 37.545, 87.065 36.980, 84.736 36.955 C 79.279 36.897, 75.237 35.119, 73.711 32.108 C 71.985 28.699, 68.948 27.016, 66.348 28.026 M 66.722 74.011 C 64.539 76.561, 64.521 78.879, 66.677 79.706 C 68.177 80.282, 68.151 80.429, 66.427 81.105 C 64.815 81.736, 64.950 81.871, 67.250 81.930 C 68.763 81.968, 70 81.649, 70 81.219 C 70 80.790, 71.350 79.929, 73 79.306 C 76.858 77.850, 77.097 74.368, 73.435 72.975 C 69.757 71.577, 68.662 71.746, 66.722 74.011 M 121.645 75.250 C 120.996 77.728, 123.118 80.381, 126.567 81.405 C 127.984 81.826, 129.316 81.293, 130.802 79.711 C 132.802 77.582, 132.851 77.232, 131.428 75.201 C 129.198 72.017, 122.482 72.050, 121.645 75.250 M 49.633 81.468 C 47.362 83.421, 46.900 84.466, 47.410 86.496 C 48.715 91.697, 55.576 95.556, 60.750 93.999 C 62.263 93.544, 63.130 93.133, 62.679 93.086 C 62.227 93.039, 62.625 92.233, 63.563 91.295 C 64.500 90.357, 64.837 89.446, 64.311 89.270 C 63.784 89.095, 63.550 87.612, 63.790 85.976 C 64.081 83.997, 63.798 83, 62.947 83 C 62.243 83, 61.960 82.707, 62.318 82.348 C 63.285 81.382, 58.174 79, 55.136 79.001 C 53.686 79.002, 51.210 80.112, 49.633 81.468 M 119.750 103.758 C 118.237 104.696, 117 105.803, 117 106.219 C 117 106.635, 115.200 108.111, 113 109.500 C 109.050 111.993, 107.819 114.422, 110.250 114.925 C 110.938 115.067, 116.450 115.315, 122.500 115.475 C 130.286 115.682, 134.231 115.375, 136 114.424 C 137.375 113.685, 137.938 113.062, 137.250 113.040 C 136.563 113.018, 136 112.305, 136 111.456 C 136 110.607, 134.353 108.132, 132.339 105.956 C 128.205 101.488, 124.465 100.835, 119.750 103.758 M 63.750 107.757 C 55.496 113.370, 54.967 115.573, 61.634 116.572 C 67.424 117.441, 80.425 116.539, 84.780 114.967 L 88.059 113.784 85.280 111.393 C 83.751 110.078, 82.022 109.002, 81.437 109.001 C 80.852 109.001, 79.081 107.650, 77.500 106 C 75.919 104.350, 73.698 103.037, 72.563 103.083 C 71.428 103.129, 67.463 105.232, 63.750 107.757 M 94.771 109.950 C 93.269 110.426, 91.325 111.532, 90.449 112.408 C 88.993 113.864, 89.034 114, 90.929 114 C 92.068 114, 93.112 114.022, 93.250 114.049 C 93.388 114.076, 95.210 114.483, 97.299 114.955 C 101.183 115.831, 108 114.634, 108 113.075 C 108 110.364, 99.669 108.396, 94.771 109.950" stroke="none" fill="black" fill-rule="evenodd"/>
</svg>