<svg xmlns="http://www.w3.org/2000/svg" width="256" height="256" viewBox="0 0 256 256" version="1.1">
	<path d="M 63 29.739 C 61.075 31.234, 58.905 33.029, 58.179 33.728 C 57.334 34.541, 53.975 35, 48.879 35 C 40.340 35, 35.871 36.504, 33.994 40.010 C 30.864 45.860, 40.233 49.442, 53.583 47.500 C 58.349 46.807, 58.802 46.933, 60.833 49.515 C 62.025 51.030, 63 52.794, 63 53.434 C 63 54.852, 57.366 57, 53.647 57 C 50.370 57, 44.538 59.320, 43.470 61.048 C 42.616 62.430, 42.056 72.967, 41.991 88.868 C 41.938 101.739, 43.416 105.422, 50 108.828 C 53.881 110.835, 55.507 111.086, 61.817 110.650 C 66.509 110.325, 71.099 110.656, 74.615 111.572 C 77.631 112.357, 82.213 113.007, 84.799 113.015 C 90.677 113.034, 94.251 114.868, 89 115.171 C 87.075 115.282, 84.150 115.536, 82.500 115.737 C 78.801 116.185, 70.408 116.215, 62.663 115.807 C 57.642 115.543, 56.577 115.808, 55.039 117.705 C 53.607 119.472, 53.408 120.762, 54.037 124.201 C 54.584 127.196, 54.395 129.511, 53.411 131.868 C 52.635 133.725, 52 136.004, 52 136.934 C 52 137.863, 51.047 139.646, 49.882 140.896 C 48.002 142.914, 47.134 143.101, 42.132 142.560 C 35.273 141.818, 33.600 142.774, 33.600 147.433 C 33.600 152.722, 34.974 153.482, 44.807 153.636 C 49.588 153.711, 61.825 154.269, 72 154.875 C 82.175 155.481, 104.225 155.970, 121 155.962 C 137.775 155.954, 152.175 156.030, 153 156.131 C 158.750 156.837, 162.791 153.289, 161.608 148.574 C 160.866 145.616, 158.180 144.653, 151.300 144.878 C 144.887 145.087, 143.982 143.813, 143.484 133.880 C 143.099 126.212, 141.641 120.777, 139.489 118.990 C 137.569 117.398, 124.925 114.221, 122.477 114.716 C 117.535 115.716, 105.736 116.188, 101.508 115.554 L 96.849 114.855 97.518 110.894 C 97.990 108.102, 97.739 106.251, 96.668 104.617 C 94.685 101.590, 89.120 99, 84.599 99 C 79.383 99, 80.182 97.360, 85.750 96.640 C 88.362 96.301, 92.807 95.657, 95.626 95.208 C 102.501 94.112, 107.377 95.624, 107.852 99 C 108.046 100.375, 108.565 102.176, 109.005 103.003 C 110.336 105.501, 118.932 107.463, 129 107.565 C 144.324 107.722, 149.190 105.706, 146.697 100.234 C 145.118 96.768, 139.141 94.120, 131.241 93.386 C 125.622 92.864, 123.244 93.138, 118.359 94.873 C 115.063 96.043, 112.110 97, 111.795 97 C 111.481 97, 111.894 94.339, 112.713 91.086 C 113.701 87.162, 115.246 84.105, 117.303 82.001 C 120.006 79.237, 120.921 78.889, 124.451 79.287 C 126.678 79.537, 129.625 80.042, 131 80.409 C 132.375 80.775, 138.225 81.340, 144 81.664 C 153.736 82.211, 154.634 82.104, 156.340 80.198 C 158.516 77.768, 157.922 75.204, 154.628 72.819 C 152.384 71.194, 139.543 67.635, 131.653 66.450 C 129.113 66.069, 126.651 64.717, 124.403 62.470 C 119.389 57.455, 119.855 55.585, 127.313 50.799 C 132.302 47.598, 132.755 47.503, 143.139 47.502 C 153.023 47.500, 154.020 47.320, 156.371 45.116 C 158.749 42.887, 158.820 42.553, 157.474 39.950 C 155.499 36.131, 150.645 34.712, 142.064 35.444 C 135.444 36.008, 134.953 35.899, 131.806 33.165 C 129.988 31.586, 127.461 29.747, 126.191 29.080 C 123.545 27.690, 118.696 28.456, 116.969 30.538 C 116.325 31.313, 114.157 32.224, 112.150 32.564 C 110.142 32.903, 106.140 34.337, 103.255 35.751 L 98.010 38.322 91.255 35.725 C 87.540 34.296, 82.749 32.892, 80.610 32.604 C 78.470 32.316, 74.992 30.937, 72.881 29.540 C 68.089 26.369, 67.322 26.384, 63 29.739 M 83.626 47.878 C 78.944 48.590, 76 50.789, 76 53.574 C 76 55.127, 79.285 55.966, 85.500 56.001 C 95.173 56.056, 98.701 60.571, 93.397 66.108 C 91.873 67.699, 89.810 69, 88.813 69 C 87.816 69, 87 69.123, 87 69.273 C 87 69.422, 89.488 72.219, 92.529 75.486 C 97.852 81.206, 98.148 81.373, 100.449 79.964 C 104.447 77.516, 108.795 71.177, 109.537 66.716 C 109.922 64.397, 111.344 60.601, 112.696 58.281 C 115.579 53.332, 115.100 50.382, 111.164 48.846 C 107.782 47.526, 90.038 46.902, 83.626 47.878 M 59.115 69.153 C 57.270 69.836, 57.088 70.295, 57.991 71.984 C 58.636 73.188, 60.087 74, 61.594 74 C 62.982 74, 63.862 73.586, 63.550 73.081 C 63.237 72.575, 63.644 71.499, 64.453 70.690 C 65.748 69.395, 65.648 69.166, 63.621 68.778 C 62.355 68.536, 60.327 68.705, 59.115 69.153 M 83.500 70 C 83.160 70.550, 83.584 71, 84.441 71 C 85.298 71, 86 70.550, 86 70 C 86 69.450, 85.577 69, 85.059 69 C 84.541 69, 83.840 69.450, 83.500 70 M 60.529 78.908 C 60.196 79.957, 59.301 81.054, 58.540 81.346 C 56.531 82.117, 57.802 85.802, 60.358 86.618 C 62.502 87.302, 67.863 87.285, 73.500 86.576 C 75.150 86.368, 77.850 86.147, 79.500 86.084 C 81.586 86.004, 82.086 85.707, 81.143 85.110 C 80.182 84.501, 80.114 84.048, 80.910 83.556 C 83.188 82.148, 80.732 81, 75.441 81 C 72.448 81, 70 80.550, 70 80 C 70 79.450, 69.100 79, 68 79 C 66.900 79, 65.993 78.438, 65.985 77.750 C 65.974 76.917, 65.646 77, 65 78 C 64.354 79, 64.026 79.083, 64.015 78.250 C 63.991 76.271, 61.199 76.798, 60.529 78.908 M 61 93.883 C 61 94.369, 60.064 95.011, 58.921 95.310 C 57.437 95.699, 56.936 96.507, 57.171 98.137 C 57.825 102.672, 70.214 104.053, 71.582 99.743 C 72.003 98.414, 71.684 97.403, 70.663 96.831 C 69.803 96.350, 68.434 95.291, 67.621 94.478 C 66.027 92.884, 61 92.432, 61 93.883 M 67.252 128.819 C 64.561 129.201, 63.497 132.507, 64.443 137.548 C 64.956 140.284, 65.882 141.453, 68.537 142.719 C 71.487 144.126, 72.323 144.165, 74.501 143 C 77.301 141.501, 78.912 135.766, 78.125 130.101 C 77.990 129.131, 70.922 128.298, 67.252 128.819 M 116.250 128.981 C 114.407 129.763, 114.006 130.710, 114.032 134.218 C 114.068 139.143, 115.512 141.484, 119.429 142.973 C 122.841 144.270, 129.514 142.709, 130.397 140.407 C 131.460 137.638, 131.042 131.280, 129.725 130.187 C 127.889 128.663, 118.897 127.859, 116.250 128.981 M 89.556 129.910 C 89.247 130.410, 89.220 131.423, 89.497 132.160 C 89.774 132.897, 90.168 134.976, 90.372 136.780 C 91.178 143.877, 98.039 146.590, 101.284 141.096 C 102.228 139.498, 103 137.338, 103 136.296 C 103 135.253, 103.510 133.890, 104.133 133.267 C 104.756 132.644, 104.995 131.429, 104.664 130.567 C 104.198 129.352, 102.498 129, 97.090 129 C 93.256 129, 89.865 129.409, 89.556 129.910" stroke="none" fill="black" fill-rule="evenodd"/>
</svg>