<svg xmlns="http://www.w3.org/2000/svg" width="256" height="256" viewBox="0 0 256 256" version="1.1">
	<path d="M 91.405 28.106 C 89.814 29.865, 89.500 31.773, 89.500 39.692 C 89.500 48.311, 89.296 49.337, 87.254 50.993 C 86.001 52.009, 84.136 52.587, 83.037 52.299 C 81.515 51.901, 67.185 53.505, 62.750 54.570 C 62.337 54.669, 59.082 54.806, 55.516 54.875 C 49.856 54.984, 48.616 55.371, 45.766 57.920 L 42.500 60.840 42.454 84.170 C 42.419 101.579, 41.968 110.038, 40.679 117.500 C 38.166 132.035, 36 147.850, 36 151.655 C 36 154.314, 36.471 155.080, 38.407 155.566 C 43.319 156.799, 48.989 150.664, 48.996 144.108 C 48.998 142.242, 49.875 137.742, 50.944 134.108 C 52.013 130.474, 53.117 124.575, 53.398 121 C 54.071 112.434, 54.845 106.184, 55.690 102.500 C 56.068 100.850, 56.405 92.421, 56.439 83.769 C 56.514 64.330, 55.753 65.228, 73.037 64.194 C 83.430 63.572, 85.318 63.694, 86.558 65.064 C 90.298 69.196, 87.082 74, 80.576 74 C 75.094 74, 69.898 77.374, 68.643 81.748 C 67.298 86.440, 69.028 88, 75.575 88 C 78.507 88, 81.997 87.503, 83.331 86.895 C 86.766 85.330, 92.398 88.131, 94.106 92.256 C 94.816 93.970, 96.892 96.912, 98.719 98.793 C 101.634 101.795, 102.465 102.135, 105.493 101.567 C 107.754 101.143, 109.954 101.442, 111.873 102.434 C 114.781 103.938, 114.799 104.002, 114.333 111.224 C 114.074 115.226, 113.781 121.875, 113.682 126 C 113.582 130.125, 113.117 134.092, 112.650 134.817 C 112.182 135.541, 112.074 136.407, 112.409 136.742 C 112.744 137.077, 112.036 138.398, 110.835 139.676 C 108.371 142.299, 104.562 142.705, 102.429 140.571 C 100.791 138.934, 100.542 137, 101.969 137 C 102.501 137, 102.690 136.356, 102.388 135.570 C 102.087 134.783, 102.554 132.636, 103.426 130.797 C 104.299 128.958, 105.173 124.539, 105.368 120.977 C 105.563 117.415, 106.067 113.690, 106.488 112.699 C 107.386 110.585, 103.630 106, 101 106 C 98.651 106, 95.080 110.127, 93.979 114.113 C 92.798 118.390, 87.541 124.251, 85.276 123.815 C 83.437 123.461, 79 117.525, 79 115.420 C 79 114.713, 79.896 113.850, 80.992 113.502 C 82.857 112.911, 82.888 112.684, 81.474 109.950 C 79.858 106.824, 76.400 105.410, 72.750 106.383 C 68.868 107.417, 67.805 108.626, 66.816 113.128 C 64.843 122.110, 64.806 123.789, 66.504 127.368 C 68.492 131.557, 71.913 132.598, 80.706 131.691 C 86.675 131.075, 89.080 132.313, 90.426 136.694 C 91.885 141.448, 82.120 143.590, 76.108 139.835 C 74.725 138.972, 73.176 139.093, 69.474 140.354 C 66.817 141.259, 63.894 142, 62.977 142 C 58.456 142, 56.530 148.963, 59.900 153.125 C 61.769 155.433, 62.070 155.468, 78.150 155.239 C 87.143 155.111, 101.039 155.002, 109.030 154.996 C 117.022 154.991, 124.963 154.584, 126.677 154.093 C 128.558 153.553, 134.581 153.608, 141.872 154.230 C 155.439 155.389, 158.121 154.640, 159.455 149.323 C 160.456 145.334, 157.144 142.871, 147.825 140.674 C 140.921 139.047, 139.699 139.016, 134.606 140.346 C 125.603 142.697, 122.105 140.470, 126.066 134.907 C 129.086 130.665, 130.974 129.952, 135.881 131.198 C 140.955 132.486, 144.389 131.082, 146.594 126.819 C 148.163 123.784, 148.303 121.677, 147.375 115.055 C 146.680 110.091, 145.125 108, 142.128 108 C 139.888 108, 137 111.491, 137 114.199 C 137 116.598, 132.606 119.327, 130.049 118.516 C 128.500 118.024, 128 117.015, 128 114.383 C 128 112.468, 127.276 109.500, 126.390 107.788 C 124.837 104.784, 124.864 104.610, 127.140 102.859 C 130.063 100.611, 132.222 100.546, 136.171 102.589 C 143.076 106.159, 149.867 101.273, 149.115 93.276 C 149.052 92.602, 147.737 91.398, 146.193 90.600 C 142.945 88.920, 128.605 86.777, 125.162 87.457 C 123.877 87.711, 118.769 88.191, 113.812 88.524 C 106.152 89.038, 104.516 88.872, 102.909 87.418 C 99.401 84.243, 103.003 83.072, 116.500 83 C 130.154 82.928, 132.712 82.003, 131.087 77.729 C 128.745 71.570, 115.572 69.410, 105.586 73.547 C 104.291 74.083, 103.891 73.985, 104.350 73.242 C 104.730 72.628, 104.140 71.862, 103.015 71.505 C 100.738 70.782, 100.493 69.244, 102.282 66.913 C 104.556 63.952, 107.288 63.186, 112.500 64.051 C 115.250 64.507, 120.875 64.910, 125 64.946 C 135.737 65.039, 139.928 66.390, 140.647 69.987 C 142.296 78.232, 154.033 80.611, 155.508 73 C 158.368 58.237, 158.301 56.904, 154.549 53.812 C 151.071 50.947, 140.417 49.913, 115.275 50.001 C 107.653 50.028, 106.146 49.784, 106.602 48.596 C 107.022 47.500, 109.101 47.171, 115.327 47.215 C 128.912 47.310, 141.421 45.953, 143.719 44.136 C 146.925 41.600, 147.445 38.445, 145.051 36.051 C 142.927 33.927, 137.278 33.551, 114.185 33.994 C 106.945 34.133, 106.824 34.093, 102.457 30.067 C 97.503 25.501, 94.279 24.929, 91.405 28.106" stroke="none" fill="black" fill-rule="evenodd"/>
</svg>