<svg xmlns="http://www.w3.org/2000/svg" width="256" height="256" viewBox="0 0 256 256" version="1.1">
	<path d="M 89.913 29.087 C 87.987 31.013, 87.879 31.878, 88.514 40.341 C 89.366 51.711, 88.732 52.534, 78.500 53.331 C 45.243 55.924, 43.335 56.363, 41.016 61.962 C 40.131 64.098, 39.945 67.648, 40.399 73.759 C 42.506 102.124, 42.752 98.555, 35.943 138.500 C 33.789 151.135, 33.671 154.814, 35.364 156.507 C 36.724 157.867, 37.334 157.887, 40.255 156.667 C 42.090 155.900, 44.295 154.199, 45.155 152.886 C 46.639 150.620, 49.994 136.454, 50.006 132.400 C 50.018 128.199, 52.111 123, 53.797 122.985 C 55.262 122.972, 55.290 122.834, 54 122 C 52.804 121.227, 52.989 121.028, 54.917 121.015 C 56.246 121.007, 57.040 121.293, 56.682 121.651 C 55.963 122.370, 61.943 127.789, 65.306 129.465 C 66.479 130.050, 68.128 131.769, 68.970 133.285 C 70.386 135.835, 70.341 136.320, 68.372 139.770 C 66.557 142.950, 64.061 145.063, 60.728 146.242 C 60.303 146.392, 59.725 147.784, 59.444 149.335 C 58.847 152.629, 62.044 158.517, 64.825 159.244 C 65.835 159.508, 69.872 157.832, 74 155.434 C 82.463 150.519, 86.741 149.430, 91.462 150.987 C 93.297 151.593, 96.982 152.484, 99.649 152.967 C 102.317 153.450, 107.650 154.563, 111.500 155.441 C 122.304 157.904, 142.675 159.304, 148.572 157.989 C 156.017 156.328, 158 154.668, 158 150.099 C 158 147.833, 157.360 145.713, 156.445 144.955 C 153.260 142.311, 152.790 140.107, 154.798 137.224 C 158.974 131.225, 159.450 124.133, 155.827 121.893 C 153.899 120.701, 151.176 122.162, 149.990 125.023 C 148.791 127.920, 146.457 129.549, 145.569 128.111 C 145.296 127.670, 144.770 125.327, 144.399 122.905 C 143.675 118.167, 142.764 115.924, 140.714 113.828 C 140 113.098, 138.833 111.076, 138.122 109.336 C 136.796 106.093, 134.817 104.941, 127.250 103.008 C 119.282 100.973, 122.415 99, 133.614 99 C 141.871 99, 147.248 97.274, 148.960 94.075 C 149.905 92.309, 149.677 91.605, 147.508 89.595 C 144.040 86.381, 141.192 85.994, 122.226 86.161 C 106.510 86.299, 105.868 86.225, 103.497 83.997 C 101.209 81.848, 101.160 81.601, 102.771 80.377 C 104.800 78.836, 108.199 78.610, 109.550 79.925 C 110.476 80.827, 116.223 81.269, 124.683 81.089 C 128.774 81.002, 130.099 79.728, 130.495 75.500 C 130.618 74.186, 120.950 67.913, 119.850 68.593 C 119.382 68.882, 119 68.506, 119 67.759 C 119 67.012, 120.013 66.305, 121.250 66.189 C 122.487 66.073, 125.581 65.717, 128.124 65.399 C 131.373 64.991, 133.678 65.299, 135.874 66.435 C 138.548 67.817, 139 68.604, 139 71.871 C 139 75.716, 140.017 77.112, 144.736 79.750 C 150.928 83.211, 153.812 80.060, 155.627 67.850 C 157.978 52.030, 155.992 50.922, 124.500 50.488 C 114.600 50.351, 106.215 50.185, 105.867 50.120 C 104.628 49.886, 104.207 45.990, 105.344 45.278 C 105.980 44.880, 114.075 44.457, 123.333 44.338 C 136.739 44.166, 140.657 43.799, 142.583 42.538 C 145.766 40.452, 145.648 37.472, 142.297 35.273 C 140.040 33.792, 136.810 33.445, 122.697 33.164 C 106.010 32.832, 105.741 32.792, 101.203 29.914 C 95.765 26.465, 92.756 26.244, 89.913 29.087 M 69.500 65.189 C 55.063 66.609, 53.204 67.737, 54.995 73.984 C 55.581 76.026, 55.534 81.524, 54.869 88.861 C 54.288 95.263, 53.692 103.930, 53.545 108.122 C 53.397 112.314, 52.992 116.204, 52.644 116.767 C 51.358 118.848, 55.334 118.957, 58.613 116.930 C 60.476 115.779, 62.057 114.536, 62.128 114.168 C 62.198 113.801, 62.363 112.458, 62.494 111.185 C 62.876 107.489, 68.609 102.397, 74.461 100.556 C 79.578 98.946, 79.863 98.961, 83.824 101.025 C 86.071 102.197, 88.943 103.070, 90.205 102.967 C 91.467 102.863, 93.451 102.828, 94.612 102.889 C 97.029 103.016, 104.261 108.406, 103.301 109.365 C 102.952 109.714, 103.117 110, 103.667 110 C 104.217 110, 104.667 110.675, 104.667 111.500 C 104.667 112.325, 103.897 113, 102.956 113 C 102.015 113, 100.775 113.566, 100.201 114.258 C 99.182 115.486, 96.308 122.823, 95.530 126.185 C 95.315 127.112, 94.658 128.770, 94.070 129.869 C 93.481 130.969, 93 133.199, 93 134.824 C 93 137.367, 93.658 138.089, 97.718 139.997 C 101.106 141.590, 102.868 141.934, 103.968 141.219 C 105.532 140.202, 105.613 139.495, 104.694 134.852 C 104.405 133.395, 104.761 131.358, 105.485 130.325 C 106.208 129.293, 106.812 126.884, 106.826 124.974 C 106.840 123.063, 107.520 118.688, 108.337 115.250 C 109.154 111.813, 109.582 109, 109.289 109 C 108.995 109, 109.353 108.280, 110.084 107.399 C 110.814 106.519, 111.515 105.101, 111.640 104.249 C 111.765 103.397, 112.380 102.383, 113.008 101.995 C 113.960 101.406, 106.418 97, 104.458 97 C 104.147 97, 100.689 94.412, 96.772 91.250 L 89.652 85.500 79.752 85.811 C 69.085 86.147, 67 85.435, 67 81.459 C 67 76.203, 70.055 73.951, 79.102 72.540 C 86.820 71.336, 87.143 71.131, 86.807 67.665 C 86.507 64.575, 86.382 64.500, 81.500 64.500 C 78.750 64.500, 73.350 64.810, 69.500 65.189 M 104.335 64.772 C 103.449 65.336, 103.449 65.881, 104.335 67.055 C 105.148 68.130, 107.390 68.630, 111.750 68.707 C 117.114 68.801, 118 68.565, 118 67.039 C 118 65.762, 116.944 65.087, 114.250 64.642 C 109.273 63.819, 105.760 63.865, 104.335 64.772 M 77.112 115.265 C 75.799 115.944, 74.786 116.838, 74.862 117.250 C 74.938 117.662, 75 118.663, 75 119.474 C 75 121.470, 80.698 124.292, 83.373 123.621 C 85.979 122.967, 88.127 117.979, 86.814 115.632 C 85.722 113.682, 80.551 113.486, 77.112 115.265 M 123.309 116.199 C 121.999 117.869, 120 126.044, 120 129.731 C 120 131.436, 118.815 133.962, 117.041 136.038 C 115.413 137.942, 114.063 139.954, 114.041 140.509 C 113.947 142.832, 118.320 143.860, 129.611 144.172 C 141.674 144.505, 148.551 143.152, 147.704 140.613 C 147.500 140.001, 144.848 138.600, 141.811 137.500 C 132.553 134.148, 131.789 133.215, 130.570 123.780 C 129.557 115.943, 129.362 115.484, 126.914 115.199 C 125.492 115.034, 123.870 115.484, 123.309 116.199" stroke="none" fill="black" fill-rule="evenodd"/>
</svg>