<svg xmlns="http://www.w3.org/2000/svg" width="256" height="256" viewBox="0 0 256 256" version="1.1">
	<path d="M 62 30.336 C 57.702 33.358, 57.067 33.500, 47.859 33.500 C 36.621 33.500, 33.669 35.002, 34.201 40.449 C 34.650 45.030, 39.859 47.213, 50.727 47.373 C 57.262 47.470, 59.448 47.854, 59.985 49 C 60.372 49.825, 61.213 51.513, 61.853 52.750 C 62.910 54.793, 62.787 55, 60.524 55 C 57.762 55, 55.454 56.982, 45.388 68 C 41.619 72.125, 37.178 76.634, 35.518 78.020 C 31.580 81.309, 31.420 82.649, 34.760 84.376 C 40.071 87.122, 41.228 89.349, 41.428 97.213 C 41.601 103.996, 42.596 110.072, 44.989 118.960 C 46.446 124.370, 51.049 127.345, 58.487 127.685 C 66.055 128.030, 68.841 128.698, 70.772 130.629 C 72.146 132.003, 72.003 132.459, 69.375 135.086 L 66.448 138.013 62.513 136.007 C 57.244 133.320, 55.459 133.470, 51.781 136.907 C 49.079 139.432, 48.483 139.625, 47.236 138.379 C 45.283 136.426, 39.278 134, 36.397 134 C 33.643 134, 32.903 136.059, 32.661 144.393 C 32.531 148.857, 32.917 150.358, 34.632 152.075 C 37.453 154.898, 40.255 153.953, 43.163 149.198 C 44.407 147.164, 46.004 144.905, 46.713 144.179 C 47.421 143.452, 48 142.439, 48 141.929 C 48 141.418, 48.525 141, 49.167 141 C 49.808 141, 50.060 141.273, 49.727 141.606 C 49.393 141.940, 50.042 143.177, 51.169 144.356 C 52.295 145.535, 53.652 147.708, 54.183 149.184 C 55.459 152.728, 59.524 155.336, 62.576 154.570 C 64.540 154.077, 68.098 149.464, 68.020 147.510 C 68.009 147.230, 68 146.440, 68 145.755 C 68 145.071, 69.710 146.308, 71.799 148.505 C 78.526 155.578, 78.650 155.624, 80.932 151.871 C 82.759 148.867, 82.806 148.353, 81.442 146.271 C 80.390 144.665, 80.227 143.445, 80.897 142.193 C 81.907 140.304, 79.582 134, 77.875 134 C 77.394 134, 77 132.680, 77 131.068 C 77 128.247, 77.152 128.150, 81.002 128.533 C 83.203 128.752, 85.873 129.397, 86.936 129.966 C 90.475 131.860, 92.431 131.127, 94.212 127.239 C 96.988 121.175, 98.204 115.098, 98.661 105 C 98.898 99.775, 99.306 93.925, 99.568 92 C 99.956 89.141, 99.506 87.919, 97.109 85.332 C 95.495 83.589, 93.241 81.664, 92.099 81.053 C 90.958 80.442, 89.748 78.718, 89.412 77.221 C 87.328 67.958, 86.866 66.982, 83.816 65.405 C 81.965 64.448, 78.439 63.828, 75.103 63.874 C 67.773 63.976, 66.377 63.462, 64.665 60.030 C 62.884 56.459, 64.075 55, 68.770 55 C 70.889 55, 73.781 53.871, 76.560 51.959 C 84.181 46.715, 103.071 46.068, 120.500 50.452 C 127.701 52.264, 152.464 50.607, 156 48.077 C 158.759 46.103, 159.474 44.025, 158.597 40.531 C 157.796 37.338, 155.927 36.725, 144.954 36.054 C 136.418 35.532, 134.874 35.128, 130.366 32.235 C 127.559 30.434, 124 29, 122.335 29 C 118.451 29, 107.352 33.526, 103.700 36.599 C 100.076 39.648, 97.898 39.623, 93.140 36.474 C 91.040 35.084, 86.702 33.521, 83.500 33 C 80.298 32.479, 75.960 30.916, 73.860 29.526 C 69.036 26.333, 67.550 26.435, 62 30.336 M 133.500 62.036 C 131.850 62.547, 128.673 63.418, 126.441 63.970 C 121.755 65.129, 113.476 70.318, 112.578 72.658 C 111.578 75.264, 113.941 77, 118.488 77 C 121.266 77, 123.640 77.715, 125.365 79.073 C 128.385 81.448, 128.859 85.433, 126.250 86.504 C 124.516 87.216, 115.491 87.910, 107.191 87.969 C 104.580 87.988, 103.125 88.394, 103.500 89 C 103.840 89.550, 103.416 90, 102.559 90 C 101.702 90, 101 90.675, 101 91.500 C 101 92.325, 101.450 93, 102 93 C 102.550 93, 103 94.323, 103 95.941 C 103 97.559, 103.420 99.142, 103.934 99.459 C 104.448 99.777, 107.885 100.215, 111.573 100.433 C 120.129 100.939, 121.159 102.288, 118.978 110.140 C 118.365 112.344, 116.001 115.688, 112.983 118.615 C 110.242 121.274, 108 124.230, 108 125.185 C 108 126.140, 107.438 127.382, 106.750 127.945 C 99.705 133.718, 98.964 134.122, 96.769 133.384 C 93.005 132.120, 92.588 132.200, 90.215 134.645 C 88.958 135.940, 88.422 137, 89.024 137 C 89.626 137, 89.856 137.423, 89.537 137.940 C 89.217 138.458, 89.954 139.811, 91.174 140.947 C 93.174 142.811, 94.185 142.951, 101.446 142.374 C 109.816 141.708, 114.605 139.820, 115.560 136.810 C 116.222 134.724, 121.182 131, 123.297 131 C 125.527 131, 126 133.221, 126 143.682 C 126 153.173, 126.010 153.210, 129.400 156.600 C 133.916 161.116, 138.344 161.322, 139.821 157.085 C 140.379 155.482, 140.604 153.937, 140.319 153.653 C 140.035 153.368, 139.611 150.968, 139.377 148.318 C 139.143 145.668, 138.684 141.183, 138.358 138.350 C 137.803 133.534, 137.944 133.083, 140.521 131.394 C 143.068 129.725, 147.247 129.300, 152.709 130.155 C 153.924 130.345, 154.990 130.050, 155.079 129.500 C 155.167 128.950, 155.612 127.522, 156.066 126.326 C 157.061 123.710, 152.862 117.310, 148.699 115.097 C 147.248 114.325, 144.865 111.970, 143.405 109.863 C 140.918 106.274, 140.848 105.881, 142.307 103.654 C 143.851 101.297, 147.663 100, 153.043 100 C 157.379 100, 159 99.001, 159 96.327 C 159 91.518, 157.432 90.361, 147.063 87.517 C 136.073 84.503, 133.836 83.022, 136.401 80.456 C 137.280 79.577, 138 78.515, 138 78.098 C 138 77.029, 141.753 75.273, 146.750 74.003 C 150.529 73.043, 151 72.600, 151 70.012 C 151 64.193, 141.097 59.679, 133.500 62.036 M 58.189 73.039 C 55.608 75.443, 55.415 77.269, 57.553 79.044 C 60.829 81.763, 70 79.559, 70 76.053 C 70 73.680, 66.382 71, 63.177 71 C 61.637 71, 59.392 71.918, 58.189 73.039 M 74.750 88.392 C 70.890 91.322, 74.719 98.400, 79.843 97.807 C 82.135 97.542, 82.543 96.975, 82.815 93.680 C 82.988 91.579, 82.595 89.217, 81.942 88.430 C 80.467 86.653, 77.065 86.635, 74.750 88.392 M 54.056 91.432 C 53.312 92.330, 53.693 93.302, 55.427 94.931 C 57.747 97.111, 57.864 97.123, 58.845 95.290 C 60.654 91.909, 56.463 88.533, 54.056 91.432 M 55.241 106.986 C 52.026 112.134, 54.659 114.399, 63.792 114.343 C 70.380 114.302, 71.254 112.565, 66.765 108.436 C 62.351 104.376, 57.270 103.737, 55.241 106.986 M 76.235 109.445 C 74.078 111.926, 74.112 114.255, 76.337 116.480 C 78.632 118.775, 81.872 118.390, 82.481 115.750 C 83.378 111.861, 82.679 109.396, 80.371 108.307 C 78.534 107.440, 77.803 107.641, 76.235 109.445" stroke="none" fill="black" fill-rule="evenodd"/>
</svg>