<svg xmlns="http://www.w3.org/2000/svg" width="256" height="256" viewBox="0 0 256 256" version="1.1">
	<path d="M 47.397 30.373 C 43.594 32.097, 42.593 35.908, 44.367 41.913 C 45.267 44.962, 45.365 48.114, 44.716 53.139 C 43.496 62.598, 44.059 64.170, 49.782 67.285 C 52.438 68.731, 55.405 70.790, 56.374 71.861 C 58.781 74.521, 57.055 77.160, 51.061 79.985 C 44.906 82.886, 41.208 86.257, 39.379 90.636 C 37.287 95.643, 38.200 98.590, 42.085 99.367 C 46.473 100.245, 49.902 99.233, 54.360 95.748 C 61.687 90.018, 80 89.571, 80 95.121 C 80 96.155, 80.468 97, 81.039 97 C 81.610 97, 81.153 97.992, 80.024 99.205 C 78.257 101.101, 77.061 101.377, 71.483 101.171 C 67.916 101.039, 64.060 101.433, 62.914 102.046 C 57.827 104.769, 56.669 117.929, 61.002 123.788 C 63.056 126.568, 64.490 127.198, 73.166 129.135 C 80.569 130.788, 82.996 131.722, 82.985 132.915 C 82.953 136.192, 81.156 137.393, 75.926 137.633 C 67.596 138.016, 62.784 139.100, 59.877 141.249 C 55.821 144.248, 55.607 146.761, 59.110 150.263 C 61.995 153.149, 62.361 153.240, 69.301 152.786 C 73.705 152.499, 78.053 151.533, 80.500 150.298 C 82.711 149.183, 87.854 147.950, 92 147.542 C 101 146.655, 100.087 146.656, 107.500 147.527 C 110.867 147.923, 115.091 147.793, 117.127 147.231 C 121.402 146.050, 122.380 146.523, 123.644 150.382 C 124.163 151.967, 126.431 154.599, 128.684 156.231 L 132.780 159.198 136.477 157.444 C 139.265 156.121, 140.741 154.437, 142.479 150.595 C 145.380 144.182, 147.853 132.405, 149.007 119.500 C 149.499 114, 150.150 107.250, 150.453 104.500 C 152.240 88.334, 152.230 85.197, 150.383 82.071 C 148.631 79.106, 145.577 77.264, 143.500 77.920 C 142.269 78.309, 121.447 80.156, 118 80.182 C 116.625 80.192, 109.200 80.156, 101.500 80.102 C 93.800 80.048, 86.825 80.068, 86 80.147 C 82.100 80.520, 73.377 77.833, 72.160 75.884 C 69.386 71.442, 71.854 71.121, 106 71.474 C 123.325 71.653, 139.392 72.115, 141.704 72.500 C 145.658 73.160, 146.020 73.016, 147.812 70.068 C 149.400 67.457, 149.664 65.400, 149.393 57.718 C 148.461 31.213, 148.694 31.530, 129.446 30.697 C 121.776 30.366, 103.800 30.071, 89.500 30.042 C 75.200 30.014, 60.575 29.760, 57 29.478 C 52.571 29.129, 49.511 29.414, 47.397 30.373 M 64.500 42.439 C 63.950 42.651, 62.340 43.079, 60.921 43.389 C 56.505 44.354, 53.887 54.249, 57.750 55.376 C 62.699 56.819, 68.950 57.101, 71.136 55.979 C 76.419 53.268, 78.798 46.737, 75.499 44 C 74.015 42.768, 66.433 41.692, 64.500 42.439 M 95.612 45.027 C 84.581 46.371, 84.122 56.004, 95.017 57.502 C 98.783 58.020, 100.645 57.807, 102.398 56.658 C 106.490 53.977, 106.441 45.801, 102.327 44.852 C 101.322 44.620, 98.300 44.699, 95.612 45.027 M 118.185 44.684 C 116.320 45.430, 114.891 49.717, 115.585 52.484 C 116.211 54.977, 119.075 56.446, 125.334 57.485 C 131.065 58.437, 134.889 57.290, 135.614 54.401 C 136.462 51.024, 134.173 46.016, 131.279 44.916 C 128.728 43.946, 120.399 43.798, 118.185 44.684 M 99.500 94.168 C 92.522 98.219, 96.413 101.564, 106.528 100.209 C 113.763 99.239, 115.324 99.838, 118.988 104.983 C 120.985 107.787, 121.007 108.085, 119.449 111.098 C 118.374 113.177, 118.035 115.335, 118.462 117.382 C 119.661 123.135, 119.802 127.004, 118.836 127.601 C 117.066 128.695, 116.021 132.928, 116.947 135.250 C 117.441 136.488, 119.028 138.743, 120.474 140.262 C 121.920 141.781, 122.788 143.534, 122.402 144.158 C 121.535 145.562, 126.820 144.394, 128.810 142.742 C 131.383 140.608, 133.269 135.514, 133.699 129.544 C 133.938 126.220, 134.841 121.134, 135.706 118.243 C 136.830 114.486, 137.075 111.347, 136.565 107.243 C 136.173 104.084, 135.891 100.281, 135.939 98.792 C 135.991 97.160, 135.325 95.712, 134.263 95.148 C 131.730 93.803, 115.758 94.223, 115.284 95.647 C 114.921 96.736, 113.863 96.546, 103 93.436 C 102.175 93.200, 100.600 93.529, 99.500 94.168 M 70.998 110.867 C 66.967 112.770, 66.098 115.346, 68.567 118.074 C 70.704 120.436, 73.130 120.507, 77.691 118.342 C 81.841 116.373, 82.748 114.605, 80.672 112.530 C 77.793 109.650, 74.701 109.119, 70.998 110.867 M 96.750 112.392 C 94.261 114.281, 94.584 116.490, 97.547 117.839 C 102.566 120.126, 107 118.746, 107 114.898 C 107 113.888, 105.720 112.749, 103.851 112.098 C 99.871 110.711, 98.913 110.750, 96.750 112.392 M 97.021 132.475 C 96.013 133.689, 96.235 134.150, 98.272 135.078 C 101.598 136.593, 105.778 134.642, 103.942 132.430 C 102.399 130.571, 98.580 130.596, 97.021 132.475" stroke="none" fill="black" fill-rule="evenodd"/>
</svg>