<svg xmlns="http://www.w3.org/2000/svg" width="256" height="256" viewBox="0 0 256 256" version="1.1">
	<path d="M 61.746 30.004 C 59.857 31.534, 59.492 32.832, 59.452 38.162 C 59.410 43.589, 58.913 45.290, 55.987 50 C 52.102 56.254, 50.511 58.061, 47.619 59.503 C 46.499 60.061, 44.364 62.314, 42.876 64.509 C 40.411 68.143, 40.119 69.581, 39.613 80.577 C 39.308 87.220, 38.750 95.275, 38.374 98.477 C 37.604 105.025, 38.933 107, 44.109 107 C 48.580 107, 49.968 105.996, 52.554 100.893 C 55.873 94.344, 58.815 92.580, 66.392 92.597 C 80.369 92.628, 84.974 93.192, 87.502 95.180 C 90.375 97.440, 90.449 97.823, 88.509 100.386 C 87.383 101.873, 85.539 102.333, 79.790 102.564 C 75.781 102.724, 69.800 103.699, 66.500 104.731 C 60.584 106.580, 60.504 106.654, 60.777 110.053 C 60.929 111.949, 61.269 116.347, 61.532 119.826 C 62.238 129.168, 65.214 135.342, 70.067 137.530 C 73.793 139.211, 74.308 139.213, 80.319 137.586 C 87.511 135.639, 90.747 136.111, 93.222 139.467 C 94.865 141.695, 94.851 141.920, 92.899 144.401 C 90.311 147.691, 86.781 147.762, 79.779 144.666 C 74.351 142.265, 71.662 142.175, 64.228 144.142 C 61.617 144.833, 57.096 145.013, 52.597 144.605 C 44.447 143.866, 43.924 144.205, 44.737 149.690 C 45.543 155.129, 47.023 155.659, 64.500 156.759 C 73.300 157.313, 82.325 157.555, 84.556 157.297 C 86.787 157.038, 91.126 157.292, 94.198 157.860 C 99.637 158.865, 119.844 157.471, 132 155.251 C 134.475 154.799, 138.300 154.748, 140.500 155.137 C 152.003 157.174, 153.010 157.237, 154.490 156.008 C 156.709 154.167, 156.329 150.325, 153.750 148.513 C 148.056 144.513, 143.810 141.997, 142.706 141.968 C 139.121 141.874, 135 133.964, 135 127.179 C 135 125.802, 133.885 122.773, 132.522 120.448 L 130.044 116.219 133.022 112.472 C 134.660 110.411, 136 108.195, 136 107.548 C 136 105.025, 128.530 102.787, 117.713 102.070 C 104.990 101.226, 102.033 99.692, 106.443 96.224 C 108.584 94.540, 110.235 94.227, 115.772 94.458 C 119.472 94.611, 125.754 94.797, 129.731 94.869 C 137.477 95.009, 137.440 94.981, 138.401 101.523 C 138.973 105.426, 147.872 108.635, 152.082 106.457 C 155.864 104.502, 156.275 102.520, 154.905 92.832 C 154.257 88.249, 153.451 81.350, 153.114 77.500 C 152.277 67.957, 148.898 63.737, 138.308 59.012 C 132.828 56.568, 131.145 54.113, 131.101 48.500 C 131.064 43.732, 129.536 32.609, 128.749 31.371 C 127.647 29.637, 124.266 29.080, 122.585 30.356 C 121.671 31.050, 120.985 33.446, 120.842 36.447 C 120.452 44.627, 116.314 47.125, 110.818 42.500 C 107.256 39.503, 105.083 39.360, 101.844 41.908 C 98.576 44.479, 97.150 44.596, 92.782 42.654 C 87.384 40.253, 84.525 40.600, 80.485 44.148 C 75.883 48.188, 76.149 50.841, 81.415 53.411 L 85.329 55.322 89.915 52.927 C 92.437 51.609, 94.950 49.956, 95.500 49.254 C 96.279 48.258, 97.716 48.794, 102 51.676 C 109.951 57.025, 110.480 57.663, 108.556 59.587 C 102.328 65.815, 100.966 69.636, 103.214 74.570 C 104.305 76.964, 104.165 77.462, 101.838 79.463 C 99.441 81.525, 98.733 81.624, 92.374 80.796 C 88.593 80.304, 84.015 79.504, 82.201 79.018 C 80.386 78.532, 77.911 78.366, 76.701 78.650 C 73.136 79.486, 54.731 80.149, 52.266 79.531 C 48.895 78.684, 49.398 75.338, 53.250 72.989 C 55.038 71.899, 57.486 71.006, 58.691 71.004 C 59.896 71.002, 61.160 70.550, 61.500 70 C 63.476 66.803, 75.977 71.203, 75.993 75.101 C 76.009 78.774, 84.029 75.359, 86.725 70.531 C 87.553 69.048, 87.485 67.904, 86.448 65.900 C 84.519 62.169, 79.285 58, 76.530 58 C 73.824 58, 72.740 56.037, 72.389 50.500 C 71.656 38.922, 70.628 32.329, 69.325 30.850 C 67.093 28.317, 64.225 27.997, 61.746 30.004 M 39.051 41.438 C 37.147 43.733, 38.562 49.206, 41.883 52.388 L 44.741 55.126 47.572 52.692 L 50.402 50.257 47.899 45.379 C 45.193 40.107, 41.515 38.469, 39.051 41.438 M 142.580 42.912 C 140.002 45.760, 140.860 50.134, 144.215 51.244 C 147.827 52.440, 152.387 50.278, 152.830 47.158 C 153.570 41.959, 146.204 38.907, 142.580 42.912 M 128.758 70.575 C 128.281 71.053, 126.057 71.362, 118.886 71.950 C 117.502 72.063, 112.995 77.391, 113.718 78.059 C 114.148 78.457, 117.200 79.043, 120.500 79.362 C 123.800 79.681, 129.108 80.238, 132.296 80.599 C 137.257 81.161, 138.289 80.987, 139.452 79.396 C 142.106 75.767, 136.981 70, 131.102 70 C 130.129 70, 129.074 70.259, 128.758 70.575 M 77.320 114.348 C 72.122 115.780, 71.608 116.301, 72.374 119.354 C 73.101 122.250, 77.321 124, 83.578 124 C 88.625 124, 91 122.068, 91 117.964 C 91 113.144, 86.248 111.888, 77.320 114.348 M 109 113.868 C 109 114.491, 108.415 115, 107.700 115 C 105.554 115, 104.269 116.955, 104.752 119.484 C 105.290 122.298, 105.926 122.597, 113.335 123.523 C 118.812 124.207, 119.078 124.128, 122.044 120.952 C 126.379 116.312, 125.032 115.204, 112.750 113.314 C 110.286 112.935, 109 113.125, 109 113.868 M 104.557 139.222 C 103.129 141.260, 103.154 141.598, 104.850 143.295 C 107.602 146.046, 119.329 146.116, 122.048 143.396 C 123.844 141.600, 123.876 141.268, 122.443 139.222 C 121.074 137.267, 119.999 137, 113.500 137 C 107.001 137, 105.926 137.267, 104.557 139.222" stroke="none" fill="black" fill-rule="evenodd"/>
</svg>