<svg xmlns="http://www.w3.org/2000/svg" width="256" height="256" viewBox="0 0 256 256" version="1.1">
	<path d="M 50.635 32.073 C 47.292 34.702, 47.277 37.976, 50.595 41.076 C 53.153 43.466, 56 48.055, 56 49.790 C 56 51.621, 50.669 53, 43.589 53 C 37.017 53, 36.004 53.268, 33.636 55.636 C 30.336 58.936, 30.310 61.003, 33.527 64.026 C 35.946 66.298, 36.258 66.342, 40.777 65.042 C 49.096 62.650, 52.264 62.633, 54.750 64.966 C 57.177 67.244, 57.301 67.815, 57.086 75.758 C 56.882 83.324, 55.804 85.414, 51.348 86.887 C 47.925 88.018, 42 94.154, 42 96.567 C 42 96.979, 40.169 99.688, 37.932 102.589 C 34.712 106.762, 33.929 108.555, 34.182 111.181 C 34.530 114.808, 35.033 114.933, 43.506 113.486 C 49.533 112.457, 50.910 114.534, 51.527 125.584 C 51.873 131.775, 51.511 136.945, 50.335 142.603 C 48.955 149.244, 48.869 151.258, 49.870 153.615 C 52.015 158.670, 54.757 161.158, 58.778 161.697 C 62.158 162.150, 62.720 161.910, 63.792 159.557 C 65.124 156.633, 65.261 151.622, 64.176 145.505 C 63.786 143.307, 63.780 138.357, 64.161 134.505 C 64.880 127.242, 63.625 115.458, 61.913 113.395 C 60.658 111.883, 63.799 105, 65.744 105 C 66.500 105, 66.840 104.550, 66.500 104 C 66.160 103.450, 66.385 103, 67 103 C 67.615 103, 67.840 102.550, 67.500 102 C 67.160 101.450, 67.328 101, 67.874 101 C 68.419 101, 69.135 101.850, 69.465 102.890 C 70.031 104.673, 74.343 106.323, 75.476 105.190 C 75.764 104.902, 76.036 103.279, 76.079 101.583 C 76.122 99.887, 76.414 99.149, 76.727 99.943 C 77.040 100.737, 78.399 102.489, 79.747 103.838 C 82.132 106.223, 82.494 106.274, 93.156 105.711 C 103.761 105.152, 104.140 105.203, 104.928 107.317 C 105.869 109.841, 104.332 115.615, 101.156 121.485 C 99.970 123.677, 99 126.074, 99 126.812 C 99 128.032, 91.186 140.334, 86.992 145.717 C 84.853 148.461, 85.476 152.520, 88.345 154.529 C 92.170 157.208, 94.626 156.293, 101.043 149.796 C 105.858 144.921, 108.372 141.120, 112.781 132.053 C 117.678 121.982, 118.403 119.722, 118.480 114.276 C 118.608 105.205, 118.903 105.071, 138.795 105.032 C 154.744 105.001, 155.143 104.948, 157.545 102.545 C 160.738 99.353, 160.656 98.447, 156.592 92.002 C 153.210 86.638, 153.188 86.529, 153.728 77.481 C 154.560 63.543, 153.416 55.484, 150.166 52.377 C 147.530 49.857, 147.368 49.836, 135.874 50.467 C 125.912 51.015, 124.016 50.874, 122.624 49.482 C 120.641 47.498, 120.595 44.333, 122.500 41 C 123.286 39.625, 123.945 37.557, 123.965 36.405 C 124.052 31.250, 115.866 29.081, 111.996 33.234 C 110.212 35.150, 110.010 36.229, 110.579 40.790 C 111.165 45.477, 110.971 46.402, 108.948 48.556 C 106.972 50.659, 105.750 51, 100.194 51 C 94.085 51, 93.554 51.193, 90.368 54.571 C 86.450 58.726, 86.092 61.444, 89.243 63.130 C 91.322 64.243, 97.801 64.498, 102.500 63.652 C 107.193 62.807, 109.692 65.601, 111.756 74 C 112.562 77.278, 112.608 78.346, 112.171 83.527 C 112.077 84.642, 110.675 87.005, 109.056 88.777 C 106.367 91.721, 105.595 92, 100.121 92 C 96.826 92, 92.881 92.475, 91.354 93.055 C 86.841 94.771, 84.743 93.474, 81.542 86.991 C 79.915 83.696, 78.079 81, 77.461 81 C 76.843 81, 75.739 79.881, 75.007 78.513 C 73.938 76.516, 73.913 75.235, 74.878 72.013 C 75.539 69.806, 76.501 68, 77.014 68 C 78.912 68, 81.036 62.225, 80.071 59.688 C 78.762 56.244, 74.266 53.017, 70.615 52.900 C 68.902 52.845, 66.404 52.494, 65.064 52.120 C 62.033 51.274, 60.710 47.117, 62.634 44.486 C 64.831 41.481, 64.298 36.508, 61.411 33.077 C 58.314 29.396, 54.491 29.040, 50.635 32.073 M 131.405 62.974 C 130.019 63.534, 128.866 65.458, 127.998 68.660 C 127.276 71.322, 125.668 75.300, 124.425 77.500 C 121.781 82.177, 121.327 84.484, 122.312 88.235 C 123.175 91.522, 126.028 92.444, 133.200 91.755 C 140.119 91.090, 142.267 88.442, 141.516 81.500 C 141.219 78.750, 140.713 74.028, 140.393 71.006 C 140.072 67.985, 139.387 64.722, 138.870 63.756 C 137.872 61.892, 134.861 61.577, 131.405 62.974 M 126.500 115.195 C 122.168 117.651, 122.554 120.649, 127.953 126.500 C 129.984 128.700, 135.590 135.793, 140.412 142.263 C 145.233 148.732, 150.009 154.469, 151.023 155.013 C 153.933 156.570, 158.538 156.168, 160.318 154.201 C 161.825 152.536, 161.804 152.147, 160.042 148.951 C 158.995 147.053, 157.680 144.516, 157.118 143.314 C 156.557 142.111, 153.601 137.502, 150.549 133.071 C 147.497 128.640, 145 124.809, 145 124.557 C 145 123.284, 138.791 115.134, 137.420 114.608 C 134.875 113.631, 128.670 113.965, 126.500 115.195" stroke="none" fill="black" fill-rule="evenodd"/>
</svg>