<svg xmlns="http://www.w3.org/2000/svg" width="256" height="256" viewBox="0 0 256 256" version="1.1">
	<path d="M 54.571 29.571 C 52.592 31.551, 52.564 35.712, 54.500 40.346 C 56.404 44.902, 56.387 45.248, 54.133 47.847 C 51.815 50.519, 51.124 50.520, 45.650 47.861 C 41.345 45.769, 38.350 45.779, 35.095 47.896 C 33.003 49.256, 33.551 54.893, 36.031 57.533 C 38.788 60.468, 41.957 61.244, 46.766 60.164 C 51.196 59.168, 55 60.247, 55 62.499 C 55 63.359, 55.675 64.322, 56.500 64.638 C 57.574 65.051, 58 66.729, 58 70.551 C 58 77.620, 55.004 81.453, 49.599 81.300 C 47.587 81.243, 45.299 80.663, 44.515 80.012 C 42.469 78.314, 40.758 79.640, 42.140 81.852 C 43.443 83.940, 40.503 90.468, 35.865 95.785 C 32.668 99.450, 32.255 102.491, 34.515 105.717 C 36.071 107.940, 38.186 108.041, 41.869 106.070 C 42.969 105.481, 45.437 105, 47.353 105 C 50.671 105, 50.897 105.227, 52.068 109.750 C 53.888 116.777, 54.379 133.580, 52.952 140 C 50.538 150.857, 52.115 160.679, 56.545 162.379 C 60 163.705, 62.793 162.965, 64.584 160.250 C 66.066 158.003, 66.521 154.483, 67.071 141 C 67.752 124.296, 67.623 121.299, 65.944 115 C 64.737 110.473, 64.737 105, 65.943 105 C 66.461 105, 66.691 103.990, 66.453 102.755 C 65.782 99.272, 66.916 96.998, 69.317 97.015 C 73.576 97.045, 75.987 100.870, 73.386 103.471 C 72.014 104.843, 72.019 105, 73.429 105 C 74.318 105, 75 105.843, 75 106.944 C 75 108.014, 76.060 110.121, 77.355 111.627 C 79.697 114.349, 79.732 114.355, 83.257 112.683 C 91.373 108.831, 94.360 111.263, 95.929 123 C 96.554 127.675, 97.507 134.200, 98.047 137.500 C 98.587 140.800, 99.045 146.145, 99.066 149.378 C 99.099 154.543, 99.465 155.619, 102.085 158.239 C 104.452 160.606, 105.627 161.092, 107.783 160.598 C 121.225 157.516, 132.497 155.730, 137.507 155.887 C 145.788 156.147, 146.857 155.130, 147.366 146.500 C 148.773 122.629, 149.417 119.866, 155.195 112.936 C 160.961 106.019, 160.019 100.758, 151.496 92.275 C 149.162 89.952, 146.490 86.577, 145.558 84.775 C 142.668 79.189, 139.591 74.510, 137.376 72.336 C 136.207 71.189, 133.802 67.531, 132.030 64.207 C 128.532 57.646, 125.008 55.279, 120.440 56.426 C 117.066 57.273, 110.327 63.794, 109.513 67 C 109.164 68.375, 107.569 71.300, 105.970 73.500 C 104.370 75.700, 102.098 79.412, 100.920 81.750 C 99.743 84.088, 98.492 86.001, 98.140 86.002 C 97.788 86.004, 95.925 87.353, 94 89 C 92.075 90.647, 90.199 91.996, 89.832 91.998 C 88.119 92.004, 86 90.668, 86 89.583 C 86 86.944, 79.907 82.116, 76.187 81.807 C 72.094 81.466, 72.077 81.391, 74.237 73.500 C 75.838 67.653, 75.512 65.023, 73.177 64.942 C 72.255 64.911, 73.855 63.814, 76.734 62.506 L 81.967 60.128 79.812 56.089 C 78.626 53.868, 75.535 50.351, 72.942 48.275 C 68.786 44.947, 68.175 43.955, 67.775 39.894 C 66.892 30.926, 59.217 24.926, 54.571 29.571 M 134.382 31.961 C 131.745 33.053, 130.922 36.934, 132.536 40.666 C 133.210 42.224, 136.684 46.310, 140.255 49.745 C 144.141 53.483, 146.971 57.107, 147.304 58.772 C 148.764 66.070, 155.630 69.370, 160.087 64.913 C 162.689 62.311, 162.175 59.876, 157.477 52.531 C 155.564 49.542, 154 46.818, 154 46.478 C 154 46.138, 152.638 43.880, 150.973 41.460 C 145.720 33.826, 139.071 30.019, 134.382 31.961 M 102.314 34.493 C 101.141 35.314, 98.929 39.181, 97.397 43.086 C 95.135 48.849, 93.538 51.138, 88.909 55.245 C 83.259 60.258, 83.224 60.324, 85.103 62.341 C 86.146 63.461, 87 64.708, 87 65.112 C 87 66.709, 92.276 71.998, 93.839 71.967 C 97.543 71.893, 103 64.639, 103 59.791 C 103 58.521, 105.475 53.785, 108.500 49.267 C 111.525 44.749, 114 39.985, 114 38.681 C 114 33.712, 107.006 31.206, 102.314 34.493 M 118.184 82.813 C 116.708 84.399, 113.984 87.925, 112.131 90.648 C 110.278 93.372, 107.432 96.363, 105.807 97.296 C 100.820 100.158, 102.401 102.378, 110.013 103.201 C 113.581 103.587, 118.300 104.130, 120.500 104.408 C 142.867 107.237, 145.355 105.915, 138.967 94.595 C 134.195 86.140, 129.646 81.969, 123.684 80.583 C 121.399 80.052, 120.363 80.472, 118.184 82.813 M 111.250 118.934 C 109.829 120.288, 109 122.261, 109 124.289 C 109 128.846, 111.869 143.269, 113.001 144.401 C 113.598 144.998, 115.716 144.892, 118.724 144.115 C 121.351 143.436, 125.442 142.525, 127.816 142.089 C 130.189 141.654, 132.738 140.668, 133.480 139.899 C 134.258 139.092, 135.118 134.899, 135.512 129.994 C 136.408 118.844, 135.868 118.303, 122.960 117.430 C 114.184 116.837, 113.337 116.946, 111.250 118.934" stroke="none" fill="black" fill-rule="evenodd"/>
</svg>