<svg xmlns="http://www.w3.org/2000/svg" width="256" height="256" viewBox="0 0 256 256" version="1.1">
	<path d="M 88.343 29.599 C 86.634 32.208, 86.777 33.630, 89.591 42 C 89.869 42.825, 89.443 44.389, 88.646 45.476 C 87.432 47.130, 85.916 47.474, 79.348 47.584 C 66.307 47.804, 45.793 50.542, 41.821 52.594 C 37.958 54.589, 37.175 57.914, 40.024 60.220 C 41.841 61.692, 43.435 61.963, 47.901 61.563 C 50.980 61.286, 58.151 60.799, 63.835 60.479 C 79.030 59.623, 79.823 60.965, 72.326 74.846 C 63.400 91.375, 57.787 98, 52.709 98 C 46.646 98, 38.823 109.570, 37.832 120 C 37.545 123.027, 37.817 123.545, 39.845 123.832 C 43.892 124.405, 47.843 121.976, 50.872 117.053 C 52.676 114.122, 55.008 111.825, 57.032 110.987 C 60.055 109.735, 60.421 109.802, 62.144 111.930 C 63.259 113.307, 64.017 115.874, 64.044 118.361 C 64.068 120.637, 64.499 124.525, 65.001 127 C 65.676 130.322, 65.496 133.277, 64.314 138.286 C 62.488 146.020, 63.155 148.745, 67.584 151.647 C 71.493 154.208, 76.016 153.852, 80.212 150.652 C 82.193 149.141, 85.543 147.663, 87.657 147.368 C 94.017 146.480, 102.084 142.911, 102.953 140.601 C 104.323 136.957, 102.924 132.650, 99.406 129.680 L 96.064 126.859 88.741 130.478 C 81.331 134.140, 78.576 134.312, 77.752 131.162 C 77.508 130.226, 77.482 125.386, 77.696 120.406 C 77.936 114.787, 77.630 110.240, 76.888 108.425 C 73.424 99.948, 73.469 98.785, 77.557 91.340 C 82.861 81.680, 85.333 78.592, 90.622 75.022 C 98.534 69.682, 99.544 70.608, 107.510 90.500 C 109.492 95.450, 112.735 101.887, 114.717 104.805 C 117.352 108.686, 118.283 111.079, 118.184 113.716 C 117.979 119.173, 121.217 125.480, 125.664 128.289 C 127.774 129.621, 132.200 133.531, 135.500 136.979 C 141.480 143.226, 147.500 146.936, 151.724 146.978 C 153.865 146.999, 157 142.801, 157 139.914 C 157 138.569, 152.365 134, 150.999 134 C 150.506 134, 148.841 132.319, 147.301 130.264 C 142.696 124.122, 139.738 121, 138.522 121 C 136.497 121, 132.383 115.648, 130.521 110.591 C 128.773 105.844, 128.774 105.639, 130.548 104.341 C 131.557 103.604, 132.994 103, 133.741 103 C 139.306 103, 145.322 94.324, 145.110 86.604 C 144.978 81.790, 143.582 80, 139.959 80 C 137.885 80, 136.643 80.839, 135.148 83.250 C 131.493 89.144, 129.158 91, 125.395 91 C 118.704 91, 116.643 88.449, 113.274 76 C 110.287 64.964, 110.181 64.134, 111.532 62.286 C 112.944 60.354, 113.522 60.324, 136.500 61.006 C 151.308 61.445, 153 60.988, 153 56.547 C 153 51.350, 149.069 50.004, 133.849 49.985 C 125.649 49.975, 120.156 49.486, 117.500 48.529 C 115.300 47.736, 111.688 47.068, 109.473 47.044 C 103.603 46.980, 101 44.786, 101 39.903 C 101 29.846, 92.641 23.040, 88.343 29.599" stroke="none" fill="black" fill-rule="evenodd"/>
</svg>