<svg xmlns="http://www.w3.org/2000/svg" width="256" height="256" viewBox="0 0 256 256" version="1.1">
	<path d="M 90.776 26.750 C 89.932 27.712, 88.515 29.934, 87.628 31.687 C 86.740 33.439, 85.523 35.177, 84.923 35.548 C 83.566 36.386, 67.403 36.168, 60 35.211 C 52.413 34.230, 49.594 34.720, 46.542 37.548 C 44.378 39.554, 44.106 40.330, 44.989 41.980 C 46.978 45.695, 51.040 46.748, 68 47.944 C 77.075 48.584, 85.705 49.574, 87.178 50.145 C 90.614 51.477, 91.534 53.876, 89.267 55.595 C 87.329 57.066, 86.996 57.126, 79 57.451 C 61.397 58.166, 55 60.307, 55 65.483 C 55 70.406, 56.560 70.971, 71 71.281 C 78.425 71.440, 85.222 72.005, 86.104 72.535 C 88.311 73.862, 90.434 78.101, 89.280 78.877 C 88.771 79.220, 88.089 80.220, 87.766 81.101 C 86.815 83.687, 68.730 84.606, 62.016 82.410 C 58.378 81.221, 54.891 80.882, 49.926 81.237 C 42.028 81.803, 39 83.685, 39 88.033 C 39 92.681, 41.155 93.488, 53.904 93.618 C 65.890 93.740, 71 94.878, 71 97.423 C 71 98.233, 68.638 101.724, 65.750 105.181 C 62.862 108.638, 60.040 112.374, 59.477 113.483 C 58.754 114.908, 57.287 115.578, 54.477 115.767 C 48.044 116.198, 46.204 116.868, 43.530 119.751 C 40.627 122.882, 40.333 125.603, 42.557 128.777 C 44.614 131.714, 48.468 131.626, 53.500 128.526 C 58.587 125.393, 60.305 125.396, 63.455 128.545 C 66.455 131.546, 66.376 130.728, 64.517 139.500 C 62.453 149.247, 62.598 150.752, 65.923 154.077 C 70.600 158.754, 75.801 157.778, 83.419 150.795 C 84.475 149.828, 87.400 148.310, 89.919 147.422 C 98.347 144.453, 98.942 144.081, 99.626 141.353 C 101.035 135.741, 94.123 130.258, 89.057 132.969 C 86.418 134.382, 78.286 134.271, 77.383 132.810 C 76.978 132.156, 76.469 127.979, 76.251 123.529 C 75.864 115.625, 75.927 115.357, 78.989 111.969 C 80.713 110.061, 83.203 106.848, 84.524 104.829 C 87.257 100.651, 89.753 99.543, 94.450 100.425 C 98.643 101.211, 100.182 103.010, 103.500 111 C 106.591 118.444, 107.894 120.125, 113.653 124.097 C 115.936 125.673, 119.181 129.199, 120.863 131.932 C 122.545 134.666, 125.177 137.695, 126.711 138.663 C 128.245 139.631, 132.083 142.774, 135.239 145.648 C 141.146 151.027, 145.634 152.639, 152.458 151.835 C 158.251 151.152, 158.429 144.684, 152.752 141.128 C 150.963 140.008, 148.375 138.043, 147 136.762 C 145.625 135.481, 142.901 133.681, 140.947 132.763 C 135.030 129.982, 133.624 127.757, 134.367 122.341 C 135.082 117.121, 136.945 114.482, 140.553 113.576 C 142.785 113.016, 142.915 112.632, 142.358 108.236 C 142.028 105.631, 141.065 102.947, 140.218 102.272 C 137.707 100.270, 131 102.595, 131 105.467 C 131 107.304, 127.957 109.509, 123.737 110.731 C 120.223 111.749, 119.780 111.626, 117.025 108.871 C 114.066 105.912, 112.273 100.338, 113.364 97.493 C 114.510 94.508, 119.068 93.797, 132.552 94.502 C 146.441 95.227, 153.307 94.250, 154.404 91.390 C 155.993 87.249, 149.077 81.191, 142.500 80.963 C 140.850 80.906, 130.950 81.068, 120.500 81.324 C 110.050 81.579, 102.065 81.573, 102.756 81.309 C 103.626 80.977, 103.375 80.314, 101.935 79.149 L 99.860 77.468 102.013 74.984 C 103.896 72.811, 105.062 72.478, 111.333 72.323 C 125.061 71.985, 137.505 70.735, 138.235 69.622 C 138.639 69.005, 138.976 68.022, 138.985 67.439 C 139.046 63.155, 125.658 57.940, 113.234 57.409 C 105.933 57.096, 103 55.976, 103 53.499 C 103 51.784, 108.386 49.687, 113.385 49.455 C 135.166 48.443, 144.407 46.989, 145.394 44.417 C 146.154 42.435, 144.528 39.353, 142.011 38.006 C 140.554 37.226, 117.303 36, 103.969 36 C 103.409 36, 102.500 34.816, 101.950 33.369 C 99.079 25.816, 94.153 22.898, 90.776 26.750" stroke="none" fill="black" fill-rule="evenodd"/>
</svg>