<svg xmlns="http://www.w3.org/2000/svg" width="256" height="256" viewBox="0 0 256 256" version="1.1">
	<path d="M 88.452 28.900 C 83.889 33.289, 82.831 33.819, 77.452 34.408 C 74.178 34.766, 65.194 34.940, 57.486 34.794 C 44.171 34.542, 43.307 34.645, 40.180 36.872 C 36.340 39.606, 36.204 42.806, 39.852 44.618 C 41.145 45.260, 48.570 46.077, 56.352 46.434 C 64.133 46.790, 72.300 47.349, 74.500 47.676 L 78.500 48.269 74 49.620 C 71.525 50.362, 67.567 50.976, 65.205 50.985 C 60.431 51.002, 56 54.318, 56 57.874 C 56 58.954, 55.282 62.643, 54.404 66.070 C 52.379 73.972, 53.199 81.541, 56.627 86.592 L 59.120 90.265 56.310 93.241 L 53.500 96.217 56.675 98.807 C 59.070 100.760, 61.159 101.455, 65.175 101.633 C 83.035 102.427, 91.813 104.184, 90.173 106.639 C 88.895 108.552, 85.682 109.050, 82.150 107.885 C 79.419 106.983, 75.726 107.006, 66.053 107.986 C 55.039 109.101, 53.048 109.066, 49.813 107.706 C 47.785 106.852, 45.234 106.388, 44.145 106.672 C 39.486 107.891, 38.954 119.111, 43.457 121.163 C 45.170 121.943, 47.050 121.584, 51.871 119.554 L 58.079 116.941 62.667 118.971 C 65.190 120.087, 67.867 121, 68.616 121 C 69.457 121, 69.898 121.956, 69.771 123.500 C 69.634 125.154, 68.961 126, 67.782 126 C 66.802 126, 66 126.367, 66 126.814 C 66 128.766, 57.638 132, 52.593 132 C 48.192 132, 46.969 132.431, 44.792 134.750 C 43.373 136.262, 41.904 138.956, 41.529 140.737 C 40.945 143.507, 41.186 144.128, 43.202 145.046 C 45.798 146.229, 47.773 145.642, 54.450 141.706 C 57.644 139.822, 58.840 139.580, 60.701 140.438 C 61.967 141.022, 63.258 142.287, 63.569 143.250 C 63.880 144.213, 64.537 145, 65.028 145 C 65.520 145, 65.827 147.214, 65.711 149.919 C 65.541 153.872, 65.957 155.325, 67.829 157.318 C 70.399 160.054, 73.665 161.038, 76.591 159.957 C 77.641 159.569, 81.650 158.940, 85.500 158.559 C 100.586 157.068, 102.249 156.265, 105.737 148.791 C 106.237 147.719, 99.933 142.017, 98.102 141.885 C 94.810 141.648, 92.451 142.230, 90.828 143.678 C 89.908 144.498, 87.365 145.410, 85.176 145.703 C 81.759 146.162, 81.024 145.913, 79.968 143.939 C 78.966 142.068, 79.021 141.072, 80.262 138.571 C 81.100 136.882, 82.334 134.050, 83.003 132.278 C 85.600 125.400, 91.449 121, 97.993 121 C 102.128 121, 103.188 122.526, 104.489 130.351 C 105.817 138.343, 107.499 140.288, 115.320 142.873 C 120.445 144.567, 124.134 146.652, 128.211 150.158 C 135.171 156.144, 139.316 157.971, 146.305 158.132 C 152.339 158.271, 155.509 156.987, 156.265 154.096 C 157.117 150.835, 154.352 148.280, 147.501 146 C 143.925 144.810, 141 143.476, 141 143.035 C 141 142.594, 140.100 141.998, 139 141.710 C 136.929 141.169, 136.096 137, 138.059 137 C 138.641 137, 138.832 136.537, 138.483 135.972 C 138.133 135.406, 137.678 133.606, 137.471 131.972 C 137.166 129.562, 137.464 129, 139.048 129 C 140.121 129, 141 128.325, 141 127.500 C 141 126.675, 140.489 126, 139.865 126 C 138.024 126, 143.125 122.451, 148.121 120.257 C 153.678 117.815, 154.312 116.951, 153.025 113.566 C 151.434 109.381, 147.512 108.505, 133 109.094 C 130.525 109.195, 124.225 108.777, 119 108.166 C 113.775 107.554, 109.275 107.028, 109 106.997 C 108.725 106.965, 109.400 106.390, 110.500 105.720 C 111.799 104.927, 117.445 104.463, 126.611 104.395 C 134.372 104.337, 141.174 104.010, 141.727 103.669 C 143.394 102.638, 141.924 98.086, 139.244 95.977 C 137.862 94.890, 135.489 94, 133.972 94 C 130.959 94, 129.500 91.900, 131.278 90.122 C 131.895 89.505, 133.582 89, 135.026 89 C 138.187 89, 142 85.239, 142 82.120 C 142 80.882, 142.482 78.968, 143.071 77.867 C 143.871 76.373, 143.744 74.698, 142.571 71.255 C 141.707 68.719, 141 64.310, 141 61.457 C 141 54.286, 138.402 51.012, 132.677 50.968 C 130.380 50.951, 127.681 50.316, 126.681 49.557 C 124.922 48.224, 124.922 48.162, 126.681 47.665 C 127.681 47.383, 130.975 47.147, 134 47.142 C 140.084 47.131, 151.713 44.687, 153.318 43.082 C 155.246 41.154, 152.403 37.192, 148.296 36.083 C 146.208 35.519, 135.981 34.767, 125.568 34.413 L 106.636 33.769 101.471 28.884 C 98.631 26.198, 95.675 24.010, 94.903 24.022 C 94.132 24.033, 91.228 26.229, 88.452 28.900 M 82.360 48.693 C 83.418 49.751, 91.303 49.934, 93 48.940 C 93.975 48.368, 92.255 48.050, 88.083 48.030 C 84.554 48.014, 81.979 48.312, 82.360 48.693 M 110.505 49.380 C 111.899 50.399, 113.123 50.504, 115.196 49.782 C 119.138 48.408, 118.706 48, 113.309 48 C 109.076 48, 108.802 48.135, 110.505 49.380 M 119.813 48.683 C 120.534 48.972, 121.397 48.936, 121.729 48.604 C 122.061 48.272, 121.471 48.036, 120.417 48.079 C 119.252 48.127, 119.015 48.364, 119.813 48.683 M 108.118 63.906 C 106.044 65.219, 110.288 66.315, 114.156 65.466 C 116.446 64.963, 116.902 64.552, 115.883 63.907 C 114.105 62.780, 109.896 62.780, 108.118 63.906 M 73.510 65.016 C 73.856 65.575, 74.557 65.774, 75.069 65.457 C 76.456 64.600, 76.198 64, 74.441 64 C 73.584 64, 73.165 64.457, 73.510 65.016 M 82.397 65.500 C 83.441 66.290, 84.686 66.694, 85.164 66.399 C 86.606 65.507, 85.030 63.998, 82.691 64.032 C 80.572 64.063, 80.562 64.111, 82.397 65.500 M 67.631 75.116 C 66.564 76.640, 66.354 77.754, 67.011 78.411 C 68.031 79.431, 84.724 80.071, 88.750 79.245 C 91.120 78.759, 91.896 77, 89.741 77 C 89.048 77, 87.919 76.100, 87.232 75 C 85.938 72.928, 82.553 72.297, 81.538 73.939 C 81.219 74.455, 79.955 74.625, 78.729 74.318 C 71.893 72.602, 69.259 72.792, 67.631 75.116 M 111.250 74.776 C 110.013 74.976, 109 75.558, 109 76.070 C 109 76.581, 108.100 77, 107 77 C 104.618 77, 104.347 78.535, 106.577 79.391 C 108.826 80.254, 127.312 79.004, 128.450 77.912 C 129.033 77.353, 128.433 77, 126.900 77 C 125.525 77, 123.972 76.574, 123.450 76.053 C 122.399 75.006, 114.771 74.207, 111.250 74.776 M 65.694 89.639 C 64.570 90.763, 66.041 92, 68.500 92 C 69.810 92, 71.131 91.597, 71.435 91.105 C 72.380 89.576, 67.104 88.230, 65.694 89.639 M 82.512 90.750 C 82.696 91.713, 82.881 92.838, 82.923 93.250 C 83.067 94.656, 85.784 94.005, 86.393 92.418 C 87.439 89.691, 87.075 89, 84.588 89 C 82.831 89, 82.268 89.475, 82.512 90.750 M 116.087 122.838 C 115.545 123.849, 115.357 125.649, 115.668 126.838 C 116.187 128.824, 116.877 129, 124.148 129 C 130.261 129, 132.194 128.659, 132.638 127.500 C 132.955 126.675, 134.403 125.993, 135.857 125.985 C 137.853 125.973, 138.145 125.745, 137.048 125.051 C 136.249 124.545, 135.237 124.354, 134.798 124.625 C 134.359 124.896, 134 124.714, 134 124.220 C 134 122.500, 128.868 121, 122.988 121 C 118.267 121, 116.871 121.372, 116.087 122.838" stroke="none" fill="black" fill-rule="evenodd"/>
</svg>