<svg xmlns="http://www.w3.org/2000/svg" width="256" height="256" viewBox="0 0 256 256" version="1.1">
	<path d="M 94.500 26.195 C 91.245 28.041, 90.872 29.192, 91.461 35.585 C 92.241 44.048, 90.658 45.436, 80.387 45.296 C 70.539 45.161, 69 43.889, 69 35.880 C 69 31.160, 68.637 29.876, 67.066 29.035 C 64.046 27.419, 61.339 27.803, 58.505 30.250 C 56.457 32.018, 55.773 33.726, 55.312 38.225 C 54.597 45.203, 52.200 47.375, 46.261 46.426 C 43.339 45.958, 41.901 46.290, 39.846 47.906 C 37.348 49.871, 37.157 50.643, 36.479 61.498 C 35.692 74.085, 36.252 76, 40.718 76 C 42.078 76, 44.486 75.078, 46.068 73.952 C 48.345 72.330, 49.082 70.861, 49.608 66.894 C 49.974 64.139, 51.072 60.898, 52.049 59.692 C 53.674 57.687, 54.662 57.511, 63.667 57.627 C 69.080 57.697, 76.980 58.527, 81.223 59.471 C 86.567 60.659, 90.252 60.944, 93.218 60.396 C 95.573 59.961, 104.025 59.558, 112 59.499 C 119.975 59.441, 129.261 59.042, 132.635 58.612 C 140.504 57.609, 145.237 59.606, 144.963 63.811 C 144.648 68.654, 144.971 69.854, 147.323 72.589 C 149.342 74.936, 150.124 75.199, 153.311 74.602 C 155.326 74.223, 157.394 73.132, 157.906 72.176 C 158.420 71.216, 158.579 65.778, 158.261 60.017 C 157.759 50.909, 157.397 49.306, 155.389 47.298 C 153.687 45.596, 151.948 45, 148.682 45 C 143.355 45, 139.948 42.107, 138.130 36.041 C 137.252 33.111, 136.257 31.852, 134.463 31.401 C 130.346 30.368, 127.096 31.729, 126.434 34.765 C 124.624 43.063, 121.861 45, 111.834 45 C 103.863 45, 101.706 42.227, 103.506 34.290 C 104.130 31.541, 103.798 30.644, 101.194 28.040 C 97.832 24.678, 97.390 24.556, 94.500 26.195 M 78.206 64.399 C 66.566 66.146, 65.602 67.263, 65.153 79.530 L 64.807 89.007 68.247 92.447 C 71.514 95.714, 71.961 95.861, 77.094 95.358 C 83.639 94.716, 90 96.968, 90 99.926 C 90 101.737, 89.041 101.814, 69.250 101.607 C 57.837 101.487, 47.712 101.767, 46.750 102.230 C 44.662 103.233, 44.296 110.196, 46.250 111.748 C 46.938 112.295, 51.863 113.050, 57.195 113.427 C 72.104 114.481, 75 115.120, 75 117.354 C 75 119.275, 71.238 121.600, 65.910 122.973 C 63.484 123.597, 58.244 125.670, 54.264 127.578 C 46.482 131.308, 43.314 135.023, 45.137 138.281 C 46.357 140.460, 49.742 140.467, 58.165 138.309 C 63.476 136.948, 65.349 136.838, 67.387 137.767 C 71.202 139.505, 71.626 142.989, 68.571 147.491 C 65.957 151.343, 65.445 153.635, 66.765 155.585 C 68.542 158.211, 71.237 158.507, 83.413 157.414 C 98.566 156.053, 101 154.877, 101 148.911 C 101 140.952, 97.587 139.073, 90.261 143 C 88.209 144.100, 86.069 145, 85.505 145 C 83.989 145, 81.824 141.094, 82.623 139.801 C 83.003 139.186, 83.449 136.264, 83.612 133.308 C 83.952 127.184, 86.438 122.926, 91.004 120.648 C 96.746 117.783, 104 122.546, 104 129.182 C 104 132.715, 106.723 135.952, 111.369 137.944 C 113.644 138.919, 117.952 141.805, 120.943 144.358 C 123.933 146.911, 126.715 149, 127.124 149 C 127.533 149, 130.035 150.322, 132.684 151.938 C 139.055 155.824, 152.050 158.354, 155.005 156.284 C 159.687 153.005, 156.324 146.952, 147.389 142.577 C 144.205 141.018, 141.022 139.165, 140.317 138.460 C 139.613 137.755, 138.518 137.006, 137.885 136.795 C 135.800 136.100, 136.491 130.429, 140.195 117.814 C 140.957 115.221, 142.138 113.771, 144.177 112.927 C 148.550 111.115, 150.204 106, 146.417 106 C 145.637 106, 145 105.563, 145 105.028 C 145 104.493, 142.487 103.325, 139.415 102.432 C 134.895 101.118, 131.488 100.943, 121.558 101.516 C 107.129 102.348, 100.736 101.608, 101.208 99.161 C 101.615 97.044, 105.427 96.265, 116.097 96.118 C 128.894 95.942, 129.870 94.599, 130.478 76.336 C 130.907 63.458, 130.948 63.496, 116.573 63.514 C 110.483 63.522, 103.475 63.698, 101 63.906 C 98.525 64.114, 94.250 64.030, 91.500 63.719 C 88.750 63.409, 82.768 63.715, 78.206 64.399 M 82.299 78.133 C 77.943 79.356, 77.254 80.922, 80.106 83.116 C 82.231 84.751, 84.184 84.925, 97.500 84.662 C 112.573 84.365, 117 83.426, 117 80.524 C 117 79.751, 116.551 78.840, 116.001 78.501 C 114.347 77.478, 85.742 77.166, 82.299 78.133 M 116 114.749 C 112.888 115.827, 112.001 117.134, 113.051 119.095 C 114.411 121.636, 119.663 124.242, 121.958 123.513 C 125.252 122.468, 130.035 117.611, 129.150 116.212 C 128.313 114.889, 118.686 113.818, 116 114.749" stroke="none" fill="black" fill-rule="evenodd"/>
</svg>