<svg xmlns="http://www.w3.org/2000/svg" width="256" height="256" viewBox="0 0 256 256" version="1.1">
	<path d="M 60.287 31.250 C 58.536 32.487, 56.067 35.234, 54.801 37.353 C 51.383 43.076, 47.281 47.663, 43.480 50.012 C 39.352 52.564, 36.655 56.888, 35.070 63.500 C 34.410 66.250, 33 69.988, 31.935 71.807 C 29.579 75.834, 29.582 75.657, 31.858 76.253 C 36.471 77.459, 46.933 69.316, 51.779 60.748 C 53.412 57.862, 57.600 53.025, 61.087 50 C 74.834 38.073, 76.285 35.495, 71.686 31.174 C 68.702 28.371, 64.320 28.401, 60.287 31.250 M 104.030 34.074 C 98.172 35.116, 93 38.909, 93 42.164 C 93 44.803, 97.441 47.251, 102.268 47.272 C 104.596 47.282, 116.206 47.060, 128.068 46.778 C 145.776 46.358, 150.296 45.954, 153.318 44.519 C 156.296 43.106, 157 42.225, 157 39.909 C 157 34.846, 153.913 33.806, 139.808 34.118 C 133.038 34.267, 123.450 34.100, 118.500 33.745 C 113.550 33.391, 107.039 33.539, 104.030 34.074 M 70.355 60.597 C 66.455 62.521, 63.977 65.202, 60.740 71 C 53.318 84.298, 52.794 84.988, 48.177 87.540 C 38.150 93.082, 30.947 108.381, 35.520 114.425 C 36.836 116.164, 37.232 116.214, 39.619 114.937 C 41.072 114.159, 42.736 112.393, 43.317 111.011 C 44.857 107.352, 50.109 102, 52.161 102 C 54.376 102, 55.342 103.822, 57.463 112 C 58.752 116.967, 59.125 122.522, 59.044 135.554 C 58.952 150.526, 59.181 153.150, 60.918 157.054 C 64.491 165.081, 69.206 165.207, 71.092 157.325 C 72.315 152.219, 72.308 138.159, 71.080 129.500 C 70.533 125.650, 69.823 116.425, 69.500 109 C 69.177 101.575, 68.731 92.913, 68.509 89.751 C 68.121 84.249, 68.273 83.806, 72.052 79.440 C 74.223 76.931, 76.018 74.343, 76.041 73.689 C 76.063 73.035, 77.413 70.942, 79.041 69.038 C 82.681 64.779, 83.004 60.502, 79.750 59.630 C 76.190 58.676, 73.737 58.929, 70.355 60.597 M 139 75 C 129.240 78.347, 126.229 78.580, 119.409 76.511 C 112.127 74.302, 101.273 74.536, 97.250 76.989 C 89.205 81.894, 96.597 86.846, 113.839 88.100 C 121.391 88.649, 124.687 89.312, 126.066 90.559 C 127.104 91.499, 127.785 92.545, 127.580 92.884 C 127.374 93.223, 127.594 98.900, 128.067 105.500 C 128.541 112.100, 129.225 122.036, 129.587 127.581 L 130.246 137.661 127.488 139.831 C 125.971 141.024, 124.194 142, 123.539 142 C 121.663 142, 118 146.417, 118 148.680 C 118 152.359, 121.694 155.832, 126.351 156.530 C 131.287 157.270, 137.284 155.246, 138.784 152.335 C 140.118 149.745, 141.057 127.480, 140.081 121.584 C 139.625 118.835, 139.714 111.246, 140.282 104.363 C 141.386 90.978, 142.473 88.532, 147.778 87.489 C 149.275 87.195, 152.300 86.402, 154.500 85.727 C 157.923 84.677, 158.528 84.067, 158.697 81.500 C 159.046 76.184, 158.163 74.253, 154.857 73.100 C 150.329 71.521, 148.505 71.740, 139 75 M 36.813 117.683 C 37.534 117.972, 38.397 117.936, 38.729 117.604 C 39.061 117.272, 38.471 117.036, 37.417 117.079 C 36.252 117.127, 36.015 117.364, 36.813 117.683" stroke="none" fill="black" fill-rule="evenodd"/>
</svg>