<svg xmlns="http://www.w3.org/2000/svg" width="256" height="256" viewBox="0 0 256 256" version="1.1">
	<path d="M 85.923 33.923 C 84.045 35.801, 83 37.876, 83 39.727 C 83 43.365, 78.398 52.717, 75.968 54.017 C 74.958 54.558, 71.029 55.653, 67.236 56.450 C 58.553 58.277, 49.571 61.607, 47.901 63.619 C 45.654 66.327, 44.361 78.793, 45.114 90.500 C 45.503 96.550, 46.083 108.557, 46.403 117.183 L 46.985 132.867 44.358 134.933 C 42.913 136.070, 40.466 137, 38.922 137 C 33.367 137, 30.890 145.272, 35.275 149.178 C 37.340 151.017, 39.253 151.246, 56.025 151.660 C 69.680 151.998, 76.718 151.728, 83 150.626 C 90.154 149.371, 92.609 149.337, 98.500 150.413 C 106.568 151.887, 140.060 151.754, 144 150.233 C 145.375 149.703, 148.979 149.480, 152.010 149.738 C 156.998 150.163, 157.779 149.948, 160.260 147.468 C 165.721 142.006, 163.039 137, 154.651 137 C 146.142 137, 146.101 136.872, 147.228 113.398 C 148.448 87.966, 147.763 62.761, 145.718 57.868 C 143.965 53.671, 140.991 52.543, 135.145 53.856 C 131.298 54.721, 104.521 54.422, 98.350 53.445 C 93.957 52.750, 92.684 50.960, 94.044 47.385 C 94.641 45.813, 96.001 43.716, 97.065 42.725 C 99.918 40.067, 99.483 36.584, 95.923 33.589 C 91.944 30.240, 89.525 30.321, 85.923 33.923 M 66.284 70.750 C 59.548 77.996, 59.509 78.125, 59.444 93.453 C 59.411 101.179, 59.082 108.600, 58.712 109.945 C 58.342 111.290, 58.664 114.780, 59.426 117.701 C 60.189 120.622, 60.693 125.248, 60.545 127.982 C 60.323 132.113, 60.634 133.183, 62.389 134.318 C 65.823 136.539, 70.025 137.224, 71.700 135.834 C 74.530 133.485, 75.040 129.759, 75.547 107.743 C 75.825 95.632, 76.256 85.395, 76.503 84.996 C 76.750 84.596, 77.020 80.782, 77.102 76.521 C 77.262 68.239, 76.638 67.044, 72.135 67.015 C 70.675 67.006, 68.435 68.436, 66.284 70.750 M 94.991 70.661 C 90.786 74.200, 89.823 76.975, 89.499 86.500 C 89.349 90.900, 88.728 97.425, 88.119 101 C 86.646 109.650, 87.699 131.866, 89.690 134.150 C 91.416 136.129, 100.713 136.082, 101.945 134.088 C 103.552 131.489, 104.274 117.747, 104.051 94.009 C 103.924 80.539, 103.609 69.177, 103.351 68.759 C 102.348 67.136, 98.006 68.124, 94.991 70.661 M 120.067 68.959 C 118.221 70.099, 117.121 78.416, 117.945 85 C 118.518 89.576, 118.304 94.312, 117.222 101 C 115.099 114.124, 114.782 132.806, 116.632 135.750 C 118.458 138.655, 122.162 138.648, 128 135.729 L 132.500 133.479 132.759 127.490 C 132.902 124.195, 133.736 119.331, 134.613 116.679 C 136.074 112.264, 136.073 111.322, 134.604 105.474 C 132.705 97.913, 132.605 93.396, 134.135 84.269 C 135.062 78.734, 135.008 76.874, 133.840 74.070 C 132.556 70.990, 131.830 70.524, 126.718 69.503 C 123.587 68.878, 120.594 68.633, 120.067 68.959" stroke="none" fill="black" fill-rule="evenodd"/>
</svg>