<svg xmlns="http://www.w3.org/2000/svg" width="256" height="256" viewBox="0 0 256 256" version="1.1">
	<path d="M 87.921 28.442 C 86.503 29.235, 84.134 31.711, 82.657 33.942 C 81.180 36.174, 79.636 38, 79.226 38 C 78.815 38, 77.359 39.032, 75.990 40.293 C 70.781 45.089, 64.215 48.799, 56.301 51.417 C 44.872 55.199, 41.582 57.579, 41.185 62.352 C 40.823 66.713, 42.293 69, 45.457 69 C 46.674 69, 52.694 67.409, 58.835 65.465 C 67.606 62.687, 70.428 62.159, 72 63 C 73.100 63.589, 74 64.505, 74 65.035 C 74 65.566, 74.936 66.936, 76.081 68.081 C 78.081 70.081, 78.090 70.213, 76.336 71.496 C 75.332 72.230, 72.196 73.120, 69.367 73.473 C 59.652 74.687, 58.352 79.056, 66.530 83.014 C 70.376 84.876, 71.870 85.060, 77.734 84.389 C 85.139 83.542, 84.804 83.540, 90.431 84.493 C 92.593 84.859, 93.921 85.460, 93.383 85.829 C 91.561 87.077, 88.284 92.479, 87.061 96.250 C 86.305 98.582, 85.213 100.009, 84.172 100.024 C 59.242 100.375, 52.937 100.193, 51.598 99.082 C 47.396 95.594, 40.906 102.196, 42.630 108.206 C 43.944 112.788, 45.940 113.635, 52.287 112.304 C 56.824 111.352, 58.669 111.459, 64.083 112.988 C 74.609 115.961, 74.474 115.866, 71.959 118.543 C 70.777 119.801, 68.670 121.117, 67.277 121.467 C 65.883 121.816, 63.125 123.202, 61.149 124.545 C 59.172 125.888, 55.388 127.707, 52.739 128.587 C 47.411 130.356, 44.468 133.749, 45.484 136.951 C 46.198 139.200, 50.055 139.673, 55.507 138.181 C 59.582 137.065, 66.265 138.594, 67.757 140.982 C 68.706 142.502, 68.718 144.069, 67.812 147.994 C 66.754 152.577, 66.837 153.302, 68.695 155.774 C 71.007 158.850, 72.395 158.959, 85.263 157.076 C 94.430 155.735, 97.706 154.610, 100.750 151.759 C 103.929 148.781, 103.807 143.575, 100.508 141.413 C 98.307 139.971, 97.257 139.931, 91.533 141.068 C 85.590 142.250, 84.883 142.204, 83.026 140.523 C 79.236 137.094, 81.024 126.480, 86.568 119.500 C 88.315 117.300, 89.628 114.788, 89.485 113.919 C 89.304 112.813, 90.828 111.793, 94.548 110.528 C 99.894 108.711, 100.839 108.733, 112.500 110.936 C 115.250 111.456, 120.058 111.908, 123.185 111.940 C 133.625 112.050, 137.144 115.130, 130.466 118.315 C 125.769 120.555, 124.587 120.467, 117.199 117.331 C 110.944 114.676, 110.885 114.671, 108.941 116.615 C 107.864 117.692, 106.572 120.005, 106.070 121.755 C 104.810 126.148, 108.104 131.044, 113.301 132.502 C 115.916 133.236, 119.253 135.824, 124.295 141.028 C 135.662 152.760, 146.558 158.992, 150.796 156.184 C 152.539 155.029, 148.405 147.010, 145.259 145.441 C 142.384 144.009, 137 136.603, 137 134.081 C 137 133.016, 138.054 131.316, 139.341 130.304 C 143.130 127.323, 144.289 124.234, 143.591 118.974 C 142.889 113.681, 143.554 113, 149.427 113 C 152.797 113, 156.027 110.492, 155.967 107.921 C 155.904 105.227, 152.264 102, 149.290 102 C 147.700 102, 145.884 101.484, 145.253 100.853 C 144.623 100.223, 140.595 99.528, 136.303 99.310 C 132.011 99.092, 127.068 98.693, 125.317 98.424 L 122.134 97.935 125.194 91.767 C 130.014 82.054, 130.317 80.227, 127.571 77.480 C 126.283 76.192, 123.266 74.651, 120.865 74.054 C 118.464 73.457, 114.700 72.415, 112.500 71.738 C 110.300 71.061, 108.162 70.618, 107.750 70.754 C 107.338 70.889, 107 70.550, 107 70 C 107 69.450, 107.659 69, 108.465 69 C 110.381 69, 112 65.880, 112 62.188 C 112 58.542, 114.144 56.612, 117.202 57.508 C 118.466 57.878, 125.458 61.065, 132.741 64.590 C 140.024 68.116, 147.094 71, 148.452 71 C 155.767 71, 156.730 60.726, 149.678 57.917 C 147.930 57.221, 145.375 55.888, 144 54.955 C 142.625 54.023, 138.575 52.250, 135 51.015 C 123.040 46.885, 106.829 38.137, 101.492 32.931 C 95.938 27.513, 91.943 26.192, 87.921 28.442 M 92 45.594 C 87.971 47.339, 83 51.784, 83 53.640 C 83 55.114, 89.031 56.986, 93.807 56.994 C 97.792 57.001, 106 55.036, 106 54.076 C 106 53.014, 101.161 46.651, 99.289 45.250 C 97.188 43.678, 96.330 43.719, 92 45.594 M 93 70.059 C 93 70.641, 92.550 70.840, 92 70.500 C 90.511 69.580, 90.791 70.934, 92.429 72.571 C 94.164 74.307, 101.139 74.461, 102.800 72.800 C 105.431 70.169, 104.109 69, 98.500 69 C 95.296 69, 93 69.442, 93 70.059 M 97 86.091 C 97 86.691, 98.575 89.022, 100.500 91.271 C 102.425 93.520, 104 95.934, 104 96.635 C 104 98.113, 109.404 99.283, 112.885 98.559 C 115.948 97.922, 116.390 97.433, 115.365 95.817 C 114.906 95.092, 114.463 94.275, 114.381 94 C 113.315 90.443, 112.382 89.163, 109.462 87.250 C 105.806 84.854, 97 84.035, 97 86.091" stroke="none" fill="black" fill-rule="evenodd"/>
</svg>