<svg xmlns="http://www.w3.org/2000/svg" width="256" height="256" viewBox="0 0 256 256" version="1.1">
	<path d="M 109.500 30.057 C 107.300 30.512, 101.881 30.911, 97.458 30.942 C 93.036 30.974, 84.261 31.666, 77.958 32.479 C 71.656 33.293, 61.591 34.413, 55.590 34.969 C 44.095 36.034, 40 37.615, 40 40.988 C 40 43.340, 42.088 44.510, 47.855 45.392 C 50.250 45.758, 53.491 46.720, 55.057 47.530 C 57.773 48.934, 57.904 49.321, 57.883 55.886 C 57.871 59.673, 58.366 64.647, 58.984 66.940 C 59.685 69.542, 59.884 75.127, 59.514 81.804 C 59.189 87.687, 59.433 97, 60.057 102.500 C 60.682 108, 61.525 115.756, 61.932 119.735 C 62.580 126.074, 63.063 127.343, 65.836 129.993 C 69.733 133.718, 69.838 136.584, 66.250 141.268 C 64.060 144.127, 62.074 145.296, 56.500 147.006 C 47.575 149.744, 46.802 150.165, 45.047 153.256 C 43.861 155.344, 43.820 156.309, 44.824 158.513 C 46.240 161.622, 47.447 161.595, 59.833 158.179 C 69.449 155.527, 73.643 152.441, 78.500 144.445 C 86.154 131.844, 86.426 131.516, 89.502 131.162 C 91.117 130.977, 94.197 131.405, 96.345 132.114 C 99.744 133.236, 100.624 134.210, 103.126 139.613 C 104.707 143.029, 106 146.229, 106 146.725 C 106 151.153, 127.113 161, 136.609 161 C 139.301 161, 149.829 155.565, 151.684 153.217 C 155.363 148.561, 156.195 145.886, 154.923 142.813 C 154.243 141.173, 152.566 139.405, 151.194 138.884 C 148.646 137.915, 147.202 138.653, 138.745 145.249 C 136.141 147.281, 135.648 147.328, 129.745 146.116 C 126.310 145.411, 122.090 143.967, 120.368 142.908 C 116.998 140.836, 114.408 135.984, 115.355 133.516 C 116.026 131.768, 120.656 129.512, 126.647 128.015 C 128.928 127.445, 131.112 126.196, 131.500 125.239 C 132.241 123.413, 132.928 105.424, 133.287 78.500 L 133.500 62.500 136.250 59.795 C 139.292 56.804, 139.500 55.734, 137.924 51.212 C 136.353 46.704, 132.160 46.014, 127.578 49.508 C 123.821 52.374, 119 60.936, 119 64.742 C 119 66.034, 117.845 68.246, 116.434 69.657 C 114.356 71.735, 113.264 72.103, 110.697 71.589 C 105.998 70.650, 104.499 68.805, 106.060 65.887 C 106.751 64.597, 107.920 62.937, 108.658 62.199 C 110.702 60.155, 110.292 57.852, 106.942 52.569 C 105.260 49.917, 104.111 47.152, 104.390 46.426 C 105.216 44.273, 112.298 42.934, 122.727 42.958 C 134.021 42.984, 144.570 40.672, 146.087 37.838 C 147.544 35.114, 145.705 32.499, 141.009 30.620 C 136.581 28.849, 117.032 28.499, 109.500 30.057 M 75.500 45.394 C 72.200 46.053, 68.713 47.039, 67.750 47.585 C 66.103 48.521, 66.121 48.809, 68.074 52.539 C 69.215 54.718, 70.406 59.200, 70.721 62.500 C 71.036 65.800, 71.791 68.844, 72.397 69.265 C 73.751 70.204, 85.222 69.235, 90 67.778 C 94.468 66.415, 95.084 65.388, 93.387 62.134 C 92.618 60.660, 92.010 56.516, 92.006 52.725 C 92 46.376, 91.839 45.889, 89.435 44.975 C 86.257 43.767, 83.187 43.859, 75.500 45.394 M 87 81.962 C 85.625 82.423, 81.736 82.845, 78.357 82.900 C 74.030 82.971, 72.052 83.422, 71.666 84.427 C 70.439 87.625, 73.592 88.291, 85.759 87.403 C 92.217 86.932, 102.217 86.536, 107.982 86.523 C 116.761 86.504, 118.515 86.241, 118.775 84.908 C 119.276 82.341, 116.448 80.664, 113.271 81.645 C 110.426 82.523, 97.847 82.509, 92.500 81.621 C 90.850 81.347, 88.375 81.501, 87 81.962 M 82.750 97.689 C 79.905 98.433, 80.751 100.700, 84.125 101.375 C 89.794 102.509, 106 102.107, 106 100.833 C 106 100.192, 105.727 99.940, 105.394 100.273 C 105.060 100.607, 103.850 100.007, 102.705 98.940 C 100.975 97.328, 99.260 97.020, 92.561 97.116 C 88.128 97.180, 83.713 97.438, 82.750 97.689 M 90.830 112.503 C 90.520 112.813, 86.328 113.082, 81.514 113.100 C 72.936 113.131, 69 114.255, 69 116.673 C 69 118.525, 71.341 118.809, 88.500 119.035 C 121.300 119.468, 121.489 119.446, 119.941 115.333 C 119.179 113.307, 118.440 113.160, 108.587 113.081 C 102.791 113.035, 96.551 112.759, 94.721 112.468 C 92.891 112.177, 91.140 112.193, 90.830 112.503" stroke="none" fill="black" fill-rule="evenodd"/>
</svg>