<svg xmlns="http://www.w3.org/2000/svg" width="256" height="256" viewBox="0 0 256 256" version="1.1">
	<path d="M 61.998 33.995 C 57.324 36.742, 52.896 39.780, 52.158 40.745 C 51.193 42.006, 50.971 44.459, 51.368 49.466 C 51.672 53.298, 51.434 58.362, 50.840 60.720 C 50.034 63.923, 50.067 65.747, 50.971 67.930 C 52.950 72.708, 51.648 74.555, 44.981 76.425 C 41.701 77.346, 38.611 78.864, 38.113 79.799 C 37.616 80.735, 36.884 84.987, 36.487 89.249 L 35.765 96.998 39.133 98.414 C 43.085 100.076, 43.860 99.621, 47.416 93.552 C 50.144 88.898, 54.074 86.672, 58 87.557 C 59.375 87.867, 62.249 88.386, 64.387 88.710 L 68.275 89.300 65.403 90.805 C 62.738 92.201, 62.674 92.365, 64.516 93.084 C 65.607 93.511, 65.926 93.891, 65.225 93.930 C 62.969 94.054, 62.064 98.691, 61.570 112.660 C 61.133 125.026, 61.291 126.815, 63.229 131.415 C 64.407 134.212, 66.188 137.573, 67.186 138.885 C 70.272 142.941, 69.532 144.425, 63.497 146.283 C 60.471 147.215, 56.084 148.266, 53.747 148.619 C 46.333 149.738, 42.622 155.480, 46.687 159.544 C 48.037 160.894, 49.453 161.105, 53.762 160.598 C 65.890 159.173, 76.973 153.345, 80.536 146.519 C 83.154 141.505, 86.587 140.119, 94.939 140.705 C 102.851 141.261, 106 142.996, 106 146.801 C 106 150.931, 108.079 153.143, 115.548 156.961 C 121.524 160.015, 123.414 160.469, 131.655 160.830 C 139.685 161.181, 142.188 160.865, 149.538 158.574 C 156.440 156.422, 158.264 155.436, 159.019 153.451 C 160.284 150.123, 158.567 146.620, 154.632 144.503 C 151.580 142.862, 151.294 142.900, 143.500 146.004 C 136.851 148.652, 134.487 149.123, 129.500 148.794 C 122.004 148.299, 117.365 146.175, 117.850 143.460 C 118.288 141.007, 119.571 140.176, 124 139.477 C 125.925 139.173, 128.625 138.362, 130 137.676 C 132.423 136.466, 132.508 136.073, 132.767 124.964 C 132.913 118.659, 133.473 112.150, 134.009 110.500 C 134.546 108.850, 134.793 106.504, 134.557 105.287 C 134.044 102.635, 130.898 95.708, 129.881 94.990 C 129.484 94.709, 128.849 93.247, 128.471 91.740 C 127.788 89.021, 127.823 89, 132.892 89 C 135.701 89, 138 89.352, 138 89.782 C 138 90.212, 139.196 90.663, 140.658 90.784 C 142.120 90.905, 144.829 92.158, 146.678 93.568 C 148.527 94.978, 151.604 96.386, 153.517 96.696 C 156.734 97.219, 157.095 97.009, 158.362 93.880 C 159.115 92.021, 159.634 88.329, 159.514 85.676 C 159.248 79.780, 156.881 77.062, 151.367 76.322 C 146.293 75.642, 143.739 73.727, 144.022 70.815 C 144.146 69.542, 144.296 62.425, 144.356 55 C 144.505 36.421, 144.116 35.874, 129.828 34.553 C 122.717 33.896, 121.992 34.008, 119.917 36.083 L 117.677 38.323 120.854 41.161 C 122.602 42.723, 125.123 44, 126.457 44 C 129.633 44, 130.792 45.981, 128.390 47.306 C 124.148 49.644, 120 54.806, 120 57.745 C 120 59.382, 119.145 61.464, 118.074 62.433 C 115.883 64.416, 116.069 66.851, 118.689 70.449 C 120.212 72.541, 121.331 72.942, 125.719 72.969 C 129.475 72.991, 130.802 73.350, 130.454 74.250 C 130.118 75.119, 127.460 75.476, 121.735 75.422 C 108.625 75.299, 109 75.400, 109 72 C 109 70.350, 109.378 69, 109.839 69 C 110.301 69, 111.200 67.857, 111.836 66.460 C 113.312 63.222, 111.207 59.667, 106.489 57.428 C 103.441 55.981, 102.964 56.015, 99.376 57.939 C 97.260 59.072, 94.941 60, 94.223 60 C 91.765 60, 85.706 65.716, 86.611 67.180 C 86.988 67.789, 87.445 69.567, 87.627 71.130 C 88.017 74.484, 87.439 74.684, 75.311 75.382 C 69.354 75.724, 66.830 75.500, 66.049 74.559 C 64.520 72.717, 66.736 71.148, 71.298 70.841 C 73.334 70.703, 75 70.233, 75 69.796 C 75 69.358, 75.900 69, 77 69 C 80.241 69, 79.651 64.512, 76.222 63.092 C 72.625 61.602, 70.262 58.074, 72.101 56.938 C 74.026 55.748, 71.644 51.200, 68.712 50.464 C 66.121 49.814, 62.405 44.486, 63.898 43.563 C 64.410 43.247, 67.788 42.074, 71.405 40.957 C 78.872 38.650, 80.572 36.048, 77.587 31.493 C 75.149 27.772, 71.621 28.339, 61.998 33.995 M 94.500 33.186 C 93.400 33.805, 90.813 35.629, 88.750 37.240 C 84.188 40.802, 83.914 43.759, 87.750 48.030 C 90.413 50.994, 90.691 51.069, 96.500 50.392 C 101.568 49.802, 103.005 49.162, 105.750 46.275 C 110.498 41.282, 109.938 36.158, 104.316 33.163 C 101.576 31.704, 97.115 31.715, 94.500 33.186 M 94.750 72.392 C 92.953 73.756, 92.260 75.575, 93.931 74.543 C 94.443 74.226, 95.144 74.425, 95.490 74.984 C 96.342 76.363, 99.603 76.265, 101.966 74.789 C 103.795 73.647, 103.732 73.507, 100.837 72.289 C 97.112 70.723, 96.944 70.726, 94.750 72.392 M 78.184 113.734 C 75.451 114.066, 75.076 114.386, 76.048 115.557 C 76.696 116.339, 77.721 116.672, 78.325 116.299 C 78.930 115.925, 80.904 115.719, 82.712 115.841 C 84.520 115.963, 86 115.599, 86 115.031 C 86 114.464, 85.587 114, 85.082 114 C 84.577 114, 83.564 113.850, 82.832 113.666 C 82.099 113.482, 80.008 113.513, 78.184 113.734 M 94.813 113.983 C 93.336 114.428, 91.873 114.540, 91.563 114.230 C 91.253 113.920, 91 114.192, 91 114.833 C 91 115.475, 91.338 116.027, 91.750 116.060 C 92.162 116.093, 94.576 116.326, 97.113 116.578 C 100.646 116.928, 102.051 116.635, 103.113 115.325 C 103.885 114.374, 103.977 113.930, 103.319 114.324 C 102.670 114.714, 101.856 114.575, 101.510 114.016 C 100.785 112.842, 98.628 112.832, 94.813 113.983 M 112.222 113.842 C 111.283 114.438, 111.548 114.924, 113.222 115.675 C 115.953 116.900, 118 116.361, 118 114.417 C 118 112.878, 114.318 112.512, 112.222 113.842 M 84.500 128.061 C 75.129 128.645, 74.505 128.843, 79.500 129.643 C 84.359 130.422, 90.094 130.308, 96.500 129.305 L 102.500 128.366 98 127.933 C 95.525 127.695, 89.450 127.752, 84.500 128.061 M 114.065 129.154 C 112.726 129.659, 111.039 129.845, 110.315 129.567 C 109.592 129.290, 109 129.499, 109 130.031 C 109 130.564, 111.025 131, 113.500 131 C 115.975 131, 118 130.577, 118 130.059 C 118 128.498, 116.635 128.184, 114.065 129.154" stroke="none" fill="black" fill-rule="evenodd"/>
</svg>