<svg xmlns="http://www.w3.org/2000/svg" width="256" height="256" viewBox="0 0 256 256" version="1.1">
	<path d="M 68.640 30.993 C 59.421 31.912, 56.577 33.880, 56.779 39.201 C 56.848 41.015, 57.085 54.650, 57.306 69.500 C 57.527 84.350, 58.066 98.281, 58.504 100.458 C 59.405 104.936, 63.937 113, 65.552 113 C 68.481 113, 70.335 115.808, 70.171 119.997 C 69.672 132.743, 63.541 141.053, 51.792 144.910 C 47.521 146.312, 44 151.173, 44 155.668 C 44 162.358, 48.497 162.602, 60.432 156.562 C 69.576 151.935, 74.446 147.433, 78.771 139.609 C 81.919 133.914, 85.266 122.268, 84.755 118.787 C 84.172 114.813, 86.704 113.608, 93.778 114.491 C 101.519 115.459, 102 115.760, 102 119.633 C 102 124.081, 105.726 138.484, 108.079 143.128 C 113.991 154.802, 135.025 163.359, 146.264 158.663 C 149.928 157.132, 153.989 152.007, 153.996 148.904 C 153.998 148.026, 154.698 145.908, 155.551 144.198 C 156.562 142.173, 156.997 139.068, 156.801 135.294 C 156.506 129.607, 156.442 129.494, 153.366 129.195 C 149.657 128.835, 146.010 132.635, 145.985 136.885 C 145.964 140.477, 145.239 141.269, 139.571 143.895 C 133.973 146.488, 130.400 146.217, 125.446 142.822 C 119.382 138.667, 118.092 135.424, 115.774 118.500 C 115.411 115.849, 120.724 113.252, 127.989 112.529 C 135.310 111.801, 136.986 111.184, 137.077 109.183 C 137.119 108.257, 137.330 106.600, 137.547 105.500 C 138.417 101.087, 139.154 81.335, 139.215 60.788 C 139.293 34.666, 139.411 35.002, 129.307 32.677 C 121.370 30.850, 81.239 29.736, 68.640 30.993 M 69.550 44.593 C 67.550 46.593, 67.556 51.386, 69.561 53.051 C 70.825 54.100, 72.047 54.110, 75.972 53.104 C 79.055 52.314, 83.311 52.103, 87.660 52.526 C 91.422 52.892, 97.200 53.294, 100.500 53.419 C 103.800 53.545, 109.269 54.012, 112.654 54.456 C 122.744 55.782, 127.214 53.322, 125.051 47.634 C 123.847 44.466, 122.166 44.251, 93.300 43.568 C 74.108 43.113, 70.891 43.252, 69.550 44.593 M 71.385 66.480 C 69.611 67.226, 68.021 68.788, 67.659 70.141 C 66.638 73.953, 66.906 77.821, 68.250 78.691 C 68.938 79.136, 75.800 79.532, 83.500 79.571 C 91.200 79.610, 103.125 79.773, 110 79.934 C 123.425 80.248, 127.445 79.324, 128.609 75.657 C 129.612 72.497, 125.142 69.272, 118.783 68.566 C 115.877 68.243, 105.060 67.559, 94.745 67.046 C 84.429 66.532, 75.650 65.902, 75.235 65.645 C 74.820 65.389, 73.087 65.764, 71.385 66.480 M 71.828 91.963 C 69.702 93.297, 68.421 98.821, 69.896 100.296 C 72.091 102.491, 115.376 102.577, 120.593 100.397 C 124.540 98.748, 124.605 98.566, 122.187 95.970 C 120.790 94.471, 118.090 93.784, 110.437 92.981 C 104.972 92.407, 98.025 91.984, 95 92.041 C 91.975 92.097, 85.900 91.867, 81.500 91.529 C 76.558 91.150, 72.861 91.316, 71.828 91.963" stroke="none" fill="black" fill-rule="evenodd"/>
</svg>