<svg xmlns="http://www.w3.org/2000/svg" width="256" height="256" viewBox="0 0 256 256" version="1.1">
	<path d="M 112.819 33.515 C 112.486 33.848, 107.103 34.106, 100.857 34.088 C 94.611 34.071, 85.900 34.498, 81.500 35.038 C 77.100 35.577, 67.425 36.182, 60 36.382 C 46.264 36.751, 40.944 37.949, 38.167 41.297 C 36.450 43.368, 37.486 46.617, 40.491 48.586 C 42.473 49.884, 43.799 49.942, 49.165 48.964 C 53.028 48.259, 59.013 48.067, 64.500 48.470 C 74.246 49.185, 76.688 50.458, 77.032 55 C 77.414 60.039, 76.948 61.764, 74.492 64.414 C 72.227 66.858, 71.541 67.054, 67.405 66.433 C 60.556 65.406, 48.611 67.721, 45.907 70.599 C 43.982 72.648, 43.677 74.244, 43.398 83.716 C 43.210 90.089, 43.702 98.464, 44.600 104.193 C 45.745 111.497, 45.885 115.582, 45.166 120.771 C 44.641 124.558, 44.425 128.971, 44.686 130.578 C 45.736 137.048, 50.357 150.120, 51.878 150.925 C 52.782 151.404, 61.107 151.397, 70.684 150.910 C 124.183 148.189, 132.320 148.222, 139.216 151.188 C 142.096 152.427, 144.919 152.986, 146.407 152.613 C 149.010 151.959, 148.691 152.969, 152.440 133.500 C 153.382 128.611, 153.745 118.799, 153.644 100.957 C 153.456 67.664, 153.844 68.303, 132.213 65.635 C 119.378 64.052, 117 62.746, 117 57.279 C 117 49.241, 120.910 47.623, 139.644 47.914 C 152.732 48.117, 152.893 48.093, 154.503 45.636 C 155.970 43.397, 155.981 42.864, 154.614 40.221 C 153.314 37.706, 152.347 37.200, 147.799 36.654 C 144.885 36.304, 139.492 36.013, 135.815 36.009 C 132.138 36.004, 128.088 35.610, 126.815 35.134 C 123.620 33.939, 113.559 32.775, 112.819 33.515 M 91.697 50.250 C 90.771 50.938, 89.738 53.530, 89.403 56.012 C 88.667 61.462, 90.798 64.643, 95.654 65.341 C 99.411 65.882, 104.967 62.886, 105.069 60.265 C 105.107 59.294, 105.293 57.339, 105.483 55.919 C 105.672 54.500, 105.529 52.880, 105.164 52.319 C 103.105 49.156, 94.876 47.892, 91.697 50.250 M 64.599 79.524 C 61.904 80.264, 59.373 81.396, 58.975 82.040 C 58.577 82.684, 58.265 87.642, 58.281 93.058 C 58.312 103.662, 58.874 104.759, 63.398 103.039 C 67.817 101.359, 72.794 96.053, 74.416 91.292 C 76.609 84.856, 76.479 80.327, 74.066 79.035 C 71.705 77.772, 70.817 77.817, 64.599 79.524 M 95.500 80.255 C 90.114 81.666, 87.655 84.819, 84.501 94.361 C 80.214 107.335, 78.119 110.195, 70.500 113.473 C 58.518 118.629, 57.857 119.483, 58.915 128.465 C 59.606 134.331, 59.152 134.163, 79 135.914 C 95.860 137.401, 103.927 137.290, 109 135.500 C 111.854 134.493, 117.113 134, 125.003 134 C 133.187 134, 137.069 133.620, 137.789 132.750 C 138.358 132.063, 139.413 128.638, 140.134 125.140 C 141.402 118.990, 141.372 118.720, 139.221 116.978 C 137.998 115.987, 133.285 113.995, 128.748 112.550 C 112.320 107.319, 109.513 104.271, 108.432 90.483 C 107.538 79.093, 105.647 77.596, 95.500 80.255 M 120.395 81.519 C 116.827 86.965, 121.025 95.536, 128.331 97.722 C 134.660 99.616, 136.377 99.326, 138.323 96.031 C 139.688 93.719, 139.926 91.924, 139.396 87.929 C 138.823 83.611, 138.223 82.497, 135.608 80.903 C 133.607 79.683, 130.638 79.006, 127.273 79.004 C 122.788 79.001, 121.812 79.358, 120.395 81.519" stroke="none" fill="black" fill-rule="evenodd"/>
</svg>