<svg xmlns="http://www.w3.org/2000/svg" width="256" height="256" viewBox="0 0 256 256" version="1.1">
	<path d="M 52.615 30.465 C 50.404 33.839, 50.565 35.441, 53.750 41.737 L 56.500 47.173 54.073 49.140 C 51.937 50.872, 50.721 51.026, 43.900 50.431 C 36.953 49.825, 35.841 49.977, 33.135 51.904 C 27.034 56.248, 28.396 60.731, 36.507 63.002 C 41.660 64.445, 59.434 63.696, 64.630 61.817 C 67.367 60.827, 68.883 60.913, 73.311 62.309 C 80.187 64.476, 81.564 64.436, 84 62 C 86.713 59.287, 86.515 55.832, 83.483 52.984 C 81.437 51.062, 79.749 50.581, 74.456 50.409 C 66.777 50.161, 64.582 48.801, 65.415 44.807 C 65.737 43.263, 66.253 40.763, 66.562 39.250 C 66.986 37.175, 66.351 35.457, 63.975 32.250 C 61.379 28.745, 60.249 28, 57.528 28 C 55.126 28, 53.791 28.670, 52.615 30.465 M 106.025 32.778 C 104.303 34.173, 103.647 36.170, 102.988 42.028 C 101.954 51.216, 101.172 53.299, 96.616 59 C 94.638 61.475, 93.015 64.458, 93.010 65.628 C 92.995 68.825, 90.425 74.263, 87.942 76.351 C 85.575 78.342, 85.004 78.199, 78.365 73.955 C 73.542 70.871, 65.422 69.161, 54.096 68.845 C 43.901 68.560, 43.750 68.589, 41.389 71.334 C 38.500 74.693, 38.417 76.058, 40.912 79.139 C 42.718 81.369, 43.454 81.500, 54.162 81.500 C 65.267 81.500, 65.611 81.568, 70.906 84.837 C 74.945 87.329, 76.968 88.010, 78.906 87.526 C 86.288 85.684, 86.977 85.745, 90.756 88.584 C 95.066 91.822, 97.919 94.824, 98.185 96.403 C 98.287 97.006, 98.400 109.714, 98.435 124.643 C 98.495 149.878, 98.634 151.933, 100.405 153.893 C 102.933 156.689, 104.817 156.550, 108.193 153.315 L 110.996 150.630 130.748 150.766 C 141.612 150.841, 152.435 151.148, 154.800 151.448 C 158.564 151.926, 159.416 151.654, 161.629 149.266 C 163.594 147.146, 164.028 145.865, 163.576 143.519 C 162.654 138.733, 159.718 137, 152.535 137 C 147.294 137, 145.867 136.606, 143.646 134.548 C 140.592 131.718, 140.468 130.930, 142.463 127.072 C 144.166 123.778, 145.376 123.204, 152.348 122.376 C 158.736 121.618, 159 121.460, 159 118.385 C 159 115.434, 153.710 110.168, 150 109.426 C 143.418 108.110, 142.508 107.491, 141.565 103.693 C 140.250 98.398, 142.948 95.705, 149.436 95.835 C 155.310 95.953, 158.648 94.684, 159.497 92.008 C 160.672 88.307, 157.787 85.494, 151.345 84.060 C 144.759 82.594, 139.984 79.691, 140.033 77.182 C 140.118 72.922, 146.148 69, 152.615 69 C 161.629 69, 165.118 62.828, 159.398 57 C 157.251 54.813, 156.168 54.523, 150.740 54.683 C 146.868 54.798, 144.253 54.422, 143.783 53.683 C 143.369 53.032, 143.024 49.748, 143.015 46.385 C 143.004 41.674, 142.511 39.647, 140.869 37.560 C 137.603 33.409, 134.638 32.697, 128.578 34.607 C 123.413 36.235, 123.336 36.228, 118.445 33.624 C 112.679 30.554, 109.075 30.309, 106.025 32.778 M 117.568 41.356 C 114.015 44.198, 113.283 49.041, 116.030 51.527 C 118.788 54.023, 129.141 54.716, 131.307 52.550 C 133.853 50.004, 133.356 46.475, 129.896 42.535 C 126.122 38.236, 121.964 37.839, 117.568 41.356 M 116.449 68.935 C 110.699 70, 105.942 75.247, 106.776 79.606 C 107.361 82.668, 110.419 83.478, 117.829 82.535 C 120.948 82.138, 124.186 81.742, 125.025 81.656 C 127.043 81.450, 132.878 77.073, 131.191 77.032 C 130.471 77.014, 130.147 76.572, 130.470 76.048 C 130.794 75.525, 129.808 73.711, 128.279 72.018 C 125.379 68.805, 121.960 67.914, 116.449 68.935 M 45 87.731 C 42.219 88.702, 39 92.333, 39 94.500 C 39 97.909, 43.221 100.996, 50.070 102.593 C 55.767 103.922, 56.895 103.905, 61.641 102.412 C 67.489 100.573, 70.392 100.947, 74.338 104.051 C 77.592 106.611, 77.752 109.468, 74.750 111.409 C 70.777 113.979, 67.319 114.287, 62.613 112.490 C 60.155 111.551, 54.983 110.720, 51.116 110.642 C 43.147 110.481, 41.615 111.392, 39.255 117.696 C 36.182 125.901, 35.635 130.960, 36.839 140.007 C 37.478 144.803, 38 150.293, 38 152.208 C 38 156.373, 40.522 159.021, 44.611 159.150 C 54.176 159.454, 75.401 155.732, 79 153.120 C 81.809 151.081, 83.874 144.444, 83.982 137.109 C 84.132 126.853, 83.014 111.895, 81.948 109.904 C 81.129 108.372, 81.117 107.483, 81.907 106.693 C 83.205 105.395, 83.378 98.351, 82.131 97.581 C 81.654 97.286, 80.973 95.234, 80.620 93.022 C 80.016 89.250, 79.767 89, 76.610 89 C 74.759 89, 71.718 89.638, 69.852 90.417 C 66.842 91.675, 65.563 91.622, 58.480 89.948 C 46.810 87.189, 46.635 87.161, 45 87.731 M 117.101 96.203 C 111.029 97.129, 108.723 99.211, 109.572 103 C 110.464 106.985, 112.082 107.858, 119 108.089 C 128.188 108.394, 129.899 107.683, 129.529 103.710 C 128.866 96.593, 125.980 94.849, 117.101 96.203 M 56.529 123.740 C 50.932 125.372, 49.188 127.911, 48.384 135.598 C 47.578 143.307, 48.614 144.213, 58.880 144.785 C 66.489 145.209, 66.663 145.165, 68.564 142.358 C 71.076 138.649, 71.113 128.347, 68.627 124.554 C 66.731 121.659, 64.239 121.492, 56.529 123.740 M 118 122.738 C 114.247 123.187, 111 125.467, 111 127.655 C 111 128.395, 110.550 129, 110 129 C 108.615 129, 108.738 134.720, 110.142 135.588 C 110.770 135.976, 115.306 136.287, 120.223 136.279 C 131.068 136.262, 132.566 135.310, 131.517 129.103 C 130.437 122.709, 127.969 121.547, 118 122.738" stroke="none" fill="black" fill-rule="evenodd"/>
</svg>