<svg xmlns="http://www.w3.org/2000/svg" width="256" height="256" viewBox="0 0 256 256" version="1.1">
	<path d="M 54.073 30.635 C 51.490 33.918, 51.440 37.570, 53.922 41.640 C 57.035 46.745, 56.944 49.232, 53.585 50.857 C 51.254 51.985, 49.705 52.045, 45.857 51.156 C 40.529 49.927, 38.582 50.324, 35.250 53.323 C 28.606 59.304, 36.483 65.769, 48.092 63.863 C 51.066 63.375, 55.142 63.238, 57.148 63.558 C 59.155 63.879, 62.547 63.617, 64.688 62.975 C 69.225 61.616, 76.424 63.056, 77.366 65.511 C 78.203 67.693, 82.463 67.327, 85.266 64.831 C 87.459 62.877, 87.604 62.277, 86.722 58.802 C 85.235 52.946, 82.058 51, 73.988 51 C 65.747 51, 64.006 49.638, 65.823 44.613 C 67.711 39.392, 67.259 35.029, 64.449 31.344 C 61.194 27.076, 57.092 26.796, 54.073 30.635 M 90.746 36.134 C 86.892 39.593, 86.641 45.179, 90.250 47.172 C 92.349 48.331, 97.006 48.542, 137.948 49.336 L 146.397 49.500 147.689 53.937 C 149.236 59.250, 149.393 131.175, 147.871 137.233 C 146.913 141.043, 144.649 143, 141.201 143 C 138.274 143, 134 146.831, 134 149.455 C 134 150.827, 135.671 153.436, 138.118 155.882 C 141.562 159.327, 142.886 160, 146.217 160 C 150.345 160, 156.091 157.800, 158.014 155.483 C 160.142 152.919, 161.040 137.173, 161.434 95.500 C 161.913 44.863, 161.659 40.505, 158.014 36.861 C 155.488 34.334, 155.102 34.255, 149.931 35.201 C 146.944 35.748, 139.775 35.927, 134 35.599 C 128.225 35.272, 116.724 34.725, 108.441 34.385 C 93.601 33.776, 93.344 33.801, 90.746 36.134 M 122.917 58.380 C 122.688 58.589, 118.442 59.013, 113.482 59.322 C 104.841 59.860, 96.186 61.404, 93 62.975 C 89.322 64.789, 91.350 71.093, 96.465 73.744 C 98.369 74.732, 101.549 75.235, 105 75.094 C 114.452 74.709, 122.277 74.658, 128.455 74.940 C 133.670 75.178, 134.646 74.921, 136.305 72.871 C 138.516 70.142, 138.177 64.445, 135.567 60.462 C 134.188 58.358, 133.183 58, 128.644 58 C 125.723 58, 123.146 58.171, 122.917 58.380 M 43.250 70.963 C 40.587 72.608, 40 73.601, 40 76.462 C 40 82.188, 42.907 83.371, 56.324 83.109 C 64.448 82.951, 68.319 83.289, 70.500 84.349 C 72.150 85.151, 74.931 86.104, 76.680 86.468 C 79.342 87.021, 80.062 86.753, 81.090 84.832 C 83.116 81.046, 82.785 74.760, 80.426 72.227 C 78.805 70.487, 77.170 69.980, 72.926 69.904 C 66.878 69.796, 60.881 69.898, 55.250 70.204 C 53.188 70.316, 50.375 70.081, 49 69.682 C 47.256 69.176, 45.518 69.563, 43.250 70.963 M 98.500 83.662 C 93.983 84.876, 92.338 87.705, 92.039 94.772 C 91.580 105.594, 91.755 107.625, 93.422 110.849 C 94.290 112.527, 95 115.297, 95 117.005 C 95 119.046, 95.988 121.165, 97.885 123.196 C 100.983 126.510, 101.288 126.559, 115.500 126.058 C 119.350 125.922, 123.737 126.128, 125.250 126.514 C 129.935 127.711, 132.647 126.366, 134.846 121.754 C 138.165 114.791, 139.357 105.818, 137.635 100.747 C 136.838 98.399, 136.420 95.254, 136.706 93.757 C 137.851 87.766, 133.794 82.736, 128.500 83.584 C 124.372 84.246, 116.240 84.302, 108.500 83.723 C 104.100 83.393, 99.600 83.366, 98.500 83.662 M 42.522 92.544 C 38.319 96.626, 38.082 99.133, 41.635 101.927 C 44.878 104.478, 55.329 104.730, 61.500 102.406 C 63.700 101.577, 66.175 100.753, 67 100.575 C 69.103 100.120, 75.252 102.736, 76.750 104.724 C 78.402 106.915, 78.339 109, 76.622 109 C 75.865 109, 74.722 109.630, 74.084 110.399 C 73.314 111.327, 71.502 111.667, 68.711 111.409 C 66.395 111.195, 59.874 110.748, 54.219 110.415 C 41.874 109.689, 40.335 110.387, 37.620 117.937 C 36.029 122.360, 35.817 125.154, 36.220 136.326 C 36.725 150.308, 38.187 155.959, 41.797 157.891 C 44.736 159.464, 63.418 157.564, 70.291 154.992 C 74.096 153.569, 77.065 151.573, 79.349 148.905 C 82.485 145.242, 82.808 144.223, 83.532 135.718 C 84.343 126.193, 84.265 113.815, 83.374 110.750 C 83.094 109.787, 82.212 109, 81.414 109 C 79.934 109, 80.155 106.587, 82.125 101.241 C 83.244 98.203, 80.076 89.638, 77.661 89.173 C 76.680 88.984, 74.359 89.551, 72.502 90.432 C 69.662 91.780, 67.649 91.885, 59.813 91.094 C 54.691 90.577, 49.498 89.922, 48.272 89.639 C 46.664 89.267, 45.065 90.075, 42.522 92.544 M 108.200 96.200 C 106.200 98.200, 106.711 107.362, 108.982 110.251 C 111.303 113.201, 117.013 114.598, 120.067 112.964 C 124.820 110.420, 125.669 99.735, 121.375 96.484 C 119.082 94.747, 109.852 94.548, 108.200 96.200 M 58 122.369 C 50.729 124.197, 50.156 124.843, 49.080 132.438 C 47.636 142.636, 48.432 143.506, 59.500 143.833 C 68.624 144.102, 71.696 140.576, 70.583 131.113 C 69.430 121.300, 67.524 119.975, 58 122.369" stroke="none" fill="black" fill-rule="evenodd"/>
</svg>