<svg xmlns="http://www.w3.org/2000/svg" width="256" height="256" viewBox="0 0 256 256" version="1.1">
	<path d="M 43.278 27.250 C 41.001 30.192, 41.153 32.172, 44.029 37.050 C 45.663 39.821, 47 42.765, 47 43.592 C 47 46.064, 41.266 47.912, 37.136 46.772 C 29.629 44.699, 22 47.697, 22 52.721 C 22 58.668, 27.254 62.234, 34.159 60.971 C 36.344 60.571, 45.444 60.392, 54.383 60.573 C 69.037 60.868, 70.947 60.710, 73.817 58.965 C 75.568 57.900, 77 56.356, 77 55.533 C 77 52.744, 70.524 47.188, 66.406 46.443 C 59.968 45.279, 59.002 44.404, 58.981 39.715 C 58.968 36.789, 58.050 34.047, 55.979 30.750 C 53.161 26.261, 52.755 26, 48.621 26 C 46.214 26, 43.810 26.563, 43.278 27.250 M 126.913 29.256 C 123.683 31.789, 122.798 34.997, 123.438 41.854 C 123.792 45.656, 123.638 49.134, 123.077 49.981 C 121.957 51.672, 111.423 52.794, 95.473 52.920 C 80.256 53.041, 80.960 51.948, 81.034 75.316 C 81.067 85.867, 81.520 98.658, 82.039 103.740 C 82.636 109.583, 82.632 114.730, 82.027 117.740 C 81.502 120.358, 80.885 123.864, 80.657 125.532 C 80.190 128.950, 75.077 138.722, 73.409 139.383 C 69.960 140.750, 68.711 133.954, 70.993 126.228 C 72.071 122.577, 72.014 121.326, 70.604 117.634 C 69.655 115.149, 67.886 112.742, 66.439 111.967 C 64.203 110.771, 63.344 110.901, 58.712 113.138 C 53.676 115.571, 50.699 115.861, 43.086 114.661 C 39.938 114.165, 33.253 116.774, 31.145 119.320 C 29.309 121.539, 29.569 141.247, 31.534 148.793 C 33.769 157.373, 33.813 157.394, 50.241 157.528 C 59.201 157.601, 65.243 157.225, 66.500 156.516 C 67.600 155.895, 70.525 154.831, 73 154.151 C 84.400 151.023, 85.400 150.049, 90.958 136.661 C 92.123 133.855, 93.763 131.613, 94.861 131.326 C 97.054 130.753, 99.687 126, 97.812 126 C 97.182 126, 96.928 125.738, 97.248 125.418 C 97.568 125.099, 97.235 123.411, 96.508 121.668 C 95.782 119.926, 95.152 115.035, 95.110 110.799 C 95.067 106.564, 94.972 102.739, 94.898 102.299 C 93.993 96.934, 97.340 94.070, 102.175 96.072 C 105.661 97.516, 107.178 100.755, 106.490 105.286 C 106.222 107.054, 105.835 111.533, 105.631 115.241 C 105.427 118.948, 104.777 122.563, 104.187 123.274 C 103.506 124.095, 103.453 125.103, 104.042 126.034 C 105.440 128.245, 105.225 128.727, 102.535 129.402 C 101.089 129.765, 100.274 130.549, 100.561 131.300 C 101.253 133.101, 109.323 135.298, 113.471 134.814 C 116.716 134.435, 117.050 134.668, 118.521 138.345 C 119.475 140.729, 119.843 143.437, 119.454 145.208 C 118.658 148.836, 121.165 152.040, 124.338 151.448 C 125.527 151.226, 128.078 149.208, 130.007 146.962 C 132.782 143.731, 134.230 142.860, 136.950 142.782 C 139.745 142.703, 140.863 143.318, 142.943 146.079 C 147.742 152.449, 149.764 154, 153.270 154 C 156.135 154, 156.955 153.425, 158.821 150.105 C 160.025 147.963, 161.703 145.944, 162.550 145.619 C 166.502 144.103, 168.446 131.509, 165.399 127.159 C 163.164 123.968, 159.171 122.574, 157.110 124.265 C 149.145 130.802, 144.263 127.785, 146.165 117.500 C 146.674 114.750, 147.182 111.502, 147.295 110.282 C 147.408 109.062, 148.287 107.144, 149.250 106.021 C 150.213 104.897, 151 103.585, 151 103.106 C 151 102.627, 152.771 100.464, 154.935 98.300 C 159.951 93.284, 160.888 89.804, 158.444 85.266 C 156.433 81.531, 154.936 81.362, 148.225 84.114 C 143.986 85.853, 141.870 84.575, 140.400 79.392 C 139.624 76.654, 139.606 74.758, 140.342 73 C 142.347 68.204, 143.860 67.273, 150.792 66.571 C 154.481 66.198, 158.214 65.354, 159.087 64.696 C 163.633 61.269, 163.791 55.411, 159.463 50.744 L 156.997 48.084 152.103 50.542 C 146.120 53.547, 140.975 53.735, 138.534 51.038 C 137.029 49.375, 136.858 47.962, 137.412 41.788 C 138.009 35.138, 137.867 34.263, 135.783 31.792 C 133.111 28.622, 129.162 27.493, 126.913 29.256 M 150.352 34.066 C 145.587 35.828, 147.001 40.515, 153.054 43.023 C 156.757 44.556, 159 43.700, 159 40.754 C 159 35.884, 154.611 32.490, 150.352 34.066 M 96.979 67.013 C 96.314 67.424, 95.154 70.132, 94.402 73.031 C 92.135 81.772, 95.755 86.212, 104.210 85.061 C 111.451 84.076, 119.044 85.336, 121.090 87.862 C 122.825 90.006, 122.825 90.242, 121.090 94.294 C 119.164 98.792, 119.165 104.570, 121.093 115.348 C 121.668 118.564, 122.013 123.250, 121.858 125.760 C 121.626 129.535, 121.917 130.449, 123.539 131.035 C 124.649 131.437, 126.693 131.138, 128.250 130.347 C 130.799 129.051, 131.009 128.476, 131.125 122.474 C 131.194 118.913, 131.327 115.438, 131.420 114.750 C 131.514 114.063, 131.061 111.410, 130.414 108.856 C 129.766 106.302, 129.446 103.115, 129.703 101.775 C 129.959 100.435, 129.605 97.350, 128.916 94.919 C 127.071 88.412, 127.010 87.693, 128.179 86.284 C 128.765 85.578, 128.875 85, 128.422 85 C 127.970 85, 128.140 84.460, 128.800 83.800 C 130.263 82.337, 130.369 78.356, 128.989 76.708 C 128.433 76.044, 127.043 74.254, 125.901 72.730 C 122.447 68.125, 118.658 66.816, 107.942 66.528 C 102.578 66.383, 97.645 66.602, 96.979 67.013 M 40.256 68.055 C 33.412 69.511, 32.139 73.257, 37.077 77.411 C 39.687 79.608, 41.126 80, 46.573 80 C 50.514 80, 55.350 80.816, 59.099 82.114 C 66.199 84.570, 69.513 83.788, 70.616 79.394 C 71.579 75.558, 69.969 71.896, 66.207 69.360 C 63.362 67.443, 61.682 67.172, 53.220 67.262 C 47.874 67.319, 42.040 67.675, 40.256 68.055 M 36.704 91.250 C 33.807 97.427, 34.444 102.357, 38.301 103.614 C 39.511 104.009, 44.550 104.397, 49.500 104.478 C 54.450 104.559, 59.519 105.179, 60.765 105.856 C 63.568 107.379, 69.551 105.965, 71.569 103.303 C 73.721 100.465, 73.248 97.757, 69.891 93.684 L 66.783 89.913 58.502 90.585 C 51.863 91.124, 49.574 90.934, 46.957 89.629 C 41.636 86.974, 38.475 87.474, 36.704 91.250 M 45 127 C 43.780 128.220, 43 130.333, 43 132.418 C 43 134.298, 42.751 136.485, 42.447 137.278 C 42.142 138.071, 43.082 140.133, 44.536 141.860 C 48.057 146.045, 52.335 146.113, 56.777 142.056 C 59.566 139.510, 60 138.455, 60 134.231 C 60 130.420, 59.492 128.871, 57.686 127.174 C 54.600 124.276, 47.817 124.183, 45 127" stroke="none" fill="black" fill-rule="evenodd"/>
</svg>