<svg xmlns="http://www.w3.org/2000/svg" width="256" height="256" viewBox="0 0 256 256" version="1.1">
	<path d="M 55.315 28.016 C 50.390 29.980, 49.839 35.007, 53.711 42.654 C 56.293 47.754, 56.339 48.090, 54.669 49.754 C 53.241 51.177, 51.440 51.450, 44.934 51.228 C 36.360 50.935, 33.891 51.711, 31.429 55.468 C 29.345 58.649, 30.915 61.649, 35.711 63.653 C 38.647 64.879, 40.752 64.951, 47.880 64.069 C 52.621 63.482, 58.075 63.030, 60 63.065 C 61.925 63.100, 65.187 62.825, 67.248 62.455 C 69.786 61.999, 72.341 62.319, 75.157 63.446 C 78.494 64.781, 79.863 64.885, 82.073 63.970 C 85.612 62.504, 87.444 58.299, 86.093 54.745 C 84.607 50.835, 81.760 49.767, 74.681 50.464 C 65.689 51.350, 65.256 50.818, 66.560 40.500 C 67.070 36.468, 66.835 35.081, 65.346 33.335 C 64.331 32.144, 63.050 30.498, 62.500 29.678 C 61.161 27.681, 57.993 26.949, 55.315 28.016 M 95.020 33.227 C 92.005 34.822, 90.047 38.463, 90.752 41.161 C 91.474 43.920, 94.942 45, 103.087 45 C 109.480 45, 110.132 45.196, 111.148 47.426 C 112.926 51.328, 111.511 54.466, 107.071 56.468 C 98.161 60.486, 96.756 64.558, 102.934 68.459 C 107.234 71.173, 108.083 73.963, 106.862 81.372 C 106.056 86.261, 104.889 86.966, 97.570 86.985 C 91.739 87, 91.566 87.082, 87.164 91.950 L 82.687 96.901 78.594 94.560 C 75.246 92.646, 72.496 92.111, 63.500 91.625 C 57.450 91.299, 50.653 90.765, 48.395 90.439 C 44.999 89.949, 43.846 90.249, 41.726 92.173 C 37.890 95.654, 37.504 98.312, 40.356 101.627 C 42.553 104.182, 43.513 104.487, 50.455 104.838 C 54.673 105.051, 60.041 104.689, 62.382 104.033 C 65.953 103.033, 67.476 103.115, 71.835 104.541 C 74.692 105.475, 77.293 106.664, 77.613 107.183 C 78.508 108.631, 75.051 111.902, 70.551 113.866 C 66.635 115.575, 66.391 115.570, 63.218 113.699 C 59.310 111.396, 48.679 110.351, 44.742 111.883 C 43.225 112.474, 40.603 115.104, 38.917 117.728 C 35.889 122.439, 35.857 122.628, 36.401 132.500 C 37.403 150.689, 38.166 156.437, 39.824 158.315 C 41.251 159.930, 42.535 160.059, 51.464 159.486 C 56.984 159.132, 65.100 158.192, 69.500 157.396 C 79.442 155.599, 81.558 153.745, 83.094 145.487 C 84.543 137.695, 83.885 114.165, 82.188 113.116 C 79.903 111.704, 80.063 108.290, 82.522 105.980 C 84.612 104.016, 85.538 103.837, 90.440 104.449 C 95.186 105.042, 96.425 104.833, 98.986 103.010 C 103.163 100.036, 107.043 99.637, 118 101.059 C 129.343 102.531, 151.971 103.416, 156.509 102.564 C 166.710 100.651, 166.269 91.980, 155.750 87.647 C 152.120 86.152, 152 85.941, 152 81.085 C 152 78.326, 151.370 74.590, 150.601 72.784 C 149.831 70.978, 148.410 67.580, 147.441 65.233 C 145.349 60.161, 140.802 57, 135.600 57 C 126.573 57, 120.912 50.919, 126.059 46.751 C 128.080 45.115, 129.383 44.936, 135.105 45.510 C 143.924 46.396, 154.008 45.257, 156.943 43.043 C 159.808 40.882, 159.203 36.835, 155.669 34.519 C 152.412 32.384, 98.772 31.242, 95.020 33.227 M 60.458 70.284 C 59.590 70.769, 56.769 71.081, 54.190 70.977 C 44.298 70.576, 42.542 70.848, 40.753 73.057 C 38.412 75.948, 38.542 78.884, 41.133 81.642 C 43.181 83.822, 43.718 83.888, 54.599 83.305 C 61.949 82.911, 66.382 83.068, 67.215 83.751 C 68.511 84.814, 71.118 85.327, 74.144 85.115 C 76.545 84.947, 82 79.513, 82 77.290 C 82 73.311, 79.751 71.987, 70.763 70.675 C 65.531 69.911, 61.404 69.754, 60.458 70.284 M 123.851 72.129 C 122.372 72.671, 120.649 74.434, 119.951 76.119 C 118.669 79.214, 118.398 84.731, 119.474 85.808 C 120.373 86.706, 132.576 87.323, 135.405 86.613 C 136.930 86.230, 137.994 85.144, 138.211 83.748 C 138.763 80.199, 137.080 73.621, 135.269 72.250 C 133.347 70.795, 127.656 70.734, 123.851 72.129 M 124.500 107.149 C 122.300 107.573, 115.775 107.864, 110 107.795 C 96.516 107.634, 95.442 108.240, 94.723 116.410 C 94.111 123.368, 95.191 136.370, 96.933 143.007 C 97.713 145.981, 97.796 148.362, 97.178 150.007 C 96.081 152.925, 97.893 157.301, 100.713 158.547 C 101.696 158.981, 112.850 159.231, 125.500 159.103 C 154.980 158.805, 153.157 159.826, 154.439 142.896 C 156.288 118.497, 155.564 110.198, 151.449 108.619 C 150.751 108.351, 146.427 108.035, 141.840 107.918 C 137.253 107.800, 132.375 107.405, 131 107.040 C 129.625 106.675, 126.700 106.724, 124.500 107.149 M 122.278 120.481 C 114.672 121.172, 110.604 121.983, 109.652 123 C 108.772 123.939, 108.021 127.907, 107.644 133.614 C 106.812 146.195, 106.895 146.260, 123.145 145.678 C 142.295 144.993, 143.672 143.891, 142.557 130.145 C 142.049 123.892, 141.417 121.293, 140.182 120.387 C 138.329 119.028, 138.294 119.028, 122.278 120.481 M 57.395 123.337 C 54.588 124.527, 51.586 126.088, 50.724 126.808 C 49.255 128.033, 47.854 133.290, 47.475 139 C 47.271 142.071, 50.387 144.991, 53.903 145.024 C 55.331 145.038, 58.757 145.302, 61.515 145.612 C 65.823 146.097, 66.811 145.866, 68.515 143.980 C 71.242 140.963, 71.380 127.754, 68.727 123.705 C 66.597 120.455, 64.367 120.383, 57.395 123.337" stroke="none" fill="black" fill-rule="evenodd"/>
</svg>