<svg xmlns="http://www.w3.org/2000/svg" width="256" height="256" viewBox="0 0 256 256" version="1.1">
	<path d="M 54.989 30.186 C 52.850 33.628, 52.856 34.318, 55.109 42.351 C 56.423 47.039, 56.389 47.267, 54.088 49.129 C 52.039 50.789, 50.721 50.968, 44.604 50.420 C 37.929 49.821, 37.334 49.937, 34.750 52.344 C 30.292 56.495, 31.532 61.030, 37.679 63.059 C 42.005 64.487, 61.986 63.613, 65.276 61.853 C 66.580 61.154, 69.364 61.022, 72.914 61.489 C 75.986 61.893, 81.200 62.511, 84.500 62.862 C 90.438 63.493, 90.503 63.535, 90.823 66.877 C 91 68.735, 90.663 70.737, 90.073 71.327 C 88.426 72.974, 88.761 73.667, 91.750 74.797 C 97.262 76.882, 100.008 77.047, 103.046 75.476 C 105.830 74.037, 106.847 72.441, 109.849 64.803 C 111.410 60.830, 115.104 58.709, 118.326 59.934 C 121.508 61.144, 123.553 67.616, 124.519 79.534 C 125.089 86.565, 124.930 87.865, 123.247 89.943 L 121.324 92.318 113.912 90.308 C 109.835 89.203, 105.600 88.428, 104.500 88.585 C 101.152 89.065, 92 92.369, 92 93.099 C 92 93.475, 90.875 94.066, 89.500 94.411 C 86.548 95.151, 86.149 97, 88.941 97 C 90.009 97, 91.128 97.399, 91.429 97.886 C 92.698 99.939, 104.960 102.277, 111.642 101.741 C 121.765 100.928, 124.083 102.597, 123.804 110.500 C 123.746 112.150, 123.805 118.992, 123.936 125.705 C 124.067 132.417, 123.864 138.412, 123.484 139.025 C 123.105 139.639, 122.825 142.651, 122.861 145.718 C 122.935 151.893, 125.569 156.013, 129.424 155.985 C 132.614 155.961, 133.706 154.847, 134.799 150.500 C 135.842 146.352, 137.523 118.005, 137.210 109.851 C 136.992 104.180, 136.983 104.184, 150.987 102.967 C 159.861 102.195, 161.773 101.720, 163.250 99.916 C 165.583 97.067, 165.459 95.645, 162.587 92.306 C 160.287 89.632, 159.735 89.492, 150.837 89.336 C 138.615 89.121, 139.372 89.229, 137.575 87.432 C 136.337 86.194, 136.044 83.810, 136.185 76.131 C 136.283 70.777, 136.071 65.924, 135.714 65.346 C 134.184 62.871, 137.629 61.126, 145.978 60.148 C 152.761 59.353, 154.811 58.717, 156.228 56.967 C 158.585 54.057, 158.465 52.650, 155.577 49.306 L 153.155 46.500 138.327 46.806 C 126.432 47.051, 122.738 46.792, 119.645 45.498 C 115.471 43.752, 115.637 44.588, 117.595 35.124 C 118.066 32.851, 117.704 31.906, 115.873 30.624 C 109.854 26.408, 104.582 30.151, 103.699 39.268 C 103.152 44.923, 100.278 51.161, 97.042 53.718 C 94.046 56.085, 89.083 55.252, 86.271 51.910 L 83.672 48.821 75.997 49.500 C 69.453 50.080, 68.066 49.923, 66.584 48.441 C 65.427 47.284, 65.079 45.999, 65.544 44.601 C 67.406 39.007, 67.158 34.509, 64.794 31 C 61.472 26.070, 57.740 25.760, 54.989 30.186 M 46 68.686 C 41.143 70.549, 39.350 76.519, 42.577 80.085 C 43.960 81.613, 45.536 81.760, 55.348 81.277 C 65.446 80.779, 66.952 80.935, 70.731 82.863 C 75.750 85.423, 77.833 85.499, 80.525 83.217 C 82.995 81.123, 88.429 74.061, 87.889 73.646 C 82.760 69.707, 80.289 69.190, 64 68.654 C 54.925 68.355, 46.825 68.369, 46 68.686 M 42.171 89.510 C 37.066 96, 41.241 100.450, 53.382 101.462 C 58.423 101.882, 62.574 101.732, 64.321 101.068 C 67.626 99.812, 73.706 100.581, 76.475 102.605 C 78.377 103.996, 78.358 104.096, 75.684 106.765 L 72.944 109.500 60.030 109.176 C 43.541 108.761, 41.211 109.656, 38.573 117.415 C 36.726 122.849, 36.718 127.854, 38.523 146.500 C 39.407 155.630, 39.742 156.562, 42.613 157.870 C 47.995 160.322, 73.278 156.485, 79.771 152.231 C 84.146 149.364, 85.004 146.061, 84.954 132.299 C 84.908 119.963, 83.487 109, 81.934 109 C 81.524 109, 81.423 108.100, 81.710 107 C 82.095 105.528, 81.740 104.999, 80.367 104.996 C 79.002 104.994, 79.367 104.464, 81.723 103.027 C 83.496 101.946, 85.241 99.888, 85.601 98.454 C 86.405 95.252, 84.353 91.118, 81.261 89.709 C 80.018 89.143, 79 88.301, 79 87.839 C 79 86.529, 75.969 86.846, 71.245 88.651 C 67.610 90.039, 66.095 90.118, 61.712 89.148 C 58.845 88.514, 53.764 87.715, 50.421 87.373 C 44.637 86.781, 44.236 86.885, 42.171 89.510 M 55.465 121.952 C 52.419 123.186, 51.348 124.959, 50.117 130.799 C 48.203 139.882, 48.545 141.913, 52.250 143.453 C 54.038 144.197, 58.041 145.120, 61.148 145.505 C 66.051 146.113, 67.064 145.936, 68.833 144.167 C 72.797 140.203, 74.120 130.616, 71.551 124.468 C 70.110 121.019, 70.067 121, 63.801 121.063 C 60.335 121.098, 56.584 121.498, 55.465 121.952" stroke="none" fill="black" fill-rule="evenodd"/>
</svg>