<svg xmlns="http://www.w3.org/2000/svg" width="256" height="256" viewBox="0 0 256 256" version="1.1">
	<path d="M 53.923 28.923 C 50.459 32.387, 50.379 33.350, 53 40 C 55.723 46.909, 55.563 48.524, 52.004 49.998 C 49.681 50.961, 47.975 50.979, 44.411 50.082 C 37.796 48.416, 32.934 50.458, 30.910 55.750 C 28.475 62.118, 35.477 66.081, 45.493 64.002 C 48.439 63.390, 53.696 62.865, 57.175 62.836 C 71.340 62.716, 76.175 62.744, 79.690 62.967 C 84.043 63.242, 86 61.225, 86 56.464 C 86 51.670, 83.228 49.778, 76.327 49.861 C 72.751 49.904, 69.664 49.355, 68.242 48.423 C 66.196 47.082, 66.012 46.389, 66.577 42.135 C 67.562 34.706, 62.928 26, 57.989 26 C 57.360 26, 55.531 27.315, 53.923 28.923 M 101.909 32.872 C 99.846 34.543, 99.534 35.863, 99.010 45.122 C 98.379 56.301, 96.477 61.326, 89.824 69.397 C 86.480 73.454, 85.261 73.712, 80.700 71.326 C 78.108 69.971, 74.211 69.622, 60.191 69.493 L 42.882 69.334 40.885 71.874 C 39.512 73.618, 39.082 75.210, 39.509 76.957 C 40.808 82.266, 42.226 82.660, 55.676 81.450 C 62.937 80.797, 64.244 80.946, 67.357 82.783 C 73.503 86.409, 77.430 86.080, 82.408 81.520 C 86.577 77.702, 86.881 77.738, 92.852 82.783 L 96.203 85.614 92.352 88.837 C 87.146 93.193, 87.097 93.240, 85.642 95.361 C 84.535 96.973, 84.173 97.031, 82.932 95.794 C 78.945 91.821, 76.014 90.740, 71.017 91.403 C 67.796 91.831, 63.701 91.500, 59.285 90.456 C 47.504 87.672, 43.725 87.541, 41.639 89.846 C 40.633 90.958, 39.740 93.329, 39.655 95.113 C 39.530 97.731, 40.120 98.782, 42.709 100.552 C 45.556 102.498, 47.551 102.795, 60.375 103.181 C 74.756 103.613, 78 104.407, 78 107.494 C 78 109.212, 69.771 110.202, 56.759 110.048 C 50.544 109.974, 45.143 110.388, 43.943 111.031 C 41.299 112.446, 38.012 120.068, 37.510 125.951 C 37.009 131.814, 38.788 150.678, 40.180 154.263 C 41.859 158.584, 42.442 158.600, 69 155.042 C 72.025 154.637, 76.624 153.697, 79.220 152.953 C 83.398 151.756, 84.350 151.796, 87.504 153.301 C 94.907 156.831, 106.511 154.501, 114.525 147.876 C 121.405 142.188, 123.500 141.537, 128.623 143.494 C 130.933 144.376, 133.049 145.685, 133.324 146.403 C 134.095 148.411, 141.923 152.588, 147.591 154.015 C 154.137 155.663, 157.765 154.785, 158.628 151.344 C 159.896 146.296, 158.016 143.749, 150.255 140 C 135.113 132.685, 134.414 131.190, 140.522 119.169 C 142.985 114.322, 145 109.910, 145 109.366 C 145 108.822, 145.799 107.505, 146.776 106.439 C 149.848 103.084, 153 96.985, 153 94.393 C 153 93.022, 152.307 90.560, 151.459 88.921 C 149.708 85.535, 150.221 84, 153.104 84 C 155.932 84, 160 79.564, 160 76.480 C 160 72.324, 158.446 70.453, 152.634 67.610 C 149.642 66.146, 146.874 64.172, 146.484 63.224 C 146.093 62.276, 145.646 58.125, 145.490 54 C 145.137 44.675, 144.176 39.139, 142.422 36.338 C 140.433 33.159, 129.611 31, 115.663 31 C 105.971 31, 103.868 31.286, 101.909 32.872 M 114.146 45.854 C 112.947 47.053, 112.036 49.965, 111.569 54.094 C 111.171 57.607, 110.502 60.935, 110.081 61.490 C 109.660 62.046, 108.289 65.763, 107.033 69.750 C 105.777 73.737, 104.439 77, 104.060 77 C 103.681 77, 102.627 78.558, 101.719 80.463 C 100.246 83.552, 100.231 84.088, 101.579 85.436 C 104.534 88.391, 110.903 89.358, 118.814 88.054 C 124.598 87.100, 127.150 87.110, 131.012 88.100 C 135.257 89.188, 136.393 89.127, 139.709 87.631 C 141.806 86.686, 144.530 85.836, 145.761 85.743 C 146.993 85.650, 148 85.379, 148 85.140 C 148 84.901, 145.313 82.044, 142.030 78.791 C 135.355 72.178, 134.583 70.280, 132.821 56.149 C 132.170 50.931, 131.036 46.179, 130.256 45.399 C 128.046 43.189, 116.484 43.516, 114.146 45.854 M 83.847 101.362 C 81.005 104.346, 79 107.058, 79 107.919 C 79 108.412, 80.171 111.073, 81.603 113.833 C 84.095 118.635, 84.157 119.142, 83.053 125.685 C 81.785 133.203, 82.118 139.518, 83.876 141.276 C 84.724 142.124, 86.155 142.106, 89.520 141.206 C 92 140.543, 95.710 139.998, 97.764 139.996 C 103.245 139.991, 108 136.775, 108 133.074 C 108 131.448, 107.550 129.840, 107 129.500 C 106.450 129.160, 106 128.190, 106 127.345 C 106 126.500, 105.169 124.614, 104.154 123.154 C 103.139 121.694, 101.830 118.700, 101.245 116.500 C 99.502 109.938, 97.623 105.637, 95.442 103.218 C 92.894 100.391, 85.847 99.263, 83.847 101.362 M 110.882 102.118 C 109.649 103.351, 109.178 104.500, 109.756 104.868 C 110.302 105.216, 111.083 107.039, 111.491 108.919 C 112.369 112.966, 115.695 116.860, 118.500 117.127 C 123.563 117.608, 125.049 117.003, 125.603 114.234 C 125.938 112.560, 127.508 110.582, 129.578 109.225 C 134.103 106.258, 133.937 104.329, 129.042 103.011 C 126.865 102.425, 124.814 101.508, 124.483 100.973 C 124.153 100.438, 121.434 100, 118.441 100 C 114.232 100, 112.520 100.480, 110.882 102.118 M 57.328 122.804 C 55.033 122.971, 52.623 123.750, 51.971 124.535 C 50.411 126.414, 49.023 138.043, 50.108 140.144 C 50.647 141.188, 53.274 142.191, 57.310 142.894 C 65.510 144.321, 65.253 144.344, 67.811 141.961 C 69.649 140.249, 70 138.830, 70 133.116 C 70 123.844, 67.786 122.042, 57.328 122.804" stroke="none" fill="black" fill-rule="evenodd"/>
</svg>