<svg xmlns="http://www.w3.org/2000/svg" width="256" height="256" viewBox="0 0 256 256" version="1.1">
	<path d="M 63.407 24.151 C 62.256 24.709, 59.982 27.491, 58.355 30.333 L 55.396 35.500 48.119 35.500 C 42.071 35.500, 40.603 35.828, 39.422 37.441 C 37.399 40.203, 37.655 42.328, 40.314 44.826 C 42.849 47.207, 45.687 47.524, 50.956 46.013 C 53.911 45.165, 54.724 45.331, 56.699 47.187 C 58 48.409, 59 50.524, 59 52.053 C 59 55.476, 54.879 57.384, 48.012 57.141 C 44.170 57.005, 42.584 57.479, 40.213 59.474 C 36.153 62.890, 35.520 66.640, 38.658 68.695 C 40.525 69.919, 42.487 70.124, 47.459 69.614 C 53.230 69.023, 54.002 69.165, 55.327 71.057 C 56.648 72.943, 56.555 73.751, 54.398 79.058 C 51.898 85.211, 51.286 90, 53 90 C 53.550 90, 54 90.414, 54 90.919 C 54 91.461, 52.484 91.420, 50.313 90.821 C 43.303 88.885, 34.082 94.255, 35.569 99.407 C 36.997 104.349, 39.206 105, 54.564 105 C 67.868 105, 74 105.963, 74 108.054 C 74 109.005, 71.370 110, 68.852 110 C 67.761 110, 65.987 110.472, 64.911 111.048 C 63.157 111.986, 63.112 112.254, 64.476 113.619 C 66.318 115.461, 66.476 117.994, 64.750 118.015 C 63.917 118.026, 64 118.354, 65 119 C 66 119.646, 66.083 119.974, 65.250 119.985 C 64.563 119.993, 64 120.900, 64 122 C 64 123.100, 63.550 124, 63 124 C 62.450 124, 62 125.094, 62 126.432 C 62 128.794, 66.422 133, 68.904 133 C 69.507 133, 70 133.723, 70 134.607 C 70 135.609, 69.447 136.002, 68.532 135.651 C 67.725 135.341, 66.794 135.525, 66.463 136.060 C 66.132 136.595, 65.461 136.785, 64.972 136.483 C 63.731 135.716, 58 141.917, 58 144.026 C 58 144.977, 57.393 147.273, 56.651 149.128 C 54.865 153.591, 55.913 157.162, 59.542 158.987 C 61.946 160.195, 66.525 160.418, 84 160.175 C 95.825 160.011, 108.650 159.468, 112.500 158.969 C 116.350 158.470, 123.801 158.048, 129.059 158.031 C 138.722 158, 141.118 157.247, 142.279 153.881 C 142.586 152.990, 141.946 150.796, 140.856 149.004 C 139.767 147.213, 138.951 144.567, 139.044 143.124 C 139.470 136.464, 137.028 134, 130 134 C 127.250 134, 125 133.625, 125 133.167 C 125 132.708, 125.563 132.285, 126.250 132.225 C 128.480 132.033, 130.437 131.479, 133.750 130.105 C 136.360 129.023, 137 128.186, 137 125.857 C 137 123.653, 136.340 122.667, 134.250 121.749 C 132.738 121.084, 131.275 120.274, 131 119.947 C 130.725 119.621, 129.684 119.053, 128.687 118.684 C 126.726 117.960, 127.278 116, 129.442 116 C 131.397 116, 132.289 111.697, 130.571 110.552 C 129.383 109.760, 129.473 109.325, 131.118 107.897 C 132.894 106.357, 136.017 105.618, 149.763 103.482 C 154.810 102.698, 157.388 99.488, 154.606 97.454 C 153.700 96.791, 151.243 95.975, 149.148 95.640 C 143.151 94.681, 142.335 92.995, 141.700 80.258 C 141.167 69.560, 141.244 68.942, 143.292 67.508 C 144.530 66.641, 147.620 66, 150.562 66 C 155.075 66, 155.816 65.699, 156.839 63.453 C 158.563 59.671, 158.266 57.421, 155.642 54.371 C 153.349 51.704, 152.936 51.617, 140.392 51.141 C 121.130 50.412, 118.797 50.496, 115.205 52.048 C 112.325 53.293, 111.792 53.285, 110.970 51.986 C 109.640 49.882, 109.780 46.683, 111.292 44.615 C 112.177 43.405, 114.466 42.675, 118.542 42.301 C 121.819 42, 125.321 41.326, 126.325 40.802 C 127.329 40.278, 131.761 39.485, 136.174 39.040 C 145.954 38.054, 147.732 36.749, 146.087 31.763 C 144.458 26.827, 140.243 25.695, 130.153 27.485 C 120.638 29.174, 107.417 32.765, 103.690 34.674 C 99.857 36.638, 97.170 43.262, 97.134 50.841 C 97.117 54.358, 96.440 58.182, 95.520 59.962 C 93.528 63.813, 91.770 71.785, 89.426 87.597 C 88.852 91.470, 86.287 92.725, 75.975 94.184 C 66.292 95.553, 63 94.867, 63 91.481 C 63 90.116, 63.457 89, 64.015 89 C 65.693 89, 68.992 82.711, 68.998 79.500 C 69.001 77.850, 69.790 74.925, 70.752 73 C 72.489 69.523, 72.552 69.497, 80.397 69 C 90.433 68.365, 91.595 67.070, 88.079 60.442 C 85.154 54.929, 83.320 53.840, 77.469 54.142 C 72.326 54.409, 69.985 52.928, 71.900 50.621 C 72.706 49.650, 74.865 49.191, 78.308 49.258 C 87.814 49.445, 93.325 44.197, 89.598 38.509 C 88.705 37.146, 86.968 35.834, 85.737 35.592 C 84.507 35.349, 81.489 34.780, 79.031 34.326 C 75.207 33.619, 74.244 32.923, 72.357 29.500 C 68.597 22.683, 67.628 22.104, 63.407 24.151 M 115.500 67.910 C 110.153 68.792, 109.906 68.992, 105.642 75.902 C 100.978 83.457, 100.217 88.916, 103.409 91.914 C 105.502 93.880, 106.461 93.996, 116.864 93.533 C 131.712 92.873, 133.428 91.887, 130.974 85.430 C 130.409 83.945, 129.918 79.635, 129.883 75.852 C 129.798 66.815, 128.036 65.842, 115.500 67.910 M 89 120.059 C 89 120.641, 89.450 120.840, 90 120.500 C 90.550 120.160, 91 119.684, 91 119.441 C 91 119.198, 90.550 119, 90 119 C 89.450 119, 89 119.477, 89 120.059 M 95 133.077 C 91.425 133.395, 89.400 133.772, 90.500 133.915 C 95.229 134.529, 105.775 134.577, 109 133.999 C 112.230 133.420, 112.076 133.338, 107 132.936 C 103.975 132.696, 98.575 132.760, 95 133.077 M 114.918 133.040 L 112.500 133.631 115 134.102 C 117.186 134.514, 124.321 133.564, 123 133.037 C 121.679 132.510, 117.079 132.511, 114.918 133.040 M 97.500 143.587 C 96.732 143.831, 79.761 145.274, 66.250 146.244 C 63.696 146.427, 65.112 148.936, 68.250 149.789 C 72.378 150.912, 125.601 150.323, 127.730 149.131 C 130.974 147.316, 124.743 145.642, 112.500 145.041 C 105.900 144.717, 100.050 144.186, 99.500 143.861 C 98.950 143.536, 98.050 143.413, 97.500 143.587" stroke="none" fill="black" fill-rule="evenodd"/>
</svg>