<svg xmlns="http://www.w3.org/2000/svg" width="256" height="256" viewBox="0 0 256 256" version="1.1">
	<path d="M 50.500 27.727 C 49.400 27.987, 47.464 29.155, 46.198 30.323 C 43.487 32.824, 43.863 35.801, 47.493 40.572 C 49.744 43.530, 50.372 45.218, 50.118 47.629 C 49.898 49.725, 44.182 51.282, 39.153 50.615 C 35.133 50.081, 33.781 50.351, 31.016 52.238 C 26.966 55.001, 25.770 57.901, 27.359 61.105 C 28.853 64.117, 32.261 64.571, 41.533 62.990 C 47.563 61.962, 49.107 62.018, 52.365 63.379 C 55.851 64.836, 56.425 64.831, 59.331 63.329 C 62.584 61.647, 68.552 61.303, 73.945 62.488 C 76.486 63.046, 77.497 62.657, 79.998 60.156 C 83.686 56.468, 83.805 53.778, 80.399 51.099 C 76.937 48.376, 72.215 47.596, 67.266 48.928 C 61.566 50.463, 59.644 49.524, 60.472 45.607 C 62.385 36.562, 62.227 34.615, 59.312 31.326 C 56.350 27.982, 53.811 26.945, 50.500 27.727 M 123.223 27.671 C 122.521 27.954, 120.993 30.054, 119.827 32.339 C 116.425 39.007, 115.983 39.166, 102.764 38.486 C 91.191 37.890, 90.993 37.916, 88.514 40.395 C 87.131 41.778, 86 43.593, 86 44.429 C 86 46.378, 91.049 49, 94.802 49 C 96.398 49, 99.233 50.032, 101.102 51.292 C 104.265 53.426, 104.509 53.979, 104.624 59.275 C 104.700 62.778, 104.262 65.367, 103.484 66.013 C 102.789 66.590, 101.206 69.776, 99.965 73.094 C 98.617 76.697, 96.700 79.806, 95.204 80.813 C 93.827 81.741, 91.417 83.785, 89.850 85.356 C 87.005 88.207, 87 88.233, 87 101.424 C 87 110.675, 86.516 116.266, 85.386 120.068 C 84.498 123.056, 83.649 126.400, 83.499 127.500 C 83.168 129.931, 80.185 137.017, 78.752 138.775 C 77.923 139.793, 77.339 139.712, 75.857 138.370 C 74.835 137.446, 74 135.860, 74 134.845 C 74 133.830, 73.570 133, 73.045 133 C 72.520 133, 73.216 131.875, 74.591 130.500 C 76.709 128.382, 76.987 127.428, 76.412 124.250 C 75.071 116.845, 71.082 112, 66.326 112 C 65.100 112, 61.506 112.675, 58.339 113.500 C 55.171 114.325, 49.637 115.002, 46.040 115.004 C 35.938 115.010, 31 118.949, 31 127.002 C 31 128.581, 31.897 133.614, 32.993 138.187 C 34.089 142.759, 34.989 148.087, 34.993 150.027 C 35.002 154.446, 37.151 157.605, 40.598 158.264 C 42.059 158.543, 46.234 158.148, 49.877 157.386 C 53.519 156.624, 59.217 156, 62.538 156 C 66.607 156, 69.860 155.346, 72.509 153.995 C 75.471 152.486, 78.036 152.054, 82.905 152.245 C 88.918 152.482, 89.458 152.325, 90.629 150 C 91.943 147.388, 94.341 140.320, 96.225 133.500 C 96.832 131.300, 97.735 129.230, 98.231 128.900 C 99.909 127.783, 101.848 120.584, 100.932 118.872 C 100.449 117.970, 100.202 112.409, 100.383 106.514 C 100.736 95.012, 101.431 93.492, 105.856 94.536 C 107.975 95.036, 122.806 95.972, 128.917 95.992 C 131.278 96, 131.149 97.109, 128.721 97.677 C 128.049 97.834, 125.700 98.359, 123.500 98.844 C 121.300 99.330, 117.636 100.746, 115.357 101.992 C 111.564 104.065, 111.281 104.494, 112.015 107.053 C 112.456 108.591, 112.583 110.084, 112.296 110.371 C 112.009 110.658, 113.288 111.815, 115.137 112.942 C 118.451 114.962, 126.489 115.812, 127.167 114.214 C 127.350 113.782, 128.919 112.432, 130.654 111.214 C 133.009 109.561, 135.163 109.020, 139.154 109.079 C 142.094 109.122, 143.938 109.385, 143.250 109.662 C 142.563 109.940, 142 110.696, 142 111.343 C 142 113.088, 139.163 114.543, 133 115.957 C 129.975 116.651, 124.979 118.070, 121.897 119.110 C 118.816 120.149, 115.428 121, 114.370 121 C 111.364 121, 108 123.876, 108 126.447 C 108 128.249, 109.081 129.290, 112.750 131.022 C 117.026 133.040, 117.949 133.144, 122 132.057 C 124.475 131.392, 130.213 130.461, 134.751 129.986 C 141.684 129.261, 143.760 128.594, 147.751 125.811 C 155.608 120.333, 155.729 119.417, 149.390 113.343 C 144.639 108.791, 144.623 108.727, 146.441 102 C 146.664 101.175, 146.881 99.785, 146.923 98.911 C 147.029 96.716, 151.237 95, 156.512 95 C 159.856 95, 161.181 94.530, 161.965 93.066 C 163.589 90.032, 163.313 89.367, 158 83.500 C 155.250 80.463, 153 77.126, 153 76.084 C 153 75.042, 151.425 72.304, 149.500 70 C 147.575 67.696, 146 65.082, 146 64.192 C 146 63.301, 148.179 60.531, 150.843 58.036 C 161.203 48.332, 162.844 43.909, 157.405 40.346 C 155.398 39.030, 153.372 38.869, 146.046 39.442 C 135.582 40.261, 133.653 39.551, 131.954 34.258 C 129.953 28.026, 127.307 26.030, 123.223 27.671 M 117.451 53.079 C 116.470 54.667, 117.401 55.132, 122.163 55.430 C 124.548 55.579, 127.297 56.045, 128.271 56.466 C 129.323 56.920, 131.343 56.600, 133.248 55.677 L 136.455 54.124 133.959 53.175 C 130.502 51.860, 118.248 51.789, 117.451 53.079 M 48 68.746 C 42.730 68.988, 39.794 69.627, 38.125 70.894 C 34.821 73.402, 34.975 77.722, 38.476 80.733 C 40.927 82.841, 41.971 83.039, 48.851 82.701 C 53.058 82.494, 59.200 82.606, 62.500 82.950 C 67.540 83.475, 69.260 83.206, 73.250 81.270 C 77.254 79.328, 78 78.522, 78 76.138 C 78 74.583, 77.213 72.640, 76.250 71.820 C 74.330 70.186, 62.958 67.882, 58.385 68.201 C 56.798 68.312, 52.125 68.557, 48 68.746 M 128.688 73.645 C 128.333 74, 125.236 74.493, 121.806 74.741 C 117.129 75.078, 115.122 75.706, 113.784 77.249 C 112.803 78.380, 112 79.671, 112 80.118 C 112 81.869, 115.865 82.797, 124 82.998 C 138.613 83.360, 139 83.268, 139 79.426 C 139 75.801, 131.011 71.322, 128.688 73.645 M 40.177 89.750 C 37.220 92.281, 35.823 98.302, 37.603 100.844 C 39.427 103.447, 41.832 103.844, 57.958 104.201 L 71.415 104.500 72.919 101.829 C 74.227 99.503, 74.238 98.813, 73.001 96.501 C 70.905 92.585, 68.962 91.928, 56.829 91.030 C 50.771 90.582, 45.317 89.717, 44.708 89.108 C 43.212 87.612, 42.569 87.703, 40.177 89.750 M 48.077 126.589 C 45.349 128.884, 45 129.783, 45 134.516 C 45 139.093, 45.376 140.151, 47.635 141.927 C 52.920 146.084, 60.505 143.600, 63.981 136.573 C 65.809 132.880, 65.838 132.392, 64.377 130.041 C 60.220 123.353, 53.591 121.949, 48.077 126.589 M 144.640 132.500 C 142.638 133.875, 139.402 136.098, 137.449 137.440 C 135.497 138.781, 131.334 140.374, 128.199 140.978 C 120.104 142.540, 110.089 147.867, 110.569 150.357 C 110.771 151.409, 111.216 152.547, 111.556 152.885 C 111.897 153.223, 117.253 153.475, 123.458 153.444 L 134.741 153.388 143.509 148.944 C 154.937 143.151, 159 139.426, 159 134.739 C 159 130.771, 157.871 130, 152.058 130 C 149.664 130, 146.945 130.917, 144.640 132.500" stroke="none" fill="black" fill-rule="evenodd"/>
</svg>