<svg xmlns="http://www.w3.org/2000/svg" width="256" height="256" viewBox="0 0 256 256" version="1.1">
	<path d="M 59.398 30.637 C 57.829 31.451, 56.205 32.653, 55.788 33.309 C 54.308 35.636, 55.036 40.205, 57.577 44.541 L 60.153 48.937 57.622 51.469 C 55.340 53.750, 54.311 54, 47.180 54 C 40.692 54, 38.796 54.373, 36.635 56.073 C 35.186 57.212, 34 58.934, 34 59.898 C 34 62.250, 37.677 65.471, 42.163 67.050 C 45.322 68.161, 46.457 68.097, 50.427 66.581 C 55.069 64.808, 64.634 64.803, 82.517 66.562 C 87.699 67.072, 88.914 66.856, 91.267 65.005 C 94.906 62.142, 94.785 58.839, 90.923 55.589 C 88.218 53.313, 86.950 53, 80.423 53 C 74.218 53, 72.656 52.656, 70.902 50.902 C 69.383 49.383, 68.971 48.073, 69.409 46.152 C 71.199 38.300, 71.160 37.497, 68.831 34.100 C 65.844 29.743, 63.079 28.728, 59.398 30.637 M 118.263 31.658 C 117.331 32.035, 117.171 35.037, 117.614 43.829 C 117.938 50.248, 117.770 57.349, 117.240 59.609 C 116.523 62.666, 116.643 64.804, 117.708 67.956 C 119.716 73.895, 119.005 75, 113.181 75 C 103.942 75, 97 78.926, 97 84.151 C 97 87.381, 100.969 90.610, 103.667 89.574 C 104.592 89.219, 107.698 88.673, 110.569 88.360 C 120.525 87.274, 121.324 90.129, 121.246 126.500 C 121.187 153.909, 121.437 155, 127.783 155 C 130.380 155, 131.883 154.417, 132.714 153.087 C 134.082 150.896, 134.070 151.822, 133.175 118 C 132.548 94.318, 132.627 92.373, 134.288 90.712 C 135.655 89.345, 137.184 89.028, 140.788 89.362 C 146.411 89.884, 153.563 87.739, 156.844 84.546 C 159.093 82.359, 159.124 82.140, 157.589 79.171 C 155.369 74.879, 149.747 73.207, 143.231 74.902 C 134.386 77.203, 133.506 77.234, 131.293 75.332 C 129.265 73.589, 129.228 73.249, 130.537 68.341 C 131.377 65.191, 131.609 62.075, 131.133 60.341 C 130.705 58.778, 130.250 53.225, 130.124 48 C 129.867 37.428, 129.462 35.296, 127.227 32.750 C 125.772 31.094, 121.074 30.522, 118.263 31.658 M 65.323 72.039 C 60.275 72.453, 55.733 73.047, 55.229 73.359 C 54.725 73.670, 52.652 73.466, 50.622 72.906 C 45.892 71.600, 43.139 72.504, 41.897 75.771 C 41.043 78.016, 41.326 78.788, 43.970 81.435 C 46.974 84.443, 47.268 84.512, 59.765 85.167 C 66.769 85.533, 75.650 86.147, 79.500 86.530 C 85.789 87.155, 86.688 87.018, 88.348 85.176 C 92.458 80.616, 85.386 70.863, 78.173 71.143 C 76.153 71.221, 70.370 71.624, 65.323 72.039 M 44.909 93.282 C 40.332 96.367, 38.928 100.397, 41.549 102.924 C 44.345 105.619, 59.258 106.441, 67.588 104.359 C 73.085 102.986, 74.044 102.992, 77.460 104.419 C 82.654 106.589, 86.687 106.453, 87.965 104.066 C 91.085 98.235, 85.981 93.525, 77.586 94.488 C 74.514 94.840, 70.951 94.502, 68.086 93.586 C 65.564 92.779, 60.078 91.868, 55.896 91.561 C 49.108 91.063, 47.929 91.247, 44.909 93.282 M 77.883 112.347 C 73.729 114.556, 73.126 114.623, 68.472 113.398 C 61.992 111.691, 57.703 111.703, 51.149 113.448 C 42.136 115.847, 39 120.397, 39 131.075 C 39 139.981, 41.898 155.133, 44.032 157.381 C 45.567 158.998, 47.337 159.261, 56.659 159.252 C 70.181 159.239, 82.357 157.368, 84.528 154.969 C 87.385 151.812, 88.976 143.047, 88.988 130.388 C 89 118.352, 88.980 118.250, 85.913 114.388 C 84.216 112.249, 82.713 110.385, 82.574 110.244 C 82.435 110.103, 80.324 111.050, 77.883 112.347 M 62.535 124.476 C 55.342 126.946, 53.008 128.893, 52.989 132.441 C 52.983 133.574, 52.706 136.144, 52.374 138.153 C 51.632 142.638, 52.838 143.456, 62.456 144.993 C 70.838 146.332, 72.794 145.736, 74.657 141.278 C 76.773 136.214, 75.571 125.514, 72.658 123.473 C 70.094 121.677, 70.929 121.594, 62.535 124.476" stroke="none" fill="black" fill-rule="evenodd"/>
</svg>