<svg xmlns="http://www.w3.org/2000/svg" width="256" height="256" viewBox="0 0 256 256" version="1.1">
	<path d="M 98.500 25.788 C 95.258 26.466, 93.188 28.919, 91.456 34.132 C 89.902 38.812, 85.977 42.878, 77.135 48.971 C 74.536 50.761, 74.062 57, 76.525 57 C 77.363 57, 78.533 58.237, 79.123 59.750 C 80.574 63.467, 80.239 77.577, 78.480 86.767 C 77.378 92.526, 77.278 95.912, 78.050 101.351 C 79.518 111.703, 80.599 112.929, 88.249 112.916 C 96.412 112.903, 97.602 113.195, 100.036 115.808 L 102.078 118 100.039 118 C 98.918 118, 98 118.477, 98 119.059 C 98 119.641, 97.555 119.843, 97.011 119.507 C 96.467 119.171, 94.669 121.029, 93.016 123.636 C 91.338 126.282, 88.704 128.926, 87.054 129.619 C 82.510 131.530, 75.217 137.278, 74.629 139.412 C 74.340 140.463, 74.552 142.163, 75.101 143.190 C 76.783 146.331, 82.454 145.233, 87.502 140.789 C 89.870 138.705, 92.188 136.990, 92.653 136.978 C 93.119 136.966, 94.625 136.076, 96 135 C 99.496 132.266, 102.438 132.471, 103.839 135.547 C 105.427 139.031, 105.299 144.507, 103.598 145.919 C 99.695 149.157, 101.844 157.421, 106.921 158.695 C 112.743 160.156, 115.932 155.131, 118.052 141.151 C 119.278 133.067, 118.752 129, 116.481 129 C 114.515 129, 114.643 128.013, 117 125 C 118.311 123.324, 118.963 120.918, 118.978 117.700 C 119.003 112.304, 120.578 108.651, 124.432 105.050 C 126.895 102.749, 127.328 102.673, 131.542 103.800 C 134.010 104.460, 137.527 105, 139.359 105 C 145.667 105, 149 112.403, 149 126.411 C 149 137.885, 146.934 143.520, 141.826 145.979 C 139.060 147.309, 138.537 148.076, 138.721 150.532 C 139.052 154.942, 141.507 156.273, 148.105 155.618 C 161.124 154.325, 161.998 152.950, 162.061 133.659 C 162.088 125.589, 161.890 118.631, 161.622 118.198 C 160.450 116.300, 159.782 105.263, 159.888 89.534 C 160.014 70.867, 160.033 70.736, 163.639 63.331 C 166.402 57.659, 166.191 56.491, 161.351 50.673 C 159.319 48.229, 159 46.773, 159 39.923 C 159 33.333, 158.663 31.663, 157 30 C 154.462 27.462, 153.702 27.491, 150.503 30.250 C 147.588 32.765, 146.060 37.986, 146.024 45.550 C 146.011 48.327, 145.460 51.140, 144.800 51.800 C 144.140 52.460, 141.005 53, 137.834 53 C 125.936 53, 120.247 59.268, 126.261 65.750 C 128.591 68.261, 131.429 68.551, 137.089 66.855 C 140.252 65.908, 141.324 65.982, 143.319 67.289 C 145.405 68.656, 145.818 69.917, 146.394 76.684 C 147.560 90.386, 147.059 94, 143.992 94 C 141.560 94, 141.164 93.259, 139.884 86.308 C 138.637 79.531, 137.624 78, 134.389 78 C 129.314 78, 125 84.719, 125 92.622 C 125 96.820, 124.876 97, 122 97 C 120.333 97, 118.945 96.445, 118.876 95.750 C 118.197 88.896, 118.040 85.432, 118.121 79 C 118.172 74.875, 118.229 70.215, 118.246 68.644 C 118.262 67.074, 117.716 65.443, 117.031 65.019 C 116.173 64.489, 116.023 63.202, 116.550 60.875 C 116.970 59.019, 117.448 56.150, 117.612 54.500 C 117.776 52.850, 118.162 50.150, 118.469 48.500 C 119.185 44.655, 117.673 42.780, 111.453 39.801 C 106.620 37.486, 106.507 37.331, 106.796 33.410 C 107.188 28.074, 103.549 24.731, 98.500 25.788 M 46.316 30.640 C 44.627 33.219, 44.663 33.419, 47.848 39.168 L 51.110 45.056 47.587 46.528 C 45.649 47.338, 41.225 48, 37.755 48 C 30.212 48, 27 49.772, 27 53.934 C 27 55.486, 27.563 57.208, 28.250 57.761 C 30.632 59.677, 39.538 60.856, 47.500 60.308 C 51.900 60.005, 57.133 60.211, 59.130 60.765 C 61.930 61.542, 63.468 61.429, 65.856 60.273 C 69.773 58.376, 74.002 54.491, 73.994 52.798 C 73.986 51.283, 68.613 48, 66.141 48 C 62.368 48, 60.268 45.245, 59.807 39.690 C 59.200 32.361, 56.083 28, 51.455 28 C 48.874 28, 47.626 28.641, 46.316 30.640 M 93 54.477 C 93 57.395, 96.891 60.363, 99.436 59.386 C 101.334 58.658, 103.337 54.355, 102.448 52.916 C 102.137 52.412, 99.884 52, 97.441 52 C 93.382 52, 93 52.213, 93 54.477 M 55 66.654 C 52.525 67.455, 48.756 67.895, 46.625 67.633 C 41.787 67.038, 38.130 68.634, 37.368 71.671 C 35.757 78.089, 40.278 81.896, 47.088 79.855 C 50.660 78.785, 51.506 78.929, 56.495 81.453 C 59.511 82.979, 61.731 84.626, 61.430 85.114 C 61.128 85.601, 61.610 86, 62.500 86 C 63.390 86, 63.840 85.550, 63.500 85 C 63.160 84.450, 63.551 84, 64.368 84 C 66.467 84, 70 79.190, 70 76.333 C 70 73.363, 67.343 66.837, 65.711 65.800 C 63.957 64.686, 60.143 64.990, 55 66.654 M 94.646 73.452 C 91 76.831, 91.274 79.374, 95.557 81.901 C 100.348 84.728, 101.691 84.557, 103.958 80.829 C 105.486 78.316, 105.658 77.229, 104.785 75.599 C 101.971 70.339, 98.742 69.656, 94.646 73.452 M 99.813 85.683 C 100.534 85.972, 101.397 85.936, 101.729 85.604 C 102.061 85.272, 101.471 85.036, 100.417 85.079 C 99.252 85.127, 99.015 85.364, 99.813 85.683 M 40.591 87.310 C 38.289 88.993, 36.557 96.761, 38.075 98.591 C 39.844 100.722, 45.021 103, 48.095 103 C 49.628 103, 51.128 103.398, 51.429 103.885 C 51.918 104.676, 54.293 105.325, 60.500 106.365 C 62.058 106.626, 63.066 105.529, 65.060 101.404 C 67.434 96.495, 67.519 95.852, 66.227 92.612 C 64.632 88.613, 62.847 88.053, 55.645 89.293 C 51.113 90.073, 48.389 89.455, 42.897 86.399 C 42.566 86.215, 41.528 86.625, 40.591 87.310 M 93.021 91.560 C 91.658 92.902, 90.886 94, 91.306 94 C 91.726 94, 91.614 94.853, 91.056 95.895 C 89.815 98.214, 90.745 99.063, 97.152 101.458 C 99.805 102.450, 102.720 102.906, 103.936 102.520 C 105.805 101.927, 106.012 101.268, 105.617 97.172 C 104.902 89.751, 104.343 88.992, 99.643 89.060 C 96.649 89.104, 94.812 89.798, 93.021 91.560 M 57 110.011 C 54.940 111.238, 49.121 113.631, 45.500 114.739 C 43.839 115.247, 41.050 117.553, 39.250 119.906 C 36.105 124.019, 36 124.464, 36 133.746 C 36 154.332, 38.603 160.049, 47.271 158.504 C 49.597 158.089, 54.545 157.630, 58.268 157.483 C 61.990 157.336, 65.669 156.689, 66.445 156.046 C 69.279 153.693, 70.631 146.911, 69.811 139.152 C 69.327 134.574, 69.415 131.093, 70.044 129.917 C 71.199 127.759, 70.467 117.741, 68.947 114.900 C 68.387 113.855, 67.286 113, 66.500 113 C 65.714 113, 64.589 112.100, 64 111 C 62.887 108.920, 59.609 108.457, 57 110.011 M 49 127 C 49 128.100, 48.642 129, 48.204 129 C 47.767 129, 47.298 130.649, 47.162 132.664 C 47.026 134.679, 46.671 136.724, 46.371 137.208 C 45.487 138.638, 48.889 143, 50.888 143 C 53.919 143, 57.880 139.157, 58.554 135.562 C 59.549 130.263, 56.069 125, 51.571 125 C 49.667 125, 49 125.519, 49 127" stroke="none" fill="black" fill-rule="evenodd"/>
</svg>