<svg xmlns="http://www.w3.org/2000/svg" width="256" height="256" viewBox="0 0 256 256" version="1.1">
	<path d="M 46.392 28.517 C 43.581 31.328, 43.711 32.567, 47.587 39.913 C 48.868 42.341, 49.694 44.686, 49.422 45.126 C 48.516 46.592, 42.121 47.826, 38.175 47.297 C 32.490 46.534, 27 49.332, 27 52.991 C 27 58.554, 31.446 59.893, 52 60.522 C 68.690 61.033, 71.886 60.449, 73.999 56.502 C 75.804 53.128, 74.824 51.561, 69.331 49.038 C 59.530 44.538, 60 44.956, 60 40.732 C 60 36.711, 57.831 30.873, 55.177 27.750 C 53.060 25.259, 49.324 25.585, 46.392 28.517 M 95.517 29.392 C 94.132 30.777, 93 32.998, 93 34.328 C 93 36.113, 91.231 38.165, 86.250 42.160 C 82.537 45.137, 79.484 48.231, 79.466 49.036 C 79.447 49.841, 80.347 51.326, 81.466 52.336 C 83.077 53.790, 83.493 55.381, 83.467 59.978 C 83.439 64.779, 82.860 66.707, 80.116 71.120 C 76.442 77.031, 76.657 78.470, 81.592 80.978 C 85.106 82.763, 96.196 83.300, 97.166 81.732 C 97.646 80.955, 98.240 80.940, 99.174 81.682 C 100.486 82.724, 112.185 83.526, 121.133 83.187 C 125.721 83.014, 127.496 83.976, 128.168 87.003 C 128.351 87.827, 128.850 88.759, 129.278 89.076 C 129.706 89.393, 130.317 92.993, 130.636 97.076 C 130.955 101.159, 131.856 106.402, 132.640 108.727 C 133.423 111.052, 134.134 116.396, 134.220 120.603 C 134.396 129.255, 133.025 131.336, 127.507 130.794 C 123.849 130.435, 121.816 126.775, 121.235 119.500 C 120.677 112.511, 120.701 111.226, 121.508 105 C 122.510 97.262, 120.788 91.459, 116.892 89.444 C 113.455 87.667, 109.188 87.846, 107.071 89.858 C 105.431 91.415, 97.767 90.800, 97.188 89.065 C 96.993 88.479, 95.051 88, 92.873 88 C 84.413 88, 81.473 95.222, 82.901 112.500 C 83.468 119.371, 82.832 127.772, 81.359 132.837 C 79.859 137.998, 79.878 138.357, 81.784 140.870 C 84.444 144.376, 88.211 144.140, 94.209 140.092 C 97.646 137.772, 100.193 136.869, 103.742 136.714 C 108.215 136.518, 108.946 136.839, 113.293 140.913 C 115.882 143.340, 118 145.902, 118 146.606 C 118 148.236, 121.900 151, 124.199 151 C 126.590 151, 130.029 145.843, 128.073 145.191 C 127.234 144.911, 128.143 144.022, 130.386 142.931 C 135.368 140.508, 139.083 141.803, 145.287 148.123 C 151.723 154.679, 153.594 154.564, 159.412 147.250 C 166.008 138.959, 166.680 132.589, 161.505 127.414 C 159.912 125.822, 157.949 125, 155.737 125 C 150.549 125, 148.621 123.017, 148.571 117.631 C 148.537 113.878, 148.973 112.707, 150.912 111.349 C 159.913 105.045, 161.513 101.826, 158.521 96.041 C 156.654 92.431, 155.822 92.178, 149.837 93.404 C 145.434 94.306, 144.749 94.193, 142.800 92.244 C 140.948 90.392, 140.805 89.723, 141.799 87.542 C 142.851 85.232, 143.503 85, 148.932 85 C 156.211 85, 159.827 83.492, 160.731 80.079 C 161.688 76.471, 161.218 74.907, 158.229 71.750 C 155.455 68.820, 152.060 68.266, 147.500 70 C 144.646 71.085, 141.494 69.968, 139.282 67.087 C 137.891 65.276, 137.597 54.184, 138.885 52.152 C 140.383 49.788, 143.289 51.364, 145.986 56.001 C 147.551 58.691, 150.114 61.304, 152.360 62.500 L 156.116 64.500 158.562 61.690 C 161.172 58.691, 161.135 56.368, 158.384 50.596 C 157.623 48.999, 157 47.153, 157 46.492 C 157 45.832, 155.858 44.060, 154.462 42.553 C 152.138 40.045, 151.407 39.844, 145.788 40.157 L 139.652 40.500 135.562 35.172 C 130.945 29.157, 128.780 27.618, 126.123 28.461 C 124.654 28.927, 124.169 30.440, 123.702 36.020 C 123.380 39.856, 122.485 43.897, 121.714 44.998 C 120.314 46.996, 120.306 46.996, 118.408 44.898 C 116.032 42.273, 111.723 40, 109.121 40 C 106.076 40, 103.987 37.327, 104.595 34.211 C 105.202 31.101, 103.518 28.504, 100.267 27.539 C 98.638 27.055, 97.352 27.557, 95.517 29.392 M 119.144 53.327 C 118.548 54.045, 117.767 57.134, 117.407 60.193 C 116.827 65.128, 117.010 66.010, 119.029 68.029 C 121.216 70.216, 121.357 70.232, 122.652 68.461 C 124.282 66.232, 124.324 64.609, 122.919 58.058 C 121.732 52.525, 120.790 51.343, 119.144 53.327 M 99.095 54.929 C 95.721 55.794, 94.602 58.063, 95.413 62.389 C 95.888 64.920, 96.811 66.366, 98.305 66.921 C 102.141 68.347, 103.235 67.129, 104.582 59.933 C 105.204 56.611, 102.423 54.075, 99.095 54.929 M 37.132 69.559 C 35.069 72.182, 35.068 72.214, 36.989 75.979 C 39.481 80.863, 42.837 81.773, 49.985 79.505 C 51.908 78.895, 62.114 83.841, 62.727 85.680 C 63.261 87.282, 57.449 89.281, 53.772 88.761 C 51.973 88.506, 48.384 87.693, 45.798 86.954 C 38.408 84.843, 34.471 87.784, 35.748 94.461 C 36.511 98.454, 40.360 100.372, 49.123 101.125 C 54.721 101.606, 57.756 102.402, 59.950 103.964 C 61.642 105.169, 63.778 105.888, 64.749 105.580 C 66.677 104.968, 71.710 97.246, 72.076 94.338 C 72.404 91.731, 71.032 89, 69.393 89 C 68.574 89, 68 87.970, 68 86.500 C 68 85.125, 68.490 84, 69.090 84 C 70.763 84, 73.929 79.749, 73.967 77.453 C 73.985 76.327, 72.200 73.648, 70 71.500 L 66.001 67.595 52.603 67.259 L 39.206 66.923 37.132 69.559 M 96.660 99.750 C 95.823 101.119, 95.692 105.475, 96.435 107.190 C 96.838 108.120, 98.212 109.564, 99.488 110.400 C 101.651 111.817, 101.982 111.745, 104.404 109.324 C 107.166 106.561, 107.829 102.229, 105.800 100.200 C 104.490 98.890, 97.399 98.541, 96.660 99.750 M 58.016 111.659 C 54.148 113.879, 53.115 114.082, 50.494 113.134 C 46.322 111.625, 40.624 113.314, 38.146 116.794 C 34.800 121.493, 33.821 127.114, 35.026 134.705 C 37.527 150.462, 40.295 155.501, 46.273 155.177 C 48.048 155.081, 53.614 154.889, 58.641 154.751 C 66.119 154.546, 68.182 154.140, 69.974 152.520 C 73.583 149.260, 75.115 144.355, 74.324 138.598 C 73.938 135.794, 73.714 130.453, 73.826 126.728 C 74.038 119.661, 72.887 116.186, 68.766 111.446 C 66.088 108.365, 63.669 108.413, 58.016 111.659 M 99 117.847 C 99 118.313, 98.100 119.732, 97 121 C 92.413 126.289, 96.758 129.941, 106.633 129.097 C 108.748 128.916, 108.777 125.184, 106.695 121.084 C 105.010 117.766, 104.093 117, 101.810 117 C 100.265 117, 99 117.381, 99 117.847 M 50.848 122.750 C 48.008 126.151, 46.904 130.180, 47.580 134.686 C 48.430 140.355, 50.284 142.189, 54.775 141.803 C 62.043 141.179, 64.588 132.509, 59.681 125.095 C 56.696 120.584, 53.391 119.706, 50.848 122.750" stroke="none" fill="black" fill-rule="evenodd"/>
</svg>