<svg xmlns="http://www.w3.org/2000/svg" width="256" height="256" viewBox="0 0 256 256" version="1.1">
	<path d="M 41.250 30.961 C 38.542 32.198, 37.001 33.555, 37.002 34.701 C 37.004 35.690, 36.889 55.340, 36.748 78.368 L 36.491 120.235 39.106 122.368 C 40.545 123.540, 42.684 125.162, 43.861 125.971 C 46.531 127.807, 46.533 128.530, 43.874 131.292 C 42.705 132.506, 40.650 135.975, 39.308 139 C 37.965 142.025, 36.184 145.757, 35.351 147.294 C 32.989 151.648, 32.202 155.315, 33.107 157.759 C 34.021 160.230, 35.702 160.488, 41.105 158.987 C 46.041 157.616, 48.561 155.190, 51.029 149.432 C 52.182 146.742, 53.436 144.306, 53.815 144.020 C 54.636 143.400, 56.324 139.665, 57.685 135.457 C 58.933 131.602, 57.423 130, 52.542 130 C 49.470 130, 49 129.682, 49 127.601 C 49 125.525, 49.573 125.132, 53.250 124.690 C 55.587 124.409, 59.373 123.756, 61.663 123.240 C 64.919 122.505, 66.601 122.659, 69.387 123.948 L 72.949 125.595 70.280 129.346 C 67.748 132.906, 67.674 133.338, 68.839 137.799 C 71.562 148.218, 76.151 150.536, 80.948 143.913 C 82.627 141.596, 84 138.883, 84 137.884 C 84 134.928, 80.783 129.066, 78.820 128.443 C 74.276 127.001, 79.856 118, 85.293 118 C 89.555 118, 96.578 114.566, 100.133 110.744 C 103.421 107.210, 103.967 106.962, 105.864 108.147 C 108.947 110.073, 109.201 111.686, 107.076 115.851 C 104.800 120.312, 101.919 130.859, 102.845 131.338 C 104.404 132.143, 111.919 131.981, 114.259 131.092 C 116.004 130.428, 117.045 129.070, 117.542 126.810 C 118.868 120.771, 122.219 115.197, 125.627 113.362 C 129.862 111.081, 130.695 112.016, 128.517 116.606 C 127.557 118.629, 126.525 122.125, 126.223 124.376 C 125.866 127.034, 124.847 129.119, 123.317 130.323 C 119.818 133.075, 118.254 136.812, 117.856 143.371 C 117.371 151.363, 118.780 152.249, 126.664 148.911 C 132.367 146.496, 132.548 146.299, 134.593 140.223 C 135.744 136.803, 137.463 133.146, 138.413 132.096 C 139.964 130.382, 143.239 120.312, 142.899 118.302 C 142.086 113.503, 146.403 109.429, 149.541 112.034 C 151.948 114.032, 150.944 133.230, 148.145 138.716 C 145.775 143.362, 144.500 144.484, 140.506 145.443 C 134.080 146.984, 133.225 150.909, 138.104 156.465 C 141.837 160.717, 144.071 160.886, 150.935 157.439 C 157.035 154.375, 158.343 152.546, 161.464 142.711 C 163.914 134.994, 164.641 126.989, 164.230 112.266 C 164.020 104.752, 163.746 103.747, 161.097 100.782 C 158.278 97.627, 158.068 97.565, 153.847 98.629 C 147.080 100.336, 118.552 98.988, 116.430 96.862 C 114.202 94.629, 115.395 91.384, 118.786 90.455 C 120.279 90.046, 129.150 89.601, 138.500 89.465 C 147.850 89.330, 155.849 89.170, 156.275 89.110 C 158.317 88.821, 159.069 81.906, 159.372 60.629 C 159.692 38.189, 159.195 33.226, 156.589 32.838 C 154.490 32.526, 122.380 31.871, 110 31.888 L 97.500 31.906 94.779 34.936 C 92.191 37.819, 92.062 38.449, 92.129 47.918 C 92.167 53.391, 91.922 58.317, 91.584 58.865 C 90.772 60.178, 92.886 78.696, 94.269 82.380 C 94.864 83.963, 96.373 86.282, 97.623 87.532 C 99.941 89.850, 100.285 93.236, 98.484 96.021 C 97.943 96.857, 94.425 99.081, 90.666 100.963 C 83.123 104.740, 80.140 104.406, 80.894 99.869 C 81.392 96.872, 82.209 57.303, 82.006 46 C 81.867 38.279, 80.066 31.243, 78.136 30.881 C 77.786 30.815, 71.586 30.637, 64.358 30.484 C 57.129 30.331, 49.929 29.939, 48.358 29.613 C 46.543 29.236, 43.949 29.728, 41.250 30.961 M 52 43.288 C 50.013 44.288, 49.436 45.430, 49.189 48.847 C 49.018 51.213, 49.367 53.738, 49.966 54.459 C 50.570 55.187, 54.412 56.085, 58.599 56.477 C 65.255 57.101, 66.309 56.967, 67.541 55.342 C 69.260 53.073, 69.436 44.836, 67.800 43.200 C 66.218 41.618, 55.196 41.679, 52 43.288 M 109.175 45.590 C 106.567 47.417, 106.375 50.232, 108.701 52.558 C 110.127 53.984, 111.613 54.157, 117.882 53.627 C 122.162 53.265, 128.969 53.517, 133.796 54.214 C 142.112 55.417, 142.257 55.401, 144.115 53.106 C 146.322 50.380, 146.463 48.978, 144.750 46.772 C 142.886 44.372, 112.363 43.357, 109.175 45.590 M 107.101 68.378 C 105.194 70.676, 107.404 74.648, 111.307 75.936 C 114.634 77.034, 124.373 76.825, 137.317 75.377 C 141.943 74.860, 143.455 74.236, 144.706 72.326 C 146.163 70.103, 146.139 69.819, 144.390 68.494 C 141.688 66.449, 108.787 66.347, 107.101 68.378 M 55 68.727 C 49.823 69.669, 47.956 73.503, 49.630 79.750 C 50.095 81.484, 50.961 82, 53.405 82 C 55.150 82, 58.342 82.900, 60.500 84 C 62.658 85.100, 64.972 86, 65.644 86 C 68.046 86, 69.240 76.968, 67.661 70.750 C 67.015 68.209, 66.603 68.010, 62.231 68.136 C 59.629 68.211, 56.375 68.477, 55 68.727 M 59 93.563 C 57.075 94.291, 54.745 94.913, 53.823 94.944 C 51.302 95.028, 48 99.849, 48 103.444 C 48 108.705, 49.613 109.785, 58.222 110.286 C 65.665 110.719, 66.007 110.640, 67.691 108.117 C 70.752 103.531, 70.630 96.773, 67.427 93.570 C 65.598 91.741, 63.820 91.739, 59 93.563 M 94.813 132.683 C 95.534 132.972, 96.397 132.936, 96.729 132.604 C 97.061 132.272, 96.471 132.036, 95.417 132.079 C 94.252 132.127, 94.015 132.364, 94.813 132.683" stroke="none" fill="black" fill-rule="evenodd"/>
</svg>