<svg xmlns="http://www.w3.org/2000/svg" width="256" height="256" viewBox="0 0 256 256" version="1.1">
	<path d="M 82.500 24.030 C 80.850 24.566, 75.900 25.179, 71.500 25.393 C 67.100 25.606, 62.727 25.830, 61.781 25.890 C 60.757 25.956, 60.276 26.555, 60.590 27.374 C 61.018 28.488, 64.836 28.695, 80.809 28.465 C 91.639 28.309, 102.750 27.751, 105.500 27.225 C 110.084 26.347, 110.205 26.256, 106.950 26.134 C 104.997 26.060, 102.877 25.477, 102.237 24.837 C 100.741 23.341, 86.420 22.755, 82.500 24.030 M 135.250 25.706 C 134.012 25.944, 133 26.584, 133 27.129 C 133 27.673, 133.417 27.860, 133.928 27.545 C 134.438 27.229, 136.297 28.980, 138.060 31.434 C 141.936 36.832, 146.067 38.689, 148.418 36.091 C 152.538 31.538, 148.305 24.898, 141.436 25.136 C 139.271 25.211, 136.488 25.467, 135.250 25.706 M 37.571 27.571 C 34.110 31.033, 36.945 40, 41.500 40 C 43.932 40, 47 36.219, 47 33.223 C 47 27.249, 41.306 23.837, 37.571 27.571 M 114 64 C 112.917 64.700, 113.835 64.974, 117.309 64.985 C 120.264 64.994, 121.880 64.614, 121.500 64 C 120.714 62.728, 115.968 62.728, 114 64 M 94.675 91.404 C 93.895 93.438, 95.028 97, 96.456 97 C 97.923 97, 99.873 93.010, 99.265 91.250 C 98.679 89.552, 95.343 89.663, 94.675 91.404 M 80.477 102.666 C 78.510 104.633, 80.190 107, 83.555 107 C 85.663 107, 87.975 103.642, 86.727 102.393 C 85.473 101.140, 81.845 101.298, 80.477 102.666 M 36.975 154.565 C 34.372 161.412, 37.579 168, 43.516 168 C 45.801 168, 47.358 167.327, 48.350 165.910 C 49.658 164.044, 49.592 163.285, 47.737 158.820 C 44.873 151.931, 38.878 149.560, 36.975 154.565 M 150.195 157.500 C 150.215 159.150, 150.439 159.704, 150.693 158.731 C 150.947 157.758, 150.930 156.408, 150.656 155.731 C 150.382 155.054, 150.175 155.850, 150.195 157.500 M 110 163.393 C 110 165.781, 114.298 166.758, 117 164.985 C 118.333 164.109, 118.333 163.891, 117 163.015 C 114.714 161.515, 110 161.769, 110 163.393" stroke="none" fill="black" fill-rule="evenodd"/>
</svg>