<svg xmlns="http://www.w3.org/2000/svg" width="256" height="256" viewBox="0 0 256 256" version="1.1">
	<path d="M 57.655 30.829 C 56.715 31.867, 55.993 34.352, 55.985 36.579 C 55.960 42.800, 55.104 43.416, 45.585 44.048 C 36.290 44.665, 33 46.386, 33 50.632 C 33 54.158, 36.917 56.072, 45.452 56.718 C 52.371 57.241, 53.087 57.499, 53.629 59.659 C 54.496 63.114, 52.389 64.997, 47.628 65.022 C 42.415 65.050, 35.550 68.119, 33.886 71.165 C 33.130 72.549, 32.505 77.947, 32.350 84.424 L 32.089 95.348 35.616 98.674 C 37.555 100.503, 39.552 102, 40.052 102 C 40.552 102, 43.451 103.593, 46.495 105.540 C 51.343 108.641, 51.898 109.322, 50.979 111.040 C 50.230 112.438, 50.247 113, 51.036 113 C 52.560 113, 50.199 115.139, 46.653 116.971 C 43.693 118.500, 40.738 121.706, 37.756 126.624 C 36.797 128.206, 34.604 131.750, 32.882 134.500 C 28.769 141.070, 28.135 145.761, 30.955 148.750 C 32.123 149.988, 33.675 151, 34.404 151 C 36.958 151, 40.759 147.015, 43.277 141.697 C 44.674 138.746, 47.278 135.102, 49.064 133.599 L 52.311 130.867 54.327 132.883 C 56.100 134.656, 56.352 136.264, 56.421 146.243 C 56.484 155.301, 56.855 158.131, 58.263 160.278 C 60.077 163.048, 63.903 164.635, 66.428 163.666 C 68.595 162.834, 69.356 155.048, 68.696 140.441 C 68.052 126.209, 68.393 125, 73.045 125 C 75.887 125, 79 127.705, 79 130.174 C 79 132.056, 81.786 134.545, 84.681 135.247 C 87.306 135.884, 90.446 132.888, 92.088 128.177 C 93.076 125.344, 92.922 124.507, 90.858 121.468 C 88.141 117.468, 86.489 116.755, 79.246 116.456 C 74.431 116.257, 70.196 114.471, 71.484 113.183 C 71.777 112.890, 70.890 111.912, 69.514 111.009 C 67.263 109.532, 67.153 109.173, 68.427 107.434 C 69.657 105.753, 71.110 105.500, 79.510 105.497 C 88.859 105.495, 89.257 105.403, 91.589 102.692 C 94.708 99.066, 95.172 93.582, 92.935 86.802 C 91.880 83.608, 91.869 82.039, 92.873 78.672 C 95.466 69.983, 95.570 70.455, 90.526 68.012 C 86.909 66.261, 84.727 65.868, 80.757 66.249 C 71.449 67.144, 66.790 64.388, 68.500 59 C 69.224 56.720, 69.585 56.660, 80.582 56.964 C 88.544 57.185, 88.703 57.141, 91.332 54.017 C 92.855 52.208, 94 49.625, 94 48.001 C 94 45.614, 93.413 44.961, 90.355 43.952 C 88.185 43.236, 84.044 42.963, 80.120 43.278 C 70.289 44.068, 67 41.896, 67 34.618 C 67 32.848, 66.460 30.860, 65.800 30.200 C 64.007 28.407, 59.534 28.752, 57.655 30.829 M 107 32.592 C 101.222 34.728, 100.468 35.588, 98.997 41.720 C 98.096 45.475, 98.720 46.141, 104.754 47.866 C 107.197 48.565, 109.677 50.104, 110.580 51.481 C 112.010 53.664, 112.007 54.182, 110.551 57.252 C 109.671 59.106, 106.712 62.829, 103.975 65.524 C 101.239 68.220, 99 70.939, 99 71.566 C 99 72.194, 100.125 73.922, 101.500 75.405 C 104.308 78.435, 104.608 81.313, 102.500 85 C 100.795 87.982, 100.471 103.142, 102.048 106.091 C 102.625 107.168, 103.286 114.226, 103.517 121.775 C 103.748 129.324, 104.022 136.175, 104.126 137 C 104.607 140.812, 103.772 143.256, 101 146.157 C 97.386 149.939, 97.039 154.508, 100.073 158.365 C 103.179 162.314, 105.884 161.704, 111.670 155.750 C 117.376 149.878, 118.689 147.643, 118.577 144 C 118.467 140.417, 120.734 139.068, 126.929 139.032 C 134.831 138.986, 139 140.727, 139 144.074 C 139 146.092, 140.782 148.438, 146.279 153.660 C 153.793 160.797, 158.755 163.692, 161.605 162.598 C 162.932 162.089, 163.158 160.922, 162.790 156.477 C 162.309 150.685, 159.729 146.684, 155.638 145.385 C 154.514 145.028, 153.010 144.153, 152.297 143.439 C 150.507 141.650, 150.668 137.342, 152.551 136.619 C 153.404 136.291, 154.970 134.061, 156.032 131.661 C 157.741 127.797, 157.951 125.007, 157.868 107.218 C 157.780 88.059, 157.678 87.046, 155.638 85.136 C 151.084 80.870, 147.421 80.436, 127.500 81.799 C 113.571 82.753, 111.290 82.488, 110.443 79.821 C 109.808 77.818, 110.603 76.933, 122.620 66.277 C 127.320 62.108, 127.385 61.968, 127.628 55.423 C 127.763 51.777, 128.096 48.570, 128.369 48.298 C 128.903 47.764, 132.270 47.611, 138.250 47.850 C 142.826 48.033, 146 50.911, 146 54.878 C 146 58.363, 144.781 59.462, 139.287 60.931 C 133.930 62.363, 131.809 65.153, 133.151 69.002 C 135.180 74.825, 140.429 76.807, 148.848 74.931 C 157.185 73.074, 162.077 60.546, 160.126 46.052 C 158.992 37.621, 157.506 34.084, 155.009 33.872 C 154.179 33.802, 146.075 33.685, 137 33.612 C 127.925 33.539, 117.800 33.155, 114.500 32.758 C 111.200 32.361, 107.825 32.287, 107 32.592 M 46.589 80.077 C 43.580 83.653, 43.509 84.149, 45.463 87.928 C 47.024 90.948, 48.847 92.019, 52.332 91.968 C 54.771 91.932, 58.297 89.630, 57.355 88.689 C 57.018 88.351, 57.925 87.536, 59.371 86.877 C 62.168 85.602, 63.174 81, 60.655 81 C 59.915 81, 58.495 80.100, 57.500 79 C 54.666 75.868, 49.720 76.356, 46.589 80.077 M 66.250 79.863 C 62.498 83.075, 62.162 84.996, 65.039 86.792 C 66.160 87.492, 66.840 88.450, 66.550 88.919 C 64.664 91.970, 74.854 93.575, 77.746 90.682 C 80.132 88.297, 79.698 82.372, 76.922 79.417 C 73.945 76.248, 70.295 76.401, 66.250 79.863 M 130.250 92.662 C 127.793 93.654, 129.073 94.854, 133.623 95.824 C 140.084 97.202, 147.410 94.522, 142.418 92.607 C 140.561 91.894, 132.058 91.933, 130.250 92.662 M 116 93.965 C 116 95.528, 119.912 97.163, 122.038 96.488 C 123.117 96.145, 124 95.419, 124 94.874 C 124 94.328, 124.450 94.160, 125 94.500 C 125.550 94.840, 126 94.641, 126 94.059 C 126 93.455, 123.852 93, 121 93 C 118.250 93, 116 93.434, 116 93.965 M 129.250 108.220 C 128.012 108.817, 127 109.636, 127 110.039 C 127 111.212, 133.263 113.858, 137.729 114.573 C 141.527 115.180, 141.938 115.017, 143.278 112.364 C 144.074 110.789, 144.525 108.938, 144.279 108.250 C 143.721 106.685, 132.479 106.663, 129.250 108.220 M 116.491 109.985 C 117.195 111.125, 122 110.948, 122 109.782 C 122 109.352, 120.623 109, 118.941 109 C 117.188 109, 116.142 109.420, 116.491 109.985 M 123.813 109.683 C 124.534 109.972, 125.397 109.936, 125.729 109.604 C 126.061 109.272, 125.471 109.036, 124.417 109.079 C 123.252 109.127, 123.015 109.364, 123.813 109.683 M 137 121.943 C 137 122.461, 136.100 122.712, 135 122.500 C 133.580 122.227, 133 122.653, 133 123.970 C 133 125.351, 134.011 125.995, 136.963 126.494 C 141.856 127.320, 142.867 126.753, 142.249 123.524 C 141.894 121.666, 141.138 121, 139.383 121 C 138.073 121, 137 121.424, 137 121.943" stroke="none" fill="black" fill-rule="evenodd"/>
</svg>