<svg xmlns="http://www.w3.org/2000/svg" width="256" height="256" viewBox="0 0 256 256" version="1.1">
	<path d="M 117.962 30.250 C 116.281 32.037, 115.968 33.279, 116.440 36.284 C 117.463 42.797, 115.009 45.291, 105.876 47.023 C 99.145 48.300, 98 49.378, 98 54.438 C 98 58.269, 97.664 58.821, 94.114 60.816 C 89.545 63.384, 87.218 63.500, 80.591 61.489 C 77.891 60.670, 73.777 60, 71.448 60 C 66.757 60, 66 60.922, 66 66.633 C 66 69.694, 65.559 70.288, 62.250 71.683 C 60.188 72.552, 57.092 73.458, 55.371 73.697 C 52.514 74.093, 52.059 73.753, 50.141 69.791 C 48.986 67.405, 47.762 64.062, 47.423 62.364 C 46.895 59.725, 47.242 58.964, 49.807 57.138 C 51.458 55.962, 53.551 55, 54.459 55 C 55.367 55, 58.760 53.200, 62 51 C 65.240 48.800, 68.127 47, 68.415 47 C 68.704 47, 71.417 45.867, 74.445 44.482 C 82.477 40.808, 84.339 35.985, 79.266 31.994 C 76.077 29.486, 72.455 29.828, 67.907 33.066 C 63.639 36.105, 47.995 43.623, 44.207 44.454 C 40.148 45.346, 35 49.572, 35 52.012 C 35 53.021, 36.350 55.196, 38 56.846 C 41.053 59.899, 41.801 62.387, 40 63.500 C 38.243 64.586, 38.926 70.976, 41.228 74.974 L 43.455 78.845 41.320 82.673 C 40.146 84.778, 39.057 87.400, 38.901 88.500 C 37.782 96.373, 46.145 98.964, 53.640 93.068 C 56.399 90.899, 60 90.294, 60 92 C 60 92.550, 61.013 93.036, 62.250 93.079 C 63.487 93.122, 63.938 93.385, 63.250 93.662 C 62.563 93.940, 62 94.804, 62 95.583 C 62 96.362, 61.212 97.069, 60.250 97.152 C 59.288 97.236, 58.050 97.409, 57.500 97.537 C 56.950 97.665, 55.894 97.821, 55.153 97.885 C 53.043 98.065, 41.528 110.367, 39.532 114.573 C 37.333 119.207, 38.343 121.366, 42.922 121.819 C 47.246 122.247, 50.381 120.221, 60.053 110.750 C 63.283 107.588, 66.592 105, 67.406 105 C 69.783 105, 72 109.114, 72 113.523 C 72 118.075, 70.649 120, 67.454 120 C 64.508 120, 59.741 122.505, 55.952 126.045 C 54.211 127.671, 50.919 129.564, 48.637 130.251 C 43.769 131.716, 41.271 133.428, 38.222 137.385 C 35.791 140.541, 35.316 144.916, 37.200 146.800 C 38.899 148.499, 44.531 148.287, 48.300 146.382 C 52.047 144.488, 61.186 137.823, 65.554 133.800 C 68.600 130.995, 68.615 130.993, 70.715 132.949 C 73.883 135.901, 74.490 140.334, 72.330 144.754 C 70.871 147.741, 69.689 148.703, 66.500 149.500 C 60.867 150.908, 59.997 151.689, 60.022 155.309 C 60.059 160.642, 62.714 163.024, 68.907 163.279 L 74.261 163.500 81.446 155.659 L 88.631 147.818 91.710 150.409 C 95.875 153.914, 99.514 153.764, 102.840 149.951 C 104.303 148.274, 107.608 144.614, 110.184 141.817 C 112.760 139.021, 115.297 135.555, 115.822 134.116 C 117.782 128.738, 119.389 122.451, 119.174 121 C 117.961 112.820, 117.933 110.575, 119.013 107.968 C 121.109 102.909, 125.116 104.431, 127 111.002 C 127.683 113.383, 127.537 114.778, 126.425 116.474 C 124.357 119.630, 123.870 122.906, 124.938 126.470 C 125.438 128.137, 126.394 131.975, 127.064 135 C 128.419 141.122, 128.662 141.552, 134.936 148.932 C 140.217 155.143, 145.353 158, 151.238 158 C 156.737 158, 159.681 155.911, 162.086 150.300 C 165.656 141.971, 163.986 132.795, 158.789 132.190 C 156.766 131.954, 155.705 132.555, 154.378 134.690 C 151.117 139.934, 148.708 142, 145.854 142 C 143.323 142, 142.922 141.499, 141.657 136.750 C 139.419 128.351, 138 119.752, 138 114.594 C 138 108.047, 140.374 104.391, 145.965 102.328 C 148.459 101.408, 151.006 100.275, 151.625 99.809 C 153.532 98.374, 154.915 91, 155.433 79.500 C 155.705 73.450, 156.226 65.528, 156.589 61.895 C 157.295 54.850, 156.065 49.128, 153.363 46.886 C 152.360 46.054, 148.405 45.593, 141.950 45.556 C 129.817 45.487, 128.522 44.632, 128.874 36.923 C 129.043 33.222, 128.629 31.248, 127.400 29.889 C 125.071 27.316, 120.558 27.489, 117.962 30.250 M 126.500 58.948 C 124.850 59.397, 120.800 59.824, 117.500 59.897 C 110.156 60.061, 108.518 60.942, 109.356 64.282 C 110.199 67.640, 113.937 68.474, 118.466 66.315 C 121.893 64.681, 122.299 64.703, 129.073 66.884 C 135.611 68.990, 136.292 69.039, 138.543 67.564 C 141.315 65.747, 142.781 61.381, 141.162 59.762 C 139.786 58.386, 130.472 57.869, 126.500 58.948 M 84.462 77.447 C 82.112 79.797, 82.039 80.267, 82.626 89.197 C 83.001 94.908, 83.836 99.455, 84.788 100.973 C 85.999 102.904, 86.392 107.109, 86.582 120.161 C 86.829 137.072, 87.312 141, 89.148 141 C 91.078 141, 101.014 133.789, 103.078 130.890 C 104.840 128.415, 105.179 126.330, 105.326 117.041 C 105.483 107.163, 105.306 105.957, 103.500 104.584 C 102.400 103.748, 100.713 103.049, 99.750 103.032 C 98.787 103.014, 98 102.550, 98 102 C 98 101.450, 97.325 101, 96.500 101 C 95.177 101, 94.937 100.593, 95.020 98.490 C 95.031 98.209, 94.367 96.676, 93.543 95.084 C 91.775 91.664, 91.436 87.872, 92.450 82.844 C 93.053 79.852, 92.807 78.807, 91.094 77.094 C 88.408 74.408, 87.450 74.459, 84.462 77.447 M 111 80.714 C 106.757 82.173, 105.697 87.974, 109.223 90.443 C 111.609 92.115, 122.823 92.544, 132.799 91.346 C 137.236 90.813, 138.328 90.267, 139.506 87.988 C 140.795 85.496, 140.728 85.098, 138.707 83.256 C 136.836 81.552, 134.670 81.166, 124.500 80.722 C 117.900 80.434, 111.825 80.431, 111 80.714" stroke="none" fill="black" fill-rule="evenodd"/>
</svg>