<svg xmlns="http://www.w3.org/2000/svg" width="256" height="256" viewBox="0 0 256 256" version="1.1">
	<path d="M 90.096 28.250 C 89.056 29.488, 87.071 31.850, 85.685 33.500 L 83.166 36.500 61.773 36.511 C 42.878 36.520, 40.059 36.731, 37.636 38.319 C 33.894 40.770, 33.340 42.784, 35.745 45.189 C 37.395 46.840, 39.765 47.365, 48.634 48.044 C 67.028 49.454, 73.425 50.213, 75.348 51.213 C 77.145 52.148, 77.145 52.210, 75.348 53.445 C 74.331 54.144, 71.265 54.960, 68.532 55.260 C 61.571 56.022, 58.537 59.536, 57.587 67.938 C 56.369 78.700, 59.858 80.965, 76 79.889 C 81.225 79.541, 86.175 79.595, 87 80.008 C 87.825 80.422, 90.975 80.594, 94 80.389 C 101.247 79.899, 100.078 79.883, 111.781 80.622 C 117.436 80.979, 121.792 81.542, 121.460 81.873 C 120.917 82.417, 104.655 84.158, 101 84.063 C 97.581 83.975, 59.899 83.972, 52.596 84.059 C 45.303 84.146, 44.472 84.374, 41.846 87 C 39.196 89.650, 39 90.392, 39 97.788 C 39 104.184, 39.385 106.219, 40.976 108.242 C 45.343 113.794, 50.241 111.548, 51.457 103.436 C 52.422 97.005, 54.646 95.797, 64 96.627 C 68.125 96.993, 71.831 97.789, 72.235 98.396 C 72.745 99.163, 72.974 99.118, 72.985 98.250 C 72.993 97.563, 73.675 97, 74.500 97 C 75.325 97, 76 97.675, 76 98.500 C 76 99.333, 75.111 100, 74 100 C 72.900 100, 72 100.460, 72 101.021 C 72 101.583, 70.965 102.515, 69.700 103.091 C 66.898 104.368, 66.120 110.025, 68.478 111.982 C 69.315 112.677, 70 114.052, 70 115.039 C 70 116.026, 70.563 117.055, 71.250 117.325 C 71.938 117.595, 70.250 117.771, 67.500 117.715 C 61.559 117.594, 56.500 119.751, 56.500 122.404 C 56.500 124.635, 57.974 125.561, 64 127.120 C 68.255 128.221, 68.355 128.325, 65.843 129.031 C 61.580 130.229, 57.048 133.273, 56.376 135.390 C 55.383 138.518, 58.361 139.922, 64.841 139.382 C 73.336 138.673, 73.333 138.673, 75.750 138.842 C 76.987 138.929, 78 139.607, 78 140.348 C 78 141.873, 73.112 144.157, 65 146.422 C 61.975 147.267, 58.023 148.870, 56.218 149.984 C 53.464 151.684, 53.100 152.318, 53.959 153.924 C 56.031 157.795, 70.929 158.530, 78.006 155.111 C 84.117 152.159, 87.548 152.347, 89.662 155.750 C 95.256 164.759, 99.469 165.378, 108.250 158.485 L 114 153.971 114.152 146.735 C 114.236 142.756, 114.414 139.050, 114.547 138.500 C 116.360 131.013, 119.358 130.929, 123.392 138.251 C 127.380 145.491, 129.629 147.761, 136 150.976 C 142.552 154.283, 146.836 155.330, 150.274 154.467 C 152.293 153.961, 152.747 153.298, 152.516 151.194 C 152.357 149.744, 151.243 147.869, 150.042 147.028 C 145.310 143.717, 137.386 136.494, 135.285 133.576 C 134.067 131.884, 132.633 129.987, 132.098 129.359 C 131.431 128.577, 132.047 127.398, 134.063 125.602 C 138.551 121.603, 137.938 119.628, 131.468 117.245 C 127.069 115.624, 125.682 115.461, 124.697 116.446 C 122.167 118.976, 118.765 120.119, 113.209 120.307 C 106.118 120.547, 101.365 118.691, 100.744 115.439 C 100.350 113.381, 100.755 112.949, 103.573 112.420 C 105.382 112.081, 111.801 112.096, 117.838 112.453 C 128.261 113.069, 128.890 112.995, 130.297 110.986 C 132.254 108.193, 131.349 105.120, 127.578 101.749 C 124.998 99.443, 124.743 98.839, 126 98.014 C 128.740 96.217, 137.616 96.841, 141.443 99.099 C 143.399 100.253, 145 101.603, 145 102.099 C 145 103.863, 149.038 107, 151.309 107 C 154.417 107, 157.093 104.902, 157.073 102.481 C 156.968 89.712, 157.081 90.246, 153.904 87.572 C 151.383 85.451, 149.821 85, 145 85 C 137.610 85, 129 83.054, 129 81.385 C 129 80.685, 130.312 79.338, 131.915 78.391 C 135.944 76.011, 137.114 73.054, 135.895 68.331 C 135.351 66.224, 134.399 63.485, 133.781 62.244 C 132.564 59.805, 125.129 55, 122.572 55 C 121.707 55, 121 54.534, 121 53.965 C 121 53.254, 120.390 53.256, 119.052 53.972 C 117.013 55.063, 100.643 54.765, 89 53.425 L 82.500 52.676 89 51.314 C 92.575 50.565, 97.525 50.201, 100 50.505 C 109.432 51.665, 122.252 51.854, 124.822 50.871 C 126.295 50.308, 133.044 49.271, 139.821 48.567 C 153.364 47.160, 155.731 46.048, 154.618 41.614 C 153.496 37.144, 151.159 36.706, 129.420 36.892 C 116.132 37.005, 108.383 36.676, 106.742 35.929 C 105.372 35.304, 102.597 32.815, 100.576 30.397 C 96.374 25.370, 93.083 24.696, 90.096 28.250 M 81.667 67.667 C 80.326 69.007, 81.050 71, 82.878 71 C 84.964 71, 87.352 68.685, 86.325 67.658 C 85.471 66.804, 82.524 66.810, 81.667 67.667 M 99 68 C 99 68.550, 99.675 69, 100.500 69 C 101.325 69, 102 68.550, 102 68 C 102 67.450, 101.325 67, 100.500 67 C 99.675 67, 99 67.450, 99 68 M 85 97.943 C 85 98.461, 84.130 98.718, 83.067 98.513 C 81.663 98.243, 81.175 98.668, 81.280 100.070 C 81.402 101.691, 82.201 102, 86.272 102 C 89.248 102, 90.880 101.614, 90.500 101 C 90.160 100.450, 90.359 100, 90.941 100 C 91.523 100, 92 99.625, 92 99.167 C 92 97.597, 89 98.331, 88.937 99.917 C 88.896 100.932, 88.549 100.693, 87.969 99.250 C 87.076 97.028, 85 96.114, 85 97.943 M 99 99.167 C 99 99.625, 99.675 100, 100.500 100 C 101.325 100, 102 99.625, 102 99.167 C 102 98.708, 101.325 98.333, 100.500 98.333 C 99.675 98.333, 99 98.708, 99 99.167 M 98.269 101.693 C 99.242 101.947, 100.592 101.930, 101.269 101.656 C 101.946 101.382, 101.150 101.175, 99.500 101.195 C 97.850 101.215, 97.296 101.439, 98.269 101.693 M 88.694 127.639 C 87.651 128.682, 88.972 130, 91.059 130 C 93.395 130, 93.627 128.455, 91.418 127.607 C 89.466 126.858, 89.476 126.858, 88.694 127.639 M 95.308 142.194 C 92.941 143.339, 91.653 145.629, 92.556 147.090 C 93.193 148.121, 98.034 148.308, 100.418 147.393 C 102.614 146.550, 102.399 143.284, 100.066 142.035 C 97.830 140.839, 98.135 140.828, 95.308 142.194" stroke="none" fill="black" fill-rule="evenodd"/>
</svg>