<svg xmlns="http://www.w3.org/2000/svg" width="256" height="256" viewBox="0 0 256 256" version="1.1">
	<path d="M 76.866 28.467 C 76.609 28.724, 71.021 29.424, 64.449 30.022 C 42.575 32.013, 41.790 32.590, 40.863 47.353 C 40.379 55.067, 39.584 59.031, 37.550 63.886 C 32.462 76.027, 33.235 83.162, 39.469 81.597 C 43.168 80.669, 48.769 75.326, 49.492 72.037 C 50.728 66.410, 57.367 62.024, 64.679 62.006 C 67.365 61.999, 70 64.497, 70 67.051 C 70 69.408, 72.969 77, 73.890 77 C 74.261 77, 74.653 78.084, 74.763 79.409 C 74.997 82.238, 71.168 84, 64.785 84 C 60.867 84, 57.084 85.403, 55.837 87.318 C 55.181 88.325, 54.568 107.406, 54.918 115.896 C 55.018 118.314, 55.717 121.486, 56.472 122.945 C 57.226 124.404, 58.135 127.601, 58.492 130.049 C 58.849 132.497, 59.768 135.472, 60.534 136.660 C 61.301 137.848, 62.140 139.989, 62.399 141.418 C 62.960 144.511, 60.653 145.984, 51.505 148.372 C 42.752 150.658, 39.530 155.972, 43.993 160.762 C 45.736 162.633, 46.393 162.764, 49.243 161.805 C 51.034 161.203, 52.950 160.367, 53.500 159.948 C 54.050 159.530, 56.750 158.870, 59.500 158.483 C 69.073 157.134, 75.779 152.714, 79.123 145.550 C 79.880 143.928, 82.002 141.726, 83.837 140.658 C 87.151 138.728, 87.265 138.729, 100.337 140.850 C 113.190 142.936, 113.568 143.070, 116.384 146.539 C 118.388 149.008, 122.505 151.636, 129.884 155.158 C 148.611 164.096, 152.571 164.663, 155.582 158.841 C 156.988 156.122, 156.981 155.620, 155.501 153.361 C 153.571 150.415, 146.637 147.244, 139.046 145.835 C 132.827 144.681, 130.608 142.620, 132.241 139.514 C 132.823 138.406, 133.693 137.242, 134.173 136.927 C 134.654 136.611, 135.288 135.261, 135.582 133.927 C 135.876 132.592, 136.242 131.050, 136.395 130.500 C 137.335 127.120, 138.025 118.503, 138.485 104.391 C 138.989 88.934, 138.922 88.171, 136.826 85.506 L 134.641 82.729 124.409 83.390 C 116.005 83.934, 113.561 83.758, 110.732 82.409 L 107.288 80.767 111.273 73.883 C 114.468 68.366, 115.739 67, 117.679 67 C 121.369 67, 125.393 69.488, 128.078 73.430 C 130.185 76.524, 131.030 76.987, 134.576 76.993 C 139.524 77.001, 142.515 74.248, 143.530 68.750 C 144.170 65.286, 145.291 64.384, 148.314 64.903 C 151.031 65.369, 156.798 62.738, 157.780 60.584 C 160.229 55.209, 151.115 50.950, 140.196 52.366 C 135.113 53.025, 117.512 49.912, 115.619 48.019 C 113.683 46.083, 116.355 43.523, 120.601 43.245 C 132.489 42.466, 144.264 40.852, 146.008 39.763 C 148.992 37.900, 148.481 34.716, 144.856 32.574 C 142.107 30.950, 140.380 30.798, 131.106 31.364 C 125.273 31.719, 116.921 32.634, 112.547 33.396 C 101.948 35.243, 100.657 36.745, 101.583 46.147 C 102.107 51.460, 101.915 53.481, 100.714 55.314 C 99.273 57.513, 96 58.611, 96 56.896 C 96 56.472, 93.172 54.733, 89.715 53.031 C 84.398 50.414, 82.434 49.971, 76.965 50.155 C 63.358 50.614, 54.878 48.366, 56.295 44.675 C 56.933 43.011, 68.482 41, 77.396 41 C 87.994 41, 91.204 38.294, 87.434 32.540 C 85.493 29.578, 78.464 26.869, 76.866 28.467 M 85.912 70.140 C 84.585 71.701, 82.487 74.087, 81.250 75.443 C 80.013 76.799, 79 78.307, 79 78.794 C 79 81.623, 94.090 84.034, 99.019 81.992 C 102.633 80.495, 102.768 79.070, 99.580 76.076 C 98.250 74.825, 96.620 72.497, 95.959 70.901 C 94.653 67.748, 94.694 67.776, 90.912 67.495 C 89.150 67.364, 87.553 68.209, 85.912 70.140 M 69.180 95.250 C 69.456 97.189, 70.053 97.477, 73.500 97.335 C 84.842 96.867, 86 96.632, 86 94.797 C 86 93.547, 85.239 93, 83.500 93 C 82.125 93, 80.993 93.563, 80.985 94.250 C 80.973 95.165, 80.738 95.135, 80.106 94.137 C 79.377 92.986, 79.158 92.986, 78.700 94.137 C 78.315 95.105, 78.135 95.138, 78.079 94.250 C 78.028 93.444, 76.377 93, 73.430 93 C 69.264 93, 68.889 93.198, 69.180 95.250 M 98.306 93.644 C 97.650 93.911, 97.346 94.738, 97.632 95.483 C 98.015 96.483, 100.654 96.856, 107.729 96.913 C 116.727 96.985, 120 96.176, 120 93.878 C 120 92.978, 100.459 92.768, 98.306 93.644 M 69.129 108.345 C 67.315 110.531, 70.258 112.379, 74.241 111.556 C 78.997 110.573, 81.086 110.553, 85 111.455 C 91.496 112.953, 120.059 113.306, 122.647 111.922 C 129.122 108.456, 121.439 107.001, 100.500 107.728 C 75.946 108.579, 74.716 108.579, 72.391 107.727 C 71.006 107.220, 69.886 107.432, 69.129 108.345 M 69.194 124.266 C 66.554 127.448, 70.126 128.171, 88.706 128.214 C 98.493 128.237, 108.075 128.158, 110 128.038 C 111.925 127.918, 115.351 128.121, 117.613 128.488 C 121.150 129.061, 121.797 128.884, 122.232 127.222 C 122.712 125.384, 121.872 125.256, 105.119 124.602 C 95.428 124.224, 83.655 123.664, 78.956 123.356 C 72.160 122.912, 70.164 123.098, 69.194 124.266" stroke="none" fill="black" fill-rule="evenodd"/>
</svg>