<svg xmlns="http://www.w3.org/2000/svg" width="256" height="256" viewBox="0 0 256 256" version="1.1">
	<path d="M 61.364 30.457 C 59.981 31.426, 59.067 33.498, 58.637 36.634 C 57.774 42.931, 55.759 45, 50.493 45 C 43.016 45, 36.603 51.407, 39.992 55.491 C 41.749 57.607, 46.778 58.335, 50.111 56.954 C 54.673 55.065, 58 56.943, 58 61.407 C 58 64.778, 56.037 67.843, 53.679 68.157 C 53.030 68.243, 51.281 68.400, 49.791 68.507 C 47.147 68.696, 39.030 70.907, 32 73.353 C 27.779 74.822, 26.779 78.585, 29.868 81.381 C 31.900 83.219, 35.758 83.230, 53.665 81.445 C 59.059 80.908, 60.092 81.092, 61.915 82.915 C 63.062 84.062, 64 85.900, 64 87 C 64 88.100, 64.450 89, 65 89 C 66.547 89, 66.214 91.810, 63.455 102.053 C 62.055 107.249, 60.790 111.950, 60.644 112.500 C 59.376 117.265, 58.742 118, 55.901 118 C 53.219 118, 52.940 117.691, 52.961 114.750 C 53.104 94.652, 53.367 96.445, 49.792 93.094 C 45.843 89.393, 45.262 89.342, 40.898 92.312 L 37.500 94.624 37.764 102.062 C 37.909 106.153, 38.531 111.416, 39.146 113.758 C 40.098 117.381, 39.954 118.947, 38.184 124.258 C 32.194 142.234, 30.507 154.364, 33.571 157.429 C 38.578 162.436, 45 155.545, 45 145.165 C 45 141.431, 45.598 139.708, 47.818 137.050 L 50.635 133.675 56.818 135.527 C 60.218 136.545, 63 137.743, 63 138.189 C 63 138.635, 63.747 139, 64.661 139 C 65.574 139, 67.487 140.266, 68.911 141.814 C 72.649 145.877, 76.897 147.508, 91.316 150.415 C 102.959 152.763, 106.311 153, 127.931 153 C 150.494 153, 151.867 152.892, 154.365 150.927 C 157.520 148.446, 157.764 145.001, 154.965 142.468 C 153.397 141.049, 150.933 140.547, 144.215 140.277 C 139.422 140.084, 132.800 139.512, 129.500 139.005 C 126.200 138.498, 119.675 138.003, 115 137.904 C 98.977 137.568, 83.413 134.084, 79.451 129.948 C 77.897 128.327, 77.005 127, 77.468 127 C 77.931 127, 77.607 126.212, 76.747 125.250 C 75.887 124.287, 74.879 121.022, 74.507 117.993 C 73.924 113.250, 74.130 112.105, 75.988 109.743 C 77.972 107.220, 78.705 107, 85.138 107 C 91.869 107, 95.680 105.929, 97.235 103.600 C 98.575 101.593, 98.027 98.406, 95.961 96.189 C 94.262 94.365, 92.803 93.995, 87.211 93.968 C 83.045 93.948, 79.798 93.405, 78.649 92.534 C 76.203 90.681, 75.491 85.069, 77.376 82.500 C 78.667 80.740, 79.808 80.534, 86.884 80.787 C 93.869 81.037, 95.193 80.807, 96.963 79.037 C 99.500 76.500, 99.505 75.341, 96.996 71.225 C 94.159 66.572, 90.930 65.590, 82.813 66.910 C 75.175 68.153, 71.568 67.280, 70.705 63.980 C 69.493 59.346, 72.981 57, 81.079 57 C 89.887 57, 95.210 53.548, 94.238 48.465 C 93.250 43.294, 90.093 42.241, 79.421 43.520 C 73.564 44.223, 73.260 44.147, 71.132 41.440 C 69.500 39.365, 69.088 37.878, 69.555 35.748 C 70 33.724, 69.668 32.290, 68.439 30.933 C 66.351 28.626, 64.187 28.480, 61.364 30.457 M 110.030 34.630 C 105.717 36.443, 105.099 39.781, 105.060 61.500 C 105.040 72.500, 105.003 85.492, 104.977 90.372 C 104.923 100.316, 106.835 108.471, 110.574 114.250 C 111.908 116.313, 114.115 119.697, 115.477 121.771 C 119.269 127.543, 122.906 129.189, 133.159 129.773 C 142.969 130.333, 153.664 128.199, 156.286 125.158 C 160.731 120.006, 159.933 100, 155.283 100 C 152.671 100, 148.171 103.946, 147.548 106.783 C 147.215 108.299, 145.936 110.801, 144.707 112.343 C 142.814 114.716, 141.514 115.234, 136.242 115.712 C 128.637 116.401, 121.565 114.143, 120.574 110.708 C 119.513 107.029, 117.036 91.689, 117.017 88.679 C 117.008 87.127, 117.675 85.182, 118.500 84.358 C 120.056 82.801, 120.831 82.737, 135.137 82.987 C 144.312 83.148, 151.033 81.870, 152.910 79.608 C 155.601 76.366, 157.226 67.148, 157.557 53.246 C 157.883 39.539, 157.807 38.887, 155.580 36.298 L 153.263 33.605 132.991 33.552 C 120.058 33.519, 111.745 33.909, 110.030 34.630 M 130.500 46.658 C 121.347 47.471, 120.225 47.915, 119.088 51.178 C 117.500 55.733, 117.708 67.220, 119.422 69.559 C 120.663 71.254, 122.061 71.494, 130.444 71.450 C 142.826 71.385, 144.199 70.316, 144.126 60.800 C 144.033 48.624, 141.220 45.705, 130.500 46.658" stroke="none" fill="black" fill-rule="evenodd"/>
</svg>