<svg xmlns="http://www.w3.org/2000/svg" width="256" height="256" viewBox="0 0 256 256" version="1.1">
	<path d="M 116.529 31.804 C 116.221 32.112, 103.383 32.267, 87.999 32.149 C 64.580 31.969, 59.548 32.182, 57.078 33.460 C 55.455 34.299, 53.810 35.499, 53.422 36.126 C 53.034 36.754, 52.583 43.394, 52.419 50.883 C 52.199 60.949, 52.509 65.655, 53.609 68.928 C 56.884 78.672, 59.992 81.393, 65.964 79.744 C 69.309 78.821, 72.348 79.004, 83.896 80.827 C 91.186 81.978, 92 83.338, 92 94.359 C 92 99.297, 92.493 106.169, 93.096 109.632 C 94.325 116.690, 92.847 129.052, 90.546 130.962 C 88.657 132.529, 86.280 131.242, 85.167 128.049 C 83.730 123.927, 80.373 121.284, 75.671 120.572 C 69.149 119.586, 68.671 118.983, 68.881 111.997 C 68.983 108.588, 69.147 105.507, 69.245 105.150 C 69.342 104.792, 69.118 103.057, 68.745 101.293 C 67.908 97.335, 62.933 94.171, 61.072 96.413 C 60.087 97.600, 57.954 105.571, 56.297 114.258 C 56.008 115.774, 54.480 118.024, 52.902 119.258 C 51.324 120.491, 48.759 122.478, 47.202 123.672 C 45.645 124.867, 43.850 127.567, 43.213 129.672 C 40.630 138.204, 38.868 147.730, 39.175 151.503 C 39.443 154.798, 39.905 155.557, 41.805 155.827 C 44.928 156.269, 46.434 154.819, 51.044 146.925 C 55.863 138.673, 61.616 133.800, 66.539 133.800 C 69.265 133.800, 71.411 134.925, 76.264 138.900 C 81.462 143.157, 83.157 144, 86.515 144 C 89.715 144, 91.748 144.904, 96.437 148.411 C 99.680 150.837, 103.496 153.055, 104.917 153.340 C 106.338 153.626, 110.200 154.559, 113.500 155.414 C 122.020 157.622, 143.780 157.500, 150.498 155.206 C 157.067 152.964, 159.247 149.146, 156.249 145.135 L 154.279 142.500 134.890 142.465 C 118.829 142.437, 114.972 142.148, 112.427 140.781 C 107.293 138.025, 106.612 136.481, 106.197 126.647 C 105.817 117.654, 105.859 117.457, 108.655 114.917 C 111.190 112.614, 112.806 112.215, 123.500 111.248 C 130.100 110.651, 136.957 110.401, 138.737 110.693 C 144.319 111.607, 146.832 110.411, 147.568 106.488 C 148.023 104.064, 147.738 102.249, 146.640 100.573 C 145.017 98.097, 143.989 97.916, 125.500 96.843 C 123.850 96.747, 119.304 97.027, 115.398 97.464 C 108.636 98.222, 108.216 98.147, 106.648 95.907 C 105.741 94.614, 105 91.637, 105 89.292 C 105 85.472, 105.390 84.771, 108.750 82.553 C 113.227 79.598, 122.435 77.335, 133.825 76.390 C 140.763 75.815, 142.370 75.350, 143.466 73.600 C 144.229 72.383, 145.067 66.582, 145.460 59.801 C 145.833 53.366, 146.345 46.436, 146.597 44.401 C 147.202 39.526, 145.489 34.577, 142.724 33.211 C 140.397 32.061, 117.502 30.832, 116.529 31.804 M 89.783 44.960 C 72.875 45.401, 68.781 45.786, 67.512 47.057 C 65.315 49.258, 63.838 59.238, 65.152 63.007 C 66.395 66.571, 67.170 66.787, 81 67.434 C 86.775 67.704, 93.668 68.215, 96.318 68.569 C 100.221 69.090, 102.215 68.735, 106.818 66.700 C 110.506 65.070, 115.375 63.945, 120.694 63.495 C 131.642 62.569, 132.500 61.842, 132.500 53.500 C 132.500 42.967, 136.395 43.745, 89.783 44.960" stroke="none" fill="black" fill-rule="evenodd"/>
</svg>