<svg xmlns="http://www.w3.org/2000/svg" width="256" height="256" viewBox="0 0 256 256" version="1.1">
	<path d="M 42.018 31.820 C 37.711 33.277, 36.219 38.195, 38.459 43.555 C 39.341 45.667, 39.792 48.093, 39.460 48.947 C 39.129 49.801, 38.479 52.511, 38.017 54.970 C 36.831 61.273, 38.821 65, 43.371 65 C 48.421 65, 50.275 62.234, 50.939 53.714 L 51.500 46.502 55.500 45.159 C 58.355 44.201, 61.503 44.036, 66.500 44.582 C 70.350 45.003, 76.815 45.404, 80.867 45.473 C 88.919 45.610, 91.653 47.329, 90.370 51.448 C 89.408 54.535, 88.161 54.954, 80.164 54.880 C 73.862 54.822, 72.489 55.132, 70.414 57.080 C 64.436 62.697, 69.553 68.989, 80.104 68.996 C 84.613 68.999, 86.208 69.464, 88.270 71.374 L 90.832 73.748 87.956 75.874 C 85.983 77.333, 83.579 78.007, 80.290 78.024 C 77.656 78.037, 71.779 78.866, 67.231 79.867 C 58.299 81.832, 54.559 84.298, 53.701 88.786 C 53.144 91.695, 54.370 100.438, 56.567 109.235 C 57.355 112.389, 58 115.846, 58 116.917 C 58 119.383, 62.997 123, 66.404 123 C 67.832 123, 69.900 123.900, 71 125 C 72.100 126.100, 73 126.550, 73 126 C 73 125.450, 74.688 124.990, 76.750 124.978 C 78.924 124.965, 81.551 124.133, 83 123 C 86.610 120.177, 90.411 120.412, 91.839 123.547 C 94.312 128.973, 92.704 133.248, 87.759 134.397 C 85.575 134.904, 84.375 134.420, 81.860 132.017 C 77.445 127.797, 70.253 127.468, 62.238 131.119 C 58.147 132.983, 57.057 133.086, 52.078 132.077 C 46.871 131.022, 46.384 131.089, 44.750 133.084 C 43.681 134.390, 43 136.909, 43 139.561 C 43 145.187, 44.921 146.415, 50.333 144.250 C 53.562 142.958, 55.053 142.886, 58.873 143.837 C 68.345 146.195, 74.782 146.383, 81.052 144.484 C 85.803 143.046, 87.514 142.913, 89.523 143.829 C 92.353 145.118, 93.993 148.583, 94.014 153.315 C 94.044 160.502, 96.837 163.773, 101.444 162.021 C 103.390 161.281, 104.354 159.709, 105.727 155.031 C 107.209 149.985, 108.034 148.741, 110.755 147.448 C 115.206 145.333, 127.842 144.034, 137.500 144.699 C 143.518 145.113, 146.429 144.860, 149.250 143.676 C 152.680 142.236, 153 141.767, 153 138.173 C 153 133.580, 152.068 132.656, 146 131.235 C 142.683 130.458, 139.923 130.510, 135.500 131.434 C 132.091 132.146, 128.321 132.355, 126.770 131.919 C 125.269 131.497, 120.769 131.384, 116.770 131.668 C 111.459 132.046, 109.008 131.812, 107.672 130.799 C 105.907 129.461, 105.911 129.331, 107.792 127.009 C 109.697 124.656, 109.896 124.629, 117.057 125.737 C 121.082 126.360, 125.078 126.499, 125.937 126.047 C 126.797 125.594, 130.053 124.699, 133.173 124.057 C 136.293 123.415, 139.391 122.233, 140.058 121.431 C 140.779 120.561, 141.421 115.631, 141.645 109.235 C 141.851 103.331, 142.527 97.247, 143.145 95.716 C 144.694 91.885, 143.554 83.135, 141.283 81.429 C 138.878 79.621, 130.068 77.830, 124.792 78.077 C 112.840 78.636, 109.129 78.228, 106.013 76.009 L 102.896 73.790 106.198 71.312 C 109.077 69.152, 110.141 68.921, 114.500 69.506 C 121.869 70.495, 123.024 70.326, 125.630 67.878 C 128.657 65.034, 128.620 63.148, 125.470 59.751 C 122.666 56.727, 121.400 56.339, 112.042 55.637 C 107.424 55.290, 105.216 54.649, 104.292 53.385 C 102.563 51.020, 102.651 50.349, 105 48 C 106.783 46.217, 108.329 46.001, 119.250 46.006 C 125.987 46.009, 133.169 46.475, 135.208 47.041 C 138.642 47.995, 139.038 48.504, 140.561 53.932 C 142.682 61.491, 147.099 67, 151.038 67 C 156.400 67, 156.765 64.229, 154.182 43.122 C 153.351 36.330, 151.034 33.170, 146.639 32.838 C 136.694 32.087, 43.899 31.184, 42.018 31.820 M 112.856 88.762 C 109.936 89.039, 109.121 89.584, 108.754 91.508 C 108.381 93.460, 108.854 94.102, 111.297 94.954 C 115.464 96.406, 122.260 96.262, 124.431 94.674 C 126.624 93.071, 125.758 89.061, 123.183 88.886 C 122.257 88.823, 120.375 88.692, 119 88.594 C 117.625 88.496, 114.860 88.572, 112.856 88.762 M 67.482 91.056 C 67.102 92.254, 67.498 94.111, 68.440 95.549 C 70.343 98.452, 69.715 98.369, 75.124 96.439 C 77.810 95.481, 81.045 95.094, 83.500 95.437 C 89.097 96.219, 90.851 94.948, 88.702 91.668 C 87.150 89.300, 86.553 89.161, 77.596 89.089 C 68.909 89.020, 68.077 89.181, 67.482 91.056 M 83.250 106.220 C 80.238 107.673, 80.413 110.095, 83.750 113.113 C 89.578 118.383, 89.803 118.459, 91.961 115.868 C 97.318 109.436, 91.028 102.470, 83.250 106.220 M 69.180 109.226 C 69.514 111.550, 71.327 111.894, 75.773 110.478 C 77.908 109.799, 77.938 109.672, 76.273 108.409 C 75.298 107.669, 73.231 107.049, 71.680 107.032 C 69.329 107.005, 68.914 107.370, 69.180 109.226 M 109.358 108.386 C 107.433 109.456, 107.362 109.774, 108.658 111.538 C 109.893 113.219, 111.180 113.474, 117.639 113.319 C 123.606 113.177, 125.452 112.764, 126.494 111.339 C 127.659 109.746, 127.464 109.394, 124.790 108.270 C 121.078 106.709, 112.257 106.776, 109.358 108.386" stroke="none" fill="black" fill-rule="evenodd"/>
</svg>