<svg xmlns="http://www.w3.org/2000/svg" width="256" height="256" viewBox="0 0 256 256" version="1.1">
	<path d="M 59.535 30.350 C 58.386 31.191, 57.598 33.174, 57.449 35.600 C 57.317 37.745, 57.162 40.272, 57.104 41.215 C 56.952 43.723, 53.567 45.145, 46.651 45.605 C 37.281 46.228, 33 48.244, 33 52.033 C 33 55.267, 35.976 56.497, 43.939 56.558 C 52.348 56.621, 54 57.190, 54 60.024 C 54 62.429, 51.122 64, 46.715 64 C 37.779 64, 32.388 69.208, 32.743 77.500 C 32.860 80.250, 32.990 85.590, 33.031 89.366 C 33.081 93.945, 33.653 97.067, 34.749 98.740 C 35.653 100.119, 36.295 102.694, 36.176 104.463 C 36.040 106.475, 36.742 108.674, 38.052 110.339 C 39.914 112.706, 40.827 113, 46.323 113.004 C 50.716 113.006, 53.439 113.580, 55.750 114.989 C 59.526 117.291, 59.834 119.145, 56.896 121.882 C 55.182 123.479, 53.357 123.842, 47.053 123.842 C 38.802 123.842, 32.419 125.744, 31.354 128.519 C 30.445 130.887, 32.601 134.861, 35.516 136.189 C 37.448 137.069, 39.869 137.068, 45.559 136.183 C 51.439 135.269, 53.535 135.286, 55.278 136.259 C 58.621 138.126, 59.077 139.148, 58.417 143.286 C 57.546 148.735, 58.921 158.705, 60.850 160.925 C 66.843 167.828, 71.872 161.552, 72.068 146.926 C 72.204 136.774, 72.009 137, 80.644 137 C 87.680 137, 88.346 136.808, 91.200 133.954 C 93.773 131.381, 94.159 130.368, 93.685 127.443 C 92.966 123.013, 90.602 120.605, 87.712 121.358 C 77.248 124.086, 75.050 124.344, 72.427 123.149 C 70.950 122.476, 70.003 121.663, 70.323 121.344 C 70.643 121.024, 70.270 120.127, 69.495 119.352 C 67.358 117.215, 68.701 115.280, 73.627 113.399 C 77.573 111.891, 78.714 111.852, 83.701 113.048 C 89.181 114.363, 89.365 114.338, 90.912 112.073 C 91.785 110.795, 93.184 107.218, 94.020 104.124 C 95.417 98.953, 95.739 98.540, 98.020 98.996 C 101.619 99.715, 112.817 99.452, 117.729 98.534 C 121.017 97.918, 122.540 98.124, 124.572 99.455 C 127.077 101.096, 127.161 101.448, 126.583 107.834 C 125.437 120.507, 124.510 136.525, 124.536 143.218 C 124.565 150.753, 126.635 154.763, 131.368 156.449 C 136.759 158.369, 137.065 156.981, 137.327 129.419 C 137.457 115.714, 137.915 103.934, 138.345 103.243 C 139.876 100.781, 144.601 99.285, 151.500 99.078 C 159.502 98.838, 163 97.148, 163 93.522 C 163 90.763, 158.771 86.037, 156.205 85.927 C 155.267 85.887, 151.208 85.917, 147.183 85.994 C 142.795 86.078, 139.293 85.658, 138.433 84.945 C 137.303 84.006, 137 80.511, 137 68.392 L 137 53.028 140.750 50.627 C 142.813 49.307, 146.721 47.948, 149.435 47.607 C 158.653 46.450, 161.938 41.456, 156.365 37.073 C 153.550 34.859, 148.653 34.559, 136.500 35.859 C 132.284 36.309, 128.567 35.997, 124 34.808 C 120.425 33.877, 114.867 33.089, 111.650 33.058 C 106.029 33.002, 105.621 33.176, 101.235 37.500 C 98.724 39.975, 96.407 41.989, 96.085 41.976 C 95.763 41.963, 93.700 41.511, 91.500 40.972 C 88.441 40.222, 85.894 40.396, 80.674 41.708 C 74.564 43.245, 73.567 43.268, 71.174 41.931 C 69.004 40.718, 68.440 39.598, 68.181 35.988 C 68.006 33.541, 67.388 30.968, 66.809 30.270 C 65.432 28.610, 61.861 28.650, 59.535 30.350 M 93.500 51 C 88.911 54.972, 88.820 55, 80.608 55 C 72.784 55, 72.265 55.137, 70.984 57.530 C 69.820 59.705, 69.848 60.276, 71.184 61.613 C 72.461 62.890, 73.429 62.974, 76.619 62.089 C 82.909 60.342, 86.553 60.753, 89.923 63.589 C 92.973 66.155, 93 66.264, 93 75.966 C 93 88.310, 93.436 88.818, 102.580 87.133 C 106.144 86.477, 111.185 86.220, 113.780 86.563 C 117.727 87.085, 118.963 86.823, 121.324 84.963 C 124.145 82.741, 124.148 82.728, 123.491 73.969 C 123.002 67.447, 123.239 63.615, 124.417 59.019 C 126.410 51.240, 126.424 51.473, 123.811 49.039 C 121.866 47.227, 120.315 47, 109.872 47 L 98.122 47 93.500 51 M 48.655 76.829 C 47.745 77.835, 47 79.550, 47 80.640 C 47 83.270, 50.569 87, 53.084 87 C 55.622 87, 60 82.695, 60 80.200 C 60 75.557, 51.966 73.170, 48.655 76.829 M 70.278 76.250 C 67.981 79.220, 68.050 80.070, 70.819 82.968 C 73.969 86.265, 77.430 86.927, 78.393 84.418 C 79.393 81.811, 79.081 77.481, 77.800 76.200 C 76.228 74.628, 71.508 74.659, 70.278 76.250 M 71.451 93.287 C 66.958 98.139, 66.675 98.818, 68.419 100.562 C 70.765 102.908, 78.886 103.028, 80.363 100.739 C 81.258 99.352, 81.075 98.183, 79.500 95.239 C 77.145 90.836, 74.349 90.158, 71.451 93.287 M 49.632 96.050 C 46.300 99.414, 46.630 101.240, 50.978 103.488 C 53.584 104.836, 54.477 104.881, 56.779 103.781 C 60.605 101.953, 60.706 98.960, 57.052 95.704 C 55.383 94.217, 53.676 93.035, 53.259 93.078 C 52.841 93.121, 51.210 94.458, 49.632 96.050" stroke="none" fill="black" fill-rule="evenodd"/>
</svg>