<svg xmlns="http://www.w3.org/2000/svg" width="256" height="256" viewBox="0 0 256 256" version="1.1">
	<path d="M 137.448 30.723 C 136.869 31.150, 135.618 33.171, 134.668 35.214 C 132.356 40.183, 129.484 42, 123.939 42 C 118.813 42, 113.524 38.745, 110.533 33.750 C 108.110 29.702, 103.356 29.927, 99.904 34.253 C 98.161 36.438, 95 38.408, 90.276 40.253 C 86.408 41.764, 82.673 43, 81.975 43 C 81.278 43, 78.543 40.975, 75.897 38.500 L 71.086 34 57.168 34 C 40.858 34, 37.313 34.547, 35.845 37.290 C 34.217 40.331, 33.954 75.717, 35.549 77.041 C 36.232 77.607, 39.291 78.478, 42.349 78.975 C 53.832 80.844, 54.524 82.135, 52.993 98.829 C 51.510 114.988, 51.309 121.002, 52.250 121.001 C 53.486 120.999, 53.067 130.308, 51.710 133 C 50.524 135.353, 46.133 137.102, 45.887 135.320 C 45.824 134.869, 45.650 129.325, 45.500 123 C 45.343 116.399, 44.519 108.808, 43.568 105.181 C 42.656 101.705, 42.165 98.056, 42.477 97.072 C 43.145 94.967, 40.958 92.790, 39.242 93.850 C 37.448 94.959, 35.869 107.765, 35.524 124 C 35.355 131.975, 34.718 139.767, 34.108 141.315 C 32.517 145.357, 32.729 151.530, 34.510 153.008 C 36.586 154.731, 43.195 153.709, 46.862 151.098 C 48.557 149.892, 50.520 149.262, 51.463 149.624 C 53.067 150.240, 61 147.298, 61 146.088 C 61 145.753, 62.143 144.247, 63.540 142.740 C 65.800 140.303, 66.790 140, 72.481 140 C 76.002 140, 79.162 139.547, 79.504 138.994 C 79.846 138.441, 80.150 136.218, 80.180 134.055 C 80.222 131.011, 79.615 129.547, 77.495 127.583 C 74.770 125.057, 68.992 123.269, 67.178 124.390 C 65.050 125.705, 63.782 121.428, 63.726 112.744 C 63.691 107.367, 65.997 105.313, 72.980 104.502 C 77.798 103.943, 78.910 103.453, 79.372 101.685 C 80.207 98.492, 77.507 95.214, 73.056 94.015 C 68.356 92.750, 65 88.879, 65 84.725 C 65 80.890, 67.411 79.072, 72.550 79.032 C 74.777 79.014, 77.140 78.460, 77.800 77.800 C 78.490 77.110, 79 73.808, 79 70.035 C 79 65.303, 79.585 62.358, 81.097 59.485 C 84.494 53.028, 84.567 52.996, 94.334 53.685 C 104.698 54.417, 106.883 55.710, 107.671 61.581 C 108.425 67.206, 106.461 69, 99.551 69 C 94.115 69, 92.770 69.785, 91.588 73.645 C 90.414 77.481, 93.401 79.204, 100.270 78.653 C 105.546 78.231, 106.540 78.449, 108.561 80.470 C 111.171 83.080, 111.177 84.363, 108.596 88.250 C 106.376 91.593, 102.352 91.907, 99 89 C 94.644 85.222, 88.137 86.843, 86.461 92.123 C 85.241 95.967, 88.889 98.236, 97.410 98.933 C 101.557 99.272, 105.380 99.988, 105.907 100.525 C 106.433 101.061, 107.007 102.850, 107.182 104.500 C 107.487 107.377, 107.090 107.707, 97.500 112.565 C 89.088 116.825, 87.451 118.041, 87.193 120.218 C 86.819 123.373, 89.834 125.781, 95.250 126.652 C 97.313 126.984, 99 127.648, 99 128.128 C 99 128.608, 99.665 129, 100.477 129 C 103.226 129, 105.004 133.623, 106.429 144.478 C 108.255 158.376, 109.120 159.403, 118.675 159.021 C 127.859 158.654, 129.309 158.648, 138 158.950 C 142.125 159.093, 146.962 159.163, 148.750 159.105 C 152.631 158.980, 156.353 155.688, 155.534 153.106 C 154.358 149.401, 154.146 133.229, 155.182 126.202 C 156.218 119.168, 156.171 118.811, 153.879 116.364 C 149.297 111.475, 140.796 109.803, 133.971 112.451 C 133.131 112.777, 131.581 112.414, 130.527 111.643 C 128.703 110.309, 128.693 110.118, 130.315 107.642 C 131.252 106.212, 133.398 104.329, 135.083 103.457 C 137.875 102.013, 138.760 102.012, 145.073 103.448 C 156.829 106.122, 163.806 103.784, 162.568 97.586 C 161.614 92.810, 158.002 89.862, 152.368 89.263 C 149.690 88.979, 146.716 88.061, 145.757 87.224 C 144.131 85.805, 144.418 85.296, 150.007 79.672 C 156.445 73.194, 157.117 71.321, 154.012 68.511 C 152.186 66.859, 151.300 66.812, 143.091 67.933 C 133.084 69.301, 132.519 69.150, 125.186 63.172 C 117.041 56.531, 116.475 51, 123.941 51 C 126.949 51, 128.832 51.868, 132.623 55 C 137.018 58.632, 137.987 59, 143.159 59 C 147.923 59, 149.153 58.621, 150.677 56.684 C 151.680 55.410, 154.717 52.808, 157.427 50.901 C 160.137 48.995, 162.540 46.880, 162.766 46.202 C 163.354 44.439, 157.976 39.738, 153.550 38.147 C 151.481 37.403, 148.598 35.489, 147.144 33.894 C 144.469 30.962, 139.379 29.296, 137.448 30.723 M 51.815 46.692 C 49.036 48.444, 45 57.185, 45 61.454 C 45 62.706, 45.933 64.916, 47.073 66.365 C 48.746 68.492, 49.986 69, 53.507 69 C 58.919 69, 62.620 67.643, 65.139 64.736 C 66.726 62.905, 66.995 61.431, 66.620 56.597 C 66.018 48.840, 63.662 45.587, 58.400 45.251 C 56.072 45.102, 53.418 45.683, 51.815 46.692 M 123.590 82.627 C 122.511 85.438, 124.892 87.089, 129.266 86.561 C 132.988 86.113, 135.768 85, 133.167 85 C 132.525 85, 131.100 84.100, 130 83 C 127.583 80.583, 124.444 80.400, 123.590 82.627 M 118.291 124.683 C 117.209 127.504, 118.886 129, 123.131 129 C 125.437 129, 129.703 129.750, 132.610 130.666 C 136.951 132.035, 138.172 132.102, 139.447 131.044 C 141.649 129.217, 141.371 126.269, 138.871 124.931 C 135.682 123.225, 118.928 123.023, 118.291 124.683 M 131 137.876 C 130.175 138.353, 127.748 139.059, 125.606 139.444 C 119.762 140.495, 117.277 143.877, 120.200 146.800 C 121.728 148.328, 128.384 148.338, 134.949 146.822 C 139.072 145.871, 140.170 145.170, 140.673 143.168 C 141.015 141.805, 140.845 139.973, 140.296 139.095 C 139.179 137.311, 133.309 136.542, 131 137.876" stroke="none" fill="black" fill-rule="evenodd"/>
</svg>