<svg xmlns="http://www.w3.org/2000/svg" width="256" height="256" viewBox="0 0 256 256" version="1.1">
	<path d="M 92.025 27.975 C 90.939 29.061, 89.777 31.198, 89.442 32.725 C 89.107 34.251, 88.670 36.036, 88.470 36.692 C 87.692 39.250, 82.604 41.298, 74.624 42.265 C 69.673 42.866, 65.359 43.975, 64.006 44.996 C 61.071 47.209, 60.185 52.951, 60.635 66.840 C 61.607 96.814, 61.412 103.441, 59.475 106.398 C 57.717 109.081, 57.339 109.198, 52.317 108.607 C 47.832 108.080, 46.707 108.293, 45.008 109.992 C 42.598 112.402, 42.460 114.784, 44.557 117.777 C 46.454 120.486, 48.157 120.555, 53.434 118.138 C 56.865 116.567, 58.984 116.371, 67 116.888 L 76.500 117.500 78.178 120.861 C 79.491 123.490, 79.619 124.742, 78.768 126.611 C 78.169 127.925, 77.301 129, 76.838 129 C 76.376 129, 74.311 130.700, 72.249 132.778 C 67.825 137.236, 56.627 144.505, 52.833 145.381 C 49.564 146.135, 45.585 152.118, 46.479 154.934 C 47.349 157.675, 50.185 158.320, 57.783 157.507 C 66.218 156.603, 67.970 155.794, 77 148.636 C 81.125 145.366, 86.075 142.039, 88 141.242 C 97.880 137.151, 101.750 134.844, 102.875 132.375 C 103.535 130.927, 103.835 129.502, 103.543 129.209 C 103.250 128.917, 104.696 127.562, 106.755 126.199 C 108.815 124.836, 111.729 122.583, 113.231 121.191 C 115.568 119.027, 116.314 118.822, 118.398 119.772 C 120.295 120.636, 121.093 122.133, 122.009 126.543 C 124.035 136.300, 121.395 144, 116.024 144 C 109.755 144, 105.408 148.169, 107.050 152.607 C 108.703 157.074, 123.863 160.630, 128.448 157.626 C 133.074 154.595, 134.173 150.868, 133.896 139.156 C 133.757 133.295, 133.093 126.925, 132.421 125 C 129.041 115.320, 128.370 109.017, 130.081 103.034 C 130.311 102.227, 132.075 100.834, 134 99.937 C 138.403 97.886, 153 81.924, 153 79.159 C 153 78.033, 151.926 75.863, 150.614 74.338 C 148.594 71.990, 147.368 71.531, 142.628 71.350 C 135.787 71.088, 134.666 70.468, 135.442 67.375 C 135.774 66.050, 135.336 62.524, 134.468 59.537 C 133.518 56.271, 133.146 52.737, 133.534 50.670 C 134.075 47.787, 133.713 46.711, 131.292 44.001 L 128.404 40.769 118.929 40.911 C 107.641 41.080, 105.521 40.118, 106.869 35.440 C 108.863 28.525, 97.294 22.706, 92.025 27.975 M 77.413 54.883 C 75.715 55.322, 73.802 56.004, 73.163 56.399 C 71.652 57.333, 71.672 60.272, 73.200 61.800 C 74.731 63.331, 81.470 63.354, 84.303 61.838 C 85.497 61.199, 89.180 60.708, 92.487 60.746 C 95.794 60.785, 101.203 60.378, 104.507 59.841 C 108.571 59.181, 111.404 59.203, 113.261 59.909 C 115.218 60.653, 116.725 60.627, 118.504 59.816 C 121.298 58.543, 121.583 57.721, 119.750 56.224 C 118.190 54.950, 81.632 53.792, 77.413 54.883 M 84.813 74.903 C 77.745 75.692, 75 77.118, 75 80 C 75 83.771, 77.577 84.388, 94.407 84.646 C 103.329 84.782, 111.950 85.135, 113.565 85.430 C 117.032 86.063, 125 83.287, 125 81.446 C 125 80.741, 125.256 79.497, 125.569 78.682 C 126.361 76.616, 120.887 74.970, 114 75.204 C 110.975 75.307, 104.675 75.114, 100 74.774 C 95.325 74.434, 88.491 74.492, 84.813 74.903 M 73.750 96.503 C 72.237 97.361, 71 98.784, 71 99.665 C 71 101.631, 74.638 104.910, 77.434 105.464 C 83.016 106.570, 96.946 106.820, 100.500 105.878 C 102.700 105.295, 107.836 104.185, 111.914 103.412 C 115.992 102.638, 119.518 101.815, 119.751 101.582 C 119.983 101.350, 119.069 100.436, 117.719 99.551 C 116.062 98.466, 111.236 97.636, 102.882 97 C 96.072 96.481, 87.350 95.806, 83.500 95.499 C 78.194 95.077, 75.834 95.320, 73.750 96.503" stroke="none" fill="black" fill-rule="evenodd"/>
</svg>