<svg xmlns="http://www.w3.org/2000/svg" width="256" height="256" viewBox="0 0 256 256" version="1.1">
	<path d="M 118.423 26.417 C 117.310 27.196, 115.351 29.873, 114.069 32.366 C 111.273 37.802, 109.214 38.472, 98.418 37.460 C 92.279 36.885, 90.147 37.081, 86.970 38.513 C 82.651 40.461, 83.877 40.886, 75 34.361 C 71.673 31.915, 71.060 31.818, 62.596 32.394 C 57.699 32.727, 50.591 33, 46.801 33 C 40.808 33, 39.587 33.322, 37.443 35.466 C 35.533 37.376, 35.002 38.901, 35.091 42.216 C 35.155 44.572, 34.723 53.025, 34.131 61 C 32.867 78.050, 32.982 78.295, 42.758 79.317 C 46.007 79.657, 49.365 80.203, 50.220 80.531 C 53.364 81.737, 53.405 89.840, 50.292 94.650 C 49.181 96.367, 49.159 96.886, 50.182 97.227 C 51.149 97.550, 51.480 101.568, 51.531 113.577 C 51.608 131.624, 51.188 134.500, 48.474 134.500 C 46.448 134.500, 46.584 135.308, 45.702 118 C 45.271 109.551, 42.846 101.999, 40.565 102.001 C 39.979 102.002, 38.313 104.139, 36.862 106.751 C 34.549 110.917, 34.136 113.097, 33.501 124.500 C 33 133.486, 32.169 139.127, 30.809 142.769 C 29.061 147.452, 28.955 149.081, 29.962 155.750 C 29.983 155.887, 31.320 156, 32.934 156 C 34.547 156, 38.112 154.604, 40.856 152.899 C 43.960 150.969, 48.615 149.269, 53.172 148.401 C 57.201 147.633, 60.649 146.554, 60.832 146.003 C 61.016 145.451, 61.767 145, 62.500 145 C 63.233 145, 64.011 144.467, 64.228 143.816 C 64.517 142.950, 65.755 143.085, 68.832 144.316 C 74.860 146.728, 76.130 146.475, 80.508 141.992 L 84.421 137.984 85.675 140.242 C 86.365 141.484, 86.945 143.671, 86.965 145.102 C 87.020 149.138, 91.078 154.444, 94.404 154.828 C 95.966 155.009, 97.729 154.671, 98.322 154.078 C 98.915 153.485, 101.590 153, 104.266 153 C 111.234 153, 117.309 149.124, 116.524 145.179 C 116.340 144.256, 116.094 143.050, 115.976 142.500 C 115.297 139.315, 116.191 137.169, 118.431 136.607 C 123.618 135.305, 128.057 139.361, 125.820 143.358 C 125.211 144.446, 125.275 145, 126.009 145 C 126.619 145, 126.895 145.360, 126.623 145.801 C 126.075 146.688, 134.788 149.546, 135.591 148.742 C 135.868 148.465, 135.480 147.622, 134.728 146.869 C 133.977 146.116, 133.109 144.532, 132.800 143.350 C 131.771 139.406, 140.849 134.934, 144.856 137.411 C 148.209 139.483, 143.270 147.915, 138.614 148.070 C 136.547 148.139, 136.544 148.160, 138.500 149 C 139.600 149.473, 139.963 149.891, 139.307 149.930 C 138.017 150.006, 138.271 152.769, 139.837 155.696 C 142.656 160.963, 149.256 163.232, 152.981 160.216 C 154.831 158.718, 155.358 157.165, 155.624 152.423 C 156.072 144.431, 157.298 139.002, 159.368 135.842 C 160.582 133.990, 161.031 131.485, 160.889 127.357 C 160.779 124.136, 161.037 119.846, 161.463 117.823 C 162.142 114.600, 161.897 113.806, 159.472 111.381 C 157.607 109.516, 156.734 107.637, 156.792 105.609 C 156.889 102.199, 155.700 101.116, 146.568 96.299 C 142.291 94.042, 141.164 93.083, 142.750 93.049 C 143.988 93.022, 145 92.622, 145 92.160 C 145 91.698, 147.588 90.731, 150.750 90.013 C 159.453 88.035, 160.929 86.822, 160.794 81.757 C 160.732 79.416, 161.007 76.578, 161.405 75.451 C 162.403 72.623, 157.865 68.229, 153.138 67.447 C 151.137 67.116, 148.195 66.430, 146.601 65.923 C 145.006 65.415, 139.944 65, 135.351 65 C 128.454 65, 127 64.729, 127 63.441 C 127 62.584, 127.450 62.160, 128 62.500 C 128.550 62.840, 129 62.641, 129 62.059 C 129 61.477, 130.125 61, 131.500 61 C 132.875 61, 134 61.477, 134 62.059 C 134 62.641, 134.450 62.840, 135 62.500 C 135.550 62.160, 136 62.269, 136 62.741 C 136 63.213, 137.125 63.600, 138.500 63.600 C 139.875 63.600, 141 63.113, 141 62.518 C 141 61.923, 143.137 60.823, 145.750 60.073 C 153.523 57.841, 154.816 55.579, 151.053 50.795 L 149.106 48.320 152.584 46.661 C 157.183 44.468, 157.972 42.205, 154.981 39.783 C 152.962 38.148, 151.200 37.913, 142.553 38.123 C 137.012 38.257, 131.757 37.947, 130.875 37.434 C 129.993 36.920, 128.482 34.925, 127.519 33 C 125.737 29.442, 122.144 25, 121.048 25 C 120.716 25, 119.535 25.637, 118.423 26.417 M 53.733 44.811 C 48.898 45.211, 47.390 47.574, 46.594 56 C 46.075 61.497, 46.278 62.881, 47.911 64.971 C 49.541 67.057, 50.589 67.409, 54.640 67.233 C 58.477 67.066, 60.037 66.425, 62.430 64.032 C 65.188 61.274, 65.403 60.550, 65.177 54.810 C 64.827 45.962, 62.666 44.073, 53.733 44.811 M 79.469 46.099 C 79.102 47.253, 79.084 50.075, 79.428 52.371 C 79.871 55.323, 79.617 57.122, 78.559 58.522 C 76.489 61.261, 76.640 64.279, 78.983 66.981 C 80.693 68.952, 81.556 69.174, 85.233 68.587 C 87.580 68.212, 92.200 67.543, 95.500 67.100 C 98.800 66.657, 102.618 65.841, 103.984 65.288 L 106.467 64.283 104.234 63.574 C 103.005 63.184, 102 62.446, 102 61.933 C 102 61.420, 101.213 60.998, 100.250 60.996 C 99.287 60.994, 97.049 60.108, 95.276 59.027 C 92.478 57.321, 92.082 56.570, 92.276 53.335 C 92.487 49.818, 92.218 49.454, 87.500 46.862 C 81.402 43.511, 80.322 43.409, 79.469 46.099 M 112 64 C 110.884 64.721, 111.461 64.973, 114.250 64.985 C 116.313 64.993, 118 64.550, 118 64 C 118 62.726, 113.971 62.726, 112 64 M 109.750 77.234 C 102.499 79.693, 110.194 81.878, 126.133 81.886 C 137.681 81.891, 141.855 80.856, 140.231 78.389 C 139.284 76.950, 113.471 75.972, 109.750 77.234 M 69.323 78.696 C 68.125 78.929, 66.558 79.828, 65.839 80.694 C 63.952 82.967, 64.252 92.840, 66.327 96.750 C 67.912 99.737, 68.446 100, 72.929 100 C 77.357 100, 78.081 100.343, 80.791 103.721 C 83.296 106.843, 84.315 107.401, 87.122 107.188 C 91.006 106.892, 92.250 105.903, 92.690 102.764 C 93.097 99.864, 97.392 96.072, 101.111 95.328 C 102.700 95.010, 104 94.518, 104 94.235 C 104 92.819, 93.851 87, 91.380 87 C 90.091 87, 88.445 83.365, 88.824 81.355 C 89.307 78.792, 77.263 77.151, 69.323 78.696 M 107.285 93.618 C 108.294 94.628, 113.986 94.831, 114.575 93.879 C 114.874 93.396, 113.216 93, 110.892 93 C 108.568 93, 106.945 93.278, 107.285 93.618 M 69.292 107.088 C 68.096 107.530, 66.446 108.929, 65.627 110.196 C 63.699 113.180, 63.017 125.292, 64.690 126.855 C 66.201 128.267, 68.671 128.341, 69.500 127 C 70.539 125.319, 76.326 125.898, 79.500 128 C 83.403 130.585, 84.063 130.526, 88.216 127.225 C 92.091 124.146, 91.879 123.601, 85.689 120.737 C 82.757 119.381, 81.419 117.882, 79.888 114.237 C 77.616 108.833, 72.998 105.717, 69.292 107.088 M 113 108.167 C 113 109.456, 113.742 110, 115.500 110 C 117.244 110, 117.976 109.471, 117.921 108.250 C 117.874 107.205, 117.639 107.003, 117.338 107.750 C 117.060 108.438, 116.083 108.964, 115.167 108.921 C 114.127 108.872, 113.970 108.652, 114.750 108.338 C 116.482 107.639, 116.319 106.333, 114.500 106.333 C 113.675 106.333, 113 107.158, 113 108.167 M 109 107.764 C 109 108.367, 107.987 109.056, 106.750 109.294 C 105.473 109.540, 106.231 109.780, 108.500 109.849 C 110.700 109.915, 112.050 109.634, 111.500 109.223 C 110.950 108.813, 110.162 108.069, 109.750 107.572 C 109.322 107.056, 109 107.138, 109 107.764 M 131 109.068 C 128.825 109.705, 128.987 109.814, 132.250 109.900 C 136.058 110.002, 137.015 109.571, 134.750 108.775 C 134.063 108.533, 132.375 108.665, 131 109.068 M 101.813 109.683 C 102.534 109.972, 103.397 109.936, 103.729 109.604 C 104.061 109.272, 103.471 109.036, 102.417 109.079 C 101.252 109.127, 101.015 109.364, 101.813 109.683 M 98.750 121.080 C 97.787 121.641, 97 122.692, 97 123.417 C 97 124.925, 103.932 124.697, 106.795 123.095 C 108.278 122.265, 108.134 122.001, 105.685 121.070 C 102.246 119.763, 101.009 119.764, 98.750 121.080 M 123.128 121.786 C 112.891 122.069, 112.779 122.098, 114.533 124.036 C 116.819 126.563, 124.513 126.751, 127.171 124.345 C 128.177 123.435, 129 123.184, 129 123.788 C 129 124.391, 129.900 124.712, 131 124.500 C 132.100 124.288, 133.007 124.651, 133.015 125.307 C 133.025 126.057, 133.304 126.128, 133.765 125.500 C 134.777 124.122, 137 123.779, 137 125 C 137 125.550, 138.125 126, 139.500 126 C 141.333 126, 142 125.467, 142 124 C 142 122.900, 141.438 121.951, 140.750 121.890 C 136.936 121.556, 132.437 121.529, 123.128 121.786 M 98.750 136.080 C 95.827 137.783, 97.213 145, 100.464 145 C 104.420 145, 106.426 138.803, 103.250 136.392 C 101.146 134.795, 100.976 134.783, 98.750 136.080" stroke="none" fill="black" fill-rule="evenodd"/>
</svg>