<svg xmlns="http://www.w3.org/2000/svg" width="256" height="256" viewBox="0 0 256 256" version="1.1">
	<path d="M 92.270 32.250 C 91.127 33.487, 89.509 36.158, 88.675 38.183 C 87.840 40.209, 84.877 44.842, 82.089 48.479 C 75.203 57.464, 74.687 58.547, 76.064 61.119 C 77.020 62.905, 77.865 63.163, 81.450 62.758 C 83.790 62.495, 88.523 60.846, 91.968 59.096 C 97.375 56.348, 99.282 55.910, 105.891 55.895 C 117.081 55.871, 120.808 57.758, 118.932 62.500 C 118.497 63.600, 118.109 66.837, 118.070 69.693 C 117.987 75.814, 115.820 78, 109.834 78 C 106.008 78, 103.008 75.381, 102.993 72.027 C 102.986 70.455, 97.259 66, 95.245 66 C 92.703 66, 91.158 70.133, 91.708 75.460 C 92.033 78.607, 91.724 82.273, 90.937 84.606 C 89.553 88.712, 89.570 92.234, 91.001 98 C 91.479 99.925, 92.159 103.975, 92.511 107 C 93.474 115.267, 94.836 120.758, 96.952 124.906 C 99.202 129.316, 103.480 130.987, 112.616 131.024 C 115.852 131.037, 120.300 131.517, 122.500 132.090 C 124.700 132.664, 128.300 133.616, 130.500 134.207 C 134.835 135.371, 144.247 135.551, 149.473 134.571 C 155.019 133.531, 160 127.887, 160 122.642 C 160 120.060, 155.623 114, 153.758 114 C 153.172 114, 150.200 115.179, 147.154 116.621 C 142.200 118.964, 140.868 119.172, 134.557 118.588 C 130.676 118.229, 125.700 117.975, 123.500 118.025 C 116.526 118.182, 109.846 116.846, 107.906 114.906 C 106.352 113.352, 106.222 112.607, 107.150 110.570 C 107.940 108.836, 107.973 106.934, 107.260 104.127 C 106.187 99.898, 106.646 95, 108.117 95 C 108.602 95, 109 94.314, 109 93.475 C 109 91.611, 113.047 89.938, 115.811 90.661 C 117.952 91.221, 119.957 95.149, 119.812 98.500 C 119.602 103.358, 120.187 105.143, 123.057 108.412 C 126.254 112.054, 127.777 112.180, 131.352 109.100 C 132.371 108.223, 133.861 106.236, 134.662 104.686 C 135.987 102.124, 135.935 101.555, 134.091 98.429 C 130.423 92.213, 131.449 85, 136.001 85 C 138.477 85, 140.462 90.439, 140.228 96.578 C 140.014 102.183, 140.560 102.981, 147.187 106.757 C 150.514 108.653, 151.001 108.705, 152.187 107.285 C 155.768 102.996, 156.297 74.864, 152.861 71.430 C 150.694 69.266, 145.474 68.259, 140.383 69.024 C 134.251 69.945, 132.319 68.848, 131.495 63.973 C 131.052 61.351, 131.200 59.400, 131.895 58.705 C 132.501 58.099, 137.542 57.059, 143.096 56.395 C 151.907 55.342, 153.565 54.833, 156.097 52.407 C 159.541 49.107, 159.752 46.991, 156.895 44.405 C 154.950 42.645, 152.993 42.500, 131.145 42.500 C 118.140 42.500, 106.768 42.136, 105.873 41.690 C 104.867 41.190, 104.050 39.139, 103.732 36.317 C 103.449 33.806, 102.606 31.365, 101.859 30.892 C 99.260 29.245, 94.412 29.932, 92.270 32.250 M 36.918 38.928 L 33.733 42.113 37.378 45.452 C 41.913 49.606, 49.217 53.128, 54.589 53.750 C 58.133 54.161, 58.962 53.863, 60.805 51.521 C 62.708 49.102, 62.796 48.486, 61.646 45.659 C 60.113 41.893, 51.815 37.348, 44.691 36.371 C 40.476 35.793, 39.845 36.001, 36.918 38.928 M 44.398 70.891 C 31.885 71.521, 29 72.487, 29 76.051 C 29 78.964, 31.524 80.679, 36.852 81.386 C 42.585 82.147, 46.785 84.921, 45.456 87.070 C 44.982 87.837, 44.498 89.148, 44.380 89.982 C 44.262 90.817, 43.846 93.179, 43.455 95.231 C 42.698 99.205, 44.466 103.162, 48.185 105.817 C 51.151 107.935, 53.180 113.937, 52.468 118.487 C 50.926 128.333, 48.731 132.074, 42.685 135.160 C 37.509 137.801, 33 142.276, 33 144.769 C 33 145.898, 34.447 148.040, 36.216 149.529 C 39.061 151.922, 40.015 152.170, 44.466 151.673 C 47.235 151.363, 53.100 149.516, 57.500 147.568 C 66.341 143.654, 68.871 143.617, 77 147.281 C 79.830 148.556, 83.243 149.234, 86.198 149.107 C 89.137 148.981, 92.319 149.609, 94.698 150.783 C 97.107 151.973, 104.077 153.328, 113.720 154.483 C 137.869 157.373, 158.503 155.849, 161.531 150.950 C 162.587 149.241, 161.139 145.145, 159.091 144.049 C 156.821 142.834, 120.652 141.388, 102.457 141.784 C 89.621 142.064, 89.375 142.028, 87.032 139.534 C 85.723 138.140, 84.125 137, 83.481 137 C 82.837 137, 81.495 136.100, 80.500 135 C 79.505 133.900, 77.475 133, 75.991 133 C 74.507 133, 72.178 131.967, 70.816 130.705 C 68.693 128.738, 68.163 126.918, 67.103 117.955 C 65.943 108.144, 65.991 107.224, 67.872 103.029 C 68.975 100.570, 69.513 98.095, 69.068 97.529 C 66.937 94.823, 65.791 86.351, 66.727 80.226 C 67.396 75.848, 67.355 73.508, 66.593 72.482 C 65.168 70.566, 59.259 70.143, 44.398 70.891" stroke="none" fill="black" fill-rule="evenodd"/>
</svg>