<svg xmlns="http://www.w3.org/2000/svg" width="256" height="256" viewBox="0 0 256 256" version="1.1">
	<path d="M 54.733 30.750 C 53.866 31.712, 52.842 33.850, 52.459 35.500 C 51.037 41.622, 49.433 43, 43.727 43.002 C 37.137 43.004, 31.627 45.601, 31.157 48.926 C 30.628 52.675, 34.366 54.951, 41.095 54.978 C 45.256 54.994, 47.121 55.476, 48.370 56.857 C 50.553 59.269, 49.114 60.513, 43 61.500 C 40.525 61.900, 37.270 62.943, 35.766 63.819 C 30.622 66.816, 28.685 74.727, 31.029 83.166 C 31.665 85.454, 31.714 88.319, 31.159 90.786 C 30.516 93.650, 30.662 95.669, 31.689 98.112 C 32.469 99.966, 32.897 102.286, 32.641 103.266 C 31.898 106.105, 33.908 111.881, 36.034 113.018 C 38.157 114.154, 43.201 114.444, 46.735 113.633 C 49.440 113.013, 52 116.158, 52 120.100 C 52 124.343, 49.854 125.364, 42.511 124.611 C 33.736 123.712, 29 125.584, 29 129.949 C 29 131.681, 29.877 133.877, 31.029 135.029 C 32.785 136.785, 34.194 137.031, 41.527 136.860 C 46.185 136.751, 50.310 136.977, 50.694 137.361 C 51.079 137.745, 51.540 141.075, 51.720 144.760 C 52.326 157.188, 55.304 163, 61.066 163 C 65.594 163, 66.312 161.057, 65.591 150.754 C 65.236 145.664, 65.337 140.911, 65.818 140.191 C 66.298 139.471, 69.925 138.402, 73.878 137.815 C 80.385 136.850, 81.262 136.926, 83.150 138.624 C 86.345 141.497, 86.940 144.060, 84.888 146.112 C 81.829 149.171, 85.316 157, 89.737 157 C 94.248 157, 99.207 143.744, 100.455 128.347 C 101.108 120.296, 102.634 117, 105.709 117 C 107.547 117, 108.528 117.962, 109.964 121.169 C 111.730 125.112, 111.872 128.694, 110.512 135 C 110.215 136.375, 110.266 140.578, 110.624 144.340 C 111.432 152.818, 113.006 154.523, 120.807 155.379 C 128.449 156.217, 132.046 155.086, 134.364 151.117 C 136.768 147.001, 135.728 144.363, 130.128 140.369 C 125.010 136.720, 122.537 131.488, 123.287 125.897 C 123.887 121.420, 125.227 119.595, 128.671 118.565 C 131.821 117.622, 134.407 120.904, 136.444 128.432 C 137.389 131.924, 139.139 135.699, 140.331 136.821 C 143.706 139.996, 144.431 141.142, 146.451 146.500 C 149.465 154.494, 156.798 160.443, 161.443 158.660 C 163.482 157.878, 164.444 151.719, 162.974 148.855 C 162.310 147.560, 160.907 145.814, 159.857 144.976 C 158.807 144.138, 157.677 141.787, 157.347 139.752 C 156.831 136.569, 157.193 135.545, 159.939 132.417 C 162.160 129.887, 162.895 128.283, 162.357 127.141 C 161.931 126.238, 161.564 121.632, 161.542 116.905 C 161.493 106.856, 160.877 105.784, 153.792 103.431 C 149.037 101.852, 144.622 101.850, 137.167 103.424 C 133.403 104.220, 129 102.953, 129 101.075 C 129 96.862, 134.043 95.823, 140.628 98.679 C 145.373 100.737, 149 101.377, 149 100.156 C 149 99.653, 150.463 98.645, 152.250 97.914 C 157.629 95.714, 160.304 91.929, 158.971 88.404 C 158.118 86.147, 150.331 79.049, 148.570 78.923 C 147.982 78.881, 146.799 78.709, 145.943 78.540 C 145.087 78.372, 142.765 79.022, 140.785 79.985 C 134.529 83.028, 132.200 83.257, 130.283 81.018 C 129.333 79.908, 127.966 79, 127.246 79 C 126.526 79, 125.678 78.325, 125.362 77.500 C 124.745 75.894, 120 75.381, 120 76.921 C 120 78.149, 112.184 86, 110.961 86 C 110.433 86, 109.966 86.338, 109.923 86.750 C 109.881 87.162, 109.699 88.268, 109.518 89.206 C 109.199 90.866, 109.991 92.016, 116.070 98.718 L 118.990 101.935 116.745 103.117 C 115.510 103.767, 114.222 104.725, 113.882 105.245 C 113.542 105.765, 111.632 106.237, 109.637 106.293 C 103.379 106.471, 101.330 101.338, 104.813 94.210 C 106.892 89.956, 106.893 90.188, 104.759 83.321 C 102.952 77.506, 103.334 74.541, 106.312 71.250 C 108.971 68.312, 113.850 68.308, 117.578 71.240 C 120.584 73.604, 123.512 73.689, 126 71.485 C 128.999 68.828, 132.807 68.712, 139.502 71.076 C 143.076 72.338, 146 73.682, 146 74.063 C 146 75.826, 152.438 73.955, 155.080 71.423 C 158.929 67.736, 159.993 63.511, 159.971 52 C 159.950 41.225, 158.821 35.074, 156.562 33.422 C 154.710 32.068, 120.416 31.065, 105.276 31.921 C 92.029 32.671, 90.586 33.828, 90.538 43.742 C 90.519 47.459, 90.186 50.739, 89.797 51.031 C 89.408 51.324, 89.547 58.074, 90.107 66.031 C 91.282 82.749, 91.182 80.573, 91.194 89.500 C 91.216 106.003, 90.749 113.829, 89.441 118.869 C 87.554 126.138, 86.798 126.877, 82.116 126.021 C 79.991 125.633, 75.815 125.517, 72.837 125.764 C 66.378 126.299, 64.474 124.744, 64.845 119.238 C 65.098 115.475, 67.738 112.538, 69.531 114.025 C 71.257 115.458, 79.356 115.430, 81.663 113.984 C 83.776 112.659, 83.826 112.104, 83.827 90.288 L 83.828 67.949 81.310 64.957 C 78.865 62.051, 78.611 61.984, 72.436 62.617 C 66.283 63.247, 66.041 63.185, 64.893 60.664 C 63.962 58.621, 63.980 57.729, 64.975 56.530 C 66.641 54.523, 73.380 54.547, 76.468 56.571 C 78.189 57.699, 79.382 57.866, 80.694 57.164 C 83.777 55.514, 86.122 52.332, 86.630 49.111 C 87.045 46.476, 86.644 45.747, 83.807 43.980 C 80.970 42.213, 79.533 42.012, 73.697 42.567 C 65.387 43.357, 63 41.873, 63 35.916 C 63 29.833, 58.240 26.859, 54.733 30.750 M 106.866 46.224 C 104.717 47.952, 104.108 50.082, 105.043 52.598 C 105.797 54.627, 106.481 54.700, 125.801 54.814 L 145.780 54.932 146.287 52.280 C 147.515 45.856, 145.529 45.186, 124.870 45.054 C 112.921 44.977, 108.021 45.296, 106.866 46.224 M 45.751 74.758 C 41.666 75.665, 43.054 86, 47.261 86 C 49.794 86, 51.931 83.267, 51.953 80 C 51.980 75.920, 49.594 73.904, 45.751 74.758 M 63.367 77.250 C 62.189 80.697, 62.251 81.355, 63.937 83.355 C 64.796 84.375, 65.353 85.500, 65.173 85.855 C 64.993 86.210, 65.518 86.924, 66.339 87.442 C 67.967 88.469, 71.377 86.419, 70.473 84.956 C 70.195 84.506, 70.425 83.856, 70.984 83.510 C 72.629 82.493, 72.149 78.445, 70.171 76.655 C 67.542 74.276, 64.285 74.561, 63.367 77.250 M 64.968 92.077 C 64.267 93.770, 62.637 95.847, 61.347 96.692 C 58.009 98.879, 58.427 100.438, 62.890 102.450 C 67.478 104.519, 70.268 103.903, 71.829 100.475 C 72.733 98.493, 72.625 97.280, 71.296 94.494 C 70.379 92.572, 69.150 90.993, 68.565 90.985 C 67.979 90.976, 68.175 90.533, 69 90 C 70.227 89.207, 70.112 89.028, 68.371 89.015 C 66.930 89.005, 65.831 89.993, 64.968 92.077 M 44.099 94.077 C 42.255 97.109, 42.316 100.257, 44.267 102.750 C 45.710 104.595, 51.146 104.228, 53.916 102.098 L 56.332 100.241 53.643 97.371 C 52.164 95.792, 50.210 93.713, 49.302 92.750 C 47.022 90.335, 46.256 90.531, 44.099 94.077 M 149.750 121.662 C 150.438 121.940, 151.563 121.940, 152.250 121.662 C 152.938 121.385, 152.375 121.158, 151 121.158 C 149.625 121.158, 149.063 121.385, 149.750 121.662" stroke="none" fill="black" fill-rule="evenodd"/>
</svg>