<svg xmlns="http://www.w3.org/2000/svg" width="256" height="256" viewBox="0 0 256 256" version="1.1">
	<path d="M 57.039 30.189 C 55.885 31.427, 55 33.739, 55 35.514 C 55 40.711, 51.608 43, 43.908 43 C 36.227 43, 33 44.746, 33 48.902 C 33 53.471, 35.688 55, 43.722 55 C 49.514 55, 50.906 55.314, 51.454 56.741 C 52.373 59.136, 48.864 61.796, 44.763 61.814 C 39.414 61.837, 36.226 63.636, 34.079 67.844 C 32.367 71.201, 32.097 73.560, 32.217 84.135 C 32.312 92.512, 32.784 97.136, 33.679 98.473 C 34.405 99.557, 35 102.320, 35 104.612 C 35 111.281, 37.217 113.148, 45.363 113.340 C 52.685 113.512, 55.291 115.170, 54.286 119.014 C 53.398 122.410, 51.374 123.088, 41.502 123.296 C 32.660 123.482, 31.654 123.705, 29.910 125.861 C 27.426 128.931, 27.493 131.493, 30.128 134.128 C 32.100 136.100, 32.923 136.206, 41.393 135.585 C 49.786 134.968, 50.713 135.084, 52.769 136.999 C 54.729 138.825, 54.931 139.739, 54.390 144.337 C 54.051 147.226, 54.287 152.068, 54.916 155.097 C 55.842 159.556, 56.634 160.943, 59.077 162.386 C 61.868 164.035, 62.277 164.048, 64.547 162.561 C 66.903 161.018, 67 160.522, 67 150.048 C 67 136.490, 67.335 136.026, 77.053 136.116 C 82.812 136.170, 84.778 135.734, 88.435 133.591 C 95.517 129.441, 104.838 130.202, 105.079 134.950 C 105.241 138.160, 110.638 145.500, 113.565 146.493 C 117.096 147.690, 117.937 148.457, 120.725 153.017 C 128.466 165.679, 137.712 164.398, 141.979 150.071 C 143.090 146.338, 144 141.071, 144 138.365 C 144 131.877, 145.837 129.483, 152.034 127.895 C 157.393 126.521, 158.842 125.415, 159.456 122.227 C 159.886 119.998, 157.817 118.671, 151.353 117.031 C 145.565 115.562, 145.166 113.579, 150.332 111.958 C 155.319 110.393, 159 107.349, 159 104.791 C 159 103.767, 158.244 101.776, 157.320 100.366 C 155.861 98.139, 155.795 97.056, 156.816 92.111 C 157.562 88.502, 157.796 81.495, 157.456 72.960 C 156.972 60.778, 156.689 59.172, 154.483 56.044 L 152.045 52.587 155.577 49.676 C 160.296 45.786, 160.112 41.535, 155.097 38.617 C 151.960 36.792, 151.071 36.728, 143.700 37.803 C 134.747 39.107, 131.444 38.277, 129.418 34.212 C 128.016 31.400, 125.060 29.074, 122.834 29.032 C 121.918 29.014, 119.790 30.740, 118.105 32.867 C 115.140 36.611, 114.810 36.749, 107.717 37.204 C 102.701 37.526, 98.567 38.509, 94.608 40.322 C 89.523 42.650, 88.293 42.850, 84.411 41.980 C 81.765 41.387, 78.456 41.337, 76.153 41.854 C 69.543 43.340, 64.616 38.936, 66.444 33.178 C 67.915 28.541, 60.708 26.251, 57.039 30.189 M 92.287 50.090 C 91.204 50.490, 89.758 52.170, 89.074 53.822 C 87.487 57.654, 84.273 58.464, 78.790 56.414 C 71.605 53.728, 69.639 53.636, 67.596 55.894 C 65.849 57.824, 65.837 58.102, 67.391 60.474 C 69.177 63.200, 72.079 63.681, 76.527 61.990 C 79.995 60.671, 83.357 62.304, 87.319 67.232 C 90.296 70.934, 90.307 70.993, 88.701 74.732 C 86.426 80.026, 86.798 99.226, 89.223 101.651 C 90.766 103.194, 91.071 103.183, 93.657 101.489 C 95.922 100.005, 98.189 99.709, 105.967 99.881 C 112.507 100.025, 116.044 99.685, 117.231 98.796 C 119.767 96.898, 117.968 94.872, 113.382 94.462 C 111.247 94.271, 106.800 93.883, 103.500 93.601 C 96.078 92.965, 93.712 90.679, 94.130 84.549 C 94.438 80.047, 93.305 74.165, 91.762 72.250 C 91.083 71.407, 91.092 71, 91.790 71 C 92.359 71, 93.117 69.269, 93.474 67.152 C 94.808 59.260, 103.669 52.184, 109.960 53.988 C 111.747 54.501, 113.206 54.476, 113.546 53.926 C 114.646 52.146, 112.739 50.811, 109.728 51.253 C 108.059 51.498, 103.894 51.173, 100.474 50.530 C 97.054 49.887, 93.369 49.689, 92.287 50.090 M 139.500 52.082 C 137.300 52.431, 135.725 52.825, 136 52.959 C 137.607 53.739, 145.963 53.869, 146.425 53.121 C 147.228 51.822, 144.100 51.353, 139.500 52.082 M 66.750 75.217 C 64.327 78.249, 64.561 82.239, 67.314 84.826 C 70.286 87.617, 71.400 87.564, 73.385 84.535 C 75.647 81.083, 75.396 77.721, 72.686 75.174 C 69.800 72.463, 68.945 72.469, 66.750 75.217 M 47.115 75.632 C 44.501 77.463, 44.394 80.996, 46.867 83.847 C 49.125 86.450, 50.351 86.537, 52.989 84.278 C 58.079 79.920, 52.570 71.811, 47.115 75.632 M 133.312 79.250 C 131.962 82.260, 132.699 83.997, 135.333 84.015 C 137.099 84.028, 137.222 84.210, 136 85 C 134.718 85.828, 134.754 85.972, 136.250 85.985 C 137.213 85.993, 138 85.550, 138 85 C 138 84.450, 138.585 84, 139.300 84 C 140.015 84, 141.137 83.463, 141.793 82.807 C 142.717 81.883, 142.497 81.094, 140.819 79.307 C 138.039 76.348, 134.625 76.322, 133.312 79.250 M 111.250 79.088 C 110.013 79.554, 109 80.573, 109 81.351 C 109 83.875, 117.382 85.054, 118.300 82.659 C 119.500 79.534, 115.475 77.495, 111.250 79.088 M 67.492 92.288 C 62.783 97.951, 62.827 100.250, 67.693 102.841 C 72.159 105.220, 77.176 100.268, 75.305 95.329 C 73.754 91.237, 69.684 89.652, 67.492 92.288 M 46.036 95.433 C 45.320 96.770, 45.006 98.574, 45.339 99.441 C 46.915 103.547, 56 103.968, 56 99.935 C 56 97.388, 51.706 93, 49.214 93 C 48.182 93, 46.752 94.095, 46.036 95.433 M 137 93.960 C 137 94.532, 136.373 95, 135.607 95 C 133.686 95, 132.643 98.147, 134.216 99.197 C 135.464 100.030, 140.823 99.511, 141.879 98.454 C 142.168 98.166, 141.188 96.802, 139.702 95.424 C 138.216 94.046, 137 93.387, 137 93.960 M 87.952 110.558 C 85.651 113.330, 79.880 115.187, 77.043 114.068 C 74.456 113.048, 70.821 112.564, 67.857 112.844 C 65.469 113.071, 64.790 115.777, 66.167 119.584 C 67.951 124.519, 71.245 125.509, 79.110 123.474 C 82.625 122.565, 85.950 121.460, 86.500 121.019 C 88.702 119.252, 99.372 118.165, 115.941 118.019 C 131.768 117.880, 133.536 117.689, 135.042 115.951 C 135.956 114.898, 136.995 114.328, 137.352 114.685 C 137.708 115.042, 138 114.918, 138 114.411 C 138 111.955, 131.794 111.107, 113.568 111.072 C 102.112 111.049, 94.233 110.633, 93.618 110.018 C 92.121 108.521, 89.429 108.778, 87.952 110.558 M 116.978 130.817 C 114.986 132.429, 114.878 132.908, 116.017 135.067 C 116.722 136.405, 117.619 137.725, 118.010 138 C 118.401 138.275, 119.484 139.989, 120.417 141.809 C 121.873 144.652, 122.563 145.075, 125.303 144.809 C 127.818 144.566, 128.856 143.758, 130.199 141 C 131.971 137.362, 132.436 133.301, 131.393 130.582 C 130.486 128.218, 119.976 128.389, 116.978 130.817" stroke="none" fill="black" fill-rule="evenodd"/>
</svg>