<svg xmlns="http://www.w3.org/2000/svg" width="256" height="256" viewBox="0 0 256 256" version="1.1">
	<path d="M 116.742 30.591 C 116.589 30.744, 109.282 31.085, 100.506 31.347 C 79.985 31.961, 80.547 31.483, 79.566 49.160 C 79.110 57.384, 79.294 64.002, 80.117 69 C 80.797 73.125, 81.321 78.075, 81.282 80 C 81.165 85.802, 79.307 98.313, 78.117 101.315 C 77.502 102.863, 77 106.238, 76.999 108.815 C 76.999 114.677, 72.488 127.063, 69.591 129.157 C 64.819 132.608, 60.988 117.802, 64.230 108.438 C 65.777 103.971, 66.500 95.920, 66.500 83.168 C 66.500 72.939, 65.650 72.025, 56.059 71.946 C 52.451 71.916, 45.900 71.512, 41.500 71.046 C 31.798 70.021, 27 71.426, 27 75.294 C 27 78.773, 29.765 80.650, 35.905 81.337 C 44.682 82.320, 49.027 88.641, 43.951 93.043 C 41.044 95.563, 40.895 102.177, 43.676 105.211 C 44.830 106.470, 46.716 109.377, 47.868 111.672 C 49.736 115.396, 49.846 116.468, 48.887 121.652 C 47.584 128.701, 45.700 132.555, 42.797 134.109 C 37.789 136.789, 32 144.415, 32 148.332 C 32 151.370, 36.208 155, 39.730 155 C 41.084 155, 43.386 154.153, 44.846 153.117 C 51.605 148.323, 55.091 147, 60.971 147 C 64.222 147, 67.162 147.453, 67.504 148.007 C 68.645 149.853, 74.332 152.245, 80.952 153.662 C 89.771 155.551, 116.293 158.960, 122.500 159.002 C 129.166 159.047, 155.909 156.040, 158.750 154.926 C 162.171 153.583, 161.929 147.744, 158.385 146.130 C 155.918 145.006, 135.323 144.344, 134.311 145.356 C 134.057 145.610, 132.440 145.413, 130.717 144.919 C 128.650 144.326, 126.484 144.419, 124.347 145.192 C 121.852 146.094, 119.242 146.077, 112.977 145.118 C 108.504 144.433, 100.170 143.499, 94.456 143.041 C 87.356 142.473, 83.582 141.725, 82.534 140.676 C 80.642 138.785, 80.626 138.231, 82.411 136.446 C 83.896 134.961, 87.543 123.951, 88.521 118 C 88.837 116.075, 89.916 113.671, 90.918 112.657 C 92.627 110.930, 92.937 110.916, 95.870 112.433 C 97.592 113.323, 99 114.266, 99 114.529 C 99 114.792, 98.120 116.648, 97.045 118.654 C 94.744 122.948, 95.278 124.449, 100.537 128.460 C 103.961 131.072, 104.466 131.173, 109.322 130.213 C 115.251 129.040, 118.849 130.314, 121.639 134.572 C 122.551 135.964, 124.613 137.782, 126.220 138.614 C 129.472 140.295, 129.811 140.147, 135.802 134.398 C 139.713 130.645, 143.021 129.824, 150.903 130.648 C 155.950 131.175, 157.022 130.978, 158.803 129.197 C 161.546 126.454, 160.449 122.234, 156.255 119.399 C 153.761 117.714, 151.580 117.291, 145.214 117.261 C 136.299 117.219, 133 116.484, 133 114.540 C 133 112.479, 135.743 111.890, 144.362 112.098 C 152.934 112.304, 155 111.210, 155 106.464 C 155 103.066, 151.854 101.063, 144.239 99.612 C 133.310 97.529, 128.477 92.956, 134.052 89.972 C 136.309 88.765, 146.688 88.686, 147.420 89.871 C 148.200 91.133, 153.058 91.920, 156.250 91.300 C 158.458 90.872, 159 90.222, 159 88.004 C 159 85.383, 158.092 84.355, 149.292 77.008 C 147.661 75.647, 146.272 75.739, 145.662 77.250 C 145.280 78.199, 145.139 78.206, 145.079 77.281 C 145.035 76.607, 144.314 76.326, 143.463 76.653 C 142.617 76.977, 141.083 76.480, 140.053 75.548 C 138.541 74.179, 138.353 73.256, 139.075 70.738 C 139.710 68.525, 139.593 67.171, 138.671 66.061 C 136.861 63.884, 137.160 61.593, 139.308 61.179 C 142.759 60.515, 143.822 61.636, 143.096 65.176 C 142.556 67.811, 142.854 68.940, 144.534 70.622 C 148.306 74.399, 150.321 75.024, 152.743 73.169 C 154.983 71.453, 158.331 64.664, 157.398 63.731 C 157.110 63.443, 157.340 60.573, 157.908 57.354 C 158.975 51.315, 159.423 44.272, 159.154 37.773 C 158.895 31.496, 157.062 30.938, 135.604 30.603 C 125.383 30.443, 116.895 30.438, 116.742 30.591 M 36.963 37.381 C 31.621 39.107, 31.704 42.727, 37.196 47.463 C 42.631 52.150, 47.336 54.540, 52.768 55.374 C 58.641 56.276, 61.890 55.287, 62.620 52.376 C 63.401 49.265, 61.896 47.553, 55.615 44.410 C 52.802 43.002, 49.560 40.973, 48.410 39.901 C 45.330 37.029, 41.001 36.076, 36.963 37.381 M 94.990 43.279 C 91.497 44.188, 91.181 45.949, 94.046 48.542 C 95.943 50.258, 96.510 50.291, 101.796 48.987 C 105.374 48.104, 113.976 47.506, 124.873 47.381 C 138.957 47.220, 142.537 46.892, 143.779 45.649 C 145.156 44.272, 145.068 44.062, 142.906 43.577 C 138.950 42.691, 98.222 42.437, 94.990 43.279 M 114.635 60.525 C 113.358 61.458, 113 63.467, 113 69.691 C 113 77.141, 113.161 77.748, 115.466 78.982 C 116.822 79.708, 117.696 80.684, 117.407 81.151 C 117.118 81.618, 117.659 82, 118.608 82 C 119.557 82, 120.037 81.704, 119.675 81.342 C 119.313 80.980, 119.556 80.035, 120.215 79.241 C 120.873 78.448, 121.567 77.056, 121.756 76.149 C 122.224 73.902, 121.985 61.785, 121.456 60.928 C 120.635 59.600, 116.255 59.340, 114.635 60.525 M 95.607 62.750 C 94.735 65.638, 93.879 70.230, 93.317 75.039 C 92.916 78.466, 93.181 79.905, 94.396 80.914 C 96.776 82.889, 100.496 82.540, 103.683 80.042 C 108.074 76.601, 108.087 75.092, 103.764 70.637 C 101.626 68.434, 99.623 65.364, 99.313 63.816 C 98.687 60.686, 96.426 60.036, 95.607 62.750 M 115.250 88.319 C 112.465 92.409, 112.391 94.672, 115.015 95.505 C 116.123 95.856, 116.771 96.562, 116.456 97.072 C 116.140 97.582, 116.584 98, 117.441 98 C 118.298 98, 119 97.564, 119 97.032 C 119 96.500, 120.013 95.487, 121.250 94.782 C 124.260 93.067, 124.339 90.248, 121.457 87.366 C 118.394 84.303, 117.936 84.373, 115.250 88.319 M 94.400 92.765 C 92.901 93.766, 91 97.515, 91 99.469 C 91 100.350, 91.697 102.134, 92.548 103.433 L 94.096 105.796 98.405 101.874 C 101.732 98.847, 102.610 97.409, 102.258 95.567 C 101.697 92.636, 97.066 90.985, 94.400 92.765 M 114.376 110.131 C 112.657 110.604, 110.647 111.720, 109.908 112.611 C 108.755 114, 108.895 114.496, 110.893 116.115 C 113.897 118.547, 118.216 118.523, 120.443 116.063 C 122.123 114.207, 122.098 114.023, 119.848 111.697 C 117.864 109.646, 117.015 109.403, 114.376 110.131" stroke="none" fill="black" fill-rule="evenodd"/>
</svg>