<svg xmlns="http://www.w3.org/2000/svg" width="256" height="256" viewBox="0 0 256 256" version="1.1">
	<path d="M 92 29.799 C 90.120 31.321, 89.793 32.540, 89.866 37.745 C 89.943 43.233, 89.672 44.113, 87.341 45.946 C 85.701 47.236, 83.251 48, 80.751 48 C 76.427 48, 69 51.568, 69 53.645 C 69 55.697, 72.739 58.605, 77.032 59.891 C 82.579 61.553, 83.857 64.029, 84.082 73.546 C 84.240 80.231, 83.725 83.275, 81.039 91.538 C 79.261 97.008, 77.561 103.962, 77.262 106.991 C 76.963 110.021, 75.657 114.623, 74.359 117.217 C 73.062 119.811, 71.994 123.186, 71.986 124.717 C 71.965 128.999, 70.907 132, 69.419 132 C 67.726 132, 66.455 129.641, 64.140 122.203 C 62.185 115.919, 62.422 111.342, 65.226 101.308 C 66.352 97.279, 66.444 94.977, 65.636 91.033 C 64.795 86.929, 64.928 84.702, 66.324 79.460 C 67.668 74.416, 67.801 72.497, 66.919 70.849 C 65.859 68.869, 65.310 68.780, 58.642 69.511 C 54.714 69.942, 47.627 70.194, 42.892 70.073 C 34.895 69.867, 34.080 70.034, 31.392 72.432 L 28.500 75.014 31.366 77.387 C 32.975 78.719, 36.220 80.032, 38.765 80.381 C 46.817 81.485, 47.737 83.755, 42.876 90.523 C 39.069 95.824, 39.397 98.026, 44.942 104.433 C 48.967 109.083, 50.669 114.684, 49.672 120 C 47.721 130.412, 47.893 130.085, 41.890 134.747 C 32.123 142.332, 30.593 146.797, 36.158 151.480 C 40.015 154.725, 41.740 154.417, 50.148 148.983 C 58.481 143.597, 59.463 143.682, 73 150.957 C 74.925 151.992, 78.750 153.133, 81.500 153.494 C 84.250 153.854, 89.650 154.989, 93.500 156.015 C 97.979 157.208, 104.461 157.945, 111.500 158.059 C 126.491 158.302, 151.805 157.054, 155.629 155.883 C 159.973 154.553, 162.382 151.657, 161.631 148.667 C 160.424 143.858, 155.917 143.426, 118.695 144.554 C 106.253 144.931, 98.446 144.788, 97.695 144.170 C 97.038 143.628, 93.911 142.708, 90.746 142.126 C 83.163 140.730, 81 139.477, 81 136.480 C 81 133.233, 86.782 115.909, 88.503 114 C 91.237 110.967, 92.979 103.560, 92.401 97.427 C 91.610 89.037, 93.486 83.860, 97.759 82.638 C 100.383 81.887, 101.405 82.056, 103.009 83.508 C 105.582 85.837, 105.763 95.332, 103.331 100.431 C 101.909 103.414, 101.844 104.536, 102.891 108.032 C 103.996 111.719, 103.850 112.945, 101.437 120.189 C 99.961 124.620, 98.137 129.428, 97.383 130.873 C 94.861 135.706, 96.314 137.855, 102.478 138.408 C 107.318 138.842, 110.663 137.189, 112.409 133.500 C 114.106 129.915, 116 120.102, 116 114.893 C 116 112.329, 116.814 110.186, 118.589 108.077 C 120.974 105.242, 121.672 105, 127.466 105 C 134.739 105, 135.933 105.919, 136.159 111.695 C 136.351 116.593, 135.851 117.438, 130.916 120.553 C 127.632 122.626, 127 123.566, 127 126.378 C 127 133.451, 134.958 138.624, 141.018 135.491 C 145.277 133.288, 147.170 128.367, 146.924 120.136 C 146.629 110.276, 146.803 109.262, 149.163 107.062 C 150.353 105.954, 153.699 104.357, 156.599 103.514 C 160.293 102.440, 162.072 101.350, 162.541 99.871 C 163.405 97.147, 160.460 93.062, 155.990 90.784 C 149.969 87.715, 148.875 86.018, 150.179 81.769 C 150.948 79.264, 152.569 77.227, 155.159 75.513 C 157.272 74.115, 159 72.563, 159 72.063 C 159 70.035, 153.711 65.060, 150.392 63.964 C 148.443 63.321, 144.470 62.823, 141.562 62.858 C 135.060 62.936, 132.250 61.270, 133.847 58.286 C 135.401 55.382, 139.089 54.745, 149.723 55.542 C 160.510 56.351, 164.012 55.046, 163.985 50.227 C 163.954 44.773, 160.077 42.541, 151.174 42.853 C 142.267 43.165, 138.710 41.641, 136.177 36.428 C 132.588 29.040, 127 29.799, 127 37.675 C 127 39.903, 126.055 42.025, 124.078 44.234 C 121.380 47.249, 120.707 47.492, 115.312 47.397 C 104.996 47.214, 100.388 43.563, 101.460 36.420 C 102.005 32.786, 101.787 31.422, 100.420 29.911 C 98.247 27.511, 94.881 27.466, 92 29.799 M 40 34.793 C 36.639 35.316, 34 37.826, 34 40.499 C 34 43.166, 40.965 50.281, 45.839 52.594 C 52.987 55.986, 60 54.394, 60 49.380 C 60 43.372, 46.788 33.736, 40 34.793 M 105.491 59.582 C 104.946 59.716, 103.268 60.097, 101.763 60.428 C 100.257 60.760, 98.291 62.152, 97.394 63.521 C 96.025 65.611, 95.977 66.267, 97.096 67.615 C 98.202 68.948, 99.718 69.108, 106.014 68.559 C 110.262 68.189, 114.715 68.321, 116.133 68.861 C 119.016 69.956, 120.214 69.424, 121.847 66.322 C 123.290 63.580, 122.443 61.280, 119.658 60.376 C 117.520 59.681, 107.399 59.115, 105.491 59.582 M 120.495 74.413 C 117.793 76.450, 115.889 83.874, 117.005 88.019 C 118.263 92.691, 119.924 93.172, 128.304 91.292 C 133.796 90.060, 134.993 89.407, 135.869 87.164 C 137.886 82.002, 137.623 77.468, 135.250 76.500 C 130.568 74.590, 121.889 73.362, 120.495 74.413" stroke="none" fill="black" fill-rule="evenodd"/>
</svg>