<svg xmlns="http://www.w3.org/2000/svg" width="256" height="256" viewBox="0 0 256 256" version="1.1">
	<path d="M 114.452 28.765 C 113.875 29.169, 112.334 31.075, 111.026 33 C 109.718 34.925, 108.463 36.725, 108.238 37 C 108.013 37.275, 103.480 37.500, 98.165 37.500 C 90.044 37.500, 87.739 37.875, 83.733 39.847 C 77.916 42.712, 76.074 45.502, 78.437 47.867 C 79.746 49.177, 82.738 49.569, 93.552 49.849 C 105.650 50.161, 107.141 50.395, 108.069 52.128 C 108.959 53.792, 108.614 54.263, 105.583 55.530 C 103.648 56.338, 99.568 57, 96.517 57 C 91.633 57, 90.539 57.395, 87.358 60.311 L 83.745 63.622 83.719 77.561 C 83.692 91.691, 84.830 102.265, 86.553 103.910 C 88.415 105.687, 95.101 106.912, 97.650 105.943 C 99.014 105.424, 101.875 105, 104.008 105 C 108.303 105, 111 107.606, 111 111.755 C 111 115.375, 107.510 116.050, 101.017 113.685 C 94.547 111.329, 92.339 111.678, 85.639 116.116 C 77.366 121.596, 78.238 124.092, 88.780 125.106 C 92.476 125.461, 97.144 125.300, 99.154 124.747 C 101.163 124.194, 104.398 124.040, 106.342 124.404 C 109.601 125.016, 110.001 125.493, 111.458 130.503 C 113.014 135.856, 116.644 141, 118.865 141 C 119.489 141, 120 141.865, 120 142.922 C 120 144.222, 118.899 145.208, 116.601 145.967 C 113.026 147.146, 110.209 146.792, 103.312 144.293 C 100.552 143.293, 97.485 142.980, 94.312 143.375 C 88.784 144.063, 81.521 142.066, 78.159 138.933 C 76.972 137.827, 76 137.197, 76 137.532 C 76 137.868, 75.325 137.468, 74.500 136.643 C 73.675 135.818, 73 134.843, 73 134.476 C 73 134.109, 72.151 132.614, 71.113 131.154 C 70.075 129.694, 68.683 126.475, 68.019 124 C 67.356 121.525, 66.436 118.768, 65.975 117.873 C 63.700 113.456, 63.818 109.357, 66.328 105.659 C 68.740 102.104, 68.803 101.580, 68.356 88.745 C 68.103 81.460, 67.682 74.472, 67.420 73.215 C 66.742 69.960, 62.902 68.785, 57.202 70.088 C 54.616 70.679, 48.554 71.119, 43.731 71.066 C 34.534 70.963, 29 72.630, 29 75.503 C 29 77.583, 32.789 79.695, 38 80.520 C 44.942 81.619, 46.089 82.538, 45.838 86.800 C 45.718 88.835, 45.091 91.797, 44.445 93.382 C 42.936 97.082, 44.100 102.391, 47.182 105.862 C 51.329 110.532, 53.257 115.430, 52.652 119.757 C 51.409 128.645, 49.702 131.973, 44.287 136.067 C 40.246 139.123, 38.824 140.941, 37.957 144.158 C 36.984 147.775, 37.088 148.642, 38.769 150.904 C 41.411 154.458, 46.119 154.717, 53.020 151.687 C 56.034 150.364, 60.797 148.700, 63.604 147.989 C 68.685 146.703, 68.734 146.714, 74.720 150.408 C 79.801 153.544, 82.265 154.328, 90.616 155.463 C 110.728 158.198, 121.811 158.997, 134 158.592 C 149.497 158.078, 156.923 156.694, 159.250 153.889 C 161.557 151.107, 161.470 150.379, 158.466 147.375 C 155.961 144.870, 155.767 144.844, 141.716 145.120 C 127.720 145.395, 123 144.828, 123 142.874 C 123 142.328, 122.550 142.160, 122 142.500 C 120.126 143.658, 120.992 141.447, 122.972 140.020 C 124.056 139.239, 125.734 136.400, 126.701 133.712 C 127.667 131.024, 129.342 128.352, 130.423 127.774 C 131.654 127.115, 136.609 126.930, 143.686 127.278 C 154.903 127.831, 154.999 127.816, 156.992 125.283 C 159.505 122.088, 159.506 120.913, 156.998 117.725 C 154.596 114.670, 145.712 112.945, 134.129 113.284 C 128.225 113.457, 126.548 113.173, 125.701 111.856 C 123.671 108.699, 126.925 107.155, 136.111 106.918 C 150.111 106.558, 152.143 103.895, 152.172 85.869 C 152.185 77.737, 151.791 73.453, 150.935 72.422 C 150.245 71.590, 149.741 69.260, 149.817 67.244 C 149.893 65.229, 149.322 62.614, 148.548 61.434 C 146.428 58.197, 138.759 55, 133.118 55 C 129.696 55, 128.041 54.550, 127.642 53.510 C 126.918 51.622, 130.015 50.796, 135.808 51.335 C 138.177 51.555, 143.013 51.190, 146.555 50.525 C 156.472 48.661, 159.502 44.699, 154.561 40.057 C 152.301 37.934, 151.303 37.774, 140.988 37.884 C 134.865 37.948, 128.856 37.751, 127.636 37.445 C 126.416 37.139, 124.210 34.888, 122.734 32.444 C 120.097 28.079, 117.241 26.810, 114.452 28.765 M 37.257 39.652 L 34.606 42.303 39.362 46.430 C 44.365 50.770, 53.708 55, 58.289 55 C 60.875 55, 65 51.995, 65 50.111 C 65 48.282, 61.290 45.079, 54.563 41.102 C 46.017 36.048, 41.259 35.650, 37.257 39.652 M 97.606 70.882 C 94.150 74.701, 98.144 80.257, 104 79.777 C 108.667 79.395, 111.734 74.493, 109.396 71.155 C 107.385 68.284, 100.110 68.116, 97.606 70.882 M 128.861 70.937 C 126.979 72.482, 126.716 73.229, 127.567 74.621 C 129.603 77.953, 131.756 78.610, 134.739 76.810 C 138.466 74.560, 138.795 71.683, 135.499 70.181 C 132.067 68.618, 131.626 68.668, 128.861 70.937 M 105 86 C 105 86.550, 104.068 87, 102.929 87 C 101.789 87, 100.155 87.703, 99.296 88.561 C 97.004 90.853, 98.978 94.546, 102.914 95.333 C 109.875 96.725, 113.153 92.062, 108.491 87.400 C 105.890 84.799, 105 84.442, 105 86 M 128.582 88.515 C 124.322 91.738, 130.986 97.683, 135.907 95.050 C 138.880 93.459, 138.626 89.606, 135.453 88.161 C 132.180 86.669, 130.936 86.734, 128.582 88.515" stroke="none" fill="black" fill-rule="evenodd"/>
</svg>