<svg xmlns="http://www.w3.org/2000/svg" width="256" height="256" viewBox="0 0 256 256" version="1.1">
	<path d="M 64.270 26.746 C 61.234 27.274, 58 31.634, 58 35.201 C 58 38.256, 56.430 42.025, 54.685 43.161 C 54.126 43.525, 51.697 44.118, 49.286 44.480 C 45.585 45.035, 44.654 45.658, 43.309 48.478 C 40.402 54.575, 43.583 57.394, 50.070 54.468 C 54.003 52.695, 54.051 52.699, 56.516 55.015 C 60.070 58.354, 59.953 64.035, 56.260 67.460 C 54.190 69.379, 52.446 70, 49.128 70 C 46.409 70, 43.358 70.823, 41.118 72.162 C 33.114 76.944, 31.237 80.394, 34.610 84.122 C 36.016 85.675, 36.493 85.727, 38.360 84.529 C 39.537 83.774, 43.280 82.619, 46.678 81.962 C 51.702 80.991, 53.429 81.022, 55.928 82.128 C 57.617 82.876, 59.039 83.716, 59.087 83.994 C 60.026 89.469, 59.646 90.958, 56.448 94.349 C 54.590 96.319, 50.857 99.052, 48.153 100.423 C 42.493 103.290, 37 109.636, 37 113.305 C 37 115.870, 41.935 121, 44.402 121 C 45.089 121, 46.673 122.087, 47.921 123.416 C 50.368 126.021, 51.492 133.680, 51.162 145.500 C 50.952 153.043, 53.527 158, 57.657 158 C 59.134 158, 61.119 157.297, 62.068 156.439 C 64.787 153.978, 85 151.687, 85 153.839 C 85 155.041, 89.663 157, 92.524 157 C 96.796 157, 97.840 153.768, 98.500 138.500 C 98.897 129.298, 98.696 122.434, 97.912 118.470 C 96.884 113.269, 96.946 112.005, 98.360 109.270 C 100.672 104.799, 100.407 102.466, 97.312 100.031 C 94.952 98.174, 93.813 97.996, 87.994 98.569 C 82.689 99.092, 81.053 98.910, 79.802 97.659 C 78.942 96.799, 77.960 96.374, 77.619 96.714 C 77.279 97.055, 77 96.583, 77 95.667 C 77 94.750, 76.515 94, 75.923 94 C 75.331 94, 76.318 92.763, 78.116 91.250 C 81.010 88.815, 82.198 88.500, 88.486 88.500 C 98.122 88.500, 101.860 86.058, 99.966 81 C 99.863 80.725, 99.856 79.522, 99.951 78.327 C 100.046 77.131, 99.417 73.777, 98.555 70.872 C 96.908 65.326, 97.241 60.530, 99.597 55.871 C 101.505 52.097, 105.815 50.366, 108.371 52.347 C 109.638 53.330, 109.742 55.908, 109.071 69.790 C 108.638 78.750, 108.623 87.938, 109.038 90.208 C 109.546 92.986, 109.300 95.995, 108.284 99.415 C 106.690 104.783, 106.701 105.164, 109.382 138.765 C 110.555 153.467, 110.905 155.270, 113.014 157.515 C 115.596 160.264, 120.074 160.820, 121.900 158.620 C 122.745 157.602, 122.804 151.899, 122.125 136.870 C 121.078 113.693, 121.253 85.711, 122.468 82 C 122.918 80.625, 123.350 74.775, 123.428 69 C 123.579 57.735, 124.741 54, 128.092 54 C 132.726 54, 139.147 56.371, 141.043 58.782 C 143.344 61.707, 142.956 63.914, 139.279 68.821 C 136.305 72.789, 133.902 82.261, 134.652 87.057 C 135.213 90.636, 141.063 101.920, 143.753 104.610 C 145.913 106.770, 147.105 113.862, 145.932 117.574 C 145.300 119.574, 143.780 121.211, 141.580 122.261 C 137.056 124.418, 132.631 130.261, 133.484 132.950 C 134.534 136.258, 138.426 136.525, 144.790 133.726 C 147.931 132.344, 152.216 130.615, 154.313 129.883 C 156.411 129.151, 158.546 128.047, 159.059 127.429 C 159.571 126.812, 160.105 120.865, 160.245 114.214 L 160.500 102.123 156.899 98.311 C 154.919 96.215, 152.556 93.387, 151.649 92.027 C 149.155 88.289, 149.514 80.089, 152.449 73.772 C 153.796 70.872, 155.639 65.800, 156.543 62.500 C 157.448 59.200, 158.899 54.789, 159.769 52.699 C 163.922 42.713, 152.728 36.253, 136.238 39.121 C 131.066 40.020, 128.778 39.916, 123.094 38.523 C 116.623 36.937, 115.850 36.939, 110.109 38.550 C 106.460 39.573, 102.538 40.024, 100.360 39.671 C 97.342 39.181, 95.980 39.608, 92.431 42.157 C 88.435 45.027, 87.674 45.207, 81.147 44.838 C 71.575 44.298, 69.856 42.705, 70.226 34.723 C 70.458 29.701, 70.196 28.615, 68.500 27.579 C 67.400 26.908, 65.496 26.533, 64.270 26.746 M 72.347 56.067 C 69.142 57.253, 68.618 58.812, 70.008 63.025 C 71.850 68.605, 76.878 69.012, 80.873 63.904 C 82.681 61.591, 82.746 61.083, 81.467 59.257 C 79.628 56.632, 75.102 55.048, 72.347 56.067 M 62.750 111.264 C 55.393 115.360, 57.816 116.780, 75.158 118.538 C 81.321 119.163, 81.902 119.052, 82.977 117.043 C 86.358 110.725, 71.397 106.451, 62.750 111.264 M 66 130.801 C 63.191 132.169, 62.437 133.164, 62.180 135.842 C 61.710 140.738, 63.824 141.797, 74.127 141.827 C 82.204 141.850, 82.846 141.701, 83.389 139.676 C 84.465 135.663, 84.014 132.323, 82.171 130.655 C 79.743 128.458, 70.642 128.540, 66 130.801" stroke="none" fill="black" fill-rule="evenodd"/>
</svg>