<svg xmlns="http://www.w3.org/2000/svg" width="256" height="256" viewBox="0 0 256 256" version="1.1">
	<path d="M 116.500 31.463 C 113.200 32.180, 105.775 33.274, 100 33.894 C 86.222 35.373, 84.729 36.427, 83.837 45.309 C 83.472 48.939, 82.933 52.299, 82.638 52.776 C 82.344 53.253, 82.572 59.911, 83.145 67.571 C 84.643 87.575, 84.411 91.444, 81.322 97.940 C 79.869 100.998, 78.469 105.638, 78.212 108.250 C 77.956 110.862, 77.362 113, 76.893 113 C 75.620 113, 71.998 120.579, 72.014 123.210 C 72.075 133.503, 78.042 132.427, 82.401 121.337 C 85.979 112.235, 90.271 110.028, 91.324 116.750 C 91.647 118.813, 92.393 123.635, 92.982 127.466 C 93.571 131.297, 94.716 135.444, 95.527 136.681 C 97.665 139.944, 97.385 140.849, 93.690 142.611 C 90.576 144.096, 90.107 144.061, 85.768 142.021 C 83.231 140.828, 79.545 138.289, 77.578 136.378 C 75.071 133.943, 74 133.384, 74 134.508 C 74 135.944, 73.684 135.926, 71 134.341 C 69.350 133.366, 68 132.013, 68 131.334 C 68 130.655, 67.366 129.740, 66.592 129.300 C 65.006 128.399, 63 118.882, 63 112.259 C 63 107.801, 64.721 99.308, 65.991 97.500 C 66.377 96.950, 66.765 91.224, 66.852 84.776 C 67.056 69.663, 67.797 70.229, 47.312 69.855 C 33.659 69.606, 31.916 69.766, 30.062 71.444 C 27.473 73.786, 27.458 75.458, 30 78 C 31.495 79.495, 33.333 80, 37.277 80 C 46.748 80, 49.307 84.063, 44.345 91.223 C 41.420 95.444, 41.500 95.868, 46.770 104.108 C 48.529 106.858, 49.210 109.709, 49.634 116.108 C 50.348 126.879, 48.879 131.604, 44 134.225 C 35.661 138.705, 32.729 145.694, 37.025 150.850 C 39.851 154.242, 44.734 153.967, 50.355 150.100 C 56.574 145.821, 61.819 145.904, 71.874 150.441 C 77.908 153.163, 80.335 153.769, 83.500 153.343 C 86.255 152.973, 90.301 153.650, 96.500 155.519 C 104.058 157.798, 107.984 158.314, 121 158.745 C 140.721 159.397, 155.403 157.688, 158.739 154.352 C 161.572 151.519, 161.607 149.028, 158.853 146.073 C 156.993 144.077, 156.091 143.855, 152.103 144.417 C 142.728 145.737, 125.571 145.792, 123 144.510 C 121.625 143.825, 119.600 143.440, 118.500 143.655 C 117.400 143.871, 114.225 144.315, 111.444 144.643 C 106.705 145.202, 106.271 145.063, 104.540 142.420 C 102.804 139.771, 102.792 139.428, 104.346 136.719 C 106.438 133.075, 106.453 130.353, 104.390 129.198 C 103.187 128.525, 102.905 127.310, 103.274 124.398 C 103.805 120.221, 104.881 117, 105.747 117 C 107.837 117, 111.899 125.844, 111.777 130.130 C 111.709 132.533, 112.482 134.041, 114.878 136.182 C 117.630 138.641, 118.374 138.873, 120.284 137.867 C 121.503 137.225, 122.831 136.205, 123.235 135.600 C 124.545 133.638, 124.043 130.123, 122.315 129.156 C 120.737 128.273, 120.738 128.048, 122.338 125.607 C 124.213 122.746, 125.167 122.484, 128.066 124.035 C 130.338 125.251, 130.511 127.742, 128.507 130.388 C 126.717 132.752, 127.943 135.379, 131.775 137.397 C 134.240 138.695, 134.858 138.632, 138.250 136.732 C 140.313 135.577, 142 134.265, 142 133.816 C 142 132.381, 145.106 132.940, 147.846 134.869 C 153.518 138.863, 159.331 138.801, 160.351 134.736 C 160.666 133.482, 160.463 128.415, 159.900 123.477 C 159.337 118.540, 158.742 108.593, 158.578 101.374 C 158.329 90.391, 157.972 87.825, 156.390 85.656 C 155.351 84.230, 154.162 83.049, 153.750 83.031 C 152.408 82.975, 152.959 79.279, 154.500 78 C 155.658 77.039, 156 74.374, 156 66.301 C 156 56.175, 155.912 55.758, 153.190 53.037 C 150.445 50.291, 150.038 50.210, 135.455 49.481 C 127.246 49.070, 115.496 49.036, 109.346 49.403 C 102.551 49.809, 97.931 49.697, 97.572 49.117 C 96.722 47.742, 99.785 45, 102.171 45 C 108.568 45, 139.349 42.746, 143.981 41.938 C 153.148 40.340, 155.715 34.972, 148.979 31.489 C 145.320 29.597, 125.160 29.581, 116.500 31.463 M 36.631 39.855 C 35.707 40.876, 35.226 42.426, 35.562 43.300 C 36.246 45.085, 45.166 52.003, 49 53.723 C 55.595 56.681, 61.618 56.206, 62.944 52.622 C 64.198 49.234, 62.323 46.700, 55.238 42.205 C 49.662 38.667, 47.792 38, 43.460 38 C 39.714 38, 37.852 38.506, 36.631 39.855 M 130 63.064 C 128.075 63.392, 120.088 63.443, 112.250 63.177 C 98.318 62.705, 98 62.741, 98 64.780 C 98 66.856, 101.127 68.658, 102.865 67.583 C 104.372 66.652, 127.331 66.800, 130.500 67.761 C 134.118 68.859, 139.857 67.536, 140.671 65.416 C 140.988 64.590, 141.027 63.694, 140.759 63.425 C 139.963 62.630, 133.768 62.421, 130 63.064 M 98.750 80.706 C 96.112 81.370, 96.648 83.613, 99.750 84.888 C 103.131 86.277, 139.852 85.685, 142.634 84.196 C 143.660 83.647, 144.939 83.187, 145.475 83.174 C 146.011 83.161, 146.611 82.666, 146.808 82.075 C 147.038 81.386, 144.895 80.990, 140.833 80.972 C 137.350 80.957, 126.850 80.791, 117.500 80.605 C 108.150 80.418, 99.713 80.464, 98.750 80.706 M 141.365 98.219 C 141.099 98.648, 140.009 99, 138.941 99 C 136.314 99, 136.497 101.354, 139.365 104.448 C 142.422 107.747, 145.121 107.682, 147.650 104.250 C 149.821 101.303, 149.719 99, 147.417 99 C 146.637 99, 146 98.578, 146 98.062 C 146 96.953, 142.065 97.086, 141.365 98.219 M 103.250 98.697 C 100.216 99.293, 100.422 101.224, 103.682 102.738 C 105.735 103.691, 107.228 103.712, 110.174 102.830 C 112.278 102.199, 114 101.353, 114 100.949 C 114 99.293, 107.329 97.896, 103.250 98.697 M 121.446 100.087 C 119.881 102.619, 123.571 103.723, 129.808 102.588 C 133.725 101.876, 133.952 101.681, 132.308 100.434 C 130.146 98.795, 122.397 98.548, 121.446 100.087 M 142.220 117.554 C 142.525 117.858, 141.974 119.752, 140.996 121.762 C 138.672 126.541, 139.673 129.500, 143.615 129.500 C 146.199 129.500, 146.479 129.188, 146.295 126.500 C 146.182 124.850, 146.025 122.037, 145.945 120.250 C 145.830 117.679, 145.369 117, 143.733 117 C 142.597 117, 141.916 117.249, 142.220 117.554" stroke="none" fill="black" fill-rule="evenodd"/>
</svg>