<svg xmlns="http://www.w3.org/2000/svg" width="256" height="256" viewBox="0 0 256 256" version="1.1">
	<path d="M 78.113 34.548 C 76.250 35.357, 71.300 36.405, 67.113 36.877 C 58.282 37.874, 46.975 42.546, 44.685 46.146 C 41.960 50.428, 40.959 68.195, 43.207 72.379 C 44.451 74.694, 44.495 97.556, 43.292 116.500 C 42.007 136.735, 42.360 138.163, 49.228 140.496 C 51.878 141.397, 53.735 141.246, 59 139.703 C 63.538 138.372, 69.273 137.722, 78 137.548 C 92.170 137.267, 98.982 135.187, 103.563 129.743 C 105.792 127.094, 105.924 126.518, 104.718 124.702 C 103.969 123.574, 101.589 122.053, 99.428 121.322 C 97.268 120.591, 94.430 118.777, 93.122 117.292 C 90.980 114.858, 90.799 113.943, 91.301 108.046 C 92.070 99.005, 93.713 92.544, 97.035 85.500 C 101.070 76.944, 101.522 74.446, 99.576 71.476 L 97.932 68.966 78.338 69.522 C 61.063 70.013, 58.530 69.885, 56.929 68.436 C 52.225 64.179, 54.308 56.051, 60.816 53.267 C 62.842 52.400, 70.079 50.420, 76.899 48.866 C 83.718 47.312, 90.123 45.294, 91.132 44.380 C 93.137 42.566, 92.856 39.254, 90.358 35.250 C 88.679 32.559, 83.394 32.256, 78.113 34.548 M 113.190 34.579 C 110.117 36.732, 108.709 41.341, 109.485 46.708 C 109.866 49.344, 110.070 54.200, 109.938 57.500 C 109.519 67.975, 109.806 79.012, 110.953 96.500 C 111.566 105.850, 111.988 115.525, 111.889 118 C 111.545 126.658, 111.608 129.600, 112.423 143 C 113.335 157.995, 114.621 161, 120.127 161 C 122.421 161, 123.065 160.423, 123.819 157.692 C 124.322 155.873, 124.515 151.162, 124.248 147.225 C 123.626 138.044, 124.584 131.786, 127.046 128.947 C 128.121 127.708, 129 126.313, 129 125.847 C 129 124.290, 131.977 124.977, 134 127 C 136.376 129.376, 139.749 129.509, 146.409 127.489 C 149.109 126.670, 153.014 126, 155.088 126 C 159.482 126, 162 123.921, 162 120.294 C 162 118.884, 162.525 114.881, 163.167 111.399 C 164.073 106.478, 164.057 103.832, 163.092 99.521 C 162.014 94.702, 160.929 93.036, 154.824 86.821 C 148.156 80.033, 147.827 79.481, 148.383 76.004 C 149.199 70.901, 152.686 62.666, 157.266 55.027 C 162.962 45.527, 162.359 40.239, 155.068 35.733 C 151.772 33.696, 150.171 33.523, 133.307 33.386 C 119.511 33.274, 114.641 33.563, 113.190 34.579 M 125.223 46.557 C 123.136 48.018, 123 48.847, 123 60.114 C 123 66.714, 122.497 75.160, 121.882 78.882 C 120.894 84.866, 121.020 86.684, 122.971 94.575 C 124.251 99.754, 125.168 106.568, 125.157 110.811 C 125.139 117.356, 125.419 118.438, 127.837 121.144 L 130.538 124.167 134.019 121.125 C 135.934 119.452, 139.598 117.579, 142.161 116.963 C 147.648 115.645, 149.215 112.994, 149.154 105.134 C 149.103 98.529, 146.117 92.885, 139.229 86.371 L 133.707 81.149 134.371 75.501 C 135.002 70.127, 136.037 67.216, 139.680 60.564 C 140.564 58.949, 141.506 55.690, 141.773 53.323 C 142.254 49.058, 142.217 48.999, 137.879 47.031 C 132.585 44.629, 128.209 44.465, 125.223 46.557 M 62.825 84.185 C 57.917 85.491, 55.491 90.308, 56.426 96.892 C 56.786 99.426, 56.969 103.525, 56.833 106 C 56.696 108.475, 56.566 113.646, 56.542 117.492 L 56.500 124.484 62.291 125.211 C 65.475 125.611, 68.770 126.627, 69.612 127.469 C 71.810 129.668, 75.724 129.384, 77.037 126.931 C 77.717 125.659, 78.045 120.172, 77.888 112.681 C 77.748 105.982, 78.002 97.702, 78.452 94.282 C 79.122 89.199, 78.969 87.602, 77.613 85.532 C 76.204 83.382, 75.241 83.016, 71.227 83.103 C 68.627 83.160, 64.846 83.647, 62.825 84.185" stroke="none" fill="black" fill-rule="evenodd"/>
</svg>