<svg xmlns="http://www.w3.org/2000/svg" width="256" height="256" viewBox="0 0 256 256" version="1.1">
	<path d="M 61 30 C 58.705 32.295, 58.617 33.081, 60.073 38.323 C 60.923 41.384, 60.832 42.607, 59.620 44.457 C 58.322 46.438, 57.081 46.826, 50.933 47.174 C 44.914 47.514, 43.457 47.952, 41.880 49.900 C 40.846 51.177, 40 53.624, 40 55.338 C 40 57.052, 39.246 61.963, 38.325 66.250 C 36.757 73.545, 36.757 74.389, 38.328 79.371 C 39.675 83.646, 39.809 85.734, 39.006 89.966 C 38.233 94.047, 38.352 96.568, 39.534 101.129 C 40.693 105.604, 40.969 110.929, 40.680 123.261 C 40.313 138.896, 40.778 142.484, 43.400 144.235 C 45.759 145.810, 58.047 145.001, 63.775 142.893 C 76.756 138.115, 80.514 138.037, 85.740 142.435 C 89.875 145.914, 93.622 146.652, 96.040 144.464 C 98.683 142.072, 98.506 138.762, 95.478 133.965 C 94.091 131.768, 91.927 127.135, 90.669 123.668 C 88.306 117.158, 83.616 110.039, 81.631 109.948 C 80.223 109.884, 86.582 107.372, 90.088 106.608 C 91.511 106.297, 93.932 105.055, 95.469 103.846 L 98.263 101.648 97.559 89.625 C 97.173 83.012, 96.890 72.040, 96.932 65.243 C 96.974 58.446, 96.546 52.021, 95.981 50.965 C 94.461 48.125, 91.827 47.049, 83.978 46.063 C 80.095 45.576, 76.262 44.632, 75.459 43.966 C 74.634 43.281, 74 41.050, 74 38.828 C 74 34.364, 71.852 29.541, 69.455 28.621 C 66.398 27.448, 62.997 28.003, 61 30 M 109.723 38.003 C 107.127 40.046, 106.996 40.571, 106.912 49.323 C 106.864 54.370, 106.525 60.750, 106.159 63.500 C 105.793 66.250, 105.853 72.100, 106.293 76.500 C 106.733 80.900, 107.255 89.675, 107.453 96 C 108.547 130.978, 109.165 142.791, 110.034 145.399 C 110.565 146.994, 111 149.624, 111 151.245 C 111 157.511, 116.852 162.851, 120.905 160.284 C 122.289 159.407, 122.452 156.972, 122.138 141.887 C 121.938 132.324, 121.656 118.631, 121.511 111.459 C 121.365 104.286, 120.888 96.411, 120.450 93.959 C 120.011 91.506, 119.772 88.150, 119.918 86.500 C 120.064 84.850, 120.280 76.853, 120.399 68.729 C 120.642 52.052, 121.359 50.046, 126.395 51.960 C 129.901 53.293, 135.821 57.797, 137.026 60.048 C 137.699 61.306, 137.235 63.127, 135.347 66.643 C 133.568 69.956, 132.580 73.620, 132.241 78.167 C 131.700 85.419, 131.324 84.699, 139.549 92.187 C 145.191 97.325, 146.354 99.696, 147.553 108.508 C 148.218 113.390, 145.903 116.390, 140.246 117.975 C 138.186 118.552, 135.675 120.166, 134.667 121.561 C 132.953 123.932, 132.940 124.260, 134.475 126.602 C 136.713 130.017, 138.252 130.423, 143.768 129.053 C 154.584 126.366, 158.852 124.829, 159.391 123.424 C 160.693 120.030, 162.193 103.843, 161.532 100.319 C 160.978 97.365, 159.272 95.037, 153.909 89.913 C 148.338 84.590, 147 82.726, 147 80.284 C 147 76.899, 151.263 63.126, 153.368 59.711 C 154.117 58.495, 155.297 55.370, 155.991 52.766 C 157.084 48.659, 157.035 47.702, 155.616 45.537 C 152.578 40.899, 148.482 39.582, 137.834 39.819 C 131.526 39.959, 126.662 39.530, 123.834 38.586 C 115.456 35.789, 112.684 35.674, 109.723 38.003 M 59.607 59.868 C 56.368 60.576, 54.395 62.981, 55.242 65.189 C 55.645 66.238, 58.862 66.976, 66.651 67.808 C 72.618 68.445, 78.647 69.234, 80.050 69.561 C 82.445 70.121, 82.615 69.904, 82.846 65.986 C 83.221 59.628, 82.166 58.982, 71.628 59.118 C 66.607 59.183, 61.198 59.521, 59.607 59.868 M 57 82.827 C 53.300 84.240, 52.442 85.052, 52.172 87.395 C 51.638 92.026, 51.826 92.084, 72 93.540 C 79.843 94.107, 80.596 93.996, 81.738 92.110 C 83.713 88.848, 81.848 85.571, 77.230 84.187 C 75.051 83.534, 72.533 83, 71.634 83 C 70.735 83, 70 82.550, 70 82 C 70 80.424, 61.953 80.936, 57 82.827 M 60.259 105.918 C 53.360 106.755, 51.686 108.519, 51.954 114.664 C 52.070 117.324, 52.135 120.494, 52.097 121.709 C 52.003 124.778, 54.566 125.959, 58.794 124.791 C 60.710 124.262, 63.734 124.103, 65.515 124.437 C 69.298 125.147, 74.198 123.571, 73.849 121.757 C 73.453 119.694, 75.069 115.718, 77.764 112.123 C 80.204 108.869, 80.227 108.704, 78.398 107.623 C 74.068 105.062, 70.261 104.704, 60.259 105.918" stroke="none" fill="black" fill-rule="evenodd"/>
</svg>