<svg xmlns="http://www.w3.org/2000/svg" width="256" height="256" viewBox="0 0 256 256" version="1.1">
	<path d="M 62.725 28.094 C 61.749 28.662, 59.995 31.160, 58.827 33.645 C 56.329 38.959, 54.025 40.082, 46.176 39.811 C 38.342 39.542, 34.049 41.948, 34.015 46.628 C 33.988 50.397, 36.580 51.336, 49.328 52.174 C 70.665 53.576, 78.432 54.372, 88.520 56.190 C 93.962 57.171, 94.946 57.068, 98.770 55.117 C 102.441 53.244, 102.996 52.533, 102.968 49.730 C 102.897 42.524, 98.224 40.110, 85.622 40.769 C 77.045 41.218, 76.080 41.080, 74.129 39.129 C 72.903 37.903, 72 35.727, 72 34 C 72 28.713, 67.063 25.569, 62.725 28.094 M 111.662 38.250 C 108.154 41.472, 107.023 45.759, 108.138 51.606 C 109.389 58.161, 109.372 124.587, 108.118 128.750 C 107.580 130.537, 107.483 132, 107.903 132 C 108.832 132, 108.787 131.636, 109.733 146.831 C 110.396 157.489, 110.771 159.361, 112.500 160.625 C 115.816 163.049, 118.830 163.342, 121.625 161.510 C 123.969 159.974, 124.169 159.374, 123.580 155.650 C 121.679 143.644, 121.063 135.952, 121.613 131.093 C 122.117 126.634, 122.289 109.368, 122.048 87.500 C 121.719 57.729, 122.358 52.450, 126.414 51.432 C 129.647 50.621, 138.098 55.795, 139.267 59.301 C 140.001 61.504, 139.648 63.074, 137.491 67.199 C 134.025 73.828, 132.657 82.976, 134.383 87.986 C 135.083 90.017, 137.755 95.137, 140.321 99.363 C 143.848 105.174, 145.027 108.142, 145.156 111.539 C 145.312 115.672, 144.953 116.388, 140.663 120.499 C 138.098 122.956, 136 125.784, 136 126.783 C 136 127.782, 135.597 129.027, 135.104 129.550 C 134.591 130.095, 134.577 131.460, 135.072 132.750 C 136.152 135.564, 139.671 135.706, 144.790 133.142 C 146.830 132.120, 149.725 130.989, 151.222 130.630 C 156.536 129.353, 157.686 126.872, 158.454 115.028 C 159.207 103.406, 158.848 101.852, 154.296 97.057 C 146.225 88.554, 146.461 81.874, 155.788 54.778 L 158.446 47.055 154.988 43.487 C 150.145 38.491, 142.926 36.458, 135.500 38 C 130.972 38.940, 129.044 38.864, 124.596 37.571 C 117.292 35.448, 114.557 35.591, 111.662 38.250 M 47.772 59.646 C 42.273 60.618, 41.220 63.576, 41.512 77.226 C 41.656 83.977, 42.085 90.253, 42.464 91.173 C 43.073 92.647, 46.359 94.621, 51 96.300 C 51.875 96.616, 51.417 96.875, 49.902 96.921 C 47.885 96.982, 46.912 97.868, 45.553 100.882 C 42.529 107.587, 45.907 111, 55.568 111 C 58.703 111, 63.008 111.521, 65.134 112.158 C 69.920 113.592, 70.213 116.064, 66.058 119.946 C 60.078 125.532, 58.096 126.299, 49.382 126.403 C 42.269 126.487, 40.832 126.808, 38.726 128.787 C 35.499 131.819, 36.147 135.404, 40.228 137.094 C 42.628 138.089, 44.740 138.098, 50.451 137.138 C 57.529 135.949, 60.781 136.305, 62.235 138.427 C 63.634 140.471, 62.926 144.518, 60.474 148.500 C 57.543 153.259, 57.415 155.719, 59.942 158.749 C 66.530 166.645, 76.556 160.196, 76.276 148.242 C 76.162 143.338, 76.490 142.356, 79.127 139.719 C 82.012 136.834, 82.338 136.756, 89.304 137.272 C 95.269 137.714, 97.039 137.476, 99.651 135.882 C 103.541 133.508, 104.222 131.876, 102.690 128.601 C 100.817 124.596, 96.178 122.596, 90.674 123.422 C 88.113 123.806, 85.676 124.137, 85.259 124.159 C 84.842 124.180, 83.825 124.520, 83 124.915 C 82.049 125.370, 80.689 124.785, 79.286 123.316 C 78.068 122.042, 77.521 121, 78.071 121 C 78.732 121, 78.737 120.376, 78.085 119.159 C 77.256 117.609, 77.740 116.976, 81.144 115.159 C 83.369 113.972, 85.962 113, 86.906 113 C 88.737 113, 93 109.521, 93 108.026 C 93 105.248, 90.739 102.104, 87.707 100.665 C 84.365 99.080, 83.501 99.068, 72 100.460 C 69.824 100.724, 67.202 100.199, 65.070 99.073 L 61.641 97.263 63.993 96.004 C 66.326 94.755, 74.195 94.507, 79 95.531 C 83.693 96.531, 91.925 96.145, 94.715 94.795 C 97.073 93.653, 97.458 92.914, 97.226 89.973 C 97.075 88.063, 96.732 82.474, 96.465 77.553 C 95.633 62.259, 93.305 61.112, 60 59.596 C 54.775 59.359, 49.272 59.381, 47.772 59.646 M 54.655 74.829 C 50.455 79.470, 54.148 82.529, 65.156 83.525 C 73.840 84.310, 78.798 83.155, 80.851 79.866 C 82.041 77.962, 81.908 77.470, 79.637 75.364 C 77.296 73.194, 76.235 73, 66.699 73 C 57.904 73, 56.056 73.281, 54.655 74.829" stroke="none" fill="black" fill-rule="evenodd"/>
</svg>