<svg xmlns="http://www.w3.org/2000/svg" width="256" height="256" viewBox="0 0 256 256" version="1.1">
	<path d="M 121.129 30.630 C 116.597 32.814, 115.109 32.734, 110.074 30.039 C 108.976 29.452, 102.443 29.371, 93.201 29.831 C 80.568 30.459, 77.786 30.884, 76.060 32.446 C 73.291 34.951, 73.464 38.148, 76.523 41.022 C 78.851 43.209, 79.797 43.379, 88.773 43.226 C 94.123 43.134, 99.319 43.311, 100.319 43.619 C 102.078 44.160, 102.078 44.224, 100.319 45.557 C 98.142 47.208, 92.639 47.412, 89.896 45.945 C 87.141 44.470, 84.406 45.585, 79.354 50.241 C 75.986 53.346, 75 54.968, 75 57.405 C 75 61.363, 77.205 64.584, 80.477 65.405 C 81.865 65.753, 83 66.465, 83 66.988 C 83 67.510, 83.675 67.678, 84.500 67.362 C 85.463 66.992, 86 67.382, 86 68.452 C 86 69.368, 85.564 69.849, 85.032 69.520 C 83.939 68.844, 78.822 73.456, 77.287 76.500 C 76.579 77.905, 76.654 79.393, 77.541 81.499 C 78.385 83.505, 78.488 85.088, 77.851 86.278 C 77.327 87.257, 76.966 90.858, 77.050 94.279 C 77.393 108.415, 74.789 117.870, 68.658 124.749 C 66.799 126.834, 66.525 126.880, 64.865 125.378 C 61.930 122.722, 60.596 117.310, 61.843 113.125 C 63.592 107.255, 65 96.825, 65 89.733 C 65 86.102, 65.424 82.014, 65.943 80.650 C 66.537 79.089, 66.530 76.882, 65.925 74.691 C 64.788 70.572, 59.853 67.701, 55.357 68.542 C 53.785 68.836, 48.370 69.172, 43.321 69.288 C 35.705 69.464, 33.662 69.863, 31.321 71.634 C 26.354 75.392, 28.967 79.372, 37.151 80.512 C 40.026 80.913, 42.595 82.005, 43.879 83.371 L 45.956 85.582 43.828 89.882 C 40.999 95.600, 41.256 99.161, 44.893 104.651 C 49.900 112.211, 50.427 114.982, 48.504 123.626 C 47.347 128.829, 46.155 131.685, 44.663 132.834 C 39.509 136.803, 31 146.076, 31 147.723 C 31 149.880, 35.183 154.606, 37.837 155.448 C 40.533 156.304, 43.614 154.901, 50.637 149.617 C 54.013 147.078, 57.639 145, 58.695 145 C 59.752 145, 64.190 146.793, 68.558 148.985 C 73.231 151.330, 77.941 152.977, 80 152.986 C 81.925 152.995, 86.875 153.700, 91 154.553 C 107.610 157.986, 119.814 158.920, 133.500 157.806 C 140.650 157.224, 148.525 156.609, 151 156.438 C 153.475 156.267, 155.858 156.099, 156.295 156.064 C 156.733 156.029, 158.195 154.895, 159.545 153.545 C 162.568 150.522, 162.992 144.333, 160.250 143.239 C 156.701 141.823, 146.363 142.976, 134.292 146.135 C 130.917 147.018, 128.730 146.904, 123.238 145.558 C 113.346 143.134, 112.680 143.092, 110.765 144.766 C 108.990 146.318, 108.626 146.306, 93 144.180 C 86.821 143.340, 80.991 140.350, 81.017 138.034 C 81.027 137.190, 81.952 133.125, 83.074 129 C 84.196 124.875, 85.261 120.375, 85.442 119 C 86.004 114.721, 86.451 113.547, 88 112.285 C 91.362 109.547, 95.749 112.188, 93.113 115.364 C 91.470 117.344, 91.642 124.129, 93.580 133.737 C 94.294 137.277, 98.330 139.279, 104.469 139.137 C 107.450 139.068, 110.166 139.459, 110.504 140.006 C 111.464 141.560, 113.495 141.204, 119.606 138.409 L 125.270 135.818 134.385 138.061 C 139.398 139.294, 146.292 140.506, 149.704 140.752 C 155.464 141.169, 156.091 141.004, 158.454 138.455 C 161.409 135.266, 161.511 134.503, 159.494 130.636 C 158.672 129.060, 158 125.868, 158 123.541 C 158 117.105, 155.550 115.386, 145.941 115.081 C 144.534 115.037, 142.571 114.407, 141.580 113.682 C 139.892 112.448, 139.884 112.259, 141.461 110.682 C 142.648 109.494, 144.840 109, 148.916 109 C 153.467 109, 155.083 108.566, 156.545 106.950 C 158.345 104.962, 158.345 104.797, 156.576 101.512 C 155.435 99.393, 154.986 97.191, 155.378 95.632 C 156.269 92.080, 154.543 88.319, 151.293 86.733 C 148.256 85.252, 146.924 85.209, 139.737 86.362 C 137.117 86.783, 134.080 86.843, 132.987 86.496 C 130.935 85.845, 130.180 83, 132.059 83 C 132.641 83, 132.840 82.550, 132.500 82 C 132.114 81.375, 134.156 81, 137.941 81 C 142.113 81, 144.005 81.389, 144.015 82.250 C 144.026 83.083, 144.354 83, 145 82 C 145.533 81.175, 145.976 80.987, 145.985 81.583 C 145.993 82.179, 146.675 82.667, 147.500 82.667 C 148.325 82.667, 149.007 82.179, 149.015 81.583 C 149.024 80.987, 149.467 81.175, 150 82 C 150.646 83, 150.974 83.083, 150.985 82.250 C 150.993 81.563, 151.891 81, 152.981 81 C 155.598 81, 156.584 76.973, 154.840 73.414 C 152.683 69.012, 149.137 67.091, 142.750 66.863 C 139.588 66.750, 137 66.285, 137 65.829 C 137 64.933, 137.602 64.855, 146.191 64.634 C 151.014 64.509, 152.349 64.040, 154.941 61.556 C 158.870 57.792, 159.068 52.852, 155.500 47.595 C 154.125 45.569, 153 43.626, 153 43.277 C 153 42.928, 154.575 41.199, 156.500 39.436 C 160.487 35.784, 160.786 34.192, 158.106 30.882 C 156.273 28.619, 155.718 28.542, 140.927 28.499 C 127.228 28.459, 125.173 28.680, 121.129 30.630 M 37.077 36.589 C 33.607 39.509, 33.176 41.978, 35.750 44.204 C 39.591 47.525, 52.935 54.895, 56.117 55.451 C 59.774 56.090, 61.114 55.519, 62.679 52.655 C 64.706 48.942, 62.963 46.181, 54.704 40.020 C 45.373 33.059, 42.042 32.411, 37.077 36.589 M 114.655 41.829 C 112.619 44.079, 112.566 45.395, 114.451 46.959 C 115.284 47.651, 116.029 50.362, 116.201 53.331 C 116.481 58.171, 116.584 58.353, 117.819 56.186 C 118.803 54.461, 118.853 53.528, 118.017 52.520 C 117.146 51.471, 117.358 51.021, 118.962 50.512 C 120.099 50.151, 120.821 49.519, 120.566 49.106 C 120.311 48.694, 121.061 47.536, 122.233 46.533 L 124.363 44.709 121.626 42.354 C 118.333 39.522, 116.844 39.410, 114.655 41.829 M 135.250 42.189 C 130.678 44.458, 134.090 46.200, 141.231 45.242 C 145.699 44.643, 149.012 42.555, 146.724 41.779 C 144.095 40.889, 137.388 41.128, 135.250 42.189 M 92.864 63.661 C 85.633 67.548, 88.117 71, 98.146 71 C 101.900 71, 103.903 67.277, 102.182 63.500 C 100.779 60.420, 98.829 60.454, 92.864 63.661 M 132.813 69.683 C 133.534 69.972, 134.397 69.936, 134.729 69.604 C 135.061 69.272, 134.471 69.036, 133.417 69.079 C 132.252 69.127, 132.015 69.364, 132.813 69.683 M 90.130 83.163 C 88.924 85.095, 89.032 85.519, 91.140 87.140 C 92.438 88.139, 93.050 88.979, 92.500 89.008 C 91.950 89.037, 92.209 89.476, 93.075 89.982 C 94.868 91.031, 99.241 90.199, 98.472 88.955 C 98.195 88.506, 98.425 87.856, 98.984 87.510 C 99.543 87.165, 100 86.201, 100 85.370 C 100 81.006, 92.522 79.333, 90.130 83.163 M 115.200 82.200 C 114.540 82.860, 114 84.243, 114 85.273 C 114 87.728, 117.344 87.169, 117.832 84.632 C 118.309 82.155, 116.717 80.683, 115.200 82.200 M 91.149 96.604 C 90.406 97.444, 89.956 98.284, 90.149 98.471 C 90.974 99.268, 93.667 99.336, 95.803 98.612 C 97.651 97.986, 97.874 97.553, 96.930 96.416 C 95.412 94.586, 92.860 94.669, 91.149 96.604 M 119.583 109.750 C 119.171 110.162, 118.421 110.556, 117.917 110.625 C 117.412 110.694, 116.550 110.806, 116 110.875 C 113.855 111.143, 115.154 113.821, 118 115 C 119.650 115.683, 121 116.638, 121 117.121 C 121 118.889, 124.974 117.935, 127.300 115.609 C 129.636 113.274, 129.646 113.187, 127.757 111.859 C 126.694 111.112, 125.414 110.612, 124.912 110.750 C 124.410 110.888, 124 110.550, 124 110 C 124 108.836, 120.685 108.648, 119.583 109.750 M 120.750 125.217 C 119.787 126.421, 119 127.730, 119 128.124 C 119 129.135, 124.738 130.280, 125.976 129.515 C 127.594 128.515, 127.178 125, 125.441 125 C 124.584 125, 124.160 124.550, 124.500 124 C 125.725 122.018, 122.459 123.078, 120.750 125.217 M 106 128 C 106 128.550, 107.013 128.993, 108.250 128.985 C 110.069 128.972, 110.213 128.784, 109 128 C 107.061 126.747, 106 126.747, 106 128" stroke="none" fill="black" fill-rule="evenodd"/>
</svg>