<svg xmlns="http://www.w3.org/2000/svg" width="256" height="256" viewBox="0 0 256 256" version="1.1">
	<path d="M 96 28.709 C 92.058 30.159, 91 32.248, 91 38.584 C 91 43.088, 90.533 45.324, 89.345 46.512 C 87.300 48.557, 83.637 50, 80.491 50 C 77.216 50, 72.479 54.200, 73.310 56.366 C 74.235 58.777, 77.974 59.881, 81.491 58.782 C 85.620 57.492, 99.826 55.996, 101.575 56.667 C 102.359 56.968, 102.998 58.178, 102.996 59.357 C 102.993 60.989, 101.862 61.934, 98.246 63.321 C 89.040 66.854, 87.081 67.946, 85.431 70.465 C 81.878 75.887, 89.224 78.440, 97.395 74.623 C 106.090 70.562, 106.850 70.492, 107.529 73.693 C 109.136 81.258, 109.437 80.666, 103.245 82.137 C 97.777 83.436, 97.313 83.800, 93.339 89.888 C 91.045 93.401, 89.404 96.889, 89.691 97.638 C 90.866 100.700, 100.244 98.511, 105.978 93.836 C 107.891 92.276, 110.227 91, 111.169 91 C 112.111 91, 113.148 90.570, 113.473 90.044 C 114.357 88.613, 116.732 89.868, 117.308 92.069 C 117.586 93.131, 117.457 94, 117.023 94 C 116.589 94, 115.998 94.900, 115.710 96 C 115.388 97.232, 114.346 98, 112.998 98 C 109.531 98, 105.446 101.547, 102.114 107.451 C 99.431 112.205, 98.556 112.981, 95.269 113.515 C 93.196 113.852, 90.466 114.549, 89.201 115.064 C 86.280 116.255, 83.819 121.794, 85.126 124.236 C 86.312 126.452, 91.687 126.575, 96.654 124.500 C 98.629 123.675, 101.068 123, 102.075 123 C 104.512 123, 109 120.910, 109 119.775 C 109 117.649, 117.600 109.001, 119.715 109 C 123.215 109, 124.145 111.961, 122.087 116.551 C 119.724 121.823, 118.387 122.753, 112.564 123.171 L 107.628 123.526 107.256 128.871 C 106.857 134.605, 108.630 138, 112.025 138 C 114.006 138, 124.175 134.826, 128.330 132.911 C 131.984 131.226, 134.557 126.032, 135.467 118.500 C 135.866 115.200, 136.654 111.938, 137.219 111.250 C 139.428 108.558, 149 110.374, 149 113.484 C 149 115.230, 155.092 120, 157.321 120 C 160.373 120, 162.175 115.732, 161.115 111.015 C 160.225 107.057, 155.754 101, 153.722 101 C 152.301 101, 141.196 92.954, 140.649 91.528 C 139.343 88.124, 144.459 74.805, 147.524 73.629 C 150.142 72.624, 148.995 67.751, 145.779 66.217 C 142.327 64.570, 138.761 66.249, 134.707 71.431 C 132.010 74.878, 128.893 75.935, 126.441 74.235 C 125.858 73.831, 124.184 71.329, 122.720 68.676 L 120.058 63.851 122.483 61.426 C 125.060 58.849, 124.081 58.972, 144.543 58.645 C 154.743 58.481, 159 56.711, 159 52.632 C 159 48.936, 155.781 46.903, 148.500 46 C 140.233 44.975, 138 43.176, 138 37.545 C 138 32.529, 136.661 31, 132.269 31 C 128.480 31, 127.714 32.209, 127.585 38.397 C 127.507 42.155, 127.211 42.592, 124 43.690 C 122.075 44.348, 117.307 44.913, 113.405 44.944 C 104.726 45.013, 103 43.640, 103 36.671 C 103 33.333, 102.429 31.429, 101 30 C 98.914 27.914, 98.473 27.800, 96 28.709 M 37.750 39.080 C 35.107 40.619, 35.616 42.503, 39.750 46.493 C 47.002 53.492, 58.348 57.252, 61.800 53.800 C 68.178 47.422, 46.357 34.067, 37.750 39.080 M 43 71.074 C 30.407 71.763, 29 72.271, 29 76.128 C 29 79.449, 30.419 80.284, 38.932 81.977 C 41.919 82.571, 44.957 83.549, 45.682 84.151 C 47.565 85.714, 47.305 88.988, 44.996 92.774 C 42.406 97.022, 42.490 98.568, 45.603 104 C 47.021 106.475, 48.829 110.400, 49.621 112.722 C 52.268 120.487, 49.591 132.037, 44.702 133.946 C 41.707 135.115, 36.027 140.860, 35.882 142.869 C 35.636 146.246, 36.176 147.566, 38.746 149.870 C 41.032 151.919, 42.096 152.167, 46.606 151.701 C 49.475 151.405, 53.012 150.383, 54.467 149.430 C 58.284 146.929, 67.359 147.090, 72.793 149.755 C 75.154 150.913, 78.529 152.142, 80.293 152.487 C 82.057 152.832, 86.200 153.754, 89.500 154.535 C 92.800 155.316, 100 156.015, 105.500 156.088 C 153.703 156.724, 161 155.716, 161 148.420 C 161 141.876, 153.084 139.589, 139.935 142.333 C 128.518 144.716, 116.336 145.225, 112.929 143.463 C 110.841 142.384, 106.434 142, 96.126 142 C 83.069 142, 81.968 141.850, 79.327 139.718 C 77.772 138.462, 74.822 136.325, 72.771 134.968 C 68.884 132.396, 67.819 130.511, 66.009 123 C 65.413 120.525, 64.255 116.925, 63.436 115 C 62.049 111.739, 62.125 110.918, 64.548 103 C 65.978 98.325, 67.383 93.537, 67.670 92.359 C 68.389 89.406, 65.261 74.833, 63.538 73.109 C 61.499 71.070, 54.948 70.421, 43 71.074" stroke="none" fill="black" fill-rule="evenodd"/>
</svg>