<svg xmlns="http://www.w3.org/2000/svg" width="256" height="256" viewBox="0 0 256 256" version="1.1">
	<path d="M 106.308 34.953 C 102.708 36.496, 100.929 40.279, 100.812 46.636 C 100.753 49.861, 101.024 66, 101.413 82.500 C 101.803 99, 102.207 121.874, 102.311 133.332 L 102.500 154.164 105.766 157.082 C 109.363 160.296, 113.032 160.825, 115.388 158.469 C 117.071 156.786, 116.919 152.117, 114.576 133.500 C 113.754 126.969, 113.351 111.066, 113.414 87.659 L 113.510 51.818 116.430 49.306 C 119.064 47.041, 120.027 46.832, 126.234 47.183 C 130.819 47.442, 133.442 48.061, 134.089 49.036 C 135.337 50.916, 134.497 60.072, 132.487 66.500 C 131.627 69.250, 130.539 74.200, 130.068 77.500 C 129.322 82.735, 129.480 83.946, 131.302 87 C 132.450 88.925, 134.090 90.920, 134.945 91.432 C 135.800 91.945, 138.372 94.231, 140.659 96.512 C 145.259 101.100, 147.331 106.444, 146.829 112.430 C 146.534 115.957, 146.016 116.625, 141.780 118.950 C 135.601 122.341, 135.131 122.883, 134.569 127.268 C 134.063 131.225, 135.691 133, 139.829 133 C 143.647 133, 154.727 128.982, 157.182 126.707 C 159.434 124.620, 159.734 123.381, 160.326 113.706 C 160.914 104.087, 160.769 102.578, 158.878 98.686 C 157.601 96.057, 155.078 93.210, 152.446 91.430 C 145.980 87.055, 143.686 82.360, 144.568 75.303 C 145.346 69.072, 148.123 61.967, 151.393 57.840 C 156.240 51.721, 157.109 50.395, 157.631 48.324 C 158.345 45.491, 156.195 41.194, 152.809 38.689 C 150.721 37.144, 147.587 36.503, 138.809 35.827 C 118.513 34.265, 108.539 33.997, 106.308 34.953 M 80.500 42.832 C 77.255 44.585, 65.115 46.007, 50 46.405 C 44.775 46.542, 39.539 47.171, 38.365 47.801 C 33.843 50.229, 34.645 58.317, 39.500 59.245 C 40.956 59.523, 44.818 59.036, 48.082 58.161 C 53.780 56.634, 54.092 56.649, 55.944 58.536 C 58.604 61.245, 60.355 74.888, 59.446 85.811 C 59.059 90.447, 58.689 97.095, 58.622 100.585 C 58.482 107.876, 56.813 110.382, 52.339 110.022 C 46.914 109.585, 42.069 109.598, 41.617 110.050 C 41.367 110.300, 40.886 111.628, 40.549 113.002 C 40.094 114.854, 40.601 116.212, 42.508 118.250 C 45.517 121.466, 49.726 121.848, 55.516 119.429 C 58.266 118.280, 62.929 117.836, 72.888 117.776 C 88.058 117.686, 90.520 117.147, 92.152 113.565 C 94.512 108.386, 88.352 101.050, 83.952 103.798 C 82.893 104.459, 79.787 105, 77.049 105 C 70.709 105, 69.951 103.686, 70.659 93.928 C 70.956 89.843, 71.266 81.177, 71.349 74.670 C 71.522 61.087, 71.671 60.833, 80.520 58.996 C 86.522 57.750, 92.809 52.933, 93.519 49.038 C 93.831 47.322, 93.157 45.730, 91.296 43.788 C 88.273 40.631, 85.096 40.350, 80.500 42.832" stroke="none" fill="black" fill-rule="evenodd"/>
</svg>