<svg xmlns="http://www.w3.org/2000/svg" width="256" height="256" viewBox="0 0 256 256" version="1.1">
	<path d="M 101 32.943 C 99.625 33.351, 95.054 33.470, 90.841 33.206 C 83.545 32.749, 83.054 32.855, 80.470 35.439 C 78.162 37.747, 77.837 38.747, 78.291 42.136 C 78.585 44.328, 78.389 47.556, 77.855 49.310 C 77.321 51.065, 76.490 55.117, 76.009 58.315 C 74.855 65.980, 69.601 73.385, 66.500 71.716 C 65.276 71.058, 58.338 70.697, 48.627 70.786 C 35.951 70.902, 32.263 71.253, 30.316 72.529 C 25.109 75.941, 29.475 80.956, 37.677 80.985 C 45.020 81.011, 47.356 86.861, 43.156 94.708 C 42.520 95.896, 42 98.038, 42 99.468 C 42 102.517, 46.576 111.969, 48.861 113.640 C 50.109 114.553, 50.408 116.536, 50.273 123.032 C 50.086 132.081, 50.856 130.811, 41.093 138.176 C 38.669 140.004, 35.752 142.759, 34.611 144.299 L 32.537 147.098 34.518 150.799 C 37.053 155.532, 41.050 156.140, 47.796 152.817 C 53.496 150.009, 62.464 149.841, 68.500 152.429 C 70.700 153.372, 76.102 154.522, 80.504 154.985 C 84.906 155.448, 92.556 156.809, 97.504 158.011 C 108.572 160.699, 129.616 160.966, 146.715 158.636 C 159.385 156.909, 162 155.892, 162 152.687 C 162 147.944, 155.558 143, 149.378 143 C 148.070 143, 147 142.550, 147 142 C 147 141.450, 147.848 141, 148.883 141 C 153.002 141, 150.965 131.075, 146.494 129.359 C 144.251 128.499, 144.696 125.485, 147.250 124.246 C 148.488 123.645, 151.509 122.924, 153.965 122.643 C 158.006 122.181, 161 120.131, 161 117.825 C 161 117.388, 159.744 115.626, 158.209 113.908 C 155.790 111.200, 154.524 110.692, 148.691 110.089 C 144.634 109.669, 141.324 108.753, 140.352 107.781 C 138.870 106.298, 138.948 105.961, 141.325 103.584 C 142.746 102.163, 144.492 100.998, 145.205 100.996 C 145.917 100.994, 147.963 100.101, 149.750 99.011 C 152.030 97.621, 153 96.279, 153 94.515 C 153 93.132, 152.634 92, 152.187 92 C 151.740 92, 148.317 90.157, 144.582 87.904 C 139.439 84.802, 137.147 83.954, 135.145 84.414 C 133.690 84.748, 131.375 85.270, 130 85.575 C 128.625 85.880, 125.530 87, 123.123 88.064 C 120.715 89.129, 117.818 90, 116.685 90 C 114.046 90, 108.168 86.030, 107.431 83.750 C 107.120 82.787, 106.358 82, 105.738 82 C 105.119 82, 106.101 80.901, 107.920 79.559 C 112.999 75.812, 114.133 73.591, 113.950 67.749 C 113.860 64.862, 114.491 60.635, 115.352 58.355 C 116.546 55.194, 116.773 52.161, 116.308 45.567 C 115.745 37.589, 115.472 36.734, 112.772 34.462 C 109.788 31.950, 105.987 31.460, 101 32.943 M 123.515 34.984 C 121.215 37.385, 120.821 38.760, 120.472 45.621 C 120.252 49.954, 119.996 54.625, 119.903 56 C 119.810 57.375, 120.252 61.425, 120.886 65 C 121.829 70.316, 122.620 72.001, 125.232 74.250 C 126.988 75.763, 129.229 77, 130.212 77 C 131.196 77, 132 77.340, 132 77.755 C 132 78.999, 138.808 80.739, 140.205 79.852 C 140.917 79.400, 144.693 79.024, 148.595 79.015 C 154.185 79.003, 156.041 78.612, 157.345 77.171 C 159.798 74.461, 159.365 71.442, 156.034 68.034 C 153.357 65.297, 152.421 64.810, 150.362 65.085 C 150.011 65.132, 149.386 64.625, 148.974 63.957 C 148.534 63.246, 147.681 63.079, 146.912 63.554 C 143.320 65.774, 137.185 63.415, 139.786 60.814 C 140.551 60.049, 142.353 60.001, 145.694 60.657 C 151.435 61.786, 154.004 61.258, 157.455 58.240 C 159.995 56.018, 160.028 55.812, 159.422 46.240 C 158.541 32.345, 158.377 32.226, 140.154 32.226 C 126.181 32.226, 126.153 32.230, 123.515 34.984 M 34.750 36.572 C 31.345 38.419, 31.129 41.893, 34.250 44.609 C 38.611 48.404, 47.781 54.077, 51.121 55.046 C 55.448 56.302, 59.609 55.396, 61.424 52.805 C 64.065 49.034, 61.935 46.645, 47.115 36.755 C 43.938 34.635, 38.469 34.554, 34.750 36.572 M 91.004 44.495 C 89.338 46.502, 92.038 50.720, 95.553 51.603 C 100.031 52.727, 103.887 47.287, 100.800 44.200 C 99.105 42.505, 92.491 42.704, 91.004 44.495 M 135.301 44.658 C 134.885 45.743, 135.584 47.106, 137.329 48.607 C 139.599 50.560, 140.431 50.746, 142.956 49.866 C 146.290 48.703, 147.975 45.233, 145.857 43.890 C 143.357 42.307, 135.998 42.841, 135.301 44.658 M 97 62 C 97 62.550, 97.450 63, 98 63 C 98.550 63, 99 62.550, 99 62 C 99 61.450, 98.550 61, 98 61 C 97.450 61, 97 61.450, 97 62 M 68.379 76.713 C 68.723 77.057, 68.259 78.162, 67.347 79.169 C 66.436 80.176, 66.118 81, 66.641 81 C 68.425 81, 68.077 88.150, 66.008 93.976 C 64.554 98.074, 64.131 100.966, 64.578 103.763 C 64.948 106.079, 64.739 108.619, 64.076 109.858 C 63.175 111.541, 63.295 112.658, 64.656 115.241 C 65.600 117.033, 66.450 120.300, 66.546 122.500 C 66.785 128.010, 68.683 134.426, 70.763 136.758 C 72.540 138.750, 77.404 140.448, 84.503 141.556 C 86.702 141.899, 89.850 143.195, 91.500 144.437 C 94.320 146.558, 95.741 146.729, 115.150 147.271 C 134.533 147.813, 136.051 147.724, 139.900 145.820 C 144.040 143.771, 145.427 141, 142.312 141 C 139.706 141, 134.151 136.786, 133.083 134 C 132.556 132.625, 131.846 130.081, 131.504 128.347 C 130.613 123.817, 126.712 122.380, 119.331 123.862 C 112.361 125.262, 111.326 126.108, 110.484 131.096 C 110.047 133.680, 108.986 135.618, 107.460 136.618 C 104.447 138.592, 88.584 139.426, 87.183 137.684 C 85.711 135.854, 87.598 132.136, 90.975 130.214 C 97.359 126.581, 93.662 121, 84.871 121 C 77.953 121, 76.555 119.781, 78.678 115.601 C 80.813 111.400, 80.285 111.678, 87.584 110.922 C 94.864 110.169, 97.382 108.215, 96.427 104.059 C 95.826 101.443, 91.311 97.003, 89.250 97.001 C 88.563 97.001, 87.966 96.662, 87.923 96.250 C 87.881 95.838, 87.693 94.691, 87.505 93.701 C 87.195 92.072, 89.531 89.222, 94.637 85 C 95.635 84.175, 96.687 83.525, 96.975 83.556 C 97.264 83.587, 98.015 83.137, 98.644 82.556 C 100.215 81.106, 94.764 79.896, 84.006 79.305 C 79.334 79.049, 75.045 78.452, 74.475 77.979 C 73.278 76.986, 67.440 75.773, 68.379 76.713 M 115 102.694 C 114.175 102.989, 112.941 103.934, 112.258 104.795 C 108.708 109.268, 120.631 112.275, 124.586 107.905 C 126.455 105.840, 126.449 105.782, 124.131 103.905 C 121.864 102.069, 118.133 101.574, 115 102.694" stroke="none" fill="black" fill-rule="evenodd"/>
</svg>