<svg xmlns="http://www.w3.org/2000/svg" width="256" height="256" viewBox="0 0 256 256" version="1.1">
	<path d="M 63.277 29.868 C 55.751 30.632, 52.592 33.138, 52.770 38.201 C 52.834 40.015, 53.129 52.492, 53.426 65.928 L 53.966 90.355 56.635 93.141 C 59.153 95.769, 59.763 95.919, 67.402 95.789 C 78.166 95.605, 89.118 96.975, 90.867 98.724 C 91.644 99.502, 92.369 102.244, 92.477 104.819 C 92.701 110.155, 91.186 111.960, 87.100 111.224 C 80.312 110.001, 62.448 109.895, 58.314 111.052 C 53.952 112.273, 53.903 112.337, 54.200 116.295 C 54.487 120.124, 54.699 120.355, 59 121.504 C 67.266 123.712, 78.443 125.327, 84.015 125.119 C 91.445 124.841, 94 127.084, 94 133.884 C 94 141.604, 89.785 143.996, 83.226 139.996 C 79.583 137.775, 72.096 137.304, 70.222 139.178 C 68.652 140.748, 52.922 141.517, 49.168 140.208 C 46.874 139.409, 45.720 139.508, 44.099 140.643 C 40.448 143.201, 42.181 151.505, 46.598 152.614 C 49.445 153.329, 66.423 153.584, 84.193 153.180 C 92.587 152.989, 98.656 153.281, 99.877 153.934 C 101.086 154.581, 109.336 155, 120.885 155 C 141.186 155, 149.728 153.716, 153.319 150.125 C 155.068 148.376, 155.084 148.064, 153.576 145.146 C 152.690 143.435, 150.552 141.303, 148.824 140.409 C 146.045 138.972, 144.595 138.929, 136.258 140.032 C 125.432 141.465, 112.767 140.733, 109.321 138.475 C 106.302 136.496, 106.340 132.878, 109.418 129.306 L 111.835 126.500 128.361 126.522 C 144.005 126.544, 144.933 126.437, 145.755 124.522 C 146.602 122.550, 145.893 115.559, 144.727 114.394 C 143.553 113.220, 122.299 112.054, 119.051 112.985 C 116.482 113.722, 114.889 113.488, 111.439 111.866 C 106.578 109.581, 105.657 107.909, 106.830 103.500 C 107.988 99.154, 111.370 98.001, 124.708 97.402 C 139.961 96.718, 140.670 96.539, 142.546 92.911 C 144.279 89.561, 144.452 85.320, 144.035 56.500 C 143.732 35.481, 143.095 33.047, 137.389 31.081 C 133.147 29.621, 75.084 28.670, 63.277 29.868 M 68 42.945 C 65.968 43.460, 65.441 44.288, 65.185 47.366 C 65.004 49.541, 65.504 52.120, 66.359 53.426 C 67.763 55.568, 68.508 55.700, 79.377 55.731 C 89.329 55.758, 91.133 55.511, 92.571 53.921 C 94.426 51.872, 93.909 45.963, 91.724 44.232 C 90.250 43.065, 71.529 42.049, 68 42.945 M 113.633 43.088 C 107.348 43.808, 106.396 44.597, 105.371 49.924 C 104.308 55.447, 106.646 56.598, 118.654 56.467 C 124.131 56.407, 129.149 56.026, 129.806 55.620 C 131.390 54.641, 131.345 45.519, 129.750 44.253 C 127.971 42.842, 120.491 42.301, 113.633 43.088 M 68.656 68.133 C 67.642 68.722, 66.174 70.733, 65.393 72.602 C 64.161 75.551, 64.167 76.463, 65.436 79.500 C 66.592 82.268, 67.484 83.020, 69.699 83.098 C 77.144 83.357, 81.737 83.918, 84.193 84.867 C 89.693 86.992, 94.571 84.497, 95.485 79.092 C 96.170 75.036, 94.103 70.105, 91.635 69.910 C 91.011 69.861, 87.843 69.638, 84.597 69.415 C 81.350 69.192, 77.075 68.560, 75.097 68.010 C 70.759 66.805, 70.946 66.802, 68.656 68.133 M 109 71.222 C 105.820 72.922, 104.006 76.722, 104.694 80.242 C 105.440 84.057, 111.234 85.631, 118.878 84.096 C 121.879 83.493, 125.593 83, 127.132 83 C 130.348 83, 132 80.659, 132 76.101 C 132 72.041, 129.787 71.012, 119.721 70.392 C 113.924 70.034, 110.763 70.279, 109 71.222" stroke="none" fill="black" fill-rule="evenodd"/>
</svg>