<svg xmlns="http://www.w3.org/2000/svg" width="256" height="256" viewBox="0 0 256 256" version="1.1">
	<path d="M 113.820 26.514 C 113.537 26.796, 105.249 27.511, 95.403 28.101 C 58.760 30.298, 57.519 30.426, 54.703 32.273 C 51.467 34.396, 51.158 37.928, 53.985 40.487 C 55.672 42.013, 58.128 42.319, 70.310 42.519 C 85.471 42.768, 89 43.320, 89 45.445 C 89 48.173, 85.670 49.500, 78.585 49.594 C 74.688 49.646, 68.350 49.999, 64.500 50.378 C 60.650 50.757, 53.929 51.283, 49.564 51.547 C 40.798 52.076, 38 53.599, 38 57.841 C 38 59.232, 38.913 61.343, 40.030 62.532 C 41.840 64.458, 42.624 64.602, 47.280 63.864 C 52.238 63.078, 80.103 63.574, 84.631 64.529 C 87.511 65.136, 88.417 69.706, 85.922 71.042 C 84.925 71.575, 81.497 71.976, 78.304 71.932 C 70.203 71.820, 62.016 73.637, 59.354 76.137 C 58.116 77.300, 56.803 79.657, 56.436 81.376 C 56.069 83.094, 55.315 85.063, 54.761 85.752 C 54.164 86.492, 54.019 89.350, 54.405 92.752 C 54.764 95.913, 55.216 100.300, 55.410 102.500 C 56.146 110.851, 59.023 114.517, 64.241 113.751 C 67.354 113.294, 74 115.557, 74 117.074 C 74 117.461, 71.065 117.778, 67.479 117.778 C 61.357 117.778, 60.782 117.979, 58.092 121.059 C 56.516 122.864, 55.367 125.052, 55.537 125.921 C 55.707 126.789, 55.881 127.802, 55.923 128.171 C 56.006 128.891, 59.819 129.870, 65.179 130.547 C 67.005 130.778, 68.987 131.632, 69.581 132.444 C 70.717 133.995, 75.175 136, 77.488 136 C 78.235 136, 80.184 134.875, 81.818 133.500 C 85.891 130.072, 88.598 130.293, 91.011 134.250 C 93.303 138.009, 93.486 140.776, 91.608 143.250 C 89.821 145.604, 84.752 145.489, 82.540 143.044 C 79.738 139.948, 73.365 139.510, 65.409 141.868 C 54.499 145.101, 50.416 145.503, 47.551 143.625 C 46.187 142.731, 44.388 142, 43.554 142 C 41.558 142, 40.566 146.196, 41.732 149.707 C 42.621 152.385, 43.028 152.537, 51.580 153.393 C 59.408 154.176, 67.851 154.353, 86.500 154.122 C 89.250 154.088, 103.425 154.247, 118 154.475 C 146.019 154.913, 150.907 154.399, 153.468 150.742 C 154.921 148.668, 154.812 148.345, 151.544 145.077 L 148.079 141.612 129.289 141.292 C 109.278 140.952, 108.190 140.875, 106.250 139.663 C 102.617 137.393, 106.989 135.790, 121.500 134.072 C 126.450 133.485, 133.324 133.004, 136.775 133.003 C 142.589 133, 143.121 132.812, 144.025 130.435 C 145.351 126.946, 145.299 126.764, 142.362 124.623 C 138.036 121.470, 126.357 118.847, 115.833 118.666 C 104.068 118.463, 101.560 117.060, 112.583 116.848 C 122.357 116.660, 121.854 116.724, 125.588 115.174 C 127.286 114.469, 129.086 113.969, 129.588 114.064 C 134.818 115.053, 137.952 111.768, 139.212 103.974 C 140.296 97.273, 140.987 80.760, 140.306 77.834 C 139.862 75.927, 135.077 74, 130.785 74 C 129.181 74, 127.046 73.560, 126.041 73.022 C 125.036 72.484, 120.228 71.852, 115.357 71.617 C 104.013 71.070, 102.769 70.600, 104.220 67.416 C 105.018 65.666, 106.172 64.971, 108.411 64.895 C 114.466 64.688, 131.629 64.938, 139.443 65.347 C 150.682 65.934, 154.654 64.216, 153.374 59.323 C 152.289 55.174, 133.810 50.853, 116.166 50.622 C 107.141 50.504, 106.748 50.403, 104.297 47.556 L 101.762 44.611 103.924 42.861 C 105.113 41.898, 107.979 40.894, 110.293 40.630 C 112.607 40.367, 118.516 39.721, 123.425 39.196 C 133.509 38.117, 135.714 36.662, 133.761 32.376 C 131.915 28.323, 127.009 26, 120.299 26 C 117.018 26, 114.102 26.231, 113.820 26.514 M 102.601 84.473 C 100.756 85.897, 100.770 85.995, 103.101 87.936 C 106.333 90.627, 118.763 90.844, 123.096 88.284 C 124.693 87.341, 126 86.260, 126 85.882 C 126 83.181, 105.848 81.968, 102.601 84.473 M 70.299 84.810 C 67.353 85.095, 67.181 85.303, 68.145 87.418 C 69.082 89.476, 70.087 89.780, 77.752 90.321 C 82.461 90.653, 86.692 90.690, 87.156 90.403 C 87.620 90.117, 88 88.982, 88 87.882 C 88 86.782, 88.450 86.160, 89 86.500 C 89.550 86.840, 90 86.641, 90 86.059 C 90 85.477, 88.987 84.923, 87.750 84.829 C 83.542 84.510, 73.511 84.499, 70.299 84.810 M 67.633 100.700 C 66.809 101.525, 69.655 104, 71.429 104 C 72.293 104, 73 104.477, 73 105.059 C 73 105.641, 73.478 105.823, 74.061 105.462 C 75.881 104.338, 81 103.834, 81 104.779 C 81 105.274, 82.155 106.205, 83.568 106.849 C 85.636 107.791, 86.554 107.726, 88.290 106.509 C 89.583 105.604, 89.894 105, 89.068 105 C 88.042 105, 88.152 104.489, 89.500 103 C 91.262 101.053, 91.246 100.998, 88.905 100.933 C 87.582 100.896, 82.376 100.707, 77.336 100.514 C 72.295 100.320, 67.929 100.404, 67.633 100.700 M 104.993 102.451 C 106.858 103.483, 107.673 103.537, 108.228 102.665 C 108.740 101.861, 108.979 101.964, 109 103 C 109.018 103.883, 109.333 104.089, 109.765 103.500 C 110.777 102.122, 113 101.779, 113 103 C 113 103.550, 113.338 103.947, 113.750 103.882 C 114.162 103.816, 115.175 103.823, 116 103.897 C 117.333 104.016, 117.333 104.138, 116 105 C 114.895 105.714, 115.553 105.969, 118.500 105.969 C 121.117 105.969, 122.031 105.672, 121.143 105.110 C 120.197 104.510, 120.122 104.043, 120.893 103.566 C 123.810 101.764, 121.211 101.003, 112.250 101.035 C 103.412 101.068, 102.733 101.200, 104.993 102.451 M 83.184 116.052 C 80.327 118.366, 80.419 120.573, 83.457 122.564 C 85.703 124.035, 86.109 124.037, 88.179 122.587 C 89.426 121.714, 90.104 121, 89.687 121 C 89.271 121, 89.364 120.188, 89.895 119.196 C 91.879 115.489, 86.812 113.114, 83.184 116.052" stroke="none" fill="black" fill-rule="evenodd"/>
</svg>