<svg xmlns="http://www.w3.org/2000/svg" width="256" height="256" viewBox="0 0 256 256" version="1.1">
	<path d="M 57.831 30.195 C 56.363 31.463, 54.219 34.408, 53.066 36.739 C 51.913 39.071, 49.356 42.446, 47.383 44.239 C 45.410 46.033, 42.648 49.525, 41.245 52 C 39.842 54.475, 36.063 60.627, 32.847 65.671 C 26.918 74.971, 26.040 77.640, 28.200 79.800 C 30.030 81.630, 33.266 81.249, 39.151 78.510 C 48.143 74.324, 53.538 75.194, 56.564 81.321 C 60.700 89.695, 56.856 91.685, 42.848 88.422 C 40.917 87.972, 39.625 88.375, 38.098 89.902 C 35.095 92.905, 35.491 95.424, 39.615 99.548 C 42.949 102.882, 43.620 103.138, 48.242 102.832 C 52.730 102.535, 53.469 102.787, 55.322 105.250 C 57.074 107.580, 57.412 109.570, 57.525 118.250 C 57.599 123.888, 57.933 129.625, 58.267 131 C 60.113 138.597, 60.085 138.844, 57.042 141.957 C 53.519 145.561, 52.274 145.684, 47.553 142.899 L 43.992 140.797 41.119 143.872 C 37.277 147.985, 36.679 150.679, 39.074 153.074 C 41.176 155.176, 42.105 155.285, 55.728 155.020 C 62.367 154.890, 66.030 154.321, 68.785 152.990 C 71.131 151.856, 75.560 150.995, 80.220 150.765 C 89.734 150.296, 91.432 149.109, 90.547 143.548 C 90.193 141.322, 89.279 137.658, 88.517 135.408 C 86.938 130.747, 86.963 130.398, 89.382 123.254 C 91.379 117.356, 90.566 112.728, 86.962 109.466 C 84.294 107.051, 84.413 106.592, 89 101.616 C 91.200 99.229, 93 96.590, 93 95.752 C 93 92.560, 81.152 89.525, 74.500 91.013 C 71.193 91.753, 68.066 90.750, 66.573 88.471 C 65.080 86.192, 65.068 85.789, 66.458 84.399 C 67.306 83.551, 68 82.498, 68 82.059 C 68 81.619, 70.138 80.708, 72.750 80.033 C 75.362 79.358, 79.638 78.086, 82.250 77.205 C 86.756 75.687, 87 75.418, 87 71.956 C 87 69.129, 87.800 67.483, 90.548 64.653 C 94.795 60.281, 98.168 59.879, 99.839 63.547 C 100.478 64.948, 101 66.542, 101 67.089 C 101 67.636, 101.941 69.077, 103.091 70.292 C 105.718 73.066, 111.217 84.062, 112.948 90 C 113.669 92.475, 114.828 95.850, 115.524 97.500 C 116.220 99.150, 117.114 102.075, 117.512 104 C 117.910 105.925, 119.082 109.272, 120.117 111.438 C 121.153 113.604, 122 116.209, 122 117.228 C 122 120.644, 117.020 126.633, 107.637 134.500 C 99.366 141.435, 94.754 151.354, 98.200 154.800 C 99.585 156.185, 104.863 156.373, 106.858 155.109 C 107.605 154.636, 111.655 150.920, 115.858 146.852 C 124.435 138.551, 128.869 136.468, 133.617 138.507 C 135.203 139.188, 139.862 142.503, 143.972 145.873 C 154.283 154.328, 159 154.149, 159 145.300 C 159 142.292, 158.427 140.522, 157.092 139.408 C 150.828 134.180, 144.863 127.773, 141.540 122.701 C 139.732 119.943, 140.291 117.668, 144.356 111.228 C 145.700 109.099, 147.532 105.199, 148.428 102.560 C 149.324 99.921, 150.566 96.811, 151.188 95.649 C 151.810 94.487, 153.125 90.603, 154.110 87.018 C 155.096 83.433, 156.855 77.836, 158.020 74.580 C 159.534 70.351, 160.299 65.210, 160.699 56.580 C 161.500 39.322, 161.968 39.755, 141.341 38.656 C 132.629 38.192, 121.063 37.742, 115.639 37.656 L 105.778 37.500 102.889 40.962 C 101.300 42.866, 100 44.934, 100 45.557 C 100 47.580, 96.415 50, 93.421 49.999 C 91.815 49.998, 86.697 48.086, 82.050 45.749 C 73.712 41.557, 73.577 41.429, 71.912 36.162 C 69.835 29.594, 69.225 28.963, 64.371 28.366 C 61.328 27.991, 59.929 28.382, 57.831 30.195 M 61.757 50.464 C 57.684 52.142, 52 58.064, 52 60.629 C 52 63.362, 53.017 63.675, 64.634 64.526 C 79.102 65.584, 81.450 62.958, 73.171 54.977 C 67.668 49.673, 65.631 48.868, 61.757 50.464 M 116.250 52.173 C 113.534 52.912, 113 53.533, 113 55.957 C 113 60.313, 115.530 62.322, 119.904 61.439 C 127.500 59.904, 130.174 61.073, 134.892 67.987 C 136.726 70.674, 138.914 73.137, 139.754 73.459 C 142.485 74.507, 145.763 71.361, 146.503 66.982 C 147.609 60.436, 145.780 57.440, 139.142 54.926 C 136.039 53.751, 131.700 52.594, 129.500 52.357 C 127.300 52.119, 124.150 51.781, 122.500 51.606 C 120.850 51.431, 118.037 51.686, 116.250 52.173 M 121.496 79.007 C 121.154 79.561, 121.829 81.356, 122.997 82.996 C 124.166 84.637, 125.660 88.571, 126.318 91.740 C 127.736 98.563, 128.527 100, 130.868 100 C 134.072 100, 136.200 97.557, 136.200 93.879 C 136.200 91.207, 135.341 89.493, 132.571 86.641 C 130.575 84.585, 129.187 82.506, 129.488 82.020 C 130.181 80.897, 126.108 78, 123.837 78 C 122.891 78, 121.838 78.453, 121.496 79.007 M 71.192 103.295 C 69.429 105.172, 69 106.826, 69 111.743 C 69 115.755, 69.499 118.356, 70.452 119.310 C 71.251 120.108, 71.626 121.040, 71.286 121.381 C 70.945 121.721, 71.443 122, 72.392 122 C 73.341 122, 73.864 121.588, 73.553 121.085 C 73.242 120.582, 73.383 120.020, 73.866 119.835 C 74.350 119.651, 75.935 117.138, 77.389 114.250 C 78.844 111.362, 80.476 109, 81.017 109 C 83.574 109, 81.679 105.207, 78.250 103.461 C 76.188 102.411, 74.249 101.419, 73.942 101.257 C 73.636 101.094, 72.398 102.012, 71.192 103.295 M 38.481 116.036 C 34.496 123.742, 38.827 137.850, 45.214 137.968 C 47.437 138.009, 52 131.282, 52 127.964 C 52 124.116, 47.210 115.208, 44.684 114.357 C 40.620 112.989, 39.965 113.166, 38.481 116.036 M 71.074 130.933 C 70.290 131.429, 69.524 133.424, 69.371 135.365 C 69.148 138.190, 69.505 139.025, 71.158 139.550 C 74.718 140.680, 77.375 135.957, 75.547 131.750 C 74.708 129.821, 73.251 129.555, 71.074 130.933" stroke="none" fill="black" fill-rule="evenodd"/>
</svg>