<svg xmlns="http://www.w3.org/2000/svg" width="256" height="256" viewBox="0 0 256 256" version="1.1">
	<path d="M 117.970 29.030 C 116.263 30.737, 116.042 31.839, 116.586 35.933 C 117.168 40.320, 117.005 40.927, 114.952 42.026 C 113.411 42.851, 110.375 43.041, 105.586 42.612 C 98.261 41.957, 92.218 43.029, 90.862 45.223 C 90.434 45.916, 90.325 47.612, 90.619 48.992 C 91.748 54.269, 93.302 56.047, 97.772 57.173 C 100.191 57.782, 102.387 58.845, 102.652 59.535 C 103.775 62.463, 97.664 79.564, 92.685 87.426 C 88.751 93.638, 88.671 94.342, 91.588 97.082 C 94.698 100.005, 100.644 99.953, 102.723 96.985 C 106.288 91.896, 108.130 91, 115.028 91 C 121.185 91, 121.765 91.189, 122.839 93.547 C 124.638 97.494, 124.249 99.388, 121 102.500 C 119.350 104.081, 118 105.750, 118 106.209 C 118 106.667, 116.818 108.830, 115.373 111.013 C 112.965 114.651, 112.483 114.921, 109.623 114.242 C 107.905 113.834, 102.905 113.537, 98.511 113.583 C 90.410 113.666, 89.061 113.163, 87.579 109.500 C 86.416 106.625, 84.832 86.011, 84.988 75.778 C 85.167 63.999, 83.555 60.539, 76.975 58.585 C 70.923 56.788, 67 54.248, 67 52.128 C 67 49.296, 73.688 44.002, 77.284 43.986 C 82.572 43.964, 84.793 42.963, 85.461 40.300 C 86.238 37.205, 84.010 33.540, 80.241 31.713 C 76.316 29.810, 34.513 30.168, 30.387 32.139 C 24.423 34.989, 26.953 39.898, 35.500 42.062 C 41.812 43.660, 47 46.182, 47 47.652 C 47 48.629, 48.607 49, 52.833 49 C 59.365 49, 59.996 49.297, 59.280 52.037 C 58.671 54.367, 54.408 54.409, 51.691 52.113 C 50.250 50.894, 49.540 50.828, 48.191 51.786 C 47.261 52.447, 43.023 54.790, 38.773 56.993 C 34.524 59.196, 30.425 62.012, 29.664 63.249 C 26.839 67.848, 25.576 79.314, 26.908 88.266 C 27.868 94.721, 27.877 98.485, 26.948 105.468 C 25.615 115.480, 26.298 128.349, 28.488 134.500 C 29.271 136.700, 29.932 141.684, 29.956 145.576 C 29.994 151.609, 30.331 152.952, 32.250 154.694 C 35.714 157.840, 38.531 158.065, 53.562 156.399 C 61.228 155.549, 70.224 154.907, 73.553 154.973 C 78.231 155.066, 79.978 154.681, 81.246 153.281 C 83.256 151.060, 86.168 137.500, 85.875 131.728 C 85.681 127.909, 87.503 123, 89.115 123 C 89.463 123, 91.718 123.710, 94.124 124.578 C 96.531 125.446, 102.202 126.507, 106.726 126.936 C 117.560 127.963, 118.305 128.640, 117.445 136.673 C 116.390 146.519, 117.647 155.140, 120.601 158.326 C 123.754 161.726, 128.416 161.960, 130.105 158.803 C 131.513 156.173, 131.533 147.798, 130.151 139.357 C 128.238 127.673, 129.087 126.881, 145.462 125.055 C 156.045 123.875, 161 121.975, 161 119.097 C 161 115.337, 157.844 114.194, 139.093 111.166 C 133.164 110.208, 130.728 108.029, 131.208 104.112 C 131.393 102.594, 132.715 101.073, 134.829 99.944 C 136.661 98.966, 138.978 97.425, 139.979 96.519 C 142.544 94.197, 147.252 94.331, 150.756 96.826 C 157.706 101.775, 164 101.601, 164 96.459 C 164 91.472, 160.776 87.667, 153.478 84.041 C 148.138 81.387, 146 77.563, 146 70.661 C 146 67.619, 145.540 63.921, 144.979 62.443 C 143.594 58.802, 144.959 57.389, 151.142 56.063 C 153.898 55.472, 157.019 54.525, 158.077 53.959 C 160.536 52.643, 160.542 48.892, 158.090 45.861 C 156.124 43.431, 155.465 43.354, 133.750 43.026 C 130.724 42.981, 128.200 39.505, 128.200 35.384 C 128.200 32.495, 127.555 31.014, 125.544 29.284 C 122.272 26.469, 120.587 26.413, 117.970 29.030 M 115.078 62 C 115.127 63.925, 114.754 67.336, 114.249 69.581 C 113.073 74.803, 113.790 76.596, 119.123 81.772 C 123.844 86.353, 125.570 86.791, 129.966 84.517 C 133.457 82.712, 134.410 79.133, 133.449 71.440 C 132.963 67.550, 133.148 65.092, 134.054 63.398 C 136.053 59.663, 134.255 58.805, 124.088 58.644 L 114.987 58.500 115.078 62 M 41.503 75.355 C 39.079 79.055, 38.863 85.245, 41.034 88.815 C 42.063 90.508, 42.720 92.860, 42.492 94.042 C 42.264 95.223, 42.736 97.194, 43.540 98.421 C 44.884 100.473, 44.752 101.031, 41.906 105.328 C 38.078 111.108, 37.296 116.280, 39.290 122.640 C 40.342 125.997, 40.593 129.046, 40.102 132.500 C 39.348 137.800, 40.696 142.286, 43.348 143.303 C 45.300 144.053, 48.791 143.578, 53.259 141.956 C 56.344 140.836, 57.778 140.818, 61.259 141.855 C 69.864 144.419, 69.771 144.425, 71.765 141.145 C 73.679 137.998, 73.850 131.473, 72.140 126.849 C 71.628 125.466, 71.822 123.659, 72.662 121.975 C 75.477 116.333, 75.361 111.017, 72.216 101.500 L 69.242 92.500 71.123 88.787 C 73.140 84.804, 73.153 78.094, 71.148 75.679 C 70.526 74.929, 70.313 74.020, 70.675 73.658 C 71.037 73.296, 70.133 73, 68.667 73 C 67.200 73, 66.071 73.338, 66.159 73.750 C 66.246 74.162, 65.961 75.318, 65.526 76.318 C 64.263 79.216, 65.715 90.923, 67.500 92.235 C 68.065 92.650, 67.738 92.976, 66.750 92.985 C 65.787 92.993, 65 93.450, 65 94 C 65 95.447, 50.923 95.243, 47.707 93.750 C 46.227 93.063, 45.012 91.728, 45.008 90.784 C 44.995 88.051, 48.240 82, 49.717 82 C 51.698 82, 52.907 77.890, 51.704 75.250 C 50.215 71.982, 43.669 72.049, 41.503 75.355 M 54.500 119.208 C 51.954 120.668, 50.342 122.772, 49.081 126.281 C 48.201 128.733, 48.449 129.412, 51.190 132.031 C 56.163 136.784, 63.212 135.629, 67.040 129.435 C 68.581 126.942, 68.816 125.646, 68.079 123.707 C 66.175 118.699, 59.338 116.433, 54.500 119.208" stroke="none" fill="black" fill-rule="evenodd"/>
</svg>