<svg xmlns="http://www.w3.org/2000/svg" width="256" height="256" viewBox="0 0 256 256" version="1.1">
	<path d="M 89.496 30.004 C 88.498 31.107, 86.291 34.130, 84.591 36.723 C 82.437 40.009, 79.616 42.508, 75.285 44.969 C 71.867 46.911, 68.563 49.400, 67.944 50.500 C 66.262 53.485, 58.101 59.420, 50.225 63.387 C 46.391 65.318, 42.971 67.632, 42.627 68.531 C 40.672 73.624, 43.980 77.650, 49.211 76.542 C 55.825 75.140, 63.435 74.819, 66.924 75.794 C 68.891 76.344, 75.185 77.885, 80.912 79.218 C 92.629 81.947, 93.687 82.961, 91.487 89.361 C 89.121 96.243, 88.337 96.611, 74.234 97.456 C 67.230 97.876, 60.375 98.322, 59 98.448 C 57.625 98.573, 55.072 98.354, 53.327 97.961 C 51.426 97.532, 49.723 97.677, 49.077 98.323 C 47.500 99.900, 47.847 104.989, 49.805 109 C 51.316 112.096, 52.056 112.562, 56.215 113.041 C 58.800 113.339, 61.268 113.934, 61.697 114.364 C 62.127 114.794, 62.331 118.024, 62.150 121.543 C 61.877 126.855, 62.192 128.462, 64.012 131.017 C 65.217 132.709, 66.435 135.827, 66.720 137.946 C 67.163 141.255, 66.882 142.031, 64.724 143.445 C 62.169 145.119, 57.874 144.805, 55.268 142.754 C 54.590 142.221, 52.184 141.744, 49.922 141.694 C 46.673 141.623, 45.412 142.119, 43.926 144.052 C 41.555 147.137, 41.476 151.226, 43.750 153.241 C 45.836 155.090, 50.017 155.212, 108.743 155.133 C 136.120 155.096, 150.661 154.717, 151.993 154.004 C 155.068 152.358, 154.578 147.928, 150.935 144.437 C 148.099 141.720, 147.279 141.492, 139.959 141.392 C 135.202 141.328, 131.440 140.780, 130.524 140.020 C 128.118 138.023, 128.733 134.374, 132.127 130.509 C 134.733 127.541, 135.160 126.374, 134.694 123.500 C 133.028 113.237, 128.498 111.337, 122.382 118.335 C 117.696 123.697, 114.494 129, 115.943 129 C 117.842 129, 117.155 136.845, 115.074 138.926 C 111.209 142.791, 106.409 139.247, 107.404 133.264 C 108.271 128.060, 108.327 126.504, 107.938 118.500 L 107.598 111.500 111.172 109.728 C 114.526 108.066, 115.307 108.053, 123.846 109.527 C 134.073 111.292, 139.922 110.377, 142.569 106.599 C 144.575 103.734, 144.366 102.275, 141.545 99.455 C 139.670 97.579, 138.034 97, 134.611 97 C 132.146 97, 128.863 96.517, 127.315 95.926 C 125.767 95.335, 121.350 94.636, 117.500 94.372 C 106.630 93.628, 102.787 91.326, 104.586 86.637 C 105.232 84.954, 111.960 82.684, 119.995 81.438 C 122.686 81.021, 125.888 79.589, 127.973 77.871 C 132.233 74.359, 133.396 74.330, 141.270 77.539 C 147.815 80.206, 151.064 80.138, 154.250 77.267 C 155.213 76.400, 155.985 74.522, 155.967 73.095 C 155.903 68.099, 150.303 63.854, 142 62.506 C 134.824 61.342, 130.879 59.277, 125 53.608 C 121.975 50.691, 117.925 47.256, 116 45.975 C 111.149 42.746, 109.003 40.395, 108.985 38.292 C 108.964 35.819, 108.088 34.646, 103.605 31.084 C 98.827 27.286, 92.401 26.795, 89.496 30.004 M 94 46.736 C 89.794 49.479, 83.978 55.344, 82.472 58.358 C 80.718 61.872, 82.032 64.987, 85.285 65.027 C 86.503 65.043, 91.550 65.328, 96.500 65.662 C 114.631 66.885, 114.460 66.905, 114.798 63.462 C 115.029 61.095, 113.940 58.886, 109.863 53.462 C 106.986 49.633, 104.152 46.169, 103.566 45.765 C 101.743 44.509, 96.617 45.029, 94 46.736 M 69.715 110.134 L 66.931 112.217 69.956 115.109 C 71.620 116.699, 73.383 118, 73.874 118 C 75.413 118, 79.844 128.335, 79.877 132 C 79.923 137.312, 80.746 140.088, 82.714 141.582 C 85.313 143.553, 89.704 143.296, 91.959 141.041 C 93.731 139.269, 93.896 137.836, 93.687 126.046 C 93.391 109.332, 92.945 108.720, 80.768 108.322 C 73.689 108.090, 72.100 108.350, 69.715 110.134" stroke="none" fill="black" fill-rule="evenodd"/>
</svg>