<svg xmlns="http://www.w3.org/2000/svg" width="256" height="256" viewBox="0 0 256 256" version="1.1">
	<path d="M 52.069 29.750 C 50.343 31.813, 48.478 34.063, 47.926 34.750 C 47.373 35.438, 45.476 36.037, 43.711 36.082 C 35.170 36.301, 29 38.993, 29 42.500 C 29 46.221, 34.428 48.402, 44 48.526 C 51.733 48.626, 58 50.181, 58 52 C 58 53.194, 52.892 55.056, 48.123 55.601 C 45.580 55.892, 42.496 56.332, 41.268 56.579 C 38.478 57.142, 36.029 61.701, 36.682 65.119 C 36.954 66.540, 36.714 69.375, 36.150 71.419 C 35.466 73.895, 35.430 80.204, 36.042 90.318 C 37.260 110.463, 37.515 111.703, 40.795 113.370 C 43.768 114.882, 54.859 117, 59.801 117 C 62.135 117, 62.794 117.372, 62.379 118.455 C 61.666 120.312, 52.966 122.706, 46.567 122.805 C 37.952 122.940, 31.642 128.073, 35.435 131.862 C 36.627 133.052, 38.900 133.500, 43.748 133.500 C 49.986 133.500, 50.520 133.679, 51.960 136.250 C 54.244 140.328, 51.927 143.913, 45.474 146.286 C 39.704 148.409, 37.385 150.441, 36.475 154.169 C 35.945 156.342, 36.320 157.163, 38.489 158.585 C 41.058 160.268, 41.343 160.249, 46.327 158.072 C 49.172 156.830, 53.975 155.139, 57 154.315 C 63.879 152.440, 64.795 151.676, 67.569 145.500 C 69.762 140.616, 73.620 136.287, 74.762 137.428 C 75.076 137.743, 75.054 138, 74.712 138 C 74.370 138, 75.129 139.038, 76.398 140.307 C 77.666 141.576, 78.884 143.060, 79.102 143.606 C 79.518 144.644, 91.962 149, 94.513 149 C 95.321 149, 96.545 149.900, 97.232 151 C 97.991 152.215, 99.564 153, 101.241 153 C 103.440 153, 103.997 152.543, 103.985 150.750 C 103.962 147.345, 102.863 146.253, 98.674 145.467 C 95.440 144.860, 94.530 144.086, 92.755 140.433 C 90.958 136.735, 90.854 135.881, 92.027 134.468 C 93.124 133.146, 94.434 132.949, 98.635 133.474 C 102.772 133.991, 104.466 133.749, 106.687 132.327 C 111.129 129.483, 112.180 128.142, 111.543 126.135 C 110.376 122.457, 107.344 120.760, 102.294 120.958 C 85.504 121.617, 77.272 121.129, 75.515 119.372 C 74.813 118.670, 73.960 118.374, 73.619 118.714 C 73.279 119.055, 73 118.908, 73 118.388 C 73 116.454, 85.398 113.542, 93.721 113.521 C 100.693 113.503, 102.258 113.184, 104.020 111.423 C 105.163 110.281, 106.098 108.481, 106.098 107.423 C 106.097 106.365, 106.146 99.425, 106.205 92 C 106.264 84.575, 106.317 76.925, 106.322 75 C 106.327 73.075, 105.969 68.708, 105.528 65.295 C 104.524 57.544, 102.501 55.485, 95.077 54.658 C 89.033 53.984, 87.632 53.124, 88.574 50.667 C 89.281 48.826, 91.636 48.614, 97.147 49.895 C 99.867 50.528, 102.145 50.267, 106.109 48.872 C 109.032 47.842, 111.761 47, 112.173 47 C 114.883 47, 116.537 71.660, 117.471 126 C 117.906 151.285, 118.340 155.562, 120.787 158.689 C 123.169 161.733, 127.274 162.583, 129.388 160.469 C 130.806 159.051, 131.020 156.920, 130.781 146.574 C 130.572 137.500, 130.865 133.664, 131.919 131.677 C 133.435 128.817, 136.590 128.175, 140.043 130.023 C 141.429 130.765, 142.954 130.628, 145.589 129.527 C 148.086 128.484, 150.831 128.197, 154.362 128.612 C 161.802 129.485, 162.577 128.246, 163.390 114.187 C 164.207 100.043, 163.377 96.843, 156.475 87.510 L 151.080 80.214 153.040 73.360 C 154.118 69.591, 155 65.431, 155 64.116 C 155 62.802, 156.834 57.955, 159.075 53.347 L 163.149 44.967 161.325 41.265 C 160.044 38.667, 158.026 36.813, 154.553 35.046 C 150.272 32.866, 148.187 32.508, 139.053 32.386 C 133.249 32.308, 125.956 31.912, 122.847 31.506 L 117.193 30.768 114.847 34.885 C 113.556 37.150, 111.752 39.244, 110.838 39.541 C 108.220 40.389, 97.675 36.279, 96 33.758 C 93.475 29.957, 90.175 27, 88.459 27 C 87.561 27, 84.376 29.470, 81.381 32.489 C 75.270 38.649, 72.663 39.704, 67.642 38.047 C 65.089 37.204, 63.768 35.930, 62.616 33.202 C 59.132 24.946, 56.743 24.165, 52.069 29.750 M 128.785 47.573 C 127.899 49.518, 127.882 53.115, 128.717 62.323 C 129.324 69.020, 129.974 75.164, 130.161 75.976 C 130.504 77.472, 132.482 80, 133.307 80 C 133.960 80, 135.767 75.044, 136.547 71.111 C 136.917 69.248, 138.544 65.310, 140.162 62.361 C 141.780 59.413, 142.867 57, 142.577 57 C 142.287 57, 142.500 55.814, 143.051 54.365 C 144.428 50.743, 142.097 47.399, 137.259 46.055 C 131.592 44.481, 130.069 44.754, 128.785 47.573 M 67.983 53.479 C 68.752 54.407, 70.436 54.972, 71.914 54.801 C 75.898 54.337, 74.975 52.539, 70.568 52.179 C 67.040 51.891, 66.775 52.024, 67.983 53.479 M 48.750 68.080 C 45.472 69.989, 47.262 75, 51.221 75 C 53.780 75, 55.706 70.555, 54.025 68.530 C 52.558 66.763, 51.209 66.648, 48.750 68.080 M 83.484 69.049 C 82.568 71.935, 85.472 76, 88.450 76 C 90.147 76, 91.316 75.074, 92.425 72.850 C 94.456 68.779, 93.093 67, 87.945 67 C 84.983 67, 83.990 67.456, 83.484 69.049 M 68.583 70.283 C 66.085 74.183, 63.729 85.072, 64.617 88.612 C 65.403 91.742, 69.624 93.272, 73.993 92.010 C 78.614 90.674, 78.619 90.675, 80.876 93.097 C 82.126 94.439, 82.739 96.329, 82.579 98.347 C 82.094 104.456, 87.873 105.368, 91.969 99.829 C 94.302 96.672, 94.236 92.807, 91.757 87.365 C 90.733 85.119, 90.131 84.927, 84.731 85.121 C 80.544 85.272, 78.559 84.922, 77.912 83.917 C 76.812 82.208, 74.926 75.589, 74.559 72.144 C 74.175 68.540, 70.443 67.378, 68.583 70.283 M 130.555 85.250 C 129.190 88.852, 129.130 90.263, 130.163 94.500 C 130.833 97.250, 131.408 103.775, 131.441 109 C 131.473 114.225, 131.864 119.063, 132.309 119.750 C 133.500 121.591, 135.685 121.294, 141.618 118.487 C 146.308 116.269, 147.066 115.478, 148.096 111.737 C 149.678 105.988, 149.394 101.513, 147.043 95.100 C 145.067 89.711, 139.150 83, 136.374 83 C 135.618 83, 135 82.550, 135 82 C 135 81.450, 134.362 81, 133.583 81 C 132.803 81, 131.441 82.912, 130.555 85.250 M 50.483 85.385 C 48.019 89.146, 48.270 101.714, 50.860 104.304 C 52.526 105.970, 53.158 106.033, 56.915 104.907 C 60.294 103.895, 62.079 103.898, 66.087 104.926 C 71.653 106.352, 76 105.719, 76 103.481 C 76 102.666, 76.550 102, 77.223 102 C 80.278 102, 73.810 99.041, 69.895 98.648 C 63.086 97.965, 62 97.236, 62 93.348 C 62 89.778, 58.420 85, 55.745 85 C 55.005 85, 53.902 84.502, 53.293 83.893 C 52.484 83.084, 51.728 83.485, 50.483 85.385" stroke="none" fill="black" fill-rule="evenodd"/>
</svg>