<svg xmlns="http://www.w3.org/2000/svg" width="256" height="256" viewBox="0 0 256 256" version="1.1">
	<path d="M 57.415 26.894 C 54.653 28.574, 52.648 31.052, 43.360 44.266 C 41.904 46.338, 39.246 51.930, 37.454 56.694 C 35.417 62.110, 32.718 67.072, 30.251 69.936 C 26.873 73.858, 26.452 74.846, 27.324 76.800 C 28.166 78.688, 28.852 78.972, 31.279 78.439 C 32.894 78.084, 35.804 76.715, 37.747 75.397 C 45.135 70.383, 54.047 72.987, 55.571 80.604 C 56.613 85.817, 53.521 87.068, 43.364 85.544 C 38.872 84.869, 37.962 85.038, 36.114 86.886 C 31.469 91.531, 35.221 97, 43.054 97 C 53.201 97, 56.081 103.867, 55.219 126 C 55.144 127.925, 55.069 131.484, 55.053 133.909 C 55.004 140.892, 49.690 144.547, 45.571 140.429 C 43.564 138.421, 43.596 137.790, 45.851 134.885 C 49.796 129.802, 50.174 128.275, 48.612 123.745 C 45.224 113.923, 42.034 110.220, 38.051 111.484 C 35.864 112.178, 34.419 119.870, 35.472 125.210 C 36.269 129.249, 40.006 137, 41.157 137 C 42.907 137, 41.895 139.605, 39.133 142.212 C 36.244 144.939, 34.583 149.751, 35.609 152.424 C 36.423 154.545, 44.775 156.071, 49.535 154.967 C 51.716 154.461, 55.820 154.037, 58.655 154.024 C 63.064 154.003, 64.417 153.493, 68 150.500 C 71.653 147.448, 72.882 147, 77.595 147 C 85.803 147, 87.091 145.236, 86.923 134.222 C 86.850 129.425, 87.101 123.443, 87.482 120.929 C 87.881 118.291, 87.689 114.558, 87.028 112.103 C 85.061 104.799, 88.053 103.317, 96.866 107.229 C 103.271 110.072, 104.458 112.478, 102.976 119.614 C 102.103 123.822, 102.196 127.120, 103.419 135.225 C 104.272 140.876, 105.089 147.297, 105.235 149.493 C 105.592 154.872, 108.740 156.518, 115.678 154.954 C 119.174 154.166, 124.872 154.180, 136.394 155.004 C 149.389 155.933, 152.524 155.900, 153.580 154.820 C 154.301 154.082, 155.154 149.765, 155.512 145.031 C 155.865 140.373, 156.366 136.217, 156.627 135.795 C 157.915 133.710, 158.854 123.305, 158.069 119.810 C 157.521 117.371, 157.610 113.484, 158.309 109.406 C 159.639 101.640, 158.957 100.074, 153.402 98.144 C 150.249 97.048, 148.112 97.012, 142.266 97.956 C 133.654 99.348, 129.692 98.132, 129.203 93.947 C 128.973 91.977, 129.866 90.647, 133.203 87.997 C 135.567 86.120, 138.064 83.811, 138.754 82.867 C 139.443 81.923, 142.414 78.305, 145.356 74.826 C 154.672 63.806, 158.296 55.300, 156.583 48.474 C 155.621 44.642, 148.272 41.574, 142.037 42.401 C 137.288 43.031, 131.142 41.621, 129.765 39.586 C 129.361 38.989, 129.024 37.017, 129.015 35.205 C 128.997 31.234, 125.211 27, 121.680 27 C 118.180 27, 114.077 30.655, 111.915 35.698 C 110.879 38.114, 108.962 41.534, 107.654 43.296 C 106.346 45.058, 103.819 49.279, 102.038 52.677 C 99.299 57.901, 91.335 66.925, 87.378 69.290 C 86.760 69.659, 84.781 68.551, 82.978 66.829 C 80.292 64.262, 79.911 63.409, 80.865 62.099 C 85.117 56.259, 85.993 54.165, 85.996 49.839 C 85.999 45.814, 85.560 44.808, 82.779 42.467 C 81.007 40.976, 78.038 39.032, 76.181 38.146 C 74.179 37.192, 72.024 35.007, 70.889 32.783 C 67.643 26.420, 62.146 24.017, 57.415 26.894 M 56.241 47.250 C 51.761 52.032, 49.422 59.907, 52.008 61.505 C 53.626 62.505, 73.973 62.427, 74.983 61.417 C 76.493 59.907, 72.676 52.828, 68.153 48.750 C 63.275 44.352, 59.412 43.865, 56.241 47.250 M 118.836 55.196 C 112.982 60.258, 111.861 66.596, 115.886 71.875 C 118.136 74.826, 121.863 74.946, 125.732 72.191 C 130.279 68.953, 137 61.227, 137 59.238 C 137 56.754, 132.378 54.243, 126.449 53.507 C 122.204 52.980, 121.121 53.220, 118.836 55.196 M 82.938 75.591 C 79.584 80.465, 79.343 80.574, 76.559 78.468 C 74.218 76.697, 67.867 76.533, 66.200 78.200 C 65.540 78.860, 65 80.644, 65 82.165 C 65 87.466, 72.078 88.259, 75.910 83.388 C 78.619 79.943, 81.308 80.394, 84.364 84.804 C 85.814 86.896, 87 89.114, 87 89.732 C 87 92.038, 90.234 94, 94.034 94 C 99.355 94, 108.736 90.332, 110.569 87.536 C 111.941 85.440, 111.884 84.918, 109.916 81.583 C 107.455 77.411, 103.478 75, 99.060 75 C 97.389 75, 93.760 74.141, 90.996 73.091 L 85.971 71.181 82.938 75.591 M 67.182 94.569 C 66.248 95.626, 66.055 97.593, 66.520 101.316 C 67.235 107.038, 67.955 117.021, 68.140 123.779 C 68.213 126.469, 67.652 128.727, 66.628 129.858 C 64.702 131.986, 64.579 133.983, 66.161 137.453 C 67.545 140.491, 70.938 140.830, 73.345 138.171 C 75.448 135.847, 75.563 126.988, 73.540 123.077 C 72.737 121.524, 72.319 120.014, 72.612 119.721 C 72.905 119.428, 73.377 117.684, 73.662 115.844 C 74.323 111.570, 77.971 105, 79.684 105 C 82.794 105, 79.390 100.139, 73.320 95.911 C 68.497 92.552, 68.887 92.638, 67.182 94.569 M 123.792 110.925 C 121.203 111.287, 118.737 111.929, 118.314 112.353 C 117.890 112.776, 117.166 117.033, 116.703 121.812 C 114.707 142.455, 114.474 142, 127.089 142 C 137.217 142, 142.538 140.352, 143.882 136.798 C 145.065 133.668, 146.300 117.522, 145.540 115.127 C 144.160 110.779, 136.051 109.212, 123.792 110.925" stroke="none" fill="black" fill-rule="evenodd"/>
</svg>