<svg xmlns="http://www.w3.org/2000/svg" width="256" height="256" viewBox="0 0 256 256" version="1.1">
	<path d="M 59.240 28.544 C 58.027 29.394, 55.595 32.206, 53.836 34.794 C 52.077 37.383, 49.031 41.358, 47.068 43.628 C 45.106 45.898, 41.533 51.523, 39.128 56.128 C 36.723 60.733, 33 67.098, 30.855 70.273 C 27.646 75.020, 27.142 76.396, 28.012 78.023 C 29.475 80.757, 33.841 80.560, 39.596 77.500 C 47.751 73.164, 53.049 74.555, 55.503 81.678 C 57.504 87.483, 56.224 88.387, 47.166 87.566 C 40.970 87.005, 39.467 87.173, 37.886 88.603 C 32.645 93.346, 37.986 99.599, 48.374 100.881 C 52.642 101.408, 53.665 101.971, 55.232 104.655 C 57.989 109.379, 57.929 120.483, 55.131 123.260 C 54.135 124.249, 52.722 123.233, 48.160 118.250 C 45.014 114.812, 41.977 112, 41.412 112 C 40.847 112, 39.598 113.783, 38.637 115.962 C 37.304 118.982, 37.144 120.400, 37.962 121.929 C 39.011 123.890, 42.962 135.859, 42.987 137.155 C 42.994 137.516, 41.425 139.696, 39.500 142 C 35.794 146.436, 34.934 150.871, 37.386 152.906 C 38.870 154.137, 42.463 154.285, 56.180 153.679 C 63.661 153.348, 65.270 152.950, 67.829 150.798 C 70.292 148.725, 72.198 148.204, 79.027 147.736 C 89.852 146.994, 90.763 146.130, 88.963 138.313 C 88.227 135.116, 87.770 130.475, 87.948 128 C 88.504 120.243, 88.406 110.593, 87.748 108.250 C 87.400 107.013, 87.468 106, 87.899 106 C 88.853 106, 91 99.117, 91 96.057 C 91 94.841, 89.685 92.531, 88.077 90.923 C 84.577 87.423, 79.764 87.056, 76 90 C 72.429 92.793, 69.489 92.495, 67.068 89.096 C 64.454 85.424, 64.471 83.943, 67.167 80.515 C 69.131 78.017, 69.772 77.813, 74.044 78.319 C 76.635 78.626, 79.660 78.640, 80.765 78.351 C 82.639 77.861, 84.983 73.713, 86.556 68.102 C 87.291 65.480, 93.296 59, 94.991 59 C 97.771 59, 100.931 74.798, 99.792 83 C 99.372 86.025, 99.352 93.225, 99.747 99 C 101.089 118.597, 99.909 130.433, 95.885 137.735 C 92.320 144.203, 92.331 145.623, 95.977 149.886 C 98.338 152.647, 99.585 153.273, 102.723 153.273 C 104.840 153.273, 107.996 152.536, 109.736 151.636 C 111.477 150.736, 114.033 150, 115.416 150 C 119.754 150, 124.819 146.901, 126.594 143.161 C 128.172 139.835, 128.161 139.590, 126.378 138.259 C 125.001 137.231, 122.883 137.026, 118.438 137.488 C 112.738 138.081, 112.311 137.977, 111.294 135.745 C 110.511 134.027, 110.523 132.838, 111.336 131.436 C 111.998 130.296, 112.517 123.869, 112.599 115.810 C 112.709 104.844, 113.049 101.808, 114.305 100.552 C 116.517 98.340, 120.517 100.323, 122.023 104.380 C 122.660 106.096, 124.001 109.300, 125.003 111.500 C 126.005 113.700, 127.280 117.194, 127.836 119.265 C 128.392 121.335, 130.006 124.407, 131.423 126.091 C 132.841 127.776, 134 129.812, 134 130.617 C 134 133.696, 138.089 139.892, 141.520 142.012 C 143.490 143.230, 145.849 145.366, 146.762 146.760 C 149.080 150.298, 155.844 155, 158.615 155 C 161.521 155, 163.110 152.131, 163.184 146.752 C 163.234 143.163, 162.724 142.153, 159.371 139.198 C 149.733 130.703, 149 129.799, 149 126.399 C 149 123.199, 152.039 119, 154.355 119 C 154.893 119, 155.074 118.741, 154.758 118.425 C 154.442 118.108, 154.560 116.534, 155.021 114.926 C 155.625 112.820, 155.460 111.603, 154.430 110.573 C 153.643 109.786, 153 108.727, 153 108.218 C 153 107.708, 150.344 107.485, 147.074 107.721 C 140.267 108.213, 136.993 106.909, 137.015 103.715 C 137.046 99.210, 139.276 98.124, 150.245 97.270 C 155.145 96.889, 156.285 96.408, 157.995 94.007 C 159.870 91.374, 160 89.614, 159.994 66.846 C 159.988 40.588, 159.299 35.444, 155.595 34.036 C 154.339 33.559, 149.599 33.422, 145.062 33.733 C 140.380 34.054, 132.504 33.728, 126.851 32.980 C 119.174 31.964, 115.241 31.917, 109.700 32.775 C 100.496 34.199, 99 35.832, 99 44.456 C 99 49.225, 98.570 51.079, 97.171 52.345 C 94.437 54.819, 93.167 54.430, 87.897 49.500 C 85.251 47.025, 82.573 45, 81.947 45 C 79.132 45, 75.051 40.784, 74.406 37.209 C 73.604 32.764, 72.232 29.929, 70.087 28.282 C 67.852 26.566, 61.857 26.711, 59.240 28.544 M 61.420 47.885 C 56.679 50.777, 51.886 57.085, 52.217 60 C 52.441 61.983, 53.121 62.550, 55.500 62.740 C 57.150 62.872, 61.521 63.503, 65.213 64.143 C 70.548 65.068, 72.241 65.045, 73.463 64.031 C 75.663 62.205, 75.390 55.438, 72.911 50.316 C 71.101 46.577, 70.399 46, 67.661 46.004 C 65.922 46.006, 63.114 46.853, 61.420 47.885 M 113.795 47.148 C 111.555 48.924, 109.796 53.780, 110.541 56.130 C 111.265 58.409, 114.757 59.387, 119.753 58.711 C 121.814 58.431, 127.848 58.644, 133.162 59.184 C 144.892 60.375, 147.197 59.607, 146.562 54.720 C 145.607 47.377, 145.472 47.318, 127.500 46.406 C 118.196 45.933, 115.117 46.100, 113.795 47.148 M 112.645 75.097 C 110.437 78.249, 110.572 81.303, 113.016 83.515 C 114.751 85.085, 116.600 85.309, 126.266 85.119 C 140.342 84.843, 144.756 83.771, 146.072 80.310 C 146.822 78.337, 146.692 77.317, 145.524 76.027 C 143.686 73.996, 144.718 74.151, 127.895 73.376 C 114.422 72.755, 114.273 72.772, 112.645 75.097 M 68.987 102.540 C 68.079 105.289, 68.066 112.336, 68.959 117.750 C 68.981 117.888, 70.141 118, 71.536 118 C 73.599 118, 74.441 117.137, 76.058 113.365 C 78.703 107.195, 78.779 104.926, 76.451 101.736 C 73.593 97.820, 70.432 98.160, 68.987 102.540 M 67.735 132.250 C 67.196 133.810, 69.007 138, 70.220 138 C 70.714 138, 70.871 137.601, 70.570 137.113 C 70.269 136.626, 70.680 135.681, 71.483 135.014 C 72.736 133.974, 72.744 133.602, 71.544 132.401 C 69.808 130.665, 68.303 130.606, 67.735 132.250 M 49.762 135.357 C 47.134 137.617, 47.097 137.778, 48.841 139.356 C 51.104 141.404, 52.859 141.438, 55.028 139.475 C 57.115 137.586, 56.481 132.999, 54.133 133.001 C 53.235 133.002, 51.268 134.062, 49.762 135.357" stroke="none" fill="black" fill-rule="evenodd"/>
</svg>