<svg xmlns="http://www.w3.org/2000/svg" width="256" height="256" viewBox="0 0 256 256" version="1.1">
	<path d="M 55.944 30.223 C 54.325 31.995, 53 33.778, 53 34.185 C 53 34.592, 50.469 37.754, 47.375 41.212 C 44.282 44.670, 40.317 50.437, 38.565 54.026 C 35.268 60.780, 27.767 72.408, 26.005 73.497 C 24.619 74.354, 24.742 78.342, 26.200 79.800 C 28.283 81.883, 33.313 81.115, 38 78 C 45.629 72.929, 51.825 74.335, 54.935 81.844 C 57.332 87.629, 52.886 89.311, 43.362 86.222 C 38.998 84.806, 35.593 86.602, 35.206 90.523 C 34.748 95.155, 36.753 96.890, 44 98.135 C 51.142 99.362, 52.771 100.268, 54.093 103.744 C 55.142 106.502, 55.386 117.446, 54.478 121 C 54.127 122.375, 53.801 124.063, 53.753 124.750 C 53.706 125.438, 53.522 126, 53.345 126 C 52.384 126, 49 122.378, 49 121.349 C 49 120.686, 48.432 119.548, 47.737 118.821 C 47.042 118.095, 45.682 116.263, 44.714 114.750 C 42.206 110.832, 38.536 111.025, 37.098 115.149 C 35.449 119.878, 35.808 125.981, 38.022 130.859 C 40.474 136.262, 40.498 138.085, 38.160 141.115 C 37.148 142.427, 35.815 144.980, 35.199 146.789 C 34.230 149.630, 34.344 150.344, 36.039 152.039 C 38.459 154.459, 43.916 154.612, 48.231 152.380 C 50.611 151.150, 52.842 150.912, 57.526 151.392 C 63.441 151.998, 63.860 151.888, 67.960 148.643 C 71.772 145.627, 72.624 145.352, 75.866 146.088 C 78.576 146.703, 80.388 146.479, 82.990 145.207 C 85.921 143.774, 86.596 142.810, 87.197 139.200 C 87.912 134.905, 86.820 130.125, 84.845 128.904 C 84.163 128.483, 84.144 127.632, 84.790 126.384 C 88.046 120.085, 88.188 110.895, 85.103 106.107 C 84.530 105.218, 84.891 102.724, 86.103 99.201 C 88.658 91.776, 88.519 90.506, 84.875 87.911 C 81.950 85.828, 81.423 85.768, 76.625 86.972 C 73.806 87.679, 70.938 88.705, 70.250 89.251 C 69.412 89.917, 69 89.897, 69 89.190 C 69 88.610, 68.100 87.849, 67 87.500 C 65.632 87.066, 65 85.987, 65 84.088 C 65 79.869, 67.783 78.001, 74.079 77.994 C 77.060 77.990, 80.737 77.342, 82.250 76.553 C 83.763 75.764, 85 75.538, 85 76.052 C 85 77.881, 89.221 81.796, 93.060 83.527 C 96.785 85.207, 97.215 85.206, 102.588 83.516 C 109.246 81.422, 117.997 81.967, 127.133 85.045 C 134.643 87.575, 140.566 87.532, 145.539 84.913 C 148.231 83.495, 151.903 82.708, 157 82.458 C 163.514 82.139, 164.785 81.761, 166.667 79.586 C 168.022 78.020, 168.631 76.306, 168.293 75.013 C 167.783 73.063, 153.943 61, 152.216 61 C 151.773 61, 149.406 58.469, 146.956 55.375 C 144.505 52.281, 140.475 47.669, 138 45.125 C 135.525 42.581, 132.403 38.475, 131.062 36 C 128.153 30.628, 126.345 29.069, 123 29.047 C 118.429 29.017, 118.819 28.466, 107.472 51 C 101.745 62.372, 99.342 65.351, 92.333 69.764 C 85.071 74.337, 84.342 74.507, 82.974 71.952 C 81.725 69.617, 82.437 66.671, 85.202 62.746 C 90.617 55.058, 89.087 50.006, 79.474 43.834 C 73.975 40.303, 72.300 38.557, 69.950 33.901 C 68.382 30.794, 66.364 27.970, 65.467 27.626 C 61.859 26.241, 58.825 27.069, 55.944 30.223 M 55.730 49.543 C 52.655 52.618, 49.751 58.469, 50.184 60.718 C 50.593 62.841, 53.820 63.650, 65.316 64.512 C 73.490 65.125, 74.784 65.005, 75.330 63.583 C 76.390 60.819, 71.839 52.823, 67.500 49.828 C 62.465 46.352, 59.005 46.268, 55.730 49.543 M 122.717 53.173 C 118.860 54.581, 113.355 65.289, 114.827 68.520 C 116.019 71.137, 118.462 71.761, 130.500 72.527 C 142.503 73.290, 143.825 72.397, 141.448 65.131 C 140.317 61.674, 138.399 58.779, 135.417 56.030 C 130.825 51.797, 128.142 51.194, 122.717 53.173 M 112.874 91.750 C 104.980 92.012, 102.941 92.408, 101.544 93.952 C 100.192 95.445, 100.070 96.261, 100.950 97.906 C 103.210 102.130, 110.670 104.487, 124.968 105.496 C 135.296 106.224, 136.327 106.563, 139.924 110.408 C 142.236 112.880, 142.255 113, 140.323 113 C 139.208 113, 136.898 114.336, 135.189 115.969 C 130.489 120.462, 125.714 122.101, 119.471 121.368 C 114.671 120.804, 113.919 120.990, 111.583 123.327 C 108.198 126.712, 108.322 128.236, 112.354 132.747 C 114.199 134.811, 116.924 138.750, 118.410 141.500 C 122.162 148.446, 125.260 151, 129.933 151 C 134.696 151, 136.566 149.129, 134.515 146.418 C 132.933 144.327, 132.649 141.005, 133.632 136.090 C 134.097 133.763, 135.360 132.287, 138.421 130.494 C 142.411 128.155, 145 123.918, 145 119.726 C 145 116.320, 147.370 113.137, 151.188 111.415 C 153.364 110.434, 155.989 108.558, 157.020 107.247 C 159.832 103.672, 157.979 100.904, 149.643 96.225 C 142.870 92.424, 141.981 92.195, 132.500 91.823 C 127 91.607, 118.168 91.575, 112.874 91.750 M 67.456 101.444 C 66.948 104.833, 67.218 112.869, 67.938 115.750 C 67.972 115.888, 69.250 116, 70.778 116 C 73.934 116, 76.643 113.331, 77.615 109.265 C 77.978 107.744, 78.649 106.022, 79.105 105.438 C 79.598 104.805, 78.703 102.882, 76.894 100.688 C 74.681 98.002, 73.075 97, 70.988 97 C 68.364 97, 68.066 97.374, 67.456 101.444 M 69 128 C 69 128.550, 68.355 129, 67.567 129 C 65.302 129, 64.646 132.810, 66.440 135.549 C 68.336 138.442, 70.113 138.658, 72.227 136.250 C 74.752 133.375, 75.236 130.379, 73.463 128.605 C 71.675 126.818, 69 126.455, 69 128 M 47.148 132.485 C 43.409 136.743, 43.337 137.304, 46.189 139.961 C 49.719 143.250, 52.840 142.626, 54.662 138.267 C 58.020 130.230, 52.713 126.146, 47.148 132.485" stroke="none" fill="black" fill-rule="evenodd"/>
</svg>