<svg xmlns="http://www.w3.org/2000/svg" width="256" height="256" viewBox="0 0 256 256" version="1.1">
	<path d="M 58.393 27.157 C 57.234 27.718, 55.073 30.098, 53.589 32.445 C 52.105 34.792, 49.301 38.240, 47.356 40.106 C 43.655 43.659, 40.931 48.472, 36.954 58.486 C 35.646 61.779, 34.015 65.154, 33.330 65.986 C 25.758 75.186, 25.178 76.955, 29.052 79.028 C 31.215 80.186, 34.454 79.123, 39.770 75.510 C 41.802 74.130, 44.416 73, 45.578 73 C 53.640 73, 59.432 83.705, 53.480 87.605 C 51.146 89.134, 50.645 89.136, 46.696 87.628 C 40.844 85.393, 38.320 85.582, 36.477 88.394 C 33.155 93.465, 37.071 98.706, 44.501 99.134 C 46.700 99.261, 49.450 99.776, 50.611 100.279 C 54.089 101.787, 56.154 107.495, 55.905 114.916 C 55.538 125.880, 52.786 129.008, 49.009 122.750 C 47.174 119.708, 46.062 118.023, 43.424 114.281 C 41.797 111.974, 38.574 113.524, 37.222 117.264 C 35.688 121.505, 36.903 129.276, 39.947 134.692 L 42.260 138.807 39.627 141.646 C 38.180 143.207, 36.496 145.997, 35.886 147.845 C 33.776 154.237, 36.951 155.131, 57.130 153.827 C 62.931 153.452, 65.420 152.814, 67.515 151.167 C 69.288 149.772, 71.682 149, 74.234 149 C 79.608 149, 84.870 146.367, 85.642 143.292 C 85.983 141.933, 86.004 138.049, 85.690 134.661 C 85.376 131.272, 85.623 125.526, 86.239 121.891 C 87.176 116.363, 87.090 114.338, 85.718 109.515 C 84.260 104.390, 84.241 103.360, 85.539 100.252 C 87.543 95.457, 87.378 93.179, 84.750 89.319 C 82.121 85.457, 78.822 85.011, 75 88 C 71.851 90.463, 68.786 90.526, 66.655 88.171 C 64.538 85.832, 64.549 82.618, 66.686 79.357 C 68.263 76.949, 68.732 76.824, 73.962 77.416 C 81.592 78.279, 83.169 77.007, 83.793 69.484 C 84.180 64.816, 84.791 63.213, 86.888 61.365 C 90.384 58.284, 94.804 58.224, 95.420 61.250 C 96.852 68.278, 97.414 77.993, 97.142 91 C 97.091 93.475, 97.150 106.319, 97.274 119.541 C 97.474 140.810, 97.709 143.901, 99.308 146.345 C 101.779 150.119, 102.953 150.388, 110.209 148.841 C 117.300 147.329, 128.739 147.207, 143.500 148.485 C 156.774 149.634, 159.192 149.435, 161.159 147.030 C 163.008 144.771, 165.474 132.098, 164.611 129.297 C 163.746 126.495, 162.915 101.160, 162.698 71 C 162.483 41.123, 162.319 40.203, 156.811 37.922 C 154.807 37.092, 152.775 37.075, 149.283 37.859 C 139.888 39.970, 133.667 40.171, 127 38.580 C 119.714 36.842, 104.836 36.482, 102.043 37.977 C 101.038 38.515, 98.825 41.420, 97.125 44.433 C 92.334 52.921, 91.823 52.945, 81.223 45.188 C 73.182 39.303, 71.944 37.986, 70.917 34.224 C 69.060 27.423, 63.877 24.498, 58.393 27.157 M 57.971 47.624 C 54.631 49.699, 51 55.346, 51 58.467 C 51 61.187, 51.805 61.520, 60.500 62.390 C 63.250 62.665, 67.404 63.198, 69.732 63.574 C 73.145 64.126, 74.085 63.942, 74.592 62.622 C 75.636 59.901, 74.028 54.010, 71.694 52.006 C 70.487 50.969, 68.419 49.194, 67.097 48.061 C 64.243 45.614, 61.425 45.479, 57.971 47.624 M 115.262 52.699 C 114.581 52.952, 113.210 55.036, 112.215 57.329 C 110.784 60.630, 110.440 63.844, 110.565 72.731 C 110.669 80.083, 111.159 84.487, 111.984 85.481 C 113.851 87.731, 117.583 87.326, 120.334 84.575 C 122.496 82.413, 122.666 81.681, 121.906 77.825 C 121.437 75.446, 120.584 69.234, 120.010 64.019 C 118.989 54.738, 117.747 51.777, 115.262 52.699 M 137.649 56.845 C 135.018 59.590, 134.916 60.111, 134.712 71.792 C 134.466 85.849, 134.824 86.585, 141.785 86.316 C 149.015 86.036, 149.913 84.310, 149.359 71.755 C 149.110 66.115, 148.406 59.813, 147.793 57.750 C 146.812 54.445, 146.306 54, 143.527 54 C 141.367 54, 139.516 54.896, 137.649 56.845 M 69.050 98.969 C 68.361 99.395, 67.676 103.395, 67.388 108.682 C 66.976 116.245, 67.163 117.890, 68.564 119.053 C 70.022 120.263, 70.532 120.083, 72.662 117.607 C 74 116.052, 75.356 113.469, 75.676 111.869 C 75.996 110.268, 76.650 108.716, 77.129 108.420 C 78.610 107.505, 78.094 104.389, 76.024 101.758 C 73.870 99.019, 70.894 97.829, 69.050 98.969 M 114.245 100.250 C 112.382 102.579, 111.765 106.291, 111.822 114.822 C 111.853 119.500, 111.509 125.307, 111.057 127.727 C 110.331 131.608, 110.525 132.471, 112.706 135.063 C 115.450 138.323, 117.509 138.684, 120.500 136.428 C 122.234 135.120, 122.575 133.364, 123.063 123.210 C 123.474 114.662, 123.243 110.159, 122.210 106.535 C 120.356 100.032, 116.717 97.160, 114.245 100.250 M 139.400 99.765 C 137.018 101.355, 136.159 104.912, 136.430 112.047 C 136.586 116.146, 136.778 122.472, 136.857 126.104 C 136.976 131.612, 137.407 133.147, 139.452 135.354 C 142.595 138.746, 146.418 138.817, 148.576 135.525 C 149.931 133.456, 150.122 130.872, 149.738 119.775 C 149.485 112.474, 148.744 104.813, 148.092 102.750 C 147.045 99.438, 146.532 99.002, 143.703 99.015 C 141.941 99.024, 140.005 99.361, 139.400 99.765 M 66.699 131.019 C 65.111 133.286, 65.542 137.375, 67.544 139.036 C 69.201 140.412, 73 136.962, 73 134.082 C 73 128.946, 69.383 127.188, 66.699 131.019 M 46.750 134.541 C 44.688 136.458, 43 138.252, 43 138.528 C 43 139.139, 49.217 142.991, 50.211 142.996 C 51.737 143.004, 55 138.506, 55 136.393 C 55 130.091, 52.210 129.464, 46.750 134.541" stroke="none" fill="black" fill-rule="evenodd"/>
</svg>