<svg xmlns="http://www.w3.org/2000/svg" width="256" height="256" viewBox="0 0 256 256" version="1.1">
	<path d="M 57.797 30.750 C 56.380 32.263, 54.303 35.300, 53.182 37.500 C 52.061 39.700, 49.542 42.753, 47.583 44.284 C 45.140 46.193, 42.640 49.961, 39.620 56.284 C 37.199 61.353, 33.338 67.629, 31.040 70.231 C 27.891 73.798, 26.942 75.643, 27.182 77.731 C 27.624 81.583, 31.311 81.813, 39.581 78.504 C 47.608 75.293, 51.272 75.759, 54.069 80.345 C 58.399 87.446, 55.133 90.865, 45.912 88.888 C 41.544 87.951, 40.613 88.040, 38.936 89.558 C 37.871 90.522, 37 92.122, 37 93.115 C 37 96.261, 42.051 99.938, 47.338 100.639 C 51.370 101.174, 52.527 101.816, 54.097 104.392 C 56.238 107.903, 56.602 115.292, 54.930 121.312 C 53.793 125.408, 52.188 125.710, 50.404 122.164 C 48.424 118.227, 43.143 113.156, 41.300 113.420 C 36.463 114.114, 35.511 125.258, 39.636 132.896 L 42.272 137.777 39.636 141.233 C 38.055 143.306, 37 145.972, 37 147.895 C 37 152.718, 40.945 154.009, 53.554 153.317 C 61.691 152.870, 64.295 152.316, 67.872 150.272 C 73.954 146.795, 81.053 147.356, 86.583 151.749 C 88.737 153.460, 92.075 155.106, 94 155.405 C 95.925 155.704, 102 156.683, 107.500 157.580 C 115.328 158.857, 120.433 159.048, 131 158.461 C 138.425 158.048, 147.958 157.805, 152.184 157.921 C 158.785 158.102, 160.159 157.841, 161.934 156.066 C 164.276 153.724, 164.510 151.838, 162.850 148.684 C 161.200 145.548, 160.070 145.032, 154.815 145.015 C 152.238 145.007, 148.919 144.539, 147.438 143.976 C 144.961 143.035, 144.806 142.655, 145.495 139.226 C 145.907 137.177, 146.389 133.529, 146.566 131.120 C 146.824 127.606, 147.533 126.201, 150.150 124.016 C 152.729 121.863, 153.768 119.846, 155.105 114.396 C 156.607 108.271, 156.633 107.108, 155.344 104 C 154.546 102.075, 153.959 100.500, 154.039 100.500 C 154.119 100.500, 153.625 99.271, 152.941 97.769 C 152.256 96.267, 150.858 94.772, 149.834 94.447 C 148.809 94.122, 148.229 93.438, 148.544 92.928 C 148.860 92.418, 148.079 91.969, 146.809 91.931 C 145.539 91.893, 143.150 91.669, 141.500 91.433 C 139.850 91.196, 132.093 90.858, 124.263 90.681 C 116.432 90.504, 109.698 90.031, 109.298 89.631 C 108.898 89.231, 109.055 88.138, 109.646 87.202 C 110.575 85.732, 112.480 85.516, 123.611 85.619 C 138.635 85.758, 146.037 86.340, 151.250 87.793 C 153.313 88.368, 155 88.535, 155 88.164 C 155 87.792, 156.323 86.902, 157.941 86.186 C 160.161 85.204, 160.964 84.102, 161.216 81.692 C 161.944 74.738, 156.251 69.804, 147.763 70.034 C 145.418 70.097, 141.925 69.941, 140 69.686 C 138.075 69.432, 135.956 69.663, 135.291 70.200 C 132.419 72.520, 125.253 68.347, 127.776 65.824 C 128.844 64.756, 135.439 64.466, 140 65.286 C 141.925 65.632, 145.153 66.212, 147.172 66.576 C 154.006 67.805, 159.975 62.819, 160.013 55.849 C 160.038 51.184, 156.586 38.932, 154.664 36.870 L 152.699 34.760 151.385 37.130 C 150.662 38.434, 150.055 40.688, 150.035 42.139 C 149.958 47.927, 143.059 51.905, 137.299 49.484 C 132.737 47.566, 131 44.389, 131 37.969 C 131 31.764, 129.746 29.409, 125.956 28.498 C 120.758 27.249, 118.705 33.224, 121.460 41.586 C 121.950 43.074, 121.362 44.605, 119.408 46.927 C 117.087 49.685, 116.203 50.091, 113.632 49.576 C 108.783 48.607, 106 45.315, 106 40.548 C 106 35.355, 103.794 31.980, 100.896 32.738 C 98.505 33.363, 96 38.502, 96 42.779 C 96 46.103, 92.760 50, 89.996 50 C 88.936 50, 85.980 48.675, 83.427 47.056 C 80.873 45.436, 77.514 43.833, 75.961 43.491 C 72.211 42.668, 71.358 41.399, 70.754 35.751 C 70.104 29.677, 68.657 28, 64.065 28 C 61.330 28, 59.707 28.712, 57.797 30.750 M 59.445 50.921 C 56.547 52.148, 51 58.711, 51 60.912 C 51 63.874, 53.524 65.172, 60.224 65.654 C 67.904 66.207, 74.662 65.323, 75.292 63.681 C 76.076 61.639, 73.043 55.639, 70.015 53.241 C 66.711 50.625, 62.386 49.676, 59.445 50.921 M 85.586 64.269 C 84.088 65.399, 83.712 66.821, 83.853 70.822 C 84.013 75.342, 83.729 76.131, 81.389 77.665 C 79.934 78.618, 76.889 79.489, 74.622 79.600 C 69.184 79.867, 69.608 79.738, 67.153 81.867 C 64.226 84.406, 64.361 88.535, 67.438 90.551 C 69.705 92.037, 70.209 92.001, 74.643 90.040 C 80.010 87.666, 84.418 88.044, 86.008 91.016 C 87.411 93.636, 87.238 99.170, 85.630 103.128 C 84.178 106.701, 84.247 107.215, 87.029 113.500 C 89.069 118.109, 88.878 121.955, 86.379 126.595 C 84.922 129.300, 84.824 130.317, 85.809 132.480 C 86.464 133.918, 87 135.903, 87 136.892 C 87 141.294, 97.472 145.290, 103.004 142.998 C 105.753 141.860, 106 141.355, 106 136.879 C 106 133.226, 106.538 131.462, 108.141 129.859 L 110.282 127.718 105.597 123.536 C 100.107 118.637, 98.158 113.474, 97.485 102.039 C 97.158 96.488, 97.431 93.990, 98.553 92.279 C 100.347 89.541, 99.657 87.878, 94.544 82.613 C 91.499 79.478, 91.180 78.699, 92.106 76.666 C 93.499 73.609, 103.231 70.566, 111.797 70.509 C 117.715 70.469, 119.927 69.463, 119.985 66.785 C 120.023 64.997, 115.314 63.920, 108.226 64.095 C 103.977 64.200, 97.575 63.957, 94 63.556 C 89.001 62.994, 87.058 63.158, 85.586 64.269 M 68.970 100.536 C 68.269 101.381, 67.481 105.406, 67.220 109.480 C 66.827 115.599, 67.046 117.189, 68.478 118.621 C 70.797 120.940, 72.862 119.620, 75.750 113.975 C 78.656 108.293, 78.587 105.851, 75.411 102.077 C 72.529 98.651, 70.865 98.253, 68.970 100.536 M 114.750 104.095 C 112.478 105.399, 112.528 107.528, 114.886 109.886 C 116.402 111.402, 117.549 111.631, 120.713 111.052 C 125.208 110.230, 126.473 110.341, 131.478 111.993 C 136.276 113.576, 140.001 111.454, 139.256 107.560 C 138.727 104.792, 138.834 104.822, 128.500 104.480 C 124.650 104.352, 120.375 103.987, 119 103.669 C 117.625 103.351, 115.713 103.543, 114.750 104.095 M 114.539 126.348 C 112.767 127.644, 112.782 127.782, 114.947 129.947 C 117.171 132.171, 117.245 133.189, 115.661 139.735 C 114.552 144.318, 123.414 146.652, 130.482 143.638 C 133.264 142.452, 133.474 141.985, 133.600 136.696 C 133.674 133.577, 134.299 130.344, 134.990 129.512 C 135.992 128.305, 135.994 127.697, 135 126.500 C 133.333 124.491, 117.242 124.371, 114.539 126.348 M 68.692 131.134 C 65.266 136.519, 68.316 142.798, 72.092 138.135 C 74.039 135.730, 73.842 132.413, 71.619 130.190 C 70.390 128.962, 69.993 129.090, 68.692 131.134 M 48.166 134.090 C 44.473 137.449, 44.507 138.863, 48.334 140.911 C 53.213 143.523, 57.604 138.343, 55.393 132.582 C 54.472 130.182, 51.865 130.727, 48.166 134.090" stroke="none" fill="black" fill-rule="evenodd"/>
</svg>