<svg xmlns="http://www.w3.org/2000/svg" width="256" height="256" viewBox="0 0 256 256" version="1.1">
	<path d="M 55.346 28.470 C 54.191 29.279, 51.743 32.283, 49.906 35.147 C 48.069 38.010, 45.280 41.736, 43.709 43.426 C 40.258 47.140, 37.869 51.666, 35.490 59 C 34.508 62.025, 33.434 64.725, 33.103 65 C 32.771 65.275, 30.997 67.655, 29.160 70.289 C 26.452 74.172, 26.049 75.354, 27.032 76.539 C 28.734 78.589, 32.379 78.357, 37.213 75.892 C 42.627 73.129, 48.557 73.783, 51.748 77.494 C 54.357 80.527, 54.666 84.477, 52.466 86.677 C 50.956 88.187, 49.675 88.161, 41.395 86.455 C 38.799 85.920, 37.939 86.262, 36.145 88.543 C 34.965 90.043, 34 91.884, 34 92.635 C 34 95.266, 37.801 97.785, 42.811 98.474 C 47.899 99.174, 50.286 100.859, 51.346 104.500 C 53.222 110.943, 53.755 116.962, 52.718 120 C 52.436 120.825, 51.882 122.513, 51.486 123.750 C 50.801 125.891, 49 126.923, 49 125.173 C 49 124.081, 40.643 115, 39.638 115 C 35.620 115, 34.281 127.219, 37.785 131.916 C 40.494 135.549, 42.453 135.597, 46.653 132.134 L 50.308 129.122 52.104 131.405 C 56.216 136.632, 52.616 141.114, 44.585 140.765 C 40.436 140.584, 39.453 140.935, 37.390 143.333 C 34.766 146.384, 34.243 151.126, 36.338 152.865 C 39.087 155.147, 58.523 153.781, 64 150.921 C 65.925 149.916, 70.425 148.662, 74 148.135 C 77.575 147.609, 81.758 146.691, 83.297 146.096 C 85.862 145.103, 86.040 144.704, 85.448 141.257 C 85.093 139.191, 83.741 135.407, 82.443 132.849 L 80.085 128.199 82.542 123.104 C 83.894 120.302, 85 116.868, 85 115.473 C 85 112.422, 82.380 105.853, 80.765 104.854 C 79.947 104.349, 80.402 102.678, 82.314 99.164 C 84.491 95.164, 84.833 93.692, 84.059 91.655 C 82.626 87.885, 80.049 86.977, 72.727 87.661 C 66.504 88.242, 66.147 88.155, 64.501 85.642 C 62.378 82.402, 63.154 78.527, 66.262 76.851 C 67.493 76.187, 70.753 75.573, 73.508 75.487 C 76.262 75.400, 79.538 74.782, 80.789 74.113 C 82.655 73.114, 84.404 73.264, 90.543 74.948 C 94.656 76.077, 98.891 77, 99.952 77 C 103.359 77, 103.220 78.927, 99.564 82.375 C 97.577 84.248, 95.948 86.791, 95.883 88.118 C 95.819 89.428, 95.572 93.200, 95.333 96.500 C 94.759 104.460, 96.629 112.095, 100.222 116.453 C 102.397 119.092, 103.705 119.871, 105.323 119.494 C 106.521 119.216, 108.501 118.852, 109.724 118.686 C 110.948 118.521, 112.260 118.073, 112.641 117.692 C 113.022 117.312, 114.271 117.036, 115.417 117.079 C 116.562 117.122, 116.942 117.384, 116.259 117.659 C 115.318 118.039, 115.379 118.522, 116.509 119.652 C 117.329 120.472, 118 122.236, 118 123.571 C 118 125.480, 117.477 126, 115.559 126 C 114.216 126, 112.877 125.610, 112.582 125.133 C 112.287 124.656, 109.945 124.028, 107.377 123.739 C 103.299 123.279, 102.409 123.534, 100.354 125.752 C 97.754 128.558, 97.474 130.149, 99.061 133.114 C 100.668 136.116, 104.341 137.062, 110.908 136.164 C 116.902 135.344, 118.099 135.711, 120.833 139.203 C 121.974 140.659, 121.857 141.237, 120.023 143.203 C 117.987 145.386, 117.191 145.500, 103.993 145.500 C 88.750 145.500, 87.139 146.016, 89.082 150.280 C 91.269 155.081, 95.697 155.825, 126.216 156.521 C 138.472 156.800, 150.578 157.255, 153.118 157.531 C 158.757 158.145, 162.250 155.876, 162.250 151.600 C 162.250 146.381, 160.179 145.530, 146.716 145.211 C 136.832 144.977, 134.265 144.611, 133.267 143.293 C 130.864 140.118, 133.526 139, 143.488 139 C 151.324 139, 153.131 138.685, 155.365 136.927 C 159.014 134.057, 158.692 132.390, 153.515 127.359 C 149.654 123.606, 148.437 122.998, 144.765 122.985 C 141.867 122.974, 140.953 122.683, 141.913 122.075 C 142.690 121.583, 144.940 121.336, 146.913 121.525 C 152.352 122.048, 154.499 120.072, 155.957 113.200 C 156.652 109.926, 157.008 105.053, 156.748 102.373 C 156.482 99.640, 156.919 95.142, 157.743 92.130 C 159.115 87.114, 159.087 86.593, 157.312 84.216 C 154.346 80.243, 146.467 77.972, 141 79.514 C 138.464 80.229, 137.513 80.246, 126.078 79.790 C 121.681 79.614, 119.526 79.922, 119.244 80.767 C 118.756 82.232, 113 82.447, 113 81 C 113 80.450, 112.100 80, 111 80 C 107.388 80, 108.910 77.463, 113.300 76.167 C 116.537 75.211, 118.321 75.171, 120.517 76.007 C 123.820 77.262, 129.877 77.094, 131.747 75.694 C 132.528 75.109, 134.653 75.179, 137.439 75.880 C 143.251 77.344, 156.223 77.313, 161.193 75.824 C 166.121 74.348, 167.624 71.883, 165.539 68.699 C 163.639 65.801, 157.653 62.449, 152.850 61.596 C 148.125 60.756, 146.663 59.016, 147.916 55.720 C 148.517 54.140, 150.164 52.771, 152.317 52.060 C 156.708 50.611, 159.251 47.799, 158.830 44.857 C 158.346 41.472, 154.474 40.031, 145.815 40.015 C 135.631 39.995, 133.367 39.022, 131.077 33.679 C 129.778 30.648, 128.271 28.941, 126.106 28.044 C 122.240 26.443, 120.521 27.619, 117.946 33.626 C 116.967 35.910, 115.590 38.135, 114.886 38.570 C 114.183 39.005, 110.063 39.274, 105.732 39.168 C 97.027 38.954, 91.531 40.752, 90.447 44.168 C 89.596 46.847, 92.451 49.806, 96.646 50.593 C 100.959 51.403, 105 54.574, 105 57.150 C 105 60.964, 99.974 64.615, 93.041 65.836 C 89.518 66.457, 86.178 67.422, 85.618 67.982 C 85.058 68.542, 83.827 69, 82.883 69 C 81.939 69, 80.940 69.563, 80.662 70.250 C 80.341 71.046, 80.129 70.909, 80.079 69.872 C 79.968 67.578, 77.655 65.920, 73.802 65.374 C 71.986 65.117, 69.195 64.477, 67.601 63.953 C 66.006 63.429, 61.881 63, 58.433 63 C 50.556 63, 49 62.397, 49 59.343 C 49 53.925, 54.943 47, 59.593 47 C 62.112 47, 67.888 52.256, 72 58.290 C 73.375 60.307, 75.310 62.230, 76.299 62.562 C 80.139 63.851, 86.506 56.569, 85.811 51.682 C 85.607 50.253, 82.993 47.828, 78.237 44.656 C 73.115 41.240, 70.174 38.440, 68.261 35.156 C 63.683 27.301, 59.849 25.316, 55.346 28.470 M 117.690 52.604 C 114.084 54.559, 114.251 58.898, 118 60.661 C 121.009 62.076, 132.847 61.316, 135.258 59.553 C 137.573 57.860, 136.385 54.250, 132.923 52.460 C 129.282 50.577, 121.288 50.653, 117.690 52.604 M 111.930 90.584 C 110.405 92.422, 111.707 95.302, 114.294 95.811 C 116.123 96.172, 119.484 91.593, 118.527 90.044 C 117.547 88.458, 113.414 88.797, 111.930 90.584 M 135.250 90.220 C 130.675 92.427, 133.298 95.945, 139.550 95.986 C 142.579 96.007, 144.119 94.092, 142.903 91.819 C 142.351 90.788, 141.503 90.189, 141.019 90.488 C 140.535 90.788, 139.856 90.575, 139.510 90.016 C 138.750 88.787, 138.163 88.815, 135.250 90.220 M 65.067 98.419 C 63.451 100.367, 63.892 113.665, 65.621 115.100 C 66.605 115.917, 67.595 115.677, 69.536 114.151 C 72.823 111.565, 78.012 105.077, 77.964 103.612 C 77.906 101.863, 70.918 97, 68.461 97 C 67.242 97, 65.715 97.639, 65.067 98.419 M 110.616 106.872 C 109.017 108.639, 109.051 108.945, 111.211 112.330 C 112.470 114.302, 114.009 115.934, 114.631 115.958 C 115.254 115.981, 116.964 114.425, 118.432 112.500 C 119.900 110.575, 120.681 109, 120.168 109 C 119.654 109, 118.998 108.100, 118.710 107 C 118.024 104.376, 112.947 104.296, 110.616 106.872 M 137 106 C 137 106.550, 136.373 107, 135.607 107 C 132.924 107, 133.168 109.748, 136.040 111.872 C 137.624 113.042, 139.500 113.986, 140.210 113.969 C 141.706 113.932, 145.582 109, 144.114 109 C 143.575 109, 142.849 108.100, 142.500 107 C 141.845 104.936, 137 104.055, 137 106 M 64.252 131.232 C 62.774 132.805, 62.372 133.984, 62.980 134.968 C 63.468 135.758, 63.675 136.716, 63.440 137.097 C 62.810 138.117, 65.757 139.030, 67.509 138.358 C 69.184 137.715, 70.366 134.138, 69.827 131.341 C 69.311 128.662, 66.714 128.611, 64.252 131.232" stroke="none" fill="black" fill-rule="evenodd"/>
</svg>