<svg xmlns="http://www.w3.org/2000/svg" width="256" height="256" viewBox="0 0 256 256" version="1.1">
	<path d="M 49.190 26.925 C 36.267 27.723, 36.102 27.969, 36.052 46.500 C 36.031 54.200, 35.606 62.975, 35.108 66 C 33.931 73.142, 34.531 128.143, 35.849 134 C 36.406 136.475, 37.180 141.802, 37.569 145.837 C 38.116 151.521, 38.832 153.836, 40.746 156.110 C 46.707 163.195, 50 161.552, 50 151.494 C 50 147.994, 49.609 144.088, 49.130 142.815 C 48.371 140.794, 46.658 121.105, 46.885 117 C 46.930 116.175, 46.953 107.999, 46.937 98.831 C 46.914 86.423, 47.279 81.268, 48.366 78.668 L 49.825 75.174 68.288 75.563 C 85.492 75.925, 86.904 75.818, 89.006 73.994 C 90.982 72.281, 91.182 71.429, 90.612 67.134 C 90.215 64.141, 90.422 61.114, 91.142 59.365 C 91.792 57.789, 92.239 56.128, 92.136 55.673 C 92.033 55.219, 91.808 50.257, 91.636 44.646 C 91.292 33.446, 89.941 29.288, 86 27.294 C 83.386 25.972, 67.257 25.810, 49.190 26.925 M 105.273 27.171 C 102.651 30.331, 100.796 42.158, 101.458 51.500 C 101.808 56.450, 102.046 63.094, 101.985 66.264 C 101.887 71.385, 102.203 72.357, 104.817 74.971 C 107.200 77.354, 108.400 77.829, 111.130 77.470 C 112.983 77.226, 119.364 76.549, 125.310 75.965 C 131.255 75.381, 137.189 74.416, 138.496 73.820 C 145.179 70.775, 146.742 77.876, 146.605 110.660 C 146.485 139.179, 146.369 139.627, 138.202 143.128 C 134.296 144.802, 132.876 144.958, 129.516 144.081 C 127.307 143.504, 123.475 143.030, 121 143.026 C 108.753 143.011, 102.183 142.398, 100.653 141.128 C 96.737 137.876, 100.178 135.532, 110.500 134.421 C 116.922 133.730, 120 132.578, 120 130.866 C 120 130.281, 120.734 128.256, 121.631 126.365 C 122.528 124.475, 122.986 122.653, 122.649 122.315 C 122.311 121.978, 118.540 121.520, 114.268 121.297 C 104.650 120.796, 101.745 120.221, 102.518 118.971 C 102.848 118.437, 102.641 118, 102.059 118 C 101.477 118, 101 117.475, 101 116.833 C 101 116.192, 101.279 115.945, 101.619 116.286 C 101.960 116.626, 102.818 116.325, 103.528 115.615 C 104.430 114.713, 106.966 114.456, 111.970 114.759 C 120.484 115.274, 125 113.822, 125 110.570 C 125 106.350, 122.927 105.004, 115.500 104.403 C 106.193 103.649, 102.810 102.331, 103.199 99.608 C 103.471 97.702, 104.213 97.480, 110.931 97.295 C 117.431 97.116, 118.651 96.777, 120.681 94.589 C 121.956 93.213, 123 91.879, 123 91.625 C 123 91.371, 121.529 90.254, 119.730 89.142 C 117.547 87.793, 114.474 87.060, 110.480 86.935 C 105.582 86.783, 103.832 86.229, 100.809 83.875 C 95.716 79.909, 91.441 80.212, 86.068 84.919 C 84.115 86.631, 82.489 87.015, 77.802 86.875 C 74.593 86.778, 71.661 87.005, 71.288 87.379 C 70.081 88.586, 70.012 91.434, 71.124 94.210 C 72.153 96.779, 72.601 96.935, 79.750 97.210 C 85.541 97.433, 87.537 97.894, 88.357 99.198 C 89.205 100.547, 88.917 101.338, 86.962 103.036 C 84.903 104.824, 83.681 105.080, 79.500 104.600 C 76.750 104.284, 73.150 103.641, 71.500 103.171 C 65.971 101.595, 62.635 104.642, 63.714 110.282 C 64.430 114.030, 67.871 115.357, 75.185 114.707 C 78.658 114.398, 82.203 113.871, 83.063 113.537 C 83.966 113.186, 85.372 113.754, 86.393 114.882 C 87.806 116.443, 87.936 117.251, 87.045 118.917 C 86.112 120.658, 84.983 121, 80.156 121 C 76.980 121, 73.654 121.562, 72.763 122.250 C 69.664 124.643, 70.860 132.965, 74.505 134.364 C 75.417 134.714, 78.406 135, 81.148 135 C 86.989 135, 90 136.336, 90 138.928 C 90 141.632, 87.531 142.184, 78.838 141.425 C 71.670 140.800, 70.775 140.942, 66.668 143.349 C 61.082 146.622, 60.481 148.208, 63.633 151.361 C 66.902 154.629, 70.731 155.397, 77.230 154.090 C 80.453 153.441, 92.600 153.173, 108.500 153.400 C 133.330 153.753, 134.672 153.871, 138.317 156.023 C 141.820 158.091, 142.461 158.168, 146.130 156.957 C 151.969 155.030, 154.407 151.452, 157.118 140.830 C 159.427 131.785, 159.498 130.340, 159.448 93.500 C 159.368 35.276, 158.765 29.309, 152.790 27.599 C 151.531 27.238, 140.598 26.665, 128.495 26.324 C 109.841 25.798, 106.305 25.927, 105.273 27.171 M 66.089 37.091 C 64.763 37.621, 61.460 38.266, 58.749 38.524 C 53.159 39.056, 51.726 39.680, 52.282 41.342 C 52.528 42.078, 55.556 42.536, 60.584 42.599 C 64.938 42.654, 69.400 42.933, 70.500 43.219 C 72.985 43.866, 76 42.395, 76 40.536 C 76 36.769, 71.128 35.076, 66.089 37.091 M 117.861 37.929 C 116.302 39.203, 115.840 40.188, 116.500 40.829 C 117.050 41.363, 123.125 41.958, 130 42.150 C 140.600 42.447, 142.500 42.272, 142.500 41 C 142.500 36.310, 122.840 33.860, 117.861 37.929 M 137.500 55.934 C 136.400 56.377, 132.032 56.973, 127.793 57.256 C 122.770 57.592, 119.551 58.307, 118.549 59.308 C 117.168 60.689, 117.289 60.897, 119.757 61.372 C 121.265 61.662, 124.381 61.894, 126.679 61.886 C 128.978 61.879, 132.931 62.576, 135.464 63.436 C 141.224 65.392, 141.243 65.391, 143.847 63.133 C 148.851 58.793, 144.014 53.306, 137.500 55.934 M 68 57.193 C 64.975 57.623, 59.733 57.707, 56.351 57.381 C 50.625 56.829, 50.153 56.941, 49.498 59.006 C 49.039 60.452, 49.329 61.758, 50.331 62.760 C 51.634 64.063, 52.338 64.103, 54.950 63.021 C 57.099 62.130, 60.382 61.949, 65.803 62.422 C 74.832 63.210, 77 62.646, 77 59.510 C 77 56.672, 75.106 56.185, 68 57.193" stroke="none" fill="black" fill-rule="evenodd"/>
</svg>