<svg xmlns="http://www.w3.org/2000/svg" width="256" height="256" viewBox="0 0 256 256" version="1.1">
	<path d="M 40.113 26.633 C 38.995 27.417, 37.846 29.507, 37.560 31.279 C 36.930 35.182, 35.739 88.956, 35.928 105 C 36.084 118.315, 37.727 135.621, 39.072 138.135 C 39.583 139.088, 40.010 143.611, 40.022 148.184 C 40.049 158.070, 41.755 161.333, 46.898 161.333 C 51.401 161.333, 53.209 158.623, 52.453 153 C 50.568 138.967, 49.785 126.999, 49.357 105.667 C 48.745 75.182, 48.083 76.629, 62.331 77.304 C 67.924 77.569, 74.525 78.299, 77 78.927 C 86.260 81.275, 88.286 80.553, 91.032 73.923 C 92.009 71.564, 92.027 70.034, 91.114 66.985 C 90.167 63.825, 90.219 62.411, 91.386 59.619 C 92.180 57.718, 92.566 55.899, 92.244 55.577 C 91.921 55.254, 91.573 49.705, 91.470 43.245 C 91.368 36.785, 90.962 30.754, 90.570 29.842 C 89.182 26.616, 84.621 25.900, 63.240 25.552 C 46.189 25.275, 41.757 25.482, 40.113 26.633 M 104.276 30.250 C 102.723 33.092, 102.513 36.144, 102.607 54.567 C 102.702 73.217, 102.925 75.956, 104.551 78.438 C 106.341 81.169, 106.548 81.222, 112.444 80.469 C 115.775 80.044, 122.192 79.791, 126.705 79.907 C 131.218 80.024, 136.418 79.702, 138.262 79.193 C 142.335 78.069, 145.278 79.993, 146.420 84.527 C 146.832 86.162, 147.133 98.525, 147.089 112 L 147.008 136.500 144.415 138.779 C 142.426 140.527, 141.083 140.919, 138.649 140.462 C 134.444 139.673, 125.512 143.332, 126.694 145.359 C 127.137 146.119, 130.161 149.162, 133.414 152.121 C 138.591 156.830, 139.836 157.493, 143.414 157.444 C 148.630 157.373, 155.088 154.222, 156.621 151 C 157.276 149.625, 158.503 144.900, 159.349 140.500 C 160.603 133.976, 160.799 126.707, 160.412 101.104 C 160.151 83.836, 159.722 69.359, 159.458 68.932 C 159.194 68.505, 158.929 60.500, 158.868 51.143 C 158.716 28.004, 159.058 28.539, 143.861 27.664 C 137.613 27.304, 126.549 27.007, 119.276 27.005 L 106.051 27 104.276 30.250 M 59.703 36.004 C 55.824 36.500, 53.455 37.363, 52.542 38.612 C 50.525 41.370, 51.500 41.999, 57.809 42.011 C 60.939 42.017, 65.739 42.701, 68.476 43.531 C 74.080 45.231, 75.393 45.002, 76.973 42.050 C 77.891 40.334, 77.657 39.566, 75.584 37.493 C 72.896 34.805, 70.691 34.598, 59.703 36.004 M 119.138 39.145 C 117.962 39.580, 117 40.535, 117 41.268 C 117 44.339, 119.432 45, 130.731 45 C 140.129 45, 142.166 44.731, 142.668 43.422 C 143.845 40.356, 140.826 39.159, 130.888 38.750 C 125.602 38.532, 120.314 38.710, 119.138 39.145 M 50.841 58.695 C 50.294 59.352, 49.994 60.927, 50.173 62.195 C 50.489 64.421, 50.875 64.510, 61.500 64.791 C 67.550 64.951, 73.463 64.842, 74.640 64.550 C 77.509 63.836, 78.461 61.032, 76.499 59.072 C 75.250 57.824, 72.545 57.500, 63.381 57.500 C 55.650 57.500, 51.507 57.895, 50.841 58.695 M 136.500 57.927 C 135.400 58.367, 131.498 59.014, 127.829 59.365 C 119.293 60.180, 118.100 60.665, 118.727 63.065 C 119.164 64.736, 120.149 65, 125.938 65 C 129.626 65, 134.760 65.721, 137.346 66.602 C 142.617 68.398, 144.352 67.719, 145.426 63.438 C 146.745 58.185, 142.463 55.541, 136.500 57.927 M 66.773 89.630 C 65.254 92.739, 65.215 93.380, 66.347 96.689 C 66.917 98.355, 68.400 99.149, 72.548 100.010 C 75.547 100.632, 78.023 101.222, 78.051 101.321 C 79.098 105.010, 78.884 109.973, 77.624 111.233 C 76.783 112.074, 76.411 113.105, 76.798 113.525 C 77.184 113.944, 75.925 113.975, 74 113.592 C 64.383 111.683, 61.333 111.692, 60.556 113.629 C 57.706 120.732, 60.299 125, 67.466 125 C 73.303 125, 76.156 127.252, 75.460 131.309 C 74.017 139.725, 71.806 144.488, 68.640 146 C 64.746 147.860, 64.309 149.852, 67.035 153.317 C 70.208 157.352, 74.394 156.964, 78.905 152.217 C 83.343 147.546, 88.587 137.843, 89.560 132.500 C 90.460 127.557, 91.233 127.026, 97.500 127.047 C 104.520 127.070, 105.587 128.215, 106.306 136.500 C 107.091 145.554, 108.577 150.528, 111.237 153.007 C 114.139 155.710, 115.713 155.519, 118.932 152.073 C 121.649 149.164, 122.398 146.415, 120.995 144.500 C 120.592 143.950, 119.714 141.025, 119.044 138 C 117.139 129.401, 116.968 129.002, 115.183 128.970 C 113.778 128.944, 113.829 128.748, 115.496 127.782 C 116.594 127.146, 120.360 126.579, 123.866 126.523 C 129.259 126.437, 130.530 126.063, 132.120 124.100 C 134.602 121.035, 134.574 116.378, 132.066 115.035 C 131.002 114.466, 127.289 113.995, 123.816 113.989 L 117.500 113.977 115.618 110.049 C 114.018 106.708, 113.944 105.916, 115.118 104.754 C 117.481 102.418, 120.062 101.940, 124.241 103.065 C 131.923 105.133, 135.738 102.257, 133.942 95.751 C 132.300 89.807, 131.291 89.473, 115.709 89.732 C 104.610 89.916, 101.032 89.634, 98.359 88.366 C 95.683 87.096, 93.606 86.934, 88.246 87.574 C 80.800 88.464, 78.487 88.445, 72.338 87.440 C 68.456 86.806, 68.081 86.954, 66.773 89.630 M 95.500 100.945 C 94.400 101.396, 92.672 102.685, 91.660 103.811 C 90.043 105.608, 89.971 106.279, 91.071 109.319 C 92.156 112.321, 92.864 112.857, 96.411 113.360 C 99.763 113.836, 100.816 113.566, 102.250 111.860 C 104.279 109.447, 104.475 106.772, 102.850 103.684 C 100.925 100.026, 99.260 99.406, 95.500 100.945" stroke="none" fill="black" fill-rule="evenodd"/>
</svg>