<svg xmlns="http://www.w3.org/2000/svg" width="256" height="256" viewBox="0 0 256 256" version="1.1">
	<path d="M 43.308 29.065 C 39.079 30.662, 37.676 34.336, 38.419 41.873 C 38.789 45.633, 38.586 52.712, 37.967 57.604 C 37.339 62.563, 36.850 80.441, 36.862 98 C 36.883 127.846, 37.017 130.128, 39.416 141.451 C 42.042 153.851, 43.748 156.976, 48.689 158.445 C 50.336 158.935, 51.192 158.527, 52.145 156.798 C 54.032 153.375, 54.260 146.031, 52.620 141.500 C 50.365 135.272, 49.319 125.383, 48.544 102.952 C 48.130 90.979, 48.293 89.048, 49.942 86.336 C 51.742 83.376, 51.978 83.295, 56.661 84.036 C 61.114 84.739, 75.282 83.342, 83.468 81.391 C 88.456 80.202, 89.717 77.580, 90.375 67.026 C 90.701 61.787, 90.951 55.106, 90.930 52.179 C 90.909 49.253, 91.401 45.316, 92.023 43.429 C 93.524 38.882, 91.839 33.733, 87.942 30.958 C 85.658 29.332, 83.564 28.895, 78.264 28.936 C 74.544 28.965, 65.650 28.820, 58.500 28.613 C 51.350 28.407, 44.514 28.610, 43.308 29.065 M 105.457 31.452 C 102.711 34.198, 102.711 34.201, 103.347 44.849 C 105.450 80.078, 105.497 80.287, 111.756 81.870 C 122.476 84.582, 128.301 85.439, 136.190 85.468 C 141.281 85.487, 145.354 85.969, 146.023 86.633 C 147.488 88.085, 148.554 108.094, 148.187 127.227 C 148.013 136.295, 147.837 137.061, 145.595 138.530 C 143.444 139.939, 141.012 140.528, 135.861 140.886 C 134.959 140.949, 133.212 141.818, 131.978 142.817 C 129.148 145.108, 130.198 147.479, 135.744 151.323 C 142.632 156.096, 153.584 154.311, 156.660 147.913 C 161.485 137.881, 162.826 123.289, 160.881 102 C 160.303 95.675, 159.836 87.350, 159.843 83.500 C 159.850 79.650, 159.613 67.376, 159.317 56.224 C 158.635 30.548, 159.342 31.745, 144.339 30.861 C 138.378 30.510, 127.808 29.881, 120.852 29.464 L 108.203 28.706 105.457 31.452 M 61.500 41.670 C 52.864 42.279, 51.835 42.734, 52.187 45.785 C 52.496 48.464, 52.621 48.508, 61.500 49.086 C 66.450 49.408, 71.453 49.982, 72.618 50.362 C 74.327 50.918, 74.972 50.481, 75.957 48.105 C 78.094 42.944, 77.139 41.512, 71.491 41.409 C 68.746 41.358, 64.250 41.476, 61.500 41.670 M 118.889 43.209 C 117.725 44.154, 117.510 45.146, 118.115 46.781 C 119.180 49.660, 119.417 49.722, 132.132 50.482 L 142.763 51.118 143.808 48.120 C 144.589 45.881, 144.538 44.862, 143.609 44.090 C 141.562 42.392, 120.806 41.652, 118.889 43.209 M 59.548 62.144 C 52.160 63.091, 50.827 64.026, 51.241 67.971 C 51.497 70.410, 51.639 70.446, 62 70.673 C 67.775 70.800, 73.287 70.670, 74.250 70.385 C 76.176 69.813, 76.743 65, 74.883 65 C 74.259 65, 73.997 64.118, 74.290 63 C 74.754 61.224, 74.348 61.014, 70.656 61.126 C 68.370 61.196, 63.372 61.654, 59.548 62.144 M 137.450 61.879 C 136.928 62.362, 133.193 63.232, 129.150 63.812 C 125.108 64.391, 121.630 65.036, 121.422 65.245 C 121.214 65.453, 120.921 66.700, 120.772 68.016 C 120.417 71.139, 123.495 72.629, 132 73.454 C 135.575 73.801, 139.625 74.290, 141 74.540 C 142.375 74.791, 144.153 74.578, 144.950 74.066 C 146.612 72.999, 146.938 66.224, 145.377 65.183 C 144.814 64.807, 144.064 63.712, 143.708 62.750 C 143.030 60.912, 139.089 60.363, 137.450 61.879" stroke="none" fill="black" fill-rule="evenodd"/>
</svg>