<svg xmlns="http://www.w3.org/2000/svg" width="256" height="256" viewBox="0 0 256 256" version="1.1">
	<path d="M 48.773 24.878 C 34.960 25.862, 36.113 21.635, 35.786 72.500 C 35.570 106.239, 35.831 117.869, 37 126.500 C 37.819 132.550, 38.494 141.550, 38.500 146.500 C 38.505 151.450, 38.908 156.325, 39.394 157.334 C 41.474 161.647, 47.771 160.993, 49.937 156.238 C 51.280 153.291, 51.183 137.247, 49.792 132.209 C 48.566 127.769, 49.694 121, 51.659 121 C 52.475 121, 53.832 121.690, 54.675 122.532 C 55.903 123.760, 57.643 123.935, 63.440 123.409 C 72.825 122.559, 75.244 123.663, 73.941 128.206 C 73.435 129.972, 73.312 135.205, 73.667 139.835 C 74.181 146.518, 74.777 148.792, 76.557 150.862 L 78.800 153.469 88.150 151.551 C 93.293 150.496, 101.325 149.555, 106 149.460 C 110.675 149.365, 118.134 148.958, 122.576 148.555 L 130.652 147.823 134.869 151.874 C 140.319 157.110, 144.406 157.950, 150.378 155.059 C 155.274 152.689, 155.596 152.174, 157.601 143.500 C 158.364 140.200, 159.278 136.600, 159.633 135.500 C 160.993 131.278, 159.559 33.602, 158.080 29.710 C 157.549 28.314, 156.203 26.882, 155.088 26.528 C 153.974 26.174, 142.586 25.499, 129.781 25.027 C 106.929 24.185, 106.470 24.207, 104.882 26.235 C 102.669 29.062, 101.634 39.733, 101.899 57 C 102.116 71.101, 102.193 71.575, 104.717 74.217 C 107.229 76.848, 107.599 76.923, 116.406 76.572 C 127.304 76.138, 134.457 75.132, 138.383 73.481 C 142.069 71.931, 144.741 72.624, 145.630 75.358 C 146.012 76.536, 146.421 90.100, 146.538 105.500 C 146.738 131.930, 146.635 133.738, 144.698 137.750 C 142.595 142.104, 141.557 142.564, 135.079 142.017 C 131.171 141.686, 126.084 136.969, 125.355 133 C 125.001 131.075, 124.282 129.221, 123.758 128.880 C 122.078 127.789, 127.229 124.030, 132.815 122.269 C 138.448 120.493, 140.755 117.721, 138.708 115.184 C 136.730 112.733, 129.618 109.757, 119.220 107.029 C 116.866 106.412, 115.173 105.529, 115.459 105.067 C 115.744 104.605, 115.308 103.671, 114.489 102.991 C 112.199 101.090, 112.562 97, 115.021 97 C 116.133 97, 118.847 95.806, 121.053 94.346 C 124.668 91.954, 125.041 91.319, 124.839 87.902 C 124.631 84.381, 124.357 84.067, 120.997 83.500 C 119.007 83.163, 113.356 82.709, 108.439 82.491 C 103.523 82.272, 99.141 82.072, 98.702 82.047 C 96.772 81.934, 93 76.493, 93 73.822 C 93 72.235, 92.353 69.387, 91.562 67.495 C 90.603 65.198, 90.397 63.104, 90.943 61.198 C 91.852 58.028, 91.544 39.812, 90.459 32.576 C 89.913 28.936, 89.192 27.637, 87.131 26.585 C 83.974 24.972, 61.490 23.972, 48.773 24.878 M 54.386 35.772 C 52.243 36.002, 50.925 36.869, 50.158 38.553 C 49.545 39.899, 49.371 41.052, 49.771 41.116 C 50.172 41.180, 54.775 41.350, 60 41.492 C 65.225 41.635, 70.533 42.011, 71.795 42.327 C 73.058 42.644, 74.745 42.651, 75.545 42.344 C 77.684 41.524, 77.329 37.246, 75.020 36.010 C 73.225 35.050, 62.277 34.923, 54.386 35.772 M 118.180 36.013 C 116.545 36.700, 115.954 37.654, 116.180 39.244 C 116.465 41.254, 117.100 41.514, 122 41.630 C 125.025 41.701, 130.818 41.926, 134.874 42.130 C 141.032 42.439, 142.430 42.215, 143.357 40.769 C 144.224 39.416, 144.080 38.651, 142.700 37.269 C 141.277 35.844, 138.947 35.455, 130.717 35.269 C 125.097 35.142, 119.456 35.476, 118.180 36.013 M 52.102 54.750 C 52.046 55.987, 51.550 57, 51 57 C 49.486 57, 49.803 59.592, 51.488 60.990 C 53.605 62.747, 54.562 59.838, 53.231 55.694 C 52.400 53.110, 52.185 52.929, 52.102 54.750 M 67.205 55.035 C 65.992 56.017, 65 57.241, 65 57.755 C 65 59.636, 68.953 62.195, 72.090 62.345 C 74.812 62.476, 75.428 62.074, 76.069 59.750 C 76.486 58.237, 76.468 57, 76.030 57 C 75.592 57, 75.013 56.156, 74.743 55.125 C 74.111 52.707, 70.139 52.660, 67.205 55.035 M 134.337 55.487 C 129.621 58, 129.833 58.459, 137.692 62.765 C 141.468 64.834, 141.964 64.893, 143.413 63.444 C 145.441 61.416, 145.431 58.587, 143.385 55.465 C 141.463 52.532, 139.875 52.536, 134.337 55.487 M 50.099 75.206 C 48.047 77.590, 47.971 78.384, 47.925 97.837 C 47.892 112.008, 48.173 115.615, 49.465 117.587 C 51.335 120.442, 52.640 120.658, 53.466 118.250 C 53.796 117.287, 56.189 114.925, 58.783 113 C 63.357 109.606, 63.750 109.506, 71.775 109.695 C 76.326 109.803, 79.817 109.512, 79.531 109.050 C 79.245 108.588, 79.731 107.934, 80.609 107.596 C 81.588 107.221, 81.967 106.356, 81.587 105.365 C 81.245 104.475, 81.472 103.136, 82.091 102.390 C 83.776 100.361, 79.430 99.063, 71.466 99.216 C 66.717 99.308, 64.583 98.943, 63.957 97.931 C 61.790 94.424, 66.758 87.398, 72.169 86.316 C 76.307 85.489, 79.262 81.599, 79.059 77.250 C 78.853 72.869, 79.299 72.997, 65.117 73.254 C 53.786 73.460, 51.327 73.779, 50.099 75.206 M 96.758 93.575 C 96.184 94.149, 93.612 94.779, 91.250 94.923 C 88.602 95.086, 90.155 97, 92.935 97 C 94.549 97, 97.026 97.440, 98.439 97.977 C 100.197 98.645, 101.800 98.593, 103.515 97.811 C 106 96.679, 106.005 96.653, 104.053 94.835 C 102.172 93.082, 97.976 92.358, 96.758 93.575 M 96.197 113.009 C 93.831 114.084, 91.247 115.611, 90.455 116.402 C 89.203 117.654, 89.632 118.006, 93.758 119.109 C 99.595 120.670, 112.554 120.615, 114.474 119.022 C 116.814 117.080, 114.411 113.305, 110.383 112.596 C 101.773 111.079, 100.357 111.121, 96.197 113.009 M 89.971 132.583 C 89.131 132.846, 87.840 134.027, 87.103 135.207 C 85.938 137.072, 85.999 137.526, 87.572 138.677 C 90.151 140.562, 108.465 140.935, 110.261 139.139 C 111.560 137.840, 110.283 134.328, 108.212 133.503 C 106.064 132.647, 92.028 131.939, 89.971 132.583" stroke="none" fill="black" fill-rule="evenodd"/>
</svg>