<svg xmlns="http://www.w3.org/2000/svg" width="256" height="256" viewBox="0 0 256 256" version="1.1">
	<path d="M 39.907 29.392 L 37.657 31.980 37.239 80.740 C 36.839 127.547, 36.906 129.846, 38.911 138.137 C 40.060 142.887, 41 148.165, 41 149.866 C 41 155.357, 43.815 160.739, 47.331 161.970 C 50.145 162.956, 50.707 162.825, 52.350 160.805 C 53.679 159.172, 54.051 157.541, 53.671 155.015 C 53.380 153.082, 52.427 147, 51.553 141.500 C 50.652 135.830, 49.707 121.542, 49.370 108.500 C 48.640 80.245, 47.557 82.208, 64.001 81.986 C 70.325 81.901, 78.043 82.146, 81.151 82.531 C 89.352 83.547, 89.492 83.180, 90.813 57.249 C 91.944 35.039, 91.540 30.895, 88.063 29.034 C 87.113 28.525, 76.396 27.816, 64.247 27.456 L 42.158 26.804 39.907 29.392 M 106.736 29.250 C 103.752 31.516, 102.883 36.134, 103.122 48.461 C 103.250 55.083, 103.248 65.028, 103.117 70.562 C 102.880 80.618, 102.881 80.625, 105.579 81.854 C 107.427 82.696, 113.631 83.033, 125.235 82.923 C 138.427 82.798, 142.491 83.066, 143.541 84.131 C 144.590 85.196, 144.936 91.111, 145.095 110.725 L 145.299 135.949 142.642 139.964 C 141.129 142.251, 138.482 144.607, 136.493 145.439 C 132.609 147.061, 132.532 147.220, 134.122 150.316 C 136.152 154.267, 140.333 158, 142.727 158 C 146.389 158, 152.810 154.270, 154.364 151.240 C 155.137 149.733, 156.009 146.475, 156.302 144 C 156.595 141.525, 157.317 136.800, 157.907 133.500 C 158.517 130.084, 158.742 122.332, 158.429 115.500 C 158.127 108.900, 157.740 87.616, 157.569 68.201 C 157.258 32.932, 157.256 32.901, 154.954 30.451 L 152.651 28 130.517 28 C 114.354 28, 107.938 28.337, 106.736 29.250 M 62.500 39.675 C 54.242 40.373, 51.999 41.042, 52.031 42.795 C 52.095 46.249, 56.882 48.352, 65.735 48.817 C 73.048 49.201, 74.270 49.021, 75.514 47.378 C 77.268 45.062, 77.398 41.798, 75.800 40.200 C 74.656 39.056, 71.357 38.925, 62.500 39.675 M 126 40.781 C 116.934 41.122, 114.884 42.693, 118.464 46.555 C 120.544 48.800, 121.467 49, 129.750 49 C 138.149 49, 138.877 48.836, 140.331 46.617 C 141.562 44.739, 141.639 43.915, 140.696 42.723 C 139.232 40.873, 135.764 40.415, 126 40.781 M 66.918 61.125 C 65.588 61.497, 61.751 61.566, 58.390 61.277 C 52.329 60.757, 52.276 60.775, 51.743 63.563 C 50.863 68.168, 51.763 69.106, 56.874 68.907 C 59.418 68.807, 64.446 69.055, 68.046 69.458 C 74.430 70.171, 74.622 70.125, 75.775 67.595 C 76.425 66.168, 76.548 65, 76.048 65 C 75.548 65, 74.995 64.025, 74.820 62.833 C 74.476 60.503, 71.467 59.852, 66.918 61.125 M 133.500 61.529 C 131.300 62.321, 127.899 62.977, 125.941 62.985 C 123.984 62.993, 121.509 63.647, 120.441 64.439 C 118.719 65.715, 118.670 66.042, 120 67.329 C 122.127 69.388, 141.928 70.728, 142.168 68.830 C 143.247 60.262, 141.380 58.690, 133.500 61.529 M 82.500 90.620 C 75.606 93.155, 74.924 94.983, 74.618 111.763 C 74.469 119.868, 73.884 127.400, 73.317 128.500 C 72.750 129.600, 71.730 133.425, 71.049 137 C 70.369 140.575, 69.332 144.083, 68.746 144.796 C 67.376 146.460, 67.603 152.817, 69.096 154.616 C 70.678 156.522, 74.352 156.350, 76.908 154.250 C 78.080 153.287, 80.076 149.598, 81.344 146.052 C 84.499 137.232, 86.686 135.763, 97.508 135.195 C 104.721 134.816, 106.370 135.025, 108.031 136.528 C 110.680 138.925, 110.719 144.637, 108.092 145.471 C 104.943 146.470, 104.976 148.596, 108.194 151.887 C 113.272 157.081, 119.630 155.845, 124.171 148.782 C 126.755 144.763, 126.774 144.610, 125.035 142.084 C 123.795 140.284, 122.875 135.726, 122.003 127.059 C 121.314 120.216, 120.451 113.466, 120.086 112.059 C 119.058 108.106, 119.872 105.407, 122.517 103.991 C 123.845 103.280, 124.696 102.316, 124.407 101.849 C 124.118 101.382, 124.349 101, 124.920 101 C 126.672 101, 124.099 96.731, 120.700 94 C 118.161 91.959, 116.021 91.371, 109.045 90.795 C 89.206 89.157, 86.527 89.139, 82.500 90.620 M 88.148 103.134 C 87.037 104.914, 87.038 105.409, 88.158 106.119 C 88.896 106.587, 89.725 107.001, 90 107.039 C 99.976 108.434, 105.801 108.410, 107.540 106.967 C 108.743 105.968, 108.733 105.590, 107.472 104.329 C 106.662 103.520, 106 102.439, 106 101.929 C 106 101.418, 102.283 101, 97.741 101 C 90.391 101, 89.334 101.235, 88.148 103.134 M 99.200 116.319 C 95.677 117.899, 96.601 122.051, 100.960 124.227 C 104.333 125.910, 104.480 125.898, 106.770 123.747 C 108.062 122.533, 108.642 121.381, 108.059 121.186 C 107.477 120.992, 107 120.015, 107 119.014 C 107 116.578, 102.269 114.943, 99.200 116.319" stroke="none" fill="black" fill-rule="evenodd"/>
</svg>