<svg xmlns="http://www.w3.org/2000/svg" width="256" height="256" viewBox="0 0 256 256" version="1.1">
	<path d="M 39.383 29.347 L 36.776 31.589 36.397 62.545 C 35.741 116.089, 36.003 128.545, 38.006 139 C 39.007 144.225, 39.803 149.400, 39.776 150.500 C 39.673 154.629, 40.064 155.776, 42.452 158.354 C 44.988 161.090, 49.331 161.892, 50.589 159.856 C 51.310 158.689, 51.336 147.122, 50.625 143.500 C 48.705 133.718, 47.517 87.154, 49.098 83.684 C 50.115 81.452, 51.206 81.034, 58.871 79.936 C 65.505 78.986, 69.065 78.966, 74.269 79.850 C 89.133 82.375, 90.586 81.292, 91.303 67.162 C 92.890 35.884, 92.427 30.189, 88.158 28.479 C 87.246 28.114, 76.485 27.655, 64.245 27.460 C 42.379 27.110, 41.945 27.143, 39.383 29.347 M 105.273 30.712 C 103.722 33.083, 103.494 36.060, 103.451 54.462 C 103.396 77.635, 103.944 80.427, 108.733 81.389 C 110.255 81.695, 116.225 81.951, 122 81.957 C 127.775 81.963, 133.400 82.020, 134.500 82.083 C 135.600 82.146, 137.746 81.917, 139.269 81.576 C 141.350 81.108, 142.661 81.532, 144.549 83.283 L 147.061 85.612 147.281 110.400 L 147.500 135.188 144.598 137.503 C 143.002 138.776, 140.527 140.056, 139.098 140.348 C 137.669 140.640, 135.375 141.162, 133.999 141.508 C 132.162 141.971, 130.500 141.390, 127.733 139.319 L 123.966 136.500 124.309 129.555 C 124.539 124.888, 124.178 121.659, 123.207 119.712 C 122.412 118.119, 121.703 114.518, 121.631 111.710 C 121.516 107.215, 121.796 106.455, 123.983 105.344 C 127.188 103.717, 129.010 101.191, 128.305 99.354 C 127.149 96.339, 116.792 92.225, 108.700 91.566 C 104.438 91.219, 99.853 90.435, 98.510 89.823 C 96.711 89.003, 94.569 89.011, 90.367 89.855 C 87.232 90.485, 82.541 91, 79.944 91 C 72.579 91, 70.743 93.075, 70.457 101.724 C 70.328 105.604, 69.786 109.560, 69.251 110.516 C 68.567 111.738, 68.752 113.178, 69.876 115.376 C 71.047 117.667, 71.494 121.568, 71.553 130 C 71.636 141.730, 73.109 147.337, 76.445 148.617 C 77.182 148.900, 80.196 147.864, 83.143 146.316 C 88.280 143.616, 89.056 143.503, 102 143.580 C 117.759 143.673, 124.016 144.771, 127.725 148.095 C 129.202 149.418, 130.981 151.018, 131.678 151.652 C 135.879 155.467, 140.262 157.228, 144.230 156.696 C 151.322 155.745, 154.231 152.633, 157.500 142.500 C 161.051 131.494, 161.211 129.692, 160.469 109 C 160.065 97.725, 159.595 77.025, 159.423 63 C 159.252 48.975, 159.087 36.263, 159.056 34.750 C 159.025 33.237, 158.100 31.100, 157 30 C 155.111 28.111, 153.667 28, 131.023 28 L 107.046 28 105.273 30.712 M 68 39 C 66.625 39.440, 63.475 39.852, 61 39.914 C 54.593 40.075, 52 40.964, 52 42.998 C 52 44.491, 53.311 44.873, 60.496 45.471 C 65.169 45.860, 69.246 46.589, 69.555 47.089 C 70.500 48.618, 74.200 48.105, 75.608 46.250 C 77.278 44.050, 77.367 40.767, 75.800 39.200 C 74.464 37.864, 71.764 37.795, 68 39 M 119 41.500 C 116.664 44.315, 119.530 45.989, 126.872 46.100 C 130.518 46.155, 134.620 46.511, 135.990 46.892 C 139.357 47.830, 142.983 46.009, 142.992 43.375 C 143.002 40.722, 139.901 40, 128.497 40 C 122.382 40, 119.923 40.388, 119 41.500 M 138 58.608 C 136.075 59.449, 131.472 60.396, 127.772 60.712 C 122.246 61.184, 120.932 61.638, 120.419 63.255 C 119.393 66.487, 122.229 68.260, 128.993 68.617 C 132.363 68.794, 136.556 69.336, 138.311 69.820 C 142.533 70.986, 144.585 70.056, 144.534 67 C 144.511 65.625, 144.812 63.777, 145.204 62.894 C 145.649 61.891, 145.166 60.482, 143.919 59.144 C 142.821 57.965, 141.827 57.018, 141.711 57.039 C 141.595 57.061, 139.925 57.767, 138 58.608 M 69 59.147 C 66.525 59.658, 62.142 59.801, 59.260 59.467 C 52.462 58.678, 50 59.486, 50 62.508 C 50 65.663, 50.376 65.813, 58.955 66.091 C 63.018 66.223, 68.177 66.667, 70.421 67.078 C 72.664 67.489, 74.977 67.431, 75.560 66.948 C 77.356 65.461, 76.169 57.796, 74.191 58.110 C 73.811 58.170, 71.475 58.637, 69 59.147 M 84.062 103.885 C 82.098 107.554, 88.549 112.069, 95.388 111.812 C 97.202 111.744, 99.211 112.012, 99.853 112.409 C 101.446 113.394, 109.733 109.130, 110.278 107.045 C 110.965 104.418, 106.606 103.148, 95.227 102.659 C 86.374 102.279, 84.830 102.448, 84.062 103.885 M 100.542 122.791 C 100.317 123.016, 98.439 123.200, 96.369 123.200 C 90.718 123.200, 88 124.549, 88 127.353 C 88 128.674, 88.611 130.263, 89.359 130.883 C 90.957 132.209, 100.506 132.691, 103.761 131.609 C 106.444 130.718, 109.190 125.925, 108.062 124.101 C 107.324 122.906, 101.451 121.883, 100.542 122.791" stroke="none" fill="black" fill-rule="evenodd"/>
</svg>