<svg xmlns="http://www.w3.org/2000/svg" width="256" height="256" viewBox="0 0 256 256" version="1.1">
	<path d="M 82.917 29.372 C 82.688 29.577, 79.068 29.982, 74.873 30.271 C 63.075 31.086, 60.240 33.547, 61.521 41.864 C 61.914 44.414, 62.155 50.216, 62.056 54.758 C 61.956 59.320, 62.433 64.556, 63.121 66.458 C 64.157 69.323, 64.063 71.627, 62.563 80.200 C 59.826 95.838, 60.131 95.386, 52.858 94.563 C 47.397 93.946, 46.515 94.107, 44.382 96.111 C 42.812 97.586, 42 99.466, 42 101.629 C 42 104.585, 42.345 104.974, 45.493 105.565 C 47.415 105.925, 50.162 105.925, 51.599 105.564 C 53.263 105.147, 55.080 105.478, 56.604 106.476 L 58.996 108.044 58.582 125.272 C 58.354 134.747, 58.077 142.950, 57.966 143.500 C 57.277 146.899, 58.309 150.382, 60.646 152.548 C 64.084 155.734, 71.141 155.829, 82.380 152.841 C 90.911 150.573, 93 149.096, 93 145.332 C 93 141.531, 88.640 139.509, 80.279 139.434 C 75.898 139.395, 72.474 138.874, 71.734 138.135 C 70.475 136.875, 70.094 126.016, 70.918 114.834 C 71.438 107.778, 72.236 107.339, 85.022 107.083 C 93.505 106.913, 94.910 107.143, 97.894 109.196 C 100.700 111.125, 101.294 112.206, 101.547 115.837 C 101.967 121.880, 107.937 130.365, 113.958 133.478 C 115.553 134.303, 117.114 135.771, 117.427 136.739 C 118.728 140.765, 129.682 150.157, 137 153.522 C 144.350 156.902, 155 156.676, 155 153.139 C 155 150.759, 143.337 139.586, 138.928 137.742 C 137.043 136.954, 134.861 135.113, 134.079 133.651 C 132.827 131.308, 132.850 130.785, 134.279 129.246 C 140.277 122.785, 142.015 120.484, 142.125 118.852 C 142.194 117.833, 142.306 115.650, 142.375 114 C 142.465 111.841, 143.682 109.921, 146.721 107.142 C 150.696 103.509, 150.886 103.090, 149.983 99.940 C 148.134 93.493, 148.033 93.467, 126.214 93.811 C 77.950 94.572, 74.067 94.311, 74.015 90.309 C 73.991 88.453, 81.675 87.386, 89.445 88.167 C 93.325 88.557, 104.012 88.904, 113.194 88.938 C 129.235 88.998, 129.993 88.910, 132.572 86.691 C 135.862 83.862, 135.302 81.064, 130.807 77.862 C 127.852 75.758, 126.722 75.666, 101.850 75.487 C 87.615 75.386, 75.664 74.998, 75.292 74.625 C 74.920 74.253, 74.471 73.001, 74.294 71.843 C 73.590 67.228, 74.577 67.060, 101.464 67.209 C 129.170 67.363, 133 66.781, 133 62.418 C 133 59.930, 130.113 56.674, 126 54.523 C 124.190 53.576, 117.499 53.178, 101.749 53.082 C 89.786 53.009, 78.874 52.522, 77.499 52 C 75.603 51.279, 75 50.328, 75 48.060 C 75 43.495, 77.569 42.653, 88.887 43.511 C 115.066 45.495, 136.422 44.397, 137.496 41.014 C 138.429 38.073, 136.997 36.162, 132.662 34.561 C 125.455 31.900, 119.835 31.102, 107.994 31.060 C 101.672 31.037, 94.700 30.575, 92.500 30.033 C 88.423 29.029, 83.668 28.701, 82.917 29.372 M 113.239 107.666 C 112.545 107.946, 111.528 109.013, 110.980 110.038 C 110.167 111.557, 110.715 112.649, 113.952 115.951 C 118.399 120.488, 117.875 120.344, 124.030 118.706 C 133.236 116.255, 136.481 110.907, 130.434 108.152 C 127.946 107.018, 115.704 106.673, 113.239 107.666" stroke="none" fill="black" fill-rule="evenodd"/>
</svg>