<svg xmlns="http://www.w3.org/2000/svg" width="256" height="256" viewBox="0 0 256 256" version="1.1">
	<path d="M 49.500 25.655 C 39.741 26.102, 37.279 27.251, 36.015 31.946 C 34.445 37.777, 34.136 127.284, 35.662 134.500 C 36.359 137.800, 36.946 143.342, 36.965 146.816 C 37.007 154.308, 37.961 156.442, 41.884 157.810 C 44.396 158.685, 45.117 158.504, 46.970 156.532 C 48.882 154.497, 49.105 153.235, 48.920 145.534 C 48.805 140.749, 48.314 134.734, 47.828 132.167 C 47.343 129.600, 47.003 123, 47.074 117.500 C 47.144 112, 47.269 100.482, 47.351 91.904 C 47.516 74.606, 48.217 72.296, 52.939 73.483 C 60.693 75.431, 87.607 74.224, 89.080 71.862 C 89.399 71.350, 89.763 68.393, 89.889 65.291 C 90.014 62.188, 90.462 58.941, 90.884 58.075 C 91.729 56.340, 91.502 42.505, 90.492 34.224 C 90.019 30.342, 89.275 28.580, 87.675 27.556 C 85.318 26.049, 64.032 24.988, 49.500 25.655 M 104.495 27.368 C 102.155 30.938, 101.483 37.232, 101.703 53.495 C 101.937 70.784, 102.234 72.520, 105.227 74.122 C 107.211 75.183, 117.127 75.438, 121.756 74.547 C 122.754 74.355, 126.254 73.893, 129.535 73.520 C 132.816 73.147, 136.949 72.397, 138.719 71.854 C 143.017 70.534, 146.060 73.159, 145.944 78.086 C 145.900 79.964, 146.134 93.695, 146.465 108.600 C 147.175 140.620, 147.588 139.473, 136 137.649 C 134.625 137.432, 131.137 137.198, 128.250 137.128 L 123 137 123 133.475 C 123 130.650, 123.489 129.765, 125.464 129.014 C 126.960 128.445, 128.954 126.052, 130.541 122.919 C 132.724 118.612, 133.046 116.970, 132.496 112.968 C 132.081 109.956, 132.275 107.355, 133.017 105.969 C 133.966 104.194, 133.867 103.032, 132.510 100.021 C 131.286 97.308, 130.956 94.608, 131.309 90.202 C 132.007 81.489, 130.836 80.632, 119.383 81.480 C 112.863 81.962, 109.698 81.763, 107.056 80.704 C 96.322 76.403, 94.615 76.122, 90.720 78.017 C 88.707 78.996, 86.307 80.550, 85.386 81.471 C 84.408 82.449, 82.837 82.929, 81.606 82.627 C 80.448 82.342, 76.125 81.817, 72 81.460 C 63.821 80.753, 59 81.908, 59 84.574 C 59 87.266, 62.080 92.892, 63.846 93.427 C 67.973 94.677, 72.382 94.999, 72.943 94.092 C 73.645 92.957, 83.318 91.801, 85.408 92.603 C 87.090 93.249, 86.895 99.202, 85.173 99.776 C 84.521 99.993, 84.242 100.582, 84.553 101.085 C 84.864 101.588, 84.191 102, 83.059 102 C 81.927 102, 81 101.608, 81 101.128 C 81 100.090, 73.548 98.624, 70 98.964 C 63.291 99.607, 61.468 102.280, 61.138 111.955 C 60.880 119.531, 61.075 120.501, 63.593 124.134 C 65.097 126.304, 67.604 128.834, 69.164 129.756 C 70.724 130.677, 72 131.814, 72 132.281 C 72 134.047, 69.878 137, 68.609 137 C 66.369 137, 58 143.987, 58 145.857 C 58 146.828, 58.964 148.658, 60.143 149.923 C 61.979 151.894, 63.032 152.162, 67.485 151.793 C 74.205 151.236, 78.234 148.334, 81.104 141.985 C 83.150 137.458, 83.661 137, 86.678 137 C 88.505 137, 90 137.367, 90 137.815 C 90 138.263, 91.579 139.383, 93.510 140.303 L 97.020 141.977 100.718 138.489 C 104.381 135.034, 109.153 133.820, 110.500 136 C 110.840 136.550, 112.225 137, 113.577 137 C 116.304 137, 125.207 141.340, 127.060 143.572 C 127.714 144.360, 129.983 145, 132.122 145 C 136.509 145, 139.177 147.096, 141.322 152.227 C 142.075 154.027, 143.824 156.106, 145.209 156.846 C 147.368 158, 148.175 157.961, 150.854 156.575 C 155.126 154.366, 156.825 151.437, 159.135 142.301 C 160.952 135.112, 161.062 132.186, 160.533 105 C 159.551 54.546, 159.009 35.630, 158.442 31.958 C 157.541 26.128, 156.385 25.864, 129.872 25.445 L 106.002 25.067 104.495 27.368 M 59.337 35.741 C 53.029 36.043, 51.983 36.377, 50.564 38.542 C 48.666 41.439, 48.341 41.316, 58.500 41.547 C 62.900 41.647, 68.284 41.990, 70.464 42.309 C 75.032 42.978, 77.022 41.802, 76.260 38.887 C 75.672 36.639, 72.080 34.890, 68.685 35.199 C 67.483 35.308, 63.277 35.552, 59.337 35.741 M 116.362 37.500 C 114.983 41.092, 116.580 41.778, 126.677 41.932 C 132.080 42.014, 137.838 42.176, 139.473 42.291 C 143.049 42.542, 144.275 39.406, 141.418 37.316 C 138.676 35.311, 117.141 35.469, 116.362 37.500 M 50.651 55.087 C 48.320 58.416, 48.482 62, 50.965 62 C 53.962 62, 55.366 58.577, 53.685 55.368 L 52.303 52.730 50.651 55.087 M 136.536 55.798 C 136.342 55.992, 135.580 56.239, 134.842 56.347 C 131.921 56.776, 132.957 58.617, 137.408 60.907 C 142.288 63.418, 143.872 63.078, 144.412 59.402 C 144.792 56.807, 142.638 54.970, 139.520 55.228 C 138.072 55.347, 136.729 55.604, 136.536 55.798 M 66.692 57.086 C 64.976 58.110, 64.992 58.259, 67.019 60.016 C 69.975 62.580, 74.404 62.135, 74.820 59.232 C 75.011 57.893, 74.611 56.995, 73.820 56.986 C 73.094 56.979, 71.600 56.755, 70.500 56.490 C 69.400 56.224, 67.686 56.492, 66.692 57.086 M 103.471 92.288 C 102.264 93.710, 102.762 97.205, 104.311 98.180 C 104.905 98.554, 108.790 98.621, 112.945 98.330 C 120.819 97.778, 124.211 96.391, 120.233 95.351 C 119.005 95.029, 118 94.447, 118 94.055 C 118 93.289, 108.932 90.975, 106.174 91.038 C 105.253 91.059, 104.037 91.621, 103.471 92.288 M 80.768 107 C 80.081 108.100, 79.024 109, 78.420 109 C 76.825 109, 74.836 113.908, 75.536 116.115 C 75.866 117.152, 76.723 118, 77.442 118 C 78.162 118, 80.083 118.267, 81.711 118.592 C 85.962 119.442, 88.036 117.051, 87.522 111.891 C 86.875 105.384, 83.365 102.842, 80.768 107 M 103 108.583 C 101.625 109.346, 101.091 109.977, 101.813 109.985 C 102.584 109.994, 102.997 110.888, 102.813 112.153 C 102.355 115.301, 107.804 118.203, 111.944 117.016 C 113.627 116.533, 115.711 115.432, 116.574 114.569 C 117.999 113.144, 117.930 112.999, 115.821 112.985 C 113.956 112.972, 113.794 112.779, 115 112 C 116.235 111.202, 116.250 111.028, 115.083 111.015 C 114.304 111.007, 113.960 110.707, 114.318 110.348 C 115.238 109.429, 110.203 106.980, 107.636 107.098 C 106.461 107.152, 104.375 107.820, 103 108.583 M 97.250 145.731 C 95.764 146.249, 95.565 148.946, 97 149.125 C 100.083 149.510, 101 149.424, 101 148.750 C 101 148.338, 101 147.598, 101 147.107 C 101 145.956, 98.858 145.170, 97.250 145.731" stroke="none" fill="black" fill-rule="evenodd"/>
</svg>