<svg xmlns="http://www.w3.org/2000/svg" width="256" height="256" viewBox="0 0 256 256" version="1.1">
	<path d="M 89.872 30.654 C 88.839 31.900, 88.500 36.155, 88.500 47.904 C 88.500 67.995, 88.179 68.679, 73.500 79.920 C 68.525 83.730, 68.441 83.753, 56.605 84.424 C 41.765 85.266, 35.884 87.909, 37.503 93.009 C 38.452 95.999, 41.930 97, 51.365 97 C 60.574 97, 62 97.755, 62 102.635 C 62 104.414, 62.426 106.989, 62.946 108.357 C 63.466 109.726, 64.150 120.541, 64.465 132.392 C 64.781 144.242, 65.321 154.740, 65.665 155.719 C 66.895 159.222, 69.996 160.792, 73.893 159.886 C 75.877 159.425, 84.925 159.008, 94 158.959 C 118.224 158.830, 145.035 157.392, 148.709 156.026 C 152.384 154.660, 153.780 151.649, 151.833 149.289 C 151.100 148.402, 148.601 146.833, 146.281 145.804 C 142.458 144.109, 141.284 144.046, 133.763 145.134 C 129.199 145.794, 124.248 146.028, 122.761 145.655 C 118.973 144.704, 117.672 141.913, 119.681 139.046 C 121.198 136.879, 121.659 136.812, 130.445 137.470 C 140.415 138.218, 142.450 137.437, 141.363 133.280 C 140.780 131.052, 137.818 129.553, 132 128.544 C 126.994 127.676, 124.252 125.410, 125.607 123.262 C 126.401 122.002, 128.195 121.558, 132.729 121.499 C 138.315 121.426, 142 120.017, 142 117.954 C 142 117.514, 140.892 115.837, 139.538 114.228 C 137.846 112.217, 134.878 110.609, 130.038 109.081 C 126.167 107.860, 123 106.497, 123 106.052 C 123 104.233, 125.782 103.188, 130.500 103.235 C 135.813 103.288, 146.335 101.390, 149.250 99.853 C 152.131 98.333, 151.386 94.665, 147.750 92.466 C 145.250 90.954, 142.026 90.383, 133.779 89.995 L 123.058 89.489 117.748 84.245 C 111.941 78.510, 108.051 77.324, 107.931 81.250 C 107.778 86.239, 107.036 89.365, 105.801 90.217 C 104.722 90.962, 90.187 90.546, 89.427 89.749 C 87.990 88.240, 88.959 85.650, 91.500 84.205 C 93.150 83.267, 94.650 82.162, 94.833 81.750 C 95.017 81.338, 95.804 81, 96.583 81 C 97.362 81, 98 80.622, 98 80.161 C 98 78.867, 102.754 77, 106.047 77 C 107.671 77, 109 76.611, 109 76.136 C 109 74.424, 114.208 70.113, 117.024 69.495 C 118.607 69.147, 122.641 66.419, 125.989 63.431 C 129.336 60.444, 133.014 58, 134.162 58 C 135.309 58, 139.844 59.800, 144.240 62 C 153.354 66.562, 154.521 66.763, 155.988 64.023 C 157.597 61.016, 155.200 56.405, 148.402 49.426 C 145.156 46.093, 141.150 41.683, 139.500 39.625 C 136.274 35.602, 129.801 32.716, 126.146 33.672 C 122.825 34.541, 123.393 38.955, 127.490 44.109 C 129.753 46.956, 130.973 49.555, 130.958 51.500 C 130.935 54.710, 128.485 58.956, 127.816 56.948 C 127.279 55.337, 120.245 53.033, 115.807 53.015 C 113.776 53.007, 110.497 53.954, 108.520 55.121 C 105.203 57.078, 104.787 57.117, 103.148 55.634 C 101.772 54.389, 101.336 52.298, 101.215 46.367 C 101.129 42.155, 100.561 37.200, 99.953 35.357 C 98.107 29.765, 92.703 27.243, 89.872 30.654 M 63.184 37.584 C 61.940 38.455, 59.572 41.492, 57.921 44.334 C 56.271 47.175, 52.913 52.363, 50.460 55.862 C 44.895 63.800, 44.441 68.111, 48.971 69.988 C 53.122 71.707, 57.242 69.138, 63 61.240 C 76.593 42.594, 76.960 41.687, 72.365 38.073 C 69.213 35.593, 66.251 35.436, 63.184 37.584 M 90.750 104.162 C 86.326 105.778, 87.170 107.360, 93 108.379 C 94.375 108.619, 96.769 109.308, 98.319 109.910 C 102.019 111.345, 105.499 110.394, 106.773 107.600 C 107.600 105.785, 107.434 105.128, 105.912 104.177 C 103.654 102.767, 94.595 102.758, 90.750 104.162 M 81.297 120.775 C 78.286 121.256, 77.205 124.945, 79.569 126.674 C 81.991 128.445, 85.097 128.345, 90.127 126.333 C 93.499 124.983, 95.060 124.870, 98.312 125.738 C 100.522 126.328, 102.914 126.586, 103.627 126.313 C 104.973 125.796, 106.521 122.187, 105.733 121.400 C 105.168 120.835, 84.268 120.300, 81.297 120.775 M 78.608 138.880 C 77.582 140.015, 77.028 141.630, 77.365 142.508 C 78.343 145.057, 83.987 146.879, 88.500 146.102 C 90.700 145.723, 94.300 145.751, 96.500 146.163 C 102.861 147.355, 103.948 147.159, 106.553 144.348 C 108.853 141.866, 108.898 141.617, 107.254 140.465 C 106.287 139.788, 101.897 138.964, 97.498 138.633 C 93.099 138.303, 87.466 137.763, 84.980 137.434 C 81.228 136.937, 80.144 137.183, 78.608 138.880" stroke="none" fill="black" fill-rule="evenodd"/>
</svg>