<svg xmlns="http://www.w3.org/2000/svg" width="256" height="256" viewBox="0 0 256 256" version="1.1">
	<path d="M 111.739 29.595 C 111.411 29.922, 96.448 30.259, 78.486 30.345 L 45.828 30.500 43.410 33.310 C 41.533 35.491, 41.216 36.535, 41.989 37.980 C 43.781 41.329, 49.626 42.328, 68.500 42.515 C 86.426 42.691, 90.425 43.230, 89.707 45.373 C 89.446 46.153, 83.122 46.542, 69.172 46.637 C 58.085 46.713, 47.463 47.066, 45.567 47.421 C 41.491 48.186, 37 53.018, 37 56.639 C 37 58.006, 36.011 63.430, 34.802 68.693 L 32.604 78.262 35.358 80.631 C 38.371 83.224, 43.373 83.770, 45.413 81.729 C 48.258 78.884, 49.120 75.680, 48.846 68.965 C 48.495 60.375, 49.849 58.856, 56.713 60.139 C 62.159 61.156, 63.059 61.683, 62.379 63.455 C 62.079 64.237, 63.238 66.084, 65.025 67.673 C 66.775 69.228, 69.039 72.129, 70.056 74.119 C 71.893 77.710, 71.890 77.754, 69.704 79.780 C 68.492 80.903, 65.475 82.355, 63 83.008 C 60.525 83.661, 57.938 84.657, 57.250 85.220 C 55.767 86.436, 55.556 93, 57 93 C 58.775 93, 58.070 95.754, 55.032 100.684 C 49.521 109.625, 49.006 111.792, 50.976 117.738 C 51.930 120.619, 53.006 126.157, 53.368 130.045 C 54.410 141.262, 59.278 146.075, 65.266 141.810 C 67.021 140.561, 70.674 139.436, 74.350 139.012 C 77.733 138.623, 81.648 137.831, 83.051 137.252 C 88.113 135.166, 90.700 136.672, 93.981 143.616 C 95.641 147.130, 97 150.408, 97 150.899 C 97 152.644, 104.026 157.928, 107.883 159.083 C 110.745 159.940, 116.339 160.015, 128.667 159.359 C 143.933 158.548, 146.055 158.207, 151.017 155.778 C 154.842 153.905, 157.332 151.809, 159.250 148.847 C 162.603 143.669, 162.690 141.310, 159.691 136.898 C 157.548 133.745, 157.049 133.523, 152.763 133.825 C 148.776 134.106, 147.925 133.815, 146.539 131.700 C 145.656 130.352, 144.726 128.180, 144.473 126.874 C 144.221 125.569, 143.500 122.025, 142.871 119 C 142.243 115.975, 141.678 109.804, 141.615 105.287 C 141.530 99.202, 141.085 96.659, 139.897 95.470 C 138.684 94.256, 138.467 92.917, 139.005 89.973 C 139.827 85.477, 138.672 84.095, 130.778 80.126 C 124.155 76.796, 123.740 74.566, 128.855 69.794 C 131.115 67.686, 132.972 65.745, 132.982 65.481 C 132.992 65.216, 133 63.895, 133 62.545 C 133 60.521, 133.628 59.973, 136.580 59.419 C 138.807 59.001, 141.057 59.228, 142.533 60.018 C 144.804 61.233, 144.844 61.437, 143.468 64.731 C 142.417 67.246, 142.270 69.248, 142.924 72.159 C 144.976 81.292, 155.454 86.126, 158.968 79.561 C 160.211 77.238, 160.093 74.028, 158.147 57.178 C 156.700 44.649, 156.432 44.536, 129.625 45.209 C 119.089 45.474, 109.575 45.370, 108.484 44.977 C 104.357 43.494, 114.472 42.011, 128.750 42.006 C 136.588 42.003, 143 41.657, 143 41.237 C 143 40.818, 144.012 40.030, 145.250 39.487 C 148.648 37.996, 148.735 33.723, 145.420 31.116 C 142.949 29.172, 141.494 29, 127.532 29 C 119.173 29, 112.066 29.268, 111.739 29.595 M 81.973 61.668 C 80.613 62.586, 79.400 63.399, 79.277 63.475 C 79.155 63.550, 79.459 65.162, 79.954 67.056 C 80.448 68.950, 81.077 72.300, 81.350 74.500 C 81.624 76.700, 82.150 79.625, 82.519 81 C 83.543 84.810, 83.172 87.970, 81.506 89.637 C 80.678 90.465, 80 91.558, 80 92.065 C 80 93.093, 77.168 92.859, 75.271 91.675 C 74.595 91.253, 73.245 91.334, 72.271 91.855 C 70.426 92.842, 69.809 93, 67.786 93 C 66.986 93, 67.110 93.538, 68.147 94.576 C 69.466 95.895, 70.401 95.969, 73.876 95.033 C 76.161 94.418, 79.601 94.210, 81.521 94.570 C 85.090 95.239, 95.507 94.102, 93.259 93.288 C 92.345 92.958, 92.446 92.411, 93.643 91.214 C 94.967 89.890, 95.012 89.507, 93.884 89.145 C 91.613 88.415, 91.388 87.428, 91.174 77.248 C 90.920 65.186, 90.344 62.255, 87.984 60.992 C 85.487 59.655, 84.850 59.726, 81.973 61.668 M 105.655 62.829 C 103.821 64.855, 103.522 68.614, 104.905 72.251 C 105.403 73.561, 105.942 76.178, 106.103 78.066 C 106.579 83.651, 110.303 86.577, 110.792 81.750 C 111.235 77.369, 111.577 76.403, 113.777 73.314 C 116.197 69.915, 116.729 64.129, 114.800 62.200 C 112.978 60.378, 107.534 60.753, 105.655 62.829 M 107.450 85.919 C 107.763 86.425, 107.339 87.518, 106.509 88.348 C 103.329 91.528, 105.862 93.538, 114.173 94.428 C 122.862 95.359, 128 94.406, 128 91.864 C 128 89.742, 124.709 88.110, 118.726 87.264 C 116.650 86.970, 114.711 86.341, 114.417 85.865 C 114.123 85.389, 112.307 85, 110.382 85 C 108.457 85, 107.138 85.414, 107.450 85.919 M 82.500 104.982 C 81.400 105.445, 77.309 105.578, 73.408 105.278 C 67.491 104.824, 66.214 104.999, 65.701 106.338 C 65.119 107.853, 67.272 111, 68.890 111 C 69.301 111, 71.961 110.310, 74.802 109.466 C 79.517 108.066, 80.186 108.076, 82.476 109.576 C 85.708 111.694, 90 110.770, 90 107.956 C 90 106.723, 89.012 105.575, 87.435 104.975 C 86.024 104.439, 84.787 104.032, 84.685 104.070 C 84.583 104.109, 83.600 104.519, 82.500 104.982 M 112.514 105.355 L 108.528 106.556 110.987 108.278 C 113.736 110.204, 127.644 110.851, 126.500 109 C 126.160 108.450, 126.359 108, 126.941 108 C 127.523 108, 128 107.377, 128 106.617 C 128 103.911, 119.580 103.225, 112.514 105.355 M 67.250 120.733 C 62.335 124.033, 65.471 126.295, 74.844 126.211 C 77.842 126.184, 81.385 126.576, 82.717 127.082 C 85.931 128.305, 89.799 127.244, 91.119 124.778 C 92.802 121.634, 91.069 120.927, 80.664 120.517 C 75.366 120.308, 70.686 119.931, 70.265 119.680 C 69.844 119.429, 68.487 119.903, 67.250 120.733 M 107.498 123.004 C 106.235 125.047, 108.301 125.887, 115.617 126.308 C 119.531 126.533, 123.286 127.059, 123.962 127.477 C 124.638 127.894, 126.244 127.672, 127.532 126.983 C 129.644 125.852, 129.722 125.579, 128.326 124.183 C 126.339 122.196, 108.617 121.192, 107.498 123.004 M 124 137.563 C 122.075 138.291, 118.333 138.913, 115.684 138.944 C 109.659 139.014, 105.078 141.278, 105.015 144.215 C 104.974 146.147, 110.363 147.218, 121.856 147.563 C 137.008 148.019, 144.627 146.336, 145.637 142.311 C 146.451 139.067, 145.881 138.686, 138.168 137.330 C 129.909 135.878, 128.386 135.903, 124 137.563" stroke="none" fill="black" fill-rule="evenodd"/>
</svg>