<svg xmlns="http://www.w3.org/2000/svg" width="256" height="256" viewBox="0 0 256 256" version="1.1">
	<path d="M 78.854 30.295 C 77.398 30.958, 74.996 32.962, 73.515 34.750 C 69.338 39.792, 63.190 39.199, 56.684 33.128 C 52.318 29.052, 46.672 29.448, 40.957 34.229 C 38.506 36.281, 35.263 38.981, 33.751 40.229 C 30.427 42.975, 31.243 44.923, 35.969 45.521 C 40.578 46.105, 43.410 48.230, 45.498 52.675 C 46.487 54.779, 47.590 56.725, 47.951 57 C 50.076 58.622, 53.785 64.721, 53.198 65.626 C 52.814 66.217, 50.570 66.952, 48.212 67.260 C 39.867 68.350, 36.310 72.780, 35.352 83.278 C 34.831 88.979, 34.990 89.692, 37.248 91.790 C 40.391 94.709, 46.278 95.724, 49.637 93.927 C 52.383 92.457, 52.441 90.451, 49.914 84.300 C 48.749 81.465, 48.811 80.867, 50.455 79.050 C 52.852 76.401, 54.740 76.457, 56.995 79.242 C 58.228 80.765, 58.532 82.007, 57.941 83.111 C 57.462 84.005, 57.355 85.021, 57.702 85.369 C 58.049 85.716, 57.839 86, 57.234 86 C 56.629 86, 55.789 87.013, 55.367 88.250 C 54.301 91.370, 54.284 92.084, 55.193 95.477 C 56.572 100.623, 55.494 101.975, 50.110 101.854 C 47.488 101.795, 44.401 102.250, 43.251 102.866 C 39.399 104.927, 37.850 114.750, 41.317 115.129 C 41.968 115.201, 46.151 115.164, 50.612 115.049 C 57.045 114.883, 58.844 115.151, 59.301 116.343 C 59.699 117.378, 58.917 118.182, 56.790 118.923 C 52.591 120.387, 49.034 120.276, 44.078 118.527 C 40.356 117.214, 39.475 117.226, 35.943 118.640 C 31.568 120.390, 30.095 123.440, 31.950 126.907 C 32.812 128.518, 34.041 129.003, 37.285 129.015 C 42.799 129.035, 50.135 131.267, 51.428 133.317 C 52.239 134.603, 51.711 135.628, 48.900 138.221 C 46.946 140.025, 44.932 142.175, 44.424 143 C 43.916 143.825, 42.600 144.996, 41.500 145.602 C 38.505 147.252, 38.146 154.473, 40.983 155.991 C 43.569 157.375, 45.914 156.665, 52.421 152.527 C 59.372 148.106, 66.429 147.212, 72.649 149.963 C 78.374 152.495, 82.189 152.554, 84.371 150.143 C 85.947 148.401, 85.934 148.013, 84.162 143.879 C 81.731 138.206, 80.431 137.207, 74.980 136.819 C 72.516 136.643, 70.651 136.100, 70.835 135.612 C 71.020 135.123, 70.570 134.343, 69.835 133.877 C 69.039 133.372, 71.617 133.024, 76.221 133.015 C 86.246 132.995, 95 129.549, 95 125.623 C 95 124.001, 93.956 122.393, 92 121 C 88.532 118.530, 88.363 117.403, 90.725 112.451 C 92.405 108.927, 92.390 108.732, 90.151 104.842 L 87.853 100.849 93.101 95.174 C 95.988 92.053, 98.688 89.105, 99.102 88.623 C 100.776 86.671, 104.700 89.008, 106.518 93.039 C 108.020 96.371, 108.157 97.706, 107.263 100.310 C 105.889 104.317, 105.812 122.412, 107.152 126.750 C 107.849 129.009, 107.811 131.042, 107.028 133.415 C 106.184 135.972, 106.202 138.981, 107.099 145.394 C 108.784 157.438, 108.938 157.538, 123.725 156.201 C 130.201 155.615, 140.706 155.390, 147.070 155.700 C 160.490 156.353, 163 155.599, 163 150.915 C 163 144.462, 159.532 141.049, 152.941 141.014 C 148.882 140.992, 147.112 138.960, 146.655 133.797 C 146.158 128.184, 147.773 126.219, 153.626 125.318 C 159.541 124.408, 161.165 123.253, 160.810 120.212 C 160.565 118.116, 159.345 116.984, 155 114.821 C 148.374 111.523, 146 108.830, 146 104.612 C 146 99.715, 148.437 97, 152.834 97 C 157.071 97, 160.508 94.991, 161.273 92.066 C 161.898 89.674, 157.951 85.003, 155.298 84.994 C 154.309 84.991, 151.813 84.520, 149.750 83.947 C 146.498 83.044, 146 82.514, 146 79.953 C 146 77.155, 148.832 73.146, 151 72.875 C 151.550 72.806, 152.450 72.638, 153 72.500 C 153.550 72.362, 154.665 72.194, 155.477 72.125 C 156.289 72.056, 157.679 70.893, 158.565 69.541 C 160.691 66.296, 159.628 61.458, 156.312 59.285 C 152.631 56.873, 143.442 55.833, 137.400 57.144 C 132.990 58.101, 131.567 57.979, 126.900 56.245 C 119.915 53.650, 118.849 51.166, 121.444 43.534 C 122.988 38.990, 123.089 37.628, 122.062 35.150 C 120.954 32.476, 118.622 31.051, 115.289 31.014 C 112.338 30.980, 110.104 35.668, 107.045 48.313 C 104.656 58.188, 103.158 62.356, 101.084 64.897 C 98.368 68.225, 98.112 68.307, 87.907 69.150 C 82.183 69.622, 76.600 70.176, 75.500 70.380 C 73.062 70.832, 70 68.340, 70 65.904 C 70 63.535, 70.776 63.155, 77.120 62.419 C 85.185 61.483, 87.219 60.187, 88.708 55.032 C 89.418 52.575, 91.153 49.573, 92.564 48.360 C 96.229 45.211, 96.052 41.192, 92.026 36.182 C 90.227 33.943, 87.280 31.411, 85.476 30.556 C 81.660 28.745, 82.211 28.767, 78.854 30.295 M 137.452 35.646 C 136.104 37.101, 135 38.867, 135 39.569 C 135 40.814, 139.454 46.767, 141.484 48.235 C 143.697 49.835, 146.931 48.906, 148.932 46.096 C 151.759 42.125, 151.530 38.882, 148.195 35.687 C 144.560 32.205, 140.656 32.190, 137.452 35.646 M 120.879 72.232 C 115.356 73.613, 112.578 81.436, 117.250 82.450 C 122.080 83.498, 130.885 83.374, 132.615 82.235 C 134.981 80.676, 134.989 77.518, 132.636 74.568 C 130.072 71.353, 126.910 70.725, 120.879 72.232 M 71.387 80.349 C 69.954 81.988, 73.001 86.007, 75.660 85.985 C 77.214 85.972, 77.267 85.819, 76 85 C 74.718 84.172, 74.754 84.028, 76.250 84.015 C 77.213 84.007, 78 83.487, 78 82.860 C 78 81.572, 75.019 79.060, 73.500 79.070 C 72.950 79.073, 71.999 79.649, 71.387 80.349 M 70.849 96.320 C 69.941 97.011, 69.041 98.659, 68.849 99.983 C 68.577 101.859, 69.051 102.525, 71 103.007 C 74.070 103.766, 80.991 102.142, 82.931 100.208 C 86.343 96.806, 75.006 93.157, 70.849 96.320 M 120 100.282 C 117.937 101.957, 118.284 108.129, 120.581 110.628 C 121.843 112.002, 131.690 112.140, 134.263 110.820 C 135.606 110.131, 135.793 109.482, 135.048 108.089 C 134.510 107.085, 134.355 105.979, 134.702 105.631 C 135.049 105.284, 134.808 105, 134.167 105 C 133.525 105, 132.996 104.213, 132.992 103.250 C 132.977 99.772, 123.339 97.570, 120 100.282 M 65 115.433 C 65 118.031, 65.963 118.562, 72.500 119.569 C 74.700 119.908, 76.725 120.233, 77 120.291 C 77.275 120.349, 78.513 120.052, 79.750 119.631 C 82.176 118.805, 82.828 117, 80.699 117 C 78.860 117, 74.017 114.648, 74.008 113.750 C 74.004 113.338, 71.975 113, 69.500 113 C 65.400 113, 65 113.216, 65 115.433 M 122 126.735 C 118.889 127.934, 116.828 131.388, 117.429 134.396 C 118.313 138.813, 119.822 140, 124.557 140 C 126.929 140, 130.010 140.434, 131.404 140.963 C 133.513 141.765, 134.197 141.557, 135.485 139.719 C 136.335 138.504, 136.607 137.369, 136.088 137.196 C 135.569 137.023, 135.398 135.323, 135.707 133.418 C 136.524 128.382, 134.029 125.977, 128.095 126.079 C 125.568 126.122, 122.825 126.418, 122 126.735" stroke="none" fill="black" fill-rule="evenodd"/>
</svg>