<svg xmlns="http://www.w3.org/2000/svg" width="256" height="256" viewBox="0 0 256 256" version="1.1">
	<path d="M 51.639 29.250 C 48.496 32.111, 37.099 59.378, 37.026 64.211 C 36.992 66.420, 40.035 69.221, 45.057 71.605 C 50.543 74.210, 51.348 78.358, 47.962 86.574 C 46.215 90.811, 47.281 94.044, 51.908 98.534 C 56.388 102.882, 58.942 103.674, 60.750 101.275 C 61.438 100.364, 62 99.946, 62 100.348 C 62 100.749, 62.976 100.168, 64.169 99.057 C 65.721 97.612, 66.692 97.330, 67.581 98.067 C 68.264 98.634, 70.775 99.276, 73.161 99.494 C 81.660 100.271, 86 102.093, 86 104.883 C 86 106.995, 67.857 108.378, 63.537 106.596 C 61.585 105.791, 59.399 105.634, 57.419 106.157 C 53.875 107.092, 50.774 110.073, 51.801 111.556 C 53.320 113.750, 63.169 120.208, 66.327 121.080 C 69.340 121.912, 69.836 122.588, 71.303 127.866 C 73.882 137.142, 74.404 141.809, 73.045 143.446 C 72.380 144.247, 69.736 145.160, 67.168 145.476 C 56.795 146.753, 47.815 149.420, 45.963 151.774 C 43.490 154.917, 44.994 159.341, 49.116 161.048 C 52.312 162.372, 64.851 161.801, 69.158 160.135 C 70.446 159.637, 73.992 158.510, 77.039 157.630 C 80.721 156.567, 83.720 154.853, 85.985 152.515 C 89.908 148.468, 92.606 148.116, 96.462 151.149 C 98.461 152.721, 101.381 153.512, 107.347 154.098 C 111.831 154.539, 116.525 155.124, 117.779 155.398 C 119.032 155.672, 124.904 156.203, 130.828 156.578 C 143.131 157.356, 147.043 156.185, 148.779 151.205 C 150.685 145.737, 145.751 142, 136.626 142 C 129.410 142, 121.236 140.056, 120.511 138.168 C 120.193 137.338, 121.072 134.329, 122.466 131.480 C 123.860 128.631, 125 125.748, 125 125.073 C 125 124.397, 126.776 122.192, 128.946 120.172 C 134.240 115.246, 134.723 111.175, 130.353 108.312 C 128.106 106.839, 125.488 106.606, 113.027 106.769 C 100.168 106.937, 92.869 106.203, 91.245 104.578 C 90.581 103.914, 92.947 101.785, 96.233 100.090 C 100.607 97.834, 100.821 95.087, 96.878 91.817 C 95.020 90.277, 92.750 88.375, 91.833 87.592 C 90.917 86.808, 89.904 86.429, 89.583 86.750 C 89.263 87.071, 89 86.808, 89 86.167 C 89 85.525, 89.391 85, 89.870 85 C 90.348 85, 90.736 84.213, 90.733 83.250 C 90.713 78.107, 91.204 77.037, 94.531 74.981 C 98.877 72.295, 101.212 72.778, 106.731 77.501 C 111.202 81.328, 111.201 81.324, 107.892 88.739 C 105.509 94.078, 105.518 94.239, 108.325 96.570 C 112.335 99.900, 114.858 101, 118.486 101 C 120.419 101, 122 101.373, 122 101.830 C 122 103.001, 128.345 102.712, 129.235 101.501 C 129.721 100.839, 129.975 100.847, 129.985 101.525 C 129.993 102.106, 131.844 102.433, 134.250 102.279 C 136.588 102.129, 142.363 102.010, 147.085 102.014 C 157.951 102.023, 159.451 100.761, 158.128 92.725 C 157.944 91.608, 152.275 89.592, 147.867 89.074 C 147.518 89.033, 146.998 88.100, 146.710 87 C 146.366 85.684, 146.680 85, 147.628 85 C 149.384 85, 149.045 80.964, 147.092 78.611 C 146.357 77.725, 146.148 76.993, 146.628 76.985 C 147.107 76.976, 146.866 76.568, 146.090 76.077 C 144.914 75.332, 144.892 74.674, 145.962 72.092 C 146.666 70.392, 147.638 69, 148.121 69 C 148.605 69, 149 67.650, 149 66 C 149 64.350, 148.573 63, 148.052 63 C 146.264 63, 142 58.272, 142 56.290 C 142 53.645, 145.170 50.917, 149.203 50.092 C 153.499 49.214, 154.185 46.322, 150.316 45.401 C 146.644 44.528, 144.219 42.346, 141.926 37.854 C 137.752 29.676, 135.476 29.608, 131.143 37.532 C 129.379 40.756, 127.556 42.674, 125.662 43.294 C 122.026 44.487, 121.015 43.462, 119.891 37.444 C 118.843 31.835, 117.531 30, 114.569 30 C 110.677 30, 108.931 32.234, 108.113 38.261 C 107.688 41.400, 106.681 44.763, 105.876 45.734 C 104.466 47.437, 103.509 49.363, 101.137 55.270 C 100.525 56.794, 98.782 58.520, 97.262 59.107 C 94.328 60.240, 86.182 59.582, 84.691 58.091 C 83.058 56.458, 84.969 53.413, 88.409 52.169 C 93.328 50.390, 93.455 48.648, 89.038 43.544 C 85.251 39.169, 84.800 38.285, 83.617 32.921 C 83.295 31.462, 81.923 29.830, 80.456 29.162 C 78.137 28.105, 77.557 28.290, 74.932 30.914 C 73.230 32.616, 72 34.910, 72 36.384 C 72 39.723, 68.242 43.171, 65.015 42.794 C 62.486 42.498, 62.156 41.748, 60.402 32.320 C 59.920 29.724, 57.402 27, 55.484 27 C 54.729 27, 52.999 28.012, 51.639 29.250 M 60.354 49.777 C 57.447 50.231, 54.805 53.327, 55.586 55.364 C 56.322 57.282, 58.554 57.934, 65.500 58.263 C 70.009 58.477, 70.466 58.304, 70.156 56.500 C 69.555 53.010, 64.010 49.206, 60.354 49.777 M 118.869 52.809 C 116.227 55.547, 118.123 59, 122.268 59 C 127.595 59, 129.905 55.166, 126.250 52.392 C 123.880 50.593, 120.842 50.764, 118.869 52.809 M 60.622 71.865 C 59.017 73.638, 59.086 73.793, 62.017 75.007 C 64.522 76.045, 65.551 76.043, 67.503 74.999 L 69.905 73.713 67.545 71.856 C 64.559 69.508, 62.753 69.510, 60.622 71.865 M 62.380 87.250 C 62.496 89.430, 65.386 91.497, 66.958 90.526 C 67.384 90.263, 67.515 88.912, 67.249 87.524 C 66.596 84.104, 62.200 83.857, 62.380 87.250 M 86.190 120.373 C 84.209 121.340, 83.973 121.997, 84.532 124.998 C 85.272 128.969, 85.955 129.573, 91.409 131.082 C 96.892 132.598, 101.409 131.492, 104.440 127.889 C 107.228 124.576, 107.366 124.124, 106.164 122.232 C 104.258 119.227, 91.055 117.999, 86.190 120.373" stroke="none" fill="black" fill-rule="evenodd"/>
</svg>