<svg xmlns="http://www.w3.org/2000/svg" width="256" height="256" viewBox="0 0 256 256" version="1.1">
	<path d="M 40.465 33.952 C 39.346 34.405, 37.925 35.389, 37.307 36.138 C 36.217 37.459, 35.892 65.371, 36.336 119.500 C 36.426 130.500, 36.136 143.157, 35.692 147.627 C 34.925 155.341, 35.005 155.895, 37.275 158.534 C 39.054 160.601, 40.523 161.289, 43.009 161.219 C 48.637 161.059, 50.014 156.289, 48.700 141.500 C 47.235 125.007, 47.368 122.677, 50.072 117.392 C 52.566 112.519, 52.571 112.461, 51.215 102.500 C 50.023 93.745, 49.072 75.756, 48.712 55.133 C 48.591 48.229, 50.033 46, 54.620 46 C 59.791 46, 61.378 51.737, 58.354 59.500 C 54.993 68.129, 56.408 77.727, 61.875 83.375 C 69.172 90.916, 69.314 100.451, 62.222 106.750 C 60.829 107.988, 59.953 109, 60.275 109 C 60.597 109, 60.473 110.351, 59.999 112.002 C 59 115.487, 60.061 116.354, 66.525 117.339 C 71.143 118.042, 75.766 115.812, 78.573 111.529 C 79.973 109.392, 80.136 107.584, 79.544 100.731 C 78.810 92.222, 77.164 88.203, 72.205 82.803 C 70.022 80.427, 69.808 79.536, 70.402 75.303 C 70.773 72.661, 71.446 66.976, 71.897 62.669 C 72.798 54.073, 74.840 50.743, 79.126 50.880 C 80.432 50.922, 89.825 51.171, 100 51.433 C 127.691 52.146, 132.502 52.710, 135.992 55.647 L 138.929 58.118 138.935 86.472 C 138.939 102.067, 139.035 115.203, 139.149 115.663 C 139.398 116.673, 138.143 134.834, 137.422 140.648 C 136.868 145.120, 135.106 146.401, 128.164 147.382 C 124.714 147.869, 122.087 150.316, 122.032 153.095 C 121.983 155.552, 124.922 157.634, 131.601 159.875 C 138.895 162.321, 143.111 161.582, 147.400 157.104 C 149.951 154.442, 150.261 153.269, 151.067 143.243 C 151.551 137.218, 151.770 123.337, 151.553 112.395 C 151.337 101.453, 151.466 84.302, 151.841 74.281 L 152.522 56.063 156.761 51.743 C 160.142 48.298, 161 46.705, 161 43.867 C 161 36.700, 154.789 35.222, 140.980 39.102 C 134.005 41.061, 132.837 41.117, 123.685 39.931 C 115.776 38.906, 112.638 38.904, 107.532 39.919 C 101.724 41.073, 100.706 41, 95.346 39.046 C 89.844 37.040, 89.237 37.005, 85.123 38.457 C 78.729 40.713, 76.042 40.395, 68.569 36.500 C 62.205 33.182, 61.350 33.003, 52.177 33.063 C 46.855 33.098, 41.584 33.498, 40.465 33.952 M 106 70.945 C 104.625 71.416, 100.013 71.845, 95.750 71.900 C 84.871 72.040, 83.989 73.040, 84.454 84.699 C 84.647 89.539, 85.267 97.695, 85.831 102.823 C 86.752 111.182, 87.149 112.396, 89.679 114.571 C 92.253 116.785, 93.331 116.991, 102 116.926 C 114.302 116.833, 123.463 114.005, 126.573 109.340 C 129.624 104.764, 129.891 94.060, 127.053 90.075 C 125.528 87.933, 125 85.641, 125 81.164 C 125 75.668, 124.747 74.956, 122.129 73.092 C 118.912 70.801, 109.920 69.604, 106 70.945 M 98.750 84.392 C 96.650 85.986, 96.563 88.612, 98.500 92 C 99.286 93.375, 99.945 95.947, 99.965 97.715 C 100.007 101.531, 102.614 103.348, 106.729 102.431 C 113.334 100.960, 113 101.457, 113 93.091 L 113 85.317 109.134 84.158 C 104.144 82.663, 100.932 82.735, 98.750 84.392" stroke="none" fill="black" fill-rule="evenodd"/>
</svg>