<svg xmlns="http://www.w3.org/2000/svg" width="256" height="256" viewBox="0 0 256 256" version="1.1">
	<path d="M 117.703 29.776 C 116.819 30.753, 115.786 33.484, 115.409 35.844 C 114.432 41.954, 111.938 43.312, 102.233 43.016 C 97.980 42.887, 90.900 42.718, 86.500 42.641 C 79.601 42.519, 77.564 42.038, 71.703 39.144 C 65.807 36.233, 63.610 35.718, 55.126 35.265 C 44.695 34.708, 38.964 36.188, 37.467 39.827 C 36.251 42.782, 34.949 95.241, 36.010 98.500 C 37.242 102.282, 37.503 125.137, 36.526 143.685 L 35.779 157.870 38.406 160.497 C 41.829 163.920, 46.827 163.681, 48.783 160 C 50.004 157.704, 49.921 145.984, 48.553 127.141 C 48.418 125.293, 48.715 121.918, 49.211 119.641 C 50.256 114.845, 51.981 104.634, 52.361 101 C 52.504 99.625, 51.919 96.700, 51.061 94.500 C 49.833 91.354, 49.500 86.265, 49.501 70.661 C 49.501 51.020, 49.525 50.803, 51.861 48.911 C 55.151 46.247, 58.471 46.513, 60.927 49.635 C 63.433 52.820, 63.530 55.075, 61.344 59.300 C 59.424 63.011, 57.062 71.439, 57.433 73.255 C 58.375 77.864, 59.593 80.526, 61.934 83.089 C 66.200 87.760, 68.398 95.119, 67.532 101.835 C 65.925 114.295, 67.474 120, 72.466 120 C 75.460 120, 78.964 116.458, 79.183 113.211 C 79.357 110.643, 79.821 98.298, 79.940 93.088 C 79.971 91.745, 78.163 88.248, 75.859 85.197 C 71.730 79.729, 71.724 79.707, 72.861 74.782 C 73.487 72.068, 74 68.553, 74 66.971 C 74 62.743, 75.768 59.568, 79.278 57.495 C 83.835 54.803, 106.215 54.025, 110.807 56.400 C 112.746 57.403, 114 58.819, 114 60.007 C 114 62.054, 113.988 62.059, 103.500 64.075 C 100.200 64.709, 96.290 65.849, 94.811 66.608 C 91.549 68.282, 88.837 71.927, 89.751 73.407 C 90.119 74.001, 90.470 81.030, 90.531 89.027 C 90.632 102.169, 90.870 104.020, 92.999 108.283 C 94.955 112.200, 95.824 113, 98.118 113 C 99.638 113, 101.160 113.450, 101.500 114 C 101.840 114.550, 103.216 115, 104.559 115 C 106.062 115, 107 115.576, 107 116.500 C 107 117.325, 106.521 118, 105.935 118 C 105.349 118, 102.537 120.400, 99.685 123.334 C 96.833 126.268, 93.085 129.228, 91.355 129.912 C 86.744 131.736, 81.591 138.572, 81.709 142.711 C 81.841 147.362, 83.540 149, 88.233 149 C 91.972 149, 92.825 148.376, 101.904 139 C 110.121 130.514, 112.063 129, 114.726 129 C 118.747 129, 119.022 129.941, 118.881 143.237 C 118.740 156.516, 120.348 160.312, 126.324 160.812 C 129.802 161.103, 130.157 160.870, 131.645 157.312 C 133.217 153.555, 133.195 150.379, 131.509 137 C 130.758 131.040, 132.676 128.228, 136.158 130.184 C 138.506 131.503, 147.012 140.105, 152.348 146.556 C 157.139 152.348, 162 150.390, 162 142.670 C 162 134.408, 155.707 126.290, 145.848 121.835 C 143.182 120.630, 141 119.274, 141 118.822 C 141 118.370, 140.100 118, 139 118 C 137.900 118, 137 117.592, 137 117.094 C 137 116.595, 137.900 116.423, 139 116.710 C 140.100 116.998, 141 116.816, 141 116.306 C 141 115.796, 143.270 114.796, 146.045 114.085 C 152.519 112.426, 153.956 110.184, 154.516 100.870 C 155.283 88.127, 155.315 71.319, 154.575 70.121 C 153.110 67.752, 145.437 64.761, 139.572 64.274 C 130.289 63.504, 126.693 60.398, 130.790 56.690 C 132.300 55.324, 134.299 55.159, 143.551 55.639 C 153.369 56.148, 154.771 56.006, 156.883 54.296 C 158.835 52.715, 159.121 51.829, 158.538 49.175 C 157.426 44.109, 153.883 42.869, 141.339 43.159 C 130.882 43.400, 130.713 43.367, 128.372 40.646 C 126.885 38.918, 126 36.624, 126 34.501 C 126 32.134, 125.330 30.644, 123.777 29.557 C 120.912 27.550, 119.677 27.594, 117.703 29.776 M 109.273 76.113 C 107.498 76.626, 105.568 77.940, 104.982 79.033 C 104.106 80.671, 104.391 81.458, 106.605 83.510 C 113.089 89.519, 123.192 83.192, 117 77 C 114.813 74.813, 114.068 74.727, 109.273 76.113 M 130.667 77.667 C 129.394 78.940, 130.009 82.789, 131.582 83.393 C 136.534 85.293, 141.362 82.901, 139.940 79.250 C 139.242 77.456, 138.281 77, 135.199 77 C 133.073 77, 131.033 77.300, 130.667 77.667 M 108.198 95.185 C 104.927 96.771, 103.969 97.763, 104.198 99.326 C 104.566 101.829, 109.838 103.441, 114.685 102.531 C 117.369 102.028, 118 101.442, 118 99.455 C 118 98.105, 117.580 97, 117.067 97 C 116.554 97, 115.849 96.100, 115.500 95 C 114.714 92.522, 113.635 92.550, 108.198 95.185 M 131.011 96.487 C 130.332 97.305, 130.032 98.642, 130.345 99.457 C 131.564 102.633, 140.447 102.605, 141.668 99.422 C 143.024 95.890, 133.649 93.308, 131.011 96.487" stroke="none" fill="black" fill-rule="evenodd"/>
</svg>