<svg xmlns="http://www.w3.org/2000/svg" width="256" height="256" viewBox="0 0 256 256" version="1.1">
	<path d="M 88.989 28.250 C 87.899 30.038, 87.006 33.103, 87.004 35.061 C 87 38.325, 84.146 43.039, 82.211 42.977 C 81.820 42.965, 79.025 40.693, 76 37.929 C 72.975 35.165, 69.458 32.475, 68.185 31.952 C 66.912 31.428, 59.824 31, 52.435 31 C 40.333 31, 38.802 31.198, 37 33 C 34.649 35.351, 34.850 33.587, 34.206 57.500 C 33.596 80.146, 33.549 95.110, 34.047 108 C 34.361 116.147, 34.392 142.483, 34.095 149.891 C 34.042 151.207, 34.465 154.015, 35.035 156.131 C 36.225 160.549, 39.596 162.090, 43.501 160 C 46.830 158.218, 47.160 155.777, 46.394 138.617 C 45.786 124.981, 45.919 122.807, 47.662 117.939 C 48.974 114.272, 49.537 110.391, 49.389 106.026 C 49.268 102.465, 49.572 98.801, 50.063 97.883 C 50.690 96.710, 50.352 95.445, 48.923 93.630 C 46.423 90.451, 45.853 81.034, 47.871 76.250 C 48.892 73.831, 49.874 73, 51.711 73 C 54.420 73, 57.914 76.492, 57.967 79.250 C 57.985 80.213, 58.466 81, 59.036 81 C 59.605 81, 60.944 83.036, 62.011 85.525 C 64.157 90.532, 64.719 99.118, 63.521 108.595 C 62.821 114.134, 62.952 114.877, 64.963 116.751 C 68.528 120.072, 70.717 120.129, 73.863 116.984 C 77.930 112.916, 79.479 106.622, 78.075 99.861 C 77.461 96.901, 77.144 92.571, 77.371 90.238 C 77.752 86.322, 77.495 85.768, 74.020 83.016 C 69.320 79.293, 68.589 75.978, 70.538 67.225 C 73.604 53.457, 78.927 46.285, 84.046 49.025 C 85.570 49.840, 86.041 51.030, 85.939 53.805 C 85.864 55.837, 86.130 59.614, 86.530 62.197 C 87.127 66.052, 86.855 67.665, 85.010 71.197 C 82.238 76.505, 82.093 83.591, 84.716 85.588 C 85.697 86.335, 88.457 87.711, 90.849 88.647 C 94.862 90.216, 95.443 90.223, 98.349 88.745 C 100.082 87.864, 104.145 86.956, 107.377 86.728 C 113.916 86.268, 116.428 84.207, 117.567 78.371 C 118.926 71.403, 112.090 65.722, 106.802 69.426 C 105.566 70.292, 103.247 71, 101.649 71 L 98.742 71 99.438 65.755 C 100.352 58.863, 101.888 57.340, 108.474 56.794 C 112.238 56.482, 114.877 55.569, 117.253 53.756 C 119.121 52.331, 121.170 51.487, 121.806 51.880 C 122.458 52.283, 123.364 57.224, 123.884 63.209 C 124.805 73.817, 127.392 81.428, 131.702 86.215 C 136.280 91.299, 151.638 91.859, 157.239 87.145 C 162.453 82.758, 163.986 77.092, 161.947 69.750 C 161.006 66.362, 160.580 66, 157.526 66 C 155.224 66, 153.564 66.719, 152.323 68.254 C 150.443 70.580, 145.955 73, 143.524 73 C 140.617 73, 139 69.937, 139 64.429 C 139 56.594, 140.595 55.324, 150.562 55.220 C 156.852 55.155, 158.683 54.787, 159.713 53.378 C 161.262 51.260, 161.361 48.543, 159.983 45.968 C 158.728 43.624, 151.846 41.655, 147.920 42.518 C 146.318 42.869, 143.477 42.653, 141.608 42.036 C 138.919 41.148, 137.778 39.911, 136.143 36.112 C 133.816 30.701, 132.616 29.444, 128.888 28.508 C 124.634 27.440, 122.646 30.282, 123.339 36.437 C 123.769 40.260, 123.439 42.480, 121.988 45.500 C 120.932 47.700, 120.053 48.795, 120.034 47.934 C 120.015 47.073, 118.154 45.331, 115.897 44.062 C 112.693 42.261, 110.867 41.883, 107.560 42.337 C 104.589 42.744, 102.670 42.457, 101.123 41.374 C 99.137 39.982, 98.984 39.266, 99.569 34.095 C 100.323 27.430, 98.812 25, 93.914 25 C 91.666 25, 90.502 25.768, 88.989 28.250 M 49 45 C 46.934 47.066, 46.591 48.777, 46.925 55.343 C 47.165 60.056, 48.581 64, 50.034 64 C 50.630 64, 50.840 64.450, 50.500 65 C 50.160 65.550, 50.483 66, 51.218 66 C 53.101 66, 57.741 58.498, 59.699 52.286 C 61.268 47.308, 61.259 46.944, 59.520 45.023 C 57.108 42.357, 51.654 42.346, 49 45 M 112.231 91.038 C 110.983 91.539, 109.044 93.506, 107.922 95.408 C 105.703 99.168, 101.996 100.597, 97.195 99.543 C 91.775 98.352, 86.753 105.962, 89.585 111.074 C 91.370 114.296, 91.323 115.534, 89.342 117.515 C 87.937 118.921, 87.680 121.650, 87.658 135.460 L 87.631 151.747 90.806 155.755 C 93.960 159.737, 97.579 161.361, 100.155 159.949 C 101.732 159.084, 126.237 157.615, 140.218 157.547 C 153.308 157.484, 153.776 157.010, 154.112 143.500 C 154.249 138, 154.937 131.275, 155.641 128.557 C 156.500 125.238, 156.717 120.511, 156.301 114.177 C 155.787 106.356, 155.294 104.292, 153.417 102.121 C 151.235 99.595, 150.799 99.508, 141.442 99.714 C 131.675 99.928, 129.683 99.450, 125.616 95.914 C 123.422 94.006, 116.073 89.942, 115.039 90.063 C 114.742 90.098, 113.479 90.537, 112.231 91.038 M 111.333 112.381 C 105.191 112.997, 99.866 113.800, 99.500 114.167 C 98.289 115.378, 102.823 118.875, 107.097 120.026 C 110.516 120.947, 112.063 120.867, 115.399 119.596 C 119.790 117.924, 123.055 118.163, 129.652 120.639 C 134.049 122.289, 137.248 121.862, 140.250 119.227 C 142.575 117.185, 142.476 113.325, 140.066 112.035 C 137.683 110.760, 126.127 110.899, 111.333 112.381 M 131 131.930 C 130.175 132.409, 125 133.075, 119.500 133.410 C 100.765 134.554, 98.470 135.963, 103.309 143.349 L 105.045 145.999 121.041 145.648 C 129.838 145.455, 137.177 145.118, 137.349 144.899 C 141.497 139.627, 142 136, 139 133 C 136.905 130.905, 133.543 130.456, 131 131.930" stroke="none" fill="black" fill-rule="evenodd"/>
</svg>