<svg xmlns="http://www.w3.org/2000/svg" width="256" height="256" viewBox="0 0 256 256" version="1.1">
	<path d="M 72.838 23.496 C 72.637 23.696, 68.654 23.959, 63.986 24.078 C 54.882 24.312, 50.063 25.280, 48.938 27.100 C 47.641 29.198, 49.608 33.451, 52.715 35.266 C 56.142 37.267, 57.332 37.341, 71.213 36.413 C 83.112 35.619, 86.480 36.234, 85.034 38.937 C 84.103 40.677, 82.394 40.852, 63.262 41.165 C 40.893 41.531, 39.003 41.950, 37.102 46.972 C 36.575 48.363, 35.858 55.141, 35.508 62.037 C 34.920 73.597, 35.021 74.709, 36.796 76.315 C 39.201 78.492, 43.343 77.216, 46.791 73.238 C 48.850 70.861, 49.018 69.934, 48.452 64.047 C 47.670 55.905, 49.010 51.720, 52.252 52.181 C 53.696 52.386, 54.614 53.305, 54.820 54.750 C 54.995 55.988, 55.492 57, 55.923 57 C 56.354 57, 56.660 58.688, 56.603 60.750 C 56.509 64.169, 56.809 64.609, 60 65.735 C 61.925 66.414, 64.480 66.977, 65.678 66.985 C 69.036 67.008, 72.969 72.621, 71.998 76.005 C 70.533 81.115, 69.014 82.907, 65.606 83.546 C 63.752 83.894, 60.833 85.032, 59.118 86.074 C 56.622 87.592, 56 88.641, 56 91.330 C 56 97.922, 61.445 99.628, 67.939 95.069 C 69.348 94.080, 72.300 92.668, 74.500 91.931 C 79.381 90.296, 83 87.274, 83 84.836 C 83 83.838, 82.176 80.853, 81.169 78.203 C 80.052 75.263, 79.635 72.628, 80.099 71.443 C 81.498 67.869, 81.020 64.308, 78.678 60.857 C 76.129 57.101, 76.214 55, 78.917 55 C 79.879 55, 80.980 54.687, 81.362 54.304 C 84.027 51.640, 87.233 55.622, 87.560 62 C 87.658 63.925, 88.188 67.362, 88.738 69.638 C 89.287 71.914, 89.577 77.211, 89.381 81.410 C 89.042 88.662, 89.166 89.192, 91.870 92.022 C 95.310 95.621, 99.441 95.951, 102.138 92.841 C 103.727 91.009, 103.945 89.459, 103.578 82.591 C 103.142 74.434, 104.569 65, 106.240 65 C 106.737 65, 106.436 64.293, 105.571 63.429 C 103.181 61.038, 103.657 57.415, 106.673 55.043 C 108.143 53.887, 109.605 53.352, 109.923 53.855 C 110.240 54.357, 111.363 54.933, 112.417 55.134 C 115.687 55.758, 115.343 57.916, 111.398 61.530 C 109.314 63.438, 108.147 65, 108.805 65 C 109.462 65, 110 65.929, 110 67.065 C 110 68.200, 110.896 71.238, 111.990 73.815 C 113.085 76.392, 114.115 79.400, 114.281 80.500 C 114.981 85.163, 118.482 93, 119.864 93 C 120.672 93, 121.040 93.293, 120.682 93.652 C 119.742 94.591, 124.788 97, 127.698 97 C 129.189 97, 130.006 97.481, 129.762 98.214 C 129.482 99.054, 126.146 99.456, 118.929 99.521 C 113.193 99.572, 105.125 99.971, 101 100.408 C 96.598 100.874, 90.514 100.782, 86.271 100.186 C 80.769 99.412, 77.850 99.484, 74.052 100.486 C 71.057 101.276, 67.741 101.505, 65.761 101.059 C 61.449 100.086, 59.249 100.464, 56.912 102.579 C 54.733 104.551, 54.324 110.221, 56.250 111.742 C 58.647 113.635, 81.542 114.050, 89.765 112.350 C 95.822 111.097, 98.409 111.007, 102.826 111.894 C 114.299 114.198, 134.319 112.390, 137.107 108.798 C 138.937 106.440, 138.983 104.421, 137.273 101.394 C 136.254 99.589, 136.435 98.983, 138.541 97.152 L 140.998 95.015 139.052 89.894 C 137.981 87.077, 136.969 84.678, 136.803 84.564 C 136.636 84.449, 134.362 83.563, 131.748 82.594 C 126.650 80.705, 124 77.887, 124 74.354 C 124 71.726, 129.209 66.237, 132.483 65.415 C 134.856 64.819, 134.867 63.564, 132.547 57.879 C 131.510 55.340, 134.651 53, 139.096 53 C 142.420 53, 143.205 53.409, 144.025 55.565 C 145.708 59.991, 145.245 64.123, 143 64.710 C 139.893 65.523, 140.622 68.460, 145.039 72.921 C 149.283 77.208, 153.152 78.192, 156.154 75.750 C 158.384 73.936, 160.350 68.325, 159.477 66.268 C 159.064 65.296, 158.826 60.779, 158.948 56.231 C 159.166 48.134, 159.106 47.901, 156.038 45.035 C 153.980 43.113, 151.356 41.876, 148.395 41.432 C 142.367 40.528, 140.163 37.519, 142.383 33.225 C 143.724 30.633, 143.727 30.055, 142.412 28.178 C 141.595 27.012, 139.183 25.588, 137.051 25.014 C 133.516 24.062, 73.686 22.647, 72.838 23.496 M 109.050 36.500 L 105.068 37.500 107.284 39.304 C 109.127 40.804, 110.678 41.012, 116.500 40.538 C 120.350 40.225, 123.649 39.530, 123.830 38.993 C 124.012 38.457, 124.832 38.689, 125.652 39.509 C 127.754 41.611, 131.731 41.370, 132.965 39.066 C 133.534 38.002, 134 36.906, 134 36.630 C 134 35.634, 112.935 35.524, 109.050 36.500 M 78 118.059 C 76.625 118.432, 70.295 118.507, 63.932 118.225 C 51.433 117.672, 43.211 118.949, 40.724 121.830 C 36.205 127.064, 39.501 132.619, 46.500 131.565 C 57.655 129.886, 60.519 129.842, 62.484 131.322 C 64.261 132.660, 64.340 133.172, 63.234 136.229 C 62.555 138.106, 62 140.553, 62 141.666 C 62 142.779, 61.100 144.505, 60 145.500 C 57.296 147.947, 57.471 151.423, 60.394 153.339 C 61.711 154.202, 65.525 155.829, 68.869 156.956 C 74.500 158.853, 75.965 158.931, 88.725 158.013 C 101.700 157.079, 115.434 155.587, 120.958 154.513 C 124.508 153.822, 128.782 153.844, 134.611 154.581 C 140.337 155.306, 144.369 153.522, 145.332 149.839 C 146.100 146.900, 140.558 142, 136.466 142 C 134.767 142, 132.421 141.109, 131.252 140.021 C 129.469 138.359, 129.275 137.527, 130.046 134.841 C 130.550 133.081, 131.493 131.314, 132.139 130.914 C 132.786 130.514, 137.383 129.865, 142.356 129.472 C 150.441 128.832, 151.694 128.460, 154.197 125.956 C 157.277 122.877, 157.104 120.672, 153.632 118.785 C 151.272 117.502, 82.488 116.841, 78 118.059 M 86.263 131.312 C 84.483 132.515, 83.020 133.879, 83.013 134.342 C 83.006 134.806, 82.100 136.329, 81 137.727 C 78.480 140.931, 78.344 144.955, 80.750 145.121 C 87.095 145.558, 109.809 144.628, 111.227 143.874 C 114.134 142.326, 115.377 139.073, 114.026 136.548 C 112.766 134.195, 107.909 132.004, 103.929 131.994 C 102.593 131.990, 100.211 131.315, 98.636 130.494 C 94.666 128.423, 90.089 128.726, 86.263 131.312" stroke="none" fill="black" fill-rule="evenodd"/>
</svg>