<svg xmlns="http://www.w3.org/2000/svg" width="256" height="256" viewBox="0 0 256 256" version="1.1">
	<path d="M 86.754 32.579 C 86.499 32.834, 76.323 33.172, 64.139 33.330 C 43.661 33.597, 41.780 33.773, 39.244 35.658 C 35.553 38.402, 35.022 43.201, 38.166 45.404 C 40.029 46.708, 43.452 47, 56.905 47 C 77.162 47, 90.683 48.538, 91.996 50.993 C 93.137 53.124, 91.574 59.279, 89.444 61.047 C 88.365 61.942, 82.760 62.367, 70.211 62.504 C 60.470 62.611, 50.589 63.049, 48.254 63.476 C 44.454 64.173, 43.907 64.634, 43.039 67.877 C 40.494 77.388, 39.477 92.928, 41.023 98.667 C 41.892 101.889, 42.401 111.708, 42.551 128.130 C 42.800 155.391, 43.334 158.249, 48.280 158.819 C 50.625 159.089, 51.269 158.600, 52.522 155.601 C 53.335 153.656, 54 150.042, 54 147.571 C 54 144.348, 54.572 142.545, 56.025 141.192 C 57.888 139.456, 58.462 139.413, 63.242 140.653 C 69.852 142.367, 72.424 142.349, 75.875 140.565 C 79.264 138.812, 85.546 132.006, 86.475 129.080 C 87.234 126.688, 82.881 118.275, 80.389 117.319 C 78.173 116.469, 68.149 123.558, 67.411 126.497 C 66.863 128.680, 66.236 129, 62.500 129 C 58.675 129, 58.137 128.706, 57.472 126.250 C 57.062 124.737, 56.634 120.575, 56.521 117 C 56.408 113.425, 56 109.111, 55.614 107.414 C 54.623 103.053, 57.296 100.038, 62.811 99.299 C 66.948 98.744, 67.279 98.908, 72.089 103.898 C 74.833 106.745, 77.499 110.182, 78.014 111.537 C 78.529 112.892, 79.302 114, 79.733 114 C 80.673 114, 86.408 104.922, 86.366 103.500 C 86.306 101.430, 84.756 97, 84.092 97 C 83.713 97, 82.821 95.394, 82.111 93.431 C 80.072 87.792, 76.453 86.171, 68.544 87.353 C 64.945 87.891, 62 88.706, 62 89.165 C 62 89.624, 60.623 90, 58.941 90 C 57.259 90, 56.128 89.601, 56.430 89.114 C 56.731 88.626, 56.083 87.993, 54.989 87.707 C 52.468 87.048, 52.325 82.894, 54.750 80.797 C 58.084 77.913, 63.336 77, 76.399 77.031 C 88.991 77.062, 89.566 77.154, 91.212 79.419 C 94.250 83.600, 95.144 97.605, 92.619 101.459 C 91.101 103.776, 91.201 107.409, 92.966 114 C 93.482 115.925, 94.125 123.350, 94.396 130.500 C 94.947 145.053, 96.866 152.604, 100.370 154.005 C 104.004 155.458, 106.575 151.477, 107.344 143.209 C 108.133 134.718, 108.439 133.831, 111.168 132.127 C 113.010 130.977, 113.947 131.102, 118.120 133.056 C 123.329 135.496, 125.978 138.806, 130.271 148.244 C 133.289 154.879, 137.270 159, 140.660 159 C 146.435 159, 153.001 151.736, 152.999 145.349 C 152.999 143.782, 153.741 138.760, 154.648 134.188 C 156.093 126.912, 156.176 122.739, 155.313 100.688 C 154.247 73.409, 153.509 69.690, 148.514 66.418 C 144.911 64.057, 137.848 62.968, 123 62.485 C 116.125 62.261, 109.970 62.061, 109.321 62.039 C 105.140 61.901, 103.461 53.703, 106.965 50.531 C 109.643 48.108, 123.965 46.703, 140.379 47.252 C 152.439 47.655, 153.416 47.546, 155.751 45.538 C 157.769 43.802, 158.117 42.830, 157.572 40.446 C 156.350 35.094, 153.351 33.919, 139.727 33.457 C 113.843 32.578, 87.197 32.136, 86.754 32.579 M 110.748 78.592 L 107.500 79.684 107.370 87.443 C 107.204 97.385, 107.649 99, 110.559 99 C 112.136 99, 114.414 97.229, 117.633 93.500 C 120.577 90.090, 123.179 88, 124.479 88 C 126.501 88, 131.081 90.045, 135.725 93.023 C 138.968 95.103, 140.359 93.167, 140.136 86.882 C 139.989 82.726, 139.438 81.209, 137.386 79.306 C 134.975 77.072, 134.187 76.945, 124.408 77.214 C 118.682 77.371, 112.535 77.991, 110.748 78.592 M 129.186 106.552 C 122.216 111.462, 121.175 111.679, 115 109.500 C 109.134 107.430, 108.270 107.577, 106.533 110.937 C 103.320 117.150, 108.866 122.337, 115.678 119.490 C 117.639 118.671, 120.344 118, 121.689 118 C 124.913 118, 130.956 122.689, 132.620 126.481 C 133.349 128.142, 134.815 130.603, 135.878 131.951 C 138.545 135.332, 140.406 133.583, 141.864 126.324 C 143.427 118.538, 143.205 112.320, 141.171 107 C 138.911 101.085, 137.044 101.015, 129.186 106.552" stroke="none" fill="black" fill-rule="evenodd"/>
</svg>