<svg xmlns="http://www.w3.org/2000/svg" width="256" height="256" viewBox="0 0 256 256" version="1.1">
	<path d="M 38.183 32.640 C 35.890 34.507, 35.856 34.853, 34.973 65.014 C 34.359 85.971, 34.410 96.739, 35.136 99.463 C 35.793 101.927, 35.916 107.031, 35.463 112.963 C 34.371 127.251, 34.274 155.117, 35.305 158.271 C 36.889 163.120, 42.297 164.539, 45.539 160.957 C 47.821 158.435, 48.151 151.876, 46.786 136.125 C 45.897 125.872, 45.983 124.368, 47.650 120.886 C 48.951 118.169, 50.143 117.020, 51.667 117.011 C 52.858 117.005, 53.983 117.439, 54.167 117.975 C 54.568 119.148, 61.789 119.521, 67.992 118.689 C 72.997 118.018, 74.807 118.858, 80.179 124.345 C 85.396 129.672, 87.269 129.792, 91.087 125.042 C 92.873 122.819, 94.934 121, 95.667 121 C 96.875 121, 97.434 119.748, 97.118 117.750 C 97.053 117.338, 98.125 117, 99.500 117 C 101.333 117, 102 117.533, 102 119 C 102 120.100, 102.465 121, 103.034 121 C 103.605 121, 103.866 122.231, 103.616 123.750 C 103.368 125.263, 103.127 127.012, 103.082 127.639 C 103.037 128.265, 101.313 129.091, 99.250 129.473 C 95.232 130.219, 92 132.504, 92 134.598 C 92 135.307, 91.070 136.538, 89.933 137.334 C 88.540 138.310, 87.772 140.098, 87.579 142.818 C 87.222 147.820, 87.821 148.828, 91.550 149.507 C 94.739 150.087, 97.903 148.015, 104.921 140.750 C 106.914 138.688, 108.984 136.977, 109.522 136.948 C 110.060 136.920, 111.991 135.037, 113.812 132.765 C 116.159 129.838, 116.961 127.981, 116.563 126.396 C 115.555 122.379, 116.844 121, 121.607 121 C 125.066 121, 126.032 121.372, 126.152 122.750 C 126.633 128.276, 126.571 128.376, 121.980 129.448 L 117.480 130.500 117.151 137.500 C 116.929 142.201, 116.358 144.763, 115.411 145.300 C 113.446 146.414, 113.650 149.374, 115.829 151.345 C 118.055 153.360, 120.240 153.437, 123.800 151.627 C 129.046 148.958, 130.794 148.776, 131.446 150.828 C 131.779 151.880, 133.929 154.599, 136.224 156.870 C 141.148 161.746, 144.713 162.219, 149.430 158.621 C 153.069 155.846, 155.132 149.555, 157.014 135.500 C 157.677 130.550, 158.445 125.031, 158.721 123.234 C 159.498 118.173, 158.069 111.069, 155.820 108.820 C 154.018 107.018, 152.968 106.855, 146.643 107.398 C 142.714 107.734, 137.025 107.670, 134 107.255 C 130.975 106.840, 126.025 106.725, 123 107 C 115.125 107.716, 110.627 106.718, 107.462 103.552 L 104.706 100.797 113.603 101.267 C 118.496 101.526, 123.625 102.064, 125 102.464 C 126.375 102.864, 128.625 103.101, 130 102.991 C 131.375 102.880, 133.512 102.747, 134.750 102.695 C 135.988 102.643, 137 102.203, 137 101.718 C 137 100.795, 148.281 101.323, 153.570 102.494 C 156.037 103.041, 157.264 102.648, 159.820 100.498 C 163.949 97.023, 163.973 93.711, 159.894 89.901 C 156.425 86.661, 151.011 86.013, 146.200 88.263 C 142.242 90.114, 106.251 90.023, 105.099 88.159 C 103.882 86.191, 93.203 86.326, 89.271 88.360 C 83.913 91.130, 80.892 90.484, 74.735 85.250 C 69.273 80.606, 69.157 80.399, 69.536 75.976 C 70.317 66.877, 72.117 61.177, 75.639 56.658 C 78.675 52.760, 79.170 51.352, 79.323 46.164 C 79.475 41.024, 79.144 39.786, 77 37.457 C 72.800 32.896, 68.656 31.777, 54 31.243 C 41.819 30.800, 40.274 30.936, 38.183 32.640 M 107 31.982 C 101.775 32.317, 96.662 32.976, 95.639 33.445 C 92.911 34.697, 91.069 39.753, 92.069 43.242 C 93.376 47.799, 93.064 65.074, 91.585 70.021 C 90.455 73.802, 90.463 74.926, 91.640 77.233 C 94.414 82.672, 96.839 83.126, 123.325 83.163 C 136.621 83.182, 148.164 83.041, 148.976 82.849 C 153.393 81.805, 154.190 78.718, 154.191 62.662 C 154.191 55.423, 154.659 47.186, 155.231 44.357 C 156.579 37.686, 155.737 34.522, 152.263 33.208 C 148.883 31.930, 120.008 31.148, 107 31.982 M 49.674 44.808 C 47.503 47.207, 47.044 51.570, 48.240 58.437 C 48.725 61.222, 49.225 65.079, 49.352 67.008 C 49.479 68.938, 49.905 71.037, 50.298 71.673 C 50.691 72.309, 50.498 73.001, 49.869 73.210 C 49.206 73.431, 48.521 76.786, 48.238 81.192 C 47.863 87.037, 48.136 89.567, 49.421 92.141 C 50.610 94.526, 51.091 98.086, 51.091 104.509 C 51.091 113.252, 52.063 117.885, 53.248 114.796 C 53.538 114.041, 55.474 113.310, 57.551 113.170 C 62.213 112.856, 62.896 112.456, 62.544 110.246 C 62.392 109.286, 63.157 106.732, 64.245 104.571 C 66.413 100.265, 66.181 94.129, 63.661 89.168 C 62.916 87.700, 61.234 84.362, 59.924 81.750 C 58.614 79.138, 57.195 77, 56.771 77 C 56.347 77, 56 76.311, 56 75.469 C 56 74.626, 55.328 73.679, 54.506 73.364 C 53.684 73.048, 53.215 72.461, 53.463 72.059 C 53.712 71.657, 54.028 69.657, 54.165 67.614 C 54.303 65.571, 54.997 63.417, 55.708 62.828 C 56.418 62.238, 57 61.324, 57 60.798 C 57 60.272, 58.175 56.905, 59.610 53.317 C 62.651 45.715, 62.016 44.214, 55.382 43.324 C 52.323 42.914, 51.100 43.232, 49.674 44.808 M 110.069 44.664 C 107.540 46.436, 107.405 48.515, 109.750 49.582 C 110.713 50.020, 117.473 50.466, 124.774 50.574 C 137.246 50.758, 138.137 50.642, 139.521 48.667 C 140.822 46.810, 140.815 46.387, 139.466 45.037 C 137.284 42.855, 113.090 42.548, 110.069 44.664 M 108.473 65.044 C 107.368 66.831, 110.799 70.844, 113.728 71.192 C 115.253 71.373, 118.300 71.028, 120.500 70.425 C 122.700 69.822, 125.625 69.660, 127 70.065 C 131.467 71.379, 133.884 71.041, 135.961 68.811 C 137.082 67.608, 138 66.258, 138 65.811 C 138 64.693, 132.252 64.784, 131.554 65.913 C 131.243 66.415, 129.247 67.120, 127.117 67.480 C 124.195 67.974, 122.297 67.627, 119.387 66.067 C 115.270 63.861, 109.536 63.323, 108.473 65.044 M 80.835 97.793 C 78.503 98.243, 78.266 99.614, 79.283 106.750 L 80.175 113 83.837 112.998 C 86.779 112.997, 88.189 112.259, 91 109.248 C 95.898 104.003, 95.316 101.960, 88.211 99.472 C 85.070 98.372, 81.751 97.616, 80.835 97.793 M 138.212 123.434 C 137.421 125.170, 137.413 125.971, 138.186 126.229 C 138.849 126.450, 138.636 127.221, 137.634 128.223 C 136.735 129.122, 136 130.564, 136 131.429 C 136 132.293, 135.656 133, 135.236 133 C 133.872 133, 131.103 140.678, 131.676 142.870 C 132.137 144.631, 132.986 145, 136.581 145 C 141.654 145, 142.678 143.738, 143.079 136.991 C 143.225 134.521, 143.733 131.713, 144.207 130.752 C 144.681 129.790, 145.248 127.203, 145.467 125.002 C 145.858 121.067, 145.810 121, 142.593 121 C 140.097 121, 139.058 121.577, 138.212 123.434" stroke="none" fill="black" fill-rule="evenodd"/>
</svg>