<svg xmlns="http://www.w3.org/2000/svg" width="256" height="256" viewBox="0 0 256 256" version="1.1">
	<path d="M 48.845 27.080 C 47.241 27.698, 45.925 29.164, 45.517 30.787 C 44.967 32.981, 45.409 33.976, 47.938 36.236 C 51.362 39.295, 51.342 39.293, 70.190 39.015 C 83.962 38.812, 90 40.070, 90 43.142 C 90 44.099, 89.447 45.224, 88.770 45.642 C 88.094 46.060, 80.106 46.445, 71.020 46.497 C 53.831 46.596, 45.060 47.403, 41.276 49.234 C 37.973 50.832, 36.955 55.342, 36.716 69.445 C 36.506 81.826, 36.563 82.206, 38.937 84.139 C 41.865 86.523, 45.621 85.956, 48.354 82.718 C 50.219 80.509, 50.241 76.440, 48.437 67.411 C 47.991 65.178, 48.312 63.831, 49.596 62.547 C 51.129 61.013, 52.541 60.856, 59.936 61.392 C 64.646 61.734, 72.307 61.607, 76.960 61.111 C 86.023 60.145, 89.498 60.813, 90.386 63.693 C 90.693 64.687, 91.049 69.863, 91.177 75.195 C 91.375 83.450, 91.134 85.195, 89.550 86.945 C 88.527 88.075, 88.097 89.007, 88.595 89.015 C 89.093 89.024, 88.825 89.467, 88 90 C 86.718 90.828, 86.754 90.972, 88.250 90.985 C 89.213 90.993, 90 91.370, 90 91.823 C 90 93.096, 98.706 97.142, 100.714 96.802 C 101.696 96.636, 103.400 95.681, 104.500 94.680 C 105.767 93.527, 107.416 93.043, 109 93.358 C 114.728 94.499, 127.142 97.809, 127.669 98.336 C 128.728 99.394, 125.019 102.141, 123.253 101.606 C 120.130 100.660, 111.758 100.819, 99.777 102.051 C 91.488 102.904, 86.864 102.955, 83.991 102.226 C 80.954 101.455, 78.415 101.547, 73.943 102.590 C 70.652 103.358, 67.631 103.936, 67.230 103.875 C 64.916 103.521, 64 104.284, 64 106.566 C 64 111.355, 65.501 112.559, 73.853 114.466 C 81.287 116.164, 82.252 116.180, 88.162 114.700 C 91.648 113.827, 95.850 113.306, 97.500 113.542 C 99.150 113.778, 106.107 114.001, 112.959 114.037 C 124.435 114.097, 128 114.799, 128 116.998 C 128 117.412, 126.628 118.414, 124.952 119.226 C 122.084 120.616, 120.292 120.681, 112.177 119.690 C 110.350 119.467, 106.987 119.927, 104.705 120.714 C 101.271 121.897, 99.127 121.941, 92.272 120.968 C 87.717 120.321, 83.736 119.381, 83.426 118.880 C 83.116 118.378, 82.443 118.226, 81.931 118.543 C 81.419 118.859, 81 118.592, 81 117.948 C 81 117.305, 80.162 117.813, 79.138 119.078 C 77.518 121.079, 76.251 121.409, 69.388 121.620 C 59.089 121.937, 49.250 123.682, 45.500 125.857 C 43.182 127.202, 42.431 128.417, 42.195 131.204 C 41.759 136.370, 44.420 138.081, 50.780 136.722 C 56.449 135.510, 68.008 135.722, 73.407 137.138 C 76.102 137.844, 79.826 137.829, 85.407 137.090 C 98.125 135.405, 121.906 134.924, 124.121 136.308 C 127.221 138.244, 126.339 140.663, 121.750 142.810 C 118.105 144.515, 115.221 144.814, 101.485 144.912 C 92.677 144.976, 83.354 144.632, 80.769 144.149 C 75.586 143.181, 67.421 144.560, 64.646 146.872 C 61.889 149.171, 62.673 152.579, 66.750 156.014 L 70.500 159.173 88.500 158.580 C 111.317 157.829, 119.789 157.237, 128.344 155.796 C 136.362 154.446, 137.647 153.087, 138.371 145.188 C 138.639 142.266, 139.361 139.270, 139.975 138.530 C 141.717 136.431, 147.498 134, 150.746 134 C 153.844 134, 157 131.389, 157 128.826 C 157 126.196, 153.049 123.598, 148.199 123.039 C 142.640 122.398, 141.155 120.173, 140.306 111.203 C 140.009 108.066, 139.143 104.503, 138.383 103.285 C 136.775 100.709, 136.549 97, 138 97 C 141.124 97, 136.004 91.236, 129.118 87 C 126.883 85.625, 125.047 83.825, 125.039 83 C 125.031 82.175, 126.594 80.483, 128.512 79.241 C 132.655 76.558, 133.056 73.494, 129.750 69.791 C 124.996 64.465, 120.634 64.269, 116.489 69.195 C 113.516 72.729, 113.359 75.436, 115.887 79.582 C 117.961 82.984, 117.912 83.057, 111.136 86.721 C 107.776 88.538, 107.195 88.369, 105.127 84.969 C 103.568 82.405, 103.431 81.135, 104.237 76.719 C 104.760 73.849, 104.963 69.803, 104.687 67.729 C 103.919 61.966, 105.884 60.571, 113.443 61.510 C 120.616 62.402, 125.129 62.390, 134.290 61.455 C 140.023 60.870, 141.385 61.038, 143.040 62.536 C 145.281 64.564, 145.627 69.529, 143.807 73.525 C 142.993 75.310, 142.944 76.359, 143.653 76.822 C 144.224 77.195, 144.990 78.716, 145.353 80.203 C 147.037 87.084, 154.895 91.105, 158.878 87.122 C 160.634 85.366, 160.797 84.598, 159.908 82.268 C 159.327 80.746, 158.477 73.507, 158.019 66.182 C 157.365 55.714, 156.812 52.450, 155.435 50.928 C 152.192 47.345, 144.379 46.222, 118.759 45.655 C 107.010 45.395, 104.241 44.326, 107.334 41.243 C 108.844 39.737, 111.220 39.495, 124.791 39.465 C 133.431 39.446, 141.489 39.086, 142.699 38.664 C 147.819 36.879, 146.237 29.797, 140.298 27.920 C 135.303 26.341, 52.731 25.582, 48.845 27.080 M 67.834 68.750 C 63.788 73.130, 63.678 74.675, 67.174 78.016 C 68.891 79.657, 70.680 81, 71.148 81 C 71.617 81, 72 81.891, 72 82.981 C 72 84.915, 71.651 85.077, 64.216 86.590 C 60.750 87.296, 59.309 91.296, 61.381 94.459 C 62.950 96.853, 63.541 97, 71.619 97 C 78.682 97, 80.702 96.636, 83.096 94.932 C 84.693 93.794, 86 92.351, 86 91.724 C 86 91.097, 84.346 88.890, 82.324 86.820 C 78.953 83.368, 78.727 82.782, 79.599 79.777 C 80.936 75.175, 80.307 72.540, 77.034 69.036 C 73.521 65.276, 71.113 65.201, 67.834 68.750" stroke="none" fill="black" fill-rule="evenodd"/>
</svg>