<svg xmlns="http://www.w3.org/2000/svg" width="256" height="256" viewBox="0 0 256 256" version="1.1">
	<path d="M 66 29.289 C 64.625 29.981, 62.732 32.112, 61.793 34.024 C 60.854 35.936, 59.279 39.136, 58.293 41.135 C 55.578 46.638, 50.964 52.349, 46.398 55.856 C 40.214 60.605, 33.959 74.050, 35.743 78.757 C 36.067 79.612, 37.277 79.086, 39.524 77.113 C 41.341 75.517, 44.491 73.663, 46.524 72.992 C 49.787 71.915, 50.527 72.003, 52.859 73.740 C 55.396 75.629, 55.525 76.197, 56.121 88.103 C 56.463 94.922, 57.085 103.955, 57.503 108.178 L 58.263 115.857 52.656 119.443 C 45.802 123.828, 45.178 125.702, 46.193 138.854 C 47.236 152.376, 47.737 154.534, 50.629 157.971 C 53.779 161.714, 59.369 162.169, 62.811 158.961 C 65.539 156.420, 65.570 154.037, 62.942 148.887 C 60.865 144.815, 60.227 137.795, 61.435 132.295 C 61.896 130.197, 63.107 128.992, 66.025 127.728 C 73.523 124.480, 76.755 126.816, 77.379 135.934 C 78.063 145.928, 80.612 147.332, 97.170 146.838 C 111.701 146.405, 116.335 144.497, 116.810 138.755 C 116.995 136.521, 116.490 134.111, 115.560 132.782 C 114.702 131.557, 114 130.015, 114 129.355 C 114 127.202, 120.186 125.897, 125.551 126.919 C 133.392 128.413, 134 128.826, 134 132.664 C 134 137.571, 131.948 145.083, 130.451 145.657 C 129.754 145.925, 128.638 147.460, 127.971 149.070 C 126.882 151.700, 127.034 152.356, 129.478 155.560 C 132.685 159.765, 136.059 161.308, 139.325 160.066 C 142.171 158.984, 144.996 154.869, 145.011 151.785 C 145.017 150.528, 145.692 147.291, 146.511 144.591 C 147.372 141.752, 148 135.752, 148 130.363 C 148 122.340, 147.636 120.303, 145.386 115.714 L 142.771 110.383 145.955 107.199 C 148.395 104.759, 148.981 103.487, 148.462 101.757 C 147.159 97.411, 145.327 96.504, 137.711 96.432 C 133.745 96.395, 129.121 95.888, 127.435 95.305 C 125.106 94.500, 123.333 94.596, 120.053 95.705 C 116.128 97.032, 115.589 97.010, 114.118 95.462 C 112.904 94.185, 112.814 93.644, 113.756 93.295 C 114.447 93.039, 114.758 92.418, 114.447 91.915 C 113.637 90.603, 118.382 90.782, 119.713 92.113 C 120.373 92.773, 122.389 92.987, 124.663 92.637 C 126.773 92.313, 130.381 91.768, 132.681 91.425 C 144.173 89.715, 134.532 81, 121.147 81 C 113.990 81, 112.300 79.987, 113.638 76.500 C 114.080 75.348, 115.989 74.999, 121.857 74.994 C 129.853 74.989, 137.023 73.538, 138.180 71.693 C 139.447 69.672, 136.948 67.002, 130.962 63.981 C 127.683 62.326, 125 60.324, 125 59.533 C 125 58.079, 130.638 56.016, 134.639 56.006 C 135.816 56.003, 137.837 55.143, 139.131 54.095 C 141.441 52.224, 141.450 52.154, 139.604 50.115 C 137.479 47.766, 135.321 47.268, 122.206 46.096 C 111.657 45.153, 108.520 43.287, 107.393 37.283 C 106.602 33.067, 103.248 30.649, 99.497 31.590 C 97.093 32.193, 96.848 32.628, 97.352 35.386 C 97.666 37.099, 98.184 39.400, 98.504 40.500 C 99.374 43.492, 95.647 45.257, 87.330 45.792 C 77.270 46.439, 72.990 45.514, 73.035 42.705 C 73.055 41.492, 73.714 39.375, 74.500 38 C 76.574 34.371, 76.315 31.334, 73.777 29.557 C 71.101 27.682, 69.312 27.620, 66 29.289 M 67.750 56.731 C 65.663 57.227, 65.509 58.946, 67.328 61.433 C 68.519 63.063, 69.903 63.202, 80.834 62.785 C 87.532 62.530, 93.317 62.016, 93.690 61.644 C 94.499 60.834, 92.537 58.692, 90.760 58.446 C 78.808 56.793, 70.194 56.151, 67.750 56.731 M 115.250 57.687 C 114.563 57.951, 114 58.804, 114 59.583 C 114 60.619, 115.363 61, 119.071 61 C 123.294 61, 123.920 60.777, 122.812 59.669 C 121.249 58.106, 117.036 57.002, 115.250 57.687 M 65.994 75.512 C 64.802 77.739, 64.868 78.191, 66.575 79.503 C 67.634 80.317, 70.525 80.974, 73 80.963 C 75.475 80.952, 81.550 81.231, 86.500 81.582 C 94.753 82.167, 95.701 82.043, 97.920 80.095 C 100.283 78.021, 100.295 77.934, 98.420 76.499 C 96.989 75.403, 93.795 75.051, 85.876 75.117 C 79.866 75.167, 74.358 74.727, 73.192 74.103 C 69.889 72.335, 67.437 72.815, 65.994 75.512 M 67.494 91.649 C 66.189 92.954, 66.193 93.473, 67.533 96.064 C 68.738 98.394, 69.717 98.999, 72.276 98.994 C 74.049 98.990, 76.625 98.415, 78 97.716 C 79.375 97.016, 83.425 96.323, 87 96.177 C 91.037 96.011, 94.055 95.358, 94.964 94.455 C 96.246 93.181, 95.488 93, 88.864 93 C 84.703 93, 79.994 92.571, 78.399 92.047 C 72.942 90.253, 69.033 90.110, 67.494 91.649 M 129.750 108.716 C 124.650 109.489, 127.604 113.872, 133.777 114.692 C 136.546 115.059, 138.077 114.683, 139.750 113.226 C 140.988 112.148, 142 110.815, 142 110.264 C 142 109.348, 135.871 107.832, 133.500 108.161 C 132.950 108.237, 131.262 108.487, 129.750 108.716 M 88.250 110.310 C 84.393 111.620, 84.106 113.184, 87.398 114.946 C 91.099 116.926, 91.889 119.741, 90.358 125.489 C 88.582 132.157, 88.516 131.900, 92.438 133.538 C 96.447 135.214, 100.528 134.630, 103.882 131.903 C 106.261 129.968, 106.262 129.961, 104.595 124.661 C 102.633 118.425, 103.080 116.732, 107.339 114.252 C 109.767 112.838, 111.116 112.633, 113.156 113.366 C 116.285 114.490, 122 112.560, 122 110.379 C 122 109.411, 120.657 109, 117.500 109 C 114.882 109, 113 109.462, 113 110.105 C 113 110.843, 111.587 110.989, 108.750 110.545 C 100.841 109.308, 91.516 109.201, 88.250 110.310 M 69 114 C 69 114.550, 70.323 115, 71.941 115 C 73.559 115, 75.160 114.550, 75.500 114 C 75.868 113.405, 74.677 113, 72.559 113 C 70.602 113, 69 113.450, 69 114" stroke="none" fill="black" fill-rule="evenodd"/>
</svg>