<svg xmlns="http://www.w3.org/2000/svg" width="256" height="256" viewBox="0 0 256 256" version="1.1">
	<path d="M 59.854 28.385 C 57.119 29.749, 55.035 33.483, 55.015 37.059 C 54.988 41.645, 52.951 43.199, 47.026 43.153 C 37.104 43.077, 31.153 47.532, 34.452 52.567 C 36.045 54.999, 36.873 55.208, 45.698 55.406 C 51.101 55.527, 52.753 57.051, 51.194 60.473 C 50.271 62.498, 49.324 63, 46.423 63 C 41.381 63, 36.404 65.611, 35.004 68.990 C 34.234 70.849, 34.064 74.083, 34.514 78.290 C 34.894 81.838, 35.335 87.612, 35.494 91.121 C 35.803 97.943, 37.360 108.439, 38.465 111.152 C 39.157 112.848, 43.573 114.069, 50.329 114.432 C 55.026 114.685, 56.330 116.462, 54.464 120.070 C 52.678 123.524, 51.291 124, 43.024 124 C 36.885 124, 35.904 124.287, 33.103 126.904 C 30.546 129.292, 30.146 130.225, 30.851 132.154 C 32.396 136.379, 35.899 137.521, 43.909 136.414 C 50.302 135.531, 52.820 135.830, 55 137.731 C 55.275 137.971, 55.520 142.517, 55.545 147.834 C 55.606 161.039, 58.686 166.504, 64.949 164.516 C 67.785 163.616, 68.413 160.682, 68.120 149.688 C 67.947 143.200, 68.263 139.388, 69.052 138.438 C 69.875 137.446, 72.351 137, 77.041 137 C 85.660 137, 86.664 136.578, 89.013 131.974 C 90.936 128.204, 90.936 128.188, 88.805 125.479 C 86.814 122.948, 86.303 122.806, 81.300 123.395 C 78.348 123.742, 75.092 124.550, 74.064 125.192 C 72.576 126.121, 71.667 126.012, 69.598 124.656 C 68.169 123.720, 67 122.283, 67 121.463 C 67 120.644, 66.479 119.139, 65.842 118.119 C 62.894 113.398, 68 111.670, 77.441 114.195 C 81.817 115.366, 81.974 115.324, 84.960 112.199 L 88.010 109.007 87.618 94.929 C 87.240 81.394, 87.314 80.746, 89.526 78.175 C 91.679 75.672, 92.292 75.519, 99.031 75.788 C 104.224 75.995, 106.891 75.646, 108.582 74.538 C 111.208 72.818, 118.546 72.456, 119.500 74 C 119.840 74.550, 121.104 75.007, 122.309 75.015 C 124.090 75.028, 124.219 75.212, 123 76 C 121.703 76.838, 121.725 76.971, 123.167 76.985 C 124.083 76.993, 125.060 76.438, 125.338 75.750 C 125.684 74.892, 125.872 74.971, 125.936 76 C 126.019 77.322, 126.142 77.324, 126.969 76.017 C 127.731 74.810, 130.211 74.586, 140.260 74.814 C 164.535 75.366, 169.759 71.333, 158.500 60.735 C 153.351 55.889, 153 55.259, 153 50.868 C 153 46.858, 152.554 45.802, 149.923 43.589 C 147.208 41.304, 145.944 40.996, 139.173 40.968 C 130.487 40.932, 129.201 40.275, 126.163 34.319 C 122.628 27.391, 117.322 27.657, 114.420 34.908 C 113.054 38.323, 112.279 38.902, 106.880 40.536 C 99.762 42.691, 97.166 45.421, 99.638 48.152 C 100.516 49.123, 103.427 50.645, 106.106 51.535 C 111.717 53.399, 112.050 53.748, 110.961 56.624 C 110.434 58.017, 108.925 58.979, 106.575 59.420 C 104.605 59.790, 99.980 61.690, 96.297 63.644 L 89.602 67.196 86.551 65.375 C 84.339 64.054, 81.734 63.599, 77.075 63.718 C 69.598 63.910, 67 62.845, 67 59.587 C 67 55.401, 69.289 54.530, 77.314 55.663 C 81.914 56.313, 85.274 56.335, 86.650 55.724 C 89.145 54.617, 92.570 47.731, 91.493 45.988 C 89.987 43.551, 84.775 42.283, 78.135 42.738 C 72.285 43.138, 71.221 42.927, 69.142 40.956 C 67.240 39.153, 66.894 38.043, 67.352 35.220 C 68.333 29.176, 64.774 25.932, 59.854 28.385 M 126.728 52.347 C 125.327 53.458, 125.157 54.282, 125.916 56.278 C 127.248 59.783, 132.777 61.559, 137.500 60 C 141.421 58.706, 141.836 57.254, 139.211 54.012 C 136.972 51.248, 129.389 50.236, 126.728 52.347 M 63.911 75.423 C 63.678 75.655, 60.790 76.158, 57.494 76.540 C 51.442 77.241, 49.788 78.261, 50.263 81 C 50.447 82.066, 52.330 82.673, 56.773 83.099 C 60.211 83.428, 64.535 84.512, 66.381 85.506 C 69.638 87.260, 73.721 86.975, 72.547 85.076 C 72.228 84.560, 72.426 83.855, 72.987 83.508 C 74.212 82.751, 73.181 78.038, 71.403 76.260 C 70.226 75.083, 64.851 74.482, 63.911 75.423 M 119 78.605 C 118.175 78.755, 114.973 79.154, 111.885 79.494 C 107.403 79.986, 105.538 80.781, 102.641 83.435 C 99.449 86.359, 99.085 87.166, 99.623 90.130 C 99.959 91.983, 100.196 95.750, 100.148 98.500 C 100.007 106.672, 103.290 109.011, 114.575 108.781 C 121.223 108.645, 122.502 108.902, 123.923 110.657 C 124.829 111.775, 126.229 112.921, 127.035 113.204 C 130.469 114.409, 120.141 115.962, 112.748 115.352 C 105.240 114.732, 104.918 114.797, 102.498 117.408 C 99.276 120.884, 99.351 122.191, 103.014 126.363 C 105.620 129.331, 105.891 130.157, 105.014 132.463 C 102.292 139.622, 105.286 144.439, 113 145.308 C 120.227 146.122, 127.359 147.926, 128.637 149.262 C 129.288 149.943, 130.937 152.516, 132.301 154.980 C 135.561 160.866, 137.479 162.074, 139.441 159.478 C 140.264 158.390, 140.952 156.600, 140.972 155.500 C 140.991 154.400, 141.899 152.037, 142.989 150.250 C 144.890 147.132, 145.228 147, 151.330 147 C 158.401 147, 161 145.345, 161 140.840 C 161 137.203, 157.340 135.565, 151.075 136.396 C 142.909 137.479, 138.114 132.916, 143.011 128.722 C 144.465 127.478, 146.816 127, 151.488 127 C 157.183 127, 158.139 126.718, 159.504 124.635 C 160.667 122.860, 160.809 121.628, 160.074 119.696 C 158.699 116.077, 156.305 115.110, 149.249 115.318 C 142.860 115.507, 141.222 114.751, 140.558 111.302 C 140.290 109.909, 140.939 108.835, 142.582 107.956 C 143.912 107.244, 145 106.288, 145 105.831 C 145 105.374, 145.815 105, 146.811 105 C 149.906 105, 153 101.254, 153 97.508 C 153 95.630, 153.507 92.981, 154.127 91.621 C 155.767 88.021, 154.478 84.467, 150.407 81.361 C 146.959 78.731, 146.352 78.627, 133.665 78.483 C 126.424 78.401, 119.825 78.456, 119 78.605 M 114.964 91.036 C 112.637 93.363, 113.015 94.453, 116.813 96.371 C 121.915 98.947, 142 97.057, 142 94.001 C 142 91.440, 133.001 89, 123.557 89 C 118.294 89, 116.598 89.402, 114.964 91.036 M 68 92 C 68 92.550, 67.325 93, 66.500 93 C 65.675 93, 65 93.450, 65 94 C 65 94.550, 62.615 95, 59.699 95 C 53.553 95, 49.019 96.774, 49.008 99.183 C 48.997 101.432, 50.831 101.865, 61.820 102.209 C 70.258 102.472, 71.249 102.311, 72.294 100.500 C 73.844 97.813, 73.816 93, 72.250 93 C 71.563 93, 71 92.550, 71 92 C 71 91.450, 70.325 91, 69.500 91 C 68.675 91, 68 91.450, 68 92 M 118.689 128.604 C 114.313 130.976, 115.513 133.435, 121.225 133.803 C 123.814 133.970, 126.847 133.617, 127.966 133.018 C 130.330 131.753, 130.696 129, 128.500 129 C 127.675 129, 127 128.550, 127 128 C 127 126.499, 121.885 126.871, 118.689 128.604" stroke="none" fill="black" fill-rule="evenodd"/>
</svg>