<svg xmlns="http://www.w3.org/2000/svg" width="256" height="256" viewBox="0 0 256 256" version="1.1">
	<path d="M 120.766 30.750 C 119.917 31.712, 118.922 33.916, 118.555 35.646 C 118.187 37.377, 117.063 39.538, 116.056 40.450 C 114.395 41.953, 113.587 41.975, 107.362 40.688 C 103.588 39.908, 99.150 39.423, 97.500 39.611 C 90.144 40.446, 87.853 44.634, 92.410 48.915 C 94.479 50.859, 96.248 51.258, 104.942 51.737 C 113.822 52.226, 117.222 53.112, 115.775 54.559 C 115.541 54.793, 112.803 55.137, 109.692 55.324 C 105.235 55.591, 102.970 56.389, 99.019 59.082 C 96.261 60.962, 94.003 62.897, 94.002 63.383 C 93.999 64.777, 98.132 67.995, 100.780 68.660 C 102.106 68.993, 105.739 68.999, 108.853 68.673 C 115.089 68.021, 116.411 68.476, 117.388 71.609 C 118.536 75.291, 115.931 76.211, 103.926 76.361 C 93.076 76.497, 92.771 76.563, 90.411 79.308 C 88.221 81.855, 88.123 82.357, 89.360 84.717 C 90.110 86.148, 92.248 88.037, 94.111 88.915 C 98.215 90.848, 98.818 93.546, 96.437 99.323 C 95.284 102.122, 94.653 106.686, 94.526 113.154 C 94.381 120.471, 93.949 123.194, 92.739 124.404 C 90.595 126.548, 88.821 126.414, 86.125 123.902 C 82.766 120.772, 77.365 119.534, 74.677 121.278 C 73.480 122.054, 72.017 122.523, 71.427 122.320 C 69.464 121.645, 71.163 116.186, 74.168 113.508 C 76.735 111.221, 77.028 110.444, 76.365 107.684 C 74.781 101.096, 75.720 94.851, 78.994 90.206 C 82.104 85.794, 82.260 83.314, 79.618 80.331 C 77.025 77.405, 76 76.054, 76 75.563 C 76 75.277, 78.250 72.816, 81 70.095 C 86.795 64.360, 87.192 62.038, 83.077 57.923 C 79.817 54.663, 76.353 54.215, 69.734 56.198 C 65.909 57.344, 65.631 57.272, 63.278 54.537 C 61.273 52.205, 60.936 51.016, 61.456 48.089 C 63.174 38.404, 63.184 36.327, 61.517 34.659 C 59.206 32.349, 53.465 32.535, 51 35 C 48.653 37.347, 48.563 38.611, 50.500 42 C 52.746 45.930, 52.352 50.321, 49.514 52.987 C 47.485 54.893, 45.497 55.444, 38.706 55.984 C 29.532 56.712, 28.240 57.197, 27.050 60.352 C 25.926 63.335, 28.231 67.439, 31.881 68.951 C 33.517 69.628, 35.532 70.931, 36.360 71.845 C 38.347 74.041, 40.485 97.210, 39.410 104.893 C 38.183 113.660, 38.294 118.151, 39.775 119.632 C 41.803 121.660, 45.231 122.243, 48.289 121.080 C 50.996 120.051, 51.581 117.895, 51.160 110.500 C 50.470 98.353, 50.074 78.342, 50.499 77.004 C 51.084 75.160, 55.041 73, 57.836 73 C 58.793 73, 61.343 72.100, 63.500 71 C 67.783 68.816, 69.817 69.036, 72.470 71.967 C 74.133 73.804, 74.061 74.008, 70.713 76.947 C 65.012 81.953, 62.217 90.634, 64.927 94.917 C 65.469 95.772, 65.414 97.356, 64.788 98.917 C 61.530 107.039, 60.117 111.380, 60.518 112.029 C 60.767 112.433, 59.965 114.279, 58.736 116.131 C 57.506 117.984, 55.892 120.681, 55.149 122.123 C 54.281 123.808, 52.312 125.218, 49.649 126.064 C 44.518 127.693, 38.412 132.304, 36.507 135.986 C 35.201 138.511, 35.251 138.918, 37.069 140.563 C 38.596 141.944, 40.941 142.412, 47.052 142.555 C 53.997 142.717, 55.832 142.367, 61.110 139.871 C 65.614 137.740, 68.671 137, 72.964 137 C 76.146 137, 80.662 136.325, 83 135.500 C 88.669 133.500, 88.727 133.512, 91.045 137.250 C 92.659 139.853, 92.933 141.468, 92.421 145.362 C 91.660 151.147, 93.288 155, 96.493 155 C 98.205 155, 99.147 153.731, 101.074 148.833 C 102.438 145.366, 104.630 141.833, 106.080 140.764 C 109.182 138.478, 116.927 137.905, 132 138.845 C 142.313 139.488, 142.500 139.544, 142.500 141.963 C 142.500 143.875, 141.785 144.630, 139.303 145.342 C 132.104 147.407, 133.509 157.476, 141.266 159.418 C 145.518 160.483, 151.486 159.048, 154.816 156.160 C 156.515 154.686, 157.077 152.772, 157.533 146.901 C 157.850 142.830, 158.291 137.250, 158.515 134.500 C 158.739 131.750, 158.417 125.630, 157.801 120.901 C 156.984 114.633, 156.977 111.130, 157.777 107.980 C 158.656 104.518, 158.584 103.096, 157.417 100.839 C 155.977 98.055, 149.528 94, 146.540 94 C 145.693 94, 145 93.615, 145 93.145 C 145 91.964, 121.193 91.306, 117 92.371 C 114.307 93.056, 109 91.359, 109 89.814 C 109 89.245, 117.143 88.967, 129.500 89.113 C 140.775 89.247, 150 89.675, 150 90.064 C 150 91.043, 158.887 90.131, 161.150 88.919 C 163.603 87.607, 163.512 83.528, 160.950 79.929 C 158.461 76.434, 153.615 74.974, 144.216 74.886 C 140.428 74.851, 136.693 74.419, 135.915 73.926 C 134.917 73.295, 134.869 73.026, 135.750 73.015 C 136.438 73.007, 136.947 72.663, 136.882 72.250 C 136.492 69.782, 137.534 69.298, 143.662 69.100 C 154.440 68.751, 159.294 65.071, 155.004 60.504 C 152.798 58.156, 147.961 56.531, 139 55.126 C 135.345 54.553, 134.903 54.281, 136.646 53.676 C 137.827 53.266, 139.177 53.035, 139.646 53.161 C 141.242 53.592, 152.488 51.911, 155.263 50.826 C 159.466 49.184, 160.011 45.266, 156.462 42.213 C 153.721 39.856, 153.269 39.794, 143.733 40.470 C 135.115 41.081, 133.600 40.948, 131.923 39.431 C 130.865 38.473, 130 36.920, 130 35.980 C 130 33.521, 126.167 29, 124.082 29 C 123.108 29, 121.615 29.788, 120.766 30.750 M 111.441 106.500 C 109.541 107.969, 109.540 108.031, 111.389 109.462 C 112.882 110.617, 116.032 110.855, 126.389 110.594 C 142.964 110.177, 142 110.330, 142 108.117 C 142 105.509, 139.441 105.030, 125.441 105.014 C 116.235 105.003, 112.923 105.355, 111.441 106.500 M 108.980 122.524 C 108.284 123.362, 108.044 124.375, 108.446 124.774 C 108.848 125.173, 114.199 125.534, 120.338 125.575 C 126.477 125.616, 132.625 126.010, 134 126.450 C 138.424 127.866, 142.194 127.592, 143.359 125.769 C 144.215 124.430, 144.097 123.669, 142.839 122.411 C 141.385 120.956, 140.430 120.923, 133.856 122.095 C 125.975 123.499, 120.312 123.449, 116.342 121.940 C 112.792 120.590, 110.429 120.778, 108.980 122.524" stroke="none" fill="black" fill-rule="evenodd"/>
</svg>