<svg xmlns="http://www.w3.org/2000/svg" width="256" height="256" viewBox="0 0 256 256" version="1.1">
	<path d="M 45.551 27.339 C 44.423 28.164, 43.944 29.614, 44.164 31.543 C 44.432 33.893, 45.407 34.940, 49 36.733 C 53.072 38.766, 54.955 38.980, 68.800 38.990 C 85.121 39.001, 90.488 40.226, 89.803 43.783 C 89.315 46.320, 85.171 48.015, 82.209 46.889 C 78.083 45.321, 43.773 45.527, 40.916 47.138 C 39.587 47.887, 38.403 48.522, 38.284 48.549 C 38.087 48.594, 36.055 61.321, 34.590 71.678 C 33.865 76.803, 35.646 79, 40.524 79 C 46.537 79, 49.917 76.465, 50.524 71.500 C 50.591 70.950, 50.057 68.997, 49.336 67.160 C 47.771 63.167, 48.898 60.315, 52.387 59.439 C 55.396 58.684, 62 61.438, 62 63.449 C 62 64.409, 62.893 65, 64.345 65 C 68.037 65, 69.967 67.929, 69.712 73.146 C 69.455 78.391, 68.112 80.379, 63.269 82.677 C 60.106 84.178, 59.875 84.578, 60.547 87.408 C 61.647 92.044, 61.111 98.182, 59.374 100.832 C 57.922 103.048, 57.435 103.146, 51.057 102.506 C 44.511 101.848, 44.210 101.917, 42.141 104.548 C 39.630 107.739, 39.377 111.238, 41.526 113.022 C 42.366 113.719, 45.853 114.802, 49.276 115.429 C 55.042 116.486, 55.480 116.752, 55.225 119.035 C 54.966 121.356, 52.383 124.175, 49 125.831 C 41.711 129.399, 37.182 134.896, 35.070 142.740 C 33.966 146.841, 35.243 154, 37.079 154 C 40.281 154, 45.178 150.670, 47.627 146.829 C 56.645 132.680, 60.332 133.795, 61.343 150.977 C 61.765 158.143, 62.181 159.728, 64.032 161.227 C 67.364 163.925, 70.299 163.456, 72.406 159.890 C 74.017 157.162, 74.157 155.458, 73.546 146.030 L 72.850 135.279 79.985 134.769 C 85.932 134.343, 87.578 133.820, 89.865 131.629 C 91.375 130.183, 93.159 129, 93.830 129 C 95.745 129, 92.521 123.502, 89.265 121.215 C 87.744 120.147, 85.615 119.411, 84.534 119.580 C 81.242 120.093, 72.861 117.916, 73.281 116.656 C 73.716 115.347, 77.784 114.293, 83.076 114.118 C 89.836 113.895, 93.230 106.976, 89.089 101.861 C 87.425 99.805, 86.229 99.477, 79.839 99.322 C 75.803 99.224, 72.114 99.112, 71.643 99.072 C 71.172 99.032, 71.040 98.339, 71.349 97.532 C 71.659 96.725, 71.482 95.798, 70.956 95.473 C 69.311 94.456, 69.911 91.118, 71.934 90.035 C 72.998 89.466, 75.815 89, 78.194 89 C 81.429 89, 82.832 88.498, 83.762 87.009 C 84.825 85.307, 84.484 83.949, 81.411 77.650 C 77.724 70.092, 73.830 65, 71.737 65 C 71.087 65, 71.471 64.085, 72.590 62.966 C 74.167 61.388, 76.111 60.884, 81.256 60.716 C 85.505 60.578, 88.341 60.951, 89.149 61.755 C 89.975 62.577, 90.470 66.548, 90.583 73.255 C 90.678 78.890, 90.811 83.766, 90.878 84.092 C 90.945 84.417, 92.808 85.225, 95.019 85.887 C 98.227 86.849, 99.587 86.828, 101.764 85.784 C 104.092 84.669, 104.610 83.623, 105.306 78.642 C 105.774 75.287, 105.718 70.918, 105.173 68.362 C 104.424 64.852, 104.532 63.611, 105.684 62.459 C 107.649 60.494, 115.137 60.598, 118.694 62.639 L 121.551 64.279 117.308 68.644 C 112.764 73.320, 110.357 77, 111.843 77 C 112.346 77, 113.303 78.318, 113.970 79.928 C 114.732 81.768, 116.542 83.430, 118.842 84.401 C 123.054 86.180, 126.001 88.326, 125.997 89.610 C 125.996 90.100, 124.673 91.385, 123.059 92.467 C 121.445 93.548, 119.686 95.394, 119.151 96.567 C 118.380 98.261, 116.999 98.824, 112.467 99.291 C 106.181 99.940, 102.546 102.405, 102.259 106.215 C 101.995 109.722, 104.403 112.504, 108.858 113.839 C 111.090 114.508, 113.135 115.409, 113.402 115.841 C 113.669 116.273, 112.174 117.737, 110.080 119.095 C 103.996 123.040, 98.386 130.185, 97.622 134.960 C 96.699 140.737, 98.562 144.407, 102.620 144.803 C 105.330 145.068, 106.501 144.260, 111.807 138.469 C 120.127 129.389, 121.156 129.772, 121.543 142.096 C 121.873 152.605, 123.570 158.164, 127.010 160.005 C 128.836 160.982, 129.555 160.827, 131.449 159.048 C 133.478 157.141, 133.727 155.897, 133.878 146.911 C 134.052 136.593, 135.152 133, 138.137 133 C 139.047 133, 143.183 134.610, 147.328 136.579 C 156.805 141.079, 159.384 140.904, 159.812 135.731 C 160.069 132.614, 159.507 131.242, 156.562 127.801 C 154.603 125.512, 153 123.315, 153 122.918 C 153 122.521, 151.650 121.725, 150 121.150 C 148.350 120.575, 147 119.661, 147 119.119 C 147 118.578, 146.100 117.849, 145.001 117.500 C 141.676 116.445, 144.167 113.465, 148.625 113.165 C 150.703 113.025, 153.038 112.384, 153.814 111.740 C 155.646 110.219, 156.875 106.862, 156.224 105.153 C 155.422 103.045, 147.290 100, 142.464 100 C 136.418 100, 133.868 98.584, 131.224 93.756 C 129.248 90.149, 129.150 89.496, 130.475 88.754 C 131.314 88.285, 132 87.226, 132 86.401 C 132 84.600, 129.100 78.745, 127.787 77.896 C 126.578 77.113, 125.729 67.843, 126.732 66.377 C 127.154 65.759, 129.250 64.072, 131.390 62.627 C 136.135 59.422, 141.185 59.185, 144.033 62.033 C 145.899 63.899, 145.940 64.248, 144.533 66.256 C 142.933 68.541, 142.500 73.761, 143.765 75.523 C 145.061 77.327, 149.517 79.773, 153.525 80.879 C 156.988 81.835, 157.677 81.713, 159.741 79.774 C 161.743 77.893, 161.993 76.899, 161.561 72.546 C 160.127 58.130, 158.413 51.417, 155.561 49.050 C 153.834 47.617, 130.322 45.686, 118.195 45.981 C 110.371 46.172, 106 45.266, 106 43.456 C 106 40.311, 110.200 39.581, 127 39.805 C 144.043 40.033, 147.060 39.491, 149.374 35.786 C 150.821 33.469, 147.406 28.889, 143.432 27.817 C 141.820 27.381, 119.524 26.812, 93.887 26.552 C 57.375 26.182, 46.901 26.352, 45.551 27.339" stroke="none" fill="black" fill-rule="evenodd"/>
</svg>