<svg xmlns="http://www.w3.org/2000/svg" width="256" height="256" viewBox="0 0 256 256" version="1.1">
	<path d="M 87.500 30.670 C 82.669 33.254, 81.981 33.341, 67.142 33.235 C 52.226 33.128, 51.716 33.193, 49.402 35.507 C 43.236 41.673, 50.470 43.926, 81.343 45.453 C 85.781 45.673, 87.706 46.269, 89.343 47.932 L 91.500 50.122 89.111 52.084 C 87.438 53.458, 86.088 53.814, 84.611 53.273 C 79.674 51.465, 73.538 52.430, 67.781 55.919 C 62.115 59.353, 60.226 62.120, 62.353 63.870 C 64.713 65.810, 79.049 67.134, 82.925 65.770 C 86.409 64.544, 90.080 68.417, 88.551 71.705 C 87.304 74.386, 85.980 75, 80 75.668 C 77.525 75.944, 73.700 76.488, 71.500 76.877 C 69.300 77.266, 66.150 77.281, 64.500 76.910 C 62.850 76.540, 57.663 76.183, 52.973 76.118 C 46.429 76.028, 43.870 76.396, 41.973 77.704 C 38.358 80.195, 37.273 81.979, 37.775 84.605 C 38.454 88.157, 40.478 89.308, 44.736 88.565 C 54.730 86.819, 57.238 86.819, 61.810 88.565 C 64.372 89.544, 65.913 90.529, 65.234 90.755 C 64.555 90.982, 64 92.203, 64 93.469 C 64 94.735, 63.317 97.060, 62.481 98.636 C 61.561 100.371, 61.004 103.865, 61.069 107.500 C 61.127 110.800, 60.680 116.875, 60.074 121 C 59.468 125.125, 58.806 131.425, 58.603 135 C 58.400 138.575, 57.909 143.353, 57.511 145.617 C 56.685 150.313, 57.937 153.489, 60.922 154.269 C 63.948 155.061, 65.964 152.977, 68.930 145.988 L 71.636 139.613 79.568 138.220 C 86.085 137.075, 88.918 137.048, 95.450 138.065 C 104.255 139.436, 110.976 139.441, 115.723 138.080 C 118.210 137.366, 119.178 137.539, 120.427 138.919 C 122.650 141.376, 122.522 141.735, 117.500 147.103 C 111.686 153.319, 111.649 155.775, 117.335 157.937 C 121.771 159.624, 128.162 159.198, 131.810 156.974 C 137.435 153.545, 137.989 150.747, 136.864 131.458 C 136.320 122.131, 135.865 111.350, 135.852 107.500 C 135.830 100.681, 135.566 99.883, 131.053 93 C 130.255 91.784, 127.084 91.469, 114.285 91.338 C 105.603 91.249, 96.925 91.095, 95 90.997 C 93.075 90.898, 89.345 90.916, 86.711 91.036 C 82.214 91.242, 80.029 90.638, 81.163 89.503 C 81.437 89.230, 95.799 88.933, 113.080 88.843 C 137.371 88.716, 145.601 88.995, 149.351 90.074 C 154.043 91.423, 154.264 91.392, 156.101 89.124 C 158.656 85.969, 158.491 83.333, 155.495 79.405 C 152.333 75.259, 146.447 74.147, 137.297 75.965 C 131.893 77.040, 129.413 76.965, 119.898 75.439 C 107.447 73.443, 103.421 71.437, 106.228 68.629 C 107.463 67.395, 109.873 66.988, 116.179 66.949 C 128.165 66.875, 138.003 65.612, 138.986 64.022 C 139.936 62.486, 137.447 58.006, 135.635 57.990 C 135.011 57.985, 132.025 56.816, 129 55.393 C 124.580 53.314, 122.110 52.829, 116.421 52.921 C 110.619 53.015, 109.029 52.690, 107.606 51.117 C 105.090 48.337, 106.818 47.621, 118 46.815 C 130.019 45.949, 141.982 44.441, 144.250 43.507 C 145.221 43.107, 146 41.732, 146 40.419 C 146 36.118, 141.758 34.988, 123.228 34.352 C 107.666 33.818, 106.232 33.606, 102.653 31.310 C 96.990 27.678, 93.377 27.526, 87.500 30.670 M 111 105.902 C 109.625 106.289, 101.862 106.447, 93.750 106.255 C 81.706 105.969, 79 106.158, 79 107.284 C 79 109.622, 85.002 110.673, 97.006 110.437 C 103.328 110.313, 110.610 110.692, 113.189 111.279 C 118.606 112.513, 121 111.317, 121 107.378 C 121 105.279, 120.560 105.012, 117.250 105.100 C 115.188 105.155, 112.375 105.516, 111 105.902 M 74 106.883 C 74 107.369, 74.900 108.002, 76 108.290 C 77.300 108.630, 78 108.320, 78 107.406 C 78 106.633, 77.100 106, 76 106 C 74.900 106, 74 106.398, 74 106.883 M 73 123.034 C 73 124.696, 73.503 124.986, 75.750 124.616 C 77.263 124.368, 78.950 124.112, 79.500 124.047 C 80.796 123.894, 75.893 121.082, 74.250 121.035 C 73.563 121.016, 73 121.915, 73 123.034 M 81 123.580 C 81 125.703, 84.186 126.146, 98.750 126.050 C 106.750 125.998, 113 126.357, 113 126.870 C 113 128.667, 118.158 129.126, 120.574 127.544 C 125.822 124.105, 119.521 120.570, 113.188 123.400 C 110.437 124.630, 107.467 124.945, 101.500 124.644 C 97.100 124.421, 92.825 123.969, 92 123.638 C 88.885 122.390, 81 122.348, 81 123.580" stroke="none" fill="black" fill-rule="evenodd"/>
</svg>