<svg xmlns="http://www.w3.org/2000/svg" width="256" height="256" viewBox="0 0 256 256" version="1.1">
	<path d="M 91 27 C 89.900 28.100, 88.944 29.675, 88.875 30.500 C 88.806 31.325, 88.638 32.450, 88.500 33 C 88.362 33.550, 88.194 34.888, 88.125 35.974 C 88.054 37.092, 86.661 38.641, 84.912 39.545 C 82.079 41.010, 80.953 41.006, 71.268 39.487 C 56.844 37.225, 49 38.956, 49 44.401 C 49 47.794, 50.793 48.837, 58.499 49.929 C 67.389 51.187, 69.557 53.191, 69.352 59.957 C 69.270 62.651, 68.677 66.447, 68.035 68.394 C 66.758 72.264, 67.593 71.958, 52.559 74.076 C 42.779 75.454, 40.590 76.260, 37.462 79.636 C 35.006 82.285, 34.104 88.502, 35.607 92.418 C 36.386 94.449, 39.378 94.454, 41.061 92.427 C 43.623 89.339, 49.805 87, 55.401 87 C 58.416 87, 61.130 87.402, 61.433 87.892 C 61.886 88.625, 76.650 88.658, 84.500 87.944 C 88.595 87.571, 106 89.735, 106 90.617 C 106 90.906, 105.331 91.812, 104.514 92.629 C 102.884 94.259, 101.159 94.395, 86.755 94.025 C 74.318 93.706, 64.839 96.013, 61.957 100.061 C 59.891 102.961, 59.779 104.168, 59.969 121.500 C 60.036 127.550, 60.078 137, 60.063 142.500 C 60.047 148, 60.562 154.227, 61.206 156.337 C 62.365 160.132, 62.423 160.167, 66.439 159.539 C 68.672 159.190, 82.875 158.677, 98 158.399 C 141.584 157.598, 137.315 158.034, 138.541 154.260 C 139.120 152.479, 139.347 148.879, 139.046 146.260 C 138.744 143.642, 139.053 138.201, 139.732 134.168 C 140.792 127.876, 140.750 126.418, 139.440 123.884 C 138.297 121.673, 138.024 118.787, 138.355 112.400 C 138.598 107.709, 139.049 103.617, 139.358 103.308 C 139.667 102.999, 139.303 101.553, 138.549 100.094 C 137.562 98.186, 135.154 96.652, 129.959 94.623 C 125.988 93.072, 122.461 92.187, 122.120 92.655 C 120.942 94.274, 116.021 94.164, 114.338 92.481 C 112.933 91.076, 112.894 90.680, 114.088 89.925 C 116.538 88.374, 142.195 88.835, 148.891 90.550 C 156.359 92.464, 158.482 91.616, 158.821 86.587 C 159.137 81.900, 156.730 77.429, 152.795 75.394 C 150.284 74.095, 148.364 73.917, 143.562 74.538 C 133.978 75.778, 130.873 75.546, 129.360 73.478 C 127.611 71.085, 127.485 55.915, 129.200 54.200 C 129.860 53.540, 132.924 53, 136.009 53 C 143.400 53, 145.714 51.072, 145.115 45.411 C 144.852 42.921, 139.152 41.665, 126.500 41.308 C 109.548 40.830, 106.311 39.870, 104.981 34.930 C 103.855 30.747, 98.058 25, 94.965 25 C 93.884 25, 92.100 25.900, 91 27 M 92.484 53.142 C 83.055 54.779, 81.394 56.939, 82.177 66.544 L 82.500 70.500 90.500 71.854 C 100.684 73.578, 107.039 73.641, 110.870 72.054 C 113.459 70.981, 114.066 70.001, 115.038 65.318 C 116.395 58.778, 115.734 55.368, 112.937 54.480 C 109.125 53.270, 96.502 52.444, 92.484 53.142 M 68.206 112.500 C 68.493 117.381, 68.583 117.512, 72 118 C 73.925 118.275, 83.129 117.995, 92.453 117.378 C 102.481 116.715, 110.649 116.613, 112.447 117.128 C 117.549 118.592, 123.531 118.181, 125.229 116.250 C 126.766 114.502, 127.062 109.729, 125.717 108.384 C 125.326 107.993, 112.160 107.633, 96.459 107.586 L 67.913 107.500 68.206 112.500 M 116.724 129.609 C 116.389 129.945, 110.126 130.630, 102.807 131.133 C 69.911 133.393, 70.703 133.226, 69.483 138.169 C 68.539 141.993, 72.223 144.058, 82.844 145.655 C 96.904 147.770, 116.599 146.851, 122.331 143.813 C 124.612 142.604, 126.904 137.348, 126.246 134.834 C 125.296 131.200, 118.734 127.599, 116.724 129.609" stroke="none" fill="black" fill-rule="evenodd"/>
</svg>