<svg xmlns="http://www.w3.org/2000/svg" width="256" height="256" viewBox="0 0 256 256" version="1.1">
	<path d="M 46.690 29.597 C 40.583 32.921, 45.880 39.608, 55 40.088 C 57.410 40.215, 57.799 40.407, 56.250 40.706 C 55.013 40.944, 54 41.530, 54 42.008 C 54 42.486, 51.862 43.168, 49.250 43.523 C 42.885 44.388, 41.917 44.712, 39 46.959 C 36.850 48.615, 36.404 49.976, 35.815 56.692 C 35.439 60.986, 34.814 67.161, 34.428 70.413 C 33.825 75.487, 33.985 76.516, 35.554 77.663 C 38.147 79.559, 41.972 79.314, 45.750 77.011 C 48.472 75.351, 49 74.430, 49 71.336 C 49 69.304, 48.465 66.164, 47.812 64.357 C 46.787 61.522, 46.877 60.794, 48.467 59.036 C 50.694 56.576, 55.840 56.349, 60.050 58.526 C 62.839 59.968, 64.160 63, 62 63 C 60.049 63, 61.061 64.532, 64.607 66.947 C 69.430 70.233, 70.727 73.674, 68.073 76.147 C 66.979 77.166, 65.277 78.016, 64.292 78.035 C 62.248 78.076, 56.855 80.910, 58.719 80.965 C 59.421 80.985, 59.677 81.679, 59.323 82.601 C 58.985 83.481, 59.274 84.551, 59.965 84.978 C 60.848 85.524, 59.620 87.272, 55.824 90.870 C 52.855 93.684, 50.361 96.859, 50.281 97.926 C 50.200 98.993, 48.867 101.285, 47.317 103.018 C 45.768 104.752, 44.206 107.238, 43.847 108.544 C 42.750 112.537, 45.722 120.317, 50.280 125.382 C 54.068 129.590, 55.059 130.135, 59.960 130.699 C 66.809 131.488, 70.551 134.660, 69.518 138.800 C 68.542 142.712, 66.365 144.709, 62.231 145.484 C 60.230 145.860, 56.997 146.974, 55.047 147.961 C 53.096 148.948, 49.925 150.088, 48 150.493 C 43.331 151.477, 42 152.702, 42 156.015 C 42 159.565, 43.269 160, 53.615 160 C 60.568 160, 62.911 159.572, 66.831 157.586 C 72.403 154.762, 78 149.380, 78 146.845 C 78 144.260, 83.680 138.204, 88.328 135.833 C 95.921 131.959, 104.981 135.828, 104.995 142.951 C 104.998 144.621, 106.832 147.169, 110.753 150.951 C 115.283 155.320, 117.781 156.870, 122.503 158.242 C 137.220 162.518, 143.347 162.380, 153.156 157.552 C 159.301 154.527, 160.616 152.067, 158.829 146.940 C 157.514 143.168, 154.883 142.788, 149.590 145.605 C 143.653 148.766, 135.860 148.775, 126.500 145.632 C 121.135 143.831, 119.189 142.653, 118.171 140.589 C 117.182 138.587, 117.128 137.551, 117.960 136.548 C 119.761 134.378, 130.461 132.905, 135.920 134.076 C 141.255 135.220, 145.292 134.191, 146.845 131.290 C 147.376 130.297, 147.617 127.013, 147.380 123.992 C 147.143 120.971, 146.990 115.688, 147.039 112.250 C 147.100 108.067, 146.740 106, 145.952 106 C 145.193 106, 144.978 105.021, 145.350 103.250 C 147.326 93.830, 147.582 94.755, 142.096 91.500 C 139.315 89.850, 137.031 88.162, 137.020 87.750 C 137.009 87.338, 136.100 87, 135 87 C 133.552 87, 133 86.333, 133 84.583 C 133 83.254, 132.438 81.940, 131.750 81.662 C 130.844 81.297, 130.886 81.136, 131.903 81.079 C 132.915 81.022, 132.756 80.512, 131.334 79.250 C 128.165 76.438, 127.814 74.171, 130.074 71.113 C 132.763 67.476, 133.108 64.908, 131.199 62.726 C 129.223 60.468, 130.442 59.152, 135.628 57.940 C 142.487 56.337, 147.612 60.119, 145.055 64.896 C 142.684 69.327, 144.538 76.013, 148.657 77.890 C 152.597 79.685, 157.759 79.241, 160.093 76.907 C 162.464 74.536, 162.370 70.925, 159.667 60.500 C 158.811 57.200, 157.849 53.249, 157.529 51.719 C 157.177 50.039, 155.671 48.160, 153.723 46.973 C 150.788 45.183, 148.612 45.007, 129.372 45.004 C 112.434 45.001, 108.013 44.721, 107.077 43.593 C 106.127 42.448, 106.563 41.969, 109.415 41.028 C 113.359 39.727, 129.337 39.916, 135.607 41.339 C 138.878 42.082, 140.554 41.900, 143.849 40.446 C 149.137 38.113, 150.020 35.565, 146.692 32.237 C 144.503 30.049, 142.945 29.621, 134.836 28.983 C 129.701 28.578, 108.400 28.207, 87.500 28.158 C 55.166 28.081, 49.081 28.296, 46.690 29.597 M 59.813 40.683 C 60.534 40.972, 61.397 40.936, 61.729 40.604 C 62.061 40.272, 61.471 40.036, 60.417 40.079 C 59.252 40.127, 59.015 40.364, 59.813 40.683 M 64.364 41.506 C 65.436 42.579, 67.690 42.958, 72.185 42.822 C 75.658 42.717, 79.483 43.164, 80.684 43.815 C 83.752 45.479, 86.952 45.288, 87.677 43.399 C 88.707 40.714, 85.983 40.031, 74.179 40.015 C 64.094 40.002, 63.022 40.165, 64.364 41.506 M 57.813 42.683 C 58.534 42.972, 59.397 42.936, 59.729 42.604 C 60.061 42.272, 59.471 42.036, 58.417 42.079 C 57.252 42.127, 57.015 42.364, 57.813 42.683 M 78.250 58.584 C 76.463 59.366, 75 60.197, 75 60.431 C 75 60.665, 76.623 63.581, 78.607 66.911 C 83.120 74.487, 83.807 79.705, 80.795 83.533 L 78.617 86.302 82.368 89.450 C 86.792 93.165, 87.403 95.537, 84.863 99.154 C 82.437 102.611, 82.507 103.416, 85.500 106.409 C 86.875 107.784, 88 109.729, 88 110.732 C 88 113.464, 85.148 117, 82.943 117 C 81.651 117, 81 117.687, 81 119.050 C 81 120.669, 81.350 120.904, 82.666 120.167 C 83.582 119.654, 85.571 119.590, 87.084 120.024 C 88.598 120.458, 93.361 120.634, 97.669 120.415 C 117.497 119.407, 122.976 119.618, 127 121.547 C 130.309 123.132, 132.585 122.085, 132.538 119 C 132.501 116.536, 132.342 116.489, 121.500 115.711 C 112.179 115.043, 110.233 114.607, 108.750 112.851 C 107.787 111.711, 107 109.946, 107 108.928 C 107 106.382, 111.046 102.783, 112.965 103.622 C 115.303 104.644, 126.621 105.312, 129.474 104.596 C 134.285 103.388, 132.375 101.243, 125.750 100.412 C 122.313 99.981, 119.275 99.659, 119 99.696 C 118.725 99.733, 116.408 100.062, 113.851 100.428 C 109.532 101.045, 109.057 100.889, 107.167 98.235 C 106.048 96.664, 104.829 94.168, 104.458 92.689 L 103.783 90 112.358 90 C 118.334 90, 122.003 89.489, 124.466 88.315 C 128.777 86.259, 128.859 85.598, 125 84 C 123.350 83.317, 122 82.362, 122 81.879 C 122 81.395, 120.853 81, 119.452 81 C 118.050 81, 115.041 80.100, 112.764 79 C 110.487 77.900, 108.087 77, 107.431 77 C 106.382 77, 103.056 84.583, 102.772 87.623 C 102.698 88.414, 101.606 88.474, 99.083 87.826 C 89.955 85.481, 88.519 82.872, 88.865 69.256 C 89.019 63.174, 88.688 59.329, 87.930 58.415 C 86.467 56.653, 82.509 56.722, 78.250 58.584 M 106.749 59.432 C 104.978 60.311, 104.436 61.544, 104.197 65.240 C 104.030 67.820, 104.463 70.960, 105.159 72.216 C 105.855 73.472, 106.354 74.763, 106.268 75.083 C 106.182 75.404, 106.761 75.667, 107.556 75.667 C 108.350 75.667, 109 75.282, 109 74.812 C 109 74.342, 111.306 71.023, 114.124 67.436 C 116.943 63.850, 118.972 60.639, 118.634 60.301 C 117.297 58.963, 108.927 58.352, 106.749 59.432 M 65.500 100 C 65.160 100.550, 63.976 101, 62.870 101 C 61.035 101, 60.997 101.140, 62.438 102.581 C 63.307 103.450, 63.795 104.523, 63.522 104.965 C 63.249 105.406, 64.385 106.331, 66.046 107.019 C 70.273 108.770, 75.228 107.256, 76.015 103.974 C 76.505 101.929, 76.102 101.283, 73.689 100.250 C 70.176 98.745, 66.348 98.628, 65.500 100 M 65.200 116.200 C 64.540 116.860, 64 118.446, 64 119.725 C 64 122.729, 67.876 124.264, 73.388 123.442 C 78.145 122.733, 80 121.480, 80 118.975 C 80 115.690, 67.966 113.434, 65.200 116.200" stroke="none" fill="black" fill-rule="evenodd"/>
</svg>