<svg xmlns="http://www.w3.org/2000/svg" width="256" height="256" viewBox="0 0 256 256" version="1.1">
	<path d="M 43.794 27.249 C 41.470 29.076, 40.710 32.515, 42.334 33.862 C 44.887 35.981, 53.410 37.193, 68.922 37.643 C 80.800 37.987, 84.981 38.466, 87.115 39.727 L 89.886 41.364 87.774 43.196 C 85.741 44.960, 81.920 44.815, 81.193 42.947 C 80.648 41.545, 43.584 41.781, 40.373 43.206 C 35.502 45.368, 30.886 48.795, 32.239 49.245 C 33.619 49.705, 33.765 61.618, 32.495 70.269 C 31.572 76.563, 33.620 80.007, 38.273 79.985 C 45.992 79.950, 48.672 75.667, 46.587 66.698 C 44.558 57.969, 47.611 54.995, 56.534 57.008 C 60.813 57.973, 63.010 60.145, 62.390 62.796 C 62.108 64.001, 63.238 65.086, 66.246 66.500 C 69.683 68.116, 70.519 69.032, 70.601 71.269 C 70.705 74.121, 68.134 77.961, 65.814 78.416 C 65.091 78.557, 62.367 79.022, 59.760 79.449 C 57.153 79.875, 55.267 80.624, 55.569 81.112 C 55.871 81.600, 55.623 82, 55.019 82 C 54.365 82, 54.014 83.608, 54.153 85.967 C 54.336 89.070, 53.684 90.912, 51.155 94.434 C 48.222 98.518, 47.983 99.388, 48.572 103.831 C 49.176 108.381, 49.054 108.774, 46.861 109.387 C 42.290 110.664, 35.918 120.739, 37.340 124.443 C 38.150 126.555, 44.475 127.460, 48.056 125.977 C 52.444 124.159, 54.009 121.414, 53.410 116.587 C 52.907 112.538, 52.963 112.455, 59.416 107.647 C 65.709 102.960, 68.248 99.425, 66.257 98.125 C 65.730 97.781, 64.791 96.534, 64.170 95.354 C 63.165 93.444, 63.403 93.036, 66.334 91.646 C 68.145 90.786, 71.603 89.767, 74.020 89.381 C 79.012 88.582, 83.411 84.919, 82.601 82.233 C 82.314 81.280, 81.884 79.375, 81.647 78 C 81.410 76.625, 80.424 73.700, 79.457 71.500 C 75.177 61.764, 75.117 61.563, 76.143 60.327 C 77.680 58.476, 83.803 56.734, 86.443 57.396 C 89.536 58.173, 89.864 59.303, 90.079 69.897 C 90.295 80.578, 91.988 84.348, 97.022 85.354 C 103.248 86.600, 104.899 85.749, 105.662 80.902 C 105.956 79.031, 106.715 77.169, 107.349 76.765 C 107.989 76.356, 108.051 76.024, 107.487 76.015 C 106.309 75.998, 103.737 66.672, 103.896 63 C 104.093 58.461, 108.927 56.701, 114 59.320 C 116.999 60.869, 116.839 62.731, 113.220 68.390 C 111.775 70.651, 110.493 73.104, 110.371 73.842 C 110.250 74.580, 109.909 75.424, 109.615 75.718 C 108.968 76.365, 111.631 81.805, 113.809 84.287 C 116.099 86.897, 115.998 91.619, 113.691 89.750 C 113.522 89.612, 111.912 90.738, 110.114 92.250 C 108.317 93.763, 105.868 95.209, 104.673 95.464 C 98.101 96.865, 93.639 97.261, 85.821 97.138 C 79.130 97.032, 76.782 97.361, 75.571 98.572 C 72.250 101.893, 73.871 103.952, 82.598 107.499 C 87.596 109.530, 88.608 109.645, 91.374 108.495 C 93.093 107.780, 97.013 106.884, 100.084 106.503 C 106.330 105.729, 109.254 107.311, 108.303 110.950 C 107.773 112.978, 105.170 115.665, 104.096 115.294 C 103.768 115.180, 102.482 115.343, 101.238 115.655 C 99.995 115.967, 96.765 115.499, 94.061 114.615 C 88.311 112.734, 86.569 113.165, 85.129 116.822 C 83.492 120.978, 82.771 139.579, 84.014 145.566 C 85.244 151.493, 86.771 153.250, 90.693 153.250 C 94.786 153.250, 97.211 149.626, 96.486 144.593 C 95.247 135.995, 95.446 129.963, 97 128.956 C 98.295 128.117, 108.803 128.631, 109.877 129.586 C 110.467 130.110, 111.900 137.943, 112.514 144 C 113.476 153.496, 113.971 155.341, 116.190 157.702 C 118.630 160.299, 122.175 160.699, 123.938 158.575 C 124.588 157.792, 125.292 155.268, 125.503 152.967 C 125.922 148.395, 128.301 145, 131.088 145 C 132.065 145, 133.129 145.832, 133.452 146.848 C 133.774 147.865, 135.176 149.215, 136.566 149.848 C 143.493 153.004, 150.022 149.234, 152.468 140.663 C 153.933 135.534, 154.036 121.164, 152.632 117.978 C 151.118 114.543, 147.668 113.502, 137.500 113.409 C 132 113.359, 126.990 113.246, 126.367 113.159 C 124.701 112.925, 124.011 109.236, 125.416 108.070 C 126.095 107.506, 132.638 107.067, 140.350 107.067 C 151.059 107.067, 154.398 106.745, 155.538 105.605 C 157.480 103.663, 157.392 103.075, 154.834 100.856 C 151.595 98.047, 140.605 95.002, 133.645 94.985 C 130.107 94.977, 126.439 94.353, 125 93.516 C 123.625 92.716, 121.238 91.545, 119.695 90.914 L 116.889 89.766 119.046 88.255 C 120.708 87.091, 122.694 86.897, 127.703 87.411 C 134.535 88.111, 137 87.237, 137 84.115 C 137 82.359, 134.168 79.911, 128.817 77.041 C 125.957 75.508, 125.500 74.740, 125.500 71.472 C 125.500 68.197, 125.938 67.466, 128.727 66.091 C 130.902 65.019, 131.962 63.775, 131.977 62.276 C 132.003 59.778, 136.383 57, 140.295 57 C 144.768 57, 148.207 63.939, 144.449 65.381 C 143.311 65.818, 143.012 66.979, 143.326 69.738 C 143.919 74.960, 144.742 76.561, 147.466 77.803 C 152.320 80.014, 156.382 80.124, 158.946 78.114 L 161.393 76.195 160.215 62.471 C 158.902 47.177, 158.929 47.229, 150.845 44.483 C 147.296 43.278, 141.543 42.869, 126.630 42.764 C 111.717 42.659, 106.953 42.321, 106.577 41.340 C 105.796 39.305, 113.459 37.751, 120.920 38.431 C 136.433 39.844, 143.679 39.600, 145.900 37.591 C 148.457 35.277, 148.611 31.845, 146.250 29.777 C 143.449 27.324, 138.022 27.004, 90.443 26.487 C 55.283 26.105, 45.036 26.272, 43.794 27.249 M 59.168 126.750 C 58.577 128.262, 57.626 131.333, 57.056 133.574 C 56.088 137.374, 53.866 140.099, 44.856 148.543 C 41.015 152.142, 40.289 156.005, 43.034 158.229 C 45.980 160.614, 49.739 160.451, 54.210 157.744 C 57.608 155.686, 63 149.634, 63 147.876 C 63 147.472, 64.833 144.382, 67.073 141.010 C 69.313 137.637, 71.392 133.357, 71.694 131.498 C 72.184 128.477, 71.884 127.900, 68.871 126.063 C 64.005 123.096, 60.499 123.345, 59.168 126.750 M 124.143 127.890 C 123.197 128.490, 123.122 128.957, 123.893 129.434 C 124.502 129.810, 125 131.485, 125 133.155 C 125 137.984, 127.898 142, 131.382 142 C 133.005 142, 134.067 141.734, 133.742 141.409 C 133.417 141.084, 134.692 139.321, 136.576 137.492 C 141.128 133.071, 141.056 130.929, 136.264 128.250 C 133.716 126.826, 126.176 126.603, 124.143 127.890" stroke="none" fill="black" fill-rule="evenodd"/>
</svg>