<svg xmlns="http://www.w3.org/2000/svg" width="256" height="256" viewBox="0 0 256 256" version="1.1">
	<path d="M 78.500 36.696 C 74.100 37.458, 68.150 37.871, 65.279 37.616 C 62.407 37.360, 55.943 37.536, 50.915 38.008 C 43.558 38.698, 41.306 39.303, 39.386 41.107 C 36.396 43.916, 36.394 45.082, 39.373 47.880 C 41.714 50.080, 42.003 50.101, 61.395 49.443 C 86.357 48.596, 89.098 49.441, 86.923 57.317 C 85.714 61.694, 83.803 63.285, 79.723 63.309 C 72.762 63.351, 53.755 66.075, 51.199 67.397 C 47.578 69.270, 45.427 71.875, 44.508 75.500 C 44.090 77.150, 43.813 90.425, 43.892 105 C 44 124.773, 44.409 132.896, 45.506 137 C 46.315 140.025, 46.982 144.601, 46.988 147.169 C 46.999 151.550, 49.544 157.980, 51.271 157.994 C 51.696 157.997, 53.825 156.821, 56.003 155.379 L 59.964 152.758 81.232 153.064 C 92.929 153.233, 105.650 153.177, 109.500 152.941 C 125.422 151.962, 134.523 152.424, 138.181 154.396 C 142.660 156.811, 146.359 155.995, 147.853 152.263 C 148.495 150.659, 149.426 135.243, 150.073 115.500 C 151.365 76.074, 151.373 76.802, 149.595 72.664 C 148.420 69.930, 144.562 65, 143.598 65 C 143.419 65, 140.849 64.531, 137.886 63.957 C 134.924 63.383, 126.176 62.935, 118.447 62.961 C 102.332 63.015, 100.326 62.345, 101.438 57.281 C 102.938 50.451, 107.626 49.091, 130.298 48.910 C 149.574 48.756, 154.751 48.061, 156.723 45.364 C 158.592 42.808, 158.305 41.214, 155.464 38.373 C 152.997 35.906, 152.584 35.842, 140.214 35.988 C 133.221 36.071, 118.275 35.952, 107 35.725 C 92.378 35.430, 84.206 35.709, 78.500 36.696 M 64.500 76.681 C 60.460 77.729, 58 81.091, 58.105 85.421 C 58.160 87.665, 57.867 97.054, 57.453 106.287 C 56.883 119.021, 57.004 123.639, 57.953 125.412 C 58.888 127.159, 58.924 128.273, 58.097 129.818 C 56.598 132.620, 58.578 136.892, 61.671 137.524 C 62.952 137.786, 65.016 138.206, 66.258 138.458 C 69.184 139.052, 70.310 138.262, 72.610 134 C 74.324 130.826, 74.500 128.095, 74.500 104.665 C 74.500 87.163, 74.147 78.537, 73.405 77.921 C 71.957 76.719, 67.008 76.030, 64.500 76.681 M 121.283 77.632 C 117.362 79.565, 116.646 81.550, 117.635 87.737 C 118.054 90.357, 118.261 92.950, 118.094 93.500 C 117.928 94.050, 117.854 103.175, 117.930 113.779 C 118.067 132.775, 118.740 137.303, 121.591 138.397 C 123.655 139.188, 135.367 137.021, 136.208 135.692 C 136.622 135.036, 136.690 124.375, 136.359 112 C 135.587 83.166, 135.584 83.895, 136.476 81.248 C 137.126 79.317, 136.723 78.782, 133.649 77.498 C 129.082 75.590, 125.342 75.630, 121.283 77.632 M 91.500 78.668 C 84.692 80.150, 83.088 83.977, 87.623 87.920 C 89.524 89.573, 91.013 90.047, 93.031 89.644 C 94.563 89.337, 97.095 89.432, 98.658 89.853 C 102.609 90.919, 104.779 90.246, 105.645 87.686 C 108.046 80.581, 101.597 76.469, 91.500 78.668 M 94.030 102.745 C 87.705 103.178, 85.844 104.344, 86.279 107.598 C 86.709 110.806, 86.896 110.920, 95 112.934 C 102.106 114.700, 102.204 114.697, 104.092 112.671 C 106.231 110.375, 106.630 105.030, 104.800 103.200 C 104.140 102.540, 102.677 102.083, 101.550 102.185 C 100.422 102.287, 97.039 102.539, 94.030 102.745 M 94.500 124.696 C 92.282 124.942, 89.455 126.112, 88.155 127.320 C 86.201 129.136, 85.890 130.218, 86.288 133.799 C 86.550 136.164, 87.018 138.351, 87.327 138.660 C 88.076 139.410, 100.031 139.956, 102.261 139.343 C 105.768 138.378, 108.349 129.675, 106.154 126.215 C 105.203 124.716, 100.192 124.063, 94.500 124.696" stroke="none" fill="black" fill-rule="evenodd"/>
</svg>