<svg xmlns="http://www.w3.org/2000/svg" width="256" height="256" viewBox="0 0 256 256" version="1.1">
	<path d="M 115 25.284 C 114.725 25.552, 99.553 26.053, 81.284 26.397 C 63.015 26.742, 46.988 27.434, 45.670 27.935 C 41.127 29.663, 41.247 34.547, 45.860 35.647 C 47.312 35.993, 49.133 36.776, 49.906 37.388 C 50.806 38.101, 57.355 38.514, 68.143 38.538 C 85.339 38.576, 89.065 39.335, 86.186 42.214 C 85.307 43.093, 84.216 43.149, 82.236 42.420 C 78.263 40.955, 47.443 41.403, 42.266 43.001 C 35.550 45.073, 34.630 46.734, 34.347 57.303 C 34.212 62.361, 34.037 68.246, 33.959 70.380 C 33.745 76.201, 36.534 78.595, 42.146 77.406 C 48.343 76.094, 49.983 72.881, 47.855 66.227 C 46.525 62.068, 46.488 60.917, 47.611 58.773 C 48.342 57.378, 49.617 55.977, 50.445 55.659 C 54.020 54.288, 62.949 60.677, 60.003 62.498 C 58.022 63.722, 59.090 64.897, 64.661 67.623 C 67.775 69.146, 69.800 70.567, 69.161 70.780 C 67.385 71.372, 67.780 73, 69.700 73 C 70.828 73, 71.065 73.335, 70.404 73.996 C 69.540 74.860, 67.314 75.316, 61 75.920 C 57.785 76.228, 55.588 78.947, 55.816 82.336 C 56.060 85.960, 54.205 88.250, 50 89.517 C 48.625 89.931, 47.214 90.715, 46.864 91.259 C 46.040 92.542, 49.913 97, 51.852 97 C 52.672 97, 54.165 97.745, 55.171 98.655 C 56.177 99.565, 57 99.865, 57 99.322 C 57 98.192, 57.355 98.109, 65.459 97.349 C 70.849 96.844, 71.291 96.944, 70.087 98.395 C 69.354 99.278, 68.135 100, 67.378 100 C 66.620 100, 65.993 100.563, 65.985 101.250 C 65.973 102.170, 65.742 102.142, 65.110 101.143 C 64.619 100.369, 63.997 100.196, 63.661 100.740 C 63.337 101.265, 61.615 101.735, 59.834 101.786 C 55.561 101.907, 52.528 103.622, 50.860 106.860 C 50.112 108.312, 48.937 110.095, 48.250 110.821 C 47.562 111.548, 47 112.561, 47 113.071 C 47 113.582, 46.178 114, 45.174 114 C 44.170 114, 42.315 115.100, 41.052 116.445 C 38.085 119.602, 38.864 123.055, 43.246 126.175 L 46.487 128.483 43.534 128.994 C 36.081 130.285, 29.972 152, 37.062 152 C 40.413 152, 48.468 143.577, 51.431 136.974 C 53.571 132.206, 54.365 131.245, 55.311 132.278 C 59.257 136.590, 59.872 141.099, 57.660 149.500 C 55.447 157.903, 58.850 164.079, 64.535 161.976 C 67.898 160.732, 68.925 158.685, 70.386 150.314 C 71.154 145.919, 72.506 140.923, 73.391 139.211 C 75.630 134.881, 75.414 133.088, 72.335 130.443 C 69.749 128.221, 69.720 128.076, 71.358 125.576 C 72.286 124.159, 73.720 123, 74.543 123 C 77.120 123, 84.203 128.028, 83.651 129.466 C 83.357 130.234, 83.986 131.025, 85.130 131.324 C 86.566 131.699, 88.360 130.571, 91.561 127.277 C 94.002 124.765, 96 122.325, 96 121.855 C 96 120.102, 100.246 121.080, 102.056 123.250 C 104.704 126.423, 104.446 128.305, 101.094 130.285 C 96.880 132.775, 98.026 135.565, 104.526 138.643 C 111.083 141.747, 111.143 144.449, 104.675 145.317 C 100.033 145.939, 97 148.822, 97 152.611 C 97 155.938, 100.388 159, 104.070 159 C 107.893 159, 115.115 154.160, 117.852 149.764 C 118.969 147.969, 120.801 145.725, 121.921 144.778 C 123.042 143.830, 123.715 142.421, 123.418 141.647 C 122.753 139.914, 127.743 138, 132.927 138 C 140.039 138, 144.202 144.138, 138.012 145.497 C 134.992 146.161, 129.223 152.217, 131.025 152.833 C 131.561 153.017, 132 153.932, 132 154.868 C 132 157.056, 136.984 160.004, 140.654 159.986 C 144.357 159.968, 151.516 153.572, 152.393 149.500 C 153.651 143.655, 153.928 131.618, 152.834 130.300 C 152.241 129.585, 150.760 129, 149.544 129 C 145.636 129, 147.111 126.229, 151.705 124.943 C 159.038 122.889, 161.497 117.569, 156.995 113.495 C 155.072 111.756, 146 108.656, 146 109.739 C 146 110.926, 143.064 106.515, 143.032 105.279 C 143.014 104.608, 145.489 102.920, 148.532 101.528 C 157.017 97.647, 157.164 93.614, 148.908 91.223 C 146.484 90.521, 142.250 89.269, 139.500 88.442 C 136.750 87.614, 133.262 86.853, 131.750 86.750 C 128.904 86.557, 127.819 85, 130.531 85 C 131.374 85, 132.353 84.213, 132.708 83.250 C 133.064 82.287, 133.756 81.229, 134.248 80.897 C 134.739 80.566, 133.555 79.542, 131.617 78.623 C 124.342 75.170, 123.646 71.389, 129.478 67 C 132.042 65.070, 132.595 64.116, 131.900 62.816 C 130.229 59.688, 130.884 56.995, 133.565 55.975 C 137.863 54.341, 142.104 54.814, 144.133 57.153 C 146.314 59.668, 146.355 60.083, 144.902 64.932 C 143.472 69.706, 145.708 75.558, 149.517 77.006 C 153.989 78.707, 157.818 78.218, 159.358 75.750 C 161.441 72.413, 162.180 68.205, 161.054 66.100 C 160.506 65.078, 159.892 60.606, 159.688 56.164 C 159.058 42.426, 157.552 41.741, 127.081 41.311 C 114.750 41.137, 104.471 40.804, 104.238 40.571 C 103.539 39.873, 109.758 36.992, 112.217 36.874 C 116.539 36.668, 134.505 38.193, 137.892 39.055 C 140.950 39.832, 141.613 39.587, 144.642 36.558 C 146.489 34.711, 148 32.705, 148 32.100 C 148 29.840, 144.125 27.248, 139.884 26.671 C 132.863 25.717, 115.547 24.751, 115 25.284 M 78.250 56.347 C 76.305 56.985, 75 58.085, 75 59.085 C 75 62.210, 77.859 67.493, 80.875 69.941 C 82.529 71.283, 83.657 72.745, 83.382 73.191 C 83.107 73.636, 83.584 74, 84.441 74 C 85.298 74, 85.916 73.662, 85.814 73.250 C 85.712 72.838, 86.387 70.758, 87.314 68.628 C 89.526 63.547, 89.469 58.734, 87.171 56.655 C 85.148 54.824, 83.108 54.754, 78.250 56.347 M 105.713 57.430 C 103.240 59.903, 102.898 62.210, 104.293 67.029 C 106.059 73.126, 107.994 73.139, 112.438 67.084 C 115.940 62.314, 117.927 57.059, 116.270 56.949 C 115.846 56.921, 113.654 56.662, 111.398 56.373 C 108.446 55.995, 106.851 56.291, 105.713 57.430 M 106.427 73.882 C 106.993 74.797, 103.690 79.586, 101.023 81.718 C 98.085 84.068, 92.616 83.252, 89.500 80 C 86.957 77.346, 82.029 75.620, 83.420 77.871 C 84.090 78.954, 81.230 82.299, 78.316 83.843 C 77.114 84.479, 74.527 85, 72.566 85 C 70.605 85, 69 85.483, 69 86.074 C 69 86.712, 70.930 87.082, 73.750 86.985 C 80.569 86.751, 80.506 86.734, 83.706 89.750 C 87.006 92.860, 87.629 97.547, 85.069 100.011 C 82.953 102.048, 81 105.636, 81 107.486 C 81 108.319, 80.489 109, 79.865 109 C 79.241 109, 79.874 109.900, 81.273 111 C 82.671 112.100, 84.771 113, 85.940 113 C 87.108 113, 89.680 113.675, 91.654 114.500 C 97.285 116.853, 99.741 116.484, 105.849 112.370 C 106.041 112.241, 104.985 109.906, 103.502 107.181 C 100.301 101.300, 100.492 95.827, 103.991 93.165 C 105.195 92.249, 107.476 90.459, 109.060 89.186 C 111.274 87.408, 113.855 86.688, 120.220 86.073 C 126.098 85.505, 127.146 85.233, 123.832 85.136 C 118.133 84.970, 116 84.223, 116 82.393 C 116 81.627, 115.530 81, 114.955 81 C 113.349 81, 109 76.285, 109 74.545 C 109 73.695, 108.298 73, 107.441 73 C 106.584 73, 106.127 73.397, 106.427 73.882 M 119.100 100.871 L 116.701 101.543 119.398 102.771 C 122.818 104.330, 126.521 104.338, 129.316 102.791 C 131.457 101.607, 131.441 101.570, 128.500 100.910 C 124.645 100.045, 122.090 100.034, 119.100 100.871 M 72.445 113.911 C 73.065 114.915, 75.546 114.787, 76.638 113.696 C 77.020 113.313, 76.107 113, 74.608 113 C 73.109 113, 72.135 113.410, 72.445 113.911 M 128.750 119.217 C 127.787 120.421, 127 121.733, 127 122.131 C 127 123.846, 132.540 127, 135.553 127 C 142.271 127, 142.415 126.051, 136.404 121.384 C 133.300 118.973, 130.701 117.006, 130.630 117.013 C 130.558 117.021, 129.713 118.012, 128.750 119.217 M 109 125.969 C 109 126.501, 109.675 126.678, 110.500 126.362 C 111.325 126.045, 112 125.609, 112 125.393 C 112 125.177, 111.325 125, 110.500 125 C 109.675 125, 109 125.436, 109 125.969" stroke="none" fill="black" fill-rule="evenodd"/>
</svg>