<svg xmlns="http://www.w3.org/2000/svg" width="256" height="256" viewBox="0 0 256 256" version="1.1">
	<path d="M 79.776 26.885 C 48.125 27.480, 46.983 27.570, 44.922 29.632 C 41.948 32.608, 43.139 35.419, 48.288 37.583 C 51.719 39.025, 55.595 39.367, 69.200 39.427 C 87.083 39.505, 90.169 40.260, 86.717 43.712 C 85.262 45.166, 84.540 45.236, 81.668 44.197 C 77.264 42.605, 44.377 44.383, 38.466 46.533 L 34.432 48 34.283 55.750 C 34.201 60.013, 33.875 66.277, 33.559 69.671 C 33.107 74.518, 33.323 76.180, 34.563 77.421 C 36.727 79.584, 41.837 79.397, 45.750 77.011 C 48.497 75.336, 49 74.442, 49 71.237 C 49 69.151, 48.296 66.440, 47.436 65.212 C 44.387 60.859, 48.865 56.153, 54.812 57.459 C 58.826 58.340, 60.442 60.305, 59.147 62.726 C 58.117 64.650, 58.795 65.151, 66.119 67.876 C 69.093 68.983, 70.450 73.306, 68.702 76.105 C 68.103 77.065, 66.012 78.133, 64.056 78.478 C 57.648 79.611, 57.235 79.887, 57.489 82.875 C 57.621 84.425, 58.198 86.531, 58.771 87.555 C 59.901 89.575, 59.266 99.932, 57.922 101.401 C 57.469 101.897, 54.369 102.220, 51.034 102.120 C 45.776 101.963, 44.641 102.268, 42.485 104.424 C 37.426 109.483, 40.580 115, 48.531 115 C 58.454 115, 57.859 120.544, 47.197 127.441 C 41.002 131.449, 39.964 132.622, 36.304 139.761 C 32.876 146.446, 32.355 148.251, 32.893 151.576 C 34.053 158.751, 40.368 156.592, 48.144 146.362 C 52.985 139.993, 54.506 139.187, 57.519 141.390 C 59.167 142.596, 59.559 144.266, 59.849 151.337 C 60.243 160.927, 61.951 164, 66.884 164 C 71.906 164, 73.106 161.406, 72.915 150.954 C 72.706 139.491, 73.281 138.821, 82.584 139.690 C 87.437 140.143, 89.485 139.912, 91.332 138.702 C 96.412 135.374, 94.622 129.021, 87.166 123.911 C 84.648 122.186, 82.366 121.571, 78.482 121.571 C 72.922 121.571, 70.402 119.723, 71.623 116.540 C 72.234 114.947, 73.854 114.720, 82.724 114.986 C 87.097 115.117, 88.360 114.731, 90.474 112.617 C 93.808 109.283, 93.662 106.508, 89.957 102.803 C 87.137 99.983, 86.531 99.801, 81.707 100.329 C 78.843 100.642, 75.334 101.185, 73.908 101.536 C 70.997 102.251, 67.530 99.666, 68.391 97.422 C 68.670 96.696, 68.192 94.687, 67.329 92.957 C 65.193 88.676, 66.630 87.463, 75.416 86.130 C 79.220 85.553, 82.633 84.594, 83.001 83.998 C 83.369 83.403, 83.265 80.797, 82.770 78.208 C 82.276 75.619, 81.624 71.779, 81.323 69.676 C 80.997 67.398, 80.113 65.619, 79.138 65.277 C 76.786 64.452, 73 60.860, 73 59.455 C 73 58.733, 75.412 57.985, 79.085 57.570 C 86.067 56.780, 90.769 58.711, 89.444 61.824 C 88.697 63.579, 88.440 78.411, 89.111 80.996 C 89.782 83.577, 92.351 84.935, 96.628 84.968 C 101.160 85.003, 101.970 84.306, 103.859 78.742 C 105.835 72.923, 106.062 67.020, 104.430 63.865 C 103.078 61.251, 103.130 60.870, 105.099 58.901 C 106.873 57.127, 108.071 56.848, 112.223 57.247 C 114.967 57.511, 117.592 58.341, 118.056 59.091 C 119.115 60.804, 116.879 63.393, 112.928 65.030 C 111.317 65.697, 109.963 66.526, 109.919 66.871 C 108.920 74.596, 111.840 78.410, 122.700 83.563 C 132.530 88.227, 137 88.580, 137 84.691 C 137 81.766, 135.566 80.064, 130.250 76.678 C 127.756 75.090, 126 73.207, 126 72.121 C 126 69.744, 129.713 65, 131.573 65 C 133.318 65, 133.349 64.532, 131.770 62.003 C 129.835 58.906, 132.786 56.665, 138.918 56.574 C 142.797 56.516, 144.249 56.947, 145.424 58.500 C 147.386 61.094, 147.390 63.432, 145.436 65.053 C 141.978 67.923, 146.922 76.297, 153.182 78.173 C 157.060 79.334, 157.376 79.265, 159.518 76.774 C 161.648 74.297, 161.747 73.501, 161.312 62.326 C 160.787 48.852, 159.890 46.648, 154.259 44.997 C 149.077 43.478, 123.756 41.829, 116.778 42.556 C 107.707 43.501, 103.630 41.267, 110.367 39.044 C 112.586 38.312, 118.855 38.135, 128.743 38.525 C 143.527 39.109, 143.793 39.082, 146.527 36.730 C 148.771 34.800, 149.173 33.825, 148.623 31.636 C 148.205 29.967, 146.901 28.528, 145.222 27.882 C 141.575 26.478, 119.399 26.140, 79.776 26.885 M 103.980 93.017 C 101.747 94.954, 101.693 95.461, 101.533 116.249 C 101.416 131.355, 101.750 138.777, 102.686 141.915 C 103.411 144.343, 103.931 148.240, 103.843 150.575 C 103.471 160.421, 107.860 163.719, 116.343 159.966 C 120.692 158.042, 122.178 157.923, 133.798 158.565 C 140.784 158.951, 147.400 159.599, 148.500 160.006 C 151.393 161.075, 154.879 159.448, 155.997 156.507 C 156.530 155.107, 156.696 151.382, 156.366 148.231 C 156.037 145.079, 156.248 140.760, 156.835 138.633 C 157.594 135.887, 157.590 131.477, 156.823 123.411 C 156.103 115.837, 156.070 110.766, 156.725 108.186 C 157.962 103.312, 155.700 98.399, 150.333 94.304 L 146.658 91.500 126.461 91.268 C 107.581 91.052, 106.115 91.166, 103.980 93.017 M 131 103.071 C 129.625 103.460, 126.235 103.553, 123.466 103.277 C 118.048 102.737, 115.190 104.447, 116.370 107.522 C 116.826 108.709, 118.425 109.044, 123.232 108.959 C 126.679 108.898, 131.186 109.156, 133.247 109.533 C 140.629 110.883, 144.654 107.941, 139.750 104.779 C 136.630 102.768, 133.934 102.242, 131 103.071 M 133.502 121.831 C 133.269 122.065, 129.797 122.390, 125.789 122.553 C 121.780 122.717, 118.162 122.884, 117.750 122.925 C 117.338 122.966, 117 123.675, 117 124.500 C 117 125.579, 118.192 126.033, 121.250 126.118 C 123.588 126.184, 126.127 126.149, 126.894 126.042 C 127.660 125.934, 128.608 126.365, 128.999 126.999 C 129.391 127.633, 131.598 128.405, 133.903 128.714 C 137.287 129.168, 138.458 128.885, 139.986 127.245 C 141.619 125.493, 141.692 124.961, 140.520 123.357 C 139.318 121.714, 134.638 120.696, 133.502 121.831 M 124.711 139.916 C 117.049 140.490, 115.055 141.485, 115.015 144.750 C 114.996 146.302, 114.327 146.126, 122.029 146.587 C 125.619 146.802, 130.765 147.390, 133.463 147.894 C 138.127 148.765, 142.266 148.097, 143.256 146.312 C 143.504 145.865, 143.310 144.037, 142.825 142.250 C 141.836 138.608, 141.950 138.622, 124.711 139.916" stroke="none" fill="black" fill-rule="evenodd"/>
</svg>