<svg xmlns="http://www.w3.org/2000/svg" width="256" height="256" viewBox="0 0 256 256" version="1.1">
	<path d="M 52 32.609 C 48.347 35.203, 48.032 35.944, 48.014 42 C 48.005 45.025, 47.370 51.100, 46.604 55.500 C 45.824 59.981, 45.495 65.480, 45.856 68 C 46.210 70.475, 46.500 82.400, 46.500 94.500 L 46.500 116.500 40.680 133.500 C 37.479 142.850, 34.779 152.525, 34.680 155 L 34.500 159.500 38.444 159.369 C 41.656 159.262, 43.066 158.512, 46.035 155.329 C 49.240 151.892, 49.765 150.596, 50.379 144.605 C 50.826 140.241, 52.097 135.760, 53.913 132.145 C 55.473 129.040, 57.242 124.182, 57.843 121.349 C 58.749 117.081, 59.347 91.806, 58.810 80.500 C 58.732 78.850, 59.022 70.852, 59.456 62.727 C 60.220 48.410, 60.325 47.889, 62.861 45.895 C 64.819 44.354, 66.486 43.947, 69.489 44.274 C 84.527 45.916, 95.392 47.191, 101 47.972 C 104.575 48.470, 112.100 48.618, 117.723 48.302 L 127.946 47.727 128.988 50.467 C 129.609 52.103, 129.768 56.339, 129.382 60.973 C 128.885 66.930, 129.113 69.758, 130.359 73.119 C 131.485 76.155, 132.126 82.106, 132.446 92.500 C 132.700 100.750, 133.123 108.485, 133.385 109.690 C 133.647 110.894, 133.962 115.169, 134.084 119.190 C 134.206 123.210, 134.660 127.400, 135.091 128.500 C 135.523 129.600, 136.817 133.650, 137.968 137.500 C 139.480 142.559, 141.148 145.654, 143.982 148.659 C 152.187 157.362, 156.409 158.310, 160.132 152.286 C 161.394 150.244, 163.231 147.769, 164.214 146.786 C 166.601 144.399, 166.473 139.871, 163.927 136.635 C 162.192 134.429, 161.057 134, 156.953 134 C 151.125 134, 150.408 133.016, 147.119 120.500 C 145.205 113.219, 144.985 109.216, 144.667 75.957 C 144.351 43.016, 144.142 39.146, 142.543 36.707 C 141.568 35.218, 139.809 33.929, 138.635 33.842 C 137.461 33.755, 134.700 33.536, 132.500 33.355 C 126.841 32.890, 108.520 32.244, 79.500 31.487 C 56.536 30.887, 54.296 30.979, 52 32.609 M 73.500 54.798 C 69.315 57.418, 67.793 59.518, 68.173 62.144 C 68.615 65.195, 73.655 67.942, 80.153 68.673 C 86.583 69.397, 87.672 70.152, 88.948 74.774 C 89.761 77.719, 89.635 78.555, 88.215 79.634 C 87.272 80.350, 86.950 80.958, 87.500 80.984 C 88.050 81.009, 87.825 81.466, 87 81.999 C 86.175 82.531, 84.034 82.699, 82.243 82.371 C 74.448 80.944, 65.890 84.313, 66.671 88.500 C 66.876 89.600, 67.274 94.325, 67.556 99 C 68.461 113.998, 68.861 115.768, 71.807 117.827 C 76.061 120.799, 79.234 121.159, 83.066 119.104 L 86.500 117.261 88.216 120.881 C 89.160 122.871, 89.944 126.525, 89.958 129 C 89.991 134.616, 88.322 135.573, 77.900 135.909 C 70.713 136.142, 66.207 137.792, 62.250 141.641 C 60.471 143.372, 60.704 147.561, 62.689 149.546 C 64.096 150.954, 65.638 151.135, 71.939 150.635 C 76.098 150.305, 81.975 149.555, 85 148.968 C 94.811 147.066, 116.821 146.832, 122.834 148.566 C 126.731 149.690, 128.523 149.811, 129.484 149.013 C 131.147 147.633, 131.126 141.957, 129.432 135.500 C 128.711 132.750, 127.859 128.381, 127.538 125.791 C 127.217 123.202, 126.628 119.152, 126.228 116.791 C 125.827 114.431, 125.725 107.670, 126 101.766 C 126.275 95.862, 126.266 90.061, 125.980 88.874 C 125.109 85.254, 119.462 83, 111.266 83 C 102.792 83, 99.595 81.020, 100.450 76.303 C 101.243 71.930, 103.125 70.969, 112.871 69.961 C 123.367 68.875, 128.269 66.933, 127.310 64.242 C 126.215 61.169, 124.601 59.720, 120.007 57.683 C 116.433 56.099, 112.137 55.535, 99.007 54.927 C 89.928 54.506, 81.150 53.883, 79.500 53.541 C 77.436 53.113, 75.564 53.505, 73.500 54.798 M 81.982 95.750 C 80.404 97.756, 79.961 99.370, 80.342 101.722 C 80.974 105.616, 83.936 109.925, 86.009 109.969 C 89.803 110.048, 91.779 101.318, 89.181 95.955 C 87.388 92.252, 84.792 92.178, 81.982 95.750 M 104.803 96.402 C 102.744 97.908, 102.168 101.293, 103.665 103.096 C 104.306 103.868, 104.868 104.950, 104.915 105.500 C 104.962 106.050, 106.237 106.500, 107.750 106.500 C 109.287 106.500, 110.404 105.991, 110.282 105.346 C 110.162 104.711, 110.699 103.664, 111.476 103.020 C 114.738 100.313, 108.252 93.880, 104.803 96.402 M 107 120.729 C 105.038 121.476, 104.216 122.764, 103.029 126.949 C 102.205 129.856, 102.355 130.682, 103.984 132.199 C 105.076 133.217, 107.427 134, 109.391 134 C 113.728 134, 114.158 132.814, 113.081 123.821 C 112.964 122.845, 109.982 119.985, 109.179 120.079 C 108.805 120.122, 107.825 120.415, 107 120.729" stroke="none" fill="black" fill-rule="evenodd"/>
</svg>