<svg xmlns="http://www.w3.org/2000/svg" width="256" height="256" viewBox="0 0 256 256" version="1.1">
	<path d="M 57.861 29.913 C 55.828 31.559, 55.533 32.594, 55.735 37.352 C 55.944 42.265, 55.679 43.107, 53.350 44.939 C 51.341 46.519, 49.277 47, 44.500 47 C 34.317 47, 30.428 51.837, 34.740 59.137 C 37.021 62.998, 39.560 63.512, 45.983 61.411 C 53.003 59.115, 54.420 60.033, 54.759 67.104 C 54.902 70.072, 54.661 73.045, 54.225 73.710 C 53.788 74.376, 51.422 75.119, 48.966 75.362 C 42.784 75.973, 39.393 77.471, 37.440 80.451 C 34.443 85.025, 37.605 94, 42.213 94 C 43.259 94, 46.070 92.909, 48.459 91.575 C 52.395 89.378, 53.829 89.168, 63.743 89.338 C 73.669 89.508, 75.047 89.766, 78.594 92.113 C 84.019 95.703, 86.524 94.511, 88.046 87.616 C 90.108 78.272, 86.477 74.337, 76.958 75.600 C 72.693 76.166, 71.861 75.952, 69.621 73.712 C 67.504 71.594, 67.190 70.566, 67.683 67.343 C 68.689 60.762, 70.286 59.779, 79.354 60.165 C 86.936 60.487, 87.324 60.394, 89.282 57.797 C 90.543 56.125, 91.355 53.455, 91.410 50.797 L 91.500 46.500 83 46.363 C 70.980 46.170, 71.289 46.227, 69.014 43.784 C 67.236 41.876, 67.039 40.779, 67.593 35.883 C 68.167 30.811, 68.014 30.078, 66.184 29.098 C 63.180 27.491, 60.530 27.750, 57.861 29.913 M 103.500 34.201 C 99.465 36.364, 97 39.375, 97 42.139 C 97 45.919, 99.420 47, 107.878 47 C 113.987 47, 115.086 47.285, 116.443 49.223 C 117.299 50.445, 118 52.166, 118 53.048 C 118 55.097, 114.404 58.320, 110.322 59.930 C 108.575 60.619, 106.485 61.929, 105.679 62.841 C 103.340 65.489, 100.034 80.776, 100.131 88.500 C 100.179 92.350, 100.124 97.984, 100.009 101.019 C 99.893 104.055, 100.321 108.480, 100.960 110.853 C 101.599 113.226, 101.825 116.522, 101.461 118.177 C 100.304 123.443, 100.740 127.571, 102.900 131.804 C 104.055 134.068, 105 136.346, 105 136.866 C 105 137.948, 95.492 145, 94.033 145 C 92.663 145, 91 148.443, 91 151.279 C 91 153.758, 93.144 156.215, 96.280 157.328 C 100.134 158.697, 114.339 150.869, 116.019 146.449 C 116.594 144.939, 116.517 142.914, 115.810 140.885 C 114.857 138.150, 114.961 137.502, 116.540 136.347 C 118.943 134.590, 122.441 134.645, 128.818 136.539 C 133.659 137.976, 134.001 138.289, 134.015 141.289 C 134.036 145.671, 134.570 146.291, 142.008 150.569 C 158.757 160.202, 162 160.433, 162 151.991 C 162 149.001, 158.110 145, 155.203 145 C 153.183 145, 144.321 139.280, 143.656 137.547 C 142.928 135.649, 145.744 133.421, 150.734 131.945 C 157.990 129.799, 158.348 128.894, 158.133 113.244 C 158.029 105.685, 157.726 91.400, 157.460 81.500 C 156.907 60.936, 156.772 60.615, 148.207 59.493 C 134.428 57.687, 130.274 55.863, 131.457 52.135 C 132.671 48.309, 135.354 47.099, 144.033 46.461 C 148.690 46.119, 153.775 45.355, 155.334 44.764 C 160.361 42.855, 160.888 36.589, 156.227 34.137 C 153.715 32.816, 105.975 32.874, 103.500 34.201 M 123 70.647 C 116.155 71.133, 113 72.669, 113 75.514 C 113 79.873, 115.621 80.814, 127.888 80.863 C 141.021 80.916, 145.040 79.659, 144.289 75.732 C 144.042 74.439, 142.970 72.838, 141.907 72.174 C 139.679 70.783, 130.978 70.080, 123 70.647 M 115.197 92.335 C 113.349 94.706, 113.196 98.020, 114.843 99.997 C 116.355 101.813, 116.828 101.872, 120.249 100.673 C 122.645 99.833, 125.830 99.593, 129.073 100.009 C 134.145 100.660, 142.439 99.894, 143.672 98.661 C 144.031 98.302, 143.811 96.882, 143.184 95.504 C 142.080 93.080, 141.729 93, 132.265 93 C 126.887 93, 121.051 92.588, 119.296 92.085 C 117.074 91.448, 115.828 91.524, 115.197 92.335 M 42.469 98.224 C 36.452 101.430, 36.259 102.031, 36.672 116.288 C 37.437 142.661, 39.263 152, 43.655 152 C 44.540 152, 46.667 151.157, 48.382 150.127 C 51.635 148.173, 64.695 146.581, 74.731 146.916 C 83.311 147.203, 84.725 145.744, 87.632 133.606 C 88.759 128.901, 88.814 126.543, 87.904 121.915 C 87.060 117.626, 87.054 115.284, 87.882 112.910 C 89.651 107.835, 89.185 103.782, 86.479 100.707 C 84.029 97.922, 84.008 97.918, 79.534 99.437 C 75.993 100.639, 72.349 100.830, 62.273 100.341 C 55.206 99.999, 48.369 99.153, 46.969 98.449 C 45.139 97.528, 43.893 97.466, 42.469 98.224 M 59.186 112.039 C 48.818 113.127, 47.588 114.443, 48.481 123.500 C 48.860 127.350, 49.637 131.063, 50.208 131.750 C 51.347 133.123, 68.654 133.534, 70.600 132.235 C 73.198 130.500, 76.657 118.644, 75.567 115.211 C 75.076 113.663, 68.485 110.570, 66.884 111.136 C 66.673 111.210, 63.209 111.617, 59.186 112.039 M 113.863 112.688 C 111.309 115.657, 111.104 117.487, 113.041 120.054 C 114.850 122.453, 115.056 122.480, 128.687 122.163 C 140.855 121.880, 142.756 121.603, 144.650 119.841 C 145.832 118.740, 146.654 117.088, 146.476 116.170 C 146.298 115.251, 146.119 114.215, 146.077 113.866 C 146.034 113.517, 140.037 113.002, 132.750 112.720 C 125.463 112.439, 118.582 111.909, 117.461 111.543 C 116.104 111.100, 114.899 111.484, 113.863 112.688" stroke="none" fill="black" fill-rule="evenodd"/>
</svg>