<svg xmlns="http://www.w3.org/2000/svg" width="256" height="256" viewBox="0 0 256 256" version="1.1">
	<path d="M 67.500 32.598 C 55.009 34.469, 42.177 38.837, 39.881 42 C 36.989 45.982, 34.854 58.695, 35.478 68.213 C 38.460 113.717, 38.452 110.658, 35.607 120.696 C 34.173 125.754, 33 131.079, 33 132.529 C 33 133.980, 32.076 138.787, 30.946 143.212 C 28.668 152.132, 28.707 155.802, 31.095 157.296 C 34.923 159.691, 42.847 154.326, 43.617 148.818 C 43.873 146.993, 44.529 143.215, 45.076 140.422 C 45.623 137.629, 46.228 133.804, 46.421 131.922 C 46.829 127.926, 48.927 123, 50.220 123 C 50.714 123, 50.840 122.550, 50.500 122 C 49.598 120.540, 51.919 120.776, 53.442 122.299 C 56.279 125.136, 57.686 129.458, 56.919 132.975 C 56.502 134.887, 56.364 136.781, 56.614 137.184 C 56.863 137.588, 57.332 140.749, 57.656 144.209 C 58.814 156.598, 62.932 161.059, 69.475 157.016 C 72.277 155.284, 74.450 155, 84.900 155 C 93.450 155, 98.131 155.446, 100.654 156.500 C 107.136 159.208, 109.196 158.598, 122.750 149.954 C 125.973 147.898, 125.676 143.808, 122.055 140.390 C 119.262 137.754, 119.206 137.544, 120.960 136.315 C 122.261 135.404, 126.174 135.085, 134.155 135.240 C 151.999 135.585, 158.433 133.541, 159.632 127.146 C 159.986 125.259, 159.980 115.343, 159.617 105.108 C 159.255 94.874, 158.741 80.458, 158.474 73.072 C 157.892 56.985, 157.581 56.427, 148.816 55.793 C 144.381 55.472, 142.361 54.847, 141.366 53.485 C 139.515 50.954, 139.642 49.761, 142.039 47.189 C 143.722 45.382, 145.184 45, 150.417 45 C 156.987 45, 158.630 44.140, 159.018 40.500 C 159.393 36.966, 159.045 36.076, 156.683 34.528 C 154.846 33.324, 149.911 32.927, 132.907 32.613 C 109.411 32.179, 107.915 32.438, 103.561 37.695 C 101.294 40.432, 101.092 41.175, 102.153 42.874 C 104.071 45.945, 107.456 47, 115.392 47 C 123.660 47, 126.476 48.672, 124.949 52.675 C 124.228 54.565, 123.407 54.833, 118.658 54.721 C 110.237 54.524, 108.154 57.042, 107.440 68.279 C 106.892 76.896, 106.123 81.061, 104.767 82.744 C 103.682 84.092, 104.068 86.708, 106.082 91.654 C 107.136 94.243, 107.121 95.826, 106 100.500 C 104.849 105.299, 104.848 106.688, 105.992 109.346 C 106.739 111.081, 107.427 115.709, 107.520 119.631 C 107.693 126.900, 109.891 132.380, 114.062 135.934 C 115.606 137.250, 115.385 137.722, 111.390 141.660 C 106.273 146.705, 104.742 147.200, 95.489 146.801 C 86.389 146.408, 86.030 145.147, 92.840 137.500 C 93.383 136.890, 92.807 135.396, 91.365 133.673 C 88.112 129.785, 88.372 128.662, 92.997 126.621 C 96.625 125.021, 96.891 124.656, 95.877 122.679 C 95.262 121.481, 92.934 118.893, 90.702 116.930 L 86.645 113.359 91.073 111.607 C 93.508 110.643, 96.498 109.212, 97.717 108.426 C 101.280 106.130, 99.330 102.914, 92.888 100.463 C 88.401 98.756, 87.447 97.961, 87.184 95.707 C 86.961 93.799, 87.322 93, 88.407 93 C 89.254 93, 91.999 92.003, 94.509 90.784 C 99.475 88.371, 101.013 85.366, 99.173 81.673 C 95.643 74.592, 94.894 71.342, 95.525 65.847 C 96.271 59.344, 94.700 55.895, 90.201 54.161 C 86.086 52.575, 60.557 50.980, 56.751 52.072 C 51.741 53.508, 50 53.237, 50 51.019 C 50 49.753, 50.812 48.890, 52.250 48.627 C 53.487 48.401, 57.200 47.669, 60.500 47.001 C 71.564 44.761, 76.456 44.146, 83.816 44.073 C 95.867 43.953, 97.845 41.397, 90.958 34.845 C 87.271 31.338, 86.458 31.011, 81.708 31.125 C 78.844 31.194, 72.450 31.857, 67.500 32.598 M 64.294 66.015 C 63.080 66.504, 59.930 67.005, 57.294 67.130 C 54.657 67.254, 51.712 67.834, 50.750 68.418 C 48.335 69.885, 48.546 73.687, 51.119 75.064 C 54.143 76.682, 81.532 76.633, 83.492 75.007 C 84.309 74.328, 84.788 73.465, 84.555 73.089 C 84.322 72.713, 84.523 71.772, 85 71 C 85.624 69.990, 84.918 68.949, 82.487 67.298 C 79.807 65.476, 77.799 65.013, 72.803 65.063 C 69.336 65.098, 65.507 65.527, 64.294 66.015 M 122.750 70.572 C 120.726 71.670, 120 72.829, 120 74.961 C 120 79.904, 122.279 81.186, 129.871 80.511 C 139.603 79.645, 145.282 78.944, 145.962 78.523 C 147.295 77.700, 146.923 72.066, 145.438 70.581 C 143.276 68.419, 126.732 68.412, 122.750 70.572 M 49.250 88.496 C 46.578 91.531, 48.330 104, 51.428 104 C 52.967 104, 55.351 99.561, 56.452 94.644 C 57.658 89.255, 52.477 84.831, 49.250 88.496 M 68.018 90.478 C 67.152 91.521, 67.052 93.067, 67.677 95.728 C 68.438 98.966, 68.996 99.543, 71.617 99.801 C 73.467 99.983, 75.178 99.491, 75.958 98.551 C 76.666 97.698, 76.910 97, 76.500 97 C 76.090 97, 76.322 96.318, 77.014 95.483 C 78.063 94.220, 77.791 93.553, 75.386 91.485 C 72.097 88.656, 69.792 88.341, 68.018 90.478 M 138 92.142 C 136.625 92.701, 133.381 92.884, 130.790 92.550 C 124.127 91.690, 121 92.655, 121 95.573 C 121 96.869, 121.808 98.362, 122.795 98.890 C 125.397 100.283, 144.831 100.080, 145.723 98.651 C 147.175 96.327, 146.982 93.706, 145.264 92.402 C 143.182 90.823, 141.405 90.759, 138 92.142 M 50.813 105.683 C 51.534 105.972, 52.397 105.936, 52.729 105.604 C 53.061 105.272, 52.471 105.036, 51.417 105.079 C 50.252 105.127, 50.015 105.364, 50.813 105.683 M 69.366 108.765 C 66.176 110.831, 68.319 119, 72.050 119 C 74.628 119, 76.421 114.655, 74.965 111.935 C 74.396 110.871, 74.283 109.993, 74.715 109.985 C 75.861 109.962, 72.683 108.031, 71.500 108.031 C 70.950 108.031, 69.990 108.361, 69.366 108.765 M 121.522 112.610 C 119.374 114.177, 119.633 117.358, 122.091 119.582 C 123.897 121.217, 125.494 121.431, 133.841 121.159 C 139.153 120.986, 144.585 120.317, 145.912 119.672 C 148.648 118.342, 149.639 114.496, 147.735 112.592 C 146.105 110.962, 123.759 110.978, 121.522 112.610 M 68.979 126.050 C 67.953 128.527, 67.962 129.561, 69.027 131.550 C 70.664 134.609, 72.993 134.636, 75.182 131.621 C 76.768 129.437, 76.754 129.125, 74.946 126.152 C 72.531 122.180, 70.596 122.147, 68.979 126.050 M 141.187 142.040 C 138.687 144.370, 138.610 144.224, 146.294 151.783 C 155.491 160.831, 162 161.721, 162 153.930 C 162 150.094, 159.682 145, 157.937 145 C 157.478 145, 155.889 143.875, 154.405 142.500 C 150.916 139.266, 144.407 139.040, 141.187 142.040 M 69.032 142.939 C 67.908 145.041, 68.568 145.839, 71.975 146.495 C 74.395 146.961, 75.340 145.648, 74.497 142.991 C 73.689 140.446, 70.383 140.415, 69.032 142.939" stroke="none" fill="black" fill-rule="evenodd"/>
</svg>