<svg xmlns="http://www.w3.org/2000/svg" width="256" height="256" viewBox="0 0 256 256" version="1.1">
	<path d="M 60.321 29.189 C 59.123 29.768, 57.615 31.516, 56.970 33.072 C 55.095 37.599, 51.972 39, 43.758 39 C 35.914 39, 32 40.632, 32 43.902 C 32 46.250, 34.431 48.288, 40.250 50.821 C 42.862 51.957, 45 53.154, 45 53.479 C 45 53.804, 44.348 55.067, 43.551 56.285 C 42.754 57.503, 41.652 60.975, 41.101 64 C 40.550 67.025, 38.451 75.575, 36.435 83 C 32.820 96.318, 32.785 96.635, 33.781 106.500 C 34.942 117.999, 33.885 134.937, 31.540 142.409 C 29.504 148.899, 29.522 154.603, 31.582 155.393 C 38.169 157.921, 42.438 154.301, 43.840 145 C 44.379 141.425, 45.571 135.830, 46.489 132.568 C 47.900 127.549, 47.978 125.681, 46.989 120.442 C 45.983 115.111, 46.049 113.806, 47.462 111.073 C 49.605 106.929, 51.388 106.352, 54.137 108.913 C 57.138 111.709, 63.812 111.755, 66.770 109 C 67.950 107.900, 70.285 107, 71.958 107 C 73.631 107, 75 106.550, 75 106 C 75 105.450, 75.870 105, 76.933 105 C 77.996 105, 79.151 104.100, 79.500 103 C 79.849 101.900, 80.607 101, 81.184 101 C 81.761 101, 82.024 100.199, 81.768 99.220 C 81.136 96.805, 83.304 95, 86.836 95 C 90.387 95, 96.190 92.681, 97.952 90.558 C 101.098 86.767, 102.313 89.804, 102.731 102.500 C 102.911 108, 103.028 115.875, 102.991 120 C 102.939 125.685, 103.416 128.459, 104.961 131.461 C 106.082 133.640, 107 135.977, 107 136.654 C 107 139.226, 102.810 144.836, 100.029 145.988 C 98.328 146.693, 96.717 148.374, 96.130 150.058 C 95.258 152.558, 95.494 153.317, 97.966 155.964 C 99.526 157.634, 101.326 159, 101.967 159 C 105.189 159, 117.573 149.843, 118.660 146.658 C 119.064 145.471, 119.419 142.700, 119.448 140.500 C 119.495 136.890, 119.769 136.469, 122.265 136.182 C 123.785 136.007, 127.498 136.377, 130.515 137.003 C 135.858 138.112, 136 138.230, 136 141.528 C 136 144.247, 136.719 145.465, 139.647 147.707 C 141.652 149.243, 144.915 151.901, 146.897 153.612 C 148.879 155.324, 152.737 157.907, 155.471 159.351 L 160.442 161.977 161.625 159.766 C 164.282 154.802, 161.320 146.799, 156.367 145.556 C 154.856 145.177, 151.792 143.460, 149.559 141.740 C 147.327 140.021, 145.315 138.479, 145.090 138.313 C 144.341 137.765, 149.450 133.845, 152.672 132.495 C 158.785 129.936, 159.233 128.141, 158.578 108.801 C 157.070 64.210, 156.846 62.382, 152.785 61.636 C 151.528 61.405, 147.800 60.724, 144.500 60.123 C 140.547 59.403, 137.903 58.305, 136.750 56.904 C 134.489 54.158, 134.536 53.651, 137.354 50.374 C 139.482 47.900, 140.531 47.582, 148.250 47.069 C 160.414 46.259, 163.982 42.578, 158.632 36.359 C 156.106 33.422, 155.400 33.316, 142 33.880 C 138.425 34.031, 129.425 33.841, 122 33.458 L 108.500 32.762 102 36.233 C 96.184 39.340, 94.376 39.780, 84.813 40.415 C 74.837 41.078, 73.988 40.988, 72.063 39.063 C 70.928 37.928, 70 36.080, 70 34.955 C 70 32.651, 65.777 27.964, 63.795 28.068 C 63.083 28.105, 61.520 28.609, 60.321 29.189 M 104.336 48.057 C 96.996 49.013, 83.974 54.771, 81.651 58.088 C 79.555 61.081, 79.557 64.244, 81.659 68.300 C 82.571 70.060, 83.385 73.024, 83.467 74.887 C 83.591 77.680, 84.220 78.576, 87.058 79.995 C 88.951 80.942, 92.389 82.680, 94.698 83.858 C 97.007 85.036, 99.312 86, 99.819 86 C 100.327 86, 101.051 83.638, 101.428 80.750 C 102.449 72.930, 104.954 65.046, 107.100 62.900 C 108.145 61.855, 110.147 61, 111.550 61 C 117.184 61, 122.756 55.997, 122.132 51.500 C 121.517 47.063, 117.670 46.319, 104.336 48.057 M 51.667 52.667 C 49.911 54.422, 51.603 55, 58.500 55 C 65.535 55, 68.028 53.992, 64.418 52.607 C 62.282 51.787, 52.500 51.833, 51.667 52.667 M 62 72.286 C 60.625 72.945, 58.485 74.482, 57.245 75.702 L 54.989 77.920 58.745 78.913 C 65.601 80.726, 67.559 80.805, 70.890 79.404 L 74.193 78.015 72.298 74.758 C 70.180 71.117, 66.353 70.199, 62 72.286 M 122.260 72.336 C 116.586 73.447, 115.056 75.367, 116.980 78.962 C 117.971 80.814, 119.029 81, 128.567 81 C 135.636 81, 140.237 80.510, 142.654 79.500 C 146.051 78.081, 146.166 77.883, 144.791 75.812 C 141.901 71.458, 133.422 70.150, 122.260 72.336 M 50.056 93 C 48.413 94.086, 47.347 97.628, 47.951 99.995 C 48.776 103.227, 51.663 103.739, 54.130 101.091 C 56.109 98.966, 56.728 98.831, 65.411 98.619 C 69.975 98.508, 70.348 98.306, 70.695 95.750 C 70.976 93.682, 70.626 92.957, 69.284 92.826 C 65.064 92.413, 50.748 92.543, 50.056 93 M 115.798 95.275 C 114.901 99.969, 116.647 100.787, 126.994 100.515 C 132.190 100.378, 137.601 100.599, 139.019 101.005 C 142.744 102.074, 146.562 98.918, 145.023 96.043 C 143.833 93.819, 143.025 93.568, 138.500 94.013 C 134.290 94.428, 126.332 94.168, 120.884 93.438 C 116.562 92.859, 116.238 92.976, 115.798 95.275 M 117.797 112.636 C 114.446 113.605, 114.816 119.887, 118.360 122.189 C 118.943 122.567, 124.838 122.642, 131.460 122.355 C 141.722 121.910, 143.822 121.534, 145.679 119.809 C 147.507 118.111, 147.683 117.398, 146.769 115.392 C 145.730 113.113, 145.227 112.999, 136.089 112.989 C 130.815 112.983, 124.925 112.790, 123 112.561 C 121.075 112.332, 118.734 112.366, 117.797 112.636 M 72.937 116.123 C 69.947 117.705, 66.007 119, 64.183 119 C 62.146 119, 59.542 120.010, 57.433 121.619 C 54.578 123.797, 54 124.881, 54 128.060 C 54 130.162, 54.477 132.177, 55.059 132.537 C 56.753 133.584, 66.185 133.215, 67.344 132.056 C 67.925 131.475, 69.847 131, 71.617 131 C 73.386 131, 74.983 130.662, 75.167 130.250 C 75.350 129.838, 77.525 128.409, 80 127.075 C 85.237 124.252, 85.969 123.384, 85.969 120 C 85.969 116.536, 84.852 115.105, 81.367 114.105 C 78.948 113.411, 77.334 113.798, 72.937 116.123 M 79.523 133.751 C 77.682 134.014, 74.922 135.848, 72.290 138.555 C 68.523 142.431, 60.861 147, 58.127 147 C 56.822 147, 53 151.916, 53 153.596 C 53 155.823, 57.213 159, 60.168 159 C 65.068 159, 76.363 154.719, 78.659 151.991 C 79.847 150.581, 83.076 148.370, 85.835 147.077 C 96.543 142.062, 91.777 131.999, 79.523 133.751" stroke="none" fill="black" fill-rule="evenodd"/>
</svg>