<svg xmlns="http://www.w3.org/2000/svg" width="256" height="256" viewBox="0 0 256 256" version="1.1">
	<path d="M 110 33.063 C 106.343 33.418, 101.419 34.724, 98.740 36.051 C 94.389 38.206, 93.616 38.299, 89.740 37.138 C 87.010 36.320, 76.823 35.727, 61.126 35.472 C 34.608 35.042, 32.122 35.444, 29.798 40.544 C 28.893 42.531, 29.007 43.350, 30.403 44.893 C 33.037 47.804, 38.964 48.831, 57.500 49.591 C 69.175 50.070, 75.118 50.713, 76.473 51.644 C 79.564 53.770, 83.553 53.247, 87.111 50.250 C 90.207 47.642, 90.990 47.483, 102.233 47.165 C 115.223 46.798, 117 47.375, 117 51.953 C 117 54.940, 114.848 56.443, 109 57.540 C 107.075 57.901, 104.435 58.872, 103.134 59.697 C 101.001 61.050, 100.832 61.677, 101.415 66.071 C 101.955 70.145, 101.632 71.793, 99.446 76.107 C 97.320 80.303, 96.922 82.225, 97.317 86.384 C 97.585 89.198, 98.323 98.925, 98.957 108 C 99.592 117.075, 100.292 125.400, 100.513 126.500 C 100.735 127.600, 102.510 130.189, 104.458 132.252 C 106.406 134.316, 108 136.592, 108 137.310 C 108 138.028, 106.088 139.451, 103.750 140.473 C 101.412 141.495, 97.789 143.402, 95.697 144.711 C 92.318 146.827, 91.950 147.446, 92.396 150.272 C 93.089 154.672, 95.573 156.278, 100.650 155.611 C 104.681 155.081, 114.752 149.928, 116.235 147.636 C 117.321 145.956, 117.155 140.214, 116 139.500 C 114.349 138.480, 114.855 137.387, 117.547 136.161 C 120.724 134.713, 124.491 134.761, 128.926 136.306 C 131.818 137.314, 132.598 138.280, 133.926 142.500 C 135.263 146.748, 136.139 147.823, 139.749 149.645 C 142.086 150.825, 146.136 153.142, 148.749 154.794 C 151.362 156.446, 154.936 158.098, 156.690 158.465 C 159.503 159.054, 160.041 158.800, 161.242 156.316 C 163.918 150.781, 161.895 147.591, 153.822 144.614 C 151.250 143.666, 147.712 141.639, 145.961 140.110 C 143.066 137.582, 142.900 137.133, 144.129 135.165 C 144.873 133.974, 145.828 133, 146.251 133 C 146.675 133, 149.042 132.050, 151.511 130.890 C 154.810 129.339, 156.199 128.012, 156.750 125.885 C 157.501 122.985, 157.489 112.623, 156.696 80.065 C 156.275 62.757, 156.253 62.614, 153.669 60.391 C 151.903 58.872, 149.205 57.962, 145.283 57.563 C 142.102 57.238, 137.700 56.409, 135.500 55.720 C 131.727 54.538, 131.507 54.253, 131.617 50.700 C 131.681 48.628, 132.031 46.636, 132.394 46.273 C 132.756 45.910, 137.204 45.454, 142.277 45.260 C 154.222 44.802, 155.658 44.452, 157.570 41.533 C 159.455 38.657, 158.731 35.461, 155.844 33.916 C 153.556 32.692, 120.227 32.072, 110 33.063 M 50.898 60.922 C 46.167 61.240, 41.627 62.057, 40.810 62.738 C 38.845 64.375, 37.063 75.433, 37.062 86 C 37.061 93.109, 37.485 95.377, 39.656 99.857 C 41.957 104.606, 42.124 105.642, 41.126 108.973 C 38.938 116.277, 40.193 124.448, 44.150 128.660 C 47.035 131.731, 52.299 131.839, 54.378 128.871 C 55.720 126.955, 55.662 126.229, 53.803 121.621 C 50.055 112.330, 48 106.546, 48 105.290 C 48 101.421, 67.099 99.005, 70.006 102.507 C 72.243 105.203, 68.877 120, 66.026 120 C 64.442 120, 60.991 127.114, 61.507 129.313 C 62.314 132.753, 60.838 133.929, 53.884 135.384 C 44.337 137.382, 38.391 140.977, 35.591 146.447 C 32.545 152.398, 37.308 153.818, 50.746 150.965 C 56.111 149.825, 64.550 148.265, 69.500 147.496 C 82.273 145.512, 90 142.842, 90 140.412 C 90 138.547, 86.650 133.017, 85.500 132.984 C 84.950 132.968, 83.410 132.117, 82.077 131.093 C 79.112 128.814, 78.465 123.524, 80.544 118.550 C 81.345 116.633, 82 112.782, 82 109.992 C 82 106.823, 82.783 103.385, 84.087 100.829 C 87.291 94.550, 87.752 83.855, 85.106 77.213 C 83.948 74.305, 83 69.948, 83 67.530 C 83 62.433, 81.402 61.418, 75.063 62.489 C 72.649 62.897, 69.237 62.554, 65.924 61.570 C 63.016 60.707, 60.381 60.078, 60.068 60.172 C 59.756 60.267, 55.629 60.605, 50.898 60.922 M 114 70.324 C 112.090 71.314, 111.552 72.312, 111.721 74.552 C 112.059 79.018, 114.490 80.269, 121.500 79.583 C 124.800 79.260, 129.047 79.440, 130.937 79.982 C 135.732 81.357, 141.433 79.539, 142.981 76.142 C 144.039 73.821, 143.882 73.295, 141.528 71.270 C 139.121 69.200, 137.902 69.001, 127.694 69.015 C 120.512 69.024, 115.604 69.494, 114 70.324 M 63 74 C 61.625 74.440, 58.700 74.860, 56.500 74.932 C 50.195 75.139, 46.278 79.321, 48.278 83.710 C 49.498 86.389, 52.238 87.325, 57.105 86.727 C 58.972 86.497, 62.374 86.859, 64.664 87.531 C 68.225 88.576, 69.167 88.517, 71.164 87.126 C 72.449 86.232, 73.675 84.825, 73.888 84 C 74.570 81.365, 73.947 75.641, 72.833 74.298 C 71.656 72.880, 66.943 72.737, 63 74 M 113.115 92.365 C 111.713 94.061, 112.979 98.919, 115.122 100.065 C 116.420 100.760, 117.672 100.711, 119.173 99.908 C 121.067 98.894, 126.154 98.730, 135 99.397 C 139.722 99.753, 142.326 98.544, 142.690 95.827 C 142.963 93.790, 142.460 93.034, 140.267 92.182 C 136.528 90.731, 114.343 90.880, 113.115 92.365 M 113.924 112.291 C 111.064 114.484, 110.944 117.811, 113.647 119.937 C 115.875 121.689, 117.308 121.824, 128.804 121.359 C 143.210 120.778, 146 119.907, 146 115.992 C 146 112.683, 142.911 111.133, 138 111.979 C 133.750 112.710, 120.234 112.515, 117.486 111.683 C 116.394 111.352, 114.791 111.625, 113.924 112.291" stroke="none" fill="black" fill-rule="evenodd"/>
</svg>