<svg xmlns="http://www.w3.org/2000/svg" width="256" height="256" viewBox="0 0 256 256" version="1.1">
	<path d="M 63.321 33.978 C 46.885 34.450, 44.871 34.701, 42.321 36.599 C 38.464 39.469, 38.104 43.367, 41.490 45.586 C 43.806 47.103, 47.871 47.319, 77.395 47.493 C 95.706 47.601, 111.208 48.010, 111.844 48.403 C 112.480 48.796, 112.995 49.879, 112.990 50.809 C 112.984 51.739, 113.852 55.200, 114.919 58.500 C 115.986 61.800, 117.368 66.446, 117.992 68.825 C 118.849 72.097, 120.916 74.959, 126.478 80.575 C 130.522 84.659, 134.350 88, 134.984 88 C 135.618 88, 138.077 90.025, 140.448 92.500 C 142.820 94.975, 145.531 97, 146.473 97 C 148.659 97, 157.537 90.139, 158.794 87.479 C 159.422 86.149, 159.364 84.286, 158.624 82.032 C 157.556 78.778, 157.159 78.544, 150.684 77.354 C 146.936 76.665, 142.232 75.291, 140.232 74.301 C 133.325 70.881, 127.230 59, 131.535 57.348 C 132.438 57.002, 135.495 58.461, 138.957 60.889 C 145.228 65.287, 149.359 66.629, 153.463 65.599 C 157.989 64.463, 155.785 57.045, 149.312 51.628 C 146.942 49.644, 146.089 48.252, 146.555 47.128 C 148.669 42.033, 148.769 38.938, 146.892 36.735 L 144.988 34.500 140.679 39.352 C 137.022 43.470, 135.697 44.280, 131.927 44.705 C 127.573 45.196, 127.437 45.122, 125.132 41.021 C 123.839 38.720, 121.367 35.966, 119.640 34.902 C 116.250 32.813, 108.400 32.684, 63.321 33.978 M 60.336 56.265 C 44.083 65.540, 43.897 65.763, 48.293 70.678 C 50.173 72.780, 52.226 75.483, 52.856 76.684 C 56.648 83.924, 50.393 92.421, 43.849 88.919 C 39.832 86.770, 33 91.820, 33 96.939 C 33 100.040, 38.310 102.331, 43.645 101.530 C 47.635 100.932, 48.306 101.152, 51.142 103.989 C 53.921 106.767, 54.195 107.557, 53.679 111.302 C 52.864 117.218, 45.813 131.214, 39.417 139.612 C 36.438 143.523, 34 147.430, 34 148.294 C 34 149.157, 35.390 150.854, 37.089 152.063 C 39.908 154.071, 40.542 154.154, 44.339 153.018 C 48.964 151.633, 59 142.012, 59 138.963 C 59 138.346, 61.040 133.735, 63.534 128.716 C 66.609 122.528, 67.912 118.771, 67.581 117.045 C 64.897 103.034, 65.849 101.550, 76.893 102.534 C 81.279 102.924, 85.135 103.818, 86 104.644 C 87.715 106.282, 87.794 115.378, 86.250 133.204 C 84.655 151.613, 87.529 161.477, 94.292 160.805 C 98.511 160.387, 99.323 156.952, 97.917 145.484 C 97.115 138.939, 97.112 134.847, 97.906 130.551 C 98.508 127.296, 99 120.665, 99 115.816 C 99 108.168, 99.281 106.719, 101.120 104.880 C 102.895 103.105, 103.991 102.860, 107.870 103.372 C 113.729 104.144, 118 108.368, 118 113.390 C 118 115.237, 118.675 118.662, 119.500 121 C 120.325 123.338, 121 126.943, 121 129.012 C 121 138.209, 133.134 151.584, 145.905 156.464 C 154.245 159.651, 159.216 159.758, 161.961 156.811 C 167.054 151.345, 162.060 144, 153.250 144 C 149.354 144, 139.687 137.161, 135.981 131.782 C 132.985 127.434, 132.829 126.827, 133.987 124.032 C 135.549 120.261, 136.525 120.258, 143.343 124 C 146.350 125.650, 150.007 127, 151.471 127 C 154.782 127, 158 125.346, 158 123.645 C 158 121.777, 151.286 114.225, 148.973 113.491 C 147.402 112.993, 147.204 112.486, 148.001 110.999 C 149.557 108.090, 149.190 105.176, 146.872 102.040 C 144.590 98.955, 144.266 98.960, 137.273 102.198 C 131.004 105.102, 129.508 104.440, 129.459 98.741 C 129.437 96.144, 128.943 93.543, 128.362 92.962 C 126.623 91.223, 108.870 87.951, 104.500 88.564 C 98.157 89.455, 96.637 87.677, 96.197 78.854 C 95.827 71.414, 95.799 68.193, 96.054 62.186 C 96.218 58.321, 93.669 55, 90.539 55 C 89.356 55, 86.864 56.125, 85 57.500 C 83.136 58.875, 80.526 60, 79.200 60 C 77.874 60, 75.452 58.875, 73.818 57.500 C 70.494 54.703, 64.099 54.117, 60.336 56.265 M 72.257 69.118 C 66.369 70.817, 62.429 83.328, 66.750 86.608 C 68.657 88.056, 82.634 88.520, 84.704 87.204 C 87.491 85.432, 82.918 69, 79.638 69 C 78.827 69, 77.564 68.816, 76.832 68.591 C 76.099 68.366, 74.040 68.604, 72.257 69.118" stroke="none" fill="black" fill-rule="evenodd"/>
</svg>