<svg xmlns="http://www.w3.org/2000/svg" width="256" height="256" viewBox="0 0 256 256" version="1.1">
	<path d="M 69.881 24.427 C 69.541 24.781, 61.409 25.086, 51.809 25.104 C 32.762 25.142, 30.109 25.741, 28.899 30.279 C 28.069 33.391, 29.991 35.188, 35.500 36.449 C 37.150 36.826, 39.501 37.783, 40.725 38.575 C 43.875 40.611, 42.208 43.708, 35.944 47.455 C 33.227 49.081, 30.794 51.106, 30.538 51.955 C 28.786 57.755, 26 72.721, 26 76.334 C 26 82.184, 28.548 84.554, 34.311 84.065 C 39.556 83.620, 46.580 83.687, 50.500 84.220 C 52.150 84.444, 57.963 84.711, 63.417 84.814 C 68.871 84.916, 73.060 85.273, 72.727 85.607 C 72.393 85.940, 72.656 86.790, 73.310 87.495 C 74.273 88.532, 75.214 88.413, 78.235 86.875 C 83.081 84.409, 85.021 81.340, 84.657 76.714 C 84.397 73.413, 84.622 73, 86.682 73 C 89.420 73, 89.522 73.335, 87.429 75.429 C 86.096 76.761, 86.080 77, 87.323 77 C 88.185 77, 88.777 77.927, 88.760 79.250 C 88.744 80.487, 88.775 86, 88.829 91.500 C 88.947 103.479, 88.550 110.301, 87.651 111.756 C 87.286 112.346, 87.553 113.057, 88.244 113.336 C 89.242 113.738, 89.243 113.858, 88.250 113.921 C 85.832 114.074, 85.500 113.993, 85.474 113.250 C 85.460 112.838, 84.581 111.202, 83.521 109.616 C 82.279 107.757, 81.691 105.394, 81.866 102.968 C 82.016 100.897, 81.638 98.894, 81.027 98.517 C 80.416 98.139, 79.224 96.101, 78.378 93.988 C 77.099 90.791, 76.476 90.245, 74.671 90.738 C 71.912 91.491, 67.880 91.515, 50.201 90.888 C 33.945 90.310, 31.989 90.893, 32.015 96.307 C 32.044 102.276, 34.621 103.759, 45.542 104.089 C 59.077 104.498, 63.381 104.320, 66.749 103.210 C 69.313 102.366, 70.299 102.441, 71.427 103.570 C 72.214 104.357, 73.325 105, 73.897 105 C 74.469 105, 74.694 105.634, 74.397 106.408 C 73.775 108.030, 68.528 110.444, 67.289 109.679 C 66.832 109.396, 64.452 108.866, 62 108.500 C 59.548 108.134, 57.282 107.674, 56.964 107.478 C 56.646 107.281, 53.910 107.456, 50.885 107.867 C 47.860 108.277, 44.073 108.262, 42.470 107.834 C 39.372 107.005, 31.431 108.871, 28.152 111.198 C 25.782 112.881, 26.060 115.871, 28.966 119.952 C 31.062 122.896, 31.641 123.153, 34.895 122.580 C 45.910 120.640, 47.679 120.679, 49.912 122.912 C 51.100 124.100, 51.806 125.505, 51.480 126.033 C 47.888 131.845, 50.663 156.123, 55.342 159.824 C 57.776 161.748, 63.735 162.122, 65.402 160.455 C 67.273 158.584, 67.389 156.775, 65.945 151.993 C 64.111 145.920, 63.949 144.591, 64.570 140.750 C 65.065 137.686, 65.594 137, 67.463 137 C 69.191 137, 69.893 137.715, 70.335 139.923 C 70.987 143.183, 74.543 146.997, 76.939 147.006 C 80.272 147.017, 86 149.158, 86 150.392 C 86 152.268, 89.336 155.005, 91.579 154.968 C 93.948 154.929, 95.990 153.340, 98.287 149.750 C 100.185 146.783, 103.556 146.157, 107.183 148.098 C 109.292 149.227, 138.319 150.039, 139.975 149.015 C 140.883 148.454, 141.430 137.148, 140.721 133.612 C 140.151 130.768, 136.933 128.856, 133.856 129.532 C 131.733 129.998, 131.037 129.691, 130.519 128.060 C 130.003 126.433, 129.026 126, 125.874 126 C 123.678 126, 122.104 126.359, 122.375 126.798 C 123.146 128.046, 122.024 129.136, 114.059 134.881 C 108.371 138.983, 106.250 140.017, 105.059 139.265 C 104.201 138.724, 103.481 137.881, 103.457 137.391 C 103.434 136.901, 102.827 134.783, 102.108 132.685 C 101.307 130.346, 101.059 127.252, 101.466 124.685 C 101.832 122.383, 102.247 118.475, 102.388 116 C 102.782 109.120, 104.057 105, 105.792 105 C 106.640 105, 107.032 105.302, 106.663 105.670 C 106.295 106.039, 106.598 107.276, 107.338 108.420 C 108.078 109.564, 109.015 111.850, 109.420 113.500 C 110.637 118.461, 112.270 119.777, 122.250 123.838 C 123.947 124.529, 125 124.583, 125 123.979 C 125 123.440, 125.681 123, 126.514 123 C 129.334 123, 135.440 118.773, 134.286 117.619 C 133.945 117.279, 134.240 117, 134.940 117 C 135.683 117, 135.965 116.350, 135.616 115.442 C 135.287 114.585, 135.895 112.166, 136.966 110.066 C 138.038 107.966, 138.634 105.967, 138.290 105.624 C 137.947 105.281, 138.814 105, 140.217 105 C 144.174 105, 144.601 107.380, 143.767 124.750 C 143.519 129.921, 143.750 133, 144.386 133 C 144.968 133, 144.889 133.511, 144.200 134.200 C 142.567 135.833, 142.692 137, 144.500 137 C 145.325 137, 146.034 137.787, 146.077 138.750 C 146.228 142.213, 146.845 143.988, 148.458 145.601 C 149.360 146.503, 150.338 148.441, 150.632 149.908 C 150.940 151.448, 152.628 153.577, 154.629 154.948 L 158.093 157.321 160.773 155.321 C 163.875 153.004, 164.762 150.460, 164.900 143.473 C 165.001 138.394, 163.997 136.142, 159.401 131.135 C 157.629 129.203, 157.209 127.460, 157.112 121.635 C 157.047 117.711, 156.749 110.900, 156.450 106.500 C 155.723 95.790, 155.625 83.040, 156.205 74.500 C 157.039 62.221, 155.239 36.475, 153.251 32.248 C 150.551 26.508, 146.858 25.899, 112.500 25.534 C 96.550 25.365, 80.575 24.902, 77 24.505 C 73.425 24.108, 70.222 24.073, 69.881 24.427 M 78.215 38.762 C 74.014 40.851, 74.395 42.961, 79.416 45.412 C 82.923 47.123, 83.603 47.172, 85.909 45.877 C 89.124 44.073, 89.703 41.434, 87.433 38.926 C 85.340 36.614, 82.631 36.566, 78.215 38.762 M 104.352 40.993 C 103.171 41.470, 101.920 42.321, 101.572 42.884 C 100.544 44.547, 102.061 48.885, 103.872 49.459 C 106.158 50.185, 111.636 48.506, 113.691 46.452 C 116.098 44.045, 128.952 44.954, 134.500 47.923 L 138.500 50.063 140.760 47.281 C 143.654 43.721, 143.248 41.681, 139.488 40.876 C 134.971 39.909, 106.806 40.003, 104.352 40.993 M 139 55.981 C 138.175 56.399, 135.401 57.675, 132.835 58.817 C 130.184 59.996, 127.888 61.779, 127.517 62.946 C 127.159 64.076, 126.414 65, 125.863 65 C 125.312 65, 125.005 65.976, 125.180 67.169 C 125.411 68.732, 126.775 69.779, 130.070 70.919 C 134.821 72.563, 141.279 77, 138.921 77 C 137.923 77, 138.012 77.441, 139.262 78.690 C 140.192 79.620, 141.231 80.103, 141.571 79.763 C 142.484 78.850, 142.739 73, 141.867 73 C 141.455 73, 141.708 71.863, 142.429 70.474 C 144.431 66.614, 144.314 58.586, 142.229 56.747 C 141.202 55.841, 139.891 55.530, 139 55.981 M 84.376 59.250 C 83.958 60.487, 83.731 62.288, 83.871 63.250 C 84.011 64.213, 83.673 65, 83.120 65 C 81.730 65, 82.639 69.068, 84.430 70.858 C 85.637 72.065, 86.177 72.098, 87.450 71.042 C 89.191 69.597, 89.571 65, 87.950 65 C 87.259 65, 87.223 64.424, 87.844 63.314 C 88.449 62.233, 88.410 60.798, 87.733 59.314 C 86.404 56.396, 85.345 56.376, 84.376 59.250 M 102.667 58.816 C 100.336 61.391, 99.649 65.995, 101.074 69.500 C 102.690 73.479, 102.738 75.649, 101.323 80.842 C 100.192 84.994, 100.935 94.859, 102.691 99 C 103.458 100.809, 103.710 101.668, 103.875 103.039 C 103.950 103.664, 104.557 103.564, 105.395 102.789 C 106.162 102.080, 106.605 101.194, 106.379 100.819 C 106.152 100.445, 106.425 99.856, 106.984 99.510 C 107.543 99.165, 108.020 97.446, 108.044 95.691 C 108.068 93.936, 108.658 90.906, 109.355 88.958 C 110.212 86.562, 110.328 84.459, 109.714 82.458 C 108.024 76.950, 108.145 72.605, 110.046 70.500 C 111.039 69.400, 112.156 67.274, 112.528 65.775 C 113.075 63.572, 112.625 62.471, 110.179 60.025 C 106.696 56.542, 104.975 56.265, 102.667 58.816 M 40.650 60.240 C 39.418 61.159, 38.800 62.886, 38.800 65.410 C 38.800 70.952, 39.928 71.622, 46.858 70.190 C 51.256 69.282, 54.654 69.250, 60.499 70.063 C 64.780 70.659, 69.314 70.887, 70.575 70.571 C 73.058 69.947, 75.024 65.841, 73.141 65.214 C 72.381 64.960, 72.325 64.261, 72.967 63.061 C 73.723 61.648, 73.405 61.050, 71.412 60.142 C 70.034 59.514, 68.342 59, 67.652 59 C 65.728 59, 61.017 61.391, 61.008 62.372 C 61.004 62.852, 60.438 62.789, 59.750 62.232 C 59.063 61.674, 56.700 60.970, 54.500 60.667 C 52.300 60.364, 48.700 59.834, 46.500 59.488 C 43.802 59.065, 41.898 59.309, 40.650 60.240 M 138.298 81.631 C 138.645 81.979, 138.438 83.181, 137.838 84.302 C 136.961 85.942, 137.103 86.602, 138.565 87.671 C 140.306 88.944, 140.301 89.001, 138.441 89.015 C 137.341 89.024, 136.948 89.349, 137.533 89.765 C 138.102 90.169, 138.608 91.287, 138.658 92.250 C 138.835 95.633, 139.013 96, 140.471 96 C 142.104 96, 144.212 89.717, 142.770 89.146 C 142.279 88.952, 142.530 88.052, 143.328 87.146 C 145.532 84.644, 143.776 81, 140.366 81 C 138.881 81, 137.951 81.284, 138.298 81.631 M 119.750 84.375 C 116.661 85.511, 116.009 88.932, 118.489 90.991 C 119.308 91.671, 119.731 92.626, 119.430 93.113 C 119.129 93.601, 119.359 94, 119.941 94 C 121.364 94, 121.298 96.734, 119.864 97.212 C 118.185 97.772, 121.073 102, 123.134 102 C 124.663 102, 126 100.097, 126 97.918 C 126 97.413, 125.213 96.993, 124.250 96.985 C 123.161 96.975, 122.919 96.692, 123.610 96.235 C 125.420 95.037, 127.630 89.664, 127.250 87.387 C 126.770 84.516, 123.233 83.095, 119.750 84.375 M 137.540 99.250 C 139.194 104.765, 143 105.247, 143 99.941 C 143 97.326, 142.660 97, 139.933 97 C 137.218 97, 136.943 97.259, 137.540 99.250 M 83.971 119.054 C 82.726 120.793, 81.501 121.089, 76 120.978 C 66.011 120.778, 65.530 120.857, 63.136 123.088 L 60.896 125.175 63.014 127.012 C 64.178 128.022, 64.989 129.171, 64.816 129.565 C 64.642 129.959, 65.233 130.744, 66.128 131.309 C 67.357 132.084, 68.434 131.804, 70.513 130.168 C 73.933 127.479, 80.027 127.262, 82.260 129.750 C 83.124 130.713, 84.145 133.194, 84.529 135.264 C 84.914 137.334, 85.964 139.458, 86.864 139.984 C 87.764 140.509, 88.033 140.953, 87.463 140.970 C 85.835 141.017, 85.933 145, 87.562 145 C 88.433 145, 89.050 143.916, 89.128 142.250 C 89.198 140.738, 89.393 138.375, 89.562 137 C 90.350 130.583, 90.147 122.143, 89.160 120.300 C 88.561 119.180, 88.355 117.979, 88.702 117.631 C 89.049 117.284, 88.458 117, 87.387 117 C 86.317 117, 84.780 117.924, 83.971 119.054 M 32.088 135.541 C 28.148 142.968, 30.015 151.583, 35.394 150.794 C 40.238 150.084, 43.528 137.017, 39.855 133.075 C 36.852 129.852, 34.752 130.518, 32.088 135.541 M 65.756 133.664 C 66.447 133.943, 66.758 134.582, 66.447 135.085 C 65.540 136.553, 66.640 136.138, 68 134.500 C 69.049 133.237, 68.871 133.012, 66.872 133.079 C 65.568 133.122, 65.065 133.386, 65.756 133.664" stroke="none" fill="black" fill-rule="evenodd"/>
</svg>