<svg xmlns="http://www.w3.org/2000/svg" width="256" height="256" viewBox="0 0 256 256" version="1.1">
	<path d="M 62 28.270 C 60.336 29.128, 58.640 31.712, 56.926 36.002 C 55.329 39.998, 52.554 44.353, 49.617 47.472 C 47.014 50.237, 41.489 57.675, 37.340 64 C 30.284 74.757, 29.884 75.655, 31.148 77.901 C 33.492 82.065, 35.377 82.619, 40.702 80.710 C 47.267 78.357, 50.962 78.552, 57.638 81.606 C 61.569 83.404, 65.686 84.364, 70.918 84.702 C 78.416 85.186, 78.540 85.154, 82.071 81.846 C 84.035 80.006, 86.784 77.600, 88.181 76.500 C 91.184 74.134, 93.430 67.962, 92.450 64.766 C 91.243 60.826, 79.038 47.019, 76.750 47.005 C 76.338 47.002, 75.100 46.100, 74 45 C 72.459 43.459, 72 41.667, 72 37.191 C 72 33.996, 71.438 30.646, 70.750 29.746 C 68.986 27.436, 64.940 26.754, 62 28.270 M 102.021 34.134 C 98.286 35.597, 96 38.046, 96 40.584 C 96 45.546, 102.551 48.296, 111.483 47.083 C 115.997 46.471, 117.266 46.636, 118.497 47.997 C 122.126 52.006, 118.602 57.181, 111.094 58.868 C 102.991 60.688, 102.236 62.312, 101.502 79.500 C 101.150 87.750, 100.445 96.075, 99.936 98 C 98.631 102.938, 98.778 106.635, 100.342 108.199 C 103.074 110.931, 104 114.033, 104 120.454 C 104 125.756, 104.487 127.812, 106.500 131 C 107.875 133.178, 109 135.423, 109 135.989 C 109 137.519, 103.511 144.811, 100.686 147.032 C 97.464 149.567, 96.378 153.807, 98.427 155.856 C 100.994 158.422, 106.015 157.574, 112.873 153.417 C 120.953 148.519, 122.452 146.314, 121.655 140.497 C 120.912 135.082, 122.495 133.811, 128.591 134.925 C 134.323 135.973, 135 136.617, 135 141.016 C 135 145.177, 134.713 144.861, 146.341 153.521 C 149.004 155.504, 152.233 157.605, 153.517 158.190 C 156.952 159.755, 160.663 158.477, 161.418 155.470 C 162.213 152.302, 159.516 146.298, 156.928 145.477 C 155.895 145.149, 152.342 143.073, 149.032 140.862 C 143.912 137.444, 143.161 136.568, 143.999 135.002 C 144.541 133.989, 146.676 132.619, 148.742 131.957 C 150.809 131.295, 153.482 129.859, 154.683 128.765 C 156.853 126.789, 156.864 126.587, 156.534 95.310 C 156.142 58.220, 156.771 60.207, 144.761 58.151 C 135.691 56.598, 133.588 55.214, 134.930 51.684 C 136.235 48.253, 138.272 47.357, 146.135 46.756 C 154.428 46.122, 159 43.670, 159 39.857 C 159 38.182, 158.078 36.420, 156.587 35.247 C 154.373 33.506, 152.132 33.342, 129.337 33.256 C 115.385 33.203, 103.413 33.588, 102.021 34.134 M 63.245 55.446 C 55.199 59.058, 50.300 67.300, 54 71 C 55.322 72.322, 56.888 72.770, 59.196 72.486 C 61.013 72.263, 64.525 71.847, 67 71.562 C 69.475 71.277, 73.188 70.563, 75.250 69.975 C 78.670 69, 79 68.597, 79 65.387 C 79 61.837, 77.726 58.583, 75.441 56.298 C 73.429 54.286, 66.854 53.827, 63.245 55.446 M 122.019 70.689 C 114.768 71.157, 111.924 72.878, 112.736 76.307 C 113.692 80.344, 115.761 81.001, 127.441 80.978 C 138.954 80.955, 141.830 80.023, 143.288 75.844 C 144.797 71.517, 137.311 69.703, 122.019 70.689 M 129.654 92.134 C 128.549 92.776, 125.722 92.946, 122.607 92.557 C 119.747 92.199, 116.640 92.201, 115.703 92.560 C 113.727 93.319, 113.415 97.515, 115.250 98.665 C 116.653 99.544, 138.531 100.129, 141.250 99.360 C 144.089 98.557, 143.537 93.566, 140.453 92.161 C 137.295 90.722, 132.105 90.709, 129.654 92.134 M 40.203 93.142 C 35.872 94.376, 35.331 96.182, 37.999 100.499 C 41.787 106.627, 44.495 107.380, 60.083 106.636 C 72.905 106.024, 73.868 106.108, 76.356 108.065 C 77.810 109.209, 79 110.601, 79 111.159 C 79 113.874, 68.109 126.962, 64.187 128.959 C 61.716 130.218, 55.883 130.076, 54.917 128.733 C 54.596 128.287, 53.158 128.370, 51.721 128.916 C 49.841 129.631, 48.926 130.876, 48.461 133.355 C 47.479 138.593, 48.178 140.215, 51.972 141.491 C 54.189 142.237, 56.561 144.247, 58.536 147.052 C 61.781 151.659, 69.062 156.788, 72.550 156.921 C 73.677 156.965, 75.140 156.460, 75.800 155.800 C 77.260 154.340, 77.367 149.554, 75.997 146.994 C 74.856 144.863, 77.715 138.674, 82.815 132.231 C 85.832 128.421, 87.984 122.496, 87.994 117.973 C 87.997 116.583, 89.800 113.051, 92 110.123 C 94.200 107.195, 96 104.351, 96 103.804 C 96 101.883, 91.813 96.955, 88.903 95.450 C 86.385 94.148, 84.736 94.102, 77.399 95.128 C 70.123 96.146, 67.754 96.087, 61.667 94.736 C 51.994 92.588, 44.182 92.008, 40.203 93.142 M 115.881 112.702 C 111.919 114.355, 112.092 117.374, 116.250 119.129 C 120.690 121.002, 141.037 120.820, 143.640 118.884 C 146.044 117.096, 146.328 113.766, 144.180 112.549 C 141.706 111.147, 119.317 111.268, 115.881 112.702" stroke="none" fill="black" fill-rule="evenodd"/>
</svg>