<svg xmlns="http://www.w3.org/2000/svg" width="256" height="256" viewBox="0 0 256 256" version="1.1">
	<path d="M 39.354 30.654 C 38.174 30.906, 36.408 31.997, 35.428 33.079 C 33.649 35.045, 33.412 37.099, 33.875 46.500 C 34.011 49.250, 33.879 66.546, 33.583 84.935 C 33.056 117.679, 32.376 126.941, 29.493 140.687 C 27.061 152.278, 29.098 157.434, 35.193 155.117 C 38.803 153.744, 40.893 149.868, 41.558 143.309 C 41.882 140.114, 42.341 136.150, 42.577 134.500 C 42.814 132.850, 43.482 127.900, 44.062 123.500 C 44.642 119.100, 45.607 114.503, 46.208 113.285 C 46.959 111.762, 47.028 108.017, 46.427 101.285 C 45.228 87.854, 45.766 45.986, 47.160 44.307 C 47.918 43.394, 51.196 43, 58.051 43 C 68.961 43, 71 43.945, 71 49 C 71 53.092, 68.615 55, 63.500 55 C 60.726 55, 58.523 55.620, 57.436 56.707 C 54.774 59.369, 53.163 64.068, 53.935 66.920 C 54.319 68.339, 54.521 71.750, 54.385 74.500 C 53.873 84.806, 53.981 101.788, 54.568 103.317 C 55.572 105.933, 61.410 107.350, 65.551 105.983 C 68.710 104.941, 69.296 105.035, 70.863 106.842 C 73.435 109.808, 72.779 116.547, 69.693 118.847 C 68.126 120.015, 67.390 119.849, 64.139 117.597 C 62.079 116.168, 59.435 115, 58.264 115 C 55.531 115, 52.483 119.481, 52.143 124 C 51.998 125.925, 51.178 129.393, 50.321 131.707 C 47.198 140.131, 50.959 146.739, 58.086 145.350 C 62.439 144.503, 62.966 143.637, 62.985 137.302 C 62.997 133.166, 63.507 131.556, 65.481 129.426 C 66.846 127.953, 67.719 126.355, 67.422 125.874 C 67.125 125.393, 67.734 125, 68.774 125 C 70.705 125, 71.068 125.896, 71.104 130.750 C 71.187 141.898, 70.888 144.467, 69.301 146.220 C 67.090 148.663, 66.781 150.856, 68.160 154.297 C 69.257 157.033, 73.500 160, 76.314 160 C 77.091 160, 78.877 158.850, 80.283 157.444 C 82.597 155.130, 82.912 153.831, 83.617 143.694 C 84.045 137.537, 84.475 132.162, 84.573 131.750 C 84.670 131.338, 84.806 130.550, 84.875 130 C 85.127 127.987, 89.101 129.079, 92.157 132 C 95.509 135.203, 99.281 135.862, 101.509 133.634 C 102.653 132.490, 102.657 131.956, 101.538 130.357 C 100.419 128.760, 100.422 128.143, 101.557 126.591 C 104.277 122.871, 97.865 115.833, 92.148 116.264 C 90.967 116.353, 90 116.780, 90 117.213 C 90 119.071, 85.274 117.868, 84.252 115.750 C 81.258 109.543, 82.745 106.697, 88.795 107.058 C 94.911 107.424, 96.522 107.094, 98.748 105.021 C 100.548 103.343, 100.728 102.542, 99.926 99.771 C 99.406 97.972, 99.018 94.250, 99.065 91.500 C 99.111 88.750, 98.448 83.350, 97.592 79.500 C 96.735 75.650, 96.027 69.774, 96.017 66.441 C 95.995 58.684, 94.612 56.780, 88.479 56.060 C 82.281 55.332, 80.945 53.374, 83.460 48.704 C 85.245 45.389, 85.631 45.215, 93.686 44.088 C 98.290 43.444, 102.558 43.227, 103.171 43.606 C 103.783 43.984, 108.158 44.232, 112.892 44.157 C 122.191 44.009, 123.619 44.434, 124.122 47.500 C 124.636 50.631, 123.182 52, 119.342 52 C 114.944 52, 109.284 54.601, 107.850 57.281 C 107.178 58.536, 106.842 65.397, 106.963 75.400 C 107.225 97.144, 107.234 99.572, 107.087 106.428 C 107.016 109.689, 107.387 112.621, 107.910 112.945 C 108.434 113.268, 108.780 116.532, 108.681 120.197 C 108.517 126.229, 108.761 127.134, 111.250 129.735 C 114.360 132.986, 114.715 135.162, 112.442 137.048 C 111.585 137.759, 110.258 139.839, 109.493 141.670 C 108.728 143.502, 107.552 145, 106.880 145 C 102.662 145, 101.354 151.200, 104.895 154.405 C 106.329 155.703, 106.947 155.732, 109.040 154.599 C 110.393 153.867, 114.072 151.889, 117.216 150.205 C 120.359 148.521, 123.554 146.562, 124.314 145.851 C 125.950 144.323, 125.404 141.285, 122.992 138.500 C 122.039 137.400, 121.276 135.713, 121.297 134.750 C 121.328 133.260, 122.310 133.006, 127.917 133.044 C 131.537 133.068, 136.525 133.484, 139 133.968 C 141.702 134.497, 143.880 134.480, 144.450 133.925 C 144.972 133.416, 146.518 133, 147.884 133 C 151.338 133, 158.810 129.218, 159.375 127.183 C 159.872 125.398, 159.627 112.374, 158.470 79 C 157.921 63.160, 157.425 58.118, 156.288 56.820 C 155.339 55.737, 152.450 54.893, 148.158 54.446 C 139.707 53.566, 138 52.665, 138 49.087 C 138 44.711, 140.321 43.527, 149.402 43.275 C 156.334 43.082, 157.755 42.738, 159.273 40.885 C 161.231 38.496, 160.820 35.553, 158.145 32.816 C 156.732 31.370, 153.312 31.059, 133.850 30.607 C 112.960 30.122, 110.757 30.237, 105.499 32.085 C 100.248 33.930, 99.471 33.971, 95.649 32.605 C 92.563 31.502, 85.094 31.003, 66.500 30.659 C 52.750 30.405, 40.534 30.402, 39.354 30.654 M 70.523 67.913 C 68.090 68.864, 67.008 72.734, 68.333 75.750 C 69.227 77.785, 70.013 78, 76.554 78 C 84.277 78, 85.186 77.406, 85.469 72.171 C 85.692 68.056, 76.708 65.496, 70.523 67.913 M 121.200 68.200 C 119.604 69.796, 119.675 74.173, 121.332 76.439 C 122.506 78.045, 123.719 78.194, 131.584 77.700 C 143.380 76.958, 146 75.933, 146 72.060 C 146 70.128, 145.316 68.704, 144.066 68.035 C 141.311 66.561, 122.705 66.695, 121.200 68.200 M 73.079 85.750 C 73.036 86.438, 72.155 87, 71.122 87 C 68.500 87, 67.202 89.051, 67.959 92 C 68.640 94.655, 68.021 94.575, 83.750 94.042 C 84.438 94.019, 85 92.947, 85 91.661 C 85 88.996, 81.589 87, 77.036 87 C 75.458 87, 73.940 86.438, 73.662 85.750 C 73.259 84.750, 73.142 84.750, 73.079 85.750 M 122.326 91.394 C 120.472 96.832, 122.958 98.769, 130.824 98.017 C 134.125 97.701, 138.102 97.786, 139.663 98.206 C 143.578 99.258, 145.694 98.379, 146.251 95.469 C 147.203 90.487, 145.178 89.515, 133.604 89.396 C 123.711 89.295, 122.998 89.422, 122.326 91.394 M 121.426 111.409 C 119.498 114.162, 119.630 115.630, 122.019 118.019 C 123.858 119.858, 124.903 119.986, 133.769 119.456 C 146.912 118.671, 147.679 118.462, 148.243 115.511 C 148.507 114.130, 148.365 113, 147.929 113 C 147.492 113, 146.883 112.206, 146.575 111.236 C 146.084 109.688, 144.595 109.466, 134.433 109.423 C 123.887 109.378, 122.724 109.555, 121.426 111.409 M 67.813 121.683 C 68.534 121.972, 69.397 121.936, 69.729 121.604 C 70.061 121.272, 69.471 121.036, 68.417 121.079 C 67.252 121.127, 67.015 121.364, 67.813 121.683 M 140.992 138.509 C 139.204 140.664, 138.566 145, 140.038 145 C 140.646 145, 143.385 147.137, 146.123 149.750 C 151.274 154.663, 156.431 158, 158.874 158 C 160.910 158, 162.931 154.926, 162.968 151.774 C 162.991 149.822, 161.509 147.492, 157.750 143.574 C 153.127 138.755, 151.898 138.024, 147.457 137.449 C 143.378 136.922, 142.141 137.125, 140.992 138.509" stroke="none" fill="black" fill-rule="evenodd"/>
</svg>