<svg xmlns="http://www.w3.org/2000/svg" width="256" height="256" viewBox="0 0 256 256" version="1.1">
	<path d="M 53.132 29.789 C 46.037 37.189, 35.813 51.176, 33.391 56.796 C 29.120 66.705, 27 71.886, 27 72.415 C 27 72.592, 28.862 72.986, 31.138 73.292 C 33.413 73.597, 35.950 74.521, 36.774 75.345 C 38.317 76.888, 38.774 82.985, 37.621 86.620 C 37.188 87.983, 37.816 89.923, 39.484 92.382 C 41.742 95.708, 41.953 96.830, 41.542 103.294 C 41.290 107.258, 40.586 114.100, 39.978 118.500 C 39.371 122.900, 38.912 128.817, 38.959 131.650 C 39.006 134.482, 38.331 138.902, 37.458 141.471 C 35.481 147.295, 36.291 151.780, 39.544 153.017 C 42.570 154.167, 61.454 151.729, 65.342 149.686 C 67.417 148.595, 69.034 148.436, 71.335 149.096 C 78.103 151.037, 82.616 149.807, 83.425 145.800 C 83.569 145.085, 84.009 143.352, 84.402 141.949 C 84.843 140.375, 84.311 136.391, 83.010 131.538 C 80.738 123.057, 81.061 118.776, 84.704 109.148 C 86.324 104.864, 86.406 104.807, 89.925 105.561 C 91.891 105.982, 98.225 106.387, 104 106.460 C 109.866 106.535, 115.435 107.109, 116.618 107.761 C 119.143 109.153, 119.884 112.319, 120.686 125.147 C 121.312 135.152, 120.097 143.111, 117.503 146 C 114.896 148.903, 114.747 152.409, 117.104 155.405 C 119.087 157.926, 119.791 158.171, 123.764 157.723 C 130.406 156.974, 131.115 155.761, 131.557 144.378 C 131.769 138.945, 132.345 131.098, 132.839 126.939 C 133.333 122.780, 133.530 117.305, 133.277 114.772 C 132.871 110.699, 133.108 109.975, 135.330 108.519 C 137.554 107.062, 138.765 107.014, 145.850 108.098 C 152.866 109.173, 154.158 109.127, 156.295 107.726 C 161.516 104.305, 160.051 98.772, 152.996 95.266 C 149.098 93.329, 147.494 93.111, 140.939 93.628 C 133.770 94.194, 133.299 94.103, 131.856 91.863 C 130.745 90.139, 130.564 88.633, 131.185 86.292 C 131.903 83.583, 132.616 82.989, 135.768 82.475 C 146.816 80.671, 149.108 79.567, 150.927 75.177 C 151.547 73.678, 154.055 71.244, 156.498 69.769 C 164.935 64.672, 163.391 58.398, 151.573 49.753 C 147.683 46.908, 140.063 40.624, 134.640 35.790 C 127.842 29.729, 124.007 27, 122.290 27 C 118.935 27, 114.767 31.534, 107.717 42.855 C 102.851 50.670, 101.257 52.441, 97.655 54.034 C 95.301 55.076, 92.545 56.845, 91.530 57.967 C 89.851 59.822, 89.798 60.519, 90.947 65.655 C 93.030 74.963, 100.374 80.090, 112.152 80.459 C 122.324 80.779, 124.938 84.350, 118.788 89.525 C 115.631 92.181, 115.410 92.216, 105.905 91.542 C 95.424 90.799, 94.686 91.093, 90.029 97.862 C 88.267 100.424, 87.168 100.493, 84.440 98.210 C 82.634 96.700, 82.454 95.746, 82.983 90.493 C 83.314 87.197, 84.129 83.517, 84.793 82.316 C 87.886 76.719, 85.295 71.692, 77.674 68.508 C 74.606 67.226, 71.786 67.049, 63.011 67.586 C 46.262 68.610, 40.367 66.580, 48.637 62.636 C 52.582 60.755, 56.788 61.111, 60.821 63.668 C 62.868 64.965, 63.666 64.961, 67.569 63.631 C 72.670 61.893, 81.160 55.095, 84.032 50.449 C 85.114 48.697, 86 45.662, 86 43.705 C 86 39.661, 83.268 36.903, 77.312 34.938 C 75.353 34.291, 71.256 32.016, 68.209 29.881 C 60.977 24.815, 57.919 24.796, 53.132 29.789 M 58.367 46.772 C 55.663 48.962, 53.710 52.723, 54.562 54.100 C 55.171 55.086, 62.699 54.648, 67.250 53.360 C 69.318 52.775, 69.509 49.254, 67.608 46.750 C 65.915 44.520, 61.134 44.531, 58.367 46.772 M 121.487 47.115 C 119.462 48.100, 117.929 50.187, 112.294 59.629 C 107.818 67.129, 108.324 67.458, 124.713 67.720 C 132.296 67.842, 139.963 67.709, 141.750 67.425 C 147.028 66.588, 146.027 63.582, 137.359 54.237 C 130.860 47.231, 129.253 46.010, 126.609 46.068 C 124.899 46.105, 122.594 46.576, 121.487 47.115 M 54.263 79.312 C 49.437 82.574, 50.036 84.511, 56.500 86.544 C 59.525 87.495, 62 88.662, 62 89.137 C 62 90.897, 66.242 89.924, 68.047 87.750 C 70.263 85.081, 69.721 82.432, 66.309 79.250 C 63.243 76.390, 58.550 76.414, 54.263 79.312 M 60.250 98.745 C 56.441 100.641, 56.144 102.287, 59.223 104.443 C 64.453 108.107, 70.131 104.627, 67.697 99.250 C 66.511 96.628, 64.745 96.508, 60.250 98.745 M 64.232 115 C 63.545 116.100, 61.937 117, 60.658 117 C 59.379 117, 56.602 118.496, 54.487 120.325 C 50.774 123.534, 50.697 123.729, 52.257 125.957 C 53.686 127.997, 53.704 128.521, 52.414 130.491 C 49.451 135.013, 53.423 137.052, 63.250 136.052 C 64.213 135.954, 65 136.453, 65 137.160 C 65 138.750, 68.373 134.064, 68.667 132.066 C 69.279 127.895, 70.171 126.188, 71.989 125.713 C 74.854 124.964, 74.486 122.055, 70.913 117.197 C 67.473 112.519, 66.070 112.057, 64.232 115 M 145.476 114.404 C 139.278 117.088, 139.390 124.891, 145.712 130.772 C 147.325 132.272, 149.872 135.188, 151.373 137.250 C 154.403 141.414, 157.659 142.140, 160.285 139.237 C 161.749 137.620, 161.710 136.816, 159.812 129.502 C 158.674 125.117, 156.581 119.948, 155.162 118.015 C 153.742 116.082, 152.563 114.443, 152.540 114.374 C 152.221 113.382, 147.794 113.401, 145.476 114.404 M 100.299 116.250 C 97.375 119.460, 96.005 122.445, 95.968 125.684 C 95.951 127.233, 95.351 129.270, 94.636 130.212 C 92.490 133.036, 93.815 137.853, 97.221 139.615 C 102.166 142.171, 105.623 140.027, 109.118 132.236 C 112.421 124.876, 112.705 121.475, 110.308 117.973 C 107.088 113.267, 103.568 112.661, 100.299 116.250" stroke="none" fill="black" fill-rule="evenodd"/>
</svg>