<svg xmlns="http://www.w3.org/2000/svg" width="256" height="256" viewBox="0 0 256 256" version="1.1">
	<path d="M 67 28.953 C 56.985 29.597, 53.211 31.044, 52.533 34.500 C 51.812 38.174, 52.763 95.422, 53.638 101 C 54.771 108.228, 57.496 112.649, 61.286 113.407 C 66.391 114.428, 74.003 114.060, 82.222 112.395 C 89.481 110.924, 90.912 110.923, 99.322 112.383 C 105.443 113.446, 113.329 113.905, 123 113.763 C 141.597 113.488, 142.553 113.906, 141.509 121.852 C 141.101 124.959, 140.800 128.400, 140.841 129.500 C 140.932 131.975, 136.958 137.984, 135.225 137.993 C 133.616 138.002, 131.922 133.653, 132.174 130.161 C 132.586 124.442, 128.807 121, 122.115 121 C 117.033 121, 115.681 122.993, 117.619 127.631 C 118.379 129.449, 119 131.885, 119 133.045 C 119 135.175, 122.201 138.839, 127.250 142.487 C 128.762 143.580, 130 145.256, 130 146.211 C 130 147.165, 130.956 149.913, 132.123 152.317 C 134.526 157.263, 139.478 159.952, 142.717 158.070 C 147.174 155.480, 148.054 153.845, 150.871 142.916 C 152.489 136.637, 154.528 130.150, 155.401 128.500 C 156.517 126.389, 156.990 122.763, 156.994 116.266 C 157 107.580, 156.835 106.847, 154.224 103.925 C 151.663 101.058, 150.986 100.830, 145.474 100.973 C 123.237 101.552, 113.316 101.159, 109.454 99.545 C 106.748 98.415, 106.318 97.790, 106.736 95.601 C 107.016 94.138, 107.948 92.950, 108.867 92.885 C 109.765 92.822, 115.900 92.683, 122.500 92.576 C 136.504 92.350, 139 91.752, 139 88.621 C 139 82.996, 130.827 79.372, 120.543 80.437 C 112.174 81.304, 105.610 79.356, 105.200 75.884 C 105.035 74.487, 105.750 72.296, 106.788 71.014 C 108.467 68.941, 109.868 68.598, 119.490 67.911 C 128.482 67.270, 130.656 66.788, 132.389 65.056 C 134.995 62.449, 134.080 60.703, 127.907 56.500 C 123.882 53.760, 122.861 53.520, 116.139 53.726 C 107.818 53.981, 105 52.951, 105 49.656 C 105 44.348, 106.533 43.779, 121.829 43.400 C 137.834 43.005, 142 41.778, 142 37.460 C 142 33.705, 137.297 31.368, 128.189 30.596 C 123.960 30.237, 111.241 29.747, 99.925 29.508 C 88.609 29.268, 78.709 28.907, 77.925 28.707 C 77.141 28.506, 72.225 28.617, 67 28.953 M 65.750 43.059 C 63.364 44.477, 63.384 51.133, 65.781 53.301 C 67.282 54.660, 69.247 54.817, 78.297 54.305 C 84.201 53.970, 89.753 53.170, 90.634 52.525 C 92.863 50.896, 93.159 46.442, 91.154 44.696 C 89.042 42.855, 68.336 41.521, 65.750 43.059 M 65.166 68.300 C 64.573 69.014, 63.802 71.383, 63.454 73.563 C 62.453 79.824, 64.244 80.778, 77.679 81.138 C 89.896 81.465, 92.350 80.581, 92.753 75.708 C 93.045 72.187, 89.758 69.328, 83.999 68.093 C 76.902 66.571, 66.506 66.685, 65.166 68.300 M 66.547 93.429 C 64.235 95.269, 63.787 98.644, 65.611 100.468 C 66.958 101.816, 68.298 102.009, 72.384 101.447 C 75.185 101.062, 80.288 100.639, 83.725 100.507 C 87.162 100.374, 90.592 99.753, 91.347 99.127 C 92.661 98.037, 92.490 93.089, 91.133 92.922 C 85.571 92.234, 67.582 92.605, 66.547 93.429 M 44.200 123.473 C 42.706 125.372, 41.959 128.938, 40.976 138.857 C 40.273 145.959, 39.976 152.496, 40.317 153.385 C 41.293 155.927, 43.663 155.300, 48.050 151.336 C 52.645 147.184, 54.017 145, 54.683 140.772 C 54.939 139.148, 55.999 135.835, 57.039 133.410 C 58.814 129.267, 59.167 129, 62.853 129 C 66.488 129, 66.823 129.240, 67.393 132.250 C 67.731 134.037, 69.094 138.200, 70.422 141.500 C 73.159 148.302, 76.476 150.886, 80.029 148.985 C 83.144 147.317, 83.903 144.110, 83.492 134.361 C 83.151 126.277, 82.889 125.303, 80.503 123.250 C 76.458 119.769, 71.715 120.228, 67.566 124.500 C 65.696 126.425, 63.905 128, 63.586 128 C 63.266 128, 61.335 126.425, 59.294 124.500 C 56.133 121.519, 54.884 121, 50.864 121 C 47.035 121, 45.778 121.467, 44.200 123.473 M 96.272 123.211 C 92.963 124.808, 92.702 127.127, 95.107 133.557 C 97.273 139.346, 101.392 144.367, 103.424 143.695 C 104.016 143.500, 105.163 142.165, 105.972 140.729 C 107.212 138.529, 107.244 137.437, 106.173 133.809 C 105.473 131.439, 104.735 128.466, 104.533 127.202 C 103.764 122.393, 100.867 120.993, 96.272 123.211" stroke="none" fill="black" fill-rule="evenodd"/>
</svg>