<svg xmlns="http://www.w3.org/2000/svg" width="256" height="256" viewBox="0 0 256 256" version="1.1">
	<path d="M 37.459 33.406 C 35.697 34.695, 35.500 36.516, 35.107 55.156 C 34.871 66.345, 34.638 81.952, 34.589 89.838 L 34.500 104.175 37.189 106.487 C 41.845 110.491, 60.266 112.191, 70.114 109.526 C 72.170 108.970, 73.290 109.381, 75.364 111.455 C 78.663 114.754, 78.698 117.032, 75.492 119.820 C 73.092 121.907, 67.286 122.964, 68.435 121.105 C 69.737 118.998, 56.345 117.210, 52.934 119.035 C 47.861 121.750, 44.835 126.162, 47.089 127.555 C 48.349 128.334, 48.230 131.659, 46.863 133.848 C 45.937 135.330, 46.170 136.185, 48.113 138.441 C 53.199 144.348, 58.012 144.062, 61.040 137.673 C 62.869 133.814, 70 127.700, 70 129.991 C 70 130.546, 70.627 131, 71.393 131 C 73.008 131, 73.939 132.914, 75.034 138.486 C 76.053 143.669, 74.867 145.689, 70.043 146.988 C 63.304 148.803, 63.895 153.826, 71.299 157.654 C 73.915 159.007, 76.628 158.965, 81.519 157.495 C 86.255 156.071, 90.499 146.235, 88.786 140.654 C 87.964 137.976, 88.091 136.181, 89.367 132.436 C 90.265 129.800, 91 125.091, 91 121.971 C 91 118.851, 91.499 114.867, 92.109 113.118 C 92.949 110.709, 92.911 109.201, 91.955 106.892 C 90.054 102.301, 86.714 100.641, 78.771 100.339 C 72.318 100.094, 68.426 98.738, 69.445 97.089 C 69.678 96.713, 69.470 95.761, 68.985 94.975 C 68.415 94.053, 68.613 92.980, 69.544 91.951 C 70.699 90.676, 72.523 90.442, 78.661 90.783 C 85.769 91.178, 86.462 91.038, 88.082 88.891 C 90.700 85.421, 88.423 81.700, 82.271 79.392 C 79.647 78.408, 77.169 77.130, 76.765 76.551 C 76.283 75.861, 76.025 75.929, 76.015 76.750 C 75.992 78.656, 73.614 78.240, 72.039 76.054 C 71.267 74.983, 70.268 74.335, 69.818 74.613 C 69.368 74.891, 69 74.641, 69 74.059 C 69 73.477, 69.590 73, 70.312 73 C 71.034 73, 73.487 72.100, 75.764 71 C 78.041 69.900, 80.385 69, 80.973 69 C 81.561 69, 82.555 67.875, 83.182 66.500 C 85.005 62.498, 82.918 59.381, 76.520 56.551 C 71.964 54.536, 71 53.676, 71 51.626 C 71 47.356, 73.410 46, 81 46 C 91.243 46, 93.342 42.576, 86.889 36.393 C 84.133 33.754, 83.256 33.543, 72.229 32.869 C 52.123 31.640, 39.610 31.833, 37.459 33.406 M 143 39.142 C 139.975 39.512, 130.876 39.562, 122.780 39.255 C 108.151 38.699, 108.034 38.711, 104.109 41.309 C 101.937 42.747, 99.856 44.879, 99.485 46.048 C 98.558 48.968, 99.727 54.528, 101.592 56.077 C 103.993 58.069, 106.117 62.820, 106.506 67.067 C 106.701 69.197, 107.986 73.540, 109.361 76.720 C 111.575 81.838, 115.391 92.445, 118.841 103.071 C 121.549 111.412, 118.965 120.005, 112.558 123.964 C 110.631 125.155, 107.653 128.206, 105.940 130.744 C 104.228 133.281, 100.615 137.900, 97.913 141.006 C 95.211 144.113, 93.006 147.520, 93.014 148.578 C 93.041 152.439, 94.206 154.690, 97.043 156.367 C 99.635 157.897, 100.245 157.925, 102.761 156.624 C 104.310 155.823, 108.337 151.804, 111.711 147.694 C 119.411 138.312, 123.888 134.834, 128.427 134.705 C 132.330 134.594, 135.355 136.807, 137.715 141.498 C 141.642 149.302, 151.648 155.992, 157.650 154.826 C 161.887 154.002, 157.992 139.084, 153.137 137.544 C 151.561 137.043, 145 128.827, 145 127.353 C 145 127.029, 143.200 124.965, 141 122.765 C 138.800 120.565, 137.003 117.805, 137.006 116.632 C 137.014 113.461, 138.971 107, 139.924 107 C 141.010 107, 144.748 98.269, 145.508 93.956 C 145.835 92.100, 146.466 90.113, 146.910 89.541 C 148.335 87.706, 154 63.424, 154 59.152 C 154 56.884, 154.540 53.011, 155.199 50.544 C 156.213 46.753, 156.148 45.534, 154.778 42.661 C 152.913 38.749, 150.971 38.169, 143 39.142 M 50.275 44.094 C 47.266 45.207, 46.348 49.356, 48.413 52.507 C 50.454 55.623, 53.102 55.676, 56.596 52.671 C 58.721 50.843, 59.164 49.790, 58.657 47.771 C 57.901 44.759, 53.590 42.868, 50.275 44.094 M 120.556 58.938 C 118.890 60.779, 118.888 61.219, 120.517 67.688 C 121.460 71.435, 122.402 76.975, 122.610 80 C 123.036 86.206, 124.209 89.025, 127.123 90.845 C 131.484 93.569, 135.137 89.319, 136.444 80 C 136.792 77.525, 138.062 72.416, 139.268 68.646 L 141.460 61.793 138.674 59.396 C 136.326 57.377, 134.821 57, 129.099 57 C 123.652 57, 121.963 57.383, 120.556 58.938 M 48.672 69.471 C 46.490 71.653, 46.546 75.218, 48.808 78.011 C 51.032 80.758, 55.067 80.156, 59.314 76.445 C 61.794 74.277, 61.953 73.810, 60.653 72.511 C 59.842 71.699, 59.026 70.599, 58.839 70.065 C 58.653 69.531, 56.665 68.803, 54.422 68.447 C 51.316 67.954, 49.945 68.198, 48.672 69.471 M 49.086 91.250 C 47.500 95.450, 50.785 98.773, 55.383 97.619 C 58.700 96.786, 59.278 93.610, 56.574 91.069 C 53.631 88.305, 50.166 88.389, 49.086 91.250 M 31.931 121.347 C 27.804 123.404, 26.758 127.002, 27.897 135.222 C 29.025 143.361, 30.798 145.705, 34.388 143.804 C 37.954 141.916, 40 138.850, 40 135.394 C 40 131.642, 41.832 127, 43.314 127 C 44.620 127, 40.203 123.175, 36.931 121.472 C 34.885 120.408, 33.866 120.382, 31.931 121.347" stroke="none" fill="black" fill-rule="evenodd"/>
</svg>