<svg xmlns="http://www.w3.org/2000/svg" width="256" height="256" viewBox="0 0 256 256" version="1.1">
	<path d="M 93.643 28.096 C 92.071 28.530, 90.046 29.527, 89.143 30.312 C 86.438 32.662, 84.681 32.811, 81 31.005 C 77.758 29.414, 66.124 28.761, 40.564 28.735 C 35.498 28.730, 33.412 32.370, 32.700 42.460 C 32.350 47.418, 32.546 53.401, 33.155 56.338 C 34.564 63.136, 34.514 64.427, 32.569 71.451 C 31.296 76.047, 31.142 78.439, 31.892 81.951 C 32.426 84.453, 32.608 89.299, 32.296 92.721 C 31.745 98.750, 31.825 99.027, 34.881 101.709 C 37.134 103.686, 39.959 104.814, 44.768 105.659 C 53.195 107.140, 63.684 107.321, 64.500 106 C 65.817 103.869, 69.529 105.056, 71.750 108.319 C 74.593 112.494, 74.568 113.566, 71.543 117.532 C 70.192 119.304, 69.356 121.023, 69.686 121.352 C 70.015 121.682, 69.716 122.638, 69.020 123.476 C 68.324 124.314, 68.148 125, 68.628 125 C 69.107 125, 69.574 126.013, 69.663 127.250 C 69.753 128.488, 70.292 131.582, 70.860 134.126 C 72.269 140.433, 71.121 144.244, 67.435 145.500 C 63.056 146.992, 62 147.903, 62 150.191 C 62 152.328, 65.582 158.933, 67.447 160.235 C 69.530 161.688, 72.695 160.953, 75.024 158.474 C 79.151 154.081, 82.587 152.897, 87.441 154.195 C 92.454 155.536, 94.695 154.895, 95.893 151.778 C 98.141 145.929, 101.028 135.232, 101.014 132.795 C 100.999 129.854, 105.102 125, 107.604 125 C 108.437 125, 108.896 125.359, 108.625 125.798 C 108.354 126.237, 108.493 127.179, 108.933 127.892 C 109.397 128.642, 108.985 130.729, 107.958 132.841 C 106.862 135.093, 106.560 136.728, 107.170 137.105 C 108.320 137.816, 108.607 145.261, 107.637 149.225 C 106.015 155.850, 114.994 159.597, 125.307 156.599 C 132.626 154.471, 135.762 154.582, 141.062 157.152 C 144.056 158.604, 147.331 159.290, 151.129 159.258 C 158.497 159.197, 160.529 158.470, 162.990 155.015 L 165.031 152.148 162.604 149.324 C 160.454 146.822, 159.341 146.443, 152.839 146 C 146.085 145.540, 145.474 145.314, 145.170 143.168 C 144.771 140.356, 147.557 137, 150.288 137 C 151.375 137, 153.146 135.988, 154.222 134.750 C 155.920 132.798, 155.969 132.457, 154.590 132.177 C 153.715 131.999, 153 131.436, 153 130.927 C 153 130.417, 151.705 130, 150.122 130 C 146.116 130, 144.629 127.975, 146.585 125.182 C 147.748 123.521, 149.129 123, 152.366 123 C 159.300 123, 159.995 121.927, 160.450 110.535 C 160.960 97.742, 160.556 97, 153.076 97 C 148.809 97, 146.584 96.483, 144.869 95.095 C 142.551 93.218, 142.545 93.160, 144.414 91.095 C 145.940 89.409, 147.500 88.997, 152.405 88.985 C 159.536 88.967, 160.520 88.481, 161.237 84.621 C 161.651 82.395, 161.140 81.082, 158.982 78.824 C 156.289 76.005, 155.955 75.925, 149.346 76.504 C 138.086 77.491, 136.663 77.410, 132.756 75.555 L 129.012 73.778 131.718 71.650 C 135.186 68.922, 145.248 64.813, 145.958 65.835 C 147.325 67.804, 151.706 70, 154.266 70 C 157.854 70, 161.569 66.446, 162.342 62.273 C 163.280 57.217, 159.859 41, 157.855 41 C 157.447 41, 158.021 38.947, 159.131 36.438 C 160.973 32.273, 161.015 31.672, 159.616 29.536 C 158.146 27.293, 157.577 27.197, 145.791 27.202 C 135.338 27.207, 132.956 27.509, 129.860 29.226 C 127.118 30.747, 125.269 31.082, 122.360 30.587 C 120.237 30.225, 114.009 29.503, 108.521 28.983 C 103.032 28.463, 98.082 27.874, 97.521 27.673 C 96.959 27.472, 95.214 27.662, 93.643 28.096 M 119.500 40.563 C 117.412 41.567, 114.669 41.836, 110.476 41.447 C 103.142 40.768, 100.368 41.511, 102.454 43.597 C 104.054 45.197, 110 45.514, 110 44 C 110 42.211, 115.641 42.946, 117.477 44.974 C 118.460 46.060, 120.068 47.204, 121.050 47.516 C 122.521 47.983, 122.683 48.617, 121.969 51.109 C 120.930 54.732, 122.299 59, 124.500 59 C 126.670 59, 128.278 54.389, 126.965 51.935 C 126.396 50.871, 126.283 49.993, 126.715 49.985 C 127.147 49.976, 126.878 49.575, 126.118 49.094 C 125.028 48.404, 125.176 48.079, 126.817 47.558 C 127.961 47.195, 129.192 45.971, 129.552 44.837 C 130.868 40.691, 124.694 38.065, 119.500 40.563 M 143.131 40.342 C 141.761 41.993, 142.645 43, 145.467 43 C 147.601 43, 150 41.306, 150 39.800 C 150 38.460, 144.321 38.909, 143.131 40.342 M 82.559 41.532 C 81.427 42.388, 78.439 43, 75.391 43 C 68.729 43, 66.996 43.695, 67.015 46.357 C 67.039 49.624, 68.124 50.692, 72.659 51.910 C 75.259 52.609, 77.977 54.349, 79.913 56.554 C 82.880 59.933, 82.947 60.202, 81.512 62.977 C 79.554 66.764, 78.569 67.289, 73.065 67.483 C 70.531 67.572, 67.717 68.062, 66.812 68.572 C 65.299 69.426, 65.310 69.677, 66.960 71.708 C 67.946 72.922, 69.821 74.120, 71.126 74.369 C 75.331 75.171, 76.845 76.108, 79.448 79.520 C 84.079 85.592, 82.137 88.485, 74.142 87.424 C 66.494 86.410, 64.788 88.840, 67.865 96.363 C 68.865 98.808, 69.435 99.136, 71.768 98.606 C 80.713 96.577, 80.631 96.564, 84.624 100.557 L 88.415 104.349 89.612 101.417 C 90.495 99.251, 90.535 97.105, 89.765 93.208 C 88.866 88.662, 88.983 87.441, 90.611 84.380 C 91.650 82.427, 93.251 80.420, 94.169 79.922 C 95.902 78.981, 105 79.799, 105 80.895 C 105 81.238, 105.905 82.084, 107.012 82.775 C 111.412 85.523, 116.762 81.182, 116.575 75.014 C 116.520 73.204, 115.549 72.063, 113 70.812 C 108.438 68.575, 105.489 68.592, 98.084 70.897 C 94.733 71.940, 91.792 72.473, 91.550 72.081 C 91.308 71.689, 90.146 68.792, 88.967 65.642 C 87.481 61.669, 87.135 59.542, 87.838 58.695 C 88.396 58.023, 89.392 55.330, 90.051 52.711 C 90.756 49.911, 92.240 47.170, 93.651 46.060 L 96.051 44.172 93.121 42.086 C 89.721 39.665, 85.332 39.435, 82.559 41.532 M 47.200 42.243 C 45.433 43.094, 44.969 44.040, 45.200 46.324 C 45.565 49.945, 47.803 51.517, 51.330 50.632 C 55.120 49.681, 56.081 45.294, 53.040 42.831 C 50.467 40.748, 50.332 40.735, 47.200 42.243 M 144.084 53.316 C 143.488 53.912, 143 54.985, 143 55.700 C 143 56.415, 142.560 57, 142.021 57 C 141.426 57, 141.489 57.979, 142.182 59.500 C 142.808 60.875, 143.739 62, 144.250 62 C 145.820 62, 148.932 57.623, 148.967 55.367 C 149.004 52.955, 145.793 51.607, 144.084 53.316 M 104.582 56.316 C 103.592 57.040, 102.949 58.502, 103.151 59.566 C 103.695 62.417, 107.492 62.563, 109.422 59.807 C 110.917 57.673, 110.910 57.407, 109.328 56.250 C 107.189 54.687, 106.803 54.692, 104.582 56.316 M 46.865 66.908 L 44.509 68.816 47.306 71.408 C 49.917 73.828, 53.787 75.083, 52.572 73.116 C 52.271 72.630, 53.370 71.675, 55.013 70.995 C 58.594 69.511, 58.625 69.342, 55.750 66.944 C 52.852 64.526, 49.822 64.514, 46.865 66.908 M 46.686 84.439 C 44.897 85.795, 44.098 90.732, 45.342 92.745 C 47.357 96.004, 56 94.609, 56 91.025 C 56 89.911, 55.550 89, 55 89 C 54.450 89, 54 88.190, 54 87.200 C 54 83.343, 50.082 81.864, 46.686 84.439 M 104.992 92.282 C 102.859 94.005, 103.720 97.915, 106.513 99.188 C 111.019 101.241, 112.214 99.306, 111.110 91.750 C 110.937 90.566, 106.656 90.938, 104.992 92.282 M 86.661 106.061 C 87.409 106.809, 87.183 108.180, 85.893 110.709 C 84.888 112.682, 84.335 114.733, 84.665 115.267 C 84.995 115.801, 85.391 119.370, 85.544 123.197 C 85.697 127.024, 86.088 130.422, 86.413 130.746 C 86.737 131.071, 88.094 130.752, 89.428 130.039 C 91.536 128.911, 91.720 128.399, 90.842 126.121 C 90.287 124.679, 90.121 121.283, 90.474 118.573 C 91.235 112.735, 89.301 105, 87.082 105 C 86.037 105, 85.913 105.313, 86.661 106.061 M 106.450 108.288 C 103.759 111.393, 104.015 114.545, 107 115.058 C 111.289 115.795, 113.617 111.474, 110.571 108.429 C 108.853 106.710, 107.847 106.676, 106.450 108.288 M 144.724 108.134 C 143.776 108.665, 143 109.977, 143 111.050 C 143 112.612, 143.696 113, 146.500 113 C 149.312 113, 150 112.614, 150 111.035 C 150 108.490, 147.018 106.851, 144.724 108.134 M 125.250 108.644 C 123.080 109.552, 123.771 113.707, 126.198 114.342 C 128.993 115.072, 131.184 113.285, 130.798 110.588 C 130.503 108.521, 127.804 107.575, 125.250 108.644 M 47 115.589 C 43.808 117.884, 42.913 118.049, 36.834 117.460 C 30.408 116.837, 30.106 116.909, 28.432 119.464 C 26.179 122.902, 25.491 130.394, 26.935 135.757 C 27.874 139.245, 28.502 140, 30.466 140 C 32.855 140, 37 135.889, 37 133.520 C 37 131.683, 40.396 129, 42.722 129 C 45.104 129, 46.236 131.205, 45.458 134.329 C 45.030 136.052, 45.578 136.789, 48.109 137.900 C 52.150 139.674, 53.886 138.698, 56.474 133.196 C 57.560 130.888, 59.022 129, 59.724 129 C 60.882 129, 61.430 127.723, 61.118 125.750 C 61.053 125.338, 61.702 125, 62.559 125 C 63.416 125, 63.840 124.550, 63.500 124 C 63.160 123.450, 63.471 122.993, 64.191 122.985 C 65.142 122.974, 65.090 122.704, 64 122 C 62.667 121.138, 62.667 121.024, 64 120.971 C 64.825 120.938, 63.835 120.033, 61.801 118.958 C 59.766 117.884, 57.741 116.383, 57.301 115.624 C 55.723 112.903, 50.758 112.887, 47 115.589 M 122.189 125.039 C 119.399 127.638, 119.439 128.402, 122.465 130.385 C 127.103 133.424, 132 131.942, 132 127.500 C 132 122.856, 126.116 121.380, 122.189 125.039 M 122.631 140.209 C 121.169 141.974, 120.127 143.887, 120.315 144.459 C 120.504 145.032, 123.176 145.634, 126.253 145.798 C 131.432 146.073, 131.873 145.924, 132.174 143.798 C 132.554 141.122, 129.395 137, 126.965 137 C 126.044 137, 124.094 138.444, 122.631 140.209 M 85.275 143 C 85.172 144.364, 85.741 145, 87.062 145 C 88.128 145, 89 144.550, 89 144 C 89 143.450, 88.523 143, 87.941 143 C 87.359 143, 87.160 142.550, 87.500 142 C 87.840 141.450, 87.512 141, 86.772 141 C 86.031 141, 85.358 141.900, 85.275 143" stroke="none" fill="black" fill-rule="evenodd"/>
</svg>