<svg xmlns="http://www.w3.org/2000/svg" width="256" height="256" viewBox="0 0 256 256" version="1.1">
	<path d="M 113.073 27.635 C 111.933 29.084, 111 31.279, 111 32.512 C 111 35.616, 108.730 37.200, 104.284 37.200 C 99.080 37.200, 95.578 39.263, 93.559 43.518 C 92.191 46.400, 92.063 47.742, 92.921 50.204 C 93.697 52.429, 93.680 54.335, 92.861 57.070 C 92.026 59.855, 92.018 62.014, 92.829 65.234 C 93.873 69.381, 93.705 70.784, 91.393 77.250 C 90.447 79.895, 88.393 79.360, 85.867 75.813 C 83.662 72.717, 83.605 72.047, 83.875 52.389 C 84.135 33.487, 84.025 32.025, 82.213 30.213 C 80.410 28.410, 78.878 28.286, 60.584 28.461 L 40.896 28.649 38.198 31.345 C 35.515 34.027, 35.497 34.138, 35 51.771 C 34.552 67.657, 34.266 69.945, 32.250 73.781 C 30.562 76.992, 30 79.747, 30 84.808 C 30 91.736, 30.736 93.568, 35.684 98.957 C 38.323 101.832, 39.501 108.171, 38.562 114.438 C 38.196 116.879, 37.906 122.616, 37.919 127.188 C 37.934 132.430, 37.152 138.644, 35.804 144.015 C 34.474 149.310, 33.930 153.585, 34.366 155.323 C 34.993 157.820, 35.451 158.084, 38.684 157.808 C 43.262 157.418, 45.633 154.355, 46.999 147.070 C 48.222 140.541, 50.085 138.255, 54.887 137.384 C 56.874 137.024, 60.170 135.890, 62.210 134.865 C 67.473 132.219, 68.533 132.497, 69.842 136.866 C 71.452 142.239, 71.339 142.946, 68.112 147.706 C 66.168 150.575, 65.416 152.725, 65.749 154.467 C 66.279 157.241, 71.254 162, 73.622 162 C 75.839 162, 79.842 157.542, 80.505 154.336 C 80.827 152.776, 81.501 149.925, 82.001 148 C 82.502 146.075, 82.677 141.350, 82.390 137.500 C 82.104 133.650, 81.893 130.050, 81.922 129.500 C 81.951 128.950, 82.196 125.575, 82.466 122 C 82.736 118.425, 83.039 112.350, 83.140 108.500 C 83.358 100.208, 84.071 98.450, 87.573 97.571 C 89.759 97.022, 91.012 97.673, 95.056 101.456 C 97.728 103.955, 99.461 106, 98.907 106 C 98.352 106, 97.962 108.134, 98.039 110.750 C 98.116 113.362, 97.863 117.346, 97.477 119.602 C 96.825 123.419, 97.140 124.228, 101.998 131.215 C 106.514 137.711, 107.126 139.151, 106.528 141.871 C 105.734 145.487, 103.230 147.126, 97.521 147.766 C 95.310 148.014, 92.938 148.673, 92.250 149.231 C 90.364 150.761, 90.749 154.749, 93 157 C 94.816 158.816, 96.406 159.009, 110.250 159.096 C 118.638 159.149, 133.255 159.369, 142.734 159.586 L 159.968 159.978 161.650 157.412 C 165.090 152.161, 159.297 146.005, 150.911 146.002 C 148.035 146, 147.090 145.493, 146.161 143.453 C 144.249 139.257, 144.783 137.511, 149.540 132.403 C 156.546 124.880, 157.330 123.333, 156.529 118.612 C 156.145 116.351, 155.600 113.086, 155.319 111.358 C 154.909 108.848, 153.976 107.843, 150.674 106.358 C 148.400 105.336, 146.194 104.613, 145.770 104.750 C 145.347 104.888, 145 104.100, 145 103 C 145 100.459, 146.054 100.470, 148.811 103.039 C 150.015 104.160, 151 104.706, 151 104.252 C 151 103.797, 151.979 103.352, 153.175 103.262 C 161.015 102.671, 163.569 97.995, 159.937 90.877 C 157.819 86.725, 157.803 86.449, 159.418 81.957 C 160.335 79.408, 161.023 75.112, 160.948 72.411 C 160.872 69.710, 161.052 61.822, 161.348 54.882 L 161.885 42.264 158.933 39.436 C 156.765 37.359, 154.856 36.554, 151.741 36.403 C 149.408 36.290, 147.168 36.153, 146.763 36.099 C 146.357 36.044, 144.911 34.236, 143.550 32.079 C 142.189 29.923, 140.179 27.874, 139.083 27.526 C 136.619 26.744, 132.321 29.413, 131.407 32.293 C 131.038 33.455, 130.137 35.006, 129.404 35.739 C 128.294 36.849, 127.731 36.731, 126.036 35.036 C 124.916 33.916, 124 32.386, 124 31.635 C 124 29.157, 119.927 25, 117.500 25 C 116.147 25, 114.263 26.121, 113.073 27.635 M 49.569 41.532 C 47.658 42.485, 47.490 43.494, 47.373 54.740 C 47.303 61.437, 46.982 67.603, 46.660 68.443 C 46.304 69.373, 46.867 70.394, 48.101 71.054 C 51.741 73.002, 52.901 70.746, 52.811 61.900 C 52.749 55.729, 53.112 53.534, 54.439 52.068 C 56.957 49.285, 60.600 48.717, 64.391 50.515 C 67.100 51.801, 67.620 52.537, 67.236 54.544 C 66.978 55.895, 66.405 57, 65.964 57 C 64.759 57, 61.855 66.459, 62.525 68.203 C 62.844 69.037, 64.207 70.308, 65.553 71.028 C 66.899 71.749, 68 72.712, 68 73.169 C 68 73.626, 68.702 74, 69.559 74 C 70.416 74, 70.871 73.601, 70.570 73.113 C 70.269 72.626, 70.611 71.738, 71.331 71.140 C 72.855 69.875, 72.657 65.343, 70.748 57.810 C 70.006 54.882, 69.707 51.154, 70.083 49.500 C 71.947 41.285, 71.098 40.500, 60.354 40.500 C 55.561 40.500, 50.707 40.964, 49.569 41.532 M 108.631 50.702 C 108.284 51.049, 108 52.158, 108 53.167 C 108 55.349, 110.272 55.582, 111.942 53.570 C 112.888 52.429, 112.737 51.930, 111.196 51.105 C 110.133 50.536, 108.979 50.355, 108.631 50.702 M 144.097 51.383 C 143.205 52.458, 143.327 52.911, 144.642 53.416 C 146.625 54.177, 148.525 52.658, 147.554 51.087 C 146.647 49.619, 145.478 49.719, 144.097 51.383 M 106.548 67.567 C 104.846 70.164, 105.340 71.859, 108.500 74.260 C 109.976 75.382, 113.771 74.229, 116.025 71.975 C 118.320 69.680, 118.482 69.009, 116.750 68.978 C 116.063 68.966, 114.375 68.076, 113 67 C 109.684 64.406, 108.554 64.505, 106.548 67.567 M 141.198 67.433 L 137.895 69.768 141.066 70.873 C 142.810 71.481, 145.312 71.709, 146.626 71.379 C 148.530 70.901, 148.970 70.193, 148.795 67.890 C 148.519 64.264, 145.902 64.107, 141.198 67.433 M 125.041 68.433 L 122.582 69.794 126.643 71.011 C 129.815 71.961, 131.198 71.964, 132.955 71.024 L 135.206 69.819 132.489 68.410 C 129.170 66.688, 128.186 66.691, 125.041 68.433 M 88.618 83.387 C 87.744 86.869, 89.600 91.367, 91.596 90.602 C 92.458 90.271, 93.352 90, 93.582 90 C 94.703 90, 93.816 84.996, 92.571 84.300 C 91.785 83.860, 91.144 83.061, 91.146 82.525 C 91.155 80.397, 89.201 81.063, 88.618 83.387 M 44.694 83.465 C 43.173 84.223, 42.500 85.470, 42.500 87.530 C 42.500 90.248, 42.797 90.504, 46 90.553 C 47.925 90.582, 51.300 90.211, 53.500 89.729 C 56.796 89.006, 58.556 89.289, 63.498 91.334 C 66.797 92.699, 69.722 93.519, 69.998 93.158 C 70.274 92.796, 71.379 92.014, 72.453 91.421 C 75.167 89.921, 75.252 85.448, 72.591 84.142 C 69.575 82.663, 47.384 82.124, 44.694 83.465 M 107.534 84.201 C 106.453 84.828, 104.576 86.333, 103.363 87.546 L 101.158 89.751 103.626 90.876 C 106.744 92.296, 109.933 92.294, 116.940 90.869 C 120.789 90.086, 126.100 90.012, 134.201 90.630 C 147.977 91.681, 151.742 91.058, 151.504 87.764 C 151.354 85.681, 150.795 85.476, 144.510 85.201 C 139.723 84.991, 137.432 85.290, 136.855 86.201 C 136.221 87.200, 136.027 87.211, 136.015 86.250 C 136.004 85.327, 133.137 85, 125.059 85 C 118.844 85, 113.851 84.568, 113.500 84 C 112.688 82.686, 109.989 82.777, 107.534 84.201 M 61.753 101.052 C 59.693 101.400, 57.218 102.398, 56.253 103.271 C 55.289 104.143, 54.163 104.890, 53.750 104.929 C 52.316 105.065, 52.509 106.311, 54 106.538 C 54.825 106.665, 58.066 107.987, 61.201 109.478 L 66.903 112.188 64.948 114.286 C 62.806 116.586, 61.314 117.048, 55.881 117.097 C 51.587 117.135, 49.611 120.002, 51.295 123.750 C 52.207 125.781, 53.006 126, 59.492 126 C 66.136 126, 66.763 125.816, 67.788 123.566 C 68.579 121.830, 68.587 121.029, 67.814 120.771 C 67.160 120.553, 67.406 119.737, 68.438 118.705 C 69.375 117.767, 69.645 117, 69.036 117 C 68.265 117, 68.233 116.433, 68.930 115.131 C 69.480 114.104, 69.710 113.043, 69.441 112.774 C 69.172 112.505, 69.574 111.768, 70.336 111.136 C 71.427 110.231, 71.506 109.056, 70.712 105.582 C 69.591 100.684, 68.176 99.968, 61.753 101.052 M 105 103.500 C 105 105.864, 105.300 106, 110.500 106 C 115.386 106, 116 105.770, 116 103.941 C 116 102.809, 116.450 102.160, 117 102.500 C 117.550 102.840, 118 102.641, 118 102.059 C 118 101.422, 115.408 101, 111.500 101 C 105.233 101, 105 101.090, 105 103.500 M 129 103.639 L 129 106.278 135.250 105.591 C 138.688 105.213, 142.063 104.851, 142.750 104.786 C 143.438 104.720, 144 103.842, 144 102.833 C 144 101.219, 143.106 101, 136.500 101 C 129.061 101, 129 101.022, 129 103.639 M 129.591 113.853 C 129.301 114.322, 125.562 114.796, 121.282 114.904 C 111.908 115.143, 109.576 116.576, 112.997 119.997 C 114.783 121.783, 115.814 122.062, 118.354 121.449 C 121.639 120.657, 124.167 120.673, 132.500 121.536 C 136.940 121.996, 137.690 121.786, 139.192 119.665 C 140.837 117.344, 140.808 117.241, 138.192 116.022 C 136.712 115.331, 134.719 114.369, 133.764 113.883 C 131.578 112.771, 130.265 112.762, 129.591 113.853 M 120.250 135.108 C 118.424 135.641, 117 136.724, 117 137.578 C 117 139.576, 119.483 144.326, 121.327 145.857 C 124.313 148.335, 135.127 147.632, 133.539 145.063 C 133.255 144.603, 133.692 143.671, 134.511 142.991 C 136.505 141.336, 136.392 138.654, 134.250 136.777 C 131.988 134.797, 124.409 133.893, 120.250 135.108" stroke="none" fill="black" fill-rule="evenodd"/>
</svg>