<svg xmlns="http://www.w3.org/2000/svg" width="256" height="256" viewBox="0 0 256 256" version="1.1">
	<path d="M 90.073 27.635 C 88.933 29.084, 88 31.317, 88 32.596 C 88 33.875, 87.078 35.781, 85.951 36.831 C 84.130 38.527, 81.819 38.795, 65.201 39.229 C 45.005 39.756, 41.397 40.568, 40.329 44.826 C 39.087 49.772, 40.611 50.437, 55.105 51.270 C 71.975 52.241, 128.279 52.317, 141.335 51.388 C 151.708 50.649, 154.012 49.609, 153.985 45.679 C 153.941 39.473, 150.828 38.679, 126.174 38.583 C 106.264 38.506, 104.746 38.371, 103.420 36.559 C 102.639 35.491, 102 33.644, 102 32.455 C 102 29.436, 97.608 25, 94.620 25 C 93.137 25, 91.314 26.056, 90.073 27.635 M 68.500 57.491 C 67.950 57.675, 66.249 58.101, 64.719 58.439 C 59.546 59.582, 56.493 67.905, 58.912 74.268 C 59.413 75.587, 60.099 78.429, 60.435 80.583 C 61.716 88.782, 61.323 88.551, 76.750 90.200 C 77.438 90.273, 78 90.960, 78 91.726 C 78 92.491, 77.581 92.859, 77.069 92.543 C 76.557 92.226, 75.856 92.425, 75.510 92.984 C 74.769 94.182, 56.410 94.283, 50.419 93.122 C 46.203 92.304, 42.097 93.225, 40.831 95.273 C 40.432 95.919, 40.531 96.710, 41.051 97.032 C 42.415 97.875, 44.262 108.820, 43.531 111.732 C 43.191 113.089, 42.932 123.458, 42.956 134.775 C 42.992 151.695, 43.277 155.774, 44.562 157.736 C 46.575 160.808, 50.598 160.448, 53.187 156.964 C 54.890 154.671, 55.069 152.468, 55.047 133.964 C 55.033 122.709, 54.972 112.442, 54.912 111.150 C 54.851 109.857, 55.262 108.338, 55.826 107.774 C 56.494 107.106, 70.706 106.763, 96.556 106.790 C 128.282 106.824, 136.526 107.100, 137.584 108.166 C 138.562 109.152, 138.708 110.949, 138.147 115.058 C 137.729 118.114, 137.679 121.714, 138.036 123.058 C 140.004 130.466, 136.103 142.889, 131.053 145.297 C 127.157 147.155, 127.175 151.147, 131.098 155.458 C 134.937 159.677, 138.423 160.052, 143.408 156.784 C 148.244 153.615, 149.032 151.861, 150.051 142.019 C 150.550 137.189, 151.433 131.991, 152.013 130.467 C 153.610 126.265, 153.566 100.386, 151.957 98.449 C 149.783 95.828, 144.060 94, 138.033 94 C 133.580 94, 131.908 93.556, 130.500 92 C 128.835 90.160, 128.826 90, 130.390 90 C 131.326 90, 133.195 88.895, 134.545 87.545 C 136.834 85.256, 137 84.395, 137 74.768 C 137 63.434, 136.164 61.170, 130.989 58.494 C 128.607 57.263, 122.951 57.014, 98.800 57.079 C 82.685 57.122, 69.050 57.308, 68.500 57.491 M 72.616 71.558 C 71.136 75.416, 78.146 76.893, 101.468 77.637 C 119.707 78.219, 119.735 78.217, 121.346 75.916 C 122.790 73.854, 122.800 73.437, 121.442 71.936 C 120.100 70.453, 117.219 70.269, 96.486 70.347 C 80.136 70.408, 72.917 70.774, 72.616 71.558 M 83.250 89.731 C 82.013 89.956, 81 90.734, 81 91.461 C 81 93.102, 84.527 93.999, 88.500 93.369 C 90.150 93.107, 92.063 92.842, 92.750 92.780 C 94.942 92.582, 94.090 90.432, 91.750 90.257 C 90.513 90.165, 88.600 89.917, 87.500 89.706 C 86.400 89.496, 84.487 89.507, 83.250 89.731 M 95 90.759 C 95 92.307, 98.500 93.997, 101.679 93.985 C 105.755 93.968, 108.924 92.591, 107.700 91.367 C 106.951 90.618, 95 90.045, 95 90.759 M 113.079 91.583 C 113.127 92.748, 113.364 92.985, 113.683 92.188 C 113.972 91.466, 113.936 90.603, 113.604 90.271 C 113.272 89.939, 113.036 90.529, 113.079 91.583 M 116.166 90.876 C 115.092 91.557, 115.141 91.840, 116.416 92.329 C 117.418 92.714, 118 92.398, 118 91.469 C 118 89.769, 117.942 89.750, 116.166 90.876 M 75 110.899 C 75 111.505, 74.335 112, 73.523 112 C 71.579 112, 69.012 116.005, 68.992 119.069 C 68.878 136.932, 70.783 148.882, 73.789 149.156 C 76.935 149.441, 80.490 148.874, 81.450 147.932 C 81.972 147.419, 85.572 146.992, 89.450 146.983 C 93.327 146.973, 99.650 146.264, 103.500 145.406 C 107.350 144.549, 112.580 143.888, 115.122 143.937 C 120.697 144.046, 123.688 141.886, 124.353 137.270 C 124.878 133.631, 122.013 129.029, 119.177 128.958 C 118.195 128.934, 118.900 128.170, 120.881 127.115 C 125.486 124.661, 126.934 121.744, 125.625 117.560 C 124.731 114.703, 123.939 114.110, 119.548 113.009 C 116.772 112.312, 113.949 111.304, 113.275 110.769 C 112.594 110.228, 109.929 110.080, 107.275 110.436 C 104.649 110.788, 101.487 111.067, 100.250 111.055 C 99.013 111.043, 97.325 111.069, 96.500 111.112 C 91.839 111.356, 83.890 111.050, 79.750 110.467 C 76.555 110.018, 75 110.159, 75 110.899 M 89.500 126.675 C 84.852 127.691, 82 129.341, 82 131.014 C 82 133.555, 83.942 134, 95.017 134 C 105.422 134, 110 132.971, 110 130.632 C 110 128.891, 108.639 128.338, 102.378 127.536 C 93.079 126.346, 91.490 126.240, 89.500 126.675" stroke="none" fill="black" fill-rule="evenodd"/>
</svg>