<svg xmlns="http://www.w3.org/2000/svg" width="256" height="256" viewBox="0 0 256 256" version="1.1">
	<path d="M 38.315 30.954 C 34.265 32.684, 33.768 35.291, 33.948 53.892 C 34.041 63.576, 33.845 78.567, 33.513 87.204 C 32.828 104.990, 33.118 105.828, 40.685 107.929 C 47.388 109.791, 67.025 108.425, 67.819 106.043 C 68.010 105.469, 68.879 105, 69.750 105 C 70.621 105, 71.081 105.252, 70.773 105.561 C 70.464 105.869, 71.289 107.198, 72.606 108.515 C 75.657 111.566, 75.729 116.328, 72.794 121 C 70.442 124.744, 69.852 128.094, 71.360 129.148 C 71.870 129.504, 72.498 133.104, 72.757 137.148 L 73.226 144.500 68.863 146 C 63.800 147.741, 62.970 150.027, 65.481 155.318 C 67.952 160.526, 70.845 161.632, 75.608 159.190 C 81.965 155.931, 83.650 153.326, 86.054 143.039 C 87.870 135.271, 88.171 131.715, 87.734 123.168 C 87.344 115.521, 87.572 111.874, 88.595 109.427 C 90.246 105.476, 89.272 102.005, 85.841 99.601 C 82.637 97.357, 76.854 97.556, 74.230 100 C 73.050 101.100, 71.277 101.964, 70.292 101.921 C 69.130 101.870, 68.964 101.657, 69.820 101.314 C 70.780 100.931, 70.571 100.388, 69.053 99.325 C 67.906 98.521, 67.169 97.535, 67.417 97.134 C 67.665 96.733, 67.490 95.792, 67.027 95.044 C 66.546 94.266, 66.666 92.632, 67.308 91.223 C 68.352 88.932, 68.819 88.796, 74.037 89.270 C 80.515 89.857, 83 88.841, 83 85.605 C 83 82.741, 80.661 80.643, 75.500 78.878 C 73.300 78.126, 71.275 77.283, 71 77.005 C 70.725 76.727, 69.678 76.050, 68.673 75.500 C 67.668 74.950, 66.880 74.162, 66.923 73.750 C 66.965 73.338, 67 72.150, 67 71.111 C 67 69.717, 67.982 69.043, 70.750 68.537 C 76.356 67.513, 79 65.439, 79 62.066 C 79 59.226, 77.515 57.578, 70.562 52.703 C 67.482 50.543, 67.153 46.524, 69.934 45.035 C 70.998 44.466, 73.444 44, 75.369 44 C 77.295 44, 80.053 43.550, 81.498 43.001 C 85.433 41.505, 84.695 36.367, 80.102 33.282 C 76.975 31.182, 75.610 31, 62.992 31 C 55.450 31, 47.304 30.780, 44.890 30.510 C 42.475 30.241, 39.517 30.441, 38.315 30.954 M 122.646 31.178 C 121.746 31.682, 120.727 33.853, 120.384 36.001 C 119.555 41.182, 117.643 42.625, 110.709 43.300 C 100.831 44.262, 95.681 48.780, 99.567 53.074 C 100.904 54.552, 102.654 55, 107.084 55 C 114.526 55, 116.699 56.748, 114.511 60.978 C 113.701 62.545, 110.938 65.554, 108.372 67.664 C 97.879 76.290, 95.962 78.557, 96.563 81.631 C 96.975 83.742, 96.446 85.410, 94.561 87.944 C 90.907 92.858, 91.165 97.070, 95.408 101.766 L 98.816 105.539 98.934 118.780 C 98.999 126.063, 99.545 133.102, 100.146 134.422 C 101.633 137.686, 106.494 138.488, 112.476 136.457 C 116.115 135.221, 117.857 135.103, 120.234 135.932 C 125.456 137.752, 129.418 137.249, 132.068 134.428 C 134.256 132.099, 134.503 130.908, 134.688 121.797 C 134.890 111.846, 134.860 111.706, 131.902 108.748 C 129.167 106.013, 128.554 105.826, 124.706 106.555 C 118.744 107.684, 114.067 107.362, 112.150 105.689 C 111.242 104.898, 109.178 103.574, 107.562 102.748 L 104.623 101.247 109.714 100.155 C 113.547 99.333, 116.497 99.375, 121.653 100.326 C 126.089 101.145, 130.603 101.313, 134.472 100.803 C 138.984 100.209, 140.774 100.345, 141.789 101.360 C 143.056 102.628, 145.180 113.789, 144.406 115.117 C 144.208 115.457, 143.839 119.579, 143.585 124.279 C 143.332 128.979, 142.636 134.639, 142.038 136.858 C 140.987 140.763, 137.049 145, 134.472 145 C 131.258 145, 131.939 150.658, 135.763 155.723 C 139.268 160.366, 143.858 161.022, 149.007 157.614 C 153.251 154.805, 153.691 153.736, 154.401 144.500 C 154.655 141.200, 155.104 136.700, 155.400 134.500 C 156.277 127.968, 156.841 122.076, 157.586 111.645 C 158.185 103.246, 158.637 101.416, 160.645 99.249 C 164.087 95.535, 163.643 92.480, 158.991 87.874 C 155.576 84.493, 155.141 83.605, 156.057 81.893 C 159.287 75.858, 151.557 67.859, 138.355 63.578 C 134.710 62.396, 133.045 61.278, 132.644 59.748 C 132.334 58.560, 132.239 57.428, 132.434 57.233 C 133.301 56.366, 145.226 55.219, 148.680 55.671 C 153.048 56.242, 157.778 54.741, 158.633 52.513 C 159.645 49.878, 158.143 46.386, 155.477 45.171 C 154.063 44.527, 148.857 44, 143.907 44 C 135.687 44, 134.697 43.788, 132.455 41.545 C 131.033 40.124, 129.994 37.914, 129.985 36.295 C 129.976 34.758, 129.639 33.011, 129.235 32.412 C 128.151 30.807, 124.523 30.128, 122.646 31.178 M 46.408 45.500 C 44.908 47.790, 44.904 48.204, 46.358 50.424 C 48.748 54.072, 51.720 54.612, 54.585 51.920 C 58.984 47.787, 57.233 43, 51.323 43 C 48.931 43, 47.604 43.675, 46.408 45.500 M 47.750 68.080 C 45.152 69.593, 45.596 73.537, 48.635 75.927 C 51.337 78.053, 54 78.661, 54 77.153 C 54 76.687, 54.965 75.875, 56.144 75.349 C 59.385 73.903, 59.422 69.747, 56.208 68.230 C 53.076 66.752, 50.120 66.700, 47.750 68.080 M 123.308 75.895 C 114.597 79.109, 108.492 84.832, 112.250 86.261 C 114.217 87.009, 142.746 85.592, 143.634 84.702 C 145.649 82.681, 137.065 75.169, 131.923 74.455 C 129.901 74.173, 126.376 74.763, 123.308 75.895 M 47.114 88.641 C 45.929 89.980, 45.963 90.699, 47.348 93.603 C 49.210 97.507, 52.404 98.119, 55.755 95.212 C 57.419 93.769, 57.607 93.046, 56.731 91.462 C 54.296 87.062, 49.705 85.716, 47.114 88.641 M 112.764 116.250 C 110.572 117.943, 110.334 120.765, 112.005 125.250 C 113.664 129.704, 117.579 130.608, 118.498 126.750 C 120.367 118.911, 119.559 115, 116.069 115 C 115.141 115, 113.654 115.563, 112.764 116.250 M 46.258 118.777 C 42.749 120.126, 41.440 120.199, 38.687 119.204 C 33.990 117.505, 32.834 117.671, 29.804 120.481 C 26.827 123.242, 25.444 129.294, 26.335 135.666 C 27.404 143.307, 29.361 145.120, 33.564 142.366 C 35.785 140.911, 36.615 139.294, 37.372 134.941 C 38.331 129.423, 40.804 127.220, 44.463 128.624 C 45.832 129.149, 46.092 130.072, 45.669 132.897 C 45.178 136.171, 45.449 136.706, 48.634 138.750 C 50.562 139.988, 52.975 141, 53.997 141 C 56.267 141, 59.493 137.067, 61.021 132.438 C 61.645 130.547, 62.699 129, 63.365 129 C 65.140 129, 65.287 123.144, 63.555 121.412 C 61.529 119.386, 55.564 116.984, 52.782 117.074 C 51.527 117.114, 48.591 117.881, 46.258 118.777" stroke="none" fill="black" fill-rule="evenodd"/>
</svg>