<svg xmlns="http://www.w3.org/2000/svg" width="256" height="256" viewBox="0 0 256 256" version="1.1">
	<path d="M 51.500 25.589 C 48.750 26.317, 43.473 26.932, 39.773 26.956 C 33.762 26.995, 32.875 27.261, 31.440 29.451 C 27.758 35.071, 32.087 37.932, 45.951 39.041 C 58.868 40.075, 62.898 38.267, 62.968 31.405 C 63.026 25.827, 58.767 23.668, 51.500 25.589 M 72.504 26.634 C 71.163 28.680, 70.927 30.393, 71.446 34.307 C 71.814 37.079, 72.529 40.121, 73.036 41.068 C 74.756 44.281, 71.871 45.260, 63.290 44.372 C 53.009 43.309, 49.445 43.643, 43.758 46.201 C 35.084 50.103, 32.717 59.829, 38.573 67.506 C 39.903 69.251, 41.452 71.998, 42.014 73.611 C 43.835 78.835, 55.969 82.485, 63.381 80.039 C 65.372 79.382, 67 78.430, 67 77.922 C 67 77.415, 67.900 77, 69 77 C 70.100 77, 70.947 77.338, 70.882 77.750 C 70.486 80.252, 71.319 81, 74.500 81 C 77.635 81, 78.208 81.443, 77.915 83.638 C 77.868 83.989, 78.407 84.633, 79.112 85.069 C 81.123 86.312, 76.175 87.187, 66.082 87.375 C 58.130 87.523, 56.912 87.795, 55.159 89.816 C 53.488 91.744, 53.339 92.645, 54.187 95.714 C 55.022 98.740, 54.827 100.057, 52.998 103.719 C 51.402 106.915, 51.022 108.833, 51.596 110.801 C 52.030 112.285, 52.498 116.200, 52.636 119.500 C 52.775 122.800, 52.932 126.400, 52.985 127.500 C 53.038 128.600, 52.787 130.967, 52.426 132.759 C 51.496 137.382, 53.220 139, 59.075 139 C 63.569 139, 66.036 139.641, 71.750 142.293 C 74.252 143.455, 74.750 145, 72.622 145 C 70.853 145, 68.681 147.619, 68.282 150.235 C 67.890 152.806, 72.393 160.605, 75.110 162.059 C 76.235 162.661, 77.770 162.919, 78.520 162.631 C 83.370 160.770, 84.962 149.121, 80.834 145.704 C 78.892 144.096, 78.824 143.748, 80.185 142.386 C 82.920 139.651, 88.997 138.119, 92.423 139.300 C 95.891 140.496, 102.847 140.578, 107.831 139.482 C 112.044 138.555, 116.339 140.597, 115.657 143.203 C 115.399 144.191, 115.622 145, 116.153 145 C 116.684 145, 116.856 145.423, 116.537 145.940 C 115.732 147.243, 119.706 150.804, 124.519 153.092 C 126.730 154.143, 130.651 157.028, 133.233 159.502 C 138.499 164.548, 141.319 165.110, 145.371 161.922 C 148.677 159.323, 150.168 156.606, 151.094 151.500 C 154.797 131.068, 154.717 130.078, 149.161 127.573 C 146.012 126.152, 144.415 126.051, 138.992 126.924 C 131.234 128.173, 129.924 127.320, 132.991 123.013 L 135.228 119.871 132.864 117.194 C 131.564 115.722, 130.167 114.265, 129.760 113.956 C 129.353 113.647, 130.687 112.792, 132.723 112.055 C 136.528 110.680, 139.832 108.086, 139.071 107.071 C 137.809 105.388, 136.022 104, 135.118 104 C 134.555 104, 132.956 103.481, 131.565 102.847 C 129.226 101.782, 129.166 101.596, 130.767 100.379 C 131.720 99.656, 133.915 99.049, 135.644 99.032 C 138.679 99.001, 145 94.444, 145 92.287 C 145 89.744, 140.741 86.998, 136.711 86.942 C 134.395 86.911, 130.700 86.553, 128.500 86.147 C 126.300 85.741, 122.700 85.721, 120.500 86.103 C 106.537 88.526, 96.109 88.875, 91.561 87.071 L 88.622 85.906 91.267 83.453 C 92.722 82.104, 94.382 81, 94.956 81 C 95.530 81, 96.004 80.662, 96.008 80.250 C 96.012 79.838, 97.138 78.980, 98.509 78.344 C 99.880 77.707, 100.750 77.595, 100.442 78.094 C 100.134 78.592, 100.499 79, 101.252 79 C 102.006 79, 103.495 79.797, 104.561 80.772 C 106.667 82.696, 113.173 83.647, 115.225 82.331 C 117.754 80.709, 125.615 79.087, 131.161 79.044 C 136.250 79.004, 137.078 79.303, 139.347 82 C 141.684 84.778, 142.362 85, 148.501 85 C 156.870 85, 159.005 83.924, 158.985 79.715 C 158.976 77.947, 158.639 75.994, 158.235 75.375 C 157.351 74.022, 149.992 70, 148.400 70 C 145.775 70, 142 65.810, 142 62.895 C 142 58.435, 144.491 53.370, 147.666 51.376 C 153.821 47.511, 158 43.748, 158 42.071 C 158 41.102, 157.052 39.453, 155.894 38.405 C 154.039 36.726, 152.447 36.535, 142.497 36.794 L 131.206 37.088 127.515 32.583 C 125.485 30.106, 122.941 27.799, 121.863 27.456 C 119.325 26.651, 115.239 29.342, 113.744 32.803 C 111.599 37.772, 105.065 46.818, 102.093 48.934 C 99.508 50.774, 98.264 50.951, 91.826 50.396 C 84.217 49.740, 80 47.995, 80 45.503 C 80 43.445, 85.229 41, 89.629 41 C 97.778 41, 102.713 37.159, 100.891 32.235 C 99.908 29.576, 96.334 28.009, 91.185 27.978 C 89.158 27.966, 85.538 27.066, 83.141 25.978 C 77.226 23.294, 74.586 23.457, 72.504 26.634 M 123.445 51.174 C 122.162 55.214, 128.459 57.578, 132.546 54.590 C 134.437 53.207, 134.438 53.142, 132.582 51.090 C 129.938 48.169, 124.383 48.219, 123.445 51.174 M 52.258 56.660 C 51.355 57.024, 51.296 57.685, 52.043 59.081 C 53.250 61.335, 58.507 61.726, 59.315 59.622 C 60.367 56.881, 56.122 55.099, 52.258 56.660 M 73 58.500 C 71.625 59.286, 69.713 59.945, 68.750 59.965 C 66.125 60.018, 66.635 62.276, 70 65.500 C 71.650 67.081, 73 68.917, 73 69.580 C 73 70.243, 73.775 71.083, 74.722 71.447 C 76.197 72.013, 76.233 72.241, 74.972 73.038 C 73.855 73.745, 74.162 73.973, 76.250 73.985 C 77.763 73.993, 79 73.580, 79 73.067 C 79 72.554, 79.855 71.863, 80.901 71.532 C 82.875 70.905, 84.496 66.872, 84.076 63.631 C 83.786 61.395, 79.115 57.062, 77 57.067 C 76.175 57.069, 74.375 57.714, 73 58.500 M 98.124 61.570 C 96.523 63.605, 96.303 64.666, 97.064 66.669 C 98.355 70.064, 100.278 72.577, 101.500 72.468 C 103.471 72.292, 110.101 69.042, 111.650 67.493 C 113.091 66.052, 113.066 65.730, 111.368 63.854 C 109.028 61.268, 104.707 59, 102.122 59 C 101.035 59, 99.236 60.156, 98.124 61.570 M 66.750 98.572 C 63.263 100.464, 63.300 101.233, 67.027 104.369 C 70.066 106.927, 71.919 106.957, 75 104.500 C 75.825 103.842, 77.287 103.025, 78.250 102.683 C 81.276 101.610, 80.215 99.154, 76.250 98.053 C 71.381 96.700, 70.068 96.772, 66.750 98.572 M 81.079 100.149 C 81.019 101.400, 82.090 101.885, 85.514 102.158 C 87.996 102.355, 90.809 102.207, 91.764 101.829 C 92.729 101.446, 90.984 101.109, 87.833 101.070 C 84.293 101.026, 81.977 100.531, 81.662 99.750 C 81.345 98.963, 81.129 99.111, 81.079 100.149 M 110.328 100.413 C 108.214 102.823, 113.104 104.152, 118.194 102.552 C 121.034 101.659, 121.734 101.164, 120.250 101.099 C 119.013 101.044, 118 100.550, 118 100 C 118 98.520, 111.690 98.860, 110.328 100.413 M 68.684 112.467 C 67.123 113.627, 67.052 114.110, 68.175 115.908 C 69.884 118.645, 73.972 118.606, 76.957 115.826 C 79.170 113.763, 79.193 113.617, 77.395 112.974 C 72.807 111.335, 70.396 111.195, 68.684 112.467 M 89.500 111.576 C 88.950 111.719, 86.813 112.118, 84.750 112.463 C 82.688 112.808, 81 113.490, 81 113.978 C 81 115.026, 84.477 116.271, 88 116.485 C 90.366 116.629, 94 115.124, 94 114 C 94 113.142, 90.574 111.297, 89.500 111.576 M 112.575 112.453 L 109.651 113.743 111.973 114.986 C 113.831 115.980, 115.114 115.970, 118.397 114.937 C 121.445 113.978, 121.986 113.538, 120.500 113.226 C 119.400 112.995, 118.073 112.400, 117.550 111.903 C 116.401 110.811, 116.261 110.827, 112.575 112.453 M 70.710 127 C 71.041 128.265, 72.074 129, 73.523 129 C 75.320 129, 75.700 128.570, 75.290 127 C 74.959 125.735, 73.926 125, 72.477 125 C 70.680 125, 70.300 125.430, 70.710 127 M 83.942 128.057 C 82.940 128.691, 83.798 128.974, 86.750 128.985 C 89.088 128.993, 91 128.618, 91 128.152 C 91 126.998, 85.729 126.927, 83.942 128.057 M 128.009 138.266 C 124.501 140.074, 124.453 142.246, 127.876 144.268 C 131.913 146.652, 135.561 146.466, 137.443 143.778 C 138.865 141.748, 138.848 141.407, 137.250 139.841 C 134.778 137.419, 130.925 136.762, 128.009 138.266 M 42.314 143.735 C 38.864 147.992, 37.625 154.375, 39.534 158.066 C 41.663 162.183, 43.317 162.585, 47.496 160.002 C 54.439 155.711, 57.890 148.813, 54.500 146 C 53.675 145.315, 53 143.910, 53 142.878 C 53 141.332, 52.248 141.003, 48.750 141.019 C 45.354 141.035, 44.061 141.581, 42.314 143.735 M 96.106 145.366 C 94.341 146.153, 94.005 146.900, 94.498 148.931 C 95.205 151.847, 98.653 154.945, 101.227 154.978 C 103.493 155.007, 106.242 150.730, 105.827 147.821 C 105.575 146.054, 104.677 145.394, 101.919 144.948 C 99.950 144.630, 97.334 144.818, 96.106 145.366" stroke="none" fill="black" fill-rule="evenodd"/>
</svg>