<svg xmlns="http://www.w3.org/2000/svg" width="256" height="256" viewBox="0 0 256 256" version="1.1">
	<path d="M 109.323 28.709 C 106.407 29.260, 105.198 30.892, 104.232 35.578 C 103.471 39.276, 103.098 39.604, 97.710 41.321 C 90.795 43.524, 89.527 45.389, 91.362 50.660 C 92.826 54.867, 92.831 54.673, 90.923 67.267 C 89.869 74.219, 89.843 76.965, 90.797 80.532 C 91.459 83.005, 92 86.576, 92 88.467 C 92 93.279, 93.540 96.135, 97.548 98.759 C 100.996 101.015, 101 101.028, 101 108.815 C 101 120.442, 98.154 128.276, 91.849 134 C 84.378 140.783, 82.284 151.255, 87.500 155.750 C 92.496 160.055, 95.776 158.526, 99.834 150 C 101.012 147.525, 103.765 143.250, 105.952 140.500 C 112.916 131.744, 113.007 131.434, 113.265 115.534 C 113.510 100.419, 114.034 98.749, 117.836 100.968 C 118.751 101.502, 119.147 101.953, 118.715 101.970 C 118.283 101.986, 118.452 102.976, 119.090 104.168 C 119.728 105.360, 120.184 108.623, 120.103 111.418 C 119.381 136.318, 120.016 143.810, 123.230 148.323 C 126.266 152.587, 136.428 157.057, 143.273 157.138 C 153.966 157.266, 161.483 154.900, 163.642 150.726 C 165.044 148.015, 165.089 146.717, 164.001 140.559 C 163.314 136.677, 162.131 131.272, 161.370 128.549 C 160.014 123.689, 155.752 118, 153.468 118 C 151.855 118, 149 114.664, 149 112.778 C 149 111.918, 148.397 110.982, 147.659 110.700 C 146.214 110.145, 143.531 111.429, 143.451 112.714 C 143.152 117.488, 138.627 120.941, 135.125 119.067 C 133.571 118.235, 132.980 116.932, 132.926 114.215 C 132.885 112.172, 132.642 109.375, 132.387 108 C 131.067 100.894, 134.569 98.201, 142.186 100.463 C 145.033 101.308, 147.660 102, 148.023 102 C 148.385 102, 149.824 99.862, 151.219 97.250 C 153.524 92.934, 153.856 90.764, 154.854 73.500 C 156.032 53.107, 155.544 48.097, 152.039 44.599 C 150.104 42.668, 149.015 42.526, 138.442 42.819 C 121.962 43.277, 116.618 41.128, 117.697 34.479 C 118.391 30.204, 114.736 27.686, 109.323 28.709 M 46.500 45.609 C 36.563 47.803, 34.282 50.218, 37.749 54.870 C 39.602 57.356, 40.246 57.516, 49.524 57.788 C 68.626 58.349, 81.170 53.545, 77.150 47.209 C 76.565 46.287, 72.354 45.810, 62.415 45.542 C 54.762 45.336, 47.600 45.366, 46.500 45.609 M 105.750 55.080 C 101.657 57.464, 105.500 63, 111.247 63 C 116.144 63, 117.363 55.868, 112.681 54.612 C 109.594 53.784, 107.763 53.908, 105.750 55.080 M 128.667 54.667 C 127.331 56.002, 128.049 59.734, 129.977 61.479 C 131.064 62.463, 133.590 63.320, 135.590 63.384 C 138.489 63.476, 139.661 62.925, 141.364 60.667 L 143.500 57.834 141.139 55.917 C 138.810 54.025, 130.174 53.159, 128.667 54.667 M 70.797 72.547 C 67.269 74.463, 64.488 74.583, 59.032 73.056 C 54.127 71.683, 31.927 72.476, 28.773 74.137 C 25.313 75.958, 24.798 78.654, 27.345 81.614 C 29.377 83.978, 30.551 84.385, 36.009 84.625 C 39.784 84.791, 42.677 85.425, 43.204 86.202 C 44.523 88.142, 43.490 95.653, 41.652 97.491 C 40.768 98.375, 38.459 102.439, 36.522 106.521 C 32.766 114.435, 31.856 121, 34.514 121 C 35.346 121, 36.809 121.400, 37.764 121.888 C 40.709 123.395, 51.234 125.381, 56.597 125.442 C 62.705 125.511, 65 123.906, 65 119.563 C 65 116.893, 64.421 116.095, 61.466 114.685 C 59.522 113.758, 57.327 113, 56.587 113 C 54.632 113, 52.814 107.865, 53.182 103.379 C 53.450 100.115, 54.015 99.262, 56.748 98 C 59.549 96.707, 59.917 96.121, 59.419 93.752 C 58.585 89.782, 63.877 84.504, 67.783 85.410 C 76.035 87.324, 77.673 87.267, 79.788 84.997 C 80.929 83.772, 82.173 80.935, 82.552 78.692 C 83.141 75.206, 82.917 74.351, 81.010 72.807 C 78.337 70.643, 74.486 70.545, 70.797 72.547 M 106.267 76.966 C 101.240 81.649, 102.682 87, 108.970 87 C 116.612 87, 120.168 84.062, 117.833 79.678 C 115.219 74.769, 109.951 73.534, 106.267 76.966 M 131.229 76.669 C 130.530 76.951, 129.335 78.386, 128.573 79.859 C 126.579 83.715, 128.488 86, 133.705 86 C 138.631 86, 141.396 83.427, 140.464 79.712 C 139.683 76.603, 135.127 75.101, 131.229 76.669 M 72.973 92.719 C 69.709 94.989, 67.159 97.950, 65.936 100.892 C 65.110 102.879, 65.770 104.993, 69.838 113.392 C 72.532 118.951, 75.075 124.625, 75.490 126 C 76.965 130.886, 80.975 133.563, 84.250 131.847 C 86.430 130.704, 86.418 129.358, 84.147 120 C 82.952 115.078, 82.585 111.351, 83.079 109.158 C 84.166 104.329, 83.455 100.632, 80.454 95.512 C 77.537 90.534, 76.611 90.189, 72.973 92.719 M 134.862 133.018 C 132.355 134.481, 131.655 138.825, 133.477 141.606 C 135.120 144.113, 138.390 144.795, 139.575 142.878 C 140.029 142.144, 142.097 141.971, 145.554 142.377 C 151.961 143.130, 154.005 142.467, 153.985 139.643 C 153.959 136.013, 152.720 135.177, 144.979 133.562 C 136.309 131.753, 136.966 131.788, 134.862 133.018" stroke="none" fill="black" fill-rule="evenodd"/>
</svg>