<svg xmlns="http://www.w3.org/2000/svg" width="256" height="256" viewBox="0 0 256 256" version="1.1">
	<path d="M 55.597 26.924 C 42.190 27.921, 42.122 28.012, 42.774 43.853 C 43.222 54.716, 43.075 56.142, 41.200 59.177 C 39.359 62.155, 39.194 63.572, 39.701 72.062 C 40.198 80.397, 40.001 82.210, 38.135 86.428 C 35.468 92.457, 35.410 96.990, 37.966 99.733 C 41.979 104.041, 46.692 103.172, 50.454 97.431 C 52.205 94.758, 55.377 94.303, 59.418 96.145 L 61.930 97.289 59.840 100.225 C 58.153 102.594, 57.870 104.037, 58.374 107.710 C 58.951 111.920, 58.731 112.556, 55.431 116.208 L 51.865 120.155 55.032 123.181 C 59.178 127.143, 59.778 129.591, 59.927 143.140 C 60.017 151.344, 60.436 154.864, 61.440 155.868 C 63.783 158.211, 75.520 157.742, 83.305 154.994 C 87.005 153.688, 90.835 151.917, 91.817 151.059 C 97.188 146.367, 100.066 146.017, 103.794 149.605 C 108.987 154.605, 114.483 156.331, 122.956 155.624 C 127.129 155.276, 131.990 154.576, 133.758 154.069 C 135.727 153.505, 137.195 153.506, 137.546 154.074 C 137.860 154.583, 139.503 155, 141.195 155 L 144.273 155 141.597 152.324 C 139.796 150.523, 139.168 149.134, 139.676 148.074 C 140.090 147.208, 140.340 144.363, 140.229 141.750 C 140.118 139.137, 139.954 135.313, 139.864 133.250 C 139.774 131.188, 140.038 127.891, 140.452 125.925 C 141.079 122.947, 140.812 121.914, 138.852 119.738 C 136.830 117.494, 135.476 117.060, 129.205 116.649 C 122.141 116.186, 118.431 114.730, 119.579 112.872 C 120.311 111.688, 126.784 109, 128.901 109 C 129.813 109, 131.220 108.014, 132.029 106.808 C 132.838 105.602, 134.536 103.534, 135.801 102.211 C 138.206 99.699, 139.281 99.651, 150.305 101.570 C 153.351 102.100, 154.392 101.859, 155.523 100.366 C 157.564 97.671, 157.315 92.670, 154.991 89.716 C 151.818 85.682, 140.132 83.738, 133.492 86.139 C 129.685 87.516, 120.684 86.448, 121.270 84.689 C 122.302 81.595, 136.275 76.689, 148 75.305 C 154.790 74.503, 156 73.543, 156 68.950 C 156 65.534, 155.540 64.690, 152.750 62.989 C 149.361 60.923, 143.088 60.331, 141.450 61.923 C 139.809 63.517, 129.596 64.965, 128.822 63.712 C 127.693 61.886, 129.902 59.009, 132.535 58.875 C 133.891 58.806, 135.338 58.673, 135.750 58.580 C 136.162 58.486, 138.133 58.082, 140.128 57.682 C 144.464 56.813, 149 52.902, 149 50.032 C 149 48.677, 147.854 47.421, 145.666 46.378 C 142.516 44.876, 141.947 44.919, 135.416 47.163 C 127.484 49.887, 120.677 49.915, 121.196 47.221 C 121.775 44.214, 127.731 41.188, 134.498 40.463 C 138.033 40.085, 141.673 39.228, 142.588 38.560 C 144.771 36.963, 144.709 32.441, 142.470 29.967 C 140.373 27.650, 137.646 27.497, 131.785 29.367 C 129.428 30.119, 125.001 31.257, 121.946 31.895 C 118.891 32.533, 114.166 34.512, 111.446 36.292 C 105.338 40.289, 104.809 43.395, 109.711 46.479 C 113.520 48.875, 113.606 49.398, 111 54.261 C 108.270 59.354, 108.452 60.480, 112.500 63.568 C 116.610 66.702, 116.951 69.464, 113.559 72.132 C 108.421 76.174, 109.801 81.789, 116.474 83.991 C 121.231 85.561, 120.011 87, 113.923 87 C 107.973 87, 100.411 83.400, 97.180 79.030 C 95.364 76.573, 95 74.735, 95 68.019 C 95 60.407, 94.862 59.894, 92.519 58.827 C 87.632 56.600, 87.447 50.899, 91.966 41.721 C 95.631 34.276, 95.335 30.458, 90.926 28.328 C 87.725 26.781, 68.040 25.999, 55.597 26.924 M 62.750 39.162 C 59.182 40.465, 58.905 44.633, 62.301 45.924 C 65.714 47.222, 74.009 45.991, 76.126 43.874 C 77.904 42.096, 77.894 41.979, 75.791 40.020 C 73.407 37.799, 67.539 37.413, 62.750 39.162 M 60.160 52.780 C 57.542 53.653, 59.266 55, 63 55 C 65.200 55, 67 54.601, 67 54.113 C 67 53.139, 62.005 52.165, 60.160 52.780 M 64.750 80.772 C 62.401 81.275, 62.533 82.717, 65 83.500 C 66.100 83.849, 67 84.479, 67 84.901 C 67 85.322, 67.675 85.667, 68.500 85.667 C 70.643 85.667, 70.419 81.334, 68.250 80.815 C 67.287 80.585, 65.713 80.565, 64.750 80.772 M 81.750 97.662 C 82.438 97.940, 83.563 97.940, 84.250 97.662 C 84.938 97.385, 84.375 97.158, 83 97.158 C 81.625 97.158, 81.063 97.385, 81.750 97.662 M 77 109.891 C 77 110.381, 75.399 110.627, 73.443 110.437 C 69.612 110.066, 65 111.386, 65 112.854 C 65 114.168, 70.163 116.029, 72.500 115.557 C 73.600 115.335, 75.255 115.119, 76.179 115.077 C 77.102 115.034, 78.564 114.293, 79.429 113.429 C 80.343 112.514, 81 112.331, 81 112.991 C 81 114.708, 85.264 113.756, 87.250 111.597 C 88.213 110.550, 89 109.538, 89 109.347 C 89 109.156, 86.300 109, 83 109 C 79.700 109, 77 109.401, 77 109.891 M 109 126.930 C 109 128.162, 108.186 128.987, 106.750 129.210 C 104.576 129.548, 104.585 129.577, 107 130.054 C 108.375 130.325, 111.075 130.258, 113 129.905 L 116.500 129.263 113.211 129.132 C 110.454 129.021, 110.130 128.775, 111.211 127.611 C 112.145 126.604, 112.702 126.535, 113.235 127.361 C 113.754 128.166, 113.974 128.117, 113.985 127.191 C 113.993 126.471, 114.450 126.160, 115 126.500 C 115.550 126.840, 116 126.641, 116 126.059 C 116 125.477, 114.425 125, 112.500 125 C 109.709 125, 109 125.391, 109 126.930 M 81 127.940 C 81 128.523, 80.025 129, 78.833 129 C 77.642 129, 76.964 129.297, 77.327 129.661 C 78.065 130.398, 99.107 130.227, 99.857 129.477 C 100.119 129.215, 98.121 128.966, 95.417 128.923 C 92.713 128.881, 89.825 128.674, 89 128.462 C 84.002 127.181, 81 126.985, 81 127.940 M 89 141.383 C 89 142.250, 93.968 142.636, 95.185 141.864 C 96.023 141.333, 95.140 141.025, 92.750 141.015 C 90.688 141.007, 89 141.173, 89 141.383 M 105.813 141.683 C 106.534 141.972, 107.397 141.936, 107.729 141.604 C 108.061 141.272, 107.471 141.036, 106.417 141.079 C 105.252 141.127, 105.015 141.364, 105.813 141.683 M 99.813 145.683 C 100.534 145.972, 101.397 145.936, 101.729 145.604 C 102.061 145.272, 101.471 145.036, 100.417 145.079 C 99.252 145.127, 99.015 145.364, 99.813 145.683" stroke="none" fill="black" fill-rule="evenodd"/>
</svg>