<svg xmlns="http://www.w3.org/2000/svg" width="256" height="256" viewBox="0 0 256 256" version="1.1">
	<path d="M 106.250 31.220 C 105.013 31.817, 103.966 33.024, 103.923 33.903 C 103.617 40.299, 101.920 42, 95.844 42 C 91.675 42, 90.477 42.466, 87.917 45.085 C 85.251 47.812, 84.911 48.827, 84.982 53.835 C 85.027 56.951, 84.749 61.975, 84.365 65 C 83.981 68.025, 83.768 72.750, 83.892 75.500 C 84.015 78.250, 84.090 82.975, 84.057 86 C 84.023 89.025, 84.458 92.633, 85.023 94.017 C 85.996 96.402, 86.994 97.016, 94.750 99.994 C 97.996 101.241, 98 101.252, 98.003 108.371 C 98.004 112.292, 97.267 118.541, 96.366 122.257 C 94.697 129.136, 92.994 131.402, 83.625 139.214 C 79.902 142.319, 79.902 145.930, 83.625 150.359 C 88.594 156.269, 91.451 156.105, 95.042 149.704 C 96.339 147.392, 98.249 144.600, 99.287 143.500 C 108.981 133.224, 111.899 126.143, 111.282 114.398 C 111.053 110.045, 111.335 105.250, 111.908 103.742 C 114.412 97.157, 119.568 103.275, 119.290 112.500 C 119.207 115.250, 119.592 123.575, 120.145 131 C 121.414 148.043, 122.992 151.362, 131.437 154.750 C 140.800 158.506, 158.526 157.171, 162.775 152.391 C 164.905 149.993, 165.027 149.126, 164.695 138.666 C 164.190 122.742, 162.484 120.163, 151.743 119.077 C 151.327 119.034, 150.043 117.915, 148.890 116.588 C 147.022 114.440, 146.449 114.296, 143.646 115.271 C 141.916 115.873, 139.905 116.958, 139.179 117.683 C 137.523 119.333, 135.864 119.354, 133.680 117.750 C 131.575 116.204, 130.484 107.487, 131.923 103.704 C 133.197 100.353, 135.605 100.230, 142.666 103.157 C 147.593 105.199, 148.007 105.225, 150.423 103.643 C 155.014 100.634, 157.139 94.788, 157.520 84.116 C 157.709 78.827, 158.126 71.800, 158.447 68.500 C 158.767 65.200, 158.737 59.149, 158.379 55.053 C 157.380 43.617, 157.202 43.527, 135.822 43.512 C 115.267 43.498, 113.480 42.923, 114.458 36.638 C 115.399 30.594, 112.085 28.407, 106.250 31.220 M 54.545 37.343 C 52.023 39.187, 53.300 43.445, 55.949 42.027 C 58.385 40.724, 59.170 38.386, 57.609 37.090 C 56.703 36.338, 55.820 36.411, 54.545 37.343 M 50.500 47.195 C 49.400 47.819, 48.275 48.644, 48 49.029 C 47.725 49.415, 44.949 51.163, 41.831 52.914 C 38.714 54.666, 35.624 56.748, 34.967 57.540 C 32.342 60.703, 31.356 65.910, 32.183 72.240 C 33.514 82.418, 33.143 99.280, 31.443 105.918 C 29.901 111.934, 29.906 111.984, 32.540 116.479 C 33.996 118.962, 37.233 122.796, 39.734 124.997 C 43.994 128.747, 44.668 128.998, 50.391 128.969 C 59.731 128.922, 71.259 127.169, 72.878 125.550 C 75.123 123.306, 78.320 110.125, 78.105 104 C 77.999 100.975, 77.750 91.300, 77.550 82.500 C 77.351 73.700, 76.958 65.375, 76.677 64 C 76.396 62.625, 76.129 60.520, 76.083 59.321 C 75.959 56.067, 73.638 54.323, 68.383 53.535 C 63.670 52.828, 60.096 51.048, 56.767 47.750 C 54.730 45.732, 53.303 45.606, 50.500 47.195 M 99.200 56.200 C 97.363 58.037, 97.772 61.808, 99.934 62.965 C 102.372 64.269, 111.542 64.315, 113.934 63.035 C 116.430 61.700, 115.483 57.541, 112.359 56.118 C 109.107 54.636, 100.711 54.689, 99.200 56.200 M 133.585 56.109 C 128.737 57.450, 127.886 59.884, 131.189 62.961 C 135.248 66.743, 145 64.699, 145 60.066 C 145 56.505, 139.300 54.529, 133.585 56.109 M 53.310 67.750 C 50.191 70.485, 49 73.475, 49 78.574 C 49 83.856, 50.727 85.916, 55.203 85.968 C 59.848 86.023, 62.913 83.973, 63.991 80.091 C 65.711 73.899, 65.266 69.300, 62.777 67.557 C 59.841 65.500, 55.782 65.583, 53.310 67.750 M 106.391 76.381 C 100.894 77.878, 97 80.939, 97 83.762 C 97 86.583, 99.584 87.650, 106.979 87.881 C 114.766 88.125, 118.004 86.580, 117.985 82.629 C 117.967 78.940, 117.266 77.702, 114.316 76.150 C 111.858 74.856, 112.004 74.852, 106.391 76.381 M 130.635 79.073 C 129.186 80.212, 128 81.957, 128 82.950 C 128 86.075, 130.473 87.117, 137.143 86.800 C 143.001 86.522, 143.529 86.302, 144.412 83.780 C 146.543 77.696, 136.673 74.323, 130.635 79.073 M 53 94.083 C 53 94.587, 51.845 95, 50.434 95 C 49.023 95, 46.947 95.493, 45.822 96.095 C 44.087 97.024, 43.873 97.806, 44.419 101.221 C 44.774 103.437, 45.505 106.076, 46.045 107.085 C 47.357 109.536, 52.645 111.948, 57.373 112.253 C 62.244 112.566, 64.929 109.444, 65.168 103.189 C 65.299 99.761, 64.806 98.351, 62.762 96.307 C 60.227 93.773, 53 92.126, 53 94.083 M 134.496 135.249 C 132.407 137.046, 131.911 138.145, 132.439 139.809 C 132.822 141.014, 133.892 142.010, 134.817 142.022 C 135.743 142.033, 139.875 142.201, 144 142.393 C 152.916 142.808, 154 142.496, 154 139.514 C 154 136.971, 151.188 135.536, 144.337 134.583 C 142.048 134.265, 139.517 133.752, 138.712 133.443 C 137.907 133.134, 136.010 133.947, 134.496 135.249" stroke="none" fill="black" fill-rule="evenodd"/>
</svg>