<svg xmlns="http://www.w3.org/2000/svg" width="256" height="256" viewBox="0 0 256 256" version="1.1">
	<path d="M 88.286 26.364 C 87.263 27.664, 85.605 30.549, 84.601 32.776 C 82.437 37.575, 81.320 37.968, 69.806 37.986 C 62.185 37.998, 60.781 38.284, 58.437 40.301 C 55.516 42.813, 55.763 41.241, 54.118 67.826 C 53.301 81.040, 53.993 93.336, 56.042 102 C 56.628 104.475, 57.578 108.865, 58.154 111.756 C 59.256 117.291, 62.473 121, 66.170 121 C 67.719 121, 71.378 122.765, 73.992 124.772 C 74.262 124.980, 73.700 125.589, 72.742 126.125 C 71.784 126.661, 70.292 128.469, 69.426 130.143 C 68.068 132.768, 68.019 134.172, 69.064 140.344 C 71.138 152.591, 76.442 157.603, 80.250 150.913 C 83.341 145.482, 81.723 127.408, 78.036 126.179 C 76.298 125.599, 76.872 124.379, 79.433 123.213 C 82.219 121.943, 109.410 122.712, 112.189 124.138 C 113.228 124.671, 114.144 126.833, 114.569 129.753 C 114.949 132.364, 115.876 135.714, 116.629 137.198 C 118.049 139.997, 123.896 145, 125.747 145 C 126.944 145, 129.136 150.530, 128.279 151.388 C 127.191 152.476, 133.316 159.234, 136.655 160.629 C 143.273 163.394, 145.955 159.929, 148.928 144.771 C 150.086 138.871, 151.476 132.879, 152.017 131.456 C 152.557 130.034, 153 125.034, 153 120.345 C 153 112.808, 152.749 111.617, 150.833 110.066 C 147.979 107.755, 148.903 105.600, 153.828 103.088 C 158.126 100.895, 159.151 99.294, 158.312 96.086 C 157.560 93.209, 155.254 92.811, 139.829 92.895 C 112.480 93.043, 103.512 92.809, 101.822 91.905 C 99.776 90.810, 81.956 91.725, 77.234 93.168 C 74.574 93.981, 73.369 93.806, 70.734 92.224 C 68.955 91.157, 67.670 89.657, 67.877 88.891 C 68.085 88.126, 68.272 86.938, 68.294 86.250 C 68.324 85.308, 71.971 85, 83.083 85 C 91.196 85, 97.983 85.400, 98.167 85.888 C 98.350 86.377, 106.289 87.005, 115.809 87.284 L 133.118 87.791 135.701 85.208 L 138.284 82.625 137.577 64.087 C 137.127 52.265, 136.441 45.028, 135.685 44.112 C 132.995 40.850, 125.926 38.848, 115.180 38.303 C 109.306 38.006, 103.772 37.382, 102.882 36.917 C 101.992 36.452, 100.985 34.676, 100.644 32.971 C 99.898 29.241, 94.935 24, 92.150 24 C 91.047 24, 89.309 25.064, 88.286 26.364 M 70.823 50.735 C 67.073 51.273, 65.353 53.516, 67.088 55.606 C 68.157 56.894, 69.322 57.053, 72.961 56.406 C 75.457 55.963, 87.282 55.545, 99.238 55.479 C 111.194 55.412, 121.289 55.045, 121.671 54.662 C 123.741 52.592, 118.668 51.872, 98.904 51.428 C 87.132 51.164, 76.600 50.814, 75.500 50.650 C 74.400 50.486, 72.295 50.524, 70.823 50.735 M 67.250 68.102 C 65.546 69.871, 65.679 72.489, 67.551 74.042 C 68.639 74.945, 71.844 75.229, 78.301 74.995 C 83.360 74.811, 89.075 74.699, 91 74.745 C 104.765 75.075, 118.638 74.932, 120.174 74.445 C 121.180 74.126, 122.470 72.991, 123.041 71.923 C 124.883 68.482, 120.310 67.761, 93.500 67.266 C 73.832 66.902, 68.233 67.080, 67.250 68.102 M 68.573 104.518 C 65.641 106.742, 67.446 107.495, 75.845 107.553 C 80.055 107.582, 84.507 107.892, 85.738 108.243 C 87.089 108.628, 88.529 108.328, 89.369 107.488 C 90.135 106.722, 91.044 106.295, 91.389 106.539 C 91.734 106.784, 91.675 106.578, 91.258 106.084 C 90.841 105.589, 86.675 104.994, 82 104.763 C 77.325 104.531, 72.825 104.053, 72 103.699 C 71.175 103.346, 69.633 103.714, 68.573 104.518 M 115.911 106.091 C 114.697 106.873, 114.697 107.127, 115.915 107.911 C 116.693 108.412, 118.155 108.663, 119.165 108.468 C 120.174 108.274, 121 108.555, 121 109.093 C 121 109.712, 121.703 109.694, 122.919 109.043 C 124.315 108.296, 124.976 108.355, 125.340 109.258 C 125.738 110.242, 125.859 110.240, 125.921 109.250 C 125.964 108.563, 126.675 108, 127.500 108 C 128.325 108, 129.007 108.563, 129.015 109.250 C 129.026 110.083, 129.354 110, 130 109 C 130.646 108, 130.974 107.917, 130.985 108.750 C 130.994 109.509, 132.375 110, 134.500 110 C 136.425 110, 138 109.590, 138 109.088 C 138 108.587, 138.787 108.297, 139.750 108.443 C 142.468 108.855, 146.342 106.838, 144.778 105.824 C 143.058 104.709, 117.694 104.944, 115.911 106.091 M 128 121.798 C 122.717 122.630, 121.955 125.955, 126.099 130.099 C 127.537 131.537, 128 133.435, 128 137.893 C 128 142.092, 128.413 143.944, 129.436 144.337 C 131.997 145.320, 135.801 141.198, 137.380 135.728 C 140.018 126.593, 140.048 125.358, 137.662 124.142 C 133.823 122.187, 130.557 121.395, 128 121.798 M 45.245 128.250 C 44.695 128.938, 43.317 133.325, 42.184 138 C 41.050 142.675, 39.562 148.378, 38.875 150.673 C 37.480 155.342, 38.645 158, 42.088 158 C 47.062 158, 55.475 145.330, 56.735 135.942 C 57.168 132.711, 56.825 131.742, 54.477 129.566 C 51.519 126.824, 46.911 126.168, 45.245 128.250 M 91.992 130.510 C 88.826 134.324, 94.690 147, 99.620 147 C 101.282 147, 101.967 146.082, 102.793 142.750 C 104.112 137.426, 103.843 132.720, 102.098 130.619 C 100.378 128.546, 93.682 128.473, 91.992 130.510" stroke="none" fill="black" fill-rule="evenodd"/>
</svg>