<svg xmlns="http://www.w3.org/2000/svg" width="256" height="256" viewBox="0 0 256 256" version="1.1">
	<path d="M 120 31 C 118.900 32.100, 118 34.317, 118 35.927 C 118 38.957, 116.180 40.859, 110.061 44.225 C 106.775 46.032, 102.586 53.569, 103.818 55.456 C 104.559 56.590, 104.618 57.876, 104.859 78 C 104.948 85.425, 105.102 92.625, 105.201 94 C 105.721 101.214, 105.175 106.253, 103.715 107.713 C 102.281 109.148, 101.638 109.085, 96.550 107.020 C 89.856 104.303, 88.962 102.988, 90.280 97.795 C 90.994 94.983, 90.929 92.357, 90.056 88.673 C 89.153 84.867, 89.116 82.756, 89.914 80.685 C 90.511 79.137, 91 75.214, 91 71.968 C 91 66.391, 91.247 65.788, 95.500 61 C 97.975 58.213, 100 55.577, 100 55.141 C 100 54.088, 96.050 50.533, 93.316 49.125 C 90.506 47.678, 78.180 47.674, 72.443 49.119 C 68.562 50.096, 68 50.578, 68 52.932 C 68 54.610, 69.113 56.692, 70.951 58.453 C 74.904 62.240, 75.208 63.969, 76.411 89.500 C 76.566 92.800, 77.480 98.125, 78.442 101.334 C 80.657 108.724, 79.927 112.515, 75.426 116.995 C 72.220 120.186, 71.119 122.393, 70.487 126.889 C 70.057 129.952, 68.763 133, 67.893 133 C 67.413 133, 67.790 133.900, 68.732 135 C 69.716 136.150, 71.682 137, 73.355 137 C 76.279 137, 76.894 136.491, 82.956 129.053 C 86.336 124.907, 88.344 123.910, 97.277 121.941 C 102.607 120.766, 103.894 120.874, 113.883 123.338 C 124.104 125.858, 125.289 125.949, 135.004 124.952 C 146.618 123.760, 149.377 124.608, 145.142 128.069 C 143.070 129.762, 141.774 129.917, 134.441 129.354 C 129.551 128.978, 124.320 129.154, 121.799 129.780 C 119.435 130.367, 114.262 131.399, 110.304 132.074 C 103.891 133.167, 102.823 133.114, 100.496 131.589 C 99.060 130.648, 96.673 130.018, 95.192 130.189 C 91.319 130.636, 89.861 135.393, 90.500 145.500 C 90.941 152.487, 91.329 153.785, 93.558 155.750 C 96.658 158.482, 98.088 158.559, 101.056 156.155 C 102.894 154.668, 103.350 153.265, 103.417 148.905 C 103.490 144.137, 103.758 143.463, 105.689 143.189 C 109.087 142.705, 112.272 146.484, 111.486 150.065 C 110.934 152.577, 111.141 153, 112.921 153 C 114.564 153, 115 152.372, 115 150 C 115 148.350, 115.450 147, 116 147 C 116.550 147, 117 146.373, 117 145.607 C 117 143.197, 124.166 141.842, 125.500 144 C 126.712 145.961, 129.638 144.942, 134.036 141.028 C 139.189 136.443, 140.863 136.136, 143.704 139.250 C 146.408 142.214, 145.934 144.253, 141.591 148.349 C 137.277 152.418, 136.982 155.609, 140.564 159.474 C 142.751 161.834, 143.670 162.155, 146.814 161.655 C 151.644 160.888, 155.574 156.510, 156.510 150.852 C 156.906 148.458, 157.500 146.050, 157.829 145.501 C 158.157 144.951, 158.304 143.335, 158.154 141.910 C 158.005 140.484, 158.584 136.293, 159.441 132.597 C 161.752 122.634, 161.514 115.705, 158.750 112.510 C 156.557 109.973, 156.366 109.939, 151.178 111.142 C 147.031 112.104, 144.877 112.114, 141.414 111.188 C 138.971 110.535, 133.346 110, 128.914 110 C 121.323 110, 120.956 109.902, 122.562 108.295 C 124.307 106.550, 129.228 106.058, 149 105.653 C 158.881 105.450, 160.847 104.596, 161.169 100.362 C 161.577 95.005, 157.154 90.142, 152.250 90.559 C 148.391 90.887, 148.182 90.961, 146.571 92.571 C 145.703 93.440, 145 93.648, 145 93.036 C 145 92.240, 144.440 92.229, 143 93 C 141.900 93.589, 141 93.717, 141 93.285 C 141 92.853, 137.072 92.348, 132.273 92.163 C 127.411 91.975, 122.428 91.218, 121.023 90.453 C 118.548 89.106, 118.543 89.079, 120.750 89.040 C 121.987 89.018, 123 88.605, 123 88.122 C 123 87.640, 124.463 87.453, 126.250 87.709 C 128.037 87.964, 135.162 88.402, 142.083 88.682 C 152.181 89.092, 154.689 88.926, 154.781 87.846 C 154.844 87.106, 155.420 84.295, 156.061 81.599 C 156.943 77.892, 156.946 75.763, 156.075 72.855 C 155.267 70.158, 155.233 68.433, 155.962 67.072 C 156.533 66.005, 157 61.069, 157 56.105 C 157 44.768, 156.016 43.546, 146.214 42.714 C 137.229 41.952, 136.674 41.655, 133.566 35.944 C 132.088 33.228, 130.035 30.554, 129.005 30.003 C 126.022 28.406, 122.166 28.834, 120 31 M 34.077 32.153 C 29.679 35.168, 29.401 36.228, 32.203 39.288 C 33.751 40.978, 37.793 42.809, 44.592 44.898 C 56.611 48.592, 58.402 48.692, 60.443 45.777 C 65.351 38.771, 57.298 31.168, 44 30.253 C 38.385 29.867, 37.034 30.126, 34.077 32.153 M 124.250 52.173 C 120.165 53.284, 119.779 56.585, 123.565 58.025 C 126.555 59.162, 136.987 59.307, 138.615 58.235 C 139.229 57.831, 140.039 56.512, 140.415 55.305 C 141.009 53.402, 140.660 53.043, 137.800 52.609 C 130.001 51.425, 127.314 51.339, 124.250 52.173 M 32 68.977 C 32 70.989, 32.753 72.448, 34.324 73.477 C 37.392 75.487, 50.739 80, 53.616 80 C 54.862 80, 56.160 80.450, 56.500 81 C 57.485 82.594, 60.545 82.161, 62.345 80.171 C 65.872 76.273, 63.520 72.347, 55.078 68.040 C 51.881 66.409, 49.168 66, 41.540 66 L 32 66 32 68.977 M 121.036 72.456 C 119.543 74.256, 120.497 76, 122.976 76 C 123.997 76, 124.986 76.459, 125.173 77.020 C 125.360 77.580, 128.275 78.078, 131.651 78.126 C 136.700 78.197, 138.176 77.824, 139.975 76.025 C 142.076 73.924, 142.090 73.784, 140.331 72.451 C 137.719 70.471, 122.680 70.475, 121.036 72.456 M 54.360 130.265 C 53.183 130.944, 49.526 133.750, 46.233 136.500 C 42.940 139.250, 37.716 143.410, 34.623 145.745 C 30.068 149.183, 29 150.539, 29 152.880 C 29 154.848, 29.786 156.285, 31.465 157.385 C 36.117 160.433, 42.507 158.973, 47.582 153.701 C 49.277 151.940, 54.114 147.380, 58.332 143.566 C 66.862 135.853, 67.748 133.464, 63.096 130.716 C 59.673 128.694, 57.294 128.571, 54.360 130.265" stroke="none" fill="black" fill-rule="evenodd"/>
</svg>