<svg xmlns="http://www.w3.org/2000/svg" width="256" height="256" viewBox="0 0 256 256" version="1.1">
	<path d="M 91.191 28.140 C 86.407 31.528, 84.729 31.685, 66.488 30.464 C 57.370 29.853, 56.254 29.973, 53.988 31.809 C 51.754 33.618, 51.500 34.559, 51.500 41.027 C 51.500 47.089, 51.183 48.457, 49.500 49.658 C 48.400 50.443, 45.587 52.418, 43.250 54.049 C 38.656 57.253, 38.159 58.786, 40.538 62.418 C 42.499 65.410, 45.901 66.066, 54.146 65.044 C 62.731 63.979, 65.485 64.575, 66.963 67.817 C 67.714 69.466, 67.792 70.569, 67.173 70.776 C 66.629 70.957, 65.174 71.981, 63.939 73.053 C 62.704 74.124, 61.200 75.015, 60.597 75.034 C 59.994 75.053, 57.700 75.937, 55.500 77 C 53.300 78.063, 49.412 78.947, 46.861 78.966 C 39.584 79.019, 35.083 84.759, 38.602 89.500 C 39.886 91.230, 41.064 91.464, 47.333 91.230 C 53.482 91.001, 54.912 91.270, 56.778 93.007 C 59.502 95.545, 59.629 96.178, 61.013 114 C 61.819 124.387, 62.611 129.209, 63.807 131 C 70.145 140.494, 70.605 141.994, 69.403 149.242 C 68.850 152.578, 69.163 153.363, 72.295 156.495 C 76.578 160.778, 78.931 160.311, 82.450 154.480 C 84.720 150.720, 84.756 150.396, 83.202 147.765 C 82.304 146.244, 80.878 144.992, 80.034 144.983 C 79.190 144.974, 79.973 144.023, 81.772 142.871 C 84.600 141.060, 85.823 140.884, 90.772 141.577 C 93.923 142.018, 97.400 142.277, 98.500 142.153 C 99.600 142.028, 104.100 141.888, 108.500 141.842 C 116.051 141.761, 124 139.670, 124 137.764 C 124 137.344, 125.490 137, 127.311 137 C 130.813 137, 134.999 139.991, 134.606 142.212 C 133.786 146.839, 132.789 148, 129.633 148 C 127.855 148, 125.924 147.524, 125.342 146.942 C 124.761 146.361, 121.761 145.624, 118.675 145.306 C 114.342 144.859, 112.471 145.117, 110.452 146.440 C 108.039 148.020, 107.534 148.031, 103.899 146.576 C 96.541 143.632, 89 145.439, 89 150.146 C 89 152.934, 92.871 155.930, 96.500 155.951 C 99.544 155.968, 106.588 150.922, 105.308 149.641 C 103.661 147.994, 110.032 149.238, 112.273 151 C 113.949 152.319, 116.330 153, 119.260 153 C 122.420 153, 124.686 153.720, 127.102 155.491 C 133.460 160.151, 136.100 161, 139.221 159.386 C 144.550 156.630, 147.873 148.426, 147.956 137.821 C 148 132.140, 149.588 129, 152.416 129 C 156.043 129, 158.731 120.878, 155.513 119.643 C 154.695 119.330, 151.208 119.333, 147.763 119.650 C 141.560 120.222, 131.729 118.500, 133.578 117.165 C 136.114 115.336, 137.811 109.843, 138.308 101.860 C 138.604 97.107, 139.439 92.270, 140.163 91.110 C 141.385 89.154, 145.457 87.795, 149 88.160 C 154.325 88.710, 157.086 87.904, 157.985 85.538 C 159.814 80.728, 155.337 75.557, 148.377 74.444 C 146.245 74.103, 143.412 72.943, 142.082 71.866 C 139.912 70.108, 139.821 69.751, 141.194 68.377 C 142.188 67.384, 145.055 66.749, 149.377 66.565 C 156.180 66.276, 160 64.372, 160 61.268 C 160 58.570, 154.349 54, 151.011 54 C 149.283 54, 147.045 53.559, 146.039 53.021 C 143.793 51.819, 142 46.938, 142 42.025 C 142 34.752, 135.207 32.068, 116.684 32.020 C 108.595 31.999, 106.464 31.337, 101.673 27.351 C 98.021 24.313, 96.426 24.433, 91.191 28.140 M 66.250 43.087 C 64.375 43.647, 63 44.721, 63 45.627 C 63 48.803, 66.263 54.028, 68.615 54.618 C 71.813 55.421, 82.697 53.429, 85.636 51.503 C 88.444 49.663, 88.794 45.484, 86.250 44.158 C 83.529 42.738, 69.870 42.007, 66.250 43.087 M 105.836 46.134 C 97.356 49.239, 106.524 54.851, 120.250 54.956 C 124.633 54.990, 126.458 54.542, 127.926 53.074 C 130.516 50.484, 129.555 47.389, 125.751 46.063 C 122.009 44.759, 109.468 44.803, 105.836 46.134 M 97.450 65.840 C 96.927 66.302, 93.013 68.184, 88.750 70.021 C 84.487 71.858, 81 73.698, 81 74.109 C 81 74.521, 80.294 75.563, 79.432 76.426 C 77.351 78.507, 78.469 81.829, 81.508 82.591 C 82.877 82.935, 86.304 82.282, 89.600 81.049 L 95.317 78.910 101.408 81.373 C 109.180 84.517, 111.150 85.234, 113 85.594 C 113.825 85.754, 114.912 86.529, 115.415 87.316 C 116.177 88.508, 116.678 88.390, 118.415 86.609 C 119.562 85.434, 121.701 83.859, 123.170 83.110 L 125.839 81.748 123.465 79.374 C 122.159 78.068, 120.705 77, 120.233 77 C 118.699 77, 110.552 72.825, 108.500 70.986 C 106.790 69.455, 99.475 65, 98.670 65 C 98.521 65, 97.973 65.378, 97.450 65.840 M 97 94.059 C 97 94.641, 96.550 94.840, 96 94.500 C 95.450 94.160, 95 94.321, 95 94.858 C 95 95.394, 95.563 96.060, 96.250 96.338 C 96.938 96.615, 95.475 96.922, 93 97.021 C 89.402 97.164, 89.001 97.340, 91 97.899 C 94.459 98.866, 108.011 98.687, 107.933 97.674 C 107.897 97.220, 108.867 95.983, 110.087 94.924 L 112.306 93 104.653 93 C 99.933 93, 97 93.406, 97 94.059 M 72.813 97.683 C 73.534 97.972, 74.397 97.936, 74.729 97.604 C 75.061 97.272, 74.471 97.036, 73.417 97.079 C 72.252 97.127, 72.015 97.364, 72.813 97.683 M 74.750 101.706 C 75.987 101.944, 77 102.783, 77 103.570 C 77 104.357, 75.988 105.045, 74.750 105.100 C 72.606 105.195, 72.617 105.234, 75 105.932 C 78.032 106.820, 80.830 106.131, 78.938 104.962 C 78.262 104.544, 77.985 103.481, 78.323 102.601 C 78.813 101.323, 78.288 101.027, 75.719 101.136 C 73.367 101.236, 73.106 101.389, 74.750 101.706 M 93.813 101.683 C 94.534 101.972, 95.397 101.936, 95.729 101.604 C 96.061 101.272, 95.471 101.036, 94.417 101.079 C 93.252 101.127, 93.015 101.364, 93.813 101.683 M 86.500 106.057 C 92.063 107.208, 96 107.184, 96 106 C 96 105.421, 93.160 105.048, 89.250 105.115 C 82.999 105.222, 82.796 105.291, 86.500 106.057 M 73.756 117.664 C 74.447 117.943, 74.758 118.582, 74.447 119.085 C 74.136 119.588, 74.471 120.032, 75.191 120.070 C 75.911 120.109, 75.613 120.487, 74.528 120.911 C 72.745 121.608, 72.811 121.731, 75.213 122.190 C 76.675 122.469, 78.462 122.323, 79.185 121.864 C 80.184 121.231, 80.200 121.027, 79.250 121.015 C 78.563 121.007, 77.993 119.987, 77.985 118.750 C 77.972 116.931, 77.784 116.787, 77 118 C 76.354 119, 76.026 119.083, 76.015 118.250 C 76.007 117.563, 75.213 117.036, 74.250 117.079 C 73.194 117.127, 72.998 117.359, 73.756 117.664 M 82.269 121.693 C 83.242 121.947, 84.592 121.930, 85.269 121.656 C 85.946 121.382, 85.150 121.175, 83.500 121.195 C 81.850 121.215, 81.296 121.439, 82.269 121.693 M 45.889 145.171 C 45.437 150.600, 47.710 155, 50.966 155 C 52.682 155, 57 151.519, 57 150.135 C 57 147.088, 46.134 142.233, 45.889 145.171" stroke="none" fill="black" fill-rule="evenodd"/>
</svg>