<svg xmlns="http://www.w3.org/2000/svg" width="256" height="256" viewBox="0 0 256 256" version="1.1">
	<path d="M 60.306 26.764 C 59.086 26.964, 54.340 31.294, 49.609 36.521 C 39.829 47.330, 37.948 51.920, 41.967 55.174 C 43.829 56.682, 48.919 57.644, 52.250 57.118 C 52.663 57.053, 53 58.350, 53 60 C 53 61.650, 52.550 63, 52 63 C 51.450 63, 51 63.689, 51 64.531 C 51 65.374, 50.212 66.353, 49.250 66.708 C 45.977 67.914, 40.806 72.379, 39.889 74.791 C 38.639 78.079, 40.512 84.710, 42.906 85.470 C 43.929 85.795, 46.818 85.601, 49.325 85.039 C 54.198 83.947, 56.583 84.347, 56.803 86.293 C 56.878 86.957, 57.423 89.975, 58.015 93 C 58.606 96.025, 59.245 105.059, 59.436 113.076 C 59.822 129.359, 60.784 132.517, 67.451 139.381 C 71.073 143.111, 71.674 144.466, 70.129 145.420 C 68.547 146.398, 68.001 152.022, 69.267 154.291 C 70.853 157.132, 76.621 163, 77.829 163 C 79.354 163, 82.539 153.760, 82.137 150.500 C 82.001 149.400, 80.848 147.559, 79.573 146.408 L 77.257 144.317 80.596 142.518 C 83.244 141.092, 84.927 140.884, 88.718 141.514 C 96.868 142.868, 117.892 142.319, 125.460 140.554 C 133.291 138.728, 137.027 139.507, 138.731 143.321 C 139.551 145.157, 139.225 145.855, 136.658 147.750 C 133.171 150.325, 127.829 150.704, 126.004 148.505 C 123.652 145.670, 117.809 144.635, 113.746 146.333 C 110.818 147.556, 110.173 148.301, 110.513 150.066 C 110.746 151.278, 111.216 152.547, 111.556 152.885 C 111.897 153.223, 116.163 153.411, 121.037 153.303 C 128.856 153.129, 129.967 153.322, 130.481 154.942 C 131.629 158.557, 135.789 162, 139.011 162 C 141.426 162, 143.049 160.979, 146.308 157.407 C 150.709 152.585, 150.461 153.420, 152.516 136.500 C 153.038 132.204, 153.895 129.873, 155.534 128.292 C 158.552 125.380, 159.692 120.263, 157.754 118.326 C 156.868 117.439, 153.608 116.709, 149.400 116.454 C 145.605 116.225, 140.250 115.841, 137.500 115.602 C 134.750 115.363, 131.713 115.130, 130.750 115.084 C 129.787 115.038, 129 114.550, 129 114 C 129 113.450, 131.257 113, 134.015 113 C 141.265 113, 142.556 110.518, 143.272 95.212 C 143.932 81.118, 143.266 79.841, 135.106 79.551 C 125.672 79.215, 127.552 76.041, 137.201 76.015 C 150.734 75.979, 160 71.172, 160 64.189 C 160 59.917, 155.163 56, 149.888 56 C 146.222 56, 146.010 55.850, 147.015 53.972 C 147.722 52.651, 147.855 48.924, 147.396 43.273 C 146.801 35.934, 146.316 34.225, 144.238 32.147 L 141.784 29.693 123.736 30.319 C 106.356 30.921, 105.547 31.042, 101.883 33.581 C 98.356 36.026, 97.728 36.140, 93.289 35.154 C 90.655 34.568, 85.643 33.861, 82.151 33.582 C 77.867 33.239, 74.397 32.251, 71.485 30.544 C 65.948 27.299, 63.038 26.315, 60.306 26.764 M 64.500 42.945 C 61.725 44.081, 59.350 46.918, 57.533 51.266 C 56.007 54.919, 56.018 54.966, 58.502 55.590 C 63.451 56.832, 72.392 53.604, 75.235 49.548 C 76.624 47.565, 75.997 44.069, 74.066 43.035 C 71.802 41.824, 67.343 41.782, 64.500 42.945 M 117.500 42.782 C 114.578 43.439, 114.029 44.824, 114.047 51.500 C 114.074 61.361, 116.817 63, 133.291 63 C 142.700 63, 143.199 62.889, 145.653 60.250 L 148.210 57.500 142.855 56.918 C 139.910 56.598, 136.730 55.994, 135.788 55.575 C 133.754 54.672, 132.545 51.494, 132.876 47.920 C 133.008 46.501, 132.527 44.875, 131.808 44.306 C 130.332 43.138, 120.551 42.096, 117.500 42.782 M 93.704 47.106 C 92.716 47.681, 90.794 50.669, 89.433 53.748 C 86.001 61.507, 76.933 69, 70.974 69 C 69.986 69, 68.006 70.463, 66.574 72.250 C 65.142 74.037, 63.527 76.044, 62.985 76.708 C 59.322 81.199, 65.489 85.022, 73.095 82.975 C 78.085 81.631, 81.499 79.582, 85.213 75.702 C 87.279 73.544, 88.590 72.980, 90.713 73.337 C 95.595 74.158, 96.458 74.912, 98.631 80.262 L 100.759 85.500 106.130 86.087 C 109.083 86.410, 110.825 86.754, 110 86.852 C 108.667 87.011, 108.667 87.138, 110 88 C 111.051 88.679, 109.498 88.974, 104.809 88.985 C 98.519 88.999, 95.661 90.055, 98 91.500 C 98.568 91.851, 98.774 92.557, 98.457 93.069 C 97.554 94.530, 100.986 94.157, 102.515 92.628 C 104.001 91.141, 109 91.592, 109 93.213 C 109 94.228, 116.484 93.831, 121 92.577 C 124.591 91.580, 126.371 91.164, 127.417 91.077 C 129.290 90.920, 127.078 89.838, 123.844 89.329 C 119.525 88.648, 116.958 87.251, 117.260 85.744 C 117.615 83.974, 119.670 82.002, 121.179 81.985 C 122.229 81.973, 122.216 81.790, 121.118 81.094 C 120.032 80.406, 120.193 80.074, 121.868 79.542 C 124.972 78.557, 124.477 77, 121.059 77 C 119.441 77, 117.872 76.602, 117.571 76.115 C 117.271 75.629, 114.938 74.918, 112.387 74.535 C 104.083 73.290, 103.176 71.501, 101.607 53.283 C 101.361 50.413, 100.871 47.601, 100.520 47.033 C 99.705 45.714, 96.029 45.753, 93.704 47.106 M 73.299 93.632 C 74.031 94.364, 85.085 94.248, 85.832 93.501 C 86.108 93.225, 83.258 93, 79.500 93 C 75.742 93, 72.951 93.285, 73.299 93.632 M 71.742 101.660 C 72.649 102.026, 72.705 102.683, 71.948 104.097 C 71.092 105.696, 71.311 106.183, 73.206 106.898 C 76.047 107.970, 79.138 106.522, 78.356 104.485 C 78.042 103.668, 77.272 102.993, 76.643 102.985 C 76.014 102.976, 76.175 102.533, 77 102 C 78.099 101.289, 77.432 101.048, 74.500 101.094 C 72.300 101.129, 71.059 101.384, 71.742 101.660 M 114 107 C 112.718 107.828, 112.754 107.972, 114.250 107.985 C 115.213 107.993, 116 107.550, 116 107 C 116 105.780, 115.887 105.780, 114 107 M 114.269 109.693 C 115.242 109.947, 116.592 109.930, 117.269 109.656 C 117.946 109.382, 117.150 109.175, 115.500 109.195 C 113.850 109.215, 113.296 109.439, 114.269 109.693 M 75.652 127.754 C 74.569 129.506, 81.717 130.292, 99.701 130.398 C 112.790 130.476, 117.212 130.183, 118.201 129.172 C 119.279 128.070, 118.054 127.873, 111 128.016 C 106.325 128.111, 96.602 127.859, 89.394 127.456 C 80.709 126.971, 76.074 127.072, 75.652 127.754 M 128.421 129.485 C 130.577 130.253, 133.615 130.627, 135.171 130.316 C 140.324 129.285, 138.105 127.999, 131.250 128.044 L 124.500 128.088 128.421 129.485 M 46.637 142.506 C 42.858 146.285, 43.451 154.460, 47.619 156.045 C 50.547 157.159, 53.132 156.077, 55.449 152.770 C 57.853 149.337, 57.308 146.746, 53.553 143.750 C 49.591 140.588, 48.713 140.430, 46.637 142.506 M 92.168 145.690 C 91.435 145.982, 90.013 147.575, 89.006 149.230 L 87.176 152.240 90.123 155.120 C 93.978 158.888, 98.049 158.939, 101.460 155.260 C 104.626 151.846, 104.640 150.549, 101.545 147.455 C 99.207 145.116, 95.400 144.399, 92.168 145.690" stroke="none" fill="black" fill-rule="evenodd"/>
</svg>