<svg xmlns="http://www.w3.org/2000/svg" width="256" height="256" viewBox="0 0 256 256" version="1.1">
	<path d="M 50.281 28 C 37.117 28.587, 35.424 29.554, 35.882 36.230 C 35.947 37.181, 37.800 38.878, 40 40 C 44.302 42.194, 44.829 43.427, 42.545 45.951 C 40.852 47.821, 38 58.096, 38 62.324 C 38 65.377, 41.745 73, 43.244 73 C 43.726 73, 43.939 76.487, 43.717 80.750 C 43.478 85.348, 43.811 89.938, 44.537 92.035 C 45.855 95.846, 45.024 110.314, 43.217 115 C 42.687 116.375, 41.715 120.875, 41.058 125 C 39.620 134.018, 37.458 142.262, 35.298 146.960 C 32.852 152.280, 32.373 158.822, 34.374 159.590 C 37.026 160.608, 40.861 159.155, 44.597 155.719 C 47.550 153.002, 48.475 151.019, 50.528 143 C 51.865 137.775, 52.969 132.284, 52.980 130.797 C 53.008 127.054, 54.949 123.151, 57.126 122.460 C 58.128 122.142, 60.589 122.660, 62.593 123.611 L 66.238 125.341 65.540 130.420 C 65.156 133.214, 64.613 137.525, 64.332 140 C 64.052 142.475, 63.442 146.271, 62.976 148.436 C 61.934 153.280, 62.897 155.249, 67.340 157.357 C 70.249 158.738, 72.639 158.851, 83.670 158.132 C 99.652 157.089, 102.596 155.704, 101.647 149.670 C 101.175 146.667, 98.958 146.065, 90.256 146.576 C 80.977 147.121, 77.698 146.085, 78.189 142.762 C 78.360 141.606, 80.021 139.813, 81.880 138.778 C 85.125 136.971, 85.404 136.965, 88.880 138.647 C 90.871 139.611, 93.019 140.488, 93.654 140.597 C 95.767 140.959, 101.036 137.036, 102.062 134.336 C 102.944 132.018, 102.681 131.266, 100.037 128.539 C 94.925 123.264, 96.455 121.046, 105.227 121.014 C 110.198 120.995, 112.599 124.348, 111.498 129.769 C 111.081 131.821, 110.722 136.732, 110.699 140.682 C 110.664 146.921, 111.002 148.314, 113.273 151.291 C 118.538 158.195, 130.137 160.873, 146.762 159.025 C 154.621 158.151, 156.919 157.513, 158.673 155.721 C 162.639 151.668, 161.835 144.818, 157.209 143.247 C 154.154 142.209, 147.596 143.537, 148.505 145.009 C 149.918 147.295, 131.937 148.359, 126.777 146.294 C 122.613 144.628, 122.065 142.779, 124.644 139.097 C 126.163 136.929, 126.717 136.807, 131.894 137.501 C 134.977 137.914, 138.996 138.225, 140.825 138.192 C 144.694 138.122, 149 135.621, 149 133.443 C 149 131.755, 143.507 126, 141.896 126 C 139.754 126, 141.490 121.501, 143.757 121.180 C 144.998 121.003, 147.196 119.653, 148.642 118.180 C 150.977 115.799, 151.270 114.715, 151.269 108.460 C 151.269 101.234, 149.485 95.930, 146.491 94.255 C 145.309 93.594, 145.960 92.792, 149.491 90.560 C 153.145 88.251, 154 87.160, 154 84.810 C 154 83.080, 153.030 80.939, 151.597 79.506 C 150.084 77.993, 149.621 76.927, 150.347 76.630 C 150.981 76.370, 150.300 76.122, 148.833 76.079 C 147.367 76.036, 145.979 76.563, 145.750 77.250 C 145.448 78.159, 141.146 78.584, 129.971 78.809 C 121.522 78.979, 113.601 78.866, 112.371 78.557 C 108.930 77.693, 108.464 74.491, 111.328 71.402 C 113.986 68.536, 112.844 68.654, 132.544 69.214 C 140.060 69.428, 143.259 69.940, 145.258 71.250 C 149.471 74.010, 152.718 73.510, 155.011 69.750 C 158.359 64.258, 157.271 52.015, 152.887 45.846 C 150.845 42.973, 150.394 40, 152 40 C 153.893 40, 157 35.996, 157 33.557 C 157 28.443, 154.721 28, 128.392 28 L 104.228 28 100.614 31.721 C 98.626 33.767, 97 35.933, 97 36.533 C 97 37.133, 98.347 38.620, 99.994 39.838 L 102.988 42.051 102.457 50.776 C 102.165 55.574, 101.830 62.065, 101.713 65.199 C 101.479 71.465, 100.241 72.620, 95.909 70.615 C 93.914 69.692, 93.482 68.727, 93.397 65 C 93.229 57.645, 91.768 46.975, 90.852 46.409 C 89.383 45.501, 89.899 44.185, 93.196 40.429 C 96.216 36.990, 96.312 36.644, 94.932 34.145 C 92.400 29.559, 87.841 28.182, 74 27.824 C 67.125 27.646, 56.452 27.725, 50.281 28 M 49.694 40.639 C 48.193 42.141, 50.510 43, 56.059 43 C 60.673 43, 62 42.665, 62 41.500 C 62 40.338, 60.685 40, 56.167 40 C 52.958 40, 50.046 40.288, 49.694 40.639 M 65.005 41.439 C 65.012 42.797, 76.660 43.359, 77.475 42.041 C 77.809 41.501, 77.051 40.836, 75.791 40.564 C 71.980 39.742, 65 40.308, 65.005 41.439 M 114.008 40.972 C 110.681 43.079, 118.397 45.124, 124.500 43.753 C 125.600 43.506, 127.254 43.773, 128.176 44.346 C 129.361 45.083, 130.620 45.038, 132.473 44.194 C 133.915 43.537, 135.973 43, 137.047 43 C 138.579 43, 139.914 41.356, 138.750 40.903 C 136.987 40.216, 115.106 40.277, 114.008 40.972 M 71.751 54.962 C 68.354 56.864, 68.348 57.286, 71.665 61.009 C 74.787 64.513, 77.480 64.840, 79.050 61.907 C 81.761 56.840, 76.811 52.130, 71.751 54.962 M 137.370 54.440 C 133.171 56.268, 132.521 57.620, 134.437 60.544 C 136.746 64.068, 141.683 63.965, 143.051 60.365 C 143.813 58.362, 143.681 57.163, 142.504 55.365 C 141.651 54.064, 140.852 53.018, 140.727 53.039 C 140.602 53.061, 139.092 53.691, 137.370 54.440 M 52.358 56.509 C 51.475 58.812, 52.424 61.458, 54.261 61.812 C 55.443 62.039, 56 61.509, 56 60.157 C 56 59.062, 56.435 58.017, 56.967 57.833 C 57.499 57.650, 56.799 56.968, 55.410 56.317 C 53.378 55.365, 52.783 55.402, 52.358 56.509 M 51.250 67.963 C 50.013 69.533, 49 71.308, 49 71.908 C 49 72.509, 48.450 73, 47.777 73 C 47.105 73, 47.559 73.703, 48.787 74.563 C 50.068 75.461, 53.887 76.302, 57.759 76.538 C 61.467 76.765, 68.100 77.226, 72.500 77.563 C 76.900 77.901, 80.725 78.190, 81 78.207 C 83.256 78.343, 85.214 77.881, 84.673 77.340 C 84.310 76.977, 84.932 76.036, 86.055 75.249 C 88.322 73.661, 88.637 74.115, 80.498 67.250 C 77.817 64.989, 72 64.133, 72 66 C 72 66.554, 69.353 67, 66.059 67 C 62.791 67, 59.840 66.550, 59.500 66 C 58.237 63.957, 53.526 65.078, 51.250 67.963 M 98.200 87.200 C 96.783 88.617, 96.607 91, 97.918 91 C 98.423 91, 99.436 91.220, 100.168 91.489 C 100.901 91.759, 102.116 91.587, 102.868 91.108 C 103.973 90.404, 103.829 89.829, 102.118 88.118 C 99.634 85.634, 99.741 85.659, 98.200 87.200 M 65.500 88 C 65.160 88.550, 63.784 89, 62.441 89 C 57.859 89, 59.892 92.283, 65.716 94.290 C 72.643 96.677, 77.024 95.577, 76.272 91.642 C 75.576 88.002, 67.240 85.184, 65.500 88 M 130.174 91.226 C 128.381 93.019, 128.764 94, 131.259 94 C 132.502 94, 134.022 93.194, 134.638 92.208 C 135.581 90.699, 135.410 90.387, 133.553 90.234 C 132.341 90.133, 130.820 90.580, 130.174 91.226 M 64.500 103 C 63.505 104.100, 61.860 105, 60.845 105 C 58.449 105, 58.369 108.695, 60.750 109.336 C 61.712 109.595, 65.254 109.872, 68.621 109.951 C 74.103 110.080, 74.800 109.871, 75.304 107.947 C 76.034 105.155, 73.993 100.408, 72.842 102.222 C 72.208 103.221, 72.027 103.227, 72.015 102.250 C 71.991 100.248, 66.494 100.797, 64.500 103 M 97.875 105.434 C 97.076 109.056, 98.145 109.991, 103 109.914 C 105.074 109.882, 105.889 109.583, 105 109.180 C 104.175 108.806, 103.500 107.825, 103.500 107 C 103.500 105.600, 98.166 104.115, 97.875 105.434 M 125 107.500 C 125 108.875, 125.563 110.006, 126.250 110.014 C 126.938 110.021, 128.413 110.273, 129.529 110.573 C 131.869 111.201, 135.910 108.154, 135.260 106.250 C 134.996 105.477, 132.956 105, 129.917 105 C 125.339 105, 125 105.172, 125 107.500 M 82.500 120.749 C 77.564 121.900, 76.901 125.800, 81.388 127.296 C 85.901 128.800, 92.097 125.279, 90.157 122.313 C 89.310 121.017, 85.068 120.150, 82.500 120.749 M 128.916 123.084 C 126.921 125.079, 126.878 125.352, 128.418 126.214 C 131.084 127.706, 138 126.165, 138 124.079 C 138 123.119, 137.438 122.329, 136.750 122.324 C 136.063 122.319, 134.511 121.996, 133.301 121.606 C 131.722 121.097, 130.487 121.513, 128.916 123.084" stroke="none" fill="black" fill-rule="evenodd"/>
</svg>