<svg xmlns="http://www.w3.org/2000/svg" width="256" height="256" viewBox="0 0 256 256" version="1.1">
	<path d="M 60.073 28.635 C 58.933 30.084, 58 32.534, 58 34.078 C 58 38.388, 54.825 40, 46.333 40 C 36.615 40, 33.995 42.061, 33.617 50.001 C 33.473 53.025, 32.565 58.349, 31.599 61.832 C 29.719 68.610, 29.792 74.205, 31.975 90.500 C 32.850 97.030, 32.891 100.872, 32.126 104.500 C 31.545 107.250, 31.053 114.477, 31.032 120.559 C 31.011 126.642, 30.191 136.092, 29.211 141.559 C 28.230 147.027, 27.488 152.175, 27.562 153 C 27.635 153.825, 27.764 155.257, 27.848 156.183 C 28.185 159.906, 34.305 159.275, 38.750 155.057 C 40.675 153.230, 41.002 151.881, 41.012 145.711 C 41.018 141.745, 41.677 136.047, 42.474 133.049 C 43.272 130.051, 43.717 126.226, 43.463 124.549 C 42.392 117.489, 42.278 113, 43.168 113 C 43.692 113, 43.902 111.616, 43.635 109.924 C 42.771 104.437, 44.010 100.035, 46.604 99.385 C 49.889 98.560, 52.227 101.131, 51.442 104.706 C 50.857 107.369, 50.054 124.880, 49.947 137.330 C 49.914 141.175, 49.163 144.670, 47.741 147.595 L 45.586 152.031 47.669 154.114 C 49.953 156.398, 49.525 156.362, 66.147 155.639 C 78.693 155.093, 83.275 154.186, 89.461 151.025 C 94.483 148.458, 98.493 148.450, 101.230 151 C 102.411 152.100, 104.132 153, 105.054 153 C 107.996 153, 116.431 145.540, 121.448 138.500 C 123.016 136.300, 124.941 133.975, 125.725 133.334 C 126.510 132.693, 127.258 131.568, 127.387 130.834 C 128.058 127.028, 129.317 125, 131.010 125 C 132.861 125, 133.079 127.446, 131.460 130.064 C 131.101 130.645, 131.349 132.429, 132.012 134.029 C 132.922 136.225, 134.546 137.435, 138.646 138.969 C 141.632 140.086, 144.678 141, 145.415 141 C 148.031 141, 149.362 144.055, 149.110 149.485 C 148.779 156.635, 150.826 160.557, 155.330 161.402 C 161.656 162.589, 162.319 161.702, 161.566 153.068 C 161.003 146.609, 161.212 144.755, 162.928 140.970 C 165.120 136.138, 165.598 130.998, 164.004 129.404 C 163.456 128.856, 162.536 125.855, 161.959 122.736 C 160.989 117.488, 161.112 116.639, 163.610 111.358 L 166.310 105.652 163.557 100.754 C 161.313 96.761, 160.915 95.084, 161.404 91.678 C 163.528 76.914, 163.493 76.509, 159.764 72.439 C 156.191 68.541, 152.276 67.540, 147.419 69.281 C 145.994 69.792, 144.654 69.434, 143.169 68.146 C 138.938 64.477, 140.142 63.663, 151.473 62.528 C 155.604 62.115, 158.148 61.271, 159.723 59.791 C 162.509 57.173, 162.563 55.469, 160.037 49.859 C 158.673 46.829, 158.254 44.362, 158.663 41.766 C 159.415 36.986, 157.031 33, 153.421 33 C 149.859 33, 145.181 38.382, 144.800 42.918 C 144.562 45.759, 144.035 46.566, 142.250 46.820 C 140.239 47.105, 140 46.715, 140 43.152 C 140 38.592, 136.753 30.295, 134.215 28.366 C 131.501 26.305, 128.205 26.758, 126.451 29.434 C 125.518 30.858, 124.500 35.669, 123.997 41.032 C 123.524 46.072, 122.927 50.407, 122.669 50.664 C 122.066 51.267, 118.033 46.958, 117.894 45.561 C 117.836 44.978, 117.859 43.369, 117.945 41.986 C 118.128 39.044, 113.811 34.466, 109.956 33.515 C 108.130 33.064, 106.907 33.445, 105.620 34.868 C 104.017 36.638, 103.953 37.455, 105.013 42.561 L 106.198 48.273 102.599 51.475 C 100.620 53.236, 99 54.971, 99 55.331 C 99 55.959, 100.122 57.384, 106.354 64.665 C 107.923 66.499, 109.948 68.029, 110.854 68.063 C 111.985 68.107, 111.791 68.412, 110.235 69.037 C 108.990 69.537, 107.577 70.971, 107.096 72.223 C 106.615 73.475, 105.058 75.748, 103.636 77.274 C 101.407 79.666, 100.779 79.879, 99.085 78.821 C 98.004 78.146, 96.207 75.098, 95.092 72.047 C 93.977 68.996, 92.073 65.886, 90.861 65.135 C 86.193 62.242, 75.335 59, 70.313 59 C 67.456 59, 64.840 58.550, 64.500 58 C 63.714 56.729, 55.713 56.688, 54.450 57.949 C 53.927 58.471, 51.603 59.201, 49.284 59.571 C 45.417 60.189, 44.971 60.030, 43.887 57.652 C 42.965 55.628, 42.981 54.728, 43.961 53.547 C 45.002 52.292, 47.371 52.119, 57.858 52.528 C 64.811 52.800, 72.300 53.326, 74.500 53.699 C 76.700 54.071, 78.901 54.270, 79.391 54.141 C 79.881 54.012, 83.651 54.417, 87.768 55.041 C 94.167 56.011, 95.473 55.955, 96.770 54.658 C 98.126 53.303, 98.064 52.667, 96.184 48.668 C 93.259 42.446, 89.914 40.386, 81.702 39.749 C 73.878 39.143, 71.096 37.326, 71.222 32.905 C 71.406 26.434, 64.027 23.608, 60.073 28.635 M 113.965 66.543 C 112.834 67.905, 113.254 68.036, 117.551 67.667 C 123.544 67.152, 124.879 65, 119.206 65 C 116.856 65, 114.724 65.628, 113.965 66.543 M 61.229 75.669 C 59.930 76.192, 57 81.153, 57 82.829 C 57 84.205, 62.695 86.313, 66.146 86.215 C 67.800 86.168, 69.906 85.263, 70.827 84.204 C 72.181 82.645, 72.881 82.489, 74.500 83.389 C 75.600 84, 76.725 84.791, 77 85.147 C 77.550 85.858, 80.437 86.294, 83.417 86.115 C 84.471 86.052, 85.055 85.721, 84.714 85.381 C 84.374 85.040, 84.732 84.125, 85.511 83.347 C 86.622 82.235, 86.685 81.403, 85.802 79.466 C 84.397 76.381, 80.074 76.123, 78 79 C 76.103 81.631, 70.053 81.848, 70.431 79.271 C 70.933 75.851, 65.785 73.836, 61.229 75.669 M 43.913 78.684 C 41.475 84.990, 46.877 89.443, 51.793 85.179 C 53.954 83.305, 54.750 81, 53.237 81 C 52.818 81, 52.030 79.987, 51.487 78.750 C 50.877 77.360, 49.450 76.379, 47.750 76.184 C 45.521 75.927, 44.795 76.400, 43.913 78.684 M 142.250 79.662 C 141.563 79.940, 140.998 81.592, 140.996 83.333 C 140.994 85.075, 140.101 87.963, 139.011 89.750 C 135.663 95.241, 132.329 93.862, 125.729 84.257 C 124.503 82.473, 122.911 81.011, 122.191 81.007 C 121.471 81.003, 121.110 81.368, 121.388 81.818 C 121.666 82.268, 120.444 83.161, 118.672 83.802 C 114.503 85.309, 111.544 90.164, 112.571 93.812 C 112.987 95.290, 113.257 96.830, 113.170 97.232 C 112.710 99.364, 137.076 101.134, 144.927 99.540 C 147.699 98.977, 150.181 97, 148.116 97 C 147.361 97, 148.034 95.455, 149.750 93.250 C 154.472 87.182, 154.520 86.171, 150.268 82.413 C 146.626 79.195, 144.887 78.598, 142.250 79.662 M 98.329 88.775 C 97.685 89.185, 96.856 90.866, 96.486 92.510 C 95.196 98.249, 94.945 98.704, 92.434 99.848 C 91.043 100.482, 88.352 101, 86.453 101 C 83.429 101, 83 101.313, 83 103.520 C 83 107.622, 87.458 113.722, 91.028 114.506 C 95.429 115.473, 96.239 114.194, 96.018 106.632 C 95.928 103.546, 96.495 102.231, 98.821 100.132 C 102.403 96.900, 103.361 94.080, 102.050 90.632 C 101.006 87.887, 100.289 87.529, 98.329 88.775 M 63.073 101.635 C 60.338 105.112, 60.457 108.681, 63.500 114.404 C 66.521 120.085, 66.671 124.765, 64 130 C 61.637 134.631, 61.515 136.904, 63.388 141.386 C 66.013 147.670, 71.785 146.466, 72.656 139.453 C 72.926 137.279, 73.580 133.814, 74.111 131.754 C 74.760 129.231, 74.728 127.361, 74.014 126.026 C 73.430 124.936, 73.239 122.796, 73.589 121.272 C 74.968 115.261, 74.852 103.538, 73.391 101.250 C 71.284 97.951, 65.809 98.155, 63.073 101.635 M 111 109.716 C 108.262 110.735, 105.862 113.988, 106.459 115.871 C 106.778 116.875, 108.168 118.211, 109.548 118.840 C 111.618 119.783, 112.851 119.610, 116.593 117.851 L 121.130 115.719 126.016 118.008 L 130.903 120.296 136.449 117.398 C 139.499 115.804, 141.996 114.217, 141.998 113.871 C 141.999 113.526, 140.598 112.662, 138.885 111.953 C 136.534 110.979, 134.060 110.899, 128.788 111.628 C 122.832 112.451, 121.216 112.329, 117.794 110.796 C 113.524 108.885, 113.321 108.852, 111 109.716 M 144.721 115.960 C 144.313 117.518, 144.666 118, 146.216 118 C 147.992 118, 148.078 117.782, 146.905 116.250 C 146.169 115.287, 145.496 114.370, 145.410 114.210 C 145.324 114.051, 145.014 114.839, 144.721 115.960 M 129.813 121.683 C 130.534 121.972, 131.397 121.936, 131.729 121.604 C 132.061 121.272, 131.471 121.036, 130.417 121.079 C 129.252 121.127, 129.015 121.364, 129.813 121.683 M 87.784 127.051 C 83.999 129.049, 83.914 129.404, 86 134.500 C 87.753 138.782, 88.311 140.529, 88.159 141.250 C 88.071 141.662, 88.525 142, 89.167 142 C 89.808 142, 90.039 142.294, 89.680 142.653 C 88.661 143.672, 95.121 148, 97.660 148 C 98.910 148, 101.522 147.242, 103.466 146.315 C 106.848 144.702, 107 144.404, 107 139.386 C 107 133.223, 105.779 131.718, 97.154 127.250 C 91.997 124.578, 92.448 124.588, 87.784 127.051" stroke="none" fill="black" fill-rule="evenodd"/>
</svg>