<svg xmlns="http://www.w3.org/2000/svg" width="256" height="256" viewBox="0 0 256 256" version="1.1">
	<path d="M 58.294 30.750 C 56.689 32.263, 54.306 35.418, 52.997 37.762 C 51.370 40.678, 48.977 42.951, 45.427 44.954 C 36.121 50.206, 33.456 56.547, 38.455 61.545 C 41.451 64.542, 42.253 64.549, 48.204 61.632 C 50.792 60.363, 53.304 59.590, 53.788 59.913 C 54.271 60.236, 55.887 63.102, 57.378 66.283 C 60.082 72.050, 60.084 72.073, 58.175 74.783 C 57.121 76.277, 55.242 80.310, 53.998 83.745 C 51.699 90.090, 51.698 90.222, 53.849 102.325 C 54.973 108.655, 57.353 110.899, 63.745 111.656 C 69.122 112.293, 72.136 115, 67.469 115 C 66.111 115, 65 114.550, 65 114 C 65 113.450, 64.325 113, 63.500 113 C 62.675 113, 62 113.450, 62 114 C 62 114.550, 61.190 115, 60.200 115 C 58.054 115, 56 116.855, 56 118.792 C 56 119.558, 56.890 121.316, 57.978 122.699 C 59.489 124.621, 59.717 125.660, 58.943 127.107 C 58.070 128.738, 56.723 129.004, 49.215 129.032 C 39.790 129.066, 37 130.179, 37 133.906 C 37 135.108, 38.100 137.191, 39.445 138.536 C 43.541 142.632, 43.872 143.889, 41.919 147.932 C 38.935 154.108, 38.610 156.755, 40.483 159.614 C 42.590 162.830, 46.038 162.417, 52.297 158.199 C 54.609 156.641, 58.099 154.630, 60.053 153.730 C 62.007 152.830, 64.381 151.237, 65.328 150.190 C 67.611 147.667, 66.224 146.570, 58.837 145.055 C 53.484 143.958, 49.833 141, 53.831 141 C 54.804 141, 56.107 140.493, 56.728 139.872 C 57.560 139.040, 60.690 139.029, 68.678 139.831 C 75.553 140.522, 81.141 140.584, 84 140.003 C 90.879 138.603, 104.200 138.836, 106.250 140.392 C 108.395 142.020, 108.468 143.367, 106.500 145 C 103.783 147.255, 105.222 156.380, 108.493 157.636 C 111.066 158.623, 116.919 157.019, 117.981 155.036 C 119.932 151.389, 120.255 146.035, 118.563 145.386 C 116.184 144.473, 116.697 142.066, 119.498 141.001 C 122.591 139.825, 132.287 139.442, 133.890 140.432 C 134.637 140.894, 134.866 142.549, 134.511 144.927 C 133.994 148.390, 134.337 149.091, 138.799 153.695 C 141.748 156.740, 145.533 159.420, 148.462 160.539 L 153.276 162.377 155.138 160.078 C 156.162 158.813, 157 156.855, 157 155.727 C 157 152.903, 152.230 145, 150.525 145 C 149.760 145, 148.822 144.016, 148.441 142.813 C 147.888 141.072, 148.488 140.030, 151.373 137.716 C 157.140 133.089, 156.087 130.578, 147 127.295 C 145.075 126.599, 142.375 125.992, 141 125.945 C 138.705 125.866, 138.664 125.789, 140.500 125 C 141.600 124.527, 142.140 124.109, 141.700 124.070 C 141.260 124.032, 141.325 123.241, 141.844 122.314 C 143.842 118.744, 139.131 113.825, 134.500 114.646 C 128.700 115.675, 107 115.210, 107 114.057 C 107 113.539, 109.225 113.132, 111.945 113.153 C 114.665 113.174, 118.513 112.656, 120.496 112.001 C 123.530 111, 129.526 110.993, 133.500 111.987 C 136.750 112.799, 140.694 109.515, 142.073 104.846 C 142.616 103.006, 143.054 96.185, 143.046 89.689 C 143.032 78.691, 143.189 77.720, 145.328 75.581 C 146.716 74.193, 149.470 73.007, 152.285 72.584 C 160.756 71.314, 163.790 63.636, 158.077 57.923 C 154.858 54.704, 152.256 54.169, 151.347 56.537 C 150.470 58.824, 144.505 60.958, 140.244 60.509 C 138.185 60.293, 135.799 60.089, 134.941 60.058 C 134.084 60.026, 132.564 59.402, 131.565 58.671 C 130.088 57.591, 129.956 56.951, 130.860 55.261 C 132.450 52.291, 141.558 50.984, 150.676 52.418 C 154.202 52.972, 155.176 52.728, 156.926 50.849 C 159.647 47.929, 159.571 44.405, 156.750 42.631 C 155.512 41.853, 151.635 40.731, 148.133 40.137 C 142.237 39.139, 135 35.266, 135 33.110 C 135 31.877, 130.207 30, 127.060 30 C 123.692 30, 122.702 31.897, 123.593 36.645 C 124.480 41.370, 122.796 43, 117.025 43 C 110.360 43, 105.607 39.713, 105.196 34.816 C 104.952 31.916, 104.285 30.903, 101.840 29.720 C 96.189 26.982, 92.695 29.703, 94.777 35.220 C 95.384 36.829, 95.651 38.747, 95.369 39.481 C 94.772 41.035, 91.030 42.596, 85.851 43.451 C 80.319 44.363, 76.824 47.550, 77.195 51.343 C 77.625 55.733, 80.913 57.235, 88.500 56.510 C 106.457 54.793, 107.680 54.783, 110.671 56.330 C 114.755 58.442, 115.849 59.981, 117.333 65.703 C 118.836 71.499, 118.535 71.948, 111.547 74.329 C 105.521 76.382, 101.980 76.436, 97.450 74.543 C 95.532 73.742, 93.859 73.114, 93.732 73.147 C 93.604 73.179, 91.025 72.897, 88 72.519 C 83.626 71.973, 81.417 72.259, 77.213 73.916 C 70.788 76.449, 69.183 76.481, 66.140 74.141 C 63.876 72.399, 63.844 72.202, 65.359 69.272 C 66.419 67.222, 67.093 62.441, 67.408 54.719 C 67.779 45.647, 68.313 42.408, 69.939 39.375 C 71.073 37.260, 72 34.580, 72 33.420 C 72 27.757, 63.273 26.057, 58.294 30.750 M 124.500 80.661 C 123.941 80.849, 123.648 83.374, 123.836 86.392 C 124.115 90.859, 123.783 92.234, 121.906 94.393 C 120.659 95.827, 119.045 97, 118.320 97 C 117.594 97, 117 97.860, 117 98.912 C 117 101.683, 124.123 102.805, 127.533 100.570 C 129.546 99.251, 130.020 98.084, 130.106 94.227 C 130.165 91.627, 130.277 88.600, 130.356 87.500 C 130.435 86.400, 129.933 84.901, 129.241 84.169 C 128.548 83.438, 128.206 82.476, 128.480 82.033 C 129.029 81.144, 126.084 80.129, 124.500 80.661 M 82.932 86.126 C 82.095 87.691, 82.087 88.895, 82.900 90.681 C 83.519 92.037, 83.728 94.848, 83.375 97.054 C 82.778 100.788, 82.882 101, 85.313 101 C 88.702 101, 89.225 99.936, 89.560 92.364 C 89.797 86.999, 89.547 85.828, 87.987 84.993 C 85.247 83.527, 84.198 83.762, 82.932 86.126 M 68 85.264 C 68 85.409, 67.100 87.991, 66 91 C 64.900 94.009, 64 97.240, 64 98.179 C 64 100.094, 67.531 102.959, 69.330 102.503 C 75.833 100.852, 76.159 100.166, 72.500 95.818 C 70.763 93.753, 70 91.649, 70 88.923 C 70 86.765, 69.550 85, 69 85 C 68.450 85, 68 85.119, 68 85.264 M 104.473 89.044 C 103.752 90.210, 104.748 92, 106.118 92 C 106.668 92, 106.864 91.588, 106.553 91.085 C 106.242 90.582, 106.530 89.990, 107.193 89.769 C 107.962 89.513, 107.795 89.135, 106.731 88.727 C 105.814 88.375, 104.798 88.518, 104.473 89.044 M 104.298 93.631 C 104.645 93.979, 104.497 95.071, 103.968 96.059 C 102.399 98.992, 103.854 101, 107.548 101 C 109.382 101, 111.165 100.543, 111.510 99.984 C 111.856 99.425, 112.557 99.226, 113.069 99.543 C 113.581 99.859, 114 99.641, 114 99.059 C 114 98.477, 113.619 98, 113.153 98 C 111.743 98, 107.989 94.344, 108.685 93.648 C 109.042 93.292, 108.058 93, 106.500 93 C 104.942 93, 103.951 93.284, 104.298 93.631 M 84 114 C 84 114.550, 84.423 115, 84.941 115 C 85.459 115, 86.160 114.550, 86.500 114 C 86.840 113.450, 86.416 113, 85.559 113 C 84.702 113, 84 113.450, 84 114 M 81.380 125.452 C 80.564 127.579, 81.794 129, 84.452 129 C 87.097 129, 88.734 126.083, 86.784 124.845 C 84.752 123.556, 81.988 123.866, 81.380 125.452 M 131 126.059 C 131 126.641, 130.550 126.840, 130 126.500 C 129.450 126.160, 129 126.531, 129 127.324 C 129 128.790, 132.580 129.973, 134.788 129.237 C 135.454 129.015, 136 127.971, 136 126.917 C 136 125.539, 135.297 125, 133.500 125 C 132.125 125, 131 125.477, 131 126.059 M 104.631 127.518 C 104.208 128.622, 104.820 129, 107.031 129 C 108.664 129, 110 128.475, 110 127.833 C 110 127.192, 109.716 126.951, 109.369 127.298 C 109.021 127.645, 107.941 127.504, 106.968 126.983 C 105.683 126.295, 105.045 126.441, 104.631 127.518 M 77.760 144.841 C 76.517 145.690, 75.214 146.803, 74.865 147.315 C 73.954 148.650, 75.887 155.022, 78.182 158.250 C 79.804 160.533, 80.879 161, 84.511 161 C 89.834 161, 92.008 158.536, 91.985 152.527 C 91.964 147.077, 91.209 146.201, 85.196 144.641 C 80.685 143.471, 79.729 143.496, 77.760 144.841" stroke="none" fill="black" fill-rule="evenodd"/>
</svg>