<svg xmlns="http://www.w3.org/2000/svg" width="256" height="256" viewBox="0 0 256 256" version="1.1">
	<path d="M 71.354 29.357 C 69.784 31.204, 67.717 33.679, 66.760 34.857 C 65.248 36.718, 63.986 37, 57.156 37 C 50.195 37, 48.988 37.281, 46.646 39.452 C 42.456 43.336, 43.253 45.978, 49.200 47.916 C 51.909 48.799, 53.916 48.839, 56.700 48.066 C 66.777 45.268, 70.311 47.227, 71.339 56.180 C 72.011 62.032, 74.113 66.188, 77.253 67.868 C 80.245 69.469, 118.725 68.752, 121.933 67.036 C 124.885 65.456, 126 62.760, 126 57.201 C 126 53.726, 126.612 51.491, 128.073 49.635 C 130.256 46.859, 132.568 46.203, 133.224 48.172 C 133.441 48.824, 136.270 49.537, 139.598 49.777 C 146.842 50.301, 149.087 48.680, 147.113 44.349 C 146.004 41.915, 145.593 41.786, 140.316 42.224 C 136.661 42.527, 134.277 43.268, 133.488 44.347 C 132.370 45.877, 132.082 45.853, 129.773 44.036 C 128.397 42.954, 126.732 40.590, 126.073 38.784 C 123.499 31.724, 120.677 27, 119.035 27 C 117.180 27, 113 30.977, 113 32.742 C 113 33.354, 111.805 34.795, 110.345 35.944 C 107.930 37.843, 106.599 38.005, 95.685 37.736 C 85.305 37.480, 83.533 37.192, 82.590 35.610 C 79.952 31.179, 75.913 26, 75.097 26 C 74.608 26, 72.923 27.511, 71.354 29.357 M 85.029 52.961 C 82.492 54.565, 84.336 54.978, 95.231 55.243 C 105.751 55.499, 107.801 55.104, 106.541 53.067 C 105.722 51.741, 87.102 51.650, 85.029 52.961 M 76 74.243 C 73.525 74.651, 65.875 75.160, 59 75.373 C 52.125 75.586, 44.348 76.321, 41.718 77.007 C 34.632 78.854, 31.901 83.790, 35.941 87.447 C 37.551 88.904, 38.790 89.069, 43.191 88.412 C 46.111 87.977, 48.950 87.570, 49.500 87.509 C 50.050 87.447, 51.850 88.013, 53.500 88.765 L 56.500 90.134 56.424 105.317 C 56.337 122.510, 57.171 127.221, 61.056 131.500 C 62.554 133.150, 64.077 135.490, 64.441 136.700 C 65.738 141.012, 61.057 146.522, 52 151.342 C 50.075 152.366, 48.114 153.567, 47.643 154.010 C 46.250 155.318, 51.003 157.256, 56.808 157.746 C 67.872 158.681, 76.841 153.502, 79.509 144.637 C 80.272 142.102, 81.707 139.183, 82.698 138.150 C 86.403 134.288, 88.245 133.968, 97.121 135.642 C 108.065 137.706, 112.767 140.084, 116.837 145.613 C 119.542 149.289, 122.098 151.094, 130.337 155.149 C 139.023 159.424, 141.134 160.083, 144.862 159.686 C 147.450 159.410, 150.068 158.376, 151.300 157.145 C 153.078 155.366, 153.200 154.743, 152.147 152.785 C 150.769 150.221, 145.723 146.642, 141.976 145.571 C 136.469 143.996, 133 141.562, 133 139.273 C 133 138.023, 133.394 137, 133.875 137 C 136.298 137, 137.789 130.332, 137.938 118.830 C 138.023 112.282, 138.458 105.936, 138.905 104.727 C 139.955 101.891, 137.463 94.094, 134.750 91.725 C 133.631 90.749, 132.954 89.713, 133.243 89.423 C 133.533 89.134, 138.209 88.871, 143.635 88.840 C 155.319 88.774, 156.665 88.495, 158.078 85.854 C 158.889 84.339, 158.777 83.050, 157.622 80.615 C 155.280 75.681, 152.370 74.596, 143.807 75.463 C 134.993 76.356, 134.218 76.347, 111.500 75.090 C 82.967 73.510, 80.757 73.458, 76 74.243 M 66.910 88.608 C 65.779 89.972, 65.851 90.418, 67.385 91.540 C 68.380 92.267, 69.871 92.603, 70.698 92.286 C 71.525 91.968, 72.600 92.337, 73.086 93.104 C 73.637 93.974, 73.975 94.059, 73.985 93.329 C 73.998 92.322, 76.634 91.337, 81.842 90.393 C 84.803 89.856, 84.117 89, 80.726 89 C 78.741 89, 76.840 88.550, 76.500 88 C 75.493 86.371, 68.393 86.821, 66.910 88.608 M 101 89.900 C 101 90.322, 102.555 90.667, 104.456 90.667 C 106.357 90.667, 107.723 90.361, 107.492 89.987 C 106.906 89.039, 101 88.960, 101 89.900 M 113 89.837 C 113 90.297, 115.025 90.653, 117.500 90.626 C 119.975 90.600, 122 90.223, 122 89.789 C 122 89.355, 119.975 89, 117.500 89 C 115.025 89, 113 89.377, 113 89.837 M 127 89.969 C 127 90.501, 127.675 90.678, 128.500 90.362 C 129.325 90.045, 130 89.609, 130 89.393 C 130 89.177, 129.325 89, 128.500 89 C 127.675 89, 127 89.436, 127 89.969 M 68.276 104.633 C 65.711 107.198, 65.693 107.303, 67.572 108.703 C 68.947 109.727, 70.648 109.933, 73.500 109.418 C 78.279 108.555, 80.125 108.575, 85.838 109.548 C 90.009 110.258, 90.164 110.195, 89.838 107.894 C 89.536 105.752, 88.931 105.468, 84.086 105.192 C 81.109 105.023, 77.746 104.235, 76.614 103.442 C 73.599 101.330, 71.242 101.667, 68.276 104.633 M 115 104.621 C 114.175 104.917, 112.825 105.419, 112 105.738 C 111.175 106.057, 110.162 106.246, 109.750 106.159 C 109.338 106.071, 109 106.654, 109 107.453 C 109 109.274, 114.811 110.950, 118.608 110.224 C 122.070 109.562, 124.645 107.245, 123.354 105.954 C 122.166 104.766, 116.929 103.930, 115 104.621 M 68.574 120.667 C 67.684 122.988, 69.013 123.942, 72.250 123.306 C 75.475 122.674, 75.772 121.483, 73.066 120.035 C 70.366 118.590, 69.315 118.738, 68.574 120.667 M 83.152 120.601 C 82.012 121.890, 82.075 122.425, 83.557 124.063 C 84.521 125.128, 86.478 125.993, 87.905 125.985 C 89.741 125.974, 90.103 125.718, 89.143 125.110 C 88.197 124.510, 88.122 124.043, 88.893 123.566 C 90.494 122.577, 90.252 121, 88.500 121 C 87.675 121, 87 120.550, 87 120 C 87 118.504, 84.687 118.865, 83.152 120.601 M 111.250 120.706 C 108.075 121.317, 108.448 122.366, 112.534 124.315 C 116.967 126.429, 124 126.593, 124 124.583 C 124 123.804, 124.563 122.968, 125.250 122.724 C 126.915 122.135, 119.180 119.976, 116 120.142 C 114.625 120.214, 112.487 120.467, 111.250 120.706" stroke="none" fill="black" fill-rule="evenodd"/>
</svg>