<svg xmlns="http://www.w3.org/2000/svg" width="256" height="256" viewBox="0 0 256 256" version="1.1">
	<path d="M 60.502 29.575 C 58.853 30.435, 56.683 31.882, 55.679 32.791 C 54.316 34.024, 51.871 34.450, 46.032 34.471 C 39.770 34.494, 37.790 34.880, 36.105 36.405 C 32.755 39.437, 33.324 40.974, 39.703 46.115 C 42.456 48.333, 43.539 56.773, 41.651 61.294 C 40.434 64.205, 40.440 65.198, 41.693 68.582 C 42.490 70.737, 43.624 74.221, 44.212 76.324 C 45.474 80.838, 44.672 81.956, 37.252 86.040 C 34.137 87.754, 32.500 89.317, 32.500 90.577 C 32.500 92.295, 33.461 92.553, 41.500 93 C 46.450 93.275, 51.523 94.084, 52.773 94.798 C 54.880 96, 54.935 96.255, 53.523 98.270 C 50.757 102.219, 52.470 119.980, 55.980 123.748 C 58.634 126.597, 61.005 131.570, 60.964 134.200 C 60.941 135.654, 59.561 137.539, 57.214 139.324 C 53.732 141.971, 53.091 142.106, 46.941 141.491 C 39.401 140.737, 37.635 141.850, 37.788 147.254 C 37.908 151.476, 40.476 153.337, 45 152.479 C 60.015 149.634, 80.111 149.197, 89.080 151.521 C 92.158 152.318, 96.824 152.877, 99.449 152.763 C 103.231 152.599, 104.570 152.986, 105.902 154.631 C 110.051 159.754, 114.037 160.123, 121.265 156.051 C 125.919 153.429, 127.554 153.077, 136 152.881 C 152.446 152.500, 157.095 150.498, 155.577 144.452 C 154.728 141.068, 149.686 139.904, 141.238 141.141 C 134.271 142.161, 127.351 141.715, 122.186 139.915 C 118.753 138.718, 117.338 134.519, 119.605 132.252 C 120.372 131.485, 121 130.439, 121 129.929 C 121 129.418, 122.463 128.993, 124.250 128.985 C 126.814 128.973, 127.183 128.746, 126 127.914 C 124.876 127.123, 125.378 127.003, 128 127.437 C 141.110 129.605, 144.203 129.357, 146.001 125.998 C 146.774 124.554, 146.664 122.464, 145.593 118.260 C 144.626 114.460, 144.389 111.112, 144.898 108.419 C 146.507 99.911, 142.496 96.939, 127.429 95.476 C 124.168 95.159, 121.073 94.473, 120.550 93.950 C 119.950 93.350, 120.091 93, 120.933 93 C 121.666 93, 122.998 92.213, 123.893 91.250 C 128.003 86.832, 134.280 85.755, 139.919 88.500 C 141.614 89.325, 144.463 90.724, 146.250 91.609 C 151.183 94.051, 160.228 94.635, 161.901 92.620 C 162.968 91.333, 163.002 90.418, 162.063 88.152 C 160.869 85.269, 154.610 81, 151.579 81 C 150.672 81, 148.820 80.273, 147.465 79.385 C 145.476 78.082, 145 76.938, 145 73.456 C 145 71.084, 145.579 68.548, 146.286 67.821 C 150.394 63.602, 152.987 59.127, 152.338 57.381 C 151.505 55.142, 146.976 51.003, 145.357 51.001 C 144.728 51.001, 143.976 50.380, 143.685 49.621 C 143.307 48.636, 144.303 48.089, 147.176 47.703 C 154.165 46.766, 157.603 41.405, 153.434 37.945 C 152.691 37.329, 148.577 36.359, 144.292 35.791 C 140.006 35.222, 136.275 34.450, 136 34.076 C 134.614 32.187, 128.089 28, 126.532 28 C 125.553 28, 122.057 29.800, 118.762 32 C 115.468 34.200, 112.036 36.003, 111.136 36.006 C 110.236 36.010, 108.345 36.615, 106.933 37.352 C 101.352 40.265, 99.547 40.139, 94.400 36.478 C 89.891 33.272, 88.972 33.008, 82.885 33.171 C 77.325 33.320, 75.541 32.921, 71.707 30.674 C 66.445 27.590, 64.647 27.414, 60.502 29.575 M 95.001 46.798 C 93.021 48.401, 92.738 49.716, 92.391 58.937 C 91.909 71.759, 90.640 77, 88.020 77 C 86.974 77, 85.794 77.563, 85.399 78.250 C 85.003 78.938, 85.034 79.180, 85.466 78.790 C 87.603 76.862, 98.537 85.615, 99.507 90.030 C 99.863 91.651, 100.580 93.241, 101.102 93.563 C 101.623 93.885, 101.949 93.778, 101.827 93.324 C 101.311 91.416, 103.408 87.653, 106.644 84.682 C 110.547 81.099, 111.325 78.456, 109.365 75.447 C 107.410 72.444, 104 62.092, 104 59.158 C 104 57.767, 104.942 55.626, 106.094 54.400 C 108.909 51.404, 107.912 48.787, 103.157 46.689 C 98.365 44.575, 97.736 44.583, 95.001 46.798 M 62.061 65.939 C 58.447 69.553, 60.042 76, 64.550 76 C 67.880 76, 71.067 70.905, 70.075 67.165 C 69.149 63.677, 64.964 63.036, 62.061 65.939 M 127 65.893 C 127 68.046, 133.071 68.287, 133.779 66.163 C 134.026 65.423, 132.862 65, 130.583 65 C 128.613 65, 127 65.402, 127 65.893 M 62.238 79.397 C 62.088 81.207, 62.658 81.948, 64.566 82.427 C 67.874 83.258, 69.015 82.450, 68.767 79.450 C 68.599 77.427, 68.030 77, 65.500 77 C 62.989 77, 62.400 77.432, 62.238 79.397 M 65 91.895 C 65 92.503, 64.100 93, 63 93 C 61.711 93, 61 93.667, 61 94.875 C 61 97.222, 64.487 98, 75.008 98 C 82.418 98, 82.788 97.891, 83.229 95.584 C 83.659 93.335, 83.337 93.130, 78.595 92.628 C 75.793 92.332, 71.588 91.797, 69.250 91.440 C 66.422 91.007, 65 91.160, 65 91.895 M 83.447 104.085 C 83.062 104.709, 79.591 105.020, 74.838 104.858 C 66.294 104.567, 64.421 105.500, 65.527 109.500 C 65.831 110.600, 66.261 112.289, 66.483 113.254 C 66.705 114.218, 67.140 115.417, 67.450 115.918 C 67.759 116.419, 67.575 116.980, 67.040 117.165 C 66.506 117.349, 65.941 119.075, 65.784 121 C 65.507 124.416, 65.590 124.502, 69.238 124.571 C 73.559 124.654, 83.519 122.815, 84.599 121.734 C 85.003 121.330, 83.908 121, 82.167 121 C 80.425 121, 79 120.550, 79 120 C 79 119.450, 78.325 119, 77.500 119 C 76.675 119, 76 118.550, 76 118 C 76 117.450, 74.875 117, 73.500 117 C 71.023 117, 70.482 115.248, 72.500 113.765 C 73.111 113.317, 72.990 113.025, 72.191 113.015 C 71.471 113.007, 71.160 112.550, 71.500 112 C 71.840 111.450, 72.959 111, 73.988 111 C 75.016 111, 76.532 110.325, 77.357 109.500 C 79.014 107.843, 81 107.507, 81 108.883 C 81 110.143, 85.055 110.734, 88 109.904 C 89.394 109.511, 89.767 109.155, 88.844 109.100 C 87.782 109.036, 87.349 108.372, 87.637 107.250 C 88.164 105.194, 84.481 102.412, 83.447 104.085 M 114 104.679 C 112.625 105.369, 111.500 106.511, 111.500 107.217 C 111.500 107.923, 111.081 108.802, 110.569 109.171 C 109.028 110.281, 116.017 111.133, 124 110.806 C 128.132 110.638, 131.498 110.051, 131.496 109.500 C 131.492 108.207, 125.614 105.431, 120.500 104.305 C 117.706 103.690, 115.746 103.803, 114 104.679 M 125.250 125.689 C 126.213 125.941, 127.787 125.941, 128.750 125.689 C 129.713 125.438, 128.925 125.232, 127 125.232 C 125.075 125.232, 124.287 125.438, 125.250 125.689 M 94 132.213 C 91.525 132.762, 89.275 133.510, 89 133.876 C 88.725 134.241, 87.267 135.083, 85.759 135.745 C 83.685 136.656, 83.070 137.572, 83.230 139.511 C 83.492 142.679, 86.267 143.540, 91.616 142.113 C 93.752 141.543, 96.963 141.312, 98.750 141.599 C 100.537 141.885, 102 141.712, 102 141.213 C 102 140.714, 103.002 139.858, 104.228 139.312 C 107.562 137.824, 107.226 133.817, 103.635 132.250 C 100.401 130.839, 100.196 130.838, 94 132.213" stroke="none" fill="black" fill-rule="evenodd"/>
</svg>