<svg xmlns="http://www.w3.org/2000/svg" width="256" height="256" viewBox="0 0 256 256" version="1.1">
	<path d="M 60.250 29.220 C 59.013 29.817, 58 30.655, 58 31.082 C 58 31.508, 56.484 33.465, 54.632 35.429 C 51.373 38.884, 51.029 39, 44.033 39 C 36.493 39, 30 41.094, 30 43.525 C 30 45.003, 34.259 48.689, 38.874 51.203 C 41.642 52.712, 41.994 53.399, 41.952 57.203 C 41.874 64.185, 39.317 68.141, 33.500 70.279 C 26.988 72.671, 24.549 75.068, 25.356 78.282 C 26.021 80.933, 31.070 83.693, 33.034 82.479 C 34.957 81.291, 70.773 80.823, 71.486 81.978 C 71.834 82.540, 73.104 83.007, 74.309 83.015 C 75.514 83.023, 78.209 83.625, 80.298 84.353 C 84.252 85.729, 83.956 87.181, 79.500 88.276 C 77.803 88.694, 77.879 88.801, 80 88.984 L 82.500 89.199 80 90 C 75.108 91.567, 69.424 91.102, 66.920 88.931 C 64.702 87.007, 63.761 86.910, 53.517 87.546 C 47.458 87.923, 42.061 88.292, 41.524 88.366 C 40.988 88.440, 39.764 89.453, 38.806 90.617 C 37.389 92.339, 37.084 94.585, 37.175 102.617 C 37.387 121.303, 36.873 134.520, 35.530 144.987 C 34.042 156.578, 34.569 159, 38.581 159 C 42.600 159, 45.668 155.081, 46.479 148.912 C 47.539 140.844, 48.856 139.343, 55.341 138.805 C 58.346 138.556, 63.091 137.220, 65.886 135.837 C 70.869 133.371, 71.007 133.358, 72.984 135.200 C 74.226 136.357, 75 138.357, 75 140.410 C 75 143.096, 74.323 144.203, 71.507 146.121 C 68.690 148.039, 68.012 149.148, 68.007 151.846 C 67.992 158.895, 75.249 164.032, 80.428 160.639 C 83.171 158.842, 87.214 152.666, 86.871 150.795 C 86.741 150.083, 87.167 147.025, 87.819 144 C 88.470 140.975, 89.245 132.650, 89.540 125.500 C 90.478 102.791, 91.332 95.389, 93.262 93.260 C 94.607 91.776, 95.088 89.253, 95.292 82.613 C 95.595 72.737, 95.211 72.044, 88.037 69.513 C 82.217 67.460, 81 66.303, 81 62.828 C 81 57.341, 83.442 54.333, 88.974 53.006 C 92.459 52.170, 94.601 50.964, 95.939 49.085 C 97.866 46.380, 97.865 46.363, 95.555 43.467 C 93.334 40.682, 92.821 40.541, 83.030 40.031 C 73.843 39.553, 72.629 39.264, 70.910 37.139 C 69.860 35.841, 69 33.954, 69 32.946 C 69 31.106, 65.449 27.941, 63.527 28.068 C 62.962 28.105, 61.487 28.624, 60.250 29.220 M 105.123 29.351 C 104.159 30.513, 103.748 36.489, 103.893 47.250 C 104.199 69.987, 104.395 72.538, 105.922 73.717 C 107.052 74.588, 111.543 74.820, 121.722 74.534 C 134.347 74.180, 136.197 74.339, 138.190 75.953 C 140.132 77.525, 140.250 77.993, 139.069 79.417 C 137.981 80.728, 136.049 81.028, 129.601 80.891 C 125.146 80.796, 118.179 81.142, 114.120 81.660 C 108.011 82.439, 106.345 83.060, 104.447 85.266 C 102.668 87.335, 102.322 88.555, 102.900 90.716 C 103.311 92.247, 103.248 95.525, 102.761 98 C 102.273 100.475, 102.143 105.875, 102.470 110 C 102.797 114.125, 103.073 122, 103.084 127.500 C 103.094 133, 103.539 139.159, 104.072 141.186 C 105.308 145.881, 115.253 155.729, 121.196 158.141 C 129.472 161.501, 151.847 159.951, 158.559 155.554 C 161.705 153.492, 161.930 147.452, 159 143.727 C 157.900 142.329, 157 139.871, 157 138.267 C 157 134.671, 153.611 131.284, 148.641 129.911 C 145.850 129.141, 145.004 128.391, 145.015 126.703 C 145.028 124.914, 145.213 124.782, 146 126 C 146.646 127, 146.974 127.083, 146.985 126.250 C 146.993 125.547, 148.243 125, 149.839 125 C 152.794 125, 155.503 121.408, 154.157 119.276 C 153.201 117.761, 142.807 114.254, 138.750 114.077 C 136.386 113.973, 136.514 112.462, 138.902 112.282 C 139.949 112.204, 142.915 111.178, 145.494 110.003 C 149.751 108.064, 150.122 107.623, 149.521 105.228 C 148.116 99.629, 143.351 98.109, 130 99 C 119.317 99.713, 116.527 99.123, 115.705 95.980 C 114.724 92.227, 115.926 90.744, 119.393 91.432 C 125.674 92.681, 141.587 93.787, 146.472 93.315 C 152.550 92.727, 155.505 90.033, 154.427 86.063 C 154.044 84.653, 153.644 81.025, 153.537 78 C 153.310 71.516, 150.094 63.656, 146.988 61.993 C 145.777 61.346, 139.715 60.468, 133.515 60.042 C 127.316 59.617, 121.793 58.990, 121.242 58.650 C 120.692 58.310, 120.003 57.118, 119.711 56.002 C 118.767 52.392, 122.285 51.534, 138.204 51.496 C 151.522 51.463, 153.170 51.263, 155.704 49.372 C 159.434 46.587, 159.477 42.446, 155.805 39.704 C 153.234 37.784, 152.573 37.746, 141.305 38.882 C 125.528 40.473, 121.412 39.701, 117.870 34.485 C 114.121 28.966, 107.618 26.346, 105.123 29.351 M 58.052 53.195 C 49.449 55.603, 50.194 64.629, 59.196 67.053 C 68.311 69.507, 73.451 65.717, 70.521 58.703 C 68.207 53.166, 64.309 51.444, 58.052 53.195 M 66.500 100.595 C 64.945 101.786, 63.043 101.983, 57.948 101.482 C 51.539 100.851, 51.368 100.896, 50.168 103.530 C 49.325 105.381, 49.261 106.609, 49.962 107.454 C 50.523 108.130, 50.687 108.980, 50.325 109.342 C 49.963 109.704, 50.777 110, 52.133 110 C 53.490 110, 55.078 109.522, 55.663 108.937 C 57.533 107.067, 62.898 107.556, 65.302 109.814 C 67.708 112.074, 68.750 117, 66.822 117 C 66.187 117, 65.945 117.279, 66.286 117.619 C 67.380 118.714, 64.224 121, 61.618 121 C 58.679 121, 54 119.059, 54 117.839 C 54 117.378, 52.987 117.002, 51.750 117.005 C 49.828 117.010, 49.467 117.598, 49.270 121.044 C 48.984 126.057, 50.199 126.630, 56.644 124.522 C 61.067 123.075, 61.945 123.069, 65.891 124.462 C 68.289 125.308, 70.987 126, 71.885 126 C 74.146 126, 75.725 123.079, 75.400 119.500 C 74.863 113.601, 74.886 111.447, 75.530 107.680 C 76.595 101.443, 75.519 98.995, 71.731 99.032 C 69.954 99.049, 67.600 99.753, 66.500 100.595 M 116.757 111.511 C 117.320 114.452, 120.127 115.433, 125.680 114.629 C 127.781 114.324, 130.063 114.059, 130.750 114.038 C 131.438 114.017, 132 113.550, 132 113 C 132 112.450, 131.662 112.060, 131.250 112.134 C 129.757 112.400, 123.945 110.721, 123.420 109.871 C 123.124 109.392, 121.396 109, 119.580 109 C 116.593 109, 116.323 109.240, 116.757 111.511 M 119.011 126.487 C 116.109 129.983, 120.531 132.352, 125.316 129.865 C 128.504 128.207, 128.534 128.116, 126.427 126.521 C 123.923 124.627, 120.567 124.612, 119.011 126.487 M 119.250 140.445 C 117.323 142.712, 117.764 144.912, 120.250 145.440 C 129.111 147.323, 140.067 148.080, 143.803 147.068 C 145.940 146.489, 146.428 145.835, 146.152 143.918 C 145.961 142.588, 145.620 141.309, 145.395 141.076 C 145.170 140.843, 141.502 140.558, 137.243 140.441 C 132.984 140.325, 127.475 139.948, 125 139.602 C 121.672 139.138, 120.175 139.357, 119.250 140.445" stroke="none" fill="black" fill-rule="evenodd"/>
</svg>