<svg xmlns="http://www.w3.org/2000/svg" width="256" height="256" viewBox="0 0 256 256" version="1.1">
	<path d="M 89.557 30.223 C 88.701 31.445, 88 33.002, 88 33.684 C 88 35.981, 83.735 38.917, 79.467 39.557 C 76.941 39.936, 72.106 39.548, 67.506 38.597 C 49.509 34.875, 33.279 38.002, 35.429 44.777 C 36.520 48.215, 40.918 49.277, 57.125 50.016 C 65.719 50.408, 73.257 51.041, 73.875 51.423 C 75.686 52.542, 75.184 54.479, 72.410 57.076 C 69.935 59.392, 69.221 59.500, 56.443 59.500 C 44.001 59.500, 42.912 59.654, 40.864 61.697 L 38.661 63.894 41.331 69.039 C 45.230 76.555, 44.918 80.671, 40 86.623 C 35.865 91.626, 35.262 93.752, 37.035 97.066 C 38.274 99.380, 40.833 99.484, 47.409 97.489 C 53.723 95.574, 58.330 95.602, 62.154 97.580 C 64.783 98.939, 65.820 98.978, 69.605 97.861 C 77.900 95.412, 80.729 90.889, 77.879 84.633 C 76.929 82.548, 77.236 81.215, 79.897 75.891 C 81.623 72.436, 84.575 68.200, 86.455 66.477 C 88.336 64.754, 90.128 62.142, 90.438 60.672 C 90.747 59.202, 91.220 56.929, 91.489 55.619 C 92.014 53.065, 94.741 51.858, 98.040 52.721 C 99.768 53.173, 100.043 53.957, 99.840 57.865 C 99.644 61.651, 98.913 63.224, 95.752 66.653 L 91.903 70.829 91.466 81.472 C 91.090 90.615, 91.273 92.359, 92.764 93.853 C 94.668 95.760, 99.338 98, 101.410 98 C 103.193 98, 110.097 92.431, 109.301 91.635 C 108.952 91.286, 109.224 91, 109.905 91 C 110.851 91, 110.831 90.655, 109.821 89.535 C 103.159 82.147, 102.971 80.176, 108.363 74.251 C 113.824 68.250, 117.535 70.714, 117.115 80.061 C 117.052 81.470, 116.072 83.619, 114.938 84.836 C 112.695 87.244, 111.794 90.139, 112.839 91.585 C 114.016 93.214, 121.712 97, 123.847 97 C 126.145 97, 130.498 101.054, 129.151 101.940 C 128.683 102.248, 127.797 103.455, 127.182 104.623 C 125.986 106.897, 117.765 109.591, 115.774 108.360 C 114.678 107.683, 90.564 106.758, 78.394 106.926 C 73.042 107.001, 71.821 106.639, 68.494 103.995 L 64.699 100.979 62.196 104.662 C 60.192 107.611, 59.622 109.858, 59.339 115.923 C 58.818 127.071, 56.694 132.438, 49.928 139.706 C 43.906 146.175, 42.843 148.705, 44.276 153.158 C 45.542 157.092, 49.152 157.581, 54.365 154.526 C 56.736 153.137, 59.601 152, 60.733 152 C 62.693 152, 64.768 150.244, 68.717 145.242 C 72.302 140.702, 91.791 138.171, 101.858 140.937 C 104.255 141.596, 108.080 141.887, 110.358 141.584 C 115.744 140.868, 124.904 140.568, 125.413 141.091 C 125.631 141.316, 126.071 143.162, 126.390 145.194 C 127.310 151.040, 129.963 156.745, 132.550 158.441 C 135.381 160.296, 138.595 160.464, 139.618 158.809 C 140.750 156.978, 140.889 147.371, 139.913 138.500 C 138.418 124.919, 138.631 114.886, 140.491 111.242 C 141.406 109.450, 142.054 106.525, 141.932 104.742 C 141.418 97.264, 141.580 97, 146.679 97 C 149.252 97, 152.836 97.535, 154.643 98.188 C 157.478 99.213, 158.206 99.123, 159.964 97.533 C 163.508 94.325, 162.604 90.531, 157.027 85.211 C 151.638 80.072, 148 71.942, 148 65.040 C 148 62.227, 147.246 60.661, 144.702 58.196 C 140.828 54.441, 138.492 54.190, 135.305 57.184 C 133.468 58.909, 131.672 59.392, 126.740 59.488 C 123.308 59.554, 119.538 60.136, 118.361 60.780 C 116.456 61.824, 116.089 61.629, 114.997 58.994 C 112.516 53.003, 115.034 51.917, 130 52.519 C 135.225 52.729, 139.950 52.936, 140.500 52.979 C 143.636 53.225, 153.868 50.673, 156 49.113 C 159.773 46.353, 159.395 42.135, 155.153 39.658 C 152.054 37.847, 151.118 37.788, 142.462 38.852 C 132.680 40.054, 112.641 40.214, 107.500 39.132 C 105.384 38.686, 103.990 37.468, 102.769 35 C 99.339 28.065, 92.740 25.678, 89.557 30.223 M 129.797 74.203 C 126.666 77.334, 129.238 84.045, 134.053 85.304 C 136.622 85.976, 141.008 82.406, 140.967 79.677 C 140.883 74.203, 133.443 70.557, 129.797 74.203 M 56.750 75.115 C 53.767 77.341, 52.935 82.535, 55.200 84.800 C 56.869 86.469, 62.521 86.299, 66.050 84.474 C 69.771 82.550, 70.059 78.344, 66.686 75.174 C 63.804 72.467, 60.327 72.447, 56.750 75.115 M 119.682 120.695 C 117.096 121.449, 115 122.664, 115 123.409 C 115 125.199, 120.088 127.236, 123.535 126.827 C 127.079 126.406, 128.560 122.924, 126.095 120.813 C 124.596 119.530, 123.733 119.514, 119.682 120.695 M 72 120.987 C 70.837 121.728, 70.750 122.342, 71.612 123.722 C 72.550 125.220, 73.886 125.447, 80.112 125.164 C 85.036 124.940, 89.001 125.352, 92 126.400 C 97.770 128.415, 104.372 128.462, 106 126.500 C 106.685 125.675, 107.934 125, 108.775 125 C 109.872 125, 109.624 124.406, 107.903 122.907 C 105.840 121.110, 104.580 120.881, 99 121.294 C 95.425 121.558, 91.403 122.040, 90.063 122.365 C 88.723 122.691, 84.758 122.292, 81.251 121.479 C 73.779 119.746, 73.934 119.754, 72 120.987" stroke="none" fill="black" fill-rule="evenodd"/>
</svg>