<svg xmlns="http://www.w3.org/2000/svg" width="256" height="256" viewBox="0 0 256 256" version="1.1">
	<path d="M 59.797 30.703 C 58.918 31.691, 57.549 34.075, 56.754 36 C 54.349 41.827, 53.014 42.419, 45.595 40.944 C 39.895 39.811, 38.642 39.865, 34.571 41.420 C 22.485 46.035, 30.283 53.739, 45.592 52.309 C 52.521 51.662, 55 52.704, 55 56.262 C 55 59.154, 52.129 60.932, 47.398 60.968 C 38.282 61.039, 32.397 69.595, 38.649 73.688 C 41.037 75.253, 43.811 75.513, 58.958 75.595 C 68.606 75.647, 78.427 76.033, 80.782 76.453 C 83.566 76.949, 86.102 76.786, 88.032 75.987 C 90.588 74.928, 91 74.229, 91 70.947 C 91 65.861, 87.546 63.387, 79.112 62.433 C 73.845 61.837, 72.657 61.342, 71.757 59.365 C 69.878 55.242, 72.821 53.278, 81.542 52.838 C 90.040 52.409, 92.359 50.915, 92.218 45.960 C 92.084 41.241, 89.333 38.717, 85.020 39.355 C 69.611 41.634, 70.696 41.976, 68.014 34 C 66.806 30.410, 65.984 29.440, 63.948 29.203 C 62.444 29.027, 60.739 29.644, 59.797 30.703 M 122.500 29.806 C 117.670 30.794, 116.679 34.477, 119.920 39.393 C 123.311 44.536, 120.271 48.498, 112.193 49.466 C 105.806 50.231, 99.573 53.700, 98.720 56.965 C 98.362 58.333, 98.977 60.025, 100.462 61.751 C 102.459 64.072, 103.671 64.473, 109.744 64.816 C 116.655 65.206, 116.749 65.250, 118.488 68.855 C 121.572 75.246, 121.906 77.475, 120.132 79.798 C 118.414 82.047, 111.274 85, 107.552 85 C 106.345 85, 103.273 85.710, 100.726 86.578 C 96.533 88.006, 95.832 88.009, 93.298 86.600 C 91.759 85.745, 88.825 84.296, 86.778 83.382 C 84.731 82.467, 83.295 81.332, 83.587 80.859 C 84.407 79.532, 80.475 79.376, 74 80.479 C 72.075 80.807, 64.337 81.184, 56.805 81.318 L 43.111 81.560 40.557 84.530 C 38.358 87.087, 37.387 90.299, 37.902 93.311 C 37.978 93.757, 38.425 97.916, 38.895 102.553 C 39.593 109.437, 40.257 111.649, 42.517 114.611 C 44.641 117.396, 45.389 119.660, 45.737 124.352 C 46.220 130.889, 48.146 135.735, 50.640 136.692 C 51.897 137.174, 51.714 137.710, 49.632 139.641 C 48.232 140.938, 46.631 142, 46.074 142 C 45.517 142, 43.541 142.854, 41.683 143.897 C 39.825 144.941, 37.493 145.953, 36.501 146.147 C 34.291 146.579, 33.551 150.382, 35.381 151.901 C 37.330 153.519, 56.513 156.174, 60.820 155.422 C 65.869 154.541, 74.646 151.596, 79.702 149.086 C 82.013 147.939, 84.622 147, 85.501 147 C 87.721 147, 93 144.159, 93 142.965 C 93 142.423, 92.212 141.341, 91.250 140.560 C 82.470 133.431, 83 134.248, 83 127.845 C 83 121.094, 83.861 118.990, 88.212 115.102 C 91.105 112.517, 91.253 112.013, 91.115 105.263 C 90.987 99.050, 91.276 97.791, 93.400 95.324 L 95.832 92.500 98.416 94.924 C 101.307 97.637, 101.518 98.925, 99.833 103.584 C 98.503 107.265, 98.750 107.643, 105.842 112.775 C 108.968 115.036, 111.250 118, 113.987 123.352 C 118.952 133.059, 118.547 133.881, 105.557 140.471 C 100.106 143.237, 95.486 145.991, 95.292 146.591 C 95.098 147.192, 96.429 149.892, 98.249 152.591 C 101.144 156.884, 101.967 157.481, 104.808 157.349 C 106.894 157.253, 109.927 155.773, 113.279 153.217 C 116.150 151.027, 119.963 148.496, 121.750 147.592 C 123.537 146.688, 125 145.559, 125 145.083 C 125 143.762, 130.036 142.787, 131.346 143.854 C 131.981 144.371, 136.550 147.160, 141.500 150.053 C 147.738 153.698, 151.632 155.334, 154.189 155.383 C 158.544 155.467, 158.794 155.279, 159.589 151.304 C 160.381 147.345, 156.770 143.320, 148.611 139.070 C 142.539 135.906, 140.090 133.605, 140.027 131 C 139.965 128.432, 145.187 113, 146.118 113 C 146.603 113, 147 112.415, 147 111.699 C 147 109.860, 149.352 105.017, 150.250 105.008 C 150.662 105.004, 151 104.358, 151 103.573 C 151 102.787, 152.019 101.325, 153.264 100.323 C 157.491 96.919, 159.760 93.195, 159.246 90.505 C 158.757 87.950, 155.612 85, 153.377 85 C 152.730 85, 148.357 83.391, 143.660 81.425 C 134.039 77.398, 133.807 77.012, 135.585 68 L 136.670 62.500 146.178 62.500 C 156.978 62.500, 159 61.559, 159 56.533 C 159 51.606, 156.022 49.534, 148.646 49.330 C 145.266 49.236, 141.600 49.121, 140.500 49.075 C 136.381 48.900, 132.820 44.748, 131.923 39.073 C 130.756 31.696, 127.744 28.733, 122.500 29.806 M 62 92.932 C 54.540 93.925, 53.146 94.692, 52.132 98.357 C 50.866 102.933, 53.472 105.415, 59.194 105.081 C 64.891 104.750, 65.061 104.756, 68.250 105.445 C 69.840 105.789, 71 105.609, 71 105.020 C 71 104.459, 71.845 104, 72.878 104 C 73.910 104, 75.213 103.438, 75.773 102.750 C 76.729 101.577, 76.610 94.277, 75.619 93.285 C 74.733 92.400, 67.419 92.210, 62 92.932 M 128.500 94.639 C 122.685 95.365, 117.528 97.238, 115.774 99.261 C 114.798 100.386, 114.002 101.575, 114.004 101.903 C 114.017 103.971, 118.506 109.221, 121.708 110.910 C 123.793 112.011, 124.868 112.931, 124.095 112.956 C 122.992 112.990, 123.060 113.409, 124.410 114.900 C 128.613 119.545, 132.326 117.752, 133.524 110.500 C 133.979 107.750, 134.422 105.275, 134.509 105 C 134.854 103.911, 137.084 98.673, 137.464 98.058 C 138.858 95.802, 134.006 93.951, 128.500 94.639 M 60.272 118.961 C 58.105 120.980, 56.413 130.628, 57.283 136 C 57.861 139.565, 63.506 140.017, 67.251 136.798 C 69.655 134.731, 69.984 133.620, 70.525 125.750 L 71.126 117 66.751 117 C 63.788 117, 61.698 117.633, 60.272 118.961" stroke="none" fill="black" fill-rule="evenodd"/>
</svg>