<?xml version="1.0" standalone="no"?>
<!DOCTYPE svg PUBLIC "-//W3C//DTD SVG 1.1//EN" "http://www.w3.org/Graphics/SVG/1.1/DTD/svg11.dtd" >
<svg xmlns="http://www.w3.org/2000/svg" xmlns:svg="http://www.w3.org/2000/svg" xmlns:xlink="http://www.w3.org/1999/xlink" viewBox="0 0 1024 1024"><path d="M474.39 292.16Q458.6 291.08 508.67 279.23Q525 253.61 652.62 260.18Q647.72 253.34 734.57 274.14Q833.12 288.99 864.11 278.49Q875.36 262.08 847.84 309.33Q843 316.74 852.41 326.76Q878.02 364.9 847.86 390.64Q842.38 444.18 855.14 511.73V655.15Q873.12 708.45 847.81 747.88Q852.5 747.2 860.16 782.07Q833.72 784.97 752.38 757.64Q638.84 773.67 582.57 761.06Q550.11 744.11 544.63 762.7Q514.7 759.3 497.16 738.29Q486.27 755.63 483.08 669.74Q483.94 629.05 469.57 431.25Q456.6 390.31 478.67 348.57Q486.63 323.9 480.52 315.38ZM81.28 800.58Q92.66 806.13 88.25 794.75Q105.7 724.23 122.38 685.97Q185.38 592.31 167.13 530.76Q196.6 481.51 200.43 408.83Q186.49 357.11 213.04 287.83Q204.25 225.44 192.36 205.39Q220.23 194.15 227.49 186.24Q233.97 155.01 240.13 156.1Q218.91 171.52 253.3 156.4Q269.55 184.28 281.18 177.54Q271.38 177.85 291.44 226.19Q261.49 238.37 276.16 280.33Q267.85 302.81 261.5 385.06Q252.25 479.6 252.48 515.29Q277.91 522.01 253.4 551.94Q269.7 572.14 286.87 590.29Q308.1 606.31 311.4 632.34Q341.93 642.7 364.82 672.45Q359.06 678.05 392.17 695.4Q387.47 726.73 400.87 720.25Q413.91 741.56 387.98 746.41Q382.78 767.56 379.45 772.46Q362.76 763.16 337.03 738.58Q309.45 709.74 278.25 665.49Q255.74 649.75 230.4 666.64Q253.37 647.68 245.48 625.18Q223.53 659.84 237.63 635.48Q235.81 655.45 225.69 666.22Q214.49 682.84 200.81 700.28Q200.23 739.31 171.8 793.69Q132.86 825.14 140.42 840.64Q121.45 862.18 107.4 853.96Q102.63 844.97 102.18 846.02Q70.11 828.19 74.77 816.13Q69.14 832.97 69.46 813.76Q80.52 815.19 86.83 795.64ZM395.25 866.03Q397.89 837.84 394.33 835.63Q434.75 841.11 531.71 826.76Q582.25 843.27 756.51 824.02Q895.65 853.09 949.07 840.91Q968.82 834.31 965.92 867.44Q939.07 846.57 965.89 880.39Q965.38 878.35 946.31 903.12Q956.86 920.33 918.05 902.78Q890.78 899.54 828.67 887.33Q803.78 921.98 670.59 920.39Q497.33 906.86 449.77 901.18Q412.57 894.28 384.87 902.02Q386.48 863.88 397.51 873.56ZM437.59 131.19L443.58 133.6L670.18 109.68Q736.03 127.54 806.73 128.34Q878.55 137.62 887.27 126.42Q909.02 105.02 918.54 127.55Q922.12 146.22 928.22 138.8Q950.87 159.98 949.76 147.78Q948.96 177.78 931.46 174.39Q939.2 171.57 921.51 202.61Q939.05 185.36 876.49 207.25Q852.61 206.57 665.43 195.41Q583.09 185.82 517.03 213.06Q425.88 189.18 426.48 188.63Q399.64 186.05 428.48 192.9Q421.67 176.18 427.03 149.38Q415.76 171.7 423.23 151.23ZM555.79 533.87L548.92 565.54Q571.75 588.79 542.18 586.01Q551.46 633.11 543.9 626.57L583.4 701.46L586.15 699.92Q621.84 701.39 625.95 695.16Q665.79 694.52 705.18 703.59L769.96 703.81L788.2 515.75ZM548.88 434.57Q584.45 470.28 627.09 469.11Q668.21 458.98 670.45 446.24Q696.48 440.03 691.61 446.35Q761.48 472.35 769.16 431.8Q786.28 444.16 806.47 398.03Q776.44 414.46 777.17 392.8L798.4 343.83L671.69 336.69L557.48 352.15V371.87Q545.79 397.15 529.73 403.44Q546.87 443.89 548.18 440.87ZM69.32 309.85Q70.85 291.09 73.14 261.36Q74.01 264.83 104.08 255.86Q92.34 270.15 130.83 284.87Q150.65 302.46 152.02 370.77Q174.66 422.68 167.87 451.27Q172.64 450.71 174.51 469.69Q188.06 457.83 145.57 464.99Q137.16 456.68 148.21 455.82Q124.3 484.79 105.25 444.13Q91.49 419.56 97.77 361.37Q46.4 293.46 80.17 292.54ZM323.24 363Q350.62 302.04 364.73 273.11Q358.52 239.28 369.17 249.07Q364.47 257.46 372.55 233.45Q371.18 257.82 373.2 228.72Q415.3 228.06 393.9 244.29Q406.86 266.66 399.1 274.98Q400.79 277.88 410.92 375.4Q387.54 405.52 372.96 417.88Q349.48 441.46 354.01 455.03Q337.26 452.06 347.53 430.61Q314.53 432.03 307.81 439.73Q300.79 410.74 321.59 405.45Q310.62 380 327.32 366.03Z" fill="black"></path></svg>