<?xml version="1.0" standalone="no"?>
<!DOCTYPE svg PUBLIC "-//W3C//DTD SVG 1.1//EN" "http://www.w3.org/Graphics/SVG/1.1/DTD/svg11.dtd" >
<svg xmlns="http://www.w3.org/2000/svg" xmlns:svg="http://www.w3.org/2000/svg" xmlns:xlink="http://www.w3.org/1999/xlink" viewBox="0 0 1024 1024"><path d="M471.0 307.0Q475.0 280.0 496.0 276.0Q528.0 270.0 647.0 270.0Q665.0 270.0 750.0 270.5Q835.0 271.0 860.0 278.0Q862.0 281.0 862.5 305.5Q863.0 330.0 863.0 344.0Q863.0 372.0 862.0 407.0Q860.0 461.0 860.0 528.0V647.0Q858.0 695.0 857.0 728.5Q856.0 762.0 854.0 766.0Q842.0 769.0 748.5 769.0Q655.0 769.0 583.0 766.0Q554.0 764.0 531.5 760.5Q509.0 757.0 503.0 753.0Q494.0 749.0 487.0 681.0Q480.0 613.0 473.0 445.0Q469.0 379.0 469.0 343.0Q469.0 318.0 471.0 307.0ZM76.0 805.0Q79.0 796.0 89.0 780.0Q113.0 744.0 140.0 674.0Q167.0 604.0 181.0 544.0Q192.0 490.0 199.0 417.0Q206.0 344.0 206.0 276.0Q206.0 215.0 209.0 195.0Q212.0 175.0 219.0 173.0Q225.0 169.0 234.0 169.0Q237.0 169.0 245.0 170.5Q253.0 172.0 262.0 179.0Q273.0 188.0 274.5 217.5Q276.0 247.0 276.0 262.0Q276.0 305.0 271.0 371.0Q264.0 474.0 264.0 514.0Q264.0 522.0 265.0 540.5Q266.0 559.0 287.0 584.0Q300.0 602.0 320.0 626.0Q340.0 650.0 358.0 670.0Q379.0 694.0 390.0 709.0Q401.0 724.0 401.0 733.0Q401.0 746.0 389.0 756.5Q377.0 767.0 363.0 769.0Q349.0 767.0 321.0 741.0Q293.0 715.0 268.0 679.0Q255.0 663.0 246.0 653.0Q237.0 643.0 234.0 643.0Q233.0 643.0 233.0 643.0Q232.0 647.0 225.5 662.0Q219.0 677.0 212.0 697.0Q192.0 748.0 164.0 794.5Q136.0 841.0 124.0 848.0Q116.0 850.0 110.0 850.0Q101.0 850.0 92.5 845.5Q84.0 841.0 79.0 825.0Q75.0 818.0 75.0 811.0Q75.0 808.0 76.0 805.0ZM383.0 862.0Q383.0 841.0 394.0 834.0Q423.0 829.0 537.0 829.0Q595.0 829.0 752.5 831.5Q910.0 834.0 950.0 841.0Q958.0 849.0 958.0 864.0Q958.0 865.0 957.5 874.5Q957.0 884.0 948.0 895.0Q946.0 902.0 912.5 902.5Q879.0 903.0 848.0 903.0Q787.0 903.0 671.0 902.0Q512.0 902.0 453.5 899.5Q395.0 897.0 394.0 892.0Q383.0 883.0 383.0 862.0ZM424.0 143.0 433.0 127.0 653.0 125.0Q746.0 125.0 814.5 124.0Q883.0 123.0 896.0 121.0Q908.0 121.0 915.5 124.0Q923.0 127.0 928.0 136.0Q938.0 147.0 938.0 158.0Q938.0 159.0 937.5 165.5Q937.0 172.0 926.0 184.0Q925.0 195.0 885.0 197.0Q845.0 199.0 674.0 199.0Q574.0 199.0 504.5 197.0Q435.0 195.0 430.0 193.0Q419.0 186.0 418.0 177.0Q417.0 168.0 417.0 165.0Q417.0 153.0 424.0 143.0ZM548.0 535.0 552.0 559.0Q554.0 569.0 556.5 591.5Q559.0 614.0 561.0 638.0L565.0 690.0L599.0 692.0Q613.0 694.0 643.5 694.5Q674.0 695.0 707.0 695.0L781.0 694.0L784.0 535.0ZM556.0 450.0Q569.0 458.0 638.0 458.0Q651.0 458.0 667.0 458.0Q684.0 458.0 699.0 458.0Q766.0 458.0 779.0 451.5Q792.0 445.0 792.0 415.0Q792.0 402.0 790.0 386.0L788.0 344.0L665.0 343.0L545.0 341.0V384.0Q543.0 399.0 543.0 410.0Q543.0 443.0 556.0 450.0ZM66.0 297.0Q66.0 287.0 77.0 276.0Q90.0 263.0 102.0 263.0Q111.0 263.0 125.5 275.0Q140.0 287.0 161.0 352.0Q181.0 409.0 181.0 437.0Q181.0 440.0 179.5 455.0Q178.0 470.0 149.0 470.0Q147.0 470.0 146.0 470.0Q128.0 470.0 115.0 447.5Q102.0 425.0 79.0 346.0Q66.0 308.0 66.0 297.0ZM318.0 353.0Q331.0 316.0 349.0 274.0Q358.0 254.0 363.0 249.0Q368.0 244.0 381.0 244.0Q383.0 244.0 386.0 244.0Q412.0 244.0 413.0 255.5Q414.0 267.0 414.0 269.0Q414.0 295.0 392.0 364.0Q374.0 422.0 364.0 435.5Q354.0 449.0 345.0 449.0Q338.0 449.0 329.0 443.0Q314.0 436.0 309.0 428.0Q304.0 420.0 304.0 406.0Q305.0 391.0 318.0 353.0Z" fill="black"></path></svg>